<?xml version="1.0" encoding="utf-8" standalone="no"?>
<!DOCTYPE svg PUBLIC "-//W3C//DTD SVG 1.1//EN"
  "http://www.w3.org/Graphics/SVG/1.1/DTD/svg11.dtd">
<svg xmlns:xlink="http://www.w3.org/1999/xlink" width="1440pt" height="936pt" viewBox="0 0 1440 936" xmlns="http://www.w3.org/2000/svg" version="1.1">
 <metadata>
  <rdf:RDF xmlns:dc="http://purl.org/dc/elements/1.1/" xmlns:cc="http://creativecommons.org/ns#" xmlns:rdf="http://www.w3.org/1999/02/22-rdf-syntax-ns#">
   <cc:Work>
    <dc:type rdf:resource="http://purl.org/dc/dcmitype/StillImage"/>
    <dc:date>2023-08-17T12:16:33.099905</dc:date>
    <dc:format>image/svg+xml</dc:format>
    <dc:creator>
     <cc:Agent>
      <dc:title>Matplotlib v3.6.1, https://matplotlib.org/</dc:title>
     </cc:Agent>
    </dc:creator>
   </cc:Work>
  </rdf:RDF>
 </metadata>
 <defs>
  <style type="text/css">*{stroke-linejoin: round; stroke-linecap: butt}</style>
 </defs>
 <g id="figure_1">
  <g id="patch_1">
   <path d="M 0 936 
L 1440 936 
L 1440 0 
L 0 0 
z
" style="fill: #ffffff"/>
  </g>
  <g id="axes_1">
   <g id="patch_2">
    <path d="M 180 833.04 
L 1296 833.04 
L 1296 112.32 
L 180 112.32 
z
" style="fill: #ffffff"/>
   </g>
   <g id="matplotlib.axis_1">
    <g id="xtick_1">
     <g id="line2d_1">
      <path d="M 180 833.04 
L 180 112.32 
" clip-path="url(#pdd03eb2f00)" style="fill: none; stroke: #b0b0b0; stroke-width: 0.8; stroke-linecap: square"/>
     </g>
     <g id="line2d_2">
      <defs>
       <path id="m4444f991e5" d="M 0 0 
L 0 3.5 
" style="stroke: #000000; stroke-width: 0.8"/>
      </defs>
      <g>
       <use xlink:href="#m4444f991e5" x="180" y="833.04" style="stroke: #000000; stroke-width: 0.8"/>
      </g>
     </g>
     <g id="text_1">
      <!-- 24 -->
      <g transform="translate(167.275 855.236875) scale(0.2 -0.2)">
       <defs>
        <path id="DejaVuSans-32" d="M 1228 531 
L 3431 531 
L 3431 0 
L 469 0 
L 469 531 
Q 828 903 1448 1529 
Q 2069 2156 2228 2338 
Q 2531 2678 2651 2914 
Q 2772 3150 2772 3378 
Q 2772 3750 2511 3984 
Q 2250 4219 1831 4219 
Q 1534 4219 1204 4116 
Q 875 4013 500 3803 
L 500 4441 
Q 881 4594 1212 4672 
Q 1544 4750 1819 4750 
Q 2544 4750 2975 4387 
Q 3406 4025 3406 3419 
Q 3406 3131 3298 2873 
Q 3191 2616 2906 2266 
Q 2828 2175 2409 1742 
Q 1991 1309 1228 531 
z
" transform="scale(0.015625)"/>
        <path id="DejaVuSans-34" d="M 2419 4116 
L 825 1625 
L 2419 1625 
L 2419 4116 
z
M 2253 4666 
L 3047 4666 
L 3047 1625 
L 3713 1625 
L 3713 1100 
L 3047 1100 
L 3047 0 
L 2419 0 
L 2419 1100 
L 313 1100 
L 313 1709 
L 2253 4666 
z
" transform="scale(0.015625)"/>
       </defs>
       <use xlink:href="#DejaVuSans-32"/>
       <use xlink:href="#DejaVuSans-34" x="63.623047"/>
      </g>
     </g>
    </g>
    <g id="xtick_2">
     <g id="line2d_3">
      <path d="M 311.294118 833.04 
L 311.294118 112.32 
" clip-path="url(#pdd03eb2f00)" style="fill: none; stroke: #b0b0b0; stroke-width: 0.8; stroke-linecap: square"/>
     </g>
     <g id="line2d_4">
      <g>
       <use xlink:href="#m4444f991e5" x="311.294118" y="833.04" style="stroke: #000000; stroke-width: 0.8"/>
      </g>
     </g>
     <g id="text_2">
      <!-- 26 -->
      <g transform="translate(298.569118 855.236875) scale(0.2 -0.2)">
       <defs>
        <path id="DejaVuSans-36" d="M 2113 2584 
Q 1688 2584 1439 2293 
Q 1191 2003 1191 1497 
Q 1191 994 1439 701 
Q 1688 409 2113 409 
Q 2538 409 2786 701 
Q 3034 994 3034 1497 
Q 3034 2003 2786 2293 
Q 2538 2584 2113 2584 
z
M 3366 4563 
L 3366 3988 
Q 3128 4100 2886 4159 
Q 2644 4219 2406 4219 
Q 1781 4219 1451 3797 
Q 1122 3375 1075 2522 
Q 1259 2794 1537 2939 
Q 1816 3084 2150 3084 
Q 2853 3084 3261 2657 
Q 3669 2231 3669 1497 
Q 3669 778 3244 343 
Q 2819 -91 2113 -91 
Q 1303 -91 875 529 
Q 447 1150 447 2328 
Q 447 3434 972 4092 
Q 1497 4750 2381 4750 
Q 2619 4750 2861 4703 
Q 3103 4656 3366 4563 
z
" transform="scale(0.015625)"/>
       </defs>
       <use xlink:href="#DejaVuSans-32"/>
       <use xlink:href="#DejaVuSans-36" x="63.623047"/>
      </g>
     </g>
    </g>
    <g id="xtick_3">
     <g id="line2d_5">
      <path d="M 442.588235 833.04 
L 442.588235 112.32 
" clip-path="url(#pdd03eb2f00)" style="fill: none; stroke: #b0b0b0; stroke-width: 0.8; stroke-linecap: square"/>
     </g>
     <g id="line2d_6">
      <g>
       <use xlink:href="#m4444f991e5" x="442.588235" y="833.04" style="stroke: #000000; stroke-width: 0.8"/>
      </g>
     </g>
     <g id="text_3">
      <!-- 28 -->
      <g transform="translate(429.863235 855.236875) scale(0.2 -0.2)">
       <defs>
        <path id="DejaVuSans-38" d="M 2034 2216 
Q 1584 2216 1326 1975 
Q 1069 1734 1069 1313 
Q 1069 891 1326 650 
Q 1584 409 2034 409 
Q 2484 409 2743 651 
Q 3003 894 3003 1313 
Q 3003 1734 2745 1975 
Q 2488 2216 2034 2216 
z
M 1403 2484 
Q 997 2584 770 2862 
Q 544 3141 544 3541 
Q 544 4100 942 4425 
Q 1341 4750 2034 4750 
Q 2731 4750 3128 4425 
Q 3525 4100 3525 3541 
Q 3525 3141 3298 2862 
Q 3072 2584 2669 2484 
Q 3125 2378 3379 2068 
Q 3634 1759 3634 1313 
Q 3634 634 3220 271 
Q 2806 -91 2034 -91 
Q 1263 -91 848 271 
Q 434 634 434 1313 
Q 434 1759 690 2068 
Q 947 2378 1403 2484 
z
M 1172 3481 
Q 1172 3119 1398 2916 
Q 1625 2713 2034 2713 
Q 2441 2713 2670 2916 
Q 2900 3119 2900 3481 
Q 2900 3844 2670 4047 
Q 2441 4250 2034 4250 
Q 1625 4250 1398 4047 
Q 1172 3844 1172 3481 
z
" transform="scale(0.015625)"/>
       </defs>
       <use xlink:href="#DejaVuSans-32"/>
       <use xlink:href="#DejaVuSans-38" x="63.623047"/>
      </g>
     </g>
    </g>
    <g id="xtick_4">
     <g id="line2d_7">
      <path d="M 573.882353 833.04 
L 573.882353 112.32 
" clip-path="url(#pdd03eb2f00)" style="fill: none; stroke: #b0b0b0; stroke-width: 0.8; stroke-linecap: square"/>
     </g>
     <g id="line2d_8">
      <g>
       <use xlink:href="#m4444f991e5" x="573.882353" y="833.04" style="stroke: #000000; stroke-width: 0.8"/>
      </g>
     </g>
     <g id="text_4">
      <!-- 30 -->
      <g transform="translate(561.157353 855.236875) scale(0.2 -0.2)">
       <defs>
        <path id="DejaVuSans-33" d="M 2597 2516 
Q 3050 2419 3304 2112 
Q 3559 1806 3559 1356 
Q 3559 666 3084 287 
Q 2609 -91 1734 -91 
Q 1441 -91 1130 -33 
Q 819 25 488 141 
L 488 750 
Q 750 597 1062 519 
Q 1375 441 1716 441 
Q 2309 441 2620 675 
Q 2931 909 2931 1356 
Q 2931 1769 2642 2001 
Q 2353 2234 1838 2234 
L 1294 2234 
L 1294 2753 
L 1863 2753 
Q 2328 2753 2575 2939 
Q 2822 3125 2822 3475 
Q 2822 3834 2567 4026 
Q 2313 4219 1838 4219 
Q 1578 4219 1281 4162 
Q 984 4106 628 3988 
L 628 4550 
Q 988 4650 1302 4700 
Q 1616 4750 1894 4750 
Q 2613 4750 3031 4423 
Q 3450 4097 3450 3541 
Q 3450 3153 3228 2886 
Q 3006 2619 2597 2516 
z
" transform="scale(0.015625)"/>
        <path id="DejaVuSans-30" d="M 2034 4250 
Q 1547 4250 1301 3770 
Q 1056 3291 1056 2328 
Q 1056 1369 1301 889 
Q 1547 409 2034 409 
Q 2525 409 2770 889 
Q 3016 1369 3016 2328 
Q 3016 3291 2770 3770 
Q 2525 4250 2034 4250 
z
M 2034 4750 
Q 2819 4750 3233 4129 
Q 3647 3509 3647 2328 
Q 3647 1150 3233 529 
Q 2819 -91 2034 -91 
Q 1250 -91 836 529 
Q 422 1150 422 2328 
Q 422 3509 836 4129 
Q 1250 4750 2034 4750 
z
" transform="scale(0.015625)"/>
       </defs>
       <use xlink:href="#DejaVuSans-33"/>
       <use xlink:href="#DejaVuSans-30" x="63.623047"/>
      </g>
     </g>
    </g>
    <g id="xtick_5">
     <g id="line2d_9">
      <path d="M 705.176471 833.04 
L 705.176471 112.32 
" clip-path="url(#pdd03eb2f00)" style="fill: none; stroke: #b0b0b0; stroke-width: 0.8; stroke-linecap: square"/>
     </g>
     <g id="line2d_10">
      <g>
       <use xlink:href="#m4444f991e5" x="705.176471" y="833.04" style="stroke: #000000; stroke-width: 0.8"/>
      </g>
     </g>
     <g id="text_5">
      <!-- 32 -->
      <g transform="translate(692.451471 855.236875) scale(0.2 -0.2)">
       <use xlink:href="#DejaVuSans-33"/>
       <use xlink:href="#DejaVuSans-32" x="63.623047"/>
      </g>
     </g>
    </g>
    <g id="xtick_6">
     <g id="line2d_11">
      <path d="M 836.470588 833.04 
L 836.470588 112.32 
" clip-path="url(#pdd03eb2f00)" style="fill: none; stroke: #b0b0b0; stroke-width: 0.8; stroke-linecap: square"/>
     </g>
     <g id="line2d_12">
      <g>
       <use xlink:href="#m4444f991e5" x="836.470588" y="833.04" style="stroke: #000000; stroke-width: 0.8"/>
      </g>
     </g>
     <g id="text_6">
      <!-- 34 -->
      <g transform="translate(823.745588 855.236875) scale(0.2 -0.2)">
       <use xlink:href="#DejaVuSans-33"/>
       <use xlink:href="#DejaVuSans-34" x="63.623047"/>
      </g>
     </g>
    </g>
    <g id="xtick_7">
     <g id="line2d_13">
      <path d="M 967.764706 833.04 
L 967.764706 112.32 
" clip-path="url(#pdd03eb2f00)" style="fill: none; stroke: #b0b0b0; stroke-width: 0.8; stroke-linecap: square"/>
     </g>
     <g id="line2d_14">
      <g>
       <use xlink:href="#m4444f991e5" x="967.764706" y="833.04" style="stroke: #000000; stroke-width: 0.8"/>
      </g>
     </g>
     <g id="text_7">
      <!-- 36 -->
      <g transform="translate(955.039706 855.236875) scale(0.2 -0.2)">
       <use xlink:href="#DejaVuSans-33"/>
       <use xlink:href="#DejaVuSans-36" x="63.623047"/>
      </g>
     </g>
    </g>
    <g id="xtick_8">
     <g id="line2d_15">
      <path d="M 1099.058824 833.04 
L 1099.058824 112.32 
" clip-path="url(#pdd03eb2f00)" style="fill: none; stroke: #b0b0b0; stroke-width: 0.8; stroke-linecap: square"/>
     </g>
     <g id="line2d_16">
      <g>
       <use xlink:href="#m4444f991e5" x="1099.058824" y="833.04" style="stroke: #000000; stroke-width: 0.8"/>
      </g>
     </g>
     <g id="text_8">
      <!-- 38 -->
      <g transform="translate(1086.333824 855.236875) scale(0.2 -0.2)">
       <use xlink:href="#DejaVuSans-33"/>
       <use xlink:href="#DejaVuSans-38" x="63.623047"/>
      </g>
     </g>
    </g>
    <g id="xtick_9">
     <g id="line2d_17">
      <path d="M 1230.352941 833.04 
L 1230.352941 112.32 
" clip-path="url(#pdd03eb2f00)" style="fill: none; stroke: #b0b0b0; stroke-width: 0.8; stroke-linecap: square"/>
     </g>
     <g id="line2d_18">
      <g>
       <use xlink:href="#m4444f991e5" x="1230.352941" y="833.04" style="stroke: #000000; stroke-width: 0.8"/>
      </g>
     </g>
     <g id="text_9">
      <!-- 40 -->
      <g transform="translate(1217.627941 855.236875) scale(0.2 -0.2)">
       <use xlink:href="#DejaVuSans-34"/>
       <use xlink:href="#DejaVuSans-30" x="63.623047"/>
      </g>
     </g>
    </g>
    <g id="text_10">
     <!-- Gaskühlerdruck in bar -->
     <g transform="translate(627.748438 878.593125) scale(0.2 -0.2)">
      <defs>
       <path id="DejaVuSans-47" d="M 3809 666 
L 3809 1919 
L 2778 1919 
L 2778 2438 
L 4434 2438 
L 4434 434 
Q 4069 175 3628 42 
Q 3188 -91 2688 -91 
Q 1594 -91 976 548 
Q 359 1188 359 2328 
Q 359 3472 976 4111 
Q 1594 4750 2688 4750 
Q 3144 4750 3555 4637 
Q 3966 4525 4313 4306 
L 4313 3634 
Q 3963 3931 3569 4081 
Q 3175 4231 2741 4231 
Q 1884 4231 1454 3753 
Q 1025 3275 1025 2328 
Q 1025 1384 1454 906 
Q 1884 428 2741 428 
Q 3075 428 3337 486 
Q 3600 544 3809 666 
z
" transform="scale(0.015625)"/>
       <path id="DejaVuSans-61" d="M 2194 1759 
Q 1497 1759 1228 1600 
Q 959 1441 959 1056 
Q 959 750 1161 570 
Q 1363 391 1709 391 
Q 2188 391 2477 730 
Q 2766 1069 2766 1631 
L 2766 1759 
L 2194 1759 
z
M 3341 1997 
L 3341 0 
L 2766 0 
L 2766 531 
Q 2569 213 2275 61 
Q 1981 -91 1556 -91 
Q 1019 -91 701 211 
Q 384 513 384 1019 
Q 384 1609 779 1909 
Q 1175 2209 1959 2209 
L 2766 2209 
L 2766 2266 
Q 2766 2663 2505 2880 
Q 2244 3097 1772 3097 
Q 1472 3097 1187 3025 
Q 903 2953 641 2809 
L 641 3341 
Q 956 3463 1253 3523 
Q 1550 3584 1831 3584 
Q 2591 3584 2966 3190 
Q 3341 2797 3341 1997 
z
" transform="scale(0.015625)"/>
       <path id="DejaVuSans-73" d="M 2834 3397 
L 2834 2853 
Q 2591 2978 2328 3040 
Q 2066 3103 1784 3103 
Q 1356 3103 1142 2972 
Q 928 2841 928 2578 
Q 928 2378 1081 2264 
Q 1234 2150 1697 2047 
L 1894 2003 
Q 2506 1872 2764 1633 
Q 3022 1394 3022 966 
Q 3022 478 2636 193 
Q 2250 -91 1575 -91 
Q 1294 -91 989 -36 
Q 684 19 347 128 
L 347 722 
Q 666 556 975 473 
Q 1284 391 1588 391 
Q 1994 391 2212 530 
Q 2431 669 2431 922 
Q 2431 1156 2273 1281 
Q 2116 1406 1581 1522 
L 1381 1569 
Q 847 1681 609 1914 
Q 372 2147 372 2553 
Q 372 3047 722 3315 
Q 1072 3584 1716 3584 
Q 2034 3584 2315 3537 
Q 2597 3491 2834 3397 
z
" transform="scale(0.015625)"/>
       <path id="DejaVuSans-6b" d="M 581 4863 
L 1159 4863 
L 1159 1991 
L 2875 3500 
L 3609 3500 
L 1753 1863 
L 3688 0 
L 2938 0 
L 1159 1709 
L 1159 0 
L 581 0 
L 581 4863 
z
" transform="scale(0.015625)"/>
       <path id="DejaVuSans-fc" d="M 544 1381 
L 544 3500 
L 1119 3500 
L 1119 1403 
Q 1119 906 1312 657 
Q 1506 409 1894 409 
Q 2359 409 2629 706 
Q 2900 1003 2900 1516 
L 2900 3500 
L 3475 3500 
L 3475 0 
L 2900 0 
L 2900 538 
Q 2691 219 2414 64 
Q 2138 -91 1772 -91 
Q 1169 -91 856 284 
Q 544 659 544 1381 
z
M 1991 3584 
L 1991 3584 
z
M 2278 4850 
L 2912 4850 
L 2912 4219 
L 2278 4219 
L 2278 4850 
z
M 1056 4850 
L 1690 4850 
L 1690 4219 
L 1056 4219 
L 1056 4850 
z
" transform="scale(0.015625)"/>
       <path id="DejaVuSans-68" d="M 3513 2113 
L 3513 0 
L 2938 0 
L 2938 2094 
Q 2938 2591 2744 2837 
Q 2550 3084 2163 3084 
Q 1697 3084 1428 2787 
Q 1159 2491 1159 1978 
L 1159 0 
L 581 0 
L 581 4863 
L 1159 4863 
L 1159 2956 
Q 1366 3272 1645 3428 
Q 1925 3584 2291 3584 
Q 2894 3584 3203 3211 
Q 3513 2838 3513 2113 
z
" transform="scale(0.015625)"/>
       <path id="DejaVuSans-6c" d="M 603 4863 
L 1178 4863 
L 1178 0 
L 603 0 
L 603 4863 
z
" transform="scale(0.015625)"/>
       <path id="DejaVuSans-65" d="M 3597 1894 
L 3597 1613 
L 953 1613 
Q 991 1019 1311 708 
Q 1631 397 2203 397 
Q 2534 397 2845 478 
Q 3156 559 3463 722 
L 3463 178 
Q 3153 47 2828 -22 
Q 2503 -91 2169 -91 
Q 1331 -91 842 396 
Q 353 884 353 1716 
Q 353 2575 817 3079 
Q 1281 3584 2069 3584 
Q 2775 3584 3186 3129 
Q 3597 2675 3597 1894 
z
M 3022 2063 
Q 3016 2534 2758 2815 
Q 2500 3097 2075 3097 
Q 1594 3097 1305 2825 
Q 1016 2553 972 2059 
L 3022 2063 
z
" transform="scale(0.015625)"/>
       <path id="DejaVuSans-72" d="M 2631 2963 
Q 2534 3019 2420 3045 
Q 2306 3072 2169 3072 
Q 1681 3072 1420 2755 
Q 1159 2438 1159 1844 
L 1159 0 
L 581 0 
L 581 3500 
L 1159 3500 
L 1159 2956 
Q 1341 3275 1631 3429 
Q 1922 3584 2338 3584 
Q 2397 3584 2469 3576 
Q 2541 3569 2628 3553 
L 2631 2963 
z
" transform="scale(0.015625)"/>
       <path id="DejaVuSans-64" d="M 2906 2969 
L 2906 4863 
L 3481 4863 
L 3481 0 
L 2906 0 
L 2906 525 
Q 2725 213 2448 61 
Q 2172 -91 1784 -91 
Q 1150 -91 751 415 
Q 353 922 353 1747 
Q 353 2572 751 3078 
Q 1150 3584 1784 3584 
Q 2172 3584 2448 3432 
Q 2725 3281 2906 2969 
z
M 947 1747 
Q 947 1113 1208 752 
Q 1469 391 1925 391 
Q 2381 391 2643 752 
Q 2906 1113 2906 1747 
Q 2906 2381 2643 2742 
Q 2381 3103 1925 3103 
Q 1469 3103 1208 2742 
Q 947 2381 947 1747 
z
" transform="scale(0.015625)"/>
       <path id="DejaVuSans-75" d="M 544 1381 
L 544 3500 
L 1119 3500 
L 1119 1403 
Q 1119 906 1312 657 
Q 1506 409 1894 409 
Q 2359 409 2629 706 
Q 2900 1003 2900 1516 
L 2900 3500 
L 3475 3500 
L 3475 0 
L 2900 0 
L 2900 538 
Q 2691 219 2414 64 
Q 2138 -91 1772 -91 
Q 1169 -91 856 284 
Q 544 659 544 1381 
z
M 1991 3584 
L 1991 3584 
z
" transform="scale(0.015625)"/>
       <path id="DejaVuSans-63" d="M 3122 3366 
L 3122 2828 
Q 2878 2963 2633 3030 
Q 2388 3097 2138 3097 
Q 1578 3097 1268 2742 
Q 959 2388 959 1747 
Q 959 1106 1268 751 
Q 1578 397 2138 397 
Q 2388 397 2633 464 
Q 2878 531 3122 666 
L 3122 134 
Q 2881 22 2623 -34 
Q 2366 -91 2075 -91 
Q 1284 -91 818 406 
Q 353 903 353 1747 
Q 353 2603 823 3093 
Q 1294 3584 2113 3584 
Q 2378 3584 2631 3529 
Q 2884 3475 3122 3366 
z
" transform="scale(0.015625)"/>
       <path id="DejaVuSans-20" transform="scale(0.015625)"/>
       <path id="DejaVuSans-69" d="M 603 3500 
L 1178 3500 
L 1178 0 
L 603 0 
L 603 3500 
z
M 603 4863 
L 1178 4863 
L 1178 4134 
L 603 4134 
L 603 4863 
z
" transform="scale(0.015625)"/>
       <path id="DejaVuSans-6e" d="M 3513 2113 
L 3513 0 
L 2938 0 
L 2938 2094 
Q 2938 2591 2744 2837 
Q 2550 3084 2163 3084 
Q 1697 3084 1428 2787 
Q 1159 2491 1159 1978 
L 1159 0 
L 581 0 
L 581 3500 
L 1159 3500 
L 1159 2956 
Q 1366 3272 1645 3428 
Q 1925 3584 2291 3584 
Q 2894 3584 3203 3211 
Q 3513 2838 3513 2113 
z
" transform="scale(0.015625)"/>
       <path id="DejaVuSans-62" d="M 3116 1747 
Q 3116 2381 2855 2742 
Q 2594 3103 2138 3103 
Q 1681 3103 1420 2742 
Q 1159 2381 1159 1747 
Q 1159 1113 1420 752 
Q 1681 391 2138 391 
Q 2594 391 2855 752 
Q 3116 1113 3116 1747 
z
M 1159 2969 
Q 1341 3281 1617 3432 
Q 1894 3584 2278 3584 
Q 2916 3584 3314 3078 
Q 3713 2572 3713 1747 
Q 3713 922 3314 415 
Q 2916 -91 2278 -91 
Q 1894 -91 1617 61 
Q 1341 213 1159 525 
L 1159 0 
L 581 0 
L 581 4863 
L 1159 4863 
L 1159 2969 
z
" transform="scale(0.015625)"/>
      </defs>
      <use xlink:href="#DejaVuSans-47"/>
      <use xlink:href="#DejaVuSans-61" x="77.490234"/>
      <use xlink:href="#DejaVuSans-73" x="138.769531"/>
      <use xlink:href="#DejaVuSans-6b" x="190.869141"/>
      <use xlink:href="#DejaVuSans-fc" x="245.654297"/>
      <use xlink:href="#DejaVuSans-68" x="309.033203"/>
      <use xlink:href="#DejaVuSans-6c" x="372.412109"/>
      <use xlink:href="#DejaVuSans-65" x="400.195312"/>
      <use xlink:href="#DejaVuSans-72" x="461.71875"/>
      <use xlink:href="#DejaVuSans-64" x="501.082031"/>
      <use xlink:href="#DejaVuSans-72" x="564.558594"/>
      <use xlink:href="#DejaVuSans-75" x="605.671875"/>
      <use xlink:href="#DejaVuSans-63" x="669.050781"/>
      <use xlink:href="#DejaVuSans-6b" x="724.03125"/>
      <use xlink:href="#DejaVuSans-20" x="781.941406"/>
      <use xlink:href="#DejaVuSans-69" x="813.728516"/>
      <use xlink:href="#DejaVuSans-6e" x="841.511719"/>
      <use xlink:href="#DejaVuSans-20" x="904.890625"/>
      <use xlink:href="#DejaVuSans-62" x="936.677734"/>
      <use xlink:href="#DejaVuSans-61" x="1000.154297"/>
      <use xlink:href="#DejaVuSans-72" x="1061.433594"/>
     </g>
    </g>
   </g>
   <g id="matplotlib.axis_2">
    <g id="ytick_1">
     <g id="line2d_19">
      <path d="M 180 689.473153 
L 1296 689.473153 
" clip-path="url(#pdd03eb2f00)" style="fill: none; stroke: #b0b0b0; stroke-width: 0.8; stroke-linecap: square"/>
     </g>
     <g id="line2d_20">
      <defs>
       <path id="m5d66dac857" d="M 0 0 
L -3.5 0 
" style="stroke: #000000; stroke-width: 0.8"/>
      </defs>
      <g>
       <use xlink:href="#m5d66dac857" x="180" y="689.473153" style="stroke: #000000; stroke-width: 0.8"/>
      </g>
     </g>
     <g id="text_11">
      <!-- 70 -->
      <g transform="translate(147.55 697.071591) scale(0.2 -0.2)">
       <defs>
        <path id="DejaVuSans-37" d="M 525 4666 
L 3525 4666 
L 3525 4397 
L 1831 0 
L 1172 0 
L 2766 4134 
L 525 4134 
L 525 4666 
z
" transform="scale(0.015625)"/>
       </defs>
       <use xlink:href="#DejaVuSans-37"/>
       <use xlink:href="#DejaVuSans-30" x="63.623047"/>
      </g>
     </g>
    </g>
    <g id="ytick_2">
     <g id="line2d_21">
      <path d="M 180 545.184865 
L 1296 545.184865 
" clip-path="url(#pdd03eb2f00)" style="fill: none; stroke: #b0b0b0; stroke-width: 0.8; stroke-linecap: square"/>
     </g>
     <g id="line2d_22">
      <g>
       <use xlink:href="#m5d66dac857" x="180" y="545.184865" style="stroke: #000000; stroke-width: 0.8"/>
      </g>
     </g>
     <g id="text_12">
      <!-- 72 -->
      <g transform="translate(147.55 552.783302) scale(0.2 -0.2)">
       <use xlink:href="#DejaVuSans-37"/>
       <use xlink:href="#DejaVuSans-32" x="63.623047"/>
      </g>
     </g>
    </g>
    <g id="ytick_3">
     <g id="line2d_23">
      <path d="M 180 400.896577 
L 1296 400.896577 
" clip-path="url(#pdd03eb2f00)" style="fill: none; stroke: #b0b0b0; stroke-width: 0.8; stroke-linecap: square"/>
     </g>
     <g id="line2d_24">
      <g>
       <use xlink:href="#m5d66dac857" x="180" y="400.896577" style="stroke: #000000; stroke-width: 0.8"/>
      </g>
     </g>
     <g id="text_13">
      <!-- 74 -->
      <g transform="translate(147.55 408.495014) scale(0.2 -0.2)">
       <use xlink:href="#DejaVuSans-37"/>
       <use xlink:href="#DejaVuSans-34" x="63.623047"/>
      </g>
     </g>
    </g>
    <g id="ytick_4">
     <g id="line2d_25">
      <path d="M 180 256.608288 
L 1296 256.608288 
" clip-path="url(#pdd03eb2f00)" style="fill: none; stroke: #b0b0b0; stroke-width: 0.8; stroke-linecap: square"/>
     </g>
     <g id="line2d_26">
      <g>
       <use xlink:href="#m5d66dac857" x="180" y="256.608288" style="stroke: #000000; stroke-width: 0.8"/>
      </g>
     </g>
     <g id="text_14">
      <!-- 76 -->
      <g transform="translate(147.55 264.206726) scale(0.2 -0.2)">
       <use xlink:href="#DejaVuSans-37"/>
       <use xlink:href="#DejaVuSans-36" x="63.623047"/>
      </g>
     </g>
    </g>
    <g id="ytick_5">
     <g id="line2d_27">
      <path d="M 180 112.32 
L 1296 112.32 
" clip-path="url(#pdd03eb2f00)" style="fill: none; stroke: #b0b0b0; stroke-width: 0.8; stroke-linecap: square"/>
     </g>
     <g id="line2d_28">
      <g>
       <use xlink:href="#m5d66dac857" x="180" y="112.32" style="stroke: #000000; stroke-width: 0.8"/>
      </g>
     </g>
     <g id="text_15">
      <!-- 78 -->
      <g transform="translate(147.55 119.918437) scale(0.2 -0.2)">
       <use xlink:href="#DejaVuSans-37"/>
       <use xlink:href="#DejaVuSans-38" x="63.623047"/>
      </g>
     </g>
    </g>
    <g id="text_16">
     <!-- exergetischer Wirkungsgrad -->
     <g transform="translate(139.390625 613.239375) rotate(-90) scale(0.2 -0.2)">
      <defs>
       <path id="DejaVuSans-78" d="M 3513 3500 
L 2247 1797 
L 3578 0 
L 2900 0 
L 1881 1375 
L 863 0 
L 184 0 
L 1544 1831 
L 300 3500 
L 978 3500 
L 1906 2253 
L 2834 3500 
L 3513 3500 
z
" transform="scale(0.015625)"/>
       <path id="DejaVuSans-67" d="M 2906 1791 
Q 2906 2416 2648 2759 
Q 2391 3103 1925 3103 
Q 1463 3103 1205 2759 
Q 947 2416 947 1791 
Q 947 1169 1205 825 
Q 1463 481 1925 481 
Q 2391 481 2648 825 
Q 2906 1169 2906 1791 
z
M 3481 434 
Q 3481 -459 3084 -895 
Q 2688 -1331 1869 -1331 
Q 1566 -1331 1297 -1286 
Q 1028 -1241 775 -1147 
L 775 -588 
Q 1028 -725 1275 -790 
Q 1522 -856 1778 -856 
Q 2344 -856 2625 -561 
Q 2906 -266 2906 331 
L 2906 616 
Q 2728 306 2450 153 
Q 2172 0 1784 0 
Q 1141 0 747 490 
Q 353 981 353 1791 
Q 353 2603 747 3093 
Q 1141 3584 1784 3584 
Q 2172 3584 2450 3431 
Q 2728 3278 2906 2969 
L 2906 3500 
L 3481 3500 
L 3481 434 
z
" transform="scale(0.015625)"/>
       <path id="DejaVuSans-74" d="M 1172 4494 
L 1172 3500 
L 2356 3500 
L 2356 3053 
L 1172 3053 
L 1172 1153 
Q 1172 725 1289 603 
Q 1406 481 1766 481 
L 2356 481 
L 2356 0 
L 1766 0 
Q 1100 0 847 248 
Q 594 497 594 1153 
L 594 3053 
L 172 3053 
L 172 3500 
L 594 3500 
L 594 4494 
L 1172 4494 
z
" transform="scale(0.015625)"/>
       <path id="DejaVuSans-57" d="M 213 4666 
L 850 4666 
L 1831 722 
L 2809 4666 
L 3519 4666 
L 4500 722 
L 5478 4666 
L 6119 4666 
L 4947 0 
L 4153 0 
L 3169 4050 
L 2175 0 
L 1381 0 
L 213 4666 
z
" transform="scale(0.015625)"/>
      </defs>
      <use xlink:href="#DejaVuSans-65"/>
      <use xlink:href="#DejaVuSans-78" x="59.773438"/>
      <use xlink:href="#DejaVuSans-65" x="115.828125"/>
      <use xlink:href="#DejaVuSans-72" x="177.351562"/>
      <use xlink:href="#DejaVuSans-67" x="216.714844"/>
      <use xlink:href="#DejaVuSans-65" x="280.191406"/>
      <use xlink:href="#DejaVuSans-74" x="341.714844"/>
      <use xlink:href="#DejaVuSans-69" x="380.923828"/>
      <use xlink:href="#DejaVuSans-73" x="408.707031"/>
      <use xlink:href="#DejaVuSans-63" x="460.806641"/>
      <use xlink:href="#DejaVuSans-68" x="515.787109"/>
      <use xlink:href="#DejaVuSans-65" x="579.166016"/>
      <use xlink:href="#DejaVuSans-72" x="640.689453"/>
      <use xlink:href="#DejaVuSans-20" x="681.802734"/>
      <use xlink:href="#DejaVuSans-57" x="713.589844"/>
      <use xlink:href="#DejaVuSans-69" x="810.216797"/>
      <use xlink:href="#DejaVuSans-72" x="838"/>
      <use xlink:href="#DejaVuSans-6b" x="879.113281"/>
      <use xlink:href="#DejaVuSans-75" x="933.898438"/>
      <use xlink:href="#DejaVuSans-6e" x="997.277344"/>
      <use xlink:href="#DejaVuSans-67" x="1060.65625"/>
      <use xlink:href="#DejaVuSans-73" x="1124.132812"/>
      <use xlink:href="#DejaVuSans-67" x="1176.232422"/>
      <use xlink:href="#DejaVuSans-72" x="1239.708984"/>
      <use xlink:href="#DejaVuSans-61" x="1280.822266"/>
      <use xlink:href="#DejaVuSans-64" x="1342.101562"/>
     </g>
    </g>
   </g>
   <g id="line2d_29">
    <path d="M 221.357647 416.516958 
L 247.229321 431.235724 
L 273.100995 445.500098 
L 298.97267 459.330852 
L 324.844344 472.747458 
L 350.716018 485.768254 
L 376.587692 498.410515 
L 402.459367 510.690433 
L 428.331041 522.623375 
L 454.202715 534.223789 
L 480.074389 545.505338 
L 505.946063 556.480937 
L 531.817738 567.16281 
L 557.689412 577.562534 
L 583.561086 587.691087 
L 609.43276 597.558888 
L 635.304434 607.175782 
L 661.176109 616.551216 
L 687.047783 625.694093 
L 712.919457 634.612933 
L 738.791131 643.315827 
L 764.662805 651.810503 
L 790.53448 660.104316 
L 816.406154 668.204206 
L 842.277828 676.116981 
L 868.149502 683.849017 
L 894.021176 691.406441 
L 919.892851 698.795117 
L 945.764525 706.02066 
L 971.636199 713.088448 
L 997.507873 720.003637 
L 1023.379548 726.771171 
L 1049.251222 733.395798 
L 1075.122896 739.882074 
L 1100.99457 746.234376 
L 1126.866244 752.456913 
L 1152.737919 758.553733 
L 1178.609593 764.52873 
L 1204.481267 770.385653 
L 1230.352941 776.128113 
" clip-path="url(#pdd03eb2f00)" style="fill: none; stroke: #000000; stroke-width: 1.5; stroke-linecap: square"/>
   </g>
   <g id="line2d_30">
    <path d="M 221.357647 358.541987 
L 247.229321 373.421059 
L 273.100995 387.840791 
L 298.97267 401.82218 
L 324.844344 415.38491 
L 350.716018 428.54752 
L 376.587692 441.327472 
L 402.459367 453.741135 
L 428.331041 465.804042 
L 454.202715 477.5308 
L 480.074389 488.935219 
L 505.946063 500.030357 
L 531.817738 510.82857 
L 557.689412 521.341561 
L 583.561086 531.580427 
L 609.43276 541.555702 
L 635.304434 551.277335 
L 661.176109 560.754881 
L 687.047783 569.997336 
L 712.919457 579.013313 
L 738.791131 587.810993 
L 764.662805 596.398188 
L 790.53448 604.782331 
L 816.406154 612.97044 
L 842.277828 620.969396 
L 868.149502 628.785643 
L 894.021176 636.425377 
L 919.892851 643.894526 
L 945.764525 651.198764 
L 971.636199 658.34353 
L 997.507873 665.334034 
L 1023.379548 672.175276 
L 1049.251222 678.872054 
L 1075.122896 685.428973 
L 1100.99457 691.85046 
L 1126.866244 698.140769 
L 1152.737919 704.303992 
L 1178.609593 710.344064 
L 1204.481267 716.264777 
L 1230.352941 722.06978 
" clip-path="url(#pdd03eb2f00)" style="fill: none; stroke: #000000; stroke-width: 1.5; stroke-linecap: square"/>
   </g>
   <g id="line2d_31">
    <path d="M 221.357647 301.2684 
L 247.229321 316.30584 
L 273.100995 330.87905 
L 298.97267 345.009252 
L 324.844344 358.716338 
L 350.716018 372.019046 
L 376.587692 384.935023 
L 402.459367 397.480812 
L 428.331041 409.672112 
L 454.202715 421.523686 
L 480.074389 433.04949 
L 505.946063 444.26272 
L 531.817738 455.175865 
L 557.689412 465.800752 
L 583.561086 476.148597 
L 609.43276 486.230045 
L 635.304434 496.055152 
L 661.176109 505.633573 
L 687.047783 514.974401 
L 712.919457 524.086341 
L 738.791131 532.97766 
L 764.662805 541.656254 
L 790.53448 550.129635 
L 816.406154 558.404895 
L 842.277828 566.488988 
L 868.149502 574.388429 
L 894.021176 582.109478 
L 919.892851 589.658125 
L 945.764525 597.040107 
L 971.636199 604.260919 
L 997.507873 611.325828 
L 1023.379548 618.239885 
L 1049.251222 625.007941 
L 1075.122896 631.63465 
L 1100.99457 638.124485 
L 1126.866244 644.481746 
L 1152.737919 650.710567 
L 1178.609593 656.814928 
L 1204.481267 662.798658 
L 1230.352941 668.665447 
" clip-path="url(#pdd03eb2f00)" style="fill: none; stroke: #000000; stroke-width: 1.5; stroke-linecap: square"/>
   </g>
   <g id="line2d_32">
    <path d="M 221.357647 244.668976 
L 247.229321 259.862919 
L 273.100995 274.587801 
L 298.97267 288.865063 
L 324.844344 302.714808 
L 350.716018 316.155964 
L 376.587692 329.206365 
L 402.459367 341.882725 
L 428.331041 354.200907 
L 454.202715 366.175827 
L 480.074389 377.821586 
L 505.946063 389.151519 
L 531.817738 400.178243 
L 557.689412 410.913709 
L 583.561086 421.36925 
L 609.43276 431.555621 
L 635.304434 441.482984 
L 661.176109 451.161093 
L 687.047783 460.599137 
L 712.919457 469.80591 
L 738.791131 478.789766 
L 764.662805 487.558683 
L 790.53448 496.120251 
L 816.406154 504.481636 
L 842.277828 512.649866 
L 868.149502 520.63152 
L 894.021176 528.432926 
L 919.892851 536.060137 
L 945.764525 543.518947 
L 971.636199 550.81491 
L 997.507873 557.953347 
L 1023.379548 564.939364 
L 1049.251222 571.777858 
L 1075.122896 578.473535 
L 1100.99457 585.030913 
L 1126.866244 591.454338 
L 1152.737919 597.747986 
L 1178.609593 603.915878 
L 1204.481267 609.961885 
L 1230.352941 615.889733 
" clip-path="url(#pdd03eb2f00)" style="fill: none; stroke: #000000; stroke-width: 1.5; stroke-linecap: square"/>
   </g>
   <g id="line2d_33">
    <path d="M 221.357647 188.716411 
L 247.229321 204.065069 
L 273.100995 218.939889 
L 298.97267 233.362532 
L 324.844344 247.353303 
L 350.716018 260.931326 
L 376.587692 274.114615 
L 402.459367 286.920054 
L 428.331041 299.363668 
L 454.202715 311.460524 
L 480.074389 323.224868 
L 505.946063 334.670169 
L 531.817738 345.809175 
L 557.689412 356.653956 
L 583.561086 367.215962 
L 609.43276 377.506058 
L 635.304434 387.534507 
L 661.176109 397.311165 
L 687.047783 406.845313 
L 712.919457 416.145836 
L 738.791131 425.221171 
L 764.662805 434.079378 
L 790.53448 442.728126 
L 816.406154 451.174652 
L 842.277828 459.426056 
L 868.149502 467.488985 
L 894.021176 475.36983 
L 919.892851 483.074706 
L 945.764525 490.609467 
L 971.636199 497.979722 
L 997.507873 505.190847 
L 1023.379548 512.247999 
L 1049.251222 519.156128 
L 1075.122896 525.919984 
L 1100.99457 532.544134 
L 1126.866244 539.032966 
L 1152.737919 545.3907 
L 1178.609593 551.621398 
L 1204.481267 557.728969 
L 1230.352941 563.717178 
" clip-path="url(#pdd03eb2f00)" style="fill: none; stroke: #000000; stroke-width: 1.5; stroke-linecap: square"/>
   </g>
   <g id="line2d_34">
    <path d="M 221.357647 133.383167 
L 247.229321 148.884826 
L 273.100995 163.907925 
L 298.97267 178.474339 
L 324.844344 192.604577 
L 350.716018 206.317951 
L 376.587692 219.632657 
L 402.459367 232.565746 
L 428.331041 245.133403 
L 454.202715 257.350846 
L 480.074389 269.232462 
L 505.946063 280.791855 
L 531.817738 292.041899 
L 557.689412 302.994786 
L 583.561086 313.662079 
L 609.43276 324.05475 
L 635.304434 334.183167 
L 661.176109 344.057283 
L 687.047783 353.686472 
L 712.919457 363.079706 
L 738.791131 372.245508 
L 764.662805 381.192018 
L 790.53448 389.92698 
L 816.406154 398.457705 
L 842.277828 406.791362 
L 868.149502 414.934666 
L 894.021176 422.894071 
L 919.892851 430.675752 
L 945.764525 438.285623 
L 971.636199 445.729348 
L 997.507873 453.012357 
L 1023.379548 460.139858 
L 1049.251222 467.116849 
L 1075.122896 473.948131 
L 1100.99457 480.638313 
L 1126.866244 487.191829 
L 1152.737919 493.612939 
L 1178.609593 499.905747 
L 1204.481267 506.074201 
L 1230.352941 512.122104 
" clip-path="url(#pdd03eb2f00)" style="fill: none; stroke: #000000; stroke-width: 1.5; stroke-linecap: square"/>
   </g>
   <g id="line2d_35">
    <path d="M 326.392941 139.281478 
L 349.571403 151.684258 
L 372.749864 163.763312 
L 395.928326 175.531075 
L 419.106787 186.999448 
L 442.285249 198.179673 
L 465.46371 209.08244 
L 488.642172 219.717911 
L 511.820633 230.095757 
L 534.999095 240.225183 
L 558.177557 250.114957 
L 581.356018 259.773444 
L 604.53448 269.208615 
L 627.712941 278.428087 
L 650.891403 287.439118 
L 674.069864 296.248673 
L 697.248326 304.863395 
L 720.426787 313.289655 
L 743.605249 321.533535 
L 766.78371 329.600876 
L 789.962172 337.49728 
L 813.140633 345.228038 
L 836.319095 352.798332 
L 859.497557 360.213138 
L 882.676018 367.477179 
L 905.85448 374.595015 
L 929.032941 381.571031 
L 952.211403 388.409447 
L 975.389864 395.114322 
L 998.568326 401.689567 
L 1021.746787 408.138949 
L 1044.925249 414.466098 
L 1068.10371 420.674516 
L 1091.282172 426.767579 
L 1114.460633 432.748548 
L 1137.639095 438.620568 
L 1160.817557 444.386679 
L 1183.996018 450.049818 
L 1207.17448 455.612824 
L 1230.352941 461.078442 
" clip-path="url(#pdd03eb2f00)" style="fill: none; stroke: #000000; stroke-width: 1.5; stroke-linecap: square"/>
   </g>
   <g id="line2d_36">
    <path d="M 221.090898 218.692187 
L 227.174605 220.528281 
L 233.272538 222.348761 
L 239.384684 224.153714 
L 245.511024 225.943221 
L 251.651557 227.717378 
L 257.806264 229.476263 
L 263.975132 231.219963 
L 270.158148 232.948562 
L 276.355299 234.662142 
L 282.566572 236.360789 
L 288.791953 238.044584 
L 295.031429 239.71361 
L 301.284978 241.367959 
L 307.552605 243.007694 
L 313.834288 244.632905 
L 320.130013 246.243674 
L 326.439769 247.840081 
L 332.763541 249.422205 
L 339.101317 250.990127 
L 345.453083 252.543924 
L 351.818828 254.083679 
L 358.198538 255.609467 
L 364.592201 257.121368 
L 370.999787 258.619475 
L 377.421316 260.103835 
L 383.85676 261.574539 
L 390.306115 263.031655 
L 396.769353 264.475277 
L 403.246468 265.905473 
L 409.737449 267.322318 
L 416.242285 268.725887 
L 422.760964 270.116255 
L 429.293473 271.493497 
L 435.839802 272.857687 
L 442.39994 274.208899 
L 448.973874 275.547205 
L 455.561596 276.872681 
L 462.163093 278.185397 
L 468.778355 279.485427 
L 475.407372 280.772844 
L 482.050134 282.047718 
L 488.706631 283.310122 
L 495.376854 284.560126 
L 502.060792 285.797802 
L 508.758438 287.023221 
L 515.469781 288.236452 
L 522.194815 289.437566 
L 528.933529 290.626632 
L 535.685916 291.803721 
L 542.451969 292.9689 
L 549.23168 294.122239 
L 556.025043 295.263807 
L 562.832041 296.393668 
L 569.652684 297.511897 
L 576.486958 298.618562 
L 583.334858 299.713724 
L 590.196379 300.797454 
L 597.071515 301.869818 
L 603.960262 302.930883 
L 610.862606 303.980724 
L 617.778565 305.019388 
L 624.708124 306.046951 
L 631.651278 307.063481 
L 638.608032 308.069037 
L 645.578376 309.06369 
L 652.562298 310.047513 
L 659.559819 311.020557 
L 666.570928 311.982891 
L 673.595626 312.934578 
L 680.633914 313.875684 
L 687.68579 314.806272 
L 694.751257 315.726407 
L 701.830317 316.636151 
L 708.92298 317.535573 
L 716.029232 318.424725 
L 723.149086 319.303675 
L 730.282546 320.172484 
L 737.429617 321.031219 
L 744.590313 321.879942 
" clip-path="url(#pdd03eb2f00)" style="fill: none; stroke-dasharray: 5.55,2.4; stroke-dashoffset: 0; stroke: #ff0000; stroke-width: 1.5"/>
   </g>
   <g id="line2d_37">
    <path d="M 221.090898 274.992285 
L 229.573669 277.466378 
L 238.084063 279.910685 
L 246.622037 282.325432 
L 255.187571 284.710854 
L 263.780621 287.067175 
L 272.401154 289.394618 
L 281.049132 291.693408 
L 289.724521 293.963766 
L 298.427276 296.20592 
L 307.157379 298.420073 
L 315.914785 300.60645 
L 324.69946 302.765265 
L 333.511368 304.896733 
L 342.350474 307.001067 
L 351.216743 309.078476 
L 360.11014 311.129172 
L 369.030632 313.153363 
L 377.978166 315.151272 
L 386.952743 317.123072 
L 395.954322 319.068973 
L 404.982852 320.989197 
L 414.03831 322.883935 
L 423.120663 324.753389 
L 432.229881 326.597757 
L 441.365931 328.417237 
L 450.528786 330.212025 
L 459.718414 331.982316 
L 468.934787 333.728304 
L 478.177878 335.450182 
L 487.447658 337.148141 
L 496.744103 338.822372 
L 506.067186 340.473065 
L 515.416883 342.100405 
L 524.79317 343.704583 
L 534.196026 345.285782 
L 543.62543 346.844188 
L 553.08136 348.379984 
L 562.56379 349.89335 
L 572.072718 351.384476 
L 581.608119 352.853536 
L 591.169979 354.300711 
L 600.758285 355.726179 
L 610.373015 357.130128 
L 620.01418 358.512714 
L 629.681754 359.874129 
L 639.375749 361.214531 
L 649.09613 362.534119 
L 658.842912 363.833048 
L 668.61609 365.111498 
L 678.415664 366.369638 
L 688.241633 367.607637 
L 698.094001 368.825669 
L 707.972781 370.023907 
L 717.877964 371.202506 
L 727.80957 372.361639 
L 737.76761 373.501477 
L 747.752111 374.622187 
L 757.763072 375.723931 
L 767.80053 376.80686 
L 777.864483 377.871174 
L 787.954971 378.917003 
L 798.072017 379.944528 
L 808.215667 380.953898 
L 818.385993 381.945186 
L 828.582936 382.918709 
L 838.806579 383.874559 
L 849.056963 384.812896 
L 859.334133 385.733876 
L 869.638136 386.637658 
L 879.969025 387.524399 
L 890.326853 388.394256 
L 900.711678 389.247383 
L 911.123562 390.083937 
L 921.562569 390.904073 
L 932.028768 391.707944 
L 942.522232 392.495704 
L 953.043035 393.267507 
L 963.591259 394.023505 
L 974.166986 394.763851 
" clip-path="url(#pdd03eb2f00)" style="fill: none; stroke-dasharray: 5.55,2.4; stroke-dashoffset: 0; stroke: #ffa500; stroke-width: 1.5"/>
   </g>
   <g id="line2d_38">
    <path d="M 224.873578 333.025133 
L 235.725315 336.057011 
L 246.622037 339.041377 
L 257.563685 341.978706 
L 268.550178 344.869458 
L 279.581443 347.714093 
L 290.657405 350.513064 
L 301.777982 353.266832 
L 312.943116 355.975826 
L 324.152726 358.640499 
L 335.406737 361.261288 
L 346.705078 363.838628 
L 358.047675 366.372952 
L 369.434457 368.864687 
L 380.865336 371.314274 
L 392.340283 373.722092 
L 403.859196 376.08859 
L 415.422016 378.414175 
L 427.028676 380.699256 
L 438.679112 382.94424 
L 450.37326 385.14953 
L 462.111059 387.315527 
L 473.892448 389.442627 
L 485.717371 391.531226 
L 497.585773 393.581713 
L 509.497599 395.594477 
L 521.452801 397.569903 
L 533.45133 399.508374 
L 545.493143 401.410268 
L 557.578196 403.275961 
L 569.706443 405.105824 
L 581.877865 406.900239 
L 594.092422 408.659565 
L 606.350088 410.384171 
L 618.650832 412.074426 
L 630.994649 413.730678 
L 643.381525 415.353285 
L 655.811425 416.942624 
L 668.284364 418.499034 
L 680.800337 420.022868 
L 693.359342 421.514478 
L 705.961393 422.974216 
L 718.606505 424.402422 
L 731.294688 425.799437 
L 744.025985 427.165613 
L 756.800418 428.501286 
L 769.618025 429.806791 
L 782.47887 431.082458 
L 795.382978 432.328639 
L 808.330436 433.545659 
L 821.321359 434.733743 
L 834.355722 435.893385 
L 847.433651 437.024843 
L 860.555238 438.128442 
L 873.720582 439.204508 
L 886.929792 440.25336 
L 900.182984 441.275321 
L 913.480285 442.270709 
L 926.821831 443.239842 
L 940.207767 444.183036 
L 953.638248 445.100606 
L 967.113441 445.992866 
L 980.633521 446.860128 
L 994.198676 447.702703 
L 1007.809103 448.520902 
L 1021.465013 449.315032 
L 1035.166626 450.085402 
L 1048.914177 450.832319 
L 1062.707911 451.556087 
L 1076.548087 452.257012 
L 1090.434976 452.935397 
L 1104.368863 453.591544 
L 1118.350046 454.225756 
L 1132.378839 454.838333 
L 1146.455567 455.429575 
L 1160.580574 455.999781 
L 1174.754215 456.54925 
L 1188.976863 457.07828 
L 1203.248905 457.587168 
L 1217.570747 458.076209 
" clip-path="url(#pdd03eb2f00)" style="fill: none; stroke-dasharray: 5.55,2.4; stroke-dashoffset: 0; stroke: #008000; stroke-width: 1.5"/>
   </g>
   <g id="line2d_39">
    <path d="M 325.146866 472.901965 
L 335.257057 475.072244 
L 345.403015 477.208642 
L 355.584686 479.311462 
L 365.802018 481.381005 
L 376.054944 483.417583 
L 386.343444 485.421461 
L 396.667462 487.39294 
L 407.026929 489.332327 
L 417.421807 491.239903 
L 427.852047 493.115955 
L 438.317602 494.960769 
L 448.818426 496.774626 
L 459.354474 498.557808 
L 469.925704 500.310594 
L 480.532072 502.033261 
L 491.173539 503.726084 
L 501.850065 505.389336 
L 512.561613 507.023288 
L 523.308146 508.62821 
L 534.089631 510.204369 
L 544.906035 511.752032 
L 555.757329 513.271463 
L 566.643475 514.76292 
L 577.564463 516.226674 
L 588.520263 517.662977 
L 599.510852 519.072088 
L 610.536205 520.454271 
L 621.596325 521.809761 
L 632.691187 523.138824 
L 643.820788 524.441705 
L 654.985098 525.718671 
L 666.184135 526.969956 
L 677.417891 528.195811 
L 688.686368 529.396479 
L 699.989569 530.57221 
L 711.327511 531.723252 
L 722.700189 532.849834 
L 734.107631 533.952201 
L 745.549865 535.030603 
L 757.026903 536.085273 
L 768.538781 537.116437 
L 780.085531 538.124349 
L 791.667183 539.109238 
L 803.283783 540.071341 
L 814.935555 541.010717 
L 826.622131 541.927987 
L 838.343917 542.823073 
L 850.100875 543.696289 
L 861.893072 544.547863 
L 873.720582 545.378023 
L 885.583483 546.186995 
L 897.48186 546.975005 
L 909.415804 547.742277 
L 921.38541 548.489036 
L 933.390783 549.215504 
L 945.43203 549.921904 
L 957.509269 550.608457 
L 969.622621 551.275383 
L 981.772216 551.922902 
L 993.958191 552.551233 
L 1006.18069 553.160595 
L 1018.439864 553.751205 
L 1030.735873 554.323279 
L 1043.068882 554.877035 
L 1055.439067 555.412688 
L 1067.84661 555.930452 
L 1080.291704 556.430542 
L 1092.774547 556.913172 
L 1105.295348 557.378554 
L 1117.854326 557.826903 
L 1130.451706 558.258429 
L 1143.087725 558.673344 
L 1155.762628 559.071859 
L 1168.47667 559.454186 
L 1181.230117 559.820534 
L 1194.023245 560.171113 
L 1206.856339 560.506133 
L 1219.729695 560.825802 
L 1232.643621 561.130329 
" clip-path="url(#pdd03eb2f00)" style="fill: none; stroke-dasharray: 5.55,2.4; stroke-dashoffset: 0; stroke: #4682b4; stroke-width: 1.5"/>
   </g>
   <g id="patch_3">
    <path d="M 180 833.04 
L 180 112.32 
" style="fill: none; stroke: #000000; stroke-width: 0.8; stroke-linejoin: miter; stroke-linecap: square"/>
   </g>
   <g id="patch_4">
    <path d="M 1296 833.04 
L 1296 112.32 
" style="fill: none; stroke: #000000; stroke-width: 0.8; stroke-linejoin: miter; stroke-linecap: square"/>
   </g>
   <g id="patch_5">
    <path d="M 180 833.04 
L 1296 833.04 
" style="fill: none; stroke: #000000; stroke-width: 0.8; stroke-linejoin: miter; stroke-linecap: square"/>
   </g>
   <g id="patch_6">
    <path d="M 180 112.32 
L 1296 112.32 
" style="fill: none; stroke: #000000; stroke-width: 0.8; stroke-linejoin: miter; stroke-linecap: square"/>
   </g>
   <g id="text_17">
    <!-- 190 -->
    <g transform="translate(1233.635294 788.310631) scale(0.2 -0.2)">
     <defs>
      <path id="DejaVuSans-31" d="M 794 531 
L 1825 531 
L 1825 4091 
L 703 3866 
L 703 4441 
L 1819 4666 
L 2450 4666 
L 2450 531 
L 3481 531 
L 3481 0 
L 794 0 
L 794 531 
z
" transform="scale(0.015625)"/>
      <path id="DejaVuSans-39" d="M 703 97 
L 703 672 
Q 941 559 1184 500 
Q 1428 441 1663 441 
Q 2288 441 2617 861 
Q 2947 1281 2994 2138 
Q 2813 1869 2534 1725 
Q 2256 1581 1919 1581 
Q 1219 1581 811 2004 
Q 403 2428 403 3163 
Q 403 3881 828 4315 
Q 1253 4750 1959 4750 
Q 2769 4750 3195 4129 
Q 3622 3509 3622 2328 
Q 3622 1225 3098 567 
Q 2575 -91 1691 -91 
Q 1453 -91 1209 -44 
Q 966 3 703 97 
z
M 1959 2075 
Q 2384 2075 2632 2365 
Q 2881 2656 2881 3163 
Q 2881 3666 2632 3958 
Q 2384 4250 1959 4250 
Q 1534 4250 1286 3958 
Q 1038 3666 1038 3163 
Q 1038 2656 1286 2365 
Q 1534 2075 1959 2075 
z
" transform="scale(0.015625)"/>
     </defs>
     <use xlink:href="#DejaVuSans-31"/>
     <use xlink:href="#DejaVuSans-39" x="63.623047"/>
     <use xlink:href="#DejaVuSans-30" x="127.246094"/>
    </g>
   </g>
   <g id="text_18">
    <!-- 195 -->
    <g transform="translate(1233.635294 731.316757) scale(0.2 -0.2)">
     <defs>
      <path id="DejaVuSans-35" d="M 691 4666 
L 3169 4666 
L 3169 4134 
L 1269 4134 
L 1269 2991 
Q 1406 3038 1543 3061 
Q 1681 3084 1819 3084 
Q 2600 3084 3056 2656 
Q 3513 2228 3513 1497 
Q 3513 744 3044 326 
Q 2575 -91 1722 -91 
Q 1428 -91 1123 -41 
Q 819 9 494 109 
L 494 744 
Q 775 591 1075 516 
Q 1375 441 1709 441 
Q 2250 441 2565 725 
Q 2881 1009 2881 1497 
Q 2881 1984 2565 2268 
Q 2250 2553 1709 2553 
Q 1456 2553 1204 2497 
Q 953 2441 691 2322 
L 691 4666 
z
" transform="scale(0.015625)"/>
     </defs>
     <use xlink:href="#DejaVuSans-31"/>
     <use xlink:href="#DejaVuSans-39" x="63.623047"/>
     <use xlink:href="#DejaVuSans-35" x="127.246094"/>
    </g>
   </g>
   <g id="text_19">
    <!-- 200 -->
    <g transform="translate(1233.635294 678.651532) scale(0.2 -0.2)">
     <use xlink:href="#DejaVuSans-32"/>
     <use xlink:href="#DejaVuSans-30" x="63.623047"/>
     <use xlink:href="#DejaVuSans-30" x="127.246094"/>
    </g>
   </g>
   <g id="text_20">
    <!-- 205 -->
    <g transform="translate(1233.635294 624.543423) scale(0.2 -0.2)">
     <use xlink:href="#DejaVuSans-32"/>
     <use xlink:href="#DejaVuSans-30" x="63.623047"/>
     <use xlink:href="#DejaVuSans-35" x="127.246094"/>
    </g>
   </g>
   <g id="text_21">
    <!-- 210 -->
    <g transform="translate(1233.635294 574.042523) scale(0.2 -0.2)">
     <use xlink:href="#DejaVuSans-32"/>
     <use xlink:href="#DejaVuSans-31" x="63.623047"/>
     <use xlink:href="#DejaVuSans-30" x="127.246094"/>
    </g>
   </g>
   <g id="text_22">
    <!-- 215 -->
    <g transform="translate(1233.635294 522.098739) scale(0.2 -0.2)">
     <use xlink:href="#DejaVuSans-32"/>
     <use xlink:href="#DejaVuSans-31" x="63.623047"/>
     <use xlink:href="#DejaVuSans-35" x="127.246094"/>
    </g>
   </g>
   <g id="text_23">
    <!-- 220 -->
    <g transform="translate(1233.635294 470.154955) scale(0.2 -0.2)">
     <use xlink:href="#DejaVuSans-32"/>
     <use xlink:href="#DejaVuSans-32" x="63.623047"/>
     <use xlink:href="#DejaVuSans-30" x="127.246094"/>
    </g>
   </g>
   <g id="legend_1">
    <g id="patch_7">
     <path d="M 300.15625 823.04 
L 1175.84375 823.04 
Q 1179.84375 823.04 1179.84375 819.04 
L 1179.84375 790.84 
Q 1179.84375 786.84 1175.84375 786.84 
L 300.15625 786.84 
Q 296.15625 786.84 296.15625 790.84 
L 296.15625 819.04 
Q 296.15625 823.04 300.15625 823.04 
z
" style="fill: #ffffff; opacity: 0.8; stroke: #cccccc; stroke-linejoin: miter"/>
    </g>
    <g id="line2d_40">
     <path d="M 304.15625 803.04 
L 324.15625 803.04 
L 344.15625 803.04 
" style="fill: none; stroke: #000000; stroke-width: 1.5; stroke-linecap: square"/>
    </g>
    <g id="text_24">
     <!-- $T_{se,aus}$ [°C]          $ΔT_{GK,ob}$: -->
     <g transform="translate(360.15625 810.04) scale(0.2 -0.2)">
      <defs>
       <path id="DejaVuSans-Oblique-54" d="M 378 4666 
L 4325 4666 
L 4225 4134 
L 2559 4134 
L 1759 0 
L 1125 0 
L 1925 4134 
L 275 4134 
L 378 4666 
z
" transform="scale(0.015625)"/>
       <path id="DejaVuSans-Oblique-73" d="M 3200 3397 
L 3091 2853 
Q 2863 2978 2609 3040 
Q 2356 3103 2088 3103 
Q 1634 3103 1373 2948 
Q 1113 2794 1113 2528 
Q 1113 2219 1719 2053 
Q 1766 2041 1788 2034 
L 1972 1978 
Q 2547 1819 2739 1644 
Q 2931 1469 2931 1166 
Q 2931 609 2489 259 
Q 2047 -91 1331 -91 
Q 1053 -91 747 -37 
Q 441 16 72 128 
L 184 722 
Q 500 559 806 475 
Q 1113 391 1394 391 
Q 1816 391 2080 572 
Q 2344 753 2344 1031 
Q 2344 1331 1650 1516 
L 1591 1531 
L 1394 1581 
Q 956 1697 753 1886 
Q 550 2075 550 2369 
Q 550 2928 970 3256 
Q 1391 3584 2113 3584 
Q 2397 3584 2667 3537 
Q 2938 3491 3200 3397 
z
" transform="scale(0.015625)"/>
       <path id="DejaVuSans-Oblique-65" d="M 3078 2063 
Q 3088 2113 3092 2166 
Q 3097 2219 3097 2272 
Q 3097 2653 2873 2875 
Q 2650 3097 2266 3097 
Q 1838 3097 1509 2826 
Q 1181 2556 1013 2059 
L 3078 2063 
z
M 3578 1613 
L 903 1613 
Q 884 1494 878 1425 
Q 872 1356 872 1306 
Q 872 872 1139 634 
Q 1406 397 1894 397 
Q 2269 397 2603 481 
Q 2938 566 3225 728 
L 3116 159 
Q 2806 34 2476 -28 
Q 2147 -91 1806 -91 
Q 1078 -91 686 257 
Q 294 606 294 1247 
Q 294 1794 489 2264 
Q 684 2734 1063 3103 
Q 1306 3334 1642 3459 
Q 1978 3584 2356 3584 
Q 2950 3584 3301 3228 
Q 3653 2872 3653 2272 
Q 3653 2128 3634 1964 
Q 3616 1800 3578 1613 
z
" transform="scale(0.015625)"/>
       <path id="DejaVuSans-2c" d="M 750 794 
L 1409 794 
L 1409 256 
L 897 -744 
L 494 -744 
L 750 256 
L 750 794 
z
" transform="scale(0.015625)"/>
       <path id="DejaVuSans-Oblique-61" d="M 3438 1997 
L 3047 0 
L 2472 0 
L 2578 531 
Q 2325 219 2001 64 
Q 1678 -91 1281 -91 
Q 834 -91 548 182 
Q 263 456 263 884 
Q 263 1497 752 1853 
Q 1241 2209 2100 2209 
L 2900 2209 
L 2931 2363 
Q 2938 2388 2941 2417 
Q 2944 2447 2944 2509 
Q 2944 2788 2717 2942 
Q 2491 3097 2081 3097 
Q 1800 3097 1504 3025 
Q 1209 2953 897 2809 
L 997 3341 
Q 1322 3463 1633 3523 
Q 1944 3584 2234 3584 
Q 2853 3584 3176 3315 
Q 3500 3047 3500 2534 
Q 3500 2431 3484 2292 
Q 3469 2153 3438 1997 
z
M 2816 1759 
L 2241 1759 
Q 1534 1759 1195 1570 
Q 856 1381 856 984 
Q 856 709 1029 553 
Q 1203 397 1509 397 
Q 1978 397 2328 733 
Q 2678 1069 2791 1631 
L 2816 1759 
z
" transform="scale(0.015625)"/>
       <path id="DejaVuSans-Oblique-75" d="M 428 1388 
L 838 3500 
L 1416 3500 
L 1006 1409 
Q 975 1256 961 1147 
Q 947 1038 947 966 
Q 947 700 1109 554 
Q 1272 409 1569 409 
Q 2031 409 2368 721 
Q 2706 1034 2809 1563 
L 3194 3500 
L 3769 3500 
L 3091 0 
L 2516 0 
L 2631 550 
Q 2388 244 2052 76 
Q 1716 -91 1338 -91 
Q 878 -91 622 161 
Q 366 413 366 863 
Q 366 956 381 1097 
Q 397 1238 428 1388 
z
" transform="scale(0.015625)"/>
       <path id="DejaVuSans-5b" d="M 550 4863 
L 1875 4863 
L 1875 4416 
L 1125 4416 
L 1125 -397 
L 1875 -397 
L 1875 -844 
L 550 -844 
L 550 4863 
z
" transform="scale(0.015625)"/>
       <path id="DejaVuSans-b0" d="M 1600 4347 
Q 1350 4347 1178 4173 
Q 1006 4000 1006 3750 
Q 1006 3503 1178 3333 
Q 1350 3163 1600 3163 
Q 1850 3163 2022 3333 
Q 2194 3503 2194 3750 
Q 2194 3997 2020 4172 
Q 1847 4347 1600 4347 
z
M 1600 4750 
Q 1800 4750 1984 4673 
Q 2169 4597 2303 4453 
Q 2447 4313 2519 4134 
Q 2591 3956 2591 3750 
Q 2591 3338 2302 3052 
Q 2013 2766 1594 2766 
Q 1172 2766 890 3047 
Q 609 3328 609 3750 
Q 609 4169 896 4459 
Q 1184 4750 1600 4750 
z
" transform="scale(0.015625)"/>
       <path id="DejaVuSans-43" d="M 4122 4306 
L 4122 3641 
Q 3803 3938 3442 4084 
Q 3081 4231 2675 4231 
Q 1875 4231 1450 3742 
Q 1025 3253 1025 2328 
Q 1025 1406 1450 917 
Q 1875 428 2675 428 
Q 3081 428 3442 575 
Q 3803 722 4122 1019 
L 4122 359 
Q 3791 134 3420 21 
Q 3050 -91 2638 -91 
Q 1578 -91 968 557 
Q 359 1206 359 2328 
Q 359 3453 968 4101 
Q 1578 4750 2638 4750 
Q 3056 4750 3426 4639 
Q 3797 4528 4122 4306 
z
" transform="scale(0.015625)"/>
       <path id="DejaVuSans-5d" d="M 1947 4863 
L 1947 -844 
L 622 -844 
L 622 -397 
L 1369 -397 
L 1369 4416 
L 622 4416 
L 622 4863 
L 1947 4863 
z
" transform="scale(0.015625)"/>
       <path id="DejaVuSans-394" d="M 2188 4044 
L 906 525 
L 3472 525 
L 2188 4044 
z
M 50 0 
L 1831 4666 
L 2547 4666 
L 4325 0 
L 50 0 
z
" transform="scale(0.015625)"/>
       <path id="DejaVuSans-Oblique-47" d="M 3494 697 
L 3738 1919 
L 2700 1919 
L 2797 2438 
L 4453 2438 
L 4050 384 
Q 3634 156 3143 32 
Q 2653 -91 2156 -91 
Q 1278 -91 783 396 
Q 288 884 288 1753 
Q 288 2475 589 3126 
Q 891 3778 1422 4213 
Q 1756 4484 2153 4617 
Q 2550 4750 3034 4750 
Q 3472 4750 3873 4639 
Q 4275 4528 4641 4306 
L 4513 3634 
Q 4231 3928 3853 4083 
Q 3475 4238 3047 4238 
Q 2550 4238 2172 4048 
Q 1794 3859 1497 3463 
Q 1244 3125 1098 2667 
Q 953 2209 953 1734 
Q 953 1081 1287 751 
Q 1622 422 2284 422 
Q 2616 422 2925 492 
Q 3234 563 3494 697 
z
" transform="scale(0.015625)"/>
       <path id="DejaVuSans-Oblique-4b" d="M 1081 4666 
L 1716 4666 
L 1331 2700 
L 3781 4666 
L 4622 4666 
L 1850 2438 
L 3878 0 
L 3109 0 
L 1247 2272 
L 806 0 
L 172 0 
L 1081 4666 
z
" transform="scale(0.015625)"/>
       <path id="DejaVuSans-Oblique-6f" d="M 1625 -91 
Q 1009 -91 651 289 
Q 294 669 294 1325 
Q 294 1706 417 2101 
Q 541 2497 738 2766 
Q 1047 3184 1428 3384 
Q 1809 3584 2291 3584 
Q 2888 3584 3255 3212 
Q 3622 2841 3622 2241 
Q 3622 1825 3500 1412 
Q 3378 1000 3181 728 
Q 2875 309 2494 109 
Q 2113 -91 1625 -91 
z
M 891 1344 
Q 891 869 1089 633 
Q 1288 397 1691 397 
Q 2269 397 2648 901 
Q 3028 1406 3028 2181 
Q 3028 2634 2825 2865 
Q 2622 3097 2228 3097 
Q 1903 3097 1650 2945 
Q 1397 2794 1197 2484 
Q 1050 2253 970 1956 
Q 891 1659 891 1344 
z
" transform="scale(0.015625)"/>
       <path id="DejaVuSans-Oblique-62" d="M 3169 2138 
Q 3169 2591 2961 2847 
Q 2753 3103 2388 3103 
Q 2122 3103 1889 2973 
Q 1656 2844 1484 2597 
Q 1303 2338 1198 1995 
Q 1094 1653 1094 1313 
Q 1094 881 1298 636 
Q 1503 391 1863 391 
Q 2134 391 2365 517 
Q 2597 644 2772 891 
Q 2950 1147 3059 1487 
Q 3169 1828 3169 2138 
z
M 1381 2969 
Q 1594 3256 1914 3420 
Q 2234 3584 2584 3584 
Q 3122 3584 3439 3221 
Q 3756 2859 3756 2241 
Q 3756 1734 3570 1259 
Q 3384 784 3041 416 
Q 2816 172 2522 40 
Q 2228 -91 1906 -91 
Q 1566 -91 1316 65 
Q 1066 222 909 531 
L 806 0 
L 231 0 
L 1178 4863 
L 1753 4863 
L 1381 2969 
z
" transform="scale(0.015625)"/>
       <path id="DejaVuSans-3a" d="M 750 794 
L 1409 794 
L 1409 0 
L 750 0 
L 750 794 
z
M 750 3309 
L 1409 3309 
L 1409 2516 
L 750 2516 
L 750 3309 
z
" transform="scale(0.015625)"/>
      </defs>
      <use xlink:href="#DejaVuSans-Oblique-54" transform="translate(0 0.015625)"/>
      <use xlink:href="#DejaVuSans-Oblique-73" transform="translate(61.083984 -16.390625) scale(0.7)"/>
      <use xlink:href="#DejaVuSans-Oblique-65" transform="translate(97.553711 -16.390625) scale(0.7)"/>
      <use xlink:href="#DejaVuSans-2c" transform="translate(140.620117 -16.390625) scale(0.7)"/>
      <use xlink:href="#DejaVuSans-Oblique-61" transform="translate(176.508789 -16.390625) scale(0.7)"/>
      <use xlink:href="#DejaVuSans-Oblique-75" transform="translate(219.404297 -16.390625) scale(0.7)"/>
      <use xlink:href="#DejaVuSans-Oblique-73" transform="translate(263.769531 -16.390625) scale(0.7)"/>
      <use xlink:href="#DejaVuSans-20" transform="translate(302.973633 0.015625)"/>
      <use xlink:href="#DejaVuSans-5b" transform="translate(334.760742 0.015625)"/>
      <use xlink:href="#DejaVuSans-b0" transform="translate(373.774414 0.015625)"/>
      <use xlink:href="#DejaVuSans-43" transform="translate(423.774414 0.015625)"/>
      <use xlink:href="#DejaVuSans-5d" transform="translate(493.598633 0.015625)"/>
      <use xlink:href="#DejaVuSans-20" transform="translate(532.612305 0.015625)"/>
      <use xlink:href="#DejaVuSans-20" transform="translate(564.399414 0.015625)"/>
      <use xlink:href="#DejaVuSans-20" transform="translate(596.186523 0.015625)"/>
      <use xlink:href="#DejaVuSans-20" transform="translate(627.973633 0.015625)"/>
      <use xlink:href="#DejaVuSans-20" transform="translate(659.760742 0.015625)"/>
      <use xlink:href="#DejaVuSans-20" transform="translate(691.547852 0.015625)"/>
      <use xlink:href="#DejaVuSans-20" transform="translate(723.334961 0.015625)"/>
      <use xlink:href="#DejaVuSans-20" transform="translate(755.12207 0.015625)"/>
      <use xlink:href="#DejaVuSans-20" transform="translate(786.90918 0.015625)"/>
      <use xlink:href="#DejaVuSans-20" transform="translate(818.696289 0.015625)"/>
      <use xlink:href="#DejaVuSans-394" transform="translate(850.483398 0.015625)"/>
      <use xlink:href="#DejaVuSans-Oblique-54" transform="translate(918.891602 0.015625)"/>
      <use xlink:href="#DejaVuSans-Oblique-47" transform="translate(979.975586 -16.390625) scale(0.7)"/>
      <use xlink:href="#DejaVuSans-Oblique-4b" transform="translate(1034.21875 -16.390625) scale(0.7)"/>
      <use xlink:href="#DejaVuSans-2c" transform="translate(1080.12207 -16.390625) scale(0.7)"/>
      <use xlink:href="#DejaVuSans-Oblique-6f" transform="translate(1116.010742 -16.390625) scale(0.7)"/>
      <use xlink:href="#DejaVuSans-Oblique-62" transform="translate(1158.837891 -16.390625) scale(0.7)"/>
      <use xlink:href="#DejaVuSans-3a" transform="translate(1206.005859 0.015625)"/>
     </g>
    </g>
    <g id="line2d_41">
     <path d="M 648.15625 803.04 
L 668.15625 803.04 
L 688.15625 803.04 
" style="fill: none; stroke-dasharray: 5.55,2.4; stroke-dashoffset: 0; stroke: #ff0000; stroke-width: 1.5"/>
    </g>
    <g id="text_25">
     <!-- 10 K -->
     <g transform="translate(704.15625 810.04) scale(0.2 -0.2)">
      <defs>
       <path id="DejaVuSans-4b" d="M 628 4666 
L 1259 4666 
L 1259 2694 
L 3353 4666 
L 4166 4666 
L 1850 2491 
L 4331 0 
L 3500 0 
L 1259 2247 
L 1259 0 
L 628 0 
L 628 4666 
z
" transform="scale(0.015625)"/>
      </defs>
      <use xlink:href="#DejaVuSans-31"/>
      <use xlink:href="#DejaVuSans-30" x="63.623047"/>
      <use xlink:href="#DejaVuSans-20" x="127.246094"/>
      <use xlink:href="#DejaVuSans-4b" x="159.033203"/>
     </g>
    </g>
    <g id="line2d_42">
     <path d="M 789.078125 803.04 
L 809.078125 803.04 
L 829.078125 803.04 
" style="fill: none; stroke-dasharray: 5.55,2.4; stroke-dashoffset: 0; stroke: #ffa500; stroke-width: 1.5"/>
    </g>
    <g id="text_26">
     <!-- 15 K -->
     <g transform="translate(845.078125 810.04) scale(0.2 -0.2)">
      <use xlink:href="#DejaVuSans-31"/>
      <use xlink:href="#DejaVuSans-35" x="63.623047"/>
      <use xlink:href="#DejaVuSans-20" x="127.246094"/>
      <use xlink:href="#DejaVuSans-4b" x="159.033203"/>
     </g>
    </g>
    <g id="line2d_43">
     <path d="M 930 803.04 
L 950 803.04 
L 970 803.04 
" style="fill: none; stroke-dasharray: 5.55,2.4; stroke-dashoffset: 0; stroke: #008000; stroke-width: 1.5"/>
    </g>
    <g id="text_27">
     <!-- 20 K -->
     <g transform="translate(986 810.04) scale(0.2 -0.2)">
      <use xlink:href="#DejaVuSans-32"/>
      <use xlink:href="#DejaVuSans-30" x="63.623047"/>
      <use xlink:href="#DejaVuSans-20" x="127.246094"/>
      <use xlink:href="#DejaVuSans-4b" x="159.033203"/>
     </g>
    </g>
    <g id="line2d_44">
     <path d="M 1070.921875 803.04 
L 1090.921875 803.04 
L 1110.921875 803.04 
" style="fill: none; stroke-dasharray: 5.55,2.4; stroke-dashoffset: 0; stroke: #4682b4; stroke-width: 1.5"/>
    </g>
    <g id="text_28">
     <!-- 30 K -->
     <g transform="translate(1126.921875 810.04) scale(0.2 -0.2)">
      <use xlink:href="#DejaVuSans-33"/>
      <use xlink:href="#DejaVuSans-30" x="63.623047"/>
      <use xlink:href="#DejaVuSans-20" x="127.246094"/>
      <use xlink:href="#DejaVuSans-4b" x="159.033203"/>
     </g>
    </g>
   </g>
  </g>
 </g>
 <defs>
  <clipPath id="pdd03eb2f00">
   <rect x="180" y="112.32" width="1116" height="720.72"/>
  </clipPath>
 </defs>
</svg>
