<?xml version="1.0" encoding="utf-8" standalone="no"?>
<!DOCTYPE svg PUBLIC "-//W3C//DTD SVG 1.1//EN"
  "http://www.w3.org/Graphics/SVG/1.1/DTD/svg11.dtd">
<svg xmlns:xlink="http://www.w3.org/1999/xlink" width="1440pt" height="936pt" viewBox="0 0 1440 936" xmlns="http://www.w3.org/2000/svg" version="1.1">
 <metadata>
  <rdf:RDF xmlns:dc="http://purl.org/dc/elements/1.1/" xmlns:cc="http://creativecommons.org/ns#" xmlns:rdf="http://www.w3.org/1999/02/22-rdf-syntax-ns#">
   <cc:Work>
    <dc:type rdf:resource="http://purl.org/dc/dcmitype/StillImage"/>
    <dc:date>2023-08-17T12:16:29.986537</dc:date>
    <dc:format>image/svg+xml</dc:format>
    <dc:creator>
     <cc:Agent>
      <dc:title>Matplotlib v3.6.1, https://matplotlib.org/</dc:title>
     </cc:Agent>
    </dc:creator>
   </cc:Work>
  </rdf:RDF>
 </metadata>
 <defs>
  <style type="text/css">*{stroke-linejoin: round; stroke-linecap: butt}</style>
 </defs>
 <g id="figure_1">
  <g id="patch_1">
   <path d="M 0 936 
L 1440 936 
L 1440 0 
L 0 0 
z
" style="fill: #ffffff"/>
  </g>
  <g id="axes_1">
   <g id="patch_2">
    <path d="M 180 833.04 
L 1296 833.04 
L 1296 112.32 
L 180 112.32 
z
" style="fill: #ffffff"/>
   </g>
   <g id="matplotlib.axis_1">
    <g id="xtick_1">
     <g id="line2d_1">
      <path d="M 180 833.04 
L 180 112.32 
" clip-path="url(#p70d338e752)" style="fill: none; stroke: #b0b0b0; stroke-width: 0.8; stroke-linecap: square"/>
     </g>
     <g id="line2d_2">
      <defs>
       <path id="md80be8ece2" d="M 0 0 
L 0 3.5 
" style="stroke: #000000; stroke-width: 0.8"/>
      </defs>
      <g>
       <use xlink:href="#md80be8ece2" x="180" y="833.04" style="stroke: #000000; stroke-width: 0.8"/>
      </g>
     </g>
     <g id="text_1">
      <!-- 30 -->
      <g transform="translate(167.275 855.236875) scale(0.2 -0.2)">
       <defs>
        <path id="DejaVuSans-33" d="M 2597 2516 
Q 3050 2419 3304 2112 
Q 3559 1806 3559 1356 
Q 3559 666 3084 287 
Q 2609 -91 1734 -91 
Q 1441 -91 1130 -33 
Q 819 25 488 141 
L 488 750 
Q 750 597 1062 519 
Q 1375 441 1716 441 
Q 2309 441 2620 675 
Q 2931 909 2931 1356 
Q 2931 1769 2642 2001 
Q 2353 2234 1838 2234 
L 1294 2234 
L 1294 2753 
L 1863 2753 
Q 2328 2753 2575 2939 
Q 2822 3125 2822 3475 
Q 2822 3834 2567 4026 
Q 2313 4219 1838 4219 
Q 1578 4219 1281 4162 
Q 984 4106 628 3988 
L 628 4550 
Q 988 4650 1302 4700 
Q 1616 4750 1894 4750 
Q 2613 4750 3031 4423 
Q 3450 4097 3450 3541 
Q 3450 3153 3228 2886 
Q 3006 2619 2597 2516 
z
" transform="scale(0.015625)"/>
        <path id="DejaVuSans-30" d="M 2034 4250 
Q 1547 4250 1301 3770 
Q 1056 3291 1056 2328 
Q 1056 1369 1301 889 
Q 1547 409 2034 409 
Q 2525 409 2770 889 
Q 3016 1369 3016 2328 
Q 3016 3291 2770 3770 
Q 2525 4250 2034 4250 
z
M 2034 4750 
Q 2819 4750 3233 4129 
Q 3647 3509 3647 2328 
Q 3647 1150 3233 529 
Q 2819 -91 2034 -91 
Q 1250 -91 836 529 
Q 422 1150 422 2328 
Q 422 3509 836 4129 
Q 1250 4750 2034 4750 
z
" transform="scale(0.015625)"/>
       </defs>
       <use xlink:href="#DejaVuSans-33"/>
       <use xlink:href="#DejaVuSans-30" x="63.623047"/>
      </g>
     </g>
    </g>
    <g id="xtick_2">
     <g id="line2d_3">
      <path d="M 379.285714 833.04 
L 379.285714 112.32 
" clip-path="url(#p70d338e752)" style="fill: none; stroke: #b0b0b0; stroke-width: 0.8; stroke-linecap: square"/>
     </g>
     <g id="line2d_4">
      <g>
       <use xlink:href="#md80be8ece2" x="379.285714" y="833.04" style="stroke: #000000; stroke-width: 0.8"/>
      </g>
     </g>
     <g id="text_2">
      <!-- 35 -->
      <g transform="translate(366.560714 855.236875) scale(0.2 -0.2)">
       <defs>
        <path id="DejaVuSans-35" d="M 691 4666 
L 3169 4666 
L 3169 4134 
L 1269 4134 
L 1269 2991 
Q 1406 3038 1543 3061 
Q 1681 3084 1819 3084 
Q 2600 3084 3056 2656 
Q 3513 2228 3513 1497 
Q 3513 744 3044 326 
Q 2575 -91 1722 -91 
Q 1428 -91 1123 -41 
Q 819 9 494 109 
L 494 744 
Q 775 591 1075 516 
Q 1375 441 1709 441 
Q 2250 441 2565 725 
Q 2881 1009 2881 1497 
Q 2881 1984 2565 2268 
Q 2250 2553 1709 2553 
Q 1456 2553 1204 2497 
Q 953 2441 691 2322 
L 691 4666 
z
" transform="scale(0.015625)"/>
       </defs>
       <use xlink:href="#DejaVuSans-33"/>
       <use xlink:href="#DejaVuSans-35" x="63.623047"/>
      </g>
     </g>
    </g>
    <g id="xtick_3">
     <g id="line2d_5">
      <path d="M 578.571429 833.04 
L 578.571429 112.32 
" clip-path="url(#p70d338e752)" style="fill: none; stroke: #b0b0b0; stroke-width: 0.8; stroke-linecap: square"/>
     </g>
     <g id="line2d_6">
      <g>
       <use xlink:href="#md80be8ece2" x="578.571429" y="833.04" style="stroke: #000000; stroke-width: 0.8"/>
      </g>
     </g>
     <g id="text_3">
      <!-- 40 -->
      <g transform="translate(565.846429 855.236875) scale(0.2 -0.2)">
       <defs>
        <path id="DejaVuSans-34" d="M 2419 4116 
L 825 1625 
L 2419 1625 
L 2419 4116 
z
M 2253 4666 
L 3047 4666 
L 3047 1625 
L 3713 1625 
L 3713 1100 
L 3047 1100 
L 3047 0 
L 2419 0 
L 2419 1100 
L 313 1100 
L 313 1709 
L 2253 4666 
z
" transform="scale(0.015625)"/>
       </defs>
       <use xlink:href="#DejaVuSans-34"/>
       <use xlink:href="#DejaVuSans-30" x="63.623047"/>
      </g>
     </g>
    </g>
    <g id="xtick_4">
     <g id="line2d_7">
      <path d="M 777.857143 833.04 
L 777.857143 112.32 
" clip-path="url(#p70d338e752)" style="fill: none; stroke: #b0b0b0; stroke-width: 0.8; stroke-linecap: square"/>
     </g>
     <g id="line2d_8">
      <g>
       <use xlink:href="#md80be8ece2" x="777.857143" y="833.04" style="stroke: #000000; stroke-width: 0.8"/>
      </g>
     </g>
     <g id="text_4">
      <!-- 45 -->
      <g transform="translate(765.132143 855.236875) scale(0.2 -0.2)">
       <use xlink:href="#DejaVuSans-34"/>
       <use xlink:href="#DejaVuSans-35" x="63.623047"/>
      </g>
     </g>
    </g>
    <g id="xtick_5">
     <g id="line2d_9">
      <path d="M 977.142857 833.04 
L 977.142857 112.32 
" clip-path="url(#p70d338e752)" style="fill: none; stroke: #b0b0b0; stroke-width: 0.8; stroke-linecap: square"/>
     </g>
     <g id="line2d_10">
      <g>
       <use xlink:href="#md80be8ece2" x="977.142857" y="833.04" style="stroke: #000000; stroke-width: 0.8"/>
      </g>
     </g>
     <g id="text_5">
      <!-- 50 -->
      <g transform="translate(964.417857 855.236875) scale(0.2 -0.2)">
       <use xlink:href="#DejaVuSans-35"/>
       <use xlink:href="#DejaVuSans-30" x="63.623047"/>
      </g>
     </g>
    </g>
    <g id="xtick_6">
     <g id="line2d_11">
      <path d="M 1176.428571 833.04 
L 1176.428571 112.32 
" clip-path="url(#p70d338e752)" style="fill: none; stroke: #b0b0b0; stroke-width: 0.8; stroke-linecap: square"/>
     </g>
     <g id="line2d_12">
      <g>
       <use xlink:href="#md80be8ece2" x="1176.428571" y="833.04" style="stroke: #000000; stroke-width: 0.8"/>
      </g>
     </g>
     <g id="text_6">
      <!-- 55 -->
      <g transform="translate(1163.703571 855.236875) scale(0.2 -0.2)">
       <use xlink:href="#DejaVuSans-35"/>
       <use xlink:href="#DejaVuSans-35" x="63.623047"/>
      </g>
     </g>
    </g>
    <g id="text_7">
     <!-- Gaskühlerdruck in bar -->
     <g transform="translate(627.748438 878.593125) scale(0.2 -0.2)">
      <defs>
       <path id="DejaVuSans-47" d="M 3809 666 
L 3809 1919 
L 2778 1919 
L 2778 2438 
L 4434 2438 
L 4434 434 
Q 4069 175 3628 42 
Q 3188 -91 2688 -91 
Q 1594 -91 976 548 
Q 359 1188 359 2328 
Q 359 3472 976 4111 
Q 1594 4750 2688 4750 
Q 3144 4750 3555 4637 
Q 3966 4525 4313 4306 
L 4313 3634 
Q 3963 3931 3569 4081 
Q 3175 4231 2741 4231 
Q 1884 4231 1454 3753 
Q 1025 3275 1025 2328 
Q 1025 1384 1454 906 
Q 1884 428 2741 428 
Q 3075 428 3337 486 
Q 3600 544 3809 666 
z
" transform="scale(0.015625)"/>
       <path id="DejaVuSans-61" d="M 2194 1759 
Q 1497 1759 1228 1600 
Q 959 1441 959 1056 
Q 959 750 1161 570 
Q 1363 391 1709 391 
Q 2188 391 2477 730 
Q 2766 1069 2766 1631 
L 2766 1759 
L 2194 1759 
z
M 3341 1997 
L 3341 0 
L 2766 0 
L 2766 531 
Q 2569 213 2275 61 
Q 1981 -91 1556 -91 
Q 1019 -91 701 211 
Q 384 513 384 1019 
Q 384 1609 779 1909 
Q 1175 2209 1959 2209 
L 2766 2209 
L 2766 2266 
Q 2766 2663 2505 2880 
Q 2244 3097 1772 3097 
Q 1472 3097 1187 3025 
Q 903 2953 641 2809 
L 641 3341 
Q 956 3463 1253 3523 
Q 1550 3584 1831 3584 
Q 2591 3584 2966 3190 
Q 3341 2797 3341 1997 
z
" transform="scale(0.015625)"/>
       <path id="DejaVuSans-73" d="M 2834 3397 
L 2834 2853 
Q 2591 2978 2328 3040 
Q 2066 3103 1784 3103 
Q 1356 3103 1142 2972 
Q 928 2841 928 2578 
Q 928 2378 1081 2264 
Q 1234 2150 1697 2047 
L 1894 2003 
Q 2506 1872 2764 1633 
Q 3022 1394 3022 966 
Q 3022 478 2636 193 
Q 2250 -91 1575 -91 
Q 1294 -91 989 -36 
Q 684 19 347 128 
L 347 722 
Q 666 556 975 473 
Q 1284 391 1588 391 
Q 1994 391 2212 530 
Q 2431 669 2431 922 
Q 2431 1156 2273 1281 
Q 2116 1406 1581 1522 
L 1381 1569 
Q 847 1681 609 1914 
Q 372 2147 372 2553 
Q 372 3047 722 3315 
Q 1072 3584 1716 3584 
Q 2034 3584 2315 3537 
Q 2597 3491 2834 3397 
z
" transform="scale(0.015625)"/>
       <path id="DejaVuSans-6b" d="M 581 4863 
L 1159 4863 
L 1159 1991 
L 2875 3500 
L 3609 3500 
L 1753 1863 
L 3688 0 
L 2938 0 
L 1159 1709 
L 1159 0 
L 581 0 
L 581 4863 
z
" transform="scale(0.015625)"/>
       <path id="DejaVuSans-fc" d="M 544 1381 
L 544 3500 
L 1119 3500 
L 1119 1403 
Q 1119 906 1312 657 
Q 1506 409 1894 409 
Q 2359 409 2629 706 
Q 2900 1003 2900 1516 
L 2900 3500 
L 3475 3500 
L 3475 0 
L 2900 0 
L 2900 538 
Q 2691 219 2414 64 
Q 2138 -91 1772 -91 
Q 1169 -91 856 284 
Q 544 659 544 1381 
z
M 1991 3584 
L 1991 3584 
z
M 2278 4850 
L 2912 4850 
L 2912 4219 
L 2278 4219 
L 2278 4850 
z
M 1056 4850 
L 1690 4850 
L 1690 4219 
L 1056 4219 
L 1056 4850 
z
" transform="scale(0.015625)"/>
       <path id="DejaVuSans-68" d="M 3513 2113 
L 3513 0 
L 2938 0 
L 2938 2094 
Q 2938 2591 2744 2837 
Q 2550 3084 2163 3084 
Q 1697 3084 1428 2787 
Q 1159 2491 1159 1978 
L 1159 0 
L 581 0 
L 581 4863 
L 1159 4863 
L 1159 2956 
Q 1366 3272 1645 3428 
Q 1925 3584 2291 3584 
Q 2894 3584 3203 3211 
Q 3513 2838 3513 2113 
z
" transform="scale(0.015625)"/>
       <path id="DejaVuSans-6c" d="M 603 4863 
L 1178 4863 
L 1178 0 
L 603 0 
L 603 4863 
z
" transform="scale(0.015625)"/>
       <path id="DejaVuSans-65" d="M 3597 1894 
L 3597 1613 
L 953 1613 
Q 991 1019 1311 708 
Q 1631 397 2203 397 
Q 2534 397 2845 478 
Q 3156 559 3463 722 
L 3463 178 
Q 3153 47 2828 -22 
Q 2503 -91 2169 -91 
Q 1331 -91 842 396 
Q 353 884 353 1716 
Q 353 2575 817 3079 
Q 1281 3584 2069 3584 
Q 2775 3584 3186 3129 
Q 3597 2675 3597 1894 
z
M 3022 2063 
Q 3016 2534 2758 2815 
Q 2500 3097 2075 3097 
Q 1594 3097 1305 2825 
Q 1016 2553 972 2059 
L 3022 2063 
z
" transform="scale(0.015625)"/>
       <path id="DejaVuSans-72" d="M 2631 2963 
Q 2534 3019 2420 3045 
Q 2306 3072 2169 3072 
Q 1681 3072 1420 2755 
Q 1159 2438 1159 1844 
L 1159 0 
L 581 0 
L 581 3500 
L 1159 3500 
L 1159 2956 
Q 1341 3275 1631 3429 
Q 1922 3584 2338 3584 
Q 2397 3584 2469 3576 
Q 2541 3569 2628 3553 
L 2631 2963 
z
" transform="scale(0.015625)"/>
       <path id="DejaVuSans-64" d="M 2906 2969 
L 2906 4863 
L 3481 4863 
L 3481 0 
L 2906 0 
L 2906 525 
Q 2725 213 2448 61 
Q 2172 -91 1784 -91 
Q 1150 -91 751 415 
Q 353 922 353 1747 
Q 353 2572 751 3078 
Q 1150 3584 1784 3584 
Q 2172 3584 2448 3432 
Q 2725 3281 2906 2969 
z
M 947 1747 
Q 947 1113 1208 752 
Q 1469 391 1925 391 
Q 2381 391 2643 752 
Q 2906 1113 2906 1747 
Q 2906 2381 2643 2742 
Q 2381 3103 1925 3103 
Q 1469 3103 1208 2742 
Q 947 2381 947 1747 
z
" transform="scale(0.015625)"/>
       <path id="DejaVuSans-75" d="M 544 1381 
L 544 3500 
L 1119 3500 
L 1119 1403 
Q 1119 906 1312 657 
Q 1506 409 1894 409 
Q 2359 409 2629 706 
Q 2900 1003 2900 1516 
L 2900 3500 
L 3475 3500 
L 3475 0 
L 2900 0 
L 2900 538 
Q 2691 219 2414 64 
Q 2138 -91 1772 -91 
Q 1169 -91 856 284 
Q 544 659 544 1381 
z
M 1991 3584 
L 1991 3584 
z
" transform="scale(0.015625)"/>
       <path id="DejaVuSans-63" d="M 3122 3366 
L 3122 2828 
Q 2878 2963 2633 3030 
Q 2388 3097 2138 3097 
Q 1578 3097 1268 2742 
Q 959 2388 959 1747 
Q 959 1106 1268 751 
Q 1578 397 2138 397 
Q 2388 397 2633 464 
Q 2878 531 3122 666 
L 3122 134 
Q 2881 22 2623 -34 
Q 2366 -91 2075 -91 
Q 1284 -91 818 406 
Q 353 903 353 1747 
Q 353 2603 823 3093 
Q 1294 3584 2113 3584 
Q 2378 3584 2631 3529 
Q 2884 3475 3122 3366 
z
" transform="scale(0.015625)"/>
       <path id="DejaVuSans-20" transform="scale(0.015625)"/>
       <path id="DejaVuSans-69" d="M 603 3500 
L 1178 3500 
L 1178 0 
L 603 0 
L 603 3500 
z
M 603 4863 
L 1178 4863 
L 1178 4134 
L 603 4134 
L 603 4863 
z
" transform="scale(0.015625)"/>
       <path id="DejaVuSans-6e" d="M 3513 2113 
L 3513 0 
L 2938 0 
L 2938 2094 
Q 2938 2591 2744 2837 
Q 2550 3084 2163 3084 
Q 1697 3084 1428 2787 
Q 1159 2491 1159 1978 
L 1159 0 
L 581 0 
L 581 3500 
L 1159 3500 
L 1159 2956 
Q 1366 3272 1645 3428 
Q 1925 3584 2291 3584 
Q 2894 3584 3203 3211 
Q 3513 2838 3513 2113 
z
" transform="scale(0.015625)"/>
       <path id="DejaVuSans-62" d="M 3116 1747 
Q 3116 2381 2855 2742 
Q 2594 3103 2138 3103 
Q 1681 3103 1420 2742 
Q 1159 2381 1159 1747 
Q 1159 1113 1420 752 
Q 1681 391 2138 391 
Q 2594 391 2855 752 
Q 3116 1113 3116 1747 
z
M 1159 2969 
Q 1341 3281 1617 3432 
Q 1894 3584 2278 3584 
Q 2916 3584 3314 3078 
Q 3713 2572 3713 1747 
Q 3713 922 3314 415 
Q 2916 -91 2278 -91 
Q 1894 -91 1617 61 
Q 1341 213 1159 525 
L 1159 0 
L 581 0 
L 581 4863 
L 1159 4863 
L 1159 2969 
z
" transform="scale(0.015625)"/>
      </defs>
      <use xlink:href="#DejaVuSans-47"/>
      <use xlink:href="#DejaVuSans-61" x="77.490234"/>
      <use xlink:href="#DejaVuSans-73" x="138.769531"/>
      <use xlink:href="#DejaVuSans-6b" x="190.869141"/>
      <use xlink:href="#DejaVuSans-fc" x="245.654297"/>
      <use xlink:href="#DejaVuSans-68" x="309.033203"/>
      <use xlink:href="#DejaVuSans-6c" x="372.412109"/>
      <use xlink:href="#DejaVuSans-65" x="400.195312"/>
      <use xlink:href="#DejaVuSans-72" x="461.71875"/>
      <use xlink:href="#DejaVuSans-64" x="501.082031"/>
      <use xlink:href="#DejaVuSans-72" x="564.558594"/>
      <use xlink:href="#DejaVuSans-75" x="605.671875"/>
      <use xlink:href="#DejaVuSans-63" x="669.050781"/>
      <use xlink:href="#DejaVuSans-6b" x="724.03125"/>
      <use xlink:href="#DejaVuSans-20" x="781.941406"/>
      <use xlink:href="#DejaVuSans-69" x="813.728516"/>
      <use xlink:href="#DejaVuSans-6e" x="841.511719"/>
      <use xlink:href="#DejaVuSans-20" x="904.890625"/>
      <use xlink:href="#DejaVuSans-62" x="936.677734"/>
      <use xlink:href="#DejaVuSans-61" x="1000.154297"/>
      <use xlink:href="#DejaVuSans-72" x="1061.433594"/>
     </g>
    </g>
   </g>
   <g id="matplotlib.axis_2">
    <g id="ytick_1">
     <g id="line2d_13">
      <path d="M 180 809.790968 
L 1296 809.790968 
" clip-path="url(#p70d338e752)" style="fill: none; stroke: #b0b0b0; stroke-width: 0.8; stroke-linecap: square"/>
     </g>
     <g id="line2d_14">
      <defs>
       <path id="ma8b2689ef4" d="M 0 0 
L -3.5 0 
" style="stroke: #000000; stroke-width: 0.8"/>
      </defs>
      <g>
       <use xlink:href="#ma8b2689ef4" x="180" y="809.790968" style="stroke: #000000; stroke-width: 0.8"/>
      </g>
     </g>
     <g id="text_8">
      <!-- 68 -->
      <g transform="translate(147.55 817.389405) scale(0.2 -0.2)">
       <defs>
        <path id="DejaVuSans-36" d="M 2113 2584 
Q 1688 2584 1439 2293 
Q 1191 2003 1191 1497 
Q 1191 994 1439 701 
Q 1688 409 2113 409 
Q 2538 409 2786 701 
Q 3034 994 3034 1497 
Q 3034 2003 2786 2293 
Q 2538 2584 2113 2584 
z
M 3366 4563 
L 3366 3988 
Q 3128 4100 2886 4159 
Q 2644 4219 2406 4219 
Q 1781 4219 1451 3797 
Q 1122 3375 1075 2522 
Q 1259 2794 1537 2939 
Q 1816 3084 2150 3084 
Q 2853 3084 3261 2657 
Q 3669 2231 3669 1497 
Q 3669 778 3244 343 
Q 2819 -91 2113 -91 
Q 1303 -91 875 529 
Q 447 1150 447 2328 
Q 447 3434 972 4092 
Q 1497 4750 2381 4750 
Q 2619 4750 2861 4703 
Q 3103 4656 3366 4563 
z
" transform="scale(0.015625)"/>
        <path id="DejaVuSans-38" d="M 2034 2216 
Q 1584 2216 1326 1975 
Q 1069 1734 1069 1313 
Q 1069 891 1326 650 
Q 1584 409 2034 409 
Q 2484 409 2743 651 
Q 3003 894 3003 1313 
Q 3003 1734 2745 1975 
Q 2488 2216 2034 2216 
z
M 1403 2484 
Q 997 2584 770 2862 
Q 544 3141 544 3541 
Q 544 4100 942 4425 
Q 1341 4750 2034 4750 
Q 2731 4750 3128 4425 
Q 3525 4100 3525 3541 
Q 3525 3141 3298 2862 
Q 3072 2584 2669 2484 
Q 3125 2378 3379 2068 
Q 3634 1759 3634 1313 
Q 3634 634 3220 271 
Q 2806 -91 2034 -91 
Q 1263 -91 848 271 
Q 434 634 434 1313 
Q 434 1759 690 2068 
Q 947 2378 1403 2484 
z
M 1172 3481 
Q 1172 3119 1398 2916 
Q 1625 2713 2034 2713 
Q 2441 2713 2670 2916 
Q 2900 3119 2900 3481 
Q 2900 3844 2670 4047 
Q 2441 4250 2034 4250 
Q 1625 4250 1398 4047 
Q 1172 3844 1172 3481 
z
" transform="scale(0.015625)"/>
       </defs>
       <use xlink:href="#DejaVuSans-36"/>
       <use xlink:href="#DejaVuSans-38" x="63.623047"/>
      </g>
     </g>
    </g>
    <g id="ytick_2">
     <g id="line2d_15">
      <path d="M 180 693.545806 
L 1296 693.545806 
" clip-path="url(#p70d338e752)" style="fill: none; stroke: #b0b0b0; stroke-width: 0.8; stroke-linecap: square"/>
     </g>
     <g id="line2d_16">
      <g>
       <use xlink:href="#ma8b2689ef4" x="180" y="693.545806" style="stroke: #000000; stroke-width: 0.8"/>
      </g>
     </g>
     <g id="text_9">
      <!-- 69 -->
      <g transform="translate(147.55 701.144244) scale(0.2 -0.2)">
       <defs>
        <path id="DejaVuSans-39" d="M 703 97 
L 703 672 
Q 941 559 1184 500 
Q 1428 441 1663 441 
Q 2288 441 2617 861 
Q 2947 1281 2994 2138 
Q 2813 1869 2534 1725 
Q 2256 1581 1919 1581 
Q 1219 1581 811 2004 
Q 403 2428 403 3163 
Q 403 3881 828 4315 
Q 1253 4750 1959 4750 
Q 2769 4750 3195 4129 
Q 3622 3509 3622 2328 
Q 3622 1225 3098 567 
Q 2575 -91 1691 -91 
Q 1453 -91 1209 -44 
Q 966 3 703 97 
z
M 1959 2075 
Q 2384 2075 2632 2365 
Q 2881 2656 2881 3163 
Q 2881 3666 2632 3958 
Q 2384 4250 1959 4250 
Q 1534 4250 1286 3958 
Q 1038 3666 1038 3163 
Q 1038 2656 1286 2365 
Q 1534 2075 1959 2075 
z
" transform="scale(0.015625)"/>
       </defs>
       <use xlink:href="#DejaVuSans-36"/>
       <use xlink:href="#DejaVuSans-39" x="63.623047"/>
      </g>
     </g>
    </g>
    <g id="ytick_3">
     <g id="line2d_17">
      <path d="M 180 577.300645 
L 1296 577.300645 
" clip-path="url(#p70d338e752)" style="fill: none; stroke: #b0b0b0; stroke-width: 0.8; stroke-linecap: square"/>
     </g>
     <g id="line2d_18">
      <g>
       <use xlink:href="#ma8b2689ef4" x="180" y="577.300645" style="stroke: #000000; stroke-width: 0.8"/>
      </g>
     </g>
     <g id="text_10">
      <!-- 70 -->
      <g transform="translate(147.55 584.899083) scale(0.2 -0.2)">
       <defs>
        <path id="DejaVuSans-37" d="M 525 4666 
L 3525 4666 
L 3525 4397 
L 1831 0 
L 1172 0 
L 2766 4134 
L 525 4134 
L 525 4666 
z
" transform="scale(0.015625)"/>
       </defs>
       <use xlink:href="#DejaVuSans-37"/>
       <use xlink:href="#DejaVuSans-30" x="63.623047"/>
      </g>
     </g>
    </g>
    <g id="ytick_4">
     <g id="line2d_19">
      <path d="M 180 461.055484 
L 1296 461.055484 
" clip-path="url(#p70d338e752)" style="fill: none; stroke: #b0b0b0; stroke-width: 0.8; stroke-linecap: square"/>
     </g>
     <g id="line2d_20">
      <g>
       <use xlink:href="#ma8b2689ef4" x="180" y="461.055484" style="stroke: #000000; stroke-width: 0.8"/>
      </g>
     </g>
     <g id="text_11">
      <!-- 71 -->
      <g transform="translate(147.55 468.653921) scale(0.2 -0.2)">
       <defs>
        <path id="DejaVuSans-31" d="M 794 531 
L 1825 531 
L 1825 4091 
L 703 3866 
L 703 4441 
L 1819 4666 
L 2450 4666 
L 2450 531 
L 3481 531 
L 3481 0 
L 794 0 
L 794 531 
z
" transform="scale(0.015625)"/>
       </defs>
       <use xlink:href="#DejaVuSans-37"/>
       <use xlink:href="#DejaVuSans-31" x="63.623047"/>
      </g>
     </g>
    </g>
    <g id="ytick_5">
     <g id="line2d_21">
      <path d="M 180 344.810323 
L 1296 344.810323 
" clip-path="url(#p70d338e752)" style="fill: none; stroke: #b0b0b0; stroke-width: 0.8; stroke-linecap: square"/>
     </g>
     <g id="line2d_22">
      <g>
       <use xlink:href="#ma8b2689ef4" x="180" y="344.810323" style="stroke: #000000; stroke-width: 0.8"/>
      </g>
     </g>
     <g id="text_12">
      <!-- 72 -->
      <g transform="translate(147.55 352.40876) scale(0.2 -0.2)">
       <defs>
        <path id="DejaVuSans-32" d="M 1228 531 
L 3431 531 
L 3431 0 
L 469 0 
L 469 531 
Q 828 903 1448 1529 
Q 2069 2156 2228 2338 
Q 2531 2678 2651 2914 
Q 2772 3150 2772 3378 
Q 2772 3750 2511 3984 
Q 2250 4219 1831 4219 
Q 1534 4219 1204 4116 
Q 875 4013 500 3803 
L 500 4441 
Q 881 4594 1212 4672 
Q 1544 4750 1819 4750 
Q 2544 4750 2975 4387 
Q 3406 4025 3406 3419 
Q 3406 3131 3298 2873 
Q 3191 2616 2906 2266 
Q 2828 2175 2409 1742 
Q 1991 1309 1228 531 
z
" transform="scale(0.015625)"/>
       </defs>
       <use xlink:href="#DejaVuSans-37"/>
       <use xlink:href="#DejaVuSans-32" x="63.623047"/>
      </g>
     </g>
    </g>
    <g id="ytick_6">
     <g id="line2d_23">
      <path d="M 180 228.565161 
L 1296 228.565161 
" clip-path="url(#p70d338e752)" style="fill: none; stroke: #b0b0b0; stroke-width: 0.8; stroke-linecap: square"/>
     </g>
     <g id="line2d_24">
      <g>
       <use xlink:href="#ma8b2689ef4" x="180" y="228.565161" style="stroke: #000000; stroke-width: 0.8"/>
      </g>
     </g>
     <g id="text_13">
      <!-- 73 -->
      <g transform="translate(147.55 236.163599) scale(0.2 -0.2)">
       <use xlink:href="#DejaVuSans-37"/>
       <use xlink:href="#DejaVuSans-33" x="63.623047"/>
      </g>
     </g>
    </g>
    <g id="ytick_7">
     <g id="line2d_25">
      <path d="M 180 112.32 
L 1296 112.32 
" clip-path="url(#p70d338e752)" style="fill: none; stroke: #b0b0b0; stroke-width: 0.8; stroke-linecap: square"/>
     </g>
     <g id="line2d_26">
      <g>
       <use xlink:href="#ma8b2689ef4" x="180" y="112.32" style="stroke: #000000; stroke-width: 0.8"/>
      </g>
     </g>
     <g id="text_14">
      <!-- 74 -->
      <g transform="translate(147.55 119.918437) scale(0.2 -0.2)">
       <use xlink:href="#DejaVuSans-37"/>
       <use xlink:href="#DejaVuSans-34" x="63.623047"/>
      </g>
     </g>
    </g>
    <g id="text_15">
     <!-- exergetischer Wirkungsgrad -->
     <g transform="translate(139.390625 613.239375) rotate(-90) scale(0.2 -0.2)">
      <defs>
       <path id="DejaVuSans-78" d="M 3513 3500 
L 2247 1797 
L 3578 0 
L 2900 0 
L 1881 1375 
L 863 0 
L 184 0 
L 1544 1831 
L 300 3500 
L 978 3500 
L 1906 2253 
L 2834 3500 
L 3513 3500 
z
" transform="scale(0.015625)"/>
       <path id="DejaVuSans-67" d="M 2906 1791 
Q 2906 2416 2648 2759 
Q 2391 3103 1925 3103 
Q 1463 3103 1205 2759 
Q 947 2416 947 1791 
Q 947 1169 1205 825 
Q 1463 481 1925 481 
Q 2391 481 2648 825 
Q 2906 1169 2906 1791 
z
M 3481 434 
Q 3481 -459 3084 -895 
Q 2688 -1331 1869 -1331 
Q 1566 -1331 1297 -1286 
Q 1028 -1241 775 -1147 
L 775 -588 
Q 1028 -725 1275 -790 
Q 1522 -856 1778 -856 
Q 2344 -856 2625 -561 
Q 2906 -266 2906 331 
L 2906 616 
Q 2728 306 2450 153 
Q 2172 0 1784 0 
Q 1141 0 747 490 
Q 353 981 353 1791 
Q 353 2603 747 3093 
Q 1141 3584 1784 3584 
Q 2172 3584 2450 3431 
Q 2728 3278 2906 2969 
L 2906 3500 
L 3481 3500 
L 3481 434 
z
" transform="scale(0.015625)"/>
       <path id="DejaVuSans-74" d="M 1172 4494 
L 1172 3500 
L 2356 3500 
L 2356 3053 
L 1172 3053 
L 1172 1153 
Q 1172 725 1289 603 
Q 1406 481 1766 481 
L 2356 481 
L 2356 0 
L 1766 0 
Q 1100 0 847 248 
Q 594 497 594 1153 
L 594 3053 
L 172 3053 
L 172 3500 
L 594 3500 
L 594 4494 
L 1172 4494 
z
" transform="scale(0.015625)"/>
       <path id="DejaVuSans-57" d="M 213 4666 
L 850 4666 
L 1831 722 
L 2809 4666 
L 3519 4666 
L 4500 722 
L 5478 4666 
L 6119 4666 
L 4947 0 
L 4153 0 
L 3169 4050 
L 2175 0 
L 1381 0 
L 213 4666 
z
" transform="scale(0.015625)"/>
      </defs>
      <use xlink:href="#DejaVuSans-65"/>
      <use xlink:href="#DejaVuSans-78" x="59.773438"/>
      <use xlink:href="#DejaVuSans-65" x="115.828125"/>
      <use xlink:href="#DejaVuSans-72" x="177.351562"/>
      <use xlink:href="#DejaVuSans-67" x="216.714844"/>
      <use xlink:href="#DejaVuSans-65" x="280.191406"/>
      <use xlink:href="#DejaVuSans-74" x="341.714844"/>
      <use xlink:href="#DejaVuSans-69" x="380.923828"/>
      <use xlink:href="#DejaVuSans-73" x="408.707031"/>
      <use xlink:href="#DejaVuSans-63" x="460.806641"/>
      <use xlink:href="#DejaVuSans-68" x="515.787109"/>
      <use xlink:href="#DejaVuSans-65" x="579.166016"/>
      <use xlink:href="#DejaVuSans-72" x="640.689453"/>
      <use xlink:href="#DejaVuSans-20" x="681.802734"/>
      <use xlink:href="#DejaVuSans-57" x="713.589844"/>
      <use xlink:href="#DejaVuSans-69" x="810.216797"/>
      <use xlink:href="#DejaVuSans-72" x="838"/>
      <use xlink:href="#DejaVuSans-6b" x="879.113281"/>
      <use xlink:href="#DejaVuSans-75" x="933.898438"/>
      <use xlink:href="#DejaVuSans-6e" x="997.277344"/>
      <use xlink:href="#DejaVuSans-67" x="1060.65625"/>
      <use xlink:href="#DejaVuSans-73" x="1124.132812"/>
      <use xlink:href="#DejaVuSans-67" x="1176.232422"/>
      <use xlink:href="#DejaVuSans-72" x="1239.708984"/>
      <use xlink:href="#DejaVuSans-61" x="1280.822266"/>
      <use xlink:href="#DejaVuSans-64" x="1342.101562"/>
     </g>
    </g>
   </g>
   <g id="line2d_27">
    <path d="M 186.377143 173.789095 
L 194.368752 181.086027 
L 202.360362 188.631322 
L 210.351971 196.359077 
L 218.34358 204.218802 
L 226.33519 212.171175 
L 234.326799 220.185159 
L 242.318409 228.235981 
L 250.310018 236.303692 
L 258.301627 244.37211 
L 266.293237 252.428031 
L 274.284846 260.460636 
L 282.276456 268.461035 
L 290.268065 276.421904 
L 298.259675 284.337212 
L 306.251284 292.201996 
L 314.242893 300.012178 
L 322.234503 307.764426 
L 330.226112 315.456033 
L 338.217722 323.084819 
L 346.209331 330.649053 
L 354.20094 338.14738 
L 362.19255 345.578776 
L 370.184159 352.94249 
L 378.175769 360.23801 
L 386.167378 367.465027 
L 394.158987 374.623408 
L 402.150597 381.713169 
L 410.142206 388.734458 
L 418.133816 395.687531 
L 426.125425 402.572741 
L 434.117034 409.390523 
L 442.108644 416.141381 
L 450.100253 422.82588 
L 458.091863 429.444636 
L 466.083472 435.998307 
L 474.075081 442.487588 
L 482.066691 448.913205 
L 490.0583 455.275907 
L 498.04991 461.576466 
L 506.041519 467.81567 
L 514.033128 473.994319 
L 522.024738 480.113224 
L 530.016347 486.173203 
L 538.007957 492.175078 
L 545.999566 498.119675 
L 553.991175 504.007821 
L 561.982785 509.84034 
L 569.974394 515.618056 
L 577.966004 521.341789 
L 585.957613 527.012354 
L 593.949222 532.63056 
L 601.940832 538.197212 
L 609.932441 543.713105 
L 617.924051 549.179027 
L 625.91566 554.595758 
L 633.907269 559.964072 
L 641.898879 565.284729 
L 649.890488 570.558484 
L 657.882098 575.786078 
L 665.873707 580.968245 
L 673.865316 586.105709 
L 681.856926 591.199182 
L 689.848535 596.249366 
L 697.840145 601.256954 
L 705.831754 606.222626 
L 713.823363 611.147053 
L 721.814973 616.030895 
L 729.806582 620.874802 
L 737.798192 625.679412 
L 745.789801 630.445353 
L 753.78141 635.173243 
L 761.77302 639.863691 
L 769.764629 644.517291 
L 777.756239 649.134633 
L 785.747848 653.716291 
L 793.739458 658.262832 
L 801.731067 662.774814 
L 809.722676 667.252782 
L 817.714286 671.697274 
" clip-path="url(#p70d338e752)" style="fill: none; stroke: #000000; stroke-width: 1.5; stroke-linecap: square"/>
   </g>
   <g id="line2d_28">
    <path d="M 299.571429 192.300459 
L 310.115913 202.583461 
L 320.660398 212.777796 
L 331.204882 222.875644 
L 341.749367 232.871 
L 352.293852 242.759321 
L 362.838336 252.537251 
L 373.382821 262.202398 
L 383.927306 271.753161 
L 394.47179 281.188586 
L 405.016275 290.508254 
L 415.560759 299.712185 
L 426.105244 308.800761 
L 436.649729 317.774659 
L 447.194213 326.634805 
L 457.738698 335.382324 
L 468.283183 344.018504 
L 478.827667 352.544768 
L 489.372152 360.962644 
L 499.916637 369.273747 
L 510.461121 377.479756 
L 521.005606 385.582403 
L 531.55009 393.583456 
L 542.094575 401.48471 
L 552.63906 409.287976 
L 563.183544 416.995075 
L 573.728029 424.607828 
L 584.272514 432.128053 
L 594.816998 439.557558 
L 605.361483 446.898139 
L 615.905967 454.151575 
L 626.450452 461.319623 
L 636.994937 468.404022 
L 647.539421 475.406485 
L 658.083906 482.328699 
L 668.628391 489.172324 
L 679.172875 495.938992 
L 689.71736 502.630308 
L 700.261844 509.247845 
L 710.806329 515.793146 
L 721.350814 522.267724 
L 731.895298 528.673064 
L 742.439783 535.010617 
L 752.984268 541.281805 
L 763.528752 547.488019 
L 774.073237 553.63062 
L 784.617722 559.710939 
L 795.162206 565.730278 
L 805.706691 571.689908 
L 816.251175 577.591072 
L 826.79566 583.434984 
L 837.340145 589.22283 
L 847.884629 594.955769 
L 858.429114 600.634931 
L 868.973599 606.261421 
L 879.518083 611.836316 
L 890.062568 617.360668 
L 900.607052 622.835504 
L 911.151537 628.261827 
L 921.696022 633.640614 
L 932.240506 638.972818 
L 942.784991 644.259372 
L 953.329476 649.501183 
L 963.87396 654.699136 
L 974.418445 659.854096 
L 984.962929 664.966907 
L 995.507414 670.03839 
L 1006.051899 675.069354 
L 1016.596383 680.060569 
L 1027.140868 685.012804 
L 1037.685353 689.926803 
L 1048.229837 694.803294 
L 1058.774322 699.642983 
L 1069.318807 704.446562 
L 1079.863291 709.214705 
L 1090.407776 713.948069 
L 1100.95226 718.647296 
L 1111.496745 723.31301 
L 1122.04123 727.945822 
L 1132.585714 732.546327 
" clip-path="url(#p70d338e752)" style="fill: none; stroke: #000000; stroke-width: 1.5; stroke-linecap: square"/>
   </g>
   <g id="line2d_29">
    <path d="M 423.128571 216.137109 
L 432.462206 224.129044 
L 441.795841 232.032752 
L 451.129476 239.848838 
L 460.46311 247.578033 
L 469.796745 255.221167 
L 479.13038 262.779161 
L 488.464014 270.253003 
L 497.797649 277.643743 
L 507.131284 284.952478 
L 516.464919 292.180346 
L 525.798553 299.328511 
L 535.132188 306.398167 
L 544.465823 313.390519 
L 553.799458 320.306791 
L 563.133092 327.148209 
L 572.466727 333.916006 
L 581.800362 340.611416 
L 591.133996 347.235667 
L 600.467631 353.789986 
L 609.801266 360.27559 
L 619.134901 366.693686 
L 628.468535 373.045474 
L 637.80217 379.332138 
L 647.135805 385.55485 
L 656.469439 391.714768 
L 665.803074 397.813034 
L 675.136709 403.850774 
L 684.470344 409.829097 
L 693.803978 415.749097 
L 703.137613 421.611847 
L 712.471248 427.418406 
L 721.804882 433.169813 
L 731.138517 438.86709 
L 740.472152 444.511239 
L 749.805787 450.103245 
L 759.139421 455.644075 
L 768.473056 461.134678 
L 777.806691 466.575985 
L 787.140325 471.968907 
L 796.47396 477.314339 
L 805.807595 482.613158 
L 815.14123 487.866225 
L 824.474864 493.07438 
L 833.808499 498.238449 
L 843.142134 503.35924 
L 852.475769 508.437544 
L 861.809403 513.474137 
L 871.143038 518.469777 
L 880.476673 523.425207 
L 889.810307 528.341154 
L 899.143942 533.218331 
L 908.477577 538.057433 
L 917.811212 542.859143 
L 927.144846 547.624128 
L 936.478481 552.353041 
L 945.812116 557.046521 
L 955.14575 561.705192 
L 964.479385 566.329666 
L 973.81302 570.920542 
L 983.146655 575.478405 
L 992.480289 580.003827 
L 1001.813924 584.497374 
L 1011.147559 588.959583 
L 1020.481193 593.390995 
L 1029.814828 597.792134 
L 1039.148463 602.163514 
L 1048.482098 606.505635 
L 1057.815732 610.818989 
L 1067.149367 615.104055 
L 1076.483002 619.361304 
L 1085.816637 623.591193 
L 1095.150271 627.794173 
L 1104.483906 631.970682 
L 1113.817541 636.121151 
L 1123.151175 640.245999 
L 1132.48481 644.345639 
L 1141.818445 648.420472 
L 1151.15208 652.470892 
L 1160.485714 656.497285 
" clip-path="url(#p70d338e752)" style="fill: none; stroke: #000000; stroke-width: 1.5; stroke-linecap: square"/>
   </g>
   <g id="line2d_30">
    <path d="M 554.657143 233.245142 
L 562.628571 239.113868 
L 570.6 244.928928 
L 578.571429 250.69108 
L 586.542857 256.401078 
L 594.514286 262.059677 
L 602.485714 267.667627 
L 610.457143 273.22568 
L 618.428571 278.734577 
L 626.4 284.195056 
L 634.371429 289.607853 
L 642.342857 294.973694 
L 650.314286 300.293298 
L 658.285714 305.567378 
L 666.257143 310.796639 
L 674.228571 315.981777 
L 682.2 321.12348 
L 690.171429 326.222428 
L 698.142857 331.279292 
L 706.114286 336.294732 
L 714.085714 341.269402 
L 722.057143 346.203944 
L 730.028571 351.098993 
L 738 355.955171 
L 745.971429 360.773095 
L 753.942857 365.553369 
L 761.914286 370.296589 
L 769.885714 375.003342 
L 777.857143 379.674204 
L 785.828571 384.309743 
L 793.8 388.910517 
L 801.771429 393.477074 
L 809.742857 398.009955 
L 817.714286 402.509689 
L 825.685714 406.976797 
L 833.657143 411.411793 
L 841.628571 415.815179 
L 849.6 420.187449 
L 857.571429 424.529091 
L 865.542857 428.84058 
L 873.514286 433.122386 
L 881.485714 437.374969 
L 889.457143 441.598781 
L 897.428571 445.794266 
L 905.4 449.96186 
L 913.371429 454.101991 
L 921.342857 458.215079 
L 929.314286 462.301536 
L 937.285714 466.361768 
L 945.257143 470.396172 
L 953.228571 474.405137 
L 961.2 478.389048 
L 969.171429 482.34828 
L 977.142857 486.283201 
L 985.114286 490.194174 
L 993.085714 494.081555 
L 1001.057143 497.945697 
L 1009.028571 501.786931 
L 1017 505.605599 
L 1024.971429 509.40203 
L 1032.942857 513.176548 
L 1040.914286 516.929469 
L 1048.885714 520.661106 
L 1056.857143 524.371765 
L 1064.828571 528.061743 
L 1072.8 531.731337 
L 1080.771429 535.380835 
L 1088.742857 539.01052 
L 1096.714286 542.62067 
L 1104.685714 546.211558 
L 1112.657143 549.783452 
L 1120.628571 553.336614 
L 1128.6 556.871302 
L 1136.571429 560.38777 
L 1144.542857 563.886265 
L 1152.514286 567.367032 
L 1160.485714 570.830309 
L 1168.457143 574.276331 
L 1176.428571 577.705328 
L 1184.4 581.117528 
" clip-path="url(#p70d338e752)" style="fill: none; stroke: #000000; stroke-width: 1.5; stroke-linecap: square"/>
   </g>
   <g id="line2d_31">
    <path d="M 706.114286 250.704632 
L 712.471248 254.695496 
L 718.82821 258.660752 
L 725.185172 262.60072 
L 731.542134 266.51572 
L 737.899096 270.406066 
L 744.256058 274.272068 
L 750.61302 278.114034 
L 756.969982 281.932266 
L 763.326944 285.727064 
L 769.683906 289.498723 
L 776.040868 293.247536 
L 782.39783 296.973791 
L 788.754792 300.677771 
L 795.111754 304.359758 
L 801.468716 308.020029 
L 807.825678 311.658856 
L 814.18264 315.27651 
L 820.539602 318.873256 
L 826.896564 322.449356 
L 833.253526 326.00507 
L 839.610488 329.540652 
L 845.96745 333.056355 
L 852.324412 336.552425 
L 858.681374 340.029108 
L 865.038336 343.486646 
L 871.395298 346.925275 
L 877.75226 350.345231 
L 884.109222 353.746743 
L 890.466184 357.130041 
L 896.823146 360.495348 
L 903.180108 363.842886 
L 909.537071 367.172873 
L 915.894033 370.485524 
L 922.250995 373.78105 
L 928.607957 377.05966 
L 934.964919 380.32156 
L 941.321881 383.566952 
L 947.678843 386.796037 
L 954.035805 390.00901 
L 960.392767 393.206066 
L 966.749729 396.387395 
L 973.106691 399.553186 
L 979.463653 402.703624 
L 985.820615 405.838892 
L 992.177577 408.959169 
L 998.534539 412.064636 
L 1004.891501 415.155464 
L 1011.248463 418.231822 
L 1017.605425 421.293882 
L 1023.962387 424.341812 
L 1030.319349 427.375776 
L 1036.676311 430.395935 
L 1043.033273 433.40245 
L 1049.390235 436.395476 
L 1055.747197 439.37517 
L 1062.104159 442.341684 
L 1068.461121 445.295167 
L 1074.818083 448.235768 
L 1081.175045 451.163632 
L 1087.532007 454.078903 
L 1093.888969 456.981722 
L 1100.245931 459.872228 
L 1106.602893 462.750559 
L 1112.959855 465.61685 
L 1119.316817 468.471233 
L 1125.673779 471.313841 
L 1132.030741 474.144801 
L 1138.387703 476.964242 
L 1144.744665 479.772288 
L 1151.101627 482.569063 
L 1157.45859 485.354689 
L 1163.815552 488.129285 
L 1170.172514 490.892969 
L 1176.529476 493.645858 
L 1182.886438 496.388067 
L 1189.2434 499.119707 
L 1195.600362 501.840891 
L 1201.957324 504.551727 
L 1208.314286 507.252324 
" clip-path="url(#p70d338e752)" style="fill: none; stroke: #000000; stroke-width: 1.5; stroke-linecap: square"/>
   </g>
   <g id="line2d_32">
    <path d="M 881.485714 268.777536 
L 885.875045 271.135016 
L 890.264376 273.48383 
L 894.653707 275.824054 
L 899.043038 278.155759 
L 903.432369 280.479018 
L 907.8217 282.793904 
L 912.211031 285.100486 
L 916.600362 287.398836 
L 920.989693 289.689023 
L 925.379024 291.971115 
L 929.768354 294.245181 
L 934.157685 296.511288 
L 938.547016 298.769504 
L 942.936347 301.019894 
L 947.325678 303.262523 
L 951.715009 305.497457 
L 956.10434 307.72476 
L 960.493671 309.944494 
L 964.883002 312.156724 
L 969.272333 314.361511 
L 973.661664 316.558916 
L 978.050995 318.749001 
L 982.440325 320.931826 
L 986.829656 323.107451 
L 991.218987 325.275934 
L 995.608318 327.437334 
L 999.997649 329.591716 
L 1004.38698 331.739123 
L 1008.776311 333.879619 
L 1013.165642 336.01326 
L 1017.554973 338.140102 
L 1021.944304 340.260199 
L 1026.333635 342.373605 
L 1030.722966 344.480375 
L 1035.112297 346.580562 
L 1039.501627 348.674218 
L 1043.890958 350.761396 
L 1048.280289 352.842147 
L 1052.66962 354.916522 
L 1057.058951 356.984572 
L 1061.448282 359.046347 
L 1065.837613 361.101896 
L 1070.226944 363.151268 
L 1074.616275 365.194512 
L 1079.005606 367.231676 
L 1083.394937 369.262807 
L 1087.784268 371.287952 
L 1092.173599 373.307158 
L 1096.562929 375.32047 
L 1100.95226 377.327935 
L 1105.341591 379.329597 
L 1109.730922 381.325501 
L 1114.120253 383.315691 
L 1118.509584 385.30021 
L 1122.898915 387.279102 
L 1127.288246 389.25241 
L 1131.677577 391.220176 
L 1136.066908 393.182442 
L 1140.456239 395.139249 
L 1144.84557 397.090639 
L 1149.234901 399.036651 
L 1153.624231 400.977327 
L 1158.013562 402.912705 
L 1162.402893 404.842826 
L 1166.792224 406.767728 
L 1171.181555 408.68745 
L 1175.570886 410.602029 
L 1179.960217 412.511505 
L 1184.349548 414.415913 
L 1188.738879 416.315291 
L 1193.12821 418.209676 
L 1197.517541 420.099104 
L 1201.906872 421.983611 
L 1206.296203 423.863232 
L 1210.685533 425.738002 
L 1215.074864 427.607956 
L 1219.464195 429.473129 
L 1223.853526 431.333555 
L 1228.242857 433.189267 
" clip-path="url(#p70d338e752)" style="fill: none; stroke: #000000; stroke-width: 1.5; stroke-linecap: square"/>
   </g>
   <g id="line2d_33">
    <path d="M 290.44897 276.621255 
L 302.43642 278.855256 
L 314.452579 281.084946 
L 326.618246 283.36123 
L 338.818132 285.599583 
L 351.214811 287.888246 
L 363.614696 290.095933 
L 376.152649 292.299328 
L 388.834888 294.496062 
L 401.467853 296.556104 
L 414.385204 298.689072 
L 427.29104 300.701543 
L 440.489531 302.7843 
L 453.675657 304.740273 
L 466.965856 306.641819 
L 480.425878 308.528196 
L 494.033489 310.383431 
L 507.791855 312.207811 
L 521.704389 314.001958 
L 535.774751 315.766794 
L 549.831855 317.399828 
L 564.227188 319.1091 
L 578.612215 320.688882 
L 593.349952 322.349049 
L 608.081087 323.882697 
L 623.165532 325.493271 
L 638.247306 326.980768 
L 653.518277 328.452843 
L 669.183538 330.018539 
L 684.853927 331.467564 
L 700.73167 332.909001 
L 717.033556 334.453978 
L 733.350059 335.889252 
L 749.894804 337.325781 
L 766.675367 338.766699 
L 783.699674 340.215234 
L 800.976013 341.674717 
L 818.531948 343.157577 
L 836.339152 344.649401 
L 854.42561 346.162746 
L 873.052936 347.817315 
L 891.733723 349.38614 
L 910.461746 350.869517 
L 929.768735 352.507031 
L 949.464286 354.209801 
L 969.604291 356.000326 
L 989.849562 357.729926 
L 1010.461453 359.512225 
L 1031.453478 361.351521 
L 1053.121679 363.369392 
L 1074.924403 365.337718 
" clip-path="url(#p70d338e752)" style="fill: none; stroke-dasharray: 5.55,2.4; stroke-dashoffset: 0; stroke: #ff0000; stroke-width: 1.5"/>
   </g>
   <g id="line2d_34">
    <path d="M 406.545099 385.604598 
L 419.904254 387.538267 
L 433.258906 389.406686 
L 446.767462 391.259974 
L 460.292268 393.041246 
L 474.038606 394.827015 
L 487.772764 396.521287 
L 501.663716 398.189753 
L 515.721689 399.83573 
L 529.71516 401.360864 
L 544.050445 402.934822 
L 558.372215 404.407764 
L 573.049329 405.934936 
L 587.716334 407.361672 
L 602.515422 408.748155 
L 617.527464 410.128498 
L 632.727444 411.49212 
L 648.120899 412.841386 
L 663.713658 414.178803 
L 679.511857 415.507013 
L 695.310206 416.741853 
L 711.535322 418.058824 
L 727.766728 419.286446 
L 744.446686 420.603963 
L 761.139868 421.836351 
L 778.28681 423.159735 
L 795.454 424.402219 
L 812.877407 425.657942 
L 830.812156 427.025205 
L 848.780028 428.318751 
L 867.031935 429.63612 
L 885.840462 431.080039 
L 904.697 432.457536 
L 923.869347 433.870298 
L 943.368957 435.322294 
L 963.207776 436.817581 
L 983.398261 438.360305 
L 1003.977589 439.963425 
L 1024.911505 441.613964 
L 1046.237677 443.324898 
L 1068.297479 445.216473 
L 1090.461524 447.064088 
L 1112.71885 448.865205 
L 1135.766045 450.863207 
L 1159.35741 452.969852 
L 1183.56945 455.209891 
L 1207.952355 457.427423 
" clip-path="url(#p70d338e752)" style="fill: none; stroke-dasharray: 5.55,2.4; stroke-dashoffset: 0; stroke: #ffa500; stroke-width: 1.5"/>
   </g>
   <g id="line2d_35">
    <path d="M 534.575555 489.627945 
L 549.46101 490.970563 
L 564.33768 492.263946 
L 579.399938 493.546316 
L 594.484601 494.77796 
L 609.841316 496.018199 
L 625.190998 497.196393 
L 640.7391 498.364215 
L 656.499963 499.526453 
L 672.196238 500.606888 
L 688.319757 501.741557 
L 704.443272 502.812303 
L 721.014795 503.946455 
L 737.593408 505.019178 
L 754.352701 506.080494 
L 771.392844 507.160288 
L 788.685323 508.251236 
L 806.238813 509.356754 
L 824.062411 510.480363 
L 842.165648 511.625693 
L 860.295787 512.718552 
L 878.983234 513.916614 
L 897.707273 515.066466 
L 917.021736 516.332672 
L 936.383416 517.554953 
L 956.348202 518.898551 
L 976.370644 520.202195 
L 996.750059 521.555179 
L 1017.815256 523.054918 
L 1038.956674 524.52133 
L 1060.496431 526.049991 
L 1082.790364 527.74603 
L 1105.181056 529.415035 
L 1128.016583 531.159888 
L 1151.313476 532.985207 
L 1175.088847 534.895665 
L 1199.3604 536.89598 
" clip-path="url(#p70d338e752)" style="fill: none; stroke-dasharray: 5.55,2.4; stroke-dashoffset: 0; stroke: #008000; stroke-width: 1.5"/>
   </g>
   <g id="line2d_36">
    <path d="M 676.877863 588.055683 
L 693.666123 588.939399 
L 710.460286 589.808778 
L 727.49737 590.691607 
L 744.581439 591.558971 
L 762.017575 592.457538 
L 779.467914 593.332649 
L 797.184348 594.226178 
L 815.186671 595.143708 
L 833.135383 596.021185 
L 851.637494 596.975777 
L 870.167699 597.906222 
L 889.283194 598.926321 
L 908.438044 599.92526 
L 927.849064 600.948139 
L 947.643741 602.023655 
L 967.788671 603.146229 
L 988.296999 604.320159 
L 1009.182452 605.549845 
L 1030.45935 606.839769 
L 1051.804299 608.115283 
L 1073.900844 609.536429 
L 1096.078794 610.946774 
L 1119.0581 612.517676 
L 1142.132961 614.081167 
L 1166.032189 615.813414 
" clip-path="url(#p70d338e752)" style="fill: none; stroke-dasharray: 5.55,2.4; stroke-dashoffset: 0; stroke: #4682b4; stroke-width: 1.5"/>
   </g>
   <g id="patch_3">
    <path d="M 180 833.04 
L 180 112.32 
" style="fill: none; stroke: #000000; stroke-width: 0.8; stroke-linejoin: miter; stroke-linecap: square"/>
   </g>
   <g id="patch_4">
    <path d="M 1296 833.04 
L 1296 112.32 
" style="fill: none; stroke: #000000; stroke-width: 0.8; stroke-linejoin: miter; stroke-linecap: square"/>
   </g>
   <g id="patch_5">
    <path d="M 180 833.04 
L 1296 833.04 
" style="fill: none; stroke: #000000; stroke-width: 0.8; stroke-linejoin: miter; stroke-linecap: square"/>
   </g>
   <g id="patch_6">
    <path d="M 180 112.32 
L 1296 112.32 
" style="fill: none; stroke: #000000; stroke-width: 0.8; stroke-linejoin: miter; stroke-linecap: square"/>
   </g>
   <g id="text_16">
    <!-- 190 -->
    <g transform="translate(819.707143 681.92129) scale(0.2 -0.2)">
     <use xlink:href="#DejaVuSans-31"/>
     <use xlink:href="#DejaVuSans-39" x="63.623047"/>
     <use xlink:href="#DejaVuSans-30" x="127.246094"/>
    </g>
   </g>
   <g id="text_17">
    <!-- 195 -->
    <g transform="translate(1132.585714 740.043871) scale(0.2 -0.2)">
     <use xlink:href="#DejaVuSans-31"/>
     <use xlink:href="#DejaVuSans-39" x="63.623047"/>
     <use xlink:href="#DejaVuSans-35" x="127.246094"/>
    </g>
   </g>
   <g id="text_18">
    <!-- 200 -->
    <g transform="translate(1160.485714 664.484516) scale(0.2 -0.2)">
     <use xlink:href="#DejaVuSans-32"/>
     <use xlink:href="#DejaVuSans-30" x="63.623047"/>
     <use xlink:href="#DejaVuSans-30" x="127.246094"/>
    </g>
   </g>
   <g id="text_19">
    <!-- 205 -->
    <g transform="translate(1184.4 588.925161) scale(0.2 -0.2)">
     <use xlink:href="#DejaVuSans-32"/>
     <use xlink:href="#DejaVuSans-30" x="63.623047"/>
     <use xlink:href="#DejaVuSans-35" x="127.246094"/>
    </g>
   </g>
   <g id="text_20">
    <!-- 210 -->
    <g transform="translate(1208.314286 513.365806) scale(0.2 -0.2)">
     <use xlink:href="#DejaVuSans-32"/>
     <use xlink:href="#DejaVuSans-31" x="63.623047"/>
     <use xlink:href="#DejaVuSans-30" x="127.246094"/>
    </g>
   </g>
   <g id="text_21">
    <!-- 215 -->
    <g transform="translate(1228.242857 440.131355) scale(0.2 -0.2)">
     <use xlink:href="#DejaVuSans-32"/>
     <use xlink:href="#DejaVuSans-31" x="63.623047"/>
     <use xlink:href="#DejaVuSans-35" x="127.246094"/>
    </g>
   </g>
   <g id="legend_1">
    <g id="patch_7">
     <path d="M 306.51875 158.52 
L 1169.48125 158.52 
Q 1173.48125 158.52 1173.48125 154.52 
L 1173.48125 126.32 
Q 1173.48125 122.32 1169.48125 122.32 
L 306.51875 122.32 
Q 302.51875 122.32 302.51875 126.32 
L 302.51875 154.52 
Q 302.51875 158.52 306.51875 158.52 
z
" style="fill: #ffffff; opacity: 0.8; stroke: #cccccc; stroke-linejoin: miter"/>
    </g>
    <g id="line2d_37">
     <path d="M 310.51875 138.52 
L 330.51875 138.52 
L 350.51875 138.52 
" style="fill: none; stroke: #000000; stroke-width: 1.5; stroke-linecap: square"/>
    </g>
    <g id="text_22">
     <!-- $T_{se,aus}$ [°C]          $ΔT_{GK,ob}$: -->
     <g transform="translate(366.51875 145.52) scale(0.2 -0.2)">
      <defs>
       <path id="DejaVuSans-Oblique-54" d="M 378 4666 
L 4325 4666 
L 4225 4134 
L 2559 4134 
L 1759 0 
L 1125 0 
L 1925 4134 
L 275 4134 
L 378 4666 
z
" transform="scale(0.015625)"/>
       <path id="DejaVuSans-Oblique-73" d="M 3200 3397 
L 3091 2853 
Q 2863 2978 2609 3040 
Q 2356 3103 2088 3103 
Q 1634 3103 1373 2948 
Q 1113 2794 1113 2528 
Q 1113 2219 1719 2053 
Q 1766 2041 1788 2034 
L 1972 1978 
Q 2547 1819 2739 1644 
Q 2931 1469 2931 1166 
Q 2931 609 2489 259 
Q 2047 -91 1331 -91 
Q 1053 -91 747 -37 
Q 441 16 72 128 
L 184 722 
Q 500 559 806 475 
Q 1113 391 1394 391 
Q 1816 391 2080 572 
Q 2344 753 2344 1031 
Q 2344 1331 1650 1516 
L 1591 1531 
L 1394 1581 
Q 956 1697 753 1886 
Q 550 2075 550 2369 
Q 550 2928 970 3256 
Q 1391 3584 2113 3584 
Q 2397 3584 2667 3537 
Q 2938 3491 3200 3397 
z
" transform="scale(0.015625)"/>
       <path id="DejaVuSans-Oblique-65" d="M 3078 2063 
Q 3088 2113 3092 2166 
Q 3097 2219 3097 2272 
Q 3097 2653 2873 2875 
Q 2650 3097 2266 3097 
Q 1838 3097 1509 2826 
Q 1181 2556 1013 2059 
L 3078 2063 
z
M 3578 1613 
L 903 1613 
Q 884 1494 878 1425 
Q 872 1356 872 1306 
Q 872 872 1139 634 
Q 1406 397 1894 397 
Q 2269 397 2603 481 
Q 2938 566 3225 728 
L 3116 159 
Q 2806 34 2476 -28 
Q 2147 -91 1806 -91 
Q 1078 -91 686 257 
Q 294 606 294 1247 
Q 294 1794 489 2264 
Q 684 2734 1063 3103 
Q 1306 3334 1642 3459 
Q 1978 3584 2356 3584 
Q 2950 3584 3301 3228 
Q 3653 2872 3653 2272 
Q 3653 2128 3634 1964 
Q 3616 1800 3578 1613 
z
" transform="scale(0.015625)"/>
       <path id="DejaVuSans-2c" d="M 750 794 
L 1409 794 
L 1409 256 
L 897 -744 
L 494 -744 
L 750 256 
L 750 794 
z
" transform="scale(0.015625)"/>
       <path id="DejaVuSans-Oblique-61" d="M 3438 1997 
L 3047 0 
L 2472 0 
L 2578 531 
Q 2325 219 2001 64 
Q 1678 -91 1281 -91 
Q 834 -91 548 182 
Q 263 456 263 884 
Q 263 1497 752 1853 
Q 1241 2209 2100 2209 
L 2900 2209 
L 2931 2363 
Q 2938 2388 2941 2417 
Q 2944 2447 2944 2509 
Q 2944 2788 2717 2942 
Q 2491 3097 2081 3097 
Q 1800 3097 1504 3025 
Q 1209 2953 897 2809 
L 997 3341 
Q 1322 3463 1633 3523 
Q 1944 3584 2234 3584 
Q 2853 3584 3176 3315 
Q 3500 3047 3500 2534 
Q 3500 2431 3484 2292 
Q 3469 2153 3438 1997 
z
M 2816 1759 
L 2241 1759 
Q 1534 1759 1195 1570 
Q 856 1381 856 984 
Q 856 709 1029 553 
Q 1203 397 1509 397 
Q 1978 397 2328 733 
Q 2678 1069 2791 1631 
L 2816 1759 
z
" transform="scale(0.015625)"/>
       <path id="DejaVuSans-Oblique-75" d="M 428 1388 
L 838 3500 
L 1416 3500 
L 1006 1409 
Q 975 1256 961 1147 
Q 947 1038 947 966 
Q 947 700 1109 554 
Q 1272 409 1569 409 
Q 2031 409 2368 721 
Q 2706 1034 2809 1563 
L 3194 3500 
L 3769 3500 
L 3091 0 
L 2516 0 
L 2631 550 
Q 2388 244 2052 76 
Q 1716 -91 1338 -91 
Q 878 -91 622 161 
Q 366 413 366 863 
Q 366 956 381 1097 
Q 397 1238 428 1388 
z
" transform="scale(0.015625)"/>
       <path id="DejaVuSans-5b" d="M 550 4863 
L 1875 4863 
L 1875 4416 
L 1125 4416 
L 1125 -397 
L 1875 -397 
L 1875 -844 
L 550 -844 
L 550 4863 
z
" transform="scale(0.015625)"/>
       <path id="DejaVuSans-b0" d="M 1600 4347 
Q 1350 4347 1178 4173 
Q 1006 4000 1006 3750 
Q 1006 3503 1178 3333 
Q 1350 3163 1600 3163 
Q 1850 3163 2022 3333 
Q 2194 3503 2194 3750 
Q 2194 3997 2020 4172 
Q 1847 4347 1600 4347 
z
M 1600 4750 
Q 1800 4750 1984 4673 
Q 2169 4597 2303 4453 
Q 2447 4313 2519 4134 
Q 2591 3956 2591 3750 
Q 2591 3338 2302 3052 
Q 2013 2766 1594 2766 
Q 1172 2766 890 3047 
Q 609 3328 609 3750 
Q 609 4169 896 4459 
Q 1184 4750 1600 4750 
z
" transform="scale(0.015625)"/>
       <path id="DejaVuSans-43" d="M 4122 4306 
L 4122 3641 
Q 3803 3938 3442 4084 
Q 3081 4231 2675 4231 
Q 1875 4231 1450 3742 
Q 1025 3253 1025 2328 
Q 1025 1406 1450 917 
Q 1875 428 2675 428 
Q 3081 428 3442 575 
Q 3803 722 4122 1019 
L 4122 359 
Q 3791 134 3420 21 
Q 3050 -91 2638 -91 
Q 1578 -91 968 557 
Q 359 1206 359 2328 
Q 359 3453 968 4101 
Q 1578 4750 2638 4750 
Q 3056 4750 3426 4639 
Q 3797 4528 4122 4306 
z
" transform="scale(0.015625)"/>
       <path id="DejaVuSans-5d" d="M 1947 4863 
L 1947 -844 
L 622 -844 
L 622 -397 
L 1369 -397 
L 1369 4416 
L 622 4416 
L 622 4863 
L 1947 4863 
z
" transform="scale(0.015625)"/>
       <path id="DejaVuSans-394" d="M 2188 4044 
L 906 525 
L 3472 525 
L 2188 4044 
z
M 50 0 
L 1831 4666 
L 2547 4666 
L 4325 0 
L 50 0 
z
" transform="scale(0.015625)"/>
       <path id="DejaVuSans-Oblique-47" d="M 3494 697 
L 3738 1919 
L 2700 1919 
L 2797 2438 
L 4453 2438 
L 4050 384 
Q 3634 156 3143 32 
Q 2653 -91 2156 -91 
Q 1278 -91 783 396 
Q 288 884 288 1753 
Q 288 2475 589 3126 
Q 891 3778 1422 4213 
Q 1756 4484 2153 4617 
Q 2550 4750 3034 4750 
Q 3472 4750 3873 4639 
Q 4275 4528 4641 4306 
L 4513 3634 
Q 4231 3928 3853 4083 
Q 3475 4238 3047 4238 
Q 2550 4238 2172 4048 
Q 1794 3859 1497 3463 
Q 1244 3125 1098 2667 
Q 953 2209 953 1734 
Q 953 1081 1287 751 
Q 1622 422 2284 422 
Q 2616 422 2925 492 
Q 3234 563 3494 697 
z
" transform="scale(0.015625)"/>
       <path id="DejaVuSans-Oblique-4b" d="M 1081 4666 
L 1716 4666 
L 1331 2700 
L 3781 4666 
L 4622 4666 
L 1850 2438 
L 3878 0 
L 3109 0 
L 1247 2272 
L 806 0 
L 172 0 
L 1081 4666 
z
" transform="scale(0.015625)"/>
       <path id="DejaVuSans-Oblique-6f" d="M 1625 -91 
Q 1009 -91 651 289 
Q 294 669 294 1325 
Q 294 1706 417 2101 
Q 541 2497 738 2766 
Q 1047 3184 1428 3384 
Q 1809 3584 2291 3584 
Q 2888 3584 3255 3212 
Q 3622 2841 3622 2241 
Q 3622 1825 3500 1412 
Q 3378 1000 3181 728 
Q 2875 309 2494 109 
Q 2113 -91 1625 -91 
z
M 891 1344 
Q 891 869 1089 633 
Q 1288 397 1691 397 
Q 2269 397 2648 901 
Q 3028 1406 3028 2181 
Q 3028 2634 2825 2865 
Q 2622 3097 2228 3097 
Q 1903 3097 1650 2945 
Q 1397 2794 1197 2484 
Q 1050 2253 970 1956 
Q 891 1659 891 1344 
z
" transform="scale(0.015625)"/>
       <path id="DejaVuSans-Oblique-62" d="M 3169 2138 
Q 3169 2591 2961 2847 
Q 2753 3103 2388 3103 
Q 2122 3103 1889 2973 
Q 1656 2844 1484 2597 
Q 1303 2338 1198 1995 
Q 1094 1653 1094 1313 
Q 1094 881 1298 636 
Q 1503 391 1863 391 
Q 2134 391 2365 517 
Q 2597 644 2772 891 
Q 2950 1147 3059 1487 
Q 3169 1828 3169 2138 
z
M 1381 2969 
Q 1594 3256 1914 3420 
Q 2234 3584 2584 3584 
Q 3122 3584 3439 3221 
Q 3756 2859 3756 2241 
Q 3756 1734 3570 1259 
Q 3384 784 3041 416 
Q 2816 172 2522 40 
Q 2228 -91 1906 -91 
Q 1566 -91 1316 65 
Q 1066 222 909 531 
L 806 0 
L 231 0 
L 1178 4863 
L 1753 4863 
L 1381 2969 
z
" transform="scale(0.015625)"/>
       <path id="DejaVuSans-3a" d="M 750 794 
L 1409 794 
L 1409 0 
L 750 0 
L 750 794 
z
M 750 3309 
L 1409 3309 
L 1409 2516 
L 750 2516 
L 750 3309 
z
" transform="scale(0.015625)"/>
      </defs>
      <use xlink:href="#DejaVuSans-Oblique-54" transform="translate(0 0.015625)"/>
      <use xlink:href="#DejaVuSans-Oblique-73" transform="translate(61.083984 -16.390625) scale(0.7)"/>
      <use xlink:href="#DejaVuSans-Oblique-65" transform="translate(97.553711 -16.390625) scale(0.7)"/>
      <use xlink:href="#DejaVuSans-2c" transform="translate(140.620117 -16.390625) scale(0.7)"/>
      <use xlink:href="#DejaVuSans-Oblique-61" transform="translate(176.508789 -16.390625) scale(0.7)"/>
      <use xlink:href="#DejaVuSans-Oblique-75" transform="translate(219.404297 -16.390625) scale(0.7)"/>
      <use xlink:href="#DejaVuSans-Oblique-73" transform="translate(263.769531 -16.390625) scale(0.7)"/>
      <use xlink:href="#DejaVuSans-20" transform="translate(302.973633 0.015625)"/>
      <use xlink:href="#DejaVuSans-5b" transform="translate(334.760742 0.015625)"/>
      <use xlink:href="#DejaVuSans-b0" transform="translate(373.774414 0.015625)"/>
      <use xlink:href="#DejaVuSans-43" transform="translate(423.774414 0.015625)"/>
      <use xlink:href="#DejaVuSans-5d" transform="translate(493.598633 0.015625)"/>
      <use xlink:href="#DejaVuSans-20" transform="translate(532.612305 0.015625)"/>
      <use xlink:href="#DejaVuSans-20" transform="translate(564.399414 0.015625)"/>
      <use xlink:href="#DejaVuSans-20" transform="translate(596.186523 0.015625)"/>
      <use xlink:href="#DejaVuSans-20" transform="translate(627.973633 0.015625)"/>
      <use xlink:href="#DejaVuSans-20" transform="translate(659.760742 0.015625)"/>
      <use xlink:href="#DejaVuSans-20" transform="translate(691.547852 0.015625)"/>
      <use xlink:href="#DejaVuSans-20" transform="translate(723.334961 0.015625)"/>
      <use xlink:href="#DejaVuSans-20" transform="translate(755.12207 0.015625)"/>
      <use xlink:href="#DejaVuSans-20" transform="translate(786.90918 0.015625)"/>
      <use xlink:href="#DejaVuSans-20" transform="translate(818.696289 0.015625)"/>
      <use xlink:href="#DejaVuSans-394" transform="translate(850.483398 0.015625)"/>
      <use xlink:href="#DejaVuSans-Oblique-54" transform="translate(918.891602 0.015625)"/>
      <use xlink:href="#DejaVuSans-Oblique-47" transform="translate(979.975586 -16.390625) scale(0.7)"/>
      <use xlink:href="#DejaVuSans-Oblique-4b" transform="translate(1034.21875 -16.390625) scale(0.7)"/>
      <use xlink:href="#DejaVuSans-2c" transform="translate(1080.12207 -16.390625) scale(0.7)"/>
      <use xlink:href="#DejaVuSans-Oblique-6f" transform="translate(1116.010742 -16.390625) scale(0.7)"/>
      <use xlink:href="#DejaVuSans-Oblique-62" transform="translate(1158.837891 -16.390625) scale(0.7)"/>
      <use xlink:href="#DejaVuSans-3a" transform="translate(1206.005859 0.015625)"/>
     </g>
    </g>
    <g id="line2d_38">
     <path d="M 654.51875 138.52 
L 674.51875 138.52 
L 694.51875 138.52 
" style="fill: none; stroke-dasharray: 5.55,2.4; stroke-dashoffset: 0; stroke: #ff0000; stroke-width: 1.5"/>
    </g>
    <g id="text_23">
     <!-- 5 K -->
     <g transform="translate(710.51875 145.52) scale(0.2 -0.2)">
      <defs>
       <path id="DejaVuSans-4b" d="M 628 4666 
L 1259 4666 
L 1259 2694 
L 3353 4666 
L 4166 4666 
L 1850 2491 
L 4331 0 
L 3500 0 
L 1259 2247 
L 1259 0 
L 628 0 
L 628 4666 
z
" transform="scale(0.015625)"/>
      </defs>
      <use xlink:href="#DejaVuSans-35"/>
      <use xlink:href="#DejaVuSans-20" x="63.623047"/>
      <use xlink:href="#DejaVuSans-4b" x="95.410156"/>
     </g>
    </g>
    <g id="line2d_39">
     <path d="M 782.715625 138.52 
L 802.715625 138.52 
L 822.715625 138.52 
" style="fill: none; stroke-dasharray: 5.55,2.4; stroke-dashoffset: 0; stroke: #ffa500; stroke-width: 1.5"/>
    </g>
    <g id="text_24">
     <!-- 10 K -->
     <g transform="translate(838.715625 145.52) scale(0.2 -0.2)">
      <use xlink:href="#DejaVuSans-31"/>
      <use xlink:href="#DejaVuSans-30" x="63.623047"/>
      <use xlink:href="#DejaVuSans-20" x="127.246094"/>
      <use xlink:href="#DejaVuSans-4b" x="159.033203"/>
     </g>
    </g>
    <g id="line2d_40">
     <path d="M 923.6375 138.52 
L 943.6375 138.52 
L 963.6375 138.52 
" style="fill: none; stroke-dasharray: 5.55,2.4; stroke-dashoffset: 0; stroke: #008000; stroke-width: 1.5"/>
    </g>
    <g id="text_25">
     <!-- 15 K -->
     <g transform="translate(979.6375 145.52) scale(0.2 -0.2)">
      <use xlink:href="#DejaVuSans-31"/>
      <use xlink:href="#DejaVuSans-35" x="63.623047"/>
      <use xlink:href="#DejaVuSans-20" x="127.246094"/>
      <use xlink:href="#DejaVuSans-4b" x="159.033203"/>
     </g>
    </g>
    <g id="line2d_41">
     <path d="M 1064.559375 138.52 
L 1084.559375 138.52 
L 1104.559375 138.52 
" style="fill: none; stroke-dasharray: 5.55,2.4; stroke-dashoffset: 0; stroke: #4682b4; stroke-width: 1.5"/>
    </g>
    <g id="text_26">
     <!-- 20 K -->
     <g transform="translate(1120.559375 145.52) scale(0.2 -0.2)">
      <use xlink:href="#DejaVuSans-32"/>
      <use xlink:href="#DejaVuSans-30" x="63.623047"/>
      <use xlink:href="#DejaVuSans-20" x="127.246094"/>
      <use xlink:href="#DejaVuSans-4b" x="159.033203"/>
     </g>
    </g>
   </g>
  </g>
 </g>
 <defs>
  <clipPath id="p70d338e752">
   <rect x="180" y="112.32" width="1116" height="720.72"/>
  </clipPath>
 </defs>
</svg>
