<?xml version="1.0" encoding="utf-8" standalone="no"?>
<!DOCTYPE svg PUBLIC "-//W3C//DTD SVG 1.1//EN"
  "http://www.w3.org/Graphics/SVG/1.1/DTD/svg11.dtd">
<svg xmlns:xlink="http://www.w3.org/1999/xlink" width="1440pt" height="936pt" viewBox="0 0 1440 936" xmlns="http://www.w3.org/2000/svg" version="1.1">
 <metadata>
  <rdf:RDF xmlns:dc="http://purl.org/dc/elements/1.1/" xmlns:cc="http://creativecommons.org/ns#" xmlns:rdf="http://www.w3.org/1999/02/22-rdf-syntax-ns#">
   <cc:Work>
    <dc:type rdf:resource="http://purl.org/dc/dcmitype/StillImage"/>
    <dc:date>2023-08-17T12:16:17.847512</dc:date>
    <dc:format>image/svg+xml</dc:format>
    <dc:creator>
     <cc:Agent>
      <dc:title>Matplotlib v3.6.1, https://matplotlib.org/</dc:title>
     </cc:Agent>
    </dc:creator>
   </cc:Work>
  </rdf:RDF>
 </metadata>
 <defs>
  <style type="text/css">*{stroke-linejoin: round; stroke-linecap: butt}</style>
 </defs>
 <g id="figure_1">
  <g id="patch_1">
   <path d="M 0 936 
L 1440 936 
L 1440 0 
L 0 0 
z
" style="fill: #ffffff"/>
  </g>
  <g id="axes_1">
   <g id="patch_2">
    <path d="M 180 833.04 
L 1296 833.04 
L 1296 112.32 
L 180 112.32 
z
" style="fill: #ffffff"/>
   </g>
   <g id="matplotlib.axis_1">
    <g id="xtick_1">
     <g id="line2d_1">
      <path d="M 180 833.04 
L 180 112.32 
" clip-path="url(#p0088ec171c)" style="fill: none; stroke: #b0b0b0; stroke-width: 0.8; stroke-linecap: square"/>
     </g>
     <g id="line2d_2">
      <defs>
       <path id="mcf08dfd8e6" d="M 0 0 
L 0 3.5 
" style="stroke: #000000; stroke-width: 0.8"/>
      </defs>
      <g>
       <use xlink:href="#mcf08dfd8e6" x="180" y="833.04" style="stroke: #000000; stroke-width: 0.8"/>
      </g>
     </g>
     <g id="text_1">
      <!-- 37.5 -->
      <g transform="translate(157.734375 855.236875) scale(0.2 -0.2)">
       <defs>
        <path id="DejaVuSans-33" d="M 2597 2516 
Q 3050 2419 3304 2112 
Q 3559 1806 3559 1356 
Q 3559 666 3084 287 
Q 2609 -91 1734 -91 
Q 1441 -91 1130 -33 
Q 819 25 488 141 
L 488 750 
Q 750 597 1062 519 
Q 1375 441 1716 441 
Q 2309 441 2620 675 
Q 2931 909 2931 1356 
Q 2931 1769 2642 2001 
Q 2353 2234 1838 2234 
L 1294 2234 
L 1294 2753 
L 1863 2753 
Q 2328 2753 2575 2939 
Q 2822 3125 2822 3475 
Q 2822 3834 2567 4026 
Q 2313 4219 1838 4219 
Q 1578 4219 1281 4162 
Q 984 4106 628 3988 
L 628 4550 
Q 988 4650 1302 4700 
Q 1616 4750 1894 4750 
Q 2613 4750 3031 4423 
Q 3450 4097 3450 3541 
Q 3450 3153 3228 2886 
Q 3006 2619 2597 2516 
z
" transform="scale(0.015625)"/>
        <path id="DejaVuSans-37" d="M 525 4666 
L 3525 4666 
L 3525 4397 
L 1831 0 
L 1172 0 
L 2766 4134 
L 525 4134 
L 525 4666 
z
" transform="scale(0.015625)"/>
        <path id="DejaVuSans-2e" d="M 684 794 
L 1344 794 
L 1344 0 
L 684 0 
L 684 794 
z
" transform="scale(0.015625)"/>
        <path id="DejaVuSans-35" d="M 691 4666 
L 3169 4666 
L 3169 4134 
L 1269 4134 
L 1269 2991 
Q 1406 3038 1543 3061 
Q 1681 3084 1819 3084 
Q 2600 3084 3056 2656 
Q 3513 2228 3513 1497 
Q 3513 744 3044 326 
Q 2575 -91 1722 -91 
Q 1428 -91 1123 -41 
Q 819 9 494 109 
L 494 744 
Q 775 591 1075 516 
Q 1375 441 1709 441 
Q 2250 441 2565 725 
Q 2881 1009 2881 1497 
Q 2881 1984 2565 2268 
Q 2250 2553 1709 2553 
Q 1456 2553 1204 2497 
Q 953 2441 691 2322 
L 691 4666 
z
" transform="scale(0.015625)"/>
       </defs>
       <use xlink:href="#DejaVuSans-33"/>
       <use xlink:href="#DejaVuSans-37" x="63.623047"/>
       <use xlink:href="#DejaVuSans-2e" x="127.246094"/>
       <use xlink:href="#DejaVuSans-35" x="159.033203"/>
      </g>
     </g>
    </g>
    <g id="xtick_2">
     <g id="line2d_3">
      <path d="M 309.767442 833.04 
L 309.767442 112.32 
" clip-path="url(#p0088ec171c)" style="fill: none; stroke: #b0b0b0; stroke-width: 0.8; stroke-linecap: square"/>
     </g>
     <g id="line2d_4">
      <g>
       <use xlink:href="#mcf08dfd8e6" x="309.767442" y="833.04" style="stroke: #000000; stroke-width: 0.8"/>
      </g>
     </g>
     <g id="text_2">
      <!-- 40.0 -->
      <g transform="translate(287.501817 855.236875) scale(0.2 -0.2)">
       <defs>
        <path id="DejaVuSans-34" d="M 2419 4116 
L 825 1625 
L 2419 1625 
L 2419 4116 
z
M 2253 4666 
L 3047 4666 
L 3047 1625 
L 3713 1625 
L 3713 1100 
L 3047 1100 
L 3047 0 
L 2419 0 
L 2419 1100 
L 313 1100 
L 313 1709 
L 2253 4666 
z
" transform="scale(0.015625)"/>
        <path id="DejaVuSans-30" d="M 2034 4250 
Q 1547 4250 1301 3770 
Q 1056 3291 1056 2328 
Q 1056 1369 1301 889 
Q 1547 409 2034 409 
Q 2525 409 2770 889 
Q 3016 1369 3016 2328 
Q 3016 3291 2770 3770 
Q 2525 4250 2034 4250 
z
M 2034 4750 
Q 2819 4750 3233 4129 
Q 3647 3509 3647 2328 
Q 3647 1150 3233 529 
Q 2819 -91 2034 -91 
Q 1250 -91 836 529 
Q 422 1150 422 2328 
Q 422 3509 836 4129 
Q 1250 4750 2034 4750 
z
" transform="scale(0.015625)"/>
       </defs>
       <use xlink:href="#DejaVuSans-34"/>
       <use xlink:href="#DejaVuSans-30" x="63.623047"/>
       <use xlink:href="#DejaVuSans-2e" x="127.246094"/>
       <use xlink:href="#DejaVuSans-30" x="159.033203"/>
      </g>
     </g>
    </g>
    <g id="xtick_3">
     <g id="line2d_5">
      <path d="M 439.534884 833.04 
L 439.534884 112.32 
" clip-path="url(#p0088ec171c)" style="fill: none; stroke: #b0b0b0; stroke-width: 0.8; stroke-linecap: square"/>
     </g>
     <g id="line2d_6">
      <g>
       <use xlink:href="#mcf08dfd8e6" x="439.534884" y="833.04" style="stroke: #000000; stroke-width: 0.8"/>
      </g>
     </g>
     <g id="text_3">
      <!-- 42.5 -->
      <g transform="translate(417.269259 855.236875) scale(0.2 -0.2)">
       <defs>
        <path id="DejaVuSans-32" d="M 1228 531 
L 3431 531 
L 3431 0 
L 469 0 
L 469 531 
Q 828 903 1448 1529 
Q 2069 2156 2228 2338 
Q 2531 2678 2651 2914 
Q 2772 3150 2772 3378 
Q 2772 3750 2511 3984 
Q 2250 4219 1831 4219 
Q 1534 4219 1204 4116 
Q 875 4013 500 3803 
L 500 4441 
Q 881 4594 1212 4672 
Q 1544 4750 1819 4750 
Q 2544 4750 2975 4387 
Q 3406 4025 3406 3419 
Q 3406 3131 3298 2873 
Q 3191 2616 2906 2266 
Q 2828 2175 2409 1742 
Q 1991 1309 1228 531 
z
" transform="scale(0.015625)"/>
       </defs>
       <use xlink:href="#DejaVuSans-34"/>
       <use xlink:href="#DejaVuSans-32" x="63.623047"/>
       <use xlink:href="#DejaVuSans-2e" x="127.246094"/>
       <use xlink:href="#DejaVuSans-35" x="159.033203"/>
      </g>
     </g>
    </g>
    <g id="xtick_4">
     <g id="line2d_7">
      <path d="M 569.302326 833.04 
L 569.302326 112.32 
" clip-path="url(#p0088ec171c)" style="fill: none; stroke: #b0b0b0; stroke-width: 0.8; stroke-linecap: square"/>
     </g>
     <g id="line2d_8">
      <g>
       <use xlink:href="#mcf08dfd8e6" x="569.302326" y="833.04" style="stroke: #000000; stroke-width: 0.8"/>
      </g>
     </g>
     <g id="text_4">
      <!-- 45.0 -->
      <g transform="translate(547.036701 855.236875) scale(0.2 -0.2)">
       <use xlink:href="#DejaVuSans-34"/>
       <use xlink:href="#DejaVuSans-35" x="63.623047"/>
       <use xlink:href="#DejaVuSans-2e" x="127.246094"/>
       <use xlink:href="#DejaVuSans-30" x="159.033203"/>
      </g>
     </g>
    </g>
    <g id="xtick_5">
     <g id="line2d_9">
      <path d="M 699.069767 833.04 
L 699.069767 112.32 
" clip-path="url(#p0088ec171c)" style="fill: none; stroke: #b0b0b0; stroke-width: 0.8; stroke-linecap: square"/>
     </g>
     <g id="line2d_10">
      <g>
       <use xlink:href="#mcf08dfd8e6" x="699.069767" y="833.04" style="stroke: #000000; stroke-width: 0.8"/>
      </g>
     </g>
     <g id="text_5">
      <!-- 47.5 -->
      <g transform="translate(676.804142 855.236875) scale(0.2 -0.2)">
       <use xlink:href="#DejaVuSans-34"/>
       <use xlink:href="#DejaVuSans-37" x="63.623047"/>
       <use xlink:href="#DejaVuSans-2e" x="127.246094"/>
       <use xlink:href="#DejaVuSans-35" x="159.033203"/>
      </g>
     </g>
    </g>
    <g id="xtick_6">
     <g id="line2d_11">
      <path d="M 828.837209 833.04 
L 828.837209 112.32 
" clip-path="url(#p0088ec171c)" style="fill: none; stroke: #b0b0b0; stroke-width: 0.8; stroke-linecap: square"/>
     </g>
     <g id="line2d_12">
      <g>
       <use xlink:href="#mcf08dfd8e6" x="828.837209" y="833.04" style="stroke: #000000; stroke-width: 0.8"/>
      </g>
     </g>
     <g id="text_6">
      <!-- 50.0 -->
      <g transform="translate(806.571584 855.236875) scale(0.2 -0.2)">
       <use xlink:href="#DejaVuSans-35"/>
       <use xlink:href="#DejaVuSans-30" x="63.623047"/>
       <use xlink:href="#DejaVuSans-2e" x="127.246094"/>
       <use xlink:href="#DejaVuSans-30" x="159.033203"/>
      </g>
     </g>
    </g>
    <g id="xtick_7">
     <g id="line2d_13">
      <path d="M 958.604651 833.04 
L 958.604651 112.32 
" clip-path="url(#p0088ec171c)" style="fill: none; stroke: #b0b0b0; stroke-width: 0.8; stroke-linecap: square"/>
     </g>
     <g id="line2d_14">
      <g>
       <use xlink:href="#mcf08dfd8e6" x="958.604651" y="833.04" style="stroke: #000000; stroke-width: 0.8"/>
      </g>
     </g>
     <g id="text_7">
      <!-- 52.5 -->
      <g transform="translate(936.339026 855.236875) scale(0.2 -0.2)">
       <use xlink:href="#DejaVuSans-35"/>
       <use xlink:href="#DejaVuSans-32" x="63.623047"/>
       <use xlink:href="#DejaVuSans-2e" x="127.246094"/>
       <use xlink:href="#DejaVuSans-35" x="159.033203"/>
      </g>
     </g>
    </g>
    <g id="xtick_8">
     <g id="line2d_15">
      <path d="M 1088.372093 833.04 
L 1088.372093 112.32 
" clip-path="url(#p0088ec171c)" style="fill: none; stroke: #b0b0b0; stroke-width: 0.8; stroke-linecap: square"/>
     </g>
     <g id="line2d_16">
      <g>
       <use xlink:href="#mcf08dfd8e6" x="1088.372093" y="833.04" style="stroke: #000000; stroke-width: 0.8"/>
      </g>
     </g>
     <g id="text_8">
      <!-- 55.0 -->
      <g transform="translate(1066.106468 855.236875) scale(0.2 -0.2)">
       <use xlink:href="#DejaVuSans-35"/>
       <use xlink:href="#DejaVuSans-35" x="63.623047"/>
       <use xlink:href="#DejaVuSans-2e" x="127.246094"/>
       <use xlink:href="#DejaVuSans-30" x="159.033203"/>
      </g>
     </g>
    </g>
    <g id="xtick_9">
     <g id="line2d_17">
      <path d="M 1218.139535 833.04 
L 1218.139535 112.32 
" clip-path="url(#p0088ec171c)" style="fill: none; stroke: #b0b0b0; stroke-width: 0.8; stroke-linecap: square"/>
     </g>
     <g id="line2d_18">
      <g>
       <use xlink:href="#mcf08dfd8e6" x="1218.139535" y="833.04" style="stroke: #000000; stroke-width: 0.8"/>
      </g>
     </g>
     <g id="text_9">
      <!-- 57.5 -->
      <g transform="translate(1195.87391 855.236875) scale(0.2 -0.2)">
       <use xlink:href="#DejaVuSans-35"/>
       <use xlink:href="#DejaVuSans-37" x="63.623047"/>
       <use xlink:href="#DejaVuSans-2e" x="127.246094"/>
       <use xlink:href="#DejaVuSans-35" x="159.033203"/>
      </g>
     </g>
    </g>
    <g id="text_10">
     <!-- Gaskühlerdruck [bar] -->
     <g transform="translate(632.239063 878.593125) scale(0.2 -0.2)">
      <defs>
       <path id="DejaVuSans-47" d="M 3809 666 
L 3809 1919 
L 2778 1919 
L 2778 2438 
L 4434 2438 
L 4434 434 
Q 4069 175 3628 42 
Q 3188 -91 2688 -91 
Q 1594 -91 976 548 
Q 359 1188 359 2328 
Q 359 3472 976 4111 
Q 1594 4750 2688 4750 
Q 3144 4750 3555 4637 
Q 3966 4525 4313 4306 
L 4313 3634 
Q 3963 3931 3569 4081 
Q 3175 4231 2741 4231 
Q 1884 4231 1454 3753 
Q 1025 3275 1025 2328 
Q 1025 1384 1454 906 
Q 1884 428 2741 428 
Q 3075 428 3337 486 
Q 3600 544 3809 666 
z
" transform="scale(0.015625)"/>
       <path id="DejaVuSans-61" d="M 2194 1759 
Q 1497 1759 1228 1600 
Q 959 1441 959 1056 
Q 959 750 1161 570 
Q 1363 391 1709 391 
Q 2188 391 2477 730 
Q 2766 1069 2766 1631 
L 2766 1759 
L 2194 1759 
z
M 3341 1997 
L 3341 0 
L 2766 0 
L 2766 531 
Q 2569 213 2275 61 
Q 1981 -91 1556 -91 
Q 1019 -91 701 211 
Q 384 513 384 1019 
Q 384 1609 779 1909 
Q 1175 2209 1959 2209 
L 2766 2209 
L 2766 2266 
Q 2766 2663 2505 2880 
Q 2244 3097 1772 3097 
Q 1472 3097 1187 3025 
Q 903 2953 641 2809 
L 641 3341 
Q 956 3463 1253 3523 
Q 1550 3584 1831 3584 
Q 2591 3584 2966 3190 
Q 3341 2797 3341 1997 
z
" transform="scale(0.015625)"/>
       <path id="DejaVuSans-73" d="M 2834 3397 
L 2834 2853 
Q 2591 2978 2328 3040 
Q 2066 3103 1784 3103 
Q 1356 3103 1142 2972 
Q 928 2841 928 2578 
Q 928 2378 1081 2264 
Q 1234 2150 1697 2047 
L 1894 2003 
Q 2506 1872 2764 1633 
Q 3022 1394 3022 966 
Q 3022 478 2636 193 
Q 2250 -91 1575 -91 
Q 1294 -91 989 -36 
Q 684 19 347 128 
L 347 722 
Q 666 556 975 473 
Q 1284 391 1588 391 
Q 1994 391 2212 530 
Q 2431 669 2431 922 
Q 2431 1156 2273 1281 
Q 2116 1406 1581 1522 
L 1381 1569 
Q 847 1681 609 1914 
Q 372 2147 372 2553 
Q 372 3047 722 3315 
Q 1072 3584 1716 3584 
Q 2034 3584 2315 3537 
Q 2597 3491 2834 3397 
z
" transform="scale(0.015625)"/>
       <path id="DejaVuSans-6b" d="M 581 4863 
L 1159 4863 
L 1159 1991 
L 2875 3500 
L 3609 3500 
L 1753 1863 
L 3688 0 
L 2938 0 
L 1159 1709 
L 1159 0 
L 581 0 
L 581 4863 
z
" transform="scale(0.015625)"/>
       <path id="DejaVuSans-fc" d="M 544 1381 
L 544 3500 
L 1119 3500 
L 1119 1403 
Q 1119 906 1312 657 
Q 1506 409 1894 409 
Q 2359 409 2629 706 
Q 2900 1003 2900 1516 
L 2900 3500 
L 3475 3500 
L 3475 0 
L 2900 0 
L 2900 538 
Q 2691 219 2414 64 
Q 2138 -91 1772 -91 
Q 1169 -91 856 284 
Q 544 659 544 1381 
z
M 1991 3584 
L 1991 3584 
z
M 2278 4850 
L 2912 4850 
L 2912 4219 
L 2278 4219 
L 2278 4850 
z
M 1056 4850 
L 1690 4850 
L 1690 4219 
L 1056 4219 
L 1056 4850 
z
" transform="scale(0.015625)"/>
       <path id="DejaVuSans-68" d="M 3513 2113 
L 3513 0 
L 2938 0 
L 2938 2094 
Q 2938 2591 2744 2837 
Q 2550 3084 2163 3084 
Q 1697 3084 1428 2787 
Q 1159 2491 1159 1978 
L 1159 0 
L 581 0 
L 581 4863 
L 1159 4863 
L 1159 2956 
Q 1366 3272 1645 3428 
Q 1925 3584 2291 3584 
Q 2894 3584 3203 3211 
Q 3513 2838 3513 2113 
z
" transform="scale(0.015625)"/>
       <path id="DejaVuSans-6c" d="M 603 4863 
L 1178 4863 
L 1178 0 
L 603 0 
L 603 4863 
z
" transform="scale(0.015625)"/>
       <path id="DejaVuSans-65" d="M 3597 1894 
L 3597 1613 
L 953 1613 
Q 991 1019 1311 708 
Q 1631 397 2203 397 
Q 2534 397 2845 478 
Q 3156 559 3463 722 
L 3463 178 
Q 3153 47 2828 -22 
Q 2503 -91 2169 -91 
Q 1331 -91 842 396 
Q 353 884 353 1716 
Q 353 2575 817 3079 
Q 1281 3584 2069 3584 
Q 2775 3584 3186 3129 
Q 3597 2675 3597 1894 
z
M 3022 2063 
Q 3016 2534 2758 2815 
Q 2500 3097 2075 3097 
Q 1594 3097 1305 2825 
Q 1016 2553 972 2059 
L 3022 2063 
z
" transform="scale(0.015625)"/>
       <path id="DejaVuSans-72" d="M 2631 2963 
Q 2534 3019 2420 3045 
Q 2306 3072 2169 3072 
Q 1681 3072 1420 2755 
Q 1159 2438 1159 1844 
L 1159 0 
L 581 0 
L 581 3500 
L 1159 3500 
L 1159 2956 
Q 1341 3275 1631 3429 
Q 1922 3584 2338 3584 
Q 2397 3584 2469 3576 
Q 2541 3569 2628 3553 
L 2631 2963 
z
" transform="scale(0.015625)"/>
       <path id="DejaVuSans-64" d="M 2906 2969 
L 2906 4863 
L 3481 4863 
L 3481 0 
L 2906 0 
L 2906 525 
Q 2725 213 2448 61 
Q 2172 -91 1784 -91 
Q 1150 -91 751 415 
Q 353 922 353 1747 
Q 353 2572 751 3078 
Q 1150 3584 1784 3584 
Q 2172 3584 2448 3432 
Q 2725 3281 2906 2969 
z
M 947 1747 
Q 947 1113 1208 752 
Q 1469 391 1925 391 
Q 2381 391 2643 752 
Q 2906 1113 2906 1747 
Q 2906 2381 2643 2742 
Q 2381 3103 1925 3103 
Q 1469 3103 1208 2742 
Q 947 2381 947 1747 
z
" transform="scale(0.015625)"/>
       <path id="DejaVuSans-75" d="M 544 1381 
L 544 3500 
L 1119 3500 
L 1119 1403 
Q 1119 906 1312 657 
Q 1506 409 1894 409 
Q 2359 409 2629 706 
Q 2900 1003 2900 1516 
L 2900 3500 
L 3475 3500 
L 3475 0 
L 2900 0 
L 2900 538 
Q 2691 219 2414 64 
Q 2138 -91 1772 -91 
Q 1169 -91 856 284 
Q 544 659 544 1381 
z
M 1991 3584 
L 1991 3584 
z
" transform="scale(0.015625)"/>
       <path id="DejaVuSans-63" d="M 3122 3366 
L 3122 2828 
Q 2878 2963 2633 3030 
Q 2388 3097 2138 3097 
Q 1578 3097 1268 2742 
Q 959 2388 959 1747 
Q 959 1106 1268 751 
Q 1578 397 2138 397 
Q 2388 397 2633 464 
Q 2878 531 3122 666 
L 3122 134 
Q 2881 22 2623 -34 
Q 2366 -91 2075 -91 
Q 1284 -91 818 406 
Q 353 903 353 1747 
Q 353 2603 823 3093 
Q 1294 3584 2113 3584 
Q 2378 3584 2631 3529 
Q 2884 3475 3122 3366 
z
" transform="scale(0.015625)"/>
       <path id="DejaVuSans-20" transform="scale(0.015625)"/>
       <path id="DejaVuSans-5b" d="M 550 4863 
L 1875 4863 
L 1875 4416 
L 1125 4416 
L 1125 -397 
L 1875 -397 
L 1875 -844 
L 550 -844 
L 550 4863 
z
" transform="scale(0.015625)"/>
       <path id="DejaVuSans-62" d="M 3116 1747 
Q 3116 2381 2855 2742 
Q 2594 3103 2138 3103 
Q 1681 3103 1420 2742 
Q 1159 2381 1159 1747 
Q 1159 1113 1420 752 
Q 1681 391 2138 391 
Q 2594 391 2855 752 
Q 3116 1113 3116 1747 
z
M 1159 2969 
Q 1341 3281 1617 3432 
Q 1894 3584 2278 3584 
Q 2916 3584 3314 3078 
Q 3713 2572 3713 1747 
Q 3713 922 3314 415 
Q 2916 -91 2278 -91 
Q 1894 -91 1617 61 
Q 1341 213 1159 525 
L 1159 0 
L 581 0 
L 581 4863 
L 1159 4863 
L 1159 2969 
z
" transform="scale(0.015625)"/>
       <path id="DejaVuSans-5d" d="M 1947 4863 
L 1947 -844 
L 622 -844 
L 622 -397 
L 1369 -397 
L 1369 4416 
L 622 4416 
L 622 4863 
L 1947 4863 
z
" transform="scale(0.015625)"/>
      </defs>
      <use xlink:href="#DejaVuSans-47"/>
      <use xlink:href="#DejaVuSans-61" x="77.490234"/>
      <use xlink:href="#DejaVuSans-73" x="138.769531"/>
      <use xlink:href="#DejaVuSans-6b" x="190.869141"/>
      <use xlink:href="#DejaVuSans-fc" x="245.654297"/>
      <use xlink:href="#DejaVuSans-68" x="309.033203"/>
      <use xlink:href="#DejaVuSans-6c" x="372.412109"/>
      <use xlink:href="#DejaVuSans-65" x="400.195312"/>
      <use xlink:href="#DejaVuSans-72" x="461.71875"/>
      <use xlink:href="#DejaVuSans-64" x="501.082031"/>
      <use xlink:href="#DejaVuSans-72" x="564.558594"/>
      <use xlink:href="#DejaVuSans-75" x="605.671875"/>
      <use xlink:href="#DejaVuSans-63" x="669.050781"/>
      <use xlink:href="#DejaVuSans-6b" x="724.03125"/>
      <use xlink:href="#DejaVuSans-20" x="781.941406"/>
      <use xlink:href="#DejaVuSans-5b" x="813.728516"/>
      <use xlink:href="#DejaVuSans-62" x="852.742188"/>
      <use xlink:href="#DejaVuSans-61" x="916.21875"/>
      <use xlink:href="#DejaVuSans-72" x="977.498047"/>
      <use xlink:href="#DejaVuSans-5d" x="1018.611328"/>
     </g>
    </g>
   </g>
   <g id="matplotlib.axis_2">
    <g id="ytick_1">
     <g id="line2d_19">
      <path d="M 180 777.6 
L 1296 777.6 
" clip-path="url(#p0088ec171c)" style="fill: none; stroke: #b0b0b0; stroke-width: 0.8; stroke-linecap: square"/>
     </g>
     <g id="line2d_20">
      <defs>
       <path id="m15539a216a" d="M 0 0 
L -3.5 0 
" style="stroke: #000000; stroke-width: 0.8"/>
      </defs>
      <g>
       <use xlink:href="#m15539a216a" x="180" y="777.6" style="stroke: #000000; stroke-width: 0.8"/>
      </g>
     </g>
     <g id="text_11">
      <!-- 60 -->
      <g transform="translate(147.55 785.198437) scale(0.2 -0.2)">
       <defs>
        <path id="DejaVuSans-36" d="M 2113 2584 
Q 1688 2584 1439 2293 
Q 1191 2003 1191 1497 
Q 1191 994 1439 701 
Q 1688 409 2113 409 
Q 2538 409 2786 701 
Q 3034 994 3034 1497 
Q 3034 2003 2786 2293 
Q 2538 2584 2113 2584 
z
M 3366 4563 
L 3366 3988 
Q 3128 4100 2886 4159 
Q 2644 4219 2406 4219 
Q 1781 4219 1451 3797 
Q 1122 3375 1075 2522 
Q 1259 2794 1537 2939 
Q 1816 3084 2150 3084 
Q 2853 3084 3261 2657 
Q 3669 2231 3669 1497 
Q 3669 778 3244 343 
Q 2819 -91 2113 -91 
Q 1303 -91 875 529 
Q 447 1150 447 2328 
Q 447 3434 972 4092 
Q 1497 4750 2381 4750 
Q 2619 4750 2861 4703 
Q 3103 4656 3366 4563 
z
" transform="scale(0.015625)"/>
       </defs>
       <use xlink:href="#DejaVuSans-36"/>
       <use xlink:href="#DejaVuSans-30" x="63.623047"/>
      </g>
     </g>
    </g>
    <g id="ytick_2">
     <g id="line2d_21">
      <path d="M 180 666.72 
L 1296 666.72 
" clip-path="url(#p0088ec171c)" style="fill: none; stroke: #b0b0b0; stroke-width: 0.8; stroke-linecap: square"/>
     </g>
     <g id="line2d_22">
      <g>
       <use xlink:href="#m15539a216a" x="180" y="666.72" style="stroke: #000000; stroke-width: 0.8"/>
      </g>
     </g>
     <g id="text_12">
      <!-- 62 -->
      <g transform="translate(147.55 674.318437) scale(0.2 -0.2)">
       <use xlink:href="#DejaVuSans-36"/>
       <use xlink:href="#DejaVuSans-32" x="63.623047"/>
      </g>
     </g>
    </g>
    <g id="ytick_3">
     <g id="line2d_23">
      <path d="M 180 555.84 
L 1296 555.84 
" clip-path="url(#p0088ec171c)" style="fill: none; stroke: #b0b0b0; stroke-width: 0.8; stroke-linecap: square"/>
     </g>
     <g id="line2d_24">
      <g>
       <use xlink:href="#m15539a216a" x="180" y="555.84" style="stroke: #000000; stroke-width: 0.8"/>
      </g>
     </g>
     <g id="text_13">
      <!-- 64 -->
      <g transform="translate(147.55 563.438437) scale(0.2 -0.2)">
       <use xlink:href="#DejaVuSans-36"/>
       <use xlink:href="#DejaVuSans-34" x="63.623047"/>
      </g>
     </g>
    </g>
    <g id="ytick_4">
     <g id="line2d_25">
      <path d="M 180 444.96 
L 1296 444.96 
" clip-path="url(#p0088ec171c)" style="fill: none; stroke: #b0b0b0; stroke-width: 0.8; stroke-linecap: square"/>
     </g>
     <g id="line2d_26">
      <g>
       <use xlink:href="#m15539a216a" x="180" y="444.96" style="stroke: #000000; stroke-width: 0.8"/>
      </g>
     </g>
     <g id="text_14">
      <!-- 66 -->
      <g transform="translate(147.55 452.558437) scale(0.2 -0.2)">
       <use xlink:href="#DejaVuSans-36"/>
       <use xlink:href="#DejaVuSans-36" x="63.623047"/>
      </g>
     </g>
    </g>
    <g id="ytick_5">
     <g id="line2d_27">
      <path d="M 180 334.08 
L 1296 334.08 
" clip-path="url(#p0088ec171c)" style="fill: none; stroke: #b0b0b0; stroke-width: 0.8; stroke-linecap: square"/>
     </g>
     <g id="line2d_28">
      <g>
       <use xlink:href="#m15539a216a" x="180" y="334.08" style="stroke: #000000; stroke-width: 0.8"/>
      </g>
     </g>
     <g id="text_15">
      <!-- 68 -->
      <g transform="translate(147.55 341.678437) scale(0.2 -0.2)">
       <defs>
        <path id="DejaVuSans-38" d="M 2034 2216 
Q 1584 2216 1326 1975 
Q 1069 1734 1069 1313 
Q 1069 891 1326 650 
Q 1584 409 2034 409 
Q 2484 409 2743 651 
Q 3003 894 3003 1313 
Q 3003 1734 2745 1975 
Q 2488 2216 2034 2216 
z
M 1403 2484 
Q 997 2584 770 2862 
Q 544 3141 544 3541 
Q 544 4100 942 4425 
Q 1341 4750 2034 4750 
Q 2731 4750 3128 4425 
Q 3525 4100 3525 3541 
Q 3525 3141 3298 2862 
Q 3072 2584 2669 2484 
Q 3125 2378 3379 2068 
Q 3634 1759 3634 1313 
Q 3634 634 3220 271 
Q 2806 -91 2034 -91 
Q 1263 -91 848 271 
Q 434 634 434 1313 
Q 434 1759 690 2068 
Q 947 2378 1403 2484 
z
M 1172 3481 
Q 1172 3119 1398 2916 
Q 1625 2713 2034 2713 
Q 2441 2713 2670 2916 
Q 2900 3119 2900 3481 
Q 2900 3844 2670 4047 
Q 2441 4250 2034 4250 
Q 1625 4250 1398 4047 
Q 1172 3844 1172 3481 
z
" transform="scale(0.015625)"/>
       </defs>
       <use xlink:href="#DejaVuSans-36"/>
       <use xlink:href="#DejaVuSans-38" x="63.623047"/>
      </g>
     </g>
    </g>
    <g id="ytick_6">
     <g id="line2d_29">
      <path d="M 180 223.2 
L 1296 223.2 
" clip-path="url(#p0088ec171c)" style="fill: none; stroke: #b0b0b0; stroke-width: 0.8; stroke-linecap: square"/>
     </g>
     <g id="line2d_30">
      <g>
       <use xlink:href="#m15539a216a" x="180" y="223.2" style="stroke: #000000; stroke-width: 0.8"/>
      </g>
     </g>
     <g id="text_16">
      <!-- 70 -->
      <g transform="translate(147.55 230.798437) scale(0.2 -0.2)">
       <use xlink:href="#DejaVuSans-37"/>
       <use xlink:href="#DejaVuSans-30" x="63.623047"/>
      </g>
     </g>
    </g>
    <g id="ytick_7">
     <g id="line2d_31">
      <path d="M 180 112.32 
L 1296 112.32 
" clip-path="url(#p0088ec171c)" style="fill: none; stroke: #b0b0b0; stroke-width: 0.8; stroke-linecap: square"/>
     </g>
     <g id="line2d_32">
      <g>
       <use xlink:href="#m15539a216a" x="180" y="112.32" style="stroke: #000000; stroke-width: 0.8"/>
      </g>
     </g>
     <g id="text_17">
      <!-- 72 -->
      <g transform="translate(147.55 119.918437) scale(0.2 -0.2)">
       <use xlink:href="#DejaVuSans-37"/>
       <use xlink:href="#DejaVuSans-32" x="63.623047"/>
      </g>
     </g>
    </g>
    <g id="text_18">
     <!-- exergetischer Wirkungsgrad [%] -->
     <g transform="translate(139.390625 633.722188) rotate(-90) scale(0.2 -0.2)">
      <defs>
       <path id="DejaVuSans-78" d="M 3513 3500 
L 2247 1797 
L 3578 0 
L 2900 0 
L 1881 1375 
L 863 0 
L 184 0 
L 1544 1831 
L 300 3500 
L 978 3500 
L 1906 2253 
L 2834 3500 
L 3513 3500 
z
" transform="scale(0.015625)"/>
       <path id="DejaVuSans-67" d="M 2906 1791 
Q 2906 2416 2648 2759 
Q 2391 3103 1925 3103 
Q 1463 3103 1205 2759 
Q 947 2416 947 1791 
Q 947 1169 1205 825 
Q 1463 481 1925 481 
Q 2391 481 2648 825 
Q 2906 1169 2906 1791 
z
M 3481 434 
Q 3481 -459 3084 -895 
Q 2688 -1331 1869 -1331 
Q 1566 -1331 1297 -1286 
Q 1028 -1241 775 -1147 
L 775 -588 
Q 1028 -725 1275 -790 
Q 1522 -856 1778 -856 
Q 2344 -856 2625 -561 
Q 2906 -266 2906 331 
L 2906 616 
Q 2728 306 2450 153 
Q 2172 0 1784 0 
Q 1141 0 747 490 
Q 353 981 353 1791 
Q 353 2603 747 3093 
Q 1141 3584 1784 3584 
Q 2172 3584 2450 3431 
Q 2728 3278 2906 2969 
L 2906 3500 
L 3481 3500 
L 3481 434 
z
" transform="scale(0.015625)"/>
       <path id="DejaVuSans-74" d="M 1172 4494 
L 1172 3500 
L 2356 3500 
L 2356 3053 
L 1172 3053 
L 1172 1153 
Q 1172 725 1289 603 
Q 1406 481 1766 481 
L 2356 481 
L 2356 0 
L 1766 0 
Q 1100 0 847 248 
Q 594 497 594 1153 
L 594 3053 
L 172 3053 
L 172 3500 
L 594 3500 
L 594 4494 
L 1172 4494 
z
" transform="scale(0.015625)"/>
       <path id="DejaVuSans-69" d="M 603 3500 
L 1178 3500 
L 1178 0 
L 603 0 
L 603 3500 
z
M 603 4863 
L 1178 4863 
L 1178 4134 
L 603 4134 
L 603 4863 
z
" transform="scale(0.015625)"/>
       <path id="DejaVuSans-57" d="M 213 4666 
L 850 4666 
L 1831 722 
L 2809 4666 
L 3519 4666 
L 4500 722 
L 5478 4666 
L 6119 4666 
L 4947 0 
L 4153 0 
L 3169 4050 
L 2175 0 
L 1381 0 
L 213 4666 
z
" transform="scale(0.015625)"/>
       <path id="DejaVuSans-6e" d="M 3513 2113 
L 3513 0 
L 2938 0 
L 2938 2094 
Q 2938 2591 2744 2837 
Q 2550 3084 2163 3084 
Q 1697 3084 1428 2787 
Q 1159 2491 1159 1978 
L 1159 0 
L 581 0 
L 581 3500 
L 1159 3500 
L 1159 2956 
Q 1366 3272 1645 3428 
Q 1925 3584 2291 3584 
Q 2894 3584 3203 3211 
Q 3513 2838 3513 2113 
z
" transform="scale(0.015625)"/>
       <path id="DejaVuSans-25" d="M 4653 2053 
Q 4381 2053 4226 1822 
Q 4072 1591 4072 1178 
Q 4072 772 4226 539 
Q 4381 306 4653 306 
Q 4919 306 5073 539 
Q 5228 772 5228 1178 
Q 5228 1588 5073 1820 
Q 4919 2053 4653 2053 
z
M 4653 2450 
Q 5147 2450 5437 2106 
Q 5728 1763 5728 1178 
Q 5728 594 5436 251 
Q 5144 -91 4653 -91 
Q 4153 -91 3862 251 
Q 3572 594 3572 1178 
Q 3572 1766 3864 2108 
Q 4156 2450 4653 2450 
z
M 1428 4353 
Q 1159 4353 1004 4120 
Q 850 3888 850 3481 
Q 850 3069 1003 2837 
Q 1156 2606 1428 2606 
Q 1700 2606 1854 2837 
Q 2009 3069 2009 3481 
Q 2009 3884 1853 4118 
Q 1697 4353 1428 4353 
z
M 4250 4750 
L 4750 4750 
L 1831 -91 
L 1331 -91 
L 4250 4750 
z
M 1428 4750 
Q 1922 4750 2215 4408 
Q 2509 4066 2509 3481 
Q 2509 2891 2217 2550 
Q 1925 2209 1428 2209 
Q 931 2209 642 2551 
Q 353 2894 353 3481 
Q 353 4063 643 4406 
Q 934 4750 1428 4750 
z
" transform="scale(0.015625)"/>
      </defs>
      <use xlink:href="#DejaVuSans-65"/>
      <use xlink:href="#DejaVuSans-78" x="59.773438"/>
      <use xlink:href="#DejaVuSans-65" x="115.828125"/>
      <use xlink:href="#DejaVuSans-72" x="177.351562"/>
      <use xlink:href="#DejaVuSans-67" x="216.714844"/>
      <use xlink:href="#DejaVuSans-65" x="280.191406"/>
      <use xlink:href="#DejaVuSans-74" x="341.714844"/>
      <use xlink:href="#DejaVuSans-69" x="380.923828"/>
      <use xlink:href="#DejaVuSans-73" x="408.707031"/>
      <use xlink:href="#DejaVuSans-63" x="460.806641"/>
      <use xlink:href="#DejaVuSans-68" x="515.787109"/>
      <use xlink:href="#DejaVuSans-65" x="579.166016"/>
      <use xlink:href="#DejaVuSans-72" x="640.689453"/>
      <use xlink:href="#DejaVuSans-20" x="681.802734"/>
      <use xlink:href="#DejaVuSans-57" x="713.589844"/>
      <use xlink:href="#DejaVuSans-69" x="810.216797"/>
      <use xlink:href="#DejaVuSans-72" x="838"/>
      <use xlink:href="#DejaVuSans-6b" x="879.113281"/>
      <use xlink:href="#DejaVuSans-75" x="933.898438"/>
      <use xlink:href="#DejaVuSans-6e" x="997.277344"/>
      <use xlink:href="#DejaVuSans-67" x="1060.65625"/>
      <use xlink:href="#DejaVuSans-73" x="1124.132812"/>
      <use xlink:href="#DejaVuSans-67" x="1176.232422"/>
      <use xlink:href="#DejaVuSans-72" x="1239.708984"/>
      <use xlink:href="#DejaVuSans-61" x="1280.822266"/>
      <use xlink:href="#DejaVuSans-64" x="1342.101562"/>
      <use xlink:href="#DejaVuSans-20" x="1405.578125"/>
      <use xlink:href="#DejaVuSans-5b" x="1437.365234"/>
      <use xlink:href="#DejaVuSans-25" x="1476.378906"/>
      <use xlink:href="#DejaVuSans-5d" x="1571.398438"/>
     </g>
    </g>
   </g>
   <g id="line2d_33">
    <path d="M 205.953488 827.963722 
L 214.67735 761.384127 
L 223.401212 688.333357 
L 232.125073 619.595438 
L 240.848935 564.824467 
L 249.572797 524.451943 
L 258.296658 494.670143 
L 267.02052 472.054245 
L 275.744381 454.330109 
L 284.468243 440.060422 
L 293.192105 428.320789 
L 301.915966 418.496015 
L 310.639828 410.161728 
L 319.36369 403.015369 
L 328.087551 396.834853 
L 336.811413 391.452973 
L 345.535275 386.741041 
L 354.259136 382.598095 
L 362.982998 378.943581 
L 371.706859 375.712284 
L 380.430721 372.850705 
L 389.154583 370.314454 
L 397.878444 368.066306 
L 406.602306 366.074767 
L 415.326168 364.312959 
L 424.050029 362.75777 
L 432.773891 361.389193 
L 441.497753 360.189798 
L 450.221614 359.144311 
L 458.945476 358.239282 
L 467.669338 357.4628 
L 476.393199 356.804281 
L 485.117061 356.254273 
L 493.840922 355.804307 
L 502.564784 355.446761 
L 511.288646 355.174764 
L 520.012507 354.982092 
L 528.736369 354.863092 
L 537.460231 354.812622 
L 546.184092 354.825988 
L 554.907954 354.898896 
L 563.631816 355.027404 
L 572.355677 355.207895 
L 581.079539 355.437036 
L 589.8034 355.711753 
L 598.527262 356.029206 
L 607.251124 356.386763 
L 615.974985 356.781987 
L 624.698847 357.212611 
L 633.422709 357.67653 
L 642.14657 358.17178 
L 650.870432 358.696533 
L 659.594294 359.249079 
L 668.318155 359.827822 
L 677.042017 360.431265 
L 685.765878 361.05801 
L 694.48974 361.70674 
L 703.213602 362.376222 
L 711.937463 363.065299 
L 720.661325 363.772878 
L 729.385187 364.497933 
L 738.109048 365.239497 
L 746.83291 365.996656 
L 755.556772 366.768551 
L 764.280633 367.554368 
L 773.004495 368.353338 
L 781.728356 369.164735 
L 790.452218 369.98787 
L 799.17608 370.822093 
L 807.899941 371.666786 
L 816.623803 372.521363 
L 825.347665 373.385271 
L 834.071526 374.257981 
L 842.795388 375.138995 
L 851.51925 376.027835 
L 860.243111 376.924052 
L 868.966973 377.827215 
L 877.690834 378.736915 
L 886.414696 379.652764 
L 895.138558 380.574391 
L 903.862419 381.501443 
L 912.586281 382.433585 
L 921.310143 383.370496 
L 930.034004 384.311874 
L 938.757866 385.257421 
L 947.481728 386.206863 
L 956.205589 387.159934 
L 964.929451 388.11638 
L 973.653312 389.075961 
L 982.377174 390.038446 
L 991.101036 391.003612 
L 999.824897 391.971251 
L 1008.548759 392.94116 
L 1017.272621 393.913146 
L 1025.996482 394.887026 
L 1034.720344 395.862623 
L 1043.444206 396.839768 
L 1052.168067 397.818302 
L 1060.891929 398.798068 
L 1069.615791 399.77892 
L 1078.339652 400.760717 
L 1087.063514 401.743323 
L 1095.787375 402.726609 
L 1104.511237 403.710451 
L 1113.235099 404.694732 
L 1121.95896 405.679335 
L 1130.682822 406.664152 
L 1139.406684 407.64908 
L 1148.130545 408.634019 
L 1156.854407 409.618874 
L 1165.578269 410.603552 
L 1174.30213 411.587967 
L 1183.025992 412.572034 
L 1191.749853 413.555672 
L 1200.473715 414.538806 
L 1209.197577 415.521361 
L 1217.921438 416.503267 
L 1226.6453 417.484456 
L 1235.369162 418.464862 
L 1244.093023 419.444426 
" clip-path="url(#p0088ec171c)" style="fill: none; stroke: #000000; stroke-width: 1.5; stroke-linecap: square"/>
   </g>
   <g id="line2d_34">
    <path d="M 205.953488 792.28338 
L 214.67735 724.978646 
L 223.401212 651.132258 
L 232.125073 581.645692 
L 240.848935 526.278193 
L 249.572797 485.465959 
L 258.296658 455.359796 
L 267.02052 432.497581 
L 275.744381 414.580406 
L 284.468243 400.155303 
L 293.192105 388.28781 
L 301.915966 378.356032 
L 310.639828 369.930974 
L 319.36369 362.706782 
L 328.087551 356.458951 
L 336.811413 351.018456 
L 345.535275 346.255205 
L 354.259136 342.067136 
L 362.982998 338.37282 
L 371.706859 335.10633 
L 380.430721 332.213585 
L 389.154583 329.64971 
L 397.878444 327.377078 
L 406.602306 325.363848 
L 415.326168 323.582851 
L 424.050029 322.010724 
L 432.773891 320.627242 
L 441.497753 319.414783 
L 450.221614 318.35791 
L 458.945476 317.443024 
L 467.669338 316.658085 
L 476.393199 315.992394 
L 485.117061 315.436396 
L 493.840922 314.981529 
L 502.564784 314.620089 
L 511.288646 314.345129 
L 520.012507 314.150358 
L 528.736369 314.030063 
L 537.460231 313.979043 
L 546.184092 313.992554 
L 554.907954 314.066257 
L 563.631816 314.196164 
L 572.355677 314.378621 
L 581.079539 314.610257 
L 589.8034 314.887967 
L 598.527262 315.208877 
L 607.251124 315.570329 
L 615.974985 315.969857 
L 624.698847 316.405171 
L 633.422709 316.874143 
L 642.14657 317.374787 
L 650.870432 317.905255 
L 659.594294 318.463819 
L 668.318155 319.048865 
L 677.042017 319.658881 
L 685.765878 320.292451 
L 694.48974 320.948247 
L 703.213602 321.625021 
L 711.937463 322.321603 
L 720.661325 323.036888 
L 729.385187 323.76984 
L 738.109048 324.51948 
L 746.83291 325.284886 
L 755.556772 326.065188 
L 764.280633 326.859563 
L 773.004495 327.667235 
L 781.728356 328.487469 
L 790.452218 329.31957 
L 799.17608 330.162878 
L 807.899941 331.016771 
L 816.623803 331.880656 
L 825.347665 332.753972 
L 834.071526 333.636188 
L 842.795388 334.526797 
L 851.51925 335.425318 
L 860.243111 336.331296 
L 868.966973 337.244295 
L 877.690834 338.163903 
L 886.414696 339.089726 
L 895.138558 340.021391 
L 903.862419 340.95854 
L 912.586281 341.900835 
L 921.310143 342.84795 
L 930.034004 343.799581 
L 938.757866 344.755426 
L 947.481728 345.715209 
L 956.205589 346.67866 
L 964.929451 347.645523 
L 973.653312 348.615555 
L 982.377174 349.588522 
L 991.101036 350.564201 
L 999.824897 351.542378 
L 1008.548759 352.52285 
L 1017.272621 353.505423 
L 1025.996482 354.48991 
L 1034.720344 355.476132 
L 1043.444206 356.46392 
L 1052.168067 357.453111 
L 1060.891929 358.443549 
L 1069.615791 359.435084 
L 1078.339652 360.427573 
L 1087.063514 361.420881 
L 1095.787375 362.414876 
L 1104.511237 363.409433 
L 1113.235099 364.404435 
L 1121.95896 365.399761 
L 1130.682822 366.395305 
L 1139.406684 367.39096 
L 1148.130545 368.386626 
L 1156.854407 369.382207 
L 1165.578269 370.37761 
L 1174.30213 371.372746 
L 1183.025992 372.367531 
L 1191.749853 373.361883 
L 1200.473715 374.355724 
L 1209.197577 375.34898 
L 1217.921438 376.34158 
L 1226.6453 377.333455 
L 1235.369162 378.32454 
L 1244.093023 379.314772 
" clip-path="url(#p0088ec171c)" style="fill: none; stroke: #000000; stroke-width: 1.5; stroke-linecap: square"/>
   </g>
   <g id="line2d_35">
    <path d="M 205.953488 757.034702 
L 214.67735 689.013601 
L 223.401212 614.381219 
L 232.125073 544.155064 
L 240.848935 488.198254 
L 249.572797 446.95163 
L 258.296658 416.525028 
L 267.02052 393.419476 
L 275.744381 375.311597 
L 284.468243 360.732959 
L 293.192105 348.739153 
L 301.915966 338.701664 
L 310.639828 330.186933 
L 319.36369 322.88585 
L 328.087551 316.571519 
L 336.811413 311.073117 
L 345.535275 306.259168 
L 354.259136 302.026523 
L 362.982998 298.292887 
L 371.706859 294.991629 
L 380.430721 292.068094 
L 389.154583 289.476931 
L 397.878444 287.180109 
L 406.602306 285.145451 
L 415.326168 283.345498 
L 424.050029 281.756638 
L 432.773891 280.35843 
L 441.497753 279.133067 
L 450.221614 278.064945 
L 458.945476 277.140321 
L 467.669338 276.347028 
L 476.393199 275.674251 
L 485.117061 275.112335 
L 493.840922 274.652627 
L 502.564784 274.28734 
L 511.288646 274.009454 
L 520.012507 273.81261 
L 528.736369 273.691034 
L 537.460231 273.639471 
L 546.184092 273.653126 
L 554.907954 273.727613 
L 563.631816 273.858903 
L 572.355677 274.043302 
L 581.079539 274.277404 
L 589.8034 274.558069 
L 598.527262 274.882395 
L 607.251124 275.247694 
L 615.974985 275.651474 
L 624.698847 276.091422 
L 633.422709 276.565385 
L 642.14657 277.071358 
L 650.870432 277.607472 
L 659.594294 278.171981 
L 668.318155 278.763254 
L 677.042017 279.379763 
L 685.765878 280.020077 
L 694.48974 280.682852 
L 703.213602 281.36683 
L 711.937463 282.070826 
L 720.661325 282.793724 
L 729.385187 283.534478 
L 738.109048 284.292097 
L 746.83291 285.065649 
L 755.556772 285.854256 
L 764.280633 286.657087 
L 773.004495 287.473355 
L 781.728356 288.30232 
L 790.452218 289.143277 
L 799.17608 289.995561 
L 807.899941 290.858542 
L 816.623803 291.731622 
L 825.347665 292.614234 
L 834.071526 293.505839 
L 842.795388 294.405927 
L 851.51925 295.314012 
L 860.243111 296.229633 
L 868.966973 297.15235 
L 877.690834 298.081745 
L 886.414696 299.017423 
L 895.138558 299.959004 
L 903.862419 300.906128 
L 912.586281 301.858452 
L 921.310143 302.815648 
L 930.034004 303.777407 
L 938.757866 304.743427 
L 947.481728 305.713424 
L 956.205589 306.68713 
L 964.929451 307.664285 
L 973.653312 308.644641 
L 982.377174 309.627964 
L 991.101036 310.614028 
L 999.824897 311.602616 
L 1008.548759 312.593524 
L 1017.272621 313.586555 
L 1025.996482 314.58152 
L 1034.720344 315.57824 
L 1043.444206 316.576541 
L 1052.168067 317.576261 
L 1060.891929 318.57724 
L 1069.615791 319.579329 
L 1078.339652 320.582382 
L 1087.063514 321.586263 
L 1095.787375 322.590837 
L 1104.511237 323.59598 
L 1113.235099 324.601572 
L 1121.95896 325.607492 
L 1130.682822 326.613632 
L 1139.406684 327.619884 
L 1148.130545 328.626148 
L 1156.854407 329.632326 
L 1165.578269 330.638323 
L 1174.30213 331.644051 
L 1183.025992 332.649424 
L 1191.749853 333.654359 
L 1200.473715 334.658779 
L 1209.197577 335.662607 
L 1217.921438 336.665772 
L 1226.6453 337.668204 
L 1235.369162 338.669838 
L 1244.093023 339.670609 
" clip-path="url(#p0088ec171c)" style="fill: none; stroke: #000000; stroke-width: 1.5; stroke-linecap: square"/>
   </g>
   <g id="line2d_36">
    <path d="M 205.953488 722.200932 
L 214.67735 653.471897 
L 223.401212 578.062774 
L 232.125073 507.105735 
L 240.848935 450.566551 
L 249.572797 408.89065 
L 258.296658 378.147381 
L 267.02052 354.801357 
L 275.744381 336.505019 
L 284.468243 321.774653 
L 293.192105 309.65602 
L 301.915966 299.514065 
L 310.639828 290.910716 
L 319.36369 283.533646 
L 328.087551 277.153599 
L 336.811413 271.597972 
L 345.535275 266.733922 
L 354.259136 262.457225 
L 362.982998 258.684731 
L 371.706859 255.349115 
L 380.430721 252.395153 
L 389.154583 249.777022 
L 397.878444 247.456296 
L 406.602306 245.400463 
L 415.326168 243.581776 
L 424.050029 241.97638 
L 432.773891 240.56362 
L 441.497753 239.325504 
L 450.221614 238.246265 
L 458.945476 237.312018 
L 467.669338 236.510469 
L 476.393199 235.83069 
L 485.117061 235.262926 
L 493.840922 234.798433 
L 502.564784 234.429345 
L 511.288646 234.148566 
L 520.012507 233.949674 
L 528.736369 233.826832 
L 537.460231 233.774733 
L 546.184092 233.78853 
L 554.907954 233.863793 
L 563.631816 233.996449 
L 572.355677 234.182766 
L 581.079539 234.419305 
L 589.8034 234.702891 
L 598.527262 235.030593 
L 607.251124 235.399694 
L 615.974985 235.807676 
L 624.698847 236.252203 
L 633.422709 236.731098 
L 642.14657 237.242337 
L 650.870432 237.784031 
L 659.594294 238.354416 
L 668.318155 238.951842 
L 677.042017 239.574767 
L 685.765878 240.221745 
L 694.48974 240.891419 
L 703.213602 241.582515 
L 711.937463 242.293837 
L 720.661325 243.02426 
L 729.385187 243.772722 
L 738.109048 244.538226 
L 746.83291 245.31983 
L 755.556772 246.116645 
L 764.280633 246.92783 
L 773.004495 247.752594 
L 781.728356 248.590186 
L 790.452218 249.439895 
L 799.17608 250.30105 
L 807.899941 251.173012 
L 816.623803 252.055179 
L 825.347665 252.946977 
L 834.071526 253.847862 
L 842.795388 254.757317 
L 851.51925 255.674853 
L 860.243111 256.600003 
L 868.966973 257.532323 
L 877.690834 258.471392 
L 886.414696 259.416808 
L 895.138558 260.368188 
L 903.862419 261.32517 
L 912.586281 262.287405 
L 921.310143 263.254563 
L 930.034004 264.226332 
L 938.757866 265.202405 
L 947.481728 266.182498 
L 956.205589 267.166338 
L 964.929451 268.153662 
L 973.653312 269.144222 
L 982.377174 270.137779 
L 991.101036 271.134105 
L 999.824897 272.132982 
L 1008.548759 273.134203 
L 1017.272621 274.137569 
L 1025.996482 275.142889 
L 1034.720344 276.149982 
L 1043.444206 277.158674 
L 1052.168067 278.168798 
L 1060.891929 279.180195 
L 1069.615791 280.192713 
L 1078.339652 281.206206 
L 1087.063514 282.220534 
L 1095.787375 283.235564 
L 1104.511237 284.251168 
L 1113.235099 285.267225 
L 1121.95896 286.283615 
L 1130.682822 287.300226 
L 1139.406684 288.316951 
L 1148.130545 289.333688 
L 1156.854407 290.350337 
L 1165.578269 291.366804 
L 1174.30213 292.383 
L 1183.025992 293.398836 
L 1191.749853 294.41423 
L 1200.473715 295.429103 
L 1209.197577 296.443379 
L 1217.921438 297.456984 
L 1226.6453 298.469849 
L 1235.369162 299.481907 
L 1244.093023 300.493095 
" clip-path="url(#p0088ec171c)" style="fill: none; stroke: #000000; stroke-width: 1.5; stroke-linecap: square"/>
   </g>
   <g id="line2d_37">
    <path d="M 205.953488 687.765269 
L 214.67735 618.33639 
L 223.401212 542.159402 
L 232.125073 470.479833 
L 240.848935 413.364931 
L 249.572797 371.264658 
L 258.296658 340.208342 
L 267.02052 316.624593 
L 275.744381 298.14195 
L 284.468243 283.26159 
L 293.192105 271.019557 
L 301.915966 260.774331 
L 310.639828 252.083377 
L 319.36369 244.631189 
L 328.087551 238.186176 
L 336.811413 232.573978 
L 345.535275 227.660399 
L 354.259136 223.340154 
L 362.982998 219.529246 
L 371.706859 216.159664 
L 380.430721 213.175624 
L 389.154583 210.530833 
L 397.878444 208.186476 
L 406.602306 206.109709 
L 415.326168 204.272503 
L 424.050029 202.65076 
L 432.773891 201.223614 
L 441.497753 199.972891 
L 450.221614 198.882663 
L 458.945476 197.938902 
L 467.669338 197.129191 
L 476.393199 196.442491 
L 485.117061 195.868945 
L 493.840922 195.399722 
L 502.564784 195.026876 
L 511.288646 194.743238 
L 520.012507 194.54232 
L 528.736369 194.418228 
L 537.460231 194.365598 
L 546.184092 194.379536 
L 554.907954 194.455565 
L 563.631816 194.589572 
L 572.355677 194.777787 
L 581.079539 195.016734 
L 589.8034 195.303208 
L 598.527262 195.634246 
L 607.251124 196.007105 
L 615.974985 196.419242 
L 624.698847 196.868295 
L 633.422709 197.352067 
L 642.14657 197.868512 
L 650.870432 198.415722 
L 659.594294 198.991914 
L 668.318155 199.595424 
L 677.042017 200.224692 
L 685.765878 200.878258 
L 694.48974 201.554751 
L 703.213602 202.252884 
L 711.937463 202.97145 
L 720.661325 203.70931 
L 729.385187 204.465394 
L 738.109048 205.238692 
L 746.83291 206.028255 
L 755.556772 206.833183 
L 764.280633 207.652629 
L 773.004495 208.485791 
L 781.728356 209.331912 
L 790.452218 210.190273 
L 799.17608 211.060197 
L 807.899941 211.941038 
L 816.623803 212.832188 
L 825.347665 213.733066 
L 834.071526 214.643125 
L 842.795388 215.561841 
L 851.51925 216.48872 
L 860.243111 217.42329 
L 868.966973 218.365104 
L 877.690834 219.313735 
L 886.414696 220.268777 
L 895.138558 221.229845 
L 903.862419 222.196571 
L 912.586281 223.168604 
L 921.310143 224.145611 
L 930.034004 225.127275 
L 938.757866 226.113287 
L 947.481728 227.10336 
L 956.205589 228.097218 
L 964.929451 229.094596 
L 973.653312 230.095242 
L 982.377174 231.098916 
L 991.101036 232.105387 
L 999.824897 233.114436 
L 1008.548759 234.125852 
L 1017.272621 235.139435 
L 1025.996482 236.154992 
L 1034.720344 237.17234 
L 1043.444206 238.191302 
L 1052.168067 239.211712 
L 1060.891929 240.233408 
L 1069.615791 241.256236 
L 1078.339652 242.280049 
L 1087.063514 243.304706 
L 1095.787375 244.330071 
L 1104.511237 245.356017 
L 1113.235099 246.382421 
L 1121.95896 247.409159 
L 1130.682822 248.436122 
L 1139.406684 249.4632 
L 1148.130545 250.49029 
L 1156.854407 251.517292 
L 1165.578269 252.544109 
L 1174.30213 253.570652 
L 1183.025992 254.596832 
L 1191.749853 255.622566 
L 1200.473715 256.647773 
L 1209.197577 257.672377 
L 1217.921438 258.696303 
L 1226.6453 259.719482 
L 1235.369162 260.741846 
L 1244.093023 261.763329 
" clip-path="url(#p0088ec171c)" style="fill: none; stroke: #000000; stroke-width: 1.5; stroke-linecap: square"/>
   </g>
   <g id="line2d_38">
    <path d="M 205.953488 653.710762 
L 214.67735 583.589786 
L 223.401212 506.653433 
L 232.125073 434.259331 
L 240.848935 376.575082 
L 249.572797 334.055136 
L 258.296658 302.689237 
L 267.02052 278.870396 
L 275.744381 260.20351 
L 284.468243 245.174815 
L 293.192105 232.810749 
L 301.915966 222.463394 
L 310.639828 213.685805 
L 319.36369 206.15933 
L 328.087551 199.65007 
L 336.811413 193.981928 
L 345.535275 189.019367 
L 354.259136 184.656057 
L 362.982998 180.807159 
L 371.706859 177.403988 
L 380.430721 174.390202 
L 389.154583 171.719047 
L 397.878444 169.35132 
L 406.602306 167.253851 
L 415.326168 165.398331 
L 424.050029 163.760421 
L 432.773891 162.31905 
L 441.497753 161.055858 
L 450.221614 159.954762 
L 458.945476 159.001594 
L 467.669338 158.183811 
L 476.393199 157.490266 
L 485.117061 156.911003 
L 493.840922 156.437102 
L 502.564784 156.060539 
L 511.288646 155.774074 
L 520.012507 155.571153 
L 528.736369 155.445824 
L 537.460231 155.39267 
L 546.184092 155.406746 
L 554.907954 155.483533 
L 563.631816 155.618876 
L 572.355677 155.808967 
L 581.079539 156.050296 
L 589.8034 156.339626 
L 598.527262 156.673964 
L 607.251124 157.05054 
L 615.974985 157.466786 
L 624.698847 157.920315 
L 633.422709 158.408909 
L 642.14657 158.930502 
L 650.870432 159.483167 
L 659.594294 160.065103 
L 668.318155 160.674629 
L 677.042017 161.31017 
L 685.765878 161.970251 
L 694.48974 162.653487 
L 703.213602 163.358579 
L 711.937463 164.084308 
L 720.661325 164.829523 
L 729.385187 165.593144 
L 738.109048 166.374152 
L 746.83291 167.171585 
L 755.556772 167.984537 
L 764.280633 168.812151 
L 773.004495 169.653619 
L 781.728356 170.508174 
L 790.452218 171.375092 
L 799.17608 172.253687 
L 807.899941 173.143309 
L 816.623803 174.043342 
L 825.347665 174.953201 
L 834.071526 175.872331 
L 842.795388 176.800206 
L 851.51925 177.736324 
L 860.243111 178.680211 
L 868.966973 179.631413 
L 877.690834 180.5895 
L 886.414696 181.554063 
L 895.138558 182.524711 
L 903.862419 183.501074 
L 912.586281 184.482797 
L 921.310143 185.469542 
L 930.034004 186.460992 
L 938.757866 187.456833 
L 947.481728 188.456776 
L 956.205589 189.460541 
L 964.929451 190.467861 
L 973.653312 191.478482 
L 982.377174 192.492161 
L 991.101036 193.508665 
L 999.824897 194.527773 
L 1008.548759 195.549271 
L 1017.272621 196.572957 
L 1025.996482 197.598638 
L 1034.720344 198.626127 
L 1043.444206 199.655247 
L 1052.168067 200.685829 
L 1060.891929 201.71771 
L 1069.615791 202.750734 
L 1078.339652 203.784752 
L 1087.063514 204.819623 
L 1095.787375 205.85521 
L 1104.511237 206.891383 
L 1113.235099 207.928018 
L 1121.95896 208.964992 
L 1130.682822 210.002192 
L 1139.406684 211.039509 
L 1148.130545 212.076837 
L 1156.854407 213.114076 
L 1165.578269 214.151129 
L 1174.30213 215.187905 
L 1183.025992 216.224315 
L 1191.749853 217.260274 
L 1200.473715 218.2957 
L 1209.197577 219.330518 
L 1217.921438 220.364651 
L 1226.6453 221.398029 
L 1235.369162 222.430584 
L 1244.093023 223.462251 
" clip-path="url(#p0088ec171c)" style="fill: none; stroke: #000000; stroke-width: 1.5; stroke-linecap: square"/>
   </g>
   <g id="line2d_39">
    <path d="M 205.953488 620.020206 
L 214.67735 549.21453 
L 223.401212 471.526927 
L 232.125073 398.425929 
L 240.848935 340.178419 
L 249.572797 297.243284 
L 258.296658 265.571111 
L 267.02052 241.519689 
L 275.744381 222.670529 
L 284.468243 207.495086 
L 293.192105 195.01029 
L 301.915966 184.561897 
L 310.639828 175.698599 
L 319.36369 168.098632 
L 328.087551 161.525812 
L 336.811413 155.802322 
L 345.535275 150.791305 
L 354.259136 146.385388 
L 362.982998 142.498908 
L 371.706859 139.062507 
L 380.430721 136.019292 
L 389.154583 133.322054 
L 397.878444 130.931208 
L 406.602306 128.813257 
L 415.326168 126.939619 
L 424.050029 125.285716 
L 432.773891 123.83027 
L 441.497753 122.554745 
L 450.221614 121.442897 
L 458.945476 120.480421 
L 467.669338 119.654653 
L 476.393199 118.954335 
L 485.117061 118.369416 
L 493.840922 117.890889 
L 502.564784 117.510648 
L 511.288646 117.221386 
L 520.012507 117.016484 
L 528.736369 116.889931 
L 537.460231 116.836257 
L 546.184092 116.850471 
L 554.907954 116.928008 
L 563.631816 117.064673 
L 572.355677 117.25662 
L 581.079539 117.500305 
L 589.8034 117.79246 
L 598.527262 118.130063 
L 607.251124 118.510316 
L 615.974985 118.930626 
L 624.698847 119.388584 
L 633.422709 119.881949 
L 642.14657 120.408635 
L 650.870432 120.966696 
L 659.594294 121.554315 
L 668.318155 122.169793 
L 677.042017 122.811539 
L 685.765878 123.478066 
L 694.48974 124.167973 
L 703.213602 124.879951 
L 711.937463 125.612766 
L 720.661325 126.365258 
L 729.385187 127.136335 
L 738.109048 127.924969 
L 746.83291 128.730188 
L 755.556772 129.551079 
L 764.280633 130.386774 
L 773.004495 131.236459 
L 781.728356 132.099358 
L 790.452218 132.974741 
L 799.17608 133.861915 
L 807.899941 134.760224 
L 816.623803 135.669046 
L 825.347665 136.587789 
L 834.071526 137.515894 
L 842.795388 138.452829 
L 851.51925 139.398088 
L 860.243111 140.351191 
L 868.966973 141.311681 
L 877.690834 142.279124 
L 886.414696 143.253105 
L 895.138558 144.233232 
L 903.862419 145.219128 
L 912.586281 146.210437 
L 921.310143 147.206817 
L 930.034004 148.207949 
L 938.757866 149.213514 
L 947.481728 150.22322 
L 956.205589 151.236786 
L 964.929451 152.253943 
L 973.653312 153.274432 
L 982.377174 154.298009 
L 991.101036 155.324439 
L 999.824897 156.353497 
L 1008.548759 157.38497 
L 1017.272621 158.418653 
L 1025.996482 159.454348 
L 1034.720344 160.491871 
L 1043.444206 161.53104 
L 1052.168067 162.571685 
L 1060.891929 163.613641 
L 1069.615791 164.656752 
L 1078.339652 165.700867 
L 1087.063514 166.745844 
L 1095.787375 167.791543 
L 1104.511237 168.837833 
L 1113.235099 169.884591 
L 1121.95896 170.93169 
L 1130.682822 171.979018 
L 1139.406684 173.026463 
L 1148.130545 174.07392 
L 1156.854407 175.121288 
L 1165.578269 176.168468 
L 1174.30213 177.215367 
L 1183.025992 178.261897 
L 1191.749853 179.307971 
L 1200.473715 180.353509 
L 1209.197577 181.39843 
L 1217.921438 182.442662 
L 1226.6453 183.48613 
L 1235.369162 184.528768 
L 1244.093023 185.570508 
" clip-path="url(#p0088ec171c)" style="fill: none; stroke: #000000; stroke-width: 1.5; stroke-linecap: square"/>
   </g>
   <g id="line2d_40">
    <path d="M 204.93489 659.87603 
L 207.1574 642.870037 
L 209.38186 625.158506 
L 211.608273 606.755635 
L 213.836639 587.705852 
L 216.06696 568.092665 
L 218.299238 548.045671 
L 220.533473 527.742712 
L 222.769668 507.404058 
L 225.007824 487.277077 
L 227.247943 467.61304 
L 229.490025 448.641211 
L 231.734073 430.546772 
L 233.980089 413.458872 
L 236.228073 397.447479 
L 238.478027 382.530822 
L 240.729953 368.686766 
L 242.983852 355.864815 
L 245.239726 343.998213 
L 247.497576 333.012116 
L 249.757404 322.829952 
L 252.019212 313.377405 
L 254.283 304.584715 
L 256.548771 296.387819 
L 258.816527 288.728716 
L 261.086268 281.555384 
L 263.357996 274.821433 
L 265.631713 268.485629 
L 267.90742 262.511382 
L 270.18512 256.866231 
L 272.464813 251.521364 
L 274.746501 246.451174 
L 277.030186 241.632866 
L 279.31587 237.046107 
L 281.603553 232.672727 
L 283.893238 228.496432 
L 286.184926 224.502599 
L 288.478619 220.678063 
L 290.774318 217.010938 
L 293.072025 213.490475 
L 295.371742 210.106924 
L 297.67347 206.851424 
L 299.977211 203.715902 
L 302.282966 200.69299 
L 304.590738 197.775944 
L 306.900527 194.958581 
L 309.212336 192.235222 
L 311.526166 189.600638 
L 313.842018 187.05001 
L 316.159895 184.578882 
L 318.479798 182.183132 
L 320.801729 179.858938 
L 323.125688 177.602753 
L 325.451679 175.411276 
L 327.779703 173.281433 
L 330.109761 171.210357 
L 332.441854 169.19537 
L 334.775986 167.233968 
L 337.112157 165.323802 
L 339.450369 163.462675 
L 341.790623 161.648519 
L 344.132923 159.879393 
L 346.477268 158.153469 
L 348.823661 156.469025 
L 351.172104 154.824437 
L 353.522598 153.218172 
L 355.875144 151.648781 
L 358.229746 150.114893 
L 360.586404 148.61521 
L 362.94512 147.148501 
L 365.305896 145.713599 
L 367.668734 144.309398 
L 370.033634 142.934843 
L 372.4006 141.588933 
L 374.769633 140.270717 
L 377.140735 138.979285 
L 379.513906 137.713774 
L 381.88915 136.473359 
L 384.266467 135.257251 
L 386.64586 134.064698 
" clip-path="url(#p0088ec171c)" style="fill: none; stroke-dasharray: 5.55,2.4; stroke-dashoffset: 0; stroke: #ff0000; stroke-width: 1.5"/>
   </g>
   <g id="line2d_41">
    <path d="M 204.93489 693.841487 
L 209.474589 658.702953 
L 214.022424 620.74893 
L 218.57841 580.55683 
L 223.142558 539.457517 
L 227.714881 499.405643 
L 232.295393 462.335362 
L 236.884106 429.450317 
L 241.481033 401.031578 
L 246.086188 376.730643 
L 250.699583 355.945016 
L 255.321232 338.053699 
L 259.951149 322.515159 
L 264.589346 308.888896 
L 269.235836 296.826613 
L 273.890634 286.055218 
L 278.553753 276.360254 
L 283.225206 267.572197 
L 287.905007 259.55582 
L 292.59317 252.202211 
L 297.289709 245.422745 
L 301.994637 239.1446 
L 306.707968 233.307371 
L 311.429716 227.86051 
L 316.159895 222.761367 
L 320.89852 217.973672 
L 325.645604 213.466362 
L 330.401161 209.212654 
L 335.165206 205.189313 
L 339.937753 201.376062 
L 344.718817 197.755115 
L 349.508412 194.310789 
L 354.306552 191.029191 
L 359.113252 187.89796 
L 363.928526 184.906056 
L 368.75239 182.043576 
L 373.584858 179.301611 
L 378.425945 176.672112 
L 383.275666 174.14779 
L 388.134036 171.722023 
L 393.00107 169.388772 
L 397.876782 167.142525 
L 402.761171 164.978236 
L 407.654287 162.891258 
L 412.556128 160.87733 
L 417.466709 158.932515 
L 422.386045 157.053178 
L 427.314152 155.235952 
L 432.251046 153.477712 
L 437.196742 151.775556 
L 442.151256 150.126783 
L 447.114604 148.528873 
L 452.086801 146.979474 
L 457.067864 145.476386 
L 462.057809 144.017548 
L 467.056651 142.601029 
L 472.064407 141.225013 
L 477.081093 139.887796 
L 482.106725 138.587771 
L 487.14132 137.323426 
L 492.184895 136.093333 
L 497.237464 134.896142 
L 502.299047 133.730579 
L 507.369658 132.595438 
L 512.449314 131.489576 
L 517.538034 130.41191 
L 522.635832 129.36141 
L 527.742727 128.337099 
L 532.858735 127.33805 
L 537.983874 126.363378 
L 543.118161 125.412242 
L 548.261612 124.483841 
L 553.414246 123.577413 
L 558.57608 122.692224 
L 563.747131 121.827578 
L 568.927417 120.982812 
L 574.116955 120.157289 
L 579.315764 119.350399 
L 584.523861 118.561561 
L 589.741264 117.790215 
" clip-path="url(#p0088ec171c)" style="fill: none; stroke-dasharray: 5.55,2.4; stroke-dashoffset: 0; stroke: #ffa500; stroke-width: 1.5"/>
   </g>
   <g id="line2d_42">
    <path d="M 204.93489 762.928258 
L 214.115322 690.455714 
L 223.329023 609.880859 
L 232.576099 533.777096 
L 241.856655 473.640874 
L 251.170802 429.561562 
L 260.518646 396.905002 
L 269.900298 371.799866 
L 279.31587 351.780003 
L 288.765471 335.324237 
L 298.249217 321.468479 
L 307.767219 309.576952 
L 317.319593 299.213661 
L 326.906456 290.068964 
L 336.527923 281.916163 
L 346.184113 274.584878 
L 355.875144 267.944124 
L 365.601138 261.891209 
L 375.362215 256.344237 
L 385.158496 251.236907 
L 394.990107 246.514834 
L 404.857153 242.132877 
L 414.759796 238.053169 
L 424.698145 234.243658 
L 434.672327 230.676976 
L 444.682472 227.329574 
L 454.728709 224.181048 
L 464.811171 221.21361 
L 474.92999 218.411656 
L 485.0853 215.761431 
L 495.277236 213.250745 
L 505.505934 210.86875 
L 515.771532 208.605748 
L 526.074168 206.453037 
L 536.413983 204.402779 
L 546.791118 202.447892 
L 557.205716 200.581959 
L 567.657921 198.799135 
L 578.147877 197.0941 
L 588.675731 195.461988 
L 599.241633 193.89834 
L 609.845729 192.39906 
L 620.488172 190.960375 
L 631.169114 189.578809 
L 641.888707 188.251145 
L 652.647107 186.974407 
L 663.44447 185.745833 
L 674.280954 184.562856 
L 685.156717 183.423089 
L 696.071921 182.324304 
L 707.026728 181.264426 
L 718.021301 180.241513 
L 729.055805 179.253747 
L 740.130408 178.299425 
L 751.245276 177.376949 
L 762.400581 176.484821 
L 773.596494 175.621628 
L 784.833187 174.786043 
L 796.110836 173.976817 
L 807.429615 173.192768 
L 818.789704 172.432785 
L 830.191283 171.695815 
L 841.634531 170.980865 
L 853.119632 170.286993 
L 864.646772 169.613309 
L 876.216136 168.95897 
L 887.827912 168.323174 
L 899.482292 167.705162 
L 911.179466 167.104213 
L 922.919629 166.519646 
L 934.702976 165.950803 
L 946.529704 165.397067 
L 958.400014 164.85785 
L 970.314107 164.332589 
L 982.272185 163.820751 
L 994.274455 163.321825 
L 1006.321124 162.835327 
L 1018.412401 162.360792 
L 1030.548498 161.897778 
L 1042.729629 161.445863 
" clip-path="url(#p0088ec171c)" style="fill: none; stroke-dasharray: 5.55,2.4; stroke-dashoffset: 0; stroke: #008000; stroke-width: 1.5"/>
   </g>
   <g id="line2d_43">
    <path d="M 197.632886 882.412593 
L 208.732858 805.598699 
L 219.881619 713.524344 
L 231.079356 620.264782 
L 242.326261 547.632739 
L 253.622524 497.601552 
L 264.96834 462.408555 
L 276.363905 436.244643 
L 287.809418 415.820411 
L 299.305079 399.268914 
L 310.85109 385.471358 
L 322.447657 373.717649 
L 334.094987 363.533793 
L 345.793289 354.589695 
L 357.542775 346.647193 
L 369.343658 339.529279 
L 381.196156 333.101053 
L 393.100487 327.257486 
L 405.056854 321.915283 
L 417.065517 317.007313 
L 429.126683 312.478728 
L 441.240581 308.284146 
L 453.407443 304.385609 
L 465.627502 300.751058 
L 477.900993 297.353173 
L 490.228156 294.168499 
L 502.609233 291.176741 
L 515.044466 288.360237 
L 527.534104 285.703517 
L 540.078395 283.192959 
L 552.677593 280.816512 
L 565.331951 278.563454 
L 578.041728 276.424222 
L 590.807185 274.390241 
L 603.628586 272.453798 
L 616.506196 270.607931 
L 629.440287 268.846335 
L 642.431129 267.163287 
L 655.478999 265.553572 
L 668.584176 264.01243 
L 681.746941 262.535504 
L 694.96758 261.118796 
L 708.24638 259.758635 
L 721.583634 258.451633 
L 734.979635 257.194667 
L 748.434682 255.984849 
L 761.949076 254.819503 
L 775.523122 253.696148 
L 789.157129 252.612477 
L 802.851408 251.566345 
L 816.606274 250.555754 
L 830.422046 249.578837 
L 844.299048 248.633854 
L 858.237604 247.719174 
L 872.238046 246.833274 
L 886.300708 245.974723 
L 900.425926 245.14218 
L 914.614043 244.334387 
L 928.865404 243.550162 
L 943.18036 242.788387 
L 957.559263 242.048017 
L 972.002473 241.328064 
L 986.510351 240.627597 
L 1001.083265 239.945738 
L 1015.721585 239.281658 
L 1030.425686 238.634572 
L 1045.19595 238.003742 
L 1060.032761 237.388466 
L 1074.936508 236.788082 
L 1089.907586 236.201963 
L 1104.946394 235.629517 
L 1120.053337 235.070176 
L 1135.228823 234.52341 
L 1150.473267 233.988712 
L 1165.787089 233.465603 
L 1181.170714 232.953627 
L 1196.624573 232.452353 
L 1212.149101 231.96137 
L 1227.744742 231.480291 
L 1243.411943 231.008744 
" clip-path="url(#p0088ec171c)" style="fill: none; stroke-dasharray: 5.55,2.4; stroke-dashoffset: 0; stroke: #4682b4; stroke-width: 1.5"/>
   </g>
   <g id="patch_3">
    <path d="M 180 833.04 
L 180 112.32 
" style="fill: none; stroke: #000000; stroke-width: 0.8; stroke-linejoin: miter; stroke-linecap: square"/>
   </g>
   <g id="patch_4">
    <path d="M 1296 833.04 
L 1296 112.32 
" style="fill: none; stroke: #000000; stroke-width: 0.8; stroke-linejoin: miter; stroke-linecap: square"/>
   </g>
   <g id="patch_5">
    <path d="M 180 833.04 
L 1296 833.04 
" style="fill: none; stroke: #000000; stroke-width: 0.8; stroke-linejoin: miter; stroke-linecap: square"/>
   </g>
   <g id="patch_6">
    <path d="M 180 112.32 
L 1296 112.32 
" style="fill: none; stroke: #000000; stroke-width: 0.8; stroke-linejoin: miter; stroke-linecap: square"/>
   </g>
   <g id="text_19">
    <!-- 190 -->
    <g transform="translate(1249.283721 428.328) scale(0.2 -0.2)">
     <defs>
      <path id="DejaVuSans-31" d="M 794 531 
L 1825 531 
L 1825 4091 
L 703 3866 
L 703 4441 
L 1819 4666 
L 2450 4666 
L 2450 531 
L 3481 531 
L 3481 0 
L 794 0 
L 794 531 
z
" transform="scale(0.015625)"/>
      <path id="DejaVuSans-39" d="M 703 97 
L 703 672 
Q 941 559 1184 500 
Q 1428 441 1663 441 
Q 2288 441 2617 861 
Q 2947 1281 2994 2138 
Q 2813 1869 2534 1725 
Q 2256 1581 1919 1581 
Q 1219 1581 811 2004 
Q 403 2428 403 3163 
Q 403 3881 828 4315 
Q 1253 4750 1959 4750 
Q 2769 4750 3195 4129 
Q 3622 3509 3622 2328 
Q 3622 1225 3098 567 
Q 2575 -91 1691 -91 
Q 1453 -91 1209 -44 
Q 966 3 703 97 
z
M 1959 2075 
Q 2384 2075 2632 2365 
Q 2881 2656 2881 3163 
Q 2881 3666 2632 3958 
Q 2384 4250 1959 4250 
Q 1534 4250 1286 3958 
Q 1038 3666 1038 3163 
Q 1038 2656 1286 2365 
Q 1534 2075 1959 2075 
z
" transform="scale(0.015625)"/>
     </defs>
     <use xlink:href="#DejaVuSans-31"/>
     <use xlink:href="#DejaVuSans-39" x="63.623047"/>
     <use xlink:href="#DejaVuSans-30" x="127.246094"/>
    </g>
   </g>
   <g id="text_20">
    <!-- 195 -->
    <g transform="translate(1249.283721 389.52) scale(0.2 -0.2)">
     <use xlink:href="#DejaVuSans-31"/>
     <use xlink:href="#DejaVuSans-39" x="63.623047"/>
     <use xlink:href="#DejaVuSans-35" x="127.246094"/>
    </g>
   </g>
   <g id="text_21">
    <!-- 200 -->
    <g transform="translate(1249.283721 350.712) scale(0.2 -0.2)">
     <use xlink:href="#DejaVuSans-32"/>
     <use xlink:href="#DejaVuSans-30" x="63.623047"/>
     <use xlink:href="#DejaVuSans-30" x="127.246094"/>
    </g>
   </g>
   <g id="text_22">
    <!-- 205 -->
    <g transform="translate(1249.283721 311.904) scale(0.2 -0.2)">
     <use xlink:href="#DejaVuSans-32"/>
     <use xlink:href="#DejaVuSans-30" x="63.623047"/>
     <use xlink:href="#DejaVuSans-35" x="127.246094"/>
    </g>
   </g>
   <g id="text_23">
    <!-- 210 -->
    <g transform="translate(1249.283721 273.096) scale(0.2 -0.2)">
     <use xlink:href="#DejaVuSans-32"/>
     <use xlink:href="#DejaVuSans-31" x="63.623047"/>
     <use xlink:href="#DejaVuSans-30" x="127.246094"/>
    </g>
   </g>
   <g id="text_24">
    <!-- 215 -->
    <g transform="translate(1249.283721 234.288) scale(0.2 -0.2)">
     <use xlink:href="#DejaVuSans-32"/>
     <use xlink:href="#DejaVuSans-31" x="63.623047"/>
     <use xlink:href="#DejaVuSans-35" x="127.246094"/>
    </g>
   </g>
   <g id="text_25">
    <!-- 220 -->
    <g transform="translate(1249.283721 195.48) scale(0.2 -0.2)">
     <use xlink:href="#DejaVuSans-32"/>
     <use xlink:href="#DejaVuSans-32" x="63.623047"/>
     <use xlink:href="#DejaVuSans-30" x="127.246094"/>
    </g>
   </g>
   <g id="legend_1">
    <g id="patch_7">
     <path d="M 300.15625 823.04 
L 1175.84375 823.04 
Q 1179.84375 823.04 1179.84375 819.04 
L 1179.84375 790.84 
Q 1179.84375 786.84 1175.84375 786.84 
L 300.15625 786.84 
Q 296.15625 786.84 296.15625 790.84 
L 296.15625 819.04 
Q 296.15625 823.04 300.15625 823.04 
z
" style="fill: #ffffff; opacity: 0.8; stroke: #cccccc; stroke-linejoin: miter"/>
    </g>
    <g id="line2d_44">
     <path d="M 304.15625 803.04 
L 324.15625 803.04 
L 344.15625 803.04 
" style="fill: none; stroke: #000000; stroke-width: 1.5; stroke-linecap: square"/>
    </g>
    <g id="text_26">
     <!-- $T_{se,aus}$ [°C]          $ΔT_{GK,ob}$: -->
     <g transform="translate(360.15625 810.04) scale(0.2 -0.2)">
      <defs>
       <path id="DejaVuSans-Oblique-54" d="M 378 4666 
L 4325 4666 
L 4225 4134 
L 2559 4134 
L 1759 0 
L 1125 0 
L 1925 4134 
L 275 4134 
L 378 4666 
z
" transform="scale(0.015625)"/>
       <path id="DejaVuSans-Oblique-73" d="M 3200 3397 
L 3091 2853 
Q 2863 2978 2609 3040 
Q 2356 3103 2088 3103 
Q 1634 3103 1373 2948 
Q 1113 2794 1113 2528 
Q 1113 2219 1719 2053 
Q 1766 2041 1788 2034 
L 1972 1978 
Q 2547 1819 2739 1644 
Q 2931 1469 2931 1166 
Q 2931 609 2489 259 
Q 2047 -91 1331 -91 
Q 1053 -91 747 -37 
Q 441 16 72 128 
L 184 722 
Q 500 559 806 475 
Q 1113 391 1394 391 
Q 1816 391 2080 572 
Q 2344 753 2344 1031 
Q 2344 1331 1650 1516 
L 1591 1531 
L 1394 1581 
Q 956 1697 753 1886 
Q 550 2075 550 2369 
Q 550 2928 970 3256 
Q 1391 3584 2113 3584 
Q 2397 3584 2667 3537 
Q 2938 3491 3200 3397 
z
" transform="scale(0.015625)"/>
       <path id="DejaVuSans-Oblique-65" d="M 3078 2063 
Q 3088 2113 3092 2166 
Q 3097 2219 3097 2272 
Q 3097 2653 2873 2875 
Q 2650 3097 2266 3097 
Q 1838 3097 1509 2826 
Q 1181 2556 1013 2059 
L 3078 2063 
z
M 3578 1613 
L 903 1613 
Q 884 1494 878 1425 
Q 872 1356 872 1306 
Q 872 872 1139 634 
Q 1406 397 1894 397 
Q 2269 397 2603 481 
Q 2938 566 3225 728 
L 3116 159 
Q 2806 34 2476 -28 
Q 2147 -91 1806 -91 
Q 1078 -91 686 257 
Q 294 606 294 1247 
Q 294 1794 489 2264 
Q 684 2734 1063 3103 
Q 1306 3334 1642 3459 
Q 1978 3584 2356 3584 
Q 2950 3584 3301 3228 
Q 3653 2872 3653 2272 
Q 3653 2128 3634 1964 
Q 3616 1800 3578 1613 
z
" transform="scale(0.015625)"/>
       <path id="DejaVuSans-2c" d="M 750 794 
L 1409 794 
L 1409 256 
L 897 -744 
L 494 -744 
L 750 256 
L 750 794 
z
" transform="scale(0.015625)"/>
       <path id="DejaVuSans-Oblique-61" d="M 3438 1997 
L 3047 0 
L 2472 0 
L 2578 531 
Q 2325 219 2001 64 
Q 1678 -91 1281 -91 
Q 834 -91 548 182 
Q 263 456 263 884 
Q 263 1497 752 1853 
Q 1241 2209 2100 2209 
L 2900 2209 
L 2931 2363 
Q 2938 2388 2941 2417 
Q 2944 2447 2944 2509 
Q 2944 2788 2717 2942 
Q 2491 3097 2081 3097 
Q 1800 3097 1504 3025 
Q 1209 2953 897 2809 
L 997 3341 
Q 1322 3463 1633 3523 
Q 1944 3584 2234 3584 
Q 2853 3584 3176 3315 
Q 3500 3047 3500 2534 
Q 3500 2431 3484 2292 
Q 3469 2153 3438 1997 
z
M 2816 1759 
L 2241 1759 
Q 1534 1759 1195 1570 
Q 856 1381 856 984 
Q 856 709 1029 553 
Q 1203 397 1509 397 
Q 1978 397 2328 733 
Q 2678 1069 2791 1631 
L 2816 1759 
z
" transform="scale(0.015625)"/>
       <path id="DejaVuSans-Oblique-75" d="M 428 1388 
L 838 3500 
L 1416 3500 
L 1006 1409 
Q 975 1256 961 1147 
Q 947 1038 947 966 
Q 947 700 1109 554 
Q 1272 409 1569 409 
Q 2031 409 2368 721 
Q 2706 1034 2809 1563 
L 3194 3500 
L 3769 3500 
L 3091 0 
L 2516 0 
L 2631 550 
Q 2388 244 2052 76 
Q 1716 -91 1338 -91 
Q 878 -91 622 161 
Q 366 413 366 863 
Q 366 956 381 1097 
Q 397 1238 428 1388 
z
" transform="scale(0.015625)"/>
       <path id="DejaVuSans-b0" d="M 1600 4347 
Q 1350 4347 1178 4173 
Q 1006 4000 1006 3750 
Q 1006 3503 1178 3333 
Q 1350 3163 1600 3163 
Q 1850 3163 2022 3333 
Q 2194 3503 2194 3750 
Q 2194 3997 2020 4172 
Q 1847 4347 1600 4347 
z
M 1600 4750 
Q 1800 4750 1984 4673 
Q 2169 4597 2303 4453 
Q 2447 4313 2519 4134 
Q 2591 3956 2591 3750 
Q 2591 3338 2302 3052 
Q 2013 2766 1594 2766 
Q 1172 2766 890 3047 
Q 609 3328 609 3750 
Q 609 4169 896 4459 
Q 1184 4750 1600 4750 
z
" transform="scale(0.015625)"/>
       <path id="DejaVuSans-43" d="M 4122 4306 
L 4122 3641 
Q 3803 3938 3442 4084 
Q 3081 4231 2675 4231 
Q 1875 4231 1450 3742 
Q 1025 3253 1025 2328 
Q 1025 1406 1450 917 
Q 1875 428 2675 428 
Q 3081 428 3442 575 
Q 3803 722 4122 1019 
L 4122 359 
Q 3791 134 3420 21 
Q 3050 -91 2638 -91 
Q 1578 -91 968 557 
Q 359 1206 359 2328 
Q 359 3453 968 4101 
Q 1578 4750 2638 4750 
Q 3056 4750 3426 4639 
Q 3797 4528 4122 4306 
z
" transform="scale(0.015625)"/>
       <path id="DejaVuSans-394" d="M 2188 4044 
L 906 525 
L 3472 525 
L 2188 4044 
z
M 50 0 
L 1831 4666 
L 2547 4666 
L 4325 0 
L 50 0 
z
" transform="scale(0.015625)"/>
       <path id="DejaVuSans-Oblique-47" d="M 3494 697 
L 3738 1919 
L 2700 1919 
L 2797 2438 
L 4453 2438 
L 4050 384 
Q 3634 156 3143 32 
Q 2653 -91 2156 -91 
Q 1278 -91 783 396 
Q 288 884 288 1753 
Q 288 2475 589 3126 
Q 891 3778 1422 4213 
Q 1756 4484 2153 4617 
Q 2550 4750 3034 4750 
Q 3472 4750 3873 4639 
Q 4275 4528 4641 4306 
L 4513 3634 
Q 4231 3928 3853 4083 
Q 3475 4238 3047 4238 
Q 2550 4238 2172 4048 
Q 1794 3859 1497 3463 
Q 1244 3125 1098 2667 
Q 953 2209 953 1734 
Q 953 1081 1287 751 
Q 1622 422 2284 422 
Q 2616 422 2925 492 
Q 3234 563 3494 697 
z
" transform="scale(0.015625)"/>
       <path id="DejaVuSans-Oblique-4b" d="M 1081 4666 
L 1716 4666 
L 1331 2700 
L 3781 4666 
L 4622 4666 
L 1850 2438 
L 3878 0 
L 3109 0 
L 1247 2272 
L 806 0 
L 172 0 
L 1081 4666 
z
" transform="scale(0.015625)"/>
       <path id="DejaVuSans-Oblique-6f" d="M 1625 -91 
Q 1009 -91 651 289 
Q 294 669 294 1325 
Q 294 1706 417 2101 
Q 541 2497 738 2766 
Q 1047 3184 1428 3384 
Q 1809 3584 2291 3584 
Q 2888 3584 3255 3212 
Q 3622 2841 3622 2241 
Q 3622 1825 3500 1412 
Q 3378 1000 3181 728 
Q 2875 309 2494 109 
Q 2113 -91 1625 -91 
z
M 891 1344 
Q 891 869 1089 633 
Q 1288 397 1691 397 
Q 2269 397 2648 901 
Q 3028 1406 3028 2181 
Q 3028 2634 2825 2865 
Q 2622 3097 2228 3097 
Q 1903 3097 1650 2945 
Q 1397 2794 1197 2484 
Q 1050 2253 970 1956 
Q 891 1659 891 1344 
z
" transform="scale(0.015625)"/>
       <path id="DejaVuSans-Oblique-62" d="M 3169 2138 
Q 3169 2591 2961 2847 
Q 2753 3103 2388 3103 
Q 2122 3103 1889 2973 
Q 1656 2844 1484 2597 
Q 1303 2338 1198 1995 
Q 1094 1653 1094 1313 
Q 1094 881 1298 636 
Q 1503 391 1863 391 
Q 2134 391 2365 517 
Q 2597 644 2772 891 
Q 2950 1147 3059 1487 
Q 3169 1828 3169 2138 
z
M 1381 2969 
Q 1594 3256 1914 3420 
Q 2234 3584 2584 3584 
Q 3122 3584 3439 3221 
Q 3756 2859 3756 2241 
Q 3756 1734 3570 1259 
Q 3384 784 3041 416 
Q 2816 172 2522 40 
Q 2228 -91 1906 -91 
Q 1566 -91 1316 65 
Q 1066 222 909 531 
L 806 0 
L 231 0 
L 1178 4863 
L 1753 4863 
L 1381 2969 
z
" transform="scale(0.015625)"/>
       <path id="DejaVuSans-3a" d="M 750 794 
L 1409 794 
L 1409 0 
L 750 0 
L 750 794 
z
M 750 3309 
L 1409 3309 
L 1409 2516 
L 750 2516 
L 750 3309 
z
" transform="scale(0.015625)"/>
      </defs>
      <use xlink:href="#DejaVuSans-Oblique-54" transform="translate(0 0.015625)"/>
      <use xlink:href="#DejaVuSans-Oblique-73" transform="translate(61.083984 -16.390625) scale(0.7)"/>
      <use xlink:href="#DejaVuSans-Oblique-65" transform="translate(97.553711 -16.390625) scale(0.7)"/>
      <use xlink:href="#DejaVuSans-2c" transform="translate(140.620117 -16.390625) scale(0.7)"/>
      <use xlink:href="#DejaVuSans-Oblique-61" transform="translate(176.508789 -16.390625) scale(0.7)"/>
      <use xlink:href="#DejaVuSans-Oblique-75" transform="translate(219.404297 -16.390625) scale(0.7)"/>
      <use xlink:href="#DejaVuSans-Oblique-73" transform="translate(263.769531 -16.390625) scale(0.7)"/>
      <use xlink:href="#DejaVuSans-20" transform="translate(302.973633 0.015625)"/>
      <use xlink:href="#DejaVuSans-5b" transform="translate(334.760742 0.015625)"/>
      <use xlink:href="#DejaVuSans-b0" transform="translate(373.774414 0.015625)"/>
      <use xlink:href="#DejaVuSans-43" transform="translate(423.774414 0.015625)"/>
      <use xlink:href="#DejaVuSans-5d" transform="translate(493.598633 0.015625)"/>
      <use xlink:href="#DejaVuSans-20" transform="translate(532.612305 0.015625)"/>
      <use xlink:href="#DejaVuSans-20" transform="translate(564.399414 0.015625)"/>
      <use xlink:href="#DejaVuSans-20" transform="translate(596.186523 0.015625)"/>
      <use xlink:href="#DejaVuSans-20" transform="translate(627.973633 0.015625)"/>
      <use xlink:href="#DejaVuSans-20" transform="translate(659.760742 0.015625)"/>
      <use xlink:href="#DejaVuSans-20" transform="translate(691.547852 0.015625)"/>
      <use xlink:href="#DejaVuSans-20" transform="translate(723.334961 0.015625)"/>
      <use xlink:href="#DejaVuSans-20" transform="translate(755.12207 0.015625)"/>
      <use xlink:href="#DejaVuSans-20" transform="translate(786.90918 0.015625)"/>
      <use xlink:href="#DejaVuSans-20" transform="translate(818.696289 0.015625)"/>
      <use xlink:href="#DejaVuSans-394" transform="translate(850.483398 0.015625)"/>
      <use xlink:href="#DejaVuSans-Oblique-54" transform="translate(918.891602 0.015625)"/>
      <use xlink:href="#DejaVuSans-Oblique-47" transform="translate(979.975586 -16.390625) scale(0.7)"/>
      <use xlink:href="#DejaVuSans-Oblique-4b" transform="translate(1034.21875 -16.390625) scale(0.7)"/>
      <use xlink:href="#DejaVuSans-2c" transform="translate(1080.12207 -16.390625) scale(0.7)"/>
      <use xlink:href="#DejaVuSans-Oblique-6f" transform="translate(1116.010742 -16.390625) scale(0.7)"/>
      <use xlink:href="#DejaVuSans-Oblique-62" transform="translate(1158.837891 -16.390625) scale(0.7)"/>
      <use xlink:href="#DejaVuSans-3a" transform="translate(1206.005859 0.015625)"/>
     </g>
    </g>
    <g id="line2d_45">
     <path d="M 648.15625 803.04 
L 668.15625 803.04 
L 688.15625 803.04 
" style="fill: none; stroke-dasharray: 5.55,2.4; stroke-dashoffset: 0; stroke: #ff0000; stroke-width: 1.5"/>
    </g>
    <g id="text_27">
     <!-- 15 K -->
     <g transform="translate(704.15625 810.04) scale(0.2 -0.2)">
      <defs>
       <path id="DejaVuSans-4b" d="M 628 4666 
L 1259 4666 
L 1259 2694 
L 3353 4666 
L 4166 4666 
L 1850 2491 
L 4331 0 
L 3500 0 
L 1259 2247 
L 1259 0 
L 628 0 
L 628 4666 
z
" transform="scale(0.015625)"/>
      </defs>
      <use xlink:href="#DejaVuSans-31"/>
      <use xlink:href="#DejaVuSans-35" x="63.623047"/>
      <use xlink:href="#DejaVuSans-20" x="127.246094"/>
      <use xlink:href="#DejaVuSans-4b" x="159.033203"/>
     </g>
    </g>
    <g id="line2d_46">
     <path d="M 789.078125 803.04 
L 809.078125 803.04 
L 829.078125 803.04 
" style="fill: none; stroke-dasharray: 5.55,2.4; stroke-dashoffset: 0; stroke: #ffa500; stroke-width: 1.5"/>
    </g>
    <g id="text_28">
     <!-- 20 K -->
     <g transform="translate(845.078125 810.04) scale(0.2 -0.2)">
      <use xlink:href="#DejaVuSans-32"/>
      <use xlink:href="#DejaVuSans-30" x="63.623047"/>
      <use xlink:href="#DejaVuSans-20" x="127.246094"/>
      <use xlink:href="#DejaVuSans-4b" x="159.033203"/>
     </g>
    </g>
    <g id="line2d_47">
     <path d="M 930 803.04 
L 950 803.04 
L 970 803.04 
" style="fill: none; stroke-dasharray: 5.55,2.4; stroke-dashoffset: 0; stroke: #008000; stroke-width: 1.5"/>
    </g>
    <g id="text_29">
     <!-- 30 K -->
     <g transform="translate(986 810.04) scale(0.2 -0.2)">
      <use xlink:href="#DejaVuSans-33"/>
      <use xlink:href="#DejaVuSans-30" x="63.623047"/>
      <use xlink:href="#DejaVuSans-20" x="127.246094"/>
      <use xlink:href="#DejaVuSans-4b" x="159.033203"/>
     </g>
    </g>
    <g id="line2d_48">
     <path d="M 1070.921875 803.04 
L 1090.921875 803.04 
L 1110.921875 803.04 
" style="fill: none; stroke-dasharray: 5.55,2.4; stroke-dashoffset: 0; stroke: #4682b4; stroke-width: 1.5"/>
    </g>
    <g id="text_30">
     <!-- 40 K -->
     <g transform="translate(1126.921875 810.04) scale(0.2 -0.2)">
      <use xlink:href="#DejaVuSans-34"/>
      <use xlink:href="#DejaVuSans-30" x="63.623047"/>
      <use xlink:href="#DejaVuSans-20" x="127.246094"/>
      <use xlink:href="#DejaVuSans-4b" x="159.033203"/>
     </g>
    </g>
   </g>
  </g>
 </g>
 <defs>
  <clipPath id="p0088ec171c">
   <rect x="180" y="112.32" width="1116" height="720.72"/>
  </clipPath>
 </defs>
</svg>
