<?xml version="1.0" encoding="utf-8" standalone="no"?>
<!DOCTYPE svg PUBLIC "-//W3C//DTD SVG 1.1//EN"
  "http://www.w3.org/Graphics/SVG/1.1/DTD/svg11.dtd">
<svg xmlns:xlink="http://www.w3.org/1999/xlink" width="1440pt" height="864pt" viewBox="0 0 1440 864" xmlns="http://www.w3.org/2000/svg" version="1.1">
 <metadata>
  <rdf:RDF xmlns:dc="http://purl.org/dc/elements/1.1/" xmlns:cc="http://creativecommons.org/ns#" xmlns:rdf="http://www.w3.org/1999/02/22-rdf-syntax-ns#">
   <cc:Work>
    <dc:type rdf:resource="http://purl.org/dc/dcmitype/StillImage"/>
    <dc:date>2023-08-16T15:10:00.338616</dc:date>
    <dc:format>image/svg+xml</dc:format>
    <dc:creator>
     <cc:Agent>
      <dc:title>Matplotlib v3.6.1, https://matplotlib.org/</dc:title>
     </cc:Agent>
    </dc:creator>
   </cc:Work>
  </rdf:RDF>
 </metadata>
 <defs>
  <style type="text/css">*{stroke-linejoin: round; stroke-linecap: butt}</style>
 </defs>
 <g id="figure_1">
  <g id="patch_1">
   <path d="M 0 864 
L 1440 864 
L 1440 0 
L 0 0 
z
" style="fill: #ffffff"/>
  </g>
  <g id="axes_1">
   <g id="patch_2">
    <path d="M 180 768.96 
L 1296 768.96 
L 1296 103.68 
L 180 103.68 
z
" style="fill: #ffffff"/>
   </g>
   <g id="matplotlib.axis_1">
    <g id="xtick_1">
     <g id="line2d_1">
      <path d="M 180 768.96 
L 180 103.68 
" clip-path="url(#p2309bb0b72)" style="fill: none; stroke: #b0b0b0; stroke-width: 0.8; stroke-linecap: square"/>
     </g>
     <g id="line2d_2">
      <defs>
       <path id="m0a88dad692" d="M 0 0 
L 0 3.5 
" style="stroke: #000000; stroke-width: 0.8"/>
      </defs>
      <g>
       <use xlink:href="#m0a88dad692" x="180" y="768.96" style="stroke: #000000; stroke-width: 0.8"/>
      </g>
     </g>
     <g id="text_1">
      <!-- 30 -->
      <g transform="translate(167.275 791.156875) scale(0.2 -0.2)">
       <defs>
        <path id="DejaVuSans-33" d="M 2597 2516 
Q 3050 2419 3304 2112 
Q 3559 1806 3559 1356 
Q 3559 666 3084 287 
Q 2609 -91 1734 -91 
Q 1441 -91 1130 -33 
Q 819 25 488 141 
L 488 750 
Q 750 597 1062 519 
Q 1375 441 1716 441 
Q 2309 441 2620 675 
Q 2931 909 2931 1356 
Q 2931 1769 2642 2001 
Q 2353 2234 1838 2234 
L 1294 2234 
L 1294 2753 
L 1863 2753 
Q 2328 2753 2575 2939 
Q 2822 3125 2822 3475 
Q 2822 3834 2567 4026 
Q 2313 4219 1838 4219 
Q 1578 4219 1281 4162 
Q 984 4106 628 3988 
L 628 4550 
Q 988 4650 1302 4700 
Q 1616 4750 1894 4750 
Q 2613 4750 3031 4423 
Q 3450 4097 3450 3541 
Q 3450 3153 3228 2886 
Q 3006 2619 2597 2516 
z
" transform="scale(0.015625)"/>
        <path id="DejaVuSans-30" d="M 2034 4250 
Q 1547 4250 1301 3770 
Q 1056 3291 1056 2328 
Q 1056 1369 1301 889 
Q 1547 409 2034 409 
Q 2525 409 2770 889 
Q 3016 1369 3016 2328 
Q 3016 3291 2770 3770 
Q 2525 4250 2034 4250 
z
M 2034 4750 
Q 2819 4750 3233 4129 
Q 3647 3509 3647 2328 
Q 3647 1150 3233 529 
Q 2819 -91 2034 -91 
Q 1250 -91 836 529 
Q 422 1150 422 2328 
Q 422 3509 836 4129 
Q 1250 4750 2034 4750 
z
" transform="scale(0.015625)"/>
       </defs>
       <use xlink:href="#DejaVuSans-33"/>
       <use xlink:href="#DejaVuSans-30" x="63.623047"/>
      </g>
     </g>
    </g>
    <g id="xtick_2">
     <g id="line2d_3">
      <path d="M 328.8 768.96 
L 328.8 103.68 
" clip-path="url(#p2309bb0b72)" style="fill: none; stroke: #b0b0b0; stroke-width: 0.8; stroke-linecap: square"/>
     </g>
     <g id="line2d_4">
      <g>
       <use xlink:href="#m0a88dad692" x="328.8" y="768.96" style="stroke: #000000; stroke-width: 0.8"/>
      </g>
     </g>
     <g id="text_2">
      <!-- 32 -->
      <g transform="translate(316.075 791.156875) scale(0.2 -0.2)">
       <defs>
        <path id="DejaVuSans-32" d="M 1228 531 
L 3431 531 
L 3431 0 
L 469 0 
L 469 531 
Q 828 903 1448 1529 
Q 2069 2156 2228 2338 
Q 2531 2678 2651 2914 
Q 2772 3150 2772 3378 
Q 2772 3750 2511 3984 
Q 2250 4219 1831 4219 
Q 1534 4219 1204 4116 
Q 875 4013 500 3803 
L 500 4441 
Q 881 4594 1212 4672 
Q 1544 4750 1819 4750 
Q 2544 4750 2975 4387 
Q 3406 4025 3406 3419 
Q 3406 3131 3298 2873 
Q 3191 2616 2906 2266 
Q 2828 2175 2409 1742 
Q 1991 1309 1228 531 
z
" transform="scale(0.015625)"/>
       </defs>
       <use xlink:href="#DejaVuSans-33"/>
       <use xlink:href="#DejaVuSans-32" x="63.623047"/>
      </g>
     </g>
    </g>
    <g id="xtick_3">
     <g id="line2d_5">
      <path d="M 477.6 768.96 
L 477.6 103.68 
" clip-path="url(#p2309bb0b72)" style="fill: none; stroke: #b0b0b0; stroke-width: 0.8; stroke-linecap: square"/>
     </g>
     <g id="line2d_6">
      <g>
       <use xlink:href="#m0a88dad692" x="477.6" y="768.96" style="stroke: #000000; stroke-width: 0.8"/>
      </g>
     </g>
     <g id="text_3">
      <!-- 34 -->
      <g transform="translate(464.875 791.156875) scale(0.2 -0.2)">
       <defs>
        <path id="DejaVuSans-34" d="M 2419 4116 
L 825 1625 
L 2419 1625 
L 2419 4116 
z
M 2253 4666 
L 3047 4666 
L 3047 1625 
L 3713 1625 
L 3713 1100 
L 3047 1100 
L 3047 0 
L 2419 0 
L 2419 1100 
L 313 1100 
L 313 1709 
L 2253 4666 
z
" transform="scale(0.015625)"/>
       </defs>
       <use xlink:href="#DejaVuSans-33"/>
       <use xlink:href="#DejaVuSans-34" x="63.623047"/>
      </g>
     </g>
    </g>
    <g id="xtick_4">
     <g id="line2d_7">
      <path d="M 626.4 768.96 
L 626.4 103.68 
" clip-path="url(#p2309bb0b72)" style="fill: none; stroke: #b0b0b0; stroke-width: 0.8; stroke-linecap: square"/>
     </g>
     <g id="line2d_8">
      <g>
       <use xlink:href="#m0a88dad692" x="626.4" y="768.96" style="stroke: #000000; stroke-width: 0.8"/>
      </g>
     </g>
     <g id="text_4">
      <!-- 36 -->
      <g transform="translate(613.675 791.156875) scale(0.2 -0.2)">
       <defs>
        <path id="DejaVuSans-36" d="M 2113 2584 
Q 1688 2584 1439 2293 
Q 1191 2003 1191 1497 
Q 1191 994 1439 701 
Q 1688 409 2113 409 
Q 2538 409 2786 701 
Q 3034 994 3034 1497 
Q 3034 2003 2786 2293 
Q 2538 2584 2113 2584 
z
M 3366 4563 
L 3366 3988 
Q 3128 4100 2886 4159 
Q 2644 4219 2406 4219 
Q 1781 4219 1451 3797 
Q 1122 3375 1075 2522 
Q 1259 2794 1537 2939 
Q 1816 3084 2150 3084 
Q 2853 3084 3261 2657 
Q 3669 2231 3669 1497 
Q 3669 778 3244 343 
Q 2819 -91 2113 -91 
Q 1303 -91 875 529 
Q 447 1150 447 2328 
Q 447 3434 972 4092 
Q 1497 4750 2381 4750 
Q 2619 4750 2861 4703 
Q 3103 4656 3366 4563 
z
" transform="scale(0.015625)"/>
       </defs>
       <use xlink:href="#DejaVuSans-33"/>
       <use xlink:href="#DejaVuSans-36" x="63.623047"/>
      </g>
     </g>
    </g>
    <g id="xtick_5">
     <g id="line2d_9">
      <path d="M 775.2 768.96 
L 775.2 103.68 
" clip-path="url(#p2309bb0b72)" style="fill: none; stroke: #b0b0b0; stroke-width: 0.8; stroke-linecap: square"/>
     </g>
     <g id="line2d_10">
      <g>
       <use xlink:href="#m0a88dad692" x="775.2" y="768.96" style="stroke: #000000; stroke-width: 0.8"/>
      </g>
     </g>
     <g id="text_5">
      <!-- 38 -->
      <g transform="translate(762.475 791.156875) scale(0.2 -0.2)">
       <defs>
        <path id="DejaVuSans-38" d="M 2034 2216 
Q 1584 2216 1326 1975 
Q 1069 1734 1069 1313 
Q 1069 891 1326 650 
Q 1584 409 2034 409 
Q 2484 409 2743 651 
Q 3003 894 3003 1313 
Q 3003 1734 2745 1975 
Q 2488 2216 2034 2216 
z
M 1403 2484 
Q 997 2584 770 2862 
Q 544 3141 544 3541 
Q 544 4100 942 4425 
Q 1341 4750 2034 4750 
Q 2731 4750 3128 4425 
Q 3525 4100 3525 3541 
Q 3525 3141 3298 2862 
Q 3072 2584 2669 2484 
Q 3125 2378 3379 2068 
Q 3634 1759 3634 1313 
Q 3634 634 3220 271 
Q 2806 -91 2034 -91 
Q 1263 -91 848 271 
Q 434 634 434 1313 
Q 434 1759 690 2068 
Q 947 2378 1403 2484 
z
M 1172 3481 
Q 1172 3119 1398 2916 
Q 1625 2713 2034 2713 
Q 2441 2713 2670 2916 
Q 2900 3119 2900 3481 
Q 2900 3844 2670 4047 
Q 2441 4250 2034 4250 
Q 1625 4250 1398 4047 
Q 1172 3844 1172 3481 
z
" transform="scale(0.015625)"/>
       </defs>
       <use xlink:href="#DejaVuSans-33"/>
       <use xlink:href="#DejaVuSans-38" x="63.623047"/>
      </g>
     </g>
    </g>
    <g id="xtick_6">
     <g id="line2d_11">
      <path d="M 924 768.96 
L 924 103.68 
" clip-path="url(#p2309bb0b72)" style="fill: none; stroke: #b0b0b0; stroke-width: 0.8; stroke-linecap: square"/>
     </g>
     <g id="line2d_12">
      <g>
       <use xlink:href="#m0a88dad692" x="924" y="768.96" style="stroke: #000000; stroke-width: 0.8"/>
      </g>
     </g>
     <g id="text_6">
      <!-- 40 -->
      <g transform="translate(911.275 791.156875) scale(0.2 -0.2)">
       <use xlink:href="#DejaVuSans-34"/>
       <use xlink:href="#DejaVuSans-30" x="63.623047"/>
      </g>
     </g>
    </g>
    <g id="xtick_7">
     <g id="line2d_13">
      <path d="M 1072.8 768.96 
L 1072.8 103.68 
" clip-path="url(#p2309bb0b72)" style="fill: none; stroke: #b0b0b0; stroke-width: 0.8; stroke-linecap: square"/>
     </g>
     <g id="line2d_14">
      <g>
       <use xlink:href="#m0a88dad692" x="1072.8" y="768.96" style="stroke: #000000; stroke-width: 0.8"/>
      </g>
     </g>
     <g id="text_7">
      <!-- 42 -->
      <g transform="translate(1060.075 791.156875) scale(0.2 -0.2)">
       <use xlink:href="#DejaVuSans-34"/>
       <use xlink:href="#DejaVuSans-32" x="63.623047"/>
      </g>
     </g>
    </g>
    <g id="xtick_8">
     <g id="line2d_15">
      <path d="M 1221.6 768.96 
L 1221.6 103.68 
" clip-path="url(#p2309bb0b72)" style="fill: none; stroke: #b0b0b0; stroke-width: 0.8; stroke-linecap: square"/>
     </g>
     <g id="line2d_16">
      <g>
       <use xlink:href="#m0a88dad692" x="1221.6" y="768.96" style="stroke: #000000; stroke-width: 0.8"/>
      </g>
     </g>
     <g id="text_8">
      <!-- 44 -->
      <g transform="translate(1208.875 791.156875) scale(0.2 -0.2)">
       <use xlink:href="#DejaVuSans-34"/>
       <use xlink:href="#DejaVuSans-34" x="63.623047"/>
      </g>
     </g>
    </g>
    <g id="text_9">
     <!-- Gaskühlerdruck [bar] -->
     <g transform="translate(632.239063 814.513125) scale(0.2 -0.2)">
      <defs>
       <path id="DejaVuSans-47" d="M 3809 666 
L 3809 1919 
L 2778 1919 
L 2778 2438 
L 4434 2438 
L 4434 434 
Q 4069 175 3628 42 
Q 3188 -91 2688 -91 
Q 1594 -91 976 548 
Q 359 1188 359 2328 
Q 359 3472 976 4111 
Q 1594 4750 2688 4750 
Q 3144 4750 3555 4637 
Q 3966 4525 4313 4306 
L 4313 3634 
Q 3963 3931 3569 4081 
Q 3175 4231 2741 4231 
Q 1884 4231 1454 3753 
Q 1025 3275 1025 2328 
Q 1025 1384 1454 906 
Q 1884 428 2741 428 
Q 3075 428 3337 486 
Q 3600 544 3809 666 
z
" transform="scale(0.015625)"/>
       <path id="DejaVuSans-61" d="M 2194 1759 
Q 1497 1759 1228 1600 
Q 959 1441 959 1056 
Q 959 750 1161 570 
Q 1363 391 1709 391 
Q 2188 391 2477 730 
Q 2766 1069 2766 1631 
L 2766 1759 
L 2194 1759 
z
M 3341 1997 
L 3341 0 
L 2766 0 
L 2766 531 
Q 2569 213 2275 61 
Q 1981 -91 1556 -91 
Q 1019 -91 701 211 
Q 384 513 384 1019 
Q 384 1609 779 1909 
Q 1175 2209 1959 2209 
L 2766 2209 
L 2766 2266 
Q 2766 2663 2505 2880 
Q 2244 3097 1772 3097 
Q 1472 3097 1187 3025 
Q 903 2953 641 2809 
L 641 3341 
Q 956 3463 1253 3523 
Q 1550 3584 1831 3584 
Q 2591 3584 2966 3190 
Q 3341 2797 3341 1997 
z
" transform="scale(0.015625)"/>
       <path id="DejaVuSans-73" d="M 2834 3397 
L 2834 2853 
Q 2591 2978 2328 3040 
Q 2066 3103 1784 3103 
Q 1356 3103 1142 2972 
Q 928 2841 928 2578 
Q 928 2378 1081 2264 
Q 1234 2150 1697 2047 
L 1894 2003 
Q 2506 1872 2764 1633 
Q 3022 1394 3022 966 
Q 3022 478 2636 193 
Q 2250 -91 1575 -91 
Q 1294 -91 989 -36 
Q 684 19 347 128 
L 347 722 
Q 666 556 975 473 
Q 1284 391 1588 391 
Q 1994 391 2212 530 
Q 2431 669 2431 922 
Q 2431 1156 2273 1281 
Q 2116 1406 1581 1522 
L 1381 1569 
Q 847 1681 609 1914 
Q 372 2147 372 2553 
Q 372 3047 722 3315 
Q 1072 3584 1716 3584 
Q 2034 3584 2315 3537 
Q 2597 3491 2834 3397 
z
" transform="scale(0.015625)"/>
       <path id="DejaVuSans-6b" d="M 581 4863 
L 1159 4863 
L 1159 1991 
L 2875 3500 
L 3609 3500 
L 1753 1863 
L 3688 0 
L 2938 0 
L 1159 1709 
L 1159 0 
L 581 0 
L 581 4863 
z
" transform="scale(0.015625)"/>
       <path id="DejaVuSans-fc" d="M 544 1381 
L 544 3500 
L 1119 3500 
L 1119 1403 
Q 1119 906 1312 657 
Q 1506 409 1894 409 
Q 2359 409 2629 706 
Q 2900 1003 2900 1516 
L 2900 3500 
L 3475 3500 
L 3475 0 
L 2900 0 
L 2900 538 
Q 2691 219 2414 64 
Q 2138 -91 1772 -91 
Q 1169 -91 856 284 
Q 544 659 544 1381 
z
M 1991 3584 
L 1991 3584 
z
M 2278 4850 
L 2912 4850 
L 2912 4219 
L 2278 4219 
L 2278 4850 
z
M 1056 4850 
L 1690 4850 
L 1690 4219 
L 1056 4219 
L 1056 4850 
z
" transform="scale(0.015625)"/>
       <path id="DejaVuSans-68" d="M 3513 2113 
L 3513 0 
L 2938 0 
L 2938 2094 
Q 2938 2591 2744 2837 
Q 2550 3084 2163 3084 
Q 1697 3084 1428 2787 
Q 1159 2491 1159 1978 
L 1159 0 
L 581 0 
L 581 4863 
L 1159 4863 
L 1159 2956 
Q 1366 3272 1645 3428 
Q 1925 3584 2291 3584 
Q 2894 3584 3203 3211 
Q 3513 2838 3513 2113 
z
" transform="scale(0.015625)"/>
       <path id="DejaVuSans-6c" d="M 603 4863 
L 1178 4863 
L 1178 0 
L 603 0 
L 603 4863 
z
" transform="scale(0.015625)"/>
       <path id="DejaVuSans-65" d="M 3597 1894 
L 3597 1613 
L 953 1613 
Q 991 1019 1311 708 
Q 1631 397 2203 397 
Q 2534 397 2845 478 
Q 3156 559 3463 722 
L 3463 178 
Q 3153 47 2828 -22 
Q 2503 -91 2169 -91 
Q 1331 -91 842 396 
Q 353 884 353 1716 
Q 353 2575 817 3079 
Q 1281 3584 2069 3584 
Q 2775 3584 3186 3129 
Q 3597 2675 3597 1894 
z
M 3022 2063 
Q 3016 2534 2758 2815 
Q 2500 3097 2075 3097 
Q 1594 3097 1305 2825 
Q 1016 2553 972 2059 
L 3022 2063 
z
" transform="scale(0.015625)"/>
       <path id="DejaVuSans-72" d="M 2631 2963 
Q 2534 3019 2420 3045 
Q 2306 3072 2169 3072 
Q 1681 3072 1420 2755 
Q 1159 2438 1159 1844 
L 1159 0 
L 581 0 
L 581 3500 
L 1159 3500 
L 1159 2956 
Q 1341 3275 1631 3429 
Q 1922 3584 2338 3584 
Q 2397 3584 2469 3576 
Q 2541 3569 2628 3553 
L 2631 2963 
z
" transform="scale(0.015625)"/>
       <path id="DejaVuSans-64" d="M 2906 2969 
L 2906 4863 
L 3481 4863 
L 3481 0 
L 2906 0 
L 2906 525 
Q 2725 213 2448 61 
Q 2172 -91 1784 -91 
Q 1150 -91 751 415 
Q 353 922 353 1747 
Q 353 2572 751 3078 
Q 1150 3584 1784 3584 
Q 2172 3584 2448 3432 
Q 2725 3281 2906 2969 
z
M 947 1747 
Q 947 1113 1208 752 
Q 1469 391 1925 391 
Q 2381 391 2643 752 
Q 2906 1113 2906 1747 
Q 2906 2381 2643 2742 
Q 2381 3103 1925 3103 
Q 1469 3103 1208 2742 
Q 947 2381 947 1747 
z
" transform="scale(0.015625)"/>
       <path id="DejaVuSans-75" d="M 544 1381 
L 544 3500 
L 1119 3500 
L 1119 1403 
Q 1119 906 1312 657 
Q 1506 409 1894 409 
Q 2359 409 2629 706 
Q 2900 1003 2900 1516 
L 2900 3500 
L 3475 3500 
L 3475 0 
L 2900 0 
L 2900 538 
Q 2691 219 2414 64 
Q 2138 -91 1772 -91 
Q 1169 -91 856 284 
Q 544 659 544 1381 
z
M 1991 3584 
L 1991 3584 
z
" transform="scale(0.015625)"/>
       <path id="DejaVuSans-63" d="M 3122 3366 
L 3122 2828 
Q 2878 2963 2633 3030 
Q 2388 3097 2138 3097 
Q 1578 3097 1268 2742 
Q 959 2388 959 1747 
Q 959 1106 1268 751 
Q 1578 397 2138 397 
Q 2388 397 2633 464 
Q 2878 531 3122 666 
L 3122 134 
Q 2881 22 2623 -34 
Q 2366 -91 2075 -91 
Q 1284 -91 818 406 
Q 353 903 353 1747 
Q 353 2603 823 3093 
Q 1294 3584 2113 3584 
Q 2378 3584 2631 3529 
Q 2884 3475 3122 3366 
z
" transform="scale(0.015625)"/>
       <path id="DejaVuSans-20" transform="scale(0.015625)"/>
       <path id="DejaVuSans-5b" d="M 550 4863 
L 1875 4863 
L 1875 4416 
L 1125 4416 
L 1125 -397 
L 1875 -397 
L 1875 -844 
L 550 -844 
L 550 4863 
z
" transform="scale(0.015625)"/>
       <path id="DejaVuSans-62" d="M 3116 1747 
Q 3116 2381 2855 2742 
Q 2594 3103 2138 3103 
Q 1681 3103 1420 2742 
Q 1159 2381 1159 1747 
Q 1159 1113 1420 752 
Q 1681 391 2138 391 
Q 2594 391 2855 752 
Q 3116 1113 3116 1747 
z
M 1159 2969 
Q 1341 3281 1617 3432 
Q 1894 3584 2278 3584 
Q 2916 3584 3314 3078 
Q 3713 2572 3713 1747 
Q 3713 922 3314 415 
Q 2916 -91 2278 -91 
Q 1894 -91 1617 61 
Q 1341 213 1159 525 
L 1159 0 
L 581 0 
L 581 4863 
L 1159 4863 
L 1159 2969 
z
" transform="scale(0.015625)"/>
       <path id="DejaVuSans-5d" d="M 1947 4863 
L 1947 -844 
L 622 -844 
L 622 -397 
L 1369 -397 
L 1369 4416 
L 622 4416 
L 622 4863 
L 1947 4863 
z
" transform="scale(0.015625)"/>
      </defs>
      <use xlink:href="#DejaVuSans-47"/>
      <use xlink:href="#DejaVuSans-61" x="77.490234"/>
      <use xlink:href="#DejaVuSans-73" x="138.769531"/>
      <use xlink:href="#DejaVuSans-6b" x="190.869141"/>
      <use xlink:href="#DejaVuSans-fc" x="245.654297"/>
      <use xlink:href="#DejaVuSans-68" x="309.033203"/>
      <use xlink:href="#DejaVuSans-6c" x="372.412109"/>
      <use xlink:href="#DejaVuSans-65" x="400.195312"/>
      <use xlink:href="#DejaVuSans-72" x="461.71875"/>
      <use xlink:href="#DejaVuSans-64" x="501.082031"/>
      <use xlink:href="#DejaVuSans-72" x="564.558594"/>
      <use xlink:href="#DejaVuSans-75" x="605.671875"/>
      <use xlink:href="#DejaVuSans-63" x="669.050781"/>
      <use xlink:href="#DejaVuSans-6b" x="724.03125"/>
      <use xlink:href="#DejaVuSans-20" x="781.941406"/>
      <use xlink:href="#DejaVuSans-5b" x="813.728516"/>
      <use xlink:href="#DejaVuSans-62" x="852.742188"/>
      <use xlink:href="#DejaVuSans-61" x="916.21875"/>
      <use xlink:href="#DejaVuSans-72" x="977.498047"/>
      <use xlink:href="#DejaVuSans-5d" x="1018.611328"/>
     </g>
    </g>
   </g>
   <g id="matplotlib.axis_2">
    <g id="ytick_1">
     <g id="line2d_17">
      <path d="M 180 650.401659 
L 1296 650.401659 
" clip-path="url(#p2309bb0b72)" style="fill: none; stroke: #b0b0b0; stroke-width: 0.8; stroke-linecap: square"/>
     </g>
     <g id="line2d_18">
      <defs>
       <path id="m71e598c382" d="M 0 0 
L -3.5 0 
" style="stroke: #000000; stroke-width: 0.8"/>
      </defs>
      <g>
       <use xlink:href="#m71e598c382" x="180" y="650.401659" style="stroke: #000000; stroke-width: 0.8"/>
      </g>
     </g>
     <g id="text_10">
      <!-- 66 -->
      <g transform="translate(147.55 658.000096) scale(0.2 -0.2)">
       <use xlink:href="#DejaVuSans-36"/>
       <use xlink:href="#DejaVuSans-36" x="63.623047"/>
      </g>
     </g>
    </g>
    <g id="ytick_2">
     <g id="line2d_19">
      <path d="M 180 512.142515 
L 1296 512.142515 
" clip-path="url(#p2309bb0b72)" style="fill: none; stroke: #b0b0b0; stroke-width: 0.8; stroke-linecap: square"/>
     </g>
     <g id="line2d_20">
      <g>
       <use xlink:href="#m71e598c382" x="180" y="512.142515" style="stroke: #000000; stroke-width: 0.8"/>
      </g>
     </g>
     <g id="text_11">
      <!-- 68 -->
      <g transform="translate(147.55 519.740952) scale(0.2 -0.2)">
       <use xlink:href="#DejaVuSans-36"/>
       <use xlink:href="#DejaVuSans-38" x="63.623047"/>
      </g>
     </g>
    </g>
    <g id="ytick_3">
     <g id="line2d_21">
      <path d="M 180 373.883371 
L 1296 373.883371 
" clip-path="url(#p2309bb0b72)" style="fill: none; stroke: #b0b0b0; stroke-width: 0.8; stroke-linecap: square"/>
     </g>
     <g id="line2d_22">
      <g>
       <use xlink:href="#m71e598c382" x="180" y="373.883371" style="stroke: #000000; stroke-width: 0.8"/>
      </g>
     </g>
     <g id="text_12">
      <!-- 70 -->
      <g transform="translate(147.55 381.481808) scale(0.2 -0.2)">
       <defs>
        <path id="DejaVuSans-37" d="M 525 4666 
L 3525 4666 
L 3525 4397 
L 1831 0 
L 1172 0 
L 2766 4134 
L 525 4134 
L 525 4666 
z
" transform="scale(0.015625)"/>
       </defs>
       <use xlink:href="#DejaVuSans-37"/>
       <use xlink:href="#DejaVuSans-30" x="63.623047"/>
      </g>
     </g>
    </g>
    <g id="ytick_4">
     <g id="line2d_23">
      <path d="M 180 235.624227 
L 1296 235.624227 
" clip-path="url(#p2309bb0b72)" style="fill: none; stroke: #b0b0b0; stroke-width: 0.8; stroke-linecap: square"/>
     </g>
     <g id="line2d_24">
      <g>
       <use xlink:href="#m71e598c382" x="180" y="235.624227" style="stroke: #000000; stroke-width: 0.8"/>
      </g>
     </g>
     <g id="text_13">
      <!-- 72 -->
      <g transform="translate(147.55 243.222664) scale(0.2 -0.2)">
       <use xlink:href="#DejaVuSans-37"/>
       <use xlink:href="#DejaVuSans-32" x="63.623047"/>
      </g>
     </g>
    </g>
    <g id="text_14">
     <!-- exergetischer Wirkungsgrad [%] -->
     <g transform="translate(139.390625 597.362187) rotate(-90) scale(0.2 -0.2)">
      <defs>
       <path id="DejaVuSans-78" d="M 3513 3500 
L 2247 1797 
L 3578 0 
L 2900 0 
L 1881 1375 
L 863 0 
L 184 0 
L 1544 1831 
L 300 3500 
L 978 3500 
L 1906 2253 
L 2834 3500 
L 3513 3500 
z
" transform="scale(0.015625)"/>
       <path id="DejaVuSans-67" d="M 2906 1791 
Q 2906 2416 2648 2759 
Q 2391 3103 1925 3103 
Q 1463 3103 1205 2759 
Q 947 2416 947 1791 
Q 947 1169 1205 825 
Q 1463 481 1925 481 
Q 2391 481 2648 825 
Q 2906 1169 2906 1791 
z
M 3481 434 
Q 3481 -459 3084 -895 
Q 2688 -1331 1869 -1331 
Q 1566 -1331 1297 -1286 
Q 1028 -1241 775 -1147 
L 775 -588 
Q 1028 -725 1275 -790 
Q 1522 -856 1778 -856 
Q 2344 -856 2625 -561 
Q 2906 -266 2906 331 
L 2906 616 
Q 2728 306 2450 153 
Q 2172 0 1784 0 
Q 1141 0 747 490 
Q 353 981 353 1791 
Q 353 2603 747 3093 
Q 1141 3584 1784 3584 
Q 2172 3584 2450 3431 
Q 2728 3278 2906 2969 
L 2906 3500 
L 3481 3500 
L 3481 434 
z
" transform="scale(0.015625)"/>
       <path id="DejaVuSans-74" d="M 1172 4494 
L 1172 3500 
L 2356 3500 
L 2356 3053 
L 1172 3053 
L 1172 1153 
Q 1172 725 1289 603 
Q 1406 481 1766 481 
L 2356 481 
L 2356 0 
L 1766 0 
Q 1100 0 847 248 
Q 594 497 594 1153 
L 594 3053 
L 172 3053 
L 172 3500 
L 594 3500 
L 594 4494 
L 1172 4494 
z
" transform="scale(0.015625)"/>
       <path id="DejaVuSans-69" d="M 603 3500 
L 1178 3500 
L 1178 0 
L 603 0 
L 603 3500 
z
M 603 4863 
L 1178 4863 
L 1178 4134 
L 603 4134 
L 603 4863 
z
" transform="scale(0.015625)"/>
       <path id="DejaVuSans-57" d="M 213 4666 
L 850 4666 
L 1831 722 
L 2809 4666 
L 3519 4666 
L 4500 722 
L 5478 4666 
L 6119 4666 
L 4947 0 
L 4153 0 
L 3169 4050 
L 2175 0 
L 1381 0 
L 213 4666 
z
" transform="scale(0.015625)"/>
       <path id="DejaVuSans-6e" d="M 3513 2113 
L 3513 0 
L 2938 0 
L 2938 2094 
Q 2938 2591 2744 2837 
Q 2550 3084 2163 3084 
Q 1697 3084 1428 2787 
Q 1159 2491 1159 1978 
L 1159 0 
L 581 0 
L 581 3500 
L 1159 3500 
L 1159 2956 
Q 1366 3272 1645 3428 
Q 1925 3584 2291 3584 
Q 2894 3584 3203 3211 
Q 3513 2838 3513 2113 
z
" transform="scale(0.015625)"/>
       <path id="DejaVuSans-25" d="M 4653 2053 
Q 4381 2053 4226 1822 
Q 4072 1591 4072 1178 
Q 4072 772 4226 539 
Q 4381 306 4653 306 
Q 4919 306 5073 539 
Q 5228 772 5228 1178 
Q 5228 1588 5073 1820 
Q 4919 2053 4653 2053 
z
M 4653 2450 
Q 5147 2450 5437 2106 
Q 5728 1763 5728 1178 
Q 5728 594 5436 251 
Q 5144 -91 4653 -91 
Q 4153 -91 3862 251 
Q 3572 594 3572 1178 
Q 3572 1766 3864 2108 
Q 4156 2450 4653 2450 
z
M 1428 4353 
Q 1159 4353 1004 4120 
Q 850 3888 850 3481 
Q 850 3069 1003 2837 
Q 1156 2606 1428 2606 
Q 1700 2606 1854 2837 
Q 2009 3069 2009 3481 
Q 2009 3884 1853 4118 
Q 1697 4353 1428 4353 
z
M 4250 4750 
L 4750 4750 
L 1831 -91 
L 1331 -91 
L 4250 4750 
z
M 1428 4750 
Q 1922 4750 2215 4408 
Q 2509 4066 2509 3481 
Q 2509 2891 2217 2550 
Q 1925 2209 1428 2209 
Q 931 2209 642 2551 
Q 353 2894 353 3481 
Q 353 4063 643 4406 
Q 934 4750 1428 4750 
z
" transform="scale(0.015625)"/>
      </defs>
      <use xlink:href="#DejaVuSans-65"/>
      <use xlink:href="#DejaVuSans-78" x="59.773438"/>
      <use xlink:href="#DejaVuSans-65" x="115.828125"/>
      <use xlink:href="#DejaVuSans-72" x="177.351562"/>
      <use xlink:href="#DejaVuSans-67" x="216.714844"/>
      <use xlink:href="#DejaVuSans-65" x="280.191406"/>
      <use xlink:href="#DejaVuSans-74" x="341.714844"/>
      <use xlink:href="#DejaVuSans-69" x="380.923828"/>
      <use xlink:href="#DejaVuSans-73" x="408.707031"/>
      <use xlink:href="#DejaVuSans-63" x="460.806641"/>
      <use xlink:href="#DejaVuSans-68" x="515.787109"/>
      <use xlink:href="#DejaVuSans-65" x="579.166016"/>
      <use xlink:href="#DejaVuSans-72" x="640.689453"/>
      <use xlink:href="#DejaVuSans-20" x="681.802734"/>
      <use xlink:href="#DejaVuSans-57" x="713.589844"/>
      <use xlink:href="#DejaVuSans-69" x="810.216797"/>
      <use xlink:href="#DejaVuSans-72" x="838"/>
      <use xlink:href="#DejaVuSans-6b" x="879.113281"/>
      <use xlink:href="#DejaVuSans-75" x="933.898438"/>
      <use xlink:href="#DejaVuSans-6e" x="997.277344"/>
      <use xlink:href="#DejaVuSans-67" x="1060.65625"/>
      <use xlink:href="#DejaVuSans-73" x="1124.132812"/>
      <use xlink:href="#DejaVuSans-67" x="1176.232422"/>
      <use xlink:href="#DejaVuSans-72" x="1239.708984"/>
      <use xlink:href="#DejaVuSans-61" x="1280.822266"/>
      <use xlink:href="#DejaVuSans-64" x="1342.101562"/>
      <use xlink:href="#DejaVuSans-20" x="1405.578125"/>
      <use xlink:href="#DejaVuSans-5b" x="1437.365234"/>
      <use xlink:href="#DejaVuSans-25" x="1476.378906"/>
      <use xlink:href="#DejaVuSans-5d" x="1571.398438"/>
     </g>
    </g>
   </g>
   <g id="line2d_25">
    <path d="M 239.52 642.577463 
L 295.124211 640.911479 
L 350.728421 642.125576 
L 406.332632 645.118146 
L 461.936842 649.260428 
L 517.541053 654.165049 
L 573.145263 659.580543 
L 628.749474 665.337444 
L 684.353684 671.318354 
L 739.957895 677.440264 
L 795.562105 683.643577 
L 851.166316 689.88504 
L 906.770526 696.133048 
L 962.374737 702.364432 
L 1017.978947 708.562226 
L 1073.583158 714.714077 
L 1129.187368 720.811095 
L 1184.791579 726.847014 
L 1240.395789 732.817563 
L 1296 738.72 
" clip-path="url(#p2309bb0b72)" style="fill: none; stroke: #000000; stroke-width: 1.5; stroke-linecap: square"/>
   </g>
   <g id="line2d_26">
    <path d="M 269.28 381.361902 
L 323.317895 387.616268 
L 377.355789 395.364615 
L 431.393684 403.957844 
L 485.431579 413.016338 
L 539.469474 422.306072 
L 593.507368 431.67789 
L 647.545263 441.034895 
L 701.583158 450.313698 
L 755.621053 459.473056 
L 809.658947 468.486702 
L 863.696842 477.338657 
L 917.734737 486.020091 
L 971.772632 494.527161 
L 1025.810526 502.85951 
L 1079.848421 511.019192 
L 1133.886316 519.009916 
L 1187.924211 526.836489 
L 1241.962105 534.504416 
L 1296 542.019612 
" clip-path="url(#p2309bb0b72)" style="fill: none; stroke: #000000; stroke-width: 1.5; stroke-linecap: square"/>
   </g>
   <g id="line2d_27">
    <path d="M 239.52 188.228226 
L 295.124211 201.474895 
L 350.728421 215.729112 
L 406.332632 230.325718 
L 461.936842 244.916824 
L 517.541053 259.311106 
L 573.145263 273.401964 
L 628.749474 287.131567 
L 684.353684 300.471359 
L 739.957895 313.410828 
L 795.562105 325.950743 
L 851.166316 338.098931 
L 906.770526 349.867573 
L 962.374737 361.271441 
L 1017.978947 372.326721 
L 1073.583158 383.050235 
L 1129.187368 393.45892 
L 1184.791579 403.569472 
L 1240.395789 413.398126 
L 1296 422.960501 
" clip-path="url(#p2309bb0b72)" style="fill: none; stroke: #000000; stroke-width: 1.5; stroke-linecap: square"/>
   </g>
   <g id="line2d_28">
    <path d="M 191.904 133.92 
L 206.821671 138.259396 
L 221.739342 142.74649 
L 236.657013 147.342091 
L 251.574684 152.016173 
L 266.492354 156.745352 
L 281.410025 161.51117 
L 296.327696 166.298895 
L 311.245367 171.096664 
L 326.163038 175.894853 
L 341.080709 180.685611 
L 355.99838 185.462503 
L 370.916051 190.220242 
L 385.833722 194.954473 
L 400.751392 199.66161 
L 415.669063 204.3387 
L 430.586734 208.983319 
L 445.504405 213.593486 
L 460.422076 218.167591 
L 475.339747 222.704336 
L 490.257418 227.202693 
L 505.175089 231.661857 
L 520.092759 236.081217 
L 535.01043 240.460327 
L 549.928101 244.798883 
L 564.845772 249.096702 
L 579.763443 253.353703 
L 594.681114 257.569897 
L 609.598785 261.745371 
L 624.516456 265.880279 
L 639.434127 269.974829 
L 654.351797 274.02928 
L 669.269468 278.043933 
L 684.187139 282.019122 
L 699.10481 285.955215 
L 714.022481 289.852603 
L 728.940152 293.711699 
L 743.857823 297.532934 
L 758.775494 301.316755 
L 773.693165 305.06362 
L 788.610835 308.773998 
L 803.528506 312.448365 
L 818.446177 316.087203 
L 833.363848 319.690998 
L 848.281519 323.26024 
L 863.19919 326.795419 
L 878.116861 330.297027 
L 893.034532 333.765555 
L 907.952203 337.201492 
L 922.869873 340.605325 
L 937.787544 343.977541 
L 952.705215 347.318619 
L 967.622886 350.629038 
L 982.540557 353.909272 
L 997.458228 357.159789 
L 1012.375899 360.381053 
L 1027.29357 363.573523 
L 1042.211241 366.737653 
L 1057.128911 369.87389 
L 1072.046582 372.982676 
L 1086.964253 376.064448 
L 1101.881924 379.119634 
L 1116.799595 382.14866 
L 1131.717266 385.151943 
L 1146.634937 388.129894 
L 1161.552608 391.082918 
L 1176.470278 394.011415 
L 1191.387949 396.915776 
L 1206.30562 399.796387 
L 1221.223291 402.65363 
L 1236.140962 405.487877 
L 1251.058633 408.299495 
L 1265.976304 411.088847 
L 1280.893975 413.856286 
L 1295.811646 416.602162 
L 1310.729316 419.326818 
L 1325.646987 422.030591 
L 1340.564658 424.713811 
L 1355.482329 427.376804 
L 1370.4 430.019889 
" clip-path="url(#p2309bb0b72)" style="fill: none; stroke: #000000; stroke-width: 1.5; stroke-linecap: square"/>
   </g>
   <g id="line2d_29">
    <path d="M 486.538982 651.353739 
L 488.532685 635.445248 
L 490.329212 619.915878 
L 491.937093 604.757488 
L 493.364202 589.962369 
L 494.617811 575.523205 
L 495.704652 561.43304 
L 496.630958 547.685248 
L 497.402514 534.273507 
L 498.024688 521.191772 
L 498.502471 508.434258 
L 498.840508 495.995414 
L 499.043121 483.869911 
L 499.114344 472.052619 
L 499.057935 460.538599 
L 498.877406 449.32308 
L 498.576038 438.40146 
L 498.156898 427.769282 
L 497.622858 417.422228 
L 496.976604 407.356112 
L 496.220657 397.566869 
L 495.357379 388.050549 
L 494.388987 378.803302 
L 493.317563 369.821386 
L 492.145064 361.101152 
L 490.87333 352.639036 
L 489.504096 344.431565 
L 488.038993 336.475338 
L 486.479564 328.767039 
L 484.827264 321.30342 
L 483.083469 314.08131 
L 481.249486 307.097598 
L 479.326552 300.349247 
L 477.315848 293.833282 
L 475.218496 287.546793 
L 473.035574 281.486932 
L 470.768114 275.650907 
L 468.417113 270.035996 
L 465.983533 264.639532 
L 463.468312 259.458916 
L 460.872368 254.491601 
L 458.196604 249.735109 
L 455.441914 245.187023 
L 452.60919 240.844993 
L 449.69933 236.706732 
L 446.713242 232.770024 
L 443.651855 229.032721 
L 440.516123 225.492752 
L 437.307039 222.148115 
L 434.025636 218.996895 
L 430.673008 216.037258 
L 427.250309 213.267457 
L 423.758775 210.68584 
L 420.199731 208.290852 
L 416.574608 206.081046 
L 412.884959 204.055086 
L 409.132474 202.211755 
L 405.319004 200.549969 
L 401.44658 199.068778 
L 397.51744 197.767393 
L 393.534057 196.64518 
L 389.499168 195.701692 
L 385.415815 194.936671 
L 381.287382 194.350082 
L 377.117649 193.942117 
L 372.910839 193.71324 
L 368.671691 193.664207 
L 364.405528 193.79609 
L 360.118352 194.110336 
L 355.816943 194.608803 
L 351.508989 195.293818 
L 347.203239 196.168239 
L 342.909682 197.235543 
L 338.639781 198.499919 
L 334.406754 199.96639 
L 330.225931 201.640972 
L 326.115213 203.530855 
L 322.095664 205.644661 
L 318.192298 207.992767 
L 314.43513 210.587741 
" clip-path="url(#p2309bb0b72)" style="fill: none; stroke-dasharray: 5.55,2.4; stroke-dashoffset: 0; stroke: #ff0000; stroke-width: 1.5"/>
   </g>
   <g id="line2d_30">
    <path d="M 742.134589 677.681896 
L 743.676199 662.748168 
L 745.023702 648.183791 
L 746.184724 633.980783 
L 747.166329 620.131535 
L 747.975072 606.628778 
L 748.617036 593.465561 
L 749.097874 580.635229 
L 749.422842 568.131403 
L 749.596831 555.947956 
L 749.624394 544.079002 
L 749.509774 532.518874 
L 749.256924 521.262114 
L 748.869531 510.303451 
L 748.351033 499.637803 
L 747.704635 489.260247 
L 746.933331 479.166026 
L 746.039912 469.350528 
L 745.026981 459.809278 
L 743.896968 450.537935 
L 742.652137 441.532279 
L 741.2946 432.788209 
L 739.826324 424.301726 
L 738.249141 416.06894 
L 736.564754 408.086062 
L 734.77475 400.349388 
L 732.880598 392.85531 
L 730.883665 385.600294 
L 728.785216 378.580894 
L 726.586421 371.793738 
L 724.288362 365.235528 
L 721.892036 358.903033 
L 719.398362 352.793094 
L 716.808184 346.902615 
L 714.122275 341.228564 
L 711.341343 335.767972 
L 708.466037 330.517926 
L 705.496946 325.475575 
L 702.434606 320.638126 
L 699.279506 316.002844 
L 696.03209 311.567045 
L 692.69276 307.328104 
L 689.261885 303.283454 
L 685.739801 299.43058 
L 682.126819 295.767025 
L 678.423227 292.290391 
L 674.629299 288.998335 
L 670.7453 285.888575 
L 666.77149 282.958887 
L 662.708134 280.207114 
L 658.555507 277.631159 
L 654.313906 275.228998 
L 649.983655 272.998675 
L 645.56512 270.938307 
L 641.058718 269.046095 
L 636.464929 267.320319 
L 631.784316 265.759351 
L 627.017534 264.36166 
L 622.16536 263.125816 
L 617.228702 262.050509 
L 612.208638 261.134544 
L 607.106433 260.376866 
L 601.923582 259.776567 
L 596.661843 259.332905 
L 591.323286 259.045313 
L 585.910345 258.913441 
L 580.425883 258.937162 
L 574.873265 259.116604 
L 569.25645 259.452198 
L 563.580095 259.944712 
L 557.849686 260.595299 
L 552.071699 261.405563 
L 546.253788 262.377633 
L 540.40503 263.514254 
L 534.536224 264.818903 
L 528.660272 266.295936 
L 522.792669 267.950765 
L 516.952134 269.790102 
L 511.161457 271.822265 
L 505.44862 274.057599 
" clip-path="url(#p2309bb0b72)" style="fill: none; stroke-dasharray: 5.55,2.4; stroke-dashoffset: 0; stroke: #ffa500; stroke-width: 1.5"/>
   </g>
   <g id="line2d_31">
    <path d="M 1020.449322 708.836592 
L 1021.750479 694.649809 
L 1022.842644 680.826626 
L 1023.733434 667.359043 
L 1024.42995 654.2394 
L 1024.93882 641.46035 
L 1025.266236 629.01484 
L 1025.417983 616.896093 
L 1025.399472 605.097588 
L 1025.215763 593.613049 
L 1024.871593 582.436426 
L 1024.371397 571.561886 
L 1023.719326 560.983796 
L 1022.919269 550.696712 
L 1021.974866 540.695373 
L 1020.889527 530.974681 
L 1019.666443 521.529705 
L 1018.308602 512.355663 
L 1016.818797 503.447911 
L 1015.199642 494.801948 
L 1013.453576 486.413395 
L 1011.582877 478.277999 
L 1009.589669 470.391617 
L 1007.47593 462.750219 
L 1005.243498 455.349881 
L 1002.89408 448.186774 
L 1000.429256 441.257167 
L 997.850486 434.557415 
L 995.159117 428.08396 
L 992.356383 421.833327 
L 989.443415 415.802123 
L 986.421244 409.987022 
L 983.290802 404.38478 
L 980.052931 398.992216 
L 976.708381 393.806219 
L 973.25782 388.823744 
L 969.701832 384.041805 
L 966.040923 379.45748 
L 962.275522 375.067906 
L 958.405988 370.870278 
L 954.43261 366.861845 
L 950.355609 363.039914 
L 946.175147 359.401844 
L 941.891324 355.94505 
L 937.504184 352.666997 
L 933.01372 349.565207 
L 928.419874 346.63725 
L 923.722547 343.880754 
L 918.921597 341.293394 
L 914.016851 338.872904 
L 909.008102 336.61707 
L 903.895124 334.523735 
L 898.677671 332.5908 
L 893.355492 330.816224 
L 887.928335 329.198031 
L 882.395956 327.734307 
L 876.758137 326.42321 
L 871.014693 325.262968 
L 865.16549 324.251887 
L 859.210462 323.388364 
L 853.149633 322.670877 
L 846.983141 322.098012 
L 840.711265 321.668458 
L 834.334462 321.381031 
L 827.853403 321.234674 
L 821.269022 321.228489 
L 814.582575 321.361747 
L 807.795703 321.633906 
L 800.910518 322.044653 
L 793.929701 322.593932 
L 786.856624 323.28198 
L 779.695497 324.109381 
L 772.451559 325.077132 
L 765.131301 326.186713 
L 757.742769 327.440188 
L 750.295926 328.840331 
L 742.803144 330.390777 
L 735.279826 332.096231 
L 727.745248 333.96274 
L 720.223691 335.998054 
" clip-path="url(#p2309bb0b72)" style="fill: none; stroke-dasharray: 5.55,2.4; stroke-dashoffset: 0; stroke: #008000; stroke-width: 1.5"/>
   </g>
   <g id="line2d_32">
    <path d="M 1335.689362 735.277878 
L 1341.30359 682.881979 
L 1340.32564 632.654124 
L 1335.701041 588.233799 
L 1327.833203 549.146156 
L 1317.035899 514.977941 
L 1303.550989 485.365222 
L 1287.560851 459.984204 
L 1269.197296 438.544223 
L 1248.548095 420.782398 
L 1225.661934 406.459581 
L 1200.552565 395.357448 
L 1173.203011 387.276722 
L 1143.571191 382.036724 
L 1111.59947 379.476832 
L 1077.2334 379.461306 
L 1040.461867 381.890839 
L 1001.410151 386.729879 
L 960.580585 394.076104 
L 919.599643 404.371564 
" clip-path="url(#p2309bb0b72)" style="fill: none; stroke-dasharray: 5.55,2.4; stroke-dashoffset: 0; stroke: #4682b4; stroke-width: 1.5"/>
   </g>
   <g id="line2d_33">
    <path d="M 486.538982 651.353739 
" clip-path="url(#p2309bb0b72)" style="fill: none; stroke: #000000; stroke-width: 1.5; stroke-linecap: square"/>
    <defs>
     <path id="m4c03f1d9fd" d="M -6 6 
L 6 -6 
M -6 -6 
L 6 6 
" style="stroke: #000000"/>
    </defs>
    <g clip-path="url(#p2309bb0b72)">
     <use xlink:href="#m4c03f1d9fd" x="486.538982" y="651.353739" style="stroke: #000000"/>
    </g>
   </g>
   <g id="line2d_34">
    <path d="M 497.688 415.361114 
" clip-path="url(#p2309bb0b72)" style="fill: none; stroke: #000000; stroke-width: 1.5; stroke-linecap: square"/>
    <g clip-path="url(#p2309bb0b72)">
     <use xlink:href="#m4c03f1d9fd" x="497.688" y="415.361114" style="stroke: #000000"/>
    </g>
   </g>
   <g id="line2d_35">
    <path d="M 453.792 242.537184 
" clip-path="url(#p2309bb0b72)" style="fill: none; stroke: #000000; stroke-width: 1.5; stroke-linecap: square"/>
    <g clip-path="url(#p2309bb0b72)">
     <use xlink:href="#m4c03f1d9fd" x="453.792" y="242.537184" style="stroke: #000000"/>
    </g>
   </g>
   <g id="line2d_36">
    <path d="M 386.832 194.837779 
" clip-path="url(#p2309bb0b72)" style="fill: none; stroke: #000000; stroke-width: 1.5; stroke-linecap: square"/>
    <g clip-path="url(#p2309bb0b72)">
     <use xlink:href="#m4c03f1d9fd" x="386.832" y="194.837779" style="stroke: #000000"/>
    </g>
   </g>
   <g id="line2d_37">
    <path d="M 742.134589 677.681896 
" clip-path="url(#p2309bb0b72)" style="fill: none; stroke: #000000; stroke-width: 1.5; stroke-linecap: square"/>
    <g clip-path="url(#p2309bb0b72)">
     <use xlink:href="#m4c03f1d9fd" x="742.134589" y="677.681896" style="stroke: #000000"/>
    </g>
   </g>
   <g id="line2d_38">
    <path d="M 744.696 457.530153 
" clip-path="url(#p2309bb0b72)" style="fill: none; stroke: #000000; stroke-width: 1.5; stroke-linecap: square"/>
    <g clip-path="url(#p2309bb0b72)">
     <use xlink:href="#m4c03f1d9fd" x="744.696" y="457.530153" style="stroke: #000000"/>
    </g>
   </g>
   <g id="line2d_39">
    <path d="M 687.408 301.29732 
" clip-path="url(#p2309bb0b72)" style="fill: none; stroke: #000000; stroke-width: 1.5; stroke-linecap: square"/>
    <g clip-path="url(#p2309bb0b72)">
     <use xlink:href="#m4c03f1d9fd" x="687.408" y="301.29732" style="stroke: #000000"/>
    </g>
   </g>
   <g id="line2d_40">
    <path d="M 603.336 259.819577 
" clip-path="url(#p2309bb0b72)" style="fill: none; stroke: #000000; stroke-width: 1.5; stroke-linecap: square"/>
    <g clip-path="url(#p2309bb0b72)">
     <use xlink:href="#m4c03f1d9fd" x="603.336" y="259.819577" style="stroke: #000000"/>
    </g>
   </g>
   <g id="line2d_41">
    <path d="M 1020.449322 708.836592 
" clip-path="url(#p2309bb0b72)" style="fill: none; stroke: #000000; stroke-width: 1.5; stroke-linecap: square"/>
    <g clip-path="url(#p2309bb0b72)">
     <use xlink:href="#m4c03f1d9fd" x="1020.449322" y="708.836592" style="stroke: #000000"/>
    </g>
   </g>
   <g id="line2d_42">
    <path d="M 1016.256 501.773079 
" clip-path="url(#p2309bb0b72)" style="fill: none; stroke: #000000; stroke-width: 1.5; stroke-linecap: square"/>
    <g clip-path="url(#p2309bb0b72)">
     <use xlink:href="#m4c03f1d9fd" x="1016.256" y="501.773079" style="stroke: #000000"/>
    </g>
   </g>
   <g id="line2d_43">
    <path d="M 944.088 357.292273 
" clip-path="url(#p2309bb0b72)" style="fill: none; stroke: #000000; stroke-width: 1.5; stroke-linecap: square"/>
    <g clip-path="url(#p2309bb0b72)">
     <use xlink:href="#m4c03f1d9fd" x="944.088" y="357.292273" style="stroke: #000000"/>
    </g>
   </g>
   <g id="line2d_44">
    <path d="M 842.16 322.036192 
" clip-path="url(#p2309bb0b72)" style="fill: none; stroke: #000000; stroke-width: 1.5; stroke-linecap: square"/>
    <g clip-path="url(#p2309bb0b72)">
     <use xlink:href="#m4c03f1d9fd" x="842.16" y="322.036192" style="stroke: #000000"/>
    </g>
   </g>
   <g id="line2d_45">
    <path d="M 1232.016 411.904635 
" clip-path="url(#p2309bb0b72)" style="fill: none; stroke: #000000; stroke-width: 1.5; stroke-linecap: square"/>
    <g clip-path="url(#p2309bb0b72)">
     <use xlink:href="#m4c03f1d9fd" x="1232.016" y="411.904635" style="stroke: #000000"/>
    </g>
   </g>
   <g id="line2d_46">
    <path d="M 1107.768 380.105032 
" clip-path="url(#p2309bb0b72)" style="fill: none; stroke: #000000; stroke-width: 1.5; stroke-linecap: square"/>
    <g clip-path="url(#p2309bb0b72)">
     <use xlink:href="#m4c03f1d9fd" x="1107.768" y="380.105032" style="stroke: #000000"/>
    </g>
   </g>
   <g id="patch_3">
    <path d="M 180 768.96 
L 180 103.68 
" style="fill: none; stroke: #000000; stroke-width: 0.8; stroke-linejoin: miter; stroke-linecap: square"/>
   </g>
   <g id="patch_4">
    <path d="M 1296 768.96 
L 1296 103.68 
" style="fill: none; stroke: #000000; stroke-width: 0.8; stroke-linejoin: miter; stroke-linecap: square"/>
   </g>
   <g id="patch_5">
    <path d="M 180 768.96 
L 1296 768.96 
" style="fill: none; stroke: #000000; stroke-width: 0.8; stroke-linejoin: miter; stroke-linecap: square"/>
   </g>
   <g id="patch_6">
    <path d="M 180 103.68 
L 1296 103.68 
" style="fill: none; stroke: #000000; stroke-width: 0.8; stroke-linejoin: miter; stroke-linecap: square"/>
   </g>
   <g id="text_15">
    <!-- 8 -->
    <g transform="translate(217.2 649.710363) scale(0.2 -0.2)">
     <use xlink:href="#DejaVuSans-38"/>
    </g>
   </g>
   <g id="text_16">
    <!-- 11 -->
    <g transform="translate(239.52 388.400581) scale(0.2 -0.2)">
     <defs>
      <path id="DejaVuSans-31" d="M 794 531 
L 1825 531 
L 1825 4091 
L 703 3866 
L 703 4441 
L 1819 4666 
L 2450 4666 
L 2450 531 
L 3481 531 
L 3481 0 
L 794 0 
L 794 531 
z
" transform="scale(0.015625)"/>
     </defs>
     <use xlink:href="#DejaVuSans-31"/>
     <use xlink:href="#DejaVuSans-31" x="63.623047"/>
    </g>
   </g>
   <g id="text_17">
    <!-- 15 -->
    <g transform="translate(209.76 194.837779) scale(0.2 -0.2)">
     <defs>
      <path id="DejaVuSans-35" d="M 691 4666 
L 3169 4666 
L 3169 4134 
L 1269 4134 
L 1269 2991 
Q 1406 3038 1543 3061 
Q 1681 3084 1819 3084 
Q 2600 3084 3056 2656 
Q 3513 2228 3513 1497 
Q 3513 744 3044 326 
Q 2575 -91 1722 -91 
Q 1428 -91 1123 -41 
Q 819 9 494 109 
L 494 744 
Q 775 591 1075 516 
Q 1375 441 1709 441 
Q 2250 441 2565 725 
Q 2881 1009 2881 1497 
Q 2881 1984 2565 2268 
Q 2250 2553 1709 2553 
Q 1456 2553 1204 2497 
Q 953 2441 691 2322 
L 691 4666 
z
" transform="scale(0.015625)"/>
     </defs>
     <use xlink:href="#DejaVuSans-31"/>
     <use xlink:href="#DejaVuSans-35" x="63.623047"/>
    </g>
   </g>
   <g id="text_18">
    <!-- 18,17 -->
    <g transform="translate(187.44 130.547277) scale(0.2 -0.2)">
     <defs>
      <path id="DejaVuSans-2c" d="M 750 794 
L 1409 794 
L 1409 256 
L 897 -744 
L 494 -744 
L 750 256 
L 750 794 
z
" transform="scale(0.015625)"/>
     </defs>
     <use xlink:href="#DejaVuSans-31"/>
     <use xlink:href="#DejaVuSans-38" x="63.623047"/>
     <use xlink:href="#DejaVuSans-2c" x="127.246094"/>
     <use xlink:href="#DejaVuSans-31" x="159.033203"/>
     <use xlink:href="#DejaVuSans-37" x="222.65625"/>
    </g>
   </g>
   <g id="text_19">
    <!-- 8 -->
    <g transform="translate(470.16 644.179997) scale(0.2 -0.2)">
     <use xlink:href="#DejaVuSans-38"/>
    </g>
   </g>
   <g id="text_20">
    <!-- 11 -->
    <g transform="translate(466.44 432.643507) scale(0.2 -0.2)">
     <use xlink:href="#DejaVuSans-31"/>
     <use xlink:href="#DejaVuSans-31" x="63.623047"/>
    </g>
   </g>
   <g id="text_21">
    <!-- 15 -->
    <g transform="translate(421.8 259.819577) scale(0.2 -0.2)">
     <use xlink:href="#DejaVuSans-31"/>
     <use xlink:href="#DejaVuSans-35" x="63.623047"/>
    </g>
   </g>
   <g id="text_22">
    <!-- 18,17 -->
    <g transform="translate(383.856 187.233526) scale(0.2 -0.2)">
     <use xlink:href="#DejaVuSans-31"/>
     <use xlink:href="#DejaVuSans-38" x="63.623047"/>
     <use xlink:href="#DejaVuSans-2c" x="127.246094"/>
     <use xlink:href="#DejaVuSans-31" x="159.033203"/>
     <use xlink:href="#DejaVuSans-37" x="222.65625"/>
    </g>
   </g>
   <g id="text_23">
    <!-- 8 -->
    <g transform="translate(723.12 670.449235) scale(0.2 -0.2)">
     <use xlink:href="#DejaVuSans-38"/>
    </g>
   </g>
   <g id="text_24">
    <!-- 11 -->
    <g transform="translate(708.24 471.356067) scale(0.2 -0.2)">
     <use xlink:href="#DejaVuSans-31"/>
     <use xlink:href="#DejaVuSans-31" x="63.623047"/>
    </g>
   </g>
   <g id="text_25">
    <!-- 15 -->
    <g transform="translate(656.16 318.579713) scale(0.2 -0.2)">
     <use xlink:href="#DejaVuSans-31"/>
     <use xlink:href="#DejaVuSans-35" x="63.623047"/>
    </g>
   </g>
   <g id="text_26">
    <!-- 18,17 -->
    <g transform="translate(600.36 251.524028) scale(0.2 -0.2)">
     <use xlink:href="#DejaVuSans-31"/>
     <use xlink:href="#DejaVuSans-38" x="63.623047"/>
     <use xlink:href="#DejaVuSans-2c" x="127.246094"/>
     <use xlink:href="#DejaVuSans-31" x="159.033203"/>
     <use xlink:href="#DejaVuSans-37" x="222.65625"/>
    </g>
   </g>
   <g id="text_27">
    <!-- 8 -->
    <g transform="translate(1004.352 698.792359) scale(0.2 -0.2)">
     <use xlink:href="#DejaVuSans-38"/>
    </g>
   </g>
   <g id="text_28">
    <!-- 11 -->
    <g transform="translate(987.24 519.055472) scale(0.2 -0.2)">
     <use xlink:href="#DejaVuSans-31"/>
     <use xlink:href="#DejaVuSans-31" x="63.623047"/>
    </g>
   </g>
   <g id="text_29">
    <!-- 15 -->
    <g transform="translate(909.12 374.574666) scale(0.2 -0.2)">
     <use xlink:href="#DejaVuSans-31"/>
     <use xlink:href="#DejaVuSans-35" x="63.623047"/>
    </g>
   </g>
   <g id="text_30">
    <!-- 18,17 -->
    <g transform="translate(839.928 313.740643) scale(0.2 -0.2)">
     <use xlink:href="#DejaVuSans-31"/>
     <use xlink:href="#DejaVuSans-38" x="63.623047"/>
     <use xlink:href="#DejaVuSans-2c" x="127.246094"/>
     <use xlink:href="#DejaVuSans-31" x="159.033203"/>
     <use xlink:href="#DejaVuSans-37" x="222.65625"/>
    </g>
   </g>
   <g id="text_31">
    <!-- 15 -->
    <g transform="translate(1202.256 429.187028) scale(0.2 -0.2)">
     <use xlink:href="#DejaVuSans-31"/>
     <use xlink:href="#DejaVuSans-35" x="63.623047"/>
    </g>
   </g>
   <g id="text_32">
    <!-- 18,17 -->
    <g transform="translate(1105.536 371.809484) scale(0.2 -0.2)">
     <use xlink:href="#DejaVuSans-31"/>
     <use xlink:href="#DejaVuSans-38" x="63.623047"/>
     <use xlink:href="#DejaVuSans-2c" x="127.246094"/>
     <use xlink:href="#DejaVuSans-31" x="159.033203"/>
     <use xlink:href="#DejaVuSans-37" x="222.65625"/>
    </g>
   </g>
   <g id="legend_1">
    <g id="patch_7">
     <path d="M 316.21875 758.96 
L 1159.78125 758.96 
Q 1163.78125 758.96 1163.78125 754.96 
L 1163.78125 726.76 
Q 1163.78125 722.76 1159.78125 722.76 
L 316.21875 722.76 
Q 312.21875 722.76 312.21875 726.76 
L 312.21875 754.96 
Q 312.21875 758.96 316.21875 758.96 
z
" style="fill: #ffffff; opacity: 0.8; stroke: #cccccc; stroke-linejoin: miter"/>
    </g>
    <g id="line2d_47">
     <path d="M 320.21875 738.96 
L 340.21875 738.96 
L 360.21875 738.96 
" style="fill: none; stroke: #000000; stroke-width: 1.5; stroke-linecap: square"/>
    </g>
    <g id="text_33">
     <!-- $p_{zw}$ [bar]          $ΔT_{GK,ob}$: -->
     <g transform="translate(376.21875 745.96) scale(0.2 -0.2)">
      <defs>
       <path id="DejaVuSans-Oblique-70" d="M 3175 2156 
Q 3175 2616 2975 2859 
Q 2775 3103 2400 3103 
Q 2144 3103 1911 2972 
Q 1678 2841 1497 2591 
Q 1319 2344 1212 1994 
Q 1106 1644 1106 1300 
Q 1106 863 1306 627 
Q 1506 391 1875 391 
Q 2147 391 2380 519 
Q 2613 647 2778 891 
Q 2956 1147 3065 1494 
Q 3175 1841 3175 2156 
z
M 1394 2969 
Q 1625 3272 1939 3428 
Q 2253 3584 2638 3584 
Q 3175 3584 3472 3232 
Q 3769 2881 3769 2247 
Q 3769 1728 3584 1258 
Q 3400 788 3053 416 
Q 2822 169 2531 39 
Q 2241 -91 1919 -91 
Q 1547 -91 1294 64 
Q 1041 219 916 525 
L 556 -1331 
L -19 -1331 
L 922 3500 
L 1497 3500 
L 1394 2969 
z
" transform="scale(0.015625)"/>
       <path id="DejaVuSans-Oblique-7a" d="M 744 3500 
L 3475 3500 
L 3372 2975 
L 738 459 
L 2913 459 
L 2822 0 
L -19 0 
L 84 525 
L 2719 3041 
L 653 3041 
L 744 3500 
z
" transform="scale(0.015625)"/>
       <path id="DejaVuSans-Oblique-77" d="M 544 3500 
L 1113 3500 
L 1259 684 
L 2566 3500 
L 3231 3500 
L 3425 684 
L 4666 3500 
L 5241 3500 
L 3641 0 
L 2969 0 
L 2797 2900 
L 1459 0 
L 781 0 
L 544 3500 
z
" transform="scale(0.015625)"/>
       <path id="DejaVuSans-394" d="M 2188 4044 
L 906 525 
L 3472 525 
L 2188 4044 
z
M 50 0 
L 1831 4666 
L 2547 4666 
L 4325 0 
L 50 0 
z
" transform="scale(0.015625)"/>
       <path id="DejaVuSans-Oblique-54" d="M 378 4666 
L 4325 4666 
L 4225 4134 
L 2559 4134 
L 1759 0 
L 1125 0 
L 1925 4134 
L 275 4134 
L 378 4666 
z
" transform="scale(0.015625)"/>
       <path id="DejaVuSans-Oblique-47" d="M 3494 697 
L 3738 1919 
L 2700 1919 
L 2797 2438 
L 4453 2438 
L 4050 384 
Q 3634 156 3143 32 
Q 2653 -91 2156 -91 
Q 1278 -91 783 396 
Q 288 884 288 1753 
Q 288 2475 589 3126 
Q 891 3778 1422 4213 
Q 1756 4484 2153 4617 
Q 2550 4750 3034 4750 
Q 3472 4750 3873 4639 
Q 4275 4528 4641 4306 
L 4513 3634 
Q 4231 3928 3853 4083 
Q 3475 4238 3047 4238 
Q 2550 4238 2172 4048 
Q 1794 3859 1497 3463 
Q 1244 3125 1098 2667 
Q 953 2209 953 1734 
Q 953 1081 1287 751 
Q 1622 422 2284 422 
Q 2616 422 2925 492 
Q 3234 563 3494 697 
z
" transform="scale(0.015625)"/>
       <path id="DejaVuSans-Oblique-4b" d="M 1081 4666 
L 1716 4666 
L 1331 2700 
L 3781 4666 
L 4622 4666 
L 1850 2438 
L 3878 0 
L 3109 0 
L 1247 2272 
L 806 0 
L 172 0 
L 1081 4666 
z
" transform="scale(0.015625)"/>
       <path id="DejaVuSans-Oblique-6f" d="M 1625 -91 
Q 1009 -91 651 289 
Q 294 669 294 1325 
Q 294 1706 417 2101 
Q 541 2497 738 2766 
Q 1047 3184 1428 3384 
Q 1809 3584 2291 3584 
Q 2888 3584 3255 3212 
Q 3622 2841 3622 2241 
Q 3622 1825 3500 1412 
Q 3378 1000 3181 728 
Q 2875 309 2494 109 
Q 2113 -91 1625 -91 
z
M 891 1344 
Q 891 869 1089 633 
Q 1288 397 1691 397 
Q 2269 397 2648 901 
Q 3028 1406 3028 2181 
Q 3028 2634 2825 2865 
Q 2622 3097 2228 3097 
Q 1903 3097 1650 2945 
Q 1397 2794 1197 2484 
Q 1050 2253 970 1956 
Q 891 1659 891 1344 
z
" transform="scale(0.015625)"/>
       <path id="DejaVuSans-Oblique-62" d="M 3169 2138 
Q 3169 2591 2961 2847 
Q 2753 3103 2388 3103 
Q 2122 3103 1889 2973 
Q 1656 2844 1484 2597 
Q 1303 2338 1198 1995 
Q 1094 1653 1094 1313 
Q 1094 881 1298 636 
Q 1503 391 1863 391 
Q 2134 391 2365 517 
Q 2597 644 2772 891 
Q 2950 1147 3059 1487 
Q 3169 1828 3169 2138 
z
M 1381 2969 
Q 1594 3256 1914 3420 
Q 2234 3584 2584 3584 
Q 3122 3584 3439 3221 
Q 3756 2859 3756 2241 
Q 3756 1734 3570 1259 
Q 3384 784 3041 416 
Q 2816 172 2522 40 
Q 2228 -91 1906 -91 
Q 1566 -91 1316 65 
Q 1066 222 909 531 
L 806 0 
L 231 0 
L 1178 4863 
L 1753 4863 
L 1381 2969 
z
" transform="scale(0.015625)"/>
       <path id="DejaVuSans-3a" d="M 750 794 
L 1409 794 
L 1409 0 
L 750 0 
L 750 794 
z
M 750 3309 
L 1409 3309 
L 1409 2516 
L 750 2516 
L 750 3309 
z
" transform="scale(0.015625)"/>
      </defs>
      <use xlink:href="#DejaVuSans-Oblique-70" transform="translate(0 0.015625)"/>
      <use xlink:href="#DejaVuSans-Oblique-7a" transform="translate(63.476562 -16.390625) scale(0.7)"/>
      <use xlink:href="#DejaVuSans-Oblique-77" transform="translate(100.219727 -16.390625) scale(0.7)"/>
      <use xlink:href="#DejaVuSans-20" transform="translate(160.205078 0.015625)"/>
      <use xlink:href="#DejaVuSans-5b" transform="translate(191.992188 0.015625)"/>
      <use xlink:href="#DejaVuSans-62" transform="translate(231.005859 0.015625)"/>
      <use xlink:href="#DejaVuSans-61" transform="translate(294.482422 0.015625)"/>
      <use xlink:href="#DejaVuSans-72" transform="translate(355.761719 0.015625)"/>
      <use xlink:href="#DejaVuSans-5d" transform="translate(396.875 0.015625)"/>
      <use xlink:href="#DejaVuSans-20" transform="translate(435.888672 0.015625)"/>
      <use xlink:href="#DejaVuSans-20" transform="translate(467.675781 0.015625)"/>
      <use xlink:href="#DejaVuSans-20" transform="translate(499.462891 0.015625)"/>
      <use xlink:href="#DejaVuSans-20" transform="translate(531.25 0.015625)"/>
      <use xlink:href="#DejaVuSans-20" transform="translate(563.037109 0.015625)"/>
      <use xlink:href="#DejaVuSans-20" transform="translate(594.824219 0.015625)"/>
      <use xlink:href="#DejaVuSans-20" transform="translate(626.611328 0.015625)"/>
      <use xlink:href="#DejaVuSans-20" transform="translate(658.398438 0.015625)"/>
      <use xlink:href="#DejaVuSans-20" transform="translate(690.185547 0.015625)"/>
      <use xlink:href="#DejaVuSans-20" transform="translate(721.972656 0.015625)"/>
      <use xlink:href="#DejaVuSans-394" transform="translate(753.759766 0.015625)"/>
      <use xlink:href="#DejaVuSans-Oblique-54" transform="translate(822.167969 0.015625)"/>
      <use xlink:href="#DejaVuSans-Oblique-47" transform="translate(883.251953 -16.390625) scale(0.7)"/>
      <use xlink:href="#DejaVuSans-Oblique-4b" transform="translate(937.495117 -16.390625) scale(0.7)"/>
      <use xlink:href="#DejaVuSans-2c" transform="translate(983.398438 -16.390625) scale(0.7)"/>
      <use xlink:href="#DejaVuSans-Oblique-6f" transform="translate(1019.287109 -16.390625) scale(0.7)"/>
      <use xlink:href="#DejaVuSans-Oblique-62" transform="translate(1062.114258 -16.390625) scale(0.7)"/>
      <use xlink:href="#DejaVuSans-3a" transform="translate(1109.282227 0.015625)"/>
     </g>
    </g>
    <g id="line2d_48">
     <path d="M 644.81875 738.96 
L 664.81875 738.96 
L 684.81875 738.96 
" style="fill: none; stroke-dasharray: 5.55,2.4; stroke-dashoffset: 0; stroke: #ff0000; stroke-width: 1.5"/>
    </g>
    <g id="text_34">
     <!-- 5 K -->
     <g transform="translate(700.81875 745.96) scale(0.2 -0.2)">
      <defs>
       <path id="DejaVuSans-4b" d="M 628 4666 
L 1259 4666 
L 1259 2694 
L 3353 4666 
L 4166 4666 
L 1850 2491 
L 4331 0 
L 3500 0 
L 1259 2247 
L 1259 0 
L 628 0 
L 628 4666 
z
" transform="scale(0.015625)"/>
      </defs>
      <use xlink:href="#DejaVuSans-35"/>
      <use xlink:href="#DejaVuSans-20" x="63.623047"/>
      <use xlink:href="#DejaVuSans-4b" x="95.410156"/>
     </g>
    </g>
    <g id="line2d_49">
     <path d="M 773.015625 738.96 
L 793.015625 738.96 
L 813.015625 738.96 
" style="fill: none; stroke-dasharray: 5.55,2.4; stroke-dashoffset: 0; stroke: #ffa500; stroke-width: 1.5"/>
    </g>
    <g id="text_35">
     <!-- 10 K -->
     <g transform="translate(829.015625 745.96) scale(0.2 -0.2)">
      <use xlink:href="#DejaVuSans-31"/>
      <use xlink:href="#DejaVuSans-30" x="63.623047"/>
      <use xlink:href="#DejaVuSans-20" x="127.246094"/>
      <use xlink:href="#DejaVuSans-4b" x="159.033203"/>
     </g>
    </g>
    <g id="line2d_50">
     <path d="M 913.9375 738.96 
L 933.9375 738.96 
L 953.9375 738.96 
" style="fill: none; stroke-dasharray: 5.55,2.4; stroke-dashoffset: 0; stroke: #008000; stroke-width: 1.5"/>
    </g>
    <g id="text_36">
     <!-- 15 K -->
     <g transform="translate(969.9375 745.96) scale(0.2 -0.2)">
      <use xlink:href="#DejaVuSans-31"/>
      <use xlink:href="#DejaVuSans-35" x="63.623047"/>
      <use xlink:href="#DejaVuSans-20" x="127.246094"/>
      <use xlink:href="#DejaVuSans-4b" x="159.033203"/>
     </g>
    </g>
    <g id="line2d_51">
     <path d="M 1054.859375 738.96 
L 1074.859375 738.96 
L 1094.859375 738.96 
" style="fill: none; stroke-dasharray: 5.55,2.4; stroke-dashoffset: 0; stroke: #4682b4; stroke-width: 1.5"/>
    </g>
    <g id="text_37">
     <!-- 20 K -->
     <g transform="translate(1110.859375 745.96) scale(0.2 -0.2)">
      <use xlink:href="#DejaVuSans-32"/>
      <use xlink:href="#DejaVuSans-30" x="63.623047"/>
      <use xlink:href="#DejaVuSans-20" x="127.246094"/>
      <use xlink:href="#DejaVuSans-4b" x="159.033203"/>
     </g>
    </g>
   </g>
  </g>
 </g>
 <defs>
  <clipPath id="p2309bb0b72">
   <rect x="180" y="103.68" width="1116" height="665.28"/>
  </clipPath>
 </defs>
</svg>
