<?xml version="1.0" encoding="utf-8" standalone="no"?>
<!DOCTYPE svg PUBLIC "-//W3C//DTD SVG 1.1//EN"
  "http://www.w3.org/Graphics/SVG/1.1/DTD/svg11.dtd">
<svg xmlns:xlink="http://www.w3.org/1999/xlink" width="1440pt" height="936pt" viewBox="0 0 1440 936" xmlns="http://www.w3.org/2000/svg" version="1.1">
 <metadata>
  <rdf:RDF xmlns:dc="http://purl.org/dc/elements/1.1/" xmlns:cc="http://creativecommons.org/ns#" xmlns:rdf="http://www.w3.org/1999/02/22-rdf-syntax-ns#">
   <cc:Work>
    <dc:type rdf:resource="http://purl.org/dc/dcmitype/StillImage"/>
    <dc:date>2023-08-17T12:16:27.676140</dc:date>
    <dc:format>image/svg+xml</dc:format>
    <dc:creator>
     <cc:Agent>
      <dc:title>Matplotlib v3.6.1, https://matplotlib.org/</dc:title>
     </cc:Agent>
    </dc:creator>
   </cc:Work>
  </rdf:RDF>
 </metadata>
 <defs>
  <style type="text/css">*{stroke-linejoin: round; stroke-linecap: butt}</style>
 </defs>
 <g id="figure_1">
  <g id="patch_1">
   <path d="M 0 936 
L 1440 936 
L 1440 0 
L 0 0 
z
" style="fill: #ffffff"/>
  </g>
  <g id="axes_1">
   <g id="patch_2">
    <path d="M 180 833.04 
L 1296 833.04 
L 1296 112.32 
L 180 112.32 
z
" style="fill: #ffffff"/>
   </g>
   <g id="matplotlib.axis_1">
    <g id="xtick_1">
     <g id="line2d_1">
      <path d="M 324.251612 833.04 
L 324.251612 112.32 
" clip-path="url(#p9d17a06b5b)" style="fill: none; stroke: #b0b0b0; stroke-width: 0.8; stroke-linecap: square"/>
     </g>
     <g id="line2d_2">
      <defs>
       <path id="m9f4dacb8f1" d="M 0 0 
L 0 3.5 
" style="stroke: #000000; stroke-width: 0.8"/>
      </defs>
      <g>
       <use xlink:href="#m9f4dacb8f1" x="324.251612" y="833.04" style="stroke: #000000; stroke-width: 0.8"/>
      </g>
     </g>
     <g id="text_1">
      <!-- 29 -->
      <g transform="translate(311.526612 855.236875) scale(0.2 -0.2)">
       <defs>
        <path id="DejaVuSans-32" d="M 1228 531 
L 3431 531 
L 3431 0 
L 469 0 
L 469 531 
Q 828 903 1448 1529 
Q 2069 2156 2228 2338 
Q 2531 2678 2651 2914 
Q 2772 3150 2772 3378 
Q 2772 3750 2511 3984 
Q 2250 4219 1831 4219 
Q 1534 4219 1204 4116 
Q 875 4013 500 3803 
L 500 4441 
Q 881 4594 1212 4672 
Q 1544 4750 1819 4750 
Q 2544 4750 2975 4387 
Q 3406 4025 3406 3419 
Q 3406 3131 3298 2873 
Q 3191 2616 2906 2266 
Q 2828 2175 2409 1742 
Q 1991 1309 1228 531 
z
" transform="scale(0.015625)"/>
        <path id="DejaVuSans-39" d="M 703 97 
L 703 672 
Q 941 559 1184 500 
Q 1428 441 1663 441 
Q 2288 441 2617 861 
Q 2947 1281 2994 2138 
Q 2813 1869 2534 1725 
Q 2256 1581 1919 1581 
Q 1219 1581 811 2004 
Q 403 2428 403 3163 
Q 403 3881 828 4315 
Q 1253 4750 1959 4750 
Q 2769 4750 3195 4129 
Q 3622 3509 3622 2328 
Q 3622 1225 3098 567 
Q 2575 -91 1691 -91 
Q 1453 -91 1209 -44 
Q 966 3 703 97 
z
M 1959 2075 
Q 2384 2075 2632 2365 
Q 2881 2656 2881 3163 
Q 2881 3666 2632 3958 
Q 2384 4250 1959 4250 
Q 1534 4250 1286 3958 
Q 1038 3666 1038 3163 
Q 1038 2656 1286 2365 
Q 1534 2075 1959 2075 
z
" transform="scale(0.015625)"/>
       </defs>
       <use xlink:href="#DejaVuSans-32"/>
       <use xlink:href="#DejaVuSans-39" x="63.623047"/>
      </g>
     </g>
    </g>
    <g id="xtick_2">
     <g id="line2d_3">
      <path d="M 476.733153 833.04 
L 476.733153 112.32 
" clip-path="url(#p9d17a06b5b)" style="fill: none; stroke: #b0b0b0; stroke-width: 0.8; stroke-linecap: square"/>
     </g>
     <g id="line2d_4">
      <g>
       <use xlink:href="#m9f4dacb8f1" x="476.733153" y="833.04" style="stroke: #000000; stroke-width: 0.8"/>
      </g>
     </g>
     <g id="text_2">
      <!-- 30 -->
      <g transform="translate(464.008153 855.236875) scale(0.2 -0.2)">
       <defs>
        <path id="DejaVuSans-33" d="M 2597 2516 
Q 3050 2419 3304 2112 
Q 3559 1806 3559 1356 
Q 3559 666 3084 287 
Q 2609 -91 1734 -91 
Q 1441 -91 1130 -33 
Q 819 25 488 141 
L 488 750 
Q 750 597 1062 519 
Q 1375 441 1716 441 
Q 2309 441 2620 675 
Q 2931 909 2931 1356 
Q 2931 1769 2642 2001 
Q 2353 2234 1838 2234 
L 1294 2234 
L 1294 2753 
L 1863 2753 
Q 2328 2753 2575 2939 
Q 2822 3125 2822 3475 
Q 2822 3834 2567 4026 
Q 2313 4219 1838 4219 
Q 1578 4219 1281 4162 
Q 984 4106 628 3988 
L 628 4550 
Q 988 4650 1302 4700 
Q 1616 4750 1894 4750 
Q 2613 4750 3031 4423 
Q 3450 4097 3450 3541 
Q 3450 3153 3228 2886 
Q 3006 2619 2597 2516 
z
" transform="scale(0.015625)"/>
        <path id="DejaVuSans-30" d="M 2034 4250 
Q 1547 4250 1301 3770 
Q 1056 3291 1056 2328 
Q 1056 1369 1301 889 
Q 1547 409 2034 409 
Q 2525 409 2770 889 
Q 3016 1369 3016 2328 
Q 3016 3291 2770 3770 
Q 2525 4250 2034 4250 
z
M 2034 4750 
Q 2819 4750 3233 4129 
Q 3647 3509 3647 2328 
Q 3647 1150 3233 529 
Q 2819 -91 2034 -91 
Q 1250 -91 836 529 
Q 422 1150 422 2328 
Q 422 3509 836 4129 
Q 1250 4750 2034 4750 
z
" transform="scale(0.015625)"/>
       </defs>
       <use xlink:href="#DejaVuSans-33"/>
       <use xlink:href="#DejaVuSans-30" x="63.623047"/>
      </g>
     </g>
    </g>
    <g id="xtick_3">
     <g id="line2d_5">
      <path d="M 629.214694 833.04 
L 629.214694 112.32 
" clip-path="url(#p9d17a06b5b)" style="fill: none; stroke: #b0b0b0; stroke-width: 0.8; stroke-linecap: square"/>
     </g>
     <g id="line2d_6">
      <g>
       <use xlink:href="#m9f4dacb8f1" x="629.214694" y="833.04" style="stroke: #000000; stroke-width: 0.8"/>
      </g>
     </g>
     <g id="text_3">
      <!-- 31 -->
      <g transform="translate(616.489694 855.236875) scale(0.2 -0.2)">
       <defs>
        <path id="DejaVuSans-31" d="M 794 531 
L 1825 531 
L 1825 4091 
L 703 3866 
L 703 4441 
L 1819 4666 
L 2450 4666 
L 2450 531 
L 3481 531 
L 3481 0 
L 794 0 
L 794 531 
z
" transform="scale(0.015625)"/>
       </defs>
       <use xlink:href="#DejaVuSans-33"/>
       <use xlink:href="#DejaVuSans-31" x="63.623047"/>
      </g>
     </g>
    </g>
    <g id="xtick_4">
     <g id="line2d_7">
      <path d="M 781.696235 833.04 
L 781.696235 112.32 
" clip-path="url(#p9d17a06b5b)" style="fill: none; stroke: #b0b0b0; stroke-width: 0.8; stroke-linecap: square"/>
     </g>
     <g id="line2d_8">
      <g>
       <use xlink:href="#m9f4dacb8f1" x="781.696235" y="833.04" style="stroke: #000000; stroke-width: 0.8"/>
      </g>
     </g>
     <g id="text_4">
      <!-- 32 -->
      <g transform="translate(768.971235 855.236875) scale(0.2 -0.2)">
       <use xlink:href="#DejaVuSans-33"/>
       <use xlink:href="#DejaVuSans-32" x="63.623047"/>
      </g>
     </g>
    </g>
    <g id="xtick_5">
     <g id="line2d_9">
      <path d="M 934.177776 833.04 
L 934.177776 112.32 
" clip-path="url(#p9d17a06b5b)" style="fill: none; stroke: #b0b0b0; stroke-width: 0.8; stroke-linecap: square"/>
     </g>
     <g id="line2d_10">
      <g>
       <use xlink:href="#m9f4dacb8f1" x="934.177776" y="833.04" style="stroke: #000000; stroke-width: 0.8"/>
      </g>
     </g>
     <g id="text_5">
      <!-- 33 -->
      <g transform="translate(921.452776 855.236875) scale(0.2 -0.2)">
       <use xlink:href="#DejaVuSans-33"/>
       <use xlink:href="#DejaVuSans-33" x="63.623047"/>
      </g>
     </g>
    </g>
    <g id="xtick_6">
     <g id="line2d_11">
      <path d="M 1086.659316 833.04 
L 1086.659316 112.32 
" clip-path="url(#p9d17a06b5b)" style="fill: none; stroke: #b0b0b0; stroke-width: 0.8; stroke-linecap: square"/>
     </g>
     <g id="line2d_12">
      <g>
       <use xlink:href="#m9f4dacb8f1" x="1086.659316" y="833.04" style="stroke: #000000; stroke-width: 0.8"/>
      </g>
     </g>
     <g id="text_6">
      <!-- 34 -->
      <g transform="translate(1073.934316 855.236875) scale(0.2 -0.2)">
       <defs>
        <path id="DejaVuSans-34" d="M 2419 4116 
L 825 1625 
L 2419 1625 
L 2419 4116 
z
M 2253 4666 
L 3047 4666 
L 3047 1625 
L 3713 1625 
L 3713 1100 
L 3047 1100 
L 3047 0 
L 2419 0 
L 2419 1100 
L 313 1100 
L 313 1709 
L 2253 4666 
z
" transform="scale(0.015625)"/>
       </defs>
       <use xlink:href="#DejaVuSans-33"/>
       <use xlink:href="#DejaVuSans-34" x="63.623047"/>
      </g>
     </g>
    </g>
    <g id="xtick_7">
     <g id="line2d_13">
      <path d="M 1239.140857 833.04 
L 1239.140857 112.32 
" clip-path="url(#p9d17a06b5b)" style="fill: none; stroke: #b0b0b0; stroke-width: 0.8; stroke-linecap: square"/>
     </g>
     <g id="line2d_14">
      <g>
       <use xlink:href="#m9f4dacb8f1" x="1239.140857" y="833.04" style="stroke: #000000; stroke-width: 0.8"/>
      </g>
     </g>
     <g id="text_7">
      <!-- 35 -->
      <g transform="translate(1226.415857 855.236875) scale(0.2 -0.2)">
       <defs>
        <path id="DejaVuSans-35" d="M 691 4666 
L 3169 4666 
L 3169 4134 
L 1269 4134 
L 1269 2991 
Q 1406 3038 1543 3061 
Q 1681 3084 1819 3084 
Q 2600 3084 3056 2656 
Q 3513 2228 3513 1497 
Q 3513 744 3044 326 
Q 2575 -91 1722 -91 
Q 1428 -91 1123 -41 
Q 819 9 494 109 
L 494 744 
Q 775 591 1075 516 
Q 1375 441 1709 441 
Q 2250 441 2565 725 
Q 2881 1009 2881 1497 
Q 2881 1984 2565 2268 
Q 2250 2553 1709 2553 
Q 1456 2553 1204 2497 
Q 953 2441 691 2322 
L 691 4666 
z
" transform="scale(0.015625)"/>
       </defs>
       <use xlink:href="#DejaVuSans-33"/>
       <use xlink:href="#DejaVuSans-35" x="63.623047"/>
      </g>
     </g>
    </g>
    <g id="text_8">
     <!-- Gaskühlerdruck in bar -->
     <g transform="translate(627.748438 878.593125) scale(0.2 -0.2)">
      <defs>
       <path id="DejaVuSans-47" d="M 3809 666 
L 3809 1919 
L 2778 1919 
L 2778 2438 
L 4434 2438 
L 4434 434 
Q 4069 175 3628 42 
Q 3188 -91 2688 -91 
Q 1594 -91 976 548 
Q 359 1188 359 2328 
Q 359 3472 976 4111 
Q 1594 4750 2688 4750 
Q 3144 4750 3555 4637 
Q 3966 4525 4313 4306 
L 4313 3634 
Q 3963 3931 3569 4081 
Q 3175 4231 2741 4231 
Q 1884 4231 1454 3753 
Q 1025 3275 1025 2328 
Q 1025 1384 1454 906 
Q 1884 428 2741 428 
Q 3075 428 3337 486 
Q 3600 544 3809 666 
z
" transform="scale(0.015625)"/>
       <path id="DejaVuSans-61" d="M 2194 1759 
Q 1497 1759 1228 1600 
Q 959 1441 959 1056 
Q 959 750 1161 570 
Q 1363 391 1709 391 
Q 2188 391 2477 730 
Q 2766 1069 2766 1631 
L 2766 1759 
L 2194 1759 
z
M 3341 1997 
L 3341 0 
L 2766 0 
L 2766 531 
Q 2569 213 2275 61 
Q 1981 -91 1556 -91 
Q 1019 -91 701 211 
Q 384 513 384 1019 
Q 384 1609 779 1909 
Q 1175 2209 1959 2209 
L 2766 2209 
L 2766 2266 
Q 2766 2663 2505 2880 
Q 2244 3097 1772 3097 
Q 1472 3097 1187 3025 
Q 903 2953 641 2809 
L 641 3341 
Q 956 3463 1253 3523 
Q 1550 3584 1831 3584 
Q 2591 3584 2966 3190 
Q 3341 2797 3341 1997 
z
" transform="scale(0.015625)"/>
       <path id="DejaVuSans-73" d="M 2834 3397 
L 2834 2853 
Q 2591 2978 2328 3040 
Q 2066 3103 1784 3103 
Q 1356 3103 1142 2972 
Q 928 2841 928 2578 
Q 928 2378 1081 2264 
Q 1234 2150 1697 2047 
L 1894 2003 
Q 2506 1872 2764 1633 
Q 3022 1394 3022 966 
Q 3022 478 2636 193 
Q 2250 -91 1575 -91 
Q 1294 -91 989 -36 
Q 684 19 347 128 
L 347 722 
Q 666 556 975 473 
Q 1284 391 1588 391 
Q 1994 391 2212 530 
Q 2431 669 2431 922 
Q 2431 1156 2273 1281 
Q 2116 1406 1581 1522 
L 1381 1569 
Q 847 1681 609 1914 
Q 372 2147 372 2553 
Q 372 3047 722 3315 
Q 1072 3584 1716 3584 
Q 2034 3584 2315 3537 
Q 2597 3491 2834 3397 
z
" transform="scale(0.015625)"/>
       <path id="DejaVuSans-6b" d="M 581 4863 
L 1159 4863 
L 1159 1991 
L 2875 3500 
L 3609 3500 
L 1753 1863 
L 3688 0 
L 2938 0 
L 1159 1709 
L 1159 0 
L 581 0 
L 581 4863 
z
" transform="scale(0.015625)"/>
       <path id="DejaVuSans-fc" d="M 544 1381 
L 544 3500 
L 1119 3500 
L 1119 1403 
Q 1119 906 1312 657 
Q 1506 409 1894 409 
Q 2359 409 2629 706 
Q 2900 1003 2900 1516 
L 2900 3500 
L 3475 3500 
L 3475 0 
L 2900 0 
L 2900 538 
Q 2691 219 2414 64 
Q 2138 -91 1772 -91 
Q 1169 -91 856 284 
Q 544 659 544 1381 
z
M 1991 3584 
L 1991 3584 
z
M 2278 4850 
L 2912 4850 
L 2912 4219 
L 2278 4219 
L 2278 4850 
z
M 1056 4850 
L 1690 4850 
L 1690 4219 
L 1056 4219 
L 1056 4850 
z
" transform="scale(0.015625)"/>
       <path id="DejaVuSans-68" d="M 3513 2113 
L 3513 0 
L 2938 0 
L 2938 2094 
Q 2938 2591 2744 2837 
Q 2550 3084 2163 3084 
Q 1697 3084 1428 2787 
Q 1159 2491 1159 1978 
L 1159 0 
L 581 0 
L 581 4863 
L 1159 4863 
L 1159 2956 
Q 1366 3272 1645 3428 
Q 1925 3584 2291 3584 
Q 2894 3584 3203 3211 
Q 3513 2838 3513 2113 
z
" transform="scale(0.015625)"/>
       <path id="DejaVuSans-6c" d="M 603 4863 
L 1178 4863 
L 1178 0 
L 603 0 
L 603 4863 
z
" transform="scale(0.015625)"/>
       <path id="DejaVuSans-65" d="M 3597 1894 
L 3597 1613 
L 953 1613 
Q 991 1019 1311 708 
Q 1631 397 2203 397 
Q 2534 397 2845 478 
Q 3156 559 3463 722 
L 3463 178 
Q 3153 47 2828 -22 
Q 2503 -91 2169 -91 
Q 1331 -91 842 396 
Q 353 884 353 1716 
Q 353 2575 817 3079 
Q 1281 3584 2069 3584 
Q 2775 3584 3186 3129 
Q 3597 2675 3597 1894 
z
M 3022 2063 
Q 3016 2534 2758 2815 
Q 2500 3097 2075 3097 
Q 1594 3097 1305 2825 
Q 1016 2553 972 2059 
L 3022 2063 
z
" transform="scale(0.015625)"/>
       <path id="DejaVuSans-72" d="M 2631 2963 
Q 2534 3019 2420 3045 
Q 2306 3072 2169 3072 
Q 1681 3072 1420 2755 
Q 1159 2438 1159 1844 
L 1159 0 
L 581 0 
L 581 3500 
L 1159 3500 
L 1159 2956 
Q 1341 3275 1631 3429 
Q 1922 3584 2338 3584 
Q 2397 3584 2469 3576 
Q 2541 3569 2628 3553 
L 2631 2963 
z
" transform="scale(0.015625)"/>
       <path id="DejaVuSans-64" d="M 2906 2969 
L 2906 4863 
L 3481 4863 
L 3481 0 
L 2906 0 
L 2906 525 
Q 2725 213 2448 61 
Q 2172 -91 1784 -91 
Q 1150 -91 751 415 
Q 353 922 353 1747 
Q 353 2572 751 3078 
Q 1150 3584 1784 3584 
Q 2172 3584 2448 3432 
Q 2725 3281 2906 2969 
z
M 947 1747 
Q 947 1113 1208 752 
Q 1469 391 1925 391 
Q 2381 391 2643 752 
Q 2906 1113 2906 1747 
Q 2906 2381 2643 2742 
Q 2381 3103 1925 3103 
Q 1469 3103 1208 2742 
Q 947 2381 947 1747 
z
" transform="scale(0.015625)"/>
       <path id="DejaVuSans-75" d="M 544 1381 
L 544 3500 
L 1119 3500 
L 1119 1403 
Q 1119 906 1312 657 
Q 1506 409 1894 409 
Q 2359 409 2629 706 
Q 2900 1003 2900 1516 
L 2900 3500 
L 3475 3500 
L 3475 0 
L 2900 0 
L 2900 538 
Q 2691 219 2414 64 
Q 2138 -91 1772 -91 
Q 1169 -91 856 284 
Q 544 659 544 1381 
z
M 1991 3584 
L 1991 3584 
z
" transform="scale(0.015625)"/>
       <path id="DejaVuSans-63" d="M 3122 3366 
L 3122 2828 
Q 2878 2963 2633 3030 
Q 2388 3097 2138 3097 
Q 1578 3097 1268 2742 
Q 959 2388 959 1747 
Q 959 1106 1268 751 
Q 1578 397 2138 397 
Q 2388 397 2633 464 
Q 2878 531 3122 666 
L 3122 134 
Q 2881 22 2623 -34 
Q 2366 -91 2075 -91 
Q 1284 -91 818 406 
Q 353 903 353 1747 
Q 353 2603 823 3093 
Q 1294 3584 2113 3584 
Q 2378 3584 2631 3529 
Q 2884 3475 3122 3366 
z
" transform="scale(0.015625)"/>
       <path id="DejaVuSans-20" transform="scale(0.015625)"/>
       <path id="DejaVuSans-69" d="M 603 3500 
L 1178 3500 
L 1178 0 
L 603 0 
L 603 3500 
z
M 603 4863 
L 1178 4863 
L 1178 4134 
L 603 4134 
L 603 4863 
z
" transform="scale(0.015625)"/>
       <path id="DejaVuSans-6e" d="M 3513 2113 
L 3513 0 
L 2938 0 
L 2938 2094 
Q 2938 2591 2744 2837 
Q 2550 3084 2163 3084 
Q 1697 3084 1428 2787 
Q 1159 2491 1159 1978 
L 1159 0 
L 581 0 
L 581 3500 
L 1159 3500 
L 1159 2956 
Q 1366 3272 1645 3428 
Q 1925 3584 2291 3584 
Q 2894 3584 3203 3211 
Q 3513 2838 3513 2113 
z
" transform="scale(0.015625)"/>
       <path id="DejaVuSans-62" d="M 3116 1747 
Q 3116 2381 2855 2742 
Q 2594 3103 2138 3103 
Q 1681 3103 1420 2742 
Q 1159 2381 1159 1747 
Q 1159 1113 1420 752 
Q 1681 391 2138 391 
Q 2594 391 2855 752 
Q 3116 1113 3116 1747 
z
M 1159 2969 
Q 1341 3281 1617 3432 
Q 1894 3584 2278 3584 
Q 2916 3584 3314 3078 
Q 3713 2572 3713 1747 
Q 3713 922 3314 415 
Q 2916 -91 2278 -91 
Q 1894 -91 1617 61 
Q 1341 213 1159 525 
L 1159 0 
L 581 0 
L 581 4863 
L 1159 4863 
L 1159 2969 
z
" transform="scale(0.015625)"/>
      </defs>
      <use xlink:href="#DejaVuSans-47"/>
      <use xlink:href="#DejaVuSans-61" x="77.490234"/>
      <use xlink:href="#DejaVuSans-73" x="138.769531"/>
      <use xlink:href="#DejaVuSans-6b" x="190.869141"/>
      <use xlink:href="#DejaVuSans-fc" x="245.654297"/>
      <use xlink:href="#DejaVuSans-68" x="309.033203"/>
      <use xlink:href="#DejaVuSans-6c" x="372.412109"/>
      <use xlink:href="#DejaVuSans-65" x="400.195312"/>
      <use xlink:href="#DejaVuSans-72" x="461.71875"/>
      <use xlink:href="#DejaVuSans-64" x="501.082031"/>
      <use xlink:href="#DejaVuSans-72" x="564.558594"/>
      <use xlink:href="#DejaVuSans-75" x="605.671875"/>
      <use xlink:href="#DejaVuSans-63" x="669.050781"/>
      <use xlink:href="#DejaVuSans-6b" x="724.03125"/>
      <use xlink:href="#DejaVuSans-20" x="781.941406"/>
      <use xlink:href="#DejaVuSans-69" x="813.728516"/>
      <use xlink:href="#DejaVuSans-6e" x="841.511719"/>
      <use xlink:href="#DejaVuSans-20" x="904.890625"/>
      <use xlink:href="#DejaVuSans-62" x="936.677734"/>
      <use xlink:href="#DejaVuSans-61" x="1000.154297"/>
      <use xlink:href="#DejaVuSans-72" x="1061.433594"/>
     </g>
    </g>
   </g>
   <g id="matplotlib.axis_2">
    <g id="ytick_1">
     <g id="line2d_15">
      <path d="M 180 759.933793 
L 1296 759.933793 
" clip-path="url(#p9d17a06b5b)" style="fill: none; stroke: #b0b0b0; stroke-width: 0.8; stroke-linecap: square"/>
     </g>
     <g id="line2d_16">
      <defs>
       <path id="mafdda0e108" d="M 0 0 
L -3.5 0 
" style="stroke: #000000; stroke-width: 0.8"/>
      </defs>
      <g>
       <use xlink:href="#mafdda0e108" x="180" y="759.933793" style="stroke: #000000; stroke-width: 0.8"/>
      </g>
     </g>
     <g id="text_9">
      <!-- 68 -->
      <g transform="translate(147.55 767.53223) scale(0.2 -0.2)">
       <defs>
        <path id="DejaVuSans-36" d="M 2113 2584 
Q 1688 2584 1439 2293 
Q 1191 2003 1191 1497 
Q 1191 994 1439 701 
Q 1688 409 2113 409 
Q 2538 409 2786 701 
Q 3034 994 3034 1497 
Q 3034 2003 2786 2293 
Q 2538 2584 2113 2584 
z
M 3366 4563 
L 3366 3988 
Q 3128 4100 2886 4159 
Q 2644 4219 2406 4219 
Q 1781 4219 1451 3797 
Q 1122 3375 1075 2522 
Q 1259 2794 1537 2939 
Q 1816 3084 2150 3084 
Q 2853 3084 3261 2657 
Q 3669 2231 3669 1497 
Q 3669 778 3244 343 
Q 2819 -91 2113 -91 
Q 1303 -91 875 529 
Q 447 1150 447 2328 
Q 447 3434 972 4092 
Q 1497 4750 2381 4750 
Q 2619 4750 2861 4703 
Q 3103 4656 3366 4563 
z
" transform="scale(0.015625)"/>
        <path id="DejaVuSans-38" d="M 2034 2216 
Q 1584 2216 1326 1975 
Q 1069 1734 1069 1313 
Q 1069 891 1326 650 
Q 1584 409 2034 409 
Q 2484 409 2743 651 
Q 3003 894 3003 1313 
Q 3003 1734 2745 1975 
Q 2488 2216 2034 2216 
z
M 1403 2484 
Q 997 2584 770 2862 
Q 544 3141 544 3541 
Q 544 4100 942 4425 
Q 1341 4750 2034 4750 
Q 2731 4750 3128 4425 
Q 3525 4100 3525 3541 
Q 3525 3141 3298 2862 
Q 3072 2584 2669 2484 
Q 3125 2378 3379 2068 
Q 3634 1759 3634 1313 
Q 3634 634 3220 271 
Q 2806 -91 2034 -91 
Q 1263 -91 848 271 
Q 434 634 434 1313 
Q 434 1759 690 2068 
Q 947 2378 1403 2484 
z
M 1172 3481 
Q 1172 3119 1398 2916 
Q 1625 2713 2034 2713 
Q 2441 2713 2670 2916 
Q 2900 3119 2900 3481 
Q 2900 3844 2670 4047 
Q 2441 4250 2034 4250 
Q 1625 4250 1398 4047 
Q 1172 3844 1172 3481 
z
" transform="scale(0.015625)"/>
       </defs>
       <use xlink:href="#DejaVuSans-36"/>
       <use xlink:href="#DejaVuSans-38" x="63.623047"/>
      </g>
     </g>
    </g>
    <g id="ytick_2">
     <g id="line2d_17">
      <path d="M 180 642.771597 
L 1296 642.771597 
" clip-path="url(#p9d17a06b5b)" style="fill: none; stroke: #b0b0b0; stroke-width: 0.8; stroke-linecap: square"/>
     </g>
     <g id="line2d_18">
      <g>
       <use xlink:href="#mafdda0e108" x="180" y="642.771597" style="stroke: #000000; stroke-width: 0.8"/>
      </g>
     </g>
     <g id="text_10">
      <!-- 69 -->
      <g transform="translate(147.55 650.370035) scale(0.2 -0.2)">
       <use xlink:href="#DejaVuSans-36"/>
       <use xlink:href="#DejaVuSans-39" x="63.623047"/>
      </g>
     </g>
    </g>
    <g id="ytick_3">
     <g id="line2d_19">
      <path d="M 180 525.609402 
L 1296 525.609402 
" clip-path="url(#p9d17a06b5b)" style="fill: none; stroke: #b0b0b0; stroke-width: 0.8; stroke-linecap: square"/>
     </g>
     <g id="line2d_20">
      <g>
       <use xlink:href="#mafdda0e108" x="180" y="525.609402" style="stroke: #000000; stroke-width: 0.8"/>
      </g>
     </g>
     <g id="text_11">
      <!-- 70 -->
      <g transform="translate(147.55 533.20784) scale(0.2 -0.2)">
       <defs>
        <path id="DejaVuSans-37" d="M 525 4666 
L 3525 4666 
L 3525 4397 
L 1831 0 
L 1172 0 
L 2766 4134 
L 525 4134 
L 525 4666 
z
" transform="scale(0.015625)"/>
       </defs>
       <use xlink:href="#DejaVuSans-37"/>
       <use xlink:href="#DejaVuSans-30" x="63.623047"/>
      </g>
     </g>
    </g>
    <g id="ytick_4">
     <g id="line2d_21">
      <path d="M 180 408.447207 
L 1296 408.447207 
" clip-path="url(#p9d17a06b5b)" style="fill: none; stroke: #b0b0b0; stroke-width: 0.8; stroke-linecap: square"/>
     </g>
     <g id="line2d_22">
      <g>
       <use xlink:href="#mafdda0e108" x="180" y="408.447207" style="stroke: #000000; stroke-width: 0.8"/>
      </g>
     </g>
     <g id="text_12">
      <!-- 71 -->
      <g transform="translate(147.55 416.045645) scale(0.2 -0.2)">
       <use xlink:href="#DejaVuSans-37"/>
       <use xlink:href="#DejaVuSans-31" x="63.623047"/>
      </g>
     </g>
    </g>
    <g id="ytick_5">
     <g id="line2d_23">
      <path d="M 180 291.285012 
L 1296 291.285012 
" clip-path="url(#p9d17a06b5b)" style="fill: none; stroke: #b0b0b0; stroke-width: 0.8; stroke-linecap: square"/>
     </g>
     <g id="line2d_24">
      <g>
       <use xlink:href="#mafdda0e108" x="180" y="291.285012" style="stroke: #000000; stroke-width: 0.8"/>
      </g>
     </g>
     <g id="text_13">
      <!-- 72 -->
      <g transform="translate(147.55 298.88345) scale(0.2 -0.2)">
       <use xlink:href="#DejaVuSans-37"/>
       <use xlink:href="#DejaVuSans-32" x="63.623047"/>
      </g>
     </g>
    </g>
    <g id="ytick_6">
     <g id="line2d_25">
      <path d="M 180 174.122817 
L 1296 174.122817 
" clip-path="url(#p9d17a06b5b)" style="fill: none; stroke: #b0b0b0; stroke-width: 0.8; stroke-linecap: square"/>
     </g>
     <g id="line2d_26">
      <g>
       <use xlink:href="#mafdda0e108" x="180" y="174.122817" style="stroke: #000000; stroke-width: 0.8"/>
      </g>
     </g>
     <g id="text_14">
      <!-- 73 -->
      <g transform="translate(147.55 181.721255) scale(0.2 -0.2)">
       <use xlink:href="#DejaVuSans-37"/>
       <use xlink:href="#DejaVuSans-33" x="63.623047"/>
      </g>
     </g>
    </g>
    <g id="text_15">
     <!-- exergetischer Wirkungsgrad -->
     <g transform="translate(139.390625 613.239375) rotate(-90) scale(0.2 -0.2)">
      <defs>
       <path id="DejaVuSans-78" d="M 3513 3500 
L 2247 1797 
L 3578 0 
L 2900 0 
L 1881 1375 
L 863 0 
L 184 0 
L 1544 1831 
L 300 3500 
L 978 3500 
L 1906 2253 
L 2834 3500 
L 3513 3500 
z
" transform="scale(0.015625)"/>
       <path id="DejaVuSans-67" d="M 2906 1791 
Q 2906 2416 2648 2759 
Q 2391 3103 1925 3103 
Q 1463 3103 1205 2759 
Q 947 2416 947 1791 
Q 947 1169 1205 825 
Q 1463 481 1925 481 
Q 2391 481 2648 825 
Q 2906 1169 2906 1791 
z
M 3481 434 
Q 3481 -459 3084 -895 
Q 2688 -1331 1869 -1331 
Q 1566 -1331 1297 -1286 
Q 1028 -1241 775 -1147 
L 775 -588 
Q 1028 -725 1275 -790 
Q 1522 -856 1778 -856 
Q 2344 -856 2625 -561 
Q 2906 -266 2906 331 
L 2906 616 
Q 2728 306 2450 153 
Q 2172 0 1784 0 
Q 1141 0 747 490 
Q 353 981 353 1791 
Q 353 2603 747 3093 
Q 1141 3584 1784 3584 
Q 2172 3584 2450 3431 
Q 2728 3278 2906 2969 
L 2906 3500 
L 3481 3500 
L 3481 434 
z
" transform="scale(0.015625)"/>
       <path id="DejaVuSans-74" d="M 1172 4494 
L 1172 3500 
L 2356 3500 
L 2356 3053 
L 1172 3053 
L 1172 1153 
Q 1172 725 1289 603 
Q 1406 481 1766 481 
L 2356 481 
L 2356 0 
L 1766 0 
Q 1100 0 847 248 
Q 594 497 594 1153 
L 594 3053 
L 172 3053 
L 172 3500 
L 594 3500 
L 594 4494 
L 1172 4494 
z
" transform="scale(0.015625)"/>
       <path id="DejaVuSans-57" d="M 213 4666 
L 850 4666 
L 1831 722 
L 2809 4666 
L 3519 4666 
L 4500 722 
L 5478 4666 
L 6119 4666 
L 4947 0 
L 4153 0 
L 3169 4050 
L 2175 0 
L 1381 0 
L 213 4666 
z
" transform="scale(0.015625)"/>
      </defs>
      <use xlink:href="#DejaVuSans-65"/>
      <use xlink:href="#DejaVuSans-78" x="59.773438"/>
      <use xlink:href="#DejaVuSans-65" x="115.828125"/>
      <use xlink:href="#DejaVuSans-72" x="177.351562"/>
      <use xlink:href="#DejaVuSans-67" x="216.714844"/>
      <use xlink:href="#DejaVuSans-65" x="280.191406"/>
      <use xlink:href="#DejaVuSans-74" x="341.714844"/>
      <use xlink:href="#DejaVuSans-69" x="380.923828"/>
      <use xlink:href="#DejaVuSans-73" x="408.707031"/>
      <use xlink:href="#DejaVuSans-63" x="460.806641"/>
      <use xlink:href="#DejaVuSans-68" x="515.787109"/>
      <use xlink:href="#DejaVuSans-65" x="579.166016"/>
      <use xlink:href="#DejaVuSans-72" x="640.689453"/>
      <use xlink:href="#DejaVuSans-20" x="681.802734"/>
      <use xlink:href="#DejaVuSans-57" x="713.589844"/>
      <use xlink:href="#DejaVuSans-69" x="810.216797"/>
      <use xlink:href="#DejaVuSans-72" x="838"/>
      <use xlink:href="#DejaVuSans-6b" x="879.113281"/>
      <use xlink:href="#DejaVuSans-75" x="933.898438"/>
      <use xlink:href="#DejaVuSans-6e" x="997.277344"/>
      <use xlink:href="#DejaVuSans-67" x="1060.65625"/>
      <use xlink:href="#DejaVuSans-73" x="1124.132812"/>
      <use xlink:href="#DejaVuSans-67" x="1176.232422"/>
      <use xlink:href="#DejaVuSans-72" x="1239.708984"/>
      <use xlink:href="#DejaVuSans-61" x="1280.822266"/>
      <use xlink:href="#DejaVuSans-64" x="1342.101562"/>
     </g>
    </g>
   </g>
   <g id="line2d_27">
    <path d="M 248.010842 800.28 
L 260.556791 780.949971 
L 273.102741 765.442165 
L 285.648691 752.571158 
L 298.19464 741.644666 
L 310.74059 732.219109 
L 323.286539 723.991742 
L 335.832489 716.745129 
L 348.378438 710.31703 
L 360.924388 704.58373 
L 373.470338 699.44792 
L 386.016287 694.831674 
L 398.562237 690.671531 
L 411.108186 686.915054 
L 423.654136 683.518373 
L 436.200085 680.444382 
L 448.746035 677.661393 
L 461.291984 675.142111 
L 473.837934 672.862847 
L 486.383884 670.802897 
L 498.929833 668.944055 
L 511.475783 667.270222 
L 524.021732 665.767085 
L 536.567682 664.421865 
L 549.113631 663.223092 
L 561.659581 662.160443 
L 574.205531 661.224585 
L 586.75148 660.407054 
L 599.29743 659.700147 
L 611.843379 659.096834 
L 624.389329 658.590684 
L 636.935278 658.175794 
L 649.481228 657.846736 
L 662.027177 657.598507 
L 674.573127 657.426482 
L 687.119077 657.326383 
L 699.665026 657.29424 
L 712.210976 657.326366 
L 724.756925 657.419328 
L 737.302875 657.569925 
L 749.848824 657.77517 
L 762.394774 658.032269 
L 774.940723 658.338605 
L 787.486673 658.691726 
L 800.032623 659.089328 
L 812.578572 659.529248 
L 825.124522 660.009447 
L 837.670471 660.528007 
L 850.216421 661.083118 
L 862.76237 661.673072 
L 875.30832 662.296255 
L 887.85427 662.95114 
L 900.400219 663.636282 
L 912.946169 664.350311 
L 925.492118 665.091929 
L 938.038068 665.859904 
L 950.584017 666.653066 
L 963.129967 667.470303 
L 975.675916 668.310557 
L 988.221866 669.172822 
L 1000.767816 670.05614 
L 1013.313765 670.959598 
L 1025.859715 671.882323 
L 1038.405664 672.823487 
L 1050.951614 673.782296 
L 1063.497563 674.757993 
L 1076.043513 675.749854 
L 1088.589463 676.757187 
L 1101.135412 677.779331 
L 1113.681362 678.815653 
L 1126.227311 679.865545 
L 1138.773261 680.928429 
L 1151.31921 682.003746 
L 1163.86516 683.090965 
L 1176.411109 684.189573 
L 1188.957059 685.29908 
L 1201.503009 686.419014 
L 1214.048958 687.548925 
L 1226.594908 688.688377 
L 1239.140857 689.836953 
" clip-path="url(#p9d17a06b5b)" style="fill: none; stroke: #000000; stroke-width: 1.5; stroke-linecap: square"/>
   </g>
   <g id="line2d_28">
    <path d="M 248.010842 713.948002 
L 260.556791 694.407443 
L 273.102741 678.730737 
L 285.648691 665.719548 
L 298.19464 654.674052 
L 310.74059 645.145838 
L 323.286539 636.828864 
L 335.832489 629.503326 
L 348.378438 623.005216 
L 360.924388 617.209473 
L 373.470338 612.017727 
L 386.016287 607.351205 
L 398.562237 603.145752 
L 411.108186 599.348362 
L 423.654136 595.914687 
L 436.200085 592.807216 
L 448.746035 589.993917 
L 461.291984 587.447197 
L 473.837934 585.143108 
L 486.383884 583.060723 
L 498.929833 581.181636 
L 511.475783 579.489572 
L 524.021732 577.970064 
L 536.567682 576.610193 
L 549.113631 575.398364 
L 561.659581 574.324141 
L 574.205531 573.378091 
L 586.75148 572.551655 
L 599.29743 571.837049 
L 611.843379 571.227165 
L 624.389329 570.715503 
L 636.935278 570.296094 
L 649.481228 569.963452 
L 662.027177 569.712519 
L 674.573127 569.538621 
L 687.119077 569.437432 
L 699.665026 569.404939 
L 712.210976 569.437415 
L 724.756925 569.531389 
L 737.302875 569.683626 
L 749.848824 569.891107 
L 762.394774 570.151006 
L 774.940723 570.460678 
L 787.486673 570.817645 
L 800.032623 571.219578 
L 812.578572 571.664289 
L 825.124522 572.149718 
L 837.670471 572.673925 
L 850.216421 573.235083 
L 862.76237 573.831462 
L 875.30832 574.461432 
L 887.85427 575.12345 
L 900.400219 575.816054 
L 912.946169 576.537859 
L 925.492118 577.287555 
L 938.038068 578.063894 
L 950.584017 578.865694 
L 963.129967 579.691832 
L 975.675916 580.541238 
L 988.221866 581.412895 
L 1000.767816 582.305833 
L 1013.313765 583.21913 
L 1025.859715 584.151906 
L 1038.405664 585.10332 
L 1050.951614 586.072572 
L 1063.497563 587.058895 
L 1076.043513 588.061559 
L 1088.589463 589.079863 
L 1101.135412 590.113139 
L 1113.681362 591.160748 
L 1126.227311 592.222075 
L 1138.773261 593.296535 
L 1151.31921 594.383564 
L 1163.86516 595.482624 
L 1176.411109 596.593197 
L 1188.957059 597.714788 
L 1201.503009 598.84692 
L 1214.048958 599.989137 
L 1226.594908 601.140999 
L 1239.140857 602.302085 
" clip-path="url(#p9d17a06b5b)" style="fill: none; stroke: #000000; stroke-width: 1.5; stroke-linecap: square"/>
   </g>
   <g id="line2d_29">
    <path d="M 248.010842 628.660453 
L 260.556791 608.911912 
L 273.102741 593.068348 
L 285.648691 579.918673 
L 298.19464 568.755613 
L 310.74059 559.125984 
L 323.286539 550.720488 
L 335.832489 543.316979 
L 348.378438 536.749706 
L 360.924388 530.892275 
L 373.470338 525.64527 
L 386.016287 520.929079 
L 398.562237 516.678866 
L 411.108186 512.841057 
L 423.654136 509.370835 
L 436.200085 506.23029 
L 448.746035 503.387047 
L 461.291984 500.81322 
L 473.837934 498.484608 
L 486.383884 496.380058 
L 498.929833 494.480971 
L 511.475783 492.770898 
L 524.021732 491.235216 
L 536.567682 489.860872 
L 549.113631 488.636144 
L 561.659581 487.550488 
L 574.205531 486.594368 
L 586.75148 485.759136 
L 599.29743 485.036924 
L 611.843379 484.420549 
L 624.389329 483.90344 
L 636.935278 483.479568 
L 649.481228 483.143386 
L 662.027177 482.889781 
L 674.573127 482.714032 
L 687.119077 482.611766 
L 699.665026 482.578927 
L 712.210976 482.611749 
L 724.756925 482.706723 
L 737.302875 482.860581 
L 749.848824 483.07027 
L 762.394774 483.332935 
L 774.940723 483.645904 
L 787.486673 484.00667 
L 800.032623 484.412881 
L 812.578572 484.862325 
L 825.124522 485.352921 
L 837.670471 485.882708 
L 850.216421 486.449838 
L 862.76237 487.052565 
L 875.30832 487.68924 
L 887.85427 488.358304 
L 900.400219 489.05828 
L 912.946169 489.787768 
L 925.492118 490.545443 
L 938.038068 491.330045 
L 950.584017 492.14038 
L 963.129967 492.975311 
L 975.675916 493.833757 
L 988.221866 494.714691 
L 1000.767816 495.617134 
L 1013.313765 496.540152 
L 1025.859715 497.482855 
L 1038.405664 498.444396 
L 1050.951614 499.423964 
L 1063.497563 500.420786 
L 1076.043513 501.434121 
L 1088.589463 502.463264 
L 1101.135412 503.507538 
L 1113.681362 504.566297 
L 1126.227311 505.638921 
L 1138.773261 506.724817 
L 1151.31921 507.823416 
L 1163.86516 508.934174 
L 1176.411109 510.056567 
L 1188.957059 511.190096 
L 1201.503009 512.334278 
L 1214.048958 513.488652 
L 1226.594908 514.652774 
L 1239.140857 515.826218 
" clip-path="url(#p9d17a06b5b)" style="fill: none; stroke: #000000; stroke-width: 1.5; stroke-linecap: square"/>
   </g>
   <g id="line2d_30">
    <path d="M 248.010842 544.376817 
L 260.556791 524.422742 
L 273.102741 508.414285 
L 285.648691 495.127754 
L 298.19464 483.848513 
L 310.74059 474.118663 
L 323.286539 465.625686 
L 335.832489 458.145125 
L 348.378438 451.509503 
L 360.924388 445.59111 
L 373.470338 440.289497 
L 386.016287 435.524222 
L 398.562237 431.229774 
L 411.108186 427.352023 
L 423.654136 423.845684 
L 436.200085 420.672454 
L 448.746035 417.799619 
L 461.291984 415.199006 
L 473.837934 412.846158 
L 486.383884 410.719705 
L 498.929833 408.800853 
L 511.475783 407.072982 
L 524.021732 405.521318 
L 536.567682 404.13267 
L 549.113631 402.895196 
L 561.659581 401.79824 
L 574.205531 400.832169 
L 586.75148 399.988245 
L 599.29743 399.258516 
L 611.843379 398.635726 
L 624.389329 398.113236 
L 636.935278 397.684952 
L 649.481228 397.345271 
L 662.027177 397.089027 
L 674.573127 396.911449 
L 687.119077 396.808118 
L 699.665026 396.774938 
L 712.210976 396.808101 
L 724.756925 396.904064 
L 737.302875 397.059523 
L 749.848824 397.271394 
L 762.394774 397.536793 
L 774.940723 397.853019 
L 787.486673 398.21754 
L 800.032623 398.627978 
L 812.578572 399.0821 
L 825.124522 399.577802 
L 837.670471 400.113103 
L 850.216421 400.686135 
L 862.76237 401.295135 
L 875.30832 401.938437 
L 887.85427 402.614464 
L 900.400219 403.321724 
L 912.946169 404.058805 
L 925.492118 404.824365 
L 938.038068 405.617134 
L 950.584017 406.435902 
L 963.129967 407.279522 
L 975.675916 408.146903 
L 988.221866 409.037006 
L 1000.767816 409.94884 
L 1013.313765 410.881465 
L 1025.859715 411.833979 
L 1038.405664 412.805528 
L 1050.951614 413.795291 
L 1063.497563 414.802487 
L 1076.043513 415.826369 
L 1088.589463 416.866222 
L 1101.135412 417.921365 
L 1113.681362 418.991143 
L 1126.227311 420.07493 
L 1138.773261 421.172127 
L 1151.31921 422.28216 
L 1163.86516 423.404478 
L 1176.411109 424.538553 
L 1188.957059 425.683879 
L 1201.503009 426.83997 
L 1214.048958 428.006358 
L 1226.594908 429.182595 
L 1239.140857 430.368252 
" clip-path="url(#p9d17a06b5b)" style="fill: none; stroke: #000000; stroke-width: 1.5; stroke-linecap: square"/>
   </g>
   <g id="line2d_31">
    <path d="M 248.010842 461.056436 
L 260.556791 440.899175 
L 273.102741 424.72771 
L 285.648691 411.305887 
L 298.19464 399.911794 
L 310.74059 390.082868 
L 323.286539 381.50341 
L 335.832489 373.946677 
L 348.378438 367.243487 
L 360.924388 361.264829 
L 373.470338 355.909232 
L 386.016287 351.095433 
L 398.562237 346.757256 
L 411.108186 342.84002 
L 423.654136 339.297978 
L 436.200085 336.092435 
L 448.746035 333.190347 
L 461.291984 330.563253 
L 473.837934 328.186447 
L 486.383884 326.038341 
L 498.929833 324.09995 
L 511.475783 322.354484 
L 524.021732 320.78702 
L 536.567682 319.384232 
L 549.113631 318.134157 
L 561.659581 317.026032 
L 574.205531 316.050124 
L 586.75148 315.197606 
L 599.29743 314.460447 
L 611.843379 313.831315 
L 624.389329 313.303505 
L 636.935278 312.870859 
L 649.481228 312.52772 
L 662.027177 312.268867 
L 674.573127 312.08948 
L 687.119077 311.985098 
L 699.665026 311.951579 
L 712.210976 311.98508 
L 724.756925 312.08202 
L 737.302875 312.239062 
L 749.848824 312.453091 
L 762.394774 312.721192 
L 774.940723 313.040638 
L 787.486673 313.408871 
L 800.032623 313.823489 
L 812.578572 314.282234 
L 825.124522 314.782984 
L 837.670471 315.323735 
L 850.216421 315.902603 
L 862.76237 316.517804 
L 875.30832 317.167656 
L 887.85427 317.850567 
L 900.400219 318.565029 
L 912.946169 319.309615 
L 925.492118 320.082971 
L 938.038068 320.883812 
L 950.584017 321.710917 
L 963.129967 322.563128 
L 975.675916 323.439341 
L 988.221866 324.338507 
L 1000.767816 325.259627 
L 1013.313765 326.201748 
L 1025.859715 327.163962 
L 1038.405664 328.145403 
L 1050.951614 329.145244 
L 1063.497563 330.162696 
L 1076.043513 331.197004 
L 1088.589463 332.247446 
L 1101.135412 333.313333 
L 1113.681362 334.394004 
L 1126.227311 335.488827 
L 1138.773261 336.597196 
L 1151.31921 337.718533 
L 1163.86516 338.852279 
L 1176.411109 339.997902 
L 1188.957059 341.15489 
L 1201.503009 342.322753 
L 1214.048958 343.501018 
L 1226.594908 344.689233 
L 1239.140857 345.886962 
" clip-path="url(#p9d17a06b5b)" style="fill: none; stroke: #000000; stroke-width: 1.5; stroke-linecap: square"/>
   </g>
   <g id="line2d_32">
    <path d="M 248.010842 378.6583 
L 260.556791 358.300103 
L 273.102741 341.967434 
L 285.648691 328.411816 
L 298.19464 316.904142 
L 310.74059 306.977237 
L 323.286539 298.312255 
L 335.832489 290.680193 
L 348.378438 283.910183 
L 360.924388 277.871927 
L 373.470338 272.462943 
L 386.016287 267.601158 
L 398.562237 263.219737 
L 411.108186 259.263452 
L 423.654136 255.686101 
L 436.200085 252.448604 
L 448.746035 249.517587 
L 461.291984 246.864304 
L 473.837934 244.463805 
L 486.383884 242.294286 
L 498.929833 240.336572 
L 511.475783 238.573707 
L 524.021732 236.990618 
L 536.567682 235.573846 
L 549.113631 234.31131 
L 561.659581 233.192139 
L 574.205531 232.206502 
L 586.75148 231.345486 
L 599.29743 230.600978 
L 611.843379 229.965576 
L 624.389329 229.432503 
L 636.935278 228.995545 
L 649.481228 228.648985 
L 662.027177 228.387552 
L 674.573127 228.206377 
L 687.119077 228.100954 
L 699.665026 228.067101 
L 712.210976 228.100936 
L 724.756925 228.198842 
L 737.302875 228.35745 
L 749.848824 228.573612 
L 762.394774 228.844386 
L 774.940723 229.167016 
L 787.486673 229.53892 
L 800.032623 229.957671 
L 812.578572 230.420989 
L 825.124522 230.92673 
L 837.670471 231.472873 
L 850.216421 232.05751 
L 862.76237 232.678844 
L 875.30832 233.335175 
L 887.85427 234.024893 
L 900.400219 234.746477 
L 912.946169 235.498486 
L 925.492118 236.27955 
L 938.038068 237.088374 
L 950.584017 237.923725 
L 963.129967 238.784431 
L 975.675916 239.669378 
L 988.221866 240.577508 
L 1000.767816 241.507809 
L 1013.313765 242.459322 
L 1025.859715 243.431127 
L 1038.405664 244.422352 
L 1050.951614 245.43216 
L 1063.497563 246.459755 
L 1076.043513 247.504373 
L 1088.589463 248.565286 
L 1101.135412 249.641798 
L 1113.681362 250.733242 
L 1126.227311 251.838978 
L 1138.773261 252.958397 
L 1151.31921 254.090911 
L 1163.86516 255.235959 
L 1176.411109 256.393002 
L 1188.957059 257.561524 
L 1201.503009 258.741028 
L 1214.048958 259.931038 
L 1226.594908 261.131098 
L 1239.140857 262.340767 
" clip-path="url(#p9d17a06b5b)" style="fill: none; stroke: #000000; stroke-width: 1.5; stroke-linecap: square"/>
   </g>
   <g id="line2d_33">
    <path d="M 537.725769 152.53514 
L 546.604441 151.627361 
L 555.483113 150.793117 
L 564.361785 150.028769 
L 573.240457 149.330926 
L 582.119129 148.69642 
L 590.997801 148.12229 
L 599.876473 147.60576 
L 608.755145 147.144229 
L 617.633817 146.735253 
L 626.512489 146.376531 
L 635.391161 146.0659 
L 644.269833 145.801318 
L 653.148505 145.58086 
L 662.027177 145.402703 
L 670.905849 145.265127 
L 679.784521 145.166502 
L 688.663193 145.105281 
L 697.541865 145.08 
L 706.420537 145.089266 
L 715.299209 145.131756 
L 724.177881 145.206214 
L 733.056553 145.31144 
L 741.935225 145.446295 
L 750.813897 145.609691 
L 759.692569 145.800591 
L 768.571241 146.018005 
L 777.449913 146.260986 
L 786.328585 146.528631 
L 795.207257 146.820075 
L 804.085929 147.134489 
L 812.964601 147.471082 
L 821.843273 147.829093 
L 830.721945 148.207795 
L 839.600617 148.60649 
L 848.479289 149.024507 
L 857.357961 149.461203 
L 866.236633 149.915959 
L 875.115305 150.388182 
L 883.993977 150.8773 
L 892.872649 151.382765 
L 901.751321 151.904046 
L 910.629993 152.440636 
L 919.508665 152.992043 
L 928.387337 153.557797 
L 937.266009 154.13744 
L 946.144681 154.730534 
L 955.023353 155.336656 
L 963.902025 155.955397 
L 972.780697 156.586363 
L 981.659369 157.229173 
L 990.538041 157.883458 
L 999.416713 158.548864 
L 1008.295385 159.225046 
L 1017.174057 159.911674 
L 1026.052729 160.608425 
L 1034.931401 161.314989 
L 1043.810073 162.031065 
L 1052.688745 162.756363 
L 1061.567417 163.4906 
L 1070.446089 164.233504 
L 1079.324761 164.984809 
L 1088.203433 165.744264 
L 1097.082105 166.511615 
L 1105.960777 167.286624 
L 1114.839449 168.069059 
L 1123.718121 168.858691 
L 1132.596793 169.655304 
L 1141.475465 170.458682 
L 1150.354137 171.268621 
L 1159.232809 172.084919 
L 1168.111481 172.907382 
L 1176.990153 173.735821 
L 1185.868825 174.570053 
L 1194.747497 175.4099 
L 1203.626169 176.255187 
L 1212.504841 177.105748 
L 1221.383513 177.961419 
L 1230.262185 178.82204 
L 1239.140857 179.687457 
" clip-path="url(#p9d17a06b5b)" style="fill: none; stroke: #000000; stroke-width: 1.5; stroke-linecap: square"/>
   </g>
   <g id="line2d_34">
    <path d="M 230.727273 548.370098 
L 242.825313 517.157719 
L 254.946097 493.495462 
L 267.089633 474.293145 
L 279.255937 458.087165 
L 291.445115 444.054209 
L 303.65718 431.679837 
L 315.892008 420.619014 
L 328.149915 410.626915 
L 340.430066 401.524628 
L 352.733604 393.174105 
L 365.06012 385.469285 
L 377.409644 378.325295 
L 389.782207 371.673349 
L 402.177841 365.456842 
L 414.596576 359.628582 
L 427.038445 354.148772 
L 439.50348 348.983513 
L 451.991714 344.10367 
L 464.503181 339.484006 
L 477.037913 335.102501 
L 489.595944 330.939819 
L 502.177311 326.978878 
L 514.782046 323.204513 
L 527.410187 319.603188 
L 540.061768 316.162775 
L 552.736826 312.872346 
L 565.435398 309.722037 
L 578.157521 306.702902 
L 590.903233 303.8068 
L 603.672572 301.026305 
L 616.465578 298.354617 
L 629.282288 295.785499 
L 642.122743 293.313212 
L 654.986984 290.932463 
L 667.87505 288.638361 
L 680.786984 286.426376 
L 693.722826 284.292303 
L 706.68262 282.232235 
L 719.666409 280.24253 
L 732.674235 278.319792 
L 745.706143 276.460845 
L 758.762177 274.662719 
L 771.842382 272.922629 
L 784.946804 271.237962 
L 798.075489 269.60626 
L 811.228485 268.025212 
L 824.405837 266.49264 
L 837.607596 265.00649 
L 850.833808 263.564822 
L 864.084523 262.165802 
L 877.359791 260.807695 
L 890.659662 259.488857 
L 903.984188 258.20773 
L 917.333419 256.962836 
L 930.707409 255.75277 
L 944.10621 254.576198 
L 957.529876 253.43185 
L 970.978461 252.318516 
L 984.45202 251.235047 
L 997.950608 250.180343 
L 1011.474282 249.153358 
L 1025.023098 248.153091 
L 1038.597115 247.178588 
L 1052.19639 246.228935 
L 1065.820982 245.303259 
L 1079.470952 244.400722 
L 1093.146359 243.52053 
L 1106.847265 242.661911 
L 1120.573732 241.824132 
L 1134.325821 241.006488 
L 1148.103597 240.208304 
L 1161.907124 239.428929 
L 1175.736465 238.667741 
L 1189.591688 237.924142 
L 1203.472858 237.197555 
L 1217.380043 236.487427 
L 1231.313309 235.793225 
L 1245.272727 235.114439 
" clip-path="url(#p9d17a06b5b)" style="fill: none; stroke-dasharray: 5.55,2.4; stroke-dashoffset: 0; stroke: #ff0000; stroke-width: 1.5"/>
   </g>
   <g id="line2d_35">
    <path d="M 230.727273 631.845097 
L 242.825313 600.906719 
L 254.946097 577.4412 
L 267.089633 558.389968 
L 279.255937 542.304401 
L 291.445115 528.369616 
L 303.65718 516.076441 
L 315.892008 505.083377 
L 328.149915 495.14811 
L 340.430066 486.093561 
L 352.733604 477.783099 
L 365.06012 470.111751 
L 377.409644 462.995516 
L 389.782207 456.366313 
L 402.177841 450.16812 
L 414.596576 444.354229 
L 427.038445 438.885252 
L 439.50348 433.727638 
L 451.991714 428.852554 
L 464.503181 424.23502 
L 477.037913 419.853244 
L 489.595944 415.688087 
L 502.177311 411.722646 
L 514.782046 407.94191 
L 527.410187 404.332483 
L 540.061768 400.882361 
L 552.736826 397.58073 
L 565.435398 394.417828 
L 578.157521 391.384799 
L 590.903233 388.473588 
L 603.672572 385.676844 
L 616.465578 382.987838 
L 629.282288 380.400398 
L 642.122743 377.908842 
L 654.986984 375.507933 
L 667.87505 373.192831 
L 680.786984 370.959052 
L 693.722826 368.802435 
L 706.68262 366.719112 
L 719.666409 364.705479 
L 732.674235 362.758175 
L 745.706143 360.874058 
L 758.762177 359.050188 
L 771.842382 357.283808 
L 784.946804 355.572331 
L 798.075489 353.913328 
L 811.228485 352.304508 
L 824.405837 350.743718 
L 837.607596 349.228924 
L 850.833808 347.758206 
L 864.084523 346.329749 
L 877.359791 344.941836 
L 890.659662 343.59284 
L 903.984188 342.281219 
L 917.333419 341.00551 
L 930.707409 339.764322 
L 944.10621 338.556336 
L 957.529876 337.380295 
L 970.978461 336.235001 
L 984.45202 335.119316 
L 997.950608 334.032152 
L 1011.474282 332.972474 
L 1025.023098 331.939292 
L 1038.597115 330.931659 
L 1052.19639 329.948674 
L 1065.820982 328.98947 
L 1079.470952 328.053221 
L 1093.146359 327.139137 
L 1106.847265 326.246457 
L 1120.573732 325.374454 
L 1134.325821 324.52243 
L 1148.103597 323.689718 
L 1161.907124 322.875674 
L 1175.736465 322.079681 
L 1189.591688 321.301148 
L 1203.472858 320.539503 
L 1217.380043 319.7942 
L 1231.313309 319.064711 
L 1245.272727 318.35053 
" clip-path="url(#p9d17a06b5b)" style="fill: none; stroke-dasharray: 5.55,2.4; stroke-dashoffset: 0; stroke: #ffa500; stroke-width: 1.5"/>
   </g>
   <g id="line2d_36">
    <path d="M 230.727273 716.302263 
L 242.825313 685.640393 
L 254.946097 662.373204 
L 267.089633 643.47411 
L 279.255937 627.509646 
L 291.445115 613.673457 
L 303.65718 601.461704 
L 315.892008 590.536464 
L 328.149915 580.657963 
L 340.430066 571.650979 
L 352.733604 563.380314 
L 365.06012 555.742095 
L 377.409644 548.653203 
L 389.782207 542.046273 
L 402.177841 535.86587 
L 414.596576 530.065777 
L 427.038445 524.607019 
L 439.50348 519.4564 
L 451.991714 514.585388 
L 464.503181 509.969267 
L 477.037913 505.586473 
L 489.595944 501.41807 
L 502.177311 497.447332 
L 514.782046 493.659406 
L 527.410187 490.041036 
L 540.061768 486.580347 
L 552.736826 483.266636 
L 565.435398 480.090246 
L 578.157521 477.042414 
L 590.903233 474.115169 
L 603.672572 471.301238 
L 616.465578 468.593963 
L 629.282288 465.987236 
L 642.122743 463.475437 
L 654.986984 461.053383 
L 667.87505 458.716285 
L 680.786984 456.459706 
L 693.722826 454.279529 
L 706.68262 452.171928 
L 719.666409 450.133336 
L 732.674235 448.160427 
L 745.706143 446.250092 
L 758.762177 444.399423 
L 771.842382 442.605692 
L 784.946804 440.866339 
L 798.075489 439.17896 
L 811.228485 437.54129 
L 824.405837 435.951197 
L 837.607596 434.406668 
L 850.833808 432.905805 
L 864.084523 431.446811 
L 877.359791 430.027987 
L 890.659662 428.647723 
L 903.984188 427.304495 
L 917.333419 425.996853 
L 930.707409 424.723423 
L 944.10621 423.482898 
L 957.529876 422.274034 
L 970.978461 421.095647 
L 984.45202 419.94661 
L 997.950608 418.825848 
L 1011.474282 417.732335 
L 1025.023098 416.665092 
L 1038.597115 415.623183 
L 1052.19639 414.605714 
L 1065.820982 413.61183 
L 1079.470952 412.640711 
L 1093.146359 411.691578 
L 1106.847265 410.763676 
L 1120.573732 409.856286 
L 1134.325821 408.968718 
L 1148.103597 408.100311 
L 1161.907124 407.250428 
L 1175.736465 406.41846 
L 1189.591688 405.603819 
L 1203.472858 404.805942 
L 1217.380043 404.024287 
L 1231.313309 403.258333 
L 1245.272727 402.507577 
" clip-path="url(#p9d17a06b5b)" style="fill: none; stroke-dasharray: 5.55,2.4; stroke-dashoffset: 0; stroke: #008000; stroke-width: 1.5"/>
   </g>
   <g id="line2d_37">
    <path d="M 522.590504 665.930354 
L 531.450925 663.431384 
L 540.322872 661.006549 
L 549.206357 658.652312 
L 558.101393 656.365378 
L 567.007992 654.142671 
L 575.926167 651.981317 
L 584.855932 649.878625 
L 593.797299 647.832071 
L 602.750282 645.839288 
L 611.714894 643.898047 
L 620.691149 642.006252 
L 629.679059 640.161927 
L 638.67864 638.363207 
L 647.689905 636.608328 
L 656.712867 634.895625 
L 665.747541 633.223518 
L 674.793941 631.590511 
L 683.852081 629.995185 
L 692.921977 628.436192 
L 702.003641 626.91225 
L 711.09709 625.42214 
L 720.202338 623.964702 
L 729.319401 622.538828 
L 738.448292 621.143466 
L 747.589028 619.777606 
L 756.741623 618.440288 
L 765.906095 617.130593 
L 775.082457 615.847642 
L 784.270726 614.590593 
L 793.470917 613.358641 
L 802.683048 612.151014 
L 811.907134 610.966971 
L 821.143191 609.805803 
L 830.391237 608.666827 
L 839.651286 607.549389 
L 848.923358 606.45286 
L 858.207468 605.376635 
L 867.503633 604.320131 
L 876.811871 603.28279 
L 886.132199 602.264071 
L 895.464635 601.263455 
L 904.809196 600.280442 
L 914.1659 599.31455 
L 923.534766 598.365312 
L 932.915811 597.432279 
L 942.309053 596.515018 
L 951.714511 595.613111 
L 961.132205 594.726153 
L 970.562151 593.853752 
L 980.00437 592.995532 
L 989.458881 592.151126 
L 998.925703 591.320182 
L 1008.404854 590.502356 
L 1017.896356 589.697318 
L 1027.400227 588.904747 
L 1036.916487 588.124333 
L 1046.445157 587.355774 
L 1055.986257 586.598779 
L 1065.539807 585.853065 
L 1075.105828 585.118357 
L 1084.68434 584.394388 
L 1094.275365 583.680905 
L 1103.878924 582.977652 
L 1113.495038 582.284387 
L 1123.123728 581.600875 
L 1132.765016 580.926886 
L 1142.418924 580.262198 
L 1152.085474 579.606593 
L 1161.764688 578.959861 
L 1171.456588 578.321797 
L 1181.161197 577.692203 
L 1190.878539 577.070886 
L 1200.608635 576.457656 
L 1210.351508 575.852331 
L 1220.107183 575.254733 
L 1229.875682 574.664688 
L 1239.65703 574.082027 
" clip-path="url(#p9d17a06b5b)" style="fill: none; stroke-dasharray: 5.55,2.4; stroke-dashoffset: 0; stroke: #4682b4; stroke-width: 1.5"/>
   </g>
   <g id="patch_3">
    <path d="M 180 833.04 
L 180 112.32 
" style="fill: none; stroke: #000000; stroke-width: 0.8; stroke-linejoin: miter; stroke-linecap: square"/>
   </g>
   <g id="patch_4">
    <path d="M 1296 833.04 
L 1296 112.32 
" style="fill: none; stroke: #000000; stroke-width: 0.8; stroke-linejoin: miter; stroke-linecap: square"/>
   </g>
   <g id="patch_5">
    <path d="M 180 833.04 
L 1296 833.04 
" style="fill: none; stroke: #000000; stroke-width: 0.8; stroke-linejoin: miter; stroke-linecap: square"/>
   </g>
   <g id="patch_6">
    <path d="M 180 112.32 
L 1296 112.32 
" style="fill: none; stroke: #000000; stroke-width: 0.8; stroke-linejoin: miter; stroke-linecap: square"/>
   </g>
   <g id="text_16">
    <!-- 190 -->
    <g transform="translate(1243.715303 697.837829) scale(0.2 -0.2)">
     <use xlink:href="#DejaVuSans-31"/>
     <use xlink:href="#DejaVuSans-39" x="63.623047"/>
     <use xlink:href="#DejaVuSans-30" x="127.246094"/>
    </g>
   </g>
   <g id="text_17">
    <!-- 195 -->
    <g transform="translate(1243.715303 609.966183) scale(0.2 -0.2)">
     <use xlink:href="#DejaVuSans-31"/>
     <use xlink:href="#DejaVuSans-39" x="63.623047"/>
     <use xlink:href="#DejaVuSans-35" x="127.246094"/>
    </g>
   </g>
   <g id="text_18">
    <!-- 200 -->
    <g transform="translate(1243.715303 524.43778) scale(0.2 -0.2)">
     <use xlink:href="#DejaVuSans-32"/>
     <use xlink:href="#DejaVuSans-30" x="63.623047"/>
     <use xlink:href="#DejaVuSans-30" x="127.246094"/>
    </g>
   </g>
   <g id="text_19">
    <!-- 205 -->
    <g transform="translate(1243.715303 441.252622) scale(0.2 -0.2)">
     <use xlink:href="#DejaVuSans-32"/>
     <use xlink:href="#DejaVuSans-30" x="63.623047"/>
     <use xlink:href="#DejaVuSans-35" x="127.246094"/>
    </g>
   </g>
   <g id="text_20">
    <!-- 210 -->
    <g transform="translate(1243.715303 354.552598) scale(0.2 -0.2)">
     <use xlink:href="#DejaVuSans-32"/>
     <use xlink:href="#DejaVuSans-31" x="63.623047"/>
     <use xlink:href="#DejaVuSans-30" x="127.246094"/>
    </g>
   </g>
   <g id="text_21">
    <!-- 215 -->
    <g transform="translate(1243.715303 271.367439) scale(0.2 -0.2)">
     <use xlink:href="#DejaVuSans-32"/>
     <use xlink:href="#DejaVuSans-31" x="63.623047"/>
     <use xlink:href="#DejaVuSans-35" x="127.246094"/>
    </g>
   </g>
   <g id="text_22">
    <!-- 220 -->
    <g transform="translate(1243.715303 187.010659) scale(0.2 -0.2)">
     <use xlink:href="#DejaVuSans-32"/>
     <use xlink:href="#DejaVuSans-32" x="63.623047"/>
     <use xlink:href="#DejaVuSans-30" x="127.246094"/>
    </g>
   </g>
   <g id="legend_1">
    <g id="patch_7">
     <path d="M 300.15625 823.04 
L 1175.84375 823.04 
Q 1179.84375 823.04 1179.84375 819.04 
L 1179.84375 790.84 
Q 1179.84375 786.84 1175.84375 786.84 
L 300.15625 786.84 
Q 296.15625 786.84 296.15625 790.84 
L 296.15625 819.04 
Q 296.15625 823.04 300.15625 823.04 
z
" style="fill: #ffffff; opacity: 0.8; stroke: #cccccc; stroke-linejoin: miter"/>
    </g>
    <g id="line2d_38">
     <path d="M 304.15625 803.04 
L 324.15625 803.04 
L 344.15625 803.04 
" style="fill: none; stroke: #000000; stroke-width: 1.5; stroke-linecap: square"/>
    </g>
    <g id="text_23">
     <!-- $T_{se,aus}$ [°C]          $ΔT_{GK,ob}$: -->
     <g transform="translate(360.15625 810.04) scale(0.2 -0.2)">
      <defs>
       <path id="DejaVuSans-Oblique-54" d="M 378 4666 
L 4325 4666 
L 4225 4134 
L 2559 4134 
L 1759 0 
L 1125 0 
L 1925 4134 
L 275 4134 
L 378 4666 
z
" transform="scale(0.015625)"/>
       <path id="DejaVuSans-Oblique-73" d="M 3200 3397 
L 3091 2853 
Q 2863 2978 2609 3040 
Q 2356 3103 2088 3103 
Q 1634 3103 1373 2948 
Q 1113 2794 1113 2528 
Q 1113 2219 1719 2053 
Q 1766 2041 1788 2034 
L 1972 1978 
Q 2547 1819 2739 1644 
Q 2931 1469 2931 1166 
Q 2931 609 2489 259 
Q 2047 -91 1331 -91 
Q 1053 -91 747 -37 
Q 441 16 72 128 
L 184 722 
Q 500 559 806 475 
Q 1113 391 1394 391 
Q 1816 391 2080 572 
Q 2344 753 2344 1031 
Q 2344 1331 1650 1516 
L 1591 1531 
L 1394 1581 
Q 956 1697 753 1886 
Q 550 2075 550 2369 
Q 550 2928 970 3256 
Q 1391 3584 2113 3584 
Q 2397 3584 2667 3537 
Q 2938 3491 3200 3397 
z
" transform="scale(0.015625)"/>
       <path id="DejaVuSans-Oblique-65" d="M 3078 2063 
Q 3088 2113 3092 2166 
Q 3097 2219 3097 2272 
Q 3097 2653 2873 2875 
Q 2650 3097 2266 3097 
Q 1838 3097 1509 2826 
Q 1181 2556 1013 2059 
L 3078 2063 
z
M 3578 1613 
L 903 1613 
Q 884 1494 878 1425 
Q 872 1356 872 1306 
Q 872 872 1139 634 
Q 1406 397 1894 397 
Q 2269 397 2603 481 
Q 2938 566 3225 728 
L 3116 159 
Q 2806 34 2476 -28 
Q 2147 -91 1806 -91 
Q 1078 -91 686 257 
Q 294 606 294 1247 
Q 294 1794 489 2264 
Q 684 2734 1063 3103 
Q 1306 3334 1642 3459 
Q 1978 3584 2356 3584 
Q 2950 3584 3301 3228 
Q 3653 2872 3653 2272 
Q 3653 2128 3634 1964 
Q 3616 1800 3578 1613 
z
" transform="scale(0.015625)"/>
       <path id="DejaVuSans-2c" d="M 750 794 
L 1409 794 
L 1409 256 
L 897 -744 
L 494 -744 
L 750 256 
L 750 794 
z
" transform="scale(0.015625)"/>
       <path id="DejaVuSans-Oblique-61" d="M 3438 1997 
L 3047 0 
L 2472 0 
L 2578 531 
Q 2325 219 2001 64 
Q 1678 -91 1281 -91 
Q 834 -91 548 182 
Q 263 456 263 884 
Q 263 1497 752 1853 
Q 1241 2209 2100 2209 
L 2900 2209 
L 2931 2363 
Q 2938 2388 2941 2417 
Q 2944 2447 2944 2509 
Q 2944 2788 2717 2942 
Q 2491 3097 2081 3097 
Q 1800 3097 1504 3025 
Q 1209 2953 897 2809 
L 997 3341 
Q 1322 3463 1633 3523 
Q 1944 3584 2234 3584 
Q 2853 3584 3176 3315 
Q 3500 3047 3500 2534 
Q 3500 2431 3484 2292 
Q 3469 2153 3438 1997 
z
M 2816 1759 
L 2241 1759 
Q 1534 1759 1195 1570 
Q 856 1381 856 984 
Q 856 709 1029 553 
Q 1203 397 1509 397 
Q 1978 397 2328 733 
Q 2678 1069 2791 1631 
L 2816 1759 
z
" transform="scale(0.015625)"/>
       <path id="DejaVuSans-Oblique-75" d="M 428 1388 
L 838 3500 
L 1416 3500 
L 1006 1409 
Q 975 1256 961 1147 
Q 947 1038 947 966 
Q 947 700 1109 554 
Q 1272 409 1569 409 
Q 2031 409 2368 721 
Q 2706 1034 2809 1563 
L 3194 3500 
L 3769 3500 
L 3091 0 
L 2516 0 
L 2631 550 
Q 2388 244 2052 76 
Q 1716 -91 1338 -91 
Q 878 -91 622 161 
Q 366 413 366 863 
Q 366 956 381 1097 
Q 397 1238 428 1388 
z
" transform="scale(0.015625)"/>
       <path id="DejaVuSans-5b" d="M 550 4863 
L 1875 4863 
L 1875 4416 
L 1125 4416 
L 1125 -397 
L 1875 -397 
L 1875 -844 
L 550 -844 
L 550 4863 
z
" transform="scale(0.015625)"/>
       <path id="DejaVuSans-b0" d="M 1600 4347 
Q 1350 4347 1178 4173 
Q 1006 4000 1006 3750 
Q 1006 3503 1178 3333 
Q 1350 3163 1600 3163 
Q 1850 3163 2022 3333 
Q 2194 3503 2194 3750 
Q 2194 3997 2020 4172 
Q 1847 4347 1600 4347 
z
M 1600 4750 
Q 1800 4750 1984 4673 
Q 2169 4597 2303 4453 
Q 2447 4313 2519 4134 
Q 2591 3956 2591 3750 
Q 2591 3338 2302 3052 
Q 2013 2766 1594 2766 
Q 1172 2766 890 3047 
Q 609 3328 609 3750 
Q 609 4169 896 4459 
Q 1184 4750 1600 4750 
z
" transform="scale(0.015625)"/>
       <path id="DejaVuSans-43" d="M 4122 4306 
L 4122 3641 
Q 3803 3938 3442 4084 
Q 3081 4231 2675 4231 
Q 1875 4231 1450 3742 
Q 1025 3253 1025 2328 
Q 1025 1406 1450 917 
Q 1875 428 2675 428 
Q 3081 428 3442 575 
Q 3803 722 4122 1019 
L 4122 359 
Q 3791 134 3420 21 
Q 3050 -91 2638 -91 
Q 1578 -91 968 557 
Q 359 1206 359 2328 
Q 359 3453 968 4101 
Q 1578 4750 2638 4750 
Q 3056 4750 3426 4639 
Q 3797 4528 4122 4306 
z
" transform="scale(0.015625)"/>
       <path id="DejaVuSans-5d" d="M 1947 4863 
L 1947 -844 
L 622 -844 
L 622 -397 
L 1369 -397 
L 1369 4416 
L 622 4416 
L 622 4863 
L 1947 4863 
z
" transform="scale(0.015625)"/>
       <path id="DejaVuSans-394" d="M 2188 4044 
L 906 525 
L 3472 525 
L 2188 4044 
z
M 50 0 
L 1831 4666 
L 2547 4666 
L 4325 0 
L 50 0 
z
" transform="scale(0.015625)"/>
       <path id="DejaVuSans-Oblique-47" d="M 3494 697 
L 3738 1919 
L 2700 1919 
L 2797 2438 
L 4453 2438 
L 4050 384 
Q 3634 156 3143 32 
Q 2653 -91 2156 -91 
Q 1278 -91 783 396 
Q 288 884 288 1753 
Q 288 2475 589 3126 
Q 891 3778 1422 4213 
Q 1756 4484 2153 4617 
Q 2550 4750 3034 4750 
Q 3472 4750 3873 4639 
Q 4275 4528 4641 4306 
L 4513 3634 
Q 4231 3928 3853 4083 
Q 3475 4238 3047 4238 
Q 2550 4238 2172 4048 
Q 1794 3859 1497 3463 
Q 1244 3125 1098 2667 
Q 953 2209 953 1734 
Q 953 1081 1287 751 
Q 1622 422 2284 422 
Q 2616 422 2925 492 
Q 3234 563 3494 697 
z
" transform="scale(0.015625)"/>
       <path id="DejaVuSans-Oblique-4b" d="M 1081 4666 
L 1716 4666 
L 1331 2700 
L 3781 4666 
L 4622 4666 
L 1850 2438 
L 3878 0 
L 3109 0 
L 1247 2272 
L 806 0 
L 172 0 
L 1081 4666 
z
" transform="scale(0.015625)"/>
       <path id="DejaVuSans-Oblique-6f" d="M 1625 -91 
Q 1009 -91 651 289 
Q 294 669 294 1325 
Q 294 1706 417 2101 
Q 541 2497 738 2766 
Q 1047 3184 1428 3384 
Q 1809 3584 2291 3584 
Q 2888 3584 3255 3212 
Q 3622 2841 3622 2241 
Q 3622 1825 3500 1412 
Q 3378 1000 3181 728 
Q 2875 309 2494 109 
Q 2113 -91 1625 -91 
z
M 891 1344 
Q 891 869 1089 633 
Q 1288 397 1691 397 
Q 2269 397 2648 901 
Q 3028 1406 3028 2181 
Q 3028 2634 2825 2865 
Q 2622 3097 2228 3097 
Q 1903 3097 1650 2945 
Q 1397 2794 1197 2484 
Q 1050 2253 970 1956 
Q 891 1659 891 1344 
z
" transform="scale(0.015625)"/>
       <path id="DejaVuSans-Oblique-62" d="M 3169 2138 
Q 3169 2591 2961 2847 
Q 2753 3103 2388 3103 
Q 2122 3103 1889 2973 
Q 1656 2844 1484 2597 
Q 1303 2338 1198 1995 
Q 1094 1653 1094 1313 
Q 1094 881 1298 636 
Q 1503 391 1863 391 
Q 2134 391 2365 517 
Q 2597 644 2772 891 
Q 2950 1147 3059 1487 
Q 3169 1828 3169 2138 
z
M 1381 2969 
Q 1594 3256 1914 3420 
Q 2234 3584 2584 3584 
Q 3122 3584 3439 3221 
Q 3756 2859 3756 2241 
Q 3756 1734 3570 1259 
Q 3384 784 3041 416 
Q 2816 172 2522 40 
Q 2228 -91 1906 -91 
Q 1566 -91 1316 65 
Q 1066 222 909 531 
L 806 0 
L 231 0 
L 1178 4863 
L 1753 4863 
L 1381 2969 
z
" transform="scale(0.015625)"/>
       <path id="DejaVuSans-3a" d="M 750 794 
L 1409 794 
L 1409 0 
L 750 0 
L 750 794 
z
M 750 3309 
L 1409 3309 
L 1409 2516 
L 750 2516 
L 750 3309 
z
" transform="scale(0.015625)"/>
      </defs>
      <use xlink:href="#DejaVuSans-Oblique-54" transform="translate(0 0.015625)"/>
      <use xlink:href="#DejaVuSans-Oblique-73" transform="translate(61.083984 -16.390625) scale(0.7)"/>
      <use xlink:href="#DejaVuSans-Oblique-65" transform="translate(97.553711 -16.390625) scale(0.7)"/>
      <use xlink:href="#DejaVuSans-2c" transform="translate(140.620117 -16.390625) scale(0.7)"/>
      <use xlink:href="#DejaVuSans-Oblique-61" transform="translate(176.508789 -16.390625) scale(0.7)"/>
      <use xlink:href="#DejaVuSans-Oblique-75" transform="translate(219.404297 -16.390625) scale(0.7)"/>
      <use xlink:href="#DejaVuSans-Oblique-73" transform="translate(263.769531 -16.390625) scale(0.7)"/>
      <use xlink:href="#DejaVuSans-20" transform="translate(302.973633 0.015625)"/>
      <use xlink:href="#DejaVuSans-5b" transform="translate(334.760742 0.015625)"/>
      <use xlink:href="#DejaVuSans-b0" transform="translate(373.774414 0.015625)"/>
      <use xlink:href="#DejaVuSans-43" transform="translate(423.774414 0.015625)"/>
      <use xlink:href="#DejaVuSans-5d" transform="translate(493.598633 0.015625)"/>
      <use xlink:href="#DejaVuSans-20" transform="translate(532.612305 0.015625)"/>
      <use xlink:href="#DejaVuSans-20" transform="translate(564.399414 0.015625)"/>
      <use xlink:href="#DejaVuSans-20" transform="translate(596.186523 0.015625)"/>
      <use xlink:href="#DejaVuSans-20" transform="translate(627.973633 0.015625)"/>
      <use xlink:href="#DejaVuSans-20" transform="translate(659.760742 0.015625)"/>
      <use xlink:href="#DejaVuSans-20" transform="translate(691.547852 0.015625)"/>
      <use xlink:href="#DejaVuSans-20" transform="translate(723.334961 0.015625)"/>
      <use xlink:href="#DejaVuSans-20" transform="translate(755.12207 0.015625)"/>
      <use xlink:href="#DejaVuSans-20" transform="translate(786.90918 0.015625)"/>
      <use xlink:href="#DejaVuSans-20" transform="translate(818.696289 0.015625)"/>
      <use xlink:href="#DejaVuSans-394" transform="translate(850.483398 0.015625)"/>
      <use xlink:href="#DejaVuSans-Oblique-54" transform="translate(918.891602 0.015625)"/>
      <use xlink:href="#DejaVuSans-Oblique-47" transform="translate(979.975586 -16.390625) scale(0.7)"/>
      <use xlink:href="#DejaVuSans-Oblique-4b" transform="translate(1034.21875 -16.390625) scale(0.7)"/>
      <use xlink:href="#DejaVuSans-2c" transform="translate(1080.12207 -16.390625) scale(0.7)"/>
      <use xlink:href="#DejaVuSans-Oblique-6f" transform="translate(1116.010742 -16.390625) scale(0.7)"/>
      <use xlink:href="#DejaVuSans-Oblique-62" transform="translate(1158.837891 -16.390625) scale(0.7)"/>
      <use xlink:href="#DejaVuSans-3a" transform="translate(1206.005859 0.015625)"/>
     </g>
    </g>
    <g id="line2d_39">
     <path d="M 648.15625 803.04 
L 668.15625 803.04 
L 688.15625 803.04 
" style="fill: none; stroke-dasharray: 5.55,2.4; stroke-dashoffset: 0; stroke: #ff0000; stroke-width: 1.5"/>
    </g>
    <g id="text_24">
     <!-- 10 K -->
     <g transform="translate(704.15625 810.04) scale(0.2 -0.2)">
      <defs>
       <path id="DejaVuSans-4b" d="M 628 4666 
L 1259 4666 
L 1259 2694 
L 3353 4666 
L 4166 4666 
L 1850 2491 
L 4331 0 
L 3500 0 
L 1259 2247 
L 1259 0 
L 628 0 
L 628 4666 
z
" transform="scale(0.015625)"/>
      </defs>
      <use xlink:href="#DejaVuSans-31"/>
      <use xlink:href="#DejaVuSans-30" x="63.623047"/>
      <use xlink:href="#DejaVuSans-20" x="127.246094"/>
      <use xlink:href="#DejaVuSans-4b" x="159.033203"/>
     </g>
    </g>
    <g id="line2d_40">
     <path d="M 789.078125 803.04 
L 809.078125 803.04 
L 829.078125 803.04 
" style="fill: none; stroke-dasharray: 5.55,2.4; stroke-dashoffset: 0; stroke: #ffa500; stroke-width: 1.5"/>
    </g>
    <g id="text_25">
     <!-- 15 K -->
     <g transform="translate(845.078125 810.04) scale(0.2 -0.2)">
      <use xlink:href="#DejaVuSans-31"/>
      <use xlink:href="#DejaVuSans-35" x="63.623047"/>
      <use xlink:href="#DejaVuSans-20" x="127.246094"/>
      <use xlink:href="#DejaVuSans-4b" x="159.033203"/>
     </g>
    </g>
    <g id="line2d_41">
     <path d="M 930 803.04 
L 950 803.04 
L 970 803.04 
" style="fill: none; stroke-dasharray: 5.55,2.4; stroke-dashoffset: 0; stroke: #008000; stroke-width: 1.5"/>
    </g>
    <g id="text_26">
     <!-- 20 K -->
     <g transform="translate(986 810.04) scale(0.2 -0.2)">
      <use xlink:href="#DejaVuSans-32"/>
      <use xlink:href="#DejaVuSans-30" x="63.623047"/>
      <use xlink:href="#DejaVuSans-20" x="127.246094"/>
      <use xlink:href="#DejaVuSans-4b" x="159.033203"/>
     </g>
    </g>
    <g id="line2d_42">
     <path d="M 1070.921875 803.04 
L 1090.921875 803.04 
L 1110.921875 803.04 
" style="fill: none; stroke-dasharray: 5.55,2.4; stroke-dashoffset: 0; stroke: #4682b4; stroke-width: 1.5"/>
    </g>
    <g id="text_27">
     <!-- 30 K -->
     <g transform="translate(1126.921875 810.04) scale(0.2 -0.2)">
      <use xlink:href="#DejaVuSans-33"/>
      <use xlink:href="#DejaVuSans-30" x="63.623047"/>
      <use xlink:href="#DejaVuSans-20" x="127.246094"/>
      <use xlink:href="#DejaVuSans-4b" x="159.033203"/>
     </g>
    </g>
   </g>
  </g>
 </g>
 <defs>
  <clipPath id="p9d17a06b5b">
   <rect x="180" y="112.32" width="1116" height="720.72"/>
  </clipPath>
 </defs>
</svg>
