<?xml version="1.0" encoding="utf-8" standalone="no"?>
<!DOCTYPE svg PUBLIC "-//W3C//DTD SVG 1.1//EN"
  "http://www.w3.org/Graphics/SVG/1.1/DTD/svg11.dtd">
<svg xmlns:xlink="http://www.w3.org/1999/xlink" width="1440pt" height="864pt" viewBox="0 0 1440 864" xmlns="http://www.w3.org/2000/svg" version="1.1">
 <metadata>
  <rdf:RDF xmlns:dc="http://purl.org/dc/elements/1.1/" xmlns:cc="http://creativecommons.org/ns#" xmlns:rdf="http://www.w3.org/1999/02/22-rdf-syntax-ns#">
   <cc:Work>
    <dc:type rdf:resource="http://purl.org/dc/dcmitype/StillImage"/>
    <dc:date>2023-08-03T16:32:28.523327</dc:date>
    <dc:format>image/svg+xml</dc:format>
    <dc:creator>
     <cc:Agent>
      <dc:title>Matplotlib v3.6.1, https://matplotlib.org/</dc:title>
     </cc:Agent>
    </dc:creator>
   </cc:Work>
  </rdf:RDF>
 </metadata>
 <defs>
  <style type="text/css">*{stroke-linejoin: round; stroke-linecap: butt}</style>
 </defs>
 <g id="figure_1">
  <g id="patch_1">
   <path d="M 0 864 
L 1440 864 
L 1440 0 
L 0 0 
z
" style="fill: #ffffff"/>
  </g>
  <g id="axes_1">
   <g id="patch_2">
    <path d="M 180 777.6 
L 665.217391 777.6 
L 665.217391 86.4 
L 180 86.4 
z
" style="fill: #ffffff"/>
   </g>
   <g id="matplotlib.axis_1">
    <g id="xtick_1">
     <g id="line2d_1">
      <path d="M 276.654916 777.6 
L 276.654916 86.4 
" clip-path="url(#p6ee4a1fba0)" style="fill: none; stroke: #b0b0b0; stroke-width: 0.8; stroke-linecap: square"/>
     </g>
     <g id="line2d_2">
      <defs>
       <path id="m3dd5107dbc" d="M 0 0 
L 0 3.5 
" style="stroke: #000000; stroke-width: 0.8"/>
      </defs>
      <g>
       <use xlink:href="#m3dd5107dbc" x="276.654916" y="777.6" style="stroke: #000000; stroke-width: 0.8"/>
      </g>
     </g>
     <g id="text_1">
      <!-- 32 -->
      <g transform="translate(263.929916 799.796875) scale(0.2 -0.2)">
       <defs>
        <path id="DejaVuSans-33" d="M 2597 2516 
Q 3050 2419 3304 2112 
Q 3559 1806 3559 1356 
Q 3559 666 3084 287 
Q 2609 -91 1734 -91 
Q 1441 -91 1130 -33 
Q 819 25 488 141 
L 488 750 
Q 750 597 1062 519 
Q 1375 441 1716 441 
Q 2309 441 2620 675 
Q 2931 909 2931 1356 
Q 2931 1769 2642 2001 
Q 2353 2234 1838 2234 
L 1294 2234 
L 1294 2753 
L 1863 2753 
Q 2328 2753 2575 2939 
Q 2822 3125 2822 3475 
Q 2822 3834 2567 4026 
Q 2313 4219 1838 4219 
Q 1578 4219 1281 4162 
Q 984 4106 628 3988 
L 628 4550 
Q 988 4650 1302 4700 
Q 1616 4750 1894 4750 
Q 2613 4750 3031 4423 
Q 3450 4097 3450 3541 
Q 3450 3153 3228 2886 
Q 3006 2619 2597 2516 
z
" transform="scale(0.015625)"/>
        <path id="DejaVuSans-32" d="M 1228 531 
L 3431 531 
L 3431 0 
L 469 0 
L 469 531 
Q 828 903 1448 1529 
Q 2069 2156 2228 2338 
Q 2531 2678 2651 2914 
Q 2772 3150 2772 3378 
Q 2772 3750 2511 3984 
Q 2250 4219 1831 4219 
Q 1534 4219 1204 4116 
Q 875 4013 500 3803 
L 500 4441 
Q 881 4594 1212 4672 
Q 1544 4750 1819 4750 
Q 2544 4750 2975 4387 
Q 3406 4025 3406 3419 
Q 3406 3131 3298 2873 
Q 3191 2616 2906 2266 
Q 2828 2175 2409 1742 
Q 1991 1309 1228 531 
z
" transform="scale(0.015625)"/>
       </defs>
       <use xlink:href="#DejaVuSans-33"/>
       <use xlink:href="#DejaVuSans-32" x="63.623047"/>
      </g>
     </g>
    </g>
    <g id="xtick_2">
     <g id="line2d_3">
      <path d="M 373.795535 777.6 
L 373.795535 86.4 
" clip-path="url(#p6ee4a1fba0)" style="fill: none; stroke: #b0b0b0; stroke-width: 0.8; stroke-linecap: square"/>
     </g>
     <g id="line2d_4">
      <g>
       <use xlink:href="#m3dd5107dbc" x="373.795535" y="777.6" style="stroke: #000000; stroke-width: 0.8"/>
      </g>
     </g>
     <g id="text_2">
      <!-- 34 -->
      <g transform="translate(361.070535 799.796875) scale(0.2 -0.2)">
       <defs>
        <path id="DejaVuSans-34" d="M 2419 4116 
L 825 1625 
L 2419 1625 
L 2419 4116 
z
M 2253 4666 
L 3047 4666 
L 3047 1625 
L 3713 1625 
L 3713 1100 
L 3047 1100 
L 3047 0 
L 2419 0 
L 2419 1100 
L 313 1100 
L 313 1709 
L 2253 4666 
z
" transform="scale(0.015625)"/>
       </defs>
       <use xlink:href="#DejaVuSans-33"/>
       <use xlink:href="#DejaVuSans-34" x="63.623047"/>
      </g>
     </g>
    </g>
    <g id="xtick_3">
     <g id="line2d_5">
      <path d="M 470.936154 777.6 
L 470.936154 86.4 
" clip-path="url(#p6ee4a1fba0)" style="fill: none; stroke: #b0b0b0; stroke-width: 0.8; stroke-linecap: square"/>
     </g>
     <g id="line2d_6">
      <g>
       <use xlink:href="#m3dd5107dbc" x="470.936154" y="777.6" style="stroke: #000000; stroke-width: 0.8"/>
      </g>
     </g>
     <g id="text_3">
      <!-- 36 -->
      <g transform="translate(458.211154 799.796875) scale(0.2 -0.2)">
       <defs>
        <path id="DejaVuSans-36" d="M 2113 2584 
Q 1688 2584 1439 2293 
Q 1191 2003 1191 1497 
Q 1191 994 1439 701 
Q 1688 409 2113 409 
Q 2538 409 2786 701 
Q 3034 994 3034 1497 
Q 3034 2003 2786 2293 
Q 2538 2584 2113 2584 
z
M 3366 4563 
L 3366 3988 
Q 3128 4100 2886 4159 
Q 2644 4219 2406 4219 
Q 1781 4219 1451 3797 
Q 1122 3375 1075 2522 
Q 1259 2794 1537 2939 
Q 1816 3084 2150 3084 
Q 2853 3084 3261 2657 
Q 3669 2231 3669 1497 
Q 3669 778 3244 343 
Q 2819 -91 2113 -91 
Q 1303 -91 875 529 
Q 447 1150 447 2328 
Q 447 3434 972 4092 
Q 1497 4750 2381 4750 
Q 2619 4750 2861 4703 
Q 3103 4656 3366 4563 
z
" transform="scale(0.015625)"/>
       </defs>
       <use xlink:href="#DejaVuSans-33"/>
       <use xlink:href="#DejaVuSans-36" x="63.623047"/>
      </g>
     </g>
    </g>
    <g id="xtick_4">
     <g id="line2d_7">
      <path d="M 568.076772 777.6 
L 568.076772 86.4 
" clip-path="url(#p6ee4a1fba0)" style="fill: none; stroke: #b0b0b0; stroke-width: 0.8; stroke-linecap: square"/>
     </g>
     <g id="line2d_8">
      <g>
       <use xlink:href="#m3dd5107dbc" x="568.076772" y="777.6" style="stroke: #000000; stroke-width: 0.8"/>
      </g>
     </g>
     <g id="text_4">
      <!-- 38 -->
      <g transform="translate(555.351772 799.796875) scale(0.2 -0.2)">
       <defs>
        <path id="DejaVuSans-38" d="M 2034 2216 
Q 1584 2216 1326 1975 
Q 1069 1734 1069 1313 
Q 1069 891 1326 650 
Q 1584 409 2034 409 
Q 2484 409 2743 651 
Q 3003 894 3003 1313 
Q 3003 1734 2745 1975 
Q 2488 2216 2034 2216 
z
M 1403 2484 
Q 997 2584 770 2862 
Q 544 3141 544 3541 
Q 544 4100 942 4425 
Q 1341 4750 2034 4750 
Q 2731 4750 3128 4425 
Q 3525 4100 3525 3541 
Q 3525 3141 3298 2862 
Q 3072 2584 2669 2484 
Q 3125 2378 3379 2068 
Q 3634 1759 3634 1313 
Q 3634 634 3220 271 
Q 2806 -91 2034 -91 
Q 1263 -91 848 271 
Q 434 634 434 1313 
Q 434 1759 690 2068 
Q 947 2378 1403 2484 
z
M 1172 3481 
Q 1172 3119 1398 2916 
Q 1625 2713 2034 2713 
Q 2441 2713 2670 2916 
Q 2900 3119 2900 3481 
Q 2900 3844 2670 4047 
Q 2441 4250 2034 4250 
Q 1625 4250 1398 4047 
Q 1172 3844 1172 3481 
z
" transform="scale(0.015625)"/>
       </defs>
       <use xlink:href="#DejaVuSans-33"/>
       <use xlink:href="#DejaVuSans-38" x="63.623047"/>
      </g>
     </g>
    </g>
    <g id="xtick_5">
     <g id="line2d_9">
      <path d="M 665.217391 777.6 
L 665.217391 86.4 
" clip-path="url(#p6ee4a1fba0)" style="fill: none; stroke: #b0b0b0; stroke-width: 0.8; stroke-linecap: square"/>
     </g>
     <g id="line2d_10">
      <g>
       <use xlink:href="#m3dd5107dbc" x="665.217391" y="777.6" style="stroke: #000000; stroke-width: 0.8"/>
      </g>
     </g>
     <g id="text_5">
      <!-- 40 -->
      <g transform="translate(652.492391 799.796875) scale(0.2 -0.2)">
       <defs>
        <path id="DejaVuSans-30" d="M 2034 4250 
Q 1547 4250 1301 3770 
Q 1056 3291 1056 2328 
Q 1056 1369 1301 889 
Q 1547 409 2034 409 
Q 2525 409 2770 889 
Q 3016 1369 3016 2328 
Q 3016 3291 2770 3770 
Q 2525 4250 2034 4250 
z
M 2034 4750 
Q 2819 4750 3233 4129 
Q 3647 3509 3647 2328 
Q 3647 1150 3233 529 
Q 2819 -91 2034 -91 
Q 1250 -91 836 529 
Q 422 1150 422 2328 
Q 422 3509 836 4129 
Q 1250 4750 2034 4750 
z
" transform="scale(0.015625)"/>
       </defs>
       <use xlink:href="#DejaVuSans-34"/>
       <use xlink:href="#DejaVuSans-30" x="63.623047"/>
      </g>
     </g>
    </g>
    <g id="text_6">
     <!-- Gaskühlerdruck [bar] -->
     <g transform="translate(316.847758 823.153125) scale(0.2 -0.2)">
      <defs>
       <path id="DejaVuSans-47" d="M 3809 666 
L 3809 1919 
L 2778 1919 
L 2778 2438 
L 4434 2438 
L 4434 434 
Q 4069 175 3628 42 
Q 3188 -91 2688 -91 
Q 1594 -91 976 548 
Q 359 1188 359 2328 
Q 359 3472 976 4111 
Q 1594 4750 2688 4750 
Q 3144 4750 3555 4637 
Q 3966 4525 4313 4306 
L 4313 3634 
Q 3963 3931 3569 4081 
Q 3175 4231 2741 4231 
Q 1884 4231 1454 3753 
Q 1025 3275 1025 2328 
Q 1025 1384 1454 906 
Q 1884 428 2741 428 
Q 3075 428 3337 486 
Q 3600 544 3809 666 
z
" transform="scale(0.015625)"/>
       <path id="DejaVuSans-61" d="M 2194 1759 
Q 1497 1759 1228 1600 
Q 959 1441 959 1056 
Q 959 750 1161 570 
Q 1363 391 1709 391 
Q 2188 391 2477 730 
Q 2766 1069 2766 1631 
L 2766 1759 
L 2194 1759 
z
M 3341 1997 
L 3341 0 
L 2766 0 
L 2766 531 
Q 2569 213 2275 61 
Q 1981 -91 1556 -91 
Q 1019 -91 701 211 
Q 384 513 384 1019 
Q 384 1609 779 1909 
Q 1175 2209 1959 2209 
L 2766 2209 
L 2766 2266 
Q 2766 2663 2505 2880 
Q 2244 3097 1772 3097 
Q 1472 3097 1187 3025 
Q 903 2953 641 2809 
L 641 3341 
Q 956 3463 1253 3523 
Q 1550 3584 1831 3584 
Q 2591 3584 2966 3190 
Q 3341 2797 3341 1997 
z
" transform="scale(0.015625)"/>
       <path id="DejaVuSans-73" d="M 2834 3397 
L 2834 2853 
Q 2591 2978 2328 3040 
Q 2066 3103 1784 3103 
Q 1356 3103 1142 2972 
Q 928 2841 928 2578 
Q 928 2378 1081 2264 
Q 1234 2150 1697 2047 
L 1894 2003 
Q 2506 1872 2764 1633 
Q 3022 1394 3022 966 
Q 3022 478 2636 193 
Q 2250 -91 1575 -91 
Q 1294 -91 989 -36 
Q 684 19 347 128 
L 347 722 
Q 666 556 975 473 
Q 1284 391 1588 391 
Q 1994 391 2212 530 
Q 2431 669 2431 922 
Q 2431 1156 2273 1281 
Q 2116 1406 1581 1522 
L 1381 1569 
Q 847 1681 609 1914 
Q 372 2147 372 2553 
Q 372 3047 722 3315 
Q 1072 3584 1716 3584 
Q 2034 3584 2315 3537 
Q 2597 3491 2834 3397 
z
" transform="scale(0.015625)"/>
       <path id="DejaVuSans-6b" d="M 581 4863 
L 1159 4863 
L 1159 1991 
L 2875 3500 
L 3609 3500 
L 1753 1863 
L 3688 0 
L 2938 0 
L 1159 1709 
L 1159 0 
L 581 0 
L 581 4863 
z
" transform="scale(0.015625)"/>
       <path id="DejaVuSans-fc" d="M 544 1381 
L 544 3500 
L 1119 3500 
L 1119 1403 
Q 1119 906 1312 657 
Q 1506 409 1894 409 
Q 2359 409 2629 706 
Q 2900 1003 2900 1516 
L 2900 3500 
L 3475 3500 
L 3475 0 
L 2900 0 
L 2900 538 
Q 2691 219 2414 64 
Q 2138 -91 1772 -91 
Q 1169 -91 856 284 
Q 544 659 544 1381 
z
M 1991 3584 
L 1991 3584 
z
M 2278 4850 
L 2912 4850 
L 2912 4219 
L 2278 4219 
L 2278 4850 
z
M 1056 4850 
L 1690 4850 
L 1690 4219 
L 1056 4219 
L 1056 4850 
z
" transform="scale(0.015625)"/>
       <path id="DejaVuSans-68" d="M 3513 2113 
L 3513 0 
L 2938 0 
L 2938 2094 
Q 2938 2591 2744 2837 
Q 2550 3084 2163 3084 
Q 1697 3084 1428 2787 
Q 1159 2491 1159 1978 
L 1159 0 
L 581 0 
L 581 4863 
L 1159 4863 
L 1159 2956 
Q 1366 3272 1645 3428 
Q 1925 3584 2291 3584 
Q 2894 3584 3203 3211 
Q 3513 2838 3513 2113 
z
" transform="scale(0.015625)"/>
       <path id="DejaVuSans-6c" d="M 603 4863 
L 1178 4863 
L 1178 0 
L 603 0 
L 603 4863 
z
" transform="scale(0.015625)"/>
       <path id="DejaVuSans-65" d="M 3597 1894 
L 3597 1613 
L 953 1613 
Q 991 1019 1311 708 
Q 1631 397 2203 397 
Q 2534 397 2845 478 
Q 3156 559 3463 722 
L 3463 178 
Q 3153 47 2828 -22 
Q 2503 -91 2169 -91 
Q 1331 -91 842 396 
Q 353 884 353 1716 
Q 353 2575 817 3079 
Q 1281 3584 2069 3584 
Q 2775 3584 3186 3129 
Q 3597 2675 3597 1894 
z
M 3022 2063 
Q 3016 2534 2758 2815 
Q 2500 3097 2075 3097 
Q 1594 3097 1305 2825 
Q 1016 2553 972 2059 
L 3022 2063 
z
" transform="scale(0.015625)"/>
       <path id="DejaVuSans-72" d="M 2631 2963 
Q 2534 3019 2420 3045 
Q 2306 3072 2169 3072 
Q 1681 3072 1420 2755 
Q 1159 2438 1159 1844 
L 1159 0 
L 581 0 
L 581 3500 
L 1159 3500 
L 1159 2956 
Q 1341 3275 1631 3429 
Q 1922 3584 2338 3584 
Q 2397 3584 2469 3576 
Q 2541 3569 2628 3553 
L 2631 2963 
z
" transform="scale(0.015625)"/>
       <path id="DejaVuSans-64" d="M 2906 2969 
L 2906 4863 
L 3481 4863 
L 3481 0 
L 2906 0 
L 2906 525 
Q 2725 213 2448 61 
Q 2172 -91 1784 -91 
Q 1150 -91 751 415 
Q 353 922 353 1747 
Q 353 2572 751 3078 
Q 1150 3584 1784 3584 
Q 2172 3584 2448 3432 
Q 2725 3281 2906 2969 
z
M 947 1747 
Q 947 1113 1208 752 
Q 1469 391 1925 391 
Q 2381 391 2643 752 
Q 2906 1113 2906 1747 
Q 2906 2381 2643 2742 
Q 2381 3103 1925 3103 
Q 1469 3103 1208 2742 
Q 947 2381 947 1747 
z
" transform="scale(0.015625)"/>
       <path id="DejaVuSans-75" d="M 544 1381 
L 544 3500 
L 1119 3500 
L 1119 1403 
Q 1119 906 1312 657 
Q 1506 409 1894 409 
Q 2359 409 2629 706 
Q 2900 1003 2900 1516 
L 2900 3500 
L 3475 3500 
L 3475 0 
L 2900 0 
L 2900 538 
Q 2691 219 2414 64 
Q 2138 -91 1772 -91 
Q 1169 -91 856 284 
Q 544 659 544 1381 
z
M 1991 3584 
L 1991 3584 
z
" transform="scale(0.015625)"/>
       <path id="DejaVuSans-63" d="M 3122 3366 
L 3122 2828 
Q 2878 2963 2633 3030 
Q 2388 3097 2138 3097 
Q 1578 3097 1268 2742 
Q 959 2388 959 1747 
Q 959 1106 1268 751 
Q 1578 397 2138 397 
Q 2388 397 2633 464 
Q 2878 531 3122 666 
L 3122 134 
Q 2881 22 2623 -34 
Q 2366 -91 2075 -91 
Q 1284 -91 818 406 
Q 353 903 353 1747 
Q 353 2603 823 3093 
Q 1294 3584 2113 3584 
Q 2378 3584 2631 3529 
Q 2884 3475 3122 3366 
z
" transform="scale(0.015625)"/>
       <path id="DejaVuSans-20" transform="scale(0.015625)"/>
       <path id="DejaVuSans-5b" d="M 550 4863 
L 1875 4863 
L 1875 4416 
L 1125 4416 
L 1125 -397 
L 1875 -397 
L 1875 -844 
L 550 -844 
L 550 4863 
z
" transform="scale(0.015625)"/>
       <path id="DejaVuSans-62" d="M 3116 1747 
Q 3116 2381 2855 2742 
Q 2594 3103 2138 3103 
Q 1681 3103 1420 2742 
Q 1159 2381 1159 1747 
Q 1159 1113 1420 752 
Q 1681 391 2138 391 
Q 2594 391 2855 752 
Q 3116 1113 3116 1747 
z
M 1159 2969 
Q 1341 3281 1617 3432 
Q 1894 3584 2278 3584 
Q 2916 3584 3314 3078 
Q 3713 2572 3713 1747 
Q 3713 922 3314 415 
Q 2916 -91 2278 -91 
Q 1894 -91 1617 61 
Q 1341 213 1159 525 
L 1159 0 
L 581 0 
L 581 4863 
L 1159 4863 
L 1159 2969 
z
" transform="scale(0.015625)"/>
       <path id="DejaVuSans-5d" d="M 1947 4863 
L 1947 -844 
L 622 -844 
L 622 -397 
L 1369 -397 
L 1369 4416 
L 622 4416 
L 622 4863 
L 1947 4863 
z
" transform="scale(0.015625)"/>
      </defs>
      <use xlink:href="#DejaVuSans-47"/>
      <use xlink:href="#DejaVuSans-61" x="77.490234"/>
      <use xlink:href="#DejaVuSans-73" x="138.769531"/>
      <use xlink:href="#DejaVuSans-6b" x="190.869141"/>
      <use xlink:href="#DejaVuSans-fc" x="245.654297"/>
      <use xlink:href="#DejaVuSans-68" x="309.033203"/>
      <use xlink:href="#DejaVuSans-6c" x="372.412109"/>
      <use xlink:href="#DejaVuSans-65" x="400.195312"/>
      <use xlink:href="#DejaVuSans-72" x="461.71875"/>
      <use xlink:href="#DejaVuSans-64" x="501.082031"/>
      <use xlink:href="#DejaVuSans-72" x="564.558594"/>
      <use xlink:href="#DejaVuSans-75" x="605.671875"/>
      <use xlink:href="#DejaVuSans-63" x="669.050781"/>
      <use xlink:href="#DejaVuSans-6b" x="724.03125"/>
      <use xlink:href="#DejaVuSans-20" x="781.941406"/>
      <use xlink:href="#DejaVuSans-5b" x="813.728516"/>
      <use xlink:href="#DejaVuSans-62" x="852.742188"/>
      <use xlink:href="#DejaVuSans-61" x="916.21875"/>
      <use xlink:href="#DejaVuSans-72" x="977.498047"/>
      <use xlink:href="#DejaVuSans-5d" x="1018.611328"/>
     </g>
    </g>
   </g>
   <g id="matplotlib.axis_2">
    <g id="ytick_1">
     <g id="line2d_11">
      <path d="M 180 777.6 
L 665.217391 777.6 
" clip-path="url(#p6ee4a1fba0)" style="fill: none; stroke: #b0b0b0; stroke-width: 0.8; stroke-linecap: square"/>
     </g>
     <g id="line2d_12">
      <defs>
       <path id="m4bc2fbbf7a" d="M 0 0 
L -3.5 0 
" style="stroke: #000000; stroke-width: 0.8"/>
      </defs>
      <g>
       <use xlink:href="#m4bc2fbbf7a" x="180" y="777.6" style="stroke: #000000; stroke-width: 0.8"/>
      </g>
     </g>
     <g id="text_7">
      <!-- 63 -->
      <g transform="translate(147.55 785.198438) scale(0.2 -0.2)">
       <use xlink:href="#DejaVuSans-36"/>
       <use xlink:href="#DejaVuSans-33" x="63.623047"/>
      </g>
     </g>
    </g>
    <g id="ytick_2">
     <g id="line2d_13">
      <path d="M 180 662.4 
L 665.217391 662.4 
" clip-path="url(#p6ee4a1fba0)" style="fill: none; stroke: #b0b0b0; stroke-width: 0.8; stroke-linecap: square"/>
     </g>
     <g id="line2d_14">
      <g>
       <use xlink:href="#m4bc2fbbf7a" x="180" y="662.4" style="stroke: #000000; stroke-width: 0.8"/>
      </g>
     </g>
     <g id="text_8">
      <!-- 64 -->
      <g transform="translate(147.55 669.998438) scale(0.2 -0.2)">
       <use xlink:href="#DejaVuSans-36"/>
       <use xlink:href="#DejaVuSans-34" x="63.623047"/>
      </g>
     </g>
    </g>
    <g id="ytick_3">
     <g id="line2d_15">
      <path d="M 180 547.2 
L 665.217391 547.2 
" clip-path="url(#p6ee4a1fba0)" style="fill: none; stroke: #b0b0b0; stroke-width: 0.8; stroke-linecap: square"/>
     </g>
     <g id="line2d_16">
      <g>
       <use xlink:href="#m4bc2fbbf7a" x="180" y="547.2" style="stroke: #000000; stroke-width: 0.8"/>
      </g>
     </g>
     <g id="text_9">
      <!-- 65 -->
      <g transform="translate(147.55 554.798438) scale(0.2 -0.2)">
       <defs>
        <path id="DejaVuSans-35" d="M 691 4666 
L 3169 4666 
L 3169 4134 
L 1269 4134 
L 1269 2991 
Q 1406 3038 1543 3061 
Q 1681 3084 1819 3084 
Q 2600 3084 3056 2656 
Q 3513 2228 3513 1497 
Q 3513 744 3044 326 
Q 2575 -91 1722 -91 
Q 1428 -91 1123 -41 
Q 819 9 494 109 
L 494 744 
Q 775 591 1075 516 
Q 1375 441 1709 441 
Q 2250 441 2565 725 
Q 2881 1009 2881 1497 
Q 2881 1984 2565 2268 
Q 2250 2553 1709 2553 
Q 1456 2553 1204 2497 
Q 953 2441 691 2322 
L 691 4666 
z
" transform="scale(0.015625)"/>
       </defs>
       <use xlink:href="#DejaVuSans-36"/>
       <use xlink:href="#DejaVuSans-35" x="63.623047"/>
      </g>
     </g>
    </g>
    <g id="ytick_4">
     <g id="line2d_17">
      <path d="M 180 432 
L 665.217391 432 
" clip-path="url(#p6ee4a1fba0)" style="fill: none; stroke: #b0b0b0; stroke-width: 0.8; stroke-linecap: square"/>
     </g>
     <g id="line2d_18">
      <g>
       <use xlink:href="#m4bc2fbbf7a" x="180" y="432" style="stroke: #000000; stroke-width: 0.8"/>
      </g>
     </g>
     <g id="text_10">
      <!-- 66 -->
      <g transform="translate(147.55 439.598438) scale(0.2 -0.2)">
       <use xlink:href="#DejaVuSans-36"/>
       <use xlink:href="#DejaVuSans-36" x="63.623047"/>
      </g>
     </g>
    </g>
    <g id="ytick_5">
     <g id="line2d_19">
      <path d="M 180 316.8 
L 665.217391 316.8 
" clip-path="url(#p6ee4a1fba0)" style="fill: none; stroke: #b0b0b0; stroke-width: 0.8; stroke-linecap: square"/>
     </g>
     <g id="line2d_20">
      <g>
       <use xlink:href="#m4bc2fbbf7a" x="180" y="316.8" style="stroke: #000000; stroke-width: 0.8"/>
      </g>
     </g>
     <g id="text_11">
      <!-- 67 -->
      <g transform="translate(147.55 324.398438) scale(0.2 -0.2)">
       <defs>
        <path id="DejaVuSans-37" d="M 525 4666 
L 3525 4666 
L 3525 4397 
L 1831 0 
L 1172 0 
L 2766 4134 
L 525 4134 
L 525 4666 
z
" transform="scale(0.015625)"/>
       </defs>
       <use xlink:href="#DejaVuSans-36"/>
       <use xlink:href="#DejaVuSans-37" x="63.623047"/>
      </g>
     </g>
    </g>
    <g id="ytick_6">
     <g id="line2d_21">
      <path d="M 180 201.6 
L 665.217391 201.6 
" clip-path="url(#p6ee4a1fba0)" style="fill: none; stroke: #b0b0b0; stroke-width: 0.8; stroke-linecap: square"/>
     </g>
     <g id="line2d_22">
      <g>
       <use xlink:href="#m4bc2fbbf7a" x="180" y="201.6" style="stroke: #000000; stroke-width: 0.8"/>
      </g>
     </g>
     <g id="text_12">
      <!-- 68 -->
      <g transform="translate(147.55 209.198438) scale(0.2 -0.2)">
       <use xlink:href="#DejaVuSans-36"/>
       <use xlink:href="#DejaVuSans-38" x="63.623047"/>
      </g>
     </g>
    </g>
    <g id="ytick_7">
     <g id="line2d_23">
      <path d="M 180 86.4 
L 665.217391 86.4 
" clip-path="url(#p6ee4a1fba0)" style="fill: none; stroke: #b0b0b0; stroke-width: 0.8; stroke-linecap: square"/>
     </g>
     <g id="line2d_24">
      <g>
       <use xlink:href="#m4bc2fbbf7a" x="180" y="86.4" style="stroke: #000000; stroke-width: 0.8"/>
      </g>
     </g>
     <g id="text_13">
      <!-- 69 -->
      <g transform="translate(147.55 93.998438) scale(0.2 -0.2)">
       <defs>
        <path id="DejaVuSans-39" d="M 703 97 
L 703 672 
Q 941 559 1184 500 
Q 1428 441 1663 441 
Q 2288 441 2617 861 
Q 2947 1281 2994 2138 
Q 2813 1869 2534 1725 
Q 2256 1581 1919 1581 
Q 1219 1581 811 2004 
Q 403 2428 403 3163 
Q 403 3881 828 4315 
Q 1253 4750 1959 4750 
Q 2769 4750 3195 4129 
Q 3622 3509 3622 2328 
Q 3622 1225 3098 567 
Q 2575 -91 1691 -91 
Q 1453 -91 1209 -44 
Q 966 3 703 97 
z
M 1959 2075 
Q 2384 2075 2632 2365 
Q 2881 2656 2881 3163 
Q 2881 3666 2632 3958 
Q 2384 4250 1959 4250 
Q 1534 4250 1286 3958 
Q 1038 3666 1038 3163 
Q 1038 2656 1286 2365 
Q 1534 2075 1959 2075 
z
" transform="scale(0.015625)"/>
       </defs>
       <use xlink:href="#DejaVuSans-36"/>
       <use xlink:href="#DejaVuSans-39" x="63.623047"/>
      </g>
     </g>
    </g>
    <g id="text_14">
     <!-- exergetischer Wirkungsgrad [%] -->
     <g transform="translate(139.390625 593.042187) rotate(-90) scale(0.2 -0.2)">
      <defs>
       <path id="DejaVuSans-78" d="M 3513 3500 
L 2247 1797 
L 3578 0 
L 2900 0 
L 1881 1375 
L 863 0 
L 184 0 
L 1544 1831 
L 300 3500 
L 978 3500 
L 1906 2253 
L 2834 3500 
L 3513 3500 
z
" transform="scale(0.015625)"/>
       <path id="DejaVuSans-67" d="M 2906 1791 
Q 2906 2416 2648 2759 
Q 2391 3103 1925 3103 
Q 1463 3103 1205 2759 
Q 947 2416 947 1791 
Q 947 1169 1205 825 
Q 1463 481 1925 481 
Q 2391 481 2648 825 
Q 2906 1169 2906 1791 
z
M 3481 434 
Q 3481 -459 3084 -895 
Q 2688 -1331 1869 -1331 
Q 1566 -1331 1297 -1286 
Q 1028 -1241 775 -1147 
L 775 -588 
Q 1028 -725 1275 -790 
Q 1522 -856 1778 -856 
Q 2344 -856 2625 -561 
Q 2906 -266 2906 331 
L 2906 616 
Q 2728 306 2450 153 
Q 2172 0 1784 0 
Q 1141 0 747 490 
Q 353 981 353 1791 
Q 353 2603 747 3093 
Q 1141 3584 1784 3584 
Q 2172 3584 2450 3431 
Q 2728 3278 2906 2969 
L 2906 3500 
L 3481 3500 
L 3481 434 
z
" transform="scale(0.015625)"/>
       <path id="DejaVuSans-74" d="M 1172 4494 
L 1172 3500 
L 2356 3500 
L 2356 3053 
L 1172 3053 
L 1172 1153 
Q 1172 725 1289 603 
Q 1406 481 1766 481 
L 2356 481 
L 2356 0 
L 1766 0 
Q 1100 0 847 248 
Q 594 497 594 1153 
L 594 3053 
L 172 3053 
L 172 3500 
L 594 3500 
L 594 4494 
L 1172 4494 
z
" transform="scale(0.015625)"/>
       <path id="DejaVuSans-69" d="M 603 3500 
L 1178 3500 
L 1178 0 
L 603 0 
L 603 3500 
z
M 603 4863 
L 1178 4863 
L 1178 4134 
L 603 4134 
L 603 4863 
z
" transform="scale(0.015625)"/>
       <path id="DejaVuSans-57" d="M 213 4666 
L 850 4666 
L 1831 722 
L 2809 4666 
L 3519 4666 
L 4500 722 
L 5478 4666 
L 6119 4666 
L 4947 0 
L 4153 0 
L 3169 4050 
L 2175 0 
L 1381 0 
L 213 4666 
z
" transform="scale(0.015625)"/>
       <path id="DejaVuSans-6e" d="M 3513 2113 
L 3513 0 
L 2938 0 
L 2938 2094 
Q 2938 2591 2744 2837 
Q 2550 3084 2163 3084 
Q 1697 3084 1428 2787 
Q 1159 2491 1159 1978 
L 1159 0 
L 581 0 
L 581 3500 
L 1159 3500 
L 1159 2956 
Q 1366 3272 1645 3428 
Q 1925 3584 2291 3584 
Q 2894 3584 3203 3211 
Q 3513 2838 3513 2113 
z
" transform="scale(0.015625)"/>
       <path id="DejaVuSans-25" d="M 4653 2053 
Q 4381 2053 4226 1822 
Q 4072 1591 4072 1178 
Q 4072 772 4226 539 
Q 4381 306 4653 306 
Q 4919 306 5073 539 
Q 5228 772 5228 1178 
Q 5228 1588 5073 1820 
Q 4919 2053 4653 2053 
z
M 4653 2450 
Q 5147 2450 5437 2106 
Q 5728 1763 5728 1178 
Q 5728 594 5436 251 
Q 5144 -91 4653 -91 
Q 4153 -91 3862 251 
Q 3572 594 3572 1178 
Q 3572 1766 3864 2108 
Q 4156 2450 4653 2450 
z
M 1428 4353 
Q 1159 4353 1004 4120 
Q 850 3888 850 3481 
Q 850 3069 1003 2837 
Q 1156 2606 1428 2606 
Q 1700 2606 1854 2837 
Q 2009 3069 2009 3481 
Q 2009 3884 1853 4118 
Q 1697 4353 1428 4353 
z
M 4250 4750 
L 4750 4750 
L 1831 -91 
L 1331 -91 
L 4250 4750 
z
M 1428 4750 
Q 1922 4750 2215 4408 
Q 2509 4066 2509 3481 
Q 2509 2891 2217 2550 
Q 1925 2209 1428 2209 
Q 931 2209 642 2551 
Q 353 2894 353 3481 
Q 353 4063 643 4406 
Q 934 4750 1428 4750 
z
" transform="scale(0.015625)"/>
      </defs>
      <use xlink:href="#DejaVuSans-65"/>
      <use xlink:href="#DejaVuSans-78" x="59.773438"/>
      <use xlink:href="#DejaVuSans-65" x="115.828125"/>
      <use xlink:href="#DejaVuSans-72" x="177.351562"/>
      <use xlink:href="#DejaVuSans-67" x="216.714844"/>
      <use xlink:href="#DejaVuSans-65" x="280.191406"/>
      <use xlink:href="#DejaVuSans-74" x="341.714844"/>
      <use xlink:href="#DejaVuSans-69" x="380.923828"/>
      <use xlink:href="#DejaVuSans-73" x="408.707031"/>
      <use xlink:href="#DejaVuSans-63" x="460.806641"/>
      <use xlink:href="#DejaVuSans-68" x="515.787109"/>
      <use xlink:href="#DejaVuSans-65" x="579.166016"/>
      <use xlink:href="#DejaVuSans-72" x="640.689453"/>
      <use xlink:href="#DejaVuSans-20" x="681.802734"/>
      <use xlink:href="#DejaVuSans-57" x="713.589844"/>
      <use xlink:href="#DejaVuSans-69" x="810.216797"/>
      <use xlink:href="#DejaVuSans-72" x="838"/>
      <use xlink:href="#DejaVuSans-6b" x="879.113281"/>
      <use xlink:href="#DejaVuSans-75" x="933.898438"/>
      <use xlink:href="#DejaVuSans-6e" x="997.277344"/>
      <use xlink:href="#DejaVuSans-67" x="1060.65625"/>
      <use xlink:href="#DejaVuSans-73" x="1124.132812"/>
      <use xlink:href="#DejaVuSans-67" x="1176.232422"/>
      <use xlink:href="#DejaVuSans-72" x="1239.708984"/>
      <use xlink:href="#DejaVuSans-61" x="1280.822266"/>
      <use xlink:href="#DejaVuSans-64" x="1342.101562"/>
      <use xlink:href="#DejaVuSans-20" x="1405.578125"/>
      <use xlink:href="#DejaVuSans-5b" x="1437.365234"/>
      <use xlink:href="#DejaVuSans-25" x="1476.378906"/>
      <use xlink:href="#DejaVuSans-5d" x="1571.398438"/>
     </g>
    </g>
   </g>
   <g id="line2d_25">
    <path d="M 228.084606 146.82033 
L 239.293139 143.913679 
L 250.501672 141.952556 
L 261.710205 140.758695 
L 272.918738 140.197652 
L 284.127271 140.165473 
L 295.335804 140.579965 
L 306.544337 141.375012 
L 317.75287 142.496628 
L 328.961403 143.90015 
L 340.169936 145.548186 
L 351.378469 147.409182 
L 362.587002 149.456676 
L 373.795535 151.667294 
L 385.004068 154.021252 
L 396.212601 156.501287 
L 407.421134 159.092323 
L 418.629666 161.781137 
L 429.838199 164.556076 
L 441.046732 167.406833 
L 452.255265 170.32426 
L 463.463798 173.30021 
L 474.672331 176.32741 
L 485.880864 179.399345 
L 497.089397 182.510168 
L 508.29793 185.65462 
L 519.506463 188.827962 
L 530.714996 192.025913 
L 541.923529 195.244605 
L 553.132062 198.48053 
L 564.340595 201.73051 
L 575.549128 204.991658 
L 586.757661 208.261352 
L 597.966194 211.537205 
L 609.174727 214.817043 
L 620.38326 218.098889 
L 631.591792 221.380937 
L 642.800325 224.661542 
L 654.008858 227.939205 
L 665.217391 231.212557 
" clip-path="url(#p6ee4a1fba0)" style="fill: none; stroke: #4682b4; stroke-width: 1.5; stroke-linecap: square"/>
   </g>
   <g id="line2d_26">
    <path d="M 203.799452 137.488252 
L 218.247582 135.057581 
L 232.695712 134.688525 
L 247.143842 135.767417 
L 261.591972 137.904877 
L 276.040102 140.841458 
L 290.488232 144.389392 
L 304.936362 148.410695 
L 319.384492 152.801478 
L 333.832622 157.481791 
L 348.280752 162.389136 
L 362.728882 167.473718 
L 377.177012 172.695847 
L 391.625142 178.023174 
L 406.073272 183.42931 
L 420.521402 188.892553 
L 434.969532 194.394955 
L 449.417662 199.921611 
L 463.865792 205.460099 
L 478.313922 211.000042 
L 492.762052 216.532755 
L 507.210182 222.050965 
L 521.658312 227.54858 
L 536.106442 233.020505 
L 550.554572 238.462487 
L 565.002702 243.870986 
L 579.450832 249.243072 
L 593.898962 254.576334 
L 608.347092 259.868808 
L 622.795222 265.11891 
L 637.243352 270.325386 
L 651.691482 275.487266 
L 666.139612 280.603824 
L 680.587742 285.674544 
L 695.035872 290.699093 
L 709.484002 295.677297 
L 723.932132 300.609114 
L 738.380262 305.494624 
L 752.828393 310.334003 
L 767.276523 315.127517 
L 781.724653 319.875506 
L 796.172783 324.578373 
L 810.620913 329.236575 
L 825.069043 333.850616 
L 839.517173 338.421036 
L 853.965303 342.948409 
L 868.413433 347.433336 
L 882.861563 351.876437 
L 897.309693 356.27835 
L 911.757823 360.639727 
L 926.205953 364.96123 
L 940.654083 369.243527 
L 955.102213 373.487291 
L 969.550343 377.693195 
L 983.998473 381.861917 
L 998.446603 385.994128 
L 1012.894733 390.090499 
L 1027.342863 394.151697 
L 1041.790993 398.178381 
L 1056.239123 402.171207 
L 1070.687253 406.130821 
L 1085.135383 410.057862 
L 1099.583513 413.952961 
L 1114.031643 417.816741 
L 1128.479773 421.649813 
L 1142.927903 425.452781 
L 1157.376033 429.226236 
L 1171.824163 432.970763 
L 1186.272293 436.686934 
L 1200.720423 440.375309 
L 1215.168553 444.036443 
L 1229.616683 447.670875 
L 1244.064813 451.279135 
L 1258.512943 454.861744 
L 1272.961073 458.419212 
L 1287.409203 461.952037 
L 1301.857333 465.460709 
L 1316.305463 468.945706 
L 1330.753593 472.407497 
L 1345.201723 475.84654 
" clip-path="url(#p6ee4a1fba0)" style="fill: none; stroke: #008000; stroke-width: 1.5; stroke-linecap: square"/>
   </g>
   <g id="line2d_27">
    <path d="M 203.799452 215.247298 
L 207.551089 211.542235 
L 211.302727 208.163225 
L 215.054365 205.077669 
L 218.806002 202.257553 
L 222.55764 199.678616 
L 226.309278 197.319703 
L 230.060915 195.162249 
L 233.812553 193.189876 
L 237.564191 191.38805 
L 241.315829 189.743821 
L 245.067466 188.245593 
L 248.819104 186.882937 
L 252.570742 185.646489 
L 256.322379 184.527679 
L 260.074017 183.518814 
L 263.825655 182.612844 
L 267.577292 181.803331 
L 271.32893 181.084386 
L 275.080568 180.450596 
L 278.832206 179.896976 
L 282.583843 179.418941 
L 286.335481 179.01224 
L 290.087119 178.672939 
L 293.838756 178.397391 
L 297.590394 178.182204 
L 301.342032 178.02422 
L 305.093669 177.920492 
L 308.845307 177.868273 
L 312.596945 177.864989 
" clip-path="url(#p6ee4a1fba0)" style="fill: none; stroke: #ffa500; stroke-width: 1.5; stroke-linecap: square"/>
   </g>
   <g id="patch_3">
    <path d="M 180 777.6 
L 180 86.4 
" style="fill: none; stroke: #000000; stroke-width: 0.8; stroke-linejoin: miter; stroke-linecap: square"/>
   </g>
   <g id="patch_4">
    <path d="M 665.217391 777.6 
L 665.217391 86.4 
" style="fill: none; stroke: #000000; stroke-width: 0.8; stroke-linejoin: miter; stroke-linecap: square"/>
   </g>
   <g id="patch_5">
    <path d="M 180 777.6 
L 665.217391 777.6 
" style="fill: none; stroke: #000000; stroke-width: 0.8; stroke-linejoin: miter; stroke-linecap: square"/>
   </g>
   <g id="patch_6">
    <path d="M 180 86.4 
L 665.217391 86.4 
" style="fill: none; stroke: #000000; stroke-width: 0.8; stroke-linejoin: miter; stroke-linecap: square"/>
   </g>
   <g id="legend_1">
    <g id="patch_7">
     <path d="M 430.095516 190.46875 
L 651.217391 190.46875 
Q 655.217391 190.46875 655.217391 186.46875 
L 655.217391 100.4 
Q 655.217391 96.4 651.217391 96.4 
L 430.095516 96.4 
Q 426.095516 96.4 426.095516 100.4 
L 426.095516 186.46875 
Q 426.095516 190.46875 430.095516 190.46875 
z
" style="fill: #ffffff; opacity: 0.8; stroke: #cccccc; stroke-linejoin: miter"/>
    </g>
    <g id="line2d_28">
     <path d="M 434.095516 112.596875 
L 454.095516 112.596875 
L 474.095516 112.596875 
" style="fill: none; stroke: #4682b4; stroke-width: 1.5; stroke-linecap: square"/>
    </g>
    <g id="text_15">
     <!-- mit IWÜ -->
     <g transform="translate(490.095516 119.596875) scale(0.2 -0.2)">
      <defs>
       <path id="DejaVuSans-6d" d="M 3328 2828 
Q 3544 3216 3844 3400 
Q 4144 3584 4550 3584 
Q 5097 3584 5394 3201 
Q 5691 2819 5691 2113 
L 5691 0 
L 5113 0 
L 5113 2094 
Q 5113 2597 4934 2840 
Q 4756 3084 4391 3084 
Q 3944 3084 3684 2787 
Q 3425 2491 3425 1978 
L 3425 0 
L 2847 0 
L 2847 2094 
Q 2847 2600 2669 2842 
Q 2491 3084 2119 3084 
Q 1678 3084 1418 2786 
Q 1159 2488 1159 1978 
L 1159 0 
L 581 0 
L 581 3500 
L 1159 3500 
L 1159 2956 
Q 1356 3278 1631 3431 
Q 1906 3584 2284 3584 
Q 2666 3584 2933 3390 
Q 3200 3197 3328 2828 
z
" transform="scale(0.015625)"/>
       <path id="DejaVuSans-49" d="M 628 4666 
L 1259 4666 
L 1259 0 
L 628 0 
L 628 4666 
z
" transform="scale(0.015625)"/>
       <path id="DejaVuSans-dc" d="M 556 4666 
L 1191 4666 
L 1191 1831 
Q 1191 1081 1462 751 
Q 1734 422 2344 422 
Q 2950 422 3222 751 
Q 3494 1081 3494 1831 
L 3494 4666 
L 4128 4666 
L 4128 1753 
Q 4128 841 3676 375 
Q 3225 -91 2344 -91 
Q 1459 -91 1007 375 
Q 556 841 556 1753 
L 556 4666 
z
M 2638 5830 
L 3272 5830 
L 3272 5196 
L 2638 5196 
L 2638 5830 
z
M 1416 5830 
L 2050 5830 
L 2050 5196 
L 1416 5196 
L 1416 5830 
z
" transform="scale(0.015625)"/>
      </defs>
      <use xlink:href="#DejaVuSans-6d"/>
      <use xlink:href="#DejaVuSans-69" x="97.412109"/>
      <use xlink:href="#DejaVuSans-74" x="125.195312"/>
      <use xlink:href="#DejaVuSans-20" x="164.404297"/>
      <use xlink:href="#DejaVuSans-49" x="196.191406"/>
      <use xlink:href="#DejaVuSans-57" x="225.683594"/>
      <use xlink:href="#DejaVuSans-dc" x="324.560547"/>
     </g>
    </g>
    <g id="line2d_29">
     <path d="M 434.095516 141.953125 
L 454.095516 141.953125 
L 474.095516 141.953125 
" style="fill: none; stroke: #008000; stroke-width: 1.5; stroke-linecap: square"/>
    </g>
    <g id="text_16">
     <!-- mit IWÜ und PK -->
     <g transform="translate(490.095516 148.953125) scale(0.2 -0.2)">
      <defs>
       <path id="DejaVuSans-50" d="M 1259 4147 
L 1259 2394 
L 2053 2394 
Q 2494 2394 2734 2622 
Q 2975 2850 2975 3272 
Q 2975 3691 2734 3919 
Q 2494 4147 2053 4147 
L 1259 4147 
z
M 628 4666 
L 2053 4666 
Q 2838 4666 3239 4311 
Q 3641 3956 3641 3272 
Q 3641 2581 3239 2228 
Q 2838 1875 2053 1875 
L 1259 1875 
L 1259 0 
L 628 0 
L 628 4666 
z
" transform="scale(0.015625)"/>
       <path id="DejaVuSans-4b" d="M 628 4666 
L 1259 4666 
L 1259 2694 
L 3353 4666 
L 4166 4666 
L 1850 2491 
L 4331 0 
L 3500 0 
L 1259 2247 
L 1259 0 
L 628 0 
L 628 4666 
z
" transform="scale(0.015625)"/>
      </defs>
      <use xlink:href="#DejaVuSans-6d"/>
      <use xlink:href="#DejaVuSans-69" x="97.412109"/>
      <use xlink:href="#DejaVuSans-74" x="125.195312"/>
      <use xlink:href="#DejaVuSans-20" x="164.404297"/>
      <use xlink:href="#DejaVuSans-49" x="196.191406"/>
      <use xlink:href="#DejaVuSans-57" x="225.683594"/>
      <use xlink:href="#DejaVuSans-dc" x="324.560547"/>
      <use xlink:href="#DejaVuSans-20" x="397.753906"/>
      <use xlink:href="#DejaVuSans-75" x="429.541016"/>
      <use xlink:href="#DejaVuSans-6e" x="492.919922"/>
      <use xlink:href="#DejaVuSans-64" x="556.298828"/>
      <use xlink:href="#DejaVuSans-20" x="619.775391"/>
      <use xlink:href="#DejaVuSans-50" x="651.5625"/>
      <use xlink:href="#DejaVuSans-4b" x="711.865234"/>
     </g>
    </g>
    <g id="line2d_30">
     <path d="M 434.095516 171.309375 
L 454.095516 171.309375 
L 474.095516 171.309375 
" style="fill: none; stroke: #ffa500; stroke-width: 1.5; stroke-linecap: square"/>
    </g>
    <g id="text_17">
     <!-- mit IWÜ und ZK -->
     <g transform="translate(490.095516 178.309375) scale(0.2 -0.2)">
      <defs>
       <path id="DejaVuSans-5a" d="M 359 4666 
L 4025 4666 
L 4025 4184 
L 1075 531 
L 4097 531 
L 4097 0 
L 288 0 
L 288 481 
L 3238 4134 
L 359 4134 
L 359 4666 
z
" transform="scale(0.015625)"/>
      </defs>
      <use xlink:href="#DejaVuSans-6d"/>
      <use xlink:href="#DejaVuSans-69" x="97.412109"/>
      <use xlink:href="#DejaVuSans-74" x="125.195312"/>
      <use xlink:href="#DejaVuSans-20" x="164.404297"/>
      <use xlink:href="#DejaVuSans-49" x="196.191406"/>
      <use xlink:href="#DejaVuSans-57" x="225.683594"/>
      <use xlink:href="#DejaVuSans-dc" x="324.560547"/>
      <use xlink:href="#DejaVuSans-20" x="397.753906"/>
      <use xlink:href="#DejaVuSans-75" x="429.541016"/>
      <use xlink:href="#DejaVuSans-6e" x="492.919922"/>
      <use xlink:href="#DejaVuSans-64" x="556.298828"/>
      <use xlink:href="#DejaVuSans-20" x="619.775391"/>
      <use xlink:href="#DejaVuSans-5a" x="651.5625"/>
      <use xlink:href="#DejaVuSans-4b" x="720.068359"/>
     </g>
    </g>
   </g>
  </g>
  <g id="axes_2">
   <g id="patch_8">
    <path d="M 810.782609 777.6 
L 1296 777.6 
L 1296 86.4 
L 810.782609 86.4 
z
" style="fill: #ffffff"/>
   </g>
   <g id="matplotlib.axis_3">
    <g id="xtick_6">
     <g id="line2d_31">
      <path d="M 811.025096 777.6 
L 811.025096 86.4 
" clip-path="url(#pa7372174c4)" style="fill: none; stroke: #b0b0b0; stroke-width: 0.8; stroke-linecap: square"/>
     </g>
     <g id="line2d_32">
      <g>
       <use xlink:href="#m3dd5107dbc" x="811.025096" y="777.6" style="stroke: #000000; stroke-width: 0.8"/>
      </g>
     </g>
     <g id="text_18">
      <!-- 120 -->
      <g transform="translate(791.937596 799.796875) scale(0.2 -0.2)">
       <defs>
        <path id="DejaVuSans-31" d="M 794 531 
L 1825 531 
L 1825 4091 
L 703 3866 
L 703 4441 
L 1819 4666 
L 2450 4666 
L 2450 531 
L 3481 531 
L 3481 0 
L 794 0 
L 794 531 
z
" transform="scale(0.015625)"/>
       </defs>
       <use xlink:href="#DejaVuSans-31"/>
       <use xlink:href="#DejaVuSans-32" x="63.623047"/>
       <use xlink:href="#DejaVuSans-30" x="127.246094"/>
      </g>
     </g>
    </g>
    <g id="xtick_7">
     <g id="line2d_33">
      <path d="M 932.268822 777.6 
L 932.268822 86.4 
" clip-path="url(#pa7372174c4)" style="fill: none; stroke: #b0b0b0; stroke-width: 0.8; stroke-linecap: square"/>
     </g>
     <g id="line2d_34">
      <g>
       <use xlink:href="#m3dd5107dbc" x="932.268822" y="777.6" style="stroke: #000000; stroke-width: 0.8"/>
      </g>
     </g>
     <g id="text_19">
      <!-- 125 -->
      <g transform="translate(913.181322 799.796875) scale(0.2 -0.2)">
       <use xlink:href="#DejaVuSans-31"/>
       <use xlink:href="#DejaVuSans-32" x="63.623047"/>
       <use xlink:href="#DejaVuSans-35" x="127.246094"/>
      </g>
     </g>
    </g>
    <g id="xtick_8">
     <g id="line2d_35">
      <path d="M 1053.512548 777.6 
L 1053.512548 86.4 
" clip-path="url(#pa7372174c4)" style="fill: none; stroke: #b0b0b0; stroke-width: 0.8; stroke-linecap: square"/>
     </g>
     <g id="line2d_36">
      <g>
       <use xlink:href="#m3dd5107dbc" x="1053.512548" y="777.6" style="stroke: #000000; stroke-width: 0.8"/>
      </g>
     </g>
     <g id="text_20">
      <!-- 130 -->
      <g transform="translate(1034.425048 799.796875) scale(0.2 -0.2)">
       <use xlink:href="#DejaVuSans-31"/>
       <use xlink:href="#DejaVuSans-33" x="63.623047"/>
       <use xlink:href="#DejaVuSans-30" x="127.246094"/>
      </g>
     </g>
    </g>
    <g id="xtick_9">
     <g id="line2d_37">
      <path d="M 1174.756274 777.6 
L 1174.756274 86.4 
" clip-path="url(#pa7372174c4)" style="fill: none; stroke: #b0b0b0; stroke-width: 0.8; stroke-linecap: square"/>
     </g>
     <g id="line2d_38">
      <g>
       <use xlink:href="#m3dd5107dbc" x="1174.756274" y="777.6" style="stroke: #000000; stroke-width: 0.8"/>
      </g>
     </g>
     <g id="text_21">
      <!-- 135 -->
      <g transform="translate(1155.668774 799.796875) scale(0.2 -0.2)">
       <use xlink:href="#DejaVuSans-31"/>
       <use xlink:href="#DejaVuSans-33" x="63.623047"/>
       <use xlink:href="#DejaVuSans-35" x="127.246094"/>
      </g>
     </g>
    </g>
    <g id="xtick_10">
     <g id="line2d_39">
      <path d="M 1296 777.6 
L 1296 86.4 
" clip-path="url(#pa7372174c4)" style="fill: none; stroke: #b0b0b0; stroke-width: 0.8; stroke-linecap: square"/>
     </g>
     <g id="line2d_40">
      <g>
       <use xlink:href="#m3dd5107dbc" x="1296" y="777.6" style="stroke: #000000; stroke-width: 0.8"/>
      </g>
     </g>
     <g id="text_22">
      <!-- 140 -->
      <g transform="translate(1276.9125 799.796875) scale(0.2 -0.2)">
       <use xlink:href="#DejaVuSans-31"/>
       <use xlink:href="#DejaVuSans-34" x="63.623047"/>
       <use xlink:href="#DejaVuSans-30" x="127.246094"/>
      </g>
     </g>
    </g>
    <g id="text_23">
     <!-- Gaskühlerdruck [bar] -->
     <g transform="translate(947.630367 823.153125) scale(0.2 -0.2)">
      <use xlink:href="#DejaVuSans-47"/>
      <use xlink:href="#DejaVuSans-61" x="77.490234"/>
      <use xlink:href="#DejaVuSans-73" x="138.769531"/>
      <use xlink:href="#DejaVuSans-6b" x="190.869141"/>
      <use xlink:href="#DejaVuSans-fc" x="245.654297"/>
      <use xlink:href="#DejaVuSans-68" x="309.033203"/>
      <use xlink:href="#DejaVuSans-6c" x="372.412109"/>
      <use xlink:href="#DejaVuSans-65" x="400.195312"/>
      <use xlink:href="#DejaVuSans-72" x="461.71875"/>
      <use xlink:href="#DejaVuSans-64" x="501.082031"/>
      <use xlink:href="#DejaVuSans-72" x="564.558594"/>
      <use xlink:href="#DejaVuSans-75" x="605.671875"/>
      <use xlink:href="#DejaVuSans-63" x="669.050781"/>
      <use xlink:href="#DejaVuSans-6b" x="724.03125"/>
      <use xlink:href="#DejaVuSans-20" x="781.941406"/>
      <use xlink:href="#DejaVuSans-5b" x="813.728516"/>
      <use xlink:href="#DejaVuSans-62" x="852.742188"/>
      <use xlink:href="#DejaVuSans-61" x="916.21875"/>
      <use xlink:href="#DejaVuSans-72" x="977.498047"/>
      <use xlink:href="#DejaVuSans-5d" x="1018.611328"/>
     </g>
    </g>
   </g>
   <g id="matplotlib.axis_4">
    <g id="ytick_8">
     <g id="line2d_41">
      <path d="M 810.782609 687.443478 
L 1296 687.443478 
" clip-path="url(#pa7372174c4)" style="fill: none; stroke: #b0b0b0; stroke-width: 0.8; stroke-linecap: square"/>
     </g>
     <g id="line2d_42">
      <g>
       <use xlink:href="#m4bc2fbbf7a" x="810.782609" y="687.443478" style="stroke: #000000; stroke-width: 0.8"/>
      </g>
     </g>
     <g id="text_24">
      <!-- 38.99 -->
      <g transform="translate(746.526359 695.041916) scale(0.2 -0.2)">
       <defs>
        <path id="DejaVuSans-2e" d="M 684 794 
L 1344 794 
L 1344 0 
L 684 0 
L 684 794 
z
" transform="scale(0.015625)"/>
       </defs>
       <use xlink:href="#DejaVuSans-33"/>
       <use xlink:href="#DejaVuSans-38" x="63.623047"/>
       <use xlink:href="#DejaVuSans-2e" x="127.246094"/>
       <use xlink:href="#DejaVuSans-39" x="159.033203"/>
       <use xlink:href="#DejaVuSans-39" x="222.65625"/>
      </g>
     </g>
    </g>
    <g id="ytick_9">
     <g id="line2d_43">
      <path d="M 810.782609 587.269565 
L 1296 587.269565 
" clip-path="url(#pa7372174c4)" style="fill: none; stroke: #b0b0b0; stroke-width: 0.8; stroke-linecap: square"/>
     </g>
     <g id="line2d_44">
      <g>
       <use xlink:href="#m4bc2fbbf7a" x="810.782609" y="587.269565" style="stroke: #000000; stroke-width: 0.8"/>
      </g>
     </g>
     <g id="text_25">
      <!-- 39.00 -->
      <g transform="translate(746.526359 594.868003) scale(0.2 -0.2)">
       <use xlink:href="#DejaVuSans-33"/>
       <use xlink:href="#DejaVuSans-39" x="63.623047"/>
       <use xlink:href="#DejaVuSans-2e" x="127.246094"/>
       <use xlink:href="#DejaVuSans-30" x="159.033203"/>
       <use xlink:href="#DejaVuSans-30" x="222.65625"/>
      </g>
     </g>
    </g>
    <g id="ytick_10">
     <g id="line2d_45">
      <path d="M 810.782609 487.095652 
L 1296 487.095652 
" clip-path="url(#pa7372174c4)" style="fill: none; stroke: #b0b0b0; stroke-width: 0.8; stroke-linecap: square"/>
     </g>
     <g id="line2d_46">
      <g>
       <use xlink:href="#m4bc2fbbf7a" x="810.782609" y="487.095652" style="stroke: #000000; stroke-width: 0.8"/>
      </g>
     </g>
     <g id="text_26">
      <!-- 39.01 -->
      <g transform="translate(746.526359 494.69409) scale(0.2 -0.2)">
       <use xlink:href="#DejaVuSans-33"/>
       <use xlink:href="#DejaVuSans-39" x="63.623047"/>
       <use xlink:href="#DejaVuSans-2e" x="127.246094"/>
       <use xlink:href="#DejaVuSans-30" x="159.033203"/>
       <use xlink:href="#DejaVuSans-31" x="222.65625"/>
      </g>
     </g>
    </g>
    <g id="ytick_11">
     <g id="line2d_47">
      <path d="M 810.782609 386.921739 
L 1296 386.921739 
" clip-path="url(#pa7372174c4)" style="fill: none; stroke: #b0b0b0; stroke-width: 0.8; stroke-linecap: square"/>
     </g>
     <g id="line2d_48">
      <g>
       <use xlink:href="#m4bc2fbbf7a" x="810.782609" y="386.921739" style="stroke: #000000; stroke-width: 0.8"/>
      </g>
     </g>
     <g id="text_27">
      <!-- 39.02 -->
      <g transform="translate(746.526359 394.520177) scale(0.2 -0.2)">
       <use xlink:href="#DejaVuSans-33"/>
       <use xlink:href="#DejaVuSans-39" x="63.623047"/>
       <use xlink:href="#DejaVuSans-2e" x="127.246094"/>
       <use xlink:href="#DejaVuSans-30" x="159.033203"/>
       <use xlink:href="#DejaVuSans-32" x="222.65625"/>
      </g>
     </g>
    </g>
    <g id="ytick_12">
     <g id="line2d_49">
      <path d="M 810.782609 286.747826 
L 1296 286.747826 
" clip-path="url(#pa7372174c4)" style="fill: none; stroke: #b0b0b0; stroke-width: 0.8; stroke-linecap: square"/>
     </g>
     <g id="line2d_50">
      <g>
       <use xlink:href="#m4bc2fbbf7a" x="810.782609" y="286.747826" style="stroke: #000000; stroke-width: 0.8"/>
      </g>
     </g>
     <g id="text_28">
      <!-- 39.03 -->
      <g transform="translate(746.526359 294.346264) scale(0.2 -0.2)">
       <use xlink:href="#DejaVuSans-33"/>
       <use xlink:href="#DejaVuSans-39" x="63.623047"/>
       <use xlink:href="#DejaVuSans-2e" x="127.246094"/>
       <use xlink:href="#DejaVuSans-30" x="159.033203"/>
       <use xlink:href="#DejaVuSans-33" x="222.65625"/>
      </g>
     </g>
    </g>
    <g id="ytick_13">
     <g id="line2d_51">
      <path d="M 810.782609 186.573913 
L 1296 186.573913 
" clip-path="url(#pa7372174c4)" style="fill: none; stroke: #b0b0b0; stroke-width: 0.8; stroke-linecap: square"/>
     </g>
     <g id="line2d_52">
      <g>
       <use xlink:href="#m4bc2fbbf7a" x="810.782609" y="186.573913" style="stroke: #000000; stroke-width: 0.8"/>
      </g>
     </g>
     <g id="text_29">
      <!-- 39.04 -->
      <g transform="translate(746.526359 194.172351) scale(0.2 -0.2)">
       <use xlink:href="#DejaVuSans-33"/>
       <use xlink:href="#DejaVuSans-39" x="63.623047"/>
       <use xlink:href="#DejaVuSans-2e" x="127.246094"/>
       <use xlink:href="#DejaVuSans-30" x="159.033203"/>
       <use xlink:href="#DejaVuSans-34" x="222.65625"/>
      </g>
     </g>
    </g>
    <g id="ytick_14">
     <g id="line2d_53">
      <path d="M 810.782609 86.4 
L 1296 86.4 
" clip-path="url(#pa7372174c4)" style="fill: none; stroke: #b0b0b0; stroke-width: 0.8; stroke-linecap: square"/>
     </g>
     <g id="line2d_54">
      <g>
       <use xlink:href="#m4bc2fbbf7a" x="810.782609" y="86.4" style="stroke: #000000; stroke-width: 0.8"/>
      </g>
     </g>
     <g id="text_30">
      <!-- 39.05 -->
      <g transform="translate(746.526359 93.998437) scale(0.2 -0.2)">
       <use xlink:href="#DejaVuSans-33"/>
       <use xlink:href="#DejaVuSans-39" x="63.623047"/>
       <use xlink:href="#DejaVuSans-2e" x="127.246094"/>
       <use xlink:href="#DejaVuSans-30" x="159.033203"/>
       <use xlink:href="#DejaVuSans-35" x="222.65625"/>
      </g>
     </g>
    </g>
    <g id="text_31">
     <!-- exergetischer Wirkungsgrad [%] -->
     <g transform="translate(738.366984 593.042187) rotate(-90) scale(0.2 -0.2)">
      <use xlink:href="#DejaVuSans-65"/>
      <use xlink:href="#DejaVuSans-78" x="59.773438"/>
      <use xlink:href="#DejaVuSans-65" x="115.828125"/>
      <use xlink:href="#DejaVuSans-72" x="177.351562"/>
      <use xlink:href="#DejaVuSans-67" x="216.714844"/>
      <use xlink:href="#DejaVuSans-65" x="280.191406"/>
      <use xlink:href="#DejaVuSans-74" x="341.714844"/>
      <use xlink:href="#DejaVuSans-69" x="380.923828"/>
      <use xlink:href="#DejaVuSans-73" x="408.707031"/>
      <use xlink:href="#DejaVuSans-63" x="460.806641"/>
      <use xlink:href="#DejaVuSans-68" x="515.787109"/>
      <use xlink:href="#DejaVuSans-65" x="579.166016"/>
      <use xlink:href="#DejaVuSans-72" x="640.689453"/>
      <use xlink:href="#DejaVuSans-20" x="681.802734"/>
      <use xlink:href="#DejaVuSans-57" x="713.589844"/>
      <use xlink:href="#DejaVuSans-69" x="810.216797"/>
      <use xlink:href="#DejaVuSans-72" x="838"/>
      <use xlink:href="#DejaVuSans-6b" x="879.113281"/>
      <use xlink:href="#DejaVuSans-75" x="933.898438"/>
      <use xlink:href="#DejaVuSans-6e" x="997.277344"/>
      <use xlink:href="#DejaVuSans-67" x="1060.65625"/>
      <use xlink:href="#DejaVuSans-73" x="1124.132812"/>
      <use xlink:href="#DejaVuSans-67" x="1176.232422"/>
      <use xlink:href="#DejaVuSans-72" x="1239.708984"/>
      <use xlink:href="#DejaVuSans-61" x="1280.822266"/>
      <use xlink:href="#DejaVuSans-64" x="1342.101562"/>
      <use xlink:href="#DejaVuSans-20" x="1405.578125"/>
      <use xlink:href="#DejaVuSans-5b" x="1437.365234"/>
      <use xlink:href="#DejaVuSans-25" x="1476.378906"/>
      <use xlink:href="#DejaVuSans-5d" x="1571.398438"/>
     </g>
    </g>
   </g>
   <g id="line2d_55">
    <path d="M 811.025096 717.096041 
L 823.46035 683.69433 
L 835.895604 651.534011 
L 848.330858 620.598078 
L 860.766112 590.86981 
L 873.201366 562.332797 
L 885.63662 534.970793 
L 898.071874 508.767954 
L 910.507128 483.708649 
L 922.942382 459.777438 
L 935.377636 436.959317 
L 947.81289 415.239307 
L 960.248143 394.602837 
L 972.683397 375.035441 
L 985.118651 356.522979 
L 997.553905 339.051507 
L 1009.989159 322.607309 
L 1022.424413 307.176882 
L 1034.859667 292.746941 
L 1047.294921 279.304436 
L 1059.730175 266.836441 
L 1072.165429 255.330312 
L 1084.600683 244.773576 
L 1097.035937 235.153946 
L 1109.471191 226.459346 
L 1121.906445 218.677867 
L 1134.341699 211.797787 
L 1146.776953 205.807565 
L 1159.212207 200.695835 
L 1171.647461 196.451403 
L 1184.082714 193.063244 
L 1196.517968 190.520498 
L 1208.953222 188.812471 
L 1221.388476 187.928625 
L 1233.82373 187.858581 
L 1246.258984 188.592112 
L 1258.694238 190.119144 
L 1271.129492 192.42975 
L 1283.564746 195.514141 
L 1296 199.362694 
" clip-path="url(#pa7372174c4)" style="fill: none; stroke: #ff0000; stroke-width: 1.5; stroke-linecap: square"/>
   </g>
   <g id="patch_9">
    <path d="M 810.782609 777.6 
L 810.782609 86.4 
" style="fill: none; stroke: #000000; stroke-width: 0.8; stroke-linejoin: miter; stroke-linecap: square"/>
   </g>
   <g id="patch_10">
    <path d="M 1296 777.6 
L 1296 86.4 
" style="fill: none; stroke: #000000; stroke-width: 0.8; stroke-linejoin: miter; stroke-linecap: square"/>
   </g>
   <g id="patch_11">
    <path d="M 810.782609 777.6 
L 1296 777.6 
" style="fill: none; stroke: #000000; stroke-width: 0.8; stroke-linejoin: miter; stroke-linecap: square"/>
   </g>
   <g id="patch_12">
    <path d="M 810.782609 86.4 
L 1296 86.4 
" style="fill: none; stroke: #000000; stroke-width: 0.8; stroke-linejoin: miter; stroke-linecap: square"/>
   </g>
   <g id="legend_2">
    <g id="patch_13">
     <path d="M 824.782609 131.75625 
L 1075.870109 131.75625 
Q 1079.870109 131.75625 1079.870109 127.75625 
L 1079.870109 100.4 
Q 1079.870109 96.4 1075.870109 96.4 
L 824.782609 96.4 
Q 820.782609 96.4 820.782609 100.4 
L 820.782609 127.75625 
Q 820.782609 131.75625 824.782609 131.75625 
z
" style="fill: #ffffff; opacity: 0.8; stroke: #cccccc; stroke-linejoin: miter"/>
    </g>
    <g id="line2d_56">
     <path d="M 828.782609 112.596875 
L 848.782609 112.596875 
L 868.782609 112.596875 
" style="fill: none; stroke: #ff0000; stroke-width: 1.5; stroke-linecap: square"/>
    </g>
    <g id="text_32">
     <!-- einfacher Kreislauf -->
     <g transform="translate(884.782609 119.596875) scale(0.2 -0.2)">
      <defs>
       <path id="DejaVuSans-66" d="M 2375 4863 
L 2375 4384 
L 1825 4384 
Q 1516 4384 1395 4259 
Q 1275 4134 1275 3809 
L 1275 3500 
L 2222 3500 
L 2222 3053 
L 1275 3053 
L 1275 0 
L 697 0 
L 697 3053 
L 147 3053 
L 147 3500 
L 697 3500 
L 697 3744 
Q 697 4328 969 4595 
Q 1241 4863 1831 4863 
L 2375 4863 
z
" transform="scale(0.015625)"/>
      </defs>
      <use xlink:href="#DejaVuSans-65"/>
      <use xlink:href="#DejaVuSans-69" x="61.523438"/>
      <use xlink:href="#DejaVuSans-6e" x="89.306641"/>
      <use xlink:href="#DejaVuSans-66" x="152.685547"/>
      <use xlink:href="#DejaVuSans-61" x="187.890625"/>
      <use xlink:href="#DejaVuSans-63" x="249.169922"/>
      <use xlink:href="#DejaVuSans-68" x="304.150391"/>
      <use xlink:href="#DejaVuSans-65" x="367.529297"/>
      <use xlink:href="#DejaVuSans-72" x="429.052734"/>
      <use xlink:href="#DejaVuSans-20" x="470.166016"/>
      <use xlink:href="#DejaVuSans-4b" x="501.953125"/>
      <use xlink:href="#DejaVuSans-72" x="567.529297"/>
      <use xlink:href="#DejaVuSans-65" x="606.392578"/>
      <use xlink:href="#DejaVuSans-69" x="667.916016"/>
      <use xlink:href="#DejaVuSans-73" x="695.699219"/>
      <use xlink:href="#DejaVuSans-6c" x="747.798828"/>
      <use xlink:href="#DejaVuSans-61" x="775.582031"/>
      <use xlink:href="#DejaVuSans-75" x="836.861328"/>
      <use xlink:href="#DejaVuSans-66" x="900.240234"/>
     </g>
    </g>
   </g>
  </g>
 </g>
 <defs>
  <clipPath id="p6ee4a1fba0">
   <rect x="180" y="86.4" width="485.217391" height="691.2"/>
  </clipPath>
  <clipPath id="pa7372174c4">
   <rect x="810.782609" y="86.4" width="485.217391" height="691.2"/>
  </clipPath>
 </defs>
</svg>
