<?xml version="1.0" encoding="utf-8" standalone="no"?>
<!DOCTYPE svg PUBLIC "-//W3C//DTD SVG 1.1//EN"
  "http://www.w3.org/Graphics/SVG/1.1/DTD/svg11.dtd">
<svg xmlns:xlink="http://www.w3.org/1999/xlink" width="1440pt" height="936pt" viewBox="0 0 1440 936" xmlns="http://www.w3.org/2000/svg" version="1.1">
 <metadata>
  <rdf:RDF xmlns:dc="http://purl.org/dc/elements/1.1/" xmlns:cc="http://creativecommons.org/ns#" xmlns:rdf="http://www.w3.org/1999/02/22-rdf-syntax-ns#">
   <cc:Work>
    <dc:type rdf:resource="http://purl.org/dc/dcmitype/StillImage"/>
    <dc:date>2023-08-12T21:23:08.842731</dc:date>
    <dc:format>image/svg+xml</dc:format>
    <dc:creator>
     <cc:Agent>
      <dc:title>Matplotlib v3.6.1, https://matplotlib.org/</dc:title>
     </cc:Agent>
    </dc:creator>
   </cc:Work>
  </rdf:RDF>
 </metadata>
 <defs>
  <style type="text/css">*{stroke-linejoin: round; stroke-linecap: butt}</style>
 </defs>
 <g id="figure_1">
  <g id="patch_1">
   <path d="M 0 936 
L 1440 936 
L 1440 0 
L 0 0 
z
" style="fill: #ffffff"/>
  </g>
  <g id="axes_1">
   <g id="patch_2">
    <path d="M 180 833.04 
L 1296 833.04 
L 1296 112.32 
L 180 112.32 
z
" style="fill: #ffffff"/>
   </g>
   <g id="matplotlib.axis_1">
    <g id="xtick_1">
     <g id="line2d_1">
      <path d="M 294.136364 833.04 
L 294.136364 112.32 
" clip-path="url(#p3a68f903a6)" style="fill: none; stroke: #b0b0b0; stroke-width: 0.8; stroke-linecap: square"/>
     </g>
     <g id="line2d_2">
      <defs>
       <path id="m21ce3b9236" d="M 0 0 
L 0 3.5 
" style="stroke: #000000; stroke-width: 0.8"/>
      </defs>
      <g>
       <use xlink:href="#m21ce3b9236" x="294.136364" y="833.04" style="stroke: #000000; stroke-width: 0.8"/>
      </g>
     </g>
     <g id="text_1">
      <!-- 40 -->
      <g transform="translate(281.411364 855.236875) scale(0.2 -0.2)">
       <defs>
        <path id="DejaVuSans-34" d="M 2419 4116 
L 825 1625 
L 2419 1625 
L 2419 4116 
z
M 2253 4666 
L 3047 4666 
L 3047 1625 
L 3713 1625 
L 3713 1100 
L 3047 1100 
L 3047 0 
L 2419 0 
L 2419 1100 
L 313 1100 
L 313 1709 
L 2253 4666 
z
" transform="scale(0.015625)"/>
        <path id="DejaVuSans-30" d="M 2034 4250 
Q 1547 4250 1301 3770 
Q 1056 3291 1056 2328 
Q 1056 1369 1301 889 
Q 1547 409 2034 409 
Q 2525 409 2770 889 
Q 3016 1369 3016 2328 
Q 3016 3291 2770 3770 
Q 2525 4250 2034 4250 
z
M 2034 4750 
Q 2819 4750 3233 4129 
Q 3647 3509 3647 2328 
Q 3647 1150 3233 529 
Q 2819 -91 2034 -91 
Q 1250 -91 836 529 
Q 422 1150 422 2328 
Q 422 3509 836 4129 
Q 1250 4750 2034 4750 
z
" transform="scale(0.015625)"/>
       </defs>
       <use xlink:href="#DejaVuSans-34"/>
       <use xlink:href="#DejaVuSans-30" x="63.623047"/>
      </g>
     </g>
    </g>
    <g id="xtick_2">
     <g id="line2d_3">
      <path d="M 452.659091 833.04 
L 452.659091 112.32 
" clip-path="url(#p3a68f903a6)" style="fill: none; stroke: #b0b0b0; stroke-width: 0.8; stroke-linecap: square"/>
     </g>
     <g id="line2d_4">
      <g>
       <use xlink:href="#m21ce3b9236" x="452.659091" y="833.04" style="stroke: #000000; stroke-width: 0.8"/>
      </g>
     </g>
     <g id="text_2">
      <!-- 45 -->
      <g transform="translate(439.934091 855.236875) scale(0.2 -0.2)">
       <defs>
        <path id="DejaVuSans-35" d="M 691 4666 
L 3169 4666 
L 3169 4134 
L 1269 4134 
L 1269 2991 
Q 1406 3038 1543 3061 
Q 1681 3084 1819 3084 
Q 2600 3084 3056 2656 
Q 3513 2228 3513 1497 
Q 3513 744 3044 326 
Q 2575 -91 1722 -91 
Q 1428 -91 1123 -41 
Q 819 9 494 109 
L 494 744 
Q 775 591 1075 516 
Q 1375 441 1709 441 
Q 2250 441 2565 725 
Q 2881 1009 2881 1497 
Q 2881 1984 2565 2268 
Q 2250 2553 1709 2553 
Q 1456 2553 1204 2497 
Q 953 2441 691 2322 
L 691 4666 
z
" transform="scale(0.015625)"/>
       </defs>
       <use xlink:href="#DejaVuSans-34"/>
       <use xlink:href="#DejaVuSans-35" x="63.623047"/>
      </g>
     </g>
    </g>
    <g id="xtick_3">
     <g id="line2d_5">
      <path d="M 611.181818 833.04 
L 611.181818 112.32 
" clip-path="url(#p3a68f903a6)" style="fill: none; stroke: #b0b0b0; stroke-width: 0.8; stroke-linecap: square"/>
     </g>
     <g id="line2d_6">
      <g>
       <use xlink:href="#m21ce3b9236" x="611.181818" y="833.04" style="stroke: #000000; stroke-width: 0.8"/>
      </g>
     </g>
     <g id="text_3">
      <!-- 50 -->
      <g transform="translate(598.456818 855.236875) scale(0.2 -0.2)">
       <use xlink:href="#DejaVuSans-35"/>
       <use xlink:href="#DejaVuSans-30" x="63.623047"/>
      </g>
     </g>
    </g>
    <g id="xtick_4">
     <g id="line2d_7">
      <path d="M 769.704545 833.04 
L 769.704545 112.32 
" clip-path="url(#p3a68f903a6)" style="fill: none; stroke: #b0b0b0; stroke-width: 0.8; stroke-linecap: square"/>
     </g>
     <g id="line2d_8">
      <g>
       <use xlink:href="#m21ce3b9236" x="769.704545" y="833.04" style="stroke: #000000; stroke-width: 0.8"/>
      </g>
     </g>
     <g id="text_4">
      <!-- 55 -->
      <g transform="translate(756.979545 855.236875) scale(0.2 -0.2)">
       <use xlink:href="#DejaVuSans-35"/>
       <use xlink:href="#DejaVuSans-35" x="63.623047"/>
      </g>
     </g>
    </g>
    <g id="xtick_5">
     <g id="line2d_9">
      <path d="M 928.227273 833.04 
L 928.227273 112.32 
" clip-path="url(#p3a68f903a6)" style="fill: none; stroke: #b0b0b0; stroke-width: 0.8; stroke-linecap: square"/>
     </g>
     <g id="line2d_10">
      <g>
       <use xlink:href="#m21ce3b9236" x="928.227273" y="833.04" style="stroke: #000000; stroke-width: 0.8"/>
      </g>
     </g>
     <g id="text_5">
      <!-- 60 -->
      <g transform="translate(915.502273 855.236875) scale(0.2 -0.2)">
       <defs>
        <path id="DejaVuSans-36" d="M 2113 2584 
Q 1688 2584 1439 2293 
Q 1191 2003 1191 1497 
Q 1191 994 1439 701 
Q 1688 409 2113 409 
Q 2538 409 2786 701 
Q 3034 994 3034 1497 
Q 3034 2003 2786 2293 
Q 2538 2584 2113 2584 
z
M 3366 4563 
L 3366 3988 
Q 3128 4100 2886 4159 
Q 2644 4219 2406 4219 
Q 1781 4219 1451 3797 
Q 1122 3375 1075 2522 
Q 1259 2794 1537 2939 
Q 1816 3084 2150 3084 
Q 2853 3084 3261 2657 
Q 3669 2231 3669 1497 
Q 3669 778 3244 343 
Q 2819 -91 2113 -91 
Q 1303 -91 875 529 
Q 447 1150 447 2328 
Q 447 3434 972 4092 
Q 1497 4750 2381 4750 
Q 2619 4750 2861 4703 
Q 3103 4656 3366 4563 
z
" transform="scale(0.015625)"/>
       </defs>
       <use xlink:href="#DejaVuSans-36"/>
       <use xlink:href="#DejaVuSans-30" x="63.623047"/>
      </g>
     </g>
    </g>
    <g id="xtick_6">
     <g id="line2d_11">
      <path d="M 1086.75 833.04 
L 1086.75 112.32 
" clip-path="url(#p3a68f903a6)" style="fill: none; stroke: #b0b0b0; stroke-width: 0.8; stroke-linecap: square"/>
     </g>
     <g id="line2d_12">
      <g>
       <use xlink:href="#m21ce3b9236" x="1086.75" y="833.04" style="stroke: #000000; stroke-width: 0.8"/>
      </g>
     </g>
     <g id="text_6">
      <!-- 65 -->
      <g transform="translate(1074.025 855.236875) scale(0.2 -0.2)">
       <use xlink:href="#DejaVuSans-36"/>
       <use xlink:href="#DejaVuSans-35" x="63.623047"/>
      </g>
     </g>
    </g>
    <g id="xtick_7">
     <g id="line2d_13">
      <path d="M 1245.272727 833.04 
L 1245.272727 112.32 
" clip-path="url(#p3a68f903a6)" style="fill: none; stroke: #b0b0b0; stroke-width: 0.8; stroke-linecap: square"/>
     </g>
     <g id="line2d_14">
      <g>
       <use xlink:href="#m21ce3b9236" x="1245.272727" y="833.04" style="stroke: #000000; stroke-width: 0.8"/>
      </g>
     </g>
     <g id="text_7">
      <!-- 70 -->
      <g transform="translate(1232.547727 855.236875) scale(0.2 -0.2)">
       <defs>
        <path id="DejaVuSans-37" d="M 525 4666 
L 3525 4666 
L 3525 4397 
L 1831 0 
L 1172 0 
L 2766 4134 
L 525 4134 
L 525 4666 
z
" transform="scale(0.015625)"/>
       </defs>
       <use xlink:href="#DejaVuSans-37"/>
       <use xlink:href="#DejaVuSans-30" x="63.623047"/>
      </g>
     </g>
    </g>
    <g id="text_8">
     <!-- Gaskühlerdruck in bar -->
     <g transform="translate(627.748438 878.593125) scale(0.2 -0.2)">
      <defs>
       <path id="DejaVuSans-47" d="M 3809 666 
L 3809 1919 
L 2778 1919 
L 2778 2438 
L 4434 2438 
L 4434 434 
Q 4069 175 3628 42 
Q 3188 -91 2688 -91 
Q 1594 -91 976 548 
Q 359 1188 359 2328 
Q 359 3472 976 4111 
Q 1594 4750 2688 4750 
Q 3144 4750 3555 4637 
Q 3966 4525 4313 4306 
L 4313 3634 
Q 3963 3931 3569 4081 
Q 3175 4231 2741 4231 
Q 1884 4231 1454 3753 
Q 1025 3275 1025 2328 
Q 1025 1384 1454 906 
Q 1884 428 2741 428 
Q 3075 428 3337 486 
Q 3600 544 3809 666 
z
" transform="scale(0.015625)"/>
       <path id="DejaVuSans-61" d="M 2194 1759 
Q 1497 1759 1228 1600 
Q 959 1441 959 1056 
Q 959 750 1161 570 
Q 1363 391 1709 391 
Q 2188 391 2477 730 
Q 2766 1069 2766 1631 
L 2766 1759 
L 2194 1759 
z
M 3341 1997 
L 3341 0 
L 2766 0 
L 2766 531 
Q 2569 213 2275 61 
Q 1981 -91 1556 -91 
Q 1019 -91 701 211 
Q 384 513 384 1019 
Q 384 1609 779 1909 
Q 1175 2209 1959 2209 
L 2766 2209 
L 2766 2266 
Q 2766 2663 2505 2880 
Q 2244 3097 1772 3097 
Q 1472 3097 1187 3025 
Q 903 2953 641 2809 
L 641 3341 
Q 956 3463 1253 3523 
Q 1550 3584 1831 3584 
Q 2591 3584 2966 3190 
Q 3341 2797 3341 1997 
z
" transform="scale(0.015625)"/>
       <path id="DejaVuSans-73" d="M 2834 3397 
L 2834 2853 
Q 2591 2978 2328 3040 
Q 2066 3103 1784 3103 
Q 1356 3103 1142 2972 
Q 928 2841 928 2578 
Q 928 2378 1081 2264 
Q 1234 2150 1697 2047 
L 1894 2003 
Q 2506 1872 2764 1633 
Q 3022 1394 3022 966 
Q 3022 478 2636 193 
Q 2250 -91 1575 -91 
Q 1294 -91 989 -36 
Q 684 19 347 128 
L 347 722 
Q 666 556 975 473 
Q 1284 391 1588 391 
Q 1994 391 2212 530 
Q 2431 669 2431 922 
Q 2431 1156 2273 1281 
Q 2116 1406 1581 1522 
L 1381 1569 
Q 847 1681 609 1914 
Q 372 2147 372 2553 
Q 372 3047 722 3315 
Q 1072 3584 1716 3584 
Q 2034 3584 2315 3537 
Q 2597 3491 2834 3397 
z
" transform="scale(0.015625)"/>
       <path id="DejaVuSans-6b" d="M 581 4863 
L 1159 4863 
L 1159 1991 
L 2875 3500 
L 3609 3500 
L 1753 1863 
L 3688 0 
L 2938 0 
L 1159 1709 
L 1159 0 
L 581 0 
L 581 4863 
z
" transform="scale(0.015625)"/>
       <path id="DejaVuSans-fc" d="M 544 1381 
L 544 3500 
L 1119 3500 
L 1119 1403 
Q 1119 906 1312 657 
Q 1506 409 1894 409 
Q 2359 409 2629 706 
Q 2900 1003 2900 1516 
L 2900 3500 
L 3475 3500 
L 3475 0 
L 2900 0 
L 2900 538 
Q 2691 219 2414 64 
Q 2138 -91 1772 -91 
Q 1169 -91 856 284 
Q 544 659 544 1381 
z
M 1991 3584 
L 1991 3584 
z
M 2278 4850 
L 2912 4850 
L 2912 4219 
L 2278 4219 
L 2278 4850 
z
M 1056 4850 
L 1690 4850 
L 1690 4219 
L 1056 4219 
L 1056 4850 
z
" transform="scale(0.015625)"/>
       <path id="DejaVuSans-68" d="M 3513 2113 
L 3513 0 
L 2938 0 
L 2938 2094 
Q 2938 2591 2744 2837 
Q 2550 3084 2163 3084 
Q 1697 3084 1428 2787 
Q 1159 2491 1159 1978 
L 1159 0 
L 581 0 
L 581 4863 
L 1159 4863 
L 1159 2956 
Q 1366 3272 1645 3428 
Q 1925 3584 2291 3584 
Q 2894 3584 3203 3211 
Q 3513 2838 3513 2113 
z
" transform="scale(0.015625)"/>
       <path id="DejaVuSans-6c" d="M 603 4863 
L 1178 4863 
L 1178 0 
L 603 0 
L 603 4863 
z
" transform="scale(0.015625)"/>
       <path id="DejaVuSans-65" d="M 3597 1894 
L 3597 1613 
L 953 1613 
Q 991 1019 1311 708 
Q 1631 397 2203 397 
Q 2534 397 2845 478 
Q 3156 559 3463 722 
L 3463 178 
Q 3153 47 2828 -22 
Q 2503 -91 2169 -91 
Q 1331 -91 842 396 
Q 353 884 353 1716 
Q 353 2575 817 3079 
Q 1281 3584 2069 3584 
Q 2775 3584 3186 3129 
Q 3597 2675 3597 1894 
z
M 3022 2063 
Q 3016 2534 2758 2815 
Q 2500 3097 2075 3097 
Q 1594 3097 1305 2825 
Q 1016 2553 972 2059 
L 3022 2063 
z
" transform="scale(0.015625)"/>
       <path id="DejaVuSans-72" d="M 2631 2963 
Q 2534 3019 2420 3045 
Q 2306 3072 2169 3072 
Q 1681 3072 1420 2755 
Q 1159 2438 1159 1844 
L 1159 0 
L 581 0 
L 581 3500 
L 1159 3500 
L 1159 2956 
Q 1341 3275 1631 3429 
Q 1922 3584 2338 3584 
Q 2397 3584 2469 3576 
Q 2541 3569 2628 3553 
L 2631 2963 
z
" transform="scale(0.015625)"/>
       <path id="DejaVuSans-64" d="M 2906 2969 
L 2906 4863 
L 3481 4863 
L 3481 0 
L 2906 0 
L 2906 525 
Q 2725 213 2448 61 
Q 2172 -91 1784 -91 
Q 1150 -91 751 415 
Q 353 922 353 1747 
Q 353 2572 751 3078 
Q 1150 3584 1784 3584 
Q 2172 3584 2448 3432 
Q 2725 3281 2906 2969 
z
M 947 1747 
Q 947 1113 1208 752 
Q 1469 391 1925 391 
Q 2381 391 2643 752 
Q 2906 1113 2906 1747 
Q 2906 2381 2643 2742 
Q 2381 3103 1925 3103 
Q 1469 3103 1208 2742 
Q 947 2381 947 1747 
z
" transform="scale(0.015625)"/>
       <path id="DejaVuSans-75" d="M 544 1381 
L 544 3500 
L 1119 3500 
L 1119 1403 
Q 1119 906 1312 657 
Q 1506 409 1894 409 
Q 2359 409 2629 706 
Q 2900 1003 2900 1516 
L 2900 3500 
L 3475 3500 
L 3475 0 
L 2900 0 
L 2900 538 
Q 2691 219 2414 64 
Q 2138 -91 1772 -91 
Q 1169 -91 856 284 
Q 544 659 544 1381 
z
M 1991 3584 
L 1991 3584 
z
" transform="scale(0.015625)"/>
       <path id="DejaVuSans-63" d="M 3122 3366 
L 3122 2828 
Q 2878 2963 2633 3030 
Q 2388 3097 2138 3097 
Q 1578 3097 1268 2742 
Q 959 2388 959 1747 
Q 959 1106 1268 751 
Q 1578 397 2138 397 
Q 2388 397 2633 464 
Q 2878 531 3122 666 
L 3122 134 
Q 2881 22 2623 -34 
Q 2366 -91 2075 -91 
Q 1284 -91 818 406 
Q 353 903 353 1747 
Q 353 2603 823 3093 
Q 1294 3584 2113 3584 
Q 2378 3584 2631 3529 
Q 2884 3475 3122 3366 
z
" transform="scale(0.015625)"/>
       <path id="DejaVuSans-20" transform="scale(0.015625)"/>
       <path id="DejaVuSans-69" d="M 603 3500 
L 1178 3500 
L 1178 0 
L 603 0 
L 603 3500 
z
M 603 4863 
L 1178 4863 
L 1178 4134 
L 603 4134 
L 603 4863 
z
" transform="scale(0.015625)"/>
       <path id="DejaVuSans-6e" d="M 3513 2113 
L 3513 0 
L 2938 0 
L 2938 2094 
Q 2938 2591 2744 2837 
Q 2550 3084 2163 3084 
Q 1697 3084 1428 2787 
Q 1159 2491 1159 1978 
L 1159 0 
L 581 0 
L 581 3500 
L 1159 3500 
L 1159 2956 
Q 1366 3272 1645 3428 
Q 1925 3584 2291 3584 
Q 2894 3584 3203 3211 
Q 3513 2838 3513 2113 
z
" transform="scale(0.015625)"/>
       <path id="DejaVuSans-62" d="M 3116 1747 
Q 3116 2381 2855 2742 
Q 2594 3103 2138 3103 
Q 1681 3103 1420 2742 
Q 1159 2381 1159 1747 
Q 1159 1113 1420 752 
Q 1681 391 2138 391 
Q 2594 391 2855 752 
Q 3116 1113 3116 1747 
z
M 1159 2969 
Q 1341 3281 1617 3432 
Q 1894 3584 2278 3584 
Q 2916 3584 3314 3078 
Q 3713 2572 3713 1747 
Q 3713 922 3314 415 
Q 2916 -91 2278 -91 
Q 1894 -91 1617 61 
Q 1341 213 1159 525 
L 1159 0 
L 581 0 
L 581 4863 
L 1159 4863 
L 1159 2969 
z
" transform="scale(0.015625)"/>
      </defs>
      <use xlink:href="#DejaVuSans-47"/>
      <use xlink:href="#DejaVuSans-61" x="77.490234"/>
      <use xlink:href="#DejaVuSans-73" x="138.769531"/>
      <use xlink:href="#DejaVuSans-6b" x="190.869141"/>
      <use xlink:href="#DejaVuSans-fc" x="245.654297"/>
      <use xlink:href="#DejaVuSans-68" x="309.033203"/>
      <use xlink:href="#DejaVuSans-6c" x="372.412109"/>
      <use xlink:href="#DejaVuSans-65" x="400.195312"/>
      <use xlink:href="#DejaVuSans-72" x="461.71875"/>
      <use xlink:href="#DejaVuSans-64" x="501.082031"/>
      <use xlink:href="#DejaVuSans-72" x="564.558594"/>
      <use xlink:href="#DejaVuSans-75" x="605.671875"/>
      <use xlink:href="#DejaVuSans-63" x="669.050781"/>
      <use xlink:href="#DejaVuSans-6b" x="724.03125"/>
      <use xlink:href="#DejaVuSans-20" x="781.941406"/>
      <use xlink:href="#DejaVuSans-69" x="813.728516"/>
      <use xlink:href="#DejaVuSans-6e" x="841.511719"/>
      <use xlink:href="#DejaVuSans-20" x="904.890625"/>
      <use xlink:href="#DejaVuSans-62" x="936.677734"/>
      <use xlink:href="#DejaVuSans-61" x="1000.154297"/>
      <use xlink:href="#DejaVuSans-72" x="1061.433594"/>
     </g>
    </g>
   </g>
   <g id="matplotlib.axis_2">
    <g id="ytick_1">
     <g id="line2d_15">
      <path d="M 180 833.04 
L 1296 833.04 
" clip-path="url(#p3a68f903a6)" style="fill: none; stroke: #b0b0b0; stroke-width: 0.8; stroke-linecap: square"/>
     </g>
     <g id="line2d_16">
      <defs>
       <path id="mbb42c4482d" d="M 0 0 
L -3.5 0 
" style="stroke: #000000; stroke-width: 0.8"/>
      </defs>
      <g>
       <use xlink:href="#mbb42c4482d" x="180" y="833.04" style="stroke: #000000; stroke-width: 0.8"/>
      </g>
     </g>
     <g id="text_9">
      <!-- 45 -->
      <g transform="translate(147.55 840.638438) scale(0.2 -0.2)">
       <use xlink:href="#DejaVuSans-34"/>
       <use xlink:href="#DejaVuSans-35" x="63.623047"/>
      </g>
     </g>
    </g>
    <g id="ytick_2">
     <g id="line2d_17">
      <path d="M 180 688.896 
L 1296 688.896 
" clip-path="url(#p3a68f903a6)" style="fill: none; stroke: #b0b0b0; stroke-width: 0.8; stroke-linecap: square"/>
     </g>
     <g id="line2d_18">
      <g>
       <use xlink:href="#mbb42c4482d" x="180" y="688.896" style="stroke: #000000; stroke-width: 0.8"/>
      </g>
     </g>
     <g id="text_10">
      <!-- 50 -->
      <g transform="translate(147.55 696.494438) scale(0.2 -0.2)">
       <use xlink:href="#DejaVuSans-35"/>
       <use xlink:href="#DejaVuSans-30" x="63.623047"/>
      </g>
     </g>
    </g>
    <g id="ytick_3">
     <g id="line2d_19">
      <path d="M 180 544.752 
L 1296 544.752 
" clip-path="url(#p3a68f903a6)" style="fill: none; stroke: #b0b0b0; stroke-width: 0.8; stroke-linecap: square"/>
     </g>
     <g id="line2d_20">
      <g>
       <use xlink:href="#mbb42c4482d" x="180" y="544.752" style="stroke: #000000; stroke-width: 0.8"/>
      </g>
     </g>
     <g id="text_11">
      <!-- 55 -->
      <g transform="translate(147.55 552.350437) scale(0.2 -0.2)">
       <use xlink:href="#DejaVuSans-35"/>
       <use xlink:href="#DejaVuSans-35" x="63.623047"/>
      </g>
     </g>
    </g>
    <g id="ytick_4">
     <g id="line2d_21">
      <path d="M 180 400.608 
L 1296 400.608 
" clip-path="url(#p3a68f903a6)" style="fill: none; stroke: #b0b0b0; stroke-width: 0.8; stroke-linecap: square"/>
     </g>
     <g id="line2d_22">
      <g>
       <use xlink:href="#mbb42c4482d" x="180" y="400.608" style="stroke: #000000; stroke-width: 0.8"/>
      </g>
     </g>
     <g id="text_12">
      <!-- 60 -->
      <g transform="translate(147.55 408.206437) scale(0.2 -0.2)">
       <use xlink:href="#DejaVuSans-36"/>
       <use xlink:href="#DejaVuSans-30" x="63.623047"/>
      </g>
     </g>
    </g>
    <g id="ytick_5">
     <g id="line2d_23">
      <path d="M 180 256.464 
L 1296 256.464 
" clip-path="url(#p3a68f903a6)" style="fill: none; stroke: #b0b0b0; stroke-width: 0.8; stroke-linecap: square"/>
     </g>
     <g id="line2d_24">
      <g>
       <use xlink:href="#mbb42c4482d" x="180" y="256.464" style="stroke: #000000; stroke-width: 0.8"/>
      </g>
     </g>
     <g id="text_13">
      <!-- 65 -->
      <g transform="translate(147.55 264.062437) scale(0.2 -0.2)">
       <use xlink:href="#DejaVuSans-36"/>
       <use xlink:href="#DejaVuSans-35" x="63.623047"/>
      </g>
     </g>
    </g>
    <g id="ytick_6">
     <g id="line2d_25">
      <path d="M 180 112.32 
L 1296 112.32 
" clip-path="url(#p3a68f903a6)" style="fill: none; stroke: #b0b0b0; stroke-width: 0.8; stroke-linecap: square"/>
     </g>
     <g id="line2d_26">
      <g>
       <use xlink:href="#mbb42c4482d" x="180" y="112.32" style="stroke: #000000; stroke-width: 0.8"/>
      </g>
     </g>
     <g id="text_14">
      <!-- 70 -->
      <g transform="translate(147.55 119.918437) scale(0.2 -0.2)">
       <use xlink:href="#DejaVuSans-37"/>
       <use xlink:href="#DejaVuSans-30" x="63.623047"/>
      </g>
     </g>
    </g>
    <g id="text_15">
     <!-- exergetischer Wirkungsgrad -->
     <g transform="translate(139.390625 613.239375) rotate(-90) scale(0.2 -0.2)">
      <defs>
       <path id="DejaVuSans-78" d="M 3513 3500 
L 2247 1797 
L 3578 0 
L 2900 0 
L 1881 1375 
L 863 0 
L 184 0 
L 1544 1831 
L 300 3500 
L 978 3500 
L 1906 2253 
L 2834 3500 
L 3513 3500 
z
" transform="scale(0.015625)"/>
       <path id="DejaVuSans-67" d="M 2906 1791 
Q 2906 2416 2648 2759 
Q 2391 3103 1925 3103 
Q 1463 3103 1205 2759 
Q 947 2416 947 1791 
Q 947 1169 1205 825 
Q 1463 481 1925 481 
Q 2391 481 2648 825 
Q 2906 1169 2906 1791 
z
M 3481 434 
Q 3481 -459 3084 -895 
Q 2688 -1331 1869 -1331 
Q 1566 -1331 1297 -1286 
Q 1028 -1241 775 -1147 
L 775 -588 
Q 1028 -725 1275 -790 
Q 1522 -856 1778 -856 
Q 2344 -856 2625 -561 
Q 2906 -266 2906 331 
L 2906 616 
Q 2728 306 2450 153 
Q 2172 0 1784 0 
Q 1141 0 747 490 
Q 353 981 353 1791 
Q 353 2603 747 3093 
Q 1141 3584 1784 3584 
Q 2172 3584 2450 3431 
Q 2728 3278 2906 2969 
L 2906 3500 
L 3481 3500 
L 3481 434 
z
" transform="scale(0.015625)"/>
       <path id="DejaVuSans-74" d="M 1172 4494 
L 1172 3500 
L 2356 3500 
L 2356 3053 
L 1172 3053 
L 1172 1153 
Q 1172 725 1289 603 
Q 1406 481 1766 481 
L 2356 481 
L 2356 0 
L 1766 0 
Q 1100 0 847 248 
Q 594 497 594 1153 
L 594 3053 
L 172 3053 
L 172 3500 
L 594 3500 
L 594 4494 
L 1172 4494 
z
" transform="scale(0.015625)"/>
       <path id="DejaVuSans-57" d="M 213 4666 
L 850 4666 
L 1831 722 
L 2809 4666 
L 3519 4666 
L 4500 722 
L 5478 4666 
L 6119 4666 
L 4947 0 
L 4153 0 
L 3169 4050 
L 2175 0 
L 1381 0 
L 213 4666 
z
" transform="scale(0.015625)"/>
      </defs>
      <use xlink:href="#DejaVuSans-65"/>
      <use xlink:href="#DejaVuSans-78" x="59.773438"/>
      <use xlink:href="#DejaVuSans-65" x="115.828125"/>
      <use xlink:href="#DejaVuSans-72" x="177.351562"/>
      <use xlink:href="#DejaVuSans-67" x="216.714844"/>
      <use xlink:href="#DejaVuSans-65" x="280.191406"/>
      <use xlink:href="#DejaVuSans-74" x="341.714844"/>
      <use xlink:href="#DejaVuSans-69" x="380.923828"/>
      <use xlink:href="#DejaVuSans-73" x="408.707031"/>
      <use xlink:href="#DejaVuSans-63" x="460.806641"/>
      <use xlink:href="#DejaVuSans-68" x="515.787109"/>
      <use xlink:href="#DejaVuSans-65" x="579.166016"/>
      <use xlink:href="#DejaVuSans-72" x="640.689453"/>
      <use xlink:href="#DejaVuSans-20" x="681.802734"/>
      <use xlink:href="#DejaVuSans-57" x="713.589844"/>
      <use xlink:href="#DejaVuSans-69" x="810.216797"/>
      <use xlink:href="#DejaVuSans-72" x="838"/>
      <use xlink:href="#DejaVuSans-6b" x="879.113281"/>
      <use xlink:href="#DejaVuSans-75" x="933.898438"/>
      <use xlink:href="#DejaVuSans-6e" x="997.277344"/>
      <use xlink:href="#DejaVuSans-67" x="1060.65625"/>
      <use xlink:href="#DejaVuSans-73" x="1124.132812"/>
      <use xlink:href="#DejaVuSans-67" x="1176.232422"/>
      <use xlink:href="#DejaVuSans-72" x="1239.708984"/>
      <use xlink:href="#DejaVuSans-61" x="1280.822266"/>
      <use xlink:href="#DejaVuSans-64" x="1342.101562"/>
     </g>
    </g>
   </g>
   <g id="line2d_27">
    <path d="M 230.727273 826.965353 
L 243.56962 814.912584 
L 256.411968 802.723354 
L 269.254315 790.380248 
L 282.096663 777.864864 
L 294.93901 765.157685 
L 307.781358 752.237953 
L 320.623705 739.083542 
L 333.466053 725.670852 
L 346.3084 711.974739 
L 359.150748 697.968494 
L 371.993096 683.623937 
L 384.835443 668.91166 
L 397.677791 653.80154 
L 410.520138 638.263639 
L 423.362486 622.269705 
L 436.204833 605.795528 
L 449.047181 588.824501 
L 461.889528 571.352738 
L 474.731876 553.396034 
L 487.574223 534.998561 
L 500.416571 516.242436 
L 513.258918 497.255968 
L 526.101266 478.216961 
L 538.943613 459.346896 
L 551.785961 440.893642 
L 564.628308 423.104895 
L 577.470656 406.199518 
L 590.313003 390.345554 
L 603.155351 375.650288 
L 615.997699 362.162125 
L 628.840046 349.880183 
L 641.682394 338.766801 
L 654.524741 328.759693 
L 667.367089 319.781954 
L 680.209436 311.749794 
L 693.051784 304.577996 
L 705.894131 298.1836 
L 718.736479 292.488203 
L 731.578826 287.419245 
L 744.421174 282.91058 
L 757.263521 278.902557 
L 770.105869 275.341798 
L 782.948216 272.180791 
L 795.790564 269.377393 
L 808.632911 266.894305 
L 821.475259 264.698543 
L 834.317606 262.760949 
L 847.159954 261.055732 
L 860.002301 259.560057 
L 872.844649 258.253683 
L 885.686997 257.118636 
L 898.529344 256.138929 
L 911.371692 255.300316 
L 924.214039 254.590077 
L 937.056387 253.996831 
L 949.898734 253.510373 
L 962.741082 253.121538 
L 975.583429 252.822076 
L 988.425777 252.604545 
L 1001.268124 252.462222 
L 1014.110472 252.389019 
L 1026.952819 252.379414 
L 1039.795167 252.428392 
L 1052.637514 252.531387 
L 1065.479862 252.684237 
L 1078.322209 252.883141 
L 1091.164557 253.124624 
L 1104.006904 253.405503 
L 1116.849252 253.72286 
L 1129.6916 254.074014 
L 1142.533947 254.456499 
L 1155.376295 254.868046 
L 1168.218642 255.306564 
L 1181.06099 255.770121 
L 1193.903337 256.256935 
L 1206.745685 256.765355 
L 1219.588032 257.293853 
L 1232.43038 257.841014 
L 1245.272727 258.405526 
" clip-path="url(#p3a68f903a6)" style="fill: none; stroke: #000000; stroke-width: 1.5; stroke-linecap: square"/>
   </g>
   <g id="line2d_28">
    <path d="M 230.727273 812.769933 
L 243.56962 800.585894 
L 256.411968 788.263907 
L 269.254315 775.786368 
L 282.096663 763.134675 
L 294.93901 750.289099 
L 307.781358 737.228654 
L 320.623705 723.930974 
L 333.466053 710.372202 
L 346.3084 696.52692 
L 359.150748 682.368129 
L 371.993096 667.867341 
L 384.835443 652.994828 
L 397.677791 637.720139 
L 410.520138 622.01301 
L 423.362486 605.84488 
L 436.204833 589.191278 
L 449.047181 572.035414 
L 461.889528 554.373361 
L 474.731876 536.221085 
L 487.574223 517.62324 
L 500.416571 498.662835 
L 513.258918 479.469579 
L 526.101266 460.223212 
L 538.943613 441.147628 
L 551.785961 422.493394 
L 564.628308 404.510904 
L 577.470656 387.421405 
L 590.313003 371.394771 
L 603.155351 356.539454 
L 615.997699 342.904388 
L 628.840046 330.488679 
L 641.682394 319.254258 
L 654.524741 309.138158 
L 667.367089 300.06264 
L 680.209436 291.943 
L 693.051784 284.693092 
L 705.894131 278.229052 
L 718.736479 272.471624 
L 731.578826 267.347459 
L 744.421174 262.789689 
L 757.263521 258.738013 
L 770.105869 255.138473 
L 782.948216 251.943038 
L 795.790564 249.109107 
L 808.632911 246.598975 
L 821.475259 244.379298 
L 834.317606 242.420602 
L 847.159954 240.696813 
L 860.002301 239.184848 
L 872.844649 237.864246 
L 885.686997 236.716836 
L 898.529344 235.726459 
L 911.371692 234.878713 
L 924.214039 234.160738 
L 937.056387 233.56103 
L 949.898734 233.069275 
L 962.741082 232.676205 
L 975.583429 232.373481 
L 988.425777 232.153581 
L 1001.268124 232.009708 
L 1014.110472 231.935708 
L 1026.952819 231.925999 
L 1039.795167 231.97551 
L 1052.637514 232.079627 
L 1065.479862 232.234141 
L 1078.322209 232.435212 
L 1091.164557 232.679325 
L 1104.006904 232.963263 
L 1116.849252 233.284076 
L 1129.6916 233.639054 
L 1142.533947 234.025705 
L 1155.376295 234.441734 
L 1168.218642 234.885028 
L 1181.06099 235.353635 
L 1193.903337 235.84575 
L 1206.745685 236.359707 
L 1219.588032 236.893962 
L 1232.43038 237.447083 
L 1245.272727 238.017743 
" clip-path="url(#p3a68f903a6)" style="fill: none; stroke: #000000; stroke-width: 1.5; stroke-linecap: square"/>
   </g>
   <g id="line2d_29">
    <path d="M 230.727273 798.746251 
L 243.56962 786.432529 
L 256.411968 773.979392 
L 269.254315 761.369046 
L 282.096663 748.582693 
L 294.93901 735.600393 
L 307.781358 722.400938 
L 320.623705 708.961722 
L 333.466053 695.258636 
L 346.3084 681.26599 
L 359.150748 666.956498 
L 371.993096 652.301369 
L 384.835443 637.270559 
L 397.677791 621.833292 
L 410.520138 605.958982 
L 423.362486 589.618765 
L 436.204833 572.787907 
L 449.047181 555.449443 
L 461.889528 537.599402 
L 474.731876 519.25392 
L 487.574223 500.458125 
L 500.416571 481.295914 
L 513.258918 461.898372 
L 526.101266 442.447154 
L 538.943613 423.168535 
L 551.785961 404.315753 
L 564.628308 386.141864 
L 577.470656 368.870471 
L 590.313003 352.673256 
L 603.155351 337.659824 
L 615.997699 323.879631 
L 628.840046 311.331774 
L 641.682394 299.977778 
L 654.524741 289.754007 
L 667.367089 280.581892 
L 680.209436 272.375829 
L 693.051784 265.048756 
L 705.894131 258.515915 
L 718.736479 252.697208 
L 731.578826 247.518503 
L 744.421174 242.912221 
L 757.263521 238.817421 
L 770.105869 235.179568 
L 782.948216 231.950122 
L 795.790564 229.086029 
L 808.632911 226.549179 
L 821.475259 224.305877 
L 834.317606 222.326333 
L 847.159954 220.584197 
L 860.002301 219.056139 
L 872.844649 217.721481 
L 885.686997 216.561859 
L 898.529344 215.560941 
L 911.371692 214.704171 
L 924.214039 213.978555 
L 937.056387 213.372464 
L 949.898734 212.875474 
L 962.741082 212.478221 
L 975.583429 212.172275 
L 988.425777 211.950034 
L 1001.268124 211.80463 
L 1014.110472 211.729842 
L 1026.952819 211.720029 
L 1039.795167 211.770068 
L 1052.637514 211.875292 
L 1065.479862 212.031451 
L 1078.322209 212.234662 
L 1091.164557 212.481374 
L 1104.006904 212.768334 
L 1116.849252 213.092562 
L 1129.6916 213.451318 
L 1142.533947 213.842085 
L 1155.376295 214.262541 
L 1168.218642 214.710554 
L 1181.06099 215.184148 
L 1193.903337 215.681501 
L 1206.745685 216.200929 
L 1219.588032 216.74087 
L 1232.43038 217.299878 
L 1245.272727 217.876612 
" clip-path="url(#p3a68f903a6)" style="fill: none; stroke: #000000; stroke-width: 1.5; stroke-linecap: square"/>
   </g>
   <g id="line2d_30">
    <path d="M 230.727273 784.88764 
L 243.56962 772.445762 
L 256.411968 759.863018 
L 269.254315 747.12143 
L 282.096663 734.202001 
L 294.93901 721.084587 
L 307.781358 707.747758 
L 320.623705 694.168672 
L 333.466053 680.322971 
L 346.3084 666.184695 
L 359.150748 651.726276 
L 371.993096 636.918623 
L 384.835443 621.731378 
L 397.677791 606.133447 
L 410.520138 590.093924 
L 423.362486 573.583645 
L 436.204833 556.577619 
L 449.047181 539.058704 
L 461.889528 521.022887 
L 474.731876 502.486473 
L 487.574223 483.49506 
L 500.416571 464.133417 
L 513.258918 444.533994 
L 526.101266 424.880336 
L 538.943613 405.401074 
L 551.785961 386.35208 
L 564.628308 367.989045 
L 577.470656 350.537899 
L 590.313003 334.172109 
L 603.155351 319.002424 
L 615.997699 305.078813 
L 628.840046 292.400364 
L 641.682394 280.9282 
L 654.524741 270.598024 
L 667.367089 261.33045 
L 680.209436 253.038982 
L 693.051784 245.635652 
L 705.894131 239.03482 
L 718.736479 233.155554 
L 731.578826 227.922951 
L 744.421174 223.268729 
L 757.263521 219.131313 
L 770.105869 215.455599 
L 782.948216 212.192542 
L 795.790564 209.29864 
L 808.632911 206.735388 
L 821.475259 204.468739 
L 834.317606 202.468592 
L 847.159954 200.708325 
L 860.002301 199.164364 
L 872.844649 197.815815 
L 885.686997 196.644124 
L 898.529344 195.632789 
L 911.371692 194.767103 
L 924.214039 194.033934 
L 937.056387 193.421535 
L 949.898734 192.919373 
L 962.741082 192.517985 
L 975.583429 192.208855 
L 988.425777 191.984302 
L 1001.268124 191.837384 
L 1014.110472 191.761817 
L 1026.952819 191.751903 
L 1039.795167 191.802462 
L 1052.637514 191.908782 
L 1065.479862 192.066566 
L 1078.322209 192.271892 
L 1091.164557 192.521171 
L 1104.006904 192.811118 
L 1116.849252 193.13872 
L 1129.6916 193.50121 
L 1142.533947 193.896044 
L 1155.376295 194.320876 
L 1168.218642 194.773552 
L 1181.06099 195.252075 
L 1193.903337 195.754604 
L 1206.745685 196.279438 
L 1219.588032 196.824998 
L 1232.43038 197.389824 
L 1245.272727 197.97256 
" clip-path="url(#p3a68f903a6)" style="fill: none; stroke: #000000; stroke-width: 1.5; stroke-linecap: square"/>
   </g>
   <g id="line2d_31">
    <path d="M 252.920455 749.378847 
L 265.481876 736.835354 
L 278.043297 724.125491 
L 290.604718 711.230558 
L 303.166139 698.130708 
L 315.72756 684.804827 
L 328.288982 671.23043 
L 340.850403 657.383575 
L 353.411824 643.238829 
L 365.973245 628.769298 
L 378.534666 613.946787 
L 391.096087 598.74215 
L 403.657509 583.125933 
L 416.21893 567.069468 
L 428.780351 550.546618 
L 441.341772 533.536439 
L 453.903193 516.027093 
L 466.464614 498.02131 
L 479.026036 479.543563 
L 491.587457 460.648642 
L 504.148878 441.43049 
L 516.710299 422.028867 
L 529.27172 402.630289 
L 541.833142 383.459693 
L 554.394563 364.761629 
L 566.955984 346.77419 
L 579.517405 329.702874 
L 592.078826 313.701945 
L 604.640247 298.867191 
L 617.201669 285.23909 
L 629.76309 272.812367 
L 642.324511 261.547789 
L 654.885932 251.383394 
L 667.447353 242.243709 
L 680.008774 234.046875 
L 692.570196 226.709709 
L 705.131617 220.151151 
L 717.693038 214.294434 
L 730.254459 209.068321 
L 742.81588 204.407678 
L 755.377301 200.253578 
L 767.938723 196.553124 
L 780.500144 193.25908 
L 793.061565 190.329421 
L 805.622986 187.72684 
L 818.184407 185.418254 
L 830.745829 183.37434 
L 843.30725 181.569095 
L 855.868671 179.979441 
L 868.430092 178.584877 
L 880.991513 177.367161 
L 893.552934 176.310035 
L 906.114356 175.398985 
L 918.675777 174.621028 
L 931.237198 173.96453 
L 943.798619 173.419045 
L 956.36004 172.975175 
L 968.921461 172.62445 
L 981.482883 172.359218 
L 994.044304 172.17256 
L 1006.605725 172.058201 
L 1019.167146 172.010444 
L 1031.728567 172.024109 
L 1044.289988 172.094475 
L 1056.85141 172.217233 
L 1069.412831 172.388447 
L 1081.974252 172.604513 
L 1094.535673 172.862126 
L 1107.097094 173.158254 
L 1119.658516 173.490109 
L 1132.219937 173.855125 
L 1144.781358 174.25094 
L 1157.342779 174.675369 
L 1169.9042 175.126402 
L 1182.465621 175.602174 
L 1195.027043 176.100961 
L 1207.588464 176.621166 
L 1220.149885 177.161305 
L 1232.711306 177.720005 
L 1245.272727 178.295987 
" clip-path="url(#p3a68f903a6)" style="fill: none; stroke: #000000; stroke-width: 1.5; stroke-linecap: square"/>
   </g>
   <g id="line2d_32">
    <path d="M 376.568182 601.199074 
L 387.564442 587.832684 
L 398.560702 574.154132 
L 409.556962 560.143677 
L 420.553222 545.782582 
L 431.549482 531.05425 
L 442.545742 515.94584 
L 453.542002 500.450503 
L 464.538262 484.570355 
L 475.534522 468.320235 
L 486.530783 451.732135 
L 497.527043 434.859892 
L 508.523303 417.7833 
L 519.519563 400.610334 
L 530.515823 383.475924 
L 541.512083 366.53606 
L 552.508343 349.957137 
L 563.504603 333.902146 
L 574.500863 318.516722 
L 585.497123 303.918253 
L 596.493383 290.190057 
L 607.489643 277.380815 
L 618.485903 265.507988 
L 629.482163 254.563423 
L 640.478423 244.519556 
L 651.474684 235.33527 
L 662.470944 226.96074 
L 673.467204 219.341394 
L 684.463464 212.420854 
L 695.459724 206.143078 
L 706.455984 200.453837 
L 717.452244 195.301683 
L 728.448504 190.638514 
L 739.444764 186.419855 
L 750.441024 182.604922 
L 761.437284 179.156554 
L 772.433544 176.041045 
L 783.429804 173.227924 
L 794.426064 170.689708 
L 805.422325 168.401642 
L 816.418585 166.341447 
L 827.414845 164.489074 
L 838.411105 162.826481 
L 849.407365 161.337417 
L 860.403625 160.007239 
L 871.399885 158.822733 
L 882.396145 157.771965 
L 893.392405 156.844142 
L 904.388665 156.02949 
L 915.384925 155.319141 
L 926.381185 154.705045 
L 937.377445 154.179875 
L 948.373705 153.73696 
L 959.369965 153.370212 
L 970.366226 153.074067 
L 981.362486 152.843438 
L 992.358746 152.673661 
L 1003.355006 152.560456 
L 1014.351266 152.499892 
L 1025.347526 152.488352 
L 1036.343786 152.522503 
L 1047.340046 152.599273 
L 1058.336306 152.715822 
L 1069.332566 152.869526 
L 1080.328826 153.057957 
L 1091.325086 153.278861 
L 1102.321346 153.530152 
L 1113.317606 153.80989 
L 1124.313867 154.116273 
L 1135.310127 154.447624 
L 1146.306387 154.80238 
L 1157.302647 155.179084 
L 1168.298907 155.576381 
L 1179.295167 155.993002 
L 1190.291427 156.42776 
L 1201.287687 156.879548 
L 1212.283947 157.347328 
L 1223.280207 157.830129 
L 1234.276467 158.32704 
L 1245.272727 158.837207 
" clip-path="url(#p3a68f903a6)" style="fill: none; stroke: #000000; stroke-width: 1.5; stroke-linecap: square"/>
   </g>
   <g id="line2d_33">
    <path d="M 512.897727 394.167309 
L 522.168297 379.543529 
L 531.438867 364.972907 
L 540.709436 350.551608 
L 549.980006 336.380636 
L 559.250575 322.559805 
L 568.521145 309.181568 
L 577.791715 296.325729 
L 587.062284 284.055845 
L 596.332854 272.417615 
L 605.603423 261.439124 
L 614.873993 251.132439 
L 624.144563 241.496014 
L 633.415132 232.51737 
L 642.685702 224.175716 
L 651.956272 216.444341 
L 661.226841 209.292545 
L 670.497411 202.687309 
L 679.76798 196.594568 
L 689.03855 190.980182 
L 698.30912 185.81067 
L 707.579689 181.053717 
L 716.850259 176.678529 
L 726.120829 172.656048 
L 735.391398 168.959062 
L 744.661968 165.562249 
L 753.932537 162.442156 
L 763.203107 159.577147 
L 772.473677 156.94731 
L 781.744246 154.534371 
L 791.014816 152.321574 
L 800.285386 150.29358 
L 809.555955 148.436347 
L 818.826525 146.737033 
L 828.097094 145.183885 
L 837.367664 143.766152 
L 846.638234 142.473989 
L 855.908803 141.298377 
L 865.179373 140.23105 
L 874.449942 139.264425 
L 883.720512 138.391538 
L 892.991082 137.605989 
L 902.261651 136.901891 
L 911.532221 136.273821 
L 920.802791 135.716781 
L 930.07336 135.226156 
L 939.34393 134.797686 
L 948.614499 134.427429 
L 957.885069 134.111736 
L 967.155639 133.847227 
L 976.426208 133.630763 
L 985.696778 133.459432 
L 994.967348 133.330526 
L 1004.237917 133.241526 
L 1013.508487 133.190084 
L 1022.779056 133.174013 
L 1032.049626 133.191272 
L 1041.320196 133.239953 
L 1050.590765 133.318276 
L 1059.861335 133.424573 
L 1069.131904 133.557283 
L 1078.402474 133.714944 
L 1087.673044 133.896182 
L 1096.943613 134.099712 
L 1106.214183 134.324324 
L 1115.484753 134.568881 
L 1124.755322 134.832315 
L 1134.025892 135.11362 
L 1143.296461 135.411847 
L 1152.567031 135.726104 
L 1161.837601 136.055551 
L 1171.10817 136.399392 
L 1180.37874 136.756876 
L 1189.64931 137.127297 
L 1198.919879 137.509983 
L 1208.190449 137.904302 
L 1217.461018 138.309654 
L 1226.731588 138.725473 
L 1236.002158 139.151221 
L 1245.272727 139.586389 
" clip-path="url(#p3a68f903a6)" style="fill: none; stroke: #000000; stroke-width: 1.5; stroke-linecap: square"/>
   </g>
   <g id="line2d_34">
    <path d="M 232.111694 799.659739 
L 238.403877 792.906988 
L 244.720674 786.092529 
L 251.062161 779.213772 
L 257.428413 772.268015 
L 263.819507 765.252436 
L 270.235521 758.164089 
L 276.676533 750.999897 
L 283.142626 743.756639 
L 289.63388 736.430945 
L 296.150378 729.019286 
L 302.692205 721.517966 
L 309.259447 713.923112 
L 315.852191 706.230665 
L 322.470526 698.43637 
L 329.114541 690.535766 
L 335.784329 682.524182 
L 342.479983 674.396723 
L 349.201596 666.14827 
L 355.949267 657.773472 
L 362.723092 649.266748 
L 369.523171 640.622285 
L 376.349605 631.834054 
L 383.202499 622.89582 
L 390.081955 613.80117 
L 396.988081 604.543551 
L 403.920986 595.116322 
L 410.880779 585.512836 
L 417.867573 575.726532 
L 424.881482 565.751079 
L 431.922622 555.580545 
L 438.991111 545.209626 
L 446.08707 534.633931 
L 453.21062 523.850339 
L 460.361878 512.857439 
L 467.540987 501.65601 
L 474.748068 490.249685 
L 481.98325 478.64559 
L 489.246669 466.855075 
L 496.538459 454.894452 
L 503.858758 442.785655 
L 511.207707 430.556756 
L 518.585449 418.242201 
L 525.992128 405.882667 
L 533.427894 393.524433 
L 540.892895 381.218234 
L 548.387286 369.017619 
L 555.911222 356.976943 
L 563.464862 345.149193 
L 571.048367 333.583895 
L 578.661901 322.325325 
L 586.30563 311.411192 
L 593.979725 300.871882 
L 601.684358 290.730232 
L 609.419706 281.001769 
L 617.185946 271.69527 
L 624.98326 262.813541 
L 632.811835 254.354289 
L 640.671857 246.310993 
L 648.563518 238.673797 
L 656.487013 231.430201 
L 664.44254 224.565791 
L 672.430301 218.064803 
L 680.450499 211.910622 
L 688.503345 206.08618 
L 696.589049 200.574292 
L 704.707828 195.357913 
L 712.8599 190.420348 
L 721.045488 185.745402 
L 729.26482 181.317494 
L 737.518126 177.12173 
L 745.80564 173.143954 
L 754.127601 169.370772 
L 762.484251 165.789556 
L 770.875837 162.388439 
L 779.30261 159.156298 
L 787.764825 156.082724 
L 796.262741 153.157994 
L 804.796621 150.373038 
L 813.366733 147.719401 
" clip-path="url(#p3a68f903a6)" style="fill: none; stroke-dasharray: 5.55,2.4; stroke-dashoffset: 0; stroke: #ff0000; stroke-width: 1.5"/>
   </g>
   <g id="line2d_35">
    <path d="M 232.111694 813.724393 
L 239.920088 805.407078 
L 247.76638 796.994687 
L 255.650714 788.482248 
L 263.573235 779.864522 
L 271.534093 771.13598 
L 279.533438 762.29078 
L 287.571425 753.322748 
L 295.648211 744.225347 
L 303.763957 734.991655 
L 311.918827 725.614336 
L 320.112988 716.085614 
L 328.346611 706.397245 
L 336.619869 696.540494 
L 344.932942 686.506111 
L 353.28601 676.28431 
L 361.679258 665.864767 
L 370.112877 655.236618 
L 378.587058 644.38848 
L 387.102 633.308497 
L 395.657904 621.984424 
L 404.254975 610.403758 
L 412.893425 598.553935 
L 421.573467 586.422629 
L 430.295321 573.998155 
L 439.059211 561.270045 
L 447.865366 548.229817 
L 456.71402 534.871984 
L 465.605404 521.195363 
L 474.539778 507.204623 
L 483.517384 492.912244 
L 492.538475 478.340552 
L 501.603313 463.523825 
L 510.712164 448.510083 
L 519.865299 433.362127 
L 529.062996 418.157314 
L 538.305538 402.985648 
L 547.593216 387.946022 
L 556.926325 373.140869 
L 566.305168 358.669975 
L 575.730054 344.624475 
L 585.201299 331.082012 
L 594.719225 318.103714 
L 604.284163 305.733125 
L 613.896447 293.996822 
L 623.556423 282.906174 
L 633.264441 272.459729 
L 643.02086 262.645762 
L 652.826047 253.444774 
L 662.680376 244.831593 
L 672.584229 236.777283 
L 682.537996 229.250646 
L 692.542076 222.219428 
L 702.596877 215.651255 
L 712.702814 209.514329 
L 722.860311 203.777932 
L 733.069802 198.412769 
L 743.33173 193.391185 
L 753.646547 188.687277 
L 764.014714 184.276935 
L 774.436702 180.137833 
L 784.912992 176.249368 
L 795.444075 172.592589 
L 806.030452 169.150097 
L 816.672635 165.905942 
L 827.371146 162.845519 
L 838.126518 159.955461 
L 848.939294 157.223538 
L 859.81003 154.638554 
L 870.739293 152.190265 
L 881.72766 149.869286 
L 892.775722 147.667017 
L 903.884079 145.575572 
L 915.053347 143.58771 
L 926.284153 141.69678 
L 937.577134 139.896665 
L 948.932944 138.181732 
L 960.352248 136.546791 
L 971.835725 134.987054 
L 983.384066 133.4981 
" clip-path="url(#p3a68f903a6)" style="fill: none; stroke-dasharray: 5.55,2.4; stroke-dashoffset: 0; stroke: #ffa500; stroke-width: 1.5"/>
   </g>
   <g id="line2d_36">
    <path d="M 251.306559 807.586555 
L 260.497949 797.706031 
L 269.741095 787.679903 
L 279.036232 777.499229 
L 288.383604 767.154474 
L 297.783457 756.63545 
L 307.236045 745.931266 
L 316.741628 735.030269 
L 326.300472 723.91999 
L 335.912847 712.587085 
L 345.579034 701.017288 
L 355.299317 689.195371 
L 365.073989 677.105127 
L 374.903349 664.729379 
L 384.787704 652.050041 
L 394.727368 639.048254 
L 404.722665 625.704617 
L 414.773923 611.999589 
L 424.881482 597.914094 
L 435.045689 583.430439 
L 445.2669 568.533634 
L 455.545479 553.21324 
L 465.881792 537.465878 
L 476.276239 521.298408 
L 486.729205 504.731924 
L 497.241093 487.80609 
L 507.812315 470.583409 
L 518.443297 453.152344 
L 529.134471 435.627965 
L 539.886283 418.148791 
L 550.699189 400.86919 
L 561.573659 383.948029 
L 572.510171 367.5357 
L 583.509217 351.762411 
L 594.571303 336.730173 
L 605.696944 322.509475 
L 616.886671 309.140185 
L 628.141027 296.635304 
L 639.460568 284.986069 
L 650.845866 274.167259 
L 662.297505 264.142081 
L 673.816085 254.866209 
L 685.40222 246.291098 
L 697.056539 238.3665 
L 708.779688 231.042323 
L 720.572328 224.269944 
L 732.435135 218.003089 
L 744.368804 212.198365 
L 756.374045 206.815531 
L 768.451588 201.817588 
L 780.602176 197.170735 
L 792.826576 192.844235 
L 805.125569 188.810232 
L 817.499956 185.043541 
L 829.95056 181.521425 
L 842.478219 178.223371 
L 855.083796 175.130878 
L 867.768171 172.227255 
L 880.532247 169.497437 
L 893.376948 166.927818 
L 906.30322 164.506092 
L 919.31203 162.221121 
L 932.40437 160.062807 
L 945.581255 158.021987 
L 958.843723 156.090331 
L 972.192835 154.260258 
L 985.62968 152.524859 
L 999.15537 150.877826 
L 1012.771044 149.313392 
L 1026.477865 147.826281 
L 1040.277026 146.411655 
L 1054.169746 145.065074 
L 1068.157271 143.782457 
L 1082.240877 142.56005 
L 1096.421867 141.394392 
L 1110.701575 140.282294 
L 1125.081365 139.220809 
L 1139.562632 138.207214 
L 1154.1468 137.238989 
L 1168.835327 136.313803 
" clip-path="url(#p3a68f903a6)" style="fill: none; stroke-dasharray: 5.55,2.4; stroke-dashoffset: 0; stroke: #008000; stroke-width: 1.5"/>
   </g>
   <g id="line2d_37">
    <path d="M 511.349315 500.087354 
L 519.118614 487.565732 
L 526.920005 474.998637 
L 534.75366 462.438417 
L 542.619756 449.942457 
L 550.518471 437.571069 
L 558.449989 425.384941 
L 566.414495 413.442442 
L 574.412178 401.79712 
L 582.443232 390.495671 
L 590.507853 379.5766 
L 598.606241 369.069584 
L 606.738599 358.99551 
L 614.905134 349.367012 
L 623.106059 340.189355 
L 631.341587 331.461478 
L 639.611938 323.177102 
L 647.917334 315.325779 
L 656.258003 307.893894 
L 664.634175 300.865461 
L 673.046085 294.222893 
L 681.493972 287.9476 
L 689.978081 282.020489 
L 698.49866 276.422367 
L 707.05596 271.134251 
L 715.65024 266.137612 
L 724.28176 261.41455 
L 732.950787 256.947918 
L 741.657592 252.721404 
L 750.402451 248.719581 
L 759.185645 244.927918 
L 768.007459 241.332788 
L 776.868185 237.921444 
L 785.768118 234.681995 
L 794.70756 231.603368 
L 803.686817 228.675265 
L 812.706201 225.888123 
L 821.76603 223.233062 
L 830.866626 220.70185 
L 840.008319 218.286847 
L 849.191442 215.980969 
L 858.416335 213.777646 
L 867.683346 211.670783 
L 876.992825 209.654722 
L 886.345132 207.724212 
L 895.74063 205.874374 
L 905.17969 204.100672 
L 914.66269 202.398889 
L 924.190012 200.765099 
L 933.762048 199.195646 
L 943.379193 197.68712 
L 953.041851 196.236345 
L 962.750434 194.840351 
L 972.505357 193.496368 
L 982.307047 192.201803 
L 992.155934 190.954233 
L 1002.052457 189.751386 
L 1011.997064 188.591136 
L 1021.990207 187.471487 
L 1032.032348 186.390569 
L 1042.123956 185.346622 
L 1052.26551 184.337996 
L 1062.457492 183.363137 
L 1072.700397 182.420585 
L 1082.994726 181.508961 
L 1093.340988 180.626969 
L 1103.739701 179.773388 
L 1114.191391 178.947065 
L 1124.696593 178.14691 
L 1135.255852 177.371897 
L 1145.869719 176.621054 
L 1156.538756 175.893461 
L 1167.263534 175.188254 
L 1178.044632 174.50461 
L 1188.88264 173.84175 
L 1199.778156 173.198938 
L 1210.731789 172.575476 
L 1221.744155 171.970704 
L 1232.815883 171.383993 
L 1243.94761 170.814749 
" clip-path="url(#p3a68f903a6)" style="fill: none; stroke-dasharray: 5.55,2.4; stroke-dashoffset: 0; stroke: #4682b4; stroke-width: 1.5"/>
   </g>
   <g id="patch_3">
    <path d="M 180 833.04 
L 180 112.32 
" style="fill: none; stroke: #000000; stroke-width: 0.8; stroke-linejoin: miter; stroke-linecap: square"/>
   </g>
   <g id="patch_4">
    <path d="M 1296 833.04 
L 1296 112.32 
" style="fill: none; stroke: #000000; stroke-width: 0.8; stroke-linejoin: miter; stroke-linecap: square"/>
   </g>
   <g id="patch_5">
    <path d="M 180 833.04 
L 1296 833.04 
" style="fill: none; stroke: #000000; stroke-width: 0.8; stroke-linejoin: miter; stroke-linecap: square"/>
   </g>
   <g id="patch_6">
    <path d="M 180 112.32 
L 1296 112.32 
" style="fill: none; stroke: #000000; stroke-width: 0.8; stroke-linejoin: miter; stroke-linecap: square"/>
   </g>
   <g id="text_16">
    <!-- 190 -->
    <g transform="translate(1246.857955 267.99552) scale(0.12 -0.12)">
     <defs>
      <path id="DejaVuSans-31" d="M 794 531 
L 1825 531 
L 1825 4091 
L 703 3866 
L 703 4441 
L 1819 4666 
L 2450 4666 
L 2450 531 
L 3481 531 
L 3481 0 
L 794 0 
L 794 531 
z
" transform="scale(0.015625)"/>
      <path id="DejaVuSans-39" d="M 703 97 
L 703 672 
Q 941 559 1184 500 
Q 1428 441 1663 441 
Q 2288 441 2617 861 
Q 2947 1281 2994 2138 
Q 2813 1869 2534 1725 
Q 2256 1581 1919 1581 
Q 1219 1581 811 2004 
Q 403 2428 403 3163 
Q 403 3881 828 4315 
Q 1253 4750 1959 4750 
Q 2769 4750 3195 4129 
Q 3622 3509 3622 2328 
Q 3622 1225 3098 567 
Q 2575 -91 1691 -91 
Q 1453 -91 1209 -44 
Q 966 3 703 97 
z
M 1959 2075 
Q 2384 2075 2632 2365 
Q 2881 2656 2881 3163 
Q 2881 3666 2632 3958 
Q 2384 4250 1959 4250 
Q 1534 4250 1286 3958 
Q 1038 3666 1038 3163 
Q 1038 2656 1286 2365 
Q 1534 2075 1959 2075 
z
" transform="scale(0.015625)"/>
     </defs>
     <use xlink:href="#DejaVuSans-31"/>
     <use xlink:href="#DejaVuSans-39" x="63.623047"/>
     <use xlink:href="#DejaVuSans-30" x="127.246094"/>
    </g>
   </g>
   <g id="text_17">
    <!-- 195 -->
    <g transform="translate(1246.857955 246.950496) scale(0.12 -0.12)">
     <use xlink:href="#DejaVuSans-31"/>
     <use xlink:href="#DejaVuSans-39" x="63.623047"/>
     <use xlink:href="#DejaVuSans-35" x="127.246094"/>
    </g>
   </g>
   <g id="text_18">
    <!-- 200 -->
    <g transform="translate(1246.857955 226.19376) scale(0.12 -0.12)">
     <defs>
      <path id="DejaVuSans-32" d="M 1228 531 
L 3431 531 
L 3431 0 
L 469 0 
L 469 531 
Q 828 903 1448 1529 
Q 2069 2156 2228 2338 
Q 2531 2678 2651 2914 
Q 2772 3150 2772 3378 
Q 2772 3750 2511 3984 
Q 2250 4219 1831 4219 
Q 1534 4219 1204 4116 
Q 875 4013 500 3803 
L 500 4441 
Q 881 4594 1212 4672 
Q 1544 4750 1819 4750 
Q 2544 4750 2975 4387 
Q 3406 4025 3406 3419 
Q 3406 3131 3298 2873 
Q 3191 2616 2906 2266 
Q 2828 2175 2409 1742 
Q 1991 1309 1228 531 
z
" transform="scale(0.015625)"/>
     </defs>
     <use xlink:href="#DejaVuSans-32"/>
     <use xlink:href="#DejaVuSans-30" x="63.623047"/>
     <use xlink:href="#DejaVuSans-30" x="127.246094"/>
    </g>
   </g>
   <g id="text_19">
    <!-- 205 -->
    <g transform="translate(1246.857955 204.57216) scale(0.12 -0.12)">
     <use xlink:href="#DejaVuSans-32"/>
     <use xlink:href="#DejaVuSans-30" x="63.623047"/>
     <use xlink:href="#DejaVuSans-35" x="127.246094"/>
    </g>
   </g>
   <g id="text_20">
    <!-- 210 -->
    <g transform="translate(1246.857955 184.392) scale(0.12 -0.12)">
     <use xlink:href="#DejaVuSans-32"/>
     <use xlink:href="#DejaVuSans-31" x="63.623047"/>
     <use xlink:href="#DejaVuSans-30" x="127.246094"/>
    </g>
   </g>
   <g id="text_21">
    <!-- 215 -->
    <g transform="translate(1246.857955 164.788416) scale(0.12 -0.12)">
     <use xlink:href="#DejaVuSans-32"/>
     <use xlink:href="#DejaVuSans-31" x="63.623047"/>
     <use xlink:href="#DejaVuSans-35" x="127.246094"/>
    </g>
   </g>
   <g id="text_22">
    <!-- 220 -->
    <g transform="translate(1246.857955 144.03168) scale(0.12 -0.12)">
     <use xlink:href="#DejaVuSans-32"/>
     <use xlink:href="#DejaVuSans-32" x="63.623047"/>
     <use xlink:href="#DejaVuSans-30" x="127.246094"/>
    </g>
   </g>
   <g id="legend_1">
    <g id="patch_7">
     <path d="M 300.15625 823.04 
L 1175.84375 823.04 
Q 1179.84375 823.04 1179.84375 819.04 
L 1179.84375 790.84 
Q 1179.84375 786.84 1175.84375 786.84 
L 300.15625 786.84 
Q 296.15625 786.84 296.15625 790.84 
L 296.15625 819.04 
Q 296.15625 823.04 300.15625 823.04 
z
" style="fill: #ffffff; opacity: 0.8; stroke: #cccccc; stroke-linejoin: miter"/>
    </g>
    <g id="line2d_38">
     <path d="M 304.15625 803.04 
L 324.15625 803.04 
L 344.15625 803.04 
" style="fill: none; stroke: #000000; stroke-width: 1.5; stroke-linecap: square"/>
    </g>
    <g id="text_23">
     <!-- $T_{se,aus}$ [°C]          $ΔT_{GK,ob}$: -->
     <g transform="translate(360.15625 810.04) scale(0.2 -0.2)">
      <defs>
       <path id="DejaVuSans-Oblique-54" d="M 378 4666 
L 4325 4666 
L 4225 4134 
L 2559 4134 
L 1759 0 
L 1125 0 
L 1925 4134 
L 275 4134 
L 378 4666 
z
" transform="scale(0.015625)"/>
       <path id="DejaVuSans-Oblique-73" d="M 3200 3397 
L 3091 2853 
Q 2863 2978 2609 3040 
Q 2356 3103 2088 3103 
Q 1634 3103 1373 2948 
Q 1113 2794 1113 2528 
Q 1113 2219 1719 2053 
Q 1766 2041 1788 2034 
L 1972 1978 
Q 2547 1819 2739 1644 
Q 2931 1469 2931 1166 
Q 2931 609 2489 259 
Q 2047 -91 1331 -91 
Q 1053 -91 747 -37 
Q 441 16 72 128 
L 184 722 
Q 500 559 806 475 
Q 1113 391 1394 391 
Q 1816 391 2080 572 
Q 2344 753 2344 1031 
Q 2344 1331 1650 1516 
L 1591 1531 
L 1394 1581 
Q 956 1697 753 1886 
Q 550 2075 550 2369 
Q 550 2928 970 3256 
Q 1391 3584 2113 3584 
Q 2397 3584 2667 3537 
Q 2938 3491 3200 3397 
z
" transform="scale(0.015625)"/>
       <path id="DejaVuSans-Oblique-65" d="M 3078 2063 
Q 3088 2113 3092 2166 
Q 3097 2219 3097 2272 
Q 3097 2653 2873 2875 
Q 2650 3097 2266 3097 
Q 1838 3097 1509 2826 
Q 1181 2556 1013 2059 
L 3078 2063 
z
M 3578 1613 
L 903 1613 
Q 884 1494 878 1425 
Q 872 1356 872 1306 
Q 872 872 1139 634 
Q 1406 397 1894 397 
Q 2269 397 2603 481 
Q 2938 566 3225 728 
L 3116 159 
Q 2806 34 2476 -28 
Q 2147 -91 1806 -91 
Q 1078 -91 686 257 
Q 294 606 294 1247 
Q 294 1794 489 2264 
Q 684 2734 1063 3103 
Q 1306 3334 1642 3459 
Q 1978 3584 2356 3584 
Q 2950 3584 3301 3228 
Q 3653 2872 3653 2272 
Q 3653 2128 3634 1964 
Q 3616 1800 3578 1613 
z
" transform="scale(0.015625)"/>
       <path id="DejaVuSans-2c" d="M 750 794 
L 1409 794 
L 1409 256 
L 897 -744 
L 494 -744 
L 750 256 
L 750 794 
z
" transform="scale(0.015625)"/>
       <path id="DejaVuSans-Oblique-61" d="M 3438 1997 
L 3047 0 
L 2472 0 
L 2578 531 
Q 2325 219 2001 64 
Q 1678 -91 1281 -91 
Q 834 -91 548 182 
Q 263 456 263 884 
Q 263 1497 752 1853 
Q 1241 2209 2100 2209 
L 2900 2209 
L 2931 2363 
Q 2938 2388 2941 2417 
Q 2944 2447 2944 2509 
Q 2944 2788 2717 2942 
Q 2491 3097 2081 3097 
Q 1800 3097 1504 3025 
Q 1209 2953 897 2809 
L 997 3341 
Q 1322 3463 1633 3523 
Q 1944 3584 2234 3584 
Q 2853 3584 3176 3315 
Q 3500 3047 3500 2534 
Q 3500 2431 3484 2292 
Q 3469 2153 3438 1997 
z
M 2816 1759 
L 2241 1759 
Q 1534 1759 1195 1570 
Q 856 1381 856 984 
Q 856 709 1029 553 
Q 1203 397 1509 397 
Q 1978 397 2328 733 
Q 2678 1069 2791 1631 
L 2816 1759 
z
" transform="scale(0.015625)"/>
       <path id="DejaVuSans-Oblique-75" d="M 428 1388 
L 838 3500 
L 1416 3500 
L 1006 1409 
Q 975 1256 961 1147 
Q 947 1038 947 966 
Q 947 700 1109 554 
Q 1272 409 1569 409 
Q 2031 409 2368 721 
Q 2706 1034 2809 1563 
L 3194 3500 
L 3769 3500 
L 3091 0 
L 2516 0 
L 2631 550 
Q 2388 244 2052 76 
Q 1716 -91 1338 -91 
Q 878 -91 622 161 
Q 366 413 366 863 
Q 366 956 381 1097 
Q 397 1238 428 1388 
z
" transform="scale(0.015625)"/>
       <path id="DejaVuSans-5b" d="M 550 4863 
L 1875 4863 
L 1875 4416 
L 1125 4416 
L 1125 -397 
L 1875 -397 
L 1875 -844 
L 550 -844 
L 550 4863 
z
" transform="scale(0.015625)"/>
       <path id="DejaVuSans-b0" d="M 1600 4347 
Q 1350 4347 1178 4173 
Q 1006 4000 1006 3750 
Q 1006 3503 1178 3333 
Q 1350 3163 1600 3163 
Q 1850 3163 2022 3333 
Q 2194 3503 2194 3750 
Q 2194 3997 2020 4172 
Q 1847 4347 1600 4347 
z
M 1600 4750 
Q 1800 4750 1984 4673 
Q 2169 4597 2303 4453 
Q 2447 4313 2519 4134 
Q 2591 3956 2591 3750 
Q 2591 3338 2302 3052 
Q 2013 2766 1594 2766 
Q 1172 2766 890 3047 
Q 609 3328 609 3750 
Q 609 4169 896 4459 
Q 1184 4750 1600 4750 
z
" transform="scale(0.015625)"/>
       <path id="DejaVuSans-43" d="M 4122 4306 
L 4122 3641 
Q 3803 3938 3442 4084 
Q 3081 4231 2675 4231 
Q 1875 4231 1450 3742 
Q 1025 3253 1025 2328 
Q 1025 1406 1450 917 
Q 1875 428 2675 428 
Q 3081 428 3442 575 
Q 3803 722 4122 1019 
L 4122 359 
Q 3791 134 3420 21 
Q 3050 -91 2638 -91 
Q 1578 -91 968 557 
Q 359 1206 359 2328 
Q 359 3453 968 4101 
Q 1578 4750 2638 4750 
Q 3056 4750 3426 4639 
Q 3797 4528 4122 4306 
z
" transform="scale(0.015625)"/>
       <path id="DejaVuSans-5d" d="M 1947 4863 
L 1947 -844 
L 622 -844 
L 622 -397 
L 1369 -397 
L 1369 4416 
L 622 4416 
L 622 4863 
L 1947 4863 
z
" transform="scale(0.015625)"/>
       <path id="DejaVuSans-394" d="M 2188 4044 
L 906 525 
L 3472 525 
L 2188 4044 
z
M 50 0 
L 1831 4666 
L 2547 4666 
L 4325 0 
L 50 0 
z
" transform="scale(0.015625)"/>
       <path id="DejaVuSans-Oblique-47" d="M 3494 697 
L 3738 1919 
L 2700 1919 
L 2797 2438 
L 4453 2438 
L 4050 384 
Q 3634 156 3143 32 
Q 2653 -91 2156 -91 
Q 1278 -91 783 396 
Q 288 884 288 1753 
Q 288 2475 589 3126 
Q 891 3778 1422 4213 
Q 1756 4484 2153 4617 
Q 2550 4750 3034 4750 
Q 3472 4750 3873 4639 
Q 4275 4528 4641 4306 
L 4513 3634 
Q 4231 3928 3853 4083 
Q 3475 4238 3047 4238 
Q 2550 4238 2172 4048 
Q 1794 3859 1497 3463 
Q 1244 3125 1098 2667 
Q 953 2209 953 1734 
Q 953 1081 1287 751 
Q 1622 422 2284 422 
Q 2616 422 2925 492 
Q 3234 563 3494 697 
z
" transform="scale(0.015625)"/>
       <path id="DejaVuSans-Oblique-4b" d="M 1081 4666 
L 1716 4666 
L 1331 2700 
L 3781 4666 
L 4622 4666 
L 1850 2438 
L 3878 0 
L 3109 0 
L 1247 2272 
L 806 0 
L 172 0 
L 1081 4666 
z
" transform="scale(0.015625)"/>
       <path id="DejaVuSans-Oblique-6f" d="M 1625 -91 
Q 1009 -91 651 289 
Q 294 669 294 1325 
Q 294 1706 417 2101 
Q 541 2497 738 2766 
Q 1047 3184 1428 3384 
Q 1809 3584 2291 3584 
Q 2888 3584 3255 3212 
Q 3622 2841 3622 2241 
Q 3622 1825 3500 1412 
Q 3378 1000 3181 728 
Q 2875 309 2494 109 
Q 2113 -91 1625 -91 
z
M 891 1344 
Q 891 869 1089 633 
Q 1288 397 1691 397 
Q 2269 397 2648 901 
Q 3028 1406 3028 2181 
Q 3028 2634 2825 2865 
Q 2622 3097 2228 3097 
Q 1903 3097 1650 2945 
Q 1397 2794 1197 2484 
Q 1050 2253 970 1956 
Q 891 1659 891 1344 
z
" transform="scale(0.015625)"/>
       <path id="DejaVuSans-Oblique-62" d="M 3169 2138 
Q 3169 2591 2961 2847 
Q 2753 3103 2388 3103 
Q 2122 3103 1889 2973 
Q 1656 2844 1484 2597 
Q 1303 2338 1198 1995 
Q 1094 1653 1094 1313 
Q 1094 881 1298 636 
Q 1503 391 1863 391 
Q 2134 391 2365 517 
Q 2597 644 2772 891 
Q 2950 1147 3059 1487 
Q 3169 1828 3169 2138 
z
M 1381 2969 
Q 1594 3256 1914 3420 
Q 2234 3584 2584 3584 
Q 3122 3584 3439 3221 
Q 3756 2859 3756 2241 
Q 3756 1734 3570 1259 
Q 3384 784 3041 416 
Q 2816 172 2522 40 
Q 2228 -91 1906 -91 
Q 1566 -91 1316 65 
Q 1066 222 909 531 
L 806 0 
L 231 0 
L 1178 4863 
L 1753 4863 
L 1381 2969 
z
" transform="scale(0.015625)"/>
       <path id="DejaVuSans-3a" d="M 750 794 
L 1409 794 
L 1409 0 
L 750 0 
L 750 794 
z
M 750 3309 
L 1409 3309 
L 1409 2516 
L 750 2516 
L 750 3309 
z
" transform="scale(0.015625)"/>
      </defs>
      <use xlink:href="#DejaVuSans-Oblique-54" transform="translate(0 0.015625)"/>
      <use xlink:href="#DejaVuSans-Oblique-73" transform="translate(61.083984 -16.390625) scale(0.7)"/>
      <use xlink:href="#DejaVuSans-Oblique-65" transform="translate(97.553711 -16.390625) scale(0.7)"/>
      <use xlink:href="#DejaVuSans-2c" transform="translate(140.620117 -16.390625) scale(0.7)"/>
      <use xlink:href="#DejaVuSans-Oblique-61" transform="translate(176.508789 -16.390625) scale(0.7)"/>
      <use xlink:href="#DejaVuSans-Oblique-75" transform="translate(219.404297 -16.390625) scale(0.7)"/>
      <use xlink:href="#DejaVuSans-Oblique-73" transform="translate(263.769531 -16.390625) scale(0.7)"/>
      <use xlink:href="#DejaVuSans-20" transform="translate(302.973633 0.015625)"/>
      <use xlink:href="#DejaVuSans-5b" transform="translate(334.760742 0.015625)"/>
      <use xlink:href="#DejaVuSans-b0" transform="translate(373.774414 0.015625)"/>
      <use xlink:href="#DejaVuSans-43" transform="translate(423.774414 0.015625)"/>
      <use xlink:href="#DejaVuSans-5d" transform="translate(493.598633 0.015625)"/>
      <use xlink:href="#DejaVuSans-20" transform="translate(532.612305 0.015625)"/>
      <use xlink:href="#DejaVuSans-20" transform="translate(564.399414 0.015625)"/>
      <use xlink:href="#DejaVuSans-20" transform="translate(596.186523 0.015625)"/>
      <use xlink:href="#DejaVuSans-20" transform="translate(627.973633 0.015625)"/>
      <use xlink:href="#DejaVuSans-20" transform="translate(659.760742 0.015625)"/>
      <use xlink:href="#DejaVuSans-20" transform="translate(691.547852 0.015625)"/>
      <use xlink:href="#DejaVuSans-20" transform="translate(723.334961 0.015625)"/>
      <use xlink:href="#DejaVuSans-20" transform="translate(755.12207 0.015625)"/>
      <use xlink:href="#DejaVuSans-20" transform="translate(786.90918 0.015625)"/>
      <use xlink:href="#DejaVuSans-20" transform="translate(818.696289 0.015625)"/>
      <use xlink:href="#DejaVuSans-394" transform="translate(850.483398 0.015625)"/>
      <use xlink:href="#DejaVuSans-Oblique-54" transform="translate(918.891602 0.015625)"/>
      <use xlink:href="#DejaVuSans-Oblique-47" transform="translate(979.975586 -16.390625) scale(0.7)"/>
      <use xlink:href="#DejaVuSans-Oblique-4b" transform="translate(1034.21875 -16.390625) scale(0.7)"/>
      <use xlink:href="#DejaVuSans-2c" transform="translate(1080.12207 -16.390625) scale(0.7)"/>
      <use xlink:href="#DejaVuSans-Oblique-6f" transform="translate(1116.010742 -16.390625) scale(0.7)"/>
      <use xlink:href="#DejaVuSans-Oblique-62" transform="translate(1158.837891 -16.390625) scale(0.7)"/>
      <use xlink:href="#DejaVuSans-3a" transform="translate(1206.005859 0.015625)"/>
     </g>
    </g>
    <g id="line2d_39">
     <path d="M 648.15625 803.04 
L 668.15625 803.04 
L 688.15625 803.04 
" style="fill: none; stroke-dasharray: 5.55,2.4; stroke-dashoffset: 0; stroke: #ff0000; stroke-width: 1.5"/>
    </g>
    <g id="text_24">
     <!-- 10 K -->
     <g transform="translate(704.15625 810.04) scale(0.2 -0.2)">
      <defs>
       <path id="DejaVuSans-4b" d="M 628 4666 
L 1259 4666 
L 1259 2694 
L 3353 4666 
L 4166 4666 
L 1850 2491 
L 4331 0 
L 3500 0 
L 1259 2247 
L 1259 0 
L 628 0 
L 628 4666 
z
" transform="scale(0.015625)"/>
      </defs>
      <use xlink:href="#DejaVuSans-31"/>
      <use xlink:href="#DejaVuSans-30" x="63.623047"/>
      <use xlink:href="#DejaVuSans-20" x="127.246094"/>
      <use xlink:href="#DejaVuSans-4b" x="159.033203"/>
     </g>
    </g>
    <g id="line2d_40">
     <path d="M 789.078125 803.04 
L 809.078125 803.04 
L 829.078125 803.04 
" style="fill: none; stroke-dasharray: 5.55,2.4; stroke-dashoffset: 0; stroke: #ffa500; stroke-width: 1.5"/>
    </g>
    <g id="text_25">
     <!-- 15 K -->
     <g transform="translate(845.078125 810.04) scale(0.2 -0.2)">
      <use xlink:href="#DejaVuSans-31"/>
      <use xlink:href="#DejaVuSans-35" x="63.623047"/>
      <use xlink:href="#DejaVuSans-20" x="127.246094"/>
      <use xlink:href="#DejaVuSans-4b" x="159.033203"/>
     </g>
    </g>
    <g id="line2d_41">
     <path d="M 930 803.04 
L 950 803.04 
L 970 803.04 
" style="fill: none; stroke-dasharray: 5.55,2.4; stroke-dashoffset: 0; stroke: #008000; stroke-width: 1.5"/>
    </g>
    <g id="text_26">
     <!-- 20 K -->
     <g transform="translate(986 810.04) scale(0.2 -0.2)">
      <use xlink:href="#DejaVuSans-32"/>
      <use xlink:href="#DejaVuSans-30" x="63.623047"/>
      <use xlink:href="#DejaVuSans-20" x="127.246094"/>
      <use xlink:href="#DejaVuSans-4b" x="159.033203"/>
     </g>
    </g>
    <g id="line2d_42">
     <path d="M 1070.921875 803.04 
L 1090.921875 803.04 
L 1110.921875 803.04 
" style="fill: none; stroke-dasharray: 5.55,2.4; stroke-dashoffset: 0; stroke: #4682b4; stroke-width: 1.5"/>
    </g>
    <g id="text_27">
     <!-- 30 K -->
     <g transform="translate(1126.921875 810.04) scale(0.2 -0.2)">
      <defs>
       <path id="DejaVuSans-33" d="M 2597 2516 
Q 3050 2419 3304 2112 
Q 3559 1806 3559 1356 
Q 3559 666 3084 287 
Q 2609 -91 1734 -91 
Q 1441 -91 1130 -33 
Q 819 25 488 141 
L 488 750 
Q 750 597 1062 519 
Q 1375 441 1716 441 
Q 2309 441 2620 675 
Q 2931 909 2931 1356 
Q 2931 1769 2642 2001 
Q 2353 2234 1838 2234 
L 1294 2234 
L 1294 2753 
L 1863 2753 
Q 2328 2753 2575 2939 
Q 2822 3125 2822 3475 
Q 2822 3834 2567 4026 
Q 2313 4219 1838 4219 
Q 1578 4219 1281 4162 
Q 984 4106 628 3988 
L 628 4550 
Q 988 4650 1302 4700 
Q 1616 4750 1894 4750 
Q 2613 4750 3031 4423 
Q 3450 4097 3450 3541 
Q 3450 3153 3228 2886 
Q 3006 2619 2597 2516 
z
" transform="scale(0.015625)"/>
      </defs>
      <use xlink:href="#DejaVuSans-33"/>
      <use xlink:href="#DejaVuSans-30" x="63.623047"/>
      <use xlink:href="#DejaVuSans-20" x="127.246094"/>
      <use xlink:href="#DejaVuSans-4b" x="159.033203"/>
     </g>
    </g>
   </g>
  </g>
 </g>
 <defs>
  <clipPath id="p3a68f903a6">
   <rect x="180" y="112.32" width="1116" height="720.72"/>
  </clipPath>
 </defs>
</svg>
