<?xml version="1.0" encoding="utf-8" standalone="no"?>
<!DOCTYPE svg PUBLIC "-//W3C//DTD SVG 1.1//EN"
  "http://www.w3.org/Graphics/SVG/1.1/DTD/svg11.dtd">
<svg xmlns:xlink="http://www.w3.org/1999/xlink" width="1440pt" height="864pt" viewBox="0 0 1440 864" xmlns="http://www.w3.org/2000/svg" version="1.1">
 <metadata>
  <rdf:RDF xmlns:dc="http://purl.org/dc/elements/1.1/" xmlns:cc="http://creativecommons.org/ns#" xmlns:rdf="http://www.w3.org/1999/02/22-rdf-syntax-ns#">
   <cc:Work>
    <dc:type rdf:resource="http://purl.org/dc/dcmitype/StillImage"/>
    <dc:date>2023-08-16T15:30:52.983369</dc:date>
    <dc:format>image/svg+xml</dc:format>
    <dc:creator>
     <cc:Agent>
      <dc:title>Matplotlib v3.6.1, https://matplotlib.org/</dc:title>
     </cc:Agent>
    </dc:creator>
   </cc:Work>
  </rdf:RDF>
 </metadata>
 <defs>
  <style type="text/css">*{stroke-linejoin: round; stroke-linecap: butt}</style>
 </defs>
 <g id="figure_1">
  <g id="patch_1">
   <path d="M 0 864 
L 1440 864 
L 1440 0 
L 0 0 
z
" style="fill: #ffffff"/>
  </g>
  <g id="axes_1">
   <g id="patch_2">
    <path d="M 180 768.96 
L 1296 768.96 
L 1296 103.68 
L 180 103.68 
z
" style="fill: #ffffff"/>
   </g>
   <g id="matplotlib.axis_1">
    <g id="xtick_1">
     <g id="line2d_1">
      <path d="M 180 768.96 
L 180 103.68 
" clip-path="url(#p6464985bed)" style="fill: none; stroke: #b0b0b0; stroke-width: 0.8; stroke-linecap: square"/>
     </g>
     <g id="line2d_2">
      <defs>
       <path id="mb43c69e2ca" d="M 0 0 
L 0 3.5 
" style="stroke: #000000; stroke-width: 0.8"/>
      </defs>
      <g>
       <use xlink:href="#mb43c69e2ca" x="180" y="768.96" style="stroke: #000000; stroke-width: 0.8"/>
      </g>
     </g>
     <g id="text_1">
      <!-- 24 -->
      <g transform="translate(167.275 791.156875) scale(0.2 -0.2)">
       <defs>
        <path id="DejaVuSans-32" d="M 1228 531 
L 3431 531 
L 3431 0 
L 469 0 
L 469 531 
Q 828 903 1448 1529 
Q 2069 2156 2228 2338 
Q 2531 2678 2651 2914 
Q 2772 3150 2772 3378 
Q 2772 3750 2511 3984 
Q 2250 4219 1831 4219 
Q 1534 4219 1204 4116 
Q 875 4013 500 3803 
L 500 4441 
Q 881 4594 1212 4672 
Q 1544 4750 1819 4750 
Q 2544 4750 2975 4387 
Q 3406 4025 3406 3419 
Q 3406 3131 3298 2873 
Q 3191 2616 2906 2266 
Q 2828 2175 2409 1742 
Q 1991 1309 1228 531 
z
" transform="scale(0.015625)"/>
        <path id="DejaVuSans-34" d="M 2419 4116 
L 825 1625 
L 2419 1625 
L 2419 4116 
z
M 2253 4666 
L 3047 4666 
L 3047 1625 
L 3713 1625 
L 3713 1100 
L 3047 1100 
L 3047 0 
L 2419 0 
L 2419 1100 
L 313 1100 
L 313 1709 
L 2253 4666 
z
" transform="scale(0.015625)"/>
       </defs>
       <use xlink:href="#DejaVuSans-32"/>
       <use xlink:href="#DejaVuSans-34" x="63.623047"/>
      </g>
     </g>
    </g>
    <g id="xtick_2">
     <g id="line2d_3">
      <path d="M 311.294118 768.96 
L 311.294118 103.68 
" clip-path="url(#p6464985bed)" style="fill: none; stroke: #b0b0b0; stroke-width: 0.8; stroke-linecap: square"/>
     </g>
     <g id="line2d_4">
      <g>
       <use xlink:href="#mb43c69e2ca" x="311.294118" y="768.96" style="stroke: #000000; stroke-width: 0.8"/>
      </g>
     </g>
     <g id="text_2">
      <!-- 26 -->
      <g transform="translate(298.569118 791.156875) scale(0.2 -0.2)">
       <defs>
        <path id="DejaVuSans-36" d="M 2113 2584 
Q 1688 2584 1439 2293 
Q 1191 2003 1191 1497 
Q 1191 994 1439 701 
Q 1688 409 2113 409 
Q 2538 409 2786 701 
Q 3034 994 3034 1497 
Q 3034 2003 2786 2293 
Q 2538 2584 2113 2584 
z
M 3366 4563 
L 3366 3988 
Q 3128 4100 2886 4159 
Q 2644 4219 2406 4219 
Q 1781 4219 1451 3797 
Q 1122 3375 1075 2522 
Q 1259 2794 1537 2939 
Q 1816 3084 2150 3084 
Q 2853 3084 3261 2657 
Q 3669 2231 3669 1497 
Q 3669 778 3244 343 
Q 2819 -91 2113 -91 
Q 1303 -91 875 529 
Q 447 1150 447 2328 
Q 447 3434 972 4092 
Q 1497 4750 2381 4750 
Q 2619 4750 2861 4703 
Q 3103 4656 3366 4563 
z
" transform="scale(0.015625)"/>
       </defs>
       <use xlink:href="#DejaVuSans-32"/>
       <use xlink:href="#DejaVuSans-36" x="63.623047"/>
      </g>
     </g>
    </g>
    <g id="xtick_3">
     <g id="line2d_5">
      <path d="M 442.588235 768.96 
L 442.588235 103.68 
" clip-path="url(#p6464985bed)" style="fill: none; stroke: #b0b0b0; stroke-width: 0.8; stroke-linecap: square"/>
     </g>
     <g id="line2d_6">
      <g>
       <use xlink:href="#mb43c69e2ca" x="442.588235" y="768.96" style="stroke: #000000; stroke-width: 0.8"/>
      </g>
     </g>
     <g id="text_3">
      <!-- 28 -->
      <g transform="translate(429.863235 791.156875) scale(0.2 -0.2)">
       <defs>
        <path id="DejaVuSans-38" d="M 2034 2216 
Q 1584 2216 1326 1975 
Q 1069 1734 1069 1313 
Q 1069 891 1326 650 
Q 1584 409 2034 409 
Q 2484 409 2743 651 
Q 3003 894 3003 1313 
Q 3003 1734 2745 1975 
Q 2488 2216 2034 2216 
z
M 1403 2484 
Q 997 2584 770 2862 
Q 544 3141 544 3541 
Q 544 4100 942 4425 
Q 1341 4750 2034 4750 
Q 2731 4750 3128 4425 
Q 3525 4100 3525 3541 
Q 3525 3141 3298 2862 
Q 3072 2584 2669 2484 
Q 3125 2378 3379 2068 
Q 3634 1759 3634 1313 
Q 3634 634 3220 271 
Q 2806 -91 2034 -91 
Q 1263 -91 848 271 
Q 434 634 434 1313 
Q 434 1759 690 2068 
Q 947 2378 1403 2484 
z
M 1172 3481 
Q 1172 3119 1398 2916 
Q 1625 2713 2034 2713 
Q 2441 2713 2670 2916 
Q 2900 3119 2900 3481 
Q 2900 3844 2670 4047 
Q 2441 4250 2034 4250 
Q 1625 4250 1398 4047 
Q 1172 3844 1172 3481 
z
" transform="scale(0.015625)"/>
       </defs>
       <use xlink:href="#DejaVuSans-32"/>
       <use xlink:href="#DejaVuSans-38" x="63.623047"/>
      </g>
     </g>
    </g>
    <g id="xtick_4">
     <g id="line2d_7">
      <path d="M 573.882353 768.96 
L 573.882353 103.68 
" clip-path="url(#p6464985bed)" style="fill: none; stroke: #b0b0b0; stroke-width: 0.8; stroke-linecap: square"/>
     </g>
     <g id="line2d_8">
      <g>
       <use xlink:href="#mb43c69e2ca" x="573.882353" y="768.96" style="stroke: #000000; stroke-width: 0.8"/>
      </g>
     </g>
     <g id="text_4">
      <!-- 30 -->
      <g transform="translate(561.157353 791.156875) scale(0.2 -0.2)">
       <defs>
        <path id="DejaVuSans-33" d="M 2597 2516 
Q 3050 2419 3304 2112 
Q 3559 1806 3559 1356 
Q 3559 666 3084 287 
Q 2609 -91 1734 -91 
Q 1441 -91 1130 -33 
Q 819 25 488 141 
L 488 750 
Q 750 597 1062 519 
Q 1375 441 1716 441 
Q 2309 441 2620 675 
Q 2931 909 2931 1356 
Q 2931 1769 2642 2001 
Q 2353 2234 1838 2234 
L 1294 2234 
L 1294 2753 
L 1863 2753 
Q 2328 2753 2575 2939 
Q 2822 3125 2822 3475 
Q 2822 3834 2567 4026 
Q 2313 4219 1838 4219 
Q 1578 4219 1281 4162 
Q 984 4106 628 3988 
L 628 4550 
Q 988 4650 1302 4700 
Q 1616 4750 1894 4750 
Q 2613 4750 3031 4423 
Q 3450 4097 3450 3541 
Q 3450 3153 3228 2886 
Q 3006 2619 2597 2516 
z
" transform="scale(0.015625)"/>
        <path id="DejaVuSans-30" d="M 2034 4250 
Q 1547 4250 1301 3770 
Q 1056 3291 1056 2328 
Q 1056 1369 1301 889 
Q 1547 409 2034 409 
Q 2525 409 2770 889 
Q 3016 1369 3016 2328 
Q 3016 3291 2770 3770 
Q 2525 4250 2034 4250 
z
M 2034 4750 
Q 2819 4750 3233 4129 
Q 3647 3509 3647 2328 
Q 3647 1150 3233 529 
Q 2819 -91 2034 -91 
Q 1250 -91 836 529 
Q 422 1150 422 2328 
Q 422 3509 836 4129 
Q 1250 4750 2034 4750 
z
" transform="scale(0.015625)"/>
       </defs>
       <use xlink:href="#DejaVuSans-33"/>
       <use xlink:href="#DejaVuSans-30" x="63.623047"/>
      </g>
     </g>
    </g>
    <g id="xtick_5">
     <g id="line2d_9">
      <path d="M 705.176471 768.96 
L 705.176471 103.68 
" clip-path="url(#p6464985bed)" style="fill: none; stroke: #b0b0b0; stroke-width: 0.8; stroke-linecap: square"/>
     </g>
     <g id="line2d_10">
      <g>
       <use xlink:href="#mb43c69e2ca" x="705.176471" y="768.96" style="stroke: #000000; stroke-width: 0.8"/>
      </g>
     </g>
     <g id="text_5">
      <!-- 32 -->
      <g transform="translate(692.451471 791.156875) scale(0.2 -0.2)">
       <use xlink:href="#DejaVuSans-33"/>
       <use xlink:href="#DejaVuSans-32" x="63.623047"/>
      </g>
     </g>
    </g>
    <g id="xtick_6">
     <g id="line2d_11">
      <path d="M 836.470588 768.96 
L 836.470588 103.68 
" clip-path="url(#p6464985bed)" style="fill: none; stroke: #b0b0b0; stroke-width: 0.8; stroke-linecap: square"/>
     </g>
     <g id="line2d_12">
      <g>
       <use xlink:href="#mb43c69e2ca" x="836.470588" y="768.96" style="stroke: #000000; stroke-width: 0.8"/>
      </g>
     </g>
     <g id="text_6">
      <!-- 34 -->
      <g transform="translate(823.745588 791.156875) scale(0.2 -0.2)">
       <use xlink:href="#DejaVuSans-33"/>
       <use xlink:href="#DejaVuSans-34" x="63.623047"/>
      </g>
     </g>
    </g>
    <g id="xtick_7">
     <g id="line2d_13">
      <path d="M 967.764706 768.96 
L 967.764706 103.68 
" clip-path="url(#p6464985bed)" style="fill: none; stroke: #b0b0b0; stroke-width: 0.8; stroke-linecap: square"/>
     </g>
     <g id="line2d_14">
      <g>
       <use xlink:href="#mb43c69e2ca" x="967.764706" y="768.96" style="stroke: #000000; stroke-width: 0.8"/>
      </g>
     </g>
     <g id="text_7">
      <!-- 36 -->
      <g transform="translate(955.039706 791.156875) scale(0.2 -0.2)">
       <use xlink:href="#DejaVuSans-33"/>
       <use xlink:href="#DejaVuSans-36" x="63.623047"/>
      </g>
     </g>
    </g>
    <g id="xtick_8">
     <g id="line2d_15">
      <path d="M 1099.058824 768.96 
L 1099.058824 103.68 
" clip-path="url(#p6464985bed)" style="fill: none; stroke: #b0b0b0; stroke-width: 0.8; stroke-linecap: square"/>
     </g>
     <g id="line2d_16">
      <g>
       <use xlink:href="#mb43c69e2ca" x="1099.058824" y="768.96" style="stroke: #000000; stroke-width: 0.8"/>
      </g>
     </g>
     <g id="text_8">
      <!-- 38 -->
      <g transform="translate(1086.333824 791.156875) scale(0.2 -0.2)">
       <use xlink:href="#DejaVuSans-33"/>
       <use xlink:href="#DejaVuSans-38" x="63.623047"/>
      </g>
     </g>
    </g>
    <g id="xtick_9">
     <g id="line2d_17">
      <path d="M 1230.352941 768.96 
L 1230.352941 103.68 
" clip-path="url(#p6464985bed)" style="fill: none; stroke: #b0b0b0; stroke-width: 0.8; stroke-linecap: square"/>
     </g>
     <g id="line2d_18">
      <g>
       <use xlink:href="#mb43c69e2ca" x="1230.352941" y="768.96" style="stroke: #000000; stroke-width: 0.8"/>
      </g>
     </g>
     <g id="text_9">
      <!-- 40 -->
      <g transform="translate(1217.627941 791.156875) scale(0.2 -0.2)">
       <use xlink:href="#DejaVuSans-34"/>
       <use xlink:href="#DejaVuSans-30" x="63.623047"/>
      </g>
     </g>
    </g>
    <g id="text_10">
     <!-- Gaskühlerdruck [bar] -->
     <g transform="translate(632.239063 814.513125) scale(0.2 -0.2)">
      <defs>
       <path id="DejaVuSans-47" d="M 3809 666 
L 3809 1919 
L 2778 1919 
L 2778 2438 
L 4434 2438 
L 4434 434 
Q 4069 175 3628 42 
Q 3188 -91 2688 -91 
Q 1594 -91 976 548 
Q 359 1188 359 2328 
Q 359 3472 976 4111 
Q 1594 4750 2688 4750 
Q 3144 4750 3555 4637 
Q 3966 4525 4313 4306 
L 4313 3634 
Q 3963 3931 3569 4081 
Q 3175 4231 2741 4231 
Q 1884 4231 1454 3753 
Q 1025 3275 1025 2328 
Q 1025 1384 1454 906 
Q 1884 428 2741 428 
Q 3075 428 3337 486 
Q 3600 544 3809 666 
z
" transform="scale(0.015625)"/>
       <path id="DejaVuSans-61" d="M 2194 1759 
Q 1497 1759 1228 1600 
Q 959 1441 959 1056 
Q 959 750 1161 570 
Q 1363 391 1709 391 
Q 2188 391 2477 730 
Q 2766 1069 2766 1631 
L 2766 1759 
L 2194 1759 
z
M 3341 1997 
L 3341 0 
L 2766 0 
L 2766 531 
Q 2569 213 2275 61 
Q 1981 -91 1556 -91 
Q 1019 -91 701 211 
Q 384 513 384 1019 
Q 384 1609 779 1909 
Q 1175 2209 1959 2209 
L 2766 2209 
L 2766 2266 
Q 2766 2663 2505 2880 
Q 2244 3097 1772 3097 
Q 1472 3097 1187 3025 
Q 903 2953 641 2809 
L 641 3341 
Q 956 3463 1253 3523 
Q 1550 3584 1831 3584 
Q 2591 3584 2966 3190 
Q 3341 2797 3341 1997 
z
" transform="scale(0.015625)"/>
       <path id="DejaVuSans-73" d="M 2834 3397 
L 2834 2853 
Q 2591 2978 2328 3040 
Q 2066 3103 1784 3103 
Q 1356 3103 1142 2972 
Q 928 2841 928 2578 
Q 928 2378 1081 2264 
Q 1234 2150 1697 2047 
L 1894 2003 
Q 2506 1872 2764 1633 
Q 3022 1394 3022 966 
Q 3022 478 2636 193 
Q 2250 -91 1575 -91 
Q 1294 -91 989 -36 
Q 684 19 347 128 
L 347 722 
Q 666 556 975 473 
Q 1284 391 1588 391 
Q 1994 391 2212 530 
Q 2431 669 2431 922 
Q 2431 1156 2273 1281 
Q 2116 1406 1581 1522 
L 1381 1569 
Q 847 1681 609 1914 
Q 372 2147 372 2553 
Q 372 3047 722 3315 
Q 1072 3584 1716 3584 
Q 2034 3584 2315 3537 
Q 2597 3491 2834 3397 
z
" transform="scale(0.015625)"/>
       <path id="DejaVuSans-6b" d="M 581 4863 
L 1159 4863 
L 1159 1991 
L 2875 3500 
L 3609 3500 
L 1753 1863 
L 3688 0 
L 2938 0 
L 1159 1709 
L 1159 0 
L 581 0 
L 581 4863 
z
" transform="scale(0.015625)"/>
       <path id="DejaVuSans-fc" d="M 544 1381 
L 544 3500 
L 1119 3500 
L 1119 1403 
Q 1119 906 1312 657 
Q 1506 409 1894 409 
Q 2359 409 2629 706 
Q 2900 1003 2900 1516 
L 2900 3500 
L 3475 3500 
L 3475 0 
L 2900 0 
L 2900 538 
Q 2691 219 2414 64 
Q 2138 -91 1772 -91 
Q 1169 -91 856 284 
Q 544 659 544 1381 
z
M 1991 3584 
L 1991 3584 
z
M 2278 4850 
L 2912 4850 
L 2912 4219 
L 2278 4219 
L 2278 4850 
z
M 1056 4850 
L 1690 4850 
L 1690 4219 
L 1056 4219 
L 1056 4850 
z
" transform="scale(0.015625)"/>
       <path id="DejaVuSans-68" d="M 3513 2113 
L 3513 0 
L 2938 0 
L 2938 2094 
Q 2938 2591 2744 2837 
Q 2550 3084 2163 3084 
Q 1697 3084 1428 2787 
Q 1159 2491 1159 1978 
L 1159 0 
L 581 0 
L 581 4863 
L 1159 4863 
L 1159 2956 
Q 1366 3272 1645 3428 
Q 1925 3584 2291 3584 
Q 2894 3584 3203 3211 
Q 3513 2838 3513 2113 
z
" transform="scale(0.015625)"/>
       <path id="DejaVuSans-6c" d="M 603 4863 
L 1178 4863 
L 1178 0 
L 603 0 
L 603 4863 
z
" transform="scale(0.015625)"/>
       <path id="DejaVuSans-65" d="M 3597 1894 
L 3597 1613 
L 953 1613 
Q 991 1019 1311 708 
Q 1631 397 2203 397 
Q 2534 397 2845 478 
Q 3156 559 3463 722 
L 3463 178 
Q 3153 47 2828 -22 
Q 2503 -91 2169 -91 
Q 1331 -91 842 396 
Q 353 884 353 1716 
Q 353 2575 817 3079 
Q 1281 3584 2069 3584 
Q 2775 3584 3186 3129 
Q 3597 2675 3597 1894 
z
M 3022 2063 
Q 3016 2534 2758 2815 
Q 2500 3097 2075 3097 
Q 1594 3097 1305 2825 
Q 1016 2553 972 2059 
L 3022 2063 
z
" transform="scale(0.015625)"/>
       <path id="DejaVuSans-72" d="M 2631 2963 
Q 2534 3019 2420 3045 
Q 2306 3072 2169 3072 
Q 1681 3072 1420 2755 
Q 1159 2438 1159 1844 
L 1159 0 
L 581 0 
L 581 3500 
L 1159 3500 
L 1159 2956 
Q 1341 3275 1631 3429 
Q 1922 3584 2338 3584 
Q 2397 3584 2469 3576 
Q 2541 3569 2628 3553 
L 2631 2963 
z
" transform="scale(0.015625)"/>
       <path id="DejaVuSans-64" d="M 2906 2969 
L 2906 4863 
L 3481 4863 
L 3481 0 
L 2906 0 
L 2906 525 
Q 2725 213 2448 61 
Q 2172 -91 1784 -91 
Q 1150 -91 751 415 
Q 353 922 353 1747 
Q 353 2572 751 3078 
Q 1150 3584 1784 3584 
Q 2172 3584 2448 3432 
Q 2725 3281 2906 2969 
z
M 947 1747 
Q 947 1113 1208 752 
Q 1469 391 1925 391 
Q 2381 391 2643 752 
Q 2906 1113 2906 1747 
Q 2906 2381 2643 2742 
Q 2381 3103 1925 3103 
Q 1469 3103 1208 2742 
Q 947 2381 947 1747 
z
" transform="scale(0.015625)"/>
       <path id="DejaVuSans-75" d="M 544 1381 
L 544 3500 
L 1119 3500 
L 1119 1403 
Q 1119 906 1312 657 
Q 1506 409 1894 409 
Q 2359 409 2629 706 
Q 2900 1003 2900 1516 
L 2900 3500 
L 3475 3500 
L 3475 0 
L 2900 0 
L 2900 538 
Q 2691 219 2414 64 
Q 2138 -91 1772 -91 
Q 1169 -91 856 284 
Q 544 659 544 1381 
z
M 1991 3584 
L 1991 3584 
z
" transform="scale(0.015625)"/>
       <path id="DejaVuSans-63" d="M 3122 3366 
L 3122 2828 
Q 2878 2963 2633 3030 
Q 2388 3097 2138 3097 
Q 1578 3097 1268 2742 
Q 959 2388 959 1747 
Q 959 1106 1268 751 
Q 1578 397 2138 397 
Q 2388 397 2633 464 
Q 2878 531 3122 666 
L 3122 134 
Q 2881 22 2623 -34 
Q 2366 -91 2075 -91 
Q 1284 -91 818 406 
Q 353 903 353 1747 
Q 353 2603 823 3093 
Q 1294 3584 2113 3584 
Q 2378 3584 2631 3529 
Q 2884 3475 3122 3366 
z
" transform="scale(0.015625)"/>
       <path id="DejaVuSans-20" transform="scale(0.015625)"/>
       <path id="DejaVuSans-5b" d="M 550 4863 
L 1875 4863 
L 1875 4416 
L 1125 4416 
L 1125 -397 
L 1875 -397 
L 1875 -844 
L 550 -844 
L 550 4863 
z
" transform="scale(0.015625)"/>
       <path id="DejaVuSans-62" d="M 3116 1747 
Q 3116 2381 2855 2742 
Q 2594 3103 2138 3103 
Q 1681 3103 1420 2742 
Q 1159 2381 1159 1747 
Q 1159 1113 1420 752 
Q 1681 391 2138 391 
Q 2594 391 2855 752 
Q 3116 1113 3116 1747 
z
M 1159 2969 
Q 1341 3281 1617 3432 
Q 1894 3584 2278 3584 
Q 2916 3584 3314 3078 
Q 3713 2572 3713 1747 
Q 3713 922 3314 415 
Q 2916 -91 2278 -91 
Q 1894 -91 1617 61 
Q 1341 213 1159 525 
L 1159 0 
L 581 0 
L 581 4863 
L 1159 4863 
L 1159 2969 
z
" transform="scale(0.015625)"/>
       <path id="DejaVuSans-5d" d="M 1947 4863 
L 1947 -844 
L 622 -844 
L 622 -397 
L 1369 -397 
L 1369 4416 
L 622 4416 
L 622 4863 
L 1947 4863 
z
" transform="scale(0.015625)"/>
      </defs>
      <use xlink:href="#DejaVuSans-47"/>
      <use xlink:href="#DejaVuSans-61" x="77.490234"/>
      <use xlink:href="#DejaVuSans-73" x="138.769531"/>
      <use xlink:href="#DejaVuSans-6b" x="190.869141"/>
      <use xlink:href="#DejaVuSans-fc" x="245.654297"/>
      <use xlink:href="#DejaVuSans-68" x="309.033203"/>
      <use xlink:href="#DejaVuSans-6c" x="372.412109"/>
      <use xlink:href="#DejaVuSans-65" x="400.195312"/>
      <use xlink:href="#DejaVuSans-72" x="461.71875"/>
      <use xlink:href="#DejaVuSans-64" x="501.082031"/>
      <use xlink:href="#DejaVuSans-72" x="564.558594"/>
      <use xlink:href="#DejaVuSans-75" x="605.671875"/>
      <use xlink:href="#DejaVuSans-63" x="669.050781"/>
      <use xlink:href="#DejaVuSans-6b" x="724.03125"/>
      <use xlink:href="#DejaVuSans-20" x="781.941406"/>
      <use xlink:href="#DejaVuSans-5b" x="813.728516"/>
      <use xlink:href="#DejaVuSans-62" x="852.742188"/>
      <use xlink:href="#DejaVuSans-61" x="916.21875"/>
      <use xlink:href="#DejaVuSans-72" x="977.498047"/>
      <use xlink:href="#DejaVuSans-5d" x="1018.611328"/>
     </g>
    </g>
   </g>
   <g id="matplotlib.axis_2">
    <g id="ytick_1">
     <g id="line2d_19">
      <path d="M 180 722.008793 
L 1296 722.008793 
" clip-path="url(#p6464985bed)" style="fill: none; stroke: #b0b0b0; stroke-width: 0.8; stroke-linecap: square"/>
     </g>
     <g id="line2d_20">
      <defs>
       <path id="me3c1169e49" d="M 0 0 
L -3.5 0 
" style="stroke: #000000; stroke-width: 0.8"/>
      </defs>
      <g>
       <use xlink:href="#me3c1169e49" x="180" y="722.008793" style="stroke: #000000; stroke-width: 0.8"/>
      </g>
     </g>
     <g id="text_11">
      <!-- 69 -->
      <g transform="translate(147.55 729.60723) scale(0.2 -0.2)">
       <defs>
        <path id="DejaVuSans-39" d="M 703 97 
L 703 672 
Q 941 559 1184 500 
Q 1428 441 1663 441 
Q 2288 441 2617 861 
Q 2947 1281 2994 2138 
Q 2813 1869 2534 1725 
Q 2256 1581 1919 1581 
Q 1219 1581 811 2004 
Q 403 2428 403 3163 
Q 403 3881 828 4315 
Q 1253 4750 1959 4750 
Q 2769 4750 3195 4129 
Q 3622 3509 3622 2328 
Q 3622 1225 3098 567 
Q 2575 -91 1691 -91 
Q 1453 -91 1209 -44 
Q 966 3 703 97 
z
M 1959 2075 
Q 2384 2075 2632 2365 
Q 2881 2656 2881 3163 
Q 2881 3666 2632 3958 
Q 2384 4250 1959 4250 
Q 1534 4250 1286 3958 
Q 1038 3666 1038 3163 
Q 1038 2656 1286 2365 
Q 1534 2075 1959 2075 
z
" transform="scale(0.015625)"/>
       </defs>
       <use xlink:href="#DejaVuSans-36"/>
       <use xlink:href="#DejaVuSans-39" x="63.623047"/>
      </g>
     </g>
    </g>
    <g id="ytick_2">
     <g id="line2d_21">
      <path d="M 180 638.874697 
L 1296 638.874697 
" clip-path="url(#p6464985bed)" style="fill: none; stroke: #b0b0b0; stroke-width: 0.8; stroke-linecap: square"/>
     </g>
     <g id="line2d_22">
      <g>
       <use xlink:href="#me3c1169e49" x="180" y="638.874697" style="stroke: #000000; stroke-width: 0.8"/>
      </g>
     </g>
     <g id="text_12">
      <!-- 70 -->
      <g transform="translate(147.55 646.473135) scale(0.2 -0.2)">
       <defs>
        <path id="DejaVuSans-37" d="M 525 4666 
L 3525 4666 
L 3525 4397 
L 1831 0 
L 1172 0 
L 2766 4134 
L 525 4134 
L 525 4666 
z
" transform="scale(0.015625)"/>
       </defs>
       <use xlink:href="#DejaVuSans-37"/>
       <use xlink:href="#DejaVuSans-30" x="63.623047"/>
      </g>
     </g>
    </g>
    <g id="ytick_3">
     <g id="line2d_23">
      <path d="M 180 555.740601 
L 1296 555.740601 
" clip-path="url(#p6464985bed)" style="fill: none; stroke: #b0b0b0; stroke-width: 0.8; stroke-linecap: square"/>
     </g>
     <g id="line2d_24">
      <g>
       <use xlink:href="#me3c1169e49" x="180" y="555.740601" style="stroke: #000000; stroke-width: 0.8"/>
      </g>
     </g>
     <g id="text_13">
      <!-- 71 -->
      <g transform="translate(147.55 563.339039) scale(0.2 -0.2)">
       <defs>
        <path id="DejaVuSans-31" d="M 794 531 
L 1825 531 
L 1825 4091 
L 703 3866 
L 703 4441 
L 1819 4666 
L 2450 4666 
L 2450 531 
L 3481 531 
L 3481 0 
L 794 0 
L 794 531 
z
" transform="scale(0.015625)"/>
       </defs>
       <use xlink:href="#DejaVuSans-37"/>
       <use xlink:href="#DejaVuSans-31" x="63.623047"/>
      </g>
     </g>
    </g>
    <g id="ytick_4">
     <g id="line2d_25">
      <path d="M 180 472.606506 
L 1296 472.606506 
" clip-path="url(#p6464985bed)" style="fill: none; stroke: #b0b0b0; stroke-width: 0.8; stroke-linecap: square"/>
     </g>
     <g id="line2d_26">
      <g>
       <use xlink:href="#me3c1169e49" x="180" y="472.606506" style="stroke: #000000; stroke-width: 0.8"/>
      </g>
     </g>
     <g id="text_14">
      <!-- 72 -->
      <g transform="translate(147.55 480.204943) scale(0.2 -0.2)">
       <use xlink:href="#DejaVuSans-37"/>
       <use xlink:href="#DejaVuSans-32" x="63.623047"/>
      </g>
     </g>
    </g>
    <g id="ytick_5">
     <g id="line2d_27">
      <path d="M 180 389.47241 
L 1296 389.47241 
" clip-path="url(#p6464985bed)" style="fill: none; stroke: #b0b0b0; stroke-width: 0.8; stroke-linecap: square"/>
     </g>
     <g id="line2d_28">
      <g>
       <use xlink:href="#me3c1169e49" x="180" y="389.47241" style="stroke: #000000; stroke-width: 0.8"/>
      </g>
     </g>
     <g id="text_15">
      <!-- 73 -->
      <g transform="translate(147.55 397.070848) scale(0.2 -0.2)">
       <use xlink:href="#DejaVuSans-37"/>
       <use xlink:href="#DejaVuSans-33" x="63.623047"/>
      </g>
     </g>
    </g>
    <g id="ytick_6">
     <g id="line2d_29">
      <path d="M 180 306.338315 
L 1296 306.338315 
" clip-path="url(#p6464985bed)" style="fill: none; stroke: #b0b0b0; stroke-width: 0.8; stroke-linecap: square"/>
     </g>
     <g id="line2d_30">
      <g>
       <use xlink:href="#me3c1169e49" x="180" y="306.338315" style="stroke: #000000; stroke-width: 0.8"/>
      </g>
     </g>
     <g id="text_16">
      <!-- 74 -->
      <g transform="translate(147.55 313.936752) scale(0.2 -0.2)">
       <use xlink:href="#DejaVuSans-37"/>
       <use xlink:href="#DejaVuSans-34" x="63.623047"/>
      </g>
     </g>
    </g>
    <g id="ytick_7">
     <g id="line2d_31">
      <path d="M 180 223.204219 
L 1296 223.204219 
" clip-path="url(#p6464985bed)" style="fill: none; stroke: #b0b0b0; stroke-width: 0.8; stroke-linecap: square"/>
     </g>
     <g id="line2d_32">
      <g>
       <use xlink:href="#me3c1169e49" x="180" y="223.204219" style="stroke: #000000; stroke-width: 0.8"/>
      </g>
     </g>
     <g id="text_17">
      <!-- 75 -->
      <g transform="translate(147.55 230.802657) scale(0.2 -0.2)">
       <defs>
        <path id="DejaVuSans-35" d="M 691 4666 
L 3169 4666 
L 3169 4134 
L 1269 4134 
L 1269 2991 
Q 1406 3038 1543 3061 
Q 1681 3084 1819 3084 
Q 2600 3084 3056 2656 
Q 3513 2228 3513 1497 
Q 3513 744 3044 326 
Q 2575 -91 1722 -91 
Q 1428 -91 1123 -41 
Q 819 9 494 109 
L 494 744 
Q 775 591 1075 516 
Q 1375 441 1709 441 
Q 2250 441 2565 725 
Q 2881 1009 2881 1497 
Q 2881 1984 2565 2268 
Q 2250 2553 1709 2553 
Q 1456 2553 1204 2497 
Q 953 2441 691 2322 
L 691 4666 
z
" transform="scale(0.015625)"/>
       </defs>
       <use xlink:href="#DejaVuSans-37"/>
       <use xlink:href="#DejaVuSans-35" x="63.623047"/>
      </g>
     </g>
    </g>
    <g id="ytick_8">
     <g id="line2d_33">
      <path d="M 180 140.070124 
L 1296 140.070124 
" clip-path="url(#p6464985bed)" style="fill: none; stroke: #b0b0b0; stroke-width: 0.8; stroke-linecap: square"/>
     </g>
     <g id="line2d_34">
      <g>
       <use xlink:href="#me3c1169e49" x="180" y="140.070124" style="stroke: #000000; stroke-width: 0.8"/>
      </g>
     </g>
     <g id="text_18">
      <!-- 76 -->
      <g transform="translate(147.55 147.668561) scale(0.2 -0.2)">
       <use xlink:href="#DejaVuSans-37"/>
       <use xlink:href="#DejaVuSans-36" x="63.623047"/>
      </g>
     </g>
    </g>
    <g id="text_19">
     <!-- exergetischer Wirkungsgrad [%] -->
     <g transform="translate(139.390625 597.362187) rotate(-90) scale(0.2 -0.2)">
      <defs>
       <path id="DejaVuSans-78" d="M 3513 3500 
L 2247 1797 
L 3578 0 
L 2900 0 
L 1881 1375 
L 863 0 
L 184 0 
L 1544 1831 
L 300 3500 
L 978 3500 
L 1906 2253 
L 2834 3500 
L 3513 3500 
z
" transform="scale(0.015625)"/>
       <path id="DejaVuSans-67" d="M 2906 1791 
Q 2906 2416 2648 2759 
Q 2391 3103 1925 3103 
Q 1463 3103 1205 2759 
Q 947 2416 947 1791 
Q 947 1169 1205 825 
Q 1463 481 1925 481 
Q 2391 481 2648 825 
Q 2906 1169 2906 1791 
z
M 3481 434 
Q 3481 -459 3084 -895 
Q 2688 -1331 1869 -1331 
Q 1566 -1331 1297 -1286 
Q 1028 -1241 775 -1147 
L 775 -588 
Q 1028 -725 1275 -790 
Q 1522 -856 1778 -856 
Q 2344 -856 2625 -561 
Q 2906 -266 2906 331 
L 2906 616 
Q 2728 306 2450 153 
Q 2172 0 1784 0 
Q 1141 0 747 490 
Q 353 981 353 1791 
Q 353 2603 747 3093 
Q 1141 3584 1784 3584 
Q 2172 3584 2450 3431 
Q 2728 3278 2906 2969 
L 2906 3500 
L 3481 3500 
L 3481 434 
z
" transform="scale(0.015625)"/>
       <path id="DejaVuSans-74" d="M 1172 4494 
L 1172 3500 
L 2356 3500 
L 2356 3053 
L 1172 3053 
L 1172 1153 
Q 1172 725 1289 603 
Q 1406 481 1766 481 
L 2356 481 
L 2356 0 
L 1766 0 
Q 1100 0 847 248 
Q 594 497 594 1153 
L 594 3053 
L 172 3053 
L 172 3500 
L 594 3500 
L 594 4494 
L 1172 4494 
z
" transform="scale(0.015625)"/>
       <path id="DejaVuSans-69" d="M 603 3500 
L 1178 3500 
L 1178 0 
L 603 0 
L 603 3500 
z
M 603 4863 
L 1178 4863 
L 1178 4134 
L 603 4134 
L 603 4863 
z
" transform="scale(0.015625)"/>
       <path id="DejaVuSans-57" d="M 213 4666 
L 850 4666 
L 1831 722 
L 2809 4666 
L 3519 4666 
L 4500 722 
L 5478 4666 
L 6119 4666 
L 4947 0 
L 4153 0 
L 3169 4050 
L 2175 0 
L 1381 0 
L 213 4666 
z
" transform="scale(0.015625)"/>
       <path id="DejaVuSans-6e" d="M 3513 2113 
L 3513 0 
L 2938 0 
L 2938 2094 
Q 2938 2591 2744 2837 
Q 2550 3084 2163 3084 
Q 1697 3084 1428 2787 
Q 1159 2491 1159 1978 
L 1159 0 
L 581 0 
L 581 3500 
L 1159 3500 
L 1159 2956 
Q 1366 3272 1645 3428 
Q 1925 3584 2291 3584 
Q 2894 3584 3203 3211 
Q 3513 2838 3513 2113 
z
" transform="scale(0.015625)"/>
       <path id="DejaVuSans-25" d="M 4653 2053 
Q 4381 2053 4226 1822 
Q 4072 1591 4072 1178 
Q 4072 772 4226 539 
Q 4381 306 4653 306 
Q 4919 306 5073 539 
Q 5228 772 5228 1178 
Q 5228 1588 5073 1820 
Q 4919 2053 4653 2053 
z
M 4653 2450 
Q 5147 2450 5437 2106 
Q 5728 1763 5728 1178 
Q 5728 594 5436 251 
Q 5144 -91 4653 -91 
Q 4153 -91 3862 251 
Q 3572 594 3572 1178 
Q 3572 1766 3864 2108 
Q 4156 2450 4653 2450 
z
M 1428 4353 
Q 1159 4353 1004 4120 
Q 850 3888 850 3481 
Q 850 3069 1003 2837 
Q 1156 2606 1428 2606 
Q 1700 2606 1854 2837 
Q 2009 3069 2009 3481 
Q 2009 3884 1853 4118 
Q 1697 4353 1428 4353 
z
M 4250 4750 
L 4750 4750 
L 1831 -91 
L 1331 -91 
L 4250 4750 
z
M 1428 4750 
Q 1922 4750 2215 4408 
Q 2509 4066 2509 3481 
Q 2509 2891 2217 2550 
Q 1925 2209 1428 2209 
Q 931 2209 642 2551 
Q 353 2894 353 3481 
Q 353 4063 643 4406 
Q 934 4750 1428 4750 
z
" transform="scale(0.015625)"/>
      </defs>
      <use xlink:href="#DejaVuSans-65"/>
      <use xlink:href="#DejaVuSans-78" x="59.773438"/>
      <use xlink:href="#DejaVuSans-65" x="115.828125"/>
      <use xlink:href="#DejaVuSans-72" x="177.351562"/>
      <use xlink:href="#DejaVuSans-67" x="216.714844"/>
      <use xlink:href="#DejaVuSans-65" x="280.191406"/>
      <use xlink:href="#DejaVuSans-74" x="341.714844"/>
      <use xlink:href="#DejaVuSans-69" x="380.923828"/>
      <use xlink:href="#DejaVuSans-73" x="408.707031"/>
      <use xlink:href="#DejaVuSans-63" x="460.806641"/>
      <use xlink:href="#DejaVuSans-68" x="515.787109"/>
      <use xlink:href="#DejaVuSans-65" x="579.166016"/>
      <use xlink:href="#DejaVuSans-72" x="640.689453"/>
      <use xlink:href="#DejaVuSans-20" x="681.802734"/>
      <use xlink:href="#DejaVuSans-57" x="713.589844"/>
      <use xlink:href="#DejaVuSans-69" x="810.216797"/>
      <use xlink:href="#DejaVuSans-72" x="838"/>
      <use xlink:href="#DejaVuSans-6b" x="879.113281"/>
      <use xlink:href="#DejaVuSans-75" x="933.898438"/>
      <use xlink:href="#DejaVuSans-6e" x="997.277344"/>
      <use xlink:href="#DejaVuSans-67" x="1060.65625"/>
      <use xlink:href="#DejaVuSans-73" x="1124.132812"/>
      <use xlink:href="#DejaVuSans-67" x="1176.232422"/>
      <use xlink:href="#DejaVuSans-72" x="1239.708984"/>
      <use xlink:href="#DejaVuSans-61" x="1280.822266"/>
      <use xlink:href="#DejaVuSans-64" x="1342.101562"/>
      <use xlink:href="#DejaVuSans-20" x="1405.578125"/>
      <use xlink:href="#DejaVuSans-5b" x="1437.365234"/>
      <use xlink:href="#DejaVuSans-25" x="1476.378906"/>
      <use xlink:href="#DejaVuSans-5d" x="1571.398438"/>
     </g>
    </g>
   </g>
   <g id="line2d_35">
    <path d="M 221.357647 324.327381 
L 234.129739 332.767512 
L 246.901832 341.076963 
L 259.673924 349.258751 
L 272.446016 357.315803 
L 285.218109 365.250955 
L 297.990201 373.066954 
L 310.762293 380.766483 
L 323.534386 388.352097 
L 336.306478 395.82632 
L 349.07857 403.191585 
L 361.850663 410.450257 
L 374.622755 417.604657 
L 387.394847 424.656962 
L 400.16694 431.609345 
L 412.939032 438.463939 
L 425.711124 445.222774 
L 438.483217 451.887838 
L 451.255309 458.46106 
L 464.027401 464.944321 
L 476.799494 471.339446 
L 489.571586 477.648213 
L 502.343678 483.872353 
L 515.115771 490.013548 
L 527.887863 496.073438 
L 540.659955 502.053619 
L 553.432048 507.955643 
L 566.20414 513.781025 
L 578.976232 519.531245 
L 591.748325 525.207733 
L 604.520417 530.811893 
L 617.292509 536.3451 
L 630.064602 541.808666 
L 642.836694 547.20388 
L 655.608786 552.532052 
L 668.380879 557.794389 
L 681.152971 562.992099 
L 693.925063 568.126364 
L 706.697156 573.198336 
L 719.469248 578.209131 
L 732.24134 583.159845 
L 745.013433 588.051552 
L 757.785525 592.885297 
L 770.557617 597.662105 
L 783.32971 602.382949 
L 796.101802 607.048839 
L 808.873894 611.660711 
L 821.645987 616.219365 
L 834.418079 620.725927 
L 847.190171 625.181197 
L 859.962264 629.586046 
L 872.734356 633.941326 
L 885.506448 638.247871 
L 898.278541 642.506495 
L 911.050633 646.717998 
L 923.822725 650.88316 
L 936.594818 655.002745 
L 949.36691 659.077504 
L 962.139002 663.108168 
L 974.911095 667.095456 
L 987.683187 671.040071 
L 1000.455279 674.942703 
L 1013.227372 678.804026 
L 1025.999464 682.624702 
L 1038.771556 686.405379 
L 1051.543649 690.146694 
L 1064.315741 693.849268 
L 1077.087833 697.513713 
L 1089.859926 701.140628 
L 1102.632018 704.730601 
L 1115.40411 708.284206 
L 1128.176203 711.80201 
L 1140.948295 715.284568 
L 1153.720387 718.732422 
L 1166.49248 722.146107 
L 1179.264572 725.526147 
L 1192.036664 728.873056 
L 1204.808757 732.187339 
L 1217.580849 735.469491 
L 1230.352941 738.72 
" clip-path="url(#p6464985bed)" style="fill: none; stroke: #000000; stroke-width: 1.5; stroke-linecap: square"/>
   </g>
   <g id="line2d_36">
    <path d="M 221.357647 236.161703 
L 234.129739 245.150873 
L 246.901832 253.996877 
L 259.673924 262.703076 
L 272.446016 271.272727 
L 285.218109 279.708981 
L 297.990201 288.014892 
L 310.762293 296.193426 
L 323.534386 304.24745 
L 336.306478 312.179745 
L 349.07857 319.993021 
L 361.850663 327.689868 
L 374.622755 335.272844 
L 387.394847 342.744434 
L 400.16694 350.107007 
L 412.939032 357.362898 
L 425.711124 364.514365 
L 438.483217 371.563621 
L 451.255309 378.512771 
L 464.027401 385.363898 
L 476.799494 392.119022 
L 489.571586 398.780104 
L 502.343678 405.349077 
L 515.115771 411.827752 
L 527.887863 418.217958 
L 540.659955 424.521453 
L 553.432048 430.739951 
L 566.20414 436.87512 
L 578.976232 442.928585 
L 591.748325 448.901913 
L 604.520417 454.796678 
L 617.292509 460.614367 
L 630.064602 466.356453 
L 642.836694 472.024359 
L 655.608786 477.619482 
L 668.380879 483.143184 
L 681.152971 488.596791 
L 693.925063 493.981612 
L 706.697156 499.298876 
L 719.469248 504.549838 
L 732.24134 509.735727 
L 745.013433 514.857682 
L 757.785525 519.916878 
L 770.557617 524.91444 
L 783.32971 529.851467 
L 796.101802 534.72903 
L 808.873894 539.548203 
L 821.645987 544.309909 
L 834.418079 549.015259 
L 847.190171 553.6652 
L 859.962264 558.260693 
L 872.734356 562.802678 
L 885.506448 567.292075 
L 898.278541 571.729782 
L 911.050633 576.116682 
L 923.822725 580.453636 
L 936.594818 584.741489 
L 949.36691 588.981068 
L 962.139002 593.173184 
L 974.911095 597.31863 
L 987.683187 601.418184 
L 1000.455279 605.472609 
L 1013.227372 609.48265 
L 1025.999464 613.449041 
L 1038.771556 617.3725 
L 1051.543649 621.253729 
L 1064.315741 625.093421 
L 1077.087833 628.892251 
L 1089.859926 632.650885 
L 1102.632018 636.369973 
L 1115.40411 640.050155 
L 1128.176203 643.692057 
L 1140.948295 647.296297 
L 1153.720387 650.863478 
L 1166.49248 654.394194 
L 1179.264572 657.889026 
L 1192.036664 661.348546 
L 1204.808757 664.773317 
L 1217.580849 668.163889 
L 1230.352941 671.520804 
" clip-path="url(#p6464985bed)" style="fill: none; stroke: #000000; stroke-width: 1.5; stroke-linecap: square"/>
   </g>
   <g id="line2d_37">
    <path d="M 221.357647 176.753462 
L 234.129739 185.83874 
L 246.901832 194.77746 
L 259.673924 203.573057 
L 272.446016 212.228807 
L 285.218109 220.747902 
L 297.990201 229.133434 
L 310.762293 237.388402 
L 323.534386 245.515715 
L 336.306478 253.518194 
L 349.07857 261.398578 
L 361.850663 269.159523 
L 374.622755 276.803612 
L 387.394847 284.33335 
L 400.16694 291.751171 
L 412.939032 299.059442 
L 425.711124 306.260461 
L 438.483217 313.356465 
L 451.255309 320.349627 
L 464.027401 327.242062 
L 476.799494 334.035828 
L 489.571586 340.732926 
L 502.343678 347.335306 
L 515.115771 353.844866 
L 527.887863 360.263455 
L 540.659955 366.59287 
L 553.432048 372.834872 
L 566.20414 378.991176 
L 578.976232 385.063421 
L 591.748325 391.05325 
L 604.520417 396.962268 
L 617.292509 402.791995 
L 630.064602 408.543976 
L 642.836694 414.219641 
L 655.608786 419.82043 
L 668.380879 425.347771 
L 681.152971 430.803023 
L 693.925063 436.187532 
L 706.697156 441.502595 
L 719.469248 446.749497 
L 732.24134 451.929488 
L 745.013433 457.043789 
L 757.785525 462.093594 
L 770.557617 467.080066 
L 783.32971 472.004363 
L 796.101802 476.867584 
L 808.873894 481.670843 
L 821.645987 486.415226 
L 834.418079 491.101742 
L 847.190171 495.731437 
L 859.962264 500.305315 
L 872.734356 504.824362 
L 885.506448 509.289542 
L 898.278541 513.701803 
L 911.050633 518.06207 
L 923.822725 522.371252 
L 936.594818 526.63024 
L 949.36691 530.839906 
L 962.139002 535.001108 
L 974.911095 539.114684 
L 987.683187 543.181458 
L 1000.455279 547.202239 
L 1013.227372 551.177819 
L 1025.999464 555.108976 
L 1038.771556 558.996474 
L 1051.543649 562.841061 
L 1064.315741 566.643473 
L 1077.087833 570.404433 
L 1089.859926 574.124648 
L 1102.632018 577.804815 
L 1115.40411 581.445618 
L 1128.176203 585.047726 
L 1140.948295 588.6118 
L 1153.720387 592.138487 
L 1166.49248 595.628422 
L 1179.264572 599.082229 
L 1192.036664 602.500524 
L 1204.808757 605.883907 
L 1217.580849 609.232971 
L 1230.352941 612.548298 
" clip-path="url(#p6464985bed)" style="fill: none; stroke: #000000; stroke-width: 1.5; stroke-linecap: square"/>
   </g>
   <g id="line2d_38">
    <path d="M 221.357647 133.92 
L 234.129739 142.858139 
L 246.901832 151.64873 
L 259.673924 160.29515 
L 272.446016 168.800669 
L 285.218109 177.168464 
L 297.990201 185.401612 
L 310.762293 193.503099 
L 323.534386 201.475822 
L 336.306478 209.322597 
L 349.07857 217.046155 
L 361.850663 224.649151 
L 374.622755 232.134163 
L 387.394847 239.503701 
L 400.16694 246.7602 
L 412.939032 253.906031 
L 425.711124 260.943505 
L 438.483217 267.874864 
L 451.255309 274.702295 
L 464.027401 281.427925 
L 476.799494 288.053827 
L 489.571586 294.582021 
L 502.343678 301.014476 
L 515.115771 307.353111 
L 527.887863 313.599799 
L 540.659955 319.756365 
L 553.432048 325.824591 
L 566.20414 331.806215 
L 578.976232 337.702937 
L 591.748325 343.516413 
L 604.520417 349.248263 
L 617.292509 354.900071 
L 630.064602 360.473383 
L 642.836694 365.969711 
L 655.608786 371.390532 
L 668.380879 376.737296 
L 681.152971 382.011398 
L 693.925063 387.214257 
L 706.697156 392.347229 
L 719.469248 397.411609 
L 732.24134 402.408701 
L 745.013433 407.33982 
L 757.785525 412.206179 
L 770.557617 417.009022 
L 783.32971 421.74951 
L 796.101802 426.428821 
L 808.873894 431.048175 
L 821.645987 435.60861 
L 834.418079 440.111294 
L 847.190171 444.557296 
L 859.962264 448.947682 
L 872.734356 453.283498 
L 885.506448 457.565771 
L 898.278541 461.795507 
L 911.050633 465.973695 
L 923.822725 470.101306 
L 936.594818 474.179292 
L 949.36691 478.208588 
L 962.139002 482.190112 
L 974.911095 486.124765 
L 987.683187 490.013432 
L 1000.455279 493.856982 
L 1013.227372 497.656267 
L 1025.999464 501.412124 
L 1038.771556 505.125376 
L 1051.543649 508.79683 
L 1064.315741 512.427277 
L 1077.087833 516.017495 
L 1089.859926 519.568248 
L 1102.632018 523.080285 
L 1115.40411 526.554342 
L 1128.176203 529.991139 
L 1140.948295 533.391387 
L 1153.720387 536.755779 
L 1166.49248 540.084999 
L 1179.264572 543.379714 
L 1192.036664 546.640583 
L 1204.808757 549.868248 
L 1217.580849 553.063343 
L 1230.352941 556.226487 
" clip-path="url(#p6464985bed)" style="fill: none; stroke: #000000; stroke-width: 1.5; stroke-linecap: square"/>
   </g>
   <g id="line2d_39">
    <path d="M 436.023529 227.844895 
L 446.078332 232.955827 
L 456.133135 238.002819 
L 466.187937 242.986916 
L 476.24274 247.909146 
L 486.297543 252.770519 
L 496.352345 257.572025 
L 506.407148 262.31464 
L 516.461951 266.999321 
L 526.516754 271.62701 
L 536.571556 276.198633 
L 546.626359 280.715099 
L 556.681162 285.177322 
L 566.735964 289.586149 
L 576.790767 293.942466 
L 586.84557 298.247126 
L 596.900372 302.500971 
L 606.955175 306.704829 
L 617.009978 310.859516 
L 627.06478 314.965832 
L 637.119583 319.024572 
L 647.174386 323.036515 
L 657.229188 327.002442 
L 667.283991 330.923083 
L 677.338794 334.799201 
L 687.393596 338.631531 
L 697.448399 342.420801 
L 707.503202 346.167724 
L 717.558004 349.873005 
L 727.612807 353.537341 
L 737.66761 357.161416 
L 747.722413 360.745908 
L 757.777215 364.291478 
L 767.832018 367.798788 
L 777.886821 371.268455 
L 787.941623 374.701169 
L 797.996426 378.097516 
L 808.051229 381.458164 
L 818.106031 384.783666 
L 828.160834 388.074651 
L 838.215637 391.331708 
L 848.270439 394.555424 
L 858.325242 397.746371 
L 868.380045 400.905118 
L 878.434847 404.03222 
L 888.48965 407.128229 
L 898.544453 410.193683 
L 908.599255 413.229115 
L 918.654058 416.235048 
L 928.708861 419.211998 
L 938.763663 422.16047 
L 948.818466 425.080965 
L 958.873269 427.973971 
L 968.928071 430.83997 
L 978.982874 433.679438 
L 989.037677 436.492838 
L 999.09248 439.28063 
L 1009.147282 442.043263 
L 1019.202085 444.781179 
L 1029.256888 447.494812 
L 1039.31169 450.184589 
L 1049.366493 452.850929 
L 1059.421296 455.494244 
L 1069.476098 458.114937 
L 1079.530901 460.713406 
L 1089.585704 463.290039 
L 1099.640506 465.845219 
L 1109.695309 468.379322 
L 1119.750112 470.892715 
L 1129.804914 473.38576 
L 1139.859717 475.858811 
L 1149.91452 478.312217 
L 1159.969322 480.746319 
L 1170.024125 483.161452 
L 1180.078928 485.557945 
L 1190.13373 487.93612 
L 1200.188533 490.296294 
L 1210.243336 492.638776 
L 1220.298138 494.963872 
L 1230.352941 497.271879 
" clip-path="url(#p6464985bed)" style="fill: none; stroke: #000000; stroke-width: 1.5; stroke-linecap: square"/>
   </g>
   <g id="line2d_40">
    <path d="M 223.183522 154.174906 
L 228.482846 157.140457 
L 233.771353 160.074774 
L 239.048735 162.977913 
L 244.31468 165.849933 
L 249.568879 168.690891 
L 254.81102 171.500846 
L 260.040791 174.279856 
L 265.257879 177.027981 
L 270.461973 179.745278 
L 275.652758 182.431808 
L 280.829921 185.087629 
L 285.993147 187.712801 
L 291.142122 190.307382 
L 296.276531 192.871436 
L 301.39606 195.40502 
L 306.500394 197.908196 
L 311.589216 200.381023 
L 316.662213 202.823562 
L 321.719069 205.235874 
L 326.759468 207.61802 
L 331.783096 209.970061 
L 336.789638 212.292059 
L 341.778779 214.584075 
L 346.750206 216.846171 
L 351.703603 219.078407 
L 356.638658 221.280848 
L 361.555057 223.453554 
L 366.452488 225.596589 
L 371.330639 227.710015 
L 376.189198 229.793894 
L 381.027854 231.84829 
L 385.846298 233.873266 
L 390.644222 235.868885 
L 395.421315 237.835211 
L 400.177272 239.772309 
L 404.911786 241.680241 
L 409.624552 243.559073 
L 414.315265 245.408867 
L 418.983624 247.229692 
L 423.629326 249.02161 
L 428.252072 250.784688 
L 432.851562 252.518991 
L 437.4275 254.224586 
L 441.979589 255.901537 
L 446.507536 257.549911 
L 451.011049 259.169774 
L 455.489835 260.761197 
L 459.943607 262.324244 
L 464.372078 263.858984 
L 468.774963 265.365485 
L 473.151978 266.843816 
L 477.502844 268.294045 
L 481.827281 269.716242 
L 486.125014 271.110476 
L 490.395767 272.476819 
L 494.639271 273.81534 
L 498.855255 275.12611 
L 503.043452 276.4092 
L 507.2036 277.664684 
L 511.335437 278.892633 
L 515.438705 280.093119 
L 519.513153 281.266202 
L 523.558518 282.411984 
L 527.574556 283.530526 
L 531.561021 284.621903 
L 535.517669 285.68619 
L 539.44426 286.723464 
L 543.340558 287.733801 
L 547.206329 288.717278 
L 551.041343 289.673975 
L 554.845374 290.603968 
L 558.618201 291.507339 
L 562.359603 292.384166 
L 566.069366 293.23453 
L 569.747278 294.058514 
L 573.393133 294.856198 
L 577.006727 295.627666 
L 580.587861 296.373001 
L 584.136341 297.092288 
" clip-path="url(#p6464985bed)" style="fill: none; stroke-dasharray: 5.55,2.4; stroke-dashoffset: 0; stroke: #ff0000; stroke-width: 1.5"/>
   </g>
   <g id="line2d_41">
    <path d="M 221.212475 180.17634 
L 229.106151 184.481157 
L 236.986845 188.730691 
L 244.85375 192.924999 
L 252.706074 197.064107 
L 260.543003 201.148086 
L 268.363724 205.176995 
L 276.167422 209.150901 
L 283.953278 213.069872 
L 291.72047 216.933983 
L 299.468175 220.743312 
L 307.195565 224.497941 
L 314.901811 228.197954 
L 322.586084 231.843438 
L 330.24755 235.434489 
L 337.885375 238.9712 
L 345.498724 242.45367 
L 353.08676 245.881998 
L 360.648647 249.256289 
L 368.183548 252.57665 
L 375.690624 255.84319 
L 383.169039 259.05602 
L 390.617955 262.215254 
L 398.036537 265.32101 
L 405.42395 268.373406 
L 412.779359 271.372564 
L 420.101933 274.318607 
L 427.390841 277.211661 
L 434.645254 280.051855 
L 441.86435 282.839316 
L 449.047304 285.574182 
L 456.193298 288.256582 
L 463.301515 290.886656 
L 470.371145 293.464541 
L 477.40138 295.99038 
L 484.391417 298.464312 
L 491.340458 300.886484 
L 498.247712 303.257043 
L 505.112391 305.576139 
L 511.933714 307.843922 
L 518.710908 310.060546 
L 525.443205 312.226166 
L 532.129844 314.340941 
L 538.770073 316.40503 
L 545.363147 318.418595 
L 551.90833 320.381801 
L 558.404894 322.294814 
L 564.852119 324.157803 
L 571.249298 325.97094 
L 577.59573 327.734399 
L 583.890727 329.448355 
L 590.133611 331.112988 
L 596.323714 332.728479 
L 602.460381 334.295011 
L 608.542968 335.812771 
L 614.570843 337.281948 
L 620.543389 338.702735 
L 626.46 340.075325 
L 632.320083 341.399917 
L 638.123062 342.676709 
L 643.868373 343.905909 
L 649.555468 345.087718 
L 655.183812 346.222348 
L 660.75289 347.310013 
L 666.262198 348.350928 
L 671.711254 349.345312 
L 677.099588 350.293387 
L 682.426751 351.195381 
L 687.692309 352.051521 
L 692.895849 352.86204 
L 698.036974 353.627176 
L 703.115308 354.347167 
L 708.130495 355.022257 
L 713.082195 355.652694 
L 717.970093 356.238728 
L 722.793893 356.780614 
L 727.553318 357.27861 
L 732.248116 357.732979 
L 736.878054 358.143987 
L 741.442923 358.511903 
" clip-path="url(#p6464985bed)" style="fill: none; stroke-dasharray: 5.55,2.4; stroke-dashoffset: 0; stroke: #ffa500; stroke-width: 1.5"/>
   </g>
   <g id="line2d_42">
    <path d="M 224.191094 213.720431 
L 234.739329 219.14749 
L 245.277698 224.499003 
L 255.804656 229.774627 
L 266.318641 234.97405 
L 276.818081 240.096996 
L 287.301394 245.143225 
L 297.766985 250.112526 
L 308.21325 255.00472 
L 318.638577 259.819652 
L 329.041342 264.557194 
L 339.419916 269.217245 
L 349.772663 273.799717 
L 360.097938 278.30456 
L 370.394093 282.731724 
L 380.659473 287.081194 
L 390.892421 291.352965 
L 401.091275 295.547052 
L 411.254371 299.663486 
L 421.380044 303.702309 
L 431.466629 307.663583 
L 441.512459 311.54738 
L 451.515872 315.353789 
L 461.475205 319.082907 
L 471.388798 322.734848 
L 481.254999 326.309733 
L 491.072158 329.807699 
L 500.838631 333.22889 
L 510.552784 336.573463 
L 520.212988 339.841584 
L 529.817628 343.033428 
L 539.365095 346.149182 
L 548.853795 349.189043 
L 558.282144 352.153212 
L 567.648578 355.041905 
L 576.951541 357.855345 
L 586.189498 360.593762 
L 595.360931 363.257398 
L 604.46434 365.846501 
L 613.498245 368.361328 
L 622.46119 370.802146 
L 631.351739 373.169228 
L 640.168482 375.462859 
L 648.910033 377.683329 
L 657.575034 379.830938 
L 666.162154 381.905997 
L 674.670091 383.908819 
L 683.097576 385.839731 
L 691.443369 387.699068 
L 699.706266 389.487176 
L 707.885091 391.204417 
L 715.978721 392.851127 
L 723.986055 394.427689 
L 731.906035 395.934482 
L 739.737644 397.371895 
L 747.479913 398.740312 
L 755.131898 400.040164 
L 762.692716 401.271862 
L 770.161526 402.435829 
L 777.537533 403.532501 
L 784.819992 404.5623 
L 792.008213 405.525693 
L 799.101545 406.423177 
L 806.099403 407.255214 
L 813.001242 408.022285 
L 819.806568 408.724826 
L 826.514985 409.363429 
L 833.126111 409.938577 
L 839.639639 410.450795 
L 846.055321 410.900619 
L 852.37297 411.288596 
L 858.592462 411.61528 
L 864.713739 411.881237 
L 870.736805 412.087043 
L 876.661731 412.233284 
L 882.488656 412.320554 
L 888.217785 412.349456 
L 893.849393 412.320605 
L 899.383823 412.234622 
L 904.821492 412.092138 
" clip-path="url(#p6464985bed)" style="fill: none; stroke-dasharray: 5.55,2.4; stroke-dashoffset: 0; stroke: #008000; stroke-width: 1.5"/>
   </g>
   <g id="line2d_43">
    <path d="M 223.94812 251.951474 
L 237.299186 258.215112 
L 250.651184 264.399601 
L 264.001532 270.502637 
L 277.347618 276.522139 
L 290.686799 282.456219 
L 304.016407 288.30317 
L 317.333746 294.061454 
L 330.636095 299.729675 
L 343.92071 305.306574 
L 357.184824 310.791019 
L 370.425652 316.181991 
L 383.640389 321.478577 
L 396.826215 326.679961 
L 409.980288 331.785415 
L 423.099772 336.794295 
L 436.181803 341.706033 
L 449.223514 346.520132 
L 462.222033 351.236162 
L 475.174476 355.853764 
L 488.077978 360.372605 
L 500.929654 364.79244 
L 513.726629 369.11306 
L 526.466034 373.334309 
L 539.145009 377.456068 
L 551.760703 381.478267 
L 564.310281 385.400873 
L 576.790922 389.223896 
L 589.199817 392.947386 
L 601.534202 396.571403 
L 613.791317 400.096062 
L 625.968428 403.52152 
L 638.062855 406.847926 
L 650.071931 410.075493 
L 661.993033 413.204452 
L 673.823579 416.235059 
L 685.56103 419.167606 
L 697.202903 422.002383 
L 708.746742 424.739753 
L 720.190168 427.380072 
L 731.53085 429.923727 
L 742.766521 432.371133 
L 753.894976 434.722722 
L 764.914079 436.978956 
L 775.821761 439.140323 
L 786.616038 441.207326 
L 797.294999 443.180458 
L 807.856815 445.060348 
L 818.299726 446.84754 
L 828.622104 448.542634 
L 838.822379 450.146256 
L 848.899088 451.659055 
L 858.850869 453.081704 
L 868.676463 454.414897 
L 878.374721 455.659353 
L 887.944603 456.815813 
L 897.385177 457.885041 
L 906.695654 458.867829 
L 915.875343 459.764988 
L 924.923684 460.577351 
L 933.840249 461.305777 
L 942.624738 461.951145 
L 951.276989 462.514359 
L 959.796977 462.996344 
L 968.184817 463.398048 
L 976.440769 463.720438 
L 984.565239 463.964505 
L 992.558783 464.131261 
L 1000.422105 464.221734 
L 1008.156067 464.236977 
L 1015.761683 464.178057 
L 1023.240126 464.046062 
L 1030.592728 463.842097 
L 1037.820981 463.567282 
L 1044.926539 463.222755 
L 1051.911219 462.809667 
L 1058.777 462.329182 
L 1065.526027 461.782479 
L 1072.160607 461.170747 
L 1078.683212 460.495186 
" clip-path="url(#p6464985bed)" style="fill: none; stroke-dasharray: 5.55,2.4; stroke-dashoffset: 0; stroke: #4682b4; stroke-width: 1.5"/>
   </g>
   <g id="line2d_44">
    <path d="M 224.221642 299.354526 
L 240.451983 305.79826 
L 256.702806 312.212105 
L 272.97024 318.585875 
L 289.250354 324.910561 
L 305.539143 331.178164 
L 321.832569 337.381609 
L 338.126534 343.514538 
L 354.416871 349.571311 
L 370.699375 355.546884 
L 386.969794 361.436738 
L 403.223836 367.236827 
L 419.457168 372.943528 
L 435.665425 378.553593 
L 451.844209 384.064111 
L 467.989099 389.47248 
L 484.095648 394.776365 
L 500.159396 399.973686 
L 516.175853 405.062604 
L 532.140562 410.04144 
L 548.049024 414.908747 
L 563.896756 419.663237 
L 579.679283 424.303781 
L 595.392141 428.829395 
L 611.030889 433.239229 
L 626.591107 437.532561 
L 642.068408 441.708786 
L 657.458441 445.767406 
L 672.756901 449.708024 
L 687.959538 453.530328 
L 703.062139 457.234135 
L 718.060574 460.819299 
L 732.950771 464.285773 
L 747.728747 467.633609 
L 762.390611 470.862884 
L 776.932549 473.973781 
L 791.350835 476.966569 
L 805.641869 479.841495 
L 819.802163 482.599016 
L 833.82837 485.239489 
L 847.717245 487.763424 
L 861.465691 490.171369 
L 875.070761 492.463927 
L 888.52966 494.641754 
L 901.839757 496.705564 
L 914.998594 498.656121 
L 928.00389 500.494245 
L 940.853552 502.220802 
L 953.545682 503.836714 
L 966.078588 505.342952 
L 978.450786 506.740538 
L 990.661016 508.030542 
L 1002.708243 509.214083 
L 1014.591668 510.29233 
L 1026.310734 511.266496 
L 1037.865137 512.137845 
L 1049.254828 512.907685 
L 1060.480025 513.577369 
L 1071.541216 514.148295 
L 1082.439168 514.621906 
L 1093.174932 514.999686 
L 1103.74985 515.283159 
L 1114.165546 515.473889 
L 1124.423984 515.573485 
L 1134.527394 515.583587 
L 1144.478332 515.50587 
L 1154.279665 515.342047 
L 1163.93458 515.093859 
L 1173.446581 514.763081 
L 1182.819498 514.351516 
L 1192.057485 513.860992 
L 1201.165023 513.293366 
L 1210.146921 512.650514 
L 1219.008315 511.934336 
L 1227.754672 511.146752 
" clip-path="url(#p6464985bed)" style="fill: none; stroke-dasharray: 5.55,2.4; stroke-dashoffset: 0; stroke: #8a2be2; stroke-width: 1.5"/>
   </g>
   <g id="patch_3">
    <path d="M 180 768.96 
L 180 103.68 
" style="fill: none; stroke: #000000; stroke-width: 0.8; stroke-linejoin: miter; stroke-linecap: square"/>
   </g>
   <g id="patch_4">
    <path d="M 1296 768.96 
L 1296 103.68 
" style="fill: none; stroke: #000000; stroke-width: 0.8; stroke-linejoin: miter; stroke-linecap: square"/>
   </g>
   <g id="patch_5">
    <path d="M 180 768.96 
L 1296 768.96 
" style="fill: none; stroke: #000000; stroke-width: 0.8; stroke-linejoin: miter; stroke-linecap: square"/>
   </g>
   <g id="patch_6">
    <path d="M 180 103.68 
L 1296 103.68 
" style="fill: none; stroke: #000000; stroke-width: 0.8; stroke-linejoin: miter; stroke-linecap: square"/>
   </g>
   <g id="text_20">
    <!-- 160 -->
    <g transform="translate(1233.635294 751.105726) scale(0.2 -0.2)">
     <use xlink:href="#DejaVuSans-31"/>
     <use xlink:href="#DejaVuSans-36" x="63.623047"/>
     <use xlink:href="#DejaVuSans-30" x="127.246094"/>
    </g>
   </g>
   <g id="text_21">
    <!-- 150 -->
    <g transform="translate(1233.635294 682.104427) scale(0.2 -0.2)">
     <use xlink:href="#DejaVuSans-31"/>
     <use xlink:href="#DejaVuSans-35" x="63.623047"/>
     <use xlink:href="#DejaVuSans-30" x="127.246094"/>
    </g>
   </g>
   <g id="text_22">
    <!-- 140 -->
    <g transform="translate(1233.635294 623.079219) scale(0.2 -0.2)">
     <use xlink:href="#DejaVuSans-31"/>
     <use xlink:href="#DejaVuSans-34" x="63.623047"/>
     <use xlink:href="#DejaVuSans-30" x="127.246094"/>
    </g>
   </g>
   <g id="text_23">
    <!-- 130 -->
    <g transform="translate(1233.635294 568.210716) scale(0.2 -0.2)">
     <use xlink:href="#DejaVuSans-31"/>
     <use xlink:href="#DejaVuSans-33" x="63.623047"/>
     <use xlink:href="#DejaVuSans-30" x="127.246094"/>
    </g>
   </g>
   <g id="text_24">
    <!-- 120 -->
    <g transform="translate(1233.635294 508.354167) scale(0.2 -0.2)">
     <use xlink:href="#DejaVuSans-31"/>
     <use xlink:href="#DejaVuSans-32" x="63.623047"/>
     <use xlink:href="#DejaVuSans-30" x="127.246094"/>
    </g>
   </g>
   <g id="legend_1">
    <g id="patch_7">
     <path d="M 237.757812 149.88 
L 1238.242188 149.88 
Q 1242.242188 149.88 1242.242188 145.88 
L 1242.242188 117.68 
Q 1242.242188 113.68 1238.242188 113.68 
L 237.757812 113.68 
Q 233.757812 113.68 233.757812 117.68 
L 233.757812 145.88 
Q 233.757812 149.88 237.757812 149.88 
z
" style="fill: #ffffff; opacity: 0.8; stroke: #cccccc; stroke-linejoin: miter"/>
    </g>
    <g id="line2d_45">
     <path d="M 241.757812 129.88 
L 261.757812 129.88 
L 281.757812 129.88 
" style="fill: none; stroke: #000000; stroke-width: 1.5; stroke-linecap: square"/>
    </g>
    <g id="text_25">
     <!-- $T_{se,ein}$ [°C]          $ΔT_{GK,ob}$: -->
     <g transform="translate(297.757812 136.88) scale(0.2 -0.2)">
      <defs>
       <path id="DejaVuSans-Oblique-54" d="M 378 4666 
L 4325 4666 
L 4225 4134 
L 2559 4134 
L 1759 0 
L 1125 0 
L 1925 4134 
L 275 4134 
L 378 4666 
z
" transform="scale(0.015625)"/>
       <path id="DejaVuSans-Oblique-73" d="M 3200 3397 
L 3091 2853 
Q 2863 2978 2609 3040 
Q 2356 3103 2088 3103 
Q 1634 3103 1373 2948 
Q 1113 2794 1113 2528 
Q 1113 2219 1719 2053 
Q 1766 2041 1788 2034 
L 1972 1978 
Q 2547 1819 2739 1644 
Q 2931 1469 2931 1166 
Q 2931 609 2489 259 
Q 2047 -91 1331 -91 
Q 1053 -91 747 -37 
Q 441 16 72 128 
L 184 722 
Q 500 559 806 475 
Q 1113 391 1394 391 
Q 1816 391 2080 572 
Q 2344 753 2344 1031 
Q 2344 1331 1650 1516 
L 1591 1531 
L 1394 1581 
Q 956 1697 753 1886 
Q 550 2075 550 2369 
Q 550 2928 970 3256 
Q 1391 3584 2113 3584 
Q 2397 3584 2667 3537 
Q 2938 3491 3200 3397 
z
" transform="scale(0.015625)"/>
       <path id="DejaVuSans-Oblique-65" d="M 3078 2063 
Q 3088 2113 3092 2166 
Q 3097 2219 3097 2272 
Q 3097 2653 2873 2875 
Q 2650 3097 2266 3097 
Q 1838 3097 1509 2826 
Q 1181 2556 1013 2059 
L 3078 2063 
z
M 3578 1613 
L 903 1613 
Q 884 1494 878 1425 
Q 872 1356 872 1306 
Q 872 872 1139 634 
Q 1406 397 1894 397 
Q 2269 397 2603 481 
Q 2938 566 3225 728 
L 3116 159 
Q 2806 34 2476 -28 
Q 2147 -91 1806 -91 
Q 1078 -91 686 257 
Q 294 606 294 1247 
Q 294 1794 489 2264 
Q 684 2734 1063 3103 
Q 1306 3334 1642 3459 
Q 1978 3584 2356 3584 
Q 2950 3584 3301 3228 
Q 3653 2872 3653 2272 
Q 3653 2128 3634 1964 
Q 3616 1800 3578 1613 
z
" transform="scale(0.015625)"/>
       <path id="DejaVuSans-2c" d="M 750 794 
L 1409 794 
L 1409 256 
L 897 -744 
L 494 -744 
L 750 256 
L 750 794 
z
" transform="scale(0.015625)"/>
       <path id="DejaVuSans-Oblique-69" d="M 1172 4863 
L 1747 4863 
L 1606 4134 
L 1031 4134 
L 1172 4863 
z
M 909 3500 
L 1484 3500 
L 800 0 
L 225 0 
L 909 3500 
z
" transform="scale(0.015625)"/>
       <path id="DejaVuSans-Oblique-6e" d="M 3566 2113 
L 3156 0 
L 2578 0 
L 2988 2091 
Q 3016 2238 3031 2350 
Q 3047 2463 3047 2528 
Q 3047 2791 2881 2937 
Q 2716 3084 2419 3084 
Q 1956 3084 1622 2776 
Q 1288 2469 1184 1941 
L 800 0 
L 225 0 
L 903 3500 
L 1478 3500 
L 1363 2950 
Q 1603 3253 1940 3418 
Q 2278 3584 2650 3584 
Q 3113 3584 3367 3334 
Q 3622 3084 3622 2631 
Q 3622 2519 3608 2391 
Q 3594 2263 3566 2113 
z
" transform="scale(0.015625)"/>
       <path id="DejaVuSans-b0" d="M 1600 4347 
Q 1350 4347 1178 4173 
Q 1006 4000 1006 3750 
Q 1006 3503 1178 3333 
Q 1350 3163 1600 3163 
Q 1850 3163 2022 3333 
Q 2194 3503 2194 3750 
Q 2194 3997 2020 4172 
Q 1847 4347 1600 4347 
z
M 1600 4750 
Q 1800 4750 1984 4673 
Q 2169 4597 2303 4453 
Q 2447 4313 2519 4134 
Q 2591 3956 2591 3750 
Q 2591 3338 2302 3052 
Q 2013 2766 1594 2766 
Q 1172 2766 890 3047 
Q 609 3328 609 3750 
Q 609 4169 896 4459 
Q 1184 4750 1600 4750 
z
" transform="scale(0.015625)"/>
       <path id="DejaVuSans-43" d="M 4122 4306 
L 4122 3641 
Q 3803 3938 3442 4084 
Q 3081 4231 2675 4231 
Q 1875 4231 1450 3742 
Q 1025 3253 1025 2328 
Q 1025 1406 1450 917 
Q 1875 428 2675 428 
Q 3081 428 3442 575 
Q 3803 722 4122 1019 
L 4122 359 
Q 3791 134 3420 21 
Q 3050 -91 2638 -91 
Q 1578 -91 968 557 
Q 359 1206 359 2328 
Q 359 3453 968 4101 
Q 1578 4750 2638 4750 
Q 3056 4750 3426 4639 
Q 3797 4528 4122 4306 
z
" transform="scale(0.015625)"/>
       <path id="DejaVuSans-394" d="M 2188 4044 
L 906 525 
L 3472 525 
L 2188 4044 
z
M 50 0 
L 1831 4666 
L 2547 4666 
L 4325 0 
L 50 0 
z
" transform="scale(0.015625)"/>
       <path id="DejaVuSans-Oblique-47" d="M 3494 697 
L 3738 1919 
L 2700 1919 
L 2797 2438 
L 4453 2438 
L 4050 384 
Q 3634 156 3143 32 
Q 2653 -91 2156 -91 
Q 1278 -91 783 396 
Q 288 884 288 1753 
Q 288 2475 589 3126 
Q 891 3778 1422 4213 
Q 1756 4484 2153 4617 
Q 2550 4750 3034 4750 
Q 3472 4750 3873 4639 
Q 4275 4528 4641 4306 
L 4513 3634 
Q 4231 3928 3853 4083 
Q 3475 4238 3047 4238 
Q 2550 4238 2172 4048 
Q 1794 3859 1497 3463 
Q 1244 3125 1098 2667 
Q 953 2209 953 1734 
Q 953 1081 1287 751 
Q 1622 422 2284 422 
Q 2616 422 2925 492 
Q 3234 563 3494 697 
z
" transform="scale(0.015625)"/>
       <path id="DejaVuSans-Oblique-4b" d="M 1081 4666 
L 1716 4666 
L 1331 2700 
L 3781 4666 
L 4622 4666 
L 1850 2438 
L 3878 0 
L 3109 0 
L 1247 2272 
L 806 0 
L 172 0 
L 1081 4666 
z
" transform="scale(0.015625)"/>
       <path id="DejaVuSans-Oblique-6f" d="M 1625 -91 
Q 1009 -91 651 289 
Q 294 669 294 1325 
Q 294 1706 417 2101 
Q 541 2497 738 2766 
Q 1047 3184 1428 3384 
Q 1809 3584 2291 3584 
Q 2888 3584 3255 3212 
Q 3622 2841 3622 2241 
Q 3622 1825 3500 1412 
Q 3378 1000 3181 728 
Q 2875 309 2494 109 
Q 2113 -91 1625 -91 
z
M 891 1344 
Q 891 869 1089 633 
Q 1288 397 1691 397 
Q 2269 397 2648 901 
Q 3028 1406 3028 2181 
Q 3028 2634 2825 2865 
Q 2622 3097 2228 3097 
Q 1903 3097 1650 2945 
Q 1397 2794 1197 2484 
Q 1050 2253 970 1956 
Q 891 1659 891 1344 
z
" transform="scale(0.015625)"/>
       <path id="DejaVuSans-Oblique-62" d="M 3169 2138 
Q 3169 2591 2961 2847 
Q 2753 3103 2388 3103 
Q 2122 3103 1889 2973 
Q 1656 2844 1484 2597 
Q 1303 2338 1198 1995 
Q 1094 1653 1094 1313 
Q 1094 881 1298 636 
Q 1503 391 1863 391 
Q 2134 391 2365 517 
Q 2597 644 2772 891 
Q 2950 1147 3059 1487 
Q 3169 1828 3169 2138 
z
M 1381 2969 
Q 1594 3256 1914 3420 
Q 2234 3584 2584 3584 
Q 3122 3584 3439 3221 
Q 3756 2859 3756 2241 
Q 3756 1734 3570 1259 
Q 3384 784 3041 416 
Q 2816 172 2522 40 
Q 2228 -91 1906 -91 
Q 1566 -91 1316 65 
Q 1066 222 909 531 
L 806 0 
L 231 0 
L 1178 4863 
L 1753 4863 
L 1381 2969 
z
" transform="scale(0.015625)"/>
       <path id="DejaVuSans-3a" d="M 750 794 
L 1409 794 
L 1409 0 
L 750 0 
L 750 794 
z
M 750 3309 
L 1409 3309 
L 1409 2516 
L 750 2516 
L 750 3309 
z
" transform="scale(0.015625)"/>
      </defs>
      <use xlink:href="#DejaVuSans-Oblique-54" transform="translate(0 0.015625)"/>
      <use xlink:href="#DejaVuSans-Oblique-73" transform="translate(61.083984 -16.390625) scale(0.7)"/>
      <use xlink:href="#DejaVuSans-Oblique-65" transform="translate(97.553711 -16.390625) scale(0.7)"/>
      <use xlink:href="#DejaVuSans-2c" transform="translate(140.620117 -16.390625) scale(0.7)"/>
      <use xlink:href="#DejaVuSans-Oblique-65" transform="translate(176.508789 -16.390625) scale(0.7)"/>
      <use xlink:href="#DejaVuSans-Oblique-69" transform="translate(219.575195 -16.390625) scale(0.7)"/>
      <use xlink:href="#DejaVuSans-Oblique-6e" transform="translate(239.023438 -16.390625) scale(0.7)"/>
      <use xlink:href="#DejaVuSans-20" transform="translate(286.123047 0.015625)"/>
      <use xlink:href="#DejaVuSans-5b" transform="translate(317.910156 0.015625)"/>
      <use xlink:href="#DejaVuSans-b0" transform="translate(356.923828 0.015625)"/>
      <use xlink:href="#DejaVuSans-43" transform="translate(406.923828 0.015625)"/>
      <use xlink:href="#DejaVuSans-5d" transform="translate(476.748047 0.015625)"/>
      <use xlink:href="#DejaVuSans-20" transform="translate(515.761719 0.015625)"/>
      <use xlink:href="#DejaVuSans-20" transform="translate(547.548828 0.015625)"/>
      <use xlink:href="#DejaVuSans-20" transform="translate(579.335938 0.015625)"/>
      <use xlink:href="#DejaVuSans-20" transform="translate(611.123047 0.015625)"/>
      <use xlink:href="#DejaVuSans-20" transform="translate(642.910156 0.015625)"/>
      <use xlink:href="#DejaVuSans-20" transform="translate(674.697266 0.015625)"/>
      <use xlink:href="#DejaVuSans-20" transform="translate(706.484375 0.015625)"/>
      <use xlink:href="#DejaVuSans-20" transform="translate(738.271484 0.015625)"/>
      <use xlink:href="#DejaVuSans-20" transform="translate(770.058594 0.015625)"/>
      <use xlink:href="#DejaVuSans-20" transform="translate(801.845703 0.015625)"/>
      <use xlink:href="#DejaVuSans-394" transform="translate(833.632812 0.015625)"/>
      <use xlink:href="#DejaVuSans-Oblique-54" transform="translate(902.041016 0.015625)"/>
      <use xlink:href="#DejaVuSans-Oblique-47" transform="translate(963.125 -16.390625) scale(0.7)"/>
      <use xlink:href="#DejaVuSans-Oblique-4b" transform="translate(1017.368164 -16.390625) scale(0.7)"/>
      <use xlink:href="#DejaVuSans-2c" transform="translate(1063.271484 -16.390625) scale(0.7)"/>
      <use xlink:href="#DejaVuSans-Oblique-6f" transform="translate(1099.160156 -16.390625) scale(0.7)"/>
      <use xlink:href="#DejaVuSans-Oblique-62" transform="translate(1141.987305 -16.390625) scale(0.7)"/>
      <use xlink:href="#DejaVuSans-3a" transform="translate(1189.155273 0.015625)"/>
     </g>
    </g>
    <g id="line2d_46">
     <path d="M 582.357813 129.88 
L 602.357813 129.88 
L 622.357813 129.88 
" style="fill: none; stroke-dasharray: 5.55,2.4; stroke-dashoffset: 0; stroke: #ff0000; stroke-width: 1.5"/>
    </g>
    <g id="text_26">
     <!-- 5 K -->
     <g transform="translate(638.357813 136.88) scale(0.2 -0.2)">
      <defs>
       <path id="DejaVuSans-4b" d="M 628 4666 
L 1259 4666 
L 1259 2694 
L 3353 4666 
L 4166 4666 
L 1850 2491 
L 4331 0 
L 3500 0 
L 1259 2247 
L 1259 0 
L 628 0 
L 628 4666 
z
" transform="scale(0.015625)"/>
      </defs>
      <use xlink:href="#DejaVuSans-35"/>
      <use xlink:href="#DejaVuSans-20" x="63.623047"/>
      <use xlink:href="#DejaVuSans-4b" x="95.410156"/>
     </g>
    </g>
    <g id="line2d_47">
     <path d="M 710.554688 129.88 
L 730.554688 129.88 
L 750.554688 129.88 
" style="fill: none; stroke-dasharray: 5.55,2.4; stroke-dashoffset: 0; stroke: #ffa500; stroke-width: 1.5"/>
    </g>
    <g id="text_27">
     <!-- 10 K -->
     <g transform="translate(766.554688 136.88) scale(0.2 -0.2)">
      <use xlink:href="#DejaVuSans-31"/>
      <use xlink:href="#DejaVuSans-30" x="63.623047"/>
      <use xlink:href="#DejaVuSans-20" x="127.246094"/>
      <use xlink:href="#DejaVuSans-4b" x="159.033203"/>
     </g>
    </g>
    <g id="line2d_48">
     <path d="M 851.476562 129.88 
L 871.476562 129.88 
L 891.476562 129.88 
" style="fill: none; stroke-dasharray: 5.55,2.4; stroke-dashoffset: 0; stroke: #008000; stroke-width: 1.5"/>
    </g>
    <g id="text_28">
     <!-- 15 K -->
     <g transform="translate(907.476562 136.88) scale(0.2 -0.2)">
      <use xlink:href="#DejaVuSans-31"/>
      <use xlink:href="#DejaVuSans-35" x="63.623047"/>
      <use xlink:href="#DejaVuSans-20" x="127.246094"/>
      <use xlink:href="#DejaVuSans-4b" x="159.033203"/>
     </g>
    </g>
    <g id="line2d_49">
     <path d="M 992.398438 129.88 
L 1012.398438 129.88 
L 1032.398438 129.88 
" style="fill: none; stroke-dasharray: 5.55,2.4; stroke-dashoffset: 0; stroke: #4682b4; stroke-width: 1.5"/>
    </g>
    <g id="text_29">
     <!-- 20 K -->
     <g transform="translate(1048.398438 136.88) scale(0.2 -0.2)">
      <use xlink:href="#DejaVuSans-32"/>
      <use xlink:href="#DejaVuSans-30" x="63.623047"/>
      <use xlink:href="#DejaVuSans-20" x="127.246094"/>
      <use xlink:href="#DejaVuSans-4b" x="159.033203"/>
     </g>
    </g>
    <g id="line2d_50">
     <path d="M 1133.320312 129.88 
L 1153.320312 129.88 
L 1173.320312 129.88 
" style="fill: none; stroke-dasharray: 5.55,2.4; stroke-dashoffset: 0; stroke: #8a2be2; stroke-width: 1.5"/>
    </g>
    <g id="text_30">
     <!-- 25 K -->
     <g transform="translate(1189.320312 136.88) scale(0.2 -0.2)">
      <use xlink:href="#DejaVuSans-32"/>
      <use xlink:href="#DejaVuSans-35" x="63.623047"/>
      <use xlink:href="#DejaVuSans-20" x="127.246094"/>
      <use xlink:href="#DejaVuSans-4b" x="159.033203"/>
     </g>
    </g>
   </g>
  </g>
 </g>
 <defs>
  <clipPath id="p6464985bed">
   <rect x="180" y="103.68" width="1116" height="665.28"/>
  </clipPath>
 </defs>
</svg>
