<?xml version="1.0" encoding="utf-8" standalone="no"?>
<!DOCTYPE svg PUBLIC "-//W3C//DTD SVG 1.1//EN"
  "http://www.w3.org/Graphics/SVG/1.1/DTD/svg11.dtd">
<svg xmlns:xlink="http://www.w3.org/1999/xlink" width="1440pt" height="936pt" viewBox="0 0 1440 936" xmlns="http://www.w3.org/2000/svg" version="1.1">
 <metadata>
  <rdf:RDF xmlns:dc="http://purl.org/dc/elements/1.1/" xmlns:cc="http://creativecommons.org/ns#" xmlns:rdf="http://www.w3.org/1999/02/22-rdf-syntax-ns#">
   <cc:Work>
    <dc:type rdf:resource="http://purl.org/dc/dcmitype/StillImage"/>
    <dc:date>2023-08-12T21:23:07.228036</dc:date>
    <dc:format>image/svg+xml</dc:format>
    <dc:creator>
     <cc:Agent>
      <dc:title>Matplotlib v3.6.1, https://matplotlib.org/</dc:title>
     </cc:Agent>
    </dc:creator>
   </cc:Work>
  </rdf:RDF>
 </metadata>
 <defs>
  <style type="text/css">*{stroke-linejoin: round; stroke-linecap: butt}</style>
 </defs>
 <g id="figure_1">
  <g id="patch_1">
   <path d="M 0 936 
L 1440 936 
L 1440 0 
L 0 0 
z
" style="fill: #ffffff"/>
  </g>
  <g id="axes_1">
   <g id="patch_2">
    <path d="M 180 833.04 
L 1296 833.04 
L 1296 112.32 
L 180 112.32 
z
" style="fill: #ffffff"/>
   </g>
   <g id="matplotlib.axis_1">
    <g id="xtick_1">
     <g id="line2d_1">
      <path d="M 180 833.04 
L 180 112.32 
" clip-path="url(#pf78dece437)" style="fill: none; stroke: #b0b0b0; stroke-width: 0.8; stroke-linecap: square"/>
     </g>
     <g id="line2d_2">
      <defs>
       <path id="mf13b45d543" d="M 0 0 
L 0 3.5 
" style="stroke: #000000; stroke-width: 0.8"/>
      </defs>
      <g>
       <use xlink:href="#mf13b45d543" x="180" y="833.04" style="stroke: #000000; stroke-width: 0.8"/>
      </g>
     </g>
     <g id="text_1">
      <!-- 37.5 -->
      <g transform="translate(157.734375 855.236875) scale(0.2 -0.2)">
       <defs>
        <path id="DejaVuSans-33" d="M 2597 2516 
Q 3050 2419 3304 2112 
Q 3559 1806 3559 1356 
Q 3559 666 3084 287 
Q 2609 -91 1734 -91 
Q 1441 -91 1130 -33 
Q 819 25 488 141 
L 488 750 
Q 750 597 1062 519 
Q 1375 441 1716 441 
Q 2309 441 2620 675 
Q 2931 909 2931 1356 
Q 2931 1769 2642 2001 
Q 2353 2234 1838 2234 
L 1294 2234 
L 1294 2753 
L 1863 2753 
Q 2328 2753 2575 2939 
Q 2822 3125 2822 3475 
Q 2822 3834 2567 4026 
Q 2313 4219 1838 4219 
Q 1578 4219 1281 4162 
Q 984 4106 628 3988 
L 628 4550 
Q 988 4650 1302 4700 
Q 1616 4750 1894 4750 
Q 2613 4750 3031 4423 
Q 3450 4097 3450 3541 
Q 3450 3153 3228 2886 
Q 3006 2619 2597 2516 
z
" transform="scale(0.015625)"/>
        <path id="DejaVuSans-37" d="M 525 4666 
L 3525 4666 
L 3525 4397 
L 1831 0 
L 1172 0 
L 2766 4134 
L 525 4134 
L 525 4666 
z
" transform="scale(0.015625)"/>
        <path id="DejaVuSans-2e" d="M 684 794 
L 1344 794 
L 1344 0 
L 684 0 
L 684 794 
z
" transform="scale(0.015625)"/>
        <path id="DejaVuSans-35" d="M 691 4666 
L 3169 4666 
L 3169 4134 
L 1269 4134 
L 1269 2991 
Q 1406 3038 1543 3061 
Q 1681 3084 1819 3084 
Q 2600 3084 3056 2656 
Q 3513 2228 3513 1497 
Q 3513 744 3044 326 
Q 2575 -91 1722 -91 
Q 1428 -91 1123 -41 
Q 819 9 494 109 
L 494 744 
Q 775 591 1075 516 
Q 1375 441 1709 441 
Q 2250 441 2565 725 
Q 2881 1009 2881 1497 
Q 2881 1984 2565 2268 
Q 2250 2553 1709 2553 
Q 1456 2553 1204 2497 
Q 953 2441 691 2322 
L 691 4666 
z
" transform="scale(0.015625)"/>
       </defs>
       <use xlink:href="#DejaVuSans-33"/>
       <use xlink:href="#DejaVuSans-37" x="63.623047"/>
       <use xlink:href="#DejaVuSans-2e" x="127.246094"/>
       <use xlink:href="#DejaVuSans-35" x="159.033203"/>
      </g>
     </g>
    </g>
    <g id="xtick_2">
     <g id="line2d_3">
      <path d="M 304 833.04 
L 304 112.32 
" clip-path="url(#pf78dece437)" style="fill: none; stroke: #b0b0b0; stroke-width: 0.8; stroke-linecap: square"/>
     </g>
     <g id="line2d_4">
      <g>
       <use xlink:href="#mf13b45d543" x="304" y="833.04" style="stroke: #000000; stroke-width: 0.8"/>
      </g>
     </g>
     <g id="text_2">
      <!-- 40.0 -->
      <g transform="translate(281.734375 855.236875) scale(0.2 -0.2)">
       <defs>
        <path id="DejaVuSans-34" d="M 2419 4116 
L 825 1625 
L 2419 1625 
L 2419 4116 
z
M 2253 4666 
L 3047 4666 
L 3047 1625 
L 3713 1625 
L 3713 1100 
L 3047 1100 
L 3047 0 
L 2419 0 
L 2419 1100 
L 313 1100 
L 313 1709 
L 2253 4666 
z
" transform="scale(0.015625)"/>
        <path id="DejaVuSans-30" d="M 2034 4250 
Q 1547 4250 1301 3770 
Q 1056 3291 1056 2328 
Q 1056 1369 1301 889 
Q 1547 409 2034 409 
Q 2525 409 2770 889 
Q 3016 1369 3016 2328 
Q 3016 3291 2770 3770 
Q 2525 4250 2034 4250 
z
M 2034 4750 
Q 2819 4750 3233 4129 
Q 3647 3509 3647 2328 
Q 3647 1150 3233 529 
Q 2819 -91 2034 -91 
Q 1250 -91 836 529 
Q 422 1150 422 2328 
Q 422 3509 836 4129 
Q 1250 4750 2034 4750 
z
" transform="scale(0.015625)"/>
       </defs>
       <use xlink:href="#DejaVuSans-34"/>
       <use xlink:href="#DejaVuSans-30" x="63.623047"/>
       <use xlink:href="#DejaVuSans-2e" x="127.246094"/>
       <use xlink:href="#DejaVuSans-30" x="159.033203"/>
      </g>
     </g>
    </g>
    <g id="xtick_3">
     <g id="line2d_5">
      <path d="M 428 833.04 
L 428 112.32 
" clip-path="url(#pf78dece437)" style="fill: none; stroke: #b0b0b0; stroke-width: 0.8; stroke-linecap: square"/>
     </g>
     <g id="line2d_6">
      <g>
       <use xlink:href="#mf13b45d543" x="428" y="833.04" style="stroke: #000000; stroke-width: 0.8"/>
      </g>
     </g>
     <g id="text_3">
      <!-- 42.5 -->
      <g transform="translate(405.734375 855.236875) scale(0.2 -0.2)">
       <defs>
        <path id="DejaVuSans-32" d="M 1228 531 
L 3431 531 
L 3431 0 
L 469 0 
L 469 531 
Q 828 903 1448 1529 
Q 2069 2156 2228 2338 
Q 2531 2678 2651 2914 
Q 2772 3150 2772 3378 
Q 2772 3750 2511 3984 
Q 2250 4219 1831 4219 
Q 1534 4219 1204 4116 
Q 875 4013 500 3803 
L 500 4441 
Q 881 4594 1212 4672 
Q 1544 4750 1819 4750 
Q 2544 4750 2975 4387 
Q 3406 4025 3406 3419 
Q 3406 3131 3298 2873 
Q 3191 2616 2906 2266 
Q 2828 2175 2409 1742 
Q 1991 1309 1228 531 
z
" transform="scale(0.015625)"/>
       </defs>
       <use xlink:href="#DejaVuSans-34"/>
       <use xlink:href="#DejaVuSans-32" x="63.623047"/>
       <use xlink:href="#DejaVuSans-2e" x="127.246094"/>
       <use xlink:href="#DejaVuSans-35" x="159.033203"/>
      </g>
     </g>
    </g>
    <g id="xtick_4">
     <g id="line2d_7">
      <path d="M 552 833.04 
L 552 112.32 
" clip-path="url(#pf78dece437)" style="fill: none; stroke: #b0b0b0; stroke-width: 0.8; stroke-linecap: square"/>
     </g>
     <g id="line2d_8">
      <g>
       <use xlink:href="#mf13b45d543" x="552" y="833.04" style="stroke: #000000; stroke-width: 0.8"/>
      </g>
     </g>
     <g id="text_4">
      <!-- 45.0 -->
      <g transform="translate(529.734375 855.236875) scale(0.2 -0.2)">
       <use xlink:href="#DejaVuSans-34"/>
       <use xlink:href="#DejaVuSans-35" x="63.623047"/>
       <use xlink:href="#DejaVuSans-2e" x="127.246094"/>
       <use xlink:href="#DejaVuSans-30" x="159.033203"/>
      </g>
     </g>
    </g>
    <g id="xtick_5">
     <g id="line2d_9">
      <path d="M 676 833.04 
L 676 112.32 
" clip-path="url(#pf78dece437)" style="fill: none; stroke: #b0b0b0; stroke-width: 0.8; stroke-linecap: square"/>
     </g>
     <g id="line2d_10">
      <g>
       <use xlink:href="#mf13b45d543" x="676" y="833.04" style="stroke: #000000; stroke-width: 0.8"/>
      </g>
     </g>
     <g id="text_5">
      <!-- 47.5 -->
      <g transform="translate(653.734375 855.236875) scale(0.2 -0.2)">
       <use xlink:href="#DejaVuSans-34"/>
       <use xlink:href="#DejaVuSans-37" x="63.623047"/>
       <use xlink:href="#DejaVuSans-2e" x="127.246094"/>
       <use xlink:href="#DejaVuSans-35" x="159.033203"/>
      </g>
     </g>
    </g>
    <g id="xtick_6">
     <g id="line2d_11">
      <path d="M 800 833.04 
L 800 112.32 
" clip-path="url(#pf78dece437)" style="fill: none; stroke: #b0b0b0; stroke-width: 0.8; stroke-linecap: square"/>
     </g>
     <g id="line2d_12">
      <g>
       <use xlink:href="#mf13b45d543" x="800" y="833.04" style="stroke: #000000; stroke-width: 0.8"/>
      </g>
     </g>
     <g id="text_6">
      <!-- 50.0 -->
      <g transform="translate(777.734375 855.236875) scale(0.2 -0.2)">
       <use xlink:href="#DejaVuSans-35"/>
       <use xlink:href="#DejaVuSans-30" x="63.623047"/>
       <use xlink:href="#DejaVuSans-2e" x="127.246094"/>
       <use xlink:href="#DejaVuSans-30" x="159.033203"/>
      </g>
     </g>
    </g>
    <g id="xtick_7">
     <g id="line2d_13">
      <path d="M 924 833.04 
L 924 112.32 
" clip-path="url(#pf78dece437)" style="fill: none; stroke: #b0b0b0; stroke-width: 0.8; stroke-linecap: square"/>
     </g>
     <g id="line2d_14">
      <g>
       <use xlink:href="#mf13b45d543" x="924" y="833.04" style="stroke: #000000; stroke-width: 0.8"/>
      </g>
     </g>
     <g id="text_7">
      <!-- 52.5 -->
      <g transform="translate(901.734375 855.236875) scale(0.2 -0.2)">
       <use xlink:href="#DejaVuSans-35"/>
       <use xlink:href="#DejaVuSans-32" x="63.623047"/>
       <use xlink:href="#DejaVuSans-2e" x="127.246094"/>
       <use xlink:href="#DejaVuSans-35" x="159.033203"/>
      </g>
     </g>
    </g>
    <g id="xtick_8">
     <g id="line2d_15">
      <path d="M 1048 833.04 
L 1048 112.32 
" clip-path="url(#pf78dece437)" style="fill: none; stroke: #b0b0b0; stroke-width: 0.8; stroke-linecap: square"/>
     </g>
     <g id="line2d_16">
      <g>
       <use xlink:href="#mf13b45d543" x="1048" y="833.04" style="stroke: #000000; stroke-width: 0.8"/>
      </g>
     </g>
     <g id="text_8">
      <!-- 55.0 -->
      <g transform="translate(1025.734375 855.236875) scale(0.2 -0.2)">
       <use xlink:href="#DejaVuSans-35"/>
       <use xlink:href="#DejaVuSans-35" x="63.623047"/>
       <use xlink:href="#DejaVuSans-2e" x="127.246094"/>
       <use xlink:href="#DejaVuSans-30" x="159.033203"/>
      </g>
     </g>
    </g>
    <g id="xtick_9">
     <g id="line2d_17">
      <path d="M 1172 833.04 
L 1172 112.32 
" clip-path="url(#pf78dece437)" style="fill: none; stroke: #b0b0b0; stroke-width: 0.8; stroke-linecap: square"/>
     </g>
     <g id="line2d_18">
      <g>
       <use xlink:href="#mf13b45d543" x="1172" y="833.04" style="stroke: #000000; stroke-width: 0.8"/>
      </g>
     </g>
     <g id="text_9">
      <!-- 57.5 -->
      <g transform="translate(1149.734375 855.236875) scale(0.2 -0.2)">
       <use xlink:href="#DejaVuSans-35"/>
       <use xlink:href="#DejaVuSans-37" x="63.623047"/>
       <use xlink:href="#DejaVuSans-2e" x="127.246094"/>
       <use xlink:href="#DejaVuSans-35" x="159.033203"/>
      </g>
     </g>
    </g>
    <g id="xtick_10">
     <g id="line2d_19">
      <path d="M 1296 833.04 
L 1296 112.32 
" clip-path="url(#pf78dece437)" style="fill: none; stroke: #b0b0b0; stroke-width: 0.8; stroke-linecap: square"/>
     </g>
     <g id="line2d_20">
      <g>
       <use xlink:href="#mf13b45d543" x="1296" y="833.04" style="stroke: #000000; stroke-width: 0.8"/>
      </g>
     </g>
     <g id="text_10">
      <!-- 60.0 -->
      <g transform="translate(1273.734375 855.236875) scale(0.2 -0.2)">
       <defs>
        <path id="DejaVuSans-36" d="M 2113 2584 
Q 1688 2584 1439 2293 
Q 1191 2003 1191 1497 
Q 1191 994 1439 701 
Q 1688 409 2113 409 
Q 2538 409 2786 701 
Q 3034 994 3034 1497 
Q 3034 2003 2786 2293 
Q 2538 2584 2113 2584 
z
M 3366 4563 
L 3366 3988 
Q 3128 4100 2886 4159 
Q 2644 4219 2406 4219 
Q 1781 4219 1451 3797 
Q 1122 3375 1075 2522 
Q 1259 2794 1537 2939 
Q 1816 3084 2150 3084 
Q 2853 3084 3261 2657 
Q 3669 2231 3669 1497 
Q 3669 778 3244 343 
Q 2819 -91 2113 -91 
Q 1303 -91 875 529 
Q 447 1150 447 2328 
Q 447 3434 972 4092 
Q 1497 4750 2381 4750 
Q 2619 4750 2861 4703 
Q 3103 4656 3366 4563 
z
" transform="scale(0.015625)"/>
       </defs>
       <use xlink:href="#DejaVuSans-36"/>
       <use xlink:href="#DejaVuSans-30" x="63.623047"/>
       <use xlink:href="#DejaVuSans-2e" x="127.246094"/>
       <use xlink:href="#DejaVuSans-30" x="159.033203"/>
      </g>
     </g>
    </g>
    <g id="text_11">
     <!-- Gaskühlerdruck [bar] -->
     <g transform="translate(632.239063 878.593125) scale(0.2 -0.2)">
      <defs>
       <path id="DejaVuSans-47" d="M 3809 666 
L 3809 1919 
L 2778 1919 
L 2778 2438 
L 4434 2438 
L 4434 434 
Q 4069 175 3628 42 
Q 3188 -91 2688 -91 
Q 1594 -91 976 548 
Q 359 1188 359 2328 
Q 359 3472 976 4111 
Q 1594 4750 2688 4750 
Q 3144 4750 3555 4637 
Q 3966 4525 4313 4306 
L 4313 3634 
Q 3963 3931 3569 4081 
Q 3175 4231 2741 4231 
Q 1884 4231 1454 3753 
Q 1025 3275 1025 2328 
Q 1025 1384 1454 906 
Q 1884 428 2741 428 
Q 3075 428 3337 486 
Q 3600 544 3809 666 
z
" transform="scale(0.015625)"/>
       <path id="DejaVuSans-61" d="M 2194 1759 
Q 1497 1759 1228 1600 
Q 959 1441 959 1056 
Q 959 750 1161 570 
Q 1363 391 1709 391 
Q 2188 391 2477 730 
Q 2766 1069 2766 1631 
L 2766 1759 
L 2194 1759 
z
M 3341 1997 
L 3341 0 
L 2766 0 
L 2766 531 
Q 2569 213 2275 61 
Q 1981 -91 1556 -91 
Q 1019 -91 701 211 
Q 384 513 384 1019 
Q 384 1609 779 1909 
Q 1175 2209 1959 2209 
L 2766 2209 
L 2766 2266 
Q 2766 2663 2505 2880 
Q 2244 3097 1772 3097 
Q 1472 3097 1187 3025 
Q 903 2953 641 2809 
L 641 3341 
Q 956 3463 1253 3523 
Q 1550 3584 1831 3584 
Q 2591 3584 2966 3190 
Q 3341 2797 3341 1997 
z
" transform="scale(0.015625)"/>
       <path id="DejaVuSans-73" d="M 2834 3397 
L 2834 2853 
Q 2591 2978 2328 3040 
Q 2066 3103 1784 3103 
Q 1356 3103 1142 2972 
Q 928 2841 928 2578 
Q 928 2378 1081 2264 
Q 1234 2150 1697 2047 
L 1894 2003 
Q 2506 1872 2764 1633 
Q 3022 1394 3022 966 
Q 3022 478 2636 193 
Q 2250 -91 1575 -91 
Q 1294 -91 989 -36 
Q 684 19 347 128 
L 347 722 
Q 666 556 975 473 
Q 1284 391 1588 391 
Q 1994 391 2212 530 
Q 2431 669 2431 922 
Q 2431 1156 2273 1281 
Q 2116 1406 1581 1522 
L 1381 1569 
Q 847 1681 609 1914 
Q 372 2147 372 2553 
Q 372 3047 722 3315 
Q 1072 3584 1716 3584 
Q 2034 3584 2315 3537 
Q 2597 3491 2834 3397 
z
" transform="scale(0.015625)"/>
       <path id="DejaVuSans-6b" d="M 581 4863 
L 1159 4863 
L 1159 1991 
L 2875 3500 
L 3609 3500 
L 1753 1863 
L 3688 0 
L 2938 0 
L 1159 1709 
L 1159 0 
L 581 0 
L 581 4863 
z
" transform="scale(0.015625)"/>
       <path id="DejaVuSans-fc" d="M 544 1381 
L 544 3500 
L 1119 3500 
L 1119 1403 
Q 1119 906 1312 657 
Q 1506 409 1894 409 
Q 2359 409 2629 706 
Q 2900 1003 2900 1516 
L 2900 3500 
L 3475 3500 
L 3475 0 
L 2900 0 
L 2900 538 
Q 2691 219 2414 64 
Q 2138 -91 1772 -91 
Q 1169 -91 856 284 
Q 544 659 544 1381 
z
M 1991 3584 
L 1991 3584 
z
M 2278 4850 
L 2912 4850 
L 2912 4219 
L 2278 4219 
L 2278 4850 
z
M 1056 4850 
L 1690 4850 
L 1690 4219 
L 1056 4219 
L 1056 4850 
z
" transform="scale(0.015625)"/>
       <path id="DejaVuSans-68" d="M 3513 2113 
L 3513 0 
L 2938 0 
L 2938 2094 
Q 2938 2591 2744 2837 
Q 2550 3084 2163 3084 
Q 1697 3084 1428 2787 
Q 1159 2491 1159 1978 
L 1159 0 
L 581 0 
L 581 4863 
L 1159 4863 
L 1159 2956 
Q 1366 3272 1645 3428 
Q 1925 3584 2291 3584 
Q 2894 3584 3203 3211 
Q 3513 2838 3513 2113 
z
" transform="scale(0.015625)"/>
       <path id="DejaVuSans-6c" d="M 603 4863 
L 1178 4863 
L 1178 0 
L 603 0 
L 603 4863 
z
" transform="scale(0.015625)"/>
       <path id="DejaVuSans-65" d="M 3597 1894 
L 3597 1613 
L 953 1613 
Q 991 1019 1311 708 
Q 1631 397 2203 397 
Q 2534 397 2845 478 
Q 3156 559 3463 722 
L 3463 178 
Q 3153 47 2828 -22 
Q 2503 -91 2169 -91 
Q 1331 -91 842 396 
Q 353 884 353 1716 
Q 353 2575 817 3079 
Q 1281 3584 2069 3584 
Q 2775 3584 3186 3129 
Q 3597 2675 3597 1894 
z
M 3022 2063 
Q 3016 2534 2758 2815 
Q 2500 3097 2075 3097 
Q 1594 3097 1305 2825 
Q 1016 2553 972 2059 
L 3022 2063 
z
" transform="scale(0.015625)"/>
       <path id="DejaVuSans-72" d="M 2631 2963 
Q 2534 3019 2420 3045 
Q 2306 3072 2169 3072 
Q 1681 3072 1420 2755 
Q 1159 2438 1159 1844 
L 1159 0 
L 581 0 
L 581 3500 
L 1159 3500 
L 1159 2956 
Q 1341 3275 1631 3429 
Q 1922 3584 2338 3584 
Q 2397 3584 2469 3576 
Q 2541 3569 2628 3553 
L 2631 2963 
z
" transform="scale(0.015625)"/>
       <path id="DejaVuSans-64" d="M 2906 2969 
L 2906 4863 
L 3481 4863 
L 3481 0 
L 2906 0 
L 2906 525 
Q 2725 213 2448 61 
Q 2172 -91 1784 -91 
Q 1150 -91 751 415 
Q 353 922 353 1747 
Q 353 2572 751 3078 
Q 1150 3584 1784 3584 
Q 2172 3584 2448 3432 
Q 2725 3281 2906 2969 
z
M 947 1747 
Q 947 1113 1208 752 
Q 1469 391 1925 391 
Q 2381 391 2643 752 
Q 2906 1113 2906 1747 
Q 2906 2381 2643 2742 
Q 2381 3103 1925 3103 
Q 1469 3103 1208 2742 
Q 947 2381 947 1747 
z
" transform="scale(0.015625)"/>
       <path id="DejaVuSans-75" d="M 544 1381 
L 544 3500 
L 1119 3500 
L 1119 1403 
Q 1119 906 1312 657 
Q 1506 409 1894 409 
Q 2359 409 2629 706 
Q 2900 1003 2900 1516 
L 2900 3500 
L 3475 3500 
L 3475 0 
L 2900 0 
L 2900 538 
Q 2691 219 2414 64 
Q 2138 -91 1772 -91 
Q 1169 -91 856 284 
Q 544 659 544 1381 
z
M 1991 3584 
L 1991 3584 
z
" transform="scale(0.015625)"/>
       <path id="DejaVuSans-63" d="M 3122 3366 
L 3122 2828 
Q 2878 2963 2633 3030 
Q 2388 3097 2138 3097 
Q 1578 3097 1268 2742 
Q 959 2388 959 1747 
Q 959 1106 1268 751 
Q 1578 397 2138 397 
Q 2388 397 2633 464 
Q 2878 531 3122 666 
L 3122 134 
Q 2881 22 2623 -34 
Q 2366 -91 2075 -91 
Q 1284 -91 818 406 
Q 353 903 353 1747 
Q 353 2603 823 3093 
Q 1294 3584 2113 3584 
Q 2378 3584 2631 3529 
Q 2884 3475 3122 3366 
z
" transform="scale(0.015625)"/>
       <path id="DejaVuSans-20" transform="scale(0.015625)"/>
       <path id="DejaVuSans-5b" d="M 550 4863 
L 1875 4863 
L 1875 4416 
L 1125 4416 
L 1125 -397 
L 1875 -397 
L 1875 -844 
L 550 -844 
L 550 4863 
z
" transform="scale(0.015625)"/>
       <path id="DejaVuSans-62" d="M 3116 1747 
Q 3116 2381 2855 2742 
Q 2594 3103 2138 3103 
Q 1681 3103 1420 2742 
Q 1159 2381 1159 1747 
Q 1159 1113 1420 752 
Q 1681 391 2138 391 
Q 2594 391 2855 752 
Q 3116 1113 3116 1747 
z
M 1159 2969 
Q 1341 3281 1617 3432 
Q 1894 3584 2278 3584 
Q 2916 3584 3314 3078 
Q 3713 2572 3713 1747 
Q 3713 922 3314 415 
Q 2916 -91 2278 -91 
Q 1894 -91 1617 61 
Q 1341 213 1159 525 
L 1159 0 
L 581 0 
L 581 4863 
L 1159 4863 
L 1159 2969 
z
" transform="scale(0.015625)"/>
       <path id="DejaVuSans-5d" d="M 1947 4863 
L 1947 -844 
L 622 -844 
L 622 -397 
L 1369 -397 
L 1369 4416 
L 622 4416 
L 622 4863 
L 1947 4863 
z
" transform="scale(0.015625)"/>
      </defs>
      <use xlink:href="#DejaVuSans-47"/>
      <use xlink:href="#DejaVuSans-61" x="77.490234"/>
      <use xlink:href="#DejaVuSans-73" x="138.769531"/>
      <use xlink:href="#DejaVuSans-6b" x="190.869141"/>
      <use xlink:href="#DejaVuSans-fc" x="245.654297"/>
      <use xlink:href="#DejaVuSans-68" x="309.033203"/>
      <use xlink:href="#DejaVuSans-6c" x="372.412109"/>
      <use xlink:href="#DejaVuSans-65" x="400.195312"/>
      <use xlink:href="#DejaVuSans-72" x="461.71875"/>
      <use xlink:href="#DejaVuSans-64" x="501.082031"/>
      <use xlink:href="#DejaVuSans-72" x="564.558594"/>
      <use xlink:href="#DejaVuSans-75" x="605.671875"/>
      <use xlink:href="#DejaVuSans-63" x="669.050781"/>
      <use xlink:href="#DejaVuSans-6b" x="724.03125"/>
      <use xlink:href="#DejaVuSans-20" x="781.941406"/>
      <use xlink:href="#DejaVuSans-5b" x="813.728516"/>
      <use xlink:href="#DejaVuSans-62" x="852.742188"/>
      <use xlink:href="#DejaVuSans-61" x="916.21875"/>
      <use xlink:href="#DejaVuSans-72" x="977.498047"/>
      <use xlink:href="#DejaVuSans-5d" x="1018.611328"/>
     </g>
    </g>
   </g>
   <g id="matplotlib.axis_2">
    <g id="ytick_1">
     <g id="line2d_21">
      <path d="M 180 767.52 
L 1296 767.52 
" clip-path="url(#pf78dece437)" style="fill: none; stroke: #b0b0b0; stroke-width: 0.8; stroke-linecap: square"/>
     </g>
     <g id="line2d_22">
      <defs>
       <path id="m4956e29be1" d="M 0 0 
L -3.5 0 
" style="stroke: #000000; stroke-width: 0.8"/>
      </defs>
      <g>
       <use xlink:href="#m4956e29be1" x="180" y="767.52" style="stroke: #000000; stroke-width: 0.8"/>
      </g>
     </g>
     <g id="text_12">
      <!-- 69 -->
      <g transform="translate(147.55 775.118438) scale(0.2 -0.2)">
       <defs>
        <path id="DejaVuSans-39" d="M 703 97 
L 703 672 
Q 941 559 1184 500 
Q 1428 441 1663 441 
Q 2288 441 2617 861 
Q 2947 1281 2994 2138 
Q 2813 1869 2534 1725 
Q 2256 1581 1919 1581 
Q 1219 1581 811 2004 
Q 403 2428 403 3163 
Q 403 3881 828 4315 
Q 1253 4750 1959 4750 
Q 2769 4750 3195 4129 
Q 3622 3509 3622 2328 
Q 3622 1225 3098 567 
Q 2575 -91 1691 -91 
Q 1453 -91 1209 -44 
Q 966 3 703 97 
z
M 1959 2075 
Q 2384 2075 2632 2365 
Q 2881 2656 2881 3163 
Q 2881 3666 2632 3958 
Q 2384 4250 1959 4250 
Q 1534 4250 1286 3958 
Q 1038 3666 1038 3163 
Q 1038 2656 1286 2365 
Q 1534 2075 1959 2075 
z
" transform="scale(0.015625)"/>
       </defs>
       <use xlink:href="#DejaVuSans-36"/>
       <use xlink:href="#DejaVuSans-39" x="63.623047"/>
      </g>
     </g>
    </g>
    <g id="ytick_2">
     <g id="line2d_23">
      <path d="M 180 636.48 
L 1296 636.48 
" clip-path="url(#pf78dece437)" style="fill: none; stroke: #b0b0b0; stroke-width: 0.8; stroke-linecap: square"/>
     </g>
     <g id="line2d_24">
      <g>
       <use xlink:href="#m4956e29be1" x="180" y="636.48" style="stroke: #000000; stroke-width: 0.8"/>
      </g>
     </g>
     <g id="text_13">
      <!-- 70 -->
      <g transform="translate(147.55 644.078438) scale(0.2 -0.2)">
       <use xlink:href="#DejaVuSans-37"/>
       <use xlink:href="#DejaVuSans-30" x="63.623047"/>
      </g>
     </g>
    </g>
    <g id="ytick_3">
     <g id="line2d_25">
      <path d="M 180 505.44 
L 1296 505.44 
" clip-path="url(#pf78dece437)" style="fill: none; stroke: #b0b0b0; stroke-width: 0.8; stroke-linecap: square"/>
     </g>
     <g id="line2d_26">
      <g>
       <use xlink:href="#m4956e29be1" x="180" y="505.44" style="stroke: #000000; stroke-width: 0.8"/>
      </g>
     </g>
     <g id="text_14">
      <!-- 71 -->
      <g transform="translate(147.55 513.038438) scale(0.2 -0.2)">
       <defs>
        <path id="DejaVuSans-31" d="M 794 531 
L 1825 531 
L 1825 4091 
L 703 3866 
L 703 4441 
L 1819 4666 
L 2450 4666 
L 2450 531 
L 3481 531 
L 3481 0 
L 794 0 
L 794 531 
z
" transform="scale(0.015625)"/>
       </defs>
       <use xlink:href="#DejaVuSans-37"/>
       <use xlink:href="#DejaVuSans-31" x="63.623047"/>
      </g>
     </g>
    </g>
    <g id="ytick_4">
     <g id="line2d_27">
      <path d="M 180 374.4 
L 1296 374.4 
" clip-path="url(#pf78dece437)" style="fill: none; stroke: #b0b0b0; stroke-width: 0.8; stroke-linecap: square"/>
     </g>
     <g id="line2d_28">
      <g>
       <use xlink:href="#m4956e29be1" x="180" y="374.4" style="stroke: #000000; stroke-width: 0.8"/>
      </g>
     </g>
     <g id="text_15">
      <!-- 72 -->
      <g transform="translate(147.55 381.998438) scale(0.2 -0.2)">
       <use xlink:href="#DejaVuSans-37"/>
       <use xlink:href="#DejaVuSans-32" x="63.623047"/>
      </g>
     </g>
    </g>
    <g id="ytick_5">
     <g id="line2d_29">
      <path d="M 180 243.36 
L 1296 243.36 
" clip-path="url(#pf78dece437)" style="fill: none; stroke: #b0b0b0; stroke-width: 0.8; stroke-linecap: square"/>
     </g>
     <g id="line2d_30">
      <g>
       <use xlink:href="#m4956e29be1" x="180" y="243.36" style="stroke: #000000; stroke-width: 0.8"/>
      </g>
     </g>
     <g id="text_16">
      <!-- 73 -->
      <g transform="translate(147.55 250.958438) scale(0.2 -0.2)">
       <use xlink:href="#DejaVuSans-37"/>
       <use xlink:href="#DejaVuSans-33" x="63.623047"/>
      </g>
     </g>
    </g>
    <g id="ytick_6">
     <g id="line2d_31">
      <path d="M 180 112.32 
L 1296 112.32 
" clip-path="url(#pf78dece437)" style="fill: none; stroke: #b0b0b0; stroke-width: 0.8; stroke-linecap: square"/>
     </g>
     <g id="line2d_32">
      <g>
       <use xlink:href="#m4956e29be1" x="180" y="112.32" style="stroke: #000000; stroke-width: 0.8"/>
      </g>
     </g>
     <g id="text_17">
      <!-- 74 -->
      <g transform="translate(147.55 119.918438) scale(0.2 -0.2)">
       <use xlink:href="#DejaVuSans-37"/>
       <use xlink:href="#DejaVuSans-34" x="63.623047"/>
      </g>
     </g>
    </g>
    <g id="text_18">
     <!-- exergetischer Wirkungsgrad [%] -->
     <g transform="translate(139.390625 633.722188) rotate(-90) scale(0.2 -0.2)">
      <defs>
       <path id="DejaVuSans-78" d="M 3513 3500 
L 2247 1797 
L 3578 0 
L 2900 0 
L 1881 1375 
L 863 0 
L 184 0 
L 1544 1831 
L 300 3500 
L 978 3500 
L 1906 2253 
L 2834 3500 
L 3513 3500 
z
" transform="scale(0.015625)"/>
       <path id="DejaVuSans-67" d="M 2906 1791 
Q 2906 2416 2648 2759 
Q 2391 3103 1925 3103 
Q 1463 3103 1205 2759 
Q 947 2416 947 1791 
Q 947 1169 1205 825 
Q 1463 481 1925 481 
Q 2391 481 2648 825 
Q 2906 1169 2906 1791 
z
M 3481 434 
Q 3481 -459 3084 -895 
Q 2688 -1331 1869 -1331 
Q 1566 -1331 1297 -1286 
Q 1028 -1241 775 -1147 
L 775 -588 
Q 1028 -725 1275 -790 
Q 1522 -856 1778 -856 
Q 2344 -856 2625 -561 
Q 2906 -266 2906 331 
L 2906 616 
Q 2728 306 2450 153 
Q 2172 0 1784 0 
Q 1141 0 747 490 
Q 353 981 353 1791 
Q 353 2603 747 3093 
Q 1141 3584 1784 3584 
Q 2172 3584 2450 3431 
Q 2728 3278 2906 2969 
L 2906 3500 
L 3481 3500 
L 3481 434 
z
" transform="scale(0.015625)"/>
       <path id="DejaVuSans-74" d="M 1172 4494 
L 1172 3500 
L 2356 3500 
L 2356 3053 
L 1172 3053 
L 1172 1153 
Q 1172 725 1289 603 
Q 1406 481 1766 481 
L 2356 481 
L 2356 0 
L 1766 0 
Q 1100 0 847 248 
Q 594 497 594 1153 
L 594 3053 
L 172 3053 
L 172 3500 
L 594 3500 
L 594 4494 
L 1172 4494 
z
" transform="scale(0.015625)"/>
       <path id="DejaVuSans-69" d="M 603 3500 
L 1178 3500 
L 1178 0 
L 603 0 
L 603 3500 
z
M 603 4863 
L 1178 4863 
L 1178 4134 
L 603 4134 
L 603 4863 
z
" transform="scale(0.015625)"/>
       <path id="DejaVuSans-57" d="M 213 4666 
L 850 4666 
L 1831 722 
L 2809 4666 
L 3519 4666 
L 4500 722 
L 5478 4666 
L 6119 4666 
L 4947 0 
L 4153 0 
L 3169 4050 
L 2175 0 
L 1381 0 
L 213 4666 
z
" transform="scale(0.015625)"/>
       <path id="DejaVuSans-6e" d="M 3513 2113 
L 3513 0 
L 2938 0 
L 2938 2094 
Q 2938 2591 2744 2837 
Q 2550 3084 2163 3084 
Q 1697 3084 1428 2787 
Q 1159 2491 1159 1978 
L 1159 0 
L 581 0 
L 581 3500 
L 1159 3500 
L 1159 2956 
Q 1366 3272 1645 3428 
Q 1925 3584 2291 3584 
Q 2894 3584 3203 3211 
Q 3513 2838 3513 2113 
z
" transform="scale(0.015625)"/>
       <path id="DejaVuSans-25" d="M 4653 2053 
Q 4381 2053 4226 1822 
Q 4072 1591 4072 1178 
Q 4072 772 4226 539 
Q 4381 306 4653 306 
Q 4919 306 5073 539 
Q 5228 772 5228 1178 
Q 5228 1588 5073 1820 
Q 4919 2053 4653 2053 
z
M 4653 2450 
Q 5147 2450 5437 2106 
Q 5728 1763 5728 1178 
Q 5728 594 5436 251 
Q 5144 -91 4653 -91 
Q 4153 -91 3862 251 
Q 3572 594 3572 1178 
Q 3572 1766 3864 2108 
Q 4156 2450 4653 2450 
z
M 1428 4353 
Q 1159 4353 1004 4120 
Q 850 3888 850 3481 
Q 850 3069 1003 2837 
Q 1156 2606 1428 2606 
Q 1700 2606 1854 2837 
Q 2009 3069 2009 3481 
Q 2009 3884 1853 4118 
Q 1697 4353 1428 4353 
z
M 4250 4750 
L 4750 4750 
L 1831 -91 
L 1331 -91 
L 4250 4750 
z
M 1428 4750 
Q 1922 4750 2215 4408 
Q 2509 4066 2509 3481 
Q 2509 2891 2217 2550 
Q 1925 2209 1428 2209 
Q 931 2209 642 2551 
Q 353 2894 353 3481 
Q 353 4063 643 4406 
Q 934 4750 1428 4750 
z
" transform="scale(0.015625)"/>
      </defs>
      <use xlink:href="#DejaVuSans-65"/>
      <use xlink:href="#DejaVuSans-78" x="59.773438"/>
      <use xlink:href="#DejaVuSans-65" x="115.828125"/>
      <use xlink:href="#DejaVuSans-72" x="177.351562"/>
      <use xlink:href="#DejaVuSans-67" x="216.714844"/>
      <use xlink:href="#DejaVuSans-65" x="280.191406"/>
      <use xlink:href="#DejaVuSans-74" x="341.714844"/>
      <use xlink:href="#DejaVuSans-69" x="380.923828"/>
      <use xlink:href="#DejaVuSans-73" x="408.707031"/>
      <use xlink:href="#DejaVuSans-63" x="460.806641"/>
      <use xlink:href="#DejaVuSans-68" x="515.787109"/>
      <use xlink:href="#DejaVuSans-65" x="579.166016"/>
      <use xlink:href="#DejaVuSans-72" x="640.689453"/>
      <use xlink:href="#DejaVuSans-20" x="681.802734"/>
      <use xlink:href="#DejaVuSans-57" x="713.589844"/>
      <use xlink:href="#DejaVuSans-69" x="810.216797"/>
      <use xlink:href="#DejaVuSans-72" x="838"/>
      <use xlink:href="#DejaVuSans-6b" x="879.113281"/>
      <use xlink:href="#DejaVuSans-75" x="933.898438"/>
      <use xlink:href="#DejaVuSans-6e" x="997.277344"/>
      <use xlink:href="#DejaVuSans-67" x="1060.65625"/>
      <use xlink:href="#DejaVuSans-73" x="1124.132812"/>
      <use xlink:href="#DejaVuSans-67" x="1176.232422"/>
      <use xlink:href="#DejaVuSans-72" x="1239.708984"/>
      <use xlink:href="#DejaVuSans-61" x="1280.822266"/>
      <use xlink:href="#DejaVuSans-64" x="1342.101562"/>
      <use xlink:href="#DejaVuSans-20" x="1405.578125"/>
      <use xlink:href="#DejaVuSans-5b" x="1437.365234"/>
      <use xlink:href="#DejaVuSans-25" x="1476.378906"/>
      <use xlink:href="#DejaVuSans-5d" x="1571.398438"/>
     </g>
    </g>
   </g>
   <g id="line2d_33">
    <path d="M 219.68 783.680719 
L 233.304304 588.070981 
L 246.928608 480.389949 
L 260.552911 424.916635 
L 274.177215 394.525666 
L 287.801519 377.300659 
L 301.425823 367.784675 
L 315.050127 363.178702 
L 328.67443 361.898158 
L 342.298734 362.973971 
L 355.923038 365.776834 
L 369.547342 369.878304 
L 383.171646 374.975442 
L 396.795949 380.847342 
L 410.420253 387.328783 
L 424.044557 394.293538 
L 437.668861 401.643431 
L 451.293165 409.300931 
L 464.917468 417.204007 
L 478.541772 425.302473 
L 492.166076 433.555321 
L 505.79038 441.928771 
L 519.414684 450.394782 
L 533.038987 458.929935 
L 546.663291 467.514566 
L 560.287595 476.132073 
L 573.911899 484.768401 
L 587.536203 493.4116 
L 601.160506 502.051483 
L 614.78481 510.67935 
L 628.409114 519.287755 
L 642.033418 527.870324 
L 655.657722 536.421591 
L 669.282025 544.936876 
L 682.906329 553.412169 
L 696.530633 561.844047 
L 710.154937 570.229586 
L 723.779241 578.566301 
L 737.403544 586.852091 
L 751.027848 595.085185 
L 764.652152 603.264105 
L 778.276456 611.387628 
L 791.900759 619.454755 
L 805.525063 627.464684 
L 819.149367 635.416786 
L 832.773671 643.310586 
L 846.397975 651.145744 
L 860.022278 658.922038 
L 873.646582 666.63935 
L 887.270886 674.297658 
L 900.89519 681.897022 
L 914.519494 689.437565 
L 928.143797 696.919485 
L 941.768101 704.343031 
L 955.392405 711.708502 
L 969.016709 719.016242 
L 982.641013 726.26663 
L 996.265316 733.460081 
L 1009.88962 740.597039 
L 1023.513924 747.677971 
L 1037.138228 754.703367 
L 1050.762532 761.673737 
L 1064.386835 768.589609 
L 1078.011139 775.451515 
L 1091.635443 782.260008 
L 1105.259747 789.015648 
L 1118.884051 795.719002 
L 1132.508354 802.370643 
L 1146.132658 808.971149 
L 1159.756962 815.521103 
L 1173.381266 822.021086 
L 1187.00557 828.471685 
L 1200.629873 834.873483 
L 1214.254177 841.227067 
L 1227.878481 847.533018 
L 1241.502785 853.791918 
L 1255.127089 860.004347 
L 1268.751392 866.170879 
L 1282.375696 872.292087 
L 1296 878.368539 
" clip-path="url(#pf78dece437)" style="fill: none; stroke: #000000; stroke-width: 1.5; stroke-linecap: square"/>
   </g>
   <g id="line2d_34">
    <path d="M 270.272 299.078515 
L 283.255899 279.321777 
L 296.239797 267.913919 
L 309.223696 261.803468 
L 322.207595 259.271468 
L 335.191494 259.271856 
L 348.175392 261.128254 
L 361.159291 264.381802 
L 374.14319 268.708976 
L 387.127089 273.874383 
L 400.110987 279.70225 
L 413.094886 286.058442 
L 426.078785 292.838701 
L 439.062684 299.960718 
L 452.046582 307.358628 
L 465.030481 314.979112 
L 478.01438 322.778574 
L 490.998278 330.721045 
L 503.982177 338.776634 
L 516.966076 346.920323 
L 529.949975 355.131052 
L 542.933873 363.391012 
L 555.917772 371.685057 
L 568.901671 380.000276 
L 581.88557 388.325622 
L 594.869468 396.651612 
L 607.853367 404.970094 
L 620.837266 413.274045 
L 633.821165 421.55741 
L 646.805063 429.814962 
L 659.788962 438.042191 
L 672.772861 446.235201 
L 685.756759 454.39064 
L 698.740658 462.505617 
L 711.724557 470.577652 
L 724.708456 478.604621 
L 737.692354 486.584714 
L 750.676253 494.516393 
L 763.660152 502.398366 
L 776.644051 510.229551 
L 789.627949 518.009059 
L 802.611848 525.736163 
L 815.595747 533.410288 
L 828.579646 541.030986 
L 841.563544 548.597928 
L 854.547443 556.110887 
L 867.531342 563.569727 
L 880.515241 570.974395 
L 893.499139 578.324913 
L 906.483038 585.621354 
L 919.466937 592.863861 
L 932.450835 600.052624 
L 945.434734 607.187876 
L 958.418633 614.269891 
L 971.402532 621.298977 
L 984.38643 628.275474 
L 997.370329 635.199748 
L 1010.354228 642.07219 
L 1023.338127 648.89321 
L 1036.322025 655.663237 
L 1049.305924 662.382716 
L 1062.289823 669.052105 
L 1075.273722 675.671879 
L 1088.25762 682.242508 
L 1101.241519 688.764486 
L 1114.225418 695.238306 
L 1127.209316 701.664468 
L 1140.193215 708.043478 
L 1153.177114 714.375841 
L 1166.161013 720.662069 
L 1179.144911 726.902673 
L 1192.12881 733.098163 
L 1205.112709 739.249053 
L 1218.096608 745.355853 
L 1231.080506 751.419074 
L 1244.064405 757.439222 
L 1257.048304 763.416804 
L 1270.032203 769.352324 
L 1283.016101 775.246281 
L 1296 781.099173 
" clip-path="url(#pf78dece437)" style="fill: none; stroke: #000000; stroke-width: 1.5; stroke-linecap: square"/>
   </g>
   <g id="line2d_35">
    <path d="M 383.36 169.852612 
L 394.912405 174.613432 
L 406.46481 179.859174 
L 418.017215 185.504025 
L 429.56962 191.478842 
L 441.122025 197.727269 
L 452.67443 204.202904 
L 464.226835 210.867196 
L 475.779241 217.68787 
L 487.331646 224.637709 
L 498.884051 231.693627 
L 510.436456 238.835927 
L 521.988861 246.047726 
L 533.541266 253.314487 
L 545.093671 260.623651 
L 556.646076 267.964313 
L 568.198481 275.327002 
L 579.750886 282.703453 
L 591.303291 290.086442 
L 602.855696 297.469644 
L 614.408101 304.847512 
L 625.960506 312.215174 
L 637.512911 319.568348 
L 649.065316 326.90327 
L 660.617722 334.216626 
L 672.170127 341.505502 
L 683.722532 348.767338 
L 695.274937 355.999884 
L 706.827342 363.201164 
L 718.379747 370.369449 
L 729.932152 377.503228 
L 741.484557 384.601186 
L 753.036962 391.66218 
L 764.589367 398.685223 
L 776.141772 405.669466 
L 787.694177 412.614187 
L 799.246582 419.518774 
L 810.798987 426.382718 
L 822.351392 433.205598 
L 833.903797 439.987076 
L 845.456203 446.726886 
L 857.008608 453.42483 
L 868.561013 460.080768 
L 880.113418 466.694614 
L 891.665823 473.266335 
L 903.218228 479.795928 
L 914.770633 486.283443 
L 926.323038 492.728961 
L 937.875443 499.132596 
L 949.427848 505.494487 
L 960.980253 511.814803 
L 972.532658 518.093735 
L 984.085063 524.331493 
L 995.637468 530.528308 
L 1007.189873 536.684426 
L 1018.742278 542.80011 
L 1030.294684 548.875634 
L 1041.847089 554.911285 
L 1053.399494 560.90736 
L 1064.951899 566.864169 
L 1076.504304 572.78202 
L 1088.056709 578.661236 
L 1099.609114 584.502147 
L 1111.161519 590.305083 
L 1122.713924 596.070384 
L 1134.266329 601.798389 
L 1145.818734 607.489442 
L 1157.371139 613.14389 
L 1168.923544 618.76208 
L 1180.475949 624.344363 
L 1192.028354 629.891089 
L 1203.580759 635.40261 
L 1215.133165 640.879275 
L 1226.68557 646.321436 
L 1238.237975 651.729444 
L 1249.79038 657.103648 
L 1261.342785 662.444397 
L 1272.89519 667.752037 
L 1284.447595 673.026915 
L 1296 678.269374 
" clip-path="url(#pf78dece437)" style="fill: none; stroke: #000000; stroke-width: 1.5; stroke-linecap: square"/>
   </g>
   <g id="line2d_36">
    <path d="M 537.12 153.786848 
L 552.607347 163.403 
L 568.094694 173.083383 
L 583.582041 182.805621 
L 599.069388 192.550972 
L 614.556735 202.30368 
L 630.044082 212.050461 
L 645.531429 221.780091 
L 661.018776 231.483074 
L 676.506122 241.151361 
L 691.993469 250.778143 
L 707.480816 260.35765 
L 722.968163 269.885009 
L 738.45551 279.356112 
L 753.942857 288.767507 
L 769.430204 298.116312 
L 784.917551 307.400132 
L 800.404898 316.616999 
L 815.892245 325.765312 
L 831.379592 334.843791 
L 846.866939 343.851436 
L 862.354286 352.787489 
L 877.841633 361.651404 
L 893.32898 370.442827 
L 908.816327 379.161551 
L 924.303673 387.807525 
L 939.79102 396.380817 
L 955.278367 404.881603 
L 970.765714 413.310155 
L 986.253061 421.666826 
L 1001.740408 429.95204 
L 1017.227755 438.166285 
L 1032.715102 446.310102 
L 1048.202449 454.384079 
L 1063.689796 462.388849 
L 1079.177143 470.325064 
L 1094.66449 478.193422 
L 1110.151837 485.994639 
L 1125.639184 493.729451 
L 1141.126531 501.398614 
L 1156.613878 509.002893 
L 1172.101224 516.543069 
L 1187.588571 524.01993 
L 1203.075918 531.434267 
L 1218.563265 538.78688 
L 1234.050612 546.078569 
L 1249.537959 553.310135 
L 1265.025306 560.482377 
L 1280.512653 567.596096 
L 1296 574.652087 
" clip-path="url(#pf78dece437)" style="fill: none; stroke: #000000; stroke-width: 1.5; stroke-linecap: square"/>
   </g>
   <g id="line2d_37">
    <path d="M 710.72 164.197399 
L 722.66449 171.51915 
L 734.60898 178.810172 
L 746.553469 186.068679 
L 758.497959 193.293103 
L 770.442449 200.482075 
L 782.386939 207.634399 
L 794.331429 214.749042 
L 806.275918 221.825109 
L 818.220408 228.861835 
L 830.164898 235.858568 
L 842.109388 242.814761 
L 854.053878 249.729959 
L 865.998367 256.603791 
L 877.942857 263.435964 
L 889.887347 270.226254 
L 901.831837 276.974489 
L 913.776327 283.680563 
L 925.720816 290.344419 
L 937.665306 296.966044 
L 949.609796 303.545465 
L 961.554286 310.082749 
L 973.498776 316.577993 
L 985.443265 323.031328 
L 997.387755 329.442909 
L 1009.332245 335.812917 
L 1021.276735 342.141555 
L 1033.221224 348.429047 
L 1045.165714 354.675632 
L 1057.110204 360.881567 
L 1069.054694 367.047126 
L 1080.999184 373.172585 
L 1092.943673 379.258243 
L 1104.888163 385.304404 
L 1116.832653 391.311382 
L 1128.777143 397.279496 
L 1140.721633 403.209076 
L 1152.666122 409.100454 
L 1164.610612 414.953969 
L 1176.555102 420.769963 
L 1188.499592 426.548782 
L 1200.444082 432.290775 
L 1212.388571 437.996293 
L 1224.333061 443.66569 
L 1236.277551 449.299318 
L 1248.222041 454.897533 
L 1260.166531 460.460691 
L 1272.11102 465.989146 
L 1284.05551 471.483253 
L 1296 476.943367 
" clip-path="url(#pf78dece437)" style="fill: none; stroke: #000000; stroke-width: 1.5; stroke-linecap: square"/>
   </g>
   <g id="line2d_38">
    <path d="M 904.16 182.749711 
L 909.12 185.54192 
L 914.08 188.326993 
L 919.04 191.104925 
L 924 193.875709 
L 928.96 196.639342 
L 933.92 199.395823 
L 938.88 202.145149 
L 943.84 204.887322 
L 948.8 207.622342 
L 953.76 210.350212 
L 958.72 213.070936 
L 963.68 215.784517 
L 968.64 218.490963 
L 973.6 221.190278 
L 978.56 223.882471 
L 983.52 226.56755 
L 988.48 229.245523 
L 993.44 231.916402 
L 998.4 234.580196 
L 1003.36 237.236917 
L 1008.32 239.886577 
L 1013.28 242.529189 
L 1018.24 245.164767 
L 1023.2 247.793323 
L 1028.16 250.414874 
L 1033.12 253.029434 
L 1038.08 255.637018 
L 1043.04 258.237644 
L 1048 260.831328 
L 1052.96 263.418087 
L 1057.92 265.997939 
L 1062.88 268.570902 
L 1067.84 271.136999 
L 1072.8 273.696239 
L 1077.76 276.248648 
L 1082.72 278.794244 
L 1087.68 281.333047 
L 1092.64 283.865078 
L 1097.6 286.390358 
L 1102.56 288.908906 
L 1107.52 291.420745 
L 1112.48 293.925896 
L 1117.44 296.42438 
L 1122.4 298.91622 
L 1127.36 301.401438 
L 1132.32 303.880056 
L 1137.28 306.352096 
L 1142.24 308.817582 
L 1147.2 311.276536 
L 1152.16 313.728981 
L 1157.12 316.174942 
L 1162.08 318.61444 
L 1167.04 321.0475 
L 1172 323.474146 
L 1176.96 325.894401 
L 1181.92 328.308289 
L 1186.88 330.715835 
L 1191.84 333.117062 
L 1196.8 335.511994 
L 1201.76 337.900656 
L 1206.72 340.283073 
L 1211.68 342.659268 
L 1216.64 345.029267 
L 1221.6 347.393093 
L 1226.56 349.750772 
L 1231.52 352.102327 
L 1236.48 354.447785 
L 1241.44 356.787169 
L 1246.4 359.120504 
L 1251.36 361.447815 
L 1256.32 363.769127 
L 1261.28 366.084464 
L 1266.24 368.393852 
L 1271.2 370.697315 
L 1276.16 372.994878 
L 1281.12 375.286566 
L 1286.08 377.572404 
L 1291.04 379.852415 
L 1296 382.126626 
" clip-path="url(#pf78dece437)" style="fill: none; stroke: #000000; stroke-width: 1.5; stroke-linecap: square"/>
   </g>
   <g id="line2d_39">
    <path d="M 1117.44 203.202136 
L 1121.084082 205.041597 
L 1124.728163 206.877501 
L 1128.372245 208.709857 
L 1132.016327 210.538673 
L 1135.660408 212.363957 
L 1139.30449 214.185718 
L 1142.948571 216.003966 
L 1146.592653 217.818708 
L 1150.236735 219.629954 
L 1153.880816 221.437712 
L 1157.524898 223.241991 
L 1161.16898 225.042801 
L 1164.813061 226.84015 
L 1168.457143 228.634047 
L 1172.101224 230.424502 
L 1175.745306 232.211524 
L 1179.389388 233.995121 
L 1183.033469 235.775304 
L 1186.677551 237.55208 
L 1190.321633 239.325461 
L 1193.965714 241.095454 
L 1197.609796 242.862069 
L 1201.253878 244.625316 
L 1204.897959 246.385204 
L 1208.542041 248.141743 
L 1212.186122 249.894941 
L 1215.830204 251.644809 
L 1219.474286 253.391355 
L 1223.118367 255.13459 
L 1226.762449 256.874523 
L 1230.406531 258.611163 
L 1234.050612 260.34452 
L 1237.694694 262.074604 
L 1241.338776 263.801424 
L 1244.982857 265.524989 
L 1248.626939 267.24531 
L 1252.27102 268.962396 
L 1255.915102 270.676256 
L 1259.559184 272.3869 
L 1263.203265 274.094339 
L 1266.847347 275.798581 
L 1270.491429 277.499636 
L 1274.13551 279.197514 
L 1277.779592 280.892224 
L 1281.423673 282.583776 
L 1285.067755 284.27218 
L 1288.711837 285.957445 
L 1292.355918 287.639581 
L 1296 289.318598 
" clip-path="url(#pf78dece437)" style="fill: none; stroke: #000000; stroke-width: 1.5; stroke-linecap: square"/>
   </g>
   <g id="line2d_40">
    <path d="M 269.343031 403.359778 
L 277.884573 378.499118 
L 287.085205 357.321465 
L 296.893231 339.31628 
L 307.255367 324.022366 
L 318.120767 311.036801 
L 329.443081 300.014824 
L 341.181203 290.66498 
L 353.299286 282.742403 
L 365.766372 276.041815 
L 378.55587 270.391057 
L 391.644994 265.645429 
L 405.014235 261.682935 
L 418.646881 258.400317 
L 432.520276 255.712093 
L 446.638044 253.5388 
L 461.469273 251.717465 
L 477.106267 250.263204 
L 492.806233 249.255209 
L 509.383892 248.640195 
L 525.999727 248.389157 
L 542.60031 248.404001 
L 559.468789 248.678484 
L 576.598542 249.186114 
L 593.983758 249.903285 
L 611.619361 250.808942 
L 629.185671 251.779195 
L 647.216946 252.967254 
L 665.319498 254.228193 
L 683.645446 255.600112 
L 702.020839 257.004436 
L 720.784611 258.561246 
L 739.587159 260.124379 
L 758.600339 261.752931 
L 777.812716 263.435052 
L 797.246912 265.173725 
L 816.695063 266.874682 
L 836.548319 268.698404 
L 856.409166 270.47052 
L 876.47606 272.271282 
L 896.750435 274.097338 
L 917.233972 275.945763 
L 937.928489 277.81399 
L 958.610617 279.603089 
L 979.729386 281.50289 
L 1001.065759 283.41678 
L 1022.384814 285.24232 
L 1043.918626 287.076848 
L 1065.916002 289.022597 
L 1087.892414 290.87373 
L 1110.092791 292.731877 
L 1132.779051 294.703463 
L 1155.240052 296.493074 
L 1178.145169 298.375743 
L 1201.289306 300.265287 
L 1224.676599 302.162012 
L 1248.311375 304.066348 
L 1272.23402 305.993032 
L 1296.378128 307.914499 
L 1320.487408 309.730127 
L 1345.155132 311.670525 
" clip-path="url(#pf78dece437)" style="fill: none; stroke-dasharray: 5.55,2.4; stroke-dashoffset: 0; stroke: #ff0000; stroke-width: 1.5"/>
   </g>
   <g id="line2d_41">
    <path d="M 378.55587 373.162776 
L 391.644994 368.231926 
L 405.014235 364.076697 
L 418.646881 360.594988 
L 432.5286 357.700027 
L 446.647088 355.317749 
L 460.991767 353.38466 
L 475.55353 351.846115 
L 490.324534 350.654877 
L 505.298021 349.769975 
L 520.468186 349.155739 
L 535.829982 348.78098 
L 551.37912 348.618376 
L 567.111914 348.643917 
L 583.0103 348.838216 
L 599.100852 349.178949 
L 616.171964 349.576717 
L 634.302935 350.079744 
L 652.284651 350.763304 
L 671.391089 351.624449 
L 690.338922 352.636965 
L 709.092044 353.733694 
L 728.085232 354.931941 
L 747.316808 356.222628 
L 766.785473 357.597592 
L 786.490293 359.049499 
L 806.00909 360.475811 
L 826.066797 362.026524 
L 846.141912 363.577722 
L 866.441374 365.171647 
L 886.743938 366.743986 
L 907.491253 368.408993 
L 928.236426 370.040183 
L 949.203386 371.695594 
L 970.37977 373.368819 
L 991.796049 375.066413 
L 1013.194547 376.707038 
L 1035.065864 378.438342 
L 1056.916647 380.106185 
L 1078.995817 381.785483 
L 1101.306501 383.475656 
L 1123.852016 385.176324 
L 1146.635874 386.887275 
L 1169.386403 388.52053 
L 1192.653954 390.250318 
L 1216.171534 391.990683 
L 1239.654708 393.649485 
L 1263.387535 395.316859 
L 1287.67288 397.08822 
L 1311.923758 398.775801 
L 1336.438634 400.474069 
L 1361.535646 402.282927 
L 1386.354903 403.929496 
L 1411.707864 405.669955 
L 1437.347312 407.42536 
L 1441 407.674902 
" clip-path="url(#pf78dece437)" style="fill: none; stroke-dasharray: 5.55,2.4; stroke-dashoffset: 0; stroke: #ffa500; stroke-width: 1.5"/>
   </g>
   <g id="line2d_42">
    <path d="M 520.468186 451.07885 
L 535.829982 450.473836 
L 551.37912 450.079793 
L 567.111914 449.872979 
L 583.025221 449.832459 
L 599.116376 449.939733 
L 615.383141 450.178416 
L 631.823655 450.533966 
L 648.4364 450.993453 
L 665.220163 451.545359 
L 682.174007 452.179414 
L 699.297248 452.886449 
L 716.589432 453.658263 
L 734.050318 454.487527 
L 751.659152 455.369054 
L 769.456921 456.294195 
L 788.513075 457.200735 
L 808.899523 458.136004 
L 828.986007 459.162924 
L 850.462071 460.294028 
L 871.636193 461.504809 
L 892.481346 462.742924 
L 913.569853 464.031063 
L 934.902669 465.365943 
L 956.481005 466.744658 
L 978.306405 468.164699 
L 999.853783 469.537842 
L 1022.034385 471.001898 
L 1044.198981 472.448794 
L 1066.608021 473.919175 
L 1088.99087 475.357707 
L 1111.893788 476.869531 
L 1134.768894 478.342861 
L 1157.893267 479.831924 
L 1181.253264 481.332797 
L 1204.887449 482.85319 
L 1228.483952 484.320526 
L 1252.640737 485.870993 
L 1276.759895 487.365069 
L 1301.145111 488.872505 
L 1325.801366 490.394057 
L 1350.733869 491.930584 
L 1375.948068 493.483051 
L 1401.116846 494.970364 
L 1426.906584 496.556067 
L 1441 497.423138 
" clip-path="url(#pf78dece437)" style="fill: none; stroke-dasharray: 5.55,2.4; stroke-dashoffset: 0; stroke: #008000; stroke-width: 1.5"/>
   </g>
   <g id="line2d_43">
    <path d="M 682.174007 552.992551 
L 699.297248 553.460253 
L 716.589433 553.993174 
L 734.050318 554.58406 
L 751.679857 555.226418 
L 769.478186 555.914435 
L 787.445609 556.642907 
L 805.582589 557.407177 
L 823.88974 558.203078 
L 842.367818 559.026887 
L 861.017716 559.875279 
L 879.840455 560.745295 
L 898.837183 561.634307 
L 918.009167 562.539972 
L 937.331493 563.461446 
L 956.857696 564.394487 
L 977.932868 565.286323 
L 1000.627972 566.180719 
L 1022.897017 567.137496 
L 1046.845224 568.169635 
L 1070.370816 569.259643 
L 1093.451407 570.363245 
L 1116.798019 571.502627 
L 1140.413819 572.677051 
L 1164.302258 573.885998 
L 1188.467073 575.129155 
L 1212.272004 576.328126 
L 1236.827638 577.609636 
L 1261.346746 578.876834 
L 1286.147377 580.16818 
L 1310.903791 581.433901 
L 1336.278325 582.77241 
L 1361.610115 584.08129 
L 1387.235576 585.411888 
L 1413.139616 586.761637 
L 1439.370153 588.138849 
L 1441 588.222066 
" clip-path="url(#pf78dece437)" style="fill: none; stroke-dasharray: 5.55,2.4; stroke-dashoffset: 0; stroke: #4682b4; stroke-width: 1.5"/>
   </g>
   <g id="patch_3">
    <path d="M 180 833.04 
L 180 112.32 
" style="fill: none; stroke: #000000; stroke-width: 0.8; stroke-linejoin: miter; stroke-linecap: square"/>
   </g>
   <g id="patch_4">
    <path d="M 1296 833.04 
L 1296 112.32 
" style="fill: none; stroke: #000000; stroke-width: 0.8; stroke-linejoin: miter; stroke-linecap: square"/>
   </g>
   <g id="patch_5">
    <path d="M 180 833.04 
L 1296 833.04 
" style="fill: none; stroke: #000000; stroke-width: 0.8; stroke-linejoin: miter; stroke-linecap: square"/>
   </g>
   <g id="patch_6">
    <path d="M 180 112.32 
L 1296 112.32 
" style="fill: none; stroke: #000000; stroke-width: 0.8; stroke-linejoin: miter; stroke-linecap: square"/>
   </g>
   <g id="text_19">
    <!-- 190 -->
    <g transform="translate(199.84 806.832) scale(0.2 -0.2)">
     <use xlink:href="#DejaVuSans-31"/>
     <use xlink:href="#DejaVuSans-39" x="63.623047"/>
     <use xlink:href="#DejaVuSans-30" x="127.246094"/>
    </g>
   </g>
   <g id="text_20">
    <!-- 195 -->
    <g transform="translate(237.04 286.6032) scale(0.2 -0.2)">
     <use xlink:href="#DejaVuSans-31"/>
     <use xlink:href="#DejaVuSans-39" x="63.623047"/>
     <use xlink:href="#DejaVuSans-35" x="127.246094"/>
    </g>
   </g>
   <g id="text_21">
    <!-- 200 -->
    <g transform="translate(341.2 177.84) scale(0.2 -0.2)">
     <use xlink:href="#DejaVuSans-32"/>
     <use xlink:href="#DejaVuSans-30" x="63.623047"/>
     <use xlink:href="#DejaVuSans-30" x="127.246094"/>
    </g>
   </g>
   <g id="text_22">
    <!-- 205 -->
    <g transform="translate(492.48 156.8736) scale(0.2 -0.2)">
     <use xlink:href="#DejaVuSans-32"/>
     <use xlink:href="#DejaVuSans-30" x="63.623047"/>
     <use xlink:href="#DejaVuSans-35" x="127.246094"/>
    </g>
   </g>
   <g id="text_23">
    <!-- 210 -->
    <g transform="translate(666.08 171.288) scale(0.2 -0.2)">
     <use xlink:href="#DejaVuSans-32"/>
     <use xlink:href="#DejaVuSans-31" x="63.623047"/>
     <use xlink:href="#DejaVuSans-30" x="127.246094"/>
    </g>
   </g>
   <g id="text_24">
    <!-- 215 -->
    <g transform="translate(859.52 190.944) scale(0.2 -0.2)">
     <use xlink:href="#DejaVuSans-32"/>
     <use xlink:href="#DejaVuSans-31" x="63.623047"/>
     <use xlink:href="#DejaVuSans-35" x="127.246094"/>
    </g>
   </g>
   <g id="text_25">
    <!-- 220 -->
    <g transform="translate(1075.28 210.6) scale(0.2 -0.2)">
     <use xlink:href="#DejaVuSans-32"/>
     <use xlink:href="#DejaVuSans-32" x="63.623047"/>
     <use xlink:href="#DejaVuSans-30" x="127.246094"/>
    </g>
   </g>
   <g id="legend_1">
    <g id="patch_7">
     <path d="M 306.51875 823.04 
L 1169.48125 823.04 
Q 1173.48125 823.04 1173.48125 819.04 
L 1173.48125 790.84 
Q 1173.48125 786.84 1169.48125 786.84 
L 306.51875 786.84 
Q 302.51875 786.84 302.51875 790.84 
L 302.51875 819.04 
Q 302.51875 823.04 306.51875 823.04 
z
" style="fill: #ffffff; opacity: 0.8; stroke: #cccccc; stroke-linejoin: miter"/>
    </g>
    <g id="line2d_44">
     <path d="M 310.51875 803.04 
L 330.51875 803.04 
L 350.51875 803.04 
" style="fill: none; stroke: #000000; stroke-width: 1.5; stroke-linecap: square"/>
    </g>
    <g id="text_26">
     <!-- $T_{se,aus}$ [°C]          $ΔT_{GK,ob}$: -->
     <g transform="translate(366.51875 810.04) scale(0.2 -0.2)">
      <defs>
       <path id="DejaVuSans-Oblique-54" d="M 378 4666 
L 4325 4666 
L 4225 4134 
L 2559 4134 
L 1759 0 
L 1125 0 
L 1925 4134 
L 275 4134 
L 378 4666 
z
" transform="scale(0.015625)"/>
       <path id="DejaVuSans-Oblique-73" d="M 3200 3397 
L 3091 2853 
Q 2863 2978 2609 3040 
Q 2356 3103 2088 3103 
Q 1634 3103 1373 2948 
Q 1113 2794 1113 2528 
Q 1113 2219 1719 2053 
Q 1766 2041 1788 2034 
L 1972 1978 
Q 2547 1819 2739 1644 
Q 2931 1469 2931 1166 
Q 2931 609 2489 259 
Q 2047 -91 1331 -91 
Q 1053 -91 747 -37 
Q 441 16 72 128 
L 184 722 
Q 500 559 806 475 
Q 1113 391 1394 391 
Q 1816 391 2080 572 
Q 2344 753 2344 1031 
Q 2344 1331 1650 1516 
L 1591 1531 
L 1394 1581 
Q 956 1697 753 1886 
Q 550 2075 550 2369 
Q 550 2928 970 3256 
Q 1391 3584 2113 3584 
Q 2397 3584 2667 3537 
Q 2938 3491 3200 3397 
z
" transform="scale(0.015625)"/>
       <path id="DejaVuSans-Oblique-65" d="M 3078 2063 
Q 3088 2113 3092 2166 
Q 3097 2219 3097 2272 
Q 3097 2653 2873 2875 
Q 2650 3097 2266 3097 
Q 1838 3097 1509 2826 
Q 1181 2556 1013 2059 
L 3078 2063 
z
M 3578 1613 
L 903 1613 
Q 884 1494 878 1425 
Q 872 1356 872 1306 
Q 872 872 1139 634 
Q 1406 397 1894 397 
Q 2269 397 2603 481 
Q 2938 566 3225 728 
L 3116 159 
Q 2806 34 2476 -28 
Q 2147 -91 1806 -91 
Q 1078 -91 686 257 
Q 294 606 294 1247 
Q 294 1794 489 2264 
Q 684 2734 1063 3103 
Q 1306 3334 1642 3459 
Q 1978 3584 2356 3584 
Q 2950 3584 3301 3228 
Q 3653 2872 3653 2272 
Q 3653 2128 3634 1964 
Q 3616 1800 3578 1613 
z
" transform="scale(0.015625)"/>
       <path id="DejaVuSans-2c" d="M 750 794 
L 1409 794 
L 1409 256 
L 897 -744 
L 494 -744 
L 750 256 
L 750 794 
z
" transform="scale(0.015625)"/>
       <path id="DejaVuSans-Oblique-61" d="M 3438 1997 
L 3047 0 
L 2472 0 
L 2578 531 
Q 2325 219 2001 64 
Q 1678 -91 1281 -91 
Q 834 -91 548 182 
Q 263 456 263 884 
Q 263 1497 752 1853 
Q 1241 2209 2100 2209 
L 2900 2209 
L 2931 2363 
Q 2938 2388 2941 2417 
Q 2944 2447 2944 2509 
Q 2944 2788 2717 2942 
Q 2491 3097 2081 3097 
Q 1800 3097 1504 3025 
Q 1209 2953 897 2809 
L 997 3341 
Q 1322 3463 1633 3523 
Q 1944 3584 2234 3584 
Q 2853 3584 3176 3315 
Q 3500 3047 3500 2534 
Q 3500 2431 3484 2292 
Q 3469 2153 3438 1997 
z
M 2816 1759 
L 2241 1759 
Q 1534 1759 1195 1570 
Q 856 1381 856 984 
Q 856 709 1029 553 
Q 1203 397 1509 397 
Q 1978 397 2328 733 
Q 2678 1069 2791 1631 
L 2816 1759 
z
" transform="scale(0.015625)"/>
       <path id="DejaVuSans-Oblique-75" d="M 428 1388 
L 838 3500 
L 1416 3500 
L 1006 1409 
Q 975 1256 961 1147 
Q 947 1038 947 966 
Q 947 700 1109 554 
Q 1272 409 1569 409 
Q 2031 409 2368 721 
Q 2706 1034 2809 1563 
L 3194 3500 
L 3769 3500 
L 3091 0 
L 2516 0 
L 2631 550 
Q 2388 244 2052 76 
Q 1716 -91 1338 -91 
Q 878 -91 622 161 
Q 366 413 366 863 
Q 366 956 381 1097 
Q 397 1238 428 1388 
z
" transform="scale(0.015625)"/>
       <path id="DejaVuSans-b0" d="M 1600 4347 
Q 1350 4347 1178 4173 
Q 1006 4000 1006 3750 
Q 1006 3503 1178 3333 
Q 1350 3163 1600 3163 
Q 1850 3163 2022 3333 
Q 2194 3503 2194 3750 
Q 2194 3997 2020 4172 
Q 1847 4347 1600 4347 
z
M 1600 4750 
Q 1800 4750 1984 4673 
Q 2169 4597 2303 4453 
Q 2447 4313 2519 4134 
Q 2591 3956 2591 3750 
Q 2591 3338 2302 3052 
Q 2013 2766 1594 2766 
Q 1172 2766 890 3047 
Q 609 3328 609 3750 
Q 609 4169 896 4459 
Q 1184 4750 1600 4750 
z
" transform="scale(0.015625)"/>
       <path id="DejaVuSans-43" d="M 4122 4306 
L 4122 3641 
Q 3803 3938 3442 4084 
Q 3081 4231 2675 4231 
Q 1875 4231 1450 3742 
Q 1025 3253 1025 2328 
Q 1025 1406 1450 917 
Q 1875 428 2675 428 
Q 3081 428 3442 575 
Q 3803 722 4122 1019 
L 4122 359 
Q 3791 134 3420 21 
Q 3050 -91 2638 -91 
Q 1578 -91 968 557 
Q 359 1206 359 2328 
Q 359 3453 968 4101 
Q 1578 4750 2638 4750 
Q 3056 4750 3426 4639 
Q 3797 4528 4122 4306 
z
" transform="scale(0.015625)"/>
       <path id="DejaVuSans-394" d="M 2188 4044 
L 906 525 
L 3472 525 
L 2188 4044 
z
M 50 0 
L 1831 4666 
L 2547 4666 
L 4325 0 
L 50 0 
z
" transform="scale(0.015625)"/>
       <path id="DejaVuSans-Oblique-47" d="M 3494 697 
L 3738 1919 
L 2700 1919 
L 2797 2438 
L 4453 2438 
L 4050 384 
Q 3634 156 3143 32 
Q 2653 -91 2156 -91 
Q 1278 -91 783 396 
Q 288 884 288 1753 
Q 288 2475 589 3126 
Q 891 3778 1422 4213 
Q 1756 4484 2153 4617 
Q 2550 4750 3034 4750 
Q 3472 4750 3873 4639 
Q 4275 4528 4641 4306 
L 4513 3634 
Q 4231 3928 3853 4083 
Q 3475 4238 3047 4238 
Q 2550 4238 2172 4048 
Q 1794 3859 1497 3463 
Q 1244 3125 1098 2667 
Q 953 2209 953 1734 
Q 953 1081 1287 751 
Q 1622 422 2284 422 
Q 2616 422 2925 492 
Q 3234 563 3494 697 
z
" transform="scale(0.015625)"/>
       <path id="DejaVuSans-Oblique-4b" d="M 1081 4666 
L 1716 4666 
L 1331 2700 
L 3781 4666 
L 4622 4666 
L 1850 2438 
L 3878 0 
L 3109 0 
L 1247 2272 
L 806 0 
L 172 0 
L 1081 4666 
z
" transform="scale(0.015625)"/>
       <path id="DejaVuSans-Oblique-6f" d="M 1625 -91 
Q 1009 -91 651 289 
Q 294 669 294 1325 
Q 294 1706 417 2101 
Q 541 2497 738 2766 
Q 1047 3184 1428 3384 
Q 1809 3584 2291 3584 
Q 2888 3584 3255 3212 
Q 3622 2841 3622 2241 
Q 3622 1825 3500 1412 
Q 3378 1000 3181 728 
Q 2875 309 2494 109 
Q 2113 -91 1625 -91 
z
M 891 1344 
Q 891 869 1089 633 
Q 1288 397 1691 397 
Q 2269 397 2648 901 
Q 3028 1406 3028 2181 
Q 3028 2634 2825 2865 
Q 2622 3097 2228 3097 
Q 1903 3097 1650 2945 
Q 1397 2794 1197 2484 
Q 1050 2253 970 1956 
Q 891 1659 891 1344 
z
" transform="scale(0.015625)"/>
       <path id="DejaVuSans-Oblique-62" d="M 3169 2138 
Q 3169 2591 2961 2847 
Q 2753 3103 2388 3103 
Q 2122 3103 1889 2973 
Q 1656 2844 1484 2597 
Q 1303 2338 1198 1995 
Q 1094 1653 1094 1313 
Q 1094 881 1298 636 
Q 1503 391 1863 391 
Q 2134 391 2365 517 
Q 2597 644 2772 891 
Q 2950 1147 3059 1487 
Q 3169 1828 3169 2138 
z
M 1381 2969 
Q 1594 3256 1914 3420 
Q 2234 3584 2584 3584 
Q 3122 3584 3439 3221 
Q 3756 2859 3756 2241 
Q 3756 1734 3570 1259 
Q 3384 784 3041 416 
Q 2816 172 2522 40 
Q 2228 -91 1906 -91 
Q 1566 -91 1316 65 
Q 1066 222 909 531 
L 806 0 
L 231 0 
L 1178 4863 
L 1753 4863 
L 1381 2969 
z
" transform="scale(0.015625)"/>
       <path id="DejaVuSans-3a" d="M 750 794 
L 1409 794 
L 1409 0 
L 750 0 
L 750 794 
z
M 750 3309 
L 1409 3309 
L 1409 2516 
L 750 2516 
L 750 3309 
z
" transform="scale(0.015625)"/>
      </defs>
      <use xlink:href="#DejaVuSans-Oblique-54" transform="translate(0 0.015625)"/>
      <use xlink:href="#DejaVuSans-Oblique-73" transform="translate(61.083984 -16.390625) scale(0.7)"/>
      <use xlink:href="#DejaVuSans-Oblique-65" transform="translate(97.553711 -16.390625) scale(0.7)"/>
      <use xlink:href="#DejaVuSans-2c" transform="translate(140.620117 -16.390625) scale(0.7)"/>
      <use xlink:href="#DejaVuSans-Oblique-61" transform="translate(176.508789 -16.390625) scale(0.7)"/>
      <use xlink:href="#DejaVuSans-Oblique-75" transform="translate(219.404297 -16.390625) scale(0.7)"/>
      <use xlink:href="#DejaVuSans-Oblique-73" transform="translate(263.769531 -16.390625) scale(0.7)"/>
      <use xlink:href="#DejaVuSans-20" transform="translate(302.973633 0.015625)"/>
      <use xlink:href="#DejaVuSans-5b" transform="translate(334.760742 0.015625)"/>
      <use xlink:href="#DejaVuSans-b0" transform="translate(373.774414 0.015625)"/>
      <use xlink:href="#DejaVuSans-43" transform="translate(423.774414 0.015625)"/>
      <use xlink:href="#DejaVuSans-5d" transform="translate(493.598633 0.015625)"/>
      <use xlink:href="#DejaVuSans-20" transform="translate(532.612305 0.015625)"/>
      <use xlink:href="#DejaVuSans-20" transform="translate(564.399414 0.015625)"/>
      <use xlink:href="#DejaVuSans-20" transform="translate(596.186523 0.015625)"/>
      <use xlink:href="#DejaVuSans-20" transform="translate(627.973633 0.015625)"/>
      <use xlink:href="#DejaVuSans-20" transform="translate(659.760742 0.015625)"/>
      <use xlink:href="#DejaVuSans-20" transform="translate(691.547852 0.015625)"/>
      <use xlink:href="#DejaVuSans-20" transform="translate(723.334961 0.015625)"/>
      <use xlink:href="#DejaVuSans-20" transform="translate(755.12207 0.015625)"/>
      <use xlink:href="#DejaVuSans-20" transform="translate(786.90918 0.015625)"/>
      <use xlink:href="#DejaVuSans-20" transform="translate(818.696289 0.015625)"/>
      <use xlink:href="#DejaVuSans-394" transform="translate(850.483398 0.015625)"/>
      <use xlink:href="#DejaVuSans-Oblique-54" transform="translate(918.891602 0.015625)"/>
      <use xlink:href="#DejaVuSans-Oblique-47" transform="translate(979.975586 -16.390625) scale(0.7)"/>
      <use xlink:href="#DejaVuSans-Oblique-4b" transform="translate(1034.21875 -16.390625) scale(0.7)"/>
      <use xlink:href="#DejaVuSans-2c" transform="translate(1080.12207 -16.390625) scale(0.7)"/>
      <use xlink:href="#DejaVuSans-Oblique-6f" transform="translate(1116.010742 -16.390625) scale(0.7)"/>
      <use xlink:href="#DejaVuSans-Oblique-62" transform="translate(1158.837891 -16.390625) scale(0.7)"/>
      <use xlink:href="#DejaVuSans-3a" transform="translate(1206.005859 0.015625)"/>
     </g>
    </g>
    <g id="line2d_45">
     <path d="M 654.51875 803.04 
L 674.51875 803.04 
L 694.51875 803.04 
" style="fill: none; stroke-dasharray: 5.55,2.4; stroke-dashoffset: 0; stroke: #ff0000; stroke-width: 1.5"/>
    </g>
    <g id="text_27">
     <!-- 5 K -->
     <g transform="translate(710.51875 810.04) scale(0.2 -0.2)">
      <defs>
       <path id="DejaVuSans-4b" d="M 628 4666 
L 1259 4666 
L 1259 2694 
L 3353 4666 
L 4166 4666 
L 1850 2491 
L 4331 0 
L 3500 0 
L 1259 2247 
L 1259 0 
L 628 0 
L 628 4666 
z
" transform="scale(0.015625)"/>
      </defs>
      <use xlink:href="#DejaVuSans-35"/>
      <use xlink:href="#DejaVuSans-20" x="63.623047"/>
      <use xlink:href="#DejaVuSans-4b" x="95.410156"/>
     </g>
    </g>
    <g id="line2d_46">
     <path d="M 782.715625 803.04 
L 802.715625 803.04 
L 822.715625 803.04 
" style="fill: none; stroke-dasharray: 5.55,2.4; stroke-dashoffset: 0; stroke: #ffa500; stroke-width: 1.5"/>
    </g>
    <g id="text_28">
     <!-- 10 K -->
     <g transform="translate(838.715625 810.04) scale(0.2 -0.2)">
      <use xlink:href="#DejaVuSans-31"/>
      <use xlink:href="#DejaVuSans-30" x="63.623047"/>
      <use xlink:href="#DejaVuSans-20" x="127.246094"/>
      <use xlink:href="#DejaVuSans-4b" x="159.033203"/>
     </g>
    </g>
    <g id="line2d_47">
     <path d="M 923.6375 803.04 
L 943.6375 803.04 
L 963.6375 803.04 
" style="fill: none; stroke-dasharray: 5.55,2.4; stroke-dashoffset: 0; stroke: #008000; stroke-width: 1.5"/>
    </g>
    <g id="text_29">
     <!-- 15 K -->
     <g transform="translate(979.6375 810.04) scale(0.2 -0.2)">
      <use xlink:href="#DejaVuSans-31"/>
      <use xlink:href="#DejaVuSans-35" x="63.623047"/>
      <use xlink:href="#DejaVuSans-20" x="127.246094"/>
      <use xlink:href="#DejaVuSans-4b" x="159.033203"/>
     </g>
    </g>
    <g id="line2d_48">
     <path d="M 1064.559375 803.04 
L 1084.559375 803.04 
L 1104.559375 803.04 
" style="fill: none; stroke-dasharray: 5.55,2.4; stroke-dashoffset: 0; stroke: #4682b4; stroke-width: 1.5"/>
    </g>
    <g id="text_30">
     <!-- 20 K -->
     <g transform="translate(1120.559375 810.04) scale(0.2 -0.2)">
      <use xlink:href="#DejaVuSans-32"/>
      <use xlink:href="#DejaVuSans-30" x="63.623047"/>
      <use xlink:href="#DejaVuSans-20" x="127.246094"/>
      <use xlink:href="#DejaVuSans-4b" x="159.033203"/>
     </g>
    </g>
   </g>
  </g>
 </g>
 <defs>
  <clipPath id="pf78dece437">
   <rect x="180" y="112.32" width="1116" height="720.72"/>
  </clipPath>
 </defs>
</svg>
