<?xml version="1.0" encoding="utf-8" standalone="no"?>
<!DOCTYPE svg PUBLIC "-//W3C//DTD SVG 1.1//EN"
  "http://www.w3.org/Graphics/SVG/1.1/DTD/svg11.dtd">
<svg xmlns:xlink="http://www.w3.org/1999/xlink" width="1440pt" height="864pt" viewBox="0 0 1440 864" xmlns="http://www.w3.org/2000/svg" version="1.1">
 <metadata>
  <rdf:RDF xmlns:dc="http://purl.org/dc/elements/1.1/" xmlns:cc="http://creativecommons.org/ns#" xmlns:rdf="http://www.w3.org/1999/02/22-rdf-syntax-ns#">
   <cc:Work>
    <dc:type rdf:resource="http://purl.org/dc/dcmitype/StillImage"/>
    <dc:date>2023-07-29T11:11:35.539685</dc:date>
    <dc:format>image/svg+xml</dc:format>
    <dc:creator>
     <cc:Agent>
      <dc:title>Matplotlib v3.6.1, https://matplotlib.org/</dc:title>
     </cc:Agent>
    </dc:creator>
   </cc:Work>
  </rdf:RDF>
 </metadata>
 <defs>
  <style type="text/css">*{stroke-linejoin: round; stroke-linecap: butt}</style>
 </defs>
 <g id="figure_1">
  <g id="patch_1">
   <path d="M 0 864 
L 1440 864 
L 1440 0 
L 0 0 
z
" style="fill: #ffffff"/>
  </g>
  <g id="axes_1">
   <g id="patch_2">
    <path d="M 180 768.96 
L 1296 768.96 
L 1296 103.68 
L 180 103.68 
z
" style="fill: #ffffff"/>
   </g>
   <g id="matplotlib.axis_1">
    <g id="xtick_1">
     <g id="line2d_1">
      <path d="M 189.294062 768.96 
L 189.294062 103.68 
" clip-path="url(#p9ce936deaa)" style="fill: none; stroke: #b0b0b0; stroke-width: 0.8; stroke-linecap: square"/>
     </g>
     <g id="line2d_2">
      <defs>
       <path id="m167061d1c0" d="M 0 0 
L 0 3.5 
" style="stroke: #000000; stroke-width: 0.8"/>
      </defs>
      <g>
       <use xlink:href="#m167061d1c0" x="189.294062" y="768.96" style="stroke: #000000; stroke-width: 0.8"/>
      </g>
     </g>
     <g id="text_1">
      <!-- 24 -->
      <g transform="translate(176.569062 791.156875) scale(0.2 -0.2)">
       <defs>
        <path id="DejaVuSans-32" d="M 1228 531 
L 3431 531 
L 3431 0 
L 469 0 
L 469 531 
Q 828 903 1448 1529 
Q 2069 2156 2228 2338 
Q 2531 2678 2651 2914 
Q 2772 3150 2772 3378 
Q 2772 3750 2511 3984 
Q 2250 4219 1831 4219 
Q 1534 4219 1204 4116 
Q 875 4013 500 3803 
L 500 4441 
Q 881 4594 1212 4672 
Q 1544 4750 1819 4750 
Q 2544 4750 2975 4387 
Q 3406 4025 3406 3419 
Q 3406 3131 3298 2873 
Q 3191 2616 2906 2266 
Q 2828 2175 2409 1742 
Q 1991 1309 1228 531 
z
" transform="scale(0.015625)"/>
        <path id="DejaVuSans-34" d="M 2419 4116 
L 825 1625 
L 2419 1625 
L 2419 4116 
z
M 2253 4666 
L 3047 4666 
L 3047 1625 
L 3713 1625 
L 3713 1100 
L 3047 1100 
L 3047 0 
L 2419 0 
L 2419 1100 
L 313 1100 
L 313 1709 
L 2253 4666 
z
" transform="scale(0.015625)"/>
       </defs>
       <use xlink:href="#DejaVuSans-32"/>
       <use xlink:href="#DejaVuSans-34" x="63.623047"/>
      </g>
     </g>
    </g>
    <g id="xtick_2">
     <g id="line2d_3">
      <path d="M 321.291395 768.96 
L 321.291395 103.68 
" clip-path="url(#p9ce936deaa)" style="fill: none; stroke: #b0b0b0; stroke-width: 0.8; stroke-linecap: square"/>
     </g>
     <g id="line2d_4">
      <g>
       <use xlink:href="#m167061d1c0" x="321.291395" y="768.96" style="stroke: #000000; stroke-width: 0.8"/>
      </g>
     </g>
     <g id="text_2">
      <!-- 26 -->
      <g transform="translate(308.566395 791.156875) scale(0.2 -0.2)">
       <defs>
        <path id="DejaVuSans-36" d="M 2113 2584 
Q 1688 2584 1439 2293 
Q 1191 2003 1191 1497 
Q 1191 994 1439 701 
Q 1688 409 2113 409 
Q 2538 409 2786 701 
Q 3034 994 3034 1497 
Q 3034 2003 2786 2293 
Q 2538 2584 2113 2584 
z
M 3366 4563 
L 3366 3988 
Q 3128 4100 2886 4159 
Q 2644 4219 2406 4219 
Q 1781 4219 1451 3797 
Q 1122 3375 1075 2522 
Q 1259 2794 1537 2939 
Q 1816 3084 2150 3084 
Q 2853 3084 3261 2657 
Q 3669 2231 3669 1497 
Q 3669 778 3244 343 
Q 2819 -91 2113 -91 
Q 1303 -91 875 529 
Q 447 1150 447 2328 
Q 447 3434 972 4092 
Q 1497 4750 2381 4750 
Q 2619 4750 2861 4703 
Q 3103 4656 3366 4563 
z
" transform="scale(0.015625)"/>
       </defs>
       <use xlink:href="#DejaVuSans-32"/>
       <use xlink:href="#DejaVuSans-36" x="63.623047"/>
      </g>
     </g>
    </g>
    <g id="xtick_3">
     <g id="line2d_5">
      <path d="M 453.288729 768.96 
L 453.288729 103.68 
" clip-path="url(#p9ce936deaa)" style="fill: none; stroke: #b0b0b0; stroke-width: 0.8; stroke-linecap: square"/>
     </g>
     <g id="line2d_6">
      <g>
       <use xlink:href="#m167061d1c0" x="453.288729" y="768.96" style="stroke: #000000; stroke-width: 0.8"/>
      </g>
     </g>
     <g id="text_3">
      <!-- 28 -->
      <g transform="translate(440.563729 791.156875) scale(0.2 -0.2)">
       <defs>
        <path id="DejaVuSans-38" d="M 2034 2216 
Q 1584 2216 1326 1975 
Q 1069 1734 1069 1313 
Q 1069 891 1326 650 
Q 1584 409 2034 409 
Q 2484 409 2743 651 
Q 3003 894 3003 1313 
Q 3003 1734 2745 1975 
Q 2488 2216 2034 2216 
z
M 1403 2484 
Q 997 2584 770 2862 
Q 544 3141 544 3541 
Q 544 4100 942 4425 
Q 1341 4750 2034 4750 
Q 2731 4750 3128 4425 
Q 3525 4100 3525 3541 
Q 3525 3141 3298 2862 
Q 3072 2584 2669 2484 
Q 3125 2378 3379 2068 
Q 3634 1759 3634 1313 
Q 3634 634 3220 271 
Q 2806 -91 2034 -91 
Q 1263 -91 848 271 
Q 434 634 434 1313 
Q 434 1759 690 2068 
Q 947 2378 1403 2484 
z
M 1172 3481 
Q 1172 3119 1398 2916 
Q 1625 2713 2034 2713 
Q 2441 2713 2670 2916 
Q 2900 3119 2900 3481 
Q 2900 3844 2670 4047 
Q 2441 4250 2034 4250 
Q 1625 4250 1398 4047 
Q 1172 3844 1172 3481 
z
" transform="scale(0.015625)"/>
       </defs>
       <use xlink:href="#DejaVuSans-32"/>
       <use xlink:href="#DejaVuSans-38" x="63.623047"/>
      </g>
     </g>
    </g>
    <g id="xtick_4">
     <g id="line2d_7">
      <path d="M 585.286062 768.96 
L 585.286062 103.68 
" clip-path="url(#p9ce936deaa)" style="fill: none; stroke: #b0b0b0; stroke-width: 0.8; stroke-linecap: square"/>
     </g>
     <g id="line2d_8">
      <g>
       <use xlink:href="#m167061d1c0" x="585.286062" y="768.96" style="stroke: #000000; stroke-width: 0.8"/>
      </g>
     </g>
     <g id="text_4">
      <!-- 30 -->
      <g transform="translate(572.561062 791.156875) scale(0.2 -0.2)">
       <defs>
        <path id="DejaVuSans-33" d="M 2597 2516 
Q 3050 2419 3304 2112 
Q 3559 1806 3559 1356 
Q 3559 666 3084 287 
Q 2609 -91 1734 -91 
Q 1441 -91 1130 -33 
Q 819 25 488 141 
L 488 750 
Q 750 597 1062 519 
Q 1375 441 1716 441 
Q 2309 441 2620 675 
Q 2931 909 2931 1356 
Q 2931 1769 2642 2001 
Q 2353 2234 1838 2234 
L 1294 2234 
L 1294 2753 
L 1863 2753 
Q 2328 2753 2575 2939 
Q 2822 3125 2822 3475 
Q 2822 3834 2567 4026 
Q 2313 4219 1838 4219 
Q 1578 4219 1281 4162 
Q 984 4106 628 3988 
L 628 4550 
Q 988 4650 1302 4700 
Q 1616 4750 1894 4750 
Q 2613 4750 3031 4423 
Q 3450 4097 3450 3541 
Q 3450 3153 3228 2886 
Q 3006 2619 2597 2516 
z
" transform="scale(0.015625)"/>
        <path id="DejaVuSans-30" d="M 2034 4250 
Q 1547 4250 1301 3770 
Q 1056 3291 1056 2328 
Q 1056 1369 1301 889 
Q 1547 409 2034 409 
Q 2525 409 2770 889 
Q 3016 1369 3016 2328 
Q 3016 3291 2770 3770 
Q 2525 4250 2034 4250 
z
M 2034 4750 
Q 2819 4750 3233 4129 
Q 3647 3509 3647 2328 
Q 3647 1150 3233 529 
Q 2819 -91 2034 -91 
Q 1250 -91 836 529 
Q 422 1150 422 2328 
Q 422 3509 836 4129 
Q 1250 4750 2034 4750 
z
" transform="scale(0.015625)"/>
       </defs>
       <use xlink:href="#DejaVuSans-33"/>
       <use xlink:href="#DejaVuSans-30" x="63.623047"/>
      </g>
     </g>
    </g>
    <g id="xtick_5">
     <g id="line2d_9">
      <path d="M 717.283395 768.96 
L 717.283395 103.68 
" clip-path="url(#p9ce936deaa)" style="fill: none; stroke: #b0b0b0; stroke-width: 0.8; stroke-linecap: square"/>
     </g>
     <g id="line2d_10">
      <g>
       <use xlink:href="#m167061d1c0" x="717.283395" y="768.96" style="stroke: #000000; stroke-width: 0.8"/>
      </g>
     </g>
     <g id="text_5">
      <!-- 32 -->
      <g transform="translate(704.558395 791.156875) scale(0.2 -0.2)">
       <use xlink:href="#DejaVuSans-33"/>
       <use xlink:href="#DejaVuSans-32" x="63.623047"/>
      </g>
     </g>
    </g>
    <g id="xtick_6">
     <g id="line2d_11">
      <path d="M 849.280728 768.96 
L 849.280728 103.68 
" clip-path="url(#p9ce936deaa)" style="fill: none; stroke: #b0b0b0; stroke-width: 0.8; stroke-linecap: square"/>
     </g>
     <g id="line2d_12">
      <g>
       <use xlink:href="#m167061d1c0" x="849.280728" y="768.96" style="stroke: #000000; stroke-width: 0.8"/>
      </g>
     </g>
     <g id="text_6">
      <!-- 34 -->
      <g transform="translate(836.555728 791.156875) scale(0.2 -0.2)">
       <use xlink:href="#DejaVuSans-33"/>
       <use xlink:href="#DejaVuSans-34" x="63.623047"/>
      </g>
     </g>
    </g>
    <g id="xtick_7">
     <g id="line2d_13">
      <path d="M 981.278061 768.96 
L 981.278061 103.68 
" clip-path="url(#p9ce936deaa)" style="fill: none; stroke: #b0b0b0; stroke-width: 0.8; stroke-linecap: square"/>
     </g>
     <g id="line2d_14">
      <g>
       <use xlink:href="#m167061d1c0" x="981.278061" y="768.96" style="stroke: #000000; stroke-width: 0.8"/>
      </g>
     </g>
     <g id="text_7">
      <!-- 36 -->
      <g transform="translate(968.553061 791.156875) scale(0.2 -0.2)">
       <use xlink:href="#DejaVuSans-33"/>
       <use xlink:href="#DejaVuSans-36" x="63.623047"/>
      </g>
     </g>
    </g>
    <g id="xtick_8">
     <g id="line2d_15">
      <path d="M 1113.275394 768.96 
L 1113.275394 103.68 
" clip-path="url(#p9ce936deaa)" style="fill: none; stroke: #b0b0b0; stroke-width: 0.8; stroke-linecap: square"/>
     </g>
     <g id="line2d_16">
      <g>
       <use xlink:href="#m167061d1c0" x="1113.275394" y="768.96" style="stroke: #000000; stroke-width: 0.8"/>
      </g>
     </g>
     <g id="text_8">
      <!-- 38 -->
      <g transform="translate(1100.550394 791.156875) scale(0.2 -0.2)">
       <use xlink:href="#DejaVuSans-33"/>
       <use xlink:href="#DejaVuSans-38" x="63.623047"/>
      </g>
     </g>
    </g>
    <g id="xtick_9">
     <g id="line2d_17">
      <path d="M 1245.272727 768.96 
L 1245.272727 103.68 
" clip-path="url(#p9ce936deaa)" style="fill: none; stroke: #b0b0b0; stroke-width: 0.8; stroke-linecap: square"/>
     </g>
     <g id="line2d_18">
      <g>
       <use xlink:href="#m167061d1c0" x="1245.272727" y="768.96" style="stroke: #000000; stroke-width: 0.8"/>
      </g>
     </g>
     <g id="text_9">
      <!-- 40 -->
      <g transform="translate(1232.547727 791.156875) scale(0.2 -0.2)">
       <use xlink:href="#DejaVuSans-34"/>
       <use xlink:href="#DejaVuSans-30" x="63.623047"/>
      </g>
     </g>
    </g>
    <g id="text_10">
     <!-- Gaskühlerdruck [bar] -->
     <g transform="translate(632.239063 814.513125) scale(0.2 -0.2)">
      <defs>
       <path id="DejaVuSans-47" d="M 3809 666 
L 3809 1919 
L 2778 1919 
L 2778 2438 
L 4434 2438 
L 4434 434 
Q 4069 175 3628 42 
Q 3188 -91 2688 -91 
Q 1594 -91 976 548 
Q 359 1188 359 2328 
Q 359 3472 976 4111 
Q 1594 4750 2688 4750 
Q 3144 4750 3555 4637 
Q 3966 4525 4313 4306 
L 4313 3634 
Q 3963 3931 3569 4081 
Q 3175 4231 2741 4231 
Q 1884 4231 1454 3753 
Q 1025 3275 1025 2328 
Q 1025 1384 1454 906 
Q 1884 428 2741 428 
Q 3075 428 3337 486 
Q 3600 544 3809 666 
z
" transform="scale(0.015625)"/>
       <path id="DejaVuSans-61" d="M 2194 1759 
Q 1497 1759 1228 1600 
Q 959 1441 959 1056 
Q 959 750 1161 570 
Q 1363 391 1709 391 
Q 2188 391 2477 730 
Q 2766 1069 2766 1631 
L 2766 1759 
L 2194 1759 
z
M 3341 1997 
L 3341 0 
L 2766 0 
L 2766 531 
Q 2569 213 2275 61 
Q 1981 -91 1556 -91 
Q 1019 -91 701 211 
Q 384 513 384 1019 
Q 384 1609 779 1909 
Q 1175 2209 1959 2209 
L 2766 2209 
L 2766 2266 
Q 2766 2663 2505 2880 
Q 2244 3097 1772 3097 
Q 1472 3097 1187 3025 
Q 903 2953 641 2809 
L 641 3341 
Q 956 3463 1253 3523 
Q 1550 3584 1831 3584 
Q 2591 3584 2966 3190 
Q 3341 2797 3341 1997 
z
" transform="scale(0.015625)"/>
       <path id="DejaVuSans-73" d="M 2834 3397 
L 2834 2853 
Q 2591 2978 2328 3040 
Q 2066 3103 1784 3103 
Q 1356 3103 1142 2972 
Q 928 2841 928 2578 
Q 928 2378 1081 2264 
Q 1234 2150 1697 2047 
L 1894 2003 
Q 2506 1872 2764 1633 
Q 3022 1394 3022 966 
Q 3022 478 2636 193 
Q 2250 -91 1575 -91 
Q 1294 -91 989 -36 
Q 684 19 347 128 
L 347 722 
Q 666 556 975 473 
Q 1284 391 1588 391 
Q 1994 391 2212 530 
Q 2431 669 2431 922 
Q 2431 1156 2273 1281 
Q 2116 1406 1581 1522 
L 1381 1569 
Q 847 1681 609 1914 
Q 372 2147 372 2553 
Q 372 3047 722 3315 
Q 1072 3584 1716 3584 
Q 2034 3584 2315 3537 
Q 2597 3491 2834 3397 
z
" transform="scale(0.015625)"/>
       <path id="DejaVuSans-6b" d="M 581 4863 
L 1159 4863 
L 1159 1991 
L 2875 3500 
L 3609 3500 
L 1753 1863 
L 3688 0 
L 2938 0 
L 1159 1709 
L 1159 0 
L 581 0 
L 581 4863 
z
" transform="scale(0.015625)"/>
       <path id="DejaVuSans-fc" d="M 544 1381 
L 544 3500 
L 1119 3500 
L 1119 1403 
Q 1119 906 1312 657 
Q 1506 409 1894 409 
Q 2359 409 2629 706 
Q 2900 1003 2900 1516 
L 2900 3500 
L 3475 3500 
L 3475 0 
L 2900 0 
L 2900 538 
Q 2691 219 2414 64 
Q 2138 -91 1772 -91 
Q 1169 -91 856 284 
Q 544 659 544 1381 
z
M 1991 3584 
L 1991 3584 
z
M 2278 4850 
L 2912 4850 
L 2912 4219 
L 2278 4219 
L 2278 4850 
z
M 1056 4850 
L 1690 4850 
L 1690 4219 
L 1056 4219 
L 1056 4850 
z
" transform="scale(0.015625)"/>
       <path id="DejaVuSans-68" d="M 3513 2113 
L 3513 0 
L 2938 0 
L 2938 2094 
Q 2938 2591 2744 2837 
Q 2550 3084 2163 3084 
Q 1697 3084 1428 2787 
Q 1159 2491 1159 1978 
L 1159 0 
L 581 0 
L 581 4863 
L 1159 4863 
L 1159 2956 
Q 1366 3272 1645 3428 
Q 1925 3584 2291 3584 
Q 2894 3584 3203 3211 
Q 3513 2838 3513 2113 
z
" transform="scale(0.015625)"/>
       <path id="DejaVuSans-6c" d="M 603 4863 
L 1178 4863 
L 1178 0 
L 603 0 
L 603 4863 
z
" transform="scale(0.015625)"/>
       <path id="DejaVuSans-65" d="M 3597 1894 
L 3597 1613 
L 953 1613 
Q 991 1019 1311 708 
Q 1631 397 2203 397 
Q 2534 397 2845 478 
Q 3156 559 3463 722 
L 3463 178 
Q 3153 47 2828 -22 
Q 2503 -91 2169 -91 
Q 1331 -91 842 396 
Q 353 884 353 1716 
Q 353 2575 817 3079 
Q 1281 3584 2069 3584 
Q 2775 3584 3186 3129 
Q 3597 2675 3597 1894 
z
M 3022 2063 
Q 3016 2534 2758 2815 
Q 2500 3097 2075 3097 
Q 1594 3097 1305 2825 
Q 1016 2553 972 2059 
L 3022 2063 
z
" transform="scale(0.015625)"/>
       <path id="DejaVuSans-72" d="M 2631 2963 
Q 2534 3019 2420 3045 
Q 2306 3072 2169 3072 
Q 1681 3072 1420 2755 
Q 1159 2438 1159 1844 
L 1159 0 
L 581 0 
L 581 3500 
L 1159 3500 
L 1159 2956 
Q 1341 3275 1631 3429 
Q 1922 3584 2338 3584 
Q 2397 3584 2469 3576 
Q 2541 3569 2628 3553 
L 2631 2963 
z
" transform="scale(0.015625)"/>
       <path id="DejaVuSans-64" d="M 2906 2969 
L 2906 4863 
L 3481 4863 
L 3481 0 
L 2906 0 
L 2906 525 
Q 2725 213 2448 61 
Q 2172 -91 1784 -91 
Q 1150 -91 751 415 
Q 353 922 353 1747 
Q 353 2572 751 3078 
Q 1150 3584 1784 3584 
Q 2172 3584 2448 3432 
Q 2725 3281 2906 2969 
z
M 947 1747 
Q 947 1113 1208 752 
Q 1469 391 1925 391 
Q 2381 391 2643 752 
Q 2906 1113 2906 1747 
Q 2906 2381 2643 2742 
Q 2381 3103 1925 3103 
Q 1469 3103 1208 2742 
Q 947 2381 947 1747 
z
" transform="scale(0.015625)"/>
       <path id="DejaVuSans-75" d="M 544 1381 
L 544 3500 
L 1119 3500 
L 1119 1403 
Q 1119 906 1312 657 
Q 1506 409 1894 409 
Q 2359 409 2629 706 
Q 2900 1003 2900 1516 
L 2900 3500 
L 3475 3500 
L 3475 0 
L 2900 0 
L 2900 538 
Q 2691 219 2414 64 
Q 2138 -91 1772 -91 
Q 1169 -91 856 284 
Q 544 659 544 1381 
z
M 1991 3584 
L 1991 3584 
z
" transform="scale(0.015625)"/>
       <path id="DejaVuSans-63" d="M 3122 3366 
L 3122 2828 
Q 2878 2963 2633 3030 
Q 2388 3097 2138 3097 
Q 1578 3097 1268 2742 
Q 959 2388 959 1747 
Q 959 1106 1268 751 
Q 1578 397 2138 397 
Q 2388 397 2633 464 
Q 2878 531 3122 666 
L 3122 134 
Q 2881 22 2623 -34 
Q 2366 -91 2075 -91 
Q 1284 -91 818 406 
Q 353 903 353 1747 
Q 353 2603 823 3093 
Q 1294 3584 2113 3584 
Q 2378 3584 2631 3529 
Q 2884 3475 3122 3366 
z
" transform="scale(0.015625)"/>
       <path id="DejaVuSans-20" transform="scale(0.015625)"/>
       <path id="DejaVuSans-5b" d="M 550 4863 
L 1875 4863 
L 1875 4416 
L 1125 4416 
L 1125 -397 
L 1875 -397 
L 1875 -844 
L 550 -844 
L 550 4863 
z
" transform="scale(0.015625)"/>
       <path id="DejaVuSans-62" d="M 3116 1747 
Q 3116 2381 2855 2742 
Q 2594 3103 2138 3103 
Q 1681 3103 1420 2742 
Q 1159 2381 1159 1747 
Q 1159 1113 1420 752 
Q 1681 391 2138 391 
Q 2594 391 2855 752 
Q 3116 1113 3116 1747 
z
M 1159 2969 
Q 1341 3281 1617 3432 
Q 1894 3584 2278 3584 
Q 2916 3584 3314 3078 
Q 3713 2572 3713 1747 
Q 3713 922 3314 415 
Q 2916 -91 2278 -91 
Q 1894 -91 1617 61 
Q 1341 213 1159 525 
L 1159 0 
L 581 0 
L 581 4863 
L 1159 4863 
L 1159 2969 
z
" transform="scale(0.015625)"/>
       <path id="DejaVuSans-5d" d="M 1947 4863 
L 1947 -844 
L 622 -844 
L 622 -397 
L 1369 -397 
L 1369 4416 
L 622 4416 
L 622 4863 
L 1947 4863 
z
" transform="scale(0.015625)"/>
      </defs>
      <use xlink:href="#DejaVuSans-47"/>
      <use xlink:href="#DejaVuSans-61" x="77.490234"/>
      <use xlink:href="#DejaVuSans-73" x="138.769531"/>
      <use xlink:href="#DejaVuSans-6b" x="190.869141"/>
      <use xlink:href="#DejaVuSans-fc" x="245.654297"/>
      <use xlink:href="#DejaVuSans-68" x="309.033203"/>
      <use xlink:href="#DejaVuSans-6c" x="372.412109"/>
      <use xlink:href="#DejaVuSans-65" x="400.195312"/>
      <use xlink:href="#DejaVuSans-72" x="461.71875"/>
      <use xlink:href="#DejaVuSans-64" x="501.082031"/>
      <use xlink:href="#DejaVuSans-72" x="564.558594"/>
      <use xlink:href="#DejaVuSans-75" x="605.671875"/>
      <use xlink:href="#DejaVuSans-63" x="669.050781"/>
      <use xlink:href="#DejaVuSans-6b" x="724.03125"/>
      <use xlink:href="#DejaVuSans-20" x="781.941406"/>
      <use xlink:href="#DejaVuSans-5b" x="813.728516"/>
      <use xlink:href="#DejaVuSans-62" x="852.742188"/>
      <use xlink:href="#DejaVuSans-61" x="916.21875"/>
      <use xlink:href="#DejaVuSans-72" x="977.498047"/>
      <use xlink:href="#DejaVuSans-5d" x="1018.611328"/>
     </g>
    </g>
   </g>
   <g id="matplotlib.axis_2">
    <g id="ytick_1">
     <g id="line2d_19">
      <path d="M 180 722.008793 
L 1296 722.008793 
" clip-path="url(#p9ce936deaa)" style="fill: none; stroke: #b0b0b0; stroke-width: 0.8; stroke-linecap: square"/>
     </g>
     <g id="line2d_20">
      <defs>
       <path id="m3f4c70acf4" d="M 0 0 
L -3.5 0 
" style="stroke: #000000; stroke-width: 0.8"/>
      </defs>
      <g>
       <use xlink:href="#m3f4c70acf4" x="180" y="722.008793" style="stroke: #000000; stroke-width: 0.8"/>
      </g>
     </g>
     <g id="text_11">
      <!-- 69 -->
      <g transform="translate(147.55 729.60723) scale(0.2 -0.2)">
       <defs>
        <path id="DejaVuSans-39" d="M 703 97 
L 703 672 
Q 941 559 1184 500 
Q 1428 441 1663 441 
Q 2288 441 2617 861 
Q 2947 1281 2994 2138 
Q 2813 1869 2534 1725 
Q 2256 1581 1919 1581 
Q 1219 1581 811 2004 
Q 403 2428 403 3163 
Q 403 3881 828 4315 
Q 1253 4750 1959 4750 
Q 2769 4750 3195 4129 
Q 3622 3509 3622 2328 
Q 3622 1225 3098 567 
Q 2575 -91 1691 -91 
Q 1453 -91 1209 -44 
Q 966 3 703 97 
z
M 1959 2075 
Q 2384 2075 2632 2365 
Q 2881 2656 2881 3163 
Q 2881 3666 2632 3958 
Q 2384 4250 1959 4250 
Q 1534 4250 1286 3958 
Q 1038 3666 1038 3163 
Q 1038 2656 1286 2365 
Q 1534 2075 1959 2075 
z
" transform="scale(0.015625)"/>
       </defs>
       <use xlink:href="#DejaVuSans-36"/>
       <use xlink:href="#DejaVuSans-39" x="63.623047"/>
      </g>
     </g>
    </g>
    <g id="ytick_2">
     <g id="line2d_21">
      <path d="M 180 638.874697 
L 1296 638.874697 
" clip-path="url(#p9ce936deaa)" style="fill: none; stroke: #b0b0b0; stroke-width: 0.8; stroke-linecap: square"/>
     </g>
     <g id="line2d_22">
      <g>
       <use xlink:href="#m3f4c70acf4" x="180" y="638.874697" style="stroke: #000000; stroke-width: 0.8"/>
      </g>
     </g>
     <g id="text_12">
      <!-- 70 -->
      <g transform="translate(147.55 646.473135) scale(0.2 -0.2)">
       <defs>
        <path id="DejaVuSans-37" d="M 525 4666 
L 3525 4666 
L 3525 4397 
L 1831 0 
L 1172 0 
L 2766 4134 
L 525 4134 
L 525 4666 
z
" transform="scale(0.015625)"/>
       </defs>
       <use xlink:href="#DejaVuSans-37"/>
       <use xlink:href="#DejaVuSans-30" x="63.623047"/>
      </g>
     </g>
    </g>
    <g id="ytick_3">
     <g id="line2d_23">
      <path d="M 180 555.740601 
L 1296 555.740601 
" clip-path="url(#p9ce936deaa)" style="fill: none; stroke: #b0b0b0; stroke-width: 0.8; stroke-linecap: square"/>
     </g>
     <g id="line2d_24">
      <g>
       <use xlink:href="#m3f4c70acf4" x="180" y="555.740601" style="stroke: #000000; stroke-width: 0.8"/>
      </g>
     </g>
     <g id="text_13">
      <!-- 71 -->
      <g transform="translate(147.55 563.339039) scale(0.2 -0.2)">
       <defs>
        <path id="DejaVuSans-31" d="M 794 531 
L 1825 531 
L 1825 4091 
L 703 3866 
L 703 4441 
L 1819 4666 
L 2450 4666 
L 2450 531 
L 3481 531 
L 3481 0 
L 794 0 
L 794 531 
z
" transform="scale(0.015625)"/>
       </defs>
       <use xlink:href="#DejaVuSans-37"/>
       <use xlink:href="#DejaVuSans-31" x="63.623047"/>
      </g>
     </g>
    </g>
    <g id="ytick_4">
     <g id="line2d_25">
      <path d="M 180 472.606506 
L 1296 472.606506 
" clip-path="url(#p9ce936deaa)" style="fill: none; stroke: #b0b0b0; stroke-width: 0.8; stroke-linecap: square"/>
     </g>
     <g id="line2d_26">
      <g>
       <use xlink:href="#m3f4c70acf4" x="180" y="472.606506" style="stroke: #000000; stroke-width: 0.8"/>
      </g>
     </g>
     <g id="text_14">
      <!-- 72 -->
      <g transform="translate(147.55 480.204943) scale(0.2 -0.2)">
       <use xlink:href="#DejaVuSans-37"/>
       <use xlink:href="#DejaVuSans-32" x="63.623047"/>
      </g>
     </g>
    </g>
    <g id="ytick_5">
     <g id="line2d_27">
      <path d="M 180 389.47241 
L 1296 389.47241 
" clip-path="url(#p9ce936deaa)" style="fill: none; stroke: #b0b0b0; stroke-width: 0.8; stroke-linecap: square"/>
     </g>
     <g id="line2d_28">
      <g>
       <use xlink:href="#m3f4c70acf4" x="180" y="389.47241" style="stroke: #000000; stroke-width: 0.8"/>
      </g>
     </g>
     <g id="text_15">
      <!-- 73 -->
      <g transform="translate(147.55 397.070848) scale(0.2 -0.2)">
       <use xlink:href="#DejaVuSans-37"/>
       <use xlink:href="#DejaVuSans-33" x="63.623047"/>
      </g>
     </g>
    </g>
    <g id="ytick_6">
     <g id="line2d_29">
      <path d="M 180 306.338315 
L 1296 306.338315 
" clip-path="url(#p9ce936deaa)" style="fill: none; stroke: #b0b0b0; stroke-width: 0.8; stroke-linecap: square"/>
     </g>
     <g id="line2d_30">
      <g>
       <use xlink:href="#m3f4c70acf4" x="180" y="306.338315" style="stroke: #000000; stroke-width: 0.8"/>
      </g>
     </g>
     <g id="text_16">
      <!-- 74 -->
      <g transform="translate(147.55 313.936752) scale(0.2 -0.2)">
       <use xlink:href="#DejaVuSans-37"/>
       <use xlink:href="#DejaVuSans-34" x="63.623047"/>
      </g>
     </g>
    </g>
    <g id="ytick_7">
     <g id="line2d_31">
      <path d="M 180 223.204219 
L 1296 223.204219 
" clip-path="url(#p9ce936deaa)" style="fill: none; stroke: #b0b0b0; stroke-width: 0.8; stroke-linecap: square"/>
     </g>
     <g id="line2d_32">
      <g>
       <use xlink:href="#m3f4c70acf4" x="180" y="223.204219" style="stroke: #000000; stroke-width: 0.8"/>
      </g>
     </g>
     <g id="text_17">
      <!-- 75 -->
      <g transform="translate(147.55 230.802657) scale(0.2 -0.2)">
       <defs>
        <path id="DejaVuSans-35" d="M 691 4666 
L 3169 4666 
L 3169 4134 
L 1269 4134 
L 1269 2991 
Q 1406 3038 1543 3061 
Q 1681 3084 1819 3084 
Q 2600 3084 3056 2656 
Q 3513 2228 3513 1497 
Q 3513 744 3044 326 
Q 2575 -91 1722 -91 
Q 1428 -91 1123 -41 
Q 819 9 494 109 
L 494 744 
Q 775 591 1075 516 
Q 1375 441 1709 441 
Q 2250 441 2565 725 
Q 2881 1009 2881 1497 
Q 2881 1984 2565 2268 
Q 2250 2553 1709 2553 
Q 1456 2553 1204 2497 
Q 953 2441 691 2322 
L 691 4666 
z
" transform="scale(0.015625)"/>
       </defs>
       <use xlink:href="#DejaVuSans-37"/>
       <use xlink:href="#DejaVuSans-35" x="63.623047"/>
      </g>
     </g>
    </g>
    <g id="ytick_8">
     <g id="line2d_33">
      <path d="M 180 140.070124 
L 1296 140.070124 
" clip-path="url(#p9ce936deaa)" style="fill: none; stroke: #b0b0b0; stroke-width: 0.8; stroke-linecap: square"/>
     </g>
     <g id="line2d_34">
      <g>
       <use xlink:href="#m3f4c70acf4" x="180" y="140.070124" style="stroke: #000000; stroke-width: 0.8"/>
      </g>
     </g>
     <g id="text_18">
      <!-- 76 -->
      <g transform="translate(147.55 147.668561) scale(0.2 -0.2)">
       <use xlink:href="#DejaVuSans-37"/>
       <use xlink:href="#DejaVuSans-36" x="63.623047"/>
      </g>
     </g>
    </g>
    <g id="text_19">
     <!-- exergetischer Wirkungsgrad [%] -->
     <g transform="translate(139.390625 597.362187) rotate(-90) scale(0.2 -0.2)">
      <defs>
       <path id="DejaVuSans-78" d="M 3513 3500 
L 2247 1797 
L 3578 0 
L 2900 0 
L 1881 1375 
L 863 0 
L 184 0 
L 1544 1831 
L 300 3500 
L 978 3500 
L 1906 2253 
L 2834 3500 
L 3513 3500 
z
" transform="scale(0.015625)"/>
       <path id="DejaVuSans-67" d="M 2906 1791 
Q 2906 2416 2648 2759 
Q 2391 3103 1925 3103 
Q 1463 3103 1205 2759 
Q 947 2416 947 1791 
Q 947 1169 1205 825 
Q 1463 481 1925 481 
Q 2391 481 2648 825 
Q 2906 1169 2906 1791 
z
M 3481 434 
Q 3481 -459 3084 -895 
Q 2688 -1331 1869 -1331 
Q 1566 -1331 1297 -1286 
Q 1028 -1241 775 -1147 
L 775 -588 
Q 1028 -725 1275 -790 
Q 1522 -856 1778 -856 
Q 2344 -856 2625 -561 
Q 2906 -266 2906 331 
L 2906 616 
Q 2728 306 2450 153 
Q 2172 0 1784 0 
Q 1141 0 747 490 
Q 353 981 353 1791 
Q 353 2603 747 3093 
Q 1141 3584 1784 3584 
Q 2172 3584 2450 3431 
Q 2728 3278 2906 2969 
L 2906 3500 
L 3481 3500 
L 3481 434 
z
" transform="scale(0.015625)"/>
       <path id="DejaVuSans-74" d="M 1172 4494 
L 1172 3500 
L 2356 3500 
L 2356 3053 
L 1172 3053 
L 1172 1153 
Q 1172 725 1289 603 
Q 1406 481 1766 481 
L 2356 481 
L 2356 0 
L 1766 0 
Q 1100 0 847 248 
Q 594 497 594 1153 
L 594 3053 
L 172 3053 
L 172 3500 
L 594 3500 
L 594 4494 
L 1172 4494 
z
" transform="scale(0.015625)"/>
       <path id="DejaVuSans-69" d="M 603 3500 
L 1178 3500 
L 1178 0 
L 603 0 
L 603 3500 
z
M 603 4863 
L 1178 4863 
L 1178 4134 
L 603 4134 
L 603 4863 
z
" transform="scale(0.015625)"/>
       <path id="DejaVuSans-57" d="M 213 4666 
L 850 4666 
L 1831 722 
L 2809 4666 
L 3519 4666 
L 4500 722 
L 5478 4666 
L 6119 4666 
L 4947 0 
L 4153 0 
L 3169 4050 
L 2175 0 
L 1381 0 
L 213 4666 
z
" transform="scale(0.015625)"/>
       <path id="DejaVuSans-6e" d="M 3513 2113 
L 3513 0 
L 2938 0 
L 2938 2094 
Q 2938 2591 2744 2837 
Q 2550 3084 2163 3084 
Q 1697 3084 1428 2787 
Q 1159 2491 1159 1978 
L 1159 0 
L 581 0 
L 581 3500 
L 1159 3500 
L 1159 2956 
Q 1366 3272 1645 3428 
Q 1925 3584 2291 3584 
Q 2894 3584 3203 3211 
Q 3513 2838 3513 2113 
z
" transform="scale(0.015625)"/>
       <path id="DejaVuSans-25" d="M 4653 2053 
Q 4381 2053 4226 1822 
Q 4072 1591 4072 1178 
Q 4072 772 4226 539 
Q 4381 306 4653 306 
Q 4919 306 5073 539 
Q 5228 772 5228 1178 
Q 5228 1588 5073 1820 
Q 4919 2053 4653 2053 
z
M 4653 2450 
Q 5147 2450 5437 2106 
Q 5728 1763 5728 1178 
Q 5728 594 5436 251 
Q 5144 -91 4653 -91 
Q 4153 -91 3862 251 
Q 3572 594 3572 1178 
Q 3572 1766 3864 2108 
Q 4156 2450 4653 2450 
z
M 1428 4353 
Q 1159 4353 1004 4120 
Q 850 3888 850 3481 
Q 850 3069 1003 2837 
Q 1156 2606 1428 2606 
Q 1700 2606 1854 2837 
Q 2009 3069 2009 3481 
Q 2009 3884 1853 4118 
Q 1697 4353 1428 4353 
z
M 4250 4750 
L 4750 4750 
L 1831 -91 
L 1331 -91 
L 4250 4750 
z
M 1428 4750 
Q 1922 4750 2215 4408 
Q 2509 4066 2509 3481 
Q 2509 2891 2217 2550 
Q 1925 2209 1428 2209 
Q 931 2209 642 2551 
Q 353 2894 353 3481 
Q 353 4063 643 4406 
Q 934 4750 1428 4750 
z
" transform="scale(0.015625)"/>
      </defs>
      <use xlink:href="#DejaVuSans-65"/>
      <use xlink:href="#DejaVuSans-78" x="59.773438"/>
      <use xlink:href="#DejaVuSans-65" x="115.828125"/>
      <use xlink:href="#DejaVuSans-72" x="177.351562"/>
      <use xlink:href="#DejaVuSans-67" x="216.714844"/>
      <use xlink:href="#DejaVuSans-65" x="280.191406"/>
      <use xlink:href="#DejaVuSans-74" x="341.714844"/>
      <use xlink:href="#DejaVuSans-69" x="380.923828"/>
      <use xlink:href="#DejaVuSans-73" x="408.707031"/>
      <use xlink:href="#DejaVuSans-63" x="460.806641"/>
      <use xlink:href="#DejaVuSans-68" x="515.787109"/>
      <use xlink:href="#DejaVuSans-65" x="579.166016"/>
      <use xlink:href="#DejaVuSans-72" x="640.689453"/>
      <use xlink:href="#DejaVuSans-20" x="681.802734"/>
      <use xlink:href="#DejaVuSans-57" x="713.589844"/>
      <use xlink:href="#DejaVuSans-69" x="810.216797"/>
      <use xlink:href="#DejaVuSans-72" x="838"/>
      <use xlink:href="#DejaVuSans-6b" x="879.113281"/>
      <use xlink:href="#DejaVuSans-75" x="933.898438"/>
      <use xlink:href="#DejaVuSans-6e" x="997.277344"/>
      <use xlink:href="#DejaVuSans-67" x="1060.65625"/>
      <use xlink:href="#DejaVuSans-73" x="1124.132812"/>
      <use xlink:href="#DejaVuSans-67" x="1176.232422"/>
      <use xlink:href="#DejaVuSans-72" x="1239.708984"/>
      <use xlink:href="#DejaVuSans-61" x="1280.822266"/>
      <use xlink:href="#DejaVuSans-64" x="1342.101562"/>
      <use xlink:href="#DejaVuSans-20" x="1405.578125"/>
      <use xlink:href="#DejaVuSans-5b" x="1437.365234"/>
      <use xlink:href="#DejaVuSans-25" x="1476.378906"/>
      <use xlink:href="#DejaVuSans-5d" x="1571.398438"/>
     </g>
    </g>
   </g>
   <g id="line2d_35">
    <path d="M 230.873222 324.327381 
L 243.713722 332.767512 
L 256.554222 341.076963 
L 269.394722 349.258751 
L 282.235223 357.315803 
L 295.075723 365.250955 
L 307.916223 373.066954 
L 320.756723 380.766483 
L 333.597223 388.352097 
L 346.437723 395.82632 
L 359.278223 403.191585 
L 372.118723 410.450257 
L 384.959223 417.604657 
L 397.799723 424.656962 
L 410.640223 431.609345 
L 423.480723 438.463939 
L 436.321223 445.222774 
L 449.161723 451.887838 
L 462.002223 458.46106 
L 474.842723 464.944321 
L 487.683224 471.339446 
L 500.523724 477.648213 
L 513.364224 483.872353 
L 526.204724 490.013548 
L 539.045224 496.073438 
L 551.885724 502.053619 
L 564.726224 507.955643 
L 577.566724 513.781025 
L 590.407224 519.531245 
L 603.247724 525.207733 
L 616.088224 530.811893 
L 628.928724 536.3451 
L 641.769224 541.808666 
L 654.609724 547.20388 
L 667.450224 552.532052 
L 680.290724 557.794389 
L 693.131225 562.992099 
L 705.971725 568.126364 
L 718.812225 573.198336 
L 731.652725 578.209131 
L 744.493225 583.159845 
L 757.333725 588.051552 
L 770.174225 592.885297 
L 783.014725 597.662105 
L 795.855225 602.382949 
L 808.695725 607.048839 
L 821.536225 611.660711 
L 834.376725 616.219365 
L 847.217225 620.725927 
L 860.057725 625.181197 
L 872.898225 629.586046 
L 885.738726 633.941326 
L 898.579226 638.247871 
L 911.419726 642.506495 
L 924.260226 646.717998 
L 937.100726 650.88316 
L 949.941226 655.002745 
L 962.781726 659.077504 
L 975.622226 663.108168 
L 988.462726 667.095456 
L 1001.303226 671.040071 
L 1014.143726 674.942703 
L 1026.984226 678.804026 
L 1039.824726 682.624702 
L 1052.665226 686.405379 
L 1065.505726 690.146694 
L 1078.346226 693.849268 
L 1091.186727 697.513713 
L 1104.027227 701.140628 
L 1116.867727 704.730601 
L 1129.708227 708.284206 
L 1142.548727 711.80201 
L 1155.389227 715.284568 
L 1168.229727 718.732422 
L 1181.070227 722.146107 
L 1193.910727 725.526147 
L 1206.751227 728.873056 
L 1219.591727 732.187339 
L 1232.432227 735.469491 
L 1245.272727 738.72 
" clip-path="url(#p9ce936deaa)" style="fill: none; stroke: #000000; stroke-width: 1.5; stroke-linecap: square"/>
   </g>
   <g id="line2d_36">
    <path d="M 230.873222 236.161703 
L 243.713722 245.150873 
L 256.554222 253.996877 
L 269.394722 262.703076 
L 282.235223 271.272727 
L 295.075723 279.708981 
L 307.916223 288.014892 
L 320.756723 296.193426 
L 333.597223 304.24745 
L 346.437723 312.179745 
L 359.278223 319.993021 
L 372.118723 327.689868 
L 384.959223 335.272844 
L 397.799723 342.744434 
L 410.640223 350.107007 
L 423.480723 357.362898 
L 436.321223 364.514365 
L 449.161723 371.563621 
L 462.002223 378.512771 
L 474.842723 385.363898 
L 487.683224 392.119022 
L 500.523724 398.780104 
L 513.364224 405.349077 
L 526.204724 411.827752 
L 539.045224 418.217958 
L 551.885724 424.521453 
L 564.726224 430.739951 
L 577.566724 436.87512 
L 590.407224 442.928585 
L 603.247724 448.901913 
L 616.088224 454.796678 
L 628.928724 460.614367 
L 641.769224 466.356453 
L 654.609724 472.024359 
L 667.450224 477.619482 
L 680.290724 483.143184 
L 693.131225 488.596791 
L 705.971725 493.981612 
L 718.812225 499.298876 
L 731.652725 504.549838 
L 744.493225 509.735727 
L 757.333725 514.857682 
L 770.174225 519.916878 
L 783.014725 524.91444 
L 795.855225 529.851467 
L 808.695725 534.72903 
L 821.536225 539.548203 
L 834.376725 544.309909 
L 847.217225 549.015259 
L 860.057725 553.6652 
L 872.898225 558.260693 
L 885.738726 562.802678 
L 898.579226 567.292075 
L 911.419726 571.729782 
L 924.260226 576.116682 
L 937.100726 580.453636 
L 949.941226 584.741489 
L 962.781726 588.981068 
L 975.622226 593.173184 
L 988.462726 597.31863 
L 1001.303226 601.418184 
L 1014.143726 605.472609 
L 1026.984226 609.48265 
L 1039.824726 613.449041 
L 1052.665226 617.3725 
L 1065.505726 621.253729 
L 1078.346226 625.093421 
L 1091.186727 628.892251 
L 1104.027227 632.650885 
L 1116.867727 636.369973 
L 1129.708227 640.050155 
L 1142.548727 643.692057 
L 1155.389227 647.296297 
L 1168.229727 650.863478 
L 1181.070227 654.394194 
L 1193.910727 657.889026 
L 1206.751227 661.348546 
L 1219.591727 664.773317 
L 1232.432227 668.163889 
L 1245.272727 671.520804 
" clip-path="url(#p9ce936deaa)" style="fill: none; stroke: #000000; stroke-width: 1.5; stroke-linecap: square"/>
   </g>
   <g id="line2d_37">
    <path d="M 230.873222 176.753462 
L 243.713722 185.83874 
L 256.554222 194.77746 
L 269.394722 203.573057 
L 282.235223 212.228807 
L 295.075723 220.747902 
L 307.916223 229.133434 
L 320.756723 237.388402 
L 333.597223 245.515715 
L 346.437723 253.518194 
L 359.278223 261.398578 
L 372.118723 269.159523 
L 384.959223 276.803612 
L 397.799723 284.33335 
L 410.640223 291.751171 
L 423.480723 299.059442 
L 436.321223 306.260461 
L 449.161723 313.356465 
L 462.002223 320.349627 
L 474.842723 327.242062 
L 487.683224 334.035828 
L 500.523724 340.732926 
L 513.364224 347.335306 
L 526.204724 353.844866 
L 539.045224 360.263455 
L 551.885724 366.59287 
L 564.726224 372.834872 
L 577.566724 378.991176 
L 590.407224 385.063421 
L 603.247724 391.05325 
L 616.088224 396.962268 
L 628.928724 402.791995 
L 641.769224 408.543976 
L 654.609724 414.219641 
L 667.450224 419.82043 
L 680.290724 425.347771 
L 693.131225 430.803023 
L 705.971725 436.187532 
L 718.812225 441.502595 
L 731.652725 446.749497 
L 744.493225 451.929488 
L 757.333725 457.043789 
L 770.174225 462.093594 
L 783.014725 467.080066 
L 795.855225 472.004363 
L 808.695725 476.867584 
L 821.536225 481.670843 
L 834.376725 486.415226 
L 847.217225 491.101742 
L 860.057725 495.731437 
L 872.898225 500.305315 
L 885.738726 504.824362 
L 898.579226 509.289542 
L 911.419726 513.701803 
L 924.260226 518.06207 
L 937.100726 522.371252 
L 949.941226 526.63024 
L 962.781726 530.839906 
L 975.622226 535.001108 
L 988.462726 539.114684 
L 1001.303226 543.181458 
L 1014.143726 547.202239 
L 1026.984226 551.177819 
L 1039.824726 555.108976 
L 1052.665226 558.996474 
L 1065.505726 562.841061 
L 1078.346226 566.643473 
L 1091.186727 570.404433 
L 1104.027227 574.124648 
L 1116.867727 577.804815 
L 1129.708227 581.445618 
L 1142.548727 585.047726 
L 1155.389227 588.6118 
L 1168.229727 592.138487 
L 1181.070227 595.628422 
L 1193.910727 599.082229 
L 1206.751227 602.500524 
L 1219.591727 605.883907 
L 1232.432227 609.232971 
L 1245.272727 612.548298 
" clip-path="url(#p9ce936deaa)" style="fill: none; stroke: #000000; stroke-width: 1.5; stroke-linecap: square"/>
   </g>
   <g id="line2d_38">
    <path d="M 230.873222 133.92 
L 243.713722 142.858139 
L 256.554222 151.64873 
L 269.394722 160.29515 
L 282.235223 168.800669 
L 295.075723 177.168464 
L 307.916223 185.401612 
L 320.756723 193.503099 
L 333.597223 201.475822 
L 346.437723 209.322597 
L 359.278223 217.046155 
L 372.118723 224.649151 
L 384.959223 232.134163 
L 397.799723 239.503701 
L 410.640223 246.7602 
L 423.480723 253.906031 
L 436.321223 260.943505 
L 449.161723 267.874864 
L 462.002223 274.702295 
L 474.842723 281.427925 
L 487.683224 288.053827 
L 500.523724 294.582021 
L 513.364224 301.014476 
L 526.204724 307.353111 
L 539.045224 313.599799 
L 551.885724 319.756365 
L 564.726224 325.824591 
L 577.566724 331.806215 
L 590.407224 337.702937 
L 603.247724 343.516413 
L 616.088224 349.248263 
L 628.928724 354.900071 
L 641.769224 360.473383 
L 654.609724 365.969711 
L 667.450224 371.390532 
L 680.290724 376.737296 
L 693.131225 382.011398 
L 705.971725 387.214257 
L 718.812225 392.347229 
L 731.652725 397.411609 
L 744.493225 402.408701 
L 757.333725 407.33982 
L 770.174225 412.206179 
L 783.014725 417.009022 
L 795.855225 421.74951 
L 808.695725 426.428821 
L 821.536225 431.048175 
L 834.376725 435.60861 
L 847.217225 440.111294 
L 860.057725 444.557296 
L 872.898225 448.947682 
L 885.738726 453.283498 
L 898.579226 457.565771 
L 911.419726 461.795507 
L 924.260226 465.973695 
L 937.100726 470.101306 
L 949.941226 474.179292 
L 962.781726 478.208588 
L 975.622226 482.190112 
L 988.462726 486.124765 
L 1001.303226 490.013432 
L 1014.143726 493.856982 
L 1026.984226 497.656267 
L 1039.824726 501.412124 
L 1052.665226 505.125376 
L 1065.505726 508.79683 
L 1078.346226 512.427277 
L 1091.186727 516.017495 
L 1104.027227 519.568248 
L 1116.867727 523.080285 
L 1129.708227 526.554342 
L 1142.548727 529.991139 
L 1155.389227 533.391387 
L 1168.229727 536.755779 
L 1181.070227 540.084999 
L 1193.910727 543.379714 
L 1206.751227 546.640583 
L 1219.591727 549.868248 
L 1232.432227 553.063343 
L 1245.272727 556.226487 
" clip-path="url(#p9ce936deaa)" style="fill: none; stroke: #000000; stroke-width: 1.5; stroke-linecap: square"/>
   </g>
   <g id="line2d_39">
    <path d="M 446.688862 227.844895 
L 456.797518 232.955827 
L 466.906175 238.002819 
L 477.014831 242.986916 
L 487.123488 247.909146 
L 497.232145 252.770519 
L 507.340801 257.572025 
L 517.449458 262.31464 
L 527.558114 266.999321 
L 537.666771 271.62701 
L 547.775427 276.198633 
L 557.884084 280.715099 
L 567.99274 285.177322 
L 578.101397 289.586149 
L 588.210053 293.942466 
L 598.31871 298.247126 
L 608.427366 302.500971 
L 618.536023 306.704829 
L 628.644679 310.859516 
L 638.753336 314.965832 
L 648.861992 319.024572 
L 658.970649 323.036515 
L 669.079305 327.002442 
L 679.187962 330.923083 
L 689.296618 334.799201 
L 699.405275 338.631531 
L 709.513932 342.420801 
L 719.622588 346.167724 
L 729.731245 349.873005 
L 739.839901 353.537341 
L 749.948558 357.161416 
L 760.057214 360.745908 
L 770.165871 364.291478 
L 780.274527 367.798788 
L 790.383184 371.268455 
L 800.49184 374.701169 
L 810.600497 378.097516 
L 820.709153 381.458164 
L 830.81781 384.783666 
L 840.926466 388.074651 
L 851.035123 391.331708 
L 861.143779 394.555424 
L 871.252436 397.746371 
L 881.361092 400.905118 
L 891.469749 404.03222 
L 901.578405 407.128229 
L 911.687062 410.193683 
L 921.795719 413.229115 
L 931.904375 416.235048 
L 942.013032 419.211998 
L 952.121688 422.16047 
L 962.230345 425.080965 
L 972.339001 427.973971 
L 982.447658 430.83997 
L 992.556314 433.679438 
L 1002.664971 436.492838 
L 1012.773627 439.28063 
L 1022.882284 442.043263 
L 1032.99094 444.781179 
L 1043.099597 447.494812 
L 1053.208253 450.184589 
L 1063.31691 452.850929 
L 1073.425566 455.494244 
L 1083.534223 458.114937 
L 1093.642879 460.713406 
L 1103.751536 463.290039 
L 1113.860192 465.845219 
L 1123.968849 468.379322 
L 1134.077506 470.892715 
L 1144.186162 473.38576 
L 1154.294819 475.858811 
L 1164.403475 478.312217 
L 1174.512132 480.746319 
L 1184.620788 483.161452 
L 1194.729445 485.557945 
L 1204.838101 487.93612 
L 1214.946758 490.296294 
L 1225.055414 492.638776 
L 1235.164071 494.963872 
L 1245.272727 497.271879 
" clip-path="url(#p9ce936deaa)" style="fill: none; stroke: #000000; stroke-width: 1.5; stroke-linecap: square"/>
   </g>
   <g id="line2d_40">
    <path d="M 232.708877 154.174906 
L 238.036584 157.140457 
L 243.353417 160.074774 
L 248.659064 162.977913 
L 253.953214 165.849933 
L 259.235554 168.690891 
L 264.505772 171.500846 
L 269.763554 174.279856 
L 275.008586 177.027981 
L 280.240553 179.745278 
L 285.45914 182.431808 
L 290.664031 185.087629 
L 295.854912 187.712801 
L 301.031465 190.307382 
L 306.193375 192.871436 
L 311.340324 195.40502 
L 316.471996 197.908196 
L 321.588075 200.381023 
L 326.688243 202.823562 
L 331.772183 205.235874 
L 336.839579 207.61802 
L 341.890113 209.970061 
L 346.923471 212.292059 
L 351.939334 214.584075 
L 356.937387 216.846171 
L 361.917315 219.078407 
L 366.878803 221.280848 
L 371.821534 223.453554 
L 376.745196 225.596589 
L 381.649474 227.710015 
L 386.534056 229.793894 
L 391.398628 231.84829 
L 396.24288 233.873266 
L 401.066501 235.868885 
L 405.869181 237.835211 
L 410.650611 239.772309 
L 415.410483 241.680241 
L 420.148491 243.559073 
L 424.864328 245.408867 
L 429.55769 247.229692 
L 434.228275 249.02161 
L 438.87578 250.784688 
L 443.499906 252.518991 
L 448.100352 254.224586 
L 452.676823 255.901537 
L 457.229021 257.549911 
L 461.756655 259.169774 
L 466.259429 260.761197 
L 470.737056 262.324244 
L 475.189246 263.858984 
L 479.615713 265.365485 
L 484.016172 266.843816 
L 488.390341 268.294045 
L 492.73794 269.716242 
L 497.058691 271.110476 
L 501.352319 272.476819 
L 505.618551 273.81534 
L 509.857116 275.12611 
L 514.067746 276.4092 
L 518.250176 277.664684 
L 522.404143 278.892633 
L 526.529388 280.093119 
L 530.625658 281.266202 
L 534.69269 282.411984 
L 538.730239 283.530526 
L 542.738055 284.621903 
L 546.715895 285.68619 
L 550.663517 286.723464 
L 554.580684 287.733801 
L 558.46716 288.717278 
L 562.322715 289.673975 
L 566.14712 290.603968 
L 569.940154 291.507339 
L 573.701595 292.384166 
L 577.431228 293.23453 
L 581.128839 294.058514 
L 584.794221 294.856198 
L 588.42717 295.627666 
L 592.027485 296.373001 
L 595.594971 297.092288 
" clip-path="url(#p9ce936deaa)" style="fill: none; stroke-dasharray: 5.55,2.4; stroke-dashoffset: 0; stroke: #ff0000; stroke-width: 1.5"/>
   </g>
   <g id="line2d_41">
    <path d="M 230.727273 180.17634 
L 238.663227 184.481157 
L 246.586131 188.730691 
L 254.495171 192.924999 
L 262.389553 197.064107 
L 270.268457 201.148086 
L 278.131066 205.176995 
L 285.97656 209.150901 
L 293.804117 213.069872 
L 301.612911 216.933983 
L 309.402112 220.743312 
L 317.17089 224.497941 
L 324.918412 228.197954 
L 332.643842 231.843438 
L 340.346343 235.434489 
L 348.025076 238.9712 
L 355.679202 242.45367 
L 363.307881 245.881998 
L 370.910269 249.256289 
L 378.485527 252.57665 
L 386.032811 255.84319 
L 393.551281 259.05602 
L 401.040094 262.215254 
L 408.49841 265.32101 
L 415.92539 268.373406 
L 423.320195 271.372564 
L 430.681989 274.318607 
L 438.009936 277.211661 
L 445.303205 280.051855 
L 452.560967 282.839316 
L 459.782392 285.574182 
L 466.96666 288.256582 
L 474.112949 290.886656 
L 481.220444 293.464541 
L 488.288333 295.99038 
L 495.315809 298.464312 
L 502.30207 300.886484 
L 509.246319 303.257043 
L 516.147765 305.576139 
L 523.005624 307.843922 
L 529.819117 310.060546 
L 536.587472 312.226166 
L 543.309925 314.340941 
L 549.985719 316.40503 
L 556.614106 318.418595 
L 563.194345 320.381801 
L 569.725705 322.294814 
L 576.207462 324.157803 
L 582.638904 325.97094 
L 589.019328 327.734399 
L 595.348041 329.448355 
L 601.624362 331.112988 
L 607.847619 332.728479 
L 614.017154 334.295011 
L 620.13232 335.812771 
L 626.192481 337.281948 
L 632.197016 338.702735 
L 638.145316 340.075325 
L 644.036787 341.399917 
L 649.870846 342.676709 
L 655.646929 343.905909 
L 661.364484 345.087718 
L 667.022974 346.222348 
L 672.62188 347.310013 
L 678.160696 348.350928 
L 683.638937 349.345312 
L 689.056132 350.293387 
L 694.411827 351.195381 
L 699.705587 352.051521 
L 704.936998 352.86204 
L 710.105659 353.627176 
L 715.211193 354.347167 
L 720.253241 355.022257 
L 725.231463 355.652694 
L 730.145541 356.238728 
L 734.995176 356.780614 
L 739.780093 357.27861 
L 744.500037 357.732979 
L 749.154773 358.143987 
L 753.744091 358.511903 
" clip-path="url(#p9ce936deaa)" style="fill: none; stroke-dasharray: 5.55,2.4; stroke-dashoffset: 0; stroke: #ffa500; stroke-width: 1.5"/>
   </g>
   <g id="line2d_42">
    <path d="M 233.721846 213.720431 
L 244.326576 219.14749 
L 254.92139 224.499003 
L 265.50473 229.774627 
L 276.075029 234.97405 
L 286.630705 240.096996 
L 297.170166 245.143225 
L 307.691811 250.112526 
L 318.194027 255.00472 
L 328.675192 259.819652 
L 339.133674 264.557194 
L 349.567837 269.217245 
L 359.976033 273.799717 
L 370.356611 278.30456 
L 380.707912 282.731724 
L 391.028274 287.081194 
L 401.31603 291.352965 
L 411.569509 295.547052 
L 421.787039 299.663486 
L 431.966946 303.702309 
L 442.107554 307.663583 
L 452.207191 311.54738 
L 462.264182 315.353789 
L 472.276857 319.082907 
L 482.243548 322.734848 
L 492.162593 326.309733 
L 502.032332 329.807699 
L 511.851115 333.22889 
L 521.617297 336.573463 
L 531.329242 339.841584 
L 540.985325 343.033428 
L 550.583928 346.149182 
L 560.12345 349.189043 
L 569.602298 352.153212 
L 579.018898 355.041905 
L 588.371688 357.855345 
L 597.659124 360.593762 
L 606.87968 363.257398 
L 616.031846 365.846501 
L 625.114138 368.361328 
L 634.125089 370.802146 
L 643.063256 373.169228 
L 651.927222 375.462859 
L 660.715593 377.683329 
L 669.427004 379.830938 
L 678.060116 381.905997 
L 686.613622 383.908819 
L 695.086245 385.839731 
L 703.476738 387.699068 
L 711.783891 389.487176 
L 720.006522 391.204417 
L 728.143503 392.851127 
L 736.193724 394.427689 
L 744.156124 395.934482 
L 752.029679 397.371895 
L 759.813416 398.740312 
L 767.506385 400.040164 
L 775.107699 401.271862 
L 782.616512 402.435829 
L 790.032025 403.532501 
L 797.353489 404.5623 
L 804.580211 405.525693 
L 811.711535 406.423177 
L 818.746874 407.255214 
L 825.685679 408.022285 
L 832.527454 408.724826 
L 839.271802 409.363429 
L 845.918338 409.938577 
L 852.466753 410.450795 
L 858.916797 410.900619 
L 865.268283 411.288596 
L 871.521088 411.61528 
L 877.67515 411.881237 
L 883.730476 412.087043 
L 889.687136 412.233284 
L 895.54527 412.320554 
L 901.305084 412.349456 
L 906.966855 412.320605 
L 912.530928 412.234622 
L 917.997721 412.092138 
" clip-path="url(#p9ce936deaa)" style="fill: none; stroke-dasharray: 5.55,2.4; stroke-dashoffset: 0; stroke: #008000; stroke-width: 1.5"/>
   </g>
   <g id="line2d_43">
    <path d="M 233.47757 251.951474 
L 246.900145 258.215112 
L 260.323657 264.399601 
L 273.745509 270.502637 
L 287.163077 276.522139 
L 300.573703 282.456219 
L 313.974706 288.30317 
L 327.363373 294.061454 
L 340.736969 299.729675 
L 354.092737 305.306574 
L 367.427894 310.791019 
L 380.73964 316.181991 
L 394.025156 321.478577 
L 407.281605 326.679961 
L 420.506132 331.785415 
L 433.695884 336.794295 
L 446.847983 341.706033 
L 459.959547 346.520132 
L 473.027686 351.236162 
L 486.049502 355.853764 
L 499.022115 360.372605 
L 511.942625 364.79244 
L 524.808142 369.11306 
L 537.61578 373.334309 
L 550.362664 377.456068 
L 563.045928 381.478267 
L 575.662722 385.400873 
L 588.210209 389.223896 
L 600.685567 392.947386 
L 613.086015 396.571403 
L 625.408779 400.096062 
L 637.651111 403.52152 
L 649.810316 406.847926 
L 661.883713 410.075493 
L 673.868665 413.204452 
L 685.762576 416.235059 
L 697.562894 419.167606 
L 709.26712 422.002383 
L 720.872789 424.739753 
L 732.377506 427.380072 
L 743.778929 429.923727 
L 755.074779 432.371133 
L 766.262838 434.722722 
L 777.34096 436.978956 
L 788.307064 439.140323 
L 799.159156 441.207326 
L 809.895313 443.180458 
L 820.513698 445.060348 
L 831.012542 446.84754 
L 841.390207 448.542634 
L 851.645115 450.146256 
L 861.775795 451.659055 
L 871.780878 453.081704 
L 881.659098 454.414897 
L 891.4093 455.659353 
L 901.030439 456.815813 
L 910.521577 457.885041 
L 919.881922 458.867829 
L 929.110777 459.764988 
L 938.207581 460.577351 
L 947.171903 461.305777 
L 956.003442 461.951145 
L 964.702035 462.514359 
L 973.267656 462.996344 
L 981.700422 463.398048 
L 990.000594 463.720438 
L 998.168579 463.964505 
L 1006.204936 464.131261 
L 1014.110375 464.221734 
L 1021.88576 464.236977 
L 1029.532111 464.178057 
L 1037.050609 464.046062 
L 1044.442592 463.842097 
L 1051.70956 463.567282 
L 1058.853175 463.222755 
L 1065.875265 462.809667 
L 1072.77782 462.329182 
L 1079.562994 461.782479 
L 1086.23311 461.170747 
L 1092.790651 460.495186 
" clip-path="url(#p9ce936deaa)" style="fill: none; stroke-dasharray: 5.55,2.4; stroke-dashoffset: 0; stroke: #4682b4; stroke-width: 1.5"/>
   </g>
   <g id="line2d_44">
    <path d="M 233.752557 299.354526 
L 250.069828 305.79826 
L 266.407691 312.212105 
L 282.762254 318.585875 
L 299.129565 324.910561 
L 315.505597 331.178164 
L 331.886291 337.381609 
L 348.267527 343.514538 
L 364.645115 349.571311 
L 381.014829 355.546884 
L 397.372393 361.436738 
L 413.713492 367.236827 
L 430.033771 372.943528 
L 446.328839 378.553593 
L 462.594278 384.064111 
L 478.82564 389.47248 
L 495.018457 394.776365 
L 511.168242 399.973686 
L 527.270484 405.062604 
L 543.3207 410.04144 
L 559.314368 414.908747 
L 575.246982 419.663237 
L 591.11404 424.303781 
L 606.911057 428.829395 
L 622.633566 433.239229 
L 638.277125 437.532561 
L 653.837323 441.708786 
L 669.309786 445.767406 
L 684.690185 449.708024 
L 699.974248 453.530328 
L 715.157739 457.234135 
L 730.236506 460.819299 
L 745.206455 464.285773 
L 760.063583 467.633609 
L 774.803976 470.862884 
L 789.423801 473.973781 
L 803.919312 476.966569 
L 818.286889 479.841495 
L 832.523026 482.599016 
L 846.624358 485.239489 
L 860.587622 487.763424 
L 874.409705 490.171369 
L 888.087644 492.463927 
L 901.618629 494.641754 
L 915.000017 496.705564 
L 928.229333 498.656121 
L 941.304285 500.494245 
L 954.22277 502.220802 
L 966.98288 503.836714 
L 979.582912 505.342952 
L 992.021376 506.740538 
L 1004.297005 508.030542 
L 1016.408757 509.214083 
L 1028.35583 510.29233 
L 1040.137664 511.266496 
L 1051.753952 512.137845 
L 1063.204647 512.907685 
L 1074.489966 513.577369 
L 1085.610401 514.148295 
L 1096.566723 514.621906 
L 1107.359989 514.999686 
L 1117.991546 515.283159 
L 1128.463029 515.473889 
L 1138.776411 515.573485 
L 1148.933936 515.583587 
L 1158.938171 515.50587 
L 1168.792001 515.342047 
L 1178.498627 515.093859 
L 1188.061575 514.763081 
L 1197.484693 514.351516 
L 1206.77216 513.860992 
L 1215.928478 513.293366 
L 1224.958483 512.650514 
L 1233.867339 511.934336 
L 1242.660542 511.146752 
" clip-path="url(#p9ce936deaa)" style="fill: none; stroke-dasharray: 5.55,2.4; stroke-dashoffset: 0; stroke: #8a2be2; stroke-width: 1.5"/>
   </g>
   <g id="patch_3">
    <path d="M 180 768.96 
L 180 103.68 
" style="fill: none; stroke: #000000; stroke-width: 0.8; stroke-linejoin: miter; stroke-linecap: square"/>
   </g>
   <g id="patch_4">
    <path d="M 1296 768.96 
L 1296 103.68 
" style="fill: none; stroke: #000000; stroke-width: 0.8; stroke-linejoin: miter; stroke-linecap: square"/>
   </g>
   <g id="patch_5">
    <path d="M 180 768.96 
L 1296 768.96 
" style="fill: none; stroke: #000000; stroke-width: 0.8; stroke-linejoin: miter; stroke-linecap: square"/>
   </g>
   <g id="patch_6">
    <path d="M 180 103.68 
L 1296 103.68 
" style="fill: none; stroke: #000000; stroke-width: 0.8; stroke-linejoin: miter; stroke-linecap: square"/>
   </g>
   <g id="text_20">
    <!-- 160 -->
    <g transform="translate(1248.572661 751.105726) scale(0.2 -0.2)">
     <use xlink:href="#DejaVuSans-31"/>
     <use xlink:href="#DejaVuSans-36" x="63.623047"/>
     <use xlink:href="#DejaVuSans-30" x="127.246094"/>
    </g>
   </g>
   <g id="text_21">
    <!-- 150 -->
    <g transform="translate(1248.572661 682.104427) scale(0.2 -0.2)">
     <use xlink:href="#DejaVuSans-31"/>
     <use xlink:href="#DejaVuSans-35" x="63.623047"/>
     <use xlink:href="#DejaVuSans-30" x="127.246094"/>
    </g>
   </g>
   <g id="text_22">
    <!-- 140 -->
    <g transform="translate(1248.572661 623.079219) scale(0.2 -0.2)">
     <use xlink:href="#DejaVuSans-31"/>
     <use xlink:href="#DejaVuSans-34" x="63.623047"/>
     <use xlink:href="#DejaVuSans-30" x="127.246094"/>
    </g>
   </g>
   <g id="text_23">
    <!-- 130 -->
    <g transform="translate(1248.572661 568.210716) scale(0.2 -0.2)">
     <use xlink:href="#DejaVuSans-31"/>
     <use xlink:href="#DejaVuSans-33" x="63.623047"/>
     <use xlink:href="#DejaVuSans-30" x="127.246094"/>
    </g>
   </g>
   <g id="text_24">
    <!-- 120 -->
    <g transform="translate(1248.572661 508.354167) scale(0.2 -0.2)">
     <use xlink:href="#DejaVuSans-31"/>
     <use xlink:href="#DejaVuSans-32" x="63.623047"/>
     <use xlink:href="#DejaVuSans-30" x="127.246094"/>
    </g>
   </g>
   <g id="legend_1">
    <g id="patch_7">
     <path d="M 239.257812 151.08 
L 1236.742188 151.08 
Q 1240.742188 151.08 1240.742188 147.08 
L 1240.742188 117.68 
Q 1240.742188 113.68 1236.742188 113.68 
L 239.257812 113.68 
Q 235.257812 113.68 235.257812 117.68 
L 235.257812 147.08 
Q 235.257812 151.08 239.257812 151.08 
z
" style="fill: #ffffff; opacity: 0.8; stroke: #cccccc; stroke-linejoin: miter"/>
    </g>
    <g id="line2d_45">
     <path d="M 243.257812 129.88 
L 263.257812 129.88 
L 283.257812 129.88 
" style="fill: none; stroke: #000000; stroke-width: 1.5; stroke-linecap: square"/>
    </g>
    <g id="text_25">
     <!-- $T_{se,ein}$ [°C]          $ΔT_{gk,ob}$: -->
     <g transform="translate(299.257812 136.88) scale(0.2 -0.2)">
      <defs>
       <path id="DejaVuSans-Oblique-54" d="M 378 4666 
L 4325 4666 
L 4225 4134 
L 2559 4134 
L 1759 0 
L 1125 0 
L 1925 4134 
L 275 4134 
L 378 4666 
z
" transform="scale(0.015625)"/>
       <path id="DejaVuSans-Oblique-73" d="M 3200 3397 
L 3091 2853 
Q 2863 2978 2609 3040 
Q 2356 3103 2088 3103 
Q 1634 3103 1373 2948 
Q 1113 2794 1113 2528 
Q 1113 2219 1719 2053 
Q 1766 2041 1788 2034 
L 1972 1978 
Q 2547 1819 2739 1644 
Q 2931 1469 2931 1166 
Q 2931 609 2489 259 
Q 2047 -91 1331 -91 
Q 1053 -91 747 -37 
Q 441 16 72 128 
L 184 722 
Q 500 559 806 475 
Q 1113 391 1394 391 
Q 1816 391 2080 572 
Q 2344 753 2344 1031 
Q 2344 1331 1650 1516 
L 1591 1531 
L 1394 1581 
Q 956 1697 753 1886 
Q 550 2075 550 2369 
Q 550 2928 970 3256 
Q 1391 3584 2113 3584 
Q 2397 3584 2667 3537 
Q 2938 3491 3200 3397 
z
" transform="scale(0.015625)"/>
       <path id="DejaVuSans-Oblique-65" d="M 3078 2063 
Q 3088 2113 3092 2166 
Q 3097 2219 3097 2272 
Q 3097 2653 2873 2875 
Q 2650 3097 2266 3097 
Q 1838 3097 1509 2826 
Q 1181 2556 1013 2059 
L 3078 2063 
z
M 3578 1613 
L 903 1613 
Q 884 1494 878 1425 
Q 872 1356 872 1306 
Q 872 872 1139 634 
Q 1406 397 1894 397 
Q 2269 397 2603 481 
Q 2938 566 3225 728 
L 3116 159 
Q 2806 34 2476 -28 
Q 2147 -91 1806 -91 
Q 1078 -91 686 257 
Q 294 606 294 1247 
Q 294 1794 489 2264 
Q 684 2734 1063 3103 
Q 1306 3334 1642 3459 
Q 1978 3584 2356 3584 
Q 2950 3584 3301 3228 
Q 3653 2872 3653 2272 
Q 3653 2128 3634 1964 
Q 3616 1800 3578 1613 
z
" transform="scale(0.015625)"/>
       <path id="DejaVuSans-2c" d="M 750 794 
L 1409 794 
L 1409 256 
L 897 -744 
L 494 -744 
L 750 256 
L 750 794 
z
" transform="scale(0.015625)"/>
       <path id="DejaVuSans-Oblique-69" d="M 1172 4863 
L 1747 4863 
L 1606 4134 
L 1031 4134 
L 1172 4863 
z
M 909 3500 
L 1484 3500 
L 800 0 
L 225 0 
L 909 3500 
z
" transform="scale(0.015625)"/>
       <path id="DejaVuSans-Oblique-6e" d="M 3566 2113 
L 3156 0 
L 2578 0 
L 2988 2091 
Q 3016 2238 3031 2350 
Q 3047 2463 3047 2528 
Q 3047 2791 2881 2937 
Q 2716 3084 2419 3084 
Q 1956 3084 1622 2776 
Q 1288 2469 1184 1941 
L 800 0 
L 225 0 
L 903 3500 
L 1478 3500 
L 1363 2950 
Q 1603 3253 1940 3418 
Q 2278 3584 2650 3584 
Q 3113 3584 3367 3334 
Q 3622 3084 3622 2631 
Q 3622 2519 3608 2391 
Q 3594 2263 3566 2113 
z
" transform="scale(0.015625)"/>
       <path id="DejaVuSans-b0" d="M 1600 4347 
Q 1350 4347 1178 4173 
Q 1006 4000 1006 3750 
Q 1006 3503 1178 3333 
Q 1350 3163 1600 3163 
Q 1850 3163 2022 3333 
Q 2194 3503 2194 3750 
Q 2194 3997 2020 4172 
Q 1847 4347 1600 4347 
z
M 1600 4750 
Q 1800 4750 1984 4673 
Q 2169 4597 2303 4453 
Q 2447 4313 2519 4134 
Q 2591 3956 2591 3750 
Q 2591 3338 2302 3052 
Q 2013 2766 1594 2766 
Q 1172 2766 890 3047 
Q 609 3328 609 3750 
Q 609 4169 896 4459 
Q 1184 4750 1600 4750 
z
" transform="scale(0.015625)"/>
       <path id="DejaVuSans-43" d="M 4122 4306 
L 4122 3641 
Q 3803 3938 3442 4084 
Q 3081 4231 2675 4231 
Q 1875 4231 1450 3742 
Q 1025 3253 1025 2328 
Q 1025 1406 1450 917 
Q 1875 428 2675 428 
Q 3081 428 3442 575 
Q 3803 722 4122 1019 
L 4122 359 
Q 3791 134 3420 21 
Q 3050 -91 2638 -91 
Q 1578 -91 968 557 
Q 359 1206 359 2328 
Q 359 3453 968 4101 
Q 1578 4750 2638 4750 
Q 3056 4750 3426 4639 
Q 3797 4528 4122 4306 
z
" transform="scale(0.015625)"/>
       <path id="DejaVuSans-394" d="M 2188 4044 
L 906 525 
L 3472 525 
L 2188 4044 
z
M 50 0 
L 1831 4666 
L 2547 4666 
L 4325 0 
L 50 0 
z
" transform="scale(0.015625)"/>
       <path id="DejaVuSans-Oblique-67" d="M 3816 3500 
L 3219 434 
Q 3047 -456 2561 -893 
Q 2075 -1331 1253 -1331 
Q 950 -1331 690 -1286 
Q 431 -1241 206 -1147 
L 313 -588 
Q 525 -725 762 -790 
Q 1000 -856 1269 -856 
Q 1816 -856 2167 -557 
Q 2519 -259 2631 300 
L 2681 563 
Q 2441 288 2122 144 
Q 1803 0 1434 0 
Q 903 0 598 351 
Q 294 703 294 1319 
Q 294 1803 478 2267 
Q 663 2731 997 3091 
Q 1219 3328 1514 3456 
Q 1809 3584 2131 3584 
Q 2484 3584 2746 3420 
Q 3009 3256 3138 2956 
L 3238 3500 
L 3816 3500 
z
M 2950 2216 
Q 2950 2641 2750 2872 
Q 2550 3103 2181 3103 
Q 1953 3103 1747 3012 
Q 1541 2922 1394 2759 
Q 1156 2491 1023 2127 
Q 891 1763 891 1375 
Q 891 944 1092 712 
Q 1294 481 1672 481 
Q 2219 481 2584 976 
Q 2950 1472 2950 2216 
z
" transform="scale(0.015625)"/>
       <path id="DejaVuSans-Oblique-6b" d="M 1172 4863 
L 1747 4863 
L 1197 2028 
L 3169 3500 
L 3916 3500 
L 1716 1825 
L 3322 0 
L 2625 0 
L 1131 1709 
L 800 0 
L 225 0 
L 1172 4863 
z
" transform="scale(0.015625)"/>
       <path id="DejaVuSans-Oblique-6f" d="M 1625 -91 
Q 1009 -91 651 289 
Q 294 669 294 1325 
Q 294 1706 417 2101 
Q 541 2497 738 2766 
Q 1047 3184 1428 3384 
Q 1809 3584 2291 3584 
Q 2888 3584 3255 3212 
Q 3622 2841 3622 2241 
Q 3622 1825 3500 1412 
Q 3378 1000 3181 728 
Q 2875 309 2494 109 
Q 2113 -91 1625 -91 
z
M 891 1344 
Q 891 869 1089 633 
Q 1288 397 1691 397 
Q 2269 397 2648 901 
Q 3028 1406 3028 2181 
Q 3028 2634 2825 2865 
Q 2622 3097 2228 3097 
Q 1903 3097 1650 2945 
Q 1397 2794 1197 2484 
Q 1050 2253 970 1956 
Q 891 1659 891 1344 
z
" transform="scale(0.015625)"/>
       <path id="DejaVuSans-Oblique-62" d="M 3169 2138 
Q 3169 2591 2961 2847 
Q 2753 3103 2388 3103 
Q 2122 3103 1889 2973 
Q 1656 2844 1484 2597 
Q 1303 2338 1198 1995 
Q 1094 1653 1094 1313 
Q 1094 881 1298 636 
Q 1503 391 1863 391 
Q 2134 391 2365 517 
Q 2597 644 2772 891 
Q 2950 1147 3059 1487 
Q 3169 1828 3169 2138 
z
M 1381 2969 
Q 1594 3256 1914 3420 
Q 2234 3584 2584 3584 
Q 3122 3584 3439 3221 
Q 3756 2859 3756 2241 
Q 3756 1734 3570 1259 
Q 3384 784 3041 416 
Q 2816 172 2522 40 
Q 2228 -91 1906 -91 
Q 1566 -91 1316 65 
Q 1066 222 909 531 
L 806 0 
L 231 0 
L 1178 4863 
L 1753 4863 
L 1381 2969 
z
" transform="scale(0.015625)"/>
       <path id="DejaVuSans-3a" d="M 750 794 
L 1409 794 
L 1409 0 
L 750 0 
L 750 794 
z
M 750 3309 
L 1409 3309 
L 1409 2516 
L 750 2516 
L 750 3309 
z
" transform="scale(0.015625)"/>
      </defs>
      <use xlink:href="#DejaVuSans-Oblique-54" transform="translate(0 0.015625)"/>
      <use xlink:href="#DejaVuSans-Oblique-73" transform="translate(61.083984 -16.390625) scale(0.7)"/>
      <use xlink:href="#DejaVuSans-Oblique-65" transform="translate(97.553711 -16.390625) scale(0.7)"/>
      <use xlink:href="#DejaVuSans-2c" transform="translate(140.620117 -16.390625) scale(0.7)"/>
      <use xlink:href="#DejaVuSans-Oblique-65" transform="translate(176.508789 -16.390625) scale(0.7)"/>
      <use xlink:href="#DejaVuSans-Oblique-69" transform="translate(219.575195 -16.390625) scale(0.7)"/>
      <use xlink:href="#DejaVuSans-Oblique-6e" transform="translate(239.023438 -16.390625) scale(0.7)"/>
      <use xlink:href="#DejaVuSans-20" transform="translate(286.123047 0.015625)"/>
      <use xlink:href="#DejaVuSans-5b" transform="translate(317.910156 0.015625)"/>
      <use xlink:href="#DejaVuSans-b0" transform="translate(356.923828 0.015625)"/>
      <use xlink:href="#DejaVuSans-43" transform="translate(406.923828 0.015625)"/>
      <use xlink:href="#DejaVuSans-5d" transform="translate(476.748047 0.015625)"/>
      <use xlink:href="#DejaVuSans-20" transform="translate(515.761719 0.015625)"/>
      <use xlink:href="#DejaVuSans-20" transform="translate(547.548828 0.015625)"/>
      <use xlink:href="#DejaVuSans-20" transform="translate(579.335938 0.015625)"/>
      <use xlink:href="#DejaVuSans-20" transform="translate(611.123047 0.015625)"/>
      <use xlink:href="#DejaVuSans-20" transform="translate(642.910156 0.015625)"/>
      <use xlink:href="#DejaVuSans-20" transform="translate(674.697266 0.015625)"/>
      <use xlink:href="#DejaVuSans-20" transform="translate(706.484375 0.015625)"/>
      <use xlink:href="#DejaVuSans-20" transform="translate(738.271484 0.015625)"/>
      <use xlink:href="#DejaVuSans-20" transform="translate(770.058594 0.015625)"/>
      <use xlink:href="#DejaVuSans-20" transform="translate(801.845703 0.015625)"/>
      <use xlink:href="#DejaVuSans-394" transform="translate(833.632812 0.015625)"/>
      <use xlink:href="#DejaVuSans-Oblique-54" transform="translate(902.041016 0.015625)"/>
      <use xlink:href="#DejaVuSans-Oblique-67" transform="translate(963.125 -16.390625) scale(0.7)"/>
      <use xlink:href="#DejaVuSans-Oblique-6b" transform="translate(1007.558594 -16.390625) scale(0.7)"/>
      <use xlink:href="#DejaVuSans-2c" transform="translate(1048.095703 -16.390625) scale(0.7)"/>
      <use xlink:href="#DejaVuSans-Oblique-6f" transform="translate(1083.984375 -16.390625) scale(0.7)"/>
      <use xlink:href="#DejaVuSans-Oblique-62" transform="translate(1126.811523 -16.390625) scale(0.7)"/>
      <use xlink:href="#DejaVuSans-3a" transform="translate(1173.979492 0.015625)"/>
     </g>
    </g>
    <g id="line2d_46">
     <path d="M 580.857813 129.88 
L 600.857813 129.88 
L 620.857813 129.88 
" style="fill: none; stroke-dasharray: 5.55,2.4; stroke-dashoffset: 0; stroke: #ff0000; stroke-width: 1.5"/>
    </g>
    <g id="text_26">
     <!-- 5 K -->
     <g transform="translate(636.857813 136.88) scale(0.2 -0.2)">
      <defs>
       <path id="DejaVuSans-4b" d="M 628 4666 
L 1259 4666 
L 1259 2694 
L 3353 4666 
L 4166 4666 
L 1850 2491 
L 4331 0 
L 3500 0 
L 1259 2247 
L 1259 0 
L 628 0 
L 628 4666 
z
" transform="scale(0.015625)"/>
      </defs>
      <use xlink:href="#DejaVuSans-35"/>
      <use xlink:href="#DejaVuSans-20" x="63.623047"/>
      <use xlink:href="#DejaVuSans-4b" x="95.410156"/>
     </g>
    </g>
    <g id="line2d_47">
     <path d="M 709.054688 129.88 
L 729.054688 129.88 
L 749.054688 129.88 
" style="fill: none; stroke-dasharray: 5.55,2.4; stroke-dashoffset: 0; stroke: #ffa500; stroke-width: 1.5"/>
    </g>
    <g id="text_27">
     <!-- 10 K -->
     <g transform="translate(765.054688 136.88) scale(0.2 -0.2)">
      <use xlink:href="#DejaVuSans-31"/>
      <use xlink:href="#DejaVuSans-30" x="63.623047"/>
      <use xlink:href="#DejaVuSans-20" x="127.246094"/>
      <use xlink:href="#DejaVuSans-4b" x="159.033203"/>
     </g>
    </g>
    <g id="line2d_48">
     <path d="M 849.976562 129.88 
L 869.976562 129.88 
L 889.976562 129.88 
" style="fill: none; stroke-dasharray: 5.55,2.4; stroke-dashoffset: 0; stroke: #008000; stroke-width: 1.5"/>
    </g>
    <g id="text_28">
     <!-- 15 K -->
     <g transform="translate(905.976562 136.88) scale(0.2 -0.2)">
      <use xlink:href="#DejaVuSans-31"/>
      <use xlink:href="#DejaVuSans-35" x="63.623047"/>
      <use xlink:href="#DejaVuSans-20" x="127.246094"/>
      <use xlink:href="#DejaVuSans-4b" x="159.033203"/>
     </g>
    </g>
    <g id="line2d_49">
     <path d="M 990.898438 129.88 
L 1010.898438 129.88 
L 1030.898438 129.88 
" style="fill: none; stroke-dasharray: 5.55,2.4; stroke-dashoffset: 0; stroke: #4682b4; stroke-width: 1.5"/>
    </g>
    <g id="text_29">
     <!-- 20 K -->
     <g transform="translate(1046.898438 136.88) scale(0.2 -0.2)">
      <use xlink:href="#DejaVuSans-32"/>
      <use xlink:href="#DejaVuSans-30" x="63.623047"/>
      <use xlink:href="#DejaVuSans-20" x="127.246094"/>
      <use xlink:href="#DejaVuSans-4b" x="159.033203"/>
     </g>
    </g>
    <g id="line2d_50">
     <path d="M 1131.820312 129.88 
L 1151.820312 129.88 
L 1171.820312 129.88 
" style="fill: none; stroke-dasharray: 5.55,2.4; stroke-dashoffset: 0; stroke: #8a2be2; stroke-width: 1.5"/>
    </g>
    <g id="text_30">
     <!-- 25 K -->
     <g transform="translate(1187.820312 136.88) scale(0.2 -0.2)">
      <use xlink:href="#DejaVuSans-32"/>
      <use xlink:href="#DejaVuSans-35" x="63.623047"/>
      <use xlink:href="#DejaVuSans-20" x="127.246094"/>
      <use xlink:href="#DejaVuSans-4b" x="159.033203"/>
     </g>
    </g>
   </g>
  </g>
 </g>
 <defs>
  <clipPath id="p9ce936deaa">
   <rect x="180" y="103.68" width="1116" height="665.28"/>
  </clipPath>
 </defs>
</svg>
