<?xml version="1.0" encoding="utf-8" standalone="no"?>
<!DOCTYPE svg PUBLIC "-//W3C//DTD SVG 1.1//EN"
  "http://www.w3.org/Graphics/SVG/1.1/DTD/svg11.dtd">
<svg xmlns:xlink="http://www.w3.org/1999/xlink" width="1440pt" height="864pt" viewBox="0 0 1440 864" xmlns="http://www.w3.org/2000/svg" version="1.1">
 <metadata>
  <rdf:RDF xmlns:dc="http://purl.org/dc/elements/1.1/" xmlns:cc="http://creativecommons.org/ns#" xmlns:rdf="http://www.w3.org/1999/02/22-rdf-syntax-ns#">
   <cc:Work>
    <dc:type rdf:resource="http://purl.org/dc/dcmitype/StillImage"/>
    <dc:date>2023-08-16T15:30:44.148650</dc:date>
    <dc:format>image/svg+xml</dc:format>
    <dc:creator>
     <cc:Agent>
      <dc:title>Matplotlib v3.6.1, https://matplotlib.org/</dc:title>
     </cc:Agent>
    </dc:creator>
   </cc:Work>
  </rdf:RDF>
 </metadata>
 <defs>
  <style type="text/css">*{stroke-linejoin: round; stroke-linecap: butt}</style>
 </defs>
 <g id="figure_1">
  <g id="patch_1">
   <path d="M 0 864 
L 1440 864 
L 1440 0 
L 0 0 
z
" style="fill: #ffffff"/>
  </g>
  <g id="axes_1">
   <g id="patch_2">
    <path d="M 180 768.96 
L 1296 768.96 
L 1296 103.68 
L 180 103.68 
z
" style="fill: #ffffff"/>
   </g>
   <g id="matplotlib.axis_1">
    <g id="xtick_1">
     <g id="line2d_1">
      <path d="M 180 768.96 
L 180 103.68 
" clip-path="url(#p2fad72cf48)" style="fill: none; stroke: #b0b0b0; stroke-width: 0.8; stroke-linecap: square"/>
     </g>
     <g id="line2d_2">
      <defs>
       <path id="m9bae3be62d" d="M 0 0 
L 0 3.5 
" style="stroke: #000000; stroke-width: 0.8"/>
      </defs>
      <g>
       <use xlink:href="#m9bae3be62d" x="180" y="768.96" style="stroke: #000000; stroke-width: 0.8"/>
      </g>
     </g>
     <g id="text_1">
      <!-- 24 -->
      <g transform="translate(167.275 791.156875) scale(0.2 -0.2)">
       <defs>
        <path id="DejaVuSans-32" d="M 1228 531 
L 3431 531 
L 3431 0 
L 469 0 
L 469 531 
Q 828 903 1448 1529 
Q 2069 2156 2228 2338 
Q 2531 2678 2651 2914 
Q 2772 3150 2772 3378 
Q 2772 3750 2511 3984 
Q 2250 4219 1831 4219 
Q 1534 4219 1204 4116 
Q 875 4013 500 3803 
L 500 4441 
Q 881 4594 1212 4672 
Q 1544 4750 1819 4750 
Q 2544 4750 2975 4387 
Q 3406 4025 3406 3419 
Q 3406 3131 3298 2873 
Q 3191 2616 2906 2266 
Q 2828 2175 2409 1742 
Q 1991 1309 1228 531 
z
" transform="scale(0.015625)"/>
        <path id="DejaVuSans-34" d="M 2419 4116 
L 825 1625 
L 2419 1625 
L 2419 4116 
z
M 2253 4666 
L 3047 4666 
L 3047 1625 
L 3713 1625 
L 3713 1100 
L 3047 1100 
L 3047 0 
L 2419 0 
L 2419 1100 
L 313 1100 
L 313 1709 
L 2253 4666 
z
" transform="scale(0.015625)"/>
       </defs>
       <use xlink:href="#DejaVuSans-32"/>
       <use xlink:href="#DejaVuSans-34" x="63.623047"/>
      </g>
     </g>
    </g>
    <g id="xtick_2">
     <g id="line2d_3">
      <path d="M 311.294118 768.96 
L 311.294118 103.68 
" clip-path="url(#p2fad72cf48)" style="fill: none; stroke: #b0b0b0; stroke-width: 0.8; stroke-linecap: square"/>
     </g>
     <g id="line2d_4">
      <g>
       <use xlink:href="#m9bae3be62d" x="311.294118" y="768.96" style="stroke: #000000; stroke-width: 0.8"/>
      </g>
     </g>
     <g id="text_2">
      <!-- 26 -->
      <g transform="translate(298.569118 791.156875) scale(0.2 -0.2)">
       <defs>
        <path id="DejaVuSans-36" d="M 2113 2584 
Q 1688 2584 1439 2293 
Q 1191 2003 1191 1497 
Q 1191 994 1439 701 
Q 1688 409 2113 409 
Q 2538 409 2786 701 
Q 3034 994 3034 1497 
Q 3034 2003 2786 2293 
Q 2538 2584 2113 2584 
z
M 3366 4563 
L 3366 3988 
Q 3128 4100 2886 4159 
Q 2644 4219 2406 4219 
Q 1781 4219 1451 3797 
Q 1122 3375 1075 2522 
Q 1259 2794 1537 2939 
Q 1816 3084 2150 3084 
Q 2853 3084 3261 2657 
Q 3669 2231 3669 1497 
Q 3669 778 3244 343 
Q 2819 -91 2113 -91 
Q 1303 -91 875 529 
Q 447 1150 447 2328 
Q 447 3434 972 4092 
Q 1497 4750 2381 4750 
Q 2619 4750 2861 4703 
Q 3103 4656 3366 4563 
z
" transform="scale(0.015625)"/>
       </defs>
       <use xlink:href="#DejaVuSans-32"/>
       <use xlink:href="#DejaVuSans-36" x="63.623047"/>
      </g>
     </g>
    </g>
    <g id="xtick_3">
     <g id="line2d_5">
      <path d="M 442.588235 768.96 
L 442.588235 103.68 
" clip-path="url(#p2fad72cf48)" style="fill: none; stroke: #b0b0b0; stroke-width: 0.8; stroke-linecap: square"/>
     </g>
     <g id="line2d_6">
      <g>
       <use xlink:href="#m9bae3be62d" x="442.588235" y="768.96" style="stroke: #000000; stroke-width: 0.8"/>
      </g>
     </g>
     <g id="text_3">
      <!-- 28 -->
      <g transform="translate(429.863235 791.156875) scale(0.2 -0.2)">
       <defs>
        <path id="DejaVuSans-38" d="M 2034 2216 
Q 1584 2216 1326 1975 
Q 1069 1734 1069 1313 
Q 1069 891 1326 650 
Q 1584 409 2034 409 
Q 2484 409 2743 651 
Q 3003 894 3003 1313 
Q 3003 1734 2745 1975 
Q 2488 2216 2034 2216 
z
M 1403 2484 
Q 997 2584 770 2862 
Q 544 3141 544 3541 
Q 544 4100 942 4425 
Q 1341 4750 2034 4750 
Q 2731 4750 3128 4425 
Q 3525 4100 3525 3541 
Q 3525 3141 3298 2862 
Q 3072 2584 2669 2484 
Q 3125 2378 3379 2068 
Q 3634 1759 3634 1313 
Q 3634 634 3220 271 
Q 2806 -91 2034 -91 
Q 1263 -91 848 271 
Q 434 634 434 1313 
Q 434 1759 690 2068 
Q 947 2378 1403 2484 
z
M 1172 3481 
Q 1172 3119 1398 2916 
Q 1625 2713 2034 2713 
Q 2441 2713 2670 2916 
Q 2900 3119 2900 3481 
Q 2900 3844 2670 4047 
Q 2441 4250 2034 4250 
Q 1625 4250 1398 4047 
Q 1172 3844 1172 3481 
z
" transform="scale(0.015625)"/>
       </defs>
       <use xlink:href="#DejaVuSans-32"/>
       <use xlink:href="#DejaVuSans-38" x="63.623047"/>
      </g>
     </g>
    </g>
    <g id="xtick_4">
     <g id="line2d_7">
      <path d="M 573.882353 768.96 
L 573.882353 103.68 
" clip-path="url(#p2fad72cf48)" style="fill: none; stroke: #b0b0b0; stroke-width: 0.8; stroke-linecap: square"/>
     </g>
     <g id="line2d_8">
      <g>
       <use xlink:href="#m9bae3be62d" x="573.882353" y="768.96" style="stroke: #000000; stroke-width: 0.8"/>
      </g>
     </g>
     <g id="text_4">
      <!-- 30 -->
      <g transform="translate(561.157353 791.156875) scale(0.2 -0.2)">
       <defs>
        <path id="DejaVuSans-33" d="M 2597 2516 
Q 3050 2419 3304 2112 
Q 3559 1806 3559 1356 
Q 3559 666 3084 287 
Q 2609 -91 1734 -91 
Q 1441 -91 1130 -33 
Q 819 25 488 141 
L 488 750 
Q 750 597 1062 519 
Q 1375 441 1716 441 
Q 2309 441 2620 675 
Q 2931 909 2931 1356 
Q 2931 1769 2642 2001 
Q 2353 2234 1838 2234 
L 1294 2234 
L 1294 2753 
L 1863 2753 
Q 2328 2753 2575 2939 
Q 2822 3125 2822 3475 
Q 2822 3834 2567 4026 
Q 2313 4219 1838 4219 
Q 1578 4219 1281 4162 
Q 984 4106 628 3988 
L 628 4550 
Q 988 4650 1302 4700 
Q 1616 4750 1894 4750 
Q 2613 4750 3031 4423 
Q 3450 4097 3450 3541 
Q 3450 3153 3228 2886 
Q 3006 2619 2597 2516 
z
" transform="scale(0.015625)"/>
        <path id="DejaVuSans-30" d="M 2034 4250 
Q 1547 4250 1301 3770 
Q 1056 3291 1056 2328 
Q 1056 1369 1301 889 
Q 1547 409 2034 409 
Q 2525 409 2770 889 
Q 3016 1369 3016 2328 
Q 3016 3291 2770 3770 
Q 2525 4250 2034 4250 
z
M 2034 4750 
Q 2819 4750 3233 4129 
Q 3647 3509 3647 2328 
Q 3647 1150 3233 529 
Q 2819 -91 2034 -91 
Q 1250 -91 836 529 
Q 422 1150 422 2328 
Q 422 3509 836 4129 
Q 1250 4750 2034 4750 
z
" transform="scale(0.015625)"/>
       </defs>
       <use xlink:href="#DejaVuSans-33"/>
       <use xlink:href="#DejaVuSans-30" x="63.623047"/>
      </g>
     </g>
    </g>
    <g id="xtick_5">
     <g id="line2d_9">
      <path d="M 705.176471 768.96 
L 705.176471 103.68 
" clip-path="url(#p2fad72cf48)" style="fill: none; stroke: #b0b0b0; stroke-width: 0.8; stroke-linecap: square"/>
     </g>
     <g id="line2d_10">
      <g>
       <use xlink:href="#m9bae3be62d" x="705.176471" y="768.96" style="stroke: #000000; stroke-width: 0.8"/>
      </g>
     </g>
     <g id="text_5">
      <!-- 32 -->
      <g transform="translate(692.451471 791.156875) scale(0.2 -0.2)">
       <use xlink:href="#DejaVuSans-33"/>
       <use xlink:href="#DejaVuSans-32" x="63.623047"/>
      </g>
     </g>
    </g>
    <g id="xtick_6">
     <g id="line2d_11">
      <path d="M 836.470588 768.96 
L 836.470588 103.68 
" clip-path="url(#p2fad72cf48)" style="fill: none; stroke: #b0b0b0; stroke-width: 0.8; stroke-linecap: square"/>
     </g>
     <g id="line2d_12">
      <g>
       <use xlink:href="#m9bae3be62d" x="836.470588" y="768.96" style="stroke: #000000; stroke-width: 0.8"/>
      </g>
     </g>
     <g id="text_6">
      <!-- 34 -->
      <g transform="translate(823.745588 791.156875) scale(0.2 -0.2)">
       <use xlink:href="#DejaVuSans-33"/>
       <use xlink:href="#DejaVuSans-34" x="63.623047"/>
      </g>
     </g>
    </g>
    <g id="xtick_7">
     <g id="line2d_13">
      <path d="M 967.764706 768.96 
L 967.764706 103.68 
" clip-path="url(#p2fad72cf48)" style="fill: none; stroke: #b0b0b0; stroke-width: 0.8; stroke-linecap: square"/>
     </g>
     <g id="line2d_14">
      <g>
       <use xlink:href="#m9bae3be62d" x="967.764706" y="768.96" style="stroke: #000000; stroke-width: 0.8"/>
      </g>
     </g>
     <g id="text_7">
      <!-- 36 -->
      <g transform="translate(955.039706 791.156875) scale(0.2 -0.2)">
       <use xlink:href="#DejaVuSans-33"/>
       <use xlink:href="#DejaVuSans-36" x="63.623047"/>
      </g>
     </g>
    </g>
    <g id="xtick_8">
     <g id="line2d_15">
      <path d="M 1099.058824 768.96 
L 1099.058824 103.68 
" clip-path="url(#p2fad72cf48)" style="fill: none; stroke: #b0b0b0; stroke-width: 0.8; stroke-linecap: square"/>
     </g>
     <g id="line2d_16">
      <g>
       <use xlink:href="#m9bae3be62d" x="1099.058824" y="768.96" style="stroke: #000000; stroke-width: 0.8"/>
      </g>
     </g>
     <g id="text_8">
      <!-- 38 -->
      <g transform="translate(1086.333824 791.156875) scale(0.2 -0.2)">
       <use xlink:href="#DejaVuSans-33"/>
       <use xlink:href="#DejaVuSans-38" x="63.623047"/>
      </g>
     </g>
    </g>
    <g id="xtick_9">
     <g id="line2d_17">
      <path d="M 1230.352941 768.96 
L 1230.352941 103.68 
" clip-path="url(#p2fad72cf48)" style="fill: none; stroke: #b0b0b0; stroke-width: 0.8; stroke-linecap: square"/>
     </g>
     <g id="line2d_18">
      <g>
       <use xlink:href="#m9bae3be62d" x="1230.352941" y="768.96" style="stroke: #000000; stroke-width: 0.8"/>
      </g>
     </g>
     <g id="text_9">
      <!-- 40 -->
      <g transform="translate(1217.627941 791.156875) scale(0.2 -0.2)">
       <use xlink:href="#DejaVuSans-34"/>
       <use xlink:href="#DejaVuSans-30" x="63.623047"/>
      </g>
     </g>
    </g>
    <g id="text_10">
     <!-- Gaskühlerdruck [bar] -->
     <g transform="translate(632.239063 814.513125) scale(0.2 -0.2)">
      <defs>
       <path id="DejaVuSans-47" d="M 3809 666 
L 3809 1919 
L 2778 1919 
L 2778 2438 
L 4434 2438 
L 4434 434 
Q 4069 175 3628 42 
Q 3188 -91 2688 -91 
Q 1594 -91 976 548 
Q 359 1188 359 2328 
Q 359 3472 976 4111 
Q 1594 4750 2688 4750 
Q 3144 4750 3555 4637 
Q 3966 4525 4313 4306 
L 4313 3634 
Q 3963 3931 3569 4081 
Q 3175 4231 2741 4231 
Q 1884 4231 1454 3753 
Q 1025 3275 1025 2328 
Q 1025 1384 1454 906 
Q 1884 428 2741 428 
Q 3075 428 3337 486 
Q 3600 544 3809 666 
z
" transform="scale(0.015625)"/>
       <path id="DejaVuSans-61" d="M 2194 1759 
Q 1497 1759 1228 1600 
Q 959 1441 959 1056 
Q 959 750 1161 570 
Q 1363 391 1709 391 
Q 2188 391 2477 730 
Q 2766 1069 2766 1631 
L 2766 1759 
L 2194 1759 
z
M 3341 1997 
L 3341 0 
L 2766 0 
L 2766 531 
Q 2569 213 2275 61 
Q 1981 -91 1556 -91 
Q 1019 -91 701 211 
Q 384 513 384 1019 
Q 384 1609 779 1909 
Q 1175 2209 1959 2209 
L 2766 2209 
L 2766 2266 
Q 2766 2663 2505 2880 
Q 2244 3097 1772 3097 
Q 1472 3097 1187 3025 
Q 903 2953 641 2809 
L 641 3341 
Q 956 3463 1253 3523 
Q 1550 3584 1831 3584 
Q 2591 3584 2966 3190 
Q 3341 2797 3341 1997 
z
" transform="scale(0.015625)"/>
       <path id="DejaVuSans-73" d="M 2834 3397 
L 2834 2853 
Q 2591 2978 2328 3040 
Q 2066 3103 1784 3103 
Q 1356 3103 1142 2972 
Q 928 2841 928 2578 
Q 928 2378 1081 2264 
Q 1234 2150 1697 2047 
L 1894 2003 
Q 2506 1872 2764 1633 
Q 3022 1394 3022 966 
Q 3022 478 2636 193 
Q 2250 -91 1575 -91 
Q 1294 -91 989 -36 
Q 684 19 347 128 
L 347 722 
Q 666 556 975 473 
Q 1284 391 1588 391 
Q 1994 391 2212 530 
Q 2431 669 2431 922 
Q 2431 1156 2273 1281 
Q 2116 1406 1581 1522 
L 1381 1569 
Q 847 1681 609 1914 
Q 372 2147 372 2553 
Q 372 3047 722 3315 
Q 1072 3584 1716 3584 
Q 2034 3584 2315 3537 
Q 2597 3491 2834 3397 
z
" transform="scale(0.015625)"/>
       <path id="DejaVuSans-6b" d="M 581 4863 
L 1159 4863 
L 1159 1991 
L 2875 3500 
L 3609 3500 
L 1753 1863 
L 3688 0 
L 2938 0 
L 1159 1709 
L 1159 0 
L 581 0 
L 581 4863 
z
" transform="scale(0.015625)"/>
       <path id="DejaVuSans-fc" d="M 544 1381 
L 544 3500 
L 1119 3500 
L 1119 1403 
Q 1119 906 1312 657 
Q 1506 409 1894 409 
Q 2359 409 2629 706 
Q 2900 1003 2900 1516 
L 2900 3500 
L 3475 3500 
L 3475 0 
L 2900 0 
L 2900 538 
Q 2691 219 2414 64 
Q 2138 -91 1772 -91 
Q 1169 -91 856 284 
Q 544 659 544 1381 
z
M 1991 3584 
L 1991 3584 
z
M 2278 4850 
L 2912 4850 
L 2912 4219 
L 2278 4219 
L 2278 4850 
z
M 1056 4850 
L 1690 4850 
L 1690 4219 
L 1056 4219 
L 1056 4850 
z
" transform="scale(0.015625)"/>
       <path id="DejaVuSans-68" d="M 3513 2113 
L 3513 0 
L 2938 0 
L 2938 2094 
Q 2938 2591 2744 2837 
Q 2550 3084 2163 3084 
Q 1697 3084 1428 2787 
Q 1159 2491 1159 1978 
L 1159 0 
L 581 0 
L 581 4863 
L 1159 4863 
L 1159 2956 
Q 1366 3272 1645 3428 
Q 1925 3584 2291 3584 
Q 2894 3584 3203 3211 
Q 3513 2838 3513 2113 
z
" transform="scale(0.015625)"/>
       <path id="DejaVuSans-6c" d="M 603 4863 
L 1178 4863 
L 1178 0 
L 603 0 
L 603 4863 
z
" transform="scale(0.015625)"/>
       <path id="DejaVuSans-65" d="M 3597 1894 
L 3597 1613 
L 953 1613 
Q 991 1019 1311 708 
Q 1631 397 2203 397 
Q 2534 397 2845 478 
Q 3156 559 3463 722 
L 3463 178 
Q 3153 47 2828 -22 
Q 2503 -91 2169 -91 
Q 1331 -91 842 396 
Q 353 884 353 1716 
Q 353 2575 817 3079 
Q 1281 3584 2069 3584 
Q 2775 3584 3186 3129 
Q 3597 2675 3597 1894 
z
M 3022 2063 
Q 3016 2534 2758 2815 
Q 2500 3097 2075 3097 
Q 1594 3097 1305 2825 
Q 1016 2553 972 2059 
L 3022 2063 
z
" transform="scale(0.015625)"/>
       <path id="DejaVuSans-72" d="M 2631 2963 
Q 2534 3019 2420 3045 
Q 2306 3072 2169 3072 
Q 1681 3072 1420 2755 
Q 1159 2438 1159 1844 
L 1159 0 
L 581 0 
L 581 3500 
L 1159 3500 
L 1159 2956 
Q 1341 3275 1631 3429 
Q 1922 3584 2338 3584 
Q 2397 3584 2469 3576 
Q 2541 3569 2628 3553 
L 2631 2963 
z
" transform="scale(0.015625)"/>
       <path id="DejaVuSans-64" d="M 2906 2969 
L 2906 4863 
L 3481 4863 
L 3481 0 
L 2906 0 
L 2906 525 
Q 2725 213 2448 61 
Q 2172 -91 1784 -91 
Q 1150 -91 751 415 
Q 353 922 353 1747 
Q 353 2572 751 3078 
Q 1150 3584 1784 3584 
Q 2172 3584 2448 3432 
Q 2725 3281 2906 2969 
z
M 947 1747 
Q 947 1113 1208 752 
Q 1469 391 1925 391 
Q 2381 391 2643 752 
Q 2906 1113 2906 1747 
Q 2906 2381 2643 2742 
Q 2381 3103 1925 3103 
Q 1469 3103 1208 2742 
Q 947 2381 947 1747 
z
" transform="scale(0.015625)"/>
       <path id="DejaVuSans-75" d="M 544 1381 
L 544 3500 
L 1119 3500 
L 1119 1403 
Q 1119 906 1312 657 
Q 1506 409 1894 409 
Q 2359 409 2629 706 
Q 2900 1003 2900 1516 
L 2900 3500 
L 3475 3500 
L 3475 0 
L 2900 0 
L 2900 538 
Q 2691 219 2414 64 
Q 2138 -91 1772 -91 
Q 1169 -91 856 284 
Q 544 659 544 1381 
z
M 1991 3584 
L 1991 3584 
z
" transform="scale(0.015625)"/>
       <path id="DejaVuSans-63" d="M 3122 3366 
L 3122 2828 
Q 2878 2963 2633 3030 
Q 2388 3097 2138 3097 
Q 1578 3097 1268 2742 
Q 959 2388 959 1747 
Q 959 1106 1268 751 
Q 1578 397 2138 397 
Q 2388 397 2633 464 
Q 2878 531 3122 666 
L 3122 134 
Q 2881 22 2623 -34 
Q 2366 -91 2075 -91 
Q 1284 -91 818 406 
Q 353 903 353 1747 
Q 353 2603 823 3093 
Q 1294 3584 2113 3584 
Q 2378 3584 2631 3529 
Q 2884 3475 3122 3366 
z
" transform="scale(0.015625)"/>
       <path id="DejaVuSans-20" transform="scale(0.015625)"/>
       <path id="DejaVuSans-5b" d="M 550 4863 
L 1875 4863 
L 1875 4416 
L 1125 4416 
L 1125 -397 
L 1875 -397 
L 1875 -844 
L 550 -844 
L 550 4863 
z
" transform="scale(0.015625)"/>
       <path id="DejaVuSans-62" d="M 3116 1747 
Q 3116 2381 2855 2742 
Q 2594 3103 2138 3103 
Q 1681 3103 1420 2742 
Q 1159 2381 1159 1747 
Q 1159 1113 1420 752 
Q 1681 391 2138 391 
Q 2594 391 2855 752 
Q 3116 1113 3116 1747 
z
M 1159 2969 
Q 1341 3281 1617 3432 
Q 1894 3584 2278 3584 
Q 2916 3584 3314 3078 
Q 3713 2572 3713 1747 
Q 3713 922 3314 415 
Q 2916 -91 2278 -91 
Q 1894 -91 1617 61 
Q 1341 213 1159 525 
L 1159 0 
L 581 0 
L 581 4863 
L 1159 4863 
L 1159 2969 
z
" transform="scale(0.015625)"/>
       <path id="DejaVuSans-5d" d="M 1947 4863 
L 1947 -844 
L 622 -844 
L 622 -397 
L 1369 -397 
L 1369 4416 
L 622 4416 
L 622 4863 
L 1947 4863 
z
" transform="scale(0.015625)"/>
      </defs>
      <use xlink:href="#DejaVuSans-47"/>
      <use xlink:href="#DejaVuSans-61" x="77.490234"/>
      <use xlink:href="#DejaVuSans-73" x="138.769531"/>
      <use xlink:href="#DejaVuSans-6b" x="190.869141"/>
      <use xlink:href="#DejaVuSans-fc" x="245.654297"/>
      <use xlink:href="#DejaVuSans-68" x="309.033203"/>
      <use xlink:href="#DejaVuSans-6c" x="372.412109"/>
      <use xlink:href="#DejaVuSans-65" x="400.195312"/>
      <use xlink:href="#DejaVuSans-72" x="461.71875"/>
      <use xlink:href="#DejaVuSans-64" x="501.082031"/>
      <use xlink:href="#DejaVuSans-72" x="564.558594"/>
      <use xlink:href="#DejaVuSans-75" x="605.671875"/>
      <use xlink:href="#DejaVuSans-63" x="669.050781"/>
      <use xlink:href="#DejaVuSans-6b" x="724.03125"/>
      <use xlink:href="#DejaVuSans-20" x="781.941406"/>
      <use xlink:href="#DejaVuSans-5b" x="813.728516"/>
      <use xlink:href="#DejaVuSans-62" x="852.742188"/>
      <use xlink:href="#DejaVuSans-61" x="916.21875"/>
      <use xlink:href="#DejaVuSans-72" x="977.498047"/>
      <use xlink:href="#DejaVuSans-5d" x="1018.611328"/>
     </g>
    </g>
   </g>
   <g id="matplotlib.axis_2">
    <g id="ytick_1">
     <g id="line2d_19">
      <path d="M 180 697.946097 
L 1296 697.946097 
" clip-path="url(#p2fad72cf48)" style="fill: none; stroke: #b0b0b0; stroke-width: 0.8; stroke-linecap: square"/>
     </g>
     <g id="line2d_20">
      <defs>
       <path id="mae7c6938c1" d="M 0 0 
L -3.5 0 
" style="stroke: #000000; stroke-width: 0.8"/>
      </defs>
      <g>
       <use xlink:href="#mae7c6938c1" x="180" y="697.946097" style="stroke: #000000; stroke-width: 0.8"/>
      </g>
     </g>
     <g id="text_11">
      <!-- 68 -->
      <g transform="translate(147.55 705.544535) scale(0.2 -0.2)">
       <use xlink:href="#DejaVuSans-36"/>
       <use xlink:href="#DejaVuSans-38" x="63.623047"/>
      </g>
     </g>
    </g>
    <g id="ytick_2">
     <g id="line2d_21">
      <path d="M 180 566.289183 
L 1296 566.289183 
" clip-path="url(#p2fad72cf48)" style="fill: none; stroke: #b0b0b0; stroke-width: 0.8; stroke-linecap: square"/>
     </g>
     <g id="line2d_22">
      <g>
       <use xlink:href="#mae7c6938c1" x="180" y="566.289183" style="stroke: #000000; stroke-width: 0.8"/>
      </g>
     </g>
     <g id="text_12">
      <!-- 70 -->
      <g transform="translate(147.55 573.887621) scale(0.2 -0.2)">
       <defs>
        <path id="DejaVuSans-37" d="M 525 4666 
L 3525 4666 
L 3525 4397 
L 1831 0 
L 1172 0 
L 2766 4134 
L 525 4134 
L 525 4666 
z
" transform="scale(0.015625)"/>
       </defs>
       <use xlink:href="#DejaVuSans-37"/>
       <use xlink:href="#DejaVuSans-30" x="63.623047"/>
      </g>
     </g>
    </g>
    <g id="ytick_3">
     <g id="line2d_23">
      <path d="M 180 434.632269 
L 1296 434.632269 
" clip-path="url(#p2fad72cf48)" style="fill: none; stroke: #b0b0b0; stroke-width: 0.8; stroke-linecap: square"/>
     </g>
     <g id="line2d_24">
      <g>
       <use xlink:href="#mae7c6938c1" x="180" y="434.632269" style="stroke: #000000; stroke-width: 0.8"/>
      </g>
     </g>
     <g id="text_13">
      <!-- 72 -->
      <g transform="translate(147.55 442.230706) scale(0.2 -0.2)">
       <use xlink:href="#DejaVuSans-37"/>
       <use xlink:href="#DejaVuSans-32" x="63.623047"/>
      </g>
     </g>
    </g>
    <g id="ytick_4">
     <g id="line2d_25">
      <path d="M 180 302.975355 
L 1296 302.975355 
" clip-path="url(#p2fad72cf48)" style="fill: none; stroke: #b0b0b0; stroke-width: 0.8; stroke-linecap: square"/>
     </g>
     <g id="line2d_26">
      <g>
       <use xlink:href="#mae7c6938c1" x="180" y="302.975355" style="stroke: #000000; stroke-width: 0.8"/>
      </g>
     </g>
     <g id="text_14">
      <!-- 74 -->
      <g transform="translate(147.55 310.573792) scale(0.2 -0.2)">
       <use xlink:href="#DejaVuSans-37"/>
       <use xlink:href="#DejaVuSans-34" x="63.623047"/>
      </g>
     </g>
    </g>
    <g id="ytick_5">
     <g id="line2d_27">
      <path d="M 180 171.318441 
L 1296 171.318441 
" clip-path="url(#p2fad72cf48)" style="fill: none; stroke: #b0b0b0; stroke-width: 0.8; stroke-linecap: square"/>
     </g>
     <g id="line2d_28">
      <g>
       <use xlink:href="#mae7c6938c1" x="180" y="171.318441" style="stroke: #000000; stroke-width: 0.8"/>
      </g>
     </g>
     <g id="text_15">
      <!-- 76 -->
      <g transform="translate(147.55 178.916878) scale(0.2 -0.2)">
       <use xlink:href="#DejaVuSans-37"/>
       <use xlink:href="#DejaVuSans-36" x="63.623047"/>
      </g>
     </g>
    </g>
    <g id="text_16">
     <!-- exergetischer Wirkungsgrad [%] -->
     <g transform="translate(139.390625 597.362187) rotate(-90) scale(0.2 -0.2)">
      <defs>
       <path id="DejaVuSans-78" d="M 3513 3500 
L 2247 1797 
L 3578 0 
L 2900 0 
L 1881 1375 
L 863 0 
L 184 0 
L 1544 1831 
L 300 3500 
L 978 3500 
L 1906 2253 
L 2834 3500 
L 3513 3500 
z
" transform="scale(0.015625)"/>
       <path id="DejaVuSans-67" d="M 2906 1791 
Q 2906 2416 2648 2759 
Q 2391 3103 1925 3103 
Q 1463 3103 1205 2759 
Q 947 2416 947 1791 
Q 947 1169 1205 825 
Q 1463 481 1925 481 
Q 2391 481 2648 825 
Q 2906 1169 2906 1791 
z
M 3481 434 
Q 3481 -459 3084 -895 
Q 2688 -1331 1869 -1331 
Q 1566 -1331 1297 -1286 
Q 1028 -1241 775 -1147 
L 775 -588 
Q 1028 -725 1275 -790 
Q 1522 -856 1778 -856 
Q 2344 -856 2625 -561 
Q 2906 -266 2906 331 
L 2906 616 
Q 2728 306 2450 153 
Q 2172 0 1784 0 
Q 1141 0 747 490 
Q 353 981 353 1791 
Q 353 2603 747 3093 
Q 1141 3584 1784 3584 
Q 2172 3584 2450 3431 
Q 2728 3278 2906 2969 
L 2906 3500 
L 3481 3500 
L 3481 434 
z
" transform="scale(0.015625)"/>
       <path id="DejaVuSans-74" d="M 1172 4494 
L 1172 3500 
L 2356 3500 
L 2356 3053 
L 1172 3053 
L 1172 1153 
Q 1172 725 1289 603 
Q 1406 481 1766 481 
L 2356 481 
L 2356 0 
L 1766 0 
Q 1100 0 847 248 
Q 594 497 594 1153 
L 594 3053 
L 172 3053 
L 172 3500 
L 594 3500 
L 594 4494 
L 1172 4494 
z
" transform="scale(0.015625)"/>
       <path id="DejaVuSans-69" d="M 603 3500 
L 1178 3500 
L 1178 0 
L 603 0 
L 603 3500 
z
M 603 4863 
L 1178 4863 
L 1178 4134 
L 603 4134 
L 603 4863 
z
" transform="scale(0.015625)"/>
       <path id="DejaVuSans-57" d="M 213 4666 
L 850 4666 
L 1831 722 
L 2809 4666 
L 3519 4666 
L 4500 722 
L 5478 4666 
L 6119 4666 
L 4947 0 
L 4153 0 
L 3169 4050 
L 2175 0 
L 1381 0 
L 213 4666 
z
" transform="scale(0.015625)"/>
       <path id="DejaVuSans-6e" d="M 3513 2113 
L 3513 0 
L 2938 0 
L 2938 2094 
Q 2938 2591 2744 2837 
Q 2550 3084 2163 3084 
Q 1697 3084 1428 2787 
Q 1159 2491 1159 1978 
L 1159 0 
L 581 0 
L 581 3500 
L 1159 3500 
L 1159 2956 
Q 1366 3272 1645 3428 
Q 1925 3584 2291 3584 
Q 2894 3584 3203 3211 
Q 3513 2838 3513 2113 
z
" transform="scale(0.015625)"/>
       <path id="DejaVuSans-25" d="M 4653 2053 
Q 4381 2053 4226 1822 
Q 4072 1591 4072 1178 
Q 4072 772 4226 539 
Q 4381 306 4653 306 
Q 4919 306 5073 539 
Q 5228 772 5228 1178 
Q 5228 1588 5073 1820 
Q 4919 2053 4653 2053 
z
M 4653 2450 
Q 5147 2450 5437 2106 
Q 5728 1763 5728 1178 
Q 5728 594 5436 251 
Q 5144 -91 4653 -91 
Q 4153 -91 3862 251 
Q 3572 594 3572 1178 
Q 3572 1766 3864 2108 
Q 4156 2450 4653 2450 
z
M 1428 4353 
Q 1159 4353 1004 4120 
Q 850 3888 850 3481 
Q 850 3069 1003 2837 
Q 1156 2606 1428 2606 
Q 1700 2606 1854 2837 
Q 2009 3069 2009 3481 
Q 2009 3884 1853 4118 
Q 1697 4353 1428 4353 
z
M 4250 4750 
L 4750 4750 
L 1831 -91 
L 1331 -91 
L 4250 4750 
z
M 1428 4750 
Q 1922 4750 2215 4408 
Q 2509 4066 2509 3481 
Q 2509 2891 2217 2550 
Q 1925 2209 1428 2209 
Q 931 2209 642 2551 
Q 353 2894 353 3481 
Q 353 4063 643 4406 
Q 934 4750 1428 4750 
z
" transform="scale(0.015625)"/>
      </defs>
      <use xlink:href="#DejaVuSans-65"/>
      <use xlink:href="#DejaVuSans-78" x="59.773438"/>
      <use xlink:href="#DejaVuSans-65" x="115.828125"/>
      <use xlink:href="#DejaVuSans-72" x="177.351562"/>
      <use xlink:href="#DejaVuSans-67" x="216.714844"/>
      <use xlink:href="#DejaVuSans-65" x="280.191406"/>
      <use xlink:href="#DejaVuSans-74" x="341.714844"/>
      <use xlink:href="#DejaVuSans-69" x="380.923828"/>
      <use xlink:href="#DejaVuSans-73" x="408.707031"/>
      <use xlink:href="#DejaVuSans-63" x="460.806641"/>
      <use xlink:href="#DejaVuSans-68" x="515.787109"/>
      <use xlink:href="#DejaVuSans-65" x="579.166016"/>
      <use xlink:href="#DejaVuSans-72" x="640.689453"/>
      <use xlink:href="#DejaVuSans-20" x="681.802734"/>
      <use xlink:href="#DejaVuSans-57" x="713.589844"/>
      <use xlink:href="#DejaVuSans-69" x="810.216797"/>
      <use xlink:href="#DejaVuSans-72" x="838"/>
      <use xlink:href="#DejaVuSans-6b" x="879.113281"/>
      <use xlink:href="#DejaVuSans-75" x="933.898438"/>
      <use xlink:href="#DejaVuSans-6e" x="997.277344"/>
      <use xlink:href="#DejaVuSans-67" x="1060.65625"/>
      <use xlink:href="#DejaVuSans-73" x="1124.132812"/>
      <use xlink:href="#DejaVuSans-67" x="1176.232422"/>
      <use xlink:href="#DejaVuSans-72" x="1239.708984"/>
      <use xlink:href="#DejaVuSans-61" x="1280.822266"/>
      <use xlink:href="#DejaVuSans-64" x="1342.101562"/>
      <use xlink:href="#DejaVuSans-20" x="1405.578125"/>
      <use xlink:href="#DejaVuSans-5b" x="1437.365234"/>
      <use xlink:href="#DejaVuSans-25" x="1476.378906"/>
      <use xlink:href="#DejaVuSans-5d" x="1571.398438"/>
     </g>
    </g>
   </g>
   <g id="line2d_29">
    <path d="M 468.847059 738.72 
L 474.331497 723.132908 
L 479.815934 711.562932 
L 485.300372 702.389863 
L 490.78481 694.835201 
L 496.269248 688.457411 
L 501.753686 682.979057 
L 507.238124 678.213365 
L 512.722561 674.027655 
L 518.206999 670.323782 
L 523.691437 667.027342 
L 529.175875 664.080155 
L 534.660313 661.435843 
L 540.144751 659.056786 
L 545.629188 656.912004 
L 551.113626 654.975655 
L 556.598064 653.225936 
L 562.082502 651.644274 
L 567.56694 650.214701 
L 573.051378 648.923385 
L 578.535815 647.758258 
L 584.020253 646.708722 
L 589.504691 645.765421 
L 594.989129 644.920047 
L 600.473567 644.16519 
L 605.958004 643.494208 
L 611.442442 642.901127 
L 616.92688 642.380555 
L 622.411318 641.927601 
L 627.895756 641.537823 
L 633.380194 641.207167 
L 638.864631 640.931926 
L 644.349069 640.708704 
L 649.833507 640.534378 
L 655.317945 640.406069 
L 660.802383 640.321121 
L 666.286821 640.277078 
L 671.771258 640.27166 
L 677.255696 640.302752 
L 682.740134 640.368386 
L 688.224572 640.466728 
L 693.70901 640.596066 
L 699.193448 640.7548 
L 704.677885 640.941434 
L 710.162323 641.154564 
L 715.646761 641.392873 
L 721.131199 641.655123 
L 726.615637 641.940152 
L 732.100074 642.246863 
L 737.584512 642.574223 
L 743.06895 642.921256 
L 748.553388 643.287043 
L 754.037826 643.670711 
L 759.522264 644.071438 
L 765.006701 644.488443 
L 770.491139 644.920987 
L 775.975577 645.368367 
L 781.460015 645.829917 
L 786.944453 646.305005 
L 792.428891 646.793029 
L 797.913328 647.293416 
L 803.397766 647.805621 
L 808.882204 648.329126 
L 814.366642 648.863435 
L 819.85108 649.408077 
L 825.335517 649.962601 
L 830.819955 650.526577 
L 836.304393 651.099594 
L 841.788831 651.681262 
L 847.273269 652.271203 
L 852.757707 652.869058 
L 858.242144 653.474485 
L 863.726582 654.087153 
L 869.21102 654.706748 
L 874.695458 655.332967 
L 880.179896 655.965521 
L 885.664334 656.604133 
L 891.148771 657.248535 
L 896.633209 657.898472 
L 902.117647 658.553698 
" clip-path="url(#p2fad72cf48)" style="fill: none; stroke: #000000; stroke-width: 1.5; stroke-linecap: square"/>
   </g>
   <g id="line2d_30">
    <path d="M 212.823529 289.148025 
L 225.703649 294.288575 
L 238.583768 299.42485 
L 251.463887 304.550167 
L 264.344006 309.658891 
L 277.224125 314.746271 
L 290.104244 319.808257 
L 302.984363 324.841476 
L 315.864483 329.843064 
L 328.744602 334.810571 
L 341.624721 339.741973 
L 354.50484 344.635565 
L 367.384959 349.489928 
L 380.265078 354.303889 
L 393.145197 359.076492 
L 406.025316 363.806967 
L 418.905436 368.494706 
L 431.785555 373.139243 
L 444.665674 377.740239 
L 457.545793 382.297455 
L 470.425912 386.810765 
L 483.306031 391.280104 
L 496.18615 395.705485 
L 509.06627 400.086828 
L 521.946389 404.424647 
L 534.826508 408.718853 
L 547.706627 412.969739 
L 560.586746 417.177574 
L 573.466865 421.342658 
L 586.346984 425.465317 
L 599.227103 429.545905 
L 612.107223 433.584795 
L 624.987342 437.582381 
L 637.867461 441.539069 
L 650.74758 445.45528 
L 663.627699 449.331448 
L 676.507818 453.168013 
L 689.387937 456.965424 
L 702.268057 460.724136 
L 715.148176 464.44461 
L 728.028295 468.12731 
L 740.908414 471.7727 
L 753.788533 475.38125 
L 766.668652 478.953427 
L 779.548771 482.4897 
L 792.428891 485.990536 
L 805.30901 489.456403 
L 818.189129 492.887764 
L 831.069248 496.285082 
L 843.949367 499.648817 
L 856.829486 502.979425 
L 869.709605 506.27736 
L 882.589724 509.543071 
L 895.469844 512.777004 
L 908.349963 515.979601 
L 921.230082 519.151298 
L 934.110201 522.292528 
L 946.99032 525.40372 
L 959.870439 528.485296 
L 972.750558 531.537676 
L 985.630678 534.561272 
L 998.510797 537.556493 
L 1011.390916 540.523743 
L 1024.271035 543.46342 
L 1037.151154 546.375917 
L 1050.031273 549.261622 
L 1062.911392 552.120919 
L 1075.791512 554.954185 
L 1088.671631 557.761792 
L 1101.55175 560.544109 
L 1114.431869 563.301497 
L 1127.311988 566.034314 
L 1140.192107 568.742912 
L 1153.072226 571.427639 
L 1165.952345 574.088836 
L 1178.832465 576.726841 
L 1191.712584 579.341986 
L 1204.592703 581.934598 
L 1217.472822 584.505001 
L 1230.352941 587.053511 
" clip-path="url(#p2fad72cf48)" style="fill: none; stroke: #000000; stroke-width: 1.5; stroke-linecap: square"/>
   </g>
   <g id="line2d_31">
    <path d="M 212.823529 133.92 
L 225.703649 141.44129 
L 238.583768 148.840395 
L 251.463887 156.120281 
L 264.344006 163.283818 
L 277.224125 170.333783 
L 290.104244 177.272868 
L 302.984363 184.103684 
L 315.864483 190.828752 
L 328.744602 197.450528 
L 341.624721 203.971387 
L 354.50484 210.393648 
L 367.384959 216.719513 
L 380.265078 222.95117 
L 393.145197 229.090741 
L 406.025316 235.140249 
L 418.905436 241.1017 
L 431.785555 246.977016 
L 444.665674 252.768076 
L 457.545793 258.476698 
L 470.425912 264.104672 
L 483.306031 269.653693 
L 496.18615 275.125465 
L 509.06627 280.521585 
L 521.946389 285.843585 
L 534.826508 291.093125 
L 547.706627 296.271658 
L 560.586746 301.380645 
L 573.466865 306.421509 
L 586.346984 311.395639 
L 599.227103 316.304384 
L 612.107223 321.149062 
L 624.987342 325.930955 
L 637.867461 330.651313 
L 650.74758 335.311356 
L 663.627699 339.912273 
L 676.507818 344.455222 
L 689.387937 348.941334 
L 702.268057 353.371713 
L 715.148176 357.747436 
L 728.028295 362.069552 
L 740.908414 366.339088 
L 753.788533 370.557044 
L 766.668652 374.724399 
L 779.548771 378.842106 
L 792.428891 382.911099 
L 805.30901 386.932287 
L 818.189129 390.906562 
L 831.069248 394.834793 
L 843.949367 398.717829 
L 856.829486 402.556501 
L 869.709605 406.351622 
L 882.589724 410.103985 
L 895.469844 413.814367 
L 908.349963 417.483526 
L 921.230082 421.112207 
L 934.110201 424.701134 
L 946.99032 428.251019 
L 959.870439 431.762557 
L 972.750558 435.236429 
L 985.630678 438.6733 
L 998.510797 442.073823 
L 1011.390916 445.438635 
L 1024.271035 448.768361 
L 1037.151154 452.063613 
L 1050.031273 455.324989 
L 1062.911392 458.553076 
L 1075.791512 461.748449 
L 1088.671631 464.91167 
L 1101.55175 468.04329 
L 1114.431869 471.143849 
L 1127.311988 474.213876 
L 1140.192107 477.25389 
L 1153.072226 480.264398 
L 1165.952345 483.245898 
L 1178.832465 486.198878 
L 1191.712584 489.123817 
L 1204.592703 492.021182 
L 1217.472822 494.891434 
L 1230.352941 497.735023 
" clip-path="url(#p2fad72cf48)" style="fill: none; stroke: #000000; stroke-width: 1.5; stroke-linecap: square"/>
   </g>
   <g id="line2d_32">
    <path d="M 455.717647 172.570135 
L 465.523157 177.040096 
L 475.328667 181.460618 
L 485.134177 185.832539 
L 494.939687 190.156673 
L 504.745197 194.433802 
L 514.550707 198.664645 
L 524.356217 202.850016 
L 534.161727 206.990639 
L 543.967238 211.087239 
L 553.772748 215.140526 
L 563.578258 219.151196 
L 573.383768 223.119932 
L 583.189278 227.047404 
L 592.994788 230.934266 
L 602.800298 234.781162 
L 612.605808 238.588722 
L 622.411318 242.357565 
L 632.216828 246.088297 
L 642.022338 249.781514 
L 651.827848 253.437797 
L 661.633358 257.057721 
L 671.438868 260.641846 
L 681.244378 264.190724 
L 691.049888 267.704896 
L 700.855398 271.184893 
L 710.660908 274.631235 
L 720.466418 278.044436 
L 730.271929 281.424996 
L 740.077439 284.773409 
L 749.882949 288.090159 
L 759.688459 291.375722 
L 769.493969 294.630565 
L 779.299479 297.855146 
L 789.104989 301.049916 
L 798.910499 304.215317 
L 808.716009 307.351785 
L 818.521519 310.459746 
L 828.327029 313.53962 
L 838.132539 316.59182 
L 847.938049 319.616751 
L 857.743559 322.614811 
L 867.549069 325.586391 
L 877.354579 328.531877 
L 887.160089 331.451647 
L 896.965599 334.346071 
L 906.771109 337.215517 
L 916.57662 340.060343 
L 926.38213 342.880902 
L 936.18764 345.677542 
L 945.99315 348.450604 
L 955.79866 351.200425 
L 965.60417 353.927334 
L 975.40968 356.631657 
L 985.21519 359.313712 
L 995.0207 361.973815 
L 1004.82621 364.612274 
L 1014.63172 367.229393 
L 1024.43723 369.825472 
L 1034.24274 372.400804 
L 1044.04825 374.95568 
L 1053.85376 377.490383 
L 1063.65927 380.005195 
L 1073.46478 382.50039 
L 1083.27029 384.976241 
L 1093.0758 387.433014 
L 1102.88131 389.870971 
L 1112.686821 392.290372 
L 1122.492331 394.69147 
L 1132.297841 397.074517 
L 1142.103351 399.439758 
L 1151.908861 401.787436 
L 1161.714371 404.117789 
L 1171.519881 406.431054 
L 1181.325391 408.72746 
L 1191.130901 411.007236 
L 1200.936411 413.270606 
L 1210.741921 415.517791 
L 1220.547431 417.749007 
L 1230.352941 419.964468 
" clip-path="url(#p2fad72cf48)" style="fill: none; stroke: #000000; stroke-width: 1.5; stroke-linecap: square"/>
   </g>
   <g id="line2d_33">
    <path d="M 731.435294 210.543996 
L 737.750707 212.648078 
L 744.066121 214.739165 
L 750.381534 216.817393 
L 756.696947 218.882891 
L 763.01236 220.935791 
L 769.327774 222.97622 
L 775.643187 225.004305 
L 781.9586 227.020173 
L 788.274013 229.023948 
L 794.589427 231.015751 
L 800.90484 232.995705 
L 807.220253 234.963929 
L 813.535666 236.920542 
L 819.85108 238.865661 
L 826.166493 240.799402 
L 832.481906 242.72188 
L 838.797319 244.633208 
L 845.112733 246.533497 
L 851.428146 248.422859 
L 857.743559 250.301403 
L 864.058972 252.169238 
L 870.374386 254.026469 
L 876.689799 255.873204 
L 883.005212 257.709546 
L 889.320625 259.535599 
L 895.636039 261.351466 
L 901.951452 263.157247 
L 908.266865 264.953042 
L 914.582278 266.738951 
L 920.897692 268.515071 
L 927.213105 270.281499 
L 933.528518 272.03833 
L 939.843931 273.785659 
L 946.159345 275.523579 
L 952.474758 277.252184 
L 958.790171 278.971563 
L 965.105585 280.681808 
L 971.420998 282.383008 
L 977.736411 284.075252 
L 984.051824 285.758626 
L 990.367238 287.433218 
L 996.682651 289.099112 
L 1002.998064 290.756394 
L 1009.313477 292.405147 
L 1015.628891 294.045454 
L 1021.944304 295.677396 
L 1028.259717 297.301055 
L 1034.57513 298.91651 
L 1040.890544 300.523841 
L 1047.205957 302.123125 
L 1053.52137 303.714441 
L 1059.836783 305.297864 
L 1066.152197 306.873472 
L 1072.46761 308.441337 
L 1078.783023 310.001535 
L 1085.098436 311.554139 
L 1091.41385 313.099222 
L 1097.729263 314.636854 
L 1104.044676 316.167107 
L 1110.360089 317.690051 
L 1116.675503 319.205756 
L 1122.990916 320.71429 
L 1129.306329 322.215721 
L 1135.621742 323.710115 
L 1141.937156 325.197541 
L 1148.252569 326.678063 
L 1154.567982 328.151745 
L 1160.883395 329.618654 
L 1167.198809 331.078852 
L 1173.514222 332.532401 
L 1179.829635 333.979366 
L 1186.145048 335.419806 
L 1192.460462 336.853783 
L 1198.775875 338.281357 
L 1205.091288 339.702588 
L 1211.406701 341.117534 
L 1217.722115 342.526255 
L 1224.037528 343.928808 
L 1230.352941 345.325249 
" clip-path="url(#p2fad72cf48)" style="fill: none; stroke: #000000; stroke-width: 1.5; stroke-linecap: square"/>
   </g>
   <g id="line2d_34">
    <path d="M 209.688876 171.943343 
L 219.528167 173.616045 
L 229.370146 175.347847 
L 239.21389 177.130561 
L 249.058468 178.956823 
L 258.902945 180.819993 
L 268.746381 182.714062 
L 278.587833 184.633582 
L 288.426351 186.573592 
L 298.260983 188.529572 
L 308.090774 190.497392 
L 317.914765 192.473264 
L 327.731995 194.453719 
L 337.541503 196.435567 
L 347.342323 198.415871 
L 357.133491 200.391925 
L 366.914032 202.361238 
L 376.682997 204.321479 
L 386.439412 206.270521 
L 396.182315 208.206389 
L 405.910734 210.127249 
L 415.623707 212.031406 
L 425.320286 213.917266 
L 434.999508 215.783368 
L 444.660421 217.628347 
L 454.302075 219.450954 
L 463.923526 221.249979 
L 473.523836 223.024337 
L 483.10207 224.773018 
L 492.657312 226.495088 
L 502.188631 228.18964 
L 511.69514 229.855804 
L 521.17591 231.4929 
L 530.630054 233.100188 
L 540.056689 234.677011 
L 549.45494 236.22276 
L 558.823944 237.736866 
L 568.162849 239.218806 
L 577.470817 240.668098 
L 586.747021 242.084295 
L 595.990648 243.466986 
L 605.2009 244.815792 
L 614.376995 246.130369 
L 623.518165 247.4104 
L 632.62366 248.655596 
L 641.692746 249.865698 
L 650.724707 251.04047 
L 659.718847 252.179702 
L 668.674488 253.283206 
L 677.590974 254.350816 
L 686.467667 255.382389 
L 695.303953 256.377801 
L 704.099241 257.336947 
L 712.852959 258.259741 
L 721.564564 259.146116 
L 730.233534 259.99602 
L 738.859374 260.809419 
L 747.441615 261.586293 
L 755.979813 262.326639 
L 764.473554 263.030468 
L 772.92245 263.697804 
L 781.326145 264.328686 
L 789.684309 264.923166 
L 797.996645 265.481308 
L 806.262886 266.003187 
L 814.482798 266.488893 
L 822.656179 266.938524 
L 830.782859 267.352192 
L 838.862705 267.730017 
L 846.895615 268.072132 
L 854.881526 268.378679 
L 862.820408 268.649809 
L 870.71227 268.885682 
L 878.557157 269.086471 
L 886.355154 269.252353 
L 894.106383 269.383517 
L 901.811005 269.48016 
L 909.469224 269.542487 
L 917.081283 269.57071 
L 924.647466 269.56505 
" clip-path="url(#p2fad72cf48)" style="fill: none; stroke-dasharray: 5.55,2.4; stroke-dashoffset: 0; stroke: #ff0000; stroke-width: 1.5"/>
   </g>
   <g id="line2d_35">
    <path d="M 223.686567 257.959292 
L 236.118595 257.121718 
L 248.565437 256.669456 
L 261.025572 256.543534 
L 273.497466 256.695748 
L 285.979572 257.086128 
L 298.470322 257.68114 
L 310.968171 258.452383 
L 323.471526 259.375512 
L 335.978796 260.429564 
L 348.488393 261.596368 
L 360.998719 262.860008 
L 373.508156 264.206478 
L 386.015096 265.623437 
L 398.517922 267.099935 
L 411.015017 268.626206 
L 423.504761 270.193513 
L 435.985534 271.794035 
L 448.455717 273.42071 
L 460.913695 275.067172 
L 473.357866 276.727696 
L 485.786614 278.396995 
L 498.198332 280.070382 
L 510.591481 281.743447 
L 522.964415 283.412348 
L 535.315585 285.073449 
L 547.643434 286.723459 
L 559.946416 288.359366 
L 572.223004 289.978408 
L 584.471685 291.578059 
L 596.690968 293.15599 
L 608.879382 294.710073 
L 621.035475 296.23835 
L 633.157824 297.739026 
L 645.245027 299.210453 
L 657.295713 300.651112 
L 669.308539 302.059618 
L 681.282191 303.434699 
L 693.215392 304.775195 
L 705.106897 306.080034 
L 716.955498 307.348247 
L 728.760025 308.578949 
L 740.519351 309.771335 
L 752.232386 310.92468 
L 763.89809 312.038319 
L 775.515466 313.111666 
L 787.083564 314.14419 
L 798.601487 315.135422 
L 810.068388 316.084948 
L 821.483474 316.992405 
L 832.846007 317.857481 
L 844.155308 318.67991 
L 855.410758 319.459471 
L 866.611798 320.195985 
L 877.757933 320.889314 
L 888.848736 321.539357 
L 899.883844 322.146049 
L 910.862966 322.709361 
L 921.78588 323.229297 
L 932.65244 323.705893 
L 943.462574 324.139214 
L 954.216288 324.529355 
L 964.913665 324.876441 
L 975.554872 325.18062 
L 986.140158 325.442068 
L 996.669858 325.660987 
L 1007.144394 325.837602 
L 1017.564278 325.972162 
L 1027.930111 326.064936 
L 1038.24259 326.116219 
L 1048.502509 326.126324 
L 1058.710757 326.095586 
L 1068.868325 326.024361 
L 1078.976309 325.913023 
L 1089.035906 325.761968 
L 1099.048425 325.571607 
L 1109.015284 325.342375 
L 1118.938015 325.074721 
L 1128.818268 324.769115 
L 1138.657812 324.426046 
" clip-path="url(#p2fad72cf48)" style="fill: none; stroke-dasharray: 5.55,2.4; stroke-dashoffset: 0; stroke: #ffa500; stroke-width: 1.5"/>
   </g>
   <g id="line2d_36">
    <path d="M 285.963001 361.650495 
L 300.566875 356.278698 
L 315.195576 352.067986 
L 329.847039 348.771976 
L 344.519201 346.212767 
L 359.209948 344.257132 
L 373.917187 342.802422 
L 388.638801 341.767677 
L 403.372659 341.087804 
L 418.116623 340.709617 
L 432.868544 340.589062 
L 447.62629 340.689212 
L 462.387669 340.978805 
L 477.150541 341.431109 
L 491.912749 342.023148 
L 506.672192 342.734887 
L 521.426634 343.54896 
L 536.173965 344.450151 
L 550.912053 345.424958 
L 565.638777 346.461459 
L 580.352031 347.549048 
L 595.049726 348.67827 
L 609.729794 349.840658 
L 624.390189 351.028615 
L 639.028888 352.235302 
L 653.643902 353.454552 
L 668.233267 354.680792 
L 682.795057 355.908978 
L 697.327383 357.134536 
L 711.828395 358.353316 
L 726.296287 359.561546 
L 740.7293 360.755797 
L 755.125724 361.93295 
L 769.483902 363.090168 
L 783.802234 364.224866 
L 798.07918 365.334698 
L 812.313262 366.417523 
L 826.503069 367.471403 
L 840.647259 368.494576 
L 854.744564 369.48545 
L 868.793795 370.442576 
L 882.793839 371.364657 
L 896.743669 372.250526 
L 910.642347 373.099133 
L 924.489024 373.909544 
L 938.282945 374.680931 
L 952.023456 375.412566 
L 965.710001 376.103815 
L 979.342134 376.754124 
L 992.919515 377.36303 
L 1006.441918 377.930141 
L 1019.909232 378.455142 
L 1033.32147 378.937784 
L 1046.678765 379.377883 
L 1059.981382 379.775321 
L 1073.229714 380.130032 
L 1086.424294 380.442013 
L 1099.565793 380.711309 
L 1112.655026 380.93802 
L 1125.692956 381.122292 
L 1138.680701 381.264321 
L 1151.619536 381.364345 
L 1164.510896 381.422649 
L 1177.356386 381.439558 
L 1190.157783 381.415441 
L 1202.91704 381.350705 
L 1215.636295 381.245797 
L 1228.317877 381.101203 
" clip-path="url(#p2fad72cf48)" style="fill: none; stroke-dasharray: 5.55,2.4; stroke-dashoffset: 0; stroke: #008000; stroke-width: 1.5"/>
   </g>
   <g id="line2d_37">
    <path d="M 346.13742 493.683421 
L 357.330497 480.701385 
L 368.541046 470.356783 
L 379.768296 461.880794 
L 391.011479 454.806696 
L 402.269821 448.826713 
L 413.542556 443.725675 
L 424.828873 439.346418 
L 436.128009 435.570177 
L 447.439163 432.304771 
L 458.761546 429.477025 
L 470.094367 427.027733 
L 481.436832 424.908298 
L 492.788163 423.078229 
L 504.147596 421.503385 
L 515.514198 420.154828 
L 526.887274 419.007658 
L 538.266006 418.040294 
L 549.649596 417.233947 
L 561.037248 416.572135 
L 572.42817 416.040319 
L 583.82157 415.625603 
L 595.216659 415.316497 
L 606.612652 415.102719 
L 618.008767 414.97503 
L 629.404228 414.9251 
L 640.798262 414.945395 
L 652.190103 415.029076 
L 663.57899 415.169921 
L 674.96417 415.362253 
L 686.344895 415.60088 
L 697.720428 415.881042 
L 709.090037 416.198371 
L 720.453001 416.548843 
L 731.808608 416.928753 
L 743.156158 417.334677 
L 754.494958 417.763452 
L 765.824332 418.212146 
L 777.143611 418.678047 
L 788.452142 419.158628 
L 799.749285 419.651549 
L 811.034414 420.154632 
L 822.306918 420.665851 
L 833.566202 421.183317 
L 844.811687 421.70527 
L 856.04281 422.230069 
L 867.259028 422.756183 
L 878.459816 423.282182 
L 889.644666 423.806733 
L 900.813092 424.328589 
L 911.96463 424.846588 
L 923.098833 425.359642 
L 934.215282 425.866737 
L 945.313576 426.366926 
L 956.39334 426.859324 
L 967.454224 427.343107 
L 978.495902 427.817506 
L 989.518075 428.281805 
L 1000.520471 428.735337 
L 1011.502844 429.177482 
L 1022.464977 429.607666 
L 1033.406685 430.025351 
L 1044.32781 430.430044 
L 1055.228226 430.821289 
L 1066.107838 431.198664 
L 1076.966585 431.561783 
L 1087.804437 431.910292 
L 1098.6214 432.243861 
L 1109.417516 432.562199 
L 1120.192861 432.865038 
L 1130.947548 433.152142 
L 1141.681729 433.42329 
L 1152.395593 433.678293 
L 1163.08937 433.916985 
L 1173.76333 434.139221 
L 1184.417784 434.344879 
L 1195.053085 434.533858 
L 1205.669632 434.706074 
L 1216.267865 434.861464 
L 1226.848272 434.999986 
" clip-path="url(#p2fad72cf48)" style="fill: none; stroke-dasharray: 5.55,2.4; stroke-dashoffset: 0; stroke: #4682b4; stroke-width: 1.5"/>
   </g>
   <g id="line2d_38">
    <path d="M 427.264048 662.774499 
L 437.246846 627.481917 
L 447.244371 604.538127 
L 457.256176 587.439821 
L 467.281812 573.872011 
L 477.320831 562.704418 
L 487.372793 553.289176 
L 497.437249 545.216037 
L 507.513764 538.206822 
L 517.60165 532.063453 
L 527.700726 526.638673 
L 537.810441 521.820295 
L 547.930335 517.520395 
L 558.059949 513.668698 
L 568.198825 510.20805 
L 578.346502 507.091278 
L 588.502524 504.278951 
L 598.666431 501.737737 
L 608.837767 499.439187 
L 619.016075 497.358803 
L 629.2009 495.475329 
L 639.391789 493.770195 
L 649.58829 492.227071 
L 659.789952 490.831519 
L 669.996329 489.570708 
L 680.206974 488.433179 
L 690.421446 487.408655 
L 700.639303 486.487883 
L 710.860109 485.662503 
L 721.08343 484.924932 
L 731.308838 484.268274 
L 741.535904 483.686239 
L 751.764209 483.173074 
L 761.993334 482.723503 
L 772.222858 482.332676 
L 782.452391 481.99613 
L 792.681521 481.709742 
L 802.909852 481.4697 
L 813.136992 481.272475 
L 823.362557 481.11479 
L 833.586168 480.993601 
L 843.807453 480.906074 
L 854.026047 480.84957 
L 864.241593 480.821625 
L 874.453741 480.819937 
L 884.662148 480.842353 
L 894.866482 480.886858 
L 905.066416 480.951564 
L 915.261634 481.034699 
L 925.45183 481.1346 
L 935.636706 481.249705 
L 945.815974 481.378544 
L 955.989356 481.519737 
L 966.156586 481.671983 
L 976.317408 481.834057 
L 986.471576 482.004805 
L 996.618857 482.183139 
L 1006.759029 482.368035 
L 1016.891884 482.558522 
L 1027.017225 482.753688 
L 1037.134867 482.952672 
L 1047.244642 483.154662 
L 1057.346391 483.35889 
L 1067.439972 483.564631 
L 1077.525257 483.771201 
L 1087.602133 483.977957 
L 1097.6705 484.184288 
L 1107.730275 484.389621 
L 1117.781393 484.593413 
L 1127.823802 484.795155 
L 1137.857467 484.994366 
L 1147.882372 485.190592 
L 1157.898517 485.383407 
L 1167.90592 485.57241 
L 1177.904618 485.757226 
L 1187.894665 485.937501 
L 1197.876135 486.112903 
L 1207.849123 486.283122 
L 1217.813741 486.44787 
L 1227.770123 486.606875 
" clip-path="url(#p2fad72cf48)" style="fill: none; stroke-dasharray: 5.55,2.4; stroke-dashoffset: 0; stroke: #8a2be2; stroke-width: 1.5"/>
   </g>
   <g id="patch_3">
    <path d="M 180 768.96 
L 180 103.68 
" style="fill: none; stroke: #000000; stroke-width: 0.8; stroke-linejoin: miter; stroke-linecap: square"/>
   </g>
   <g id="patch_4">
    <path d="M 1296 768.96 
L 1296 103.68 
" style="fill: none; stroke: #000000; stroke-width: 0.8; stroke-linejoin: miter; stroke-linecap: square"/>
   </g>
   <g id="patch_5">
    <path d="M 180 768.96 
L 1296 768.96 
" style="fill: none; stroke: #000000; stroke-width: 0.8; stroke-linejoin: miter; stroke-linecap: square"/>
   </g>
   <g id="patch_6">
    <path d="M 180 103.68 
L 1296 103.68 
" style="fill: none; stroke: #000000; stroke-width: 0.8; stroke-linejoin: miter; stroke-linecap: square"/>
   </g>
   <g id="text_17">
    <!-- 160 -->
    <g transform="translate(905.4 667.665007) scale(0.2 -0.2)">
     <defs>
      <path id="DejaVuSans-31" d="M 794 531 
L 1825 531 
L 1825 4091 
L 703 3866 
L 703 4441 
L 1819 4666 
L 2450 4666 
L 2450 531 
L 3481 531 
L 3481 0 
L 794 0 
L 794 531 
z
" transform="scale(0.015625)"/>
     </defs>
     <use xlink:href="#DejaVuSans-31"/>
     <use xlink:href="#DejaVuSans-36" x="63.623047"/>
     <use xlink:href="#DejaVuSans-30" x="127.246094"/>
    </g>
   </g>
   <g id="text_18">
    <!-- 150 -->
    <g transform="translate(1233.635294 596.570273) scale(0.2 -0.2)">
     <defs>
      <path id="DejaVuSans-35" d="M 691 4666 
L 3169 4666 
L 3169 4134 
L 1269 4134 
L 1269 2991 
Q 1406 3038 1543 3061 
Q 1681 3084 1819 3084 
Q 2600 3084 3056 2656 
Q 3513 2228 3513 1497 
Q 3513 744 3044 326 
Q 2575 -91 1722 -91 
Q 1428 -91 1123 -41 
Q 819 9 494 109 
L 494 744 
Q 775 591 1075 516 
Q 1375 441 1709 441 
Q 2250 441 2565 725 
Q 2881 1009 2881 1497 
Q 2881 1984 2565 2268 
Q 2250 2553 1709 2553 
Q 1456 2553 1204 2497 
Q 953 2441 691 2322 
L 691 4666 
z
" transform="scale(0.015625)"/>
     </defs>
     <use xlink:href="#DejaVuSans-31"/>
     <use xlink:href="#DejaVuSans-35" x="63.623047"/>
     <use xlink:href="#DejaVuSans-30" x="127.246094"/>
    </g>
   </g>
   <g id="text_19">
    <!-- 140 -->
    <g transform="translate(1233.635294 507.043572) scale(0.2 -0.2)">
     <use xlink:href="#DejaVuSans-31"/>
     <use xlink:href="#DejaVuSans-34" x="63.623047"/>
     <use xlink:href="#DejaVuSans-30" x="127.246094"/>
    </g>
   </g>
   <g id="text_20">
    <!-- 130 -->
    <g transform="translate(1233.635294 428.049423) scale(0.2 -0.2)">
     <use xlink:href="#DejaVuSans-31"/>
     <use xlink:href="#DejaVuSans-33" x="63.623047"/>
     <use xlink:href="#DejaVuSans-30" x="127.246094"/>
    </g>
   </g>
   <g id="text_21">
    <!-- 120 -->
    <g transform="translate(1233.635294 354.321551) scale(0.2 -0.2)">
     <use xlink:href="#DejaVuSans-31"/>
     <use xlink:href="#DejaVuSans-32" x="63.623047"/>
     <use xlink:href="#DejaVuSans-30" x="127.246094"/>
    </g>
   </g>
   <g id="legend_1">
    <g id="patch_7">
     <path d="M 337.80625 760.96 
L 1138.19375 760.96 
Q 1141.39375 760.96 1141.39375 757.76 
L 1141.39375 735.2 
Q 1141.39375 732 1138.19375 732 
L 337.80625 732 
Q 334.60625 732 334.60625 735.2 
L 334.60625 757.76 
Q 334.60625 760.96 337.80625 760.96 
z
" style="fill: #ffffff; opacity: 0.8; stroke: #cccccc; stroke-linejoin: miter"/>
    </g>
    <g id="line2d_39">
     <path d="M 341.00625 744.96 
L 357.00625 744.96 
L 373.00625 744.96 
" style="fill: none; stroke: #000000; stroke-width: 1.5; stroke-linecap: square"/>
    </g>
    <g id="text_22">
     <!-- $T_{se,ein}$ [°C]          $ΔT_{GK,ob}$: -->
     <g transform="translate(385.80625 750.56) scale(0.16 -0.16)">
      <defs>
       <path id="DejaVuSans-Oblique-54" d="M 378 4666 
L 4325 4666 
L 4225 4134 
L 2559 4134 
L 1759 0 
L 1125 0 
L 1925 4134 
L 275 4134 
L 378 4666 
z
" transform="scale(0.015625)"/>
       <path id="DejaVuSans-Oblique-73" d="M 3200 3397 
L 3091 2853 
Q 2863 2978 2609 3040 
Q 2356 3103 2088 3103 
Q 1634 3103 1373 2948 
Q 1113 2794 1113 2528 
Q 1113 2219 1719 2053 
Q 1766 2041 1788 2034 
L 1972 1978 
Q 2547 1819 2739 1644 
Q 2931 1469 2931 1166 
Q 2931 609 2489 259 
Q 2047 -91 1331 -91 
Q 1053 -91 747 -37 
Q 441 16 72 128 
L 184 722 
Q 500 559 806 475 
Q 1113 391 1394 391 
Q 1816 391 2080 572 
Q 2344 753 2344 1031 
Q 2344 1331 1650 1516 
L 1591 1531 
L 1394 1581 
Q 956 1697 753 1886 
Q 550 2075 550 2369 
Q 550 2928 970 3256 
Q 1391 3584 2113 3584 
Q 2397 3584 2667 3537 
Q 2938 3491 3200 3397 
z
" transform="scale(0.015625)"/>
       <path id="DejaVuSans-Oblique-65" d="M 3078 2063 
Q 3088 2113 3092 2166 
Q 3097 2219 3097 2272 
Q 3097 2653 2873 2875 
Q 2650 3097 2266 3097 
Q 1838 3097 1509 2826 
Q 1181 2556 1013 2059 
L 3078 2063 
z
M 3578 1613 
L 903 1613 
Q 884 1494 878 1425 
Q 872 1356 872 1306 
Q 872 872 1139 634 
Q 1406 397 1894 397 
Q 2269 397 2603 481 
Q 2938 566 3225 728 
L 3116 159 
Q 2806 34 2476 -28 
Q 2147 -91 1806 -91 
Q 1078 -91 686 257 
Q 294 606 294 1247 
Q 294 1794 489 2264 
Q 684 2734 1063 3103 
Q 1306 3334 1642 3459 
Q 1978 3584 2356 3584 
Q 2950 3584 3301 3228 
Q 3653 2872 3653 2272 
Q 3653 2128 3634 1964 
Q 3616 1800 3578 1613 
z
" transform="scale(0.015625)"/>
       <path id="DejaVuSans-2c" d="M 750 794 
L 1409 794 
L 1409 256 
L 897 -744 
L 494 -744 
L 750 256 
L 750 794 
z
" transform="scale(0.015625)"/>
       <path id="DejaVuSans-Oblique-69" d="M 1172 4863 
L 1747 4863 
L 1606 4134 
L 1031 4134 
L 1172 4863 
z
M 909 3500 
L 1484 3500 
L 800 0 
L 225 0 
L 909 3500 
z
" transform="scale(0.015625)"/>
       <path id="DejaVuSans-Oblique-6e" d="M 3566 2113 
L 3156 0 
L 2578 0 
L 2988 2091 
Q 3016 2238 3031 2350 
Q 3047 2463 3047 2528 
Q 3047 2791 2881 2937 
Q 2716 3084 2419 3084 
Q 1956 3084 1622 2776 
Q 1288 2469 1184 1941 
L 800 0 
L 225 0 
L 903 3500 
L 1478 3500 
L 1363 2950 
Q 1603 3253 1940 3418 
Q 2278 3584 2650 3584 
Q 3113 3584 3367 3334 
Q 3622 3084 3622 2631 
Q 3622 2519 3608 2391 
Q 3594 2263 3566 2113 
z
" transform="scale(0.015625)"/>
       <path id="DejaVuSans-b0" d="M 1600 4347 
Q 1350 4347 1178 4173 
Q 1006 4000 1006 3750 
Q 1006 3503 1178 3333 
Q 1350 3163 1600 3163 
Q 1850 3163 2022 3333 
Q 2194 3503 2194 3750 
Q 2194 3997 2020 4172 
Q 1847 4347 1600 4347 
z
M 1600 4750 
Q 1800 4750 1984 4673 
Q 2169 4597 2303 4453 
Q 2447 4313 2519 4134 
Q 2591 3956 2591 3750 
Q 2591 3338 2302 3052 
Q 2013 2766 1594 2766 
Q 1172 2766 890 3047 
Q 609 3328 609 3750 
Q 609 4169 896 4459 
Q 1184 4750 1600 4750 
z
" transform="scale(0.015625)"/>
       <path id="DejaVuSans-43" d="M 4122 4306 
L 4122 3641 
Q 3803 3938 3442 4084 
Q 3081 4231 2675 4231 
Q 1875 4231 1450 3742 
Q 1025 3253 1025 2328 
Q 1025 1406 1450 917 
Q 1875 428 2675 428 
Q 3081 428 3442 575 
Q 3803 722 4122 1019 
L 4122 359 
Q 3791 134 3420 21 
Q 3050 -91 2638 -91 
Q 1578 -91 968 557 
Q 359 1206 359 2328 
Q 359 3453 968 4101 
Q 1578 4750 2638 4750 
Q 3056 4750 3426 4639 
Q 3797 4528 4122 4306 
z
" transform="scale(0.015625)"/>
       <path id="DejaVuSans-394" d="M 2188 4044 
L 906 525 
L 3472 525 
L 2188 4044 
z
M 50 0 
L 1831 4666 
L 2547 4666 
L 4325 0 
L 50 0 
z
" transform="scale(0.015625)"/>
       <path id="DejaVuSans-Oblique-47" d="M 3494 697 
L 3738 1919 
L 2700 1919 
L 2797 2438 
L 4453 2438 
L 4050 384 
Q 3634 156 3143 32 
Q 2653 -91 2156 -91 
Q 1278 -91 783 396 
Q 288 884 288 1753 
Q 288 2475 589 3126 
Q 891 3778 1422 4213 
Q 1756 4484 2153 4617 
Q 2550 4750 3034 4750 
Q 3472 4750 3873 4639 
Q 4275 4528 4641 4306 
L 4513 3634 
Q 4231 3928 3853 4083 
Q 3475 4238 3047 4238 
Q 2550 4238 2172 4048 
Q 1794 3859 1497 3463 
Q 1244 3125 1098 2667 
Q 953 2209 953 1734 
Q 953 1081 1287 751 
Q 1622 422 2284 422 
Q 2616 422 2925 492 
Q 3234 563 3494 697 
z
" transform="scale(0.015625)"/>
       <path id="DejaVuSans-Oblique-4b" d="M 1081 4666 
L 1716 4666 
L 1331 2700 
L 3781 4666 
L 4622 4666 
L 1850 2438 
L 3878 0 
L 3109 0 
L 1247 2272 
L 806 0 
L 172 0 
L 1081 4666 
z
" transform="scale(0.015625)"/>
       <path id="DejaVuSans-Oblique-6f" d="M 1625 -91 
Q 1009 -91 651 289 
Q 294 669 294 1325 
Q 294 1706 417 2101 
Q 541 2497 738 2766 
Q 1047 3184 1428 3384 
Q 1809 3584 2291 3584 
Q 2888 3584 3255 3212 
Q 3622 2841 3622 2241 
Q 3622 1825 3500 1412 
Q 3378 1000 3181 728 
Q 2875 309 2494 109 
Q 2113 -91 1625 -91 
z
M 891 1344 
Q 891 869 1089 633 
Q 1288 397 1691 397 
Q 2269 397 2648 901 
Q 3028 1406 3028 2181 
Q 3028 2634 2825 2865 
Q 2622 3097 2228 3097 
Q 1903 3097 1650 2945 
Q 1397 2794 1197 2484 
Q 1050 2253 970 1956 
Q 891 1659 891 1344 
z
" transform="scale(0.015625)"/>
       <path id="DejaVuSans-Oblique-62" d="M 3169 2138 
Q 3169 2591 2961 2847 
Q 2753 3103 2388 3103 
Q 2122 3103 1889 2973 
Q 1656 2844 1484 2597 
Q 1303 2338 1198 1995 
Q 1094 1653 1094 1313 
Q 1094 881 1298 636 
Q 1503 391 1863 391 
Q 2134 391 2365 517 
Q 2597 644 2772 891 
Q 2950 1147 3059 1487 
Q 3169 1828 3169 2138 
z
M 1381 2969 
Q 1594 3256 1914 3420 
Q 2234 3584 2584 3584 
Q 3122 3584 3439 3221 
Q 3756 2859 3756 2241 
Q 3756 1734 3570 1259 
Q 3384 784 3041 416 
Q 2816 172 2522 40 
Q 2228 -91 1906 -91 
Q 1566 -91 1316 65 
Q 1066 222 909 531 
L 806 0 
L 231 0 
L 1178 4863 
L 1753 4863 
L 1381 2969 
z
" transform="scale(0.015625)"/>
       <path id="DejaVuSans-3a" d="M 750 794 
L 1409 794 
L 1409 0 
L 750 0 
L 750 794 
z
M 750 3309 
L 1409 3309 
L 1409 2516 
L 750 2516 
L 750 3309 
z
" transform="scale(0.015625)"/>
      </defs>
      <use xlink:href="#DejaVuSans-Oblique-54" transform="translate(0 0.015625)"/>
      <use xlink:href="#DejaVuSans-Oblique-73" transform="translate(61.083984 -16.390625) scale(0.7)"/>
      <use xlink:href="#DejaVuSans-Oblique-65" transform="translate(97.553711 -16.390625) scale(0.7)"/>
      <use xlink:href="#DejaVuSans-2c" transform="translate(140.620117 -16.390625) scale(0.7)"/>
      <use xlink:href="#DejaVuSans-Oblique-65" transform="translate(176.508789 -16.390625) scale(0.7)"/>
      <use xlink:href="#DejaVuSans-Oblique-69" transform="translate(219.575195 -16.390625) scale(0.7)"/>
      <use xlink:href="#DejaVuSans-Oblique-6e" transform="translate(239.023438 -16.390625) scale(0.7)"/>
      <use xlink:href="#DejaVuSans-20" transform="translate(286.123047 0.015625)"/>
      <use xlink:href="#DejaVuSans-5b" transform="translate(317.910156 0.015625)"/>
      <use xlink:href="#DejaVuSans-b0" transform="translate(356.923828 0.015625)"/>
      <use xlink:href="#DejaVuSans-43" transform="translate(406.923828 0.015625)"/>
      <use xlink:href="#DejaVuSans-5d" transform="translate(476.748047 0.015625)"/>
      <use xlink:href="#DejaVuSans-20" transform="translate(515.761719 0.015625)"/>
      <use xlink:href="#DejaVuSans-20" transform="translate(547.548828 0.015625)"/>
      <use xlink:href="#DejaVuSans-20" transform="translate(579.335938 0.015625)"/>
      <use xlink:href="#DejaVuSans-20" transform="translate(611.123047 0.015625)"/>
      <use xlink:href="#DejaVuSans-20" transform="translate(642.910156 0.015625)"/>
      <use xlink:href="#DejaVuSans-20" transform="translate(674.697266 0.015625)"/>
      <use xlink:href="#DejaVuSans-20" transform="translate(706.484375 0.015625)"/>
      <use xlink:href="#DejaVuSans-20" transform="translate(738.271484 0.015625)"/>
      <use xlink:href="#DejaVuSans-20" transform="translate(770.058594 0.015625)"/>
      <use xlink:href="#DejaVuSans-20" transform="translate(801.845703 0.015625)"/>
      <use xlink:href="#DejaVuSans-394" transform="translate(833.632812 0.015625)"/>
      <use xlink:href="#DejaVuSans-Oblique-54" transform="translate(902.041016 0.015625)"/>
      <use xlink:href="#DejaVuSans-Oblique-47" transform="translate(963.125 -16.390625) scale(0.7)"/>
      <use xlink:href="#DejaVuSans-Oblique-4b" transform="translate(1017.368164 -16.390625) scale(0.7)"/>
      <use xlink:href="#DejaVuSans-2c" transform="translate(1063.271484 -16.390625) scale(0.7)"/>
      <use xlink:href="#DejaVuSans-Oblique-6f" transform="translate(1099.160156 -16.390625) scale(0.7)"/>
      <use xlink:href="#DejaVuSans-Oblique-62" transform="translate(1141.987305 -16.390625) scale(0.7)"/>
      <use xlink:href="#DejaVuSans-3a" transform="translate(1189.155273 0.015625)"/>
     </g>
    </g>
    <g id="line2d_40">
     <path d="M 613.48625 744.96 
L 629.48625 744.96 
L 645.48625 744.96 
" style="fill: none; stroke-dasharray: 5.55,2.4; stroke-dashoffset: 0; stroke: #ff0000; stroke-width: 1.5"/>
    </g>
    <g id="text_23">
     <!-- 5 K -->
     <g transform="translate(658.28625 750.56) scale(0.16 -0.16)">
      <defs>
       <path id="DejaVuSans-4b" d="M 628 4666 
L 1259 4666 
L 1259 2694 
L 3353 4666 
L 4166 4666 
L 1850 2491 
L 4331 0 
L 3500 0 
L 1259 2247 
L 1259 0 
L 628 0 
L 628 4666 
z
" transform="scale(0.015625)"/>
      </defs>
      <use xlink:href="#DejaVuSans-35"/>
      <use xlink:href="#DejaVuSans-20" x="63.623047"/>
      <use xlink:href="#DejaVuSans-4b" x="95.410156"/>
     </g>
    </g>
    <g id="line2d_41">
     <path d="M 716.04375 744.96 
L 732.04375 744.96 
L 748.04375 744.96 
" style="fill: none; stroke-dasharray: 5.55,2.4; stroke-dashoffset: 0; stroke: #ffa500; stroke-width: 1.5"/>
    </g>
    <g id="text_24">
     <!-- 10 K -->
     <g transform="translate(760.84375 750.56) scale(0.16 -0.16)">
      <use xlink:href="#DejaVuSans-31"/>
      <use xlink:href="#DejaVuSans-30" x="63.623047"/>
      <use xlink:href="#DejaVuSans-20" x="127.246094"/>
      <use xlink:href="#DejaVuSans-4b" x="159.033203"/>
     </g>
    </g>
    <g id="line2d_42">
     <path d="M 828.78125 744.96 
L 844.78125 744.96 
L 860.78125 744.96 
" style="fill: none; stroke-dasharray: 5.55,2.4; stroke-dashoffset: 0; stroke: #008000; stroke-width: 1.5"/>
    </g>
    <g id="text_25">
     <!-- 15 K -->
     <g transform="translate(873.58125 750.56) scale(0.16 -0.16)">
      <use xlink:href="#DejaVuSans-31"/>
      <use xlink:href="#DejaVuSans-35" x="63.623047"/>
      <use xlink:href="#DejaVuSans-20" x="127.246094"/>
      <use xlink:href="#DejaVuSans-4b" x="159.033203"/>
     </g>
    </g>
    <g id="line2d_43">
     <path d="M 941.51875 744.96 
L 957.51875 744.96 
L 973.51875 744.96 
" style="fill: none; stroke-dasharray: 5.55,2.4; stroke-dashoffset: 0; stroke: #4682b4; stroke-width: 1.5"/>
    </g>
    <g id="text_26">
     <!-- 20 K -->
     <g transform="translate(986.31875 750.56) scale(0.16 -0.16)">
      <use xlink:href="#DejaVuSans-32"/>
      <use xlink:href="#DejaVuSans-30" x="63.623047"/>
      <use xlink:href="#DejaVuSans-20" x="127.246094"/>
      <use xlink:href="#DejaVuSans-4b" x="159.033203"/>
     </g>
    </g>
    <g id="line2d_44">
     <path d="M 1054.25625 744.96 
L 1070.25625 744.96 
L 1086.25625 744.96 
" style="fill: none; stroke-dasharray: 5.55,2.4; stroke-dashoffset: 0; stroke: #8a2be2; stroke-width: 1.5"/>
    </g>
    <g id="text_27">
     <!-- 25 K -->
     <g transform="translate(1099.05625 750.56) scale(0.16 -0.16)">
      <use xlink:href="#DejaVuSans-32"/>
      <use xlink:href="#DejaVuSans-35" x="63.623047"/>
      <use xlink:href="#DejaVuSans-20" x="127.246094"/>
      <use xlink:href="#DejaVuSans-4b" x="159.033203"/>
     </g>
    </g>
   </g>
  </g>
 </g>
 <defs>
  <clipPath id="p2fad72cf48">
   <rect x="180" y="103.68" width="1116" height="665.28"/>
  </clipPath>
 </defs>
</svg>
