<?xml version="1.0" encoding="utf-8" standalone="no"?>
<!DOCTYPE svg PUBLIC "-//W3C//DTD SVG 1.1//EN"
  "http://www.w3.org/Graphics/SVG/1.1/DTD/svg11.dtd">
<svg xmlns:xlink="http://www.w3.org/1999/xlink" width="1440pt" height="864pt" viewBox="0 0 1440 864" xmlns="http://www.w3.org/2000/svg" version="1.1">
 <metadata>
  <rdf:RDF xmlns:dc="http://purl.org/dc/elements/1.1/" xmlns:cc="http://creativecommons.org/ns#" xmlns:rdf="http://www.w3.org/1999/02/22-rdf-syntax-ns#">
   <cc:Work>
    <dc:type rdf:resource="http://purl.org/dc/dcmitype/StillImage"/>
    <dc:date>2023-08-03T13:27:00.531217</dc:date>
    <dc:format>image/svg+xml</dc:format>
    <dc:creator>
     <cc:Agent>
      <dc:title>Matplotlib v3.6.1, https://matplotlib.org/</dc:title>
     </cc:Agent>
    </dc:creator>
   </cc:Work>
  </rdf:RDF>
 </metadata>
 <defs>
  <style type="text/css">*{stroke-linejoin: round; stroke-linecap: butt}</style>
 </defs>
 <g id="figure_1">
  <g id="patch_1">
   <path d="M 0 864 
L 1440 864 
L 1440 0 
L 0 0 
z
" style="fill: #ffffff"/>
  </g>
  <g id="axes_1">
   <g id="patch_2">
    <path d="M 180 768.96 
L 1296 768.96 
L 1296 103.68 
L 180 103.68 
z
" style="fill: #ffffff"/>
   </g>
   <g id="matplotlib.axis_1">
    <g id="xtick_1">
     <g id="line2d_1">
      <path d="M 310.714538 768.96 
L 310.714538 103.68 
" clip-path="url(#p36a800db9a)" style="fill: none; stroke: #b0b0b0; stroke-width: 0.8; stroke-linecap: square"/>
     </g>
     <g id="line2d_2">
      <defs>
       <path id="me7b194ffdf" d="M 0 0 
L 0 3.5 
" style="stroke: #000000; stroke-width: 0.8"/>
      </defs>
      <g>
       <use xlink:href="#me7b194ffdf" x="310.714538" y="768.96" style="stroke: #000000; stroke-width: 0.8"/>
      </g>
     </g>
     <g id="text_1">
      <!-- 32 -->
      <g transform="translate(297.989538 791.156875) scale(0.2 -0.2)">
       <defs>
        <path id="DejaVuSans-33" d="M 2597 2516 
Q 3050 2419 3304 2112 
Q 3559 1806 3559 1356 
Q 3559 666 3084 287 
Q 2609 -91 1734 -91 
Q 1441 -91 1130 -33 
Q 819 25 488 141 
L 488 750 
Q 750 597 1062 519 
Q 1375 441 1716 441 
Q 2309 441 2620 675 
Q 2931 909 2931 1356 
Q 2931 1769 2642 2001 
Q 2353 2234 1838 2234 
L 1294 2234 
L 1294 2753 
L 1863 2753 
Q 2328 2753 2575 2939 
Q 2822 3125 2822 3475 
Q 2822 3834 2567 4026 
Q 2313 4219 1838 4219 
Q 1578 4219 1281 4162 
Q 984 4106 628 3988 
L 628 4550 
Q 988 4650 1302 4700 
Q 1616 4750 1894 4750 
Q 2613 4750 3031 4423 
Q 3450 4097 3450 3541 
Q 3450 3153 3228 2886 
Q 3006 2619 2597 2516 
z
" transform="scale(0.015625)"/>
        <path id="DejaVuSans-32" d="M 1228 531 
L 3431 531 
L 3431 0 
L 469 0 
L 469 531 
Q 828 903 1448 1529 
Q 2069 2156 2228 2338 
Q 2531 2678 2651 2914 
Q 2772 3150 2772 3378 
Q 2772 3750 2511 3984 
Q 2250 4219 1831 4219 
Q 1534 4219 1204 4116 
Q 875 4013 500 3803 
L 500 4441 
Q 881 4594 1212 4672 
Q 1544 4750 1819 4750 
Q 2544 4750 2975 4387 
Q 3406 4025 3406 3419 
Q 3406 3131 3298 2873 
Q 3191 2616 2906 2266 
Q 2828 2175 2409 1742 
Q 1991 1309 1228 531 
z
" transform="scale(0.015625)"/>
       </defs>
       <use xlink:href="#DejaVuSans-33"/>
       <use xlink:href="#DejaVuSans-32" x="63.623047"/>
      </g>
     </g>
    </g>
    <g id="xtick_2">
     <g id="line2d_3">
      <path d="M 442.085933 768.96 
L 442.085933 103.68 
" clip-path="url(#p36a800db9a)" style="fill: none; stroke: #b0b0b0; stroke-width: 0.8; stroke-linecap: square"/>
     </g>
     <g id="line2d_4">
      <g>
       <use xlink:href="#me7b194ffdf" x="442.085933" y="768.96" style="stroke: #000000; stroke-width: 0.8"/>
      </g>
     </g>
     <g id="text_2">
      <!-- 34 -->
      <g transform="translate(429.360933 791.156875) scale(0.2 -0.2)">
       <defs>
        <path id="DejaVuSans-34" d="M 2419 4116 
L 825 1625 
L 2419 1625 
L 2419 4116 
z
M 2253 4666 
L 3047 4666 
L 3047 1625 
L 3713 1625 
L 3713 1100 
L 3047 1100 
L 3047 0 
L 2419 0 
L 2419 1100 
L 313 1100 
L 313 1709 
L 2253 4666 
z
" transform="scale(0.015625)"/>
       </defs>
       <use xlink:href="#DejaVuSans-33"/>
       <use xlink:href="#DejaVuSans-34" x="63.623047"/>
      </g>
     </g>
    </g>
    <g id="xtick_3">
     <g id="line2d_5">
      <path d="M 573.457328 768.96 
L 573.457328 103.68 
" clip-path="url(#p36a800db9a)" style="fill: none; stroke: #b0b0b0; stroke-width: 0.8; stroke-linecap: square"/>
     </g>
     <g id="line2d_6">
      <g>
       <use xlink:href="#me7b194ffdf" x="573.457328" y="768.96" style="stroke: #000000; stroke-width: 0.8"/>
      </g>
     </g>
     <g id="text_3">
      <!-- 36 -->
      <g transform="translate(560.732328 791.156875) scale(0.2 -0.2)">
       <defs>
        <path id="DejaVuSans-36" d="M 2113 2584 
Q 1688 2584 1439 2293 
Q 1191 2003 1191 1497 
Q 1191 994 1439 701 
Q 1688 409 2113 409 
Q 2538 409 2786 701 
Q 3034 994 3034 1497 
Q 3034 2003 2786 2293 
Q 2538 2584 2113 2584 
z
M 3366 4563 
L 3366 3988 
Q 3128 4100 2886 4159 
Q 2644 4219 2406 4219 
Q 1781 4219 1451 3797 
Q 1122 3375 1075 2522 
Q 1259 2794 1537 2939 
Q 1816 3084 2150 3084 
Q 2853 3084 3261 2657 
Q 3669 2231 3669 1497 
Q 3669 778 3244 343 
Q 2819 -91 2113 -91 
Q 1303 -91 875 529 
Q 447 1150 447 2328 
Q 447 3434 972 4092 
Q 1497 4750 2381 4750 
Q 2619 4750 2861 4703 
Q 3103 4656 3366 4563 
z
" transform="scale(0.015625)"/>
       </defs>
       <use xlink:href="#DejaVuSans-33"/>
       <use xlink:href="#DejaVuSans-36" x="63.623047"/>
      </g>
     </g>
    </g>
    <g id="xtick_4">
     <g id="line2d_7">
      <path d="M 704.828723 768.96 
L 704.828723 103.68 
" clip-path="url(#p36a800db9a)" style="fill: none; stroke: #b0b0b0; stroke-width: 0.8; stroke-linecap: square"/>
     </g>
     <g id="line2d_8">
      <g>
       <use xlink:href="#me7b194ffdf" x="704.828723" y="768.96" style="stroke: #000000; stroke-width: 0.8"/>
      </g>
     </g>
     <g id="text_4">
      <!-- 38 -->
      <g transform="translate(692.103723 791.156875) scale(0.2 -0.2)">
       <defs>
        <path id="DejaVuSans-38" d="M 2034 2216 
Q 1584 2216 1326 1975 
Q 1069 1734 1069 1313 
Q 1069 891 1326 650 
Q 1584 409 2034 409 
Q 2484 409 2743 651 
Q 3003 894 3003 1313 
Q 3003 1734 2745 1975 
Q 2488 2216 2034 2216 
z
M 1403 2484 
Q 997 2584 770 2862 
Q 544 3141 544 3541 
Q 544 4100 942 4425 
Q 1341 4750 2034 4750 
Q 2731 4750 3128 4425 
Q 3525 4100 3525 3541 
Q 3525 3141 3298 2862 
Q 3072 2584 2669 2484 
Q 3125 2378 3379 2068 
Q 3634 1759 3634 1313 
Q 3634 634 3220 271 
Q 2806 -91 2034 -91 
Q 1263 -91 848 271 
Q 434 634 434 1313 
Q 434 1759 690 2068 
Q 947 2378 1403 2484 
z
M 1172 3481 
Q 1172 3119 1398 2916 
Q 1625 2713 2034 2713 
Q 2441 2713 2670 2916 
Q 2900 3119 2900 3481 
Q 2900 3844 2670 4047 
Q 2441 4250 2034 4250 
Q 1625 4250 1398 4047 
Q 1172 3844 1172 3481 
z
" transform="scale(0.015625)"/>
       </defs>
       <use xlink:href="#DejaVuSans-33"/>
       <use xlink:href="#DejaVuSans-38" x="63.623047"/>
      </g>
     </g>
    </g>
    <g id="xtick_5">
     <g id="line2d_9">
      <path d="M 836.200118 768.96 
L 836.200118 103.68 
" clip-path="url(#p36a800db9a)" style="fill: none; stroke: #b0b0b0; stroke-width: 0.8; stroke-linecap: square"/>
     </g>
     <g id="line2d_10">
      <g>
       <use xlink:href="#me7b194ffdf" x="836.200118" y="768.96" style="stroke: #000000; stroke-width: 0.8"/>
      </g>
     </g>
     <g id="text_5">
      <!-- 40 -->
      <g transform="translate(823.475118 791.156875) scale(0.2 -0.2)">
       <defs>
        <path id="DejaVuSans-30" d="M 2034 4250 
Q 1547 4250 1301 3770 
Q 1056 3291 1056 2328 
Q 1056 1369 1301 889 
Q 1547 409 2034 409 
Q 2525 409 2770 889 
Q 3016 1369 3016 2328 
Q 3016 3291 2770 3770 
Q 2525 4250 2034 4250 
z
M 2034 4750 
Q 2819 4750 3233 4129 
Q 3647 3509 3647 2328 
Q 3647 1150 3233 529 
Q 2819 -91 2034 -91 
Q 1250 -91 836 529 
Q 422 1150 422 2328 
Q 422 3509 836 4129 
Q 1250 4750 2034 4750 
z
" transform="scale(0.015625)"/>
       </defs>
       <use xlink:href="#DejaVuSans-34"/>
       <use xlink:href="#DejaVuSans-30" x="63.623047"/>
      </g>
     </g>
    </g>
    <g id="xtick_6">
     <g id="line2d_11">
      <path d="M 967.571513 768.96 
L 967.571513 103.68 
" clip-path="url(#p36a800db9a)" style="fill: none; stroke: #b0b0b0; stroke-width: 0.8; stroke-linecap: square"/>
     </g>
     <g id="line2d_12">
      <g>
       <use xlink:href="#me7b194ffdf" x="967.571513" y="768.96" style="stroke: #000000; stroke-width: 0.8"/>
      </g>
     </g>
     <g id="text_6">
      <!-- 42 -->
      <g transform="translate(954.846513 791.156875) scale(0.2 -0.2)">
       <use xlink:href="#DejaVuSans-34"/>
       <use xlink:href="#DejaVuSans-32" x="63.623047"/>
      </g>
     </g>
    </g>
    <g id="xtick_7">
     <g id="line2d_13">
      <path d="M 1098.942908 768.96 
L 1098.942908 103.68 
" clip-path="url(#p36a800db9a)" style="fill: none; stroke: #b0b0b0; stroke-width: 0.8; stroke-linecap: square"/>
     </g>
     <g id="line2d_14">
      <g>
       <use xlink:href="#me7b194ffdf" x="1098.942908" y="768.96" style="stroke: #000000; stroke-width: 0.8"/>
      </g>
     </g>
     <g id="text_7">
      <!-- 44 -->
      <g transform="translate(1086.217908 791.156875) scale(0.2 -0.2)">
       <use xlink:href="#DejaVuSans-34"/>
       <use xlink:href="#DejaVuSans-34" x="63.623047"/>
      </g>
     </g>
    </g>
    <g id="xtick_8">
     <g id="line2d_15">
      <path d="M 1230.314303 768.96 
L 1230.314303 103.68 
" clip-path="url(#p36a800db9a)" style="fill: none; stroke: #b0b0b0; stroke-width: 0.8; stroke-linecap: square"/>
     </g>
     <g id="line2d_16">
      <g>
       <use xlink:href="#me7b194ffdf" x="1230.314303" y="768.96" style="stroke: #000000; stroke-width: 0.8"/>
      </g>
     </g>
     <g id="text_8">
      <!-- 46 -->
      <g transform="translate(1217.589303 791.156875) scale(0.2 -0.2)">
       <use xlink:href="#DejaVuSans-34"/>
       <use xlink:href="#DejaVuSans-36" x="63.623047"/>
      </g>
     </g>
    </g>
    <g id="text_9">
     <!-- Gaskühlerdruck [bar] -->
     <g transform="translate(632.239063 814.513125) scale(0.2 -0.2)">
      <defs>
       <path id="DejaVuSans-47" d="M 3809 666 
L 3809 1919 
L 2778 1919 
L 2778 2438 
L 4434 2438 
L 4434 434 
Q 4069 175 3628 42 
Q 3188 -91 2688 -91 
Q 1594 -91 976 548 
Q 359 1188 359 2328 
Q 359 3472 976 4111 
Q 1594 4750 2688 4750 
Q 3144 4750 3555 4637 
Q 3966 4525 4313 4306 
L 4313 3634 
Q 3963 3931 3569 4081 
Q 3175 4231 2741 4231 
Q 1884 4231 1454 3753 
Q 1025 3275 1025 2328 
Q 1025 1384 1454 906 
Q 1884 428 2741 428 
Q 3075 428 3337 486 
Q 3600 544 3809 666 
z
" transform="scale(0.015625)"/>
       <path id="DejaVuSans-61" d="M 2194 1759 
Q 1497 1759 1228 1600 
Q 959 1441 959 1056 
Q 959 750 1161 570 
Q 1363 391 1709 391 
Q 2188 391 2477 730 
Q 2766 1069 2766 1631 
L 2766 1759 
L 2194 1759 
z
M 3341 1997 
L 3341 0 
L 2766 0 
L 2766 531 
Q 2569 213 2275 61 
Q 1981 -91 1556 -91 
Q 1019 -91 701 211 
Q 384 513 384 1019 
Q 384 1609 779 1909 
Q 1175 2209 1959 2209 
L 2766 2209 
L 2766 2266 
Q 2766 2663 2505 2880 
Q 2244 3097 1772 3097 
Q 1472 3097 1187 3025 
Q 903 2953 641 2809 
L 641 3341 
Q 956 3463 1253 3523 
Q 1550 3584 1831 3584 
Q 2591 3584 2966 3190 
Q 3341 2797 3341 1997 
z
" transform="scale(0.015625)"/>
       <path id="DejaVuSans-73" d="M 2834 3397 
L 2834 2853 
Q 2591 2978 2328 3040 
Q 2066 3103 1784 3103 
Q 1356 3103 1142 2972 
Q 928 2841 928 2578 
Q 928 2378 1081 2264 
Q 1234 2150 1697 2047 
L 1894 2003 
Q 2506 1872 2764 1633 
Q 3022 1394 3022 966 
Q 3022 478 2636 193 
Q 2250 -91 1575 -91 
Q 1294 -91 989 -36 
Q 684 19 347 128 
L 347 722 
Q 666 556 975 473 
Q 1284 391 1588 391 
Q 1994 391 2212 530 
Q 2431 669 2431 922 
Q 2431 1156 2273 1281 
Q 2116 1406 1581 1522 
L 1381 1569 
Q 847 1681 609 1914 
Q 372 2147 372 2553 
Q 372 3047 722 3315 
Q 1072 3584 1716 3584 
Q 2034 3584 2315 3537 
Q 2597 3491 2834 3397 
z
" transform="scale(0.015625)"/>
       <path id="DejaVuSans-6b" d="M 581 4863 
L 1159 4863 
L 1159 1991 
L 2875 3500 
L 3609 3500 
L 1753 1863 
L 3688 0 
L 2938 0 
L 1159 1709 
L 1159 0 
L 581 0 
L 581 4863 
z
" transform="scale(0.015625)"/>
       <path id="DejaVuSans-fc" d="M 544 1381 
L 544 3500 
L 1119 3500 
L 1119 1403 
Q 1119 906 1312 657 
Q 1506 409 1894 409 
Q 2359 409 2629 706 
Q 2900 1003 2900 1516 
L 2900 3500 
L 3475 3500 
L 3475 0 
L 2900 0 
L 2900 538 
Q 2691 219 2414 64 
Q 2138 -91 1772 -91 
Q 1169 -91 856 284 
Q 544 659 544 1381 
z
M 1991 3584 
L 1991 3584 
z
M 2278 4850 
L 2912 4850 
L 2912 4219 
L 2278 4219 
L 2278 4850 
z
M 1056 4850 
L 1690 4850 
L 1690 4219 
L 1056 4219 
L 1056 4850 
z
" transform="scale(0.015625)"/>
       <path id="DejaVuSans-68" d="M 3513 2113 
L 3513 0 
L 2938 0 
L 2938 2094 
Q 2938 2591 2744 2837 
Q 2550 3084 2163 3084 
Q 1697 3084 1428 2787 
Q 1159 2491 1159 1978 
L 1159 0 
L 581 0 
L 581 4863 
L 1159 4863 
L 1159 2956 
Q 1366 3272 1645 3428 
Q 1925 3584 2291 3584 
Q 2894 3584 3203 3211 
Q 3513 2838 3513 2113 
z
" transform="scale(0.015625)"/>
       <path id="DejaVuSans-6c" d="M 603 4863 
L 1178 4863 
L 1178 0 
L 603 0 
L 603 4863 
z
" transform="scale(0.015625)"/>
       <path id="DejaVuSans-65" d="M 3597 1894 
L 3597 1613 
L 953 1613 
Q 991 1019 1311 708 
Q 1631 397 2203 397 
Q 2534 397 2845 478 
Q 3156 559 3463 722 
L 3463 178 
Q 3153 47 2828 -22 
Q 2503 -91 2169 -91 
Q 1331 -91 842 396 
Q 353 884 353 1716 
Q 353 2575 817 3079 
Q 1281 3584 2069 3584 
Q 2775 3584 3186 3129 
Q 3597 2675 3597 1894 
z
M 3022 2063 
Q 3016 2534 2758 2815 
Q 2500 3097 2075 3097 
Q 1594 3097 1305 2825 
Q 1016 2553 972 2059 
L 3022 2063 
z
" transform="scale(0.015625)"/>
       <path id="DejaVuSans-72" d="M 2631 2963 
Q 2534 3019 2420 3045 
Q 2306 3072 2169 3072 
Q 1681 3072 1420 2755 
Q 1159 2438 1159 1844 
L 1159 0 
L 581 0 
L 581 3500 
L 1159 3500 
L 1159 2956 
Q 1341 3275 1631 3429 
Q 1922 3584 2338 3584 
Q 2397 3584 2469 3576 
Q 2541 3569 2628 3553 
L 2631 2963 
z
" transform="scale(0.015625)"/>
       <path id="DejaVuSans-64" d="M 2906 2969 
L 2906 4863 
L 3481 4863 
L 3481 0 
L 2906 0 
L 2906 525 
Q 2725 213 2448 61 
Q 2172 -91 1784 -91 
Q 1150 -91 751 415 
Q 353 922 353 1747 
Q 353 2572 751 3078 
Q 1150 3584 1784 3584 
Q 2172 3584 2448 3432 
Q 2725 3281 2906 2969 
z
M 947 1747 
Q 947 1113 1208 752 
Q 1469 391 1925 391 
Q 2381 391 2643 752 
Q 2906 1113 2906 1747 
Q 2906 2381 2643 2742 
Q 2381 3103 1925 3103 
Q 1469 3103 1208 2742 
Q 947 2381 947 1747 
z
" transform="scale(0.015625)"/>
       <path id="DejaVuSans-75" d="M 544 1381 
L 544 3500 
L 1119 3500 
L 1119 1403 
Q 1119 906 1312 657 
Q 1506 409 1894 409 
Q 2359 409 2629 706 
Q 2900 1003 2900 1516 
L 2900 3500 
L 3475 3500 
L 3475 0 
L 2900 0 
L 2900 538 
Q 2691 219 2414 64 
Q 2138 -91 1772 -91 
Q 1169 -91 856 284 
Q 544 659 544 1381 
z
M 1991 3584 
L 1991 3584 
z
" transform="scale(0.015625)"/>
       <path id="DejaVuSans-63" d="M 3122 3366 
L 3122 2828 
Q 2878 2963 2633 3030 
Q 2388 3097 2138 3097 
Q 1578 3097 1268 2742 
Q 959 2388 959 1747 
Q 959 1106 1268 751 
Q 1578 397 2138 397 
Q 2388 397 2633 464 
Q 2878 531 3122 666 
L 3122 134 
Q 2881 22 2623 -34 
Q 2366 -91 2075 -91 
Q 1284 -91 818 406 
Q 353 903 353 1747 
Q 353 2603 823 3093 
Q 1294 3584 2113 3584 
Q 2378 3584 2631 3529 
Q 2884 3475 3122 3366 
z
" transform="scale(0.015625)"/>
       <path id="DejaVuSans-20" transform="scale(0.015625)"/>
       <path id="DejaVuSans-5b" d="M 550 4863 
L 1875 4863 
L 1875 4416 
L 1125 4416 
L 1125 -397 
L 1875 -397 
L 1875 -844 
L 550 -844 
L 550 4863 
z
" transform="scale(0.015625)"/>
       <path id="DejaVuSans-62" d="M 3116 1747 
Q 3116 2381 2855 2742 
Q 2594 3103 2138 3103 
Q 1681 3103 1420 2742 
Q 1159 2381 1159 1747 
Q 1159 1113 1420 752 
Q 1681 391 2138 391 
Q 2594 391 2855 752 
Q 3116 1113 3116 1747 
z
M 1159 2969 
Q 1341 3281 1617 3432 
Q 1894 3584 2278 3584 
Q 2916 3584 3314 3078 
Q 3713 2572 3713 1747 
Q 3713 922 3314 415 
Q 2916 -91 2278 -91 
Q 1894 -91 1617 61 
Q 1341 213 1159 525 
L 1159 0 
L 581 0 
L 581 4863 
L 1159 4863 
L 1159 2969 
z
" transform="scale(0.015625)"/>
       <path id="DejaVuSans-5d" d="M 1947 4863 
L 1947 -844 
L 622 -844 
L 622 -397 
L 1369 -397 
L 1369 4416 
L 622 4416 
L 622 4863 
L 1947 4863 
z
" transform="scale(0.015625)"/>
      </defs>
      <use xlink:href="#DejaVuSans-47"/>
      <use xlink:href="#DejaVuSans-61" x="77.490234"/>
      <use xlink:href="#DejaVuSans-73" x="138.769531"/>
      <use xlink:href="#DejaVuSans-6b" x="190.869141"/>
      <use xlink:href="#DejaVuSans-fc" x="245.654297"/>
      <use xlink:href="#DejaVuSans-68" x="309.033203"/>
      <use xlink:href="#DejaVuSans-6c" x="372.412109"/>
      <use xlink:href="#DejaVuSans-65" x="400.195312"/>
      <use xlink:href="#DejaVuSans-72" x="461.71875"/>
      <use xlink:href="#DejaVuSans-64" x="501.082031"/>
      <use xlink:href="#DejaVuSans-72" x="564.558594"/>
      <use xlink:href="#DejaVuSans-75" x="605.671875"/>
      <use xlink:href="#DejaVuSans-63" x="669.050781"/>
      <use xlink:href="#DejaVuSans-6b" x="724.03125"/>
      <use xlink:href="#DejaVuSans-20" x="781.941406"/>
      <use xlink:href="#DejaVuSans-5b" x="813.728516"/>
      <use xlink:href="#DejaVuSans-62" x="852.742188"/>
      <use xlink:href="#DejaVuSans-61" x="916.21875"/>
      <use xlink:href="#DejaVuSans-72" x="977.498047"/>
      <use xlink:href="#DejaVuSans-5d" x="1018.611328"/>
     </g>
    </g>
   </g>
   <g id="matplotlib.axis_2">
    <g id="ytick_1">
     <g id="line2d_17">
      <path d="M 180 768.96 
L 1296 768.96 
" clip-path="url(#p36a800db9a)" style="fill: none; stroke: #b0b0b0; stroke-width: 0.8; stroke-linecap: square"/>
     </g>
     <g id="line2d_18">
      <defs>
       <path id="m2e0c9fe707" d="M 0 0 
L -3.5 0 
" style="stroke: #000000; stroke-width: 0.8"/>
      </defs>
      <g>
       <use xlink:href="#m2e0c9fe707" x="180" y="768.96" style="stroke: #000000; stroke-width: 0.8"/>
      </g>
     </g>
     <g id="text_10">
      <!-- 69 -->
      <g transform="translate(147.55 776.558438) scale(0.2 -0.2)">
       <defs>
        <path id="DejaVuSans-39" d="M 703 97 
L 703 672 
Q 941 559 1184 500 
Q 1428 441 1663 441 
Q 2288 441 2617 861 
Q 2947 1281 2994 2138 
Q 2813 1869 2534 1725 
Q 2256 1581 1919 1581 
Q 1219 1581 811 2004 
Q 403 2428 403 3163 
Q 403 3881 828 4315 
Q 1253 4750 1959 4750 
Q 2769 4750 3195 4129 
Q 3622 3509 3622 2328 
Q 3622 1225 3098 567 
Q 2575 -91 1691 -91 
Q 1453 -91 1209 -44 
Q 966 3 703 97 
z
M 1959 2075 
Q 2384 2075 2632 2365 
Q 2881 2656 2881 3163 
Q 2881 3666 2632 3958 
Q 2384 4250 1959 4250 
Q 1534 4250 1286 3958 
Q 1038 3666 1038 3163 
Q 1038 2656 1286 2365 
Q 1534 2075 1959 2075 
z
" transform="scale(0.015625)"/>
       </defs>
       <use xlink:href="#DejaVuSans-36"/>
       <use xlink:href="#DejaVuSans-39" x="63.623047"/>
      </g>
     </g>
    </g>
    <g id="ytick_2">
     <g id="line2d_19">
      <path d="M 180 658.08 
L 1296 658.08 
" clip-path="url(#p36a800db9a)" style="fill: none; stroke: #b0b0b0; stroke-width: 0.8; stroke-linecap: square"/>
     </g>
     <g id="line2d_20">
      <g>
       <use xlink:href="#m2e0c9fe707" x="180" y="658.08" style="stroke: #000000; stroke-width: 0.8"/>
      </g>
     </g>
     <g id="text_11">
      <!-- 70 -->
      <g transform="translate(147.55 665.678438) scale(0.2 -0.2)">
       <defs>
        <path id="DejaVuSans-37" d="M 525 4666 
L 3525 4666 
L 3525 4397 
L 1831 0 
L 1172 0 
L 2766 4134 
L 525 4134 
L 525 4666 
z
" transform="scale(0.015625)"/>
       </defs>
       <use xlink:href="#DejaVuSans-37"/>
       <use xlink:href="#DejaVuSans-30" x="63.623047"/>
      </g>
     </g>
    </g>
    <g id="ytick_3">
     <g id="line2d_21">
      <path d="M 180 547.2 
L 1296 547.2 
" clip-path="url(#p36a800db9a)" style="fill: none; stroke: #b0b0b0; stroke-width: 0.8; stroke-linecap: square"/>
     </g>
     <g id="line2d_22">
      <g>
       <use xlink:href="#m2e0c9fe707" x="180" y="547.2" style="stroke: #000000; stroke-width: 0.8"/>
      </g>
     </g>
     <g id="text_12">
      <!-- 71 -->
      <g transform="translate(147.55 554.798438) scale(0.2 -0.2)">
       <defs>
        <path id="DejaVuSans-31" d="M 794 531 
L 1825 531 
L 1825 4091 
L 703 3866 
L 703 4441 
L 1819 4666 
L 2450 4666 
L 2450 531 
L 3481 531 
L 3481 0 
L 794 0 
L 794 531 
z
" transform="scale(0.015625)"/>
       </defs>
       <use xlink:href="#DejaVuSans-37"/>
       <use xlink:href="#DejaVuSans-31" x="63.623047"/>
      </g>
     </g>
    </g>
    <g id="ytick_4">
     <g id="line2d_23">
      <path d="M 180 436.32 
L 1296 436.32 
" clip-path="url(#p36a800db9a)" style="fill: none; stroke: #b0b0b0; stroke-width: 0.8; stroke-linecap: square"/>
     </g>
     <g id="line2d_24">
      <g>
       <use xlink:href="#m2e0c9fe707" x="180" y="436.32" style="stroke: #000000; stroke-width: 0.8"/>
      </g>
     </g>
     <g id="text_13">
      <!-- 72 -->
      <g transform="translate(147.55 443.918438) scale(0.2 -0.2)">
       <use xlink:href="#DejaVuSans-37"/>
       <use xlink:href="#DejaVuSans-32" x="63.623047"/>
      </g>
     </g>
    </g>
    <g id="ytick_5">
     <g id="line2d_25">
      <path d="M 180 325.44 
L 1296 325.44 
" clip-path="url(#p36a800db9a)" style="fill: none; stroke: #b0b0b0; stroke-width: 0.8; stroke-linecap: square"/>
     </g>
     <g id="line2d_26">
      <g>
       <use xlink:href="#m2e0c9fe707" x="180" y="325.44" style="stroke: #000000; stroke-width: 0.8"/>
      </g>
     </g>
     <g id="text_14">
      <!-- 73 -->
      <g transform="translate(147.55 333.038438) scale(0.2 -0.2)">
       <use xlink:href="#DejaVuSans-37"/>
       <use xlink:href="#DejaVuSans-33" x="63.623047"/>
      </g>
     </g>
    </g>
    <g id="ytick_6">
     <g id="line2d_27">
      <path d="M 180 214.56 
L 1296 214.56 
" clip-path="url(#p36a800db9a)" style="fill: none; stroke: #b0b0b0; stroke-width: 0.8; stroke-linecap: square"/>
     </g>
     <g id="line2d_28">
      <g>
       <use xlink:href="#m2e0c9fe707" x="180" y="214.56" style="stroke: #000000; stroke-width: 0.8"/>
      </g>
     </g>
     <g id="text_15">
      <!-- 74 -->
      <g transform="translate(147.55 222.158438) scale(0.2 -0.2)">
       <use xlink:href="#DejaVuSans-37"/>
       <use xlink:href="#DejaVuSans-34" x="63.623047"/>
      </g>
     </g>
    </g>
    <g id="ytick_7">
     <g id="line2d_29">
      <path d="M 180 103.68 
L 1296 103.68 
" clip-path="url(#p36a800db9a)" style="fill: none; stroke: #b0b0b0; stroke-width: 0.8; stroke-linecap: square"/>
     </g>
     <g id="line2d_30">
      <g>
       <use xlink:href="#m2e0c9fe707" x="180" y="103.68" style="stroke: #000000; stroke-width: 0.8"/>
      </g>
     </g>
     <g id="text_16">
      <!-- 75 -->
      <g transform="translate(147.55 111.278438) scale(0.2 -0.2)">
       <defs>
        <path id="DejaVuSans-35" d="M 691 4666 
L 3169 4666 
L 3169 4134 
L 1269 4134 
L 1269 2991 
Q 1406 3038 1543 3061 
Q 1681 3084 1819 3084 
Q 2600 3084 3056 2656 
Q 3513 2228 3513 1497 
Q 3513 744 3044 326 
Q 2575 -91 1722 -91 
Q 1428 -91 1123 -41 
Q 819 9 494 109 
L 494 744 
Q 775 591 1075 516 
Q 1375 441 1709 441 
Q 2250 441 2565 725 
Q 2881 1009 2881 1497 
Q 2881 1984 2565 2268 
Q 2250 2553 1709 2553 
Q 1456 2553 1204 2497 
Q 953 2441 691 2322 
L 691 4666 
z
" transform="scale(0.015625)"/>
       </defs>
       <use xlink:href="#DejaVuSans-37"/>
       <use xlink:href="#DejaVuSans-35" x="63.623047"/>
      </g>
     </g>
    </g>
    <g id="text_17">
     <!-- exergetischer Wirkungsgrad [%] -->
     <g transform="translate(139.390625 597.362187) rotate(-90) scale(0.2 -0.2)">
      <defs>
       <path id="DejaVuSans-78" d="M 3513 3500 
L 2247 1797 
L 3578 0 
L 2900 0 
L 1881 1375 
L 863 0 
L 184 0 
L 1544 1831 
L 300 3500 
L 978 3500 
L 1906 2253 
L 2834 3500 
L 3513 3500 
z
" transform="scale(0.015625)"/>
       <path id="DejaVuSans-67" d="M 2906 1791 
Q 2906 2416 2648 2759 
Q 2391 3103 1925 3103 
Q 1463 3103 1205 2759 
Q 947 2416 947 1791 
Q 947 1169 1205 825 
Q 1463 481 1925 481 
Q 2391 481 2648 825 
Q 2906 1169 2906 1791 
z
M 3481 434 
Q 3481 -459 3084 -895 
Q 2688 -1331 1869 -1331 
Q 1566 -1331 1297 -1286 
Q 1028 -1241 775 -1147 
L 775 -588 
Q 1028 -725 1275 -790 
Q 1522 -856 1778 -856 
Q 2344 -856 2625 -561 
Q 2906 -266 2906 331 
L 2906 616 
Q 2728 306 2450 153 
Q 2172 0 1784 0 
Q 1141 0 747 490 
Q 353 981 353 1791 
Q 353 2603 747 3093 
Q 1141 3584 1784 3584 
Q 2172 3584 2450 3431 
Q 2728 3278 2906 2969 
L 2906 3500 
L 3481 3500 
L 3481 434 
z
" transform="scale(0.015625)"/>
       <path id="DejaVuSans-74" d="M 1172 4494 
L 1172 3500 
L 2356 3500 
L 2356 3053 
L 1172 3053 
L 1172 1153 
Q 1172 725 1289 603 
Q 1406 481 1766 481 
L 2356 481 
L 2356 0 
L 1766 0 
Q 1100 0 847 248 
Q 594 497 594 1153 
L 594 3053 
L 172 3053 
L 172 3500 
L 594 3500 
L 594 4494 
L 1172 4494 
z
" transform="scale(0.015625)"/>
       <path id="DejaVuSans-69" d="M 603 3500 
L 1178 3500 
L 1178 0 
L 603 0 
L 603 3500 
z
M 603 4863 
L 1178 4863 
L 1178 4134 
L 603 4134 
L 603 4863 
z
" transform="scale(0.015625)"/>
       <path id="DejaVuSans-57" d="M 213 4666 
L 850 4666 
L 1831 722 
L 2809 4666 
L 3519 4666 
L 4500 722 
L 5478 4666 
L 6119 4666 
L 4947 0 
L 4153 0 
L 3169 4050 
L 2175 0 
L 1381 0 
L 213 4666 
z
" transform="scale(0.015625)"/>
       <path id="DejaVuSans-6e" d="M 3513 2113 
L 3513 0 
L 2938 0 
L 2938 2094 
Q 2938 2591 2744 2837 
Q 2550 3084 2163 3084 
Q 1697 3084 1428 2787 
Q 1159 2491 1159 1978 
L 1159 0 
L 581 0 
L 581 3500 
L 1159 3500 
L 1159 2956 
Q 1366 3272 1645 3428 
Q 1925 3584 2291 3584 
Q 2894 3584 3203 3211 
Q 3513 2838 3513 2113 
z
" transform="scale(0.015625)"/>
       <path id="DejaVuSans-25" d="M 4653 2053 
Q 4381 2053 4226 1822 
Q 4072 1591 4072 1178 
Q 4072 772 4226 539 
Q 4381 306 4653 306 
Q 4919 306 5073 539 
Q 5228 772 5228 1178 
Q 5228 1588 5073 1820 
Q 4919 2053 4653 2053 
z
M 4653 2450 
Q 5147 2450 5437 2106 
Q 5728 1763 5728 1178 
Q 5728 594 5436 251 
Q 5144 -91 4653 -91 
Q 4153 -91 3862 251 
Q 3572 594 3572 1178 
Q 3572 1766 3864 2108 
Q 4156 2450 4653 2450 
z
M 1428 4353 
Q 1159 4353 1004 4120 
Q 850 3888 850 3481 
Q 850 3069 1003 2837 
Q 1156 2606 1428 2606 
Q 1700 2606 1854 2837 
Q 2009 3069 2009 3481 
Q 2009 3884 1853 4118 
Q 1697 4353 1428 4353 
z
M 4250 4750 
L 4750 4750 
L 1831 -91 
L 1331 -91 
L 4250 4750 
z
M 1428 4750 
Q 1922 4750 2215 4408 
Q 2509 4066 2509 3481 
Q 2509 2891 2217 2550 
Q 1925 2209 1428 2209 
Q 931 2209 642 2551 
Q 353 2894 353 3481 
Q 353 4063 643 4406 
Q 934 4750 1428 4750 
z
" transform="scale(0.015625)"/>
      </defs>
      <use xlink:href="#DejaVuSans-65"/>
      <use xlink:href="#DejaVuSans-78" x="59.773438"/>
      <use xlink:href="#DejaVuSans-65" x="115.828125"/>
      <use xlink:href="#DejaVuSans-72" x="177.351562"/>
      <use xlink:href="#DejaVuSans-67" x="216.714844"/>
      <use xlink:href="#DejaVuSans-65" x="280.191406"/>
      <use xlink:href="#DejaVuSans-74" x="341.714844"/>
      <use xlink:href="#DejaVuSans-69" x="380.923828"/>
      <use xlink:href="#DejaVuSans-73" x="408.707031"/>
      <use xlink:href="#DejaVuSans-63" x="460.806641"/>
      <use xlink:href="#DejaVuSans-68" x="515.787109"/>
      <use xlink:href="#DejaVuSans-65" x="579.166016"/>
      <use xlink:href="#DejaVuSans-72" x="640.689453"/>
      <use xlink:href="#DejaVuSans-20" x="681.802734"/>
      <use xlink:href="#DejaVuSans-57" x="713.589844"/>
      <use xlink:href="#DejaVuSans-69" x="810.216797"/>
      <use xlink:href="#DejaVuSans-72" x="838"/>
      <use xlink:href="#DejaVuSans-6b" x="879.113281"/>
      <use xlink:href="#DejaVuSans-75" x="933.898438"/>
      <use xlink:href="#DejaVuSans-6e" x="997.277344"/>
      <use xlink:href="#DejaVuSans-67" x="1060.65625"/>
      <use xlink:href="#DejaVuSans-73" x="1124.132812"/>
      <use xlink:href="#DejaVuSans-67" x="1176.232422"/>
      <use xlink:href="#DejaVuSans-72" x="1239.708984"/>
      <use xlink:href="#DejaVuSans-61" x="1280.822266"/>
      <use xlink:href="#DejaVuSans-64" x="1342.101562"/>
      <use xlink:href="#DejaVuSans-20" x="1405.578125"/>
      <use xlink:href="#DejaVuSans-5b" x="1437.365234"/>
      <use xlink:href="#DejaVuSans-25" x="1476.378906"/>
      <use xlink:href="#DejaVuSans-5d" x="1571.398438"/>
     </g>
    </g>
   </g>
   <g id="line2d_31">
    <path d="M 196.848023 279.48889 
L 212.515519 288.451616 
L 228.32037 297.809361 
L 244.503101 307.477667 
L 260.922059 317.389144 
L 277.564775 327.489626 
L 294.58229 337.735164 
L 311.650696 348.089488 
L 329.091519 358.522981 
L 346.73805 369.010931 
L 364.585814 379.532784 
L 382.821838 390.071189 
L 401.067935 400.611967 
L 419.708411 411.142829 
L 438.551223 421.653818 
L 457.595468 432.136448 
L 476.840806 442.583672 
L 496.28741 452.989674 
L 516.162144 463.349594 
L 536.018478 473.659536 
L 556.314973 483.916486 
L 576.586818 494.117794 
L 597.312316 504.261789 
L 618.008542 514.347041 
L 639.173308 524.372631 
L 660.564751 534.338165 
L 682.186496 544.243503 
L 703.774066 554.088731 
L 725.863969 563.874388 
L 748.197063 573.601212 
L 770.778326 583.270143 
L 793.32525 592.882271 
L 816.414177 602.438881 
L 839.768159 611.941528 
L 863.0903 621.391832 
L 886.988494 630.791384 
L 911.171705 640.142218 
L 935.327683 649.446151 
L 960.097876 658.705359 
L 984.844899 667.921804 
L 1009.896482 677.097827 
L 1035.261057 686.23566 
L 1060.947429 695.337604 
L 1086.964794 704.406027 
L 1113.322746 713.443345 
L 1140.031298 722.452045 
L 1166.721054 731.434657 
L 1194.154737 740.393538 
L 1221.575332 749.331393 
L 1227.174982 751.116644 
" clip-path="url(#p36a800db9a)" style="fill: none; stroke: #000000; stroke-width: 1.5; stroke-linecap: square"/>
   </g>
   <g id="line2d_32">
    <path d="M 206.461601 154.044034 
L 224.128492 167.594089 
L 241.923691 180.969335 
L 259.848781 194.1739 
L 277.905475 207.21188 
L 296.09562 220.087343 
L 314.421192 232.804321 
L 332.884302 245.366808 
L 351.487196 257.778762 
L 370.232256 270.044097 
L 389.122004 282.166688 
L 408.1591 294.150366 
L 427.346347 305.998919 
L 446.686694 317.716092 
L 466.183237 329.305585 
L 489.096466 340.766019 
L 513.292015 352.083206 
L 537.693946 363.261251 
L 562.308048 374.305934 
L 587.140805 385.223182 
L 611.658672 396.018744 
L 635.867037 406.698354 
L 660.85749 417.267671 
L 685.006659 427.73211 
L 709.954937 438.09707 
L 734.617224 448.367821 
L 759.548476 458.549451 
L 784.20077 468.646944 
L 809.134254 478.665143 
L 834.358982 488.608715 
L 859.885518 498.482338 
L 885.147741 508.290474 
L 910.722867 518.037515 
L 936.03156 527.727754 
L 962.259676 537.365229 
L 988.230156 546.954106 
L 1013.930905 556.498337 
L 1040.593736 566.001646 
L 1066.992635 575.467903 
L 1093.753631 584.900714 
L 1120.23465 594.303617 
L 1147.746031 603.680005 
L 1174.979414 613.033211 
L 1201.909781 622.366359 
L 1229.213814 631.682679 
" clip-path="url(#p36a800db9a)" style="fill: none; stroke: #000000; stroke-width: 1.5; stroke-linecap: square"/>
   </g>
   <g id="line2d_33">
    <path d="M 383.474062 136.080011 
L 402.249103 147.462283 
L 421.175941 158.722839 
L 440.259215 169.866065 
L 459.503743 180.896276 
L 478.914526 191.817718 
L 498.496757 202.634572 
L 518.255824 213.350956 
L 538.197315 223.970928 
L 558.327026 234.498489 
L 578.650965 244.937587 
L 599.175362 255.292118 
L 619.906678 265.565932 
L 640.851609 275.762833 
L 662.017097 285.886586 
L 683.410343 295.940919 
L 705.038814 305.929524 
L 726.910255 315.856064 
L 749.032704 325.724178 
L 771.414503 335.537479 
L 794.064313 345.299564 
L 816.991133 355.014016 
L 840.204308 364.684406 
L 863.713557 374.314299 
L 887.528983 383.907259 
L 911.661098 393.466852 
L 936.120843 402.996651 
L 960.919605 412.500238 
L 986.069246 421.98121 
L 1011.582122 431.443184 
L 1037.471107 440.889799 
L 1063.749622 450.324718 
L 1090.431654 459.751635 
L 1117.531783 469.174276 
L 1145.065212 478.596404 
L 1173.047784 488.021815 
L 1201.496012 497.454348 
L 1230.427104 506.89788 
" clip-path="url(#p36a800db9a)" style="fill: none; stroke: #000000; stroke-width: 1.5; stroke-linecap: square"/>
   </g>
   <g id="line2d_34">
    <path d="M 567.389801 112.573437 
L 587.487123 122.042161 
L 607.846315 131.474067 
L 628.477157 140.872997 
L 649.389829 150.2428 
L 670.594945 159.587344 
L 692.10358 168.910524 
L 713.927296 178.216268 
L 736.078178 187.508545 
L 758.568868 196.791374 
L 781.412599 206.068831 
L 804.623234 215.345057 
L 828.215305 224.624267 
L 852.204054 233.910756 
L 876.605474 243.208903 
L 901.436351 252.523182 
L 926.714307 261.858165 
L 952.457844 271.218526 
L 978.686381 280.609047 
L 1005.420302 290.034616 
L 1032.680988 299.500234 
L 1060.490859 309.011012 
L 1088.873406 318.572169 
L 1117.85322 328.189033 
L 1147.455988 337.867021 
L 1177.708656 347.611682 
L 1208.639226 357.428619 
L 1233.935597 365.342883 
" clip-path="url(#p36a800db9a)" style="fill: none; stroke: #000000; stroke-width: 1.5; stroke-linecap: square"/>
   </g>
   <g id="line2d_35">
    <path d="M 346.752062 369.010923 
L 348.152917 360.606391 
L 349.815073 352.865868 
L 351.224868 345.702816 
L 352.610197 339.044752 
L 353.960125 332.830698 
L 355.265085 327.008977 
L 356.171811 321.535258 
L 357.345135 316.371703 
L 358.070971 311.485347 
L 358.687618 306.847538 
L 359.188948 302.432954 
L 359.569129 298.219273 
L 359.822551 294.186692 
L 359.47299 290.316988 
L 358.456918 286.593667 
L 357.218528 283.001245 
L 355.217582 279.524732 
L 354.081704 276.150309 
L 362.026971 272.974338 
L 370.274099 270.045432 
L 378.242346 267.315906 
L 387.033101 264.80696 
L 395.732151 262.459079 
L 404.278776 260.242054 
L 413.614148 258.204933 
L 422.569133 256.247145 
L 431.707743 254.395312 
L 441.018969 252.636308 
L 450.492195 250.957793 
L 460.117193 249.348179 
L 469.884116 247.796596 
L 479.180105 246.231485 
L 489.201905 244.764967 
L 498.826287 243.274676 
L 509.070018 241.858661 
L 518.80661 240.39229 
L 528.63539 238.932111 
L 538.550326 237.471927 
L 548.545727 236.006004 
L 558.616259 234.529069 
L 568.756966 233.036302 
L 578.358902 231.459582 
L 588.62814 229.922601 
L 598.352986 228.294846 
L 608.736742 226.699568 
L 618.572938 225.008177 
L 628.462076 223.281392 
L 638.402736 221.517145 
L 648.393985 219.713745 
L 658.677 217.895071 
L 668.535482 215.985522 
L 678.44578 214.033919 
L 688.409227 212.039925 
L 698.427803 210.003599 
L 708.760962 207.953407 
L 718.641833 205.806274 
L 728.588107 203.618519 
L 738.604605 201.391561 
L 748.697042 199.12726 
L 758.872103 196.827977 
" clip-path="url(#p36a800db9a)" style="fill: none; stroke-dasharray: 5.55,2.4; stroke-dashoffset: 0; stroke: #ff0000; stroke-width: 1.5"/>
   </g>
   <g id="line2d_36">
    <path d="M 536.040661 473.659535 
L 538.887963 467.28655 
L 541.719852 461.238181 
L 544.531293 455.483734 
L 547.651821 449.996281 
L 550.424038 444.752094 
L 553.16366 439.730292 
L 555.867423 434.912328 
L 558.532367 430.281709 
L 561.155791 425.823741 
L 563.735225 421.525284 
L 566.268395 417.374571 
L 568.753202 413.361038 
L 571.1877 409.475182 
L 573.570074 405.708427 
L 575.898627 402.053038 
L 578.683979 398.502014 
L 580.915635 395.048998 
L 583.089075 391.688265 
L 585.202941 388.41459 
L 586.681019 385.223196 
L 587.268282 384.594369 
L 587.868883 383.968677 
L 588.016869 383.346012 
L 588.614448 382.726389 
L 588.75436 382.109737 
L 589.348887 381.496061 
L 589.48067 380.885298 
L 590.072116 380.277452 
L 590.195715 379.672458 
L 590.784051 379.070326 
L 590.899412 378.470985 
L 591.48461 377.87446 
L 591.591678 377.28066 
L 592.173711 376.689636 
L 594.20089 376.102848 
L 595.754834 375.519752 
L 597.798928 374.942297 
L 599.851736 374.369691 
L 601.913166 373.801836 
L 603.706814 373.236493 
L 613.329171 370.473947 
L 623.777904 367.816329 
L 633.774805 365.233889 
L 643.944474 362.725776 
L 654.27956 360.283391 
L 664.121822 357.877897 
L 674.764924 355.54154 
L 685.582297 353.249585 
L 695.901575 350.969851 
L 706.35287 348.718666 
L 716.93236 346.490821 
L 728.304672 344.310444 
L 739.132603 342.116307 
L 749.408426 339.901552 
L 760.471541 337.723399 
L 771.650806 335.548872 
L 782.268948 333.341852 
L 793.677577 331.165874 
L 804.521966 328.951374 
L 816.162111 326.766394 
L 827.237513 324.538107 
L 838.430725 322.301022 
L 849.745005 320.054651 
L 861.184417 317.798925 
L 872.753898 315.534218 
L 884.459337 313.261362 
L 896.008456 310.961445 
L 907.445465 308.636296 
L 919.711778 306.353645 
L 931.468067 304.019212 
L 943.397128 301.68289 
L 955.511043 299.347867 
L 967.823409 297.017924 
L 980.349498 294.697491 
L 993.106416 292.391672 
L 1005.384014 290.030888 
" clip-path="url(#p36a800db9a)" style="fill: none; stroke-dasharray: 5.55,2.4; stroke-dashoffset: 0; stroke: #ffa500; stroke-width: 1.5"/>
   </g>
   <g id="line2d_37">
    <path d="M 748.238668 573.601227 
L 752.306102 568.075199 
L 756.358491 562.742291 
L 760.393937 557.588524 
L 764.803302 552.601228 
L 768.813972 547.768906 
L 772.803124 543.081364 
L 777.203847 538.529183 
L 781.160545 534.103682 
L 785.554568 529.797296 
L 789.475083 525.602676 
L 793.85925 521.513494 
L 798.244442 517.523774 
L 802.112769 513.627973 
L 806.484997 509.821059 
L 810.857167 506.098433 
L 815.787997 502.455707 
L 820.173489 498.888971 
L 824.558661 495.394577 
L 829.543568 491.968844 
L 834.555613 488.6087 
L 839.595068 485.31102 
L 844.662281 482.072893 
L 850.410002 478.891589 
L 855.547351 475.764292 
L 861.392009 472.688568 
L 867.292256 469.661868 
L 873.950761 466.681745 
L 879.976693 463.745665 
L 881.668168 463.163536 
L 882.725979 462.583045 
L 884.426229 462.004209 
L 885.488819 461.426945 
L 887.197867 460.851314 
L 888.265267 460.277208 
L 889.983135 459.704697 
L 891.055376 459.133679 
L 892.782091 458.564202 
L 893.859205 457.996207 
L 895.594793 457.429681 
L 896.676814 456.864642 
L 898.421303 456.300985 
L 900.171048 455.738795 
L 901.261684 455.177968 
L 903.686328 454.618722 
L 906.118616 454.061433 
L 908.558542 453.50607 
L 911.006099 452.952602 
L 913.002569 452.399615 
L 925.544018 449.668024 
L 937.51716 446.972995 
L 949.674489 444.313973 
L 962.017638 441.688476 
L 973.772091 439.081216 
L 986.463554 436.514196 
L 999.301835 433.974551 
L 1011.549695 431.442375 
L 1024.787093 428.954672 
L 1037.433928 426.469194 
L 1050.287435 424.00612 
L 1064.174444 421.596475 
L 1077.476076 419.183588 
L 1091.013784 416.796733 
L 1104.799925 414.438085 
L 1118.848393 412.110385 
L 1132.308111 409.768466 
L 1146.917875 407.50862 
L 1161.841436 405.291301 
L 1176.194228 403.058721 
L 1191.797208 400.937228 
L 1206.846454 398.801177 
L 1222.273279 396.719925 
L 1238.105424 394.70042 
" clip-path="url(#p36a800db9a)" style="fill: none; stroke-dasharray: 5.55,2.4; stroke-dashoffset: 0; stroke: #008000; stroke-width: 1.5"/>
   </g>
   <g id="line2d_38">
    <path d="M 984.835645 667.921803 
L 990.04865 662.844966 
L 995.251489 657.898242 
L 1000.443671 653.074249 
L 1005.624792 648.366216 
L 1010.794532 643.767907 
L 1015.952649 639.273589 
L 1021.098971 634.87798 
L 1026.888883 630.576037 
L 1032.030153 626.363321 
L 1037.159639 622.235729 
L 1042.988756 618.189332 
L 1048.114155 614.220334 
L 1053.228339 610.3257 
L 1059.099866 606.50192 
L 1064.998936 602.746454 
L 1070.120706 599.056235 
L 1076.058425 595.428897 
L 1082.026093 591.862052 
L 1088.02469 588.353403 
L 1094.05526 584.900801 
L 1100.118919 581.50223 
L 1106.216848 578.1558 
L 1112.350296 574.859735 
L 1118.52058 571.612368 
L 1124.729086 568.412131 
L 1131.978099 565.257257 
L 1138.287997 562.146528 
L 1145.681614 559.07832 
L 1153.160412 556.051498 
L 1159.646794 553.064631 
L 1161.254131 552.471914 
L 1162.868859 551.880749 
L 1164.487882 551.291129 
L 1166.111225 550.703041 
L 1167.738911 550.116477 
L 1168.751252 549.531416 
L 1170.3855 548.94782 
L 1172.024159 548.36572 
L 1173.667253 547.785105 
L 1175.314809 547.205966 
L 1176.966851 546.628295 
L 1177.989983 546.052052 
L 1179.648844 545.477245 
L 1182.587602 544.904356 
L 1186.254829 544.335428 
L 1200.011923 541.519242 
L 1214.047292 538.758663 
L 1229.549545 536.069552 
" clip-path="url(#p36a800db9a)" style="fill: none; stroke-dasharray: 5.55,2.4; stroke-dashoffset: 0; stroke: #4682b4; stroke-width: 1.5"/>
   </g>
   <g id="line2d_39">
    <path d="M 346.752062 369.010923 
" clip-path="url(#p36a800db9a)" style="fill: none; stroke: #000000; stroke-width: 1.5; stroke-linecap: square"/>
    <defs>
     <path id="mbd1138cfd6" d="M -3 3 
L 3 -3 
M -3 -3 
L 3 3 
" style="stroke: #000000"/>
    </defs>
    <g clip-path="url(#p36a800db9a)">
     <use xlink:href="#mbd1138cfd6" x="346.752062" y="369.010923" style="stroke: #000000"/>
    </g>
   </g>
   <g id="line2d_40">
    <path d="M 370.274099 270.045432 
" clip-path="url(#p36a800db9a)" style="fill: none; stroke: #000000; stroke-width: 1.5; stroke-linecap: square"/>
    <g clip-path="url(#p36a800db9a)">
     <use xlink:href="#mbd1138cfd6" x="370.274099" y="270.045432" style="stroke: #000000"/>
    </g>
   </g>
   <g id="line2d_41">
    <path d="M 558.616259 234.529069 
" clip-path="url(#p36a800db9a)" style="fill: none; stroke: #000000; stroke-width: 1.5; stroke-linecap: square"/>
    <g clip-path="url(#p36a800db9a)">
     <use xlink:href="#mbd1138cfd6" x="558.616259" y="234.529069" style="stroke: #000000"/>
    </g>
   </g>
   <g id="line2d_42">
    <path d="M 758.872103 196.827977 
" clip-path="url(#p36a800db9a)" style="fill: none; stroke: #000000; stroke-width: 1.5; stroke-linecap: square"/>
    <g clip-path="url(#p36a800db9a)">
     <use xlink:href="#mbd1138cfd6" x="758.872103" y="196.827977" style="stroke: #000000"/>
    </g>
   </g>
   <g id="line2d_43">
    <path d="M 536.040661 473.659535 
" clip-path="url(#p36a800db9a)" style="fill: none; stroke: #000000; stroke-width: 1.5; stroke-linecap: square"/>
    <g clip-path="url(#p36a800db9a)">
     <use xlink:href="#mbd1138cfd6" x="536.040661" y="473.659535" style="stroke: #000000"/>
    </g>
   </g>
   <g id="line2d_44">
    <path d="M 586.681019 385.223196 
" clip-path="url(#p36a800db9a)" style="fill: none; stroke: #000000; stroke-width: 1.5; stroke-linecap: square"/>
    <g clip-path="url(#p36a800db9a)">
     <use xlink:href="#mbd1138cfd6" x="586.681019" y="385.223196" style="stroke: #000000"/>
    </g>
   </g>
   <g id="line2d_45">
    <path d="M 771.650806 335.548872 
" clip-path="url(#p36a800db9a)" style="fill: none; stroke: #000000; stroke-width: 1.5; stroke-linecap: square"/>
    <g clip-path="url(#p36a800db9a)">
     <use xlink:href="#mbd1138cfd6" x="771.650806" y="335.548872" style="stroke: #000000"/>
    </g>
   </g>
   <g id="line2d_46">
    <path d="M 1005.384014 290.030888 
" clip-path="url(#p36a800db9a)" style="fill: none; stroke: #000000; stroke-width: 1.5; stroke-linecap: square"/>
    <g clip-path="url(#p36a800db9a)">
     <use xlink:href="#mbd1138cfd6" x="1005.384014" y="290.030888" style="stroke: #000000"/>
    </g>
   </g>
   <g id="line2d_47">
    <path d="M 748.238668 573.601227 
" clip-path="url(#p36a800db9a)" style="fill: none; stroke: #000000; stroke-width: 1.5; stroke-linecap: square"/>
    <g clip-path="url(#p36a800db9a)">
     <use xlink:href="#mbd1138cfd6" x="748.238668" y="573.601227" style="stroke: #000000"/>
    </g>
   </g>
   <g id="line2d_48">
    <path d="M 834.555613 488.6087 
" clip-path="url(#p36a800db9a)" style="fill: none; stroke: #000000; stroke-width: 1.5; stroke-linecap: square"/>
    <g clip-path="url(#p36a800db9a)">
     <use xlink:href="#mbd1138cfd6" x="834.555613" y="488.6087" style="stroke: #000000"/>
    </g>
   </g>
   <g id="line2d_49">
    <path d="M 1011.549695 431.442375 
" clip-path="url(#p36a800db9a)" style="fill: none; stroke: #000000; stroke-width: 1.5; stroke-linecap: square"/>
    <g clip-path="url(#p36a800db9a)">
     <use xlink:href="#mbd1138cfd6" x="1011.549695" y="431.442375" style="stroke: #000000"/>
    </g>
   </g>
   <g id="line2d_50">
    <path d="M 984.835645 667.921803 
" clip-path="url(#p36a800db9a)" style="fill: none; stroke: #000000; stroke-width: 1.5; stroke-linecap: square"/>
    <g clip-path="url(#p36a800db9a)">
     <use xlink:href="#mbd1138cfd6" x="984.835645" y="667.921803" style="stroke: #000000"/>
    </g>
   </g>
   <g id="line2d_51">
    <path d="M 1094.05526 584.900801 
" clip-path="url(#p36a800db9a)" style="fill: none; stroke: #000000; stroke-width: 1.5; stroke-linecap: square"/>
    <g clip-path="url(#p36a800db9a)">
     <use xlink:href="#mbd1138cfd6" x="1094.05526" y="584.900801" style="stroke: #000000"/>
    </g>
   </g>
   <g id="patch_3">
    <path d="M 180 768.96 
L 180 103.68 
" style="fill: none; stroke: #000000; stroke-width: 0.8; stroke-linejoin: miter; stroke-linecap: square"/>
   </g>
   <g id="patch_4">
    <path d="M 1296 768.96 
L 1296 103.68 
" style="fill: none; stroke: #000000; stroke-width: 0.8; stroke-linejoin: miter; stroke-linecap: square"/>
   </g>
   <g id="patch_5">
    <path d="M 180 768.96 
L 1296 768.96 
" style="fill: none; stroke: #000000; stroke-width: 0.8; stroke-linejoin: miter; stroke-linecap: square"/>
   </g>
   <g id="patch_6">
    <path d="M 180 103.68 
L 1296 103.68 
" style="fill: none; stroke: #000000; stroke-width: 0.8; stroke-linejoin: miter; stroke-linecap: square"/>
   </g>
   <g id="text_18">
    <!-- 160 -->
    <g transform="translate(1233.598587 762.3072) scale(0.2 -0.2)">
     <use xlink:href="#DejaVuSans-31"/>
     <use xlink:href="#DejaVuSans-36" x="63.623047"/>
     <use xlink:href="#DejaVuSans-30" x="127.246094"/>
    </g>
   </g>
   <g id="text_19">
    <!-- 150 -->
    <g transform="translate(1233.598587 643.6656) scale(0.2 -0.2)">
     <use xlink:href="#DejaVuSans-31"/>
     <use xlink:href="#DejaVuSans-35" x="63.623047"/>
     <use xlink:href="#DejaVuSans-30" x="127.246094"/>
    </g>
   </g>
   <g id="text_20">
    <!-- 140 -->
    <g transform="translate(1233.598587 518.3712) scale(0.2 -0.2)">
     <use xlink:href="#DejaVuSans-31"/>
     <use xlink:href="#DejaVuSans-34" x="63.623047"/>
     <use xlink:href="#DejaVuSans-30" x="127.246094"/>
    </g>
   </g>
   <g id="text_21">
    <!-- 130 -->
    <g transform="translate(1233.598587 376.4448) scale(0.2 -0.2)">
     <use xlink:href="#DejaVuSans-31"/>
     <use xlink:href="#DejaVuSans-33" x="63.623047"/>
     <use xlink:href="#DejaVuSans-30" x="127.246094"/>
    </g>
   </g>
   <g id="text_22">
    <!-- 160 -->
    <g transform="translate(332.301209 395.622123) scale(0.17 -0.17)">
     <use xlink:href="#DejaVuSans-31"/>
     <use xlink:href="#DejaVuSans-36" x="63.623047"/>
     <use xlink:href="#DejaVuSans-30" x="127.246094"/>
    </g>
   </g>
   <g id="text_23">
    <!-- 150 -->
    <g transform="translate(363.705529 305.527032) scale(0.17 -0.17)">
     <use xlink:href="#DejaVuSans-31"/>
     <use xlink:href="#DejaVuSans-35" x="63.623047"/>
     <use xlink:href="#DejaVuSans-30" x="127.246094"/>
    </g>
   </g>
   <g id="text_24">
    <!-- 140 -->
    <g transform="translate(546.135977 262.249069) scale(0.17 -0.17)">
     <use xlink:href="#DejaVuSans-31"/>
     <use xlink:href="#DejaVuSans-34" x="63.623047"/>
     <use xlink:href="#DejaVuSans-30" x="127.246094"/>
    </g>
   </g>
   <g id="text_25">
    <!-- 130 -->
    <g transform="translate(733.254681 224.547977) scale(0.17 -0.17)">
     <use xlink:href="#DejaVuSans-31"/>
     <use xlink:href="#DejaVuSans-33" x="63.623047"/>
     <use xlink:href="#DejaVuSans-30" x="127.246094"/>
    </g>
   </g>
   <g id="text_26">
    <!-- 160 -->
    <g transform="translate(516.334952 501.379535) scale(0.17 -0.17)">
     <use xlink:href="#DejaVuSans-31"/>
     <use xlink:href="#DejaVuSans-36" x="63.623047"/>
     <use xlink:href="#DejaVuSans-30" x="127.246094"/>
    </g>
   </g>
   <g id="text_27">
    <!-- 150 -->
    <g transform="translate(575.51445 418.487196) scale(0.17 -0.17)">
     <use xlink:href="#DejaVuSans-31"/>
     <use xlink:href="#DejaVuSans-35" x="63.623047"/>
     <use xlink:href="#DejaVuSans-30" x="127.246094"/>
    </g>
   </g>
   <g id="text_28">
    <!-- 140 -->
    <g transform="translate(758.513666 363.268872) scale(0.17 -0.17)">
     <use xlink:href="#DejaVuSans-31"/>
     <use xlink:href="#DejaVuSans-34" x="63.623047"/>
     <use xlink:href="#DejaVuSans-30" x="127.246094"/>
    </g>
   </g>
   <g id="text_29">
    <!-- 130 -->
    <g transform="translate(983.050876 317.750888) scale(0.17 -0.17)">
     <use xlink:href="#DejaVuSans-31"/>
     <use xlink:href="#DejaVuSans-33" x="63.623047"/>
     <use xlink:href="#DejaVuSans-30" x="127.246094"/>
    </g>
   </g>
   <g id="text_30">
    <!-- 160 -->
    <g transform="translate(728.532959 601.321227) scale(0.17 -0.17)">
     <use xlink:href="#DejaVuSans-31"/>
     <use xlink:href="#DejaVuSans-36" x="63.623047"/>
     <use xlink:href="#DejaVuSans-30" x="127.246094"/>
    </g>
   </g>
   <g id="text_31">
    <!-- 150 -->
    <g transform="translate(820.104759 517.4375) scale(0.17 -0.17)">
     <use xlink:href="#DejaVuSans-31"/>
     <use xlink:href="#DejaVuSans-35" x="63.623047"/>
     <use xlink:href="#DejaVuSans-30" x="127.246094"/>
    </g>
   </g>
   <g id="text_32">
    <!-- 140 -->
    <g transform="translate(991.843986 456.944775) scale(0.17 -0.17)">
     <use xlink:href="#DejaVuSans-31"/>
     <use xlink:href="#DejaVuSans-34" x="63.623047"/>
     <use xlink:href="#DejaVuSans-30" x="127.246094"/>
    </g>
   </g>
   <g id="text_33">
    <!-- 160 -->
    <g transform="translate(965.129936 695.641803) scale(0.17 -0.17)">
     <use xlink:href="#DejaVuSans-31"/>
     <use xlink:href="#DejaVuSans-36" x="63.623047"/>
     <use xlink:href="#DejaVuSans-30" x="127.246094"/>
    </g>
   </g>
   <g id="text_34">
    <!-- 150 -->
    <g transform="translate(1078.290693 615.947201) scale(0.17 -0.17)">
     <use xlink:href="#DejaVuSans-31"/>
     <use xlink:href="#DejaVuSans-35" x="63.623047"/>
     <use xlink:href="#DejaVuSans-30" x="127.246094"/>
    </g>
   </g>
   <g id="legend_1">
    <g id="patch_7">
     <path d="M 395.375 760.96 
L 1080.625 760.96 
Q 1083.825 760.96 1083.825 757.76 
L 1083.825 734.24 
Q 1083.825 731.04 1080.625 731.04 
L 395.375 731.04 
Q 392.175 731.04 392.175 734.24 
L 392.175 757.76 
Q 392.175 760.96 395.375 760.96 
z
" style="fill: #ffffff; opacity: 0.8; stroke: #cccccc; stroke-linejoin: miter"/>
    </g>
    <g id="line2d_52">
     <path d="M 398.575 744 
L 414.575 744 
L 430.575 744 
" style="fill: none; stroke: #000000; stroke-width: 1.5; stroke-linecap: square"/>
    </g>
    <g id="text_35">
     <!-- $T_{se,ein}$ [°C]          $ΔT_{gk,ob}$: -->
     <g transform="translate(443.375 749.6) scale(0.16 -0.16)">
      <defs>
       <path id="DejaVuSans-Oblique-54" d="M 378 4666 
L 4325 4666 
L 4225 4134 
L 2559 4134 
L 1759 0 
L 1125 0 
L 1925 4134 
L 275 4134 
L 378 4666 
z
" transform="scale(0.015625)"/>
       <path id="DejaVuSans-Oblique-73" d="M 3200 3397 
L 3091 2853 
Q 2863 2978 2609 3040 
Q 2356 3103 2088 3103 
Q 1634 3103 1373 2948 
Q 1113 2794 1113 2528 
Q 1113 2219 1719 2053 
Q 1766 2041 1788 2034 
L 1972 1978 
Q 2547 1819 2739 1644 
Q 2931 1469 2931 1166 
Q 2931 609 2489 259 
Q 2047 -91 1331 -91 
Q 1053 -91 747 -37 
Q 441 16 72 128 
L 184 722 
Q 500 559 806 475 
Q 1113 391 1394 391 
Q 1816 391 2080 572 
Q 2344 753 2344 1031 
Q 2344 1331 1650 1516 
L 1591 1531 
L 1394 1581 
Q 956 1697 753 1886 
Q 550 2075 550 2369 
Q 550 2928 970 3256 
Q 1391 3584 2113 3584 
Q 2397 3584 2667 3537 
Q 2938 3491 3200 3397 
z
" transform="scale(0.015625)"/>
       <path id="DejaVuSans-Oblique-65" d="M 3078 2063 
Q 3088 2113 3092 2166 
Q 3097 2219 3097 2272 
Q 3097 2653 2873 2875 
Q 2650 3097 2266 3097 
Q 1838 3097 1509 2826 
Q 1181 2556 1013 2059 
L 3078 2063 
z
M 3578 1613 
L 903 1613 
Q 884 1494 878 1425 
Q 872 1356 872 1306 
Q 872 872 1139 634 
Q 1406 397 1894 397 
Q 2269 397 2603 481 
Q 2938 566 3225 728 
L 3116 159 
Q 2806 34 2476 -28 
Q 2147 -91 1806 -91 
Q 1078 -91 686 257 
Q 294 606 294 1247 
Q 294 1794 489 2264 
Q 684 2734 1063 3103 
Q 1306 3334 1642 3459 
Q 1978 3584 2356 3584 
Q 2950 3584 3301 3228 
Q 3653 2872 3653 2272 
Q 3653 2128 3634 1964 
Q 3616 1800 3578 1613 
z
" transform="scale(0.015625)"/>
       <path id="DejaVuSans-2c" d="M 750 794 
L 1409 794 
L 1409 256 
L 897 -744 
L 494 -744 
L 750 256 
L 750 794 
z
" transform="scale(0.015625)"/>
       <path id="DejaVuSans-Oblique-69" d="M 1172 4863 
L 1747 4863 
L 1606 4134 
L 1031 4134 
L 1172 4863 
z
M 909 3500 
L 1484 3500 
L 800 0 
L 225 0 
L 909 3500 
z
" transform="scale(0.015625)"/>
       <path id="DejaVuSans-Oblique-6e" d="M 3566 2113 
L 3156 0 
L 2578 0 
L 2988 2091 
Q 3016 2238 3031 2350 
Q 3047 2463 3047 2528 
Q 3047 2791 2881 2937 
Q 2716 3084 2419 3084 
Q 1956 3084 1622 2776 
Q 1288 2469 1184 1941 
L 800 0 
L 225 0 
L 903 3500 
L 1478 3500 
L 1363 2950 
Q 1603 3253 1940 3418 
Q 2278 3584 2650 3584 
Q 3113 3584 3367 3334 
Q 3622 3084 3622 2631 
Q 3622 2519 3608 2391 
Q 3594 2263 3566 2113 
z
" transform="scale(0.015625)"/>
       <path id="DejaVuSans-b0" d="M 1600 4347 
Q 1350 4347 1178 4173 
Q 1006 4000 1006 3750 
Q 1006 3503 1178 3333 
Q 1350 3163 1600 3163 
Q 1850 3163 2022 3333 
Q 2194 3503 2194 3750 
Q 2194 3997 2020 4172 
Q 1847 4347 1600 4347 
z
M 1600 4750 
Q 1800 4750 1984 4673 
Q 2169 4597 2303 4453 
Q 2447 4313 2519 4134 
Q 2591 3956 2591 3750 
Q 2591 3338 2302 3052 
Q 2013 2766 1594 2766 
Q 1172 2766 890 3047 
Q 609 3328 609 3750 
Q 609 4169 896 4459 
Q 1184 4750 1600 4750 
z
" transform="scale(0.015625)"/>
       <path id="DejaVuSans-43" d="M 4122 4306 
L 4122 3641 
Q 3803 3938 3442 4084 
Q 3081 4231 2675 4231 
Q 1875 4231 1450 3742 
Q 1025 3253 1025 2328 
Q 1025 1406 1450 917 
Q 1875 428 2675 428 
Q 3081 428 3442 575 
Q 3803 722 4122 1019 
L 4122 359 
Q 3791 134 3420 21 
Q 3050 -91 2638 -91 
Q 1578 -91 968 557 
Q 359 1206 359 2328 
Q 359 3453 968 4101 
Q 1578 4750 2638 4750 
Q 3056 4750 3426 4639 
Q 3797 4528 4122 4306 
z
" transform="scale(0.015625)"/>
       <path id="DejaVuSans-394" d="M 2188 4044 
L 906 525 
L 3472 525 
L 2188 4044 
z
M 50 0 
L 1831 4666 
L 2547 4666 
L 4325 0 
L 50 0 
z
" transform="scale(0.015625)"/>
       <path id="DejaVuSans-Oblique-67" d="M 3816 3500 
L 3219 434 
Q 3047 -456 2561 -893 
Q 2075 -1331 1253 -1331 
Q 950 -1331 690 -1286 
Q 431 -1241 206 -1147 
L 313 -588 
Q 525 -725 762 -790 
Q 1000 -856 1269 -856 
Q 1816 -856 2167 -557 
Q 2519 -259 2631 300 
L 2681 563 
Q 2441 288 2122 144 
Q 1803 0 1434 0 
Q 903 0 598 351 
Q 294 703 294 1319 
Q 294 1803 478 2267 
Q 663 2731 997 3091 
Q 1219 3328 1514 3456 
Q 1809 3584 2131 3584 
Q 2484 3584 2746 3420 
Q 3009 3256 3138 2956 
L 3238 3500 
L 3816 3500 
z
M 2950 2216 
Q 2950 2641 2750 2872 
Q 2550 3103 2181 3103 
Q 1953 3103 1747 3012 
Q 1541 2922 1394 2759 
Q 1156 2491 1023 2127 
Q 891 1763 891 1375 
Q 891 944 1092 712 
Q 1294 481 1672 481 
Q 2219 481 2584 976 
Q 2950 1472 2950 2216 
z
" transform="scale(0.015625)"/>
       <path id="DejaVuSans-Oblique-6b" d="M 1172 4863 
L 1747 4863 
L 1197 2028 
L 3169 3500 
L 3916 3500 
L 1716 1825 
L 3322 0 
L 2625 0 
L 1131 1709 
L 800 0 
L 225 0 
L 1172 4863 
z
" transform="scale(0.015625)"/>
       <path id="DejaVuSans-Oblique-6f" d="M 1625 -91 
Q 1009 -91 651 289 
Q 294 669 294 1325 
Q 294 1706 417 2101 
Q 541 2497 738 2766 
Q 1047 3184 1428 3384 
Q 1809 3584 2291 3584 
Q 2888 3584 3255 3212 
Q 3622 2841 3622 2241 
Q 3622 1825 3500 1412 
Q 3378 1000 3181 728 
Q 2875 309 2494 109 
Q 2113 -91 1625 -91 
z
M 891 1344 
Q 891 869 1089 633 
Q 1288 397 1691 397 
Q 2269 397 2648 901 
Q 3028 1406 3028 2181 
Q 3028 2634 2825 2865 
Q 2622 3097 2228 3097 
Q 1903 3097 1650 2945 
Q 1397 2794 1197 2484 
Q 1050 2253 970 1956 
Q 891 1659 891 1344 
z
" transform="scale(0.015625)"/>
       <path id="DejaVuSans-Oblique-62" d="M 3169 2138 
Q 3169 2591 2961 2847 
Q 2753 3103 2388 3103 
Q 2122 3103 1889 2973 
Q 1656 2844 1484 2597 
Q 1303 2338 1198 1995 
Q 1094 1653 1094 1313 
Q 1094 881 1298 636 
Q 1503 391 1863 391 
Q 2134 391 2365 517 
Q 2597 644 2772 891 
Q 2950 1147 3059 1487 
Q 3169 1828 3169 2138 
z
M 1381 2969 
Q 1594 3256 1914 3420 
Q 2234 3584 2584 3584 
Q 3122 3584 3439 3221 
Q 3756 2859 3756 2241 
Q 3756 1734 3570 1259 
Q 3384 784 3041 416 
Q 2816 172 2522 40 
Q 2228 -91 1906 -91 
Q 1566 -91 1316 65 
Q 1066 222 909 531 
L 806 0 
L 231 0 
L 1178 4863 
L 1753 4863 
L 1381 2969 
z
" transform="scale(0.015625)"/>
       <path id="DejaVuSans-3a" d="M 750 794 
L 1409 794 
L 1409 0 
L 750 0 
L 750 794 
z
M 750 3309 
L 1409 3309 
L 1409 2516 
L 750 2516 
L 750 3309 
z
" transform="scale(0.015625)"/>
      </defs>
      <use xlink:href="#DejaVuSans-Oblique-54" transform="translate(0 0.015625)"/>
      <use xlink:href="#DejaVuSans-Oblique-73" transform="translate(61.083984 -16.390625) scale(0.7)"/>
      <use xlink:href="#DejaVuSans-Oblique-65" transform="translate(97.553711 -16.390625) scale(0.7)"/>
      <use xlink:href="#DejaVuSans-2c" transform="translate(140.620117 -16.390625) scale(0.7)"/>
      <use xlink:href="#DejaVuSans-Oblique-65" transform="translate(176.508789 -16.390625) scale(0.7)"/>
      <use xlink:href="#DejaVuSans-Oblique-69" transform="translate(219.575195 -16.390625) scale(0.7)"/>
      <use xlink:href="#DejaVuSans-Oblique-6e" transform="translate(239.023438 -16.390625) scale(0.7)"/>
      <use xlink:href="#DejaVuSans-20" transform="translate(286.123047 0.015625)"/>
      <use xlink:href="#DejaVuSans-5b" transform="translate(317.910156 0.015625)"/>
      <use xlink:href="#DejaVuSans-b0" transform="translate(356.923828 0.015625)"/>
      <use xlink:href="#DejaVuSans-43" transform="translate(406.923828 0.015625)"/>
      <use xlink:href="#DejaVuSans-5d" transform="translate(476.748047 0.015625)"/>
      <use xlink:href="#DejaVuSans-20" transform="translate(515.761719 0.015625)"/>
      <use xlink:href="#DejaVuSans-20" transform="translate(547.548828 0.015625)"/>
      <use xlink:href="#DejaVuSans-20" transform="translate(579.335938 0.015625)"/>
      <use xlink:href="#DejaVuSans-20" transform="translate(611.123047 0.015625)"/>
      <use xlink:href="#DejaVuSans-20" transform="translate(642.910156 0.015625)"/>
      <use xlink:href="#DejaVuSans-20" transform="translate(674.697266 0.015625)"/>
      <use xlink:href="#DejaVuSans-20" transform="translate(706.484375 0.015625)"/>
      <use xlink:href="#DejaVuSans-20" transform="translate(738.271484 0.015625)"/>
      <use xlink:href="#DejaVuSans-20" transform="translate(770.058594 0.015625)"/>
      <use xlink:href="#DejaVuSans-20" transform="translate(801.845703 0.015625)"/>
      <use xlink:href="#DejaVuSans-394" transform="translate(833.632812 0.015625)"/>
      <use xlink:href="#DejaVuSans-Oblique-54" transform="translate(902.041016 0.015625)"/>
      <use xlink:href="#DejaVuSans-Oblique-67" transform="translate(963.125 -16.390625) scale(0.7)"/>
      <use xlink:href="#DejaVuSans-Oblique-6b" transform="translate(1007.558594 -16.390625) scale(0.7)"/>
      <use xlink:href="#DejaVuSans-2c" transform="translate(1048.095703 -16.390625) scale(0.7)"/>
      <use xlink:href="#DejaVuSans-Oblique-6f" transform="translate(1083.984375 -16.390625) scale(0.7)"/>
      <use xlink:href="#DejaVuSans-Oblique-62" transform="translate(1126.811523 -16.390625) scale(0.7)"/>
      <use xlink:href="#DejaVuSans-3a" transform="translate(1173.979492 0.015625)"/>
     </g>
    </g>
    <g id="line2d_53">
     <path d="M 668.655 744 
L 684.655 744 
L 700.655 744 
" style="fill: none; stroke-dasharray: 5.55,2.4; stroke-dashoffset: 0; stroke: #ff0000; stroke-width: 1.5"/>
    </g>
    <g id="text_36">
     <!-- 5 K -->
     <g transform="translate(713.455 749.6) scale(0.16 -0.16)">
      <defs>
       <path id="DejaVuSans-4b" d="M 628 4666 
L 1259 4666 
L 1259 2694 
L 3353 4666 
L 4166 4666 
L 1850 2491 
L 4331 0 
L 3500 0 
L 1259 2247 
L 1259 0 
L 628 0 
L 628 4666 
z
" transform="scale(0.015625)"/>
      </defs>
      <use xlink:href="#DejaVuSans-35"/>
      <use xlink:href="#DejaVuSans-20" x="63.623047"/>
      <use xlink:href="#DejaVuSans-4b" x="95.410156"/>
     </g>
    </g>
    <g id="line2d_54">
     <path d="M 771.2125 744 
L 787.2125 744 
L 803.2125 744 
" style="fill: none; stroke-dasharray: 5.55,2.4; stroke-dashoffset: 0; stroke: #ffa500; stroke-width: 1.5"/>
    </g>
    <g id="text_37">
     <!-- 10 K -->
     <g transform="translate(816.0125 749.6) scale(0.16 -0.16)">
      <use xlink:href="#DejaVuSans-31"/>
      <use xlink:href="#DejaVuSans-30" x="63.623047"/>
      <use xlink:href="#DejaVuSans-20" x="127.246094"/>
      <use xlink:href="#DejaVuSans-4b" x="159.033203"/>
     </g>
    </g>
    <g id="line2d_55">
     <path d="M 883.95 744 
L 899.95 744 
L 915.95 744 
" style="fill: none; stroke-dasharray: 5.55,2.4; stroke-dashoffset: 0; stroke: #008000; stroke-width: 1.5"/>
    </g>
    <g id="text_38">
     <!-- 15 K -->
     <g transform="translate(928.75 749.6) scale(0.16 -0.16)">
      <use xlink:href="#DejaVuSans-31"/>
      <use xlink:href="#DejaVuSans-35" x="63.623047"/>
      <use xlink:href="#DejaVuSans-20" x="127.246094"/>
      <use xlink:href="#DejaVuSans-4b" x="159.033203"/>
     </g>
    </g>
    <g id="line2d_56">
     <path d="M 996.6875 744 
L 1012.6875 744 
L 1028.6875 744 
" style="fill: none; stroke-dasharray: 5.55,2.4; stroke-dashoffset: 0; stroke: #4682b4; stroke-width: 1.5"/>
    </g>
    <g id="text_39">
     <!-- 20 K -->
     <g transform="translate(1041.4875 749.6) scale(0.16 -0.16)">
      <use xlink:href="#DejaVuSans-32"/>
      <use xlink:href="#DejaVuSans-30" x="63.623047"/>
      <use xlink:href="#DejaVuSans-20" x="127.246094"/>
      <use xlink:href="#DejaVuSans-4b" x="159.033203"/>
     </g>
    </g>
   </g>
  </g>
 </g>
 <defs>
  <clipPath id="p36a800db9a">
   <rect x="180" y="103.68" width="1116" height="665.28"/>
  </clipPath>
 </defs>
</svg>
