<?xml version="1.0" encoding="utf-8" standalone="no"?>
<!DOCTYPE svg PUBLIC "-//W3C//DTD SVG 1.1//EN"
  "http://www.w3.org/Graphics/SVG/1.1/DTD/svg11.dtd">
<svg xmlns:xlink="http://www.w3.org/1999/xlink" width="1440pt" height="864pt" viewBox="0 0 1440 864" xmlns="http://www.w3.org/2000/svg" version="1.1">
 <metadata>
  <rdf:RDF xmlns:dc="http://purl.org/dc/elements/1.1/" xmlns:cc="http://creativecommons.org/ns#" xmlns:rdf="http://www.w3.org/1999/02/22-rdf-syntax-ns#">
   <cc:Work>
    <dc:type rdf:resource="http://purl.org/dc/dcmitype/StillImage"/>
    <dc:date>2023-07-29T11:11:09.782389</dc:date>
    <dc:format>image/svg+xml</dc:format>
    <dc:creator>
     <cc:Agent>
      <dc:title>Matplotlib v3.6.1, https://matplotlib.org/</dc:title>
     </cc:Agent>
    </dc:creator>
   </cc:Work>
  </rdf:RDF>
 </metadata>
 <defs>
  <style type="text/css">*{stroke-linejoin: round; stroke-linecap: butt}</style>
 </defs>
 <g id="figure_1">
  <g id="patch_1">
   <path d="M 0 864 
L 1440 864 
L 1440 0 
L 0 0 
z
" style="fill: #ffffff"/>
  </g>
  <g id="axes_1">
   <g id="patch_2">
    <path d="M 180 768.96 
L 1296 768.96 
L 1296 103.68 
L 180 103.68 
z
" style="fill: #ffffff"/>
   </g>
   <g id="matplotlib.axis_1">
    <g id="xtick_1">
     <g id="line2d_1">
      <path d="M 307.816695 768.96 
L 307.816695 103.68 
" clip-path="url(#p0273392564)" style="fill: none; stroke: #b0b0b0; stroke-width: 0.8; stroke-linecap: square"/>
     </g>
     <g id="line2d_2">
      <defs>
       <path id="m032a57e4c6" d="M 0 0 
L 0 3.5 
" style="stroke: #000000; stroke-width: 0.8"/>
      </defs>
      <g>
       <use xlink:href="#m032a57e4c6" x="307.816695" y="768.96" style="stroke: #000000; stroke-width: 0.8"/>
      </g>
     </g>
     <g id="text_1">
      <!-- 40 -->
      <g transform="translate(295.091695 791.156875) scale(0.2 -0.2)">
       <defs>
        <path id="DejaVuSans-34" d="M 2419 4116 
L 825 1625 
L 2419 1625 
L 2419 4116 
z
M 2253 4666 
L 3047 4666 
L 3047 1625 
L 3713 1625 
L 3713 1100 
L 3047 1100 
L 3047 0 
L 2419 0 
L 2419 1100 
L 313 1100 
L 313 1709 
L 2253 4666 
z
" transform="scale(0.015625)"/>
        <path id="DejaVuSans-30" d="M 2034 4250 
Q 1547 4250 1301 3770 
Q 1056 3291 1056 2328 
Q 1056 1369 1301 889 
Q 1547 409 2034 409 
Q 2525 409 2770 889 
Q 3016 1369 3016 2328 
Q 3016 3291 2770 3770 
Q 2525 4250 2034 4250 
z
M 2034 4750 
Q 2819 4750 3233 4129 
Q 3647 3509 3647 2328 
Q 3647 1150 3233 529 
Q 2819 -91 2034 -91 
Q 1250 -91 836 529 
Q 422 1150 422 2328 
Q 422 3509 836 4129 
Q 1250 4750 2034 4750 
z
" transform="scale(0.015625)"/>
       </defs>
       <use xlink:href="#DejaVuSans-34"/>
       <use xlink:href="#DejaVuSans-30" x="63.623047"/>
      </g>
     </g>
    </g>
    <g id="xtick_2">
     <g id="line2d_3">
      <path d="M 494.739252 768.96 
L 494.739252 103.68 
" clip-path="url(#p0273392564)" style="fill: none; stroke: #b0b0b0; stroke-width: 0.8; stroke-linecap: square"/>
     </g>
     <g id="line2d_4">
      <g>
       <use xlink:href="#m032a57e4c6" x="494.739252" y="768.96" style="stroke: #000000; stroke-width: 0.8"/>
      </g>
     </g>
     <g id="text_2">
      <!-- 45 -->
      <g transform="translate(482.014252 791.156875) scale(0.2 -0.2)">
       <defs>
        <path id="DejaVuSans-35" d="M 691 4666 
L 3169 4666 
L 3169 4134 
L 1269 4134 
L 1269 2991 
Q 1406 3038 1543 3061 
Q 1681 3084 1819 3084 
Q 2600 3084 3056 2656 
Q 3513 2228 3513 1497 
Q 3513 744 3044 326 
Q 2575 -91 1722 -91 
Q 1428 -91 1123 -41 
Q 819 9 494 109 
L 494 744 
Q 775 591 1075 516 
Q 1375 441 1709 441 
Q 2250 441 2565 725 
Q 2881 1009 2881 1497 
Q 2881 1984 2565 2268 
Q 2250 2553 1709 2553 
Q 1456 2553 1204 2497 
Q 953 2441 691 2322 
L 691 4666 
z
" transform="scale(0.015625)"/>
       </defs>
       <use xlink:href="#DejaVuSans-34"/>
       <use xlink:href="#DejaVuSans-35" x="63.623047"/>
      </g>
     </g>
    </g>
    <g id="xtick_3">
     <g id="line2d_5">
      <path d="M 681.661808 768.96 
L 681.661808 103.68 
" clip-path="url(#p0273392564)" style="fill: none; stroke: #b0b0b0; stroke-width: 0.8; stroke-linecap: square"/>
     </g>
     <g id="line2d_6">
      <g>
       <use xlink:href="#m032a57e4c6" x="681.661808" y="768.96" style="stroke: #000000; stroke-width: 0.8"/>
      </g>
     </g>
     <g id="text_3">
      <!-- 50 -->
      <g transform="translate(668.936808 791.156875) scale(0.2 -0.2)">
       <use xlink:href="#DejaVuSans-35"/>
       <use xlink:href="#DejaVuSans-30" x="63.623047"/>
      </g>
     </g>
    </g>
    <g id="xtick_4">
     <g id="line2d_7">
      <path d="M 868.584365 768.96 
L 868.584365 103.68 
" clip-path="url(#p0273392564)" style="fill: none; stroke: #b0b0b0; stroke-width: 0.8; stroke-linecap: square"/>
     </g>
     <g id="line2d_8">
      <g>
       <use xlink:href="#m032a57e4c6" x="868.584365" y="768.96" style="stroke: #000000; stroke-width: 0.8"/>
      </g>
     </g>
     <g id="text_4">
      <!-- 55 -->
      <g transform="translate(855.859365 791.156875) scale(0.2 -0.2)">
       <use xlink:href="#DejaVuSans-35"/>
       <use xlink:href="#DejaVuSans-35" x="63.623047"/>
      </g>
     </g>
    </g>
    <g id="xtick_5">
     <g id="line2d_9">
      <path d="M 1055.506922 768.96 
L 1055.506922 103.68 
" clip-path="url(#p0273392564)" style="fill: none; stroke: #b0b0b0; stroke-width: 0.8; stroke-linecap: square"/>
     </g>
     <g id="line2d_10">
      <g>
       <use xlink:href="#m032a57e4c6" x="1055.506922" y="768.96" style="stroke: #000000; stroke-width: 0.8"/>
      </g>
     </g>
     <g id="text_5">
      <!-- 60 -->
      <g transform="translate(1042.781922 791.156875) scale(0.2 -0.2)">
       <defs>
        <path id="DejaVuSans-36" d="M 2113 2584 
Q 1688 2584 1439 2293 
Q 1191 2003 1191 1497 
Q 1191 994 1439 701 
Q 1688 409 2113 409 
Q 2538 409 2786 701 
Q 3034 994 3034 1497 
Q 3034 2003 2786 2293 
Q 2538 2584 2113 2584 
z
M 3366 4563 
L 3366 3988 
Q 3128 4100 2886 4159 
Q 2644 4219 2406 4219 
Q 1781 4219 1451 3797 
Q 1122 3375 1075 2522 
Q 1259 2794 1537 2939 
Q 1816 3084 2150 3084 
Q 2853 3084 3261 2657 
Q 3669 2231 3669 1497 
Q 3669 778 3244 343 
Q 2819 -91 2113 -91 
Q 1303 -91 875 529 
Q 447 1150 447 2328 
Q 447 3434 972 4092 
Q 1497 4750 2381 4750 
Q 2619 4750 2861 4703 
Q 3103 4656 3366 4563 
z
" transform="scale(0.015625)"/>
       </defs>
       <use xlink:href="#DejaVuSans-36"/>
       <use xlink:href="#DejaVuSans-30" x="63.623047"/>
      </g>
     </g>
    </g>
    <g id="xtick_6">
     <g id="line2d_11">
      <path d="M 1242.429478 768.96 
L 1242.429478 103.68 
" clip-path="url(#p0273392564)" style="fill: none; stroke: #b0b0b0; stroke-width: 0.8; stroke-linecap: square"/>
     </g>
     <g id="line2d_12">
      <g>
       <use xlink:href="#m032a57e4c6" x="1242.429478" y="768.96" style="stroke: #000000; stroke-width: 0.8"/>
      </g>
     </g>
     <g id="text_6">
      <!-- 65 -->
      <g transform="translate(1229.704478 791.156875) scale(0.2 -0.2)">
       <use xlink:href="#DejaVuSans-36"/>
       <use xlink:href="#DejaVuSans-35" x="63.623047"/>
      </g>
     </g>
    </g>
    <g id="text_7">
     <!-- Gaskühlerdruck [bar] -->
     <g transform="translate(632.239063 814.513125) scale(0.2 -0.2)">
      <defs>
       <path id="DejaVuSans-47" d="M 3809 666 
L 3809 1919 
L 2778 1919 
L 2778 2438 
L 4434 2438 
L 4434 434 
Q 4069 175 3628 42 
Q 3188 -91 2688 -91 
Q 1594 -91 976 548 
Q 359 1188 359 2328 
Q 359 3472 976 4111 
Q 1594 4750 2688 4750 
Q 3144 4750 3555 4637 
Q 3966 4525 4313 4306 
L 4313 3634 
Q 3963 3931 3569 4081 
Q 3175 4231 2741 4231 
Q 1884 4231 1454 3753 
Q 1025 3275 1025 2328 
Q 1025 1384 1454 906 
Q 1884 428 2741 428 
Q 3075 428 3337 486 
Q 3600 544 3809 666 
z
" transform="scale(0.015625)"/>
       <path id="DejaVuSans-61" d="M 2194 1759 
Q 1497 1759 1228 1600 
Q 959 1441 959 1056 
Q 959 750 1161 570 
Q 1363 391 1709 391 
Q 2188 391 2477 730 
Q 2766 1069 2766 1631 
L 2766 1759 
L 2194 1759 
z
M 3341 1997 
L 3341 0 
L 2766 0 
L 2766 531 
Q 2569 213 2275 61 
Q 1981 -91 1556 -91 
Q 1019 -91 701 211 
Q 384 513 384 1019 
Q 384 1609 779 1909 
Q 1175 2209 1959 2209 
L 2766 2209 
L 2766 2266 
Q 2766 2663 2505 2880 
Q 2244 3097 1772 3097 
Q 1472 3097 1187 3025 
Q 903 2953 641 2809 
L 641 3341 
Q 956 3463 1253 3523 
Q 1550 3584 1831 3584 
Q 2591 3584 2966 3190 
Q 3341 2797 3341 1997 
z
" transform="scale(0.015625)"/>
       <path id="DejaVuSans-73" d="M 2834 3397 
L 2834 2853 
Q 2591 2978 2328 3040 
Q 2066 3103 1784 3103 
Q 1356 3103 1142 2972 
Q 928 2841 928 2578 
Q 928 2378 1081 2264 
Q 1234 2150 1697 2047 
L 1894 2003 
Q 2506 1872 2764 1633 
Q 3022 1394 3022 966 
Q 3022 478 2636 193 
Q 2250 -91 1575 -91 
Q 1294 -91 989 -36 
Q 684 19 347 128 
L 347 722 
Q 666 556 975 473 
Q 1284 391 1588 391 
Q 1994 391 2212 530 
Q 2431 669 2431 922 
Q 2431 1156 2273 1281 
Q 2116 1406 1581 1522 
L 1381 1569 
Q 847 1681 609 1914 
Q 372 2147 372 2553 
Q 372 3047 722 3315 
Q 1072 3584 1716 3584 
Q 2034 3584 2315 3537 
Q 2597 3491 2834 3397 
z
" transform="scale(0.015625)"/>
       <path id="DejaVuSans-6b" d="M 581 4863 
L 1159 4863 
L 1159 1991 
L 2875 3500 
L 3609 3500 
L 1753 1863 
L 3688 0 
L 2938 0 
L 1159 1709 
L 1159 0 
L 581 0 
L 581 4863 
z
" transform="scale(0.015625)"/>
       <path id="DejaVuSans-fc" d="M 544 1381 
L 544 3500 
L 1119 3500 
L 1119 1403 
Q 1119 906 1312 657 
Q 1506 409 1894 409 
Q 2359 409 2629 706 
Q 2900 1003 2900 1516 
L 2900 3500 
L 3475 3500 
L 3475 0 
L 2900 0 
L 2900 538 
Q 2691 219 2414 64 
Q 2138 -91 1772 -91 
Q 1169 -91 856 284 
Q 544 659 544 1381 
z
M 1991 3584 
L 1991 3584 
z
M 2278 4850 
L 2912 4850 
L 2912 4219 
L 2278 4219 
L 2278 4850 
z
M 1056 4850 
L 1690 4850 
L 1690 4219 
L 1056 4219 
L 1056 4850 
z
" transform="scale(0.015625)"/>
       <path id="DejaVuSans-68" d="M 3513 2113 
L 3513 0 
L 2938 0 
L 2938 2094 
Q 2938 2591 2744 2837 
Q 2550 3084 2163 3084 
Q 1697 3084 1428 2787 
Q 1159 2491 1159 1978 
L 1159 0 
L 581 0 
L 581 4863 
L 1159 4863 
L 1159 2956 
Q 1366 3272 1645 3428 
Q 1925 3584 2291 3584 
Q 2894 3584 3203 3211 
Q 3513 2838 3513 2113 
z
" transform="scale(0.015625)"/>
       <path id="DejaVuSans-6c" d="M 603 4863 
L 1178 4863 
L 1178 0 
L 603 0 
L 603 4863 
z
" transform="scale(0.015625)"/>
       <path id="DejaVuSans-65" d="M 3597 1894 
L 3597 1613 
L 953 1613 
Q 991 1019 1311 708 
Q 1631 397 2203 397 
Q 2534 397 2845 478 
Q 3156 559 3463 722 
L 3463 178 
Q 3153 47 2828 -22 
Q 2503 -91 2169 -91 
Q 1331 -91 842 396 
Q 353 884 353 1716 
Q 353 2575 817 3079 
Q 1281 3584 2069 3584 
Q 2775 3584 3186 3129 
Q 3597 2675 3597 1894 
z
M 3022 2063 
Q 3016 2534 2758 2815 
Q 2500 3097 2075 3097 
Q 1594 3097 1305 2825 
Q 1016 2553 972 2059 
L 3022 2063 
z
" transform="scale(0.015625)"/>
       <path id="DejaVuSans-72" d="M 2631 2963 
Q 2534 3019 2420 3045 
Q 2306 3072 2169 3072 
Q 1681 3072 1420 2755 
Q 1159 2438 1159 1844 
L 1159 0 
L 581 0 
L 581 3500 
L 1159 3500 
L 1159 2956 
Q 1341 3275 1631 3429 
Q 1922 3584 2338 3584 
Q 2397 3584 2469 3576 
Q 2541 3569 2628 3553 
L 2631 2963 
z
" transform="scale(0.015625)"/>
       <path id="DejaVuSans-64" d="M 2906 2969 
L 2906 4863 
L 3481 4863 
L 3481 0 
L 2906 0 
L 2906 525 
Q 2725 213 2448 61 
Q 2172 -91 1784 -91 
Q 1150 -91 751 415 
Q 353 922 353 1747 
Q 353 2572 751 3078 
Q 1150 3584 1784 3584 
Q 2172 3584 2448 3432 
Q 2725 3281 2906 2969 
z
M 947 1747 
Q 947 1113 1208 752 
Q 1469 391 1925 391 
Q 2381 391 2643 752 
Q 2906 1113 2906 1747 
Q 2906 2381 2643 2742 
Q 2381 3103 1925 3103 
Q 1469 3103 1208 2742 
Q 947 2381 947 1747 
z
" transform="scale(0.015625)"/>
       <path id="DejaVuSans-75" d="M 544 1381 
L 544 3500 
L 1119 3500 
L 1119 1403 
Q 1119 906 1312 657 
Q 1506 409 1894 409 
Q 2359 409 2629 706 
Q 2900 1003 2900 1516 
L 2900 3500 
L 3475 3500 
L 3475 0 
L 2900 0 
L 2900 538 
Q 2691 219 2414 64 
Q 2138 -91 1772 -91 
Q 1169 -91 856 284 
Q 544 659 544 1381 
z
M 1991 3584 
L 1991 3584 
z
" transform="scale(0.015625)"/>
       <path id="DejaVuSans-63" d="M 3122 3366 
L 3122 2828 
Q 2878 2963 2633 3030 
Q 2388 3097 2138 3097 
Q 1578 3097 1268 2742 
Q 959 2388 959 1747 
Q 959 1106 1268 751 
Q 1578 397 2138 397 
Q 2388 397 2633 464 
Q 2878 531 3122 666 
L 3122 134 
Q 2881 22 2623 -34 
Q 2366 -91 2075 -91 
Q 1284 -91 818 406 
Q 353 903 353 1747 
Q 353 2603 823 3093 
Q 1294 3584 2113 3584 
Q 2378 3584 2631 3529 
Q 2884 3475 3122 3366 
z
" transform="scale(0.015625)"/>
       <path id="DejaVuSans-20" transform="scale(0.015625)"/>
       <path id="DejaVuSans-5b" d="M 550 4863 
L 1875 4863 
L 1875 4416 
L 1125 4416 
L 1125 -397 
L 1875 -397 
L 1875 -844 
L 550 -844 
L 550 4863 
z
" transform="scale(0.015625)"/>
       <path id="DejaVuSans-62" d="M 3116 1747 
Q 3116 2381 2855 2742 
Q 2594 3103 2138 3103 
Q 1681 3103 1420 2742 
Q 1159 2381 1159 1747 
Q 1159 1113 1420 752 
Q 1681 391 2138 391 
Q 2594 391 2855 752 
Q 3116 1113 3116 1747 
z
M 1159 2969 
Q 1341 3281 1617 3432 
Q 1894 3584 2278 3584 
Q 2916 3584 3314 3078 
Q 3713 2572 3713 1747 
Q 3713 922 3314 415 
Q 2916 -91 2278 -91 
Q 1894 -91 1617 61 
Q 1341 213 1159 525 
L 1159 0 
L 581 0 
L 581 4863 
L 1159 4863 
L 1159 2969 
z
" transform="scale(0.015625)"/>
       <path id="DejaVuSans-5d" d="M 1947 4863 
L 1947 -844 
L 622 -844 
L 622 -397 
L 1369 -397 
L 1369 4416 
L 622 4416 
L 622 4863 
L 1947 4863 
z
" transform="scale(0.015625)"/>
      </defs>
      <use xlink:href="#DejaVuSans-47"/>
      <use xlink:href="#DejaVuSans-61" x="77.490234"/>
      <use xlink:href="#DejaVuSans-73" x="138.769531"/>
      <use xlink:href="#DejaVuSans-6b" x="190.869141"/>
      <use xlink:href="#DejaVuSans-fc" x="245.654297"/>
      <use xlink:href="#DejaVuSans-68" x="309.033203"/>
      <use xlink:href="#DejaVuSans-6c" x="372.412109"/>
      <use xlink:href="#DejaVuSans-65" x="400.195312"/>
      <use xlink:href="#DejaVuSans-72" x="461.71875"/>
      <use xlink:href="#DejaVuSans-64" x="501.082031"/>
      <use xlink:href="#DejaVuSans-72" x="564.558594"/>
      <use xlink:href="#DejaVuSans-75" x="605.671875"/>
      <use xlink:href="#DejaVuSans-63" x="669.050781"/>
      <use xlink:href="#DejaVuSans-6b" x="724.03125"/>
      <use xlink:href="#DejaVuSans-20" x="781.941406"/>
      <use xlink:href="#DejaVuSans-5b" x="813.728516"/>
      <use xlink:href="#DejaVuSans-62" x="852.742188"/>
      <use xlink:href="#DejaVuSans-61" x="916.21875"/>
      <use xlink:href="#DejaVuSans-72" x="977.498047"/>
      <use xlink:href="#DejaVuSans-5d" x="1018.611328"/>
     </g>
    </g>
   </g>
   <g id="matplotlib.axis_2">
    <g id="ytick_1">
     <g id="line2d_13">
      <path d="M 180 742.980206 
L 1296 742.980206 
" clip-path="url(#p0273392564)" style="fill: none; stroke: #b0b0b0; stroke-width: 0.8; stroke-linecap: square"/>
     </g>
     <g id="line2d_14">
      <defs>
       <path id="mf770f4795c" d="M 0 0 
L -3.5 0 
" style="stroke: #000000; stroke-width: 0.8"/>
      </defs>
      <g>
       <use xlink:href="#mf770f4795c" x="180" y="742.980206" style="stroke: #000000; stroke-width: 0.8"/>
      </g>
     </g>
     <g id="text_8">
      <!-- 45 -->
      <g transform="translate(147.55 750.578644) scale(0.2 -0.2)">
       <use xlink:href="#DejaVuSans-34"/>
       <use xlink:href="#DejaVuSans-35" x="63.623047"/>
      </g>
     </g>
    </g>
    <g id="ytick_2">
     <g id="line2d_15">
      <path d="M 180 641.928924 
L 1296 641.928924 
" clip-path="url(#p0273392564)" style="fill: none; stroke: #b0b0b0; stroke-width: 0.8; stroke-linecap: square"/>
     </g>
     <g id="line2d_16">
      <g>
       <use xlink:href="#mf770f4795c" x="180" y="641.928924" style="stroke: #000000; stroke-width: 0.8"/>
      </g>
     </g>
     <g id="text_9">
      <!-- 50 -->
      <g transform="translate(147.55 649.527362) scale(0.2 -0.2)">
       <use xlink:href="#DejaVuSans-35"/>
       <use xlink:href="#DejaVuSans-30" x="63.623047"/>
      </g>
     </g>
    </g>
    <g id="ytick_3">
     <g id="line2d_17">
      <path d="M 180 540.877642 
L 1296 540.877642 
" clip-path="url(#p0273392564)" style="fill: none; stroke: #b0b0b0; stroke-width: 0.8; stroke-linecap: square"/>
     </g>
     <g id="line2d_18">
      <g>
       <use xlink:href="#mf770f4795c" x="180" y="540.877642" style="stroke: #000000; stroke-width: 0.8"/>
      </g>
     </g>
     <g id="text_10">
      <!-- 55 -->
      <g transform="translate(147.55 548.476079) scale(0.2 -0.2)">
       <use xlink:href="#DejaVuSans-35"/>
       <use xlink:href="#DejaVuSans-35" x="63.623047"/>
      </g>
     </g>
    </g>
    <g id="ytick_4">
     <g id="line2d_19">
      <path d="M 180 439.82636 
L 1296 439.82636 
" clip-path="url(#p0273392564)" style="fill: none; stroke: #b0b0b0; stroke-width: 0.8; stroke-linecap: square"/>
     </g>
     <g id="line2d_20">
      <g>
       <use xlink:href="#mf770f4795c" x="180" y="439.82636" style="stroke: #000000; stroke-width: 0.8"/>
      </g>
     </g>
     <g id="text_11">
      <!-- 60 -->
      <g transform="translate(147.55 447.424797) scale(0.2 -0.2)">
       <use xlink:href="#DejaVuSans-36"/>
       <use xlink:href="#DejaVuSans-30" x="63.623047"/>
      </g>
     </g>
    </g>
    <g id="ytick_5">
     <g id="line2d_21">
      <path d="M 180 338.775078 
L 1296 338.775078 
" clip-path="url(#p0273392564)" style="fill: none; stroke: #b0b0b0; stroke-width: 0.8; stroke-linecap: square"/>
     </g>
     <g id="line2d_22">
      <g>
       <use xlink:href="#mf770f4795c" x="180" y="338.775078" style="stroke: #000000; stroke-width: 0.8"/>
      </g>
     </g>
     <g id="text_12">
      <!-- 65 -->
      <g transform="translate(147.55 346.373515) scale(0.2 -0.2)">
       <use xlink:href="#DejaVuSans-36"/>
       <use xlink:href="#DejaVuSans-35" x="63.623047"/>
      </g>
     </g>
    </g>
    <g id="ytick_6">
     <g id="line2d_23">
      <path d="M 180 237.723796 
L 1296 237.723796 
" clip-path="url(#p0273392564)" style="fill: none; stroke: #b0b0b0; stroke-width: 0.8; stroke-linecap: square"/>
     </g>
     <g id="line2d_24">
      <g>
       <use xlink:href="#mf770f4795c" x="180" y="237.723796" style="stroke: #000000; stroke-width: 0.8"/>
      </g>
     </g>
     <g id="text_13">
      <!-- 70 -->
      <g transform="translate(147.55 245.322233) scale(0.2 -0.2)">
       <defs>
        <path id="DejaVuSans-37" d="M 525 4666 
L 3525 4666 
L 3525 4397 
L 1831 0 
L 1172 0 
L 2766 4134 
L 525 4134 
L 525 4666 
z
" transform="scale(0.015625)"/>
       </defs>
       <use xlink:href="#DejaVuSans-37"/>
       <use xlink:href="#DejaVuSans-30" x="63.623047"/>
      </g>
     </g>
    </g>
    <g id="ytick_7">
     <g id="line2d_25">
      <path d="M 180 136.672514 
L 1296 136.672514 
" clip-path="url(#p0273392564)" style="fill: none; stroke: #b0b0b0; stroke-width: 0.8; stroke-linecap: square"/>
     </g>
     <g id="line2d_26">
      <g>
       <use xlink:href="#mf770f4795c" x="180" y="136.672514" style="stroke: #000000; stroke-width: 0.8"/>
      </g>
     </g>
     <g id="text_14">
      <!-- 75 -->
      <g transform="translate(147.55 144.270951) scale(0.2 -0.2)">
       <use xlink:href="#DejaVuSans-37"/>
       <use xlink:href="#DejaVuSans-35" x="63.623047"/>
      </g>
     </g>
    </g>
    <g id="text_15">
     <!-- exergetischer Wirkungsgrad [%] -->
     <g transform="translate(139.390625 597.362187) rotate(-90) scale(0.2 -0.2)">
      <defs>
       <path id="DejaVuSans-78" d="M 3513 3500 
L 2247 1797 
L 3578 0 
L 2900 0 
L 1881 1375 
L 863 0 
L 184 0 
L 1544 1831 
L 300 3500 
L 978 3500 
L 1906 2253 
L 2834 3500 
L 3513 3500 
z
" transform="scale(0.015625)"/>
       <path id="DejaVuSans-67" d="M 2906 1791 
Q 2906 2416 2648 2759 
Q 2391 3103 1925 3103 
Q 1463 3103 1205 2759 
Q 947 2416 947 1791 
Q 947 1169 1205 825 
Q 1463 481 1925 481 
Q 2391 481 2648 825 
Q 2906 1169 2906 1791 
z
M 3481 434 
Q 3481 -459 3084 -895 
Q 2688 -1331 1869 -1331 
Q 1566 -1331 1297 -1286 
Q 1028 -1241 775 -1147 
L 775 -588 
Q 1028 -725 1275 -790 
Q 1522 -856 1778 -856 
Q 2344 -856 2625 -561 
Q 2906 -266 2906 331 
L 2906 616 
Q 2728 306 2450 153 
Q 2172 0 1784 0 
Q 1141 0 747 490 
Q 353 981 353 1791 
Q 353 2603 747 3093 
Q 1141 3584 1784 3584 
Q 2172 3584 2450 3431 
Q 2728 3278 2906 2969 
L 2906 3500 
L 3481 3500 
L 3481 434 
z
" transform="scale(0.015625)"/>
       <path id="DejaVuSans-74" d="M 1172 4494 
L 1172 3500 
L 2356 3500 
L 2356 3053 
L 1172 3053 
L 1172 1153 
Q 1172 725 1289 603 
Q 1406 481 1766 481 
L 2356 481 
L 2356 0 
L 1766 0 
Q 1100 0 847 248 
Q 594 497 594 1153 
L 594 3053 
L 172 3053 
L 172 3500 
L 594 3500 
L 594 4494 
L 1172 4494 
z
" transform="scale(0.015625)"/>
       <path id="DejaVuSans-69" d="M 603 3500 
L 1178 3500 
L 1178 0 
L 603 0 
L 603 3500 
z
M 603 4863 
L 1178 4863 
L 1178 4134 
L 603 4134 
L 603 4863 
z
" transform="scale(0.015625)"/>
       <path id="DejaVuSans-57" d="M 213 4666 
L 850 4666 
L 1831 722 
L 2809 4666 
L 3519 4666 
L 4500 722 
L 5478 4666 
L 6119 4666 
L 4947 0 
L 4153 0 
L 3169 4050 
L 2175 0 
L 1381 0 
L 213 4666 
z
" transform="scale(0.015625)"/>
       <path id="DejaVuSans-6e" d="M 3513 2113 
L 3513 0 
L 2938 0 
L 2938 2094 
Q 2938 2591 2744 2837 
Q 2550 3084 2163 3084 
Q 1697 3084 1428 2787 
Q 1159 2491 1159 1978 
L 1159 0 
L 581 0 
L 581 3500 
L 1159 3500 
L 1159 2956 
Q 1366 3272 1645 3428 
Q 1925 3584 2291 3584 
Q 2894 3584 3203 3211 
Q 3513 2838 3513 2113 
z
" transform="scale(0.015625)"/>
       <path id="DejaVuSans-25" d="M 4653 2053 
Q 4381 2053 4226 1822 
Q 4072 1591 4072 1178 
Q 4072 772 4226 539 
Q 4381 306 4653 306 
Q 4919 306 5073 539 
Q 5228 772 5228 1178 
Q 5228 1588 5073 1820 
Q 4919 2053 4653 2053 
z
M 4653 2450 
Q 5147 2450 5437 2106 
Q 5728 1763 5728 1178 
Q 5728 594 5436 251 
Q 5144 -91 4653 -91 
Q 4153 -91 3862 251 
Q 3572 594 3572 1178 
Q 3572 1766 3864 2108 
Q 4156 2450 4653 2450 
z
M 1428 4353 
Q 1159 4353 1004 4120 
Q 850 3888 850 3481 
Q 850 3069 1003 2837 
Q 1156 2606 1428 2606 
Q 1700 2606 1854 2837 
Q 2009 3069 2009 3481 
Q 2009 3884 1853 4118 
Q 1697 4353 1428 4353 
z
M 4250 4750 
L 4750 4750 
L 1831 -91 
L 1331 -91 
L 4250 4750 
z
M 1428 4750 
Q 1922 4750 2215 4408 
Q 2509 4066 2509 3481 
Q 2509 2891 2217 2550 
Q 1925 2209 1428 2209 
Q 931 2209 642 2551 
Q 353 2894 353 3481 
Q 353 4063 643 4406 
Q 934 4750 1428 4750 
z
" transform="scale(0.015625)"/>
      </defs>
      <use xlink:href="#DejaVuSans-65"/>
      <use xlink:href="#DejaVuSans-78" x="59.773438"/>
      <use xlink:href="#DejaVuSans-65" x="115.828125"/>
      <use xlink:href="#DejaVuSans-72" x="177.351562"/>
      <use xlink:href="#DejaVuSans-67" x="216.714844"/>
      <use xlink:href="#DejaVuSans-65" x="280.191406"/>
      <use xlink:href="#DejaVuSans-74" x="341.714844"/>
      <use xlink:href="#DejaVuSans-69" x="380.923828"/>
      <use xlink:href="#DejaVuSans-73" x="408.707031"/>
      <use xlink:href="#DejaVuSans-63" x="460.806641"/>
      <use xlink:href="#DejaVuSans-68" x="515.787109"/>
      <use xlink:href="#DejaVuSans-65" x="579.166016"/>
      <use xlink:href="#DejaVuSans-72" x="640.689453"/>
      <use xlink:href="#DejaVuSans-20" x="681.802734"/>
      <use xlink:href="#DejaVuSans-57" x="713.589844"/>
      <use xlink:href="#DejaVuSans-69" x="810.216797"/>
      <use xlink:href="#DejaVuSans-72" x="838"/>
      <use xlink:href="#DejaVuSans-6b" x="879.113281"/>
      <use xlink:href="#DejaVuSans-75" x="933.898438"/>
      <use xlink:href="#DejaVuSans-6e" x="997.277344"/>
      <use xlink:href="#DejaVuSans-67" x="1060.65625"/>
      <use xlink:href="#DejaVuSans-73" x="1124.132812"/>
      <use xlink:href="#DejaVuSans-67" x="1176.232422"/>
      <use xlink:href="#DejaVuSans-72" x="1239.708984"/>
      <use xlink:href="#DejaVuSans-61" x="1280.822266"/>
      <use xlink:href="#DejaVuSans-64" x="1342.101562"/>
      <use xlink:href="#DejaVuSans-20" x="1405.578125"/>
      <use xlink:href="#DejaVuSans-5b" x="1437.365234"/>
      <use xlink:href="#DejaVuSans-25" x="1476.378906"/>
      <use xlink:href="#DejaVuSans-5d" x="1571.398438"/>
     </g>
    </g>
   </g>
   <g id="line2d_27">
    <path d="M 233.047672 738.72 
L 245.824657 731.596709 
L 258.601642 724.40664 
L 271.378627 717.142551 
L 284.155612 709.796864 
L 296.932597 702.361625 
L 309.709582 694.82847 
L 322.486567 687.188579 
L 335.263551 679.432647 
L 348.040536 671.550846 
L 360.817521 663.532805 
L 373.594506 655.367594 
L 386.371491 647.043733 
L 399.148476 638.549236 
L 411.925461 629.871691 
L 424.702446 620.998418 
L 437.479431 611.916722 
L 450.256415 602.614278 
L 463.0334 593.079719 
L 475.810385 583.303472 
L 488.58737 573.278931 
L 501.364355 563.004044 
L 514.14134 552.483376 
L 526.918325 541.730631 
L 539.69531 530.771504 
L 552.472295 519.646525 
L 565.249279 508.413257 
L 578.026264 497.146976 
L 590.803249 485.938932 
L 603.580234 474.891617 
L 616.357219 464.111353 
L 629.134204 453.699486 
L 641.911189 443.744128 
L 654.688174 434.314258 
L 667.465158 425.457056 
L 680.242143 417.198305 
L 693.019128 409.544954 
L 705.796113 402.488754 
L 718.573098 396.01008 
L 731.350083 390.081467 
L 744.127068 384.670477 
L 756.904053 379.74205 
L 769.681038 375.260231 
L 782.458022 371.189428 
L 795.235007 367.495282 
L 808.011992 364.145228 
L 820.788977 361.108826 
L 833.565962 358.357921 
L 846.342947 355.866674 
L 859.119932 353.611516 
L 871.896917 351.571042 
L 884.673901 349.725875 
L 897.450886 348.058511 
L 910.227871 346.553159 
L 923.004856 345.195586 
L 935.781841 343.972966 
L 948.558826 342.873734 
L 961.335811 341.887465 
L 974.112796 341.004744 
L 986.889781 340.217069 
L 999.666765 339.516749 
L 1012.44375 338.89682 
L 1025.220735 338.350965 
L 1037.99772 337.873448 
L 1050.774705 337.459056 
L 1063.55169 337.103039 
L 1076.328675 336.801066 
L 1089.10566 336.549181 
L 1101.882645 336.343767 
L 1114.659629 336.181511 
L 1127.436614 336.059375 
L 1140.213599 335.974566 
L 1152.990584 335.92452 
L 1165.767569 335.906873 
L 1178.544554 335.919446 
L 1191.321539 335.960228 
L 1204.098524 336.027361 
L 1216.875508 336.119125 
L 1229.652493 336.233928 
L 1242.429478 336.37029 
" clip-path="url(#p0273392564)" style="fill: none; stroke: #000000; stroke-width: 1.5; stroke-linecap: square"/>
   </g>
   <g id="line2d_28">
    <path d="M 233.047672 660.13137 
L 245.824657 648.801331 
L 258.601642 636.980904 
L 271.378627 624.589259 
L 284.155612 611.526683 
L 296.932597 597.668501 
L 309.709582 582.856828 
L 322.486567 566.889692 
L 335.263551 549.507941 
L 348.040536 530.383923 
L 360.817521 509.127958 
L 373.594506 485.363104 
L 386.371491 458.987241 
L 399.148476 430.728505 
L 411.925461 402.56072 
L 424.702446 376.926667 
L 437.479431 355.312238 
L 450.256415 337.917503 
L 463.0334 324.208509 
L 475.810385 313.445599 
L 488.58737 304.94994 
L 501.364355 298.182956 
L 514.14134 292.741509 
L 526.918325 288.329152 
L 539.69531 284.727583 
L 552.472295 281.774362 
L 565.249279 279.346899 
L 578.026264 277.351242 
L 590.803249 275.714323 
L 603.580234 274.378482 
L 616.357219 273.297621 
L 629.134204 272.434435 
L 641.911189 271.758401 
L 654.688174 271.244291 
L 667.465158 270.871064 
L 680.242143 270.621023 
L 693.019128 270.479174 
L 705.796113 270.432723 
L 718.573098 270.470679 
L 731.350083 270.583557 
L 744.127068 270.763119 
L 756.904053 271.002178 
L 769.681038 271.294436 
L 782.458022 271.634355 
L 795.235007 272.017037 
L 808.011992 272.438145 
L 820.788977 272.893821 
L 833.565962 273.380622 
L 846.342947 273.895471 
L 859.119932 274.435607 
L 871.896917 274.998551 
L 884.673901 275.582065 
L 897.450886 276.184131 
L 910.227871 276.802924 
L 923.004856 277.436789 
L 935.781841 278.084224 
L 948.558826 278.743862 
L 961.335811 279.414462 
L 974.112796 280.094888 
L 986.889781 280.784106 
L 999.666765 281.48117 
L 1012.44375 282.185215 
L 1025.220735 282.895447 
L 1037.99772 283.611141 
L 1050.774705 284.331631 
L 1063.55169 285.056303 
L 1076.328675 285.784595 
L 1089.10566 286.515992 
L 1101.882645 287.250016 
L 1114.659629 287.986232 
L 1127.436614 288.724235 
L 1140.213599 289.463655 
L 1152.990584 290.204151 
L 1165.767569 290.945407 
L 1178.544554 291.687132 
L 1191.321539 292.42906 
L 1204.098524 293.170945 
L 1216.875508 293.912558 
L 1229.652493 294.653691 
L 1242.429478 295.394151 
" clip-path="url(#p0273392564)" style="fill: none; stroke: #000000; stroke-width: 1.5; stroke-linecap: square"/>
   </g>
   <g id="line2d_29">
    <path d="M 240.524575 169.83679 
L 253.206915 168.893514 
L 265.889256 168.501277 
L 278.571596 168.514106 
L 291.253937 168.834326 
L 303.936277 169.393286 
L 316.618618 170.140895 
L 329.300959 171.039509 
L 341.983299 172.060167 
L 354.66564 173.180147 
L 367.34798 174.381336 
L 380.030321 175.649095 
L 392.712661 176.971459 
L 405.395002 178.338549 
L 418.077342 179.742142 
L 430.759683 181.175342 
L 443.442024 182.632328 
L 456.124364 184.10816 
L 468.806705 185.598628 
L 481.489045 187.100128 
L 494.171386 188.609563 
L 506.853726 190.124264 
L 519.536067 191.641928 
L 532.218407 193.160561 
L 544.900748 194.678435 
L 557.583088 196.194051 
L 570.265429 197.706106 
L 582.94777 199.213473 
L 595.63011 200.715169 
L 608.312451 202.210343 
L 620.994791 203.698261 
L 633.677132 205.178284 
L 646.359472 206.649864 
L 659.041813 208.11253 
L 671.724153 209.565877 
L 684.406494 211.009564 
L 697.088835 212.443302 
L 709.771175 213.866847 
L 722.453516 215.28 
L 735.135856 216.6826 
L 747.818197 218.074516 
L 760.500537 219.455648 
L 773.182878 220.825924 
L 785.865218 222.185293 
L 798.547559 223.533726 
L 811.229899 224.871211 
L 823.91224 226.197756 
L 836.594581 227.51338 
L 849.276921 228.818118 
L 861.959262 230.112013 
L 874.641602 231.395122 
L 887.323943 232.667508 
L 900.006283 233.929245 
L 912.688624 235.180411 
L 925.370964 236.421092 
L 938.053305 237.651381 
L 950.735646 238.871371 
L 963.417986 240.081164 
L 976.100327 241.280862 
L 988.782667 242.470573 
L 1001.465008 243.650406 
L 1014.147348 244.820471 
L 1026.829689 245.980881 
L 1039.512029 247.131752 
L 1052.19437 248.273198 
L 1064.876711 249.405337 
L 1077.559051 250.528284 
L 1090.241392 251.642157 
L 1102.923732 252.747074 
L 1115.606073 253.843153 
L 1128.288413 254.93051 
L 1140.970754 256.009262 
L 1153.653094 257.079526 
L 1166.335435 258.141417 
L 1179.017775 259.195051 
L 1191.700116 260.240543 
L 1204.382457 261.278005 
L 1217.064797 262.30755 
L 1229.747138 263.329289 
L 1242.429478 264.343333 
" clip-path="url(#p0273392564)" style="fill: none; stroke: #000000; stroke-width: 1.5; stroke-linecap: square"/>
   </g>
   <g id="line2d_30">
    <path d="M 438.662485 133.92 
L 448.83675 135.860955 
L 459.011016 137.777918 
L 469.185282 139.67134 
L 479.359548 141.541659 
L 489.533813 143.389308 
L 499.708079 145.21471 
L 509.882345 147.01828 
L 520.056611 148.800424 
L 530.230876 150.561539 
L 540.405142 152.302017 
L 550.579408 154.02224 
L 560.753674 155.722581 
L 570.927939 157.403407 
L 581.102205 159.065078 
L 591.276471 160.707945 
L 601.450737 162.332352 
L 611.625002 163.938638 
L 621.799268 165.527131 
L 631.973534 167.098156 
L 642.1478 168.65203 
L 652.322065 170.189062 
L 662.496331 171.709556 
L 672.670597 173.213811 
L 682.844862 174.702116 
L 693.019128 176.174758 
L 703.193394 177.632016 
L 713.36766 179.074163 
L 723.541925 180.501467 
L 733.716191 181.914191 
L 743.890457 183.312592 
L 754.064723 184.696922 
L 764.238988 186.067426 
L 774.413254 187.424348 
L 784.58752 188.767922 
L 794.761786 190.098382 
L 804.936051 191.415953 
L 815.110317 192.720859 
L 825.284583 194.013317 
L 835.458849 195.293541 
L 845.633114 196.56174 
L 855.80738 197.818118 
L 865.981646 199.062877 
L 876.155912 200.296213 
L 886.330177 201.518319 
L 896.504443 202.729383 
L 906.678709 203.929592 
L 916.852975 205.119126 
L 927.02724 206.298164 
L 937.201506 207.466879 
L 947.375772 208.625442 
L 957.550037 209.774021 
L 967.724303 210.912779 
L 977.898569 212.041878 
L 988.072835 213.161475 
L 998.2471 214.271726 
L 1008.421366 215.37278 
L 1018.595632 216.464787 
L 1028.769898 217.547893 
L 1038.944163 218.622241 
L 1049.118429 219.687969 
L 1059.292695 220.745217 
L 1069.466961 221.794117 
L 1079.641226 222.834803 
L 1089.815492 223.867404 
L 1099.989758 224.892046 
L 1110.164024 225.908855 
L 1120.338289 226.917951 
L 1130.512555 227.919456 
L 1140.686821 228.913487 
L 1150.861087 229.900158 
L 1161.035352 230.879583 
L 1171.209618 231.851872 
L 1181.383884 232.817135 
L 1191.55815 233.775477 
L 1201.732415 234.727005 
L 1211.906681 235.671819 
L 1222.080947 236.610022 
L 1232.255212 237.541711 
L 1242.429478 238.466984 
" clip-path="url(#p0273392564)" style="fill: none; stroke: #000000; stroke-width: 1.5; stroke-linecap: square"/>
   </g>
   <g id="line2d_31">
    <path d="M 662.969553 144.028596 
L 670.304488 145.19121 
L 677.639424 146.344489 
L 684.97436 147.488567 
L 692.309296 148.623574 
L 699.644232 149.749641 
L 706.979167 150.866894 
L 714.314103 151.975456 
L 721.649039 153.075452 
L 728.983975 154.167 
L 736.31891 155.25022 
L 743.653846 156.325227 
L 750.988782 157.392136 
L 758.323718 158.451059 
L 765.658653 159.502107 
L 772.993589 160.545388 
L 780.328525 161.581009 
L 787.663461 162.609074 
L 794.998396 163.629688 
L 802.333332 164.642952 
L 809.668268 165.648965 
L 817.003204 166.647826 
L 824.33814 167.639632 
L 831.673075 168.624476 
L 839.008011 169.602453 
L 846.342947 170.573655 
L 853.677883 171.538171 
L 861.012818 172.496091 
L 868.347754 173.447502 
L 875.68269 174.39249 
L 883.017626 175.33114 
L 890.352561 176.263535 
L 897.687497 177.189757 
L 905.022433 178.109886 
L 912.357369 179.024002 
L 919.692305 179.932183 
L 927.02724 180.834505 
L 934.362176 181.731044 
L 941.697112 182.621874 
L 949.032048 183.507069 
L 956.366983 184.3867 
L 963.701919 185.260838 
L 971.036855 186.129553 
L 978.371791 186.992914 
L 985.706726 187.850987 
L 993.041662 188.70384 
L 1000.376598 189.551537 
L 1007.711534 190.394144 
L 1015.046469 191.231723 
L 1022.381405 192.064336 
L 1029.716341 192.892046 
L 1037.051277 193.714913 
L 1044.386213 194.532996 
L 1051.721148 195.346353 
L 1059.056084 196.155043 
L 1066.39102 196.959122 
L 1073.725956 197.758645 
L 1081.060891 198.553669 
L 1088.395827 199.344247 
L 1095.730763 200.130432 
L 1103.065699 200.912278 
L 1110.400634 201.689835 
L 1117.73557 202.463155 
L 1125.070506 203.232287 
L 1132.405442 203.997282 
L 1139.740378 204.758187 
L 1147.075313 205.515051 
L 1154.410249 206.267921 
L 1161.745185 207.016843 
L 1169.080121 207.761863 
L 1176.415056 208.503026 
L 1183.749992 209.240377 
L 1191.084928 209.973959 
L 1198.419864 210.703815 
L 1205.754799 211.429987 
L 1213.089735 212.152518 
L 1220.424671 212.871449 
L 1227.759607 213.586819 
L 1235.094542 214.29867 
L 1242.429478 215.00704 
" clip-path="url(#p0273392564)" style="fill: none; stroke: #000000; stroke-width: 1.5; stroke-linecap: square"/>
   </g>
   <g id="line2d_32">
    <path d="M 271.156855 239.606878 
L 278.158383 219.769898 
L 285.163807 207.713959 
L 292.172827 199.184051 
L 299.185145 192.687254 
L 306.200465 187.519741 
L 313.21849 183.291496 
L 320.238926 179.762886 
L 327.261479 176.775684 
L 334.285859 174.219701 
L 341.311775 172.014992 
L 348.33894 170.101635 
L 355.367068 168.433514 
L 362.395876 166.974348 
L 369.425084 165.69506 
L 376.454413 164.571977 
L 383.483587 163.58556 
L 390.512335 162.719488 
L 397.540387 161.959988 
L 404.567477 161.295324 
L 411.593341 160.715418 
L 418.617723 160.211548 
L 425.640366 159.776116 
L 432.661019 159.402462 
L 439.679437 159.084719 
L 446.695377 158.817689 
L 453.7086 158.596748 
L 460.718876 158.417764 
L 467.725975 158.277033 
L 474.729676 158.171218 
L 481.729761 158.097307 
L 488.726021 158.052571 
L 495.718248 158.03453 
L 502.706246 158.040928 
L 509.68982 158.069703 
L 516.668785 158.118968 
L 523.642962 158.186992 
L 530.612178 158.272188 
L 537.576271 158.37309 
L 544.535081 158.48835 
L 551.488462 158.616722 
L 558.436271 158.757052 
L 565.378377 158.908274 
L 572.314656 159.069398 
L 579.244993 159.239504 
L 586.169283 159.417738 
L 593.087431 159.603306 
L 599.999351 159.795468 
L 606.904967 159.993534 
L 613.804214 160.19686 
L 620.697038 160.404848 
L 627.583397 160.616936 
L 634.463259 160.832601 
L 641.336604 161.051353 
L 648.203425 161.272737 
L 655.063728 161.496323 
L 661.917532 161.721713 
L 668.764866 161.948531 
L 675.605778 162.17643 
L 682.440326 162.40508 
L 689.268585 162.634177 
L 696.090643 162.863437 
L 702.906605 163.092591 
L 709.716591 163.321392 
L 716.520736 163.549607 
L 723.319195 163.777019 
L 730.112136 164.00343 
L 736.899748 164.228649 
L 743.682236 164.452506 
L 750.459825 164.674838 
L 757.232756 164.895498 
L 764.001294 165.114349 
L 770.76572 165.331265 
L 777.526338 165.546132 
L 784.283472 165.758843 
L 791.037468 165.969304 
L 797.788694 166.177429 
L 804.53754 166.383141 
L 811.28442 166.586371 
L 818.029772 166.787058 
" clip-path="url(#p0273392564)" style="fill: none; stroke-dasharray: 5.55,2.4; stroke-dashoffset: 0; stroke: #ff0000; stroke-width: 1.5"/>
   </g>
   <g id="line2d_33">
    <path d="M 271.200584 600.929409 
L 280.221296 582.819923 
L 289.254039 561.986415 
L 298.298269 537.158389 
L 307.353449 505.911902 
L 316.419047 463.026189 
L 325.494531 398.96961 
L 334.579371 326.142904 
L 343.673041 280.637832 
L 352.775018 255.89207 
L 361.88478 240.405517 
L 371.001814 229.569523 
L 380.125607 221.449818 
L 389.255652 215.092691 
L 398.39145 209.965262 
L 407.532505 205.741432 
L 416.678327 202.207691 
L 425.828436 199.216821 
L 434.982356 196.663094 
L 444.139622 194.468045 
L 453.299774 192.571855 
L 462.462364 190.92788 
L 471.626953 189.499052 
L 480.793111 188.255428 
L 489.960419 187.172478 
L 499.128469 186.229855 
L 508.296867 185.410501 
L 517.46523 184.699975 
L 526.633187 184.085951 
L 535.800382 183.55782 
L 544.966475 183.106397 
L 554.131138 182.723672 
L 563.294062 182.402628 
L 572.454953 182.137081 
L 581.613534 181.921556 
L 590.769547 181.751189 
L 599.922752 181.621638 
L 609.072929 181.529017 
L 618.21988 181.469832 
L 627.363426 181.440936 
L 636.50341 181.439485 
L 645.639701 181.462905 
L 654.772189 181.508856 
L 663.900789 181.575211 
L 673.025445 181.660031 
L 682.146123 181.761545 
L 691.26282 181.878135 
L 700.375561 182.008317 
L 709.4844 182.150733 
L 718.589424 182.304135 
L 727.69075 182.467377 
L 736.788529 182.639406 
L 745.882946 182.819253 
L 754.974221 183.006026 
L 764.062611 183.198905 
L 773.148413 183.397135 
L 782.23196 183.60002 
L 791.313628 183.806922 
L 800.393834 184.017252 
L 809.473038 184.230471 
L 818.551746 184.446082 
L 827.630508 184.66363 
L 836.709923 184.882702 
L 845.790641 185.102916 
L 854.873358 185.323926 
L 863.958827 185.545421 
L 873.047852 185.767114 
L 882.141294 185.98875 
L 891.24007 186.210101 
L 900.345156 186.430962 
L 909.45759 186.651153 
L 918.57847 186.870516 
L 927.70896 187.088916 
L 936.850289 187.306238 
L 946.003753 187.522385 
L 955.170718 187.737282 
L 964.352623 187.950869 
L 973.550978 188.163104 
L 982.767368 188.373964 
L 992.003456 188.583439 
" clip-path="url(#p0273392564)" style="fill: none; stroke-dasharray: 5.55,2.4; stroke-dashoffset: 0; stroke: #ffa500; stroke-width: 1.5"/>
   </g>
   <g id="line2d_34">
    <path d="M 230.727273 712.053815 
L 242.23358 701.147711 
L 253.770509 689.684277 
L 265.337118 677.57575 
L 276.932445 664.71192 
L 288.555528 650.951445 
L 300.205402 636.108634 
L 311.881102 619.932492 
L 323.581667 602.072105 
L 335.306135 582.016819 
L 347.053541 558.988179 
L 358.822951 531.740307 
L 370.61341 498.22632 
L 382.423978 455.484979 
L 394.253725 402.85989 
L 406.101729 350.707265 
L 417.96708 311.472085 
L 429.848879 285.43844 
L 441.746244 267.898104 
L 453.658304 255.401674 
L 465.584208 246.043618 
L 477.523121 238.768293 
L 489.47423 232.954602 
L 501.436742 228.213492 
L 513.409887 224.287705 
L 525.39292 220.999313 
L 537.385123 218.220602 
L 549.385806 215.857036 
L 561.394311 213.836799 
L 573.410008 212.104131 
L 585.432305 210.614919 
L 597.460645 209.333697 
L 609.494509 208.231547 
L 621.533418 207.284601 
L 633.576936 206.472943 
L 645.624672 205.779797 
L 657.676283 205.190908 
L 669.731474 204.694076 
L 681.790003 204.278784 
L 693.851683 203.935913 
L 705.916385 203.657513 
L 717.984038 203.436617 
L 730.054636 203.267094 
L 742.128238 203.143528 
L 754.204973 203.061114 
L 766.285041 203.015579 
L 778.368718 203.003111 
L 790.456358 203.020302 
L 802.548398 203.064095 
L 814.645359 203.131747 
L 826.747854 203.220791 
L 838.856587 203.329006 
L 850.972358 203.454388 
L 863.096071 203.595132 
L 875.228734 203.749608 
L 887.371462 203.916347 
L 899.525487 204.094024 
L 911.692156 204.281444 
L 923.87294 204.477533 
L 936.069439 204.681327 
L 948.283382 204.89196 
L 960.516637 205.108661 
L 972.771214 205.330742 
L 985.049268 205.557595 
L 997.353109 205.788684 
L 1009.685203 206.023543 
L 1022.048178 206.261768 
L 1034.444834 206.503014 
L 1046.878139 206.746996 
L 1059.351245 206.993476 
L 1071.867487 207.242268 
L 1084.430392 207.493235 
L 1097.043681 207.746281 
L 1109.711279 208.001353 
L 1122.437319 208.258441 
L 1135.226148 208.51757 
L 1148.082331 208.778804 
L 1161.010662 209.042241 
L 1174.016166 209.308016 
L 1187.104105 209.576294 
" clip-path="url(#p0273392564)" style="fill: none; stroke-dasharray: 5.55,2.4; stroke-dashoffset: 0; stroke: #008000; stroke-width: 1.5"/>
   </g>
   <g id="line2d_35">
    <path d="M 257.3138 725.134586 
L 270.653326 714.310902 
L 284.038534 702.989358 
L 297.468176 691.098515 
L 310.940999 678.551036 
L 324.45575 665.238457 
L 338.011177 651.023648 
L 351.606027 635.729778 
L 365.239053 619.123718 
L 378.909012 600.890703 
L 392.614671 580.595411 
L 406.354805 557.624341 
L 420.128192 531.115189 
L 433.933653 499.949034 
L 447.769997 463.178404 
L 461.63606 421.780622 
L 475.530702 380.674954 
L 489.452804 345.70077 
L 503.401276 318.96603 
L 517.375056 299.321215 
L 531.373114 284.780934 
L 545.394456 273.745097 
L 559.438124 265.141657 
L 573.503202 258.277174 
L 587.588819 252.69627 
L 601.69415 248.090802 
L 615.818421 244.245439 
L 629.960912 241.005092 
L 644.120961 238.255012 
L 658.297967 235.908258 
L 672.491395 233.897584 
L 686.700779 232.170033 
L 700.925726 230.683228 
L 715.165921 229.402794 
L 729.421131 228.300497 
L 743.691208 227.3529 
L 757.976097 226.540356 
L 772.27584 225.846258 
L 786.590577 225.256458 
L 800.920556 224.758823 
L 815.266137 224.342886 
L 829.627797 223.999564 
L 844.006137 223.720941 
L 858.401886 223.500088 
L 872.815908 223.330914 
L 887.24921 223.208051 
L 901.702948 223.126751 
L 916.178432 223.082807 
L 930.677134 223.072482 
L 945.200698 223.092453 
L 959.750943 223.139759 
L 974.329874 223.211762 
L 988.939689 223.30611 
L 1003.582787 223.420706 
L 1018.261776 223.553684 
L 1032.979483 223.703382 
L 1047.738962 223.868324 
L 1062.543502 224.047207 
L 1077.396636 224.238878 
L 1092.302153 224.442327 
L 1107.264105 224.656671 
L 1122.286816 224.881149 
L 1137.374895 225.115107 
L 1152.533242 225.357992 
L 1167.767058 225.609349 
L 1183.08186 225.868808 
L 1198.483486 226.136081 
L 1213.978104 226.41096 
L 1229.572229 226.693306 
L 1245.272727 226.983055 
" clip-path="url(#p0273392564)" style="fill: none; stroke-dasharray: 5.55,2.4; stroke-dashoffset: 0; stroke: #4682b4; stroke-width: 1.5"/>
   </g>
   <g id="line2d_36">
    <path d="M 404.991346 634.604499 
L 414.935485 624.030724 
L 424.900895 612.878615 
L 434.887192 601.069857 
L 444.893994 588.5118 
L 454.920923 575.09537 
L 464.967605 560.694055 
L 475.033661 545.166077 
L 485.118744 528.364116 
L 495.222483 510.161075 
L 505.344525 490.504109 
L 515.484518 469.505763 
L 525.642121 447.55052 
L 535.816997 425.333951 
L 546.008817 403.738544 
L 556.21726 383.584389 
L 566.442011 365.427739 
L 576.682767 349.506261 
L 586.939232 335.793237 
L 597.211119 324.094249 
L 607.498154 314.140504 
L 617.80007 305.654725 
L 628.116615 298.385885 
L 638.447545 292.121478 
L 648.792631 286.687625 
L 659.151657 281.944227 
L 669.524418 277.778913 
L 679.910726 274.10141 
L 690.310406 270.838834 
L 700.723299 267.931913 
L 711.149263 265.332078 
L 721.588171 262.999206 
L 732.039915 260.899883 
L 742.504403 259.006063 
L 752.981564 257.294033 
L 763.471347 255.7436 
L 773.973718 254.337457 
L 784.488667 253.060677 
L 795.016206 251.900312 
L 805.556368 250.845072 
L 816.109211 249.885059 
L 826.674817 249.01156 
L 837.253292 248.216869 
L 847.84477 247.494143 
L 858.449411 246.837284 
L 869.067404 246.240839 
L 879.698966 245.699913 
L 890.344345 245.210106 
L 901.003818 244.767441 
L 911.677696 244.368324 
L 922.366323 244.009493 
L 933.070076 243.687984 
L 943.789367 243.401096 
L 954.524648 243.146367 
L 965.276403 242.921542 
L 976.045159 242.724561 
L 986.831481 242.55353 
L 997.635976 242.406715 
L 1008.459292 242.282518 
L 1019.302124 242.179472 
L 1030.165208 242.096222 
L 1041.04933 242.031524 
L 1051.95532 241.984225 
L 1062.884061 241.953267 
L 1073.836483 241.937668 
L 1084.813571 241.936526 
L 1095.816361 241.949005 
L 1106.845945 241.974335 
L 1117.903471 242.011805 
L 1128.990145 242.060758 
L 1140.107233 242.120592 
L 1151.256061 242.190747 
L 1162.438017 242.270714 
L 1173.654555 242.36002 
L 1184.907193 242.458236 
L 1196.197517 242.564966 
L 1207.527181 242.679851 
L 1218.897911 242.802562 
L 1230.311503 242.932803 
L 1241.769829 243.070306 
" clip-path="url(#p0273392564)" style="fill: none; stroke-dasharray: 5.55,2.4; stroke-dashoffset: 0; stroke: #8a2be2; stroke-width: 1.5"/>
   </g>
   <g id="patch_3">
    <path d="M 180 768.96 
L 180 103.68 
" style="fill: none; stroke: #000000; stroke-width: 0.8; stroke-linejoin: miter; stroke-linecap: square"/>
   </g>
   <g id="patch_4">
    <path d="M 1296 768.96 
L 1296 103.68 
" style="fill: none; stroke: #000000; stroke-width: 0.8; stroke-linejoin: miter; stroke-linecap: square"/>
   </g>
   <g id="patch_5">
    <path d="M 180 768.96 
L 1296 768.96 
" style="fill: none; stroke: #000000; stroke-width: 0.8; stroke-linejoin: miter; stroke-linecap: square"/>
   </g>
   <g id="patch_6">
    <path d="M 180 103.68 
L 1296 103.68 
" style="fill: none; stroke: #000000; stroke-width: 0.8; stroke-linejoin: miter; stroke-linecap: square"/>
   </g>
   <g id="text_16">
    <!-- 160 -->
    <g transform="translate(1244.298704 344.838155) scale(0.2 -0.2)">
     <defs>
      <path id="DejaVuSans-31" d="M 794 531 
L 1825 531 
L 1825 4091 
L 703 3866 
L 703 4441 
L 1819 4666 
L 2450 4666 
L 2450 531 
L 3481 531 
L 3481 0 
L 794 0 
L 794 531 
z
" transform="scale(0.015625)"/>
     </defs>
     <use xlink:href="#DejaVuSans-31"/>
     <use xlink:href="#DejaVuSans-36" x="63.623047"/>
     <use xlink:href="#DejaVuSans-30" x="127.246094"/>
    </g>
   </g>
   <g id="text_17">
    <!-- 150 -->
    <g transform="translate(1244.298704 304.215539) scale(0.2 -0.2)">
     <use xlink:href="#DejaVuSans-31"/>
     <use xlink:href="#DejaVuSans-35" x="63.623047"/>
     <use xlink:href="#DejaVuSans-30" x="127.246094"/>
    </g>
   </g>
   <g id="text_18">
    <!-- 140 -->
    <g transform="translate(1244.298704 273.293847) scale(0.2 -0.2)">
     <use xlink:href="#DejaVuSans-31"/>
     <use xlink:href="#DejaVuSans-34" x="63.623047"/>
     <use xlink:href="#DejaVuSans-30" x="127.246094"/>
    </g>
   </g>
   <g id="text_19">
    <!-- 130 -->
    <g transform="translate(1244.298704 247.424719) scale(0.2 -0.2)">
     <defs>
      <path id="DejaVuSans-33" d="M 2597 2516 
Q 3050 2419 3304 2112 
Q 3559 1806 3559 1356 
Q 3559 666 3084 287 
Q 2609 -91 1734 -91 
Q 1441 -91 1130 -33 
Q 819 25 488 141 
L 488 750 
Q 750 597 1062 519 
Q 1375 441 1716 441 
Q 2309 441 2620 675 
Q 2931 909 2931 1356 
Q 2931 1769 2642 2001 
Q 2353 2234 1838 2234 
L 1294 2234 
L 1294 2753 
L 1863 2753 
Q 2328 2753 2575 2939 
Q 2822 3125 2822 3475 
Q 2822 3834 2567 4026 
Q 2313 4219 1838 4219 
Q 1578 4219 1281 4162 
Q 984 4106 628 3988 
L 628 4550 
Q 988 4650 1302 4700 
Q 1616 4750 1894 4750 
Q 2613 4750 3031 4423 
Q 3450 4097 3450 3541 
Q 3450 3153 3228 2886 
Q 3006 2619 2597 2516 
z
" transform="scale(0.015625)"/>
     </defs>
     <use xlink:href="#DejaVuSans-31"/>
     <use xlink:href="#DejaVuSans-33" x="63.623047"/>
     <use xlink:href="#DejaVuSans-30" x="127.246094"/>
    </g>
   </g>
   <g id="text_20">
    <!-- 120 -->
    <g transform="translate(1244.298704 221.555591) scale(0.2 -0.2)">
     <defs>
      <path id="DejaVuSans-32" d="M 1228 531 
L 3431 531 
L 3431 0 
L 469 0 
L 469 531 
Q 828 903 1448 1529 
Q 2069 2156 2228 2338 
Q 2531 2678 2651 2914 
Q 2772 3150 2772 3378 
Q 2772 3750 2511 3984 
Q 2250 4219 1831 4219 
Q 1534 4219 1204 4116 
Q 875 4013 500 3803 
L 500 4441 
Q 881 4594 1212 4672 
Q 1544 4750 1819 4750 
Q 2544 4750 2975 4387 
Q 3406 4025 3406 3419 
Q 3406 3131 3298 2873 
Q 3191 2616 2906 2266 
Q 2828 2175 2409 1742 
Q 1991 1309 1228 531 
z
" transform="scale(0.015625)"/>
     </defs>
     <use xlink:href="#DejaVuSans-31"/>
     <use xlink:href="#DejaVuSans-32" x="63.623047"/>
     <use xlink:href="#DejaVuSans-30" x="127.246094"/>
    </g>
   </g>
   <g id="legend_1">
    <g id="patch_7">
     <path d="M 239.257812 758.96 
L 1236.742188 758.96 
Q 1240.742188 758.96 1240.742188 754.96 
L 1240.742188 725.56 
Q 1240.742188 721.56 1236.742188 721.56 
L 239.257812 721.56 
Q 235.257812 721.56 235.257812 725.56 
L 235.257812 754.96 
Q 235.257812 758.96 239.257812 758.96 
z
" style="fill: #ffffff; opacity: 0.8; stroke: #cccccc; stroke-linejoin: miter"/>
    </g>
    <g id="line2d_37">
     <path d="M 243.257812 737.76 
L 263.257812 737.76 
L 283.257812 737.76 
" style="fill: none; stroke: #000000; stroke-width: 1.5; stroke-linecap: square"/>
    </g>
    <g id="text_21">
     <!-- $T_{se,ein}$ [°C]          $ΔT_{gk,ob}$: -->
     <g transform="translate(299.257812 744.76) scale(0.2 -0.2)">
      <defs>
       <path id="DejaVuSans-Oblique-54" d="M 378 4666 
L 4325 4666 
L 4225 4134 
L 2559 4134 
L 1759 0 
L 1125 0 
L 1925 4134 
L 275 4134 
L 378 4666 
z
" transform="scale(0.015625)"/>
       <path id="DejaVuSans-Oblique-73" d="M 3200 3397 
L 3091 2853 
Q 2863 2978 2609 3040 
Q 2356 3103 2088 3103 
Q 1634 3103 1373 2948 
Q 1113 2794 1113 2528 
Q 1113 2219 1719 2053 
Q 1766 2041 1788 2034 
L 1972 1978 
Q 2547 1819 2739 1644 
Q 2931 1469 2931 1166 
Q 2931 609 2489 259 
Q 2047 -91 1331 -91 
Q 1053 -91 747 -37 
Q 441 16 72 128 
L 184 722 
Q 500 559 806 475 
Q 1113 391 1394 391 
Q 1816 391 2080 572 
Q 2344 753 2344 1031 
Q 2344 1331 1650 1516 
L 1591 1531 
L 1394 1581 
Q 956 1697 753 1886 
Q 550 2075 550 2369 
Q 550 2928 970 3256 
Q 1391 3584 2113 3584 
Q 2397 3584 2667 3537 
Q 2938 3491 3200 3397 
z
" transform="scale(0.015625)"/>
       <path id="DejaVuSans-Oblique-65" d="M 3078 2063 
Q 3088 2113 3092 2166 
Q 3097 2219 3097 2272 
Q 3097 2653 2873 2875 
Q 2650 3097 2266 3097 
Q 1838 3097 1509 2826 
Q 1181 2556 1013 2059 
L 3078 2063 
z
M 3578 1613 
L 903 1613 
Q 884 1494 878 1425 
Q 872 1356 872 1306 
Q 872 872 1139 634 
Q 1406 397 1894 397 
Q 2269 397 2603 481 
Q 2938 566 3225 728 
L 3116 159 
Q 2806 34 2476 -28 
Q 2147 -91 1806 -91 
Q 1078 -91 686 257 
Q 294 606 294 1247 
Q 294 1794 489 2264 
Q 684 2734 1063 3103 
Q 1306 3334 1642 3459 
Q 1978 3584 2356 3584 
Q 2950 3584 3301 3228 
Q 3653 2872 3653 2272 
Q 3653 2128 3634 1964 
Q 3616 1800 3578 1613 
z
" transform="scale(0.015625)"/>
       <path id="DejaVuSans-2c" d="M 750 794 
L 1409 794 
L 1409 256 
L 897 -744 
L 494 -744 
L 750 256 
L 750 794 
z
" transform="scale(0.015625)"/>
       <path id="DejaVuSans-Oblique-69" d="M 1172 4863 
L 1747 4863 
L 1606 4134 
L 1031 4134 
L 1172 4863 
z
M 909 3500 
L 1484 3500 
L 800 0 
L 225 0 
L 909 3500 
z
" transform="scale(0.015625)"/>
       <path id="DejaVuSans-Oblique-6e" d="M 3566 2113 
L 3156 0 
L 2578 0 
L 2988 2091 
Q 3016 2238 3031 2350 
Q 3047 2463 3047 2528 
Q 3047 2791 2881 2937 
Q 2716 3084 2419 3084 
Q 1956 3084 1622 2776 
Q 1288 2469 1184 1941 
L 800 0 
L 225 0 
L 903 3500 
L 1478 3500 
L 1363 2950 
Q 1603 3253 1940 3418 
Q 2278 3584 2650 3584 
Q 3113 3584 3367 3334 
Q 3622 3084 3622 2631 
Q 3622 2519 3608 2391 
Q 3594 2263 3566 2113 
z
" transform="scale(0.015625)"/>
       <path id="DejaVuSans-b0" d="M 1600 4347 
Q 1350 4347 1178 4173 
Q 1006 4000 1006 3750 
Q 1006 3503 1178 3333 
Q 1350 3163 1600 3163 
Q 1850 3163 2022 3333 
Q 2194 3503 2194 3750 
Q 2194 3997 2020 4172 
Q 1847 4347 1600 4347 
z
M 1600 4750 
Q 1800 4750 1984 4673 
Q 2169 4597 2303 4453 
Q 2447 4313 2519 4134 
Q 2591 3956 2591 3750 
Q 2591 3338 2302 3052 
Q 2013 2766 1594 2766 
Q 1172 2766 890 3047 
Q 609 3328 609 3750 
Q 609 4169 896 4459 
Q 1184 4750 1600 4750 
z
" transform="scale(0.015625)"/>
       <path id="DejaVuSans-43" d="M 4122 4306 
L 4122 3641 
Q 3803 3938 3442 4084 
Q 3081 4231 2675 4231 
Q 1875 4231 1450 3742 
Q 1025 3253 1025 2328 
Q 1025 1406 1450 917 
Q 1875 428 2675 428 
Q 3081 428 3442 575 
Q 3803 722 4122 1019 
L 4122 359 
Q 3791 134 3420 21 
Q 3050 -91 2638 -91 
Q 1578 -91 968 557 
Q 359 1206 359 2328 
Q 359 3453 968 4101 
Q 1578 4750 2638 4750 
Q 3056 4750 3426 4639 
Q 3797 4528 4122 4306 
z
" transform="scale(0.015625)"/>
       <path id="DejaVuSans-394" d="M 2188 4044 
L 906 525 
L 3472 525 
L 2188 4044 
z
M 50 0 
L 1831 4666 
L 2547 4666 
L 4325 0 
L 50 0 
z
" transform="scale(0.015625)"/>
       <path id="DejaVuSans-Oblique-67" d="M 3816 3500 
L 3219 434 
Q 3047 -456 2561 -893 
Q 2075 -1331 1253 -1331 
Q 950 -1331 690 -1286 
Q 431 -1241 206 -1147 
L 313 -588 
Q 525 -725 762 -790 
Q 1000 -856 1269 -856 
Q 1816 -856 2167 -557 
Q 2519 -259 2631 300 
L 2681 563 
Q 2441 288 2122 144 
Q 1803 0 1434 0 
Q 903 0 598 351 
Q 294 703 294 1319 
Q 294 1803 478 2267 
Q 663 2731 997 3091 
Q 1219 3328 1514 3456 
Q 1809 3584 2131 3584 
Q 2484 3584 2746 3420 
Q 3009 3256 3138 2956 
L 3238 3500 
L 3816 3500 
z
M 2950 2216 
Q 2950 2641 2750 2872 
Q 2550 3103 2181 3103 
Q 1953 3103 1747 3012 
Q 1541 2922 1394 2759 
Q 1156 2491 1023 2127 
Q 891 1763 891 1375 
Q 891 944 1092 712 
Q 1294 481 1672 481 
Q 2219 481 2584 976 
Q 2950 1472 2950 2216 
z
" transform="scale(0.015625)"/>
       <path id="DejaVuSans-Oblique-6b" d="M 1172 4863 
L 1747 4863 
L 1197 2028 
L 3169 3500 
L 3916 3500 
L 1716 1825 
L 3322 0 
L 2625 0 
L 1131 1709 
L 800 0 
L 225 0 
L 1172 4863 
z
" transform="scale(0.015625)"/>
       <path id="DejaVuSans-Oblique-6f" d="M 1625 -91 
Q 1009 -91 651 289 
Q 294 669 294 1325 
Q 294 1706 417 2101 
Q 541 2497 738 2766 
Q 1047 3184 1428 3384 
Q 1809 3584 2291 3584 
Q 2888 3584 3255 3212 
Q 3622 2841 3622 2241 
Q 3622 1825 3500 1412 
Q 3378 1000 3181 728 
Q 2875 309 2494 109 
Q 2113 -91 1625 -91 
z
M 891 1344 
Q 891 869 1089 633 
Q 1288 397 1691 397 
Q 2269 397 2648 901 
Q 3028 1406 3028 2181 
Q 3028 2634 2825 2865 
Q 2622 3097 2228 3097 
Q 1903 3097 1650 2945 
Q 1397 2794 1197 2484 
Q 1050 2253 970 1956 
Q 891 1659 891 1344 
z
" transform="scale(0.015625)"/>
       <path id="DejaVuSans-Oblique-62" d="M 3169 2138 
Q 3169 2591 2961 2847 
Q 2753 3103 2388 3103 
Q 2122 3103 1889 2973 
Q 1656 2844 1484 2597 
Q 1303 2338 1198 1995 
Q 1094 1653 1094 1313 
Q 1094 881 1298 636 
Q 1503 391 1863 391 
Q 2134 391 2365 517 
Q 2597 644 2772 891 
Q 2950 1147 3059 1487 
Q 3169 1828 3169 2138 
z
M 1381 2969 
Q 1594 3256 1914 3420 
Q 2234 3584 2584 3584 
Q 3122 3584 3439 3221 
Q 3756 2859 3756 2241 
Q 3756 1734 3570 1259 
Q 3384 784 3041 416 
Q 2816 172 2522 40 
Q 2228 -91 1906 -91 
Q 1566 -91 1316 65 
Q 1066 222 909 531 
L 806 0 
L 231 0 
L 1178 4863 
L 1753 4863 
L 1381 2969 
z
" transform="scale(0.015625)"/>
       <path id="DejaVuSans-3a" d="M 750 794 
L 1409 794 
L 1409 0 
L 750 0 
L 750 794 
z
M 750 3309 
L 1409 3309 
L 1409 2516 
L 750 2516 
L 750 3309 
z
" transform="scale(0.015625)"/>
      </defs>
      <use xlink:href="#DejaVuSans-Oblique-54" transform="translate(0 0.015625)"/>
      <use xlink:href="#DejaVuSans-Oblique-73" transform="translate(61.083984 -16.390625) scale(0.7)"/>
      <use xlink:href="#DejaVuSans-Oblique-65" transform="translate(97.553711 -16.390625) scale(0.7)"/>
      <use xlink:href="#DejaVuSans-2c" transform="translate(140.620117 -16.390625) scale(0.7)"/>
      <use xlink:href="#DejaVuSans-Oblique-65" transform="translate(176.508789 -16.390625) scale(0.7)"/>
      <use xlink:href="#DejaVuSans-Oblique-69" transform="translate(219.575195 -16.390625) scale(0.7)"/>
      <use xlink:href="#DejaVuSans-Oblique-6e" transform="translate(239.023438 -16.390625) scale(0.7)"/>
      <use xlink:href="#DejaVuSans-20" transform="translate(286.123047 0.015625)"/>
      <use xlink:href="#DejaVuSans-5b" transform="translate(317.910156 0.015625)"/>
      <use xlink:href="#DejaVuSans-b0" transform="translate(356.923828 0.015625)"/>
      <use xlink:href="#DejaVuSans-43" transform="translate(406.923828 0.015625)"/>
      <use xlink:href="#DejaVuSans-5d" transform="translate(476.748047 0.015625)"/>
      <use xlink:href="#DejaVuSans-20" transform="translate(515.761719 0.015625)"/>
      <use xlink:href="#DejaVuSans-20" transform="translate(547.548828 0.015625)"/>
      <use xlink:href="#DejaVuSans-20" transform="translate(579.335938 0.015625)"/>
      <use xlink:href="#DejaVuSans-20" transform="translate(611.123047 0.015625)"/>
      <use xlink:href="#DejaVuSans-20" transform="translate(642.910156 0.015625)"/>
      <use xlink:href="#DejaVuSans-20" transform="translate(674.697266 0.015625)"/>
      <use xlink:href="#DejaVuSans-20" transform="translate(706.484375 0.015625)"/>
      <use xlink:href="#DejaVuSans-20" transform="translate(738.271484 0.015625)"/>
      <use xlink:href="#DejaVuSans-20" transform="translate(770.058594 0.015625)"/>
      <use xlink:href="#DejaVuSans-20" transform="translate(801.845703 0.015625)"/>
      <use xlink:href="#DejaVuSans-394" transform="translate(833.632812 0.015625)"/>
      <use xlink:href="#DejaVuSans-Oblique-54" transform="translate(902.041016 0.015625)"/>
      <use xlink:href="#DejaVuSans-Oblique-67" transform="translate(963.125 -16.390625) scale(0.7)"/>
      <use xlink:href="#DejaVuSans-Oblique-6b" transform="translate(1007.558594 -16.390625) scale(0.7)"/>
      <use xlink:href="#DejaVuSans-2c" transform="translate(1048.095703 -16.390625) scale(0.7)"/>
      <use xlink:href="#DejaVuSans-Oblique-6f" transform="translate(1083.984375 -16.390625) scale(0.7)"/>
      <use xlink:href="#DejaVuSans-Oblique-62" transform="translate(1126.811523 -16.390625) scale(0.7)"/>
      <use xlink:href="#DejaVuSans-3a" transform="translate(1173.979492 0.015625)"/>
     </g>
    </g>
    <g id="line2d_38">
     <path d="M 580.857813 737.76 
L 600.857813 737.76 
L 620.857813 737.76 
" style="fill: none; stroke-dasharray: 5.55,2.4; stroke-dashoffset: 0; stroke: #ff0000; stroke-width: 1.5"/>
    </g>
    <g id="text_22">
     <!-- 5 K -->
     <g transform="translate(636.857813 744.76) scale(0.2 -0.2)">
      <defs>
       <path id="DejaVuSans-4b" d="M 628 4666 
L 1259 4666 
L 1259 2694 
L 3353 4666 
L 4166 4666 
L 1850 2491 
L 4331 0 
L 3500 0 
L 1259 2247 
L 1259 0 
L 628 0 
L 628 4666 
z
" transform="scale(0.015625)"/>
      </defs>
      <use xlink:href="#DejaVuSans-35"/>
      <use xlink:href="#DejaVuSans-20" x="63.623047"/>
      <use xlink:href="#DejaVuSans-4b" x="95.410156"/>
     </g>
    </g>
    <g id="line2d_39">
     <path d="M 709.054688 737.76 
L 729.054688 737.76 
L 749.054688 737.76 
" style="fill: none; stroke-dasharray: 5.55,2.4; stroke-dashoffset: 0; stroke: #ffa500; stroke-width: 1.5"/>
    </g>
    <g id="text_23">
     <!-- 10 K -->
     <g transform="translate(765.054688 744.76) scale(0.2 -0.2)">
      <use xlink:href="#DejaVuSans-31"/>
      <use xlink:href="#DejaVuSans-30" x="63.623047"/>
      <use xlink:href="#DejaVuSans-20" x="127.246094"/>
      <use xlink:href="#DejaVuSans-4b" x="159.033203"/>
     </g>
    </g>
    <g id="line2d_40">
     <path d="M 849.976562 737.76 
L 869.976562 737.76 
L 889.976562 737.76 
" style="fill: none; stroke-dasharray: 5.55,2.4; stroke-dashoffset: 0; stroke: #008000; stroke-width: 1.5"/>
    </g>
    <g id="text_24">
     <!-- 15 K -->
     <g transform="translate(905.976562 744.76) scale(0.2 -0.2)">
      <use xlink:href="#DejaVuSans-31"/>
      <use xlink:href="#DejaVuSans-35" x="63.623047"/>
      <use xlink:href="#DejaVuSans-20" x="127.246094"/>
      <use xlink:href="#DejaVuSans-4b" x="159.033203"/>
     </g>
    </g>
    <g id="line2d_41">
     <path d="M 990.898438 737.76 
L 1010.898438 737.76 
L 1030.898438 737.76 
" style="fill: none; stroke-dasharray: 5.55,2.4; stroke-dashoffset: 0; stroke: #4682b4; stroke-width: 1.5"/>
    </g>
    <g id="text_25">
     <!-- 20 K -->
     <g transform="translate(1046.898438 744.76) scale(0.2 -0.2)">
      <use xlink:href="#DejaVuSans-32"/>
      <use xlink:href="#DejaVuSans-30" x="63.623047"/>
      <use xlink:href="#DejaVuSans-20" x="127.246094"/>
      <use xlink:href="#DejaVuSans-4b" x="159.033203"/>
     </g>
    </g>
    <g id="line2d_42">
     <path d="M 1131.820312 737.76 
L 1151.820312 737.76 
L 1171.820312 737.76 
" style="fill: none; stroke-dasharray: 5.55,2.4; stroke-dashoffset: 0; stroke: #8a2be2; stroke-width: 1.5"/>
    </g>
    <g id="text_26">
     <!-- 25 K -->
     <g transform="translate(1187.820312 744.76) scale(0.2 -0.2)">
      <use xlink:href="#DejaVuSans-32"/>
      <use xlink:href="#DejaVuSans-35" x="63.623047"/>
      <use xlink:href="#DejaVuSans-20" x="127.246094"/>
      <use xlink:href="#DejaVuSans-4b" x="159.033203"/>
     </g>
    </g>
   </g>
  </g>
 </g>
 <defs>
  <clipPath id="p0273392564">
   <rect x="180" y="103.68" width="1116" height="665.28"/>
  </clipPath>
 </defs>
</svg>
