<?xml version="1.0" encoding="utf-8" standalone="no"?>
<!DOCTYPE svg PUBLIC "-//W3C//DTD SVG 1.1//EN"
  "http://www.w3.org/Graphics/SVG/1.1/DTD/svg11.dtd">
<svg xmlns:xlink="http://www.w3.org/1999/xlink" width="1440pt" height="864pt" viewBox="0 0 1440 864" xmlns="http://www.w3.org/2000/svg" version="1.1">
 <metadata>
  <rdf:RDF xmlns:dc="http://purl.org/dc/elements/1.1/" xmlns:cc="http://creativecommons.org/ns#" xmlns:rdf="http://www.w3.org/1999/02/22-rdf-syntax-ns#">
   <cc:Work>
    <dc:type rdf:resource="http://purl.org/dc/dcmitype/StillImage"/>
    <dc:date>2023-08-03T13:26:16.846655</dc:date>
    <dc:format>image/svg+xml</dc:format>
    <dc:creator>
     <cc:Agent>
      <dc:title>Matplotlib v3.6.1, https://matplotlib.org/</dc:title>
     </cc:Agent>
    </dc:creator>
   </cc:Work>
  </rdf:RDF>
 </metadata>
 <defs>
  <style type="text/css">*{stroke-linejoin: round; stroke-linecap: butt}</style>
 </defs>
 <g id="figure_1">
  <g id="patch_1">
   <path d="M 0 864 
L 1440 864 
L 1440 0 
L 0 0 
z
" style="fill: #ffffff"/>
  </g>
  <g id="axes_1">
   <g id="patch_2">
    <path d="M 180 768.96 
L 1296 768.96 
L 1296 103.68 
L 180 103.68 
z
" style="fill: #ffffff"/>
   </g>
   <g id="matplotlib.axis_1">
    <g id="xtick_1">
     <g id="line2d_1">
      <path d="M 307.816695 768.96 
L 307.816695 103.68 
" clip-path="url(#pa04502625a)" style="fill: none; stroke: #b0b0b0; stroke-width: 0.8; stroke-linecap: square"/>
     </g>
     <g id="line2d_2">
      <defs>
       <path id="me33edd8c30" d="M 0 0 
L 0 3.5 
" style="stroke: #000000; stroke-width: 0.8"/>
      </defs>
      <g>
       <use xlink:href="#me33edd8c30" x="307.816695" y="768.96" style="stroke: #000000; stroke-width: 0.8"/>
      </g>
     </g>
     <g id="text_1">
      <!-- 40 -->
      <g transform="translate(295.091695 791.156875) scale(0.2 -0.2)">
       <defs>
        <path id="DejaVuSans-34" d="M 2419 4116 
L 825 1625 
L 2419 1625 
L 2419 4116 
z
M 2253 4666 
L 3047 4666 
L 3047 1625 
L 3713 1625 
L 3713 1100 
L 3047 1100 
L 3047 0 
L 2419 0 
L 2419 1100 
L 313 1100 
L 313 1709 
L 2253 4666 
z
" transform="scale(0.015625)"/>
        <path id="DejaVuSans-30" d="M 2034 4250 
Q 1547 4250 1301 3770 
Q 1056 3291 1056 2328 
Q 1056 1369 1301 889 
Q 1547 409 2034 409 
Q 2525 409 2770 889 
Q 3016 1369 3016 2328 
Q 3016 3291 2770 3770 
Q 2525 4250 2034 4250 
z
M 2034 4750 
Q 2819 4750 3233 4129 
Q 3647 3509 3647 2328 
Q 3647 1150 3233 529 
Q 2819 -91 2034 -91 
Q 1250 -91 836 529 
Q 422 1150 422 2328 
Q 422 3509 836 4129 
Q 1250 4750 2034 4750 
z
" transform="scale(0.015625)"/>
       </defs>
       <use xlink:href="#DejaVuSans-34"/>
       <use xlink:href="#DejaVuSans-30" x="63.623047"/>
      </g>
     </g>
    </g>
    <g id="xtick_2">
     <g id="line2d_3">
      <path d="M 494.739252 768.96 
L 494.739252 103.68 
" clip-path="url(#pa04502625a)" style="fill: none; stroke: #b0b0b0; stroke-width: 0.8; stroke-linecap: square"/>
     </g>
     <g id="line2d_4">
      <g>
       <use xlink:href="#me33edd8c30" x="494.739252" y="768.96" style="stroke: #000000; stroke-width: 0.8"/>
      </g>
     </g>
     <g id="text_2">
      <!-- 45 -->
      <g transform="translate(482.014252 791.156875) scale(0.2 -0.2)">
       <defs>
        <path id="DejaVuSans-35" d="M 691 4666 
L 3169 4666 
L 3169 4134 
L 1269 4134 
L 1269 2991 
Q 1406 3038 1543 3061 
Q 1681 3084 1819 3084 
Q 2600 3084 3056 2656 
Q 3513 2228 3513 1497 
Q 3513 744 3044 326 
Q 2575 -91 1722 -91 
Q 1428 -91 1123 -41 
Q 819 9 494 109 
L 494 744 
Q 775 591 1075 516 
Q 1375 441 1709 441 
Q 2250 441 2565 725 
Q 2881 1009 2881 1497 
Q 2881 1984 2565 2268 
Q 2250 2553 1709 2553 
Q 1456 2553 1204 2497 
Q 953 2441 691 2322 
L 691 4666 
z
" transform="scale(0.015625)"/>
       </defs>
       <use xlink:href="#DejaVuSans-34"/>
       <use xlink:href="#DejaVuSans-35" x="63.623047"/>
      </g>
     </g>
    </g>
    <g id="xtick_3">
     <g id="line2d_5">
      <path d="M 681.661808 768.96 
L 681.661808 103.68 
" clip-path="url(#pa04502625a)" style="fill: none; stroke: #b0b0b0; stroke-width: 0.8; stroke-linecap: square"/>
     </g>
     <g id="line2d_6">
      <g>
       <use xlink:href="#me33edd8c30" x="681.661808" y="768.96" style="stroke: #000000; stroke-width: 0.8"/>
      </g>
     </g>
     <g id="text_3">
      <!-- 50 -->
      <g transform="translate(668.936808 791.156875) scale(0.2 -0.2)">
       <use xlink:href="#DejaVuSans-35"/>
       <use xlink:href="#DejaVuSans-30" x="63.623047"/>
      </g>
     </g>
    </g>
    <g id="xtick_4">
     <g id="line2d_7">
      <path d="M 868.584365 768.96 
L 868.584365 103.68 
" clip-path="url(#pa04502625a)" style="fill: none; stroke: #b0b0b0; stroke-width: 0.8; stroke-linecap: square"/>
     </g>
     <g id="line2d_8">
      <g>
       <use xlink:href="#me33edd8c30" x="868.584365" y="768.96" style="stroke: #000000; stroke-width: 0.8"/>
      </g>
     </g>
     <g id="text_4">
      <!-- 55 -->
      <g transform="translate(855.859365 791.156875) scale(0.2 -0.2)">
       <use xlink:href="#DejaVuSans-35"/>
       <use xlink:href="#DejaVuSans-35" x="63.623047"/>
      </g>
     </g>
    </g>
    <g id="xtick_5">
     <g id="line2d_9">
      <path d="M 1055.506922 768.96 
L 1055.506922 103.68 
" clip-path="url(#pa04502625a)" style="fill: none; stroke: #b0b0b0; stroke-width: 0.8; stroke-linecap: square"/>
     </g>
     <g id="line2d_10">
      <g>
       <use xlink:href="#me33edd8c30" x="1055.506922" y="768.96" style="stroke: #000000; stroke-width: 0.8"/>
      </g>
     </g>
     <g id="text_5">
      <!-- 60 -->
      <g transform="translate(1042.781922 791.156875) scale(0.2 -0.2)">
       <defs>
        <path id="DejaVuSans-36" d="M 2113 2584 
Q 1688 2584 1439 2293 
Q 1191 2003 1191 1497 
Q 1191 994 1439 701 
Q 1688 409 2113 409 
Q 2538 409 2786 701 
Q 3034 994 3034 1497 
Q 3034 2003 2786 2293 
Q 2538 2584 2113 2584 
z
M 3366 4563 
L 3366 3988 
Q 3128 4100 2886 4159 
Q 2644 4219 2406 4219 
Q 1781 4219 1451 3797 
Q 1122 3375 1075 2522 
Q 1259 2794 1537 2939 
Q 1816 3084 2150 3084 
Q 2853 3084 3261 2657 
Q 3669 2231 3669 1497 
Q 3669 778 3244 343 
Q 2819 -91 2113 -91 
Q 1303 -91 875 529 
Q 447 1150 447 2328 
Q 447 3434 972 4092 
Q 1497 4750 2381 4750 
Q 2619 4750 2861 4703 
Q 3103 4656 3366 4563 
z
" transform="scale(0.015625)"/>
       </defs>
       <use xlink:href="#DejaVuSans-36"/>
       <use xlink:href="#DejaVuSans-30" x="63.623047"/>
      </g>
     </g>
    </g>
    <g id="xtick_6">
     <g id="line2d_11">
      <path d="M 1242.429478 768.96 
L 1242.429478 103.68 
" clip-path="url(#pa04502625a)" style="fill: none; stroke: #b0b0b0; stroke-width: 0.8; stroke-linecap: square"/>
     </g>
     <g id="line2d_12">
      <g>
       <use xlink:href="#me33edd8c30" x="1242.429478" y="768.96" style="stroke: #000000; stroke-width: 0.8"/>
      </g>
     </g>
     <g id="text_6">
      <!-- 65 -->
      <g transform="translate(1229.704478 791.156875) scale(0.2 -0.2)">
       <use xlink:href="#DejaVuSans-36"/>
       <use xlink:href="#DejaVuSans-35" x="63.623047"/>
      </g>
     </g>
    </g>
    <g id="text_7">
     <!-- Gaskühlerdruck [bar] -->
     <g transform="translate(632.239063 814.513125) scale(0.2 -0.2)">
      <defs>
       <path id="DejaVuSans-47" d="M 3809 666 
L 3809 1919 
L 2778 1919 
L 2778 2438 
L 4434 2438 
L 4434 434 
Q 4069 175 3628 42 
Q 3188 -91 2688 -91 
Q 1594 -91 976 548 
Q 359 1188 359 2328 
Q 359 3472 976 4111 
Q 1594 4750 2688 4750 
Q 3144 4750 3555 4637 
Q 3966 4525 4313 4306 
L 4313 3634 
Q 3963 3931 3569 4081 
Q 3175 4231 2741 4231 
Q 1884 4231 1454 3753 
Q 1025 3275 1025 2328 
Q 1025 1384 1454 906 
Q 1884 428 2741 428 
Q 3075 428 3337 486 
Q 3600 544 3809 666 
z
" transform="scale(0.015625)"/>
       <path id="DejaVuSans-61" d="M 2194 1759 
Q 1497 1759 1228 1600 
Q 959 1441 959 1056 
Q 959 750 1161 570 
Q 1363 391 1709 391 
Q 2188 391 2477 730 
Q 2766 1069 2766 1631 
L 2766 1759 
L 2194 1759 
z
M 3341 1997 
L 3341 0 
L 2766 0 
L 2766 531 
Q 2569 213 2275 61 
Q 1981 -91 1556 -91 
Q 1019 -91 701 211 
Q 384 513 384 1019 
Q 384 1609 779 1909 
Q 1175 2209 1959 2209 
L 2766 2209 
L 2766 2266 
Q 2766 2663 2505 2880 
Q 2244 3097 1772 3097 
Q 1472 3097 1187 3025 
Q 903 2953 641 2809 
L 641 3341 
Q 956 3463 1253 3523 
Q 1550 3584 1831 3584 
Q 2591 3584 2966 3190 
Q 3341 2797 3341 1997 
z
" transform="scale(0.015625)"/>
       <path id="DejaVuSans-73" d="M 2834 3397 
L 2834 2853 
Q 2591 2978 2328 3040 
Q 2066 3103 1784 3103 
Q 1356 3103 1142 2972 
Q 928 2841 928 2578 
Q 928 2378 1081 2264 
Q 1234 2150 1697 2047 
L 1894 2003 
Q 2506 1872 2764 1633 
Q 3022 1394 3022 966 
Q 3022 478 2636 193 
Q 2250 -91 1575 -91 
Q 1294 -91 989 -36 
Q 684 19 347 128 
L 347 722 
Q 666 556 975 473 
Q 1284 391 1588 391 
Q 1994 391 2212 530 
Q 2431 669 2431 922 
Q 2431 1156 2273 1281 
Q 2116 1406 1581 1522 
L 1381 1569 
Q 847 1681 609 1914 
Q 372 2147 372 2553 
Q 372 3047 722 3315 
Q 1072 3584 1716 3584 
Q 2034 3584 2315 3537 
Q 2597 3491 2834 3397 
z
" transform="scale(0.015625)"/>
       <path id="DejaVuSans-6b" d="M 581 4863 
L 1159 4863 
L 1159 1991 
L 2875 3500 
L 3609 3500 
L 1753 1863 
L 3688 0 
L 2938 0 
L 1159 1709 
L 1159 0 
L 581 0 
L 581 4863 
z
" transform="scale(0.015625)"/>
       <path id="DejaVuSans-fc" d="M 544 1381 
L 544 3500 
L 1119 3500 
L 1119 1403 
Q 1119 906 1312 657 
Q 1506 409 1894 409 
Q 2359 409 2629 706 
Q 2900 1003 2900 1516 
L 2900 3500 
L 3475 3500 
L 3475 0 
L 2900 0 
L 2900 538 
Q 2691 219 2414 64 
Q 2138 -91 1772 -91 
Q 1169 -91 856 284 
Q 544 659 544 1381 
z
M 1991 3584 
L 1991 3584 
z
M 2278 4850 
L 2912 4850 
L 2912 4219 
L 2278 4219 
L 2278 4850 
z
M 1056 4850 
L 1690 4850 
L 1690 4219 
L 1056 4219 
L 1056 4850 
z
" transform="scale(0.015625)"/>
       <path id="DejaVuSans-68" d="M 3513 2113 
L 3513 0 
L 2938 0 
L 2938 2094 
Q 2938 2591 2744 2837 
Q 2550 3084 2163 3084 
Q 1697 3084 1428 2787 
Q 1159 2491 1159 1978 
L 1159 0 
L 581 0 
L 581 4863 
L 1159 4863 
L 1159 2956 
Q 1366 3272 1645 3428 
Q 1925 3584 2291 3584 
Q 2894 3584 3203 3211 
Q 3513 2838 3513 2113 
z
" transform="scale(0.015625)"/>
       <path id="DejaVuSans-6c" d="M 603 4863 
L 1178 4863 
L 1178 0 
L 603 0 
L 603 4863 
z
" transform="scale(0.015625)"/>
       <path id="DejaVuSans-65" d="M 3597 1894 
L 3597 1613 
L 953 1613 
Q 991 1019 1311 708 
Q 1631 397 2203 397 
Q 2534 397 2845 478 
Q 3156 559 3463 722 
L 3463 178 
Q 3153 47 2828 -22 
Q 2503 -91 2169 -91 
Q 1331 -91 842 396 
Q 353 884 353 1716 
Q 353 2575 817 3079 
Q 1281 3584 2069 3584 
Q 2775 3584 3186 3129 
Q 3597 2675 3597 1894 
z
M 3022 2063 
Q 3016 2534 2758 2815 
Q 2500 3097 2075 3097 
Q 1594 3097 1305 2825 
Q 1016 2553 972 2059 
L 3022 2063 
z
" transform="scale(0.015625)"/>
       <path id="DejaVuSans-72" d="M 2631 2963 
Q 2534 3019 2420 3045 
Q 2306 3072 2169 3072 
Q 1681 3072 1420 2755 
Q 1159 2438 1159 1844 
L 1159 0 
L 581 0 
L 581 3500 
L 1159 3500 
L 1159 2956 
Q 1341 3275 1631 3429 
Q 1922 3584 2338 3584 
Q 2397 3584 2469 3576 
Q 2541 3569 2628 3553 
L 2631 2963 
z
" transform="scale(0.015625)"/>
       <path id="DejaVuSans-64" d="M 2906 2969 
L 2906 4863 
L 3481 4863 
L 3481 0 
L 2906 0 
L 2906 525 
Q 2725 213 2448 61 
Q 2172 -91 1784 -91 
Q 1150 -91 751 415 
Q 353 922 353 1747 
Q 353 2572 751 3078 
Q 1150 3584 1784 3584 
Q 2172 3584 2448 3432 
Q 2725 3281 2906 2969 
z
M 947 1747 
Q 947 1113 1208 752 
Q 1469 391 1925 391 
Q 2381 391 2643 752 
Q 2906 1113 2906 1747 
Q 2906 2381 2643 2742 
Q 2381 3103 1925 3103 
Q 1469 3103 1208 2742 
Q 947 2381 947 1747 
z
" transform="scale(0.015625)"/>
       <path id="DejaVuSans-75" d="M 544 1381 
L 544 3500 
L 1119 3500 
L 1119 1403 
Q 1119 906 1312 657 
Q 1506 409 1894 409 
Q 2359 409 2629 706 
Q 2900 1003 2900 1516 
L 2900 3500 
L 3475 3500 
L 3475 0 
L 2900 0 
L 2900 538 
Q 2691 219 2414 64 
Q 2138 -91 1772 -91 
Q 1169 -91 856 284 
Q 544 659 544 1381 
z
M 1991 3584 
L 1991 3584 
z
" transform="scale(0.015625)"/>
       <path id="DejaVuSans-63" d="M 3122 3366 
L 3122 2828 
Q 2878 2963 2633 3030 
Q 2388 3097 2138 3097 
Q 1578 3097 1268 2742 
Q 959 2388 959 1747 
Q 959 1106 1268 751 
Q 1578 397 2138 397 
Q 2388 397 2633 464 
Q 2878 531 3122 666 
L 3122 134 
Q 2881 22 2623 -34 
Q 2366 -91 2075 -91 
Q 1284 -91 818 406 
Q 353 903 353 1747 
Q 353 2603 823 3093 
Q 1294 3584 2113 3584 
Q 2378 3584 2631 3529 
Q 2884 3475 3122 3366 
z
" transform="scale(0.015625)"/>
       <path id="DejaVuSans-20" transform="scale(0.015625)"/>
       <path id="DejaVuSans-5b" d="M 550 4863 
L 1875 4863 
L 1875 4416 
L 1125 4416 
L 1125 -397 
L 1875 -397 
L 1875 -844 
L 550 -844 
L 550 4863 
z
" transform="scale(0.015625)"/>
       <path id="DejaVuSans-62" d="M 3116 1747 
Q 3116 2381 2855 2742 
Q 2594 3103 2138 3103 
Q 1681 3103 1420 2742 
Q 1159 2381 1159 1747 
Q 1159 1113 1420 752 
Q 1681 391 2138 391 
Q 2594 391 2855 752 
Q 3116 1113 3116 1747 
z
M 1159 2969 
Q 1341 3281 1617 3432 
Q 1894 3584 2278 3584 
Q 2916 3584 3314 3078 
Q 3713 2572 3713 1747 
Q 3713 922 3314 415 
Q 2916 -91 2278 -91 
Q 1894 -91 1617 61 
Q 1341 213 1159 525 
L 1159 0 
L 581 0 
L 581 4863 
L 1159 4863 
L 1159 2969 
z
" transform="scale(0.015625)"/>
       <path id="DejaVuSans-5d" d="M 1947 4863 
L 1947 -844 
L 622 -844 
L 622 -397 
L 1369 -397 
L 1369 4416 
L 622 4416 
L 622 4863 
L 1947 4863 
z
" transform="scale(0.015625)"/>
      </defs>
      <use xlink:href="#DejaVuSans-47"/>
      <use xlink:href="#DejaVuSans-61" x="77.490234"/>
      <use xlink:href="#DejaVuSans-73" x="138.769531"/>
      <use xlink:href="#DejaVuSans-6b" x="190.869141"/>
      <use xlink:href="#DejaVuSans-fc" x="245.654297"/>
      <use xlink:href="#DejaVuSans-68" x="309.033203"/>
      <use xlink:href="#DejaVuSans-6c" x="372.412109"/>
      <use xlink:href="#DejaVuSans-65" x="400.195312"/>
      <use xlink:href="#DejaVuSans-72" x="461.71875"/>
      <use xlink:href="#DejaVuSans-64" x="501.082031"/>
      <use xlink:href="#DejaVuSans-72" x="564.558594"/>
      <use xlink:href="#DejaVuSans-75" x="605.671875"/>
      <use xlink:href="#DejaVuSans-63" x="669.050781"/>
      <use xlink:href="#DejaVuSans-6b" x="724.03125"/>
      <use xlink:href="#DejaVuSans-20" x="781.941406"/>
      <use xlink:href="#DejaVuSans-5b" x="813.728516"/>
      <use xlink:href="#DejaVuSans-62" x="852.742188"/>
      <use xlink:href="#DejaVuSans-61" x="916.21875"/>
      <use xlink:href="#DejaVuSans-72" x="977.498047"/>
      <use xlink:href="#DejaVuSans-5d" x="1018.611328"/>
     </g>
    </g>
   </g>
   <g id="matplotlib.axis_2">
    <g id="ytick_1">
     <g id="line2d_13">
      <path d="M 180 768.96 
L 1296 768.96 
" clip-path="url(#pa04502625a)" style="fill: none; stroke: #b0b0b0; stroke-width: 0.8; stroke-linecap: square"/>
     </g>
     <g id="line2d_14">
      <defs>
       <path id="m5a9bf88e84" d="M 0 0 
L -3.5 0 
" style="stroke: #000000; stroke-width: 0.8"/>
      </defs>
      <g>
       <use xlink:href="#m5a9bf88e84" x="180" y="768.96" style="stroke: #000000; stroke-width: 0.8"/>
      </g>
     </g>
     <g id="text_8">
      <!-- 45 -->
      <g transform="translate(147.55 776.558438) scale(0.2 -0.2)">
       <use xlink:href="#DejaVuSans-34"/>
       <use xlink:href="#DejaVuSans-35" x="63.623047"/>
      </g>
     </g>
    </g>
    <g id="ytick_2">
     <g id="line2d_15">
      <path d="M 180 661.656774 
L 1296 661.656774 
" clip-path="url(#pa04502625a)" style="fill: none; stroke: #b0b0b0; stroke-width: 0.8; stroke-linecap: square"/>
     </g>
     <g id="line2d_16">
      <g>
       <use xlink:href="#m5a9bf88e84" x="180" y="661.656774" style="stroke: #000000; stroke-width: 0.8"/>
      </g>
     </g>
     <g id="text_9">
      <!-- 50 -->
      <g transform="translate(147.55 669.255212) scale(0.2 -0.2)">
       <use xlink:href="#DejaVuSans-35"/>
       <use xlink:href="#DejaVuSans-30" x="63.623047"/>
      </g>
     </g>
    </g>
    <g id="ytick_3">
     <g id="line2d_17">
      <path d="M 180 554.353548 
L 1296 554.353548 
" clip-path="url(#pa04502625a)" style="fill: none; stroke: #b0b0b0; stroke-width: 0.8; stroke-linecap: square"/>
     </g>
     <g id="line2d_18">
      <g>
       <use xlink:href="#m5a9bf88e84" x="180" y="554.353548" style="stroke: #000000; stroke-width: 0.8"/>
      </g>
     </g>
     <g id="text_10">
      <!-- 55 -->
      <g transform="translate(147.55 561.951986) scale(0.2 -0.2)">
       <use xlink:href="#DejaVuSans-35"/>
       <use xlink:href="#DejaVuSans-35" x="63.623047"/>
      </g>
     </g>
    </g>
    <g id="ytick_4">
     <g id="line2d_19">
      <path d="M 180 447.050323 
L 1296 447.050323 
" clip-path="url(#pa04502625a)" style="fill: none; stroke: #b0b0b0; stroke-width: 0.8; stroke-linecap: square"/>
     </g>
     <g id="line2d_20">
      <g>
       <use xlink:href="#m5a9bf88e84" x="180" y="447.050323" style="stroke: #000000; stroke-width: 0.8"/>
      </g>
     </g>
     <g id="text_11">
      <!-- 60 -->
      <g transform="translate(147.55 454.64876) scale(0.2 -0.2)">
       <use xlink:href="#DejaVuSans-36"/>
       <use xlink:href="#DejaVuSans-30" x="63.623047"/>
      </g>
     </g>
    </g>
    <g id="ytick_5">
     <g id="line2d_21">
      <path d="M 180 339.747097 
L 1296 339.747097 
" clip-path="url(#pa04502625a)" style="fill: none; stroke: #b0b0b0; stroke-width: 0.8; stroke-linecap: square"/>
     </g>
     <g id="line2d_22">
      <g>
       <use xlink:href="#m5a9bf88e84" x="180" y="339.747097" style="stroke: #000000; stroke-width: 0.8"/>
      </g>
     </g>
     <g id="text_12">
      <!-- 65 -->
      <g transform="translate(147.55 347.345534) scale(0.2 -0.2)">
       <use xlink:href="#DejaVuSans-36"/>
       <use xlink:href="#DejaVuSans-35" x="63.623047"/>
      </g>
     </g>
    </g>
    <g id="ytick_6">
     <g id="line2d_23">
      <path d="M 180 232.443871 
L 1296 232.443871 
" clip-path="url(#pa04502625a)" style="fill: none; stroke: #b0b0b0; stroke-width: 0.8; stroke-linecap: square"/>
     </g>
     <g id="line2d_24">
      <g>
       <use xlink:href="#m5a9bf88e84" x="180" y="232.443871" style="stroke: #000000; stroke-width: 0.8"/>
      </g>
     </g>
     <g id="text_13">
      <!-- 70 -->
      <g transform="translate(147.55 240.042308) scale(0.2 -0.2)">
       <defs>
        <path id="DejaVuSans-37" d="M 525 4666 
L 3525 4666 
L 3525 4397 
L 1831 0 
L 1172 0 
L 2766 4134 
L 525 4134 
L 525 4666 
z
" transform="scale(0.015625)"/>
       </defs>
       <use xlink:href="#DejaVuSans-37"/>
       <use xlink:href="#DejaVuSans-30" x="63.623047"/>
      </g>
     </g>
    </g>
    <g id="ytick_7">
     <g id="line2d_25">
      <path d="M 180 125.140645 
L 1296 125.140645 
" clip-path="url(#pa04502625a)" style="fill: none; stroke: #b0b0b0; stroke-width: 0.8; stroke-linecap: square"/>
     </g>
     <g id="line2d_26">
      <g>
       <use xlink:href="#m5a9bf88e84" x="180" y="125.140645" style="stroke: #000000; stroke-width: 0.8"/>
      </g>
     </g>
     <g id="text_14">
      <!-- 75 -->
      <g transform="translate(147.55 132.739083) scale(0.2 -0.2)">
       <use xlink:href="#DejaVuSans-37"/>
       <use xlink:href="#DejaVuSans-35" x="63.623047"/>
      </g>
     </g>
    </g>
    <g id="text_15">
     <!-- exergetischer Wirkungsgrad [%] -->
     <g transform="translate(139.390625 597.362187) rotate(-90) scale(0.2 -0.2)">
      <defs>
       <path id="DejaVuSans-78" d="M 3513 3500 
L 2247 1797 
L 3578 0 
L 2900 0 
L 1881 1375 
L 863 0 
L 184 0 
L 1544 1831 
L 300 3500 
L 978 3500 
L 1906 2253 
L 2834 3500 
L 3513 3500 
z
" transform="scale(0.015625)"/>
       <path id="DejaVuSans-67" d="M 2906 1791 
Q 2906 2416 2648 2759 
Q 2391 3103 1925 3103 
Q 1463 3103 1205 2759 
Q 947 2416 947 1791 
Q 947 1169 1205 825 
Q 1463 481 1925 481 
Q 2391 481 2648 825 
Q 2906 1169 2906 1791 
z
M 3481 434 
Q 3481 -459 3084 -895 
Q 2688 -1331 1869 -1331 
Q 1566 -1331 1297 -1286 
Q 1028 -1241 775 -1147 
L 775 -588 
Q 1028 -725 1275 -790 
Q 1522 -856 1778 -856 
Q 2344 -856 2625 -561 
Q 2906 -266 2906 331 
L 2906 616 
Q 2728 306 2450 153 
Q 2172 0 1784 0 
Q 1141 0 747 490 
Q 353 981 353 1791 
Q 353 2603 747 3093 
Q 1141 3584 1784 3584 
Q 2172 3584 2450 3431 
Q 2728 3278 2906 2969 
L 2906 3500 
L 3481 3500 
L 3481 434 
z
" transform="scale(0.015625)"/>
       <path id="DejaVuSans-74" d="M 1172 4494 
L 1172 3500 
L 2356 3500 
L 2356 3053 
L 1172 3053 
L 1172 1153 
Q 1172 725 1289 603 
Q 1406 481 1766 481 
L 2356 481 
L 2356 0 
L 1766 0 
Q 1100 0 847 248 
Q 594 497 594 1153 
L 594 3053 
L 172 3053 
L 172 3500 
L 594 3500 
L 594 4494 
L 1172 4494 
z
" transform="scale(0.015625)"/>
       <path id="DejaVuSans-69" d="M 603 3500 
L 1178 3500 
L 1178 0 
L 603 0 
L 603 3500 
z
M 603 4863 
L 1178 4863 
L 1178 4134 
L 603 4134 
L 603 4863 
z
" transform="scale(0.015625)"/>
       <path id="DejaVuSans-57" d="M 213 4666 
L 850 4666 
L 1831 722 
L 2809 4666 
L 3519 4666 
L 4500 722 
L 5478 4666 
L 6119 4666 
L 4947 0 
L 4153 0 
L 3169 4050 
L 2175 0 
L 1381 0 
L 213 4666 
z
" transform="scale(0.015625)"/>
       <path id="DejaVuSans-6e" d="M 3513 2113 
L 3513 0 
L 2938 0 
L 2938 2094 
Q 2938 2591 2744 2837 
Q 2550 3084 2163 3084 
Q 1697 3084 1428 2787 
Q 1159 2491 1159 1978 
L 1159 0 
L 581 0 
L 581 3500 
L 1159 3500 
L 1159 2956 
Q 1366 3272 1645 3428 
Q 1925 3584 2291 3584 
Q 2894 3584 3203 3211 
Q 3513 2838 3513 2113 
z
" transform="scale(0.015625)"/>
       <path id="DejaVuSans-25" d="M 4653 2053 
Q 4381 2053 4226 1822 
Q 4072 1591 4072 1178 
Q 4072 772 4226 539 
Q 4381 306 4653 306 
Q 4919 306 5073 539 
Q 5228 772 5228 1178 
Q 5228 1588 5073 1820 
Q 4919 2053 4653 2053 
z
M 4653 2450 
Q 5147 2450 5437 2106 
Q 5728 1763 5728 1178 
Q 5728 594 5436 251 
Q 5144 -91 4653 -91 
Q 4153 -91 3862 251 
Q 3572 594 3572 1178 
Q 3572 1766 3864 2108 
Q 4156 2450 4653 2450 
z
M 1428 4353 
Q 1159 4353 1004 4120 
Q 850 3888 850 3481 
Q 850 3069 1003 2837 
Q 1156 2606 1428 2606 
Q 1700 2606 1854 2837 
Q 2009 3069 2009 3481 
Q 2009 3884 1853 4118 
Q 1697 4353 1428 4353 
z
M 4250 4750 
L 4750 4750 
L 1831 -91 
L 1331 -91 
L 4250 4750 
z
M 1428 4750 
Q 1922 4750 2215 4408 
Q 2509 4066 2509 3481 
Q 2509 2891 2217 2550 
Q 1925 2209 1428 2209 
Q 931 2209 642 2551 
Q 353 2894 353 3481 
Q 353 4063 643 4406 
Q 934 4750 1428 4750 
z
" transform="scale(0.015625)"/>
      </defs>
      <use xlink:href="#DejaVuSans-65"/>
      <use xlink:href="#DejaVuSans-78" x="59.773438"/>
      <use xlink:href="#DejaVuSans-65" x="115.828125"/>
      <use xlink:href="#DejaVuSans-72" x="177.351562"/>
      <use xlink:href="#DejaVuSans-67" x="216.714844"/>
      <use xlink:href="#DejaVuSans-65" x="280.191406"/>
      <use xlink:href="#DejaVuSans-74" x="341.714844"/>
      <use xlink:href="#DejaVuSans-69" x="380.923828"/>
      <use xlink:href="#DejaVuSans-73" x="408.707031"/>
      <use xlink:href="#DejaVuSans-63" x="460.806641"/>
      <use xlink:href="#DejaVuSans-68" x="515.787109"/>
      <use xlink:href="#DejaVuSans-65" x="579.166016"/>
      <use xlink:href="#DejaVuSans-72" x="640.689453"/>
      <use xlink:href="#DejaVuSans-20" x="681.802734"/>
      <use xlink:href="#DejaVuSans-57" x="713.589844"/>
      <use xlink:href="#DejaVuSans-69" x="810.216797"/>
      <use xlink:href="#DejaVuSans-72" x="838"/>
      <use xlink:href="#DejaVuSans-6b" x="879.113281"/>
      <use xlink:href="#DejaVuSans-75" x="933.898438"/>
      <use xlink:href="#DejaVuSans-6e" x="997.277344"/>
      <use xlink:href="#DejaVuSans-67" x="1060.65625"/>
      <use xlink:href="#DejaVuSans-73" x="1124.132812"/>
      <use xlink:href="#DejaVuSans-67" x="1176.232422"/>
      <use xlink:href="#DejaVuSans-72" x="1239.708984"/>
      <use xlink:href="#DejaVuSans-61" x="1280.822266"/>
      <use xlink:href="#DejaVuSans-64" x="1342.101562"/>
      <use xlink:href="#DejaVuSans-20" x="1405.578125"/>
      <use xlink:href="#DejaVuSans-5b" x="1437.365234"/>
      <use xlink:href="#DejaVuSans-25" x="1476.378906"/>
      <use xlink:href="#DejaVuSans-5d" x="1571.398438"/>
     </g>
    </g>
   </g>
   <g id="line2d_27">
    <path d="M 233.047672 764.436219 
L 245.824657 756.872217 
L 258.601642 749.237305 
L 271.378627 741.523794 
L 284.155612 733.723637 
L 296.932597 725.828387 
L 309.709582 717.829163 
L 322.486567 709.7166 
L 335.263551 701.480816 
L 348.040536 693.111376 
L 360.817521 684.597266 
L 373.594506 675.926881 
L 386.371491 667.088032 
L 399.148476 658.067988 
L 411.925461 648.853572 
L 424.702446 639.431319 
L 437.479431 629.787746 
L 450.256415 619.90977 
L 463.0334 609.785317 
L 475.810385 599.404223 
L 488.58737 588.759473 
L 501.364355 577.848889 
L 514.14134 566.677318 
L 526.918325 555.259311 
L 539.69531 543.622153 
L 552.472295 531.808883 
L 565.249279 519.880623 
L 578.026264 507.917309 
L 590.803249 496.015834 
L 603.580234 484.285033 
L 616.357219 472.837805 
L 629.134204 461.781765 
L 641.911189 451.210479 
L 654.688174 441.197192 
L 667.465158 431.792004 
L 680.242143 423.022292 
L 693.019128 414.895436 
L 705.796113 407.402675 
L 718.573098 400.523173 
L 731.350083 394.227762 
L 744.127068 388.481999 
L 756.904053 383.248655 
L 769.681038 378.48955 
L 782.458022 374.166891 
L 795.235007 370.244192 
L 808.011992 366.686873 
L 820.788977 363.462612 
L 833.565962 360.541511 
L 846.342947 357.896133 
L 859.119932 355.501451 
L 871.896917 353.334735 
L 884.673901 351.375409 
L 897.450886 349.604887 
L 910.227871 348.0064 
L 923.004856 346.564836 
L 935.781841 345.266573 
L 948.558826 344.099333 
L 961.335811 343.052044 
L 974.112796 342.11471 
L 986.889781 341.278303 
L 999.666765 340.534655 
L 1012.44375 339.876371 
L 1025.220735 339.296744 
L 1037.99772 338.789684 
L 1050.774705 338.349654 
L 1063.55169 337.971611 
L 1076.328675 337.650955 
L 1089.10566 337.383486 
L 1101.882645 337.165364 
L 1114.659629 336.993069 
L 1127.436614 336.863376 
L 1140.213599 336.77332 
L 1152.990584 336.720178 
L 1165.767569 336.701439 
L 1178.544554 336.71479 
L 1191.321539 336.758095 
L 1204.098524 336.829382 
L 1216.875508 336.926823 
L 1229.652493 337.048728 
L 1242.429478 337.193527 
" clip-path="url(#pa04502625a)" style="fill: none; stroke: #000000; stroke-width: 1.5; stroke-linecap: square"/>
   </g>
   <g id="line2d_28">
    <path d="M 233.047672 680.985387 
L 245.824657 668.954371 
L 258.601642 656.402625 
L 271.378627 643.244321 
L 284.155612 629.373577 
L 296.932597 614.658002 
L 309.709582 598.929945 
L 322.486567 581.974938 
L 335.263551 563.517795 
L 348.040536 543.210594 
L 360.817521 520.639543 
L 373.594506 495.404381 
L 386.371491 467.396669 
L 399.148476 437.389593 
L 411.925461 407.479095 
L 424.702446 380.259087 
L 437.479431 357.307395 
L 450.256415 338.836465 
L 463.0334 324.279309 
L 475.810385 312.850508 
L 488.58737 303.829231 
L 501.364355 296.643581 
L 514.14134 290.865477 
L 526.918325 286.180131 
L 539.69531 282.355737 
L 552.472295 279.219803 
L 565.249279 276.642155 
L 578.026264 274.523029 
L 590.803249 272.784835 
L 603.580234 271.366347 
L 616.357219 270.218614 
L 629.134204 269.302024 
L 641.911189 268.584164 
L 654.688174 268.038247 
L 667.465158 267.641928 
L 680.242143 267.376418 
L 693.019128 267.225792 
L 705.796113 267.176467 
L 718.573098 267.216772 
L 731.350083 267.336633 
L 744.127068 267.527304 
L 756.904053 267.781154 
L 769.681038 268.091494 
L 782.458022 268.452443 
L 795.235007 268.858802 
L 808.011992 269.305963 
L 820.788977 269.789831 
L 833.565962 270.30675 
L 846.342947 270.853453 
L 859.119932 271.427006 
L 871.896917 272.024778 
L 884.673901 272.644394 
L 897.450886 273.28371 
L 910.227871 273.940787 
L 923.004856 274.613868 
L 935.781841 275.301359 
L 948.558826 276.001809 
L 961.335811 276.713897 
L 974.112796 277.436421 
L 986.889781 278.16828 
L 999.666765 278.908471 
L 1012.44375 279.656074 
L 1025.220735 280.410248 
L 1037.99772 281.170222 
L 1050.774705 281.935287 
L 1063.55169 282.704794 
L 1076.328675 283.478145 
L 1089.10566 284.254792 
L 1101.882645 285.03423 
L 1114.659629 285.815995 
L 1127.436614 286.599657 
L 1140.213599 287.384825 
L 1152.990584 288.171134 
L 1165.767569 288.958251 
L 1178.544554 289.745866 
L 1191.321539 290.533697 
L 1204.098524 291.321481 
L 1216.875508 292.108977 
L 1229.652493 292.895963 
L 1242.429478 293.682235 
" clip-path="url(#pa04502625a)" style="fill: none; stroke: #000000; stroke-width: 1.5; stroke-linecap: square"/>
   </g>
   <g id="line2d_29">
    <path d="M 240.524575 160.356763 
L 253.206915 159.355127 
L 265.889256 158.938622 
L 278.571596 158.952245 
L 291.253937 159.292277 
L 303.936277 159.88582 
L 316.618618 160.679682 
L 329.300959 161.633893 
L 341.983299 162.717698 
L 354.66564 163.90697 
L 367.34798 165.182475 
L 380.030321 166.528669 
L 392.712661 167.932846 
L 405.395002 169.384517 
L 418.077342 170.874949 
L 430.759683 172.39682 
L 443.442024 173.943948 
L 456.124364 175.511088 
L 468.806705 177.093771 
L 481.489045 178.688167 
L 494.171386 180.290989 
L 506.853726 181.899403 
L 519.536067 183.510964 
L 532.218407 185.123553 
L 544.900748 186.735336 
L 557.583088 188.344721 
L 570.265429 189.950326 
L 582.94777 191.550952 
L 595.63011 193.145556 
L 608.312451 194.733236 
L 620.994791 196.31321 
L 633.677132 197.8848 
L 646.359472 199.447426 
L 659.041813 201.000585 
L 671.724153 202.54385 
L 684.406494 204.076856 
L 697.088835 205.599297 
L 709.771175 207.110916 
L 722.453516 208.6115 
L 735.135856 210.100877 
L 747.818197 211.57891 
L 760.500537 213.045491 
L 773.182878 214.500545 
L 785.865218 215.944016 
L 798.547559 217.375875 
L 811.229899 218.79611 
L 823.91224 220.204727 
L 836.594581 221.601747 
L 849.276921 222.987207 
L 861.959262 224.361155 
L 874.641602 225.723648 
L 887.323943 227.074756 
L 900.006283 228.414555 
L 912.688624 229.743129 
L 925.370964 231.060571 
L 938.053305 232.366976 
L 950.735646 233.662446 
L 963.417986 234.947087 
L 976.100327 236.22101 
L 988.782667 237.484327 
L 1001.465008 238.737155 
L 1014.147348 239.97961 
L 1026.829689 241.211814 
L 1039.512029 242.433888 
L 1052.19437 243.645955 
L 1064.876711 244.848137 
L 1077.559051 246.04056 
L 1090.241392 247.223348 
L 1102.923732 248.396625 
L 1115.606073 249.560517 
L 1128.288413 250.715147 
L 1140.970754 251.860641 
L 1153.653094 252.997121 
L 1166.335435 254.12471 
L 1179.017775 255.243532 
L 1191.700116 256.353707 
L 1204.382457 257.455356 
L 1217.064797 258.548598 
L 1229.747138 259.633551 
L 1242.429478 260.710333 
" clip-path="url(#pa04502625a)" style="fill: none; stroke: #000000; stroke-width: 1.5; stroke-linecap: square"/>
   </g>
   <g id="line2d_30">
    <path d="M 438.662485 122.217836 
L 448.83675 124.278876 
L 459.011016 126.31444 
L 469.185282 128.325005 
L 479.359548 130.31104 
L 489.533813 132.273001 
L 499.708079 134.211339 
L 509.882345 136.126494 
L 520.056611 138.018897 
L 530.230876 139.888971 
L 540.405142 141.737131 
L 550.579408 143.563782 
L 560.753674 145.369321 
L 570.927939 147.154139 
L 581.102205 148.918615 
L 591.276471 150.663125 
L 601.450737 152.388033 
L 611.625002 154.093697 
L 621.799268 155.780469 
L 631.973534 157.448692 
L 642.1478 159.098702 
L 652.322065 160.730829 
L 662.496331 162.345395 
L 672.670597 163.942716 
L 682.844862 165.523102 
L 693.019128 167.086855 
L 703.193394 168.634271 
L 713.36766 170.165643 
L 723.541925 171.681253 
L 733.716191 173.181381 
L 743.890457 174.6663 
L 754.064723 176.136276 
L 764.238988 177.591573 
L 774.413254 179.032445 
L 784.58752 180.459146 
L 794.761786 181.871919 
L 804.936051 183.271008 
L 815.110317 184.656647 
L 825.284583 186.029068 
L 835.458849 187.388498 
L 845.633114 188.735159 
L 855.80738 190.069268 
L 865.981646 191.391039 
L 876.155912 192.70068 
L 886.330177 193.998396 
L 896.504443 195.284389 
L 906.678709 196.558853 
L 916.852975 197.821983 
L 927.02724 199.073966 
L 937.201506 200.314988 
L 947.375772 201.54523 
L 957.550037 202.764871 
L 967.724303 203.974083 
L 977.898569 205.173038 
L 988.072835 206.361904 
L 998.2471 207.540844 
L 1008.421366 208.71002 
L 1018.595632 209.869589 
L 1028.769898 211.019705 
L 1038.944163 212.160521 
L 1049.118429 213.292186 
L 1059.292695 214.414844 
L 1069.466961 215.528639 
L 1079.641226 216.633711 
L 1089.815492 217.730198 
L 1099.989758 218.818234 
L 1110.164024 219.897951 
L 1120.338289 220.96948 
L 1130.512555 222.032947 
L 1140.686821 223.088477 
L 1150.861087 224.136192 
L 1161.035352 225.176213 
L 1171.209618 226.208657 
L 1181.383884 227.23364 
L 1191.55815 228.251274 
L 1201.732415 229.261671 
L 1211.906681 230.26494 
L 1222.080947 231.261189 
L 1232.255212 232.250521 
L 1242.429478 233.23304 
" clip-path="url(#pa04502625a)" style="fill: none; stroke: #000000; stroke-width: 1.5; stroke-linecap: square"/>
   </g>
   <g id="line2d_31">
    <path d="M 662.969553 132.951841 
L 670.304488 134.186385 
L 677.639424 135.411016 
L 684.97436 136.625877 
L 692.309296 137.831106 
L 699.644232 139.026842 
L 706.979167 140.213217 
L 714.314103 141.390366 
L 721.649039 142.558417 
L 728.983975 143.717498 
L 736.31891 144.867736 
L 743.653846 146.009253 
L 750.988782 147.14217 
L 758.323718 148.266608 
L 765.658653 149.382683 
L 772.993589 150.49051 
L 780.328525 151.590204 
L 787.663461 152.681875 
L 794.998396 153.765634 
L 802.333332 154.841587 
L 809.668268 155.909842 
L 817.003204 156.970501 
L 824.33814 158.023668 
L 831.673075 159.069444 
L 839.008011 160.107928 
L 846.342947 161.139216 
L 853.677883 162.163406 
L 861.012818 163.180592 
L 868.347754 164.190866 
L 875.68269 165.19432 
L 883.017626 166.191043 
L 890.352561 167.181124 
L 897.687497 168.164651 
L 905.022433 169.141707 
L 912.357369 170.112379 
L 919.692305 171.076748 
L 927.02724 172.034896 
L 934.362176 172.986903 
L 941.697112 173.932848 
L 949.032048 174.872809 
L 956.366983 175.806861 
L 963.701919 176.735082 
L 971.036855 177.657543 
L 978.371791 178.574319 
L 985.706726 179.48548 
L 993.041662 180.391098 
L 1000.376598 181.291242 
L 1007.711534 182.18598 
L 1015.046469 183.075379 
L 1022.381405 183.959506 
L 1029.716341 184.838425 
L 1037.051277 185.712202 
L 1044.386213 186.580899 
L 1051.721148 187.444578 
L 1059.056084 188.3033 
L 1066.39102 189.157127 
L 1073.725956 190.006116 
L 1081.060891 190.850327 
L 1088.395827 191.689817 
L 1095.730763 192.524643 
L 1103.065699 193.354861 
L 1110.400634 194.180524 
L 1117.73557 195.001688 
L 1125.070506 195.818406 
L 1132.405442 196.63073 
L 1139.740378 197.438712 
L 1147.075313 198.242403 
L 1154.410249 199.041852 
L 1161.745185 199.837109 
L 1169.080121 200.628223 
L 1176.415056 201.415241 
L 1183.749992 202.198211 
L 1191.084928 202.977179 
L 1198.419864 203.75219 
L 1205.754799 204.52329 
L 1213.089735 205.290524 
L 1220.424671 206.053934 
L 1227.759607 206.813564 
L 1235.094542 207.569456 
L 1242.429478 208.321652 
" clip-path="url(#pa04502625a)" style="fill: none; stroke: #000000; stroke-width: 1.5; stroke-linecap: square"/>
   </g>
   <g id="line2d_32">
    <path d="M 271.156855 234.443458 
L 278.158383 213.379183 
L 285.163807 200.577355 
L 292.172827 191.51971 
L 299.185145 184.620962 
L 306.200465 179.133741 
L 313.21849 174.643898 
L 320.238926 170.896977 
L 327.261479 167.72496 
L 334.285859 165.01084 
L 341.311775 162.669728 
L 348.33894 160.637994 
L 355.367068 158.866668 
L 362.395876 157.317225 
L 369.425084 155.958788 
L 376.454413 154.766221 
L 383.483587 153.718775 
L 390.512335 152.79912 
L 397.540387 151.99263 
L 404.567477 151.286845 
L 411.593341 150.671061 
L 418.617723 150.136017 
L 425.640366 149.673645 
L 432.661019 149.276873 
L 439.679437 148.939472 
L 446.695377 148.655921 
L 453.7086 148.42131 
L 460.718876 148.231253 
L 467.725975 148.081815 
L 474.729676 147.969453 
L 481.729761 147.890969 
L 488.726021 147.843465 
L 495.718248 147.824309 
L 502.706246 147.831103 
L 509.68982 147.861658 
L 516.668785 147.91397 
L 523.642962 147.986204 
L 530.612178 148.07667 
L 537.576271 148.183815 
L 544.535081 148.306206 
L 551.488462 148.44252 
L 558.436271 148.591532 
L 565.378377 148.75211 
L 572.314656 148.923202 
L 579.244993 149.103833 
L 586.169283 149.293095 
L 593.087431 149.490143 
L 599.999351 149.694194 
L 606.904967 149.904514 
L 613.804214 150.12042 
L 620.697038 150.341276 
L 627.583397 150.566485 
L 634.463259 150.795493 
L 641.336604 151.02778 
L 648.203425 151.262861 
L 655.063728 151.50028 
L 661.917532 151.739614 
L 668.764866 151.980465 
L 675.605778 152.222463 
L 682.440326 152.46526 
L 689.268585 152.708531 
L 696.090643 152.951975 
L 702.906605 153.195307 
L 709.716591 153.438263 
L 716.520736 153.680598 
L 723.319195 153.92208 
L 730.112136 154.162498 
L 736.899748 154.401652 
L 743.682236 154.639358 
L 750.459825 154.875446 
L 757.232756 155.109758 
L 764.001294 155.342149 
L 770.76572 155.572486 
L 777.526338 155.800645 
L 784.283472 156.026517 
L 791.037468 156.249999 
L 797.788694 156.471001 
L 804.53754 156.68944 
L 811.28442 156.905243 
L 818.029772 157.118347 
" clip-path="url(#pa04502625a)" style="fill: none; stroke-dasharray: 5.55,2.4; stroke-dashoffset: 0; stroke: #ff0000; stroke-width: 1.5"/>
   </g>
   <g id="line2d_33">
    <path d="M 271.200584 618.12066 
L 280.221296 598.890757 
L 289.254039 576.768301 
L 298.298269 550.404189 
L 307.353449 517.224512 
L 316.419047 471.685502 
L 325.494531 403.665806 
L 334.579371 326.333383 
L 343.673041 278.012957 
L 352.775018 251.736199 
L 361.88478 235.291508 
L 371.001814 223.785101 
L 380.125607 215.163038 
L 389.255652 208.412602 
L 398.39145 202.967944 
L 407.532505 198.48279 
L 416.678327 194.73042 
L 425.828436 191.554508 
L 434.982356 188.842783 
L 444.139622 186.511929 
L 453.299774 184.498423 
L 462.462364 182.752737 
L 471.626953 181.235509 
L 480.793111 179.914944 
L 489.960419 178.764993 
L 499.128469 177.764051 
L 508.296867 176.894004 
L 517.46523 176.139519 
L 526.633187 175.487505 
L 535.800382 174.9267 
L 544.966475 174.447347 
L 554.131138 174.040944 
L 563.294062 173.700037 
L 572.454953 173.41806 
L 581.613534 173.189201 
L 590.769547 173.008294 
L 599.922752 172.870728 
L 609.072929 172.772376 
L 618.21988 172.709529 
L 627.363426 172.678846 
L 636.50341 172.677306 
L 645.639701 172.702174 
L 654.772189 172.750968 
L 663.900789 172.821428 
L 673.025445 172.911496 
L 682.146123 173.019291 
L 691.26282 173.143094 
L 700.375561 173.281331 
L 709.4844 173.432558 
L 718.589424 173.59545 
L 727.69075 173.768792 
L 736.788529 173.951464 
L 745.882946 174.142438 
L 754.974221 174.340766 
L 764.062611 174.545579 
L 773.148413 174.756073 
L 782.23196 174.971511 
L 791.313628 175.191213 
L 800.393834 175.414556 
L 809.473038 175.640967 
L 818.551746 175.869917 
L 827.630508 176.100925 
L 836.709923 176.333551 
L 845.790641 176.567389 
L 854.873358 176.802073 
L 863.958827 177.037271 
L 873.047852 177.27268 
L 882.141294 177.508029 
L 891.24007 177.743074 
L 900.345156 177.9776 
L 909.45759 178.211414 
L 918.57847 178.444349 
L 927.70896 178.676261 
L 936.850289 178.907028 
L 946.003753 179.136548 
L 955.170718 179.36474 
L 964.352623 179.591542 
L 973.550978 179.816908 
L 982.767368 180.040814 
L 992.003456 180.263249 
" clip-path="url(#pa04502625a)" style="fill: none; stroke-dasharray: 5.55,2.4; stroke-dashoffset: 0; stroke: #ffa500; stroke-width: 1.5"/>
   </g>
   <g id="line2d_34">
    <path d="M 230.727273 736.120223 
L 242.23358 724.53937 
L 253.770509 712.366704 
L 265.337118 699.509035 
L 276.932445 685.849332 
L 288.555528 671.237509 
L 300.205402 655.476388 
L 311.881102 638.299444 
L 323.581667 619.334053 
L 335.306135 598.037966 
L 347.053541 573.584566 
L 358.822951 544.650896 
L 370.61341 509.063431 
L 382.423978 463.677725 
L 394.253725 407.796773 
L 406.101729 352.417517 
L 417.96708 310.754895 
L 429.848879 283.110574 
L 441.746244 264.485035 
L 453.658304 251.215462 
L 465.584208 241.278433 
L 477.523121 233.55299 
L 489.47423 227.379612 
L 501.436742 222.345175 
L 513.409887 218.176503 
L 525.39292 214.684661 
L 537.385123 211.734034 
L 549.385806 209.224236 
L 561.394311 207.079009 
L 573.410008 205.239142 
L 585.432305 203.657794 
L 597.460645 202.297304 
L 609.494509 201.126966 
L 621.533418 200.121433 
L 633.576936 199.259559 
L 645.624672 198.523528 
L 657.676283 197.898205 
L 669.731474 197.370635 
L 681.790003 196.929649 
L 693.851683 196.565565 
L 705.916385 196.269941 
L 717.984038 196.035378 
L 730.054636 195.855367 
L 742.128238 195.724156 
L 754.204973 195.636643 
L 766.285041 195.588291 
L 778.368718 195.575052 
L 790.456358 195.593306 
L 802.548398 195.639809 
L 814.645359 195.711646 
L 826.747854 195.8062 
L 838.856587 195.921109 
L 850.972358 196.054249 
L 863.096071 196.2037 
L 875.228734 196.367733 
L 887.371462 196.544788 
L 899.525487 196.733458 
L 911.692156 196.932473 
L 923.87294 197.140695 
L 936.069439 197.357097 
L 948.283382 197.580762 
L 960.516637 197.81087 
L 972.771214 198.04669 
L 985.049268 198.287579 
L 997.353109 198.532965 
L 1009.685203 198.782354 
L 1022.048178 199.035318 
L 1034.444834 199.29149 
L 1046.878139 199.550567 
L 1059.351245 199.812296 
L 1071.867487 200.076481 
L 1084.430392 200.342976 
L 1097.043681 200.611677 
L 1109.711279 200.88253 
L 1122.437319 201.155523 
L 1135.226148 201.430684 
L 1148.082331 201.708081 
L 1161.010662 201.987817 
L 1174.016166 202.270035 
L 1187.104105 202.55491 
" clip-path="url(#pa04502625a)" style="fill: none; stroke-dasharray: 5.55,2.4; stroke-dashoffset: 0; stroke: #008000; stroke-width: 1.5"/>
   </g>
   <g id="line2d_35">
    <path d="M 257.3138 750.010289 
L 270.653326 738.516955 
L 284.038534 726.494958 
L 297.468176 713.868439 
L 310.940999 700.544661 
L 324.45575 686.408445 
L 338.011177 671.31418 
L 351.606027 655.074094 
L 365.239053 637.440632 
L 378.909012 618.079559 
L 392.614671 596.528617 
L 406.354805 572.136349 
L 420.128192 543.987102 
L 433.933653 510.892728 
L 447.769997 471.847135 
L 461.63606 427.888113 
L 475.530702 384.239277 
L 489.452804 347.101275 
L 503.401276 318.712483 
L 517.375056 297.852262 
L 531.373114 282.412388 
L 545.394456 270.693775 
L 559.438124 261.558049 
L 573.503202 254.268867 
L 587.588819 248.342677 
L 601.69415 243.452273 
L 615.818421 239.369001 
L 629.960912 235.928178 
L 644.120961 233.007953 
L 658.297967 230.516007 
L 672.491395 228.380936 
L 686.700779 226.546502 
L 700.925726 224.96771 
L 715.165921 223.608057 
L 729.421131 222.437562 
L 743.691208 221.431338 
L 757.976097 220.568523 
L 772.27584 219.831481 
L 786.590577 219.205191 
L 800.920556 218.676768 
L 815.266137 218.235097 
L 829.627797 217.870534 
L 844.006137 217.574674 
L 858.401886 217.340156 
L 872.815908 217.160516 
L 887.24921 217.030051 
L 901.702948 216.943721 
L 916.178432 216.897058 
L 930.677134 216.886095 
L 945.200698 216.907301 
L 959.750943 216.957534 
L 974.329874 217.033992 
L 988.939689 217.134177 
L 1003.582787 217.255863 
L 1018.261776 217.397068 
L 1032.979483 217.556027 
L 1047.738962 217.731175 
L 1062.543502 217.921125 
L 1077.396636 218.124654 
L 1092.302153 218.34069 
L 1107.264105 218.568296 
L 1122.286816 218.806662 
L 1137.374895 219.055094 
L 1152.533242 219.313007 
L 1167.767058 219.579915 
L 1183.08186 219.855426 
L 1198.483486 220.139235 
L 1213.978104 220.431121 
L 1229.572229 220.730936 
L 1245.272727 221.038611 
" clip-path="url(#pa04502625a)" style="fill: none; stroke-dasharray: 5.55,2.4; stroke-dashoffset: 0; stroke: #4682b4; stroke-width: 1.5"/>
   </g>
   <g id="line2d_36">
    <path d="M 404.991346 653.879194 
L 414.935485 642.65123 
L 424.900895 630.809151 
L 434.887192 618.269797 
L 444.893994 604.934785 
L 454.920923 590.688293 
L 464.967605 575.395983 
L 475.033661 558.907305 
L 485.118744 541.065823 
L 495.222483 521.736577 
L 505.344525 500.863454 
L 515.484518 478.565961 
L 525.642121 455.252369 
L 535.816997 431.661282 
L 546.008817 408.729789 
L 556.21726 387.328716 
L 566.442011 368.048732 
L 576.682767 351.142207 
L 586.939232 336.580772 
L 597.211119 324.157979 
L 607.498154 313.588406 
L 617.80007 304.57762 
L 628.116615 296.859064 
L 638.447545 290.207084 
L 648.792631 284.437044 
L 659.151657 279.400177 
L 669.524418 274.977159 
L 679.910726 271.072132 
L 690.310406 267.607704 
L 700.723299 264.520934 
L 711.149263 261.760251 
L 721.588171 259.283046 
L 732.039915 257.05384 
L 742.504403 255.042851 
L 752.981564 253.224899 
L 763.471347 251.578543 
L 773.973718 250.085403 
L 784.488667 248.72963 
L 795.016206 247.497475 
L 805.556368 246.376947 
L 816.109211 245.35754 
L 826.674817 244.429998 
L 837.253292 243.58614 
L 847.84477 242.8187 
L 858.449411 242.121202 
L 869.067404 241.487855 
L 879.698966 240.913463 
L 890.344345 240.393352 
L 901.003818 239.9233 
L 911.677696 239.499489 
L 922.366323 239.118458 
L 933.070076 238.777057 
L 943.789367 238.47242 
L 954.524648 238.201931 
L 965.276403 237.963197 
L 976.045159 237.754028 
L 986.831481 237.572416 
L 997.635976 237.416518 
L 1008.459292 237.284637 
L 1019.302124 237.175215 
L 1030.165208 237.086815 
L 1041.04933 237.018114 
L 1051.95532 236.967889 
L 1062.884061 236.935015 
L 1073.836483 236.918452 
L 1084.813571 236.917239 
L 1095.816361 236.93049 
L 1106.845945 236.957387 
L 1117.903471 236.997175 
L 1128.990145 237.049157 
L 1140.107233 237.112692 
L 1151.256061 237.187188 
L 1162.438017 237.272102 
L 1173.654555 237.366934 
L 1184.907193 237.471226 
L 1196.197517 237.58456 
L 1207.527181 237.706552 
L 1218.897911 237.836855 
L 1230.311503 237.975154 
L 1241.769829 238.121165 
" clip-path="url(#pa04502625a)" style="fill: none; stroke-dasharray: 5.55,2.4; stroke-dashoffset: 0; stroke: #8a2be2; stroke-width: 1.5"/>
   </g>
   <g id="patch_3">
    <path d="M 180 768.96 
L 180 103.68 
" style="fill: none; stroke: #000000; stroke-width: 0.8; stroke-linejoin: miter; stroke-linecap: square"/>
   </g>
   <g id="patch_4">
    <path d="M 1296 768.96 
L 1296 103.68 
" style="fill: none; stroke: #000000; stroke-width: 0.8; stroke-linejoin: miter; stroke-linecap: square"/>
   </g>
   <g id="patch_5">
    <path d="M 180 768.96 
L 1296 768.96 
" style="fill: none; stroke: #000000; stroke-width: 0.8; stroke-linejoin: miter; stroke-linecap: square"/>
   </g>
   <g id="patch_6">
    <path d="M 180 103.68 
L 1296 103.68 
" style="fill: none; stroke: #000000; stroke-width: 0.8; stroke-linejoin: miter; stroke-linecap: square"/>
   </g>
   <g id="text_16">
    <!-- 160 -->
    <g transform="translate(1244.298704 346.18529) scale(0.2 -0.2)">
     <defs>
      <path id="DejaVuSans-31" d="M 794 531 
L 1825 531 
L 1825 4091 
L 703 3866 
L 703 4441 
L 1819 4666 
L 2450 4666 
L 2450 531 
L 3481 531 
L 3481 0 
L 794 0 
L 794 531 
z
" transform="scale(0.015625)"/>
     </defs>
     <use xlink:href="#DejaVuSans-31"/>
     <use xlink:href="#DejaVuSans-36" x="63.623047"/>
     <use xlink:href="#DejaVuSans-30" x="127.246094"/>
    </g>
   </g>
   <g id="text_17">
    <!-- 150 -->
    <g transform="translate(1244.298704 303.049394) scale(0.2 -0.2)">
     <use xlink:href="#DejaVuSans-31"/>
     <use xlink:href="#DejaVuSans-35" x="63.623047"/>
     <use xlink:href="#DejaVuSans-30" x="127.246094"/>
    </g>
   </g>
   <g id="text_18">
    <!-- 140 -->
    <g transform="translate(1244.298704 270.214606) scale(0.2 -0.2)">
     <use xlink:href="#DejaVuSans-31"/>
     <use xlink:href="#DejaVuSans-34" x="63.623047"/>
     <use xlink:href="#DejaVuSans-30" x="127.246094"/>
    </g>
   </g>
   <g id="text_19">
    <!-- 130 -->
    <g transform="translate(1244.298704 242.744981) scale(0.2 -0.2)">
     <defs>
      <path id="DejaVuSans-33" d="M 2597 2516 
Q 3050 2419 3304 2112 
Q 3559 1806 3559 1356 
Q 3559 666 3084 287 
Q 2609 -91 1734 -91 
Q 1441 -91 1130 -33 
Q 819 25 488 141 
L 488 750 
Q 750 597 1062 519 
Q 1375 441 1716 441 
Q 2309 441 2620 675 
Q 2931 909 2931 1356 
Q 2931 1769 2642 2001 
Q 2353 2234 1838 2234 
L 1294 2234 
L 1294 2753 
L 1863 2753 
Q 2328 2753 2575 2939 
Q 2822 3125 2822 3475 
Q 2822 3834 2567 4026 
Q 2313 4219 1838 4219 
Q 1578 4219 1281 4162 
Q 984 4106 628 3988 
L 628 4550 
Q 988 4650 1302 4700 
Q 1616 4750 1894 4750 
Q 2613 4750 3031 4423 
Q 3450 4097 3450 3541 
Q 3450 3153 3228 2886 
Q 3006 2619 2597 2516 
z
" transform="scale(0.015625)"/>
     </defs>
     <use xlink:href="#DejaVuSans-31"/>
     <use xlink:href="#DejaVuSans-33" x="63.623047"/>
     <use xlink:href="#DejaVuSans-30" x="127.246094"/>
    </g>
   </g>
   <g id="text_20">
    <!-- 120 -->
    <g transform="translate(1244.298704 215.275355) scale(0.2 -0.2)">
     <defs>
      <path id="DejaVuSans-32" d="M 1228 531 
L 3431 531 
L 3431 0 
L 469 0 
L 469 531 
Q 828 903 1448 1529 
Q 2069 2156 2228 2338 
Q 2531 2678 2651 2914 
Q 2772 3150 2772 3378 
Q 2772 3750 2511 3984 
Q 2250 4219 1831 4219 
Q 1534 4219 1204 4116 
Q 875 4013 500 3803 
L 500 4441 
Q 881 4594 1212 4672 
Q 1544 4750 1819 4750 
Q 2544 4750 2975 4387 
Q 3406 4025 3406 3419 
Q 3406 3131 3298 2873 
Q 3191 2616 2906 2266 
Q 2828 2175 2409 1742 
Q 1991 1309 1228 531 
z
" transform="scale(0.015625)"/>
     </defs>
     <use xlink:href="#DejaVuSans-31"/>
     <use xlink:href="#DejaVuSans-32" x="63.623047"/>
     <use xlink:href="#DejaVuSans-30" x="127.246094"/>
    </g>
   </g>
   <g id="legend_1">
    <g id="patch_7">
     <path d="M 239.257812 758.96 
L 1236.742188 758.96 
Q 1240.742188 758.96 1240.742188 754.96 
L 1240.742188 725.56 
Q 1240.742188 721.56 1236.742188 721.56 
L 239.257812 721.56 
Q 235.257812 721.56 235.257812 725.56 
L 235.257812 754.96 
Q 235.257812 758.96 239.257812 758.96 
z
" style="fill: #ffffff; opacity: 0.8; stroke: #cccccc; stroke-linejoin: miter"/>
    </g>
    <g id="line2d_37">
     <path d="M 243.257812 737.76 
L 263.257812 737.76 
L 283.257812 737.76 
" style="fill: none; stroke: #000000; stroke-width: 1.5; stroke-linecap: square"/>
    </g>
    <g id="text_21">
     <!-- $T_{se,ein}$ [°C]          $ΔT_{gk,ob}$: -->
     <g transform="translate(299.257812 744.76) scale(0.2 -0.2)">
      <defs>
       <path id="DejaVuSans-Oblique-54" d="M 378 4666 
L 4325 4666 
L 4225 4134 
L 2559 4134 
L 1759 0 
L 1125 0 
L 1925 4134 
L 275 4134 
L 378 4666 
z
" transform="scale(0.015625)"/>
       <path id="DejaVuSans-Oblique-73" d="M 3200 3397 
L 3091 2853 
Q 2863 2978 2609 3040 
Q 2356 3103 2088 3103 
Q 1634 3103 1373 2948 
Q 1113 2794 1113 2528 
Q 1113 2219 1719 2053 
Q 1766 2041 1788 2034 
L 1972 1978 
Q 2547 1819 2739 1644 
Q 2931 1469 2931 1166 
Q 2931 609 2489 259 
Q 2047 -91 1331 -91 
Q 1053 -91 747 -37 
Q 441 16 72 128 
L 184 722 
Q 500 559 806 475 
Q 1113 391 1394 391 
Q 1816 391 2080 572 
Q 2344 753 2344 1031 
Q 2344 1331 1650 1516 
L 1591 1531 
L 1394 1581 
Q 956 1697 753 1886 
Q 550 2075 550 2369 
Q 550 2928 970 3256 
Q 1391 3584 2113 3584 
Q 2397 3584 2667 3537 
Q 2938 3491 3200 3397 
z
" transform="scale(0.015625)"/>
       <path id="DejaVuSans-Oblique-65" d="M 3078 2063 
Q 3088 2113 3092 2166 
Q 3097 2219 3097 2272 
Q 3097 2653 2873 2875 
Q 2650 3097 2266 3097 
Q 1838 3097 1509 2826 
Q 1181 2556 1013 2059 
L 3078 2063 
z
M 3578 1613 
L 903 1613 
Q 884 1494 878 1425 
Q 872 1356 872 1306 
Q 872 872 1139 634 
Q 1406 397 1894 397 
Q 2269 397 2603 481 
Q 2938 566 3225 728 
L 3116 159 
Q 2806 34 2476 -28 
Q 2147 -91 1806 -91 
Q 1078 -91 686 257 
Q 294 606 294 1247 
Q 294 1794 489 2264 
Q 684 2734 1063 3103 
Q 1306 3334 1642 3459 
Q 1978 3584 2356 3584 
Q 2950 3584 3301 3228 
Q 3653 2872 3653 2272 
Q 3653 2128 3634 1964 
Q 3616 1800 3578 1613 
z
" transform="scale(0.015625)"/>
       <path id="DejaVuSans-2c" d="M 750 794 
L 1409 794 
L 1409 256 
L 897 -744 
L 494 -744 
L 750 256 
L 750 794 
z
" transform="scale(0.015625)"/>
       <path id="DejaVuSans-Oblique-69" d="M 1172 4863 
L 1747 4863 
L 1606 4134 
L 1031 4134 
L 1172 4863 
z
M 909 3500 
L 1484 3500 
L 800 0 
L 225 0 
L 909 3500 
z
" transform="scale(0.015625)"/>
       <path id="DejaVuSans-Oblique-6e" d="M 3566 2113 
L 3156 0 
L 2578 0 
L 2988 2091 
Q 3016 2238 3031 2350 
Q 3047 2463 3047 2528 
Q 3047 2791 2881 2937 
Q 2716 3084 2419 3084 
Q 1956 3084 1622 2776 
Q 1288 2469 1184 1941 
L 800 0 
L 225 0 
L 903 3500 
L 1478 3500 
L 1363 2950 
Q 1603 3253 1940 3418 
Q 2278 3584 2650 3584 
Q 3113 3584 3367 3334 
Q 3622 3084 3622 2631 
Q 3622 2519 3608 2391 
Q 3594 2263 3566 2113 
z
" transform="scale(0.015625)"/>
       <path id="DejaVuSans-b0" d="M 1600 4347 
Q 1350 4347 1178 4173 
Q 1006 4000 1006 3750 
Q 1006 3503 1178 3333 
Q 1350 3163 1600 3163 
Q 1850 3163 2022 3333 
Q 2194 3503 2194 3750 
Q 2194 3997 2020 4172 
Q 1847 4347 1600 4347 
z
M 1600 4750 
Q 1800 4750 1984 4673 
Q 2169 4597 2303 4453 
Q 2447 4313 2519 4134 
Q 2591 3956 2591 3750 
Q 2591 3338 2302 3052 
Q 2013 2766 1594 2766 
Q 1172 2766 890 3047 
Q 609 3328 609 3750 
Q 609 4169 896 4459 
Q 1184 4750 1600 4750 
z
" transform="scale(0.015625)"/>
       <path id="DejaVuSans-43" d="M 4122 4306 
L 4122 3641 
Q 3803 3938 3442 4084 
Q 3081 4231 2675 4231 
Q 1875 4231 1450 3742 
Q 1025 3253 1025 2328 
Q 1025 1406 1450 917 
Q 1875 428 2675 428 
Q 3081 428 3442 575 
Q 3803 722 4122 1019 
L 4122 359 
Q 3791 134 3420 21 
Q 3050 -91 2638 -91 
Q 1578 -91 968 557 
Q 359 1206 359 2328 
Q 359 3453 968 4101 
Q 1578 4750 2638 4750 
Q 3056 4750 3426 4639 
Q 3797 4528 4122 4306 
z
" transform="scale(0.015625)"/>
       <path id="DejaVuSans-394" d="M 2188 4044 
L 906 525 
L 3472 525 
L 2188 4044 
z
M 50 0 
L 1831 4666 
L 2547 4666 
L 4325 0 
L 50 0 
z
" transform="scale(0.015625)"/>
       <path id="DejaVuSans-Oblique-67" d="M 3816 3500 
L 3219 434 
Q 3047 -456 2561 -893 
Q 2075 -1331 1253 -1331 
Q 950 -1331 690 -1286 
Q 431 -1241 206 -1147 
L 313 -588 
Q 525 -725 762 -790 
Q 1000 -856 1269 -856 
Q 1816 -856 2167 -557 
Q 2519 -259 2631 300 
L 2681 563 
Q 2441 288 2122 144 
Q 1803 0 1434 0 
Q 903 0 598 351 
Q 294 703 294 1319 
Q 294 1803 478 2267 
Q 663 2731 997 3091 
Q 1219 3328 1514 3456 
Q 1809 3584 2131 3584 
Q 2484 3584 2746 3420 
Q 3009 3256 3138 2956 
L 3238 3500 
L 3816 3500 
z
M 2950 2216 
Q 2950 2641 2750 2872 
Q 2550 3103 2181 3103 
Q 1953 3103 1747 3012 
Q 1541 2922 1394 2759 
Q 1156 2491 1023 2127 
Q 891 1763 891 1375 
Q 891 944 1092 712 
Q 1294 481 1672 481 
Q 2219 481 2584 976 
Q 2950 1472 2950 2216 
z
" transform="scale(0.015625)"/>
       <path id="DejaVuSans-Oblique-6b" d="M 1172 4863 
L 1747 4863 
L 1197 2028 
L 3169 3500 
L 3916 3500 
L 1716 1825 
L 3322 0 
L 2625 0 
L 1131 1709 
L 800 0 
L 225 0 
L 1172 4863 
z
" transform="scale(0.015625)"/>
       <path id="DejaVuSans-Oblique-6f" d="M 1625 -91 
Q 1009 -91 651 289 
Q 294 669 294 1325 
Q 294 1706 417 2101 
Q 541 2497 738 2766 
Q 1047 3184 1428 3384 
Q 1809 3584 2291 3584 
Q 2888 3584 3255 3212 
Q 3622 2841 3622 2241 
Q 3622 1825 3500 1412 
Q 3378 1000 3181 728 
Q 2875 309 2494 109 
Q 2113 -91 1625 -91 
z
M 891 1344 
Q 891 869 1089 633 
Q 1288 397 1691 397 
Q 2269 397 2648 901 
Q 3028 1406 3028 2181 
Q 3028 2634 2825 2865 
Q 2622 3097 2228 3097 
Q 1903 3097 1650 2945 
Q 1397 2794 1197 2484 
Q 1050 2253 970 1956 
Q 891 1659 891 1344 
z
" transform="scale(0.015625)"/>
       <path id="DejaVuSans-Oblique-62" d="M 3169 2138 
Q 3169 2591 2961 2847 
Q 2753 3103 2388 3103 
Q 2122 3103 1889 2973 
Q 1656 2844 1484 2597 
Q 1303 2338 1198 1995 
Q 1094 1653 1094 1313 
Q 1094 881 1298 636 
Q 1503 391 1863 391 
Q 2134 391 2365 517 
Q 2597 644 2772 891 
Q 2950 1147 3059 1487 
Q 3169 1828 3169 2138 
z
M 1381 2969 
Q 1594 3256 1914 3420 
Q 2234 3584 2584 3584 
Q 3122 3584 3439 3221 
Q 3756 2859 3756 2241 
Q 3756 1734 3570 1259 
Q 3384 784 3041 416 
Q 2816 172 2522 40 
Q 2228 -91 1906 -91 
Q 1566 -91 1316 65 
Q 1066 222 909 531 
L 806 0 
L 231 0 
L 1178 4863 
L 1753 4863 
L 1381 2969 
z
" transform="scale(0.015625)"/>
       <path id="DejaVuSans-3a" d="M 750 794 
L 1409 794 
L 1409 0 
L 750 0 
L 750 794 
z
M 750 3309 
L 1409 3309 
L 1409 2516 
L 750 2516 
L 750 3309 
z
" transform="scale(0.015625)"/>
      </defs>
      <use xlink:href="#DejaVuSans-Oblique-54" transform="translate(0 0.015625)"/>
      <use xlink:href="#DejaVuSans-Oblique-73" transform="translate(61.083984 -16.390625) scale(0.7)"/>
      <use xlink:href="#DejaVuSans-Oblique-65" transform="translate(97.553711 -16.390625) scale(0.7)"/>
      <use xlink:href="#DejaVuSans-2c" transform="translate(140.620117 -16.390625) scale(0.7)"/>
      <use xlink:href="#DejaVuSans-Oblique-65" transform="translate(176.508789 -16.390625) scale(0.7)"/>
      <use xlink:href="#DejaVuSans-Oblique-69" transform="translate(219.575195 -16.390625) scale(0.7)"/>
      <use xlink:href="#DejaVuSans-Oblique-6e" transform="translate(239.023438 -16.390625) scale(0.7)"/>
      <use xlink:href="#DejaVuSans-20" transform="translate(286.123047 0.015625)"/>
      <use xlink:href="#DejaVuSans-5b" transform="translate(317.910156 0.015625)"/>
      <use xlink:href="#DejaVuSans-b0" transform="translate(356.923828 0.015625)"/>
      <use xlink:href="#DejaVuSans-43" transform="translate(406.923828 0.015625)"/>
      <use xlink:href="#DejaVuSans-5d" transform="translate(476.748047 0.015625)"/>
      <use xlink:href="#DejaVuSans-20" transform="translate(515.761719 0.015625)"/>
      <use xlink:href="#DejaVuSans-20" transform="translate(547.548828 0.015625)"/>
      <use xlink:href="#DejaVuSans-20" transform="translate(579.335938 0.015625)"/>
      <use xlink:href="#DejaVuSans-20" transform="translate(611.123047 0.015625)"/>
      <use xlink:href="#DejaVuSans-20" transform="translate(642.910156 0.015625)"/>
      <use xlink:href="#DejaVuSans-20" transform="translate(674.697266 0.015625)"/>
      <use xlink:href="#DejaVuSans-20" transform="translate(706.484375 0.015625)"/>
      <use xlink:href="#DejaVuSans-20" transform="translate(738.271484 0.015625)"/>
      <use xlink:href="#DejaVuSans-20" transform="translate(770.058594 0.015625)"/>
      <use xlink:href="#DejaVuSans-20" transform="translate(801.845703 0.015625)"/>
      <use xlink:href="#DejaVuSans-394" transform="translate(833.632812 0.015625)"/>
      <use xlink:href="#DejaVuSans-Oblique-54" transform="translate(902.041016 0.015625)"/>
      <use xlink:href="#DejaVuSans-Oblique-67" transform="translate(963.125 -16.390625) scale(0.7)"/>
      <use xlink:href="#DejaVuSans-Oblique-6b" transform="translate(1007.558594 -16.390625) scale(0.7)"/>
      <use xlink:href="#DejaVuSans-2c" transform="translate(1048.095703 -16.390625) scale(0.7)"/>
      <use xlink:href="#DejaVuSans-Oblique-6f" transform="translate(1083.984375 -16.390625) scale(0.7)"/>
      <use xlink:href="#DejaVuSans-Oblique-62" transform="translate(1126.811523 -16.390625) scale(0.7)"/>
      <use xlink:href="#DejaVuSans-3a" transform="translate(1173.979492 0.015625)"/>
     </g>
    </g>
    <g id="line2d_38">
     <path d="M 580.857813 737.76 
L 600.857813 737.76 
L 620.857813 737.76 
" style="fill: none; stroke-dasharray: 5.55,2.4; stroke-dashoffset: 0; stroke: #ff0000; stroke-width: 1.5"/>
    </g>
    <g id="text_22">
     <!-- 5 K -->
     <g transform="translate(636.857813 744.76) scale(0.2 -0.2)">
      <defs>
       <path id="DejaVuSans-4b" d="M 628 4666 
L 1259 4666 
L 1259 2694 
L 3353 4666 
L 4166 4666 
L 1850 2491 
L 4331 0 
L 3500 0 
L 1259 2247 
L 1259 0 
L 628 0 
L 628 4666 
z
" transform="scale(0.015625)"/>
      </defs>
      <use xlink:href="#DejaVuSans-35"/>
      <use xlink:href="#DejaVuSans-20" x="63.623047"/>
      <use xlink:href="#DejaVuSans-4b" x="95.410156"/>
     </g>
    </g>
    <g id="line2d_39">
     <path d="M 709.054688 737.76 
L 729.054688 737.76 
L 749.054688 737.76 
" style="fill: none; stroke-dasharray: 5.55,2.4; stroke-dashoffset: 0; stroke: #ffa500; stroke-width: 1.5"/>
    </g>
    <g id="text_23">
     <!-- 10 K -->
     <g transform="translate(765.054688 744.76) scale(0.2 -0.2)">
      <use xlink:href="#DejaVuSans-31"/>
      <use xlink:href="#DejaVuSans-30" x="63.623047"/>
      <use xlink:href="#DejaVuSans-20" x="127.246094"/>
      <use xlink:href="#DejaVuSans-4b" x="159.033203"/>
     </g>
    </g>
    <g id="line2d_40">
     <path d="M 849.976562 737.76 
L 869.976562 737.76 
L 889.976562 737.76 
" style="fill: none; stroke-dasharray: 5.55,2.4; stroke-dashoffset: 0; stroke: #008000; stroke-width: 1.5"/>
    </g>
    <g id="text_24">
     <!-- 15 K -->
     <g transform="translate(905.976562 744.76) scale(0.2 -0.2)">
      <use xlink:href="#DejaVuSans-31"/>
      <use xlink:href="#DejaVuSans-35" x="63.623047"/>
      <use xlink:href="#DejaVuSans-20" x="127.246094"/>
      <use xlink:href="#DejaVuSans-4b" x="159.033203"/>
     </g>
    </g>
    <g id="line2d_41">
     <path d="M 990.898438 737.76 
L 1010.898438 737.76 
L 1030.898438 737.76 
" style="fill: none; stroke-dasharray: 5.55,2.4; stroke-dashoffset: 0; stroke: #4682b4; stroke-width: 1.5"/>
    </g>
    <g id="text_25">
     <!-- 20 K -->
     <g transform="translate(1046.898438 744.76) scale(0.2 -0.2)">
      <use xlink:href="#DejaVuSans-32"/>
      <use xlink:href="#DejaVuSans-30" x="63.623047"/>
      <use xlink:href="#DejaVuSans-20" x="127.246094"/>
      <use xlink:href="#DejaVuSans-4b" x="159.033203"/>
     </g>
    </g>
    <g id="line2d_42">
     <path d="M 1131.820312 737.76 
L 1151.820312 737.76 
L 1171.820312 737.76 
" style="fill: none; stroke-dasharray: 5.55,2.4; stroke-dashoffset: 0; stroke: #8a2be2; stroke-width: 1.5"/>
    </g>
    <g id="text_26">
     <!-- 25 K -->
     <g transform="translate(1187.820312 744.76) scale(0.2 -0.2)">
      <use xlink:href="#DejaVuSans-32"/>
      <use xlink:href="#DejaVuSans-35" x="63.623047"/>
      <use xlink:href="#DejaVuSans-20" x="127.246094"/>
      <use xlink:href="#DejaVuSans-4b" x="159.033203"/>
     </g>
    </g>
   </g>
  </g>
 </g>
 <defs>
  <clipPath id="pa04502625a">
   <rect x="180" y="103.68" width="1116" height="665.28"/>
  </clipPath>
 </defs>
</svg>
