<?xml version="1.0" encoding="utf-8" standalone="no"?>
<!DOCTYPE svg PUBLIC "-//W3C//DTD SVG 1.1//EN"
  "http://www.w3.org/Graphics/SVG/1.1/DTD/svg11.dtd">
<svg xmlns:xlink="http://www.w3.org/1999/xlink" width="1105.92pt" height="577.728pt" viewBox="0 0 1105.92 577.728" xmlns="http://www.w3.org/2000/svg" version="1.1">
 <metadata>
  <rdf:RDF xmlns:dc="http://purl.org/dc/elements/1.1/" xmlns:cc="http://creativecommons.org/ns#" xmlns:rdf="http://www.w3.org/1999/02/22-rdf-syntax-ns#">
   <cc:Work>
    <dc:type rdf:resource="http://purl.org/dc/dcmitype/StillImage"/>
    <dc:date>2023-04-20T10:00:12.334368</dc:date>
    <dc:format>image/svg+xml</dc:format>
    <dc:creator>
     <cc:Agent>
      <dc:title>Matplotlib v3.6.1, https://matplotlib.org/</dc:title>
     </cc:Agent>
    </dc:creator>
   </cc:Work>
  </rdf:RDF>
 </metadata>
 <defs>
  <style type="text/css">*{stroke-linejoin: round; stroke-linecap: butt}</style>
 </defs>
 <g id="figure_1">
  <g id="patch_1">
   <path d="M 0 577.728 
L 1105.92 577.728 
L 1105.92 0 
L 0 0 
z
" style="fill: #ffffff"/>
  </g>
  <g id="axes_1">
   <g id="patch_2">
    <path d="M 138.24 514.17792 
L 995.328 514.17792 
L 995.328 69.32736 
L 138.24 69.32736 
z
" style="fill: #ffffff"/>
   </g>
   <g id="patch_3">
    <path d="M 177.198545 514.17792 
L 194.773829 514.17792 
L 194.773829 479.747797 
L 177.198545 479.747797 
z
" clip-path="url(#p0e9b053957)" style="fill: #1f77b4"/>
   </g>
   <g id="patch_4">
    <path d="M 196.726638 514.17792 
L 214.301922 514.17792 
L 214.301922 476.703739 
L 196.726638 476.703739 
z
" clip-path="url(#p0e9b053957)" style="fill: #1f77b4"/>
   </g>
   <g id="patch_5">
    <path d="M 216.254731 514.17792 
L 233.830015 514.17792 
L 233.830015 473.90511 
L 216.254731 473.90511 
z
" clip-path="url(#p0e9b053957)" style="fill: #1f77b4"/>
   </g>
   <g id="patch_6">
    <path d="M 235.782824 514.17792 
L 253.358108 514.17792 
L 253.358108 471.291956 
L 235.782824 471.291956 
z
" clip-path="url(#p0e9b053957)" style="fill: #1f77b4"/>
   </g>
   <g id="patch_7">
    <path d="M 255.310917 514.17792 
L 272.886201 514.17792 
L 272.886201 468.825511 
L 255.310917 468.825511 
z
" clip-path="url(#p0e9b053957)" style="fill: #1f77b4"/>
   </g>
   <g id="patch_8">
    <path d="M 274.83901 514.17792 
L 292.414294 514.17792 
L 292.414294 466.479233 
L 274.83901 466.479233 
z
" clip-path="url(#p0e9b053957)" style="fill: #1f77b4"/>
   </g>
   <g id="patch_9">
    <path d="M 294.367103 514.17792 
L 311.942387 514.17792 
L 311.942387 464.234105 
L 294.367103 464.234105 
z
" clip-path="url(#p0e9b053957)" style="fill: #1f77b4"/>
   </g>
   <g id="patch_10">
    <path d="M 313.895196 514.17792 
L 331.47048 514.17792 
L 331.47048 462.075993 
L 313.895196 462.075993 
z
" clip-path="url(#p0e9b053957)" style="fill: #1f77b4"/>
   </g>
   <g id="patch_11">
    <path d="M 333.423289 514.17792 
L 350.998573 514.17792 
L 350.998573 459.994064 
L 333.423289 459.994064 
z
" clip-path="url(#p0e9b053957)" style="fill: #1f77b4"/>
   </g>
   <g id="patch_12">
    <path d="M 352.951382 514.17792 
L 370.526666 514.17792 
L 370.526666 457.979808 
L 352.951382 457.979808 
z
" clip-path="url(#p0e9b053957)" style="fill: #1f77b4"/>
   </g>
   <g id="patch_13">
    <path d="M 372.479475 514.17792 
L 390.054759 514.17792 
L 390.054759 456.026387 
L 372.479475 456.026387 
z
" clip-path="url(#p0e9b053957)" style="fill: #1f77b4"/>
   </g>
   <g id="patch_14">
    <path d="M 392.007568 514.17792 
L 409.582852 514.17792 
L 409.582852 454.128208 
L 392.007568 454.128208 
z
" clip-path="url(#p0e9b053957)" style="fill: #1f77b4"/>
   </g>
   <g id="patch_15">
    <path d="M 411.535661 514.17792 
L 429.110945 514.17792 
L 429.110945 452.280619 
L 411.535661 452.280619 
z
" clip-path="url(#p0e9b053957)" style="fill: #1f77b4"/>
   </g>
   <g id="patch_16">
    <path d="M 431.063754 514.17792 
L 448.639038 514.17792 
L 448.639038 450.479698 
L 431.063754 450.479698 
z
" clip-path="url(#p0e9b053957)" style="fill: #1f77b4"/>
   </g>
   <g id="patch_17">
    <path d="M 450.591847 514.17792 
L 468.167131 514.17792 
L 468.167131 448.722097 
L 450.591847 448.722097 
z
" clip-path="url(#p0e9b053957)" style="fill: #1f77b4"/>
   </g>
   <g id="patch_18">
    <path d="M 470.11994 514.17792 
L 487.695224 514.17792 
L 487.695224 447.004924 
L 470.11994 447.004924 
z
" clip-path="url(#p0e9b053957)" style="fill: #1f77b4"/>
   </g>
   <g id="patch_19">
    <path d="M 489.648033 514.17792 
L 507.223316 514.17792 
L 507.223316 445.32566 
L 489.648033 445.32566 
z
" clip-path="url(#p0e9b053957)" style="fill: #1f77b4"/>
   </g>
   <g id="patch_20">
    <path d="M 509.176126 514.17792 
L 526.751409 514.17792 
L 526.751409 443.682088 
L 509.176126 443.682088 
z
" clip-path="url(#p0e9b053957)" style="fill: #1f77b4"/>
   </g>
   <g id="patch_21">
    <path d="M 528.704219 514.17792 
L 546.279502 514.17792 
L 546.279502 442.072244 
L 528.704219 442.072244 
z
" clip-path="url(#p0e9b053957)" style="fill: #1f77b4"/>
   </g>
   <g id="patch_22">
    <path d="M 548.232312 514.17792 
L 565.807595 514.17792 
L 565.807595 440.494372 
L 548.232312 440.494372 
z
" clip-path="url(#p0e9b053957)" style="fill: #1f77b4"/>
   </g>
   <g id="patch_23">
    <path d="M 567.760405 514.17792 
L 585.335688 514.17792 
L 585.335688 438.946898 
L 567.760405 438.946898 
z
" clip-path="url(#p0e9b053957)" style="fill: #1f77b4"/>
   </g>
   <g id="patch_24">
    <path d="M 587.288498 514.17792 
L 604.863781 514.17792 
L 604.863781 437.428396 
L 587.288498 437.428396 
z
" clip-path="url(#p0e9b053957)" style="fill: #1f77b4"/>
   </g>
   <g id="patch_25">
    <path d="M 606.816591 514.17792 
L 624.391874 514.17792 
L 624.391874 435.937571 
L 606.816591 435.937571 
z
" clip-path="url(#p0e9b053957)" style="fill: #1f77b4"/>
   </g>
   <g id="patch_26">
    <path d="M 626.344684 514.17792 
L 643.919967 514.17792 
L 643.919967 434.473242 
L 626.344684 434.473242 
z
" clip-path="url(#p0e9b053957)" style="fill: #1f77b4"/>
   </g>
   <g id="patch_27">
    <path d="M 645.872776 514.17792 
L 663.44806 514.17792 
L 663.44806 433.034323 
L 645.872776 433.034323 
z
" clip-path="url(#p0e9b053957)" style="fill: #1f77b4"/>
   </g>
   <g id="patch_28">
    <path d="M 665.400869 514.17792 
L 682.976153 514.17792 
L 682.976153 431.619817 
L 665.400869 431.619817 
z
" clip-path="url(#p0e9b053957)" style="fill: #1f77b4"/>
   </g>
   <g id="patch_29">
    <path d="M 684.928962 514.17792 
L 702.504246 514.17792 
L 702.504246 430.2288 
L 684.928962 430.2288 
z
" clip-path="url(#p0e9b053957)" style="fill: #1f77b4"/>
   </g>
   <g id="patch_30">
    <path d="M 704.457055 514.17792 
L 722.032339 514.17792 
L 722.032339 428.860415 
L 704.457055 428.860415 
z
" clip-path="url(#p0e9b053957)" style="fill: #1f77b4"/>
   </g>
   <g id="patch_31">
    <path d="M 723.985148 514.17792 
L 741.560432 514.17792 
L 741.560432 427.513865 
L 723.985148 427.513865 
z
" clip-path="url(#p0e9b053957)" style="fill: #1f77b4"/>
   </g>
   <g id="patch_32">
    <path d="M 743.513241 514.17792 
L 761.088525 514.17792 
L 761.088525 426.188406 
L 743.513241 426.188406 
z
" clip-path="url(#p0e9b053957)" style="fill: #1f77b4"/>
   </g>
   <g id="patch_33">
    <path d="M 763.041334 514.17792 
L 780.616618 514.17792 
L 780.616618 424.883341 
L 763.041334 424.883341 
z
" clip-path="url(#p0e9b053957)" style="fill: #1f77b4"/>
   </g>
   <g id="patch_34">
    <path d="M 782.569427 514.17792 
L 800.144711 514.17792 
L 800.144711 423.598017 
L 782.569427 423.598017 
z
" clip-path="url(#p0e9b053957)" style="fill: #1f77b4"/>
   </g>
   <g id="patch_35">
    <path d="M 802.09752 514.17792 
L 819.672804 514.17792 
L 819.672804 422.331819 
L 802.09752 422.331819 
z
" clip-path="url(#p0e9b053957)" style="fill: #1f77b4"/>
   </g>
   <g id="patch_36">
    <path d="M 821.625613 514.17792 
L 839.200897 514.17792 
L 839.200897 421.084167 
L 821.625613 421.084167 
z
" clip-path="url(#p0e9b053957)" style="fill: #1f77b4"/>
   </g>
   <g id="patch_37">
    <path d="M 841.153706 514.17792 
L 858.72899 514.17792 
L 858.72899 419.854513 
L 841.153706 419.854513 
z
" clip-path="url(#p0e9b053957)" style="fill: #1f77b4"/>
   </g>
   <g id="patch_38">
    <path d="M 860.681799 514.17792 
L 878.257083 514.17792 
L 878.257083 418.64234 
L 860.681799 418.64234 
z
" clip-path="url(#p0e9b053957)" style="fill: #1f77b4"/>
   </g>
   <g id="patch_39">
    <path d="M 880.209892 514.17792 
L 897.785176 514.17792 
L 897.785176 417.447156 
L 880.209892 417.447156 
z
" clip-path="url(#p0e9b053957)" style="fill: #1f77b4"/>
   </g>
   <g id="patch_40">
    <path d="M 899.737985 514.17792 
L 917.313269 514.17792 
L 917.313269 416.268495 
L 899.737985 416.268495 
z
" clip-path="url(#p0e9b053957)" style="fill: #1f77b4"/>
   </g>
   <g id="patch_41">
    <path d="M 919.266078 514.17792 
L 936.841362 514.17792 
L 936.841362 415.105913 
L 919.266078 415.105913 
z
" clip-path="url(#p0e9b053957)" style="fill: #1f77b4"/>
   </g>
   <g id="patch_42">
    <path d="M 938.794171 514.17792 
L 956.369455 514.17792 
L 956.369455 413.958987 
L 938.794171 413.958987 
z
" clip-path="url(#p0e9b053957)" style="fill: #1f77b4"/>
   </g>
   <g id="patch_43">
    <path d="M 177.198545 479.747797 
L 194.773829 479.747797 
L 194.773829 453.301608 
L 177.198545 453.301608 
z
" clip-path="url(#p0e9b053957)" style="fill: #ff7f0e"/>
   </g>
   <g id="patch_44">
    <path d="M 196.726638 476.703739 
L 214.301922 476.703739 
L 214.301922 450.154286 
L 196.726638 450.154286 
z
" clip-path="url(#p0e9b053957)" style="fill: #ff7f0e"/>
   </g>
   <g id="patch_45">
    <path d="M 216.254731 473.90511 
L 233.830015 473.90511 
L 233.830015 447.281806 
L 216.254731 447.281806 
z
" clip-path="url(#p0e9b053957)" style="fill: #ff7f0e"/>
   </g>
   <g id="patch_46">
    <path d="M 235.782824 471.291956 
L 253.358108 471.291956 
L 253.358108 444.614709 
L 235.782824 444.614709 
z
" clip-path="url(#p0e9b053957)" style="fill: #ff7f0e"/>
   </g>
   <g id="patch_47">
    <path d="M 255.310917 468.825511 
L 272.886201 468.825511 
L 272.886201 442.108516 
L 255.310917 442.108516 
z
" clip-path="url(#p0e9b053957)" style="fill: #ff7f0e"/>
   </g>
   <g id="patch_48">
    <path d="M 274.83901 466.479233 
L 292.414294 466.479233 
L 292.414294 439.733019 
L 274.83901 439.733019 
z
" clip-path="url(#p0e9b053957)" style="fill: #ff7f0e"/>
   </g>
   <g id="patch_49">
    <path d="M 294.367103 464.234105 
L 311.942387 464.234105 
L 311.942387 437.466725 
L 294.367103 437.466725 
z
" clip-path="url(#p0e9b053957)" style="fill: #ff7f0e"/>
   </g>
   <g id="patch_50">
    <path d="M 313.895196 462.075993 
L 331.47048 462.075993 
L 331.47048 435.293755 
L 313.895196 435.293755 
z
" clip-path="url(#p0e9b053957)" style="fill: #ff7f0e"/>
   </g>
   <g id="patch_51">
    <path d="M 333.423289 459.994064 
L 350.998573 459.994064 
L 350.998573 433.20201 
L 333.423289 433.20201 
z
" clip-path="url(#p0e9b053957)" style="fill: #ff7f0e"/>
   </g>
   <g id="patch_52">
    <path d="M 352.951382 457.979808 
L 370.526666 457.979808 
L 370.526666 431.182029 
L 352.951382 431.182029 
z
" clip-path="url(#p0e9b053957)" style="fill: #ff7f0e"/>
   </g>
   <g id="patch_53">
    <path d="M 372.479475 456.026387 
L 390.054759 456.026387 
L 390.054759 429.226249 
L 372.479475 429.226249 
z
" clip-path="url(#p0e9b053957)" style="fill: #ff7f0e"/>
   </g>
   <g id="patch_54">
    <path d="M 392.007568 454.128208 
L 409.582852 454.128208 
L 409.582852 427.328511 
L 392.007568 427.328511 
z
" clip-path="url(#p0e9b053957)" style="fill: #ff7f0e"/>
   </g>
   <g id="patch_55">
    <path d="M 411.535661 452.280619 
L 429.110945 452.280619 
L 429.110945 425.483716 
L 411.535661 425.483716 
z
" clip-path="url(#p0e9b053957)" style="fill: #ff7f0e"/>
   </g>
   <g id="patch_56">
    <path d="M 431.063754 450.479698 
L 448.639038 450.479698 
L 448.639038 423.68758 
L 431.063754 423.68758 
z
" clip-path="url(#p0e9b053957)" style="fill: #ff7f0e"/>
   </g>
   <g id="patch_57">
    <path d="M 450.591847 448.722097 
L 468.167131 448.722097 
L 468.167131 421.936459 
L 450.591847 421.936459 
z
" clip-path="url(#p0e9b053957)" style="fill: #ff7f0e"/>
   </g>
   <g id="patch_58">
    <path d="M 470.11994 447.004924 
L 487.695224 447.004924 
L 487.695224 420.227222 
L 470.11994 420.227222 
z
" clip-path="url(#p0e9b053957)" style="fill: #ff7f0e"/>
   </g>
   <g id="patch_59">
    <path d="M 489.648033 445.32566 
L 507.223316 445.32566 
L 507.223316 418.557146 
L 489.648033 418.557146 
z
" clip-path="url(#p0e9b053957)" style="fill: #ff7f0e"/>
   </g>
   <g id="patch_60">
    <path d="M 509.176126 443.682088 
L 526.751409 443.682088 
L 526.751409 416.923846 
L 509.176126 416.923846 
z
" clip-path="url(#p0e9b053957)" style="fill: #ff7f0e"/>
   </g>
   <g id="patch_61">
    <path d="M 528.704219 442.072244 
L 546.279502 442.072244 
L 546.279502 415.325215 
L 528.704219 415.325215 
z
" clip-path="url(#p0e9b053957)" style="fill: #ff7f0e"/>
   </g>
   <g id="patch_62">
    <path d="M 548.232312 440.494372 
L 565.807595 440.494372 
L 565.807595 413.759375 
L 548.232312 413.759375 
z
" clip-path="url(#p0e9b053957)" style="fill: #ff7f0e"/>
   </g>
   <g id="patch_63">
    <path d="M 567.760405 438.946898 
L 585.335688 438.946898 
L 585.335688 412.224646 
L 567.760405 412.224646 
z
" clip-path="url(#p0e9b053957)" style="fill: #ff7f0e"/>
   </g>
   <g id="patch_64">
    <path d="M 587.288498 437.428396 
L 604.863781 437.428396 
L 604.863781 410.719514 
L 587.288498 410.719514 
z
" clip-path="url(#p0e9b053957)" style="fill: #ff7f0e"/>
   </g>
   <g id="patch_65">
    <path d="M 606.816591 435.937571 
L 624.391874 435.937571 
L 624.391874 409.242607 
L 606.816591 409.242607 
z
" clip-path="url(#p0e9b053957)" style="fill: #ff7f0e"/>
   </g>
   <g id="patch_66">
    <path d="M 626.344684 434.473242 
L 643.919967 434.473242 
L 643.919967 407.792673 
L 626.344684 407.792673 
z
" clip-path="url(#p0e9b053957)" style="fill: #ff7f0e"/>
   </g>
   <g id="patch_67">
    <path d="M 645.872776 433.034323 
L 663.44806 433.034323 
L 663.44806 406.36857 
L 645.872776 406.36857 
z
" clip-path="url(#p0e9b053957)" style="fill: #ff7f0e"/>
   </g>
   <g id="patch_68">
    <path d="M 665.400869 431.619817 
L 682.976153 431.619817 
L 682.976153 404.969247 
L 665.400869 404.969247 
z
" clip-path="url(#p0e9b053957)" style="fill: #ff7f0e"/>
   </g>
   <g id="patch_69">
    <path d="M 684.928962 430.2288 
L 702.504246 430.2288 
L 702.504246 403.593733 
L 684.928962 403.593733 
z
" clip-path="url(#p0e9b053957)" style="fill: #ff7f0e"/>
   </g>
   <g id="patch_70">
    <path d="M 704.457055 428.860415 
L 722.032339 428.860415 
L 722.032339 402.241133 
L 704.457055 402.241133 
z
" clip-path="url(#p0e9b053957)" style="fill: #ff7f0e"/>
   </g>
   <g id="patch_71">
    <path d="M 723.985148 427.513865 
L 741.560432 427.513865 
L 741.560432 400.910613 
L 723.985148 400.910613 
z
" clip-path="url(#p0e9b053957)" style="fill: #ff7f0e"/>
   </g>
   <g id="patch_72">
    <path d="M 743.513241 426.188406 
L 761.088525 426.188406 
L 761.088525 399.601397 
L 743.513241 399.601397 
z
" clip-path="url(#p0e9b053957)" style="fill: #ff7f0e"/>
   </g>
   <g id="patch_73">
    <path d="M 763.041334 424.883341 
L 780.616618 424.883341 
L 780.616618 398.312759 
L 763.041334 398.312759 
z
" clip-path="url(#p0e9b053957)" style="fill: #ff7f0e"/>
   </g>
   <g id="patch_74">
    <path d="M 782.569427 423.598017 
L 800.144711 423.598017 
L 800.144711 397.044022 
L 782.569427 397.044022 
z
" clip-path="url(#p0e9b053957)" style="fill: #ff7f0e"/>
   </g>
   <g id="patch_75">
    <path d="M 802.09752 422.331819 
L 819.672804 422.331819 
L 819.672804 395.794546 
L 802.09752 395.794546 
z
" clip-path="url(#p0e9b053957)" style="fill: #ff7f0e"/>
   </g>
   <g id="patch_76">
    <path d="M 821.625613 421.084167 
L 839.200897 421.084167 
L 839.200897 394.563733 
L 821.625613 394.563733 
z
" clip-path="url(#p0e9b053957)" style="fill: #ff7f0e"/>
   </g>
   <g id="patch_77">
    <path d="M 841.153706 419.854513 
L 858.72899 419.854513 
L 858.72899 393.351017 
L 841.153706 393.351017 
z
" clip-path="url(#p0e9b053957)" style="fill: #ff7f0e"/>
   </g>
   <g id="patch_78">
    <path d="M 860.681799 418.64234 
L 878.257083 418.64234 
L 878.257083 392.155861 
L 860.681799 392.155861 
z
" clip-path="url(#p0e9b053957)" style="fill: #ff7f0e"/>
   </g>
   <g id="patch_79">
    <path d="M 880.209892 417.447156 
L 897.785176 417.447156 
L 897.785176 390.977761 
L 880.209892 390.977761 
z
" clip-path="url(#p0e9b053957)" style="fill: #ff7f0e"/>
   </g>
   <g id="patch_80">
    <path d="M 899.737985 416.268495 
L 917.313269 416.268495 
L 917.313269 389.816237 
L 899.737985 389.816237 
z
" clip-path="url(#p0e9b053957)" style="fill: #ff7f0e"/>
   </g>
   <g id="patch_81">
    <path d="M 919.266078 415.105913 
L 936.841362 415.105913 
L 936.841362 388.670833 
L 919.266078 388.670833 
z
" clip-path="url(#p0e9b053957)" style="fill: #ff7f0e"/>
   </g>
   <g id="patch_82">
    <path d="M 938.794171 413.958987 
L 956.369455 413.958987 
L 956.369455 387.541114 
L 938.794171 387.541114 
z
" clip-path="url(#p0e9b053957)" style="fill: #ff7f0e"/>
   </g>
   <g id="patch_83">
    <path d="M 177.198545 453.301608 
L 194.773829 453.301608 
L 194.773829 388.258921 
L 177.198545 388.258921 
z
" clip-path="url(#p0e9b053957)" style="fill: #2ca02c"/>
   </g>
   <g id="patch_84">
    <path d="M 196.726638 450.154286 
L 214.301922 450.154286 
L 214.301922 389.468195 
L 196.726638 389.468195 
z
" clip-path="url(#p0e9b053957)" style="fill: #2ca02c"/>
   </g>
   <g id="patch_85">
    <path d="M 216.254731 447.281806 
L 233.830015 447.281806 
L 233.830015 389.849315 
L 216.254731 389.849315 
z
" clip-path="url(#p0e9b053957)" style="fill: #2ca02c"/>
   </g>
   <g id="patch_86">
    <path d="M 235.782824 444.614709 
L 253.358108 444.614709 
L 253.358108 389.701011 
L 235.782824 389.701011 
z
" clip-path="url(#p0e9b053957)" style="fill: #2ca02c"/>
   </g>
   <g id="patch_87">
    <path d="M 255.310917 442.108516 
L 272.886201 442.108516 
L 272.886201 389.195736 
L 255.310917 389.195736 
z
" clip-path="url(#p0e9b053957)" style="fill: #2ca02c"/>
   </g>
   <g id="patch_88">
    <path d="M 274.83901 439.733019 
L 292.414294 439.733019 
L 292.414294 388.440252 
L 274.83901 388.440252 
z
" clip-path="url(#p0e9b053957)" style="fill: #2ca02c"/>
   </g>
   <g id="patch_89">
    <path d="M 294.367103 437.466725 
L 311.942387 437.466725 
L 311.942387 387.504302 
L 294.367103 387.504302 
z
" clip-path="url(#p0e9b053957)" style="fill: #2ca02c"/>
   </g>
   <g id="patch_90">
    <path d="M 313.895196 435.293755 
L 331.47048 435.293755 
L 331.47048 386.435419 
L 313.895196 386.435419 
z
" clip-path="url(#p0e9b053957)" style="fill: #2ca02c"/>
   </g>
   <g id="patch_91">
    <path d="M 333.423289 433.20201 
L 350.998573 433.20201 
L 350.998573 385.267126 
L 333.423289 385.267126 
z
" clip-path="url(#p0e9b053957)" style="fill: #2ca02c"/>
   </g>
   <g id="patch_92">
    <path d="M 352.951382 431.182029 
L 370.526666 431.182029 
L 370.526666 384.023739 
L 352.951382 384.023739 
z
" clip-path="url(#p0e9b053957)" style="fill: #2ca02c"/>
   </g>
   <g id="patch_93">
    <path d="M 372.479475 429.226249 
L 390.054759 429.226249 
L 390.054759 382.723307 
L 372.479475 382.723307 
z
" clip-path="url(#p0e9b053957)" style="fill: #2ca02c"/>
   </g>
   <g id="patch_94">
    <path d="M 392.007568 427.328511 
L 409.582852 427.328511 
L 409.582852 381.379492 
L 392.007568 381.379492 
z
" clip-path="url(#p0e9b053957)" style="fill: #2ca02c"/>
   </g>
   <g id="patch_95">
    <path d="M 411.535661 425.483716 
L 429.110945 425.483716 
L 429.110945 380.002809 
L 411.535661 380.002809 
z
" clip-path="url(#p0e9b053957)" style="fill: #2ca02c"/>
   </g>
   <g id="patch_96">
    <path d="M 431.063754 423.68758 
L 448.639038 423.68758 
L 448.639038 378.601465 
L 431.063754 378.601465 
z
" clip-path="url(#p0e9b053957)" style="fill: #2ca02c"/>
   </g>
   <g id="patch_97">
    <path d="M 450.591847 421.936459 
L 468.167131 421.936459 
L 468.167131 377.181942 
L 450.591847 377.181942 
z
" clip-path="url(#p0e9b053957)" style="fill: #2ca02c"/>
   </g>
   <g id="patch_98">
    <path d="M 470.11994 420.227222 
L 487.695224 420.227222 
L 487.695224 375.749414 
L 470.11994 375.749414 
z
" clip-path="url(#p0e9b053957)" style="fill: #2ca02c"/>
   </g>
   <g id="patch_99">
    <path d="M 489.648033 418.557146 
L 507.223316 418.557146 
L 507.223316 374.308046 
L 489.648033 374.308046 
z
" clip-path="url(#p0e9b053957)" style="fill: #2ca02c"/>
   </g>
   <g id="patch_100">
    <path d="M 509.176126 416.923846 
L 526.751409 416.923846 
L 526.751409 372.861218 
L 509.176126 372.861218 
z
" clip-path="url(#p0e9b053957)" style="fill: #2ca02c"/>
   </g>
   <g id="patch_101">
    <path d="M 528.704219 415.325215 
L 546.279502 415.325215 
L 546.279502 371.411688 
L 528.704219 371.411688 
z
" clip-path="url(#p0e9b053957)" style="fill: #2ca02c"/>
   </g>
   <g id="patch_102">
    <path d="M 548.232312 413.759375 
L 565.807595 413.759375 
L 565.807595 369.961721 
L 548.232312 369.961721 
z
" clip-path="url(#p0e9b053957)" style="fill: #2ca02c"/>
   </g>
   <g id="patch_103">
    <path d="M 567.760405 412.224646 
L 585.335688 412.224646 
L 585.335688 368.513183 
L 567.760405 368.513183 
z
" clip-path="url(#p0e9b053957)" style="fill: #2ca02c"/>
   </g>
   <g id="patch_104">
    <path d="M 587.288498 410.719514 
L 604.863781 410.719514 
L 604.863781 367.067619 
L 587.288498 367.067619 
z
" clip-path="url(#p0e9b053957)" style="fill: #2ca02c"/>
   </g>
   <g id="patch_105">
    <path d="M 606.816591 409.242607 
L 624.391874 409.242607 
L 624.391874 365.626308 
L 606.816591 365.626308 
z
" clip-path="url(#p0e9b053957)" style="fill: #2ca02c"/>
   </g>
   <g id="patch_106">
    <path d="M 626.344684 407.792673 
L 643.919967 407.792673 
L 643.919967 364.190313 
L 626.344684 364.190313 
z
" clip-path="url(#p0e9b053957)" style="fill: #2ca02c"/>
   </g>
   <g id="patch_107">
    <path d="M 645.872776 406.36857 
L 663.44806 406.36857 
L 663.44806 362.760519 
L 645.872776 362.760519 
z
" clip-path="url(#p0e9b053957)" style="fill: #2ca02c"/>
   </g>
   <g id="patch_108">
    <path d="M 665.400869 404.969247 
L 682.976153 404.969247 
L 682.976153 361.33766 
L 665.400869 361.33766 
z
" clip-path="url(#p0e9b053957)" style="fill: #2ca02c"/>
   </g>
   <g id="patch_109">
    <path d="M 684.928962 403.593733 
L 702.504246 403.593733 
L 702.504246 359.922344 
L 684.928962 359.922344 
z
" clip-path="url(#p0e9b053957)" style="fill: #2ca02c"/>
   </g>
   <g id="patch_110">
    <path d="M 704.457055 402.241133 
L 722.032339 402.241133 
L 722.032339 358.515077 
L 704.457055 358.515077 
z
" clip-path="url(#p0e9b053957)" style="fill: #2ca02c"/>
   </g>
   <g id="patch_111">
    <path d="M 723.985148 400.910613 
L 741.560432 400.910613 
L 741.560432 357.116273 
L 723.985148 357.116273 
z
" clip-path="url(#p0e9b053957)" style="fill: #2ca02c"/>
   </g>
   <g id="patch_112">
    <path d="M 743.513241 399.601397 
L 761.088525 399.601397 
L 761.088525 355.726272 
L 743.513241 355.726272 
z
" clip-path="url(#p0e9b053957)" style="fill: #2ca02c"/>
   </g>
   <g id="patch_113">
    <path d="M 763.041334 398.312759 
L 780.616618 398.312759 
L 780.616618 354.345352 
L 763.041334 354.345352 
z
" clip-path="url(#p0e9b053957)" style="fill: #2ca02c"/>
   </g>
   <g id="patch_114">
    <path d="M 782.569427 397.044022 
L 800.144711 397.044022 
L 800.144711 352.973735 
L 782.569427 352.973735 
z
" clip-path="url(#p0e9b053957)" style="fill: #2ca02c"/>
   </g>
   <g id="patch_115">
    <path d="M 802.09752 395.794546 
L 819.672804 395.794546 
L 819.672804 351.611596 
L 802.09752 351.611596 
z
" clip-path="url(#p0e9b053957)" style="fill: #2ca02c"/>
   </g>
   <g id="patch_116">
    <path d="M 821.625613 394.563733 
L 839.200897 394.563733 
L 839.200897 350.259071 
L 821.625613 350.259071 
z
" clip-path="url(#p0e9b053957)" style="fill: #2ca02c"/>
   </g>
   <g id="patch_117">
    <path d="M 841.153706 393.351017 
L 858.72899 393.351017 
L 858.72899 348.916261 
L 841.153706 348.916261 
z
" clip-path="url(#p0e9b053957)" style="fill: #2ca02c"/>
   </g>
   <g id="patch_118">
    <path d="M 860.681799 392.155861 
L 878.257083 392.155861 
L 878.257083 347.58324 
L 860.681799 347.58324 
z
" clip-path="url(#p0e9b053957)" style="fill: #2ca02c"/>
   </g>
   <g id="patch_119">
    <path d="M 880.209892 390.977761 
L 897.785176 390.977761 
L 897.785176 346.260052 
L 880.209892 346.260052 
z
" clip-path="url(#p0e9b053957)" style="fill: #2ca02c"/>
   </g>
   <g id="patch_120">
    <path d="M 899.737985 389.816237 
L 917.313269 389.816237 
L 917.313269 344.946726 
L 899.737985 344.946726 
z
" clip-path="url(#p0e9b053957)" style="fill: #2ca02c"/>
   </g>
   <g id="patch_121">
    <path d="M 919.266078 388.670833 
L 936.841362 388.670833 
L 936.841362 343.643266 
L 919.266078 343.643266 
z
" clip-path="url(#p0e9b053957)" style="fill: #2ca02c"/>
   </g>
   <g id="patch_122">
    <path d="M 938.794171 387.541114 
L 956.369455 387.541114 
L 956.369455 342.349663 
L 938.794171 342.349663 
z
" clip-path="url(#p0e9b053957)" style="fill: #2ca02c"/>
   </g>
   <g id="patch_123">
    <path d="M 177.198545 388.258921 
L 194.773829 388.258921 
L 194.773829 342.492809 
L 177.198545 342.492809 
z
" clip-path="url(#p0e9b053957)" style="fill: #d62728"/>
   </g>
   <g id="patch_124">
    <path d="M 196.726638 389.468195 
L 214.301922 389.468195 
L 214.301922 343.523379 
L 196.726638 343.523379 
z
" clip-path="url(#p0e9b053957)" style="fill: #d62728"/>
   </g>
   <g id="patch_125">
    <path d="M 216.254731 389.849315 
L 233.830015 389.849315 
L 233.830015 343.7767 
L 216.254731 343.7767 
z
" clip-path="url(#p0e9b053957)" style="fill: #d62728"/>
   </g>
   <g id="patch_126">
    <path d="M 235.782824 389.701011 
L 253.358108 389.701011 
L 253.358108 343.535045 
L 235.782824 343.535045 
z
" clip-path="url(#p0e9b053957)" style="fill: #d62728"/>
   </g>
   <g id="patch_127">
    <path d="M 255.310917 389.195736 
L 272.886201 389.195736 
L 272.886201 342.960984 
L 255.310917 342.960984 
z
" clip-path="url(#p0e9b053957)" style="fill: #d62728"/>
   </g>
   <g id="patch_128">
    <path d="M 274.83901 388.440252 
L 292.414294 388.440252 
L 292.414294 342.154936 
L 274.83901 342.154936 
z
" clip-path="url(#p0e9b053957)" style="fill: #d62728"/>
   </g>
   <g id="patch_129">
    <path d="M 294.367103 387.504302 
L 311.942387 387.504302 
L 311.942387 341.182356 
L 294.367103 341.182356 
z
" clip-path="url(#p0e9b053957)" style="fill: #d62728"/>
   </g>
   <g id="patch_130">
    <path d="M 313.895196 386.435419 
L 331.47048 386.435419 
L 331.47048 340.087762 
L 313.895196 340.087762 
z
" clip-path="url(#p0e9b053957)" style="fill: #d62728"/>
   </g>
   <g id="patch_131">
    <path d="M 333.423289 385.267126 
L 350.998573 385.267126 
L 350.998573 338.902481 
L 333.423289 338.902481 
z
" clip-path="url(#p0e9b053957)" style="fill: #d62728"/>
   </g>
   <g id="patch_132">
    <path d="M 352.951382 384.023739 
L 370.526666 384.023739 
L 370.526666 337.649187 
L 352.951382 337.649187 
z
" clip-path="url(#p0e9b053957)" style="fill: #d62728"/>
   </g>
   <g id="patch_133">
    <path d="M 372.479475 382.723307 
L 390.054759 382.723307 
L 390.054759 336.344672 
L 372.479475 336.344672 
z
" clip-path="url(#p0e9b053957)" style="fill: #d62728"/>
   </g>
   <g id="patch_134">
    <path d="M 392.007568 381.379492 
L 409.582852 381.379492 
L 409.582852 335.001622 
L 392.007568 335.001622 
z
" clip-path="url(#p0e9b053957)" style="fill: #d62728"/>
   </g>
   <g id="patch_135">
    <path d="M 411.535661 380.002809 
L 429.110945 380.002809 
L 429.110945 333.629774 
L 411.535661 333.629774 
z
" clip-path="url(#p0e9b053957)" style="fill: #d62728"/>
   </g>
   <g id="patch_136">
    <path d="M 431.063754 378.601465 
L 448.639038 378.601465 
L 448.639038 332.236709 
L 431.063754 332.236709 
z
" clip-path="url(#p0e9b053957)" style="fill: #d62728"/>
   </g>
   <g id="patch_137">
    <path d="M 450.591847 377.181942 
L 468.167131 377.181942 
L 468.167131 330.828401 
L 450.591847 330.828401 
z
" clip-path="url(#p0e9b053957)" style="fill: #d62728"/>
   </g>
   <g id="patch_138">
    <path d="M 470.11994 375.749414 
L 487.695224 375.749414 
L 487.695224 329.409606 
L 470.11994 329.409606 
z
" clip-path="url(#p0e9b053957)" style="fill: #d62728"/>
   </g>
   <g id="patch_139">
    <path d="M 489.648033 374.308046 
L 507.223316 374.308046 
L 507.223316 327.984138 
L 489.648033 327.984138 
z
" clip-path="url(#p0e9b053957)" style="fill: #d62728"/>
   </g>
   <g id="patch_140">
    <path d="M 509.176126 372.861218 
L 526.751409 372.861218 
L 526.751409 326.555086 
L 509.176126 326.555086 
z
" clip-path="url(#p0e9b053957)" style="fill: #d62728"/>
   </g>
   <g id="patch_141">
    <path d="M 528.704219 371.411688 
L 546.279502 371.411688 
L 546.279502 325.12496 
L 528.704219 325.12496 
z
" clip-path="url(#p0e9b053957)" style="fill: #d62728"/>
   </g>
   <g id="patch_142">
    <path d="M 548.232312 369.961721 
L 565.807595 369.961721 
L 565.807595 323.695814 
L 548.232312 323.695814 
z
" clip-path="url(#p0e9b053957)" style="fill: #d62728"/>
   </g>
   <g id="patch_143">
    <path d="M 567.760405 368.513183 
L 585.335688 368.513183 
L 585.335688 322.269334 
L 567.760405 322.269334 
z
" clip-path="url(#p0e9b053957)" style="fill: #d62728"/>
   </g>
   <g id="patch_144">
    <path d="M 587.288498 367.067619 
L 604.863781 367.067619 
L 604.863781 320.846908 
L 587.288498 320.846908 
z
" clip-path="url(#p0e9b053957)" style="fill: #d62728"/>
   </g>
   <g id="patch_145">
    <path d="M 606.816591 365.626308 
L 624.391874 365.626308 
L 624.391874 319.429681 
L 606.816591 319.429681 
z
" clip-path="url(#p0e9b053957)" style="fill: #d62728"/>
   </g>
   <g id="patch_146">
    <path d="M 626.344684 364.190313 
L 643.919967 364.190313 
L 643.919967 318.018599 
L 626.344684 318.018599 
z
" clip-path="url(#p0e9b053957)" style="fill: #d62728"/>
   </g>
   <g id="patch_147">
    <path d="M 645.872776 362.760519 
L 663.44806 362.760519 
L 663.44806 316.614443 
L 645.872776 316.614443 
z
" clip-path="url(#p0e9b053957)" style="fill: #d62728"/>
   </g>
   <g id="patch_148">
    <path d="M 665.400869 361.33766 
L 682.976153 361.33766 
L 682.976153 315.217858 
L 665.400869 315.217858 
z
" clip-path="url(#p0e9b053957)" style="fill: #d62728"/>
   </g>
   <g id="patch_149">
    <path d="M 684.928962 359.922344 
L 702.504246 359.922344 
L 702.504246 313.829372 
L 684.928962 313.829372 
z
" clip-path="url(#p0e9b053957)" style="fill: #d62728"/>
   </g>
   <g id="patch_150">
    <path d="M 704.457055 358.515077 
L 722.032339 358.515077 
L 722.032339 312.449421 
L 704.457055 312.449421 
z
" clip-path="url(#p0e9b053957)" style="fill: #d62728"/>
   </g>
   <g id="patch_151">
    <path d="M 723.985148 357.116273 
L 741.560432 357.116273 
L 741.560432 311.078357 
L 723.985148 311.078357 
z
" clip-path="url(#p0e9b053957)" style="fill: #d62728"/>
   </g>
   <g id="patch_152">
    <path d="M 743.513241 355.726272 
L 761.088525 355.726272 
L 761.088525 309.716466 
L 743.513241 309.716466 
z
" clip-path="url(#p0e9b053957)" style="fill: #d62728"/>
   </g>
   <g id="patch_153">
    <path d="M 763.041334 354.345352 
L 780.616618 354.345352 
L 780.616618 308.363974 
L 763.041334 308.363974 
z
" clip-path="url(#p0e9b053957)" style="fill: #d62728"/>
   </g>
   <g id="patch_154">
    <path d="M 782.569427 352.973735 
L 800.144711 352.973735 
L 800.144711 307.02106 
L 782.569427 307.02106 
z
" clip-path="url(#p0e9b053957)" style="fill: #d62728"/>
   </g>
   <g id="patch_155">
    <path d="M 802.09752 351.611596 
L 819.672804 351.611596 
L 819.672804 305.687861 
L 802.09752 305.687861 
z
" clip-path="url(#p0e9b053957)" style="fill: #d62728"/>
   </g>
   <g id="patch_156">
    <path d="M 821.625613 350.259071 
L 839.200897 350.259071 
L 839.200897 304.364476 
L 821.625613 304.364476 
z
" clip-path="url(#p0e9b053957)" style="fill: #d62728"/>
   </g>
   <g id="patch_157">
    <path d="M 841.153706 348.916261 
L 858.72899 348.916261 
L 858.72899 303.050976 
L 841.153706 303.050976 
z
" clip-path="url(#p0e9b053957)" style="fill: #d62728"/>
   </g>
   <g id="patch_158">
    <path d="M 860.681799 347.58324 
L 878.257083 347.58324 
L 878.257083 301.747404 
L 860.681799 301.747404 
z
" clip-path="url(#p0e9b053957)" style="fill: #d62728"/>
   </g>
   <g id="patch_159">
    <path d="M 880.209892 346.260052 
L 897.785176 346.260052 
L 897.785176 300.453781 
L 880.209892 300.453781 
z
" clip-path="url(#p0e9b053957)" style="fill: #d62728"/>
   </g>
   <g id="patch_160">
    <path d="M 899.737985 344.946726 
L 917.313269 344.946726 
L 917.313269 299.170111 
L 899.737985 299.170111 
z
" clip-path="url(#p0e9b053957)" style="fill: #d62728"/>
   </g>
   <g id="patch_161">
    <path d="M 919.266078 343.643266 
L 936.841362 343.643266 
L 936.841362 297.896378 
L 919.266078 297.896378 
z
" clip-path="url(#p0e9b053957)" style="fill: #d62728"/>
   </g>
   <g id="patch_162">
    <path d="M 938.794171 342.349663 
L 956.369455 342.349663 
L 956.369455 296.632553 
L 938.794171 296.632553 
z
" clip-path="url(#p0e9b053957)" style="fill: #d62728"/>
   </g>
   <g id="patch_163">
    <path d="M 177.198545 342.492809 
L 194.773829 342.492809 
L 194.773829 279.00319 
L 177.198545 279.00319 
z
" clip-path="url(#p0e9b053957)" style="fill: #9467bd"/>
   </g>
   <g id="patch_164">
    <path d="M 196.726638 343.523379 
L 214.301922 343.523379 
L 214.301922 279.785852 
L 196.726638 279.785852 
z
" clip-path="url(#p0e9b053957)" style="fill: #9467bd"/>
   </g>
   <g id="patch_165">
    <path d="M 216.254731 343.7767 
L 233.830015 343.7767 
L 233.830015 279.861881 
L 216.254731 279.861881 
z
" clip-path="url(#p0e9b053957)" style="fill: #9467bd"/>
   </g>
   <g id="patch_166">
    <path d="M 235.782824 343.535045 
L 253.358108 343.535045 
L 253.358108 279.490723 
L 235.782824 279.490723 
z
" clip-path="url(#p0e9b053957)" style="fill: #9467bd"/>
   </g>
   <g id="patch_167">
    <path d="M 255.310917 342.960984 
L 272.886201 342.960984 
L 272.886201 278.821238 
L 255.310917 278.821238 
z
" clip-path="url(#p0e9b053957)" style="fill: #9467bd"/>
   </g>
   <g id="patch_168">
    <path d="M 274.83901 342.154936 
L 292.414294 342.154936 
L 292.414294 277.945044 
L 274.83901 277.945044 
z
" clip-path="url(#p0e9b053957)" style="fill: #9467bd"/>
   </g>
   <g id="patch_169">
    <path d="M 294.367103 341.182356 
L 311.942387 341.182356 
L 311.942387 276.92165 
L 294.367103 276.92165 
z
" clip-path="url(#p0e9b053957)" style="fill: #9467bd"/>
   </g>
   <g id="patch_170">
    <path d="M 313.895196 340.087762 
L 331.47048 340.087762 
L 331.47048 275.791388 
L 313.895196 275.791388 
z
" clip-path="url(#p0e9b053957)" style="fill: #9467bd"/>
   </g>
   <g id="patch_171">
    <path d="M 333.423289 338.902481 
L 350.998573 338.902481 
L 350.998573 274.582539 
L 333.423289 274.582539 
z
" clip-path="url(#p0e9b053957)" style="fill: #9467bd"/>
   </g>
   <g id="patch_172">
    <path d="M 352.951382 337.649187 
L 370.526666 337.649187 
L 370.526666 273.3155 
L 352.951382 273.3155 
z
" clip-path="url(#p0e9b053957)" style="fill: #9467bd"/>
   </g>
   <g id="patch_173">
    <path d="M 372.479475 336.344672 
L 390.054759 336.344672 
L 390.054759 272.005323 
L 372.479475 272.005323 
z
" clip-path="url(#p0e9b053957)" style="fill: #9467bd"/>
   </g>
   <g id="patch_174">
    <path d="M 392.007568 335.001622 
L 409.582852 335.001622 
L 409.582852 270.663333 
L 392.007568 270.663333 
z
" clip-path="url(#p0e9b053957)" style="fill: #9467bd"/>
   </g>
   <g id="patch_175">
    <path d="M 411.535661 333.629774 
L 429.110945 333.629774 
L 429.110945 269.298192 
L 411.535661 269.298192 
z
" clip-path="url(#p0e9b053957)" style="fill: #9467bd"/>
   </g>
   <g id="patch_176">
    <path d="M 431.063754 332.236709 
L 448.639038 332.236709 
L 448.639038 267.916613 
L 431.063754 267.916613 
z
" clip-path="url(#p0e9b053957)" style="fill: #9467bd"/>
   </g>
   <g id="patch_177">
    <path d="M 450.591847 330.828401 
L 468.167131 330.828401 
L 468.167131 266.523864 
L 450.591847 266.523864 
z
" clip-path="url(#p0e9b053957)" style="fill: #9467bd"/>
   </g>
   <g id="patch_178">
    <path d="M 470.11994 329.409606 
L 487.695224 329.409606 
L 487.695224 265.124119 
L 470.11994 265.124119 
z
" clip-path="url(#p0e9b053957)" style="fill: #9467bd"/>
   </g>
   <g id="patch_179">
    <path d="M 489.648033 327.984138 
L 507.223316 327.984138 
L 507.223316 263.72071 
L 489.648033 263.72071 
z
" clip-path="url(#p0e9b053957)" style="fill: #9467bd"/>
   </g>
   <g id="patch_180">
    <path d="M 509.176126 326.555086 
L 526.751409 326.555086 
L 526.751409 262.316318 
L 509.176126 262.316318 
z
" clip-path="url(#p0e9b053957)" style="fill: #9467bd"/>
   </g>
   <g id="patch_181">
    <path d="M 528.704219 325.12496 
L 546.279502 325.12496 
L 546.279502 260.913111 
L 528.704219 260.913111 
z
" clip-path="url(#p0e9b053957)" style="fill: #9467bd"/>
   </g>
   <g id="patch_182">
    <path d="M 548.232312 323.695814 
L 565.807595 323.695814 
L 565.807595 259.512849 
L 548.232312 259.512849 
z
" clip-path="url(#p0e9b053957)" style="fill: #9467bd"/>
   </g>
   <g id="patch_183">
    <path d="M 567.760405 322.269334 
L 585.335688 322.269334 
L 585.335688 258.116968 
L 567.760405 258.116968 
z
" clip-path="url(#p0e9b053957)" style="fill: #9467bd"/>
   </g>
   <g id="patch_184">
    <path d="M 587.288498 320.846908 
L 604.863781 320.846908 
L 604.863781 256.726641 
L 587.288498 256.726641 
z
" clip-path="url(#p0e9b053957)" style="fill: #9467bd"/>
   </g>
   <g id="patch_185">
    <path d="M 606.816591 319.429681 
L 624.391874 319.429681 
L 624.391874 255.342825 
L 606.816591 255.342825 
z
" clip-path="url(#p0e9b053957)" style="fill: #9467bd"/>
   </g>
   <g id="patch_186">
    <path d="M 626.344684 318.018599 
L 643.919967 318.018599 
L 643.919967 253.966303 
L 626.344684 253.966303 
z
" clip-path="url(#p0e9b053957)" style="fill: #9467bd"/>
   </g>
   <g id="patch_187">
    <path d="M 645.872776 316.614443 
L 663.44806 316.614443 
L 663.44806 252.597714 
L 645.872776 252.597714 
z
" clip-path="url(#p0e9b053957)" style="fill: #9467bd"/>
   </g>
   <g id="patch_188">
    <path d="M 665.400869 315.217858 
L 682.976153 315.217858 
L 682.976153 251.237577 
L 665.400869 251.237577 
z
" clip-path="url(#p0e9b053957)" style="fill: #9467bd"/>
   </g>
   <g id="patch_189">
    <path d="M 684.928962 313.829372 
L 702.504246 313.829372 
L 702.504246 249.886312 
L 684.928962 249.886312 
z
" clip-path="url(#p0e9b053957)" style="fill: #9467bd"/>
   </g>
   <g id="patch_190">
    <path d="M 704.457055 312.449421 
L 722.032339 312.449421 
L 722.032339 248.544256 
L 704.457055 248.544256 
z
" clip-path="url(#p0e9b053957)" style="fill: #9467bd"/>
   </g>
   <g id="patch_191">
    <path d="M 723.985148 311.078357 
L 741.560432 311.078357 
L 741.560432 247.211675 
L 723.985148 247.211675 
z
" clip-path="url(#p0e9b053957)" style="fill: #9467bd"/>
   </g>
   <g id="patch_192">
    <path d="M 743.513241 309.716466 
L 761.088525 309.716466 
L 761.088525 245.888778 
L 743.513241 245.888778 
z
" clip-path="url(#p0e9b053957)" style="fill: #9467bd"/>
   </g>
   <g id="patch_193">
    <path d="M 763.041334 308.363974 
L 780.616618 308.363974 
L 780.616618 244.575724 
L 763.041334 244.575724 
z
" clip-path="url(#p0e9b053957)" style="fill: #9467bd"/>
   </g>
   <g id="patch_194">
    <path d="M 782.569427 307.02106 
L 800.144711 307.02106 
L 800.144711 243.27263 
L 782.569427 243.27263 
z
" clip-path="url(#p0e9b053957)" style="fill: #9467bd"/>
   </g>
   <g id="patch_195">
    <path d="M 802.09752 305.687861 
L 819.672804 305.687861 
L 819.672804 241.979577 
L 802.09752 241.979577 
z
" clip-path="url(#p0e9b053957)" style="fill: #9467bd"/>
   </g>
   <g id="patch_196">
    <path d="M 821.625613 304.364476 
L 839.200897 304.364476 
L 839.200897 240.696618 
L 821.625613 240.696618 
z
" clip-path="url(#p0e9b053957)" style="fill: #9467bd"/>
   </g>
   <g id="patch_197">
    <path d="M 841.153706 303.050976 
L 858.72899 303.050976 
L 858.72899 239.423777 
L 841.153706 239.423777 
z
" clip-path="url(#p0e9b053957)" style="fill: #9467bd"/>
   </g>
   <g id="patch_198">
    <path d="M 860.681799 301.747404 
L 878.257083 301.747404 
L 878.257083 238.16106 
L 860.681799 238.16106 
z
" clip-path="url(#p0e9b053957)" style="fill: #9467bd"/>
   </g>
   <g id="patch_199">
    <path d="M 880.209892 300.453781 
L 897.785176 300.453781 
L 897.785176 236.908451 
L 880.209892 236.908451 
z
" clip-path="url(#p0e9b053957)" style="fill: #9467bd"/>
   </g>
   <g id="patch_200">
    <path d="M 899.737985 299.170111 
L 917.313269 299.170111 
L 917.313269 235.665922 
L 899.737985 235.665922 
z
" clip-path="url(#p0e9b053957)" style="fill: #9467bd"/>
   </g>
   <g id="patch_201">
    <path d="M 919.266078 297.896378 
L 936.841362 297.896378 
L 936.841362 234.433427 
L 919.266078 234.433427 
z
" clip-path="url(#p0e9b053957)" style="fill: #9467bd"/>
   </g>
   <g id="patch_202">
    <path d="M 938.794171 296.632553 
L 956.369455 296.632553 
L 956.369455 233.210913 
L 938.794171 233.210913 
z
" clip-path="url(#p0e9b053957)" style="fill: #9467bd"/>
   </g>
   <g id="patch_203">
    <path d="M 177.198545 279.00319 
L 194.773829 279.00319 
L 194.773829 193.740333 
L 177.198545 193.740333 
z
" clip-path="url(#p0e9b053957)" style="fill: #8c564b"/>
   </g>
   <g id="patch_204">
    <path d="M 196.726638 279.785852 
L 214.301922 279.785852 
L 214.301922 195.987746 
L 196.726638 195.987746 
z
" clip-path="url(#p0e9b053957)" style="fill: #8c564b"/>
   </g>
   <g id="patch_205">
    <path d="M 216.254731 279.861881 
L 233.830015 279.861881 
L 233.830015 197.158149 
L 216.254731 197.158149 
z
" clip-path="url(#p0e9b053957)" style="fill: #8c564b"/>
   </g>
   <g id="patch_206">
    <path d="M 235.782824 279.490723 
L 253.358108 279.490723 
L 253.358108 197.629865 
L 235.782824 197.629865 
z
" clip-path="url(#p0e9b053957)" style="fill: #8c564b"/>
   </g>
   <g id="patch_207">
    <path d="M 255.310917 278.821238 
L 272.886201 278.821238 
L 272.886201 197.623298 
L 255.310917 197.623298 
z
" clip-path="url(#p0e9b053957)" style="fill: #8c564b"/>
   </g>
   <g id="patch_208">
    <path d="M 274.83901 277.945044 
L 292.414294 277.945044 
L 292.414294 197.276068 
L 274.83901 197.276068 
z
" clip-path="url(#p0e9b053957)" style="fill: #8c564b"/>
   </g>
   <g id="patch_209">
    <path d="M 294.367103 276.92165 
L 311.942387 276.92165 
L 311.942387 196.678822 
L 294.367103 196.678822 
z
" clip-path="url(#p0e9b053957)" style="fill: #8c564b"/>
   </g>
   <g id="patch_210">
    <path d="M 313.895196 275.791388 
L 331.47048 275.791388 
L 331.47048 195.893843 
L 313.895196 195.893843 
z
" clip-path="url(#p0e9b053957)" style="fill: #8c564b"/>
   </g>
   <g id="patch_211">
    <path d="M 333.423289 274.582539 
L 350.998573 274.582539 
L 350.998573 194.965405 
L 333.423289 194.965405 
z
" clip-path="url(#p0e9b053957)" style="fill: #8c564b"/>
   </g>
   <g id="patch_212">
    <path d="M 352.951382 273.3155 
L 370.526666 273.3155 
L 370.526666 193.925876 
L 352.951382 193.925876 
z
" clip-path="url(#p0e9b053957)" style="fill: #8c564b"/>
   </g>
   <g id="patch_213">
    <path d="M 372.479475 272.005323 
L 390.054759 272.005323 
L 390.054759 192.799482 
L 372.479475 192.799482 
z
" clip-path="url(#p0e9b053957)" style="fill: #8c564b"/>
   </g>
   <g id="patch_214">
    <path d="M 392.007568 270.663333 
L 409.582852 270.663333 
L 409.582852 191.604707 
L 392.007568 191.604707 
z
" clip-path="url(#p0e9b053957)" style="fill: #8c564b"/>
   </g>
   <g id="patch_215">
    <path d="M 411.535661 269.298192 
L 429.110945 269.298192 
L 429.110945 190.355901 
L 411.535661 190.355901 
z
" clip-path="url(#p0e9b053957)" style="fill: #8c564b"/>
   </g>
   <g id="patch_216">
    <path d="M 431.063754 267.916613 
L 448.639038 267.916613 
L 448.639038 189.064359 
L 431.063754 189.064359 
z
" clip-path="url(#p0e9b053957)" style="fill: #8c564b"/>
   </g>
   <g id="patch_217">
    <path d="M 450.591847 266.523864 
L 468.167131 266.523864 
L 468.167131 187.739083 
L 450.591847 187.739083 
z
" clip-path="url(#p0e9b053957)" style="fill: #8c564b"/>
   </g>
   <g id="patch_218">
    <path d="M 470.11994 265.124119 
L 487.695224 265.124119 
L 487.695224 186.387332 
L 470.11994 186.387332 
z
" clip-path="url(#p0e9b053957)" style="fill: #8c564b"/>
   </g>
   <g id="patch_219">
    <path d="M 489.648033 263.72071 
L 507.223316 263.72071 
L 507.223316 185.015004 
L 489.648033 185.015004 
z
" clip-path="url(#p0e9b053957)" style="fill: #8c564b"/>
   </g>
   <g id="patch_220">
    <path d="M 509.176126 262.316318 
L 526.751409 262.316318 
L 526.751409 183.626938 
L 509.176126 183.626938 
z
" clip-path="url(#p0e9b053957)" style="fill: #8c564b"/>
   </g>
   <g id="patch_221">
    <path d="M 528.704219 260.913111 
L 546.279502 260.913111 
L 546.279502 182.227129 
L 528.704219 182.227129 
z
" clip-path="url(#p0e9b053957)" style="fill: #8c564b"/>
   </g>
   <g id="patch_222">
    <path d="M 548.232312 259.512849 
L 565.807595 259.512849 
L 565.807595 180.818896 
L 548.232312 180.818896 
z
" clip-path="url(#p0e9b053957)" style="fill: #8c564b"/>
   </g>
   <g id="patch_223">
    <path d="M 567.760405 258.116968 
L 585.335688 258.116968 
L 585.335688 179.405013 
L 567.760405 179.405013 
z
" clip-path="url(#p0e9b053957)" style="fill: #8c564b"/>
   </g>
   <g id="patch_224">
    <path d="M 587.288498 256.726641 
L 604.863781 256.726641 
L 604.863781 177.987806 
L 587.288498 177.987806 
z
" clip-path="url(#p0e9b053957)" style="fill: #8c564b"/>
   </g>
   <g id="patch_225">
    <path d="M 606.816591 255.342825 
L 624.391874 255.342825 
L 624.391874 176.569237 
L 606.816591 176.569237 
z
" clip-path="url(#p0e9b053957)" style="fill: #8c564b"/>
   </g>
   <g id="patch_226">
    <path d="M 626.344684 253.966303 
L 643.919967 253.966303 
L 643.919967 175.150963 
L 626.344684 175.150963 
z
" clip-path="url(#p0e9b053957)" style="fill: #8c564b"/>
   </g>
   <g id="patch_227">
    <path d="M 645.872776 252.597714 
L 663.44806 252.597714 
L 663.44806 173.734387 
L 645.872776 173.734387 
z
" clip-path="url(#p0e9b053957)" style="fill: #8c564b"/>
   </g>
   <g id="patch_228">
    <path d="M 665.400869 251.237577 
L 682.976153 251.237577 
L 682.976153 172.320704 
L 665.400869 172.320704 
z
" clip-path="url(#p0e9b053957)" style="fill: #8c564b"/>
   </g>
   <g id="patch_229">
    <path d="M 684.928962 249.886312 
L 702.504246 249.886312 
L 702.504246 170.910926 
L 684.928962 170.910926 
z
" clip-path="url(#p0e9b053957)" style="fill: #8c564b"/>
   </g>
   <g id="patch_230">
    <path d="M 704.457055 248.544256 
L 722.032339 248.544256 
L 722.032339 169.505917 
L 704.457055 169.505917 
z
" clip-path="url(#p0e9b053957)" style="fill: #8c564b"/>
   </g>
   <g id="patch_231">
    <path d="M 723.985148 247.211675 
L 741.560432 247.211675 
L 741.560432 168.106412 
L 723.985148 168.106412 
z
" clip-path="url(#p0e9b053957)" style="fill: #8c564b"/>
   </g>
   <g id="patch_232">
    <path d="M 743.513241 245.888778 
L 761.088525 245.888778 
L 761.088525 166.713037 
L 743.513241 166.713037 
z
" clip-path="url(#p0e9b053957)" style="fill: #8c564b"/>
   </g>
   <g id="patch_233">
    <path d="M 763.041334 244.575724 
L 780.616618 244.575724 
L 780.616618 165.326323 
L 763.041334 165.326323 
z
" clip-path="url(#p0e9b053957)" style="fill: #8c564b"/>
   </g>
   <g id="patch_234">
    <path d="M 782.569427 243.27263 
L 800.144711 243.27263 
L 800.144711 163.946722 
L 782.569427 163.946722 
z
" clip-path="url(#p0e9b053957)" style="fill: #8c564b"/>
   </g>
   <g id="patch_235">
    <path d="M 802.09752 241.979577 
L 819.672804 241.979577 
L 819.672804 162.574613 
L 802.09752 162.574613 
z
" clip-path="url(#p0e9b053957)" style="fill: #8c564b"/>
   </g>
   <g id="patch_236">
    <path d="M 821.625613 240.696618 
L 839.200897 240.696618 
L 839.200897 161.21032 
L 821.625613 161.21032 
z
" clip-path="url(#p0e9b053957)" style="fill: #8c564b"/>
   </g>
   <g id="patch_237">
    <path d="M 841.153706 239.423777 
L 858.72899 239.423777 
L 858.72899 159.85411 
L 841.153706 159.85411 
z
" clip-path="url(#p0e9b053957)" style="fill: #8c564b"/>
   </g>
   <g id="patch_238">
    <path d="M 860.681799 238.16106 
L 878.257083 238.16106 
L 878.257083 158.506207 
L 860.681799 158.506207 
z
" clip-path="url(#p0e9b053957)" style="fill: #8c564b"/>
   </g>
   <g id="patch_239">
    <path d="M 880.209892 236.908451 
L 897.785176 236.908451 
L 897.785176 157.166795 
L 880.209892 157.166795 
z
" clip-path="url(#p0e9b053957)" style="fill: #8c564b"/>
   </g>
   <g id="patch_240">
    <path d="M 899.737985 235.665922 
L 917.313269 235.665922 
L 917.313269 155.836026 
L 899.737985 155.836026 
z
" clip-path="url(#p0e9b053957)" style="fill: #8c564b"/>
   </g>
   <g id="patch_241">
    <path d="M 919.266078 234.433427 
L 936.841362 234.433427 
L 936.841362 154.514018 
L 919.266078 154.514018 
z
" clip-path="url(#p0e9b053957)" style="fill: #8c564b"/>
   </g>
   <g id="patch_242">
    <path d="M 938.794171 233.210913 
L 956.369455 233.210913 
L 956.369455 153.200865 
L 938.794171 153.200865 
z
" clip-path="url(#p0e9b053957)" style="fill: #8c564b"/>
   </g>
   <g id="patch_243">
    <path d="M 177.198545 193.740333 
L 194.773829 193.740333 
L 194.773829 113.226271 
L 177.198545 113.226271 
z
" clip-path="url(#p0e9b053957)" style="fill: #e377c2"/>
   </g>
   <g id="patch_244">
    <path d="M 196.726638 195.987746 
L 214.301922 195.987746 
L 214.301922 116.646994 
L 196.726638 116.646994 
z
" clip-path="url(#p0e9b053957)" style="fill: #e377c2"/>
   </g>
   <g id="patch_245">
    <path d="M 216.254731 197.158149 
L 233.830015 197.158149 
L 233.830015 118.888004 
L 216.254731 118.888004 
z
" clip-path="url(#p0e9b053957)" style="fill: #e377c2"/>
   </g>
   <g id="patch_246">
    <path d="M 235.782824 197.629865 
L 253.358108 197.629865 
L 253.358108 120.343904 
L 235.782824 120.343904 
z
" clip-path="url(#p0e9b053957)" style="fill: #e377c2"/>
   </g>
   <g id="patch_247">
    <path d="M 255.310917 197.623298 
L 272.886201 197.623298 
L 272.886201 121.248718 
L 255.310917 121.248718 
z
" clip-path="url(#p0e9b053957)" style="fill: #e377c2"/>
   </g>
   <g id="patch_248">
    <path d="M 274.83901 197.276068 
L 292.414294 197.276068 
L 292.414294 121.751 
L 274.83901 121.751 
z
" clip-path="url(#p0e9b053957)" style="fill: #e377c2"/>
   </g>
   <g id="patch_249">
    <path d="M 294.367103 196.678822 
L 311.942387 196.678822 
L 311.942387 121.950123 
L 294.367103 121.950123 
z
" clip-path="url(#p0e9b053957)" style="fill: #e377c2"/>
   </g>
   <g id="patch_250">
    <path d="M 313.895196 195.893843 
L 331.47048 195.893843 
L 331.47048 121.915378 
L 313.895196 121.915378 
z
" clip-path="url(#p0e9b053957)" style="fill: #e377c2"/>
   </g>
   <g id="patch_251">
    <path d="M 333.423289 194.965405 
L 350.998573 194.965405 
L 350.998573 121.696731 
L 333.423289 121.696731 
z
" clip-path="url(#p0e9b053957)" style="fill: #e377c2"/>
   </g>
   <g id="patch_252">
    <path d="M 352.951382 193.925876 
L 370.526666 193.925876 
L 370.526666 121.331222 
L 352.951382 121.331222 
z
" clip-path="url(#p0e9b053957)" style="fill: #e377c2"/>
   </g>
   <g id="patch_253">
    <path d="M 372.479475 192.799482 
L 390.054759 192.799482 
L 390.054759 120.846955 
L 372.479475 120.846955 
z
" clip-path="url(#p0e9b053957)" style="fill: #e377c2"/>
   </g>
   <g id="patch_254">
    <path d="M 392.007568 191.604707 
L 409.582852 191.604707 
L 409.582852 120.26567 
L 392.007568 120.26567 
z
" clip-path="url(#p0e9b053957)" style="fill: #e377c2"/>
   </g>
   <g id="patch_255">
    <path d="M 411.535661 190.355901 
L 429.110945 190.355901 
L 429.110945 119.604472 
L 411.535661 119.604472 
z
" clip-path="url(#p0e9b053957)" style="fill: #e377c2"/>
   </g>
   <g id="patch_256">
    <path d="M 431.063754 189.064359 
L 448.639038 189.064359 
L 448.639038 118.877015 
L 431.063754 118.877015 
z
" clip-path="url(#p0e9b053957)" style="fill: #e377c2"/>
   </g>
   <g id="patch_257">
    <path d="M 450.591847 187.739083 
L 468.167131 187.739083 
L 468.167131 118.094334 
L 450.591847 118.094334 
z
" clip-path="url(#p0e9b053957)" style="fill: #e377c2"/>
   </g>
   <g id="patch_258">
    <path d="M 470.11994 186.387332 
L 487.695224 186.387332 
L 487.695224 117.265448 
L 470.11994 117.265448 
z
" clip-path="url(#p0e9b053957)" style="fill: #e377c2"/>
   </g>
   <g id="patch_259">
    <path d="M 489.648033 185.015004 
L 507.223316 185.015004 
L 507.223316 116.397802 
L 489.648033 116.397802 
z
" clip-path="url(#p0e9b053957)" style="fill: #e377c2"/>
   </g>
   <g id="patch_260">
    <path d="M 509.176126 183.626938 
L 526.751409 183.626938 
L 526.751409 115.49759 
L 509.176126 115.49759 
z
" clip-path="url(#p0e9b053957)" style="fill: #e377c2"/>
   </g>
   <g id="patch_261">
    <path d="M 528.704219 182.227129 
L 546.279502 182.227129 
L 546.279502 114.570008 
L 528.704219 114.570008 
z
" clip-path="url(#p0e9b053957)" style="fill: #e377c2"/>
   </g>
   <g id="patch_262">
    <path d="M 548.232312 180.818896 
L 565.807595 180.818896 
L 565.807595 113.619444 
L 548.232312 113.619444 
z
" clip-path="url(#p0e9b053957)" style="fill: #e377c2"/>
   </g>
   <g id="patch_263">
    <path d="M 567.760405 179.405013 
L 585.335688 179.405013 
L 585.335688 112.649629 
L 567.760405 112.649629 
z
" clip-path="url(#p0e9b053957)" style="fill: #e377c2"/>
   </g>
   <g id="patch_264">
    <path d="M 587.288498 177.987806 
L 604.863781 177.987806 
L 604.863781 111.663745 
L 587.288498 111.663745 
z
" clip-path="url(#p0e9b053957)" style="fill: #e377c2"/>
   </g>
   <g id="patch_265">
    <path d="M 606.816591 176.569237 
L 624.391874 176.569237 
L 624.391874 110.664528 
L 606.816591 110.664528 
z
" clip-path="url(#p0e9b053957)" style="fill: #e377c2"/>
   </g>
   <g id="patch_266">
    <path d="M 626.344684 175.150963 
L 643.919967 175.150963 
L 643.919967 109.654336 
L 626.344684 109.654336 
z
" clip-path="url(#p0e9b053957)" style="fill: #e377c2"/>
   </g>
   <g id="patch_267">
    <path d="M 645.872776 173.734387 
L 663.44806 173.734387 
L 663.44806 108.63521 
L 645.872776 108.63521 
z
" clip-path="url(#p0e9b053957)" style="fill: #e377c2"/>
   </g>
   <g id="patch_268">
    <path d="M 665.400869 172.320704 
L 682.976153 172.320704 
L 682.976153 107.608923 
L 665.400869 107.608923 
z
" clip-path="url(#p0e9b053957)" style="fill: #e377c2"/>
   </g>
   <g id="patch_269">
    <path d="M 684.928962 170.910926 
L 702.504246 170.910926 
L 702.504246 106.577019 
L 684.928962 106.577019 
z
" clip-path="url(#p0e9b053957)" style="fill: #e377c2"/>
   </g>
   <g id="patch_270">
    <path d="M 704.457055 169.505917 
L 722.032339 169.505917 
L 722.032339 105.540849 
L 704.457055 105.540849 
z
" clip-path="url(#p0e9b053957)" style="fill: #e377c2"/>
   </g>
   <g id="patch_271">
    <path d="M 723.985148 168.106412 
L 741.560432 168.106412 
L 741.560432 104.501597 
L 723.985148 104.501597 
z
" clip-path="url(#p0e9b053957)" style="fill: #e377c2"/>
   </g>
   <g id="patch_272">
    <path d="M 743.513241 166.713037 
L 761.088525 166.713037 
L 761.088525 103.460301 
L 743.513241 103.460301 
z
" clip-path="url(#p0e9b053957)" style="fill: #e377c2"/>
   </g>
   <g id="patch_273">
    <path d="M 763.041334 165.326323 
L 780.616618 165.326323 
L 780.616618 102.417874 
L 763.041334 102.417874 
z
" clip-path="url(#p0e9b053957)" style="fill: #e377c2"/>
   </g>
   <g id="patch_274">
    <path d="M 782.569427 163.946722 
L 800.144711 163.946722 
L 800.144711 101.375121 
L 782.569427 101.375121 
z
" clip-path="url(#p0e9b053957)" style="fill: #e377c2"/>
   </g>
   <g id="patch_275">
    <path d="M 802.09752 162.574613 
L 819.672804 162.574613 
L 819.672804 100.332753 
L 802.09752 100.332753 
z
" clip-path="url(#p0e9b053957)" style="fill: #e377c2"/>
   </g>
   <g id="patch_276">
    <path d="M 821.625613 161.21032 
L 839.200897 161.21032 
L 839.200897 99.291396 
L 821.625613 99.291396 
z
" clip-path="url(#p0e9b053957)" style="fill: #e377c2"/>
   </g>
   <g id="patch_277">
    <path d="M 841.153706 159.85411 
L 858.72899 159.85411 
L 858.72899 98.251606 
L 841.153706 98.251606 
z
" clip-path="url(#p0e9b053957)" style="fill: #e377c2"/>
   </g>
   <g id="patch_278">
    <path d="M 860.681799 158.506207 
L 878.257083 158.506207 
L 878.257083 97.213872 
L 860.681799 97.213872 
z
" clip-path="url(#p0e9b053957)" style="fill: #e377c2"/>
   </g>
   <g id="patch_279">
    <path d="M 880.209892 157.166795 
L 897.785176 157.166795 
L 897.785176 96.178627 
L 880.209892 96.178627 
z
" clip-path="url(#p0e9b053957)" style="fill: #e377c2"/>
   </g>
   <g id="patch_280">
    <path d="M 899.737985 155.836026 
L 917.313269 155.836026 
L 917.313269 95.146257 
L 899.737985 95.146257 
z
" clip-path="url(#p0e9b053957)" style="fill: #e377c2"/>
   </g>
   <g id="patch_281">
    <path d="M 919.266078 154.514018 
L 936.841362 154.514018 
L 936.841362 94.1171 
L 919.266078 94.1171 
z
" clip-path="url(#p0e9b053957)" style="fill: #e377c2"/>
   </g>
   <g id="patch_282">
    <path d="M 938.794171 153.200865 
L 956.369455 153.200865 
L 956.369455 93.091456 
L 938.794171 93.091456 
z
" clip-path="url(#p0e9b053957)" style="fill: #e377c2"/>
   </g>
   <g id="patch_283">
    <path d="M 177.198545 113.226271 
L 194.773829 113.226271 
L 194.773829 91.863847 
L 177.198545 91.863847 
z
" clip-path="url(#p0e9b053957)" style="fill: #7f7f7f"/>
   </g>
   <g id="patch_284">
    <path d="M 196.726638 116.646994 
L 214.301922 116.646994 
L 214.301922 96.798547 
L 196.726638 96.798547 
z
" clip-path="url(#p0e9b053957)" style="fill: #7f7f7f"/>
   </g>
   <g id="patch_285">
    <path d="M 216.254731 118.888004 
L 233.830015 118.888004 
L 233.830015 100.327584 
L 216.254731 100.327584 
z
" clip-path="url(#p0e9b053957)" style="fill: #7f7f7f"/>
   </g>
   <g id="patch_286">
    <path d="M 235.782824 120.343904 
L 253.358108 120.343904 
L 253.358108 102.905377 
L 235.782824 102.905377 
z
" clip-path="url(#p0e9b053957)" style="fill: #7f7f7f"/>
   </g>
   <g id="patch_287">
    <path d="M 255.310917 121.248718 
L 272.886201 121.248718 
L 272.886201 104.804825 
L 255.310917 104.804825 
z
" clip-path="url(#p0e9b053957)" style="fill: #7f7f7f"/>
   </g>
   <g id="patch_288">
    <path d="M 274.83901 121.751 
L 292.414294 121.751 
L 292.414294 106.201098 
L 274.83901 106.201098 
z
" clip-path="url(#p0e9b053957)" style="fill: #7f7f7f"/>
   </g>
   <g id="patch_289">
    <path d="M 294.367103 121.950123 
L 311.942387 121.950123 
L 311.942387 107.212568 
L 294.367103 107.212568 
z
" clip-path="url(#p0e9b053957)" style="fill: #7f7f7f"/>
   </g>
   <g id="patch_290">
    <path d="M 313.895196 121.915378 
L 331.47048 121.915378 
L 331.47048 107.922555 
L 313.895196 107.922555 
z
" clip-path="url(#p0e9b053957)" style="fill: #7f7f7f"/>
   </g>
   <g id="patch_291">
    <path d="M 333.423289 121.696731 
L 350.998573 121.696731 
L 350.998573 108.391679 
L 333.423289 108.391679 
z
" clip-path="url(#p0e9b053957)" style="fill: #7f7f7f"/>
   </g>
   <g id="patch_292">
    <path d="M 352.951382 121.331222 
L 370.526666 121.331222 
L 370.526666 108.665263 
L 352.951382 108.665263 
z
" clip-path="url(#p0e9b053957)" style="fill: #7f7f7f"/>
   </g>
   <g id="patch_293">
    <path d="M 372.479475 120.846955 
L 390.054759 120.846955 
L 390.054759 108.777979 
L 372.479475 108.777979 
z
" clip-path="url(#p0e9b053957)" style="fill: #7f7f7f"/>
   </g>
   <g id="patch_294">
    <path d="M 392.007568 120.26567 
L 409.582852 120.26567 
L 409.582852 108.756867 
L 392.007568 108.756867 
z
" clip-path="url(#p0e9b053957)" style="fill: #7f7f7f"/>
   </g>
   <g id="patch_295">
    <path d="M 411.535661 119.604472 
L 429.110945 119.604472 
L 429.110945 108.623371 
L 411.535661 108.623371 
z
" clip-path="url(#p0e9b053957)" style="fill: #7f7f7f"/>
   </g>
   <g id="patch_296">
    <path d="M 431.063754 118.877015 
L 448.639038 118.877015 
L 448.639038 108.394741 
L 431.063754 108.394741 
z
" clip-path="url(#p0e9b053957)" style="fill: #7f7f7f"/>
   </g>
   <g id="patch_297">
    <path d="M 450.591847 118.094334 
L 468.167131 118.094334 
L 468.167131 108.085033 
L 450.591847 108.085033 
z
" clip-path="url(#p0e9b053957)" style="fill: #7f7f7f"/>
   </g>
   <g id="patch_298">
    <path d="M 470.11994 117.265448 
L 487.695224 117.265448 
L 487.695224 107.705825 
L 470.11994 107.705825 
z
" clip-path="url(#p0e9b053957)" style="fill: #7f7f7f"/>
   </g>
   <g id="patch_299">
    <path d="M 489.648033 116.397802 
L 507.223316 116.397802 
L 507.223316 107.266749 
L 489.648033 107.266749 
z
" clip-path="url(#p0e9b053957)" style="fill: #7f7f7f"/>
   </g>
   <g id="patch_300">
    <path d="M 509.176126 115.49759 
L 526.751409 115.49759 
L 526.751409 106.775884 
L 509.176126 106.775884 
z
" clip-path="url(#p0e9b053957)" style="fill: #7f7f7f"/>
   </g>
   <g id="patch_301">
    <path d="M 528.704219 114.570008 
L 546.279502 114.570008 
L 546.279502 106.240067 
L 528.704219 106.240067 
z
" clip-path="url(#p0e9b053957)" style="fill: #7f7f7f"/>
   </g>
   <g id="patch_302">
    <path d="M 548.232312 113.619444 
L 565.807595 113.619444 
L 565.807595 105.665118 
L 548.232312 105.665118 
z
" clip-path="url(#p0e9b053957)" style="fill: #7f7f7f"/>
   </g>
   <g id="patch_303">
    <path d="M 567.760405 112.649629 
L 585.335688 112.649629 
L 585.335688 105.056025 
L 567.760405 105.056025 
z
" clip-path="url(#p0e9b053957)" style="fill: #7f7f7f"/>
   </g>
   <g id="patch_304">
    <path d="M 587.288498 111.663745 
L 604.863781 111.663745 
L 604.863781 104.417089 
L 587.288498 104.417089 
z
" clip-path="url(#p0e9b053957)" style="fill: #7f7f7f"/>
   </g>
   <g id="patch_305">
    <path d="M 606.816591 110.664528 
L 624.391874 110.664528 
L 624.391874 103.752034 
L 606.816591 103.752034 
z
" clip-path="url(#p0e9b053957)" style="fill: #7f7f7f"/>
   </g>
   <g id="patch_306">
    <path d="M 626.344684 109.654336 
L 643.919967 109.654336 
L 643.919967 103.064103 
L 626.344684 103.064103 
z
" clip-path="url(#p0e9b053957)" style="fill: #7f7f7f"/>
   </g>
   <g id="patch_307">
    <path d="M 645.872776 108.63521 
L 663.44806 108.63521 
L 663.44806 102.356132 
L 645.872776 102.356132 
z
" clip-path="url(#p0e9b053957)" style="fill: #7f7f7f"/>
   </g>
   <g id="patch_308">
    <path d="M 665.400869 107.608923 
L 682.976153 107.608923 
L 682.976153 101.630608 
L 665.400869 101.630608 
z
" clip-path="url(#p0e9b053957)" style="fill: #7f7f7f"/>
   </g>
   <g id="patch_309">
    <path d="M 684.928962 106.577019 
L 702.504246 106.577019 
L 702.504246 100.889724 
L 684.928962 100.889724 
z
" clip-path="url(#p0e9b053957)" style="fill: #7f7f7f"/>
   </g>
   <g id="patch_310">
    <path d="M 704.457055 105.540849 
L 722.032339 105.540849 
L 722.032339 100.135417 
L 704.457055 100.135417 
z
" clip-path="url(#p0e9b053957)" style="fill: #7f7f7f"/>
   </g>
   <g id="patch_311">
    <path d="M 723.985148 104.501597 
L 741.560432 104.501597 
L 741.560432 99.369403 
L 723.985148 99.369403 
z
" clip-path="url(#p0e9b053957)" style="fill: #7f7f7f"/>
   </g>
   <g id="patch_312">
    <path d="M 743.513241 103.460301 
L 761.088525 103.460301 
L 761.088525 98.593209 
L 743.513241 98.593209 
z
" clip-path="url(#p0e9b053957)" style="fill: #7f7f7f"/>
   </g>
   <g id="patch_313">
    <path d="M 763.041334 102.417874 
L 780.616618 102.417874 
L 780.616618 97.808195 
L 763.041334 97.808195 
z
" clip-path="url(#p0e9b053957)" style="fill: #7f7f7f"/>
   </g>
   <g id="patch_314">
    <path d="M 782.569427 101.375121 
L 800.144711 101.375121 
L 800.144711 97.015576 
L 782.569427 97.015576 
z
" clip-path="url(#p0e9b053957)" style="fill: #7f7f7f"/>
   </g>
   <g id="patch_315">
    <path d="M 802.09752 100.332753 
L 819.672804 100.332753 
L 819.672804 96.216438 
L 802.09752 96.216438 
z
" clip-path="url(#p0e9b053957)" style="fill: #7f7f7f"/>
   </g>
   <g id="patch_316">
    <path d="M 821.625613 99.291396 
L 839.200897 99.291396 
L 839.200897 95.411758 
L 821.625613 95.411758 
z
" clip-path="url(#p0e9b053957)" style="fill: #7f7f7f"/>
   </g>
   <g id="patch_317">
    <path d="M 841.153706 98.251606 
L 858.72899 98.251606 
L 858.72899 94.602412 
L 841.153706 94.602412 
z
" clip-path="url(#p0e9b053957)" style="fill: #7f7f7f"/>
   </g>
   <g id="patch_318">
    <path d="M 860.681799 97.213872 
L 878.257083 97.213872 
L 878.257083 93.789187 
L 860.681799 93.789187 
z
" clip-path="url(#p0e9b053957)" style="fill: #7f7f7f"/>
   </g>
   <g id="patch_319">
    <path d="M 880.209892 96.178627 
L 897.785176 96.178627 
L 897.785176 92.972793 
L 880.209892 92.972793 
z
" clip-path="url(#p0e9b053957)" style="fill: #7f7f7f"/>
   </g>
   <g id="patch_320">
    <path d="M 899.737985 95.146257 
L 917.313269 95.146257 
L 917.313269 92.153875 
L 899.737985 92.153875 
z
" clip-path="url(#p0e9b053957)" style="fill: #7f7f7f"/>
   </g>
   <g id="patch_321">
    <path d="M 919.266078 94.1171 
L 936.841362 94.1171 
L 936.841362 91.333009 
L 919.266078 91.333009 
z
" clip-path="url(#p0e9b053957)" style="fill: #7f7f7f"/>
   </g>
   <g id="patch_322">
    <path d="M 938.794171 93.091456 
L 956.369455 93.091456 
L 956.369455 90.51072 
L 938.794171 90.51072 
z
" clip-path="url(#p0e9b053957)" style="fill: #7f7f7f"/>
   </g>
   <g id="matplotlib.axis_1">
    <g id="xtick_1">
     <g id="line2d_1">
      <defs>
       <path id="m7635aa59f4" d="M 0 0 
L 0 3.5 
" style="stroke: #000000; stroke-width: 0.8"/>
      </defs>
      <g>
       <use xlink:href="#m7635aa59f4" x="185.986187" y="514.17792" style="stroke: #000000; stroke-width: 0.8"/>
      </g>
     </g>
     <g id="text_1">
      <!-- 40 -->
      <g transform="translate(174.533687 534.855107) scale(0.18 -0.18)">
       <defs>
        <path id="DejaVuSans-34" d="M 2419 4116 
L 825 1625 
L 2419 1625 
L 2419 4116 
z
M 2253 4666 
L 3047 4666 
L 3047 1625 
L 3713 1625 
L 3713 1100 
L 3047 1100 
L 3047 0 
L 2419 0 
L 2419 1100 
L 313 1100 
L 313 1709 
L 2253 4666 
z
" transform="scale(0.015625)"/>
        <path id="DejaVuSans-30" d="M 2034 4250 
Q 1547 4250 1301 3770 
Q 1056 3291 1056 2328 
Q 1056 1369 1301 889 
Q 1547 409 2034 409 
Q 2525 409 2770 889 
Q 3016 1369 3016 2328 
Q 3016 3291 2770 3770 
Q 2525 4250 2034 4250 
z
M 2034 4750 
Q 2819 4750 3233 4129 
Q 3647 3509 3647 2328 
Q 3647 1150 3233 529 
Q 2819 -91 2034 -91 
Q 1250 -91 836 529 
Q 422 1150 422 2328 
Q 422 3509 836 4129 
Q 1250 4750 2034 4750 
z
" transform="scale(0.015625)"/>
       </defs>
       <use xlink:href="#DejaVuSans-34"/>
       <use xlink:href="#DejaVuSans-30" x="63.623047"/>
      </g>
     </g>
    </g>
    <g id="xtick_2">
     <g id="line2d_2">
      <g>
       <use xlink:href="#m7635aa59f4" x="303.154745" y="514.17792" style="stroke: #000000; stroke-width: 0.8"/>
      </g>
     </g>
     <g id="text_2">
      <!-- 42 -->
      <g transform="translate(291.702245 534.855107) scale(0.18 -0.18)">
       <defs>
        <path id="DejaVuSans-32" d="M 1228 531 
L 3431 531 
L 3431 0 
L 469 0 
L 469 531 
Q 828 903 1448 1529 
Q 2069 2156 2228 2338 
Q 2531 2678 2651 2914 
Q 2772 3150 2772 3378 
Q 2772 3750 2511 3984 
Q 2250 4219 1831 4219 
Q 1534 4219 1204 4116 
Q 875 4013 500 3803 
L 500 4441 
Q 881 4594 1212 4672 
Q 1544 4750 1819 4750 
Q 2544 4750 2975 4387 
Q 3406 4025 3406 3419 
Q 3406 3131 3298 2873 
Q 3191 2616 2906 2266 
Q 2828 2175 2409 1742 
Q 1991 1309 1228 531 
z
" transform="scale(0.015625)"/>
       </defs>
       <use xlink:href="#DejaVuSans-34"/>
       <use xlink:href="#DejaVuSans-32" x="63.623047"/>
      </g>
     </g>
    </g>
    <g id="xtick_3">
     <g id="line2d_3">
      <g>
       <use xlink:href="#m7635aa59f4" x="420.323303" y="514.17792" style="stroke: #000000; stroke-width: 0.8"/>
      </g>
     </g>
     <g id="text_3">
      <!-- 44 -->
      <g transform="translate(408.870803 534.855107) scale(0.18 -0.18)">
       <use xlink:href="#DejaVuSans-34"/>
       <use xlink:href="#DejaVuSans-34" x="63.623047"/>
      </g>
     </g>
    </g>
    <g id="xtick_4">
     <g id="line2d_4">
      <g>
       <use xlink:href="#m7635aa59f4" x="537.491861" y="514.17792" style="stroke: #000000; stroke-width: 0.8"/>
      </g>
     </g>
     <g id="text_4">
      <!-- 46 -->
      <g transform="translate(526.039361 534.855107) scale(0.18 -0.18)">
       <defs>
        <path id="DejaVuSans-36" d="M 2113 2584 
Q 1688 2584 1439 2293 
Q 1191 2003 1191 1497 
Q 1191 994 1439 701 
Q 1688 409 2113 409 
Q 2538 409 2786 701 
Q 3034 994 3034 1497 
Q 3034 2003 2786 2293 
Q 2538 2584 2113 2584 
z
M 3366 4563 
L 3366 3988 
Q 3128 4100 2886 4159 
Q 2644 4219 2406 4219 
Q 1781 4219 1451 3797 
Q 1122 3375 1075 2522 
Q 1259 2794 1537 2939 
Q 1816 3084 2150 3084 
Q 2853 3084 3261 2657 
Q 3669 2231 3669 1497 
Q 3669 778 3244 343 
Q 2819 -91 2113 -91 
Q 1303 -91 875 529 
Q 447 1150 447 2328 
Q 447 3434 972 4092 
Q 1497 4750 2381 4750 
Q 2619 4750 2861 4703 
Q 3103 4656 3366 4563 
z
" transform="scale(0.015625)"/>
       </defs>
       <use xlink:href="#DejaVuSans-34"/>
       <use xlink:href="#DejaVuSans-36" x="63.623047"/>
      </g>
     </g>
    </g>
    <g id="xtick_5">
     <g id="line2d_5">
      <g>
       <use xlink:href="#m7635aa59f4" x="654.660418" y="514.17792" style="stroke: #000000; stroke-width: 0.8"/>
      </g>
     </g>
     <g id="text_5">
      <!-- 48 -->
      <g transform="translate(643.207918 534.855107) scale(0.18 -0.18)">
       <defs>
        <path id="DejaVuSans-38" d="M 2034 2216 
Q 1584 2216 1326 1975 
Q 1069 1734 1069 1313 
Q 1069 891 1326 650 
Q 1584 409 2034 409 
Q 2484 409 2743 651 
Q 3003 894 3003 1313 
Q 3003 1734 2745 1975 
Q 2488 2216 2034 2216 
z
M 1403 2484 
Q 997 2584 770 2862 
Q 544 3141 544 3541 
Q 544 4100 942 4425 
Q 1341 4750 2034 4750 
Q 2731 4750 3128 4425 
Q 3525 4100 3525 3541 
Q 3525 3141 3298 2862 
Q 3072 2584 2669 2484 
Q 3125 2378 3379 2068 
Q 3634 1759 3634 1313 
Q 3634 634 3220 271 
Q 2806 -91 2034 -91 
Q 1263 -91 848 271 
Q 434 634 434 1313 
Q 434 1759 690 2068 
Q 947 2378 1403 2484 
z
M 1172 3481 
Q 1172 3119 1398 2916 
Q 1625 2713 2034 2713 
Q 2441 2713 2670 2916 
Q 2900 3119 2900 3481 
Q 2900 3844 2670 4047 
Q 2441 4250 2034 4250 
Q 1625 4250 1398 4047 
Q 1172 3844 1172 3481 
z
" transform="scale(0.015625)"/>
       </defs>
       <use xlink:href="#DejaVuSans-34"/>
       <use xlink:href="#DejaVuSans-38" x="63.623047"/>
      </g>
     </g>
    </g>
    <g id="xtick_6">
     <g id="line2d_6">
      <g>
       <use xlink:href="#m7635aa59f4" x="771.828976" y="514.17792" style="stroke: #000000; stroke-width: 0.8"/>
      </g>
     </g>
     <g id="text_6">
      <!-- 50 -->
      <g transform="translate(760.376476 534.855107) scale(0.18 -0.18)">
       <defs>
        <path id="DejaVuSans-35" d="M 691 4666 
L 3169 4666 
L 3169 4134 
L 1269 4134 
L 1269 2991 
Q 1406 3038 1543 3061 
Q 1681 3084 1819 3084 
Q 2600 3084 3056 2656 
Q 3513 2228 3513 1497 
Q 3513 744 3044 326 
Q 2575 -91 1722 -91 
Q 1428 -91 1123 -41 
Q 819 9 494 109 
L 494 744 
Q 775 591 1075 516 
Q 1375 441 1709 441 
Q 2250 441 2565 725 
Q 2881 1009 2881 1497 
Q 2881 1984 2565 2268 
Q 2250 2553 1709 2553 
Q 1456 2553 1204 2497 
Q 953 2441 691 2322 
L 691 4666 
z
" transform="scale(0.015625)"/>
       </defs>
       <use xlink:href="#DejaVuSans-35"/>
       <use xlink:href="#DejaVuSans-30" x="63.623047"/>
      </g>
     </g>
    </g>
    <g id="xtick_7">
     <g id="line2d_7">
      <g>
       <use xlink:href="#m7635aa59f4" x="888.997534" y="514.17792" style="stroke: #000000; stroke-width: 0.8"/>
      </g>
     </g>
     <g id="text_7">
      <!-- 52 -->
      <g transform="translate(877.545034 534.855107) scale(0.18 -0.18)">
       <use xlink:href="#DejaVuSans-35"/>
       <use xlink:href="#DejaVuSans-32" x="63.623047"/>
      </g>
     </g>
    </g>
    <g id="text_8">
     <!-- Kondensatordruck in bar -->
     <g transform="translate(456.254156 556.275733) scale(0.18 -0.18)">
      <defs>
       <path id="DejaVuSans-4b" d="M 628 4666 
L 1259 4666 
L 1259 2694 
L 3353 4666 
L 4166 4666 
L 1850 2491 
L 4331 0 
L 3500 0 
L 1259 2247 
L 1259 0 
L 628 0 
L 628 4666 
z
" transform="scale(0.015625)"/>
       <path id="DejaVuSans-6f" d="M 1959 3097 
Q 1497 3097 1228 2736 
Q 959 2375 959 1747 
Q 959 1119 1226 758 
Q 1494 397 1959 397 
Q 2419 397 2687 759 
Q 2956 1122 2956 1747 
Q 2956 2369 2687 2733 
Q 2419 3097 1959 3097 
z
M 1959 3584 
Q 2709 3584 3137 3096 
Q 3566 2609 3566 1747 
Q 3566 888 3137 398 
Q 2709 -91 1959 -91 
Q 1206 -91 779 398 
Q 353 888 353 1747 
Q 353 2609 779 3096 
Q 1206 3584 1959 3584 
z
" transform="scale(0.015625)"/>
       <path id="DejaVuSans-6e" d="M 3513 2113 
L 3513 0 
L 2938 0 
L 2938 2094 
Q 2938 2591 2744 2837 
Q 2550 3084 2163 3084 
Q 1697 3084 1428 2787 
Q 1159 2491 1159 1978 
L 1159 0 
L 581 0 
L 581 3500 
L 1159 3500 
L 1159 2956 
Q 1366 3272 1645 3428 
Q 1925 3584 2291 3584 
Q 2894 3584 3203 3211 
Q 3513 2838 3513 2113 
z
" transform="scale(0.015625)"/>
       <path id="DejaVuSans-64" d="M 2906 2969 
L 2906 4863 
L 3481 4863 
L 3481 0 
L 2906 0 
L 2906 525 
Q 2725 213 2448 61 
Q 2172 -91 1784 -91 
Q 1150 -91 751 415 
Q 353 922 353 1747 
Q 353 2572 751 3078 
Q 1150 3584 1784 3584 
Q 2172 3584 2448 3432 
Q 2725 3281 2906 2969 
z
M 947 1747 
Q 947 1113 1208 752 
Q 1469 391 1925 391 
Q 2381 391 2643 752 
Q 2906 1113 2906 1747 
Q 2906 2381 2643 2742 
Q 2381 3103 1925 3103 
Q 1469 3103 1208 2742 
Q 947 2381 947 1747 
z
" transform="scale(0.015625)"/>
       <path id="DejaVuSans-65" d="M 3597 1894 
L 3597 1613 
L 953 1613 
Q 991 1019 1311 708 
Q 1631 397 2203 397 
Q 2534 397 2845 478 
Q 3156 559 3463 722 
L 3463 178 
Q 3153 47 2828 -22 
Q 2503 -91 2169 -91 
Q 1331 -91 842 396 
Q 353 884 353 1716 
Q 353 2575 817 3079 
Q 1281 3584 2069 3584 
Q 2775 3584 3186 3129 
Q 3597 2675 3597 1894 
z
M 3022 2063 
Q 3016 2534 2758 2815 
Q 2500 3097 2075 3097 
Q 1594 3097 1305 2825 
Q 1016 2553 972 2059 
L 3022 2063 
z
" transform="scale(0.015625)"/>
       <path id="DejaVuSans-73" d="M 2834 3397 
L 2834 2853 
Q 2591 2978 2328 3040 
Q 2066 3103 1784 3103 
Q 1356 3103 1142 2972 
Q 928 2841 928 2578 
Q 928 2378 1081 2264 
Q 1234 2150 1697 2047 
L 1894 2003 
Q 2506 1872 2764 1633 
Q 3022 1394 3022 966 
Q 3022 478 2636 193 
Q 2250 -91 1575 -91 
Q 1294 -91 989 -36 
Q 684 19 347 128 
L 347 722 
Q 666 556 975 473 
Q 1284 391 1588 391 
Q 1994 391 2212 530 
Q 2431 669 2431 922 
Q 2431 1156 2273 1281 
Q 2116 1406 1581 1522 
L 1381 1569 
Q 847 1681 609 1914 
Q 372 2147 372 2553 
Q 372 3047 722 3315 
Q 1072 3584 1716 3584 
Q 2034 3584 2315 3537 
Q 2597 3491 2834 3397 
z
" transform="scale(0.015625)"/>
       <path id="DejaVuSans-61" d="M 2194 1759 
Q 1497 1759 1228 1600 
Q 959 1441 959 1056 
Q 959 750 1161 570 
Q 1363 391 1709 391 
Q 2188 391 2477 730 
Q 2766 1069 2766 1631 
L 2766 1759 
L 2194 1759 
z
M 3341 1997 
L 3341 0 
L 2766 0 
L 2766 531 
Q 2569 213 2275 61 
Q 1981 -91 1556 -91 
Q 1019 -91 701 211 
Q 384 513 384 1019 
Q 384 1609 779 1909 
Q 1175 2209 1959 2209 
L 2766 2209 
L 2766 2266 
Q 2766 2663 2505 2880 
Q 2244 3097 1772 3097 
Q 1472 3097 1187 3025 
Q 903 2953 641 2809 
L 641 3341 
Q 956 3463 1253 3523 
Q 1550 3584 1831 3584 
Q 2591 3584 2966 3190 
Q 3341 2797 3341 1997 
z
" transform="scale(0.015625)"/>
       <path id="DejaVuSans-74" d="M 1172 4494 
L 1172 3500 
L 2356 3500 
L 2356 3053 
L 1172 3053 
L 1172 1153 
Q 1172 725 1289 603 
Q 1406 481 1766 481 
L 2356 481 
L 2356 0 
L 1766 0 
Q 1100 0 847 248 
Q 594 497 594 1153 
L 594 3053 
L 172 3053 
L 172 3500 
L 594 3500 
L 594 4494 
L 1172 4494 
z
" transform="scale(0.015625)"/>
       <path id="DejaVuSans-72" d="M 2631 2963 
Q 2534 3019 2420 3045 
Q 2306 3072 2169 3072 
Q 1681 3072 1420 2755 
Q 1159 2438 1159 1844 
L 1159 0 
L 581 0 
L 581 3500 
L 1159 3500 
L 1159 2956 
Q 1341 3275 1631 3429 
Q 1922 3584 2338 3584 
Q 2397 3584 2469 3576 
Q 2541 3569 2628 3553 
L 2631 2963 
z
" transform="scale(0.015625)"/>
       <path id="DejaVuSans-75" d="M 544 1381 
L 544 3500 
L 1119 3500 
L 1119 1403 
Q 1119 906 1312 657 
Q 1506 409 1894 409 
Q 2359 409 2629 706 
Q 2900 1003 2900 1516 
L 2900 3500 
L 3475 3500 
L 3475 0 
L 2900 0 
L 2900 538 
Q 2691 219 2414 64 
Q 2138 -91 1772 -91 
Q 1169 -91 856 284 
Q 544 659 544 1381 
z
M 1991 3584 
L 1991 3584 
z
" transform="scale(0.015625)"/>
       <path id="DejaVuSans-63" d="M 3122 3366 
L 3122 2828 
Q 2878 2963 2633 3030 
Q 2388 3097 2138 3097 
Q 1578 3097 1268 2742 
Q 959 2388 959 1747 
Q 959 1106 1268 751 
Q 1578 397 2138 397 
Q 2388 397 2633 464 
Q 2878 531 3122 666 
L 3122 134 
Q 2881 22 2623 -34 
Q 2366 -91 2075 -91 
Q 1284 -91 818 406 
Q 353 903 353 1747 
Q 353 2603 823 3093 
Q 1294 3584 2113 3584 
Q 2378 3584 2631 3529 
Q 2884 3475 3122 3366 
z
" transform="scale(0.015625)"/>
       <path id="DejaVuSans-6b" d="M 581 4863 
L 1159 4863 
L 1159 1991 
L 2875 3500 
L 3609 3500 
L 1753 1863 
L 3688 0 
L 2938 0 
L 1159 1709 
L 1159 0 
L 581 0 
L 581 4863 
z
" transform="scale(0.015625)"/>
       <path id="DejaVuSans-20" transform="scale(0.015625)"/>
       <path id="DejaVuSans-69" d="M 603 3500 
L 1178 3500 
L 1178 0 
L 603 0 
L 603 3500 
z
M 603 4863 
L 1178 4863 
L 1178 4134 
L 603 4134 
L 603 4863 
z
" transform="scale(0.015625)"/>
       <path id="DejaVuSans-62" d="M 3116 1747 
Q 3116 2381 2855 2742 
Q 2594 3103 2138 3103 
Q 1681 3103 1420 2742 
Q 1159 2381 1159 1747 
Q 1159 1113 1420 752 
Q 1681 391 2138 391 
Q 2594 391 2855 752 
Q 3116 1113 3116 1747 
z
M 1159 2969 
Q 1341 3281 1617 3432 
Q 1894 3584 2278 3584 
Q 2916 3584 3314 3078 
Q 3713 2572 3713 1747 
Q 3713 922 3314 415 
Q 2916 -91 2278 -91 
Q 1894 -91 1617 61 
Q 1341 213 1159 525 
L 1159 0 
L 581 0 
L 581 4863 
L 1159 4863 
L 1159 2969 
z
" transform="scale(0.015625)"/>
      </defs>
      <use xlink:href="#DejaVuSans-4b"/>
      <use xlink:href="#DejaVuSans-6f" x="60.576172"/>
      <use xlink:href="#DejaVuSans-6e" x="121.757812"/>
      <use xlink:href="#DejaVuSans-64" x="185.136719"/>
      <use xlink:href="#DejaVuSans-65" x="248.613281"/>
      <use xlink:href="#DejaVuSans-6e" x="310.136719"/>
      <use xlink:href="#DejaVuSans-73" x="373.515625"/>
      <use xlink:href="#DejaVuSans-61" x="425.615234"/>
      <use xlink:href="#DejaVuSans-74" x="486.894531"/>
      <use xlink:href="#DejaVuSans-6f" x="526.103516"/>
      <use xlink:href="#DejaVuSans-72" x="587.285156"/>
      <use xlink:href="#DejaVuSans-64" x="626.648438"/>
      <use xlink:href="#DejaVuSans-72" x="690.125"/>
      <use xlink:href="#DejaVuSans-75" x="731.238281"/>
      <use xlink:href="#DejaVuSans-63" x="794.617188"/>
      <use xlink:href="#DejaVuSans-6b" x="849.597656"/>
      <use xlink:href="#DejaVuSans-20" x="907.507812"/>
      <use xlink:href="#DejaVuSans-69" x="939.294922"/>
      <use xlink:href="#DejaVuSans-6e" x="967.078125"/>
      <use xlink:href="#DejaVuSans-20" x="1030.457031"/>
      <use xlink:href="#DejaVuSans-62" x="1062.244141"/>
      <use xlink:href="#DejaVuSans-61" x="1125.720703"/>
      <use xlink:href="#DejaVuSans-72" x="1187"/>
     </g>
    </g>
   </g>
   <g id="matplotlib.axis_2">
    <g id="ytick_1">
     <g id="line2d_8">
      <defs>
       <path id="mb712db08ed" d="M 0 0 
L -3.5 0 
" style="stroke: #000000; stroke-width: 0.8"/>
      </defs>
      <g>
       <use xlink:href="#mb712db08ed" x="138.24" y="514.17792" style="stroke: #000000; stroke-width: 0.8"/>
      </g>
     </g>
     <g id="text_9">
      <!-- 0.0 -->
      <g transform="translate(102.614375 521.016514) scale(0.18 -0.18)">
       <defs>
        <path id="DejaVuSans-2e" d="M 684 794 
L 1344 794 
L 1344 0 
L 684 0 
L 684 794 
z
" transform="scale(0.015625)"/>
       </defs>
       <use xlink:href="#DejaVuSans-30"/>
       <use xlink:href="#DejaVuSans-2e" x="63.623047"/>
       <use xlink:href="#DejaVuSans-30" x="95.410156"/>
      </g>
     </g>
    </g>
    <g id="ytick_2">
     <g id="line2d_9">
      <g>
       <use xlink:href="#mb712db08ed" x="138.24" y="463.502141" style="stroke: #000000; stroke-width: 0.8"/>
      </g>
     </g>
     <g id="text_10">
      <!-- 0.2 -->
      <g transform="translate(102.614375 470.340735) scale(0.18 -0.18)">
       <use xlink:href="#DejaVuSans-30"/>
       <use xlink:href="#DejaVuSans-2e" x="63.623047"/>
       <use xlink:href="#DejaVuSans-32" x="95.410156"/>
      </g>
     </g>
    </g>
    <g id="ytick_3">
     <g id="line2d_10">
      <g>
       <use xlink:href="#mb712db08ed" x="138.24" y="412.826363" style="stroke: #000000; stroke-width: 0.8"/>
      </g>
     </g>
     <g id="text_11">
      <!-- 0.4 -->
      <g transform="translate(102.614375 419.664956) scale(0.18 -0.18)">
       <use xlink:href="#DejaVuSans-30"/>
       <use xlink:href="#DejaVuSans-2e" x="63.623047"/>
       <use xlink:href="#DejaVuSans-34" x="95.410156"/>
      </g>
     </g>
    </g>
    <g id="ytick_4">
     <g id="line2d_11">
      <g>
       <use xlink:href="#mb712db08ed" x="138.24" y="362.150584" style="stroke: #000000; stroke-width: 0.8"/>
      </g>
     </g>
     <g id="text_12">
      <!-- 0.6 -->
      <g transform="translate(102.614375 368.989178) scale(0.18 -0.18)">
       <use xlink:href="#DejaVuSans-30"/>
       <use xlink:href="#DejaVuSans-2e" x="63.623047"/>
       <use xlink:href="#DejaVuSans-36" x="95.410156"/>
      </g>
     </g>
    </g>
    <g id="ytick_5">
     <g id="line2d_12">
      <g>
       <use xlink:href="#mb712db08ed" x="138.24" y="311.474805" style="stroke: #000000; stroke-width: 0.8"/>
      </g>
     </g>
     <g id="text_13">
      <!-- 0.8 -->
      <g transform="translate(102.614375 318.313399) scale(0.18 -0.18)">
       <use xlink:href="#DejaVuSans-30"/>
       <use xlink:href="#DejaVuSans-2e" x="63.623047"/>
       <use xlink:href="#DejaVuSans-38" x="95.410156"/>
      </g>
     </g>
    </g>
    <g id="ytick_6">
     <g id="line2d_13">
      <g>
       <use xlink:href="#mb712db08ed" x="138.24" y="260.799026" style="stroke: #000000; stroke-width: 0.8"/>
      </g>
     </g>
     <g id="text_14">
      <!-- 1.0 -->
      <g transform="translate(102.614375 267.63762) scale(0.18 -0.18)">
       <defs>
        <path id="DejaVuSans-31" d="M 794 531 
L 1825 531 
L 1825 4091 
L 703 3866 
L 703 4441 
L 1819 4666 
L 2450 4666 
L 2450 531 
L 3481 531 
L 3481 0 
L 794 0 
L 794 531 
z
" transform="scale(0.015625)"/>
       </defs>
       <use xlink:href="#DejaVuSans-31"/>
       <use xlink:href="#DejaVuSans-2e" x="63.623047"/>
       <use xlink:href="#DejaVuSans-30" x="95.410156"/>
      </g>
     </g>
    </g>
    <g id="ytick_7">
     <g id="line2d_14">
      <g>
       <use xlink:href="#mb712db08ed" x="138.24" y="210.123248" style="stroke: #000000; stroke-width: 0.8"/>
      </g>
     </g>
     <g id="text_15">
      <!-- 1.2 -->
      <g transform="translate(102.614375 216.961841) scale(0.18 -0.18)">
       <use xlink:href="#DejaVuSans-31"/>
       <use xlink:href="#DejaVuSans-2e" x="63.623047"/>
       <use xlink:href="#DejaVuSans-32" x="95.410156"/>
      </g>
     </g>
    </g>
    <g id="ytick_8">
     <g id="line2d_15">
      <g>
       <use xlink:href="#mb712db08ed" x="138.24" y="159.447469" style="stroke: #000000; stroke-width: 0.8"/>
      </g>
     </g>
     <g id="text_16">
      <!-- 1.4 -->
      <g transform="translate(102.614375 166.286063) scale(0.18 -0.18)">
       <use xlink:href="#DejaVuSans-31"/>
       <use xlink:href="#DejaVuSans-2e" x="63.623047"/>
       <use xlink:href="#DejaVuSans-34" x="95.410156"/>
      </g>
     </g>
    </g>
    <g id="ytick_9">
     <g id="line2d_16">
      <g>
       <use xlink:href="#mb712db08ed" x="138.24" y="108.77169" style="stroke: #000000; stroke-width: 0.8"/>
      </g>
     </g>
     <g id="text_17">
      <!-- 1.6 -->
      <g transform="translate(102.614375 115.610284) scale(0.18 -0.18)">
       <use xlink:href="#DejaVuSans-31"/>
       <use xlink:href="#DejaVuSans-2e" x="63.623047"/>
       <use xlink:href="#DejaVuSans-36" x="95.410156"/>
      </g>
     </g>
    </g>
    <g id="text_18">
     <!-- Exergievernichtung in MW -->
     <g transform="translate(94.870937 409.818577) rotate(-90) scale(0.18 -0.18)">
      <defs>
       <path id="DejaVuSans-45" d="M 628 4666 
L 3578 4666 
L 3578 4134 
L 1259 4134 
L 1259 2753 
L 3481 2753 
L 3481 2222 
L 1259 2222 
L 1259 531 
L 3634 531 
L 3634 0 
L 628 0 
L 628 4666 
z
" transform="scale(0.015625)"/>
       <path id="DejaVuSans-78" d="M 3513 3500 
L 2247 1797 
L 3578 0 
L 2900 0 
L 1881 1375 
L 863 0 
L 184 0 
L 1544 1831 
L 300 3500 
L 978 3500 
L 1906 2253 
L 2834 3500 
L 3513 3500 
z
" transform="scale(0.015625)"/>
       <path id="DejaVuSans-67" d="M 2906 1791 
Q 2906 2416 2648 2759 
Q 2391 3103 1925 3103 
Q 1463 3103 1205 2759 
Q 947 2416 947 1791 
Q 947 1169 1205 825 
Q 1463 481 1925 481 
Q 2391 481 2648 825 
Q 2906 1169 2906 1791 
z
M 3481 434 
Q 3481 -459 3084 -895 
Q 2688 -1331 1869 -1331 
Q 1566 -1331 1297 -1286 
Q 1028 -1241 775 -1147 
L 775 -588 
Q 1028 -725 1275 -790 
Q 1522 -856 1778 -856 
Q 2344 -856 2625 -561 
Q 2906 -266 2906 331 
L 2906 616 
Q 2728 306 2450 153 
Q 2172 0 1784 0 
Q 1141 0 747 490 
Q 353 981 353 1791 
Q 353 2603 747 3093 
Q 1141 3584 1784 3584 
Q 2172 3584 2450 3431 
Q 2728 3278 2906 2969 
L 2906 3500 
L 3481 3500 
L 3481 434 
z
" transform="scale(0.015625)"/>
       <path id="DejaVuSans-76" d="M 191 3500 
L 800 3500 
L 1894 563 
L 2988 3500 
L 3597 3500 
L 2284 0 
L 1503 0 
L 191 3500 
z
" transform="scale(0.015625)"/>
       <path id="DejaVuSans-68" d="M 3513 2113 
L 3513 0 
L 2938 0 
L 2938 2094 
Q 2938 2591 2744 2837 
Q 2550 3084 2163 3084 
Q 1697 3084 1428 2787 
Q 1159 2491 1159 1978 
L 1159 0 
L 581 0 
L 581 4863 
L 1159 4863 
L 1159 2956 
Q 1366 3272 1645 3428 
Q 1925 3584 2291 3584 
Q 2894 3584 3203 3211 
Q 3513 2838 3513 2113 
z
" transform="scale(0.015625)"/>
       <path id="DejaVuSans-4d" d="M 628 4666 
L 1569 4666 
L 2759 1491 
L 3956 4666 
L 4897 4666 
L 4897 0 
L 4281 0 
L 4281 4097 
L 3078 897 
L 2444 897 
L 1241 4097 
L 1241 0 
L 628 0 
L 628 4666 
z
" transform="scale(0.015625)"/>
       <path id="DejaVuSans-57" d="M 213 4666 
L 850 4666 
L 1831 722 
L 2809 4666 
L 3519 4666 
L 4500 722 
L 5478 4666 
L 6119 4666 
L 4947 0 
L 4153 0 
L 3169 4050 
L 2175 0 
L 1381 0 
L 213 4666 
z
" transform="scale(0.015625)"/>
      </defs>
      <use xlink:href="#DejaVuSans-45"/>
      <use xlink:href="#DejaVuSans-78" x="63.183594"/>
      <use xlink:href="#DejaVuSans-65" x="119.238281"/>
      <use xlink:href="#DejaVuSans-72" x="180.761719"/>
      <use xlink:href="#DejaVuSans-67" x="220.125"/>
      <use xlink:href="#DejaVuSans-69" x="283.601562"/>
      <use xlink:href="#DejaVuSans-65" x="311.384766"/>
      <use xlink:href="#DejaVuSans-76" x="372.908203"/>
      <use xlink:href="#DejaVuSans-65" x="432.087891"/>
      <use xlink:href="#DejaVuSans-72" x="493.611328"/>
      <use xlink:href="#DejaVuSans-6e" x="532.974609"/>
      <use xlink:href="#DejaVuSans-69" x="596.353516"/>
      <use xlink:href="#DejaVuSans-63" x="624.136719"/>
      <use xlink:href="#DejaVuSans-68" x="679.117188"/>
      <use xlink:href="#DejaVuSans-74" x="742.496094"/>
      <use xlink:href="#DejaVuSans-75" x="781.705078"/>
      <use xlink:href="#DejaVuSans-6e" x="845.083984"/>
      <use xlink:href="#DejaVuSans-67" x="908.462891"/>
      <use xlink:href="#DejaVuSans-20" x="971.939453"/>
      <use xlink:href="#DejaVuSans-69" x="1003.726562"/>
      <use xlink:href="#DejaVuSans-6e" x="1031.509766"/>
      <use xlink:href="#DejaVuSans-20" x="1094.888672"/>
      <use xlink:href="#DejaVuSans-4d" x="1126.675781"/>
      <use xlink:href="#DejaVuSans-57" x="1212.955078"/>
     </g>
    </g>
   </g>
   <g id="patch_323">
    <path d="M 138.24 514.17792 
L 138.24 69.32736 
" style="fill: none; stroke: #000000; stroke-width: 0.8; stroke-linejoin: miter; stroke-linecap: square"/>
   </g>
   <g id="patch_324">
    <path d="M 995.328 514.17792 
L 995.328 69.32736 
" style="fill: none; stroke: #000000; stroke-width: 0.8; stroke-linejoin: miter; stroke-linecap: square"/>
   </g>
   <g id="patch_325">
    <path d="M 138.24 514.17792 
L 995.328 514.17792 
" style="fill: none; stroke: #000000; stroke-width: 0.8; stroke-linejoin: miter; stroke-linecap: square"/>
   </g>
   <g id="patch_326">
    <path d="M 138.24 69.32736 
L 995.328 69.32736 
" style="fill: none; stroke: #000000; stroke-width: 0.8; stroke-linejoin: miter; stroke-linecap: square"/>
   </g>
   <g id="legend_1">
    <g id="patch_327">
     <path d="M 706.256438 505.17792 
L 982.728 505.17792 
Q 986.328 505.17792 986.328 501.57792 
L 986.328 292.01292 
Q 986.328 288.41292 982.728 288.41292 
L 706.256438 288.41292 
Q 702.656438 288.41292 702.656438 292.01292 
L 702.656438 501.57792 
Q 702.656438 505.17792 706.256438 505.17792 
z
" style="fill: #ffffff; opacity: 0.8; stroke: #cccccc; stroke-linejoin: miter"/>
    </g>
    <g id="patch_328">
     <path d="M 709.856438 309.290107 
L 745.856438 309.290107 
L 745.856438 296.690107 
L 709.856438 296.690107 
z
" style="fill: #1f77b4"/>
    </g>
    <g id="text_19">
     <!-- Gas cooler -->
     <g transform="translate(760.256438 309.290107) scale(0.18 -0.18)">
      <defs>
       <path id="DejaVuSans-47" d="M 3809 666 
L 3809 1919 
L 2778 1919 
L 2778 2438 
L 4434 2438 
L 4434 434 
Q 4069 175 3628 42 
Q 3188 -91 2688 -91 
Q 1594 -91 976 548 
Q 359 1188 359 2328 
Q 359 3472 976 4111 
Q 1594 4750 2688 4750 
Q 3144 4750 3555 4637 
Q 3966 4525 4313 4306 
L 4313 3634 
Q 3963 3931 3569 4081 
Q 3175 4231 2741 4231 
Q 1884 4231 1454 3753 
Q 1025 3275 1025 2328 
Q 1025 1384 1454 906 
Q 1884 428 2741 428 
Q 3075 428 3337 486 
Q 3600 544 3809 666 
z
" transform="scale(0.015625)"/>
       <path id="DejaVuSans-6c" d="M 603 4863 
L 1178 4863 
L 1178 0 
L 603 0 
L 603 4863 
z
" transform="scale(0.015625)"/>
      </defs>
      <use xlink:href="#DejaVuSans-47"/>
      <use xlink:href="#DejaVuSans-61" x="77.490234"/>
      <use xlink:href="#DejaVuSans-73" x="138.769531"/>
      <use xlink:href="#DejaVuSans-20" x="190.869141"/>
      <use xlink:href="#DejaVuSans-63" x="222.65625"/>
      <use xlink:href="#DejaVuSans-6f" x="277.636719"/>
      <use xlink:href="#DejaVuSans-6f" x="338.818359"/>
      <use xlink:href="#DejaVuSans-6c" x="400"/>
      <use xlink:href="#DejaVuSans-65" x="427.783203"/>
      <use xlink:href="#DejaVuSans-72" x="489.306641"/>
     </g>
    </g>
    <g id="patch_329">
     <path d="M 709.856438 335.710732 
L 745.856438 335.710732 
L 745.856438 323.110732 
L 709.856438 323.110732 
z
" style="fill: #ff7f0e"/>
    </g>
    <g id="text_20">
     <!-- Evaporator -->
     <g transform="translate(760.256438 335.710732) scale(0.18 -0.18)">
      <defs>
       <path id="DejaVuSans-70" d="M 1159 525 
L 1159 -1331 
L 581 -1331 
L 581 3500 
L 1159 3500 
L 1159 2969 
Q 1341 3281 1617 3432 
Q 1894 3584 2278 3584 
Q 2916 3584 3314 3078 
Q 3713 2572 3713 1747 
Q 3713 922 3314 415 
Q 2916 -91 2278 -91 
Q 1894 -91 1617 61 
Q 1341 213 1159 525 
z
M 3116 1747 
Q 3116 2381 2855 2742 
Q 2594 3103 2138 3103 
Q 1681 3103 1420 2742 
Q 1159 2381 1159 1747 
Q 1159 1113 1420 752 
Q 1681 391 2138 391 
Q 2594 391 2855 752 
Q 3116 1113 3116 1747 
z
" transform="scale(0.015625)"/>
      </defs>
      <use xlink:href="#DejaVuSans-45"/>
      <use xlink:href="#DejaVuSans-76" x="63.183594"/>
      <use xlink:href="#DejaVuSans-61" x="122.363281"/>
      <use xlink:href="#DejaVuSans-70" x="183.642578"/>
      <use xlink:href="#DejaVuSans-6f" x="247.119141"/>
      <use xlink:href="#DejaVuSans-72" x="308.300781"/>
      <use xlink:href="#DejaVuSans-61" x="349.414062"/>
      <use xlink:href="#DejaVuSans-74" x="410.693359"/>
      <use xlink:href="#DejaVuSans-6f" x="449.902344"/>
      <use xlink:href="#DejaVuSans-72" x="511.083984"/>
     </g>
    </g>
    <g id="patch_330">
     <path d="M 709.856438 362.131357 
L 745.856438 362.131357 
L 745.856438 349.531357 
L 709.856438 349.531357 
z
" style="fill: #2ca02c"/>
    </g>
    <g id="text_21">
     <!-- Valve 1 -->
     <g transform="translate(760.256438 362.131357) scale(0.18 -0.18)">
      <defs>
       <path id="DejaVuSans-56" d="M 1831 0 
L 50 4666 
L 709 4666 
L 2188 738 
L 3669 4666 
L 4325 4666 
L 2547 0 
L 1831 0 
z
" transform="scale(0.015625)"/>
      </defs>
      <use xlink:href="#DejaVuSans-56"/>
      <use xlink:href="#DejaVuSans-61" x="60.658203"/>
      <use xlink:href="#DejaVuSans-6c" x="121.9375"/>
      <use xlink:href="#DejaVuSans-76" x="149.720703"/>
      <use xlink:href="#DejaVuSans-65" x="208.900391"/>
      <use xlink:href="#DejaVuSans-20" x="270.423828"/>
      <use xlink:href="#DejaVuSans-31" x="302.210938"/>
     </g>
    </g>
    <g id="patch_331">
     <path d="M 709.856438 388.551982 
L 745.856438 388.551982 
L 745.856438 375.951982 
L 709.856438 375.951982 
z
" style="fill: #d62728"/>
    </g>
    <g id="text_22">
     <!-- Valve 2 -->
     <g transform="translate(760.256438 388.551982) scale(0.18 -0.18)">
      <use xlink:href="#DejaVuSans-56"/>
      <use xlink:href="#DejaVuSans-61" x="60.658203"/>
      <use xlink:href="#DejaVuSans-6c" x="121.9375"/>
      <use xlink:href="#DejaVuSans-76" x="149.720703"/>
      <use xlink:href="#DejaVuSans-65" x="208.900391"/>
      <use xlink:href="#DejaVuSans-20" x="270.423828"/>
      <use xlink:href="#DejaVuSans-32" x="302.210938"/>
     </g>
    </g>
    <g id="patch_332">
     <path d="M 709.856438 414.972607 
L 745.856438 414.972607 
L 745.856438 402.372607 
L 709.856438 402.372607 
z
" style="fill: #9467bd"/>
    </g>
    <g id="text_23">
     <!-- Compressor 1 -->
     <g transform="translate(760.256438 414.972607) scale(0.18 -0.18)">
      <defs>
       <path id="DejaVuSans-43" d="M 4122 4306 
L 4122 3641 
Q 3803 3938 3442 4084 
Q 3081 4231 2675 4231 
Q 1875 4231 1450 3742 
Q 1025 3253 1025 2328 
Q 1025 1406 1450 917 
Q 1875 428 2675 428 
Q 3081 428 3442 575 
Q 3803 722 4122 1019 
L 4122 359 
Q 3791 134 3420 21 
Q 3050 -91 2638 -91 
Q 1578 -91 968 557 
Q 359 1206 359 2328 
Q 359 3453 968 4101 
Q 1578 4750 2638 4750 
Q 3056 4750 3426 4639 
Q 3797 4528 4122 4306 
z
" transform="scale(0.015625)"/>
       <path id="DejaVuSans-6d" d="M 3328 2828 
Q 3544 3216 3844 3400 
Q 4144 3584 4550 3584 
Q 5097 3584 5394 3201 
Q 5691 2819 5691 2113 
L 5691 0 
L 5113 0 
L 5113 2094 
Q 5113 2597 4934 2840 
Q 4756 3084 4391 3084 
Q 3944 3084 3684 2787 
Q 3425 2491 3425 1978 
L 3425 0 
L 2847 0 
L 2847 2094 
Q 2847 2600 2669 2842 
Q 2491 3084 2119 3084 
Q 1678 3084 1418 2786 
Q 1159 2488 1159 1978 
L 1159 0 
L 581 0 
L 581 3500 
L 1159 3500 
L 1159 2956 
Q 1356 3278 1631 3431 
Q 1906 3584 2284 3584 
Q 2666 3584 2933 3390 
Q 3200 3197 3328 2828 
z
" transform="scale(0.015625)"/>
      </defs>
      <use xlink:href="#DejaVuSans-43"/>
      <use xlink:href="#DejaVuSans-6f" x="69.824219"/>
      <use xlink:href="#DejaVuSans-6d" x="131.005859"/>
      <use xlink:href="#DejaVuSans-70" x="228.417969"/>
      <use xlink:href="#DejaVuSans-72" x="291.894531"/>
      <use xlink:href="#DejaVuSans-65" x="330.757812"/>
      <use xlink:href="#DejaVuSans-73" x="392.28125"/>
      <use xlink:href="#DejaVuSans-73" x="444.380859"/>
      <use xlink:href="#DejaVuSans-6f" x="496.480469"/>
      <use xlink:href="#DejaVuSans-72" x="557.662109"/>
      <use xlink:href="#DejaVuSans-20" x="598.775391"/>
      <use xlink:href="#DejaVuSans-31" x="630.5625"/>
     </g>
    </g>
    <g id="patch_333">
     <path d="M 709.856438 441.393232 
L 745.856438 441.393232 
L 745.856438 428.793232 
L 709.856438 428.793232 
z
" style="fill: #8c564b"/>
    </g>
    <g id="text_24">
     <!-- Compressor 2 -->
     <g transform="translate(760.256438 441.393232) scale(0.18 -0.18)">
      <use xlink:href="#DejaVuSans-43"/>
      <use xlink:href="#DejaVuSans-6f" x="69.824219"/>
      <use xlink:href="#DejaVuSans-6d" x="131.005859"/>
      <use xlink:href="#DejaVuSans-70" x="228.417969"/>
      <use xlink:href="#DejaVuSans-72" x="291.894531"/>
      <use xlink:href="#DejaVuSans-65" x="330.757812"/>
      <use xlink:href="#DejaVuSans-73" x="392.28125"/>
      <use xlink:href="#DejaVuSans-73" x="444.380859"/>
      <use xlink:href="#DejaVuSans-6f" x="496.480469"/>
      <use xlink:href="#DejaVuSans-72" x="557.662109"/>
      <use xlink:href="#DejaVuSans-20" x="598.775391"/>
      <use xlink:href="#DejaVuSans-32" x="630.5625"/>
     </g>
    </g>
    <g id="patch_334">
     <path d="M 709.856438 467.813857 
L 745.856438 467.813857 
L 745.856438 455.213857 
L 709.856438 455.213857 
z
" style="fill: #e377c2"/>
    </g>
    <g id="text_25">
     <!-- Internal Heat Exchanger -->
     <g transform="translate(760.256438 467.813857) scale(0.18 -0.18)">
      <defs>
       <path id="DejaVuSans-49" d="M 628 4666 
L 1259 4666 
L 1259 0 
L 628 0 
L 628 4666 
z
" transform="scale(0.015625)"/>
       <path id="DejaVuSans-48" d="M 628 4666 
L 1259 4666 
L 1259 2753 
L 3553 2753 
L 3553 4666 
L 4184 4666 
L 4184 0 
L 3553 0 
L 3553 2222 
L 1259 2222 
L 1259 0 
L 628 0 
L 628 4666 
z
" transform="scale(0.015625)"/>
      </defs>
      <use xlink:href="#DejaVuSans-49"/>
      <use xlink:href="#DejaVuSans-6e" x="29.492188"/>
      <use xlink:href="#DejaVuSans-74" x="92.871094"/>
      <use xlink:href="#DejaVuSans-65" x="132.080078"/>
      <use xlink:href="#DejaVuSans-72" x="193.603516"/>
      <use xlink:href="#DejaVuSans-6e" x="232.966797"/>
      <use xlink:href="#DejaVuSans-61" x="296.345703"/>
      <use xlink:href="#DejaVuSans-6c" x="357.625"/>
      <use xlink:href="#DejaVuSans-20" x="385.408203"/>
      <use xlink:href="#DejaVuSans-48" x="417.195312"/>
      <use xlink:href="#DejaVuSans-65" x="492.390625"/>
      <use xlink:href="#DejaVuSans-61" x="553.914062"/>
      <use xlink:href="#DejaVuSans-74" x="615.193359"/>
      <use xlink:href="#DejaVuSans-20" x="654.402344"/>
      <use xlink:href="#DejaVuSans-45" x="686.189453"/>
      <use xlink:href="#DejaVuSans-78" x="749.373047"/>
      <use xlink:href="#DejaVuSans-63" x="806.802734"/>
      <use xlink:href="#DejaVuSans-68" x="861.783203"/>
      <use xlink:href="#DejaVuSans-61" x="925.162109"/>
      <use xlink:href="#DejaVuSans-6e" x="986.441406"/>
      <use xlink:href="#DejaVuSans-67" x="1049.820312"/>
      <use xlink:href="#DejaVuSans-65" x="1113.296875"/>
      <use xlink:href="#DejaVuSans-72" x="1174.820312"/>
     </g>
    </g>
    <g id="patch_335">
     <path d="M 709.856438 494.234482 
L 745.856438 494.234482 
L 745.856438 481.634482 
L 709.856438 481.634482 
z
" style="fill: #7f7f7f"/>
    </g>
    <g id="text_26">
     <!-- Merge -->
     <g transform="translate(760.256438 494.234482) scale(0.18 -0.18)">
      <use xlink:href="#DejaVuSans-4d"/>
      <use xlink:href="#DejaVuSans-65" x="86.279297"/>
      <use xlink:href="#DejaVuSans-72" x="147.802734"/>
      <use xlink:href="#DejaVuSans-67" x="187.166016"/>
      <use xlink:href="#DejaVuSans-65" x="250.642578"/>
     </g>
    </g>
   </g>
  </g>
 </g>
 <defs>
  <clipPath id="p0e9b053957">
   <rect x="138.24" y="69.32736" width="857.088" height="444.85056"/>
  </clipPath>
 </defs>
</svg>
