<?xml version="1.0" encoding="utf-8" standalone="no"?>
<!DOCTYPE svg PUBLIC "-//W3C//DTD SVG 1.1//EN"
  "http://www.w3.org/Graphics/SVG/1.1/DTD/svg11.dtd">
<svg xmlns:xlink="http://www.w3.org/1999/xlink" width="460.8pt" height="345.6pt" viewBox="0 0 460.8 345.6" xmlns="http://www.w3.org/2000/svg" version="1.1">
 <metadata>
  <rdf:RDF xmlns:dc="http://purl.org/dc/elements/1.1/" xmlns:cc="http://creativecommons.org/ns#" xmlns:rdf="http://www.w3.org/1999/02/22-rdf-syntax-ns#">
   <cc:Work>
    <dc:type rdf:resource="http://purl.org/dc/dcmitype/StillImage"/>
    <dc:date>2023-04-20T09:45:28.456961</dc:date>
    <dc:format>image/svg+xml</dc:format>
    <dc:creator>
     <cc:Agent>
      <dc:title>Matplotlib v3.6.1, https://matplotlib.org/</dc:title>
     </cc:Agent>
    </dc:creator>
   </cc:Work>
  </rdf:RDF>
 </metadata>
 <defs>
  <style type="text/css">*{stroke-linejoin: round; stroke-linecap: butt}</style>
 </defs>
 <g id="figure_1">
  <g id="patch_1">
   <path d="M 0 345.6 
L 460.8 345.6 
L 460.8 0 
L 0 0 
z
" style="fill: #ffffff"/>
  </g>
  <g id="axes_1">
   <g id="patch_2">
    <path d="M 57.6 307.584 
L 414.72 307.584 
L 414.72 41.472 
L 57.6 41.472 
z
" style="fill: #ffffff"/>
   </g>
   <g id="patch_3">
    <path d="M 73.832727 307.584 
L 79.478893 307.584 
L 79.478893 274.748042 
L 73.832727 274.748042 
z
" clip-path="url(#p4d46306ce1)" style="fill: #1f77b4"/>
   </g>
   <g id="patch_4">
    <path d="M 90.622642 307.584 
L 96.268808 307.584 
L 96.268808 273.270185 
L 90.622642 273.270185 
z
" clip-path="url(#p4d46306ce1)" style="fill: #1f77b4"/>
   </g>
   <g id="patch_5">
    <path d="M 107.412557 307.584 
L 113.058723 307.584 
L 113.058723 271.844635 
L 107.412557 271.844635 
z
" clip-path="url(#p4d46306ce1)" style="fill: #1f77b4"/>
   </g>
   <g id="patch_6">
    <path d="M 124.202471 307.584 
L 129.848637 307.584 
L 129.848637 270.467619 
L 124.202471 270.467619 
z
" clip-path="url(#p4d46306ce1)" style="fill: #1f77b4"/>
   </g>
   <g id="patch_7">
    <path d="M 140.992386 307.584 
L 146.638552 307.584 
L 146.638552 269.135765 
L 140.992386 269.135765 
z
" clip-path="url(#p4d46306ce1)" style="fill: #1f77b4"/>
   </g>
   <g id="patch_8">
    <path d="M 157.782301 307.584 
L 163.428467 307.584 
L 163.428467 267.846054 
L 157.782301 267.846054 
z
" clip-path="url(#p4d46306ce1)" style="fill: #1f77b4"/>
   </g>
   <g id="patch_9">
    <path d="M 174.572216 307.584 
L 180.218382 307.584 
L 180.218382 266.595776 
L 174.572216 266.595776 
z
" clip-path="url(#p4d46306ce1)" style="fill: #1f77b4"/>
   </g>
   <g id="patch_10">
    <path d="M 191.36213 307.584 
L 197.008296 307.584 
L 197.008296 265.382486 
L 191.36213 265.382486 
z
" clip-path="url(#p4d46306ce1)" style="fill: #1f77b4"/>
   </g>
   <g id="patch_11">
    <path d="M 208.152045 307.584 
L 213.798211 307.584 
L 213.798211 264.203977 
L 208.152045 264.203977 
z
" clip-path="url(#p4d46306ce1)" style="fill: #1f77b4"/>
   </g>
   <g id="patch_12">
    <path d="M 224.94196 307.584 
L 230.588126 307.584 
L 230.588126 263.058244 
L 224.94196 263.058244 
z
" clip-path="url(#p4d46306ce1)" style="fill: #1f77b4"/>
   </g>
   <g id="patch_13">
    <path d="M 241.731874 307.584 
L 247.37804 307.584 
L 247.37804 261.943465 
L 241.731874 261.943465 
z
" clip-path="url(#p4d46306ce1)" style="fill: #1f77b4"/>
   </g>
   <g id="patch_14">
    <path d="M 258.521789 307.584 
L 264.167955 307.584 
L 264.167955 260.857976 
L 258.521789 260.857976 
z
" clip-path="url(#p4d46306ce1)" style="fill: #1f77b4"/>
   </g>
   <g id="patch_15">
    <path d="M 275.311704 307.584 
L 280.95787 307.584 
L 280.95787 259.800255 
L 275.311704 259.800255 
z
" clip-path="url(#p4d46306ce1)" style="fill: #1f77b4"/>
   </g>
   <g id="patch_16">
    <path d="M 292.101618 307.584 
L 297.747784 307.584 
L 297.747784 258.768904 
L 292.101618 258.768904 
z
" clip-path="url(#p4d46306ce1)" style="fill: #1f77b4"/>
   </g>
   <g id="patch_17">
    <path d="M 308.891533 307.584 
L 314.537699 307.584 
L 314.537699 257.76264 
L 308.891533 257.76264 
z
" clip-path="url(#p4d46306ce1)" style="fill: #1f77b4"/>
   </g>
   <g id="patch_18">
    <path d="M 325.681448 307.584 
L 331.327614 307.584 
L 331.327614 256.780275 
L 325.681448 256.780275 
z
" clip-path="url(#p4d46306ce1)" style="fill: #1f77b4"/>
   </g>
   <g id="patch_19">
    <path d="M 342.471363 307.584 
L 348.117529 307.584 
L 348.117529 255.820712 
L 342.471363 255.820712 
z
" clip-path="url(#p4d46306ce1)" style="fill: #1f77b4"/>
   </g>
   <g id="patch_20">
    <path d="M 359.261277 307.584 
L 364.907443 307.584 
L 364.907443 254.882935 
L 359.261277 254.882935 
z
" clip-path="url(#p4d46306ce1)" style="fill: #1f77b4"/>
   </g>
   <g id="patch_21">
    <path d="M 376.051192 307.584 
L 381.697358 307.584 
L 381.697358 253.966 
L 376.051192 253.966 
z
" clip-path="url(#p4d46306ce1)" style="fill: #1f77b4"/>
   </g>
   <g id="patch_22">
    <path d="M 392.841107 307.584 
L 398.487273 307.584 
L 398.487273 253.069026 
L 392.841107 253.069026 
z
" clip-path="url(#p4d46306ce1)" style="fill: #1f77b4"/>
   </g>
   <g id="patch_23">
    <path d="M 73.832727 274.748042 
L 79.478893 274.748042 
L 79.478893 261.58703 
L 73.832727 261.58703 
z
" clip-path="url(#p4d46306ce1)" style="fill: #ff7f0e"/>
   </g>
   <g id="patch_24">
    <path d="M 90.622642 273.270185 
L 96.268808 273.270185 
L 96.268808 260.075606 
L 90.622642 260.075606 
z
" clip-path="url(#p4d46306ce1)" style="fill: #ff7f0e"/>
   </g>
   <g id="patch_25">
    <path d="M 107.412557 271.844635 
L 113.058723 271.844635 
L 113.058723 258.621454 
L 107.412557 258.621454 
z
" clip-path="url(#p4d46306ce1)" style="fill: #ff7f0e"/>
   </g>
   <g id="patch_26">
    <path d="M 124.202471 270.467619 
L 129.848637 270.467619 
L 129.848637 257.220054 
L 124.202471 257.220054 
z
" clip-path="url(#p4d46306ce1)" style="fill: #ff7f0e"/>
   </g>
   <g id="patch_27">
    <path d="M 140.992386 269.135765 
L 146.638552 269.135765 
L 146.638552 255.867427 
L 140.992386 255.867427 
z
" clip-path="url(#p4d46306ce1)" style="fill: #ff7f0e"/>
   </g>
   <g id="patch_28">
    <path d="M 157.782301 267.846054 
L 163.428467 267.846054 
L 163.428467 254.560056 
L 157.782301 254.560056 
z
" clip-path="url(#p4d46306ce1)" style="fill: #ff7f0e"/>
   </g>
   <g id="patch_29">
    <path d="M 174.572216 266.595776 
L 180.218382 266.595776 
L 180.218382 253.294814 
L 174.572216 253.294814 
z
" clip-path="url(#p4d46306ce1)" style="fill: #ff7f0e"/>
   </g>
   <g id="patch_30">
    <path d="M 191.36213 265.382486 
L 197.008296 265.382486 
L 197.008296 252.068911 
L 191.36213 252.068911 
z
" clip-path="url(#p4d46306ce1)" style="fill: #ff7f0e"/>
   </g>
   <g id="patch_31">
    <path d="M 208.152045 264.203977 
L 213.798211 264.203977 
L 213.798211 250.879848 
L 208.152045 250.879848 
z
" clip-path="url(#p4d46306ce1)" style="fill: #ff7f0e"/>
   </g>
   <g id="patch_32">
    <path d="M 224.94196 263.058244 
L 230.588126 263.058244 
L 230.588126 249.725371 
L 224.94196 249.725371 
z
" clip-path="url(#p4d46306ce1)" style="fill: #ff7f0e"/>
   </g>
   <g id="patch_33">
    <path d="M 241.731874 261.943465 
L 247.37804 261.943465 
L 247.37804 248.603448 
L 241.731874 248.603448 
z
" clip-path="url(#p4d46306ce1)" style="fill: #ff7f0e"/>
   </g>
   <g id="patch_34">
    <path d="M 258.521789 260.857976 
L 264.167955 260.857976 
L 264.167955 247.512234 
L 258.521789 247.512234 
z
" clip-path="url(#p4d46306ce1)" style="fill: #ff7f0e"/>
   </g>
   <g id="patch_35">
    <path d="M 275.311704 259.800255 
L 280.95787 259.800255 
L 280.95787 246.45005 
L 275.311704 246.45005 
z
" clip-path="url(#p4d46306ce1)" style="fill: #ff7f0e"/>
   </g>
   <g id="patch_36">
    <path d="M 292.101618 258.768904 
L 297.747784 258.768904 
L 297.747784 245.415362 
L 292.101618 245.415362 
z
" clip-path="url(#p4d46306ce1)" style="fill: #ff7f0e"/>
   </g>
   <g id="patch_37">
    <path d="M 308.891533 257.76264 
L 314.537699 257.76264 
L 314.537699 244.406768 
L 308.891533 244.406768 
z
" clip-path="url(#p4d46306ce1)" style="fill: #ff7f0e"/>
   </g>
   <g id="patch_38">
    <path d="M 325.681448 256.780275 
L 331.327614 256.780275 
L 331.327614 243.422978 
L 325.681448 243.422978 
z
" clip-path="url(#p4d46306ce1)" style="fill: #ff7f0e"/>
   </g>
   <g id="patch_39">
    <path d="M 342.471363 255.820712 
L 348.117529 255.820712 
L 348.117529 242.462804 
L 342.471363 242.462804 
z
" clip-path="url(#p4d46306ce1)" style="fill: #ff7f0e"/>
   </g>
   <g id="patch_40">
    <path d="M 359.261277 254.882935 
L 364.907443 254.882935 
L 364.907443 241.52515 
L 359.261277 241.52515 
z
" clip-path="url(#p4d46306ce1)" style="fill: #ff7f0e"/>
   </g>
   <g id="patch_41">
    <path d="M 376.051192 253.966 
L 381.697358 253.966 
L 381.697358 240.609 
L 376.051192 240.609 
z
" clip-path="url(#p4d46306ce1)" style="fill: #ff7f0e"/>
   </g>
   <g id="patch_42">
    <path d="M 392.841107 253.069026 
L 398.487273 253.069026 
L 398.487273 239.713412 
L 392.841107 239.713412 
z
" clip-path="url(#p4d46306ce1)" style="fill: #ff7f0e"/>
   </g>
   <g id="patch_43">
    <path d="M 73.832727 261.58703 
L 79.478893 261.58703 
L 79.478893 216.944188 
L 73.832727 216.944188 
z
" clip-path="url(#p4d46306ce1)" style="fill: #2ca02c"/>
   </g>
   <g id="patch_44">
    <path d="M 90.622642 260.075606 
L 96.268808 260.075606 
L 96.268808 216.77927 
L 90.622642 216.77927 
z
" clip-path="url(#p4d46306ce1)" style="fill: #2ca02c"/>
   </g>
   <g id="patch_45">
    <path d="M 107.412557 258.621454 
L 113.058723 258.621454 
L 113.058723 216.467847 
L 107.412557 216.467847 
z
" clip-path="url(#p4d46306ce1)" style="fill: #2ca02c"/>
   </g>
   <g id="patch_46">
    <path d="M 124.202471 257.220054 
L 129.848637 257.220054 
L 129.848637 216.037894 
L 124.202471 216.037894 
z
" clip-path="url(#p4d46306ce1)" style="fill: #2ca02c"/>
   </g>
   <g id="patch_47">
    <path d="M 140.992386 255.867427 
L 146.638552 255.867427 
L 146.638552 215.511613 
L 140.992386 215.511613 
z
" clip-path="url(#p4d46306ce1)" style="fill: #2ca02c"/>
   </g>
   <g id="patch_48">
    <path d="M 157.782301 254.560056 
L 163.428467 254.560056 
L 163.428467 214.906787 
L 157.782301 214.906787 
z
" clip-path="url(#p4d46306ce1)" style="fill: #2ca02c"/>
   </g>
   <g id="patch_49">
    <path d="M 174.572216 253.294814 
L 180.218382 253.294814 
L 180.218382 214.237775 
L 174.572216 214.237775 
z
" clip-path="url(#p4d46306ce1)" style="fill: #2ca02c"/>
   </g>
   <g id="patch_50">
    <path d="M 191.36213 252.068911 
L 197.008296 252.068911 
L 197.008296 213.516265 
L 191.36213 213.516265 
z
" clip-path="url(#p4d46306ce1)" style="fill: #2ca02c"/>
   </g>
   <g id="patch_51">
    <path d="M 208.152045 250.879848 
L 213.798211 250.879848 
L 213.798211 212.751828 
L 208.152045 212.751828 
z
" clip-path="url(#p4d46306ce1)" style="fill: #2ca02c"/>
   </g>
   <g id="patch_52">
    <path d="M 224.94196 249.725371 
L 230.588126 249.725371 
L 230.588126 211.952358 
L 224.94196 211.952358 
z
" clip-path="url(#p4d46306ce1)" style="fill: #2ca02c"/>
   </g>
   <g id="patch_53">
    <path d="M 241.731874 248.603448 
L 247.37804 248.603448 
L 247.37804 211.124394 
L 241.731874 211.124394 
z
" clip-path="url(#p4d46306ce1)" style="fill: #2ca02c"/>
   </g>
   <g id="patch_54">
    <path d="M 258.521789 247.512234 
L 264.167955 247.512234 
L 264.167955 210.273386 
L 258.521789 210.273386 
z
" clip-path="url(#p4d46306ce1)" style="fill: #2ca02c"/>
   </g>
   <g id="patch_55">
    <path d="M 275.311704 246.45005 
L 280.95787 246.45005 
L 280.95787 209.403894 
L 275.311704 209.403894 
z
" clip-path="url(#p4d46306ce1)" style="fill: #2ca02c"/>
   </g>
   <g id="patch_56">
    <path d="M 292.101618 245.415362 
L 297.747784 245.415362 
L 297.747784 208.519748 
L 292.101618 208.519748 
z
" clip-path="url(#p4d46306ce1)" style="fill: #2ca02c"/>
   </g>
   <g id="patch_57">
    <path d="M 308.891533 244.406768 
L 314.537699 244.406768 
L 314.537699 207.62418 
L 308.891533 207.62418 
z
" clip-path="url(#p4d46306ce1)" style="fill: #2ca02c"/>
   </g>
   <g id="patch_58">
    <path d="M 325.681448 243.422978 
L 331.327614 243.422978 
L 331.327614 206.719922 
L 325.681448 206.719922 
z
" clip-path="url(#p4d46306ce1)" style="fill: #2ca02c"/>
   </g>
   <g id="patch_59">
    <path d="M 342.471363 242.462804 
L 348.117529 242.462804 
L 348.117529 205.809294 
L 342.471363 205.809294 
z
" clip-path="url(#p4d46306ce1)" style="fill: #2ca02c"/>
   </g>
   <g id="patch_60">
    <path d="M 359.261277 241.52515 
L 364.907443 241.52515 
L 364.907443 204.894265 
L 359.261277 204.894265 
z
" clip-path="url(#p4d46306ce1)" style="fill: #2ca02c"/>
   </g>
   <g id="patch_61">
    <path d="M 376.051192 240.609 
L 381.697358 240.609 
L 381.697358 203.976516 
L 376.051192 203.976516 
z
" clip-path="url(#p4d46306ce1)" style="fill: #2ca02c"/>
   </g>
   <g id="patch_62">
    <path d="M 392.841107 239.713412 
L 398.487273 239.713412 
L 398.487273 203.05748 
L 392.841107 203.05748 
z
" clip-path="url(#p4d46306ce1)" style="fill: #2ca02c"/>
   </g>
   <g id="patch_63">
    <path d="M 73.832727 216.944188 
L 79.478893 216.944188 
L 79.478893 192.244524 
L 73.832727 192.244524 
z
" clip-path="url(#p4d46306ce1)" style="fill: #d62728"/>
   </g>
   <g id="patch_64">
    <path d="M 90.622642 216.77927 
L 96.268808 216.77927 
L 96.268808 192.016611 
L 90.622642 192.016611 
z
" clip-path="url(#p4d46306ce1)" style="fill: #d62728"/>
   </g>
   <g id="patch_65">
    <path d="M 107.412557 216.467847 
L 113.058723 216.467847 
L 113.058723 191.65151 
L 107.412557 191.65151 
z
" clip-path="url(#p4d46306ce1)" style="fill: #d62728"/>
   </g>
   <g id="patch_66">
    <path d="M 124.202471 216.037894 
L 129.848637 216.037894 
L 129.848637 191.175795 
L 124.202471 191.175795 
z
" clip-path="url(#p4d46306ce1)" style="fill: #d62728"/>
   </g>
   <g id="patch_67">
    <path d="M 140.992386 215.511613 
L 146.638552 215.511613 
L 146.638552 190.61053 
L 140.992386 190.61053 
z
" clip-path="url(#p4d46306ce1)" style="fill: #d62728"/>
   </g>
   <g id="patch_68">
    <path d="M 157.782301 214.906787 
L 163.428467 214.906787 
L 163.428467 189.972558 
L 157.782301 189.972558 
z
" clip-path="url(#p4d46306ce1)" style="fill: #d62728"/>
   </g>
   <g id="patch_69">
    <path d="M 174.572216 214.237775 
L 180.218382 214.237775 
L 180.218382 189.275464 
L 174.572216 189.275464 
z
" clip-path="url(#p4d46306ce1)" style="fill: #d62728"/>
   </g>
   <g id="patch_70">
    <path d="M 191.36213 213.516265 
L 197.008296 213.516265 
L 197.008296 188.530282 
L 191.36213 188.530282 
z
" clip-path="url(#p4d46306ce1)" style="fill: #d62728"/>
   </g>
   <g id="patch_71">
    <path d="M 208.152045 212.751828 
L 213.798211 212.751828 
L 213.798211 187.746038 
L 208.152045 187.746038 
z
" clip-path="url(#p4d46306ce1)" style="fill: #d62728"/>
   </g>
   <g id="patch_72">
    <path d="M 224.94196 211.952358 
L 230.588126 211.952358 
L 230.588126 186.930159 
L 224.94196 186.930159 
z
" clip-path="url(#p4d46306ce1)" style="fill: #d62728"/>
   </g>
   <g id="patch_73">
    <path d="M 241.731874 211.124394 
L 247.37804 211.124394 
L 247.37804 186.088788 
L 241.731874 186.088788 
z
" clip-path="url(#p4d46306ce1)" style="fill: #d62728"/>
   </g>
   <g id="patch_74">
    <path d="M 258.521789 210.273386 
L 264.167955 210.273386 
L 264.167955 185.227035 
L 258.521789 185.227035 
z
" clip-path="url(#p4d46306ce1)" style="fill: #d62728"/>
   </g>
   <g id="patch_75">
    <path d="M 275.311704 209.403894 
L 280.95787 209.403894 
L 280.95787 184.349166 
L 275.311704 184.349166 
z
" clip-path="url(#p4d46306ce1)" style="fill: #d62728"/>
   </g>
   <g id="patch_76">
    <path d="M 292.101618 208.519748 
L 297.747784 208.519748 
L 297.747784 183.458757 
L 292.101618 183.458757 
z
" clip-path="url(#p4d46306ce1)" style="fill: #d62728"/>
   </g>
   <g id="patch_77">
    <path d="M 308.891533 207.62418 
L 314.537699 207.62418 
L 314.537699 182.558818 
L 308.891533 182.558818 
z
" clip-path="url(#p4d46306ce1)" style="fill: #d62728"/>
   </g>
   <g id="patch_78">
    <path d="M 325.681448 206.719922 
L 331.327614 206.719922 
L 331.327614 181.651886 
L 325.681448 181.651886 
z
" clip-path="url(#p4d46306ce1)" style="fill: #d62728"/>
   </g>
   <g id="patch_79">
    <path d="M 342.471363 205.809294 
L 348.117529 205.809294 
L 348.117529 180.74011 
L 342.471363 180.74011 
z
" clip-path="url(#p4d46306ce1)" style="fill: #d62728"/>
   </g>
   <g id="patch_80">
    <path d="M 359.261277 204.894265 
L 364.907443 204.894265 
L 364.907443 179.825312 
L 359.261277 179.825312 
z
" clip-path="url(#p4d46306ce1)" style="fill: #d62728"/>
   </g>
   <g id="patch_81">
    <path d="M 376.051192 203.976516 
L 381.697358 203.976516 
L 381.697358 178.909037 
L 376.051192 178.909037 
z
" clip-path="url(#p4d46306ce1)" style="fill: #d62728"/>
   </g>
   <g id="patch_82">
    <path d="M 392.841107 203.05748 
L 398.487273 203.05748 
L 398.487273 177.992601 
L 392.841107 177.992601 
z
" clip-path="url(#p4d46306ce1)" style="fill: #d62728"/>
   </g>
   <g id="patch_83">
    <path d="M 73.832727 192.244524 
L 79.478893 192.244524 
L 79.478893 160.763625 
L 73.832727 160.763625 
z
" clip-path="url(#p4d46306ce1)" style="fill: #9467bd"/>
   </g>
   <g id="patch_84">
    <path d="M 90.622642 192.016611 
L 96.268808 192.016611 
L 96.268808 160.455422 
L 90.622642 160.455422 
z
" clip-path="url(#p4d46306ce1)" style="fill: #9467bd"/>
   </g>
   <g id="patch_85">
    <path d="M 107.412557 191.65151 
L 113.058723 191.65151 
L 113.058723 160.021905 
L 107.412557 160.021905 
z
" clip-path="url(#p4d46306ce1)" style="fill: #9467bd"/>
   </g>
   <g id="patch_86">
    <path d="M 124.202471 191.175795 
L 129.848637 191.175795 
L 129.848637 159.487865 
L 124.202471 159.487865 
z
" clip-path="url(#p4d46306ce1)" style="fill: #9467bd"/>
   </g>
   <g id="patch_87">
    <path d="M 140.992386 190.61053 
L 146.638552 190.61053 
L 146.638552 158.872912 
L 140.992386 158.872912 
z
" clip-path="url(#p4d46306ce1)" style="fill: #9467bd"/>
   </g>
   <g id="patch_88">
    <path d="M 157.782301 189.972558 
L 163.428467 189.972558 
L 163.428467 158.192695 
L 157.782301 158.192695 
z
" clip-path="url(#p4d46306ce1)" style="fill: #9467bd"/>
   </g>
   <g id="patch_89">
    <path d="M 174.572216 189.275464 
L 180.218382 189.275464 
L 180.218382 157.459808 
L 174.572216 157.459808 
z
" clip-path="url(#p4d46306ce1)" style="fill: #9467bd"/>
   </g>
   <g id="patch_90">
    <path d="M 191.36213 188.530282 
L 197.008296 188.530282 
L 197.008296 156.684456 
L 191.36213 156.684456 
z
" clip-path="url(#p4d46306ce1)" style="fill: #9467bd"/>
   </g>
   <g id="patch_91">
    <path d="M 208.152045 187.746038 
L 213.798211 187.746038 
L 213.798211 155.874966 
L 208.152045 155.874966 
z
" clip-path="url(#p4d46306ce1)" style="fill: #9467bd"/>
   </g>
   <g id="patch_92">
    <path d="M 224.94196 186.930159 
L 230.588126 186.930159 
L 230.588126 155.038173 
L 224.94196 155.038173 
z
" clip-path="url(#p4d46306ce1)" style="fill: #9467bd"/>
   </g>
   <g id="patch_93">
    <path d="M 241.731874 186.088788 
L 247.37804 186.088788 
L 247.37804 154.179715 
L 241.731874 154.179715 
z
" clip-path="url(#p4d46306ce1)" style="fill: #9467bd"/>
   </g>
   <g id="patch_94">
    <path d="M 258.521789 185.227035 
L 264.167955 185.227035 
L 264.167955 153.304268 
L 258.521789 153.304268 
z
" clip-path="url(#p4d46306ce1)" style="fill: #9467bd"/>
   </g>
   <g id="patch_95">
    <path d="M 275.311704 184.349166 
L 280.95787 184.349166 
L 280.95787 152.415722 
L 275.311704 152.415722 
z
" clip-path="url(#p4d46306ce1)" style="fill: #9467bd"/>
   </g>
   <g id="patch_96">
    <path d="M 292.101618 183.458757 
L 297.747784 183.458757 
L 297.747784 151.51733 
L 292.101618 151.51733 
z
" clip-path="url(#p4d46306ce1)" style="fill: #9467bd"/>
   </g>
   <g id="patch_97">
    <path d="M 308.891533 182.558818 
L 314.537699 182.558818 
L 314.537699 150.611818 
L 308.891533 150.611818 
z
" clip-path="url(#p4d46306ce1)" style="fill: #9467bd"/>
   </g>
   <g id="patch_98">
    <path d="M 325.681448 181.651886 
L 331.327614 181.651886 
L 331.327614 149.701478 
L 325.681448 149.701478 
z
" clip-path="url(#p4d46306ce1)" style="fill: #9467bd"/>
   </g>
   <g id="patch_99">
    <path d="M 342.471363 180.74011 
L 348.117529 180.74011 
L 348.117529 148.788241 
L 342.471363 148.788241 
z
" clip-path="url(#p4d46306ce1)" style="fill: #9467bd"/>
   </g>
   <g id="patch_100">
    <path d="M 359.261277 179.825312 
L 364.907443 179.825312 
L 364.907443 147.873735 
L 359.261277 147.873735 
z
" clip-path="url(#p4d46306ce1)" style="fill: #9467bd"/>
   </g>
   <g id="patch_101">
    <path d="M 376.051192 178.909037 
L 381.697358 178.909037 
L 381.697358 146.959339 
L 376.051192 146.959339 
z
" clip-path="url(#p4d46306ce1)" style="fill: #9467bd"/>
   </g>
   <g id="patch_102">
    <path d="M 392.841107 177.992601 
L 398.487273 177.992601 
L 398.487273 146.046218 
L 392.841107 146.046218 
z
" clip-path="url(#p4d46306ce1)" style="fill: #9467bd"/>
   </g>
   <g id="patch_103">
    <path d="M 73.832727 160.763625 
L 79.478893 160.763625 
L 79.478893 108.929233 
L 73.832727 108.929233 
z
" clip-path="url(#p4d46306ce1)" style="fill: #8c564b"/>
   </g>
   <g id="patch_104">
    <path d="M 90.622642 160.455422 
L 96.268808 160.455422 
L 96.268808 109.153316 
L 90.622642 109.153316 
z
" clip-path="url(#p4d46306ce1)" style="fill: #8c564b"/>
   </g>
   <g id="patch_105">
    <path d="M 107.412557 160.021905 
L 113.058723 160.021905 
L 113.058723 109.188997 
L 107.412557 109.188997 
z
" clip-path="url(#p4d46306ce1)" style="fill: #8c564b"/>
   </g>
   <g id="patch_106">
    <path d="M 124.202471 159.487865 
L 129.848637 159.487865 
L 129.848637 109.070315 
L 124.202471 109.070315 
z
" clip-path="url(#p4d46306ce1)" style="fill: #8c564b"/>
   </g>
   <g id="patch_107">
    <path d="M 140.992386 158.872912 
L 146.638552 158.872912 
L 146.638552 108.824425 
L 140.992386 108.824425 
z
" clip-path="url(#p4d46306ce1)" style="fill: #8c564b"/>
   </g>
   <g id="patch_108">
    <path d="M 157.782301 158.192695 
L 163.428467 158.192695 
L 163.428467 108.473199 
L 157.782301 108.473199 
z
" clip-path="url(#p4d46306ce1)" style="fill: #8c564b"/>
   </g>
   <g id="patch_109">
    <path d="M 174.572216 157.459808 
L 180.218382 157.459808 
L 180.218382 108.034403 
L 174.572216 108.034403 
z
" clip-path="url(#p4d46306ce1)" style="fill: #8c564b"/>
   </g>
   <g id="patch_110">
    <path d="M 191.36213 156.684456 
L 197.008296 156.684456 
L 197.008296 107.522578 
L 191.36213 107.522578 
z
" clip-path="url(#p4d46306ce1)" style="fill: #8c564b"/>
   </g>
   <g id="patch_111">
    <path d="M 208.152045 155.874966 
L 213.798211 155.874966 
L 213.798211 106.949713 
L 208.152045 106.949713 
z
" clip-path="url(#p4d46306ce1)" style="fill: #8c564b"/>
   </g>
   <g id="patch_112">
    <path d="M 224.94196 155.038173 
L 230.588126 155.038173 
L 230.588126 106.325752 
L 224.94196 106.325752 
z
" clip-path="url(#p4d46306ce1)" style="fill: #8c564b"/>
   </g>
   <g id="patch_113">
    <path d="M 241.731874 154.179715 
L 247.37804 154.179715 
L 247.37804 105.658996 
L 241.731874 105.658996 
z
" clip-path="url(#p4d46306ce1)" style="fill: #8c564b"/>
   </g>
   <g id="patch_114">
    <path d="M 258.521789 153.304268 
L 264.167955 153.304268 
L 264.167955 104.956407 
L 258.521789 104.956407 
z
" clip-path="url(#p4d46306ce1)" style="fill: #8c564b"/>
   </g>
   <g id="patch_115">
    <path d="M 275.311704 152.415722 
L 280.95787 152.415722 
L 280.95787 104.223855 
L 275.311704 104.223855 
z
" clip-path="url(#p4d46306ce1)" style="fill: #8c564b"/>
   </g>
   <g id="patch_116">
    <path d="M 292.101618 151.51733 
L 297.747784 151.51733 
L 297.747784 103.466311 
L 292.101618 103.466311 
z
" clip-path="url(#p4d46306ce1)" style="fill: #8c564b"/>
   </g>
   <g id="patch_117">
    <path d="M 308.891533 150.611818 
L 314.537699 150.611818 
L 314.537699 102.688003 
L 308.891533 102.688003 
z
" clip-path="url(#p4d46306ce1)" style="fill: #8c564b"/>
   </g>
   <g id="patch_118">
    <path d="M 325.681448 149.701478 
L 331.327614 149.701478 
L 331.327614 101.892537 
L 325.681448 101.892537 
z
" clip-path="url(#p4d46306ce1)" style="fill: #8c564b"/>
   </g>
   <g id="patch_119">
    <path d="M 342.471363 148.788241 
L 348.117529 148.788241 
L 348.117529 101.083001 
L 342.471363 101.083001 
z
" clip-path="url(#p4d46306ce1)" style="fill: #8c564b"/>
   </g>
   <g id="patch_120">
    <path d="M 359.261277 147.873735 
L 364.907443 147.873735 
L 364.907443 100.262049 
L 359.261277 100.262049 
z
" clip-path="url(#p4d46306ce1)" style="fill: #8c564b"/>
   </g>
   <g id="patch_121">
    <path d="M 376.051192 146.959339 
L 381.697358 146.959339 
L 381.697358 99.431963 
L 376.051192 99.431963 
z
" clip-path="url(#p4d46306ce1)" style="fill: #8c564b"/>
   </g>
   <g id="patch_122">
    <path d="M 392.841107 146.046218 
L 398.487273 146.046218 
L 398.487273 98.594715 
L 392.841107 98.594715 
z
" clip-path="url(#p4d46306ce1)" style="fill: #8c564b"/>
   </g>
   <g id="patch_123">
    <path d="M 73.832727 108.929233 
L 79.478893 108.929233 
L 79.478893 64.320029 
L 73.832727 64.320029 
z
" clip-path="url(#p4d46306ce1)" style="fill: #e377c2"/>
   </g>
   <g id="patch_124">
    <path d="M 90.622642 109.153316 
L 96.268808 109.153316 
L 96.268808 65.146645 
L 90.622642 65.146645 
z
" clip-path="url(#p4d46306ce1)" style="fill: #e377c2"/>
   </g>
   <g id="patch_125">
    <path d="M 107.412557 109.188997 
L 113.058723 109.188997 
L 113.058723 65.775531 
L 107.412557 65.775531 
z
" clip-path="url(#p4d46306ce1)" style="fill: #e377c2"/>
   </g>
   <g id="patch_126">
    <path d="M 124.202471 109.070315 
L 129.848637 109.070315 
L 129.848637 66.239347 
L 124.202471 66.239347 
z
" clip-path="url(#p4d46306ce1)" style="fill: #e377c2"/>
   </g>
   <g id="patch_127">
    <path d="M 140.992386 108.824425 
L 146.638552 108.824425 
L 146.638552 66.564387 
L 140.992386 66.564387 
z
" clip-path="url(#p4d46306ce1)" style="fill: #e377c2"/>
   </g>
   <g id="patch_128">
    <path d="M 157.782301 108.473199 
L 163.428467 108.473199 
L 163.428467 66.772022 
L 157.782301 66.772022 
z
" clip-path="url(#p4d46306ce1)" style="fill: #e377c2"/>
   </g>
   <g id="patch_129">
    <path d="M 174.572216 108.034403 
L 180.218382 108.034403 
L 180.218382 66.879778 
L 174.572216 66.879778 
z
" clip-path="url(#p4d46306ce1)" style="fill: #e377c2"/>
   </g>
   <g id="patch_130">
    <path d="M 191.36213 107.522578 
L 197.008296 107.522578 
L 197.008296 66.902144 
L 191.36213 66.902144 
z
" clip-path="url(#p4d46306ce1)" style="fill: #e377c2"/>
   </g>
   <g id="patch_131">
    <path d="M 208.152045 106.949713 
L 213.798211 106.949713 
L 213.798211 66.851186 
L 208.152045 66.851186 
z
" clip-path="url(#p4d46306ce1)" style="fill: #e377c2"/>
   </g>
   <g id="patch_132">
    <path d="M 224.94196 106.325752 
L 230.588126 106.325752 
L 230.588126 66.737023 
L 224.94196 66.737023 
z
" clip-path="url(#p4d46306ce1)" style="fill: #e377c2"/>
   </g>
   <g id="patch_133">
    <path d="M 241.731874 105.658996 
L 247.37804 105.658996 
L 247.37804 66.568189 
L 241.731874 66.568189 
z
" clip-path="url(#p4d46306ce1)" style="fill: #e377c2"/>
   </g>
   <g id="patch_134">
    <path d="M 258.521789 104.956407 
L 264.167955 104.956407 
L 264.167955 66.351929 
L 258.521789 66.351929 
z
" clip-path="url(#p4d46306ce1)" style="fill: #e377c2"/>
   </g>
   <g id="patch_135">
    <path d="M 275.311704 104.223855 
L 280.95787 104.223855 
L 280.95787 66.094421 
L 275.311704 66.094421 
z
" clip-path="url(#p4d46306ce1)" style="fill: #e377c2"/>
   </g>
   <g id="patch_136">
    <path d="M 292.101618 103.466311 
L 297.747784 103.466311 
L 297.747784 65.800959 
L 292.101618 65.800959 
z
" clip-path="url(#p4d46306ce1)" style="fill: #e377c2"/>
   </g>
   <g id="patch_137">
    <path d="M 308.891533 102.688003 
L 314.537699 102.688003 
L 314.537699 65.476105 
L 308.891533 65.476105 
z
" clip-path="url(#p4d46306ce1)" style="fill: #e377c2"/>
   </g>
   <g id="patch_138">
    <path d="M 325.681448 101.892537 
L 331.327614 101.892537 
L 331.327614 65.123801 
L 325.681448 65.123801 
z
" clip-path="url(#p4d46306ce1)" style="fill: #e377c2"/>
   </g>
   <g id="patch_139">
    <path d="M 342.471363 101.083001 
L 348.117529 101.083001 
L 348.117529 64.74747 
L 342.471363 64.74747 
z
" clip-path="url(#p4d46306ce1)" style="fill: #e377c2"/>
   </g>
   <g id="patch_140">
    <path d="M 359.261277 100.262049 
L 364.907443 100.262049 
L 364.907443 64.350093 
L 359.261277 64.350093 
z
" clip-path="url(#p4d46306ce1)" style="fill: #e377c2"/>
   </g>
   <g id="patch_141">
    <path d="M 376.051192 99.431963 
L 381.697358 99.431963 
L 381.697358 63.934275 
L 376.051192 63.934275 
z
" clip-path="url(#p4d46306ce1)" style="fill: #e377c2"/>
   </g>
   <g id="patch_142">
    <path d="M 392.841107 98.594715 
L 398.487273 98.594715 
L 398.487273 63.5023 
L 392.841107 63.5023 
z
" clip-path="url(#p4d46306ce1)" style="fill: #e377c2"/>
   </g>
   <g id="patch_143">
    <path d="M 73.832727 64.320029 
L 79.478893 64.320029 
L 79.478893 54.144 
L 73.832727 54.144 
z
" clip-path="url(#p4d46306ce1)" style="fill: #7f7f7f"/>
   </g>
   <g id="patch_144">
    <path d="M 90.622642 65.146645 
L 96.268808 65.146645 
L 96.268808 55.748024 
L 90.622642 55.748024 
z
" clip-path="url(#p4d46306ce1)" style="fill: #7f7f7f"/>
   </g>
   <g id="patch_145">
    <path d="M 107.412557 65.775531 
L 113.058723 65.775531 
L 113.058723 57.114837 
L 107.412557 57.114837 
z
" clip-path="url(#p4d46306ce1)" style="fill: #7f7f7f"/>
   </g>
   <g id="patch_146">
    <path d="M 124.202471 66.239347 
L 129.848637 66.239347 
L 129.848637 58.280064 
L 124.202471 58.280064 
z
" clip-path="url(#p4d46306ce1)" style="fill: #7f7f7f"/>
   </g>
   <g id="patch_147">
    <path d="M 140.992386 66.564387 
L 146.638552 66.564387 
L 146.638552 59.272724 
L 140.992386 59.272724 
z
" clip-path="url(#p4d46306ce1)" style="fill: #7f7f7f"/>
   </g>
   <g id="patch_148">
    <path d="M 157.782301 66.772022 
L 163.428467 66.772022 
L 163.428467 60.116688 
L 157.782301 60.116688 
z
" clip-path="url(#p4d46306ce1)" style="fill: #7f7f7f"/>
   </g>
   <g id="patch_149">
    <path d="M 174.572216 66.879778 
L 180.218382 66.879778 
L 180.218382 60.831758 
L 174.572216 60.831758 
z
" clip-path="url(#p4d46306ce1)" style="fill: #7f7f7f"/>
   </g>
   <g id="patch_150">
    <path d="M 191.36213 66.902144 
L 197.008296 66.902144 
L 197.008296 61.434496 
L 191.36213 61.434496 
z
" clip-path="url(#p4d46306ce1)" style="fill: #7f7f7f"/>
   </g>
   <g id="patch_151">
    <path d="M 208.152045 66.851186 
L 213.798211 66.851186 
L 213.798211 61.938855 
L 208.152045 61.938855 
z
" clip-path="url(#p4d46306ce1)" style="fill: #7f7f7f"/>
   </g>
   <g id="patch_152">
    <path d="M 224.94196 66.737023 
L 230.588126 66.737023 
L 230.588126 62.356671 
L 224.94196 62.356671 
z
" clip-path="url(#p4d46306ce1)" style="fill: #7f7f7f"/>
   </g>
   <g id="patch_153">
    <path d="M 241.731874 66.568189 
L 247.37804 66.568189 
L 247.37804 62.698042 
L 241.731874 62.698042 
z
" clip-path="url(#p4d46306ce1)" style="fill: #7f7f7f"/>
   </g>
   <g id="patch_154">
    <path d="M 258.521789 66.351929 
L 264.167955 66.351929 
L 264.167955 62.971635 
L 258.521789 62.971635 
z
" clip-path="url(#p4d46306ce1)" style="fill: #7f7f7f"/>
   </g>
   <g id="patch_155">
    <path d="M 275.311704 66.094421 
L 280.95787 66.094421 
L 280.95787 63.184932 
L 275.311704 63.184932 
z
" clip-path="url(#p4d46306ce1)" style="fill: #7f7f7f"/>
   </g>
   <g id="patch_156">
    <path d="M 292.101618 65.800959 
L 297.747784 65.800959 
L 297.747784 63.344413 
L 292.101618 63.344413 
z
" clip-path="url(#p4d46306ce1)" style="fill: #7f7f7f"/>
   </g>
   <g id="patch_157">
    <path d="M 308.891533 65.476105 
L 314.537699 65.476105 
L 314.537699 63.45573 
L 308.891533 63.45573 
z
" clip-path="url(#p4d46306ce1)" style="fill: #7f7f7f"/>
   </g>
   <g id="patch_158">
    <path d="M 325.681448 65.123801 
L 331.327614 65.123801 
L 331.327614 63.523823 
L 325.681448 63.523823 
z
" clip-path="url(#p4d46306ce1)" style="fill: #7f7f7f"/>
   </g>
   <g id="patch_159">
    <path d="M 342.471363 64.74747 
L 348.117529 64.74747 
L 348.117529 63.55303 
L 342.471363 63.55303 
z
" clip-path="url(#p4d46306ce1)" style="fill: #7f7f7f"/>
   </g>
   <g id="patch_160">
    <path d="M 359.261277 64.350093 
L 364.907443 64.350093 
L 364.907443 63.547176 
L 359.261277 63.547176 
z
" clip-path="url(#p4d46306ce1)" style="fill: #7f7f7f"/>
   </g>
   <g id="patch_161">
    <path d="M 376.051192 63.934275 
L 381.697358 63.934275 
L 381.697358 63.509642 
L 376.051192 63.509642 
z
" clip-path="url(#p4d46306ce1)" style="fill: #7f7f7f"/>
   </g>
   <g id="patch_162">
    <path d="M 392.841107 63.5023 
L 398.487273 63.5023 
L 398.487273 63.44343 
L 392.841107 63.44343 
z
" clip-path="url(#p4d46306ce1)" style="fill: #7f7f7f"/>
   </g>
   <g id="matplotlib.axis_1">
    <g id="xtick_1">
     <g id="line2d_1">
      <defs>
       <path id="mdb9cbebaa5" d="M 0 0 
L 0 3.5 
" style="stroke: #000000; stroke-width: 0.8"/>
      </defs>
      <g>
       <use xlink:href="#mdb9cbebaa5" x="76.65581" y="307.584" style="stroke: #000000; stroke-width: 0.8"/>
      </g>
     </g>
     <g id="text_1">
      <!-- 60.0 -->
      <g transform="translate(56.616748 328.261187) scale(0.18 -0.18)">
       <defs>
        <path id="DejaVuSans-36" d="M 2113 2584 
Q 1688 2584 1439 2293 
Q 1191 2003 1191 1497 
Q 1191 994 1439 701 
Q 1688 409 2113 409 
Q 2538 409 2786 701 
Q 3034 994 3034 1497 
Q 3034 2003 2786 2293 
Q 2538 2584 2113 2584 
z
M 3366 4563 
L 3366 3988 
Q 3128 4100 2886 4159 
Q 2644 4219 2406 4219 
Q 1781 4219 1451 3797 
Q 1122 3375 1075 2522 
Q 1259 2794 1537 2939 
Q 1816 3084 2150 3084 
Q 2853 3084 3261 2657 
Q 3669 2231 3669 1497 
Q 3669 778 3244 343 
Q 2819 -91 2113 -91 
Q 1303 -91 875 529 
Q 447 1150 447 2328 
Q 447 3434 972 4092 
Q 1497 4750 2381 4750 
Q 2619 4750 2861 4703 
Q 3103 4656 3366 4563 
z
" transform="scale(0.015625)"/>
        <path id="DejaVuSans-30" d="M 2034 4250 
Q 1547 4250 1301 3770 
Q 1056 3291 1056 2328 
Q 1056 1369 1301 889 
Q 1547 409 2034 409 
Q 2525 409 2770 889 
Q 3016 1369 3016 2328 
Q 3016 3291 2770 3770 
Q 2525 4250 2034 4250 
z
M 2034 4750 
Q 2819 4750 3233 4129 
Q 3647 3509 3647 2328 
Q 3647 1150 3233 529 
Q 2819 -91 2034 -91 
Q 1250 -91 836 529 
Q 422 1150 422 2328 
Q 422 3509 836 4129 
Q 1250 4750 2034 4750 
z
" transform="scale(0.015625)"/>
        <path id="DejaVuSans-2e" d="M 684 794 
L 1344 794 
L 1344 0 
L 684 0 
L 684 794 
z
" transform="scale(0.015625)"/>
       </defs>
       <use xlink:href="#DejaVuSans-36"/>
       <use xlink:href="#DejaVuSans-30" x="63.623047"/>
       <use xlink:href="#DejaVuSans-2e" x="127.246094"/>
       <use xlink:href="#DejaVuSans-30" x="159.033203"/>
      </g>
     </g>
    </g>
    <g id="xtick_2">
     <g id="line2d_2">
      <g>
       <use xlink:href="#mdb9cbebaa5" x="147.232885" y="307.584" style="stroke: #000000; stroke-width: 0.8"/>
      </g>
     </g>
     <g id="text_2">
      <!-- 62.5 -->
      <g transform="translate(127.193823 328.261187) scale(0.18 -0.18)">
       <defs>
        <path id="DejaVuSans-32" d="M 1228 531 
L 3431 531 
L 3431 0 
L 469 0 
L 469 531 
Q 828 903 1448 1529 
Q 2069 2156 2228 2338 
Q 2531 2678 2651 2914 
Q 2772 3150 2772 3378 
Q 2772 3750 2511 3984 
Q 2250 4219 1831 4219 
Q 1534 4219 1204 4116 
Q 875 4013 500 3803 
L 500 4441 
Q 881 4594 1212 4672 
Q 1544 4750 1819 4750 
Q 2544 4750 2975 4387 
Q 3406 4025 3406 3419 
Q 3406 3131 3298 2873 
Q 3191 2616 2906 2266 
Q 2828 2175 2409 1742 
Q 1991 1309 1228 531 
z
" transform="scale(0.015625)"/>
        <path id="DejaVuSans-35" d="M 691 4666 
L 3169 4666 
L 3169 4134 
L 1269 4134 
L 1269 2991 
Q 1406 3038 1543 3061 
Q 1681 3084 1819 3084 
Q 2600 3084 3056 2656 
Q 3513 2228 3513 1497 
Q 3513 744 3044 326 
Q 2575 -91 1722 -91 
Q 1428 -91 1123 -41 
Q 819 9 494 109 
L 494 744 
Q 775 591 1075 516 
Q 1375 441 1709 441 
Q 2250 441 2565 725 
Q 2881 1009 2881 1497 
Q 2881 1984 2565 2268 
Q 2250 2553 1709 2553 
Q 1456 2553 1204 2497 
Q 953 2441 691 2322 
L 691 4666 
z
" transform="scale(0.015625)"/>
       </defs>
       <use xlink:href="#DejaVuSans-36"/>
       <use xlink:href="#DejaVuSans-32" x="63.623047"/>
       <use xlink:href="#DejaVuSans-2e" x="127.246094"/>
       <use xlink:href="#DejaVuSans-35" x="159.033203"/>
      </g>
     </g>
    </g>
    <g id="xtick_3">
     <g id="line2d_3">
      <g>
       <use xlink:href="#mdb9cbebaa5" x="217.80996" y="307.584" style="stroke: #000000; stroke-width: 0.8"/>
      </g>
     </g>
     <g id="text_3">
      <!-- 65.0 -->
      <g transform="translate(197.770898 328.261187) scale(0.18 -0.18)">
       <use xlink:href="#DejaVuSans-36"/>
       <use xlink:href="#DejaVuSans-35" x="63.623047"/>
       <use xlink:href="#DejaVuSans-2e" x="127.246094"/>
       <use xlink:href="#DejaVuSans-30" x="159.033203"/>
      </g>
     </g>
    </g>
    <g id="xtick_4">
     <g id="line2d_4">
      <g>
       <use xlink:href="#mdb9cbebaa5" x="288.387036" y="307.584" style="stroke: #000000; stroke-width: 0.8"/>
      </g>
     </g>
     <g id="text_4">
      <!-- 67.5 -->
      <g transform="translate(268.347973 328.261187) scale(0.18 -0.18)">
       <defs>
        <path id="DejaVuSans-37" d="M 525 4666 
L 3525 4666 
L 3525 4397 
L 1831 0 
L 1172 0 
L 2766 4134 
L 525 4134 
L 525 4666 
z
" transform="scale(0.015625)"/>
       </defs>
       <use xlink:href="#DejaVuSans-36"/>
       <use xlink:href="#DejaVuSans-37" x="63.623047"/>
       <use xlink:href="#DejaVuSans-2e" x="127.246094"/>
       <use xlink:href="#DejaVuSans-35" x="159.033203"/>
      </g>
     </g>
    </g>
    <g id="xtick_5">
     <g id="line2d_5">
      <g>
       <use xlink:href="#mdb9cbebaa5" x="358.964111" y="307.584" style="stroke: #000000; stroke-width: 0.8"/>
      </g>
     </g>
     <g id="text_5">
      <!-- 70.0 -->
      <g transform="translate(338.925048 328.261187) scale(0.18 -0.18)">
       <use xlink:href="#DejaVuSans-37"/>
       <use xlink:href="#DejaVuSans-30" x="63.623047"/>
       <use xlink:href="#DejaVuSans-2e" x="127.246094"/>
       <use xlink:href="#DejaVuSans-30" x="159.033203"/>
      </g>
     </g>
    </g>
    <g id="text_6">
     <!-- Kondensatordruck in bar -->
     <g transform="translate(125.630156 349.681812) scale(0.18 -0.18)">
      <defs>
       <path id="DejaVuSans-4b" d="M 628 4666 
L 1259 4666 
L 1259 2694 
L 3353 4666 
L 4166 4666 
L 1850 2491 
L 4331 0 
L 3500 0 
L 1259 2247 
L 1259 0 
L 628 0 
L 628 4666 
z
" transform="scale(0.015625)"/>
       <path id="DejaVuSans-6f" d="M 1959 3097 
Q 1497 3097 1228 2736 
Q 959 2375 959 1747 
Q 959 1119 1226 758 
Q 1494 397 1959 397 
Q 2419 397 2687 759 
Q 2956 1122 2956 1747 
Q 2956 2369 2687 2733 
Q 2419 3097 1959 3097 
z
M 1959 3584 
Q 2709 3584 3137 3096 
Q 3566 2609 3566 1747 
Q 3566 888 3137 398 
Q 2709 -91 1959 -91 
Q 1206 -91 779 398 
Q 353 888 353 1747 
Q 353 2609 779 3096 
Q 1206 3584 1959 3584 
z
" transform="scale(0.015625)"/>
       <path id="DejaVuSans-6e" d="M 3513 2113 
L 3513 0 
L 2938 0 
L 2938 2094 
Q 2938 2591 2744 2837 
Q 2550 3084 2163 3084 
Q 1697 3084 1428 2787 
Q 1159 2491 1159 1978 
L 1159 0 
L 581 0 
L 581 3500 
L 1159 3500 
L 1159 2956 
Q 1366 3272 1645 3428 
Q 1925 3584 2291 3584 
Q 2894 3584 3203 3211 
Q 3513 2838 3513 2113 
z
" transform="scale(0.015625)"/>
       <path id="DejaVuSans-64" d="M 2906 2969 
L 2906 4863 
L 3481 4863 
L 3481 0 
L 2906 0 
L 2906 525 
Q 2725 213 2448 61 
Q 2172 -91 1784 -91 
Q 1150 -91 751 415 
Q 353 922 353 1747 
Q 353 2572 751 3078 
Q 1150 3584 1784 3584 
Q 2172 3584 2448 3432 
Q 2725 3281 2906 2969 
z
M 947 1747 
Q 947 1113 1208 752 
Q 1469 391 1925 391 
Q 2381 391 2643 752 
Q 2906 1113 2906 1747 
Q 2906 2381 2643 2742 
Q 2381 3103 1925 3103 
Q 1469 3103 1208 2742 
Q 947 2381 947 1747 
z
" transform="scale(0.015625)"/>
       <path id="DejaVuSans-65" d="M 3597 1894 
L 3597 1613 
L 953 1613 
Q 991 1019 1311 708 
Q 1631 397 2203 397 
Q 2534 397 2845 478 
Q 3156 559 3463 722 
L 3463 178 
Q 3153 47 2828 -22 
Q 2503 -91 2169 -91 
Q 1331 -91 842 396 
Q 353 884 353 1716 
Q 353 2575 817 3079 
Q 1281 3584 2069 3584 
Q 2775 3584 3186 3129 
Q 3597 2675 3597 1894 
z
M 3022 2063 
Q 3016 2534 2758 2815 
Q 2500 3097 2075 3097 
Q 1594 3097 1305 2825 
Q 1016 2553 972 2059 
L 3022 2063 
z
" transform="scale(0.015625)"/>
       <path id="DejaVuSans-73" d="M 2834 3397 
L 2834 2853 
Q 2591 2978 2328 3040 
Q 2066 3103 1784 3103 
Q 1356 3103 1142 2972 
Q 928 2841 928 2578 
Q 928 2378 1081 2264 
Q 1234 2150 1697 2047 
L 1894 2003 
Q 2506 1872 2764 1633 
Q 3022 1394 3022 966 
Q 3022 478 2636 193 
Q 2250 -91 1575 -91 
Q 1294 -91 989 -36 
Q 684 19 347 128 
L 347 722 
Q 666 556 975 473 
Q 1284 391 1588 391 
Q 1994 391 2212 530 
Q 2431 669 2431 922 
Q 2431 1156 2273 1281 
Q 2116 1406 1581 1522 
L 1381 1569 
Q 847 1681 609 1914 
Q 372 2147 372 2553 
Q 372 3047 722 3315 
Q 1072 3584 1716 3584 
Q 2034 3584 2315 3537 
Q 2597 3491 2834 3397 
z
" transform="scale(0.015625)"/>
       <path id="DejaVuSans-61" d="M 2194 1759 
Q 1497 1759 1228 1600 
Q 959 1441 959 1056 
Q 959 750 1161 570 
Q 1363 391 1709 391 
Q 2188 391 2477 730 
Q 2766 1069 2766 1631 
L 2766 1759 
L 2194 1759 
z
M 3341 1997 
L 3341 0 
L 2766 0 
L 2766 531 
Q 2569 213 2275 61 
Q 1981 -91 1556 -91 
Q 1019 -91 701 211 
Q 384 513 384 1019 
Q 384 1609 779 1909 
Q 1175 2209 1959 2209 
L 2766 2209 
L 2766 2266 
Q 2766 2663 2505 2880 
Q 2244 3097 1772 3097 
Q 1472 3097 1187 3025 
Q 903 2953 641 2809 
L 641 3341 
Q 956 3463 1253 3523 
Q 1550 3584 1831 3584 
Q 2591 3584 2966 3190 
Q 3341 2797 3341 1997 
z
" transform="scale(0.015625)"/>
       <path id="DejaVuSans-74" d="M 1172 4494 
L 1172 3500 
L 2356 3500 
L 2356 3053 
L 1172 3053 
L 1172 1153 
Q 1172 725 1289 603 
Q 1406 481 1766 481 
L 2356 481 
L 2356 0 
L 1766 0 
Q 1100 0 847 248 
Q 594 497 594 1153 
L 594 3053 
L 172 3053 
L 172 3500 
L 594 3500 
L 594 4494 
L 1172 4494 
z
" transform="scale(0.015625)"/>
       <path id="DejaVuSans-72" d="M 2631 2963 
Q 2534 3019 2420 3045 
Q 2306 3072 2169 3072 
Q 1681 3072 1420 2755 
Q 1159 2438 1159 1844 
L 1159 0 
L 581 0 
L 581 3500 
L 1159 3500 
L 1159 2956 
Q 1341 3275 1631 3429 
Q 1922 3584 2338 3584 
Q 2397 3584 2469 3576 
Q 2541 3569 2628 3553 
L 2631 2963 
z
" transform="scale(0.015625)"/>
       <path id="DejaVuSans-75" d="M 544 1381 
L 544 3500 
L 1119 3500 
L 1119 1403 
Q 1119 906 1312 657 
Q 1506 409 1894 409 
Q 2359 409 2629 706 
Q 2900 1003 2900 1516 
L 2900 3500 
L 3475 3500 
L 3475 0 
L 2900 0 
L 2900 538 
Q 2691 219 2414 64 
Q 2138 -91 1772 -91 
Q 1169 -91 856 284 
Q 544 659 544 1381 
z
M 1991 3584 
L 1991 3584 
z
" transform="scale(0.015625)"/>
       <path id="DejaVuSans-63" d="M 3122 3366 
L 3122 2828 
Q 2878 2963 2633 3030 
Q 2388 3097 2138 3097 
Q 1578 3097 1268 2742 
Q 959 2388 959 1747 
Q 959 1106 1268 751 
Q 1578 397 2138 397 
Q 2388 397 2633 464 
Q 2878 531 3122 666 
L 3122 134 
Q 2881 22 2623 -34 
Q 2366 -91 2075 -91 
Q 1284 -91 818 406 
Q 353 903 353 1747 
Q 353 2603 823 3093 
Q 1294 3584 2113 3584 
Q 2378 3584 2631 3529 
Q 2884 3475 3122 3366 
z
" transform="scale(0.015625)"/>
       <path id="DejaVuSans-6b" d="M 581 4863 
L 1159 4863 
L 1159 1991 
L 2875 3500 
L 3609 3500 
L 1753 1863 
L 3688 0 
L 2938 0 
L 1159 1709 
L 1159 0 
L 581 0 
L 581 4863 
z
" transform="scale(0.015625)"/>
       <path id="DejaVuSans-20" transform="scale(0.015625)"/>
       <path id="DejaVuSans-69" d="M 603 3500 
L 1178 3500 
L 1178 0 
L 603 0 
L 603 3500 
z
M 603 4863 
L 1178 4863 
L 1178 4134 
L 603 4134 
L 603 4863 
z
" transform="scale(0.015625)"/>
       <path id="DejaVuSans-62" d="M 3116 1747 
Q 3116 2381 2855 2742 
Q 2594 3103 2138 3103 
Q 1681 3103 1420 2742 
Q 1159 2381 1159 1747 
Q 1159 1113 1420 752 
Q 1681 391 2138 391 
Q 2594 391 2855 752 
Q 3116 1113 3116 1747 
z
M 1159 2969 
Q 1341 3281 1617 3432 
Q 1894 3584 2278 3584 
Q 2916 3584 3314 3078 
Q 3713 2572 3713 1747 
Q 3713 922 3314 415 
Q 2916 -91 2278 -91 
Q 1894 -91 1617 61 
Q 1341 213 1159 525 
L 1159 0 
L 581 0 
L 581 4863 
L 1159 4863 
L 1159 2969 
z
" transform="scale(0.015625)"/>
      </defs>
      <use xlink:href="#DejaVuSans-4b"/>
      <use xlink:href="#DejaVuSans-6f" x="60.576172"/>
      <use xlink:href="#DejaVuSans-6e" x="121.757812"/>
      <use xlink:href="#DejaVuSans-64" x="185.136719"/>
      <use xlink:href="#DejaVuSans-65" x="248.613281"/>
      <use xlink:href="#DejaVuSans-6e" x="310.136719"/>
      <use xlink:href="#DejaVuSans-73" x="373.515625"/>
      <use xlink:href="#DejaVuSans-61" x="425.615234"/>
      <use xlink:href="#DejaVuSans-74" x="486.894531"/>
      <use xlink:href="#DejaVuSans-6f" x="526.103516"/>
      <use xlink:href="#DejaVuSans-72" x="587.285156"/>
      <use xlink:href="#DejaVuSans-64" x="626.648438"/>
      <use xlink:href="#DejaVuSans-72" x="690.125"/>
      <use xlink:href="#DejaVuSans-75" x="731.238281"/>
      <use xlink:href="#DejaVuSans-63" x="794.617188"/>
      <use xlink:href="#DejaVuSans-6b" x="849.597656"/>
      <use xlink:href="#DejaVuSans-20" x="907.507812"/>
      <use xlink:href="#DejaVuSans-69" x="939.294922"/>
      <use xlink:href="#DejaVuSans-6e" x="967.078125"/>
      <use xlink:href="#DejaVuSans-20" x="1030.457031"/>
      <use xlink:href="#DejaVuSans-62" x="1062.244141"/>
      <use xlink:href="#DejaVuSans-61" x="1125.720703"/>
      <use xlink:href="#DejaVuSans-72" x="1187"/>
     </g>
    </g>
   </g>
   <g id="matplotlib.axis_2">
    <g id="ytick_1">
     <g id="line2d_6">
      <defs>
       <path id="m38544cfbb8" d="M 0 0 
L -3.5 0 
" style="stroke: #000000; stroke-width: 0.8"/>
      </defs>
      <g>
       <use xlink:href="#m38544cfbb8" x="57.6" y="307.584" style="stroke: #000000; stroke-width: 0.8"/>
      </g>
     </g>
     <g id="text_7">
      <!-- 0.0 -->
      <g transform="translate(21.974375 314.422594) scale(0.18 -0.18)">
       <use xlink:href="#DejaVuSans-30"/>
       <use xlink:href="#DejaVuSans-2e" x="63.623047"/>
       <use xlink:href="#DejaVuSans-30" x="95.410156"/>
      </g>
     </g>
    </g>
    <g id="ytick_2">
     <g id="line2d_7">
      <g>
       <use xlink:href="#m38544cfbb8" x="57.6" y="241.285046" style="stroke: #000000; stroke-width: 0.8"/>
      </g>
     </g>
     <g id="text_8">
      <!-- 0.5 -->
      <g transform="translate(21.974375 248.12364) scale(0.18 -0.18)">
       <use xlink:href="#DejaVuSans-30"/>
       <use xlink:href="#DejaVuSans-2e" x="63.623047"/>
       <use xlink:href="#DejaVuSans-35" x="95.410156"/>
      </g>
     </g>
    </g>
    <g id="ytick_3">
     <g id="line2d_8">
      <g>
       <use xlink:href="#m38544cfbb8" x="57.6" y="174.986092" style="stroke: #000000; stroke-width: 0.8"/>
      </g>
     </g>
     <g id="text_9">
      <!-- 1.0 -->
      <g transform="translate(21.974375 181.824686) scale(0.18 -0.18)">
       <defs>
        <path id="DejaVuSans-31" d="M 794 531 
L 1825 531 
L 1825 4091 
L 703 3866 
L 703 4441 
L 1819 4666 
L 2450 4666 
L 2450 531 
L 3481 531 
L 3481 0 
L 794 0 
L 794 531 
z
" transform="scale(0.015625)"/>
       </defs>
       <use xlink:href="#DejaVuSans-31"/>
       <use xlink:href="#DejaVuSans-2e" x="63.623047"/>
       <use xlink:href="#DejaVuSans-30" x="95.410156"/>
      </g>
     </g>
    </g>
    <g id="ytick_4">
     <g id="line2d_9">
      <g>
       <use xlink:href="#m38544cfbb8" x="57.6" y="108.687138" style="stroke: #000000; stroke-width: 0.8"/>
      </g>
     </g>
     <g id="text_10">
      <!-- 1.5 -->
      <g transform="translate(21.974375 115.525732) scale(0.18 -0.18)">
       <use xlink:href="#DejaVuSans-31"/>
       <use xlink:href="#DejaVuSans-2e" x="63.623047"/>
       <use xlink:href="#DejaVuSans-35" x="95.410156"/>
      </g>
     </g>
    </g>
    <g id="ytick_5">
     <g id="line2d_10">
      <g>
       <use xlink:href="#m38544cfbb8" x="57.6" y="42.388185" style="stroke: #000000; stroke-width: 0.8"/>
      </g>
     </g>
     <g id="text_11">
      <!-- 2.0 -->
      <g transform="translate(21.974375 49.226778) scale(0.18 -0.18)">
       <use xlink:href="#DejaVuSans-32"/>
       <use xlink:href="#DejaVuSans-2e" x="63.623047"/>
       <use xlink:href="#DejaVuSans-30" x="95.410156"/>
      </g>
     </g>
    </g>
    <g id="text_12">
     <!-- Exergievernichtung in MW -->
     <g transform="translate(14.230937 292.593937) rotate(-90) scale(0.18 -0.18)">
      <defs>
       <path id="DejaVuSans-45" d="M 628 4666 
L 3578 4666 
L 3578 4134 
L 1259 4134 
L 1259 2753 
L 3481 2753 
L 3481 2222 
L 1259 2222 
L 1259 531 
L 3634 531 
L 3634 0 
L 628 0 
L 628 4666 
z
" transform="scale(0.015625)"/>
       <path id="DejaVuSans-78" d="M 3513 3500 
L 2247 1797 
L 3578 0 
L 2900 0 
L 1881 1375 
L 863 0 
L 184 0 
L 1544 1831 
L 300 3500 
L 978 3500 
L 1906 2253 
L 2834 3500 
L 3513 3500 
z
" transform="scale(0.015625)"/>
       <path id="DejaVuSans-67" d="M 2906 1791 
Q 2906 2416 2648 2759 
Q 2391 3103 1925 3103 
Q 1463 3103 1205 2759 
Q 947 2416 947 1791 
Q 947 1169 1205 825 
Q 1463 481 1925 481 
Q 2391 481 2648 825 
Q 2906 1169 2906 1791 
z
M 3481 434 
Q 3481 -459 3084 -895 
Q 2688 -1331 1869 -1331 
Q 1566 -1331 1297 -1286 
Q 1028 -1241 775 -1147 
L 775 -588 
Q 1028 -725 1275 -790 
Q 1522 -856 1778 -856 
Q 2344 -856 2625 -561 
Q 2906 -266 2906 331 
L 2906 616 
Q 2728 306 2450 153 
Q 2172 0 1784 0 
Q 1141 0 747 490 
Q 353 981 353 1791 
Q 353 2603 747 3093 
Q 1141 3584 1784 3584 
Q 2172 3584 2450 3431 
Q 2728 3278 2906 2969 
L 2906 3500 
L 3481 3500 
L 3481 434 
z
" transform="scale(0.015625)"/>
       <path id="DejaVuSans-76" d="M 191 3500 
L 800 3500 
L 1894 563 
L 2988 3500 
L 3597 3500 
L 2284 0 
L 1503 0 
L 191 3500 
z
" transform="scale(0.015625)"/>
       <path id="DejaVuSans-68" d="M 3513 2113 
L 3513 0 
L 2938 0 
L 2938 2094 
Q 2938 2591 2744 2837 
Q 2550 3084 2163 3084 
Q 1697 3084 1428 2787 
Q 1159 2491 1159 1978 
L 1159 0 
L 581 0 
L 581 4863 
L 1159 4863 
L 1159 2956 
Q 1366 3272 1645 3428 
Q 1925 3584 2291 3584 
Q 2894 3584 3203 3211 
Q 3513 2838 3513 2113 
z
" transform="scale(0.015625)"/>
       <path id="DejaVuSans-4d" d="M 628 4666 
L 1569 4666 
L 2759 1491 
L 3956 4666 
L 4897 4666 
L 4897 0 
L 4281 0 
L 4281 4097 
L 3078 897 
L 2444 897 
L 1241 4097 
L 1241 0 
L 628 0 
L 628 4666 
z
" transform="scale(0.015625)"/>
       <path id="DejaVuSans-57" d="M 213 4666 
L 850 4666 
L 1831 722 
L 2809 4666 
L 3519 4666 
L 4500 722 
L 5478 4666 
L 6119 4666 
L 4947 0 
L 4153 0 
L 3169 4050 
L 2175 0 
L 1381 0 
L 213 4666 
z
" transform="scale(0.015625)"/>
      </defs>
      <use xlink:href="#DejaVuSans-45"/>
      <use xlink:href="#DejaVuSans-78" x="63.183594"/>
      <use xlink:href="#DejaVuSans-65" x="119.238281"/>
      <use xlink:href="#DejaVuSans-72" x="180.761719"/>
      <use xlink:href="#DejaVuSans-67" x="220.125"/>
      <use xlink:href="#DejaVuSans-69" x="283.601562"/>
      <use xlink:href="#DejaVuSans-65" x="311.384766"/>
      <use xlink:href="#DejaVuSans-76" x="372.908203"/>
      <use xlink:href="#DejaVuSans-65" x="432.087891"/>
      <use xlink:href="#DejaVuSans-72" x="493.611328"/>
      <use xlink:href="#DejaVuSans-6e" x="532.974609"/>
      <use xlink:href="#DejaVuSans-69" x="596.353516"/>
      <use xlink:href="#DejaVuSans-63" x="624.136719"/>
      <use xlink:href="#DejaVuSans-68" x="679.117188"/>
      <use xlink:href="#DejaVuSans-74" x="742.496094"/>
      <use xlink:href="#DejaVuSans-75" x="781.705078"/>
      <use xlink:href="#DejaVuSans-6e" x="845.083984"/>
      <use xlink:href="#DejaVuSans-67" x="908.462891"/>
      <use xlink:href="#DejaVuSans-20" x="971.939453"/>
      <use xlink:href="#DejaVuSans-69" x="1003.726562"/>
      <use xlink:href="#DejaVuSans-6e" x="1031.509766"/>
      <use xlink:href="#DejaVuSans-20" x="1094.888672"/>
      <use xlink:href="#DejaVuSans-4d" x="1126.675781"/>
      <use xlink:href="#DejaVuSans-57" x="1212.955078"/>
     </g>
    </g>
   </g>
   <g id="patch_163">
    <path d="M 57.6 307.584 
L 57.6 41.472 
" style="fill: none; stroke: #000000; stroke-width: 0.8; stroke-linejoin: miter; stroke-linecap: square"/>
   </g>
   <g id="patch_164">
    <path d="M 414.72 307.584 
L 414.72 41.472 
" style="fill: none; stroke: #000000; stroke-width: 0.8; stroke-linejoin: miter; stroke-linecap: square"/>
   </g>
   <g id="patch_165">
    <path d="M 57.6 307.584 
L 414.72 307.584 
" style="fill: none; stroke: #000000; stroke-width: 0.8; stroke-linejoin: miter; stroke-linecap: square"/>
   </g>
   <g id="patch_166">
    <path d="M 57.6 41.472 
L 414.72 41.472 
" style="fill: none; stroke: #000000; stroke-width: 0.8; stroke-linejoin: miter; stroke-linecap: square"/>
   </g>
   <g id="legend_1">
    <g id="patch_167">
     <path d="M 125.648437 298.584 
L 402.12 298.584 
Q 405.72 298.584 405.72 294.984 
L 405.72 85.419 
Q 405.72 81.819 402.12 81.819 
L 125.648437 81.819 
Q 122.048437 81.819 122.048437 85.419 
L 122.048437 294.984 
Q 122.048437 298.584 125.648437 298.584 
z
" style="fill: #ffffff; opacity: 0.8; stroke: #cccccc; stroke-linejoin: miter"/>
    </g>
    <g id="patch_168">
     <path d="M 129.248437 102.696188 
L 165.248437 102.696188 
L 165.248437 90.096188 
L 129.248437 90.096188 
z
" style="fill: #1f77b4"/>
    </g>
    <g id="text_13">
     <!-- Gas cooler -->
     <g transform="translate(179.648438 102.696188) scale(0.18 -0.18)">
      <defs>
       <path id="DejaVuSans-47" d="M 3809 666 
L 3809 1919 
L 2778 1919 
L 2778 2438 
L 4434 2438 
L 4434 434 
Q 4069 175 3628 42 
Q 3188 -91 2688 -91 
Q 1594 -91 976 548 
Q 359 1188 359 2328 
Q 359 3472 976 4111 
Q 1594 4750 2688 4750 
Q 3144 4750 3555 4637 
Q 3966 4525 4313 4306 
L 4313 3634 
Q 3963 3931 3569 4081 
Q 3175 4231 2741 4231 
Q 1884 4231 1454 3753 
Q 1025 3275 1025 2328 
Q 1025 1384 1454 906 
Q 1884 428 2741 428 
Q 3075 428 3337 486 
Q 3600 544 3809 666 
z
" transform="scale(0.015625)"/>
       <path id="DejaVuSans-6c" d="M 603 4863 
L 1178 4863 
L 1178 0 
L 603 0 
L 603 4863 
z
" transform="scale(0.015625)"/>
      </defs>
      <use xlink:href="#DejaVuSans-47"/>
      <use xlink:href="#DejaVuSans-61" x="77.490234"/>
      <use xlink:href="#DejaVuSans-73" x="138.769531"/>
      <use xlink:href="#DejaVuSans-20" x="190.869141"/>
      <use xlink:href="#DejaVuSans-63" x="222.65625"/>
      <use xlink:href="#DejaVuSans-6f" x="277.636719"/>
      <use xlink:href="#DejaVuSans-6f" x="338.818359"/>
      <use xlink:href="#DejaVuSans-6c" x="400"/>
      <use xlink:href="#DejaVuSans-65" x="427.783203"/>
      <use xlink:href="#DejaVuSans-72" x="489.306641"/>
     </g>
    </g>
    <g id="patch_169">
     <path d="M 129.248437 129.116813 
L 165.248437 129.116813 
L 165.248437 116.516813 
L 129.248437 116.516813 
z
" style="fill: #ff7f0e"/>
    </g>
    <g id="text_14">
     <!-- Evaporator -->
     <g transform="translate(179.648438 129.116813) scale(0.18 -0.18)">
      <defs>
       <path id="DejaVuSans-70" d="M 1159 525 
L 1159 -1331 
L 581 -1331 
L 581 3500 
L 1159 3500 
L 1159 2969 
Q 1341 3281 1617 3432 
Q 1894 3584 2278 3584 
Q 2916 3584 3314 3078 
Q 3713 2572 3713 1747 
Q 3713 922 3314 415 
Q 2916 -91 2278 -91 
Q 1894 -91 1617 61 
Q 1341 213 1159 525 
z
M 3116 1747 
Q 3116 2381 2855 2742 
Q 2594 3103 2138 3103 
Q 1681 3103 1420 2742 
Q 1159 2381 1159 1747 
Q 1159 1113 1420 752 
Q 1681 391 2138 391 
Q 2594 391 2855 752 
Q 3116 1113 3116 1747 
z
" transform="scale(0.015625)"/>
      </defs>
      <use xlink:href="#DejaVuSans-45"/>
      <use xlink:href="#DejaVuSans-76" x="63.183594"/>
      <use xlink:href="#DejaVuSans-61" x="122.363281"/>
      <use xlink:href="#DejaVuSans-70" x="183.642578"/>
      <use xlink:href="#DejaVuSans-6f" x="247.119141"/>
      <use xlink:href="#DejaVuSans-72" x="308.300781"/>
      <use xlink:href="#DejaVuSans-61" x="349.414062"/>
      <use xlink:href="#DejaVuSans-74" x="410.693359"/>
      <use xlink:href="#DejaVuSans-6f" x="449.902344"/>
      <use xlink:href="#DejaVuSans-72" x="511.083984"/>
     </g>
    </g>
    <g id="patch_170">
     <path d="M 129.248437 155.537437 
L 165.248437 155.537437 
L 165.248437 142.937437 
L 129.248437 142.937437 
z
" style="fill: #2ca02c"/>
    </g>
    <g id="text_15">
     <!-- Valve 1 -->
     <g transform="translate(179.648438 155.537437) scale(0.18 -0.18)">
      <defs>
       <path id="DejaVuSans-56" d="M 1831 0 
L 50 4666 
L 709 4666 
L 2188 738 
L 3669 4666 
L 4325 4666 
L 2547 0 
L 1831 0 
z
" transform="scale(0.015625)"/>
      </defs>
      <use xlink:href="#DejaVuSans-56"/>
      <use xlink:href="#DejaVuSans-61" x="60.658203"/>
      <use xlink:href="#DejaVuSans-6c" x="121.9375"/>
      <use xlink:href="#DejaVuSans-76" x="149.720703"/>
      <use xlink:href="#DejaVuSans-65" x="208.900391"/>
      <use xlink:href="#DejaVuSans-20" x="270.423828"/>
      <use xlink:href="#DejaVuSans-31" x="302.210938"/>
     </g>
    </g>
    <g id="patch_171">
     <path d="M 129.248437 181.958062 
L 165.248437 181.958062 
L 165.248437 169.358062 
L 129.248437 169.358062 
z
" style="fill: #d62728"/>
    </g>
    <g id="text_16">
     <!-- Valve 2 -->
     <g transform="translate(179.648438 181.958062) scale(0.18 -0.18)">
      <use xlink:href="#DejaVuSans-56"/>
      <use xlink:href="#DejaVuSans-61" x="60.658203"/>
      <use xlink:href="#DejaVuSans-6c" x="121.9375"/>
      <use xlink:href="#DejaVuSans-76" x="149.720703"/>
      <use xlink:href="#DejaVuSans-65" x="208.900391"/>
      <use xlink:href="#DejaVuSans-20" x="270.423828"/>
      <use xlink:href="#DejaVuSans-32" x="302.210938"/>
     </g>
    </g>
    <g id="patch_172">
     <path d="M 129.248437 208.378688 
L 165.248437 208.378688 
L 165.248437 195.778688 
L 129.248437 195.778688 
z
" style="fill: #9467bd"/>
    </g>
    <g id="text_17">
     <!-- Compressor 1 -->
     <g transform="translate(179.648438 208.378688) scale(0.18 -0.18)">
      <defs>
       <path id="DejaVuSans-43" d="M 4122 4306 
L 4122 3641 
Q 3803 3938 3442 4084 
Q 3081 4231 2675 4231 
Q 1875 4231 1450 3742 
Q 1025 3253 1025 2328 
Q 1025 1406 1450 917 
Q 1875 428 2675 428 
Q 3081 428 3442 575 
Q 3803 722 4122 1019 
L 4122 359 
Q 3791 134 3420 21 
Q 3050 -91 2638 -91 
Q 1578 -91 968 557 
Q 359 1206 359 2328 
Q 359 3453 968 4101 
Q 1578 4750 2638 4750 
Q 3056 4750 3426 4639 
Q 3797 4528 4122 4306 
z
" transform="scale(0.015625)"/>
       <path id="DejaVuSans-6d" d="M 3328 2828 
Q 3544 3216 3844 3400 
Q 4144 3584 4550 3584 
Q 5097 3584 5394 3201 
Q 5691 2819 5691 2113 
L 5691 0 
L 5113 0 
L 5113 2094 
Q 5113 2597 4934 2840 
Q 4756 3084 4391 3084 
Q 3944 3084 3684 2787 
Q 3425 2491 3425 1978 
L 3425 0 
L 2847 0 
L 2847 2094 
Q 2847 2600 2669 2842 
Q 2491 3084 2119 3084 
Q 1678 3084 1418 2786 
Q 1159 2488 1159 1978 
L 1159 0 
L 581 0 
L 581 3500 
L 1159 3500 
L 1159 2956 
Q 1356 3278 1631 3431 
Q 1906 3584 2284 3584 
Q 2666 3584 2933 3390 
Q 3200 3197 3328 2828 
z
" transform="scale(0.015625)"/>
      </defs>
      <use xlink:href="#DejaVuSans-43"/>
      <use xlink:href="#DejaVuSans-6f" x="69.824219"/>
      <use xlink:href="#DejaVuSans-6d" x="131.005859"/>
      <use xlink:href="#DejaVuSans-70" x="228.417969"/>
      <use xlink:href="#DejaVuSans-72" x="291.894531"/>
      <use xlink:href="#DejaVuSans-65" x="330.757812"/>
      <use xlink:href="#DejaVuSans-73" x="392.28125"/>
      <use xlink:href="#DejaVuSans-73" x="444.380859"/>
      <use xlink:href="#DejaVuSans-6f" x="496.480469"/>
      <use xlink:href="#DejaVuSans-72" x="557.662109"/>
      <use xlink:href="#DejaVuSans-20" x="598.775391"/>
      <use xlink:href="#DejaVuSans-31" x="630.5625"/>
     </g>
    </g>
    <g id="patch_173">
     <path d="M 129.248437 234.799312 
L 165.248437 234.799312 
L 165.248437 222.199312 
L 129.248437 222.199312 
z
" style="fill: #8c564b"/>
    </g>
    <g id="text_18">
     <!-- Compressor 2 -->
     <g transform="translate(179.648438 234.799312) scale(0.18 -0.18)">
      <use xlink:href="#DejaVuSans-43"/>
      <use xlink:href="#DejaVuSans-6f" x="69.824219"/>
      <use xlink:href="#DejaVuSans-6d" x="131.005859"/>
      <use xlink:href="#DejaVuSans-70" x="228.417969"/>
      <use xlink:href="#DejaVuSans-72" x="291.894531"/>
      <use xlink:href="#DejaVuSans-65" x="330.757812"/>
      <use xlink:href="#DejaVuSans-73" x="392.28125"/>
      <use xlink:href="#DejaVuSans-73" x="444.380859"/>
      <use xlink:href="#DejaVuSans-6f" x="496.480469"/>
      <use xlink:href="#DejaVuSans-72" x="557.662109"/>
      <use xlink:href="#DejaVuSans-20" x="598.775391"/>
      <use xlink:href="#DejaVuSans-32" x="630.5625"/>
     </g>
    </g>
    <g id="patch_174">
     <path d="M 129.248437 261.219938 
L 165.248437 261.219938 
L 165.248437 248.619938 
L 129.248437 248.619938 
z
" style="fill: #e377c2"/>
    </g>
    <g id="text_19">
     <!-- Internal Heat Exchanger -->
     <g transform="translate(179.648438 261.219938) scale(0.18 -0.18)">
      <defs>
       <path id="DejaVuSans-49" d="M 628 4666 
L 1259 4666 
L 1259 0 
L 628 0 
L 628 4666 
z
" transform="scale(0.015625)"/>
       <path id="DejaVuSans-48" d="M 628 4666 
L 1259 4666 
L 1259 2753 
L 3553 2753 
L 3553 4666 
L 4184 4666 
L 4184 0 
L 3553 0 
L 3553 2222 
L 1259 2222 
L 1259 0 
L 628 0 
L 628 4666 
z
" transform="scale(0.015625)"/>
      </defs>
      <use xlink:href="#DejaVuSans-49"/>
      <use xlink:href="#DejaVuSans-6e" x="29.492188"/>
      <use xlink:href="#DejaVuSans-74" x="92.871094"/>
      <use xlink:href="#DejaVuSans-65" x="132.080078"/>
      <use xlink:href="#DejaVuSans-72" x="193.603516"/>
      <use xlink:href="#DejaVuSans-6e" x="232.966797"/>
      <use xlink:href="#DejaVuSans-61" x="296.345703"/>
      <use xlink:href="#DejaVuSans-6c" x="357.625"/>
      <use xlink:href="#DejaVuSans-20" x="385.408203"/>
      <use xlink:href="#DejaVuSans-48" x="417.195312"/>
      <use xlink:href="#DejaVuSans-65" x="492.390625"/>
      <use xlink:href="#DejaVuSans-61" x="553.914062"/>
      <use xlink:href="#DejaVuSans-74" x="615.193359"/>
      <use xlink:href="#DejaVuSans-20" x="654.402344"/>
      <use xlink:href="#DejaVuSans-45" x="686.189453"/>
      <use xlink:href="#DejaVuSans-78" x="749.373047"/>
      <use xlink:href="#DejaVuSans-63" x="806.802734"/>
      <use xlink:href="#DejaVuSans-68" x="861.783203"/>
      <use xlink:href="#DejaVuSans-61" x="925.162109"/>
      <use xlink:href="#DejaVuSans-6e" x="986.441406"/>
      <use xlink:href="#DejaVuSans-67" x="1049.820312"/>
      <use xlink:href="#DejaVuSans-65" x="1113.296875"/>
      <use xlink:href="#DejaVuSans-72" x="1174.820312"/>
     </g>
    </g>
    <g id="patch_175">
     <path d="M 129.248437 287.640562 
L 165.248437 287.640562 
L 165.248437 275.040562 
L 129.248437 275.040562 
z
" style="fill: #7f7f7f"/>
    </g>
    <g id="text_20">
     <!-- Merge -->
     <g transform="translate(179.648438 287.640562) scale(0.18 -0.18)">
      <use xlink:href="#DejaVuSans-4d"/>
      <use xlink:href="#DejaVuSans-65" x="86.279297"/>
      <use xlink:href="#DejaVuSans-72" x="147.802734"/>
      <use xlink:href="#DejaVuSans-67" x="187.166016"/>
      <use xlink:href="#DejaVuSans-65" x="250.642578"/>
     </g>
    </g>
   </g>
  </g>
 </g>
 <defs>
  <clipPath id="p4d46306ce1">
   <rect x="57.6" y="41.472" width="357.12" height="266.112"/>
  </clipPath>
 </defs>
</svg>
