<?xml version="1.0" encoding="utf-8" standalone="no"?>
<!DOCTYPE svg PUBLIC "-//W3C//DTD SVG 1.1//EN"
  "http://www.w3.org/Graphics/SVG/1.1/DTD/svg11.dtd">
<svg xmlns:xlink="http://www.w3.org/1999/xlink" width="1382.4pt" height="730.8pt" viewBox="0 0 1382.4 730.8" xmlns="http://www.w3.org/2000/svg" version="1.1">
 <metadata>
  <rdf:RDF xmlns:dc="http://purl.org/dc/elements/1.1/" xmlns:cc="http://creativecommons.org/ns#" xmlns:rdf="http://www.w3.org/1999/02/22-rdf-syntax-ns#">
   <cc:Work>
    <dc:type rdf:resource="http://purl.org/dc/dcmitype/StillImage"/>
    <dc:date>2023-02-23T15:26:29.360071</dc:date>
    <dc:format>image/svg+xml</dc:format>
    <dc:creator>
     <cc:Agent>
      <dc:title>Matplotlib v3.6.1, https://matplotlib.org/</dc:title>
     </cc:Agent>
    </dc:creator>
   </cc:Work>
  </rdf:RDF>
 </metadata>
 <defs>
  <style type="text/css">*{stroke-linejoin: round; stroke-linecap: butt}</style>
 </defs>
 <g id="figure_1">
  <g id="patch_1">
   <path d="M 0 730.8 
L 1382.4 730.8 
L 1382.4 0 
L 0 0 
z
" style="fill: #ffffff"/>
  </g>
  <g id="axes_1">
   <g id="patch_2">
    <path d="M 172.8 650.412 
L 1244.16 650.412 
L 1244.16 87.696 
L 172.8 87.696 
z
" style="fill: #ffffff"/>
   </g>
   <g id="patch_3">
    <path d="M 221.498182 650.412 
L 223.784481 650.412 
L 223.784481 635.189514 
L 221.498182 635.189514 
z
" clip-path="url(#p82aea611b8)" style="fill: #1f77b4"/>
   </g>
   <g id="patch_4">
    <path d="M 246.412985 650.412 
L 248.699285 650.412 
L 248.699285 635.187392 
L 246.412985 635.187392 
z
" clip-path="url(#p82aea611b8)" style="fill: #1f77b4"/>
   </g>
   <g id="patch_5">
    <path d="M 271.327789 650.412 
L 273.614088 650.412 
L 273.614088 635.207222 
L 271.327789 635.207222 
z
" clip-path="url(#p82aea611b8)" style="fill: #1f77b4"/>
   </g>
   <g id="patch_6">
    <path d="M 296.242592 650.412 
L 298.528892 650.412 
L 298.528892 635.242466 
L 296.242592 635.242466 
z
" clip-path="url(#p82aea611b8)" style="fill: #1f77b4"/>
   </g>
   <g id="patch_7">
    <path d="M 321.157396 650.412 
L 323.443695 650.412 
L 323.443695 635.288156 
L 321.157396 635.288156 
z
" clip-path="url(#p82aea611b8)" style="fill: #1f77b4"/>
   </g>
   <g id="patch_8">
    <path d="M 346.072199 650.412 
L 348.358499 650.412 
L 348.358499 635.34059 
L 346.072199 635.34059 
z
" clip-path="url(#p82aea611b8)" style="fill: #1f77b4"/>
   </g>
   <g id="patch_9">
    <path d="M 370.987003 650.412 
L 373.273302 650.412 
L 373.273302 635.397048 
L 370.987003 635.397048 
z
" clip-path="url(#p82aea611b8)" style="fill: #1f77b4"/>
   </g>
   <g id="patch_10">
    <path d="M 395.901806 650.412 
L 398.188106 650.412 
L 398.188106 635.455564 
L 395.901806 635.455564 
z
" clip-path="url(#p82aea611b8)" style="fill: #1f77b4"/>
   </g>
   <g id="patch_11">
    <path d="M 420.81661 650.412 
L 423.102909 650.412 
L 423.102909 635.514734 
L 420.81661 635.514734 
z
" clip-path="url(#p82aea611b8)" style="fill: #1f77b4"/>
   </g>
   <g id="patch_12">
    <path d="M 445.731413 650.412 
L 448.017713 650.412 
L 448.017713 635.573576 
L 445.731413 635.573576 
z
" clip-path="url(#p82aea611b8)" style="fill: #1f77b4"/>
   </g>
   <g id="patch_13">
    <path d="M 470.646217 650.412 
L 472.932516 650.412 
L 472.932516 635.63142 
L 470.646217 635.63142 
z
" clip-path="url(#p82aea611b8)" style="fill: #1f77b4"/>
   </g>
   <g id="patch_14">
    <path d="M 495.56102 650.412 
L 497.84732 650.412 
L 497.84732 635.687822 
L 495.56102 635.687822 
z
" clip-path="url(#p82aea611b8)" style="fill: #1f77b4"/>
   </g>
   <g id="patch_15">
    <path d="M 520.475824 650.412 
L 522.762124 650.412 
L 522.762124 635.742504 
L 520.475824 635.742504 
z
" clip-path="url(#p82aea611b8)" style="fill: #1f77b4"/>
   </g>
   <g id="patch_16">
    <path d="M 545.390627 650.412 
L 547.676927 650.412 
L 547.676927 635.795305 
L 545.390627 635.795305 
z
" clip-path="url(#p82aea611b8)" style="fill: #1f77b4"/>
   </g>
   <g id="patch_17">
    <path d="M 570.305431 650.412 
L 572.591731 650.412 
L 572.591731 635.846151 
L 570.305431 635.846151 
z
" clip-path="url(#p82aea611b8)" style="fill: #1f77b4"/>
   </g>
   <g id="patch_18">
    <path d="M 595.220234 650.412 
L 597.506534 650.412 
L 597.506534 635.895025 
L 595.220234 635.895025 
z
" clip-path="url(#p82aea611b8)" style="fill: #1f77b4"/>
   </g>
   <g id="patch_19">
    <path d="M 620.135038 650.412 
L 622.421338 650.412 
L 622.421338 635.94195 
L 620.135038 635.94195 
z
" clip-path="url(#p82aea611b8)" style="fill: #1f77b4"/>
   </g>
   <g id="patch_20">
    <path d="M 645.049841 650.412 
L 647.336141 650.412 
L 647.336141 635.986976 
L 645.049841 635.986976 
z
" clip-path="url(#p82aea611b8)" style="fill: #1f77b4"/>
   </g>
   <g id="patch_21">
    <path d="M 669.964645 650.412 
L 672.250945 650.412 
L 672.250945 636.03017 
L 669.964645 636.03017 
z
" clip-path="url(#p82aea611b8)" style="fill: #1f77b4"/>
   </g>
   <g id="patch_22">
    <path d="M 694.879448 650.412 
L 697.165748 650.412 
L 697.165748 636.071612 
L 694.879448 636.071612 
z
" clip-path="url(#p82aea611b8)" style="fill: #1f77b4"/>
   </g>
   <g id="patch_23">
    <path d="M 719.794252 650.412 
L 722.080552 650.412 
L 722.080552 636.111384 
L 719.794252 636.111384 
z
" clip-path="url(#p82aea611b8)" style="fill: #1f77b4"/>
   </g>
   <g id="patch_24">
    <path d="M 744.709055 650.412 
L 746.995355 650.412 
L 746.995355 636.149572 
L 744.709055 636.149572 
z
" clip-path="url(#p82aea611b8)" style="fill: #1f77b4"/>
   </g>
   <g id="patch_25">
    <path d="M 769.623859 650.412 
L 771.910159 650.412 
L 771.910159 636.186263 
L 769.623859 636.186263 
z
" clip-path="url(#p82aea611b8)" style="fill: #1f77b4"/>
   </g>
   <g id="patch_26">
    <path d="M 794.538662 650.412 
L 796.824962 650.412 
L 796.824962 636.221539 
L 794.538662 636.221539 
z
" clip-path="url(#p82aea611b8)" style="fill: #1f77b4"/>
   </g>
   <g id="patch_27">
    <path d="M 819.453466 650.412 
L 821.739766 650.412 
L 821.739766 636.255481 
L 819.453466 636.255481 
z
" clip-path="url(#p82aea611b8)" style="fill: #1f77b4"/>
   </g>
   <g id="patch_28">
    <path d="M 844.368269 650.412 
L 846.654569 650.412 
L 846.654569 636.288167 
L 844.368269 636.288167 
z
" clip-path="url(#p82aea611b8)" style="fill: #1f77b4"/>
   </g>
   <g id="patch_29">
    <path d="M 869.283073 650.412 
L 871.569373 650.412 
L 871.569373 636.319669 
L 869.283073 636.319669 
z
" clip-path="url(#p82aea611b8)" style="fill: #1f77b4"/>
   </g>
   <g id="patch_30">
    <path d="M 894.197876 650.412 
L 896.484176 650.412 
L 896.484176 636.350057 
L 894.197876 636.350057 
z
" clip-path="url(#p82aea611b8)" style="fill: #1f77b4"/>
   </g>
   <g id="patch_31">
    <path d="M 919.11268 650.412 
L 921.39898 650.412 
L 921.39898 636.379395 
L 919.11268 636.379395 
z
" clip-path="url(#p82aea611b8)" style="fill: #1f77b4"/>
   </g>
   <g id="patch_32">
    <path d="M 944.027484 650.412 
L 946.313783 650.412 
L 946.313783 636.407746 
L 944.027484 636.407746 
z
" clip-path="url(#p82aea611b8)" style="fill: #1f77b4"/>
   </g>
   <g id="patch_33">
    <path d="M 968.942287 650.412 
L 971.228587 650.412 
L 971.228587 636.435165 
L 968.942287 636.435165 
z
" clip-path="url(#p82aea611b8)" style="fill: #1f77b4"/>
   </g>
   <g id="patch_34">
    <path d="M 993.857091 650.412 
L 996.14339 650.412 
L 996.14339 636.461706 
L 993.857091 636.461706 
z
" clip-path="url(#p82aea611b8)" style="fill: #1f77b4"/>
   </g>
   <g id="patch_35">
    <path d="M 1018.771894 650.412 
L 1021.058194 650.412 
L 1021.058194 636.487419 
L 1018.771894 636.487419 
z
" clip-path="url(#p82aea611b8)" style="fill: #1f77b4"/>
   </g>
   <g id="patch_36">
    <path d="M 1043.686698 650.412 
L 1045.972997 650.412 
L 1045.972997 636.512351 
L 1043.686698 636.512351 
z
" clip-path="url(#p82aea611b8)" style="fill: #1f77b4"/>
   </g>
   <g id="patch_37">
    <path d="M 1068.601501 650.412 
L 1070.887801 650.412 
L 1070.887801 636.536545 
L 1068.601501 636.536545 
z
" clip-path="url(#p82aea611b8)" style="fill: #1f77b4"/>
   </g>
   <g id="patch_38">
    <path d="M 1093.516305 650.412 
L 1095.802604 650.412 
L 1095.802604 636.560041 
L 1093.516305 636.560041 
z
" clip-path="url(#p82aea611b8)" style="fill: #1f77b4"/>
   </g>
   <g id="patch_39">
    <path d="M 1118.431108 650.412 
L 1120.717408 650.412 
L 1120.717408 636.582878 
L 1118.431108 636.582878 
z
" clip-path="url(#p82aea611b8)" style="fill: #1f77b4"/>
   </g>
   <g id="patch_40">
    <path d="M 1143.345912 650.412 
L 1145.632211 650.412 
L 1145.632211 636.60509 
L 1143.345912 636.60509 
z
" clip-path="url(#p82aea611b8)" style="fill: #1f77b4"/>
   </g>
   <g id="patch_41">
    <path d="M 1168.260715 650.412 
L 1170.547015 650.412 
L 1170.547015 636.62671 
L 1168.260715 636.62671 
z
" clip-path="url(#p82aea611b8)" style="fill: #1f77b4"/>
   </g>
   <g id="patch_42">
    <path d="M 1193.175519 650.412 
L 1195.461818 650.412 
L 1195.461818 636.64777 
L 1193.175519 636.64777 
z
" clip-path="url(#p82aea611b8)" style="fill: #1f77b4"/>
   </g>
   <g id="patch_43">
    <path d="M 221.498182 635.189514 
L 223.784481 635.189514 
L 223.784481 631.129167 
L 221.498182 631.129167 
z
" clip-path="url(#p82aea611b8)" style="fill: #ff7f0e"/>
   </g>
   <g id="patch_44">
    <path d="M 246.412985 635.187392 
L 248.699285 635.187392 
L 248.699285 630.965341 
L 246.412985 630.965341 
z
" clip-path="url(#p82aea611b8)" style="fill: #ff7f0e"/>
   </g>
   <g id="patch_45">
    <path d="M 271.327789 635.207222 
L 273.614088 635.207222 
L 273.614088 630.860469 
L 271.327789 630.860469 
z
" clip-path="url(#p82aea611b8)" style="fill: #ff7f0e"/>
   </g>
   <g id="patch_46">
    <path d="M 296.242592 635.242466 
L 298.528892 635.242466 
L 298.528892 630.797439 
L 296.242592 630.797439 
z
" clip-path="url(#p82aea611b8)" style="fill: #ff7f0e"/>
   </g>
   <g id="patch_47">
    <path d="M 321.157396 635.288156 
L 323.443695 635.288156 
L 323.443695 630.764478 
L 321.157396 630.764478 
z
" clip-path="url(#p82aea611b8)" style="fill: #ff7f0e"/>
   </g>
   <g id="patch_48">
    <path d="M 346.072199 635.34059 
L 348.358499 635.34059 
L 348.358499 630.75328 
L 346.072199 630.75328 
z
" clip-path="url(#p82aea611b8)" style="fill: #ff7f0e"/>
   </g>
   <g id="patch_49">
    <path d="M 370.987003 635.397048 
L 373.273302 635.397048 
L 373.273302 630.757892 
L 370.987003 630.757892 
z
" clip-path="url(#p82aea611b8)" style="fill: #ff7f0e"/>
   </g>
   <g id="patch_50">
    <path d="M 395.901806 635.455564 
L 398.188106 635.455564 
L 398.188106 630.773998 
L 395.901806 630.773998 
z
" clip-path="url(#p82aea611b8)" style="fill: #ff7f0e"/>
   </g>
   <g id="patch_51">
    <path d="M 420.81661 635.514734 
L 423.102909 635.514734 
L 423.102909 630.798444 
L 420.81661 630.798444 
z
" clip-path="url(#p82aea611b8)" style="fill: #ff7f0e"/>
   </g>
   <g id="patch_52">
    <path d="M 445.731413 635.573576 
L 448.017713 635.573576 
L 448.017713 630.828913 
L 445.731413 630.828913 
z
" clip-path="url(#p82aea611b8)" style="fill: #ff7f0e"/>
   </g>
   <g id="patch_53">
    <path d="M 470.646217 635.63142 
L 472.932516 635.63142 
L 472.932516 630.863696 
L 470.646217 630.863696 
z
" clip-path="url(#p82aea611b8)" style="fill: #ff7f0e"/>
   </g>
   <g id="patch_54">
    <path d="M 495.56102 635.687822 
L 497.84732 635.687822 
L 497.84732 630.901528 
L 495.56102 630.901528 
z
" clip-path="url(#p82aea611b8)" style="fill: #ff7f0e"/>
   </g>
   <g id="patch_55">
    <path d="M 520.475824 635.742504 
L 522.762124 635.742504 
L 522.762124 630.941472 
L 520.475824 630.941472 
z
" clip-path="url(#p82aea611b8)" style="fill: #ff7f0e"/>
   </g>
   <g id="patch_56">
    <path d="M 545.390627 635.795305 
L 547.676927 635.795305 
L 547.676927 630.982834 
L 545.390627 630.982834 
z
" clip-path="url(#p82aea611b8)" style="fill: #ff7f0e"/>
   </g>
   <g id="patch_57">
    <path d="M 570.305431 635.846151 
L 572.591731 635.846151 
L 572.591731 631.025097 
L 570.305431 631.025097 
z
" clip-path="url(#p82aea611b8)" style="fill: #ff7f0e"/>
   </g>
   <g id="patch_58">
    <path d="M 595.220234 635.895025 
L 597.506534 635.895025 
L 597.506534 631.06788 
L 595.220234 631.06788 
z
" clip-path="url(#p82aea611b8)" style="fill: #ff7f0e"/>
   </g>
   <g id="patch_59">
    <path d="M 620.135038 635.94195 
L 622.421338 635.94195 
L 622.421338 631.1109 
L 620.135038 631.1109 
z
" clip-path="url(#p82aea611b8)" style="fill: #ff7f0e"/>
   </g>
   <g id="patch_60">
    <path d="M 645.049841 635.986976 
L 647.336141 635.986976 
L 647.336141 631.153947 
L 645.049841 631.153947 
z
" clip-path="url(#p82aea611b8)" style="fill: #ff7f0e"/>
   </g>
   <g id="patch_61">
    <path d="M 669.964645 636.03017 
L 672.250945 636.03017 
L 672.250945 631.196869 
L 669.964645 631.196869 
z
" clip-path="url(#p82aea611b8)" style="fill: #ff7f0e"/>
   </g>
   <g id="patch_62">
    <path d="M 694.879448 636.071612 
L 697.165748 636.071612 
L 697.165748 631.239557 
L 694.879448 631.239557 
z
" clip-path="url(#p82aea611b8)" style="fill: #ff7f0e"/>
   </g>
   <g id="patch_63">
    <path d="M 719.794252 636.111384 
L 722.080552 636.111384 
L 722.080552 631.281929 
L 719.794252 631.281929 
z
" clip-path="url(#p82aea611b8)" style="fill: #ff7f0e"/>
   </g>
   <g id="patch_64">
    <path d="M 744.709055 636.149572 
L 746.995355 636.149572 
L 746.995355 631.323932 
L 744.709055 631.323932 
z
" clip-path="url(#p82aea611b8)" style="fill: #ff7f0e"/>
   </g>
   <g id="patch_65">
    <path d="M 769.623859 636.186263 
L 771.910159 636.186263 
L 771.910159 631.365527 
L 769.623859 631.365527 
z
" clip-path="url(#p82aea611b8)" style="fill: #ff7f0e"/>
   </g>
   <g id="patch_66">
    <path d="M 794.538662 636.221539 
L 796.824962 636.221539 
L 796.824962 631.40669 
L 794.538662 631.40669 
z
" clip-path="url(#p82aea611b8)" style="fill: #ff7f0e"/>
   </g>
   <g id="patch_67">
    <path d="M 819.453466 636.255481 
L 821.739766 636.255481 
L 821.739766 631.447406 
L 819.453466 631.447406 
z
" clip-path="url(#p82aea611b8)" style="fill: #ff7f0e"/>
   </g>
   <g id="patch_68">
    <path d="M 844.368269 636.288167 
L 846.654569 636.288167 
L 846.654569 631.48767 
L 844.368269 631.48767 
z
" clip-path="url(#p82aea611b8)" style="fill: #ff7f0e"/>
   </g>
   <g id="patch_69">
    <path d="M 869.283073 636.319669 
L 871.569373 636.319669 
L 871.569373 631.527479 
L 869.283073 631.527479 
z
" clip-path="url(#p82aea611b8)" style="fill: #ff7f0e"/>
   </g>
   <g id="patch_70">
    <path d="M 894.197876 636.350057 
L 896.484176 636.350057 
L 896.484176 631.566837 
L 894.197876 631.566837 
z
" clip-path="url(#p82aea611b8)" style="fill: #ff7f0e"/>
   </g>
   <g id="patch_71">
    <path d="M 919.11268 636.379395 
L 921.39898 636.379395 
L 921.39898 631.605749 
L 919.11268 631.605749 
z
" clip-path="url(#p82aea611b8)" style="fill: #ff7f0e"/>
   </g>
   <g id="patch_72">
    <path d="M 944.027484 636.407746 
L 946.313783 636.407746 
L 946.313783 631.644224 
L 944.027484 631.644224 
z
" clip-path="url(#p82aea611b8)" style="fill: #ff7f0e"/>
   </g>
   <g id="patch_73">
    <path d="M 968.942287 636.435165 
L 971.228587 636.435165 
L 971.228587 631.68227 
L 968.942287 631.68227 
z
" clip-path="url(#p82aea611b8)" style="fill: #ff7f0e"/>
   </g>
   <g id="patch_74">
    <path d="M 993.857091 636.461706 
L 996.14339 636.461706 
L 996.14339 631.719899 
L 993.857091 631.719899 
z
" clip-path="url(#p82aea611b8)" style="fill: #ff7f0e"/>
   </g>
   <g id="patch_75">
    <path d="M 1018.771894 636.487419 
L 1021.058194 636.487419 
L 1021.058194 631.757121 
L 1018.771894 631.757121 
z
" clip-path="url(#p82aea611b8)" style="fill: #ff7f0e"/>
   </g>
   <g id="patch_76">
    <path d="M 1043.686698 636.512351 
L 1045.972997 636.512351 
L 1045.972997 631.793948 
L 1043.686698 631.793948 
z
" clip-path="url(#p82aea611b8)" style="fill: #ff7f0e"/>
   </g>
   <g id="patch_77">
    <path d="M 1068.601501 636.536545 
L 1070.887801 636.536545 
L 1070.887801 631.830391 
L 1068.601501 631.830391 
z
" clip-path="url(#p82aea611b8)" style="fill: #ff7f0e"/>
   </g>
   <g id="patch_78">
    <path d="M 1093.516305 636.560041 
L 1095.802604 636.560041 
L 1095.802604 631.866462 
L 1093.516305 631.866462 
z
" clip-path="url(#p82aea611b8)" style="fill: #ff7f0e"/>
   </g>
   <g id="patch_79">
    <path d="M 1118.431108 636.582878 
L 1120.717408 636.582878 
L 1120.717408 631.902171 
L 1118.431108 631.902171 
z
" clip-path="url(#p82aea611b8)" style="fill: #ff7f0e"/>
   </g>
   <g id="patch_80">
    <path d="M 1143.345912 636.60509 
L 1145.632211 636.60509 
L 1145.632211 631.937531 
L 1143.345912 631.937531 
z
" clip-path="url(#p82aea611b8)" style="fill: #ff7f0e"/>
   </g>
   <g id="patch_81">
    <path d="M 1168.260715 636.62671 
L 1170.547015 636.62671 
L 1170.547015 631.972552 
L 1168.260715 631.972552 
z
" clip-path="url(#p82aea611b8)" style="fill: #ff7f0e"/>
   </g>
   <g id="patch_82">
    <path d="M 1193.175519 636.64777 
L 1195.461818 636.64777 
L 1195.461818 632.007244 
L 1193.175519 632.007244 
z
" clip-path="url(#p82aea611b8)" style="fill: #ff7f0e"/>
   </g>
   <g id="patch_83">
    <path d="M 221.498182 631.129167 
L 223.784481 631.129167 
L 223.784481 285.47854 
L 221.498182 285.47854 
z
" clip-path="url(#p82aea611b8)" style="fill: #2ca02c"/>
   </g>
   <g id="patch_84">
    <path d="M 246.412985 630.965341 
L 248.699285 630.965341 
L 248.699285 296.446537 
L 246.412985 296.446537 
z
" clip-path="url(#p82aea611b8)" style="fill: #2ca02c"/>
   </g>
   <g id="patch_85">
    <path d="M 271.327789 630.860469 
L 273.614088 630.860469 
L 273.614088 305.093734 
L 271.327789 305.093734 
z
" clip-path="url(#p82aea611b8)" style="fill: #2ca02c"/>
   </g>
   <g id="patch_86">
    <path d="M 296.242592 630.797439 
L 298.528892 630.797439 
L 298.528892 312.067196 
L 296.242592 312.067196 
z
" clip-path="url(#p82aea611b8)" style="fill: #2ca02c"/>
   </g>
   <g id="patch_87">
    <path d="M 321.157396 630.764478 
L 323.443695 630.764478 
L 323.443695 317.785784 
L 321.157396 317.785784 
z
" clip-path="url(#p82aea611b8)" style="fill: #2ca02c"/>
   </g>
   <g id="patch_88">
    <path d="M 346.072199 630.75328 
L 348.358499 630.75328 
L 348.358499 322.534388 
L 346.072199 322.534388 
z
" clip-path="url(#p82aea611b8)" style="fill: #2ca02c"/>
   </g>
   <g id="patch_89">
    <path d="M 370.987003 630.757892 
L 373.273302 630.757892 
L 373.273302 326.514609 
L 370.987003 326.514609 
z
" clip-path="url(#p82aea611b8)" style="fill: #2ca02c"/>
   </g>
   <g id="patch_90">
    <path d="M 395.901806 630.773998 
L 398.188106 630.773998 
L 398.188106 329.873814 
L 395.901806 329.873814 
z
" clip-path="url(#p82aea611b8)" style="fill: #2ca02c"/>
   </g>
   <g id="patch_91">
    <path d="M 420.81661 630.798444 
L 423.102909 630.798444 
L 423.102909 332.722659 
L 420.81661 332.722659 
z
" clip-path="url(#p82aea611b8)" style="fill: #2ca02c"/>
   </g>
   <g id="patch_92">
    <path d="M 445.731413 630.828913 
L 448.017713 630.828913 
L 448.017713 335.146149 
L 445.731413 335.146149 
z
" clip-path="url(#p82aea611b8)" style="fill: #2ca02c"/>
   </g>
   <g id="patch_93">
    <path d="M 470.646217 630.863696 
L 472.932516 630.863696 
L 472.932516 337.210856 
L 470.646217 337.210856 
z
" clip-path="url(#p82aea611b8)" style="fill: #2ca02c"/>
   </g>
   <g id="patch_94">
    <path d="M 495.56102 630.901528 
L 497.84732 630.901528 
L 497.84732 338.96979 
L 495.56102 338.96979 
z
" clip-path="url(#p82aea611b8)" style="fill: #2ca02c"/>
   </g>
   <g id="patch_95">
    <path d="M 520.475824 630.941472 
L 522.762124 630.941472 
L 522.762124 340.465778 
L 520.475824 340.465778 
z
" clip-path="url(#p82aea611b8)" style="fill: #2ca02c"/>
   </g>
   <g id="patch_96">
    <path d="M 545.390627 630.982834 
L 547.676927 630.982834 
L 547.676927 341.73386 
L 545.390627 341.73386 
z
" clip-path="url(#p82aea611b8)" style="fill: #2ca02c"/>
   </g>
   <g id="patch_97">
    <path d="M 570.305431 631.025097 
L 572.591731 631.025097 
L 572.591731 342.803026 
L 570.305431 342.803026 
z
" clip-path="url(#p82aea611b8)" style="fill: #2ca02c"/>
   </g>
   <g id="patch_98">
    <path d="M 595.220234 631.06788 
L 597.506534 631.06788 
L 597.506534 343.6975 
L 595.220234 343.6975 
z
" clip-path="url(#p82aea611b8)" style="fill: #2ca02c"/>
   </g>
   <g id="patch_99">
    <path d="M 620.135038 631.1109 
L 622.421338 631.1109 
L 622.421338 344.437704 
L 620.135038 344.437704 
z
" clip-path="url(#p82aea611b8)" style="fill: #2ca02c"/>
   </g>
   <g id="patch_100">
    <path d="M 645.049841 631.153947 
L 647.336141 631.153947 
L 647.336141 345.040991 
L 645.049841 345.040991 
z
" clip-path="url(#p82aea611b8)" style="fill: #2ca02c"/>
   </g>
   <g id="patch_101">
    <path d="M 669.964645 631.196869 
L 672.250945 631.196869 
L 672.250945 345.522213 
L 669.964645 345.522213 
z
" clip-path="url(#p82aea611b8)" style="fill: #2ca02c"/>
   </g>
   <g id="patch_102">
    <path d="M 694.879448 631.239557 
L 697.165748 631.239557 
L 697.165748 345.894167 
L 694.879448 345.894167 
z
" clip-path="url(#p82aea611b8)" style="fill: #2ca02c"/>
   </g>
   <g id="patch_103">
    <path d="M 719.794252 631.281929 
L 722.080552 631.281929 
L 722.080552 346.167941 
L 719.794252 346.167941 
z
" clip-path="url(#p82aea611b8)" style="fill: #2ca02c"/>
   </g>
   <g id="patch_104">
    <path d="M 744.709055 631.323932 
L 746.995355 631.323932 
L 746.995355 346.353199 
L 744.709055 346.353199 
z
" clip-path="url(#p82aea611b8)" style="fill: #2ca02c"/>
   </g>
   <g id="patch_105">
    <path d="M 769.623859 631.365527 
L 771.910159 631.365527 
L 771.910159 346.458404 
L 769.623859 346.458404 
z
" clip-path="url(#p82aea611b8)" style="fill: #2ca02c"/>
   </g>
   <g id="patch_106">
    <path d="M 794.538662 631.40669 
L 796.824962 631.40669 
L 796.824962 346.491003 
L 794.538662 346.491003 
z
" clip-path="url(#p82aea611b8)" style="fill: #2ca02c"/>
   </g>
   <g id="patch_107">
    <path d="M 819.453466 631.447406 
L 821.739766 631.447406 
L 821.739766 346.457575 
L 819.453466 346.457575 
z
" clip-path="url(#p82aea611b8)" style="fill: #2ca02c"/>
   </g>
   <g id="patch_108">
    <path d="M 844.368269 631.48767 
L 846.654569 631.48767 
L 846.654569 346.363957 
L 844.368269 346.363957 
z
" clip-path="url(#p82aea611b8)" style="fill: #2ca02c"/>
   </g>
   <g id="patch_109">
    <path d="M 869.283073 631.527479 
L 871.569373 631.527479 
L 871.569373 346.215349 
L 869.283073 346.215349 
z
" clip-path="url(#p82aea611b8)" style="fill: #2ca02c"/>
   </g>
   <g id="patch_110">
    <path d="M 894.197876 631.566837 
L 896.484176 631.566837 
L 896.484176 346.016395 
L 894.197876 346.016395 
z
" clip-path="url(#p82aea611b8)" style="fill: #2ca02c"/>
   </g>
   <g id="patch_111">
    <path d="M 919.11268 631.605749 
L 921.39898 631.605749 
L 921.39898 345.771259 
L 919.11268 345.771259 
z
" clip-path="url(#p82aea611b8)" style="fill: #2ca02c"/>
   </g>
   <g id="patch_112">
    <path d="M 944.027484 631.644224 
L 946.313783 631.644224 
L 946.313783 345.483686 
L 944.027484 345.483686 
z
" clip-path="url(#p82aea611b8)" style="fill: #2ca02c"/>
   </g>
   <g id="patch_113">
    <path d="M 968.942287 631.68227 
L 971.228587 631.68227 
L 971.228587 345.157052 
L 968.942287 345.157052 
z
" clip-path="url(#p82aea611b8)" style="fill: #2ca02c"/>
   </g>
   <g id="patch_114">
    <path d="M 993.857091 631.719899 
L 996.14339 631.719899 
L 996.14339 344.79441 
L 993.857091 344.79441 
z
" clip-path="url(#p82aea611b8)" style="fill: #2ca02c"/>
   </g>
   <g id="patch_115">
    <path d="M 1018.771894 631.757121 
L 1021.058194 631.757121 
L 1021.058194 344.398527 
L 1018.771894 344.398527 
z
" clip-path="url(#p82aea611b8)" style="fill: #2ca02c"/>
   </g>
   <g id="patch_116">
    <path d="M 1043.686698 631.793948 
L 1045.972997 631.793948 
L 1045.972997 343.971919 
L 1043.686698 343.971919 
z
" clip-path="url(#p82aea611b8)" style="fill: #2ca02c"/>
   </g>
   <g id="patch_117">
    <path d="M 1068.601501 631.830391 
L 1070.887801 631.830391 
L 1070.887801 343.516874 
L 1068.601501 343.516874 
z
" clip-path="url(#p82aea611b8)" style="fill: #2ca02c"/>
   </g>
   <g id="patch_118">
    <path d="M 1093.516305 631.866462 
L 1095.802604 631.866462 
L 1095.802604 343.035482 
L 1093.516305 343.035482 
z
" clip-path="url(#p82aea611b8)" style="fill: #2ca02c"/>
   </g>
   <g id="patch_119">
    <path d="M 1118.431108 631.902171 
L 1120.717408 631.902171 
L 1120.717408 342.529656 
L 1118.431108 342.529656 
z
" clip-path="url(#p82aea611b8)" style="fill: #2ca02c"/>
   </g>
   <g id="patch_120">
    <path d="M 1143.345912 631.937531 
L 1145.632211 631.937531 
L 1145.632211 342.001145 
L 1143.345912 342.001145 
z
" clip-path="url(#p82aea611b8)" style="fill: #2ca02c"/>
   </g>
   <g id="patch_121">
    <path d="M 1168.260715 631.972552 
L 1170.547015 631.972552 
L 1170.547015 341.451557 
L 1168.260715 341.451557 
z
" clip-path="url(#p82aea611b8)" style="fill: #2ca02c"/>
   </g>
   <g id="patch_122">
    <path d="M 1193.175519 632.007244 
L 1195.461818 632.007244 
L 1195.461818 340.88237 
L 1193.175519 340.88237 
z
" clip-path="url(#p82aea611b8)" style="fill: #2ca02c"/>
   </g>
   <g id="patch_123">
    <path d="M 221.498182 285.47854 
L 223.784481 285.47854 
L 223.784481 114.492 
L 221.498182 114.492 
z
" clip-path="url(#p82aea611b8)" style="fill: #d62728"/>
   </g>
   <g id="patch_124">
    <path d="M 246.412985 296.446537 
L 248.699285 296.446537 
L 248.699285 129.211097 
L 246.412985 129.211097 
z
" clip-path="url(#p82aea611b8)" style="fill: #d62728"/>
   </g>
   <g id="patch_125">
    <path d="M 271.327789 305.093734 
L 273.614088 305.093734 
L 273.614088 140.823213 
L 271.327789 140.823213 
z
" clip-path="url(#p82aea611b8)" style="fill: #d62728"/>
   </g>
   <g id="patch_126">
    <path d="M 296.242592 312.067196 
L 298.528892 312.067196 
L 298.528892 150.194468 
L 296.242592 150.194468 
z
" clip-path="url(#p82aea611b8)" style="fill: #d62728"/>
   </g>
   <g id="patch_127">
    <path d="M 321.157396 317.785784 
L 323.443695 317.785784 
L 323.443695 157.885777 
L 321.157396 157.885777 
z
" clip-path="url(#p82aea611b8)" style="fill: #d62728"/>
   </g>
   <g id="patch_128">
    <path d="M 346.072199 322.534388 
L 348.358499 322.534388 
L 348.358499 164.27879 
L 346.072199 164.27879 
z
" clip-path="url(#p82aea611b8)" style="fill: #d62728"/>
   </g>
   <g id="patch_129">
    <path d="M 370.987003 326.514609 
L 373.273302 326.514609 
L 373.273302 169.643657 
L 370.987003 169.643657 
z
" clip-path="url(#p82aea611b8)" style="fill: #d62728"/>
   </g>
   <g id="patch_130">
    <path d="M 395.901806 329.873814 
L 398.188106 329.873814 
L 398.188106 174.177885 
L 395.901806 174.177885 
z
" clip-path="url(#p82aea611b8)" style="fill: #d62728"/>
   </g>
   <g id="patch_131">
    <path d="M 420.81661 332.722659 
L 423.102909 332.722659 
L 423.102909 178.029793 
L 420.81661 178.029793 
z
" clip-path="url(#p82aea611b8)" style="fill: #d62728"/>
   </g>
   <g id="patch_132">
    <path d="M 445.731413 335.146149 
L 448.017713 335.146149 
L 448.017713 181.313315 
L 445.731413 181.313315 
z
" clip-path="url(#p82aea611b8)" style="fill: #d62728"/>
   </g>
   <g id="patch_133">
    <path d="M 470.646217 337.210856 
L 472.932516 337.210856 
L 472.932516 184.117666 
L 470.646217 184.117666 
z
" clip-path="url(#p82aea611b8)" style="fill: #d62728"/>
   </g>
   <g id="patch_134">
    <path d="M 495.56102 338.96979 
L 497.84732 338.96979 
L 497.84732 186.513874 
L 495.56102 186.513874 
z
" clip-path="url(#p82aea611b8)" style="fill: #d62728"/>
   </g>
   <g id="patch_135">
    <path d="M 520.475824 340.465778 
L 522.762124 340.465778 
L 522.762124 188.559305 
L 520.475824 188.559305 
z
" clip-path="url(#p82aea611b8)" style="fill: #d62728"/>
   </g>
   <g id="patch_136">
    <path d="M 545.390627 341.73386 
L 547.676927 341.73386 
L 547.676927 190.300882 
L 545.390627 190.300882 
z
" clip-path="url(#p82aea611b8)" style="fill: #d62728"/>
   </g>
   <g id="patch_137">
    <path d="M 570.305431 342.803026 
L 572.591731 342.803026 
L 572.591731 191.777411 
L 570.305431 191.777411 
z
" clip-path="url(#p82aea611b8)" style="fill: #d62728"/>
   </g>
   <g id="patch_138">
    <path d="M 595.220234 343.6975 
L 597.506534 343.6975 
L 597.506534 193.021304 
L 595.220234 193.021304 
z
" clip-path="url(#p82aea611b8)" style="fill: #d62728"/>
   </g>
   <g id="patch_139">
    <path d="M 620.135038 344.437704 
L 622.421338 344.437704 
L 622.421338 194.059874 
L 620.135038 194.059874 
z
" clip-path="url(#p82aea611b8)" style="fill: #d62728"/>
   </g>
   <g id="patch_140">
    <path d="M 645.049841 345.040991 
L 647.336141 345.040991 
L 647.336141 194.91632 
L 645.049841 194.91632 
z
" clip-path="url(#p82aea611b8)" style="fill: #d62728"/>
   </g>
   <g id="patch_141">
    <path d="M 669.964645 345.522213 
L 672.250945 345.522213 
L 672.250945 195.610489 
L 669.964645 195.610489 
z
" clip-path="url(#p82aea611b8)" style="fill: #d62728"/>
   </g>
   <g id="patch_142">
    <path d="M 694.879448 345.894167 
L 697.165748 345.894167 
L 697.165748 196.159471 
L 694.879448 196.159471 
z
" clip-path="url(#p82aea611b8)" style="fill: #d62728"/>
   </g>
   <g id="patch_143">
    <path d="M 719.794252 346.167941 
L 722.080552 346.167941 
L 722.080552 196.578071 
L 719.794252 196.578071 
z
" clip-path="url(#p82aea611b8)" style="fill: #d62728"/>
   </g>
   <g id="patch_144">
    <path d="M 744.709055 346.353199 
L 746.995355 346.353199 
L 746.995355 196.879182 
L 744.709055 196.879182 
z
" clip-path="url(#p82aea611b8)" style="fill: #d62728"/>
   </g>
   <g id="patch_145">
    <path d="M 769.623859 346.458404 
L 771.910159 346.458404 
L 771.910159 197.074093 
L 769.623859 197.074093 
z
" clip-path="url(#p82aea611b8)" style="fill: #d62728"/>
   </g>
   <g id="patch_146">
    <path d="M 794.538662 346.491003 
L 796.824962 346.491003 
L 796.824962 197.17273 
L 794.538662 197.17273 
z
" clip-path="url(#p82aea611b8)" style="fill: #d62728"/>
   </g>
   <g id="patch_147">
    <path d="M 819.453466 346.457575 
L 821.739766 346.457575 
L 821.739766 197.183862 
L 819.453466 197.183862 
z
" clip-path="url(#p82aea611b8)" style="fill: #d62728"/>
   </g>
   <g id="patch_148">
    <path d="M 844.368269 346.363957 
L 846.654569 346.363957 
L 846.654569 197.115263 
L 844.368269 197.115263 
z
" clip-path="url(#p82aea611b8)" style="fill: #d62728"/>
   </g>
   <g id="patch_149">
    <path d="M 869.283073 346.215349 
L 871.569373 346.215349 
L 871.569373 196.973856 
L 869.283073 196.973856 
z
" clip-path="url(#p82aea611b8)" style="fill: #d62728"/>
   </g>
   <g id="patch_150">
    <path d="M 894.197876 346.016395 
L 896.484176 346.016395 
L 896.484176 196.76582 
L 894.197876 196.76582 
z
" clip-path="url(#p82aea611b8)" style="fill: #d62728"/>
   </g>
   <g id="patch_151">
    <path d="M 919.11268 345.771259 
L 921.39898 345.771259 
L 921.39898 196.496695 
L 919.11268 196.496695 
z
" clip-path="url(#p82aea611b8)" style="fill: #d62728"/>
   </g>
   <g id="patch_152">
    <path d="M 944.027484 345.483686 
L 946.313783 345.483686 
L 946.313783 196.17146 
L 944.027484 196.17146 
z
" clip-path="url(#p82aea611b8)" style="fill: #d62728"/>
   </g>
   <g id="patch_153">
    <path d="M 968.942287 345.157052 
L 971.228587 345.157052 
L 971.228587 195.794602 
L 968.942287 195.794602 
z
" clip-path="url(#p82aea611b8)" style="fill: #d62728"/>
   </g>
   <g id="patch_154">
    <path d="M 993.857091 344.79441 
L 996.14339 344.79441 
L 996.14339 195.370177 
L 993.857091 195.370177 
z
" clip-path="url(#p82aea611b8)" style="fill: #d62728"/>
   </g>
   <g id="patch_155">
    <path d="M 1018.771894 344.398527 
L 1021.058194 344.398527 
L 1021.058194 194.901859 
L 1018.771894 194.901859 
z
" clip-path="url(#p82aea611b8)" style="fill: #d62728"/>
   </g>
   <g id="patch_156">
    <path d="M 1043.686698 343.971919 
L 1045.972997 343.971919 
L 1045.972997 194.392988 
L 1043.686698 194.392988 
z
" clip-path="url(#p82aea611b8)" style="fill: #d62728"/>
   </g>
   <g id="patch_157">
    <path d="M 1068.601501 343.516874 
L 1070.887801 343.516874 
L 1070.887801 193.846601 
L 1068.601501 193.846601 
z
" clip-path="url(#p82aea611b8)" style="fill: #d62728"/>
   </g>
   <g id="patch_158">
    <path d="M 1093.516305 343.035482 
L 1095.802604 343.035482 
L 1095.802604 193.265471 
L 1093.516305 193.265471 
z
" clip-path="url(#p82aea611b8)" style="fill: #d62728"/>
   </g>
   <g id="patch_159">
    <path d="M 1118.431108 342.529656 
L 1120.717408 342.529656 
L 1120.717408 192.652132 
L 1118.431108 192.652132 
z
" clip-path="url(#p82aea611b8)" style="fill: #d62728"/>
   </g>
   <g id="patch_160">
    <path d="M 1143.345912 342.001145 
L 1145.632211 342.001145 
L 1145.632211 192.008904 
L 1143.345912 192.008904 
z
" clip-path="url(#p82aea611b8)" style="fill: #d62728"/>
   </g>
   <g id="patch_161">
    <path d="M 1168.260715 341.451557 
L 1170.547015 341.451557 
L 1170.547015 191.337916 
L 1168.260715 191.337916 
z
" clip-path="url(#p82aea611b8)" style="fill: #d62728"/>
   </g>
   <g id="patch_162">
    <path d="M 1193.175519 340.88237 
L 1195.461818 340.88237 
L 1195.461818 190.641127 
L 1193.175519 190.641127 
z
" clip-path="url(#p82aea611b8)" style="fill: #d62728"/>
   </g>
   <g id="matplotlib.axis_1">
    <g id="xtick_1">
     <g id="line2d_1">
      <defs>
       <path id="m0cae3011bc" d="M 0 0 
L 0 3.5 
" style="stroke: #000000; stroke-width: 0.8"/>
      </defs>
      <g>
       <use xlink:href="#m0cae3011bc" x="222.641332" y="650.412" style="stroke: #000000; stroke-width: 0.8"/>
      </g>
     </g>
     <g id="text_1">
      <!-- 60 -->
      <g transform="translate(211.188832 671.089188) scale(0.18 -0.18)">
       <defs>
        <path id="DejaVuSans-36" d="M 2113 2584 
Q 1688 2584 1439 2293 
Q 1191 2003 1191 1497 
Q 1191 994 1439 701 
Q 1688 409 2113 409 
Q 2538 409 2786 701 
Q 3034 994 3034 1497 
Q 3034 2003 2786 2293 
Q 2538 2584 2113 2584 
z
M 3366 4563 
L 3366 3988 
Q 3128 4100 2886 4159 
Q 2644 4219 2406 4219 
Q 1781 4219 1451 3797 
Q 1122 3375 1075 2522 
Q 1259 2794 1537 2939 
Q 1816 3084 2150 3084 
Q 2853 3084 3261 2657 
Q 3669 2231 3669 1497 
Q 3669 778 3244 343 
Q 2819 -91 2113 -91 
Q 1303 -91 875 529 
Q 447 1150 447 2328 
Q 447 3434 972 4092 
Q 1497 4750 2381 4750 
Q 2619 4750 2861 4703 
Q 3103 4656 3366 4563 
z
" transform="scale(0.015625)"/>
        <path id="DejaVuSans-30" d="M 2034 4250 
Q 1547 4250 1301 3770 
Q 1056 3291 1056 2328 
Q 1056 1369 1301 889 
Q 1547 409 2034 409 
Q 2525 409 2770 889 
Q 3016 1369 3016 2328 
Q 3016 3291 2770 3770 
Q 2525 4250 2034 4250 
z
M 2034 4750 
Q 2819 4750 3233 4129 
Q 3647 3509 3647 2328 
Q 3647 1150 3233 529 
Q 2819 -91 2034 -91 
Q 1250 -91 836 529 
Q 422 1150 422 2328 
Q 422 3509 836 4129 
Q 1250 4750 2034 4750 
z
" transform="scale(0.015625)"/>
       </defs>
       <use xlink:href="#DejaVuSans-36"/>
       <use xlink:href="#DejaVuSans-30" x="63.623047"/>
      </g>
     </g>
    </g>
    <g id="xtick_2">
     <g id="line2d_2">
      <g>
       <use xlink:href="#m0cae3011bc" x="451.271293" y="650.412" style="stroke: #000000; stroke-width: 0.8"/>
      </g>
     </g>
     <g id="text_2">
      <!-- 80 -->
      <g transform="translate(439.818793 671.089188) scale(0.18 -0.18)">
       <defs>
        <path id="DejaVuSans-38" d="M 2034 2216 
Q 1584 2216 1326 1975 
Q 1069 1734 1069 1313 
Q 1069 891 1326 650 
Q 1584 409 2034 409 
Q 2484 409 2743 651 
Q 3003 894 3003 1313 
Q 3003 1734 2745 1975 
Q 2488 2216 2034 2216 
z
M 1403 2484 
Q 997 2584 770 2862 
Q 544 3141 544 3541 
Q 544 4100 942 4425 
Q 1341 4750 2034 4750 
Q 2731 4750 3128 4425 
Q 3525 4100 3525 3541 
Q 3525 3141 3298 2862 
Q 3072 2584 2669 2484 
Q 3125 2378 3379 2068 
Q 3634 1759 3634 1313 
Q 3634 634 3220 271 
Q 2806 -91 2034 -91 
Q 1263 -91 848 271 
Q 434 634 434 1313 
Q 434 1759 690 2068 
Q 947 2378 1403 2484 
z
M 1172 3481 
Q 1172 3119 1398 2916 
Q 1625 2713 2034 2713 
Q 2441 2713 2670 2916 
Q 2900 3119 2900 3481 
Q 2900 3844 2670 4047 
Q 2441 4250 2034 4250 
Q 1625 4250 1398 4047 
Q 1172 3844 1172 3481 
z
" transform="scale(0.015625)"/>
       </defs>
       <use xlink:href="#DejaVuSans-38"/>
       <use xlink:href="#DejaVuSans-30" x="63.623047"/>
      </g>
     </g>
    </g>
    <g id="xtick_3">
     <g id="line2d_3">
      <g>
       <use xlink:href="#m0cae3011bc" x="679.901255" y="650.412" style="stroke: #000000; stroke-width: 0.8"/>
      </g>
     </g>
     <g id="text_3">
      <!-- 100 -->
      <g transform="translate(662.722505 671.089188) scale(0.18 -0.18)">
       <defs>
        <path id="DejaVuSans-31" d="M 794 531 
L 1825 531 
L 1825 4091 
L 703 3866 
L 703 4441 
L 1819 4666 
L 2450 4666 
L 2450 531 
L 3481 531 
L 3481 0 
L 794 0 
L 794 531 
z
" transform="scale(0.015625)"/>
       </defs>
       <use xlink:href="#DejaVuSans-31"/>
       <use xlink:href="#DejaVuSans-30" x="63.623047"/>
       <use xlink:href="#DejaVuSans-30" x="127.246094"/>
      </g>
     </g>
    </g>
    <g id="xtick_4">
     <g id="line2d_4">
      <g>
       <use xlink:href="#m0cae3011bc" x="908.531216" y="650.412" style="stroke: #000000; stroke-width: 0.8"/>
      </g>
     </g>
     <g id="text_4">
      <!-- 120 -->
      <g transform="translate(891.352466 671.089188) scale(0.18 -0.18)">
       <defs>
        <path id="DejaVuSans-32" d="M 1228 531 
L 3431 531 
L 3431 0 
L 469 0 
L 469 531 
Q 828 903 1448 1529 
Q 2069 2156 2228 2338 
Q 2531 2678 2651 2914 
Q 2772 3150 2772 3378 
Q 2772 3750 2511 3984 
Q 2250 4219 1831 4219 
Q 1534 4219 1204 4116 
Q 875 4013 500 3803 
L 500 4441 
Q 881 4594 1212 4672 
Q 1544 4750 1819 4750 
Q 2544 4750 2975 4387 
Q 3406 4025 3406 3419 
Q 3406 3131 3298 2873 
Q 3191 2616 2906 2266 
Q 2828 2175 2409 1742 
Q 1991 1309 1228 531 
z
" transform="scale(0.015625)"/>
       </defs>
       <use xlink:href="#DejaVuSans-31"/>
       <use xlink:href="#DejaVuSans-32" x="63.623047"/>
       <use xlink:href="#DejaVuSans-30" x="127.246094"/>
      </g>
     </g>
    </g>
    <g id="xtick_5">
     <g id="line2d_5">
      <g>
       <use xlink:href="#m0cae3011bc" x="1137.161178" y="650.412" style="stroke: #000000; stroke-width: 0.8"/>
      </g>
     </g>
     <g id="text_5">
      <!-- 140 -->
      <g transform="translate(1119.982428 671.089188) scale(0.18 -0.18)">
       <defs>
        <path id="DejaVuSans-34" d="M 2419 4116 
L 825 1625 
L 2419 1625 
L 2419 4116 
z
M 2253 4666 
L 3047 4666 
L 3047 1625 
L 3713 1625 
L 3713 1100 
L 3047 1100 
L 3047 0 
L 2419 0 
L 2419 1100 
L 313 1100 
L 313 1709 
L 2253 4666 
z
" transform="scale(0.015625)"/>
       </defs>
       <use xlink:href="#DejaVuSans-31"/>
       <use xlink:href="#DejaVuSans-34" x="63.623047"/>
       <use xlink:href="#DejaVuSans-30" x="127.246094"/>
      </g>
     </g>
    </g>
    <g id="text_6">
     <!-- Kondensatordruck in bar -->
     <g transform="translate(597.950156 692.509813) scale(0.18 -0.18)">
      <defs>
       <path id="DejaVuSans-4b" d="M 628 4666 
L 1259 4666 
L 1259 2694 
L 3353 4666 
L 4166 4666 
L 1850 2491 
L 4331 0 
L 3500 0 
L 1259 2247 
L 1259 0 
L 628 0 
L 628 4666 
z
" transform="scale(0.015625)"/>
       <path id="DejaVuSans-6f" d="M 1959 3097 
Q 1497 3097 1228 2736 
Q 959 2375 959 1747 
Q 959 1119 1226 758 
Q 1494 397 1959 397 
Q 2419 397 2687 759 
Q 2956 1122 2956 1747 
Q 2956 2369 2687 2733 
Q 2419 3097 1959 3097 
z
M 1959 3584 
Q 2709 3584 3137 3096 
Q 3566 2609 3566 1747 
Q 3566 888 3137 398 
Q 2709 -91 1959 -91 
Q 1206 -91 779 398 
Q 353 888 353 1747 
Q 353 2609 779 3096 
Q 1206 3584 1959 3584 
z
" transform="scale(0.015625)"/>
       <path id="DejaVuSans-6e" d="M 3513 2113 
L 3513 0 
L 2938 0 
L 2938 2094 
Q 2938 2591 2744 2837 
Q 2550 3084 2163 3084 
Q 1697 3084 1428 2787 
Q 1159 2491 1159 1978 
L 1159 0 
L 581 0 
L 581 3500 
L 1159 3500 
L 1159 2956 
Q 1366 3272 1645 3428 
Q 1925 3584 2291 3584 
Q 2894 3584 3203 3211 
Q 3513 2838 3513 2113 
z
" transform="scale(0.015625)"/>
       <path id="DejaVuSans-64" d="M 2906 2969 
L 2906 4863 
L 3481 4863 
L 3481 0 
L 2906 0 
L 2906 525 
Q 2725 213 2448 61 
Q 2172 -91 1784 -91 
Q 1150 -91 751 415 
Q 353 922 353 1747 
Q 353 2572 751 3078 
Q 1150 3584 1784 3584 
Q 2172 3584 2448 3432 
Q 2725 3281 2906 2969 
z
M 947 1747 
Q 947 1113 1208 752 
Q 1469 391 1925 391 
Q 2381 391 2643 752 
Q 2906 1113 2906 1747 
Q 2906 2381 2643 2742 
Q 2381 3103 1925 3103 
Q 1469 3103 1208 2742 
Q 947 2381 947 1747 
z
" transform="scale(0.015625)"/>
       <path id="DejaVuSans-65" d="M 3597 1894 
L 3597 1613 
L 953 1613 
Q 991 1019 1311 708 
Q 1631 397 2203 397 
Q 2534 397 2845 478 
Q 3156 559 3463 722 
L 3463 178 
Q 3153 47 2828 -22 
Q 2503 -91 2169 -91 
Q 1331 -91 842 396 
Q 353 884 353 1716 
Q 353 2575 817 3079 
Q 1281 3584 2069 3584 
Q 2775 3584 3186 3129 
Q 3597 2675 3597 1894 
z
M 3022 2063 
Q 3016 2534 2758 2815 
Q 2500 3097 2075 3097 
Q 1594 3097 1305 2825 
Q 1016 2553 972 2059 
L 3022 2063 
z
" transform="scale(0.015625)"/>
       <path id="DejaVuSans-73" d="M 2834 3397 
L 2834 2853 
Q 2591 2978 2328 3040 
Q 2066 3103 1784 3103 
Q 1356 3103 1142 2972 
Q 928 2841 928 2578 
Q 928 2378 1081 2264 
Q 1234 2150 1697 2047 
L 1894 2003 
Q 2506 1872 2764 1633 
Q 3022 1394 3022 966 
Q 3022 478 2636 193 
Q 2250 -91 1575 -91 
Q 1294 -91 989 -36 
Q 684 19 347 128 
L 347 722 
Q 666 556 975 473 
Q 1284 391 1588 391 
Q 1994 391 2212 530 
Q 2431 669 2431 922 
Q 2431 1156 2273 1281 
Q 2116 1406 1581 1522 
L 1381 1569 
Q 847 1681 609 1914 
Q 372 2147 372 2553 
Q 372 3047 722 3315 
Q 1072 3584 1716 3584 
Q 2034 3584 2315 3537 
Q 2597 3491 2834 3397 
z
" transform="scale(0.015625)"/>
       <path id="DejaVuSans-61" d="M 2194 1759 
Q 1497 1759 1228 1600 
Q 959 1441 959 1056 
Q 959 750 1161 570 
Q 1363 391 1709 391 
Q 2188 391 2477 730 
Q 2766 1069 2766 1631 
L 2766 1759 
L 2194 1759 
z
M 3341 1997 
L 3341 0 
L 2766 0 
L 2766 531 
Q 2569 213 2275 61 
Q 1981 -91 1556 -91 
Q 1019 -91 701 211 
Q 384 513 384 1019 
Q 384 1609 779 1909 
Q 1175 2209 1959 2209 
L 2766 2209 
L 2766 2266 
Q 2766 2663 2505 2880 
Q 2244 3097 1772 3097 
Q 1472 3097 1187 3025 
Q 903 2953 641 2809 
L 641 3341 
Q 956 3463 1253 3523 
Q 1550 3584 1831 3584 
Q 2591 3584 2966 3190 
Q 3341 2797 3341 1997 
z
" transform="scale(0.015625)"/>
       <path id="DejaVuSans-74" d="M 1172 4494 
L 1172 3500 
L 2356 3500 
L 2356 3053 
L 1172 3053 
L 1172 1153 
Q 1172 725 1289 603 
Q 1406 481 1766 481 
L 2356 481 
L 2356 0 
L 1766 0 
Q 1100 0 847 248 
Q 594 497 594 1153 
L 594 3053 
L 172 3053 
L 172 3500 
L 594 3500 
L 594 4494 
L 1172 4494 
z
" transform="scale(0.015625)"/>
       <path id="DejaVuSans-72" d="M 2631 2963 
Q 2534 3019 2420 3045 
Q 2306 3072 2169 3072 
Q 1681 3072 1420 2755 
Q 1159 2438 1159 1844 
L 1159 0 
L 581 0 
L 581 3500 
L 1159 3500 
L 1159 2956 
Q 1341 3275 1631 3429 
Q 1922 3584 2338 3584 
Q 2397 3584 2469 3576 
Q 2541 3569 2628 3553 
L 2631 2963 
z
" transform="scale(0.015625)"/>
       <path id="DejaVuSans-75" d="M 544 1381 
L 544 3500 
L 1119 3500 
L 1119 1403 
Q 1119 906 1312 657 
Q 1506 409 1894 409 
Q 2359 409 2629 706 
Q 2900 1003 2900 1516 
L 2900 3500 
L 3475 3500 
L 3475 0 
L 2900 0 
L 2900 538 
Q 2691 219 2414 64 
Q 2138 -91 1772 -91 
Q 1169 -91 856 284 
Q 544 659 544 1381 
z
M 1991 3584 
L 1991 3584 
z
" transform="scale(0.015625)"/>
       <path id="DejaVuSans-63" d="M 3122 3366 
L 3122 2828 
Q 2878 2963 2633 3030 
Q 2388 3097 2138 3097 
Q 1578 3097 1268 2742 
Q 959 2388 959 1747 
Q 959 1106 1268 751 
Q 1578 397 2138 397 
Q 2388 397 2633 464 
Q 2878 531 3122 666 
L 3122 134 
Q 2881 22 2623 -34 
Q 2366 -91 2075 -91 
Q 1284 -91 818 406 
Q 353 903 353 1747 
Q 353 2603 823 3093 
Q 1294 3584 2113 3584 
Q 2378 3584 2631 3529 
Q 2884 3475 3122 3366 
z
" transform="scale(0.015625)"/>
       <path id="DejaVuSans-6b" d="M 581 4863 
L 1159 4863 
L 1159 1991 
L 2875 3500 
L 3609 3500 
L 1753 1863 
L 3688 0 
L 2938 0 
L 1159 1709 
L 1159 0 
L 581 0 
L 581 4863 
z
" transform="scale(0.015625)"/>
       <path id="DejaVuSans-20" transform="scale(0.015625)"/>
       <path id="DejaVuSans-69" d="M 603 3500 
L 1178 3500 
L 1178 0 
L 603 0 
L 603 3500 
z
M 603 4863 
L 1178 4863 
L 1178 4134 
L 603 4134 
L 603 4863 
z
" transform="scale(0.015625)"/>
       <path id="DejaVuSans-62" d="M 3116 1747 
Q 3116 2381 2855 2742 
Q 2594 3103 2138 3103 
Q 1681 3103 1420 2742 
Q 1159 2381 1159 1747 
Q 1159 1113 1420 752 
Q 1681 391 2138 391 
Q 2594 391 2855 752 
Q 3116 1113 3116 1747 
z
M 1159 2969 
Q 1341 3281 1617 3432 
Q 1894 3584 2278 3584 
Q 2916 3584 3314 3078 
Q 3713 2572 3713 1747 
Q 3713 922 3314 415 
Q 2916 -91 2278 -91 
Q 1894 -91 1617 61 
Q 1341 213 1159 525 
L 1159 0 
L 581 0 
L 581 4863 
L 1159 4863 
L 1159 2969 
z
" transform="scale(0.015625)"/>
      </defs>
      <use xlink:href="#DejaVuSans-4b"/>
      <use xlink:href="#DejaVuSans-6f" x="60.576172"/>
      <use xlink:href="#DejaVuSans-6e" x="121.757812"/>
      <use xlink:href="#DejaVuSans-64" x="185.136719"/>
      <use xlink:href="#DejaVuSans-65" x="248.613281"/>
      <use xlink:href="#DejaVuSans-6e" x="310.136719"/>
      <use xlink:href="#DejaVuSans-73" x="373.515625"/>
      <use xlink:href="#DejaVuSans-61" x="425.615234"/>
      <use xlink:href="#DejaVuSans-74" x="486.894531"/>
      <use xlink:href="#DejaVuSans-6f" x="526.103516"/>
      <use xlink:href="#DejaVuSans-72" x="587.285156"/>
      <use xlink:href="#DejaVuSans-64" x="626.648438"/>
      <use xlink:href="#DejaVuSans-72" x="690.125"/>
      <use xlink:href="#DejaVuSans-75" x="731.238281"/>
      <use xlink:href="#DejaVuSans-63" x="794.617188"/>
      <use xlink:href="#DejaVuSans-6b" x="849.597656"/>
      <use xlink:href="#DejaVuSans-20" x="907.507812"/>
      <use xlink:href="#DejaVuSans-69" x="939.294922"/>
      <use xlink:href="#DejaVuSans-6e" x="967.078125"/>
      <use xlink:href="#DejaVuSans-20" x="1030.457031"/>
      <use xlink:href="#DejaVuSans-62" x="1062.244141"/>
      <use xlink:href="#DejaVuSans-61" x="1125.720703"/>
      <use xlink:href="#DejaVuSans-72" x="1187"/>
     </g>
    </g>
   </g>
   <g id="matplotlib.axis_2">
    <g id="ytick_1">
     <g id="line2d_6">
      <defs>
       <path id="m15d6239621" d="M 0 0 
L -3.5 0 
" style="stroke: #000000; stroke-width: 0.8"/>
      </defs>
      <g>
       <use xlink:href="#m15d6239621" x="172.8" y="650.412" style="stroke: #000000; stroke-width: 0.8"/>
      </g>
     </g>
     <g id="text_7">
      <!-- 0.00 -->
      <g transform="translate(125.721875 657.250594) scale(0.18 -0.18)">
       <defs>
        <path id="DejaVuSans-2e" d="M 684 794 
L 1344 794 
L 1344 0 
L 684 0 
L 684 794 
z
" transform="scale(0.015625)"/>
       </defs>
       <use xlink:href="#DejaVuSans-30"/>
       <use xlink:href="#DejaVuSans-2e" x="63.623047"/>
       <use xlink:href="#DejaVuSans-30" x="95.410156"/>
       <use xlink:href="#DejaVuSans-30" x="159.033203"/>
      </g>
     </g>
    </g>
    <g id="ytick_2">
     <g id="line2d_7">
      <g>
       <use xlink:href="#m15d6239621" x="172.8" y="586.69064" style="stroke: #000000; stroke-width: 0.8"/>
      </g>
     </g>
     <g id="text_8">
      <!-- 0.05 -->
      <g transform="translate(125.721875 593.529234) scale(0.18 -0.18)">
       <defs>
        <path id="DejaVuSans-35" d="M 691 4666 
L 3169 4666 
L 3169 4134 
L 1269 4134 
L 1269 2991 
Q 1406 3038 1543 3061 
Q 1681 3084 1819 3084 
Q 2600 3084 3056 2656 
Q 3513 2228 3513 1497 
Q 3513 744 3044 326 
Q 2575 -91 1722 -91 
Q 1428 -91 1123 -41 
Q 819 9 494 109 
L 494 744 
Q 775 591 1075 516 
Q 1375 441 1709 441 
Q 2250 441 2565 725 
Q 2881 1009 2881 1497 
Q 2881 1984 2565 2268 
Q 2250 2553 1709 2553 
Q 1456 2553 1204 2497 
Q 953 2441 691 2322 
L 691 4666 
z
" transform="scale(0.015625)"/>
       </defs>
       <use xlink:href="#DejaVuSans-30"/>
       <use xlink:href="#DejaVuSans-2e" x="63.623047"/>
       <use xlink:href="#DejaVuSans-30" x="95.410156"/>
       <use xlink:href="#DejaVuSans-35" x="159.033203"/>
      </g>
     </g>
    </g>
    <g id="ytick_3">
     <g id="line2d_8">
      <g>
       <use xlink:href="#m15d6239621" x="172.8" y="522.96928" style="stroke: #000000; stroke-width: 0.8"/>
      </g>
     </g>
     <g id="text_9">
      <!-- 0.10 -->
      <g transform="translate(125.721875 529.807873) scale(0.18 -0.18)">
       <use xlink:href="#DejaVuSans-30"/>
       <use xlink:href="#DejaVuSans-2e" x="63.623047"/>
       <use xlink:href="#DejaVuSans-31" x="95.410156"/>
       <use xlink:href="#DejaVuSans-30" x="159.033203"/>
      </g>
     </g>
    </g>
    <g id="ytick_4">
     <g id="line2d_9">
      <g>
       <use xlink:href="#m15d6239621" x="172.8" y="459.247919" style="stroke: #000000; stroke-width: 0.8"/>
      </g>
     </g>
     <g id="text_10">
      <!-- 0.15 -->
      <g transform="translate(125.721875 466.086513) scale(0.18 -0.18)">
       <use xlink:href="#DejaVuSans-30"/>
       <use xlink:href="#DejaVuSans-2e" x="63.623047"/>
       <use xlink:href="#DejaVuSans-31" x="95.410156"/>
       <use xlink:href="#DejaVuSans-35" x="159.033203"/>
      </g>
     </g>
    </g>
    <g id="ytick_5">
     <g id="line2d_10">
      <g>
       <use xlink:href="#m15d6239621" x="172.8" y="395.526559" style="stroke: #000000; stroke-width: 0.8"/>
      </g>
     </g>
     <g id="text_11">
      <!-- 0.20 -->
      <g transform="translate(125.721875 402.365153) scale(0.18 -0.18)">
       <use xlink:href="#DejaVuSans-30"/>
       <use xlink:href="#DejaVuSans-2e" x="63.623047"/>
       <use xlink:href="#DejaVuSans-32" x="95.410156"/>
       <use xlink:href="#DejaVuSans-30" x="159.033203"/>
      </g>
     </g>
    </g>
    <g id="ytick_6">
     <g id="line2d_11">
      <g>
       <use xlink:href="#m15d6239621" x="172.8" y="331.805199" style="stroke: #000000; stroke-width: 0.8"/>
      </g>
     </g>
     <g id="text_12">
      <!-- 0.25 -->
      <g transform="translate(125.721875 338.643793) scale(0.18 -0.18)">
       <use xlink:href="#DejaVuSans-30"/>
       <use xlink:href="#DejaVuSans-2e" x="63.623047"/>
       <use xlink:href="#DejaVuSans-32" x="95.410156"/>
       <use xlink:href="#DejaVuSans-35" x="159.033203"/>
      </g>
     </g>
    </g>
    <g id="ytick_7">
     <g id="line2d_12">
      <g>
       <use xlink:href="#m15d6239621" x="172.8" y="268.083839" style="stroke: #000000; stroke-width: 0.8"/>
      </g>
     </g>
     <g id="text_13">
      <!-- 0.30 -->
      <g transform="translate(125.721875 274.922432) scale(0.18 -0.18)">
       <defs>
        <path id="DejaVuSans-33" d="M 2597 2516 
Q 3050 2419 3304 2112 
Q 3559 1806 3559 1356 
Q 3559 666 3084 287 
Q 2609 -91 1734 -91 
Q 1441 -91 1130 -33 
Q 819 25 488 141 
L 488 750 
Q 750 597 1062 519 
Q 1375 441 1716 441 
Q 2309 441 2620 675 
Q 2931 909 2931 1356 
Q 2931 1769 2642 2001 
Q 2353 2234 1838 2234 
L 1294 2234 
L 1294 2753 
L 1863 2753 
Q 2328 2753 2575 2939 
Q 2822 3125 2822 3475 
Q 2822 3834 2567 4026 
Q 2313 4219 1838 4219 
Q 1578 4219 1281 4162 
Q 984 4106 628 3988 
L 628 4550 
Q 988 4650 1302 4700 
Q 1616 4750 1894 4750 
Q 2613 4750 3031 4423 
Q 3450 4097 3450 3541 
Q 3450 3153 3228 2886 
Q 3006 2619 2597 2516 
z
" transform="scale(0.015625)"/>
       </defs>
       <use xlink:href="#DejaVuSans-30"/>
       <use xlink:href="#DejaVuSans-2e" x="63.623047"/>
       <use xlink:href="#DejaVuSans-33" x="95.410156"/>
       <use xlink:href="#DejaVuSans-30" x="159.033203"/>
      </g>
     </g>
    </g>
    <g id="ytick_8">
     <g id="line2d_13">
      <g>
       <use xlink:href="#m15d6239621" x="172.8" y="204.362478" style="stroke: #000000; stroke-width: 0.8"/>
      </g>
     </g>
     <g id="text_14">
      <!-- 0.35 -->
      <g transform="translate(125.721875 211.201072) scale(0.18 -0.18)">
       <use xlink:href="#DejaVuSans-30"/>
       <use xlink:href="#DejaVuSans-2e" x="63.623047"/>
       <use xlink:href="#DejaVuSans-33" x="95.410156"/>
       <use xlink:href="#DejaVuSans-35" x="159.033203"/>
      </g>
     </g>
    </g>
    <g id="ytick_9">
     <g id="line2d_14">
      <g>
       <use xlink:href="#m15d6239621" x="172.8" y="140.641118" style="stroke: #000000; stroke-width: 0.8"/>
      </g>
     </g>
     <g id="text_15">
      <!-- 0.40 -->
      <g transform="translate(125.721875 147.479712) scale(0.18 -0.18)">
       <use xlink:href="#DejaVuSans-30"/>
       <use xlink:href="#DejaVuSans-2e" x="63.623047"/>
       <use xlink:href="#DejaVuSans-34" x="95.410156"/>
       <use xlink:href="#DejaVuSans-30" x="159.033203"/>
      </g>
     </g>
    </g>
    <g id="text_16">
     <!-- Exergievernichtung in MW -->
     <g transform="translate(117.978437 487.119938) rotate(-90) scale(0.18 -0.18)">
      <defs>
       <path id="DejaVuSans-45" d="M 628 4666 
L 3578 4666 
L 3578 4134 
L 1259 4134 
L 1259 2753 
L 3481 2753 
L 3481 2222 
L 1259 2222 
L 1259 531 
L 3634 531 
L 3634 0 
L 628 0 
L 628 4666 
z
" transform="scale(0.015625)"/>
       <path id="DejaVuSans-78" d="M 3513 3500 
L 2247 1797 
L 3578 0 
L 2900 0 
L 1881 1375 
L 863 0 
L 184 0 
L 1544 1831 
L 300 3500 
L 978 3500 
L 1906 2253 
L 2834 3500 
L 3513 3500 
z
" transform="scale(0.015625)"/>
       <path id="DejaVuSans-67" d="M 2906 1791 
Q 2906 2416 2648 2759 
Q 2391 3103 1925 3103 
Q 1463 3103 1205 2759 
Q 947 2416 947 1791 
Q 947 1169 1205 825 
Q 1463 481 1925 481 
Q 2391 481 2648 825 
Q 2906 1169 2906 1791 
z
M 3481 434 
Q 3481 -459 3084 -895 
Q 2688 -1331 1869 -1331 
Q 1566 -1331 1297 -1286 
Q 1028 -1241 775 -1147 
L 775 -588 
Q 1028 -725 1275 -790 
Q 1522 -856 1778 -856 
Q 2344 -856 2625 -561 
Q 2906 -266 2906 331 
L 2906 616 
Q 2728 306 2450 153 
Q 2172 0 1784 0 
Q 1141 0 747 490 
Q 353 981 353 1791 
Q 353 2603 747 3093 
Q 1141 3584 1784 3584 
Q 2172 3584 2450 3431 
Q 2728 3278 2906 2969 
L 2906 3500 
L 3481 3500 
L 3481 434 
z
" transform="scale(0.015625)"/>
       <path id="DejaVuSans-76" d="M 191 3500 
L 800 3500 
L 1894 563 
L 2988 3500 
L 3597 3500 
L 2284 0 
L 1503 0 
L 191 3500 
z
" transform="scale(0.015625)"/>
       <path id="DejaVuSans-68" d="M 3513 2113 
L 3513 0 
L 2938 0 
L 2938 2094 
Q 2938 2591 2744 2837 
Q 2550 3084 2163 3084 
Q 1697 3084 1428 2787 
Q 1159 2491 1159 1978 
L 1159 0 
L 581 0 
L 581 4863 
L 1159 4863 
L 1159 2956 
Q 1366 3272 1645 3428 
Q 1925 3584 2291 3584 
Q 2894 3584 3203 3211 
Q 3513 2838 3513 2113 
z
" transform="scale(0.015625)"/>
       <path id="DejaVuSans-4d" d="M 628 4666 
L 1569 4666 
L 2759 1491 
L 3956 4666 
L 4897 4666 
L 4897 0 
L 4281 0 
L 4281 4097 
L 3078 897 
L 2444 897 
L 1241 4097 
L 1241 0 
L 628 0 
L 628 4666 
z
" transform="scale(0.015625)"/>
       <path id="DejaVuSans-57" d="M 213 4666 
L 850 4666 
L 1831 722 
L 2809 4666 
L 3519 4666 
L 4500 722 
L 5478 4666 
L 6119 4666 
L 4947 0 
L 4153 0 
L 3169 4050 
L 2175 0 
L 1381 0 
L 213 4666 
z
" transform="scale(0.015625)"/>
      </defs>
      <use xlink:href="#DejaVuSans-45"/>
      <use xlink:href="#DejaVuSans-78" x="63.183594"/>
      <use xlink:href="#DejaVuSans-65" x="119.238281"/>
      <use xlink:href="#DejaVuSans-72" x="180.761719"/>
      <use xlink:href="#DejaVuSans-67" x="220.125"/>
      <use xlink:href="#DejaVuSans-69" x="283.601562"/>
      <use xlink:href="#DejaVuSans-65" x="311.384766"/>
      <use xlink:href="#DejaVuSans-76" x="372.908203"/>
      <use xlink:href="#DejaVuSans-65" x="432.087891"/>
      <use xlink:href="#DejaVuSans-72" x="493.611328"/>
      <use xlink:href="#DejaVuSans-6e" x="532.974609"/>
      <use xlink:href="#DejaVuSans-69" x="596.353516"/>
      <use xlink:href="#DejaVuSans-63" x="624.136719"/>
      <use xlink:href="#DejaVuSans-68" x="679.117188"/>
      <use xlink:href="#DejaVuSans-74" x="742.496094"/>
      <use xlink:href="#DejaVuSans-75" x="781.705078"/>
      <use xlink:href="#DejaVuSans-6e" x="845.083984"/>
      <use xlink:href="#DejaVuSans-67" x="908.462891"/>
      <use xlink:href="#DejaVuSans-20" x="971.939453"/>
      <use xlink:href="#DejaVuSans-69" x="1003.726562"/>
      <use xlink:href="#DejaVuSans-6e" x="1031.509766"/>
      <use xlink:href="#DejaVuSans-20" x="1094.888672"/>
      <use xlink:href="#DejaVuSans-4d" x="1126.675781"/>
      <use xlink:href="#DejaVuSans-57" x="1212.955078"/>
     </g>
    </g>
   </g>
   <g id="patch_163">
    <path d="M 172.8 650.412 
L 172.8 87.696 
" style="fill: none; stroke: #000000; stroke-width: 0.8; stroke-linejoin: miter; stroke-linecap: square"/>
   </g>
   <g id="patch_164">
    <path d="M 1244.16 650.412 
L 1244.16 87.696 
" style="fill: none; stroke: #000000; stroke-width: 0.8; stroke-linejoin: miter; stroke-linecap: square"/>
   </g>
   <g id="patch_165">
    <path d="M 172.8 650.412 
L 1244.16 650.412 
" style="fill: none; stroke: #000000; stroke-width: 0.8; stroke-linejoin: miter; stroke-linecap: square"/>
   </g>
   <g id="patch_166">
    <path d="M 172.8 87.696 
L 1244.16 87.696 
" style="fill: none; stroke: #000000; stroke-width: 0.8; stroke-linejoin: miter; stroke-linecap: square"/>
   </g>
   <g id="legend_1">
    <g id="patch_167">
     <path d="M 1066.179375 207.7785 
L 1231.56 207.7785 
Q 1235.16 207.7785 1235.16 204.1785 
L 1235.16 100.296 
Q 1235.16 96.696 1231.56 96.696 
L 1066.179375 96.696 
Q 1062.579375 96.696 1062.579375 100.296 
L 1062.579375 204.1785 
Q 1062.579375 207.7785 1066.179375 207.7785 
z
" style="fill: #ffffff; opacity: 0.8; stroke: #cccccc; stroke-linejoin: miter"/>
    </g>
    <g id="patch_168">
     <path d="M 1069.779375 117.573188 
L 1105.779375 117.573188 
L 1105.779375 104.973188 
L 1069.779375 104.973188 
z
" style="fill: #1f77b4"/>
    </g>
    <g id="text_17">
     <!-- Gas cooler -->
     <g transform="translate(1120.179375 117.573188) scale(0.18 -0.18)">
      <defs>
       <path id="DejaVuSans-47" d="M 3809 666 
L 3809 1919 
L 2778 1919 
L 2778 2438 
L 4434 2438 
L 4434 434 
Q 4069 175 3628 42 
Q 3188 -91 2688 -91 
Q 1594 -91 976 548 
Q 359 1188 359 2328 
Q 359 3472 976 4111 
Q 1594 4750 2688 4750 
Q 3144 4750 3555 4637 
Q 3966 4525 4313 4306 
L 4313 3634 
Q 3963 3931 3569 4081 
Q 3175 4231 2741 4231 
Q 1884 4231 1454 3753 
Q 1025 3275 1025 2328 
Q 1025 1384 1454 906 
Q 1884 428 2741 428 
Q 3075 428 3337 486 
Q 3600 544 3809 666 
z
" transform="scale(0.015625)"/>
       <path id="DejaVuSans-6c" d="M 603 4863 
L 1178 4863 
L 1178 0 
L 603 0 
L 603 4863 
z
" transform="scale(0.015625)"/>
      </defs>
      <use xlink:href="#DejaVuSans-47"/>
      <use xlink:href="#DejaVuSans-61" x="77.490234"/>
      <use xlink:href="#DejaVuSans-73" x="138.769531"/>
      <use xlink:href="#DejaVuSans-20" x="190.869141"/>
      <use xlink:href="#DejaVuSans-63" x="222.65625"/>
      <use xlink:href="#DejaVuSans-6f" x="277.636719"/>
      <use xlink:href="#DejaVuSans-6f" x="338.818359"/>
      <use xlink:href="#DejaVuSans-6c" x="400"/>
      <use xlink:href="#DejaVuSans-65" x="427.783203"/>
      <use xlink:href="#DejaVuSans-72" x="489.306641"/>
     </g>
    </g>
    <g id="patch_169">
     <path d="M 1069.779375 143.993812 
L 1105.779375 143.993812 
L 1105.779375 131.393812 
L 1069.779375 131.393812 
z
" style="fill: #ff7f0e"/>
    </g>
    <g id="text_18">
     <!-- Evaporator -->
     <g transform="translate(1120.179375 143.993812) scale(0.18 -0.18)">
      <defs>
       <path id="DejaVuSans-70" d="M 1159 525 
L 1159 -1331 
L 581 -1331 
L 581 3500 
L 1159 3500 
L 1159 2969 
Q 1341 3281 1617 3432 
Q 1894 3584 2278 3584 
Q 2916 3584 3314 3078 
Q 3713 2572 3713 1747 
Q 3713 922 3314 415 
Q 2916 -91 2278 -91 
Q 1894 -91 1617 61 
Q 1341 213 1159 525 
z
M 3116 1747 
Q 3116 2381 2855 2742 
Q 2594 3103 2138 3103 
Q 1681 3103 1420 2742 
Q 1159 2381 1159 1747 
Q 1159 1113 1420 752 
Q 1681 391 2138 391 
Q 2594 391 2855 752 
Q 3116 1113 3116 1747 
z
" transform="scale(0.015625)"/>
      </defs>
      <use xlink:href="#DejaVuSans-45"/>
      <use xlink:href="#DejaVuSans-76" x="63.183594"/>
      <use xlink:href="#DejaVuSans-61" x="122.363281"/>
      <use xlink:href="#DejaVuSans-70" x="183.642578"/>
      <use xlink:href="#DejaVuSans-6f" x="247.119141"/>
      <use xlink:href="#DejaVuSans-72" x="308.300781"/>
      <use xlink:href="#DejaVuSans-61" x="349.414062"/>
      <use xlink:href="#DejaVuSans-74" x="410.693359"/>
      <use xlink:href="#DejaVuSans-6f" x="449.902344"/>
      <use xlink:href="#DejaVuSans-72" x="511.083984"/>
     </g>
    </g>
    <g id="patch_170">
     <path d="M 1069.779375 170.414437 
L 1105.779375 170.414437 
L 1105.779375 157.814437 
L 1069.779375 157.814437 
z
" style="fill: #2ca02c"/>
    </g>
    <g id="text_19">
     <!-- Valve -->
     <g transform="translate(1120.179375 170.414437) scale(0.18 -0.18)">
      <defs>
       <path id="DejaVuSans-56" d="M 1831 0 
L 50 4666 
L 709 4666 
L 2188 738 
L 3669 4666 
L 4325 4666 
L 2547 0 
L 1831 0 
z
" transform="scale(0.015625)"/>
      </defs>
      <use xlink:href="#DejaVuSans-56"/>
      <use xlink:href="#DejaVuSans-61" x="60.658203"/>
      <use xlink:href="#DejaVuSans-6c" x="121.9375"/>
      <use xlink:href="#DejaVuSans-76" x="149.720703"/>
      <use xlink:href="#DejaVuSans-65" x="208.900391"/>
     </g>
    </g>
    <g id="patch_171">
     <path d="M 1069.779375 196.835063 
L 1105.779375 196.835063 
L 1105.779375 184.235063 
L 1069.779375 184.235063 
z
" style="fill: #d62728"/>
    </g>
    <g id="text_20">
     <!-- Compressor -->
     <g transform="translate(1120.179375 196.835063) scale(0.18 -0.18)">
      <defs>
       <path id="DejaVuSans-43" d="M 4122 4306 
L 4122 3641 
Q 3803 3938 3442 4084 
Q 3081 4231 2675 4231 
Q 1875 4231 1450 3742 
Q 1025 3253 1025 2328 
Q 1025 1406 1450 917 
Q 1875 428 2675 428 
Q 3081 428 3442 575 
Q 3803 722 4122 1019 
L 4122 359 
Q 3791 134 3420 21 
Q 3050 -91 2638 -91 
Q 1578 -91 968 557 
Q 359 1206 359 2328 
Q 359 3453 968 4101 
Q 1578 4750 2638 4750 
Q 3056 4750 3426 4639 
Q 3797 4528 4122 4306 
z
" transform="scale(0.015625)"/>
       <path id="DejaVuSans-6d" d="M 3328 2828 
Q 3544 3216 3844 3400 
Q 4144 3584 4550 3584 
Q 5097 3584 5394 3201 
Q 5691 2819 5691 2113 
L 5691 0 
L 5113 0 
L 5113 2094 
Q 5113 2597 4934 2840 
Q 4756 3084 4391 3084 
Q 3944 3084 3684 2787 
Q 3425 2491 3425 1978 
L 3425 0 
L 2847 0 
L 2847 2094 
Q 2847 2600 2669 2842 
Q 2491 3084 2119 3084 
Q 1678 3084 1418 2786 
Q 1159 2488 1159 1978 
L 1159 0 
L 581 0 
L 581 3500 
L 1159 3500 
L 1159 2956 
Q 1356 3278 1631 3431 
Q 1906 3584 2284 3584 
Q 2666 3584 2933 3390 
Q 3200 3197 3328 2828 
z
" transform="scale(0.015625)"/>
      </defs>
      <use xlink:href="#DejaVuSans-43"/>
      <use xlink:href="#DejaVuSans-6f" x="69.824219"/>
      <use xlink:href="#DejaVuSans-6d" x="131.005859"/>
      <use xlink:href="#DejaVuSans-70" x="228.417969"/>
      <use xlink:href="#DejaVuSans-72" x="291.894531"/>
      <use xlink:href="#DejaVuSans-65" x="330.757812"/>
      <use xlink:href="#DejaVuSans-73" x="392.28125"/>
      <use xlink:href="#DejaVuSans-73" x="444.380859"/>
      <use xlink:href="#DejaVuSans-6f" x="496.480469"/>
      <use xlink:href="#DejaVuSans-72" x="557.662109"/>
     </g>
    </g>
   </g>
  </g>
 </g>
 <defs>
  <clipPath id="p82aea611b8">
   <rect x="172.8" y="87.696" width="1071.36" height="562.716"/>
  </clipPath>
 </defs>
</svg>
