<?xml version="1.0" encoding="utf-8" standalone="no"?>
<!DOCTYPE svg PUBLIC "-//W3C//DTD SVG 1.1//EN"
  "http://www.w3.org/Graphics/SVG/1.1/DTD/svg11.dtd">
<svg xmlns:xlink="http://www.w3.org/1999/xlink" width="460.8pt" height="345.6pt" viewBox="0 0 460.8 345.6" xmlns="http://www.w3.org/2000/svg" version="1.1">
 <metadata>
  <rdf:RDF xmlns:dc="http://purl.org/dc/elements/1.1/" xmlns:cc="http://creativecommons.org/ns#" xmlns:rdf="http://www.w3.org/1999/02/22-rdf-syntax-ns#">
   <cc:Work>
    <dc:type rdf:resource="http://purl.org/dc/dcmitype/StillImage"/>
    <dc:date>2023-03-21T15:01:39.689909</dc:date>
    <dc:format>image/svg+xml</dc:format>
    <dc:creator>
     <cc:Agent>
      <dc:title>Matplotlib v3.6.1, https://matplotlib.org/</dc:title>
     </cc:Agent>
    </dc:creator>
   </cc:Work>
  </rdf:RDF>
 </metadata>
 <defs>
  <style type="text/css">*{stroke-linejoin: round; stroke-linecap: butt}</style>
 </defs>
 <g id="figure_1">
  <g id="patch_1">
   <path d="M 0 345.6 
L 460.8 345.6 
L 460.8 0 
L 0 0 
z
" style="fill: #ffffff"/>
  </g>
  <g id="axes_1">
   <g id="patch_2">
    <path d="M 57.6 307.584 
L 414.72 307.584 
L 414.72 41.472 
L 57.6 41.472 
z
" style="fill: #ffffff"/>
   </g>
   <g id="patch_3">
    <path d="M 73.832727 307.584 
L 74.967883 307.584 
L 74.967883 304.81711 
L 73.832727 304.81711 
z
" clip-path="url(#p4a820f18e1)" style="fill: #1f77b4"/>
   </g>
   <g id="patch_4">
    <path d="M 90.860064 307.584 
L 91.995219 307.584 
L 91.995219 304.307154 
L 90.860064 304.307154 
z
" clip-path="url(#p4a820f18e1)" style="fill: #1f77b4"/>
   </g>
   <g id="patch_5">
    <path d="M 107.8874 307.584 
L 109.022556 307.584 
L 109.022556 303.825288 
L 107.8874 303.825288 
z
" clip-path="url(#p4a820f18e1)" style="fill: #1f77b4"/>
   </g>
   <g id="patch_6">
    <path d="M 124.914736 307.584 
L 126.049892 307.584 
L 126.049892 303.368229 
L 124.914736 303.368229 
z
" clip-path="url(#p4a820f18e1)" style="fill: #1f77b4"/>
   </g>
   <g id="patch_7">
    <path d="M 141.942072 307.584 
L 143.077228 307.584 
L 143.077228 302.933221 
L 141.942072 302.933221 
z
" clip-path="url(#p4a820f18e1)" style="fill: #1f77b4"/>
   </g>
   <g id="patch_8">
    <path d="M 158.969409 307.584 
L 160.104565 307.584 
L 160.104565 302.517933 
L 158.969409 302.517933 
z
" clip-path="url(#p4a820f18e1)" style="fill: #1f77b4"/>
   </g>
   <g id="patch_9">
    <path d="M 175.996745 307.584 
L 177.131901 307.584 
L 177.131901 302.120376 
L 175.996745 302.120376 
z
" clip-path="url(#p4a820f18e1)" style="fill: #1f77b4"/>
   </g>
   <g id="patch_10">
    <path d="M 193.024081 307.584 
L 194.159237 307.584 
L 194.159237 301.738847 
L 193.024081 301.738847 
z
" clip-path="url(#p4a820f18e1)" style="fill: #1f77b4"/>
   </g>
   <g id="patch_11">
    <path d="M 210.051418 307.584 
L 211.186573 307.584 
L 211.186573 301.371872 
L 210.051418 301.371872 
z
" clip-path="url(#p4a820f18e1)" style="fill: #1f77b4"/>
   </g>
   <g id="patch_12">
    <path d="M 227.078754 307.584 
L 228.21391 307.584 
L 228.21391 301.018173 
L 227.078754 301.018173 
z
" clip-path="url(#p4a820f18e1)" style="fill: #1f77b4"/>
   </g>
   <g id="patch_13">
    <path d="M 244.10609 307.584 
L 245.241246 307.584 
L 245.241246 300.676632 
L 244.10609 300.676632 
z
" clip-path="url(#p4a820f18e1)" style="fill: #1f77b4"/>
   </g>
   <g id="patch_14">
    <path d="M 261.133427 307.584 
L 262.268582 307.584 
L 262.268582 300.346268 
L 261.133427 300.346268 
z
" clip-path="url(#p4a820f18e1)" style="fill: #1f77b4"/>
   </g>
   <g id="patch_15">
    <path d="M 278.160763 307.584 
L 279.295919 307.584 
L 279.295919 300.026215 
L 278.160763 300.026215 
z
" clip-path="url(#p4a820f18e1)" style="fill: #1f77b4"/>
   </g>
   <g id="patch_16">
    <path d="M 295.188099 307.584 
L 296.323255 307.584 
L 296.323255 299.715705 
L 295.188099 299.715705 
z
" clip-path="url(#p4a820f18e1)" style="fill: #1f77b4"/>
   </g>
   <g id="patch_17">
    <path d="M 312.215435 307.584 
L 313.350591 307.584 
L 313.350591 299.414055 
L 312.215435 299.414055 
z
" clip-path="url(#p4a820f18e1)" style="fill: #1f77b4"/>
   </g>
   <g id="patch_18">
    <path d="M 329.242772 307.584 
L 330.377928 307.584 
L 330.377928 299.120652 
L 329.242772 299.120652 
z
" clip-path="url(#p4a820f18e1)" style="fill: #1f77b4"/>
   </g>
   <g id="patch_19">
    <path d="M 346.270108 307.584 
L 347.405264 307.584 
L 347.405264 298.834949 
L 346.270108 298.834949 
z
" clip-path="url(#p4a820f18e1)" style="fill: #1f77b4"/>
   </g>
   <g id="patch_20">
    <path d="M 363.297444 307.584 
L 364.4326 307.584 
L 364.4326 298.55645 
L 363.297444 298.55645 
z
" clip-path="url(#p4a820f18e1)" style="fill: #1f77b4"/>
   </g>
   <g id="patch_21">
    <path d="M 380.324781 307.584 
L 381.459936 307.584 
L 381.459936 298.284709 
L 380.324781 298.284709 
z
" clip-path="url(#p4a820f18e1)" style="fill: #1f77b4"/>
   </g>
   <g id="patch_22">
    <path d="M 397.352117 307.584 
L 398.487273 307.584 
L 398.487273 298.019321 
L 397.352117 298.019321 
z
" clip-path="url(#p4a820f18e1)" style="fill: #1f77b4"/>
   </g>
   <g id="patch_23">
    <path d="M 73.832727 304.81711 
L 74.967883 304.81711 
L 74.967883 301.166168 
L 73.832727 301.166168 
z
" clip-path="url(#p4a820f18e1)" style="fill: #ff7f0e"/>
   </g>
   <g id="patch_24">
    <path d="M 90.860064 304.307154 
L 91.995219 304.307154 
L 91.995219 300.637421 
L 90.860064 300.637421 
z
" clip-path="url(#p4a820f18e1)" style="fill: #ff7f0e"/>
   </g>
   <g id="patch_25">
    <path d="M 107.8874 303.825288 
L 109.022556 303.825288 
L 109.022556 300.141392 
L 107.8874 300.141392 
z
" clip-path="url(#p4a820f18e1)" style="fill: #ff7f0e"/>
   </g>
   <g id="patch_26">
    <path d="M 124.914736 303.368229 
L 126.049892 303.368229 
L 126.049892 299.674063 
L 124.914736 299.674063 
z
" clip-path="url(#p4a820f18e1)" style="fill: #ff7f0e"/>
   </g>
   <g id="patch_27">
    <path d="M 141.942072 302.933221 
L 143.077228 302.933221 
L 143.077228 299.23209 
L 141.942072 299.23209 
z
" clip-path="url(#p4a820f18e1)" style="fill: #ff7f0e"/>
   </g>
   <g id="patch_28">
    <path d="M 158.969409 302.517933 
L 160.104565 302.517933 
L 160.104565 298.812663 
L 158.969409 298.812663 
z
" clip-path="url(#p4a820f18e1)" style="fill: #ff7f0e"/>
   </g>
   <g id="patch_29">
    <path d="M 175.996745 302.120376 
L 177.131901 302.120376 
L 177.131901 298.413406 
L 175.996745 298.413406 
z
" clip-path="url(#p4a820f18e1)" style="fill: #ff7f0e"/>
   </g>
   <g id="patch_30">
    <path d="M 193.024081 301.738847 
L 194.159237 301.738847 
L 194.159237 298.032289 
L 193.024081 298.032289 
z
" clip-path="url(#p4a820f18e1)" style="fill: #ff7f0e"/>
   </g>
   <g id="patch_31">
    <path d="M 210.051418 301.371872 
L 211.186573 301.371872 
L 211.186573 297.66757 
L 210.051418 297.66757 
z
" clip-path="url(#p4a820f18e1)" style="fill: #ff7f0e"/>
   </g>
   <g id="patch_32">
    <path d="M 227.078754 301.018173 
L 228.21391 301.018173 
L 228.21391 297.317742 
L 227.078754 297.317742 
z
" clip-path="url(#p4a820f18e1)" style="fill: #ff7f0e"/>
   </g>
   <g id="patch_33">
    <path d="M 244.10609 300.676632 
L 245.241246 300.676632 
L 245.241246 296.981495 
L 244.10609 296.981495 
z
" clip-path="url(#p4a820f18e1)" style="fill: #ff7f0e"/>
   </g>
   <g id="patch_34">
    <path d="M 261.133427 300.346268 
L 262.268582 300.346268 
L 262.268582 296.657682 
L 261.133427 296.657682 
z
" clip-path="url(#p4a820f18e1)" style="fill: #ff7f0e"/>
   </g>
   <g id="patch_35">
    <path d="M 278.160763 300.026215 
L 279.295919 300.026215 
L 279.295919 296.345294 
L 278.160763 296.345294 
z
" clip-path="url(#p4a820f18e1)" style="fill: #ff7f0e"/>
   </g>
   <g id="patch_36">
    <path d="M 295.188099 299.715705 
L 296.323255 299.715705 
L 296.323255 296.04344 
L 295.188099 296.04344 
z
" clip-path="url(#p4a820f18e1)" style="fill: #ff7f0e"/>
   </g>
   <g id="patch_37">
    <path d="M 312.215435 299.414055 
L 313.350591 299.414055 
L 313.350591 295.751331 
L 312.215435 295.751331 
z
" clip-path="url(#p4a820f18e1)" style="fill: #ff7f0e"/>
   </g>
   <g id="patch_38">
    <path d="M 329.242772 299.120652 
L 330.377928 299.120652 
L 330.377928 295.468261 
L 329.242772 295.468261 
z
" clip-path="url(#p4a820f18e1)" style="fill: #ff7f0e"/>
   </g>
   <g id="patch_39">
    <path d="M 346.270108 298.834949 
L 347.405264 298.834949 
L 347.405264 295.193599 
L 346.270108 295.193599 
z
" clip-path="url(#p4a820f18e1)" style="fill: #ff7f0e"/>
   </g>
   <g id="patch_40">
    <path d="M 363.297444 298.55645 
L 364.4326 298.55645 
L 364.4326 294.926779 
L 363.297444 294.926779 
z
" clip-path="url(#p4a820f18e1)" style="fill: #ff7f0e"/>
   </g>
   <g id="patch_41">
    <path d="M 380.324781 298.284709 
L 381.459936 298.284709 
L 381.459936 294.667289 
L 380.324781 294.667289 
z
" clip-path="url(#p4a820f18e1)" style="fill: #ff7f0e"/>
   </g>
   <g id="patch_42">
    <path d="M 397.352117 298.019321 
L 398.487273 298.019321 
L 398.487273 294.414668 
L 397.352117 294.414668 
z
" clip-path="url(#p4a820f18e1)" style="fill: #ff7f0e"/>
   </g>
   <g id="patch_43">
    <path d="M 73.832727 301.166168 
L 74.967883 301.166168 
L 74.967883 138.735864 
L 73.832727 138.735864 
z
" clip-path="url(#p4a820f18e1)" style="fill: #2ca02c"/>
   </g>
   <g id="patch_44">
    <path d="M 90.860064 300.637421 
L 91.995219 300.637421 
L 91.995219 139.242543 
L 90.860064 139.242543 
z
" clip-path="url(#p4a820f18e1)" style="fill: #2ca02c"/>
   </g>
   <g id="patch_45">
    <path d="M 107.8874 300.141392 
L 109.022556 300.141392 
L 109.022556 139.590862 
L 107.8874 139.590862 
z
" clip-path="url(#p4a820f18e1)" style="fill: #2ca02c"/>
   </g>
   <g id="patch_46">
    <path d="M 124.914736 299.674063 
L 126.049892 299.674063 
L 126.049892 139.80626 
L 124.914736 139.80626 
z
" clip-path="url(#p4a820f18e1)" style="fill: #2ca02c"/>
   </g>
   <g id="patch_47">
    <path d="M 141.942072 299.23209 
L 143.077228 299.23209 
L 143.077228 139.909037 
L 141.942072 139.909037 
z
" clip-path="url(#p4a820f18e1)" style="fill: #2ca02c"/>
   </g>
   <g id="patch_48">
    <path d="M 158.969409 298.812663 
L 160.104565 298.812663 
L 160.104565 139.915614 
L 158.969409 139.915614 
z
" clip-path="url(#p4a820f18e1)" style="fill: #2ca02c"/>
   </g>
   <g id="patch_49">
    <path d="M 175.996745 298.413406 
L 177.131901 298.413406 
L 177.131901 139.839428 
L 175.996745 139.839428 
z
" clip-path="url(#p4a820f18e1)" style="fill: #2ca02c"/>
   </g>
   <g id="patch_50">
    <path d="M 193.024081 298.032289 
L 194.159237 298.032289 
L 194.159237 139.691595 
L 193.024081 139.691595 
z
" clip-path="url(#p4a820f18e1)" style="fill: #2ca02c"/>
   </g>
   <g id="patch_51">
    <path d="M 210.051418 297.66757 
L 211.186573 297.66757 
L 211.186573 139.481394 
L 210.051418 139.481394 
z
" clip-path="url(#p4a820f18e1)" style="fill: #2ca02c"/>
   </g>
   <g id="patch_52">
    <path d="M 227.078754 297.317742 
L 228.21391 297.317742 
L 228.21391 139.216639 
L 227.078754 139.216639 
z
" clip-path="url(#p4a820f18e1)" style="fill: #2ca02c"/>
   </g>
   <g id="patch_53">
    <path d="M 244.10609 296.981495 
L 245.241246 296.981495 
L 245.241246 138.903957 
L 244.10609 138.903957 
z
" clip-path="url(#p4a820f18e1)" style="fill: #2ca02c"/>
   </g>
   <g id="patch_54">
    <path d="M 261.133427 296.657682 
L 262.268582 296.657682 
L 262.268582 138.549009 
L 261.133427 138.549009 
z
" clip-path="url(#p4a820f18e1)" style="fill: #2ca02c"/>
   </g>
   <g id="patch_55">
    <path d="M 278.160763 296.345294 
L 279.295919 296.345294 
L 279.295919 138.156662 
L 278.160763 138.156662 
z
" clip-path="url(#p4a820f18e1)" style="fill: #2ca02c"/>
   </g>
   <g id="patch_56">
    <path d="M 295.188099 296.04344 
L 296.323255 296.04344 
L 296.323255 137.731122 
L 295.188099 137.731122 
z
" clip-path="url(#p4a820f18e1)" style="fill: #2ca02c"/>
   </g>
   <g id="patch_57">
    <path d="M 312.215435 295.751331 
L 313.350591 295.751331 
L 313.350591 137.276045 
L 312.215435 137.276045 
z
" clip-path="url(#p4a820f18e1)" style="fill: #2ca02c"/>
   </g>
   <g id="patch_58">
    <path d="M 329.242772 295.468261 
L 330.377928 295.468261 
L 330.377928 136.794623 
L 329.242772 136.794623 
z
" clip-path="url(#p4a820f18e1)" style="fill: #2ca02c"/>
   </g>
   <g id="patch_59">
    <path d="M 346.270108 295.193599 
L 347.405264 295.193599 
L 347.405264 136.289654 
L 346.270108 136.289654 
z
" clip-path="url(#p4a820f18e1)" style="fill: #2ca02c"/>
   </g>
   <g id="patch_60">
    <path d="M 363.297444 294.926779 
L 364.4326 294.926779 
L 364.4326 135.763605 
L 363.297444 135.763605 
z
" clip-path="url(#p4a820f18e1)" style="fill: #2ca02c"/>
   </g>
   <g id="patch_61">
    <path d="M 380.324781 294.667289 
L 381.459936 294.667289 
L 381.459936 135.218653 
L 380.324781 135.218653 
z
" clip-path="url(#p4a820f18e1)" style="fill: #2ca02c"/>
   </g>
   <g id="patch_62">
    <path d="M 397.352117 294.414668 
L 398.487273 294.414668 
L 398.487273 134.656733 
L 397.352117 134.656733 
z
" clip-path="url(#p4a820f18e1)" style="fill: #2ca02c"/>
   </g>
   <g id="patch_63">
    <path d="M 73.832727 138.735864 
L 74.967883 138.735864 
L 74.967883 56.357296 
L 73.832727 56.357296 
z
" clip-path="url(#p4a820f18e1)" style="fill: #d62728"/>
   </g>
   <g id="patch_64">
    <path d="M 90.860064 139.242543 
L 91.995219 139.242543 
L 91.995219 57.25513 
L 90.860064 57.25513 
z
" clip-path="url(#p4a820f18e1)" style="fill: #d62728"/>
   </g>
   <g id="patch_65">
    <path d="M 107.8874 139.590862 
L 109.022556 139.590862 
L 109.022556 57.931798 
L 107.8874 57.931798 
z
" clip-path="url(#p4a820f18e1)" style="fill: #d62728"/>
   </g>
   <g id="patch_66">
    <path d="M 124.914736 139.80626 
L 126.049892 139.80626 
L 126.049892 58.422467 
L 124.914736 58.422467 
z
" clip-path="url(#p4a820f18e1)" style="fill: #d62728"/>
   </g>
   <g id="patch_67">
    <path d="M 141.942072 139.909037 
L 143.077228 139.909037 
L 143.077228 58.755251 
L 141.942072 58.755251 
z
" clip-path="url(#p4a820f18e1)" style="fill: #d62728"/>
   </g>
   <g id="patch_68">
    <path d="M 158.969409 139.915614 
L 160.104565 139.915614 
L 160.104565 58.95292 
L 158.969409 58.95292 
z
" clip-path="url(#p4a820f18e1)" style="fill: #d62728"/>
   </g>
   <g id="patch_69">
    <path d="M 175.996745 139.839428 
L 177.131901 139.839428 
L 177.131901 59.034137 
L 175.996745 59.034137 
z
" clip-path="url(#p4a820f18e1)" style="fill: #d62728"/>
   </g>
   <g id="patch_70">
    <path d="M 193.024081 139.691595 
L 194.159237 139.691595 
L 194.159237 59.014355 
L 193.024081 59.014355 
z
" clip-path="url(#p4a820f18e1)" style="fill: #d62728"/>
   </g>
   <g id="patch_71">
    <path d="M 210.051418 139.481394 
L 211.186573 139.481394 
L 211.186573 58.906489 
L 210.051418 58.906489 
z
" clip-path="url(#p4a820f18e1)" style="fill: #d62728"/>
   </g>
   <g id="patch_72">
    <path d="M 227.078754 139.216639 
L 228.21391 139.216639 
L 228.21391 58.721422 
L 227.078754 58.721422 
z
" clip-path="url(#p4a820f18e1)" style="fill: #d62728"/>
   </g>
   <g id="patch_73">
    <path d="M 244.10609 138.903957 
L 245.241246 138.903957 
L 245.241246 58.468396 
L 244.10609 58.468396 
z
" clip-path="url(#p4a820f18e1)" style="fill: #d62728"/>
   </g>
   <g id="patch_74">
    <path d="M 261.133427 138.549009 
L 262.268582 138.549009 
L 262.268582 58.155311 
L 261.133427 58.155311 
z
" clip-path="url(#p4a820f18e1)" style="fill: #d62728"/>
   </g>
   <g id="patch_75">
    <path d="M 278.160763 138.156662 
L 279.295919 138.156662 
L 279.295919 57.788964 
L 278.160763 57.788964 
z
" clip-path="url(#p4a820f18e1)" style="fill: #d62728"/>
   </g>
   <g id="patch_76">
    <path d="M 295.188099 137.731122 
L 296.323255 137.731122 
L 296.323255 57.375234 
L 295.188099 57.375234 
z
" clip-path="url(#p4a820f18e1)" style="fill: #d62728"/>
   </g>
   <g id="patch_77">
    <path d="M 312.215435 137.276045 
L 313.350591 137.276045 
L 313.350591 56.919233 
L 312.215435 56.919233 
z
" clip-path="url(#p4a820f18e1)" style="fill: #d62728"/>
   </g>
   <g id="patch_78">
    <path d="M 329.242772 136.794623 
L 330.377928 136.794623 
L 330.377928 56.425428 
L 329.242772 56.425428 
z
" clip-path="url(#p4a820f18e1)" style="fill: #d62728"/>
   </g>
   <g id="patch_79">
    <path d="M 346.270108 136.289654 
L 347.405264 136.289654 
L 347.405264 55.897742 
L 346.270108 55.897742 
z
" clip-path="url(#p4a820f18e1)" style="fill: #d62728"/>
   </g>
   <g id="patch_80">
    <path d="M 363.297444 135.763605 
L 364.4326 135.763605 
L 364.4326 55.339628 
L 363.297444 55.339628 
z
" clip-path="url(#p4a820f18e1)" style="fill: #d62728"/>
   </g>
   <g id="patch_81">
    <path d="M 380.324781 135.218653 
L 381.459936 135.218653 
L 381.459936 54.754143 
L 380.324781 54.754143 
z
" clip-path="url(#p4a820f18e1)" style="fill: #d62728"/>
   </g>
   <g id="patch_82">
    <path d="M 397.352117 134.656733 
L 398.487273 134.656733 
L 398.487273 54.144 
L 397.352117 54.144 
z
" clip-path="url(#p4a820f18e1)" style="fill: #d62728"/>
   </g>
   <g id="matplotlib.axis_1">
    <g id="xtick_1">
     <g id="line2d_1">
      <defs>
       <path id="mfd92d6ab25" d="M 0 0 
L 0 3.5 
" style="stroke: #000000; stroke-width: 0.8"/>
      </defs>
      <g>
       <use xlink:href="#mfd92d6ab25" x="142.50965" y="307.584" style="stroke: #000000; stroke-width: 0.8"/>
      </g>
     </g>
     <g id="text_1">
      <!-- 100 -->
      <g transform="translate(125.3309 328.261187) scale(0.18 -0.18)">
       <defs>
        <path id="DejaVuSans-31" d="M 794 531 
L 1825 531 
L 1825 4091 
L 703 3866 
L 703 4441 
L 1819 4666 
L 2450 4666 
L 2450 531 
L 3481 531 
L 3481 0 
L 794 0 
L 794 531 
z
" transform="scale(0.015625)"/>
        <path id="DejaVuSans-30" d="M 2034 4250 
Q 1547 4250 1301 3770 
Q 1056 3291 1056 2328 
Q 1056 1369 1301 889 
Q 1547 409 2034 409 
Q 2525 409 2770 889 
Q 3016 1369 3016 2328 
Q 3016 3291 2770 3770 
Q 2525 4250 2034 4250 
z
M 2034 4750 
Q 2819 4750 3233 4129 
Q 3647 3509 3647 2328 
Q 3647 1150 3233 529 
Q 2819 -91 2034 -91 
Q 1250 -91 836 529 
Q 422 1150 422 2328 
Q 422 3509 836 4129 
Q 1250 4750 2034 4750 
z
" transform="scale(0.015625)"/>
       </defs>
       <use xlink:href="#DejaVuSans-31"/>
       <use xlink:href="#DejaVuSans-30" x="63.623047"/>
       <use xlink:href="#DejaVuSans-30" x="127.246094"/>
      </g>
     </g>
    </g>
    <g id="xtick_2">
     <g id="line2d_2">
      <g>
       <use xlink:href="#mfd92d6ab25" x="256.025226" y="307.584" style="stroke: #000000; stroke-width: 0.8"/>
      </g>
     </g>
     <g id="text_2">
      <!-- 120 -->
      <g transform="translate(238.846476 328.261187) scale(0.18 -0.18)">
       <defs>
        <path id="DejaVuSans-32" d="M 1228 531 
L 3431 531 
L 3431 0 
L 469 0 
L 469 531 
Q 828 903 1448 1529 
Q 2069 2156 2228 2338 
Q 2531 2678 2651 2914 
Q 2772 3150 2772 3378 
Q 2772 3750 2511 3984 
Q 2250 4219 1831 4219 
Q 1534 4219 1204 4116 
Q 875 4013 500 3803 
L 500 4441 
Q 881 4594 1212 4672 
Q 1544 4750 1819 4750 
Q 2544 4750 2975 4387 
Q 3406 4025 3406 3419 
Q 3406 3131 3298 2873 
Q 3191 2616 2906 2266 
Q 2828 2175 2409 1742 
Q 1991 1309 1228 531 
z
" transform="scale(0.015625)"/>
       </defs>
       <use xlink:href="#DejaVuSans-31"/>
       <use xlink:href="#DejaVuSans-32" x="63.623047"/>
       <use xlink:href="#DejaVuSans-30" x="127.246094"/>
      </g>
     </g>
    </g>
    <g id="xtick_3">
     <g id="line2d_3">
      <g>
       <use xlink:href="#mfd92d6ab25" x="369.540801" y="307.584" style="stroke: #000000; stroke-width: 0.8"/>
      </g>
     </g>
     <g id="text_3">
      <!-- 140 -->
      <g transform="translate(352.362051 328.261187) scale(0.18 -0.18)">
       <defs>
        <path id="DejaVuSans-34" d="M 2419 4116 
L 825 1625 
L 2419 1625 
L 2419 4116 
z
M 2253 4666 
L 3047 4666 
L 3047 1625 
L 3713 1625 
L 3713 1100 
L 3047 1100 
L 3047 0 
L 2419 0 
L 2419 1100 
L 313 1100 
L 313 1709 
L 2253 4666 
z
" transform="scale(0.015625)"/>
       </defs>
       <use xlink:href="#DejaVuSans-31"/>
       <use xlink:href="#DejaVuSans-34" x="63.623047"/>
       <use xlink:href="#DejaVuSans-30" x="127.246094"/>
      </g>
     </g>
    </g>
    <g id="text_4">
     <!-- Kondensatordruck in bar -->
     <g transform="translate(125.630156 349.681812) scale(0.18 -0.18)">
      <defs>
       <path id="DejaVuSans-4b" d="M 628 4666 
L 1259 4666 
L 1259 2694 
L 3353 4666 
L 4166 4666 
L 1850 2491 
L 4331 0 
L 3500 0 
L 1259 2247 
L 1259 0 
L 628 0 
L 628 4666 
z
" transform="scale(0.015625)"/>
       <path id="DejaVuSans-6f" d="M 1959 3097 
Q 1497 3097 1228 2736 
Q 959 2375 959 1747 
Q 959 1119 1226 758 
Q 1494 397 1959 397 
Q 2419 397 2687 759 
Q 2956 1122 2956 1747 
Q 2956 2369 2687 2733 
Q 2419 3097 1959 3097 
z
M 1959 3584 
Q 2709 3584 3137 3096 
Q 3566 2609 3566 1747 
Q 3566 888 3137 398 
Q 2709 -91 1959 -91 
Q 1206 -91 779 398 
Q 353 888 353 1747 
Q 353 2609 779 3096 
Q 1206 3584 1959 3584 
z
" transform="scale(0.015625)"/>
       <path id="DejaVuSans-6e" d="M 3513 2113 
L 3513 0 
L 2938 0 
L 2938 2094 
Q 2938 2591 2744 2837 
Q 2550 3084 2163 3084 
Q 1697 3084 1428 2787 
Q 1159 2491 1159 1978 
L 1159 0 
L 581 0 
L 581 3500 
L 1159 3500 
L 1159 2956 
Q 1366 3272 1645 3428 
Q 1925 3584 2291 3584 
Q 2894 3584 3203 3211 
Q 3513 2838 3513 2113 
z
" transform="scale(0.015625)"/>
       <path id="DejaVuSans-64" d="M 2906 2969 
L 2906 4863 
L 3481 4863 
L 3481 0 
L 2906 0 
L 2906 525 
Q 2725 213 2448 61 
Q 2172 -91 1784 -91 
Q 1150 -91 751 415 
Q 353 922 353 1747 
Q 353 2572 751 3078 
Q 1150 3584 1784 3584 
Q 2172 3584 2448 3432 
Q 2725 3281 2906 2969 
z
M 947 1747 
Q 947 1113 1208 752 
Q 1469 391 1925 391 
Q 2381 391 2643 752 
Q 2906 1113 2906 1747 
Q 2906 2381 2643 2742 
Q 2381 3103 1925 3103 
Q 1469 3103 1208 2742 
Q 947 2381 947 1747 
z
" transform="scale(0.015625)"/>
       <path id="DejaVuSans-65" d="M 3597 1894 
L 3597 1613 
L 953 1613 
Q 991 1019 1311 708 
Q 1631 397 2203 397 
Q 2534 397 2845 478 
Q 3156 559 3463 722 
L 3463 178 
Q 3153 47 2828 -22 
Q 2503 -91 2169 -91 
Q 1331 -91 842 396 
Q 353 884 353 1716 
Q 353 2575 817 3079 
Q 1281 3584 2069 3584 
Q 2775 3584 3186 3129 
Q 3597 2675 3597 1894 
z
M 3022 2063 
Q 3016 2534 2758 2815 
Q 2500 3097 2075 3097 
Q 1594 3097 1305 2825 
Q 1016 2553 972 2059 
L 3022 2063 
z
" transform="scale(0.015625)"/>
       <path id="DejaVuSans-73" d="M 2834 3397 
L 2834 2853 
Q 2591 2978 2328 3040 
Q 2066 3103 1784 3103 
Q 1356 3103 1142 2972 
Q 928 2841 928 2578 
Q 928 2378 1081 2264 
Q 1234 2150 1697 2047 
L 1894 2003 
Q 2506 1872 2764 1633 
Q 3022 1394 3022 966 
Q 3022 478 2636 193 
Q 2250 -91 1575 -91 
Q 1294 -91 989 -36 
Q 684 19 347 128 
L 347 722 
Q 666 556 975 473 
Q 1284 391 1588 391 
Q 1994 391 2212 530 
Q 2431 669 2431 922 
Q 2431 1156 2273 1281 
Q 2116 1406 1581 1522 
L 1381 1569 
Q 847 1681 609 1914 
Q 372 2147 372 2553 
Q 372 3047 722 3315 
Q 1072 3584 1716 3584 
Q 2034 3584 2315 3537 
Q 2597 3491 2834 3397 
z
" transform="scale(0.015625)"/>
       <path id="DejaVuSans-61" d="M 2194 1759 
Q 1497 1759 1228 1600 
Q 959 1441 959 1056 
Q 959 750 1161 570 
Q 1363 391 1709 391 
Q 2188 391 2477 730 
Q 2766 1069 2766 1631 
L 2766 1759 
L 2194 1759 
z
M 3341 1997 
L 3341 0 
L 2766 0 
L 2766 531 
Q 2569 213 2275 61 
Q 1981 -91 1556 -91 
Q 1019 -91 701 211 
Q 384 513 384 1019 
Q 384 1609 779 1909 
Q 1175 2209 1959 2209 
L 2766 2209 
L 2766 2266 
Q 2766 2663 2505 2880 
Q 2244 3097 1772 3097 
Q 1472 3097 1187 3025 
Q 903 2953 641 2809 
L 641 3341 
Q 956 3463 1253 3523 
Q 1550 3584 1831 3584 
Q 2591 3584 2966 3190 
Q 3341 2797 3341 1997 
z
" transform="scale(0.015625)"/>
       <path id="DejaVuSans-74" d="M 1172 4494 
L 1172 3500 
L 2356 3500 
L 2356 3053 
L 1172 3053 
L 1172 1153 
Q 1172 725 1289 603 
Q 1406 481 1766 481 
L 2356 481 
L 2356 0 
L 1766 0 
Q 1100 0 847 248 
Q 594 497 594 1153 
L 594 3053 
L 172 3053 
L 172 3500 
L 594 3500 
L 594 4494 
L 1172 4494 
z
" transform="scale(0.015625)"/>
       <path id="DejaVuSans-72" d="M 2631 2963 
Q 2534 3019 2420 3045 
Q 2306 3072 2169 3072 
Q 1681 3072 1420 2755 
Q 1159 2438 1159 1844 
L 1159 0 
L 581 0 
L 581 3500 
L 1159 3500 
L 1159 2956 
Q 1341 3275 1631 3429 
Q 1922 3584 2338 3584 
Q 2397 3584 2469 3576 
Q 2541 3569 2628 3553 
L 2631 2963 
z
" transform="scale(0.015625)"/>
       <path id="DejaVuSans-75" d="M 544 1381 
L 544 3500 
L 1119 3500 
L 1119 1403 
Q 1119 906 1312 657 
Q 1506 409 1894 409 
Q 2359 409 2629 706 
Q 2900 1003 2900 1516 
L 2900 3500 
L 3475 3500 
L 3475 0 
L 2900 0 
L 2900 538 
Q 2691 219 2414 64 
Q 2138 -91 1772 -91 
Q 1169 -91 856 284 
Q 544 659 544 1381 
z
M 1991 3584 
L 1991 3584 
z
" transform="scale(0.015625)"/>
       <path id="DejaVuSans-63" d="M 3122 3366 
L 3122 2828 
Q 2878 2963 2633 3030 
Q 2388 3097 2138 3097 
Q 1578 3097 1268 2742 
Q 959 2388 959 1747 
Q 959 1106 1268 751 
Q 1578 397 2138 397 
Q 2388 397 2633 464 
Q 2878 531 3122 666 
L 3122 134 
Q 2881 22 2623 -34 
Q 2366 -91 2075 -91 
Q 1284 -91 818 406 
Q 353 903 353 1747 
Q 353 2603 823 3093 
Q 1294 3584 2113 3584 
Q 2378 3584 2631 3529 
Q 2884 3475 3122 3366 
z
" transform="scale(0.015625)"/>
       <path id="DejaVuSans-6b" d="M 581 4863 
L 1159 4863 
L 1159 1991 
L 2875 3500 
L 3609 3500 
L 1753 1863 
L 3688 0 
L 2938 0 
L 1159 1709 
L 1159 0 
L 581 0 
L 581 4863 
z
" transform="scale(0.015625)"/>
       <path id="DejaVuSans-20" transform="scale(0.015625)"/>
       <path id="DejaVuSans-69" d="M 603 3500 
L 1178 3500 
L 1178 0 
L 603 0 
L 603 3500 
z
M 603 4863 
L 1178 4863 
L 1178 4134 
L 603 4134 
L 603 4863 
z
" transform="scale(0.015625)"/>
       <path id="DejaVuSans-62" d="M 3116 1747 
Q 3116 2381 2855 2742 
Q 2594 3103 2138 3103 
Q 1681 3103 1420 2742 
Q 1159 2381 1159 1747 
Q 1159 1113 1420 752 
Q 1681 391 2138 391 
Q 2594 391 2855 752 
Q 3116 1113 3116 1747 
z
M 1159 2969 
Q 1341 3281 1617 3432 
Q 1894 3584 2278 3584 
Q 2916 3584 3314 3078 
Q 3713 2572 3713 1747 
Q 3713 922 3314 415 
Q 2916 -91 2278 -91 
Q 1894 -91 1617 61 
Q 1341 213 1159 525 
L 1159 0 
L 581 0 
L 581 4863 
L 1159 4863 
L 1159 2969 
z
" transform="scale(0.015625)"/>
      </defs>
      <use xlink:href="#DejaVuSans-4b"/>
      <use xlink:href="#DejaVuSans-6f" x="60.576172"/>
      <use xlink:href="#DejaVuSans-6e" x="121.757812"/>
      <use xlink:href="#DejaVuSans-64" x="185.136719"/>
      <use xlink:href="#DejaVuSans-65" x="248.613281"/>
      <use xlink:href="#DejaVuSans-6e" x="310.136719"/>
      <use xlink:href="#DejaVuSans-73" x="373.515625"/>
      <use xlink:href="#DejaVuSans-61" x="425.615234"/>
      <use xlink:href="#DejaVuSans-74" x="486.894531"/>
      <use xlink:href="#DejaVuSans-6f" x="526.103516"/>
      <use xlink:href="#DejaVuSans-72" x="587.285156"/>
      <use xlink:href="#DejaVuSans-64" x="626.648438"/>
      <use xlink:href="#DejaVuSans-72" x="690.125"/>
      <use xlink:href="#DejaVuSans-75" x="731.238281"/>
      <use xlink:href="#DejaVuSans-63" x="794.617188"/>
      <use xlink:href="#DejaVuSans-6b" x="849.597656"/>
      <use xlink:href="#DejaVuSans-20" x="907.507812"/>
      <use xlink:href="#DejaVuSans-69" x="939.294922"/>
      <use xlink:href="#DejaVuSans-6e" x="967.078125"/>
      <use xlink:href="#DejaVuSans-20" x="1030.457031"/>
      <use xlink:href="#DejaVuSans-62" x="1062.244141"/>
      <use xlink:href="#DejaVuSans-61" x="1125.720703"/>
      <use xlink:href="#DejaVuSans-72" x="1187"/>
     </g>
    </g>
   </g>
   <g id="matplotlib.axis_2">
    <g id="ytick_1">
     <g id="line2d_4">
      <defs>
       <path id="m7978db1789" d="M 0 0 
L -3.5 0 
" style="stroke: #000000; stroke-width: 0.8"/>
      </defs>
      <g>
       <use xlink:href="#m7978db1789" x="57.6" y="307.584" style="stroke: #000000; stroke-width: 0.8"/>
      </g>
     </g>
     <g id="text_5">
      <!-- 0 -->
      <g transform="translate(39.1475 314.422594) scale(0.18 -0.18)">
       <use xlink:href="#DejaVuSans-30"/>
      </g>
     </g>
    </g>
    <g id="ytick_2">
     <g id="line2d_5">
      <g>
       <use xlink:href="#m7978db1789" x="57.6" y="242.907977" style="stroke: #000000; stroke-width: 0.8"/>
      </g>
     </g>
     <g id="text_6">
      <!-- 1 -->
      <g transform="translate(39.1475 249.74657) scale(0.18 -0.18)">
       <use xlink:href="#DejaVuSans-31"/>
      </g>
     </g>
    </g>
    <g id="ytick_3">
     <g id="line2d_6">
      <g>
       <use xlink:href="#m7978db1789" x="57.6" y="178.231953" style="stroke: #000000; stroke-width: 0.8"/>
      </g>
     </g>
     <g id="text_7">
      <!-- 2 -->
      <g transform="translate(39.1475 185.070547) scale(0.18 -0.18)">
       <use xlink:href="#DejaVuSans-32"/>
      </g>
     </g>
    </g>
    <g id="ytick_4">
     <g id="line2d_7">
      <g>
       <use xlink:href="#m7978db1789" x="57.6" y="113.55593" style="stroke: #000000; stroke-width: 0.8"/>
      </g>
     </g>
     <g id="text_8">
      <!-- 3 -->
      <g transform="translate(39.1475 120.394523) scale(0.18 -0.18)">
       <defs>
        <path id="DejaVuSans-33" d="M 2597 2516 
Q 3050 2419 3304 2112 
Q 3559 1806 3559 1356 
Q 3559 666 3084 287 
Q 2609 -91 1734 -91 
Q 1441 -91 1130 -33 
Q 819 25 488 141 
L 488 750 
Q 750 597 1062 519 
Q 1375 441 1716 441 
Q 2309 441 2620 675 
Q 2931 909 2931 1356 
Q 2931 1769 2642 2001 
Q 2353 2234 1838 2234 
L 1294 2234 
L 1294 2753 
L 1863 2753 
Q 2328 2753 2575 2939 
Q 2822 3125 2822 3475 
Q 2822 3834 2567 4026 
Q 2313 4219 1838 4219 
Q 1578 4219 1281 4162 
Q 984 4106 628 3988 
L 628 4550 
Q 988 4650 1302 4700 
Q 1616 4750 1894 4750 
Q 2613 4750 3031 4423 
Q 3450 4097 3450 3541 
Q 3450 3153 3228 2886 
Q 3006 2619 2597 2516 
z
" transform="scale(0.015625)"/>
       </defs>
       <use xlink:href="#DejaVuSans-33"/>
      </g>
     </g>
    </g>
    <g id="ytick_5">
     <g id="line2d_8">
      <g>
       <use xlink:href="#m7978db1789" x="57.6" y="48.879906" style="stroke: #000000; stroke-width: 0.8"/>
      </g>
     </g>
     <g id="text_9">
      <!-- 4 -->
      <g transform="translate(39.1475 55.7185) scale(0.18 -0.18)">
       <use xlink:href="#DejaVuSans-34"/>
      </g>
     </g>
    </g>
    <g id="text_10">
     <!-- Exergievernichtung in MW -->
     <g transform="translate(31.404062 292.593937) rotate(-90) scale(0.18 -0.18)">
      <defs>
       <path id="DejaVuSans-45" d="M 628 4666 
L 3578 4666 
L 3578 4134 
L 1259 4134 
L 1259 2753 
L 3481 2753 
L 3481 2222 
L 1259 2222 
L 1259 531 
L 3634 531 
L 3634 0 
L 628 0 
L 628 4666 
z
" transform="scale(0.015625)"/>
       <path id="DejaVuSans-78" d="M 3513 3500 
L 2247 1797 
L 3578 0 
L 2900 0 
L 1881 1375 
L 863 0 
L 184 0 
L 1544 1831 
L 300 3500 
L 978 3500 
L 1906 2253 
L 2834 3500 
L 3513 3500 
z
" transform="scale(0.015625)"/>
       <path id="DejaVuSans-67" d="M 2906 1791 
Q 2906 2416 2648 2759 
Q 2391 3103 1925 3103 
Q 1463 3103 1205 2759 
Q 947 2416 947 1791 
Q 947 1169 1205 825 
Q 1463 481 1925 481 
Q 2391 481 2648 825 
Q 2906 1169 2906 1791 
z
M 3481 434 
Q 3481 -459 3084 -895 
Q 2688 -1331 1869 -1331 
Q 1566 -1331 1297 -1286 
Q 1028 -1241 775 -1147 
L 775 -588 
Q 1028 -725 1275 -790 
Q 1522 -856 1778 -856 
Q 2344 -856 2625 -561 
Q 2906 -266 2906 331 
L 2906 616 
Q 2728 306 2450 153 
Q 2172 0 1784 0 
Q 1141 0 747 490 
Q 353 981 353 1791 
Q 353 2603 747 3093 
Q 1141 3584 1784 3584 
Q 2172 3584 2450 3431 
Q 2728 3278 2906 2969 
L 2906 3500 
L 3481 3500 
L 3481 434 
z
" transform="scale(0.015625)"/>
       <path id="DejaVuSans-76" d="M 191 3500 
L 800 3500 
L 1894 563 
L 2988 3500 
L 3597 3500 
L 2284 0 
L 1503 0 
L 191 3500 
z
" transform="scale(0.015625)"/>
       <path id="DejaVuSans-68" d="M 3513 2113 
L 3513 0 
L 2938 0 
L 2938 2094 
Q 2938 2591 2744 2837 
Q 2550 3084 2163 3084 
Q 1697 3084 1428 2787 
Q 1159 2491 1159 1978 
L 1159 0 
L 581 0 
L 581 4863 
L 1159 4863 
L 1159 2956 
Q 1366 3272 1645 3428 
Q 1925 3584 2291 3584 
Q 2894 3584 3203 3211 
Q 3513 2838 3513 2113 
z
" transform="scale(0.015625)"/>
       <path id="DejaVuSans-4d" d="M 628 4666 
L 1569 4666 
L 2759 1491 
L 3956 4666 
L 4897 4666 
L 4897 0 
L 4281 0 
L 4281 4097 
L 3078 897 
L 2444 897 
L 1241 4097 
L 1241 0 
L 628 0 
L 628 4666 
z
" transform="scale(0.015625)"/>
       <path id="DejaVuSans-57" d="M 213 4666 
L 850 4666 
L 1831 722 
L 2809 4666 
L 3519 4666 
L 4500 722 
L 5478 4666 
L 6119 4666 
L 4947 0 
L 4153 0 
L 3169 4050 
L 2175 0 
L 1381 0 
L 213 4666 
z
" transform="scale(0.015625)"/>
      </defs>
      <use xlink:href="#DejaVuSans-45"/>
      <use xlink:href="#DejaVuSans-78" x="63.183594"/>
      <use xlink:href="#DejaVuSans-65" x="119.238281"/>
      <use xlink:href="#DejaVuSans-72" x="180.761719"/>
      <use xlink:href="#DejaVuSans-67" x="220.125"/>
      <use xlink:href="#DejaVuSans-69" x="283.601562"/>
      <use xlink:href="#DejaVuSans-65" x="311.384766"/>
      <use xlink:href="#DejaVuSans-76" x="372.908203"/>
      <use xlink:href="#DejaVuSans-65" x="432.087891"/>
      <use xlink:href="#DejaVuSans-72" x="493.611328"/>
      <use xlink:href="#DejaVuSans-6e" x="532.974609"/>
      <use xlink:href="#DejaVuSans-69" x="596.353516"/>
      <use xlink:href="#DejaVuSans-63" x="624.136719"/>
      <use xlink:href="#DejaVuSans-68" x="679.117188"/>
      <use xlink:href="#DejaVuSans-74" x="742.496094"/>
      <use xlink:href="#DejaVuSans-75" x="781.705078"/>
      <use xlink:href="#DejaVuSans-6e" x="845.083984"/>
      <use xlink:href="#DejaVuSans-67" x="908.462891"/>
      <use xlink:href="#DejaVuSans-20" x="971.939453"/>
      <use xlink:href="#DejaVuSans-69" x="1003.726562"/>
      <use xlink:href="#DejaVuSans-6e" x="1031.509766"/>
      <use xlink:href="#DejaVuSans-20" x="1094.888672"/>
      <use xlink:href="#DejaVuSans-4d" x="1126.675781"/>
      <use xlink:href="#DejaVuSans-57" x="1212.955078"/>
     </g>
    </g>
   </g>
   <g id="patch_83">
    <path d="M 57.6 307.584 
L 57.6 41.472 
" style="fill: none; stroke: #000000; stroke-width: 0.8; stroke-linejoin: miter; stroke-linecap: square"/>
   </g>
   <g id="patch_84">
    <path d="M 414.72 307.584 
L 414.72 41.472 
" style="fill: none; stroke: #000000; stroke-width: 0.8; stroke-linejoin: miter; stroke-linecap: square"/>
   </g>
   <g id="patch_85">
    <path d="M 57.6 307.584 
L 414.72 307.584 
" style="fill: none; stroke: #000000; stroke-width: 0.8; stroke-linejoin: miter; stroke-linecap: square"/>
   </g>
   <g id="patch_86">
    <path d="M 57.6 41.472 
L 414.72 41.472 
" style="fill: none; stroke: #000000; stroke-width: 0.8; stroke-linejoin: miter; stroke-linecap: square"/>
   </g>
   <g id="legend_1">
    <g id="patch_87">
     <path d="M 236.739375 298.584 
L 402.12 298.584 
Q 405.72 298.584 405.72 294.984 
L 405.72 191.1015 
Q 405.72 187.5015 402.12 187.5015 
L 236.739375 187.5015 
Q 233.139375 187.5015 233.139375 191.1015 
L 233.139375 294.984 
Q 233.139375 298.584 236.739375 298.584 
z
" style="fill: #ffffff; opacity: 0.8; stroke: #cccccc; stroke-linejoin: miter"/>
    </g>
    <g id="patch_88">
     <path d="M 240.339375 208.378687 
L 276.339375 208.378687 
L 276.339375 195.778687 
L 240.339375 195.778687 
z
" style="fill: #1f77b4"/>
    </g>
    <g id="text_11">
     <!-- Gas cooler -->
     <g transform="translate(290.739375 208.378687) scale(0.18 -0.18)">
      <defs>
       <path id="DejaVuSans-47" d="M 3809 666 
L 3809 1919 
L 2778 1919 
L 2778 2438 
L 4434 2438 
L 4434 434 
Q 4069 175 3628 42 
Q 3188 -91 2688 -91 
Q 1594 -91 976 548 
Q 359 1188 359 2328 
Q 359 3472 976 4111 
Q 1594 4750 2688 4750 
Q 3144 4750 3555 4637 
Q 3966 4525 4313 4306 
L 4313 3634 
Q 3963 3931 3569 4081 
Q 3175 4231 2741 4231 
Q 1884 4231 1454 3753 
Q 1025 3275 1025 2328 
Q 1025 1384 1454 906 
Q 1884 428 2741 428 
Q 3075 428 3337 486 
Q 3600 544 3809 666 
z
" transform="scale(0.015625)"/>
       <path id="DejaVuSans-6c" d="M 603 4863 
L 1178 4863 
L 1178 0 
L 603 0 
L 603 4863 
z
" transform="scale(0.015625)"/>
      </defs>
      <use xlink:href="#DejaVuSans-47"/>
      <use xlink:href="#DejaVuSans-61" x="77.490234"/>
      <use xlink:href="#DejaVuSans-73" x="138.769531"/>
      <use xlink:href="#DejaVuSans-20" x="190.869141"/>
      <use xlink:href="#DejaVuSans-63" x="222.65625"/>
      <use xlink:href="#DejaVuSans-6f" x="277.636719"/>
      <use xlink:href="#DejaVuSans-6f" x="338.818359"/>
      <use xlink:href="#DejaVuSans-6c" x="400"/>
      <use xlink:href="#DejaVuSans-65" x="427.783203"/>
      <use xlink:href="#DejaVuSans-72" x="489.306641"/>
     </g>
    </g>
    <g id="patch_89">
     <path d="M 240.339375 234.799312 
L 276.339375 234.799312 
L 276.339375 222.199312 
L 240.339375 222.199312 
z
" style="fill: #ff7f0e"/>
    </g>
    <g id="text_12">
     <!-- Evaporator -->
     <g transform="translate(290.739375 234.799312) scale(0.18 -0.18)">
      <defs>
       <path id="DejaVuSans-70" d="M 1159 525 
L 1159 -1331 
L 581 -1331 
L 581 3500 
L 1159 3500 
L 1159 2969 
Q 1341 3281 1617 3432 
Q 1894 3584 2278 3584 
Q 2916 3584 3314 3078 
Q 3713 2572 3713 1747 
Q 3713 922 3314 415 
Q 2916 -91 2278 -91 
Q 1894 -91 1617 61 
Q 1341 213 1159 525 
z
M 3116 1747 
Q 3116 2381 2855 2742 
Q 2594 3103 2138 3103 
Q 1681 3103 1420 2742 
Q 1159 2381 1159 1747 
Q 1159 1113 1420 752 
Q 1681 391 2138 391 
Q 2594 391 2855 752 
Q 3116 1113 3116 1747 
z
" transform="scale(0.015625)"/>
      </defs>
      <use xlink:href="#DejaVuSans-45"/>
      <use xlink:href="#DejaVuSans-76" x="63.183594"/>
      <use xlink:href="#DejaVuSans-61" x="122.363281"/>
      <use xlink:href="#DejaVuSans-70" x="183.642578"/>
      <use xlink:href="#DejaVuSans-6f" x="247.119141"/>
      <use xlink:href="#DejaVuSans-72" x="308.300781"/>
      <use xlink:href="#DejaVuSans-61" x="349.414062"/>
      <use xlink:href="#DejaVuSans-74" x="410.693359"/>
      <use xlink:href="#DejaVuSans-6f" x="449.902344"/>
      <use xlink:href="#DejaVuSans-72" x="511.083984"/>
     </g>
    </g>
    <g id="patch_90">
     <path d="M 240.339375 261.219937 
L 276.339375 261.219937 
L 276.339375 248.619937 
L 240.339375 248.619937 
z
" style="fill: #2ca02c"/>
    </g>
    <g id="text_13">
     <!-- Valve -->
     <g transform="translate(290.739375 261.219937) scale(0.18 -0.18)">
      <defs>
       <path id="DejaVuSans-56" d="M 1831 0 
L 50 4666 
L 709 4666 
L 2188 738 
L 3669 4666 
L 4325 4666 
L 2547 0 
L 1831 0 
z
" transform="scale(0.015625)"/>
      </defs>
      <use xlink:href="#DejaVuSans-56"/>
      <use xlink:href="#DejaVuSans-61" x="60.658203"/>
      <use xlink:href="#DejaVuSans-6c" x="121.9375"/>
      <use xlink:href="#DejaVuSans-76" x="149.720703"/>
      <use xlink:href="#DejaVuSans-65" x="208.900391"/>
     </g>
    </g>
    <g id="patch_91">
     <path d="M 240.339375 287.640562 
L 276.339375 287.640562 
L 276.339375 275.040562 
L 240.339375 275.040562 
z
" style="fill: #d62728"/>
    </g>
    <g id="text_14">
     <!-- Compressor -->
     <g transform="translate(290.739375 287.640562) scale(0.18 -0.18)">
      <defs>
       <path id="DejaVuSans-43" d="M 4122 4306 
L 4122 3641 
Q 3803 3938 3442 4084 
Q 3081 4231 2675 4231 
Q 1875 4231 1450 3742 
Q 1025 3253 1025 2328 
Q 1025 1406 1450 917 
Q 1875 428 2675 428 
Q 3081 428 3442 575 
Q 3803 722 4122 1019 
L 4122 359 
Q 3791 134 3420 21 
Q 3050 -91 2638 -91 
Q 1578 -91 968 557 
Q 359 1206 359 2328 
Q 359 3453 968 4101 
Q 1578 4750 2638 4750 
Q 3056 4750 3426 4639 
Q 3797 4528 4122 4306 
z
" transform="scale(0.015625)"/>
       <path id="DejaVuSans-6d" d="M 3328 2828 
Q 3544 3216 3844 3400 
Q 4144 3584 4550 3584 
Q 5097 3584 5394 3201 
Q 5691 2819 5691 2113 
L 5691 0 
L 5113 0 
L 5113 2094 
Q 5113 2597 4934 2840 
Q 4756 3084 4391 3084 
Q 3944 3084 3684 2787 
Q 3425 2491 3425 1978 
L 3425 0 
L 2847 0 
L 2847 2094 
Q 2847 2600 2669 2842 
Q 2491 3084 2119 3084 
Q 1678 3084 1418 2786 
Q 1159 2488 1159 1978 
L 1159 0 
L 581 0 
L 581 3500 
L 1159 3500 
L 1159 2956 
Q 1356 3278 1631 3431 
Q 1906 3584 2284 3584 
Q 2666 3584 2933 3390 
Q 3200 3197 3328 2828 
z
" transform="scale(0.015625)"/>
      </defs>
      <use xlink:href="#DejaVuSans-43"/>
      <use xlink:href="#DejaVuSans-6f" x="69.824219"/>
      <use xlink:href="#DejaVuSans-6d" x="131.005859"/>
      <use xlink:href="#DejaVuSans-70" x="228.417969"/>
      <use xlink:href="#DejaVuSans-72" x="291.894531"/>
      <use xlink:href="#DejaVuSans-65" x="330.757812"/>
      <use xlink:href="#DejaVuSans-73" x="392.28125"/>
      <use xlink:href="#DejaVuSans-73" x="444.380859"/>
      <use xlink:href="#DejaVuSans-6f" x="496.480469"/>
      <use xlink:href="#DejaVuSans-72" x="557.662109"/>
     </g>
    </g>
   </g>
  </g>
 </g>
 <defs>
  <clipPath id="p4a820f18e1">
   <rect x="57.6" y="41.472" width="357.12" height="266.112"/>
  </clipPath>
 </defs>
</svg>
