<?xml version="1.0" encoding="utf-8" standalone="no"?>
<!DOCTYPE svg PUBLIC "-//W3C//DTD SVG 1.1//EN"
  "http://www.w3.org/Graphics/SVG/1.1/DTD/svg11.dtd">
<svg xmlns:xlink="http://www.w3.org/1999/xlink" width="460.8pt" height="345.6pt" viewBox="0 0 460.8 345.6" xmlns="http://www.w3.org/2000/svg" version="1.1">
 <metadata>
  <rdf:RDF xmlns:dc="http://purl.org/dc/elements/1.1/" xmlns:cc="http://creativecommons.org/ns#" xmlns:rdf="http://www.w3.org/1999/02/22-rdf-syntax-ns#">
   <cc:Work>
    <dc:type rdf:resource="http://purl.org/dc/dcmitype/StillImage"/>
    <dc:date>2023-03-30T16:19:59.554547</dc:date>
    <dc:format>image/svg+xml</dc:format>
    <dc:creator>
     <cc:Agent>
      <dc:title>Matplotlib v3.6.1, https://matplotlib.org/</dc:title>
     </cc:Agent>
    </dc:creator>
   </cc:Work>
  </rdf:RDF>
 </metadata>
 <defs>
  <style type="text/css">*{stroke-linejoin: round; stroke-linecap: butt}</style>
 </defs>
 <g id="figure_1">
  <g id="patch_1">
   <path d="M 0 345.6 
L 460.8 345.6 
L 460.8 0 
L 0 0 
z
" style="fill: #ffffff"/>
  </g>
  <g id="axes_1">
   <g id="patch_2">
    <path d="M 57.6 307.584 
L 414.72 307.584 
L 414.72 41.472 
L 57.6 41.472 
z
" style="fill: #ffffff"/>
   </g>
   <g id="patch_3">
    <path d="M 73.832727 307.584 
L 75.335758 307.584 
L 75.335758 301.006722 
L 73.832727 301.006722 
z
" clip-path="url(#p0ea58bf9ef)" style="fill: #1f77b4"/>
   </g>
   <g id="patch_4">
    <path d="M 90.840702 307.584 
L 92.343732 307.584 
L 92.343732 299.289246 
L 90.840702 299.289246 
z
" clip-path="url(#p0ea58bf9ef)" style="fill: #1f77b4"/>
   </g>
   <g id="patch_5">
    <path d="M 107.848676 307.584 
L 109.351707 307.584 
L 109.351707 297.763634 
L 107.848676 297.763634 
z
" clip-path="url(#p0ea58bf9ef)" style="fill: #1f77b4"/>
   </g>
   <g id="patch_6">
    <path d="M 124.856651 307.584 
L 126.359681 307.584 
L 126.359681 296.401381 
L 124.856651 296.401381 
z
" clip-path="url(#p0ea58bf9ef)" style="fill: #1f77b4"/>
   </g>
   <g id="patch_7">
    <path d="M 141.864625 307.584 
L 143.367656 307.584 
L 143.367656 295.177857 
L 141.864625 295.177857 
z
" clip-path="url(#p0ea58bf9ef)" style="fill: #1f77b4"/>
   </g>
   <g id="patch_8">
    <path d="M 158.8726 307.584 
L 160.37563 307.584 
L 160.37563 294.072298 
L 158.8726 294.072298 
z
" clip-path="url(#p0ea58bf9ef)" style="fill: #1f77b4"/>
   </g>
   <g id="patch_9">
    <path d="M 175.880574 307.584 
L 177.383604 307.584 
L 177.383604 293.067383 
L 175.880574 293.067383 
z
" clip-path="url(#p0ea58bf9ef)" style="fill: #1f77b4"/>
   </g>
   <g id="patch_10">
    <path d="M 192.888549 307.584 
L 194.391579 307.584 
L 194.391579 292.148729 
L 192.888549 292.148729 
z
" clip-path="url(#p0ea58bf9ef)" style="fill: #1f77b4"/>
   </g>
   <g id="patch_11">
    <path d="M 209.896523 307.584 
L 211.399553 307.584 
L 211.399553 291.30441 
L 209.896523 291.30441 
z
" clip-path="url(#p0ea58bf9ef)" style="fill: #1f77b4"/>
   </g>
   <g id="patch_12">
    <path d="M 226.904498 307.584 
L 228.407528 307.584 
L 228.407528 290.52452 
L 226.904498 290.52452 
z
" clip-path="url(#p0ea58bf9ef)" style="fill: #1f77b4"/>
   </g>
   <g id="patch_13">
    <path d="M 243.912472 307.584 
L 245.415502 307.584 
L 245.415502 289.800812 
L 243.912472 289.800812 
z
" clip-path="url(#p0ea58bf9ef)" style="fill: #1f77b4"/>
   </g>
   <g id="patch_14">
    <path d="M 260.920447 307.584 
L 262.423477 307.584 
L 262.423477 289.126391 
L 260.920447 289.126391 
z
" clip-path="url(#p0ea58bf9ef)" style="fill: #1f77b4"/>
   </g>
   <g id="patch_15">
    <path d="M 277.928421 307.584 
L 279.431451 307.584 
L 279.431451 288.495462 
L 277.928421 288.495462 
z
" clip-path="url(#p0ea58bf9ef)" style="fill: #1f77b4"/>
   </g>
   <g id="patch_16">
    <path d="M 294.936396 307.584 
L 296.439426 307.584 
L 296.439426 287.903134 
L 294.936396 287.903134 
z
" clip-path="url(#p0ea58bf9ef)" style="fill: #1f77b4"/>
   </g>
   <g id="patch_17">
    <path d="M 311.94437 307.584 
L 313.4474 307.584 
L 313.4474 287.345253 
L 311.94437 287.345253 
z
" clip-path="url(#p0ea58bf9ef)" style="fill: #1f77b4"/>
   </g>
   <g id="patch_18">
    <path d="M 328.952344 307.584 
L 330.455375 307.584 
L 330.455375 286.818272 
L 328.952344 286.818272 
z
" clip-path="url(#p0ea58bf9ef)" style="fill: #1f77b4"/>
   </g>
   <g id="patch_19">
    <path d="M 345.960319 307.584 
L 347.463349 307.584 
L 347.463349 286.319142 
L 345.960319 286.319142 
z
" clip-path="url(#p0ea58bf9ef)" style="fill: #1f77b4"/>
   </g>
   <g id="patch_20">
    <path d="M 362.968293 307.584 
L 364.471324 307.584 
L 364.471324 285.845233 
L 362.968293 285.845233 
z
" clip-path="url(#p0ea58bf9ef)" style="fill: #1f77b4"/>
   </g>
   <g id="patch_21">
    <path d="M 379.976268 307.584 
L 381.479298 307.584 
L 381.479298 285.394259 
L 379.976268 285.394259 
z
" clip-path="url(#p0ea58bf9ef)" style="fill: #1f77b4"/>
   </g>
   <g id="patch_22">
    <path d="M 396.984242 307.584 
L 398.487273 307.584 
L 398.487273 284.964225 
L 396.984242 284.964225 
z
" clip-path="url(#p0ea58bf9ef)" style="fill: #1f77b4"/>
   </g>
   <g id="patch_23">
    <path d="M 73.832727 301.006722 
L 75.335758 301.006722 
L 75.335758 296.094917 
L 73.832727 296.094917 
z
" clip-path="url(#p0ea58bf9ef)" style="fill: #ff7f0e"/>
   </g>
   <g id="patch_24">
    <path d="M 90.840702 299.289246 
L 92.343732 299.289246 
L 92.343732 294.207276 
L 90.840702 294.207276 
z
" clip-path="url(#p0ea58bf9ef)" style="fill: #ff7f0e"/>
   </g>
   <g id="patch_25">
    <path d="M 107.848676 297.763634 
L 109.351707 297.763634 
L 109.351707 292.554875 
L 107.848676 292.554875 
z
" clip-path="url(#p0ea58bf9ef)" style="fill: #ff7f0e"/>
   </g>
   <g id="patch_26">
    <path d="M 124.856651 296.401381 
L 126.359681 296.401381 
L 126.359681 291.095452 
L 124.856651 291.095452 
z
" clip-path="url(#p0ea58bf9ef)" style="fill: #ff7f0e"/>
   </g>
   <g id="patch_27">
    <path d="M 141.864625 295.177857 
L 143.367656 295.177857 
L 143.367656 289.796143 
L 141.864625 289.796143 
z
" clip-path="url(#p0ea58bf9ef)" style="fill: #ff7f0e"/>
   </g>
   <g id="patch_28">
    <path d="M 158.8726 294.072298 
L 160.37563 294.072298 
L 160.37563 288.630882 
L 158.8726 288.630882 
z
" clip-path="url(#p0ea58bf9ef)" style="fill: #ff7f0e"/>
   </g>
   <g id="patch_29">
    <path d="M 175.880574 293.067383 
L 177.383604 293.067383 
L 177.383604 287.578747 
L 175.880574 287.578747 
z
" clip-path="url(#p0ea58bf9ef)" style="fill: #ff7f0e"/>
   </g>
   <g id="patch_30">
    <path d="M 192.888549 292.148729 
L 194.391579 292.148729 
L 194.391579 286.622802 
L 192.888549 286.622802 
z
" clip-path="url(#p0ea58bf9ef)" style="fill: #ff7f0e"/>
   </g>
   <g id="patch_31">
    <path d="M 209.896523 291.30441 
L 211.399553 291.30441 
L 211.399553 285.749247 
L 209.896523 285.749247 
z
" clip-path="url(#p0ea58bf9ef)" style="fill: #ff7f0e"/>
   </g>
   <g id="patch_32">
    <path d="M 226.904498 290.52452 
L 228.407528 290.52452 
L 228.407528 284.946764 
L 226.904498 284.946764 
z
" clip-path="url(#p0ea58bf9ef)" style="fill: #ff7f0e"/>
   </g>
   <g id="patch_33">
    <path d="M 243.912472 289.800812 
L 245.415502 289.800812 
L 245.415502 284.206015 
L 243.912472 284.206015 
z
" clip-path="url(#p0ea58bf9ef)" style="fill: #ff7f0e"/>
   </g>
   <g id="patch_34">
    <path d="M 260.920447 289.126391 
L 262.423477 289.126391 
L 262.423477 283.519243 
L 260.920447 283.519243 
z
" clip-path="url(#p0ea58bf9ef)" style="fill: #ff7f0e"/>
   </g>
   <g id="patch_35">
    <path d="M 277.928421 288.495462 
L 279.431451 288.495462 
L 279.431451 282.879968 
L 277.928421 282.879968 
z
" clip-path="url(#p0ea58bf9ef)" style="fill: #ff7f0e"/>
   </g>
   <g id="patch_36">
    <path d="M 294.936396 287.903134 
L 296.439426 287.903134 
L 296.439426 282.282738 
L 294.936396 282.282738 
z
" clip-path="url(#p0ea58bf9ef)" style="fill: #ff7f0e"/>
   </g>
   <g id="patch_37">
    <path d="M 311.94437 287.345253 
L 313.4474 287.345253 
L 313.4474 281.722936 
L 311.94437 281.722936 
z
" clip-path="url(#p0ea58bf9ef)" style="fill: #ff7f0e"/>
   </g>
   <g id="patch_38">
    <path d="M 328.952344 286.818272 
L 330.455375 286.818272 
L 330.455375 281.196633 
L 328.952344 281.196633 
z
" clip-path="url(#p0ea58bf9ef)" style="fill: #ff7f0e"/>
   </g>
   <g id="patch_39">
    <path d="M 345.960319 286.319142 
L 347.463349 286.319142 
L 347.463349 280.700459 
L 345.960319 280.700459 
z
" clip-path="url(#p0ea58bf9ef)" style="fill: #ff7f0e"/>
   </g>
   <g id="patch_40">
    <path d="M 362.968293 285.845233 
L 364.471324 285.845233 
L 364.471324 280.231507 
L 362.968293 280.231507 
z
" clip-path="url(#p0ea58bf9ef)" style="fill: #ff7f0e"/>
   </g>
   <g id="patch_41">
    <path d="M 379.976268 285.394259 
L 381.479298 285.394259 
L 381.479298 279.78726 
L 379.976268 279.78726 
z
" clip-path="url(#p0ea58bf9ef)" style="fill: #ff7f0e"/>
   </g>
   <g id="patch_42">
    <path d="M 396.984242 284.964225 
L 398.487273 284.964225 
L 398.487273 279.365522 
L 396.984242 279.365522 
z
" clip-path="url(#p0ea58bf9ef)" style="fill: #ff7f0e"/>
   </g>
   <g id="patch_43">
    <path d="M 73.832727 296.094917 
L 75.335758 296.094917 
L 75.335758 123.162506 
L 73.832727 123.162506 
z
" clip-path="url(#p0ea58bf9ef)" style="fill: #2ca02c"/>
   </g>
   <g id="patch_44">
    <path d="M 90.840702 294.207276 
L 92.343732 294.207276 
L 92.343732 125.188369 
L 90.840702 125.188369 
z
" clip-path="url(#p0ea58bf9ef)" style="fill: #2ca02c"/>
   </g>
   <g id="patch_45">
    <path d="M 107.848676 292.554875 
L 109.351707 292.554875 
L 109.351707 126.634854 
L 107.848676 126.634854 
z
" clip-path="url(#p0ea58bf9ef)" style="fill: #2ca02c"/>
   </g>
   <g id="patch_46">
    <path d="M 124.856651 291.095452 
L 126.359681 291.095452 
L 126.359681 127.693468 
L 124.856651 127.693468 
z
" clip-path="url(#p0ea58bf9ef)" style="fill: #2ca02c"/>
   </g>
   <g id="patch_47">
    <path d="M 141.864625 289.796143 
L 143.367656 289.796143 
L 143.367656 128.47746 
L 141.864625 128.47746 
z
" clip-path="url(#p0ea58bf9ef)" style="fill: #2ca02c"/>
   </g>
   <g id="patch_48">
    <path d="M 158.8726 288.630882 
L 160.37563 288.630882 
L 160.37563 129.058638 
L 158.8726 129.058638 
z
" clip-path="url(#p0ea58bf9ef)" style="fill: #2ca02c"/>
   </g>
   <g id="patch_49">
    <path d="M 175.880574 287.578747 
L 177.383604 287.578747 
L 177.383604 129.484982 
L 175.880574 129.484982 
z
" clip-path="url(#p0ea58bf9ef)" style="fill: #2ca02c"/>
   </g>
   <g id="patch_50">
    <path d="M 192.888549 286.622802 
L 194.391579 286.622802 
L 194.391579 129.789919 
L 192.888549 129.789919 
z
" clip-path="url(#p0ea58bf9ef)" style="fill: #2ca02c"/>
   </g>
   <g id="patch_51">
    <path d="M 209.896523 285.749247 
L 211.399553 285.749247 
L 211.399553 129.997552 
L 209.896523 129.997552 
z
" clip-path="url(#p0ea58bf9ef)" style="fill: #2ca02c"/>
   </g>
   <g id="patch_52">
    <path d="M 226.904498 284.946764 
L 228.407528 284.946764 
L 228.407528 130.125779 
L 226.904498 130.125779 
z
" clip-path="url(#p0ea58bf9ef)" style="fill: #2ca02c"/>
   </g>
   <g id="patch_53">
    <path d="M 243.912472 284.206015 
L 245.415502 284.206015 
L 245.415502 130.188228 
L 243.912472 130.188228 
z
" clip-path="url(#p0ea58bf9ef)" style="fill: #2ca02c"/>
   </g>
   <g id="patch_54">
    <path d="M 260.920447 283.519243 
L 262.423477 283.519243 
L 262.423477 130.195504 
L 260.920447 130.195504 
z
" clip-path="url(#p0ea58bf9ef)" style="fill: #2ca02c"/>
   </g>
   <g id="patch_55">
    <path d="M 277.928421 282.879968 
L 279.431451 282.879968 
L 279.431451 130.156017 
L 277.928421 130.156017 
z
" clip-path="url(#p0ea58bf9ef)" style="fill: #2ca02c"/>
   </g>
   <g id="patch_56">
    <path d="M 294.936396 282.282738 
L 296.439426 282.282738 
L 296.439426 130.076546 
L 294.936396 130.076546 
z
" clip-path="url(#p0ea58bf9ef)" style="fill: #2ca02c"/>
   </g>
   <g id="patch_57">
    <path d="M 311.94437 281.722936 
L 313.4474 281.722936 
L 313.4474 129.962636 
L 311.94437 129.962636 
z
" clip-path="url(#p0ea58bf9ef)" style="fill: #2ca02c"/>
   </g>
   <g id="patch_58">
    <path d="M 328.952344 281.196633 
L 330.455375 281.196633 
L 330.455375 129.818876 
L 328.952344 129.818876 
z
" clip-path="url(#p0ea58bf9ef)" style="fill: #2ca02c"/>
   </g>
   <g id="patch_59">
    <path d="M 345.960319 280.700459 
L 347.463349 280.700459 
L 347.463349 129.649109 
L 345.960319 129.649109 
z
" clip-path="url(#p0ea58bf9ef)" style="fill: #2ca02c"/>
   </g>
   <g id="patch_60">
    <path d="M 362.968293 280.231507 
L 364.471324 280.231507 
L 364.471324 129.456579 
L 362.968293 129.456579 
z
" clip-path="url(#p0ea58bf9ef)" style="fill: #2ca02c"/>
   </g>
   <g id="patch_61">
    <path d="M 379.976268 279.78726 
L 381.479298 279.78726 
L 381.479298 129.244054 
L 379.976268 129.244054 
z
" clip-path="url(#p0ea58bf9ef)" style="fill: #2ca02c"/>
   </g>
   <g id="patch_62">
    <path d="M 396.984242 279.365522 
L 398.487273 279.365522 
L 398.487273 129.013907 
L 396.984242 129.013907 
z
" clip-path="url(#p0ea58bf9ef)" style="fill: #2ca02c"/>
   </g>
   <g id="patch_63">
    <path d="M 73.832727 123.162506 
L 75.335758 123.162506 
L 75.335758 54.144 
L 73.832727 54.144 
z
" clip-path="url(#p0ea58bf9ef)" style="fill: #d62728"/>
   </g>
   <g id="patch_64">
    <path d="M 90.840702 125.188369 
L 92.343732 125.188369 
L 92.343732 56.864429 
L 90.840702 56.864429 
z
" clip-path="url(#p0ea58bf9ef)" style="fill: #d62728"/>
   </g>
   <g id="patch_65">
    <path d="M 107.848676 126.634854 
L 109.351707 126.634854 
L 109.351707 58.891406 
L 107.848676 58.891406 
z
" clip-path="url(#p0ea58bf9ef)" style="fill: #d62728"/>
   </g>
   <g id="patch_66">
    <path d="M 124.856651 127.693468 
L 126.359681 127.693468 
L 126.359681 60.444841 
L 124.856651 60.444841 
z
" clip-path="url(#p0ea58bf9ef)" style="fill: #d62728"/>
   </g>
   <g id="patch_67">
    <path d="M 141.864625 128.47746 
L 143.367656 128.47746 
L 143.367656 61.656403 
L 141.864625 61.656403 
z
" clip-path="url(#p0ea58bf9ef)" style="fill: #d62728"/>
   </g>
   <g id="patch_68">
    <path d="M 158.8726 129.058638 
L 160.37563 129.058638 
L 160.37563 62.61084 
L 158.8726 62.61084 
z
" clip-path="url(#p0ea58bf9ef)" style="fill: #d62728"/>
   </g>
   <g id="patch_69">
    <path d="M 175.880574 129.484982 
L 177.383604 129.484982 
L 177.383604 63.365731 
L 175.880574 63.365731 
z
" clip-path="url(#p0ea58bf9ef)" style="fill: #d62728"/>
   </g>
   <g id="patch_70">
    <path d="M 192.888549 129.789919 
L 194.391579 129.789919 
L 194.391579 63.961894 
L 192.888549 63.961894 
z
" clip-path="url(#p0ea58bf9ef)" style="fill: #d62728"/>
   </g>
   <g id="patch_71">
    <path d="M 209.896523 129.997552 
L 211.399553 129.997552 
L 211.399553 64.429271 
L 209.896523 64.429271 
z
" clip-path="url(#p0ea58bf9ef)" style="fill: #d62728"/>
   </g>
   <g id="patch_72">
    <path d="M 226.904498 130.125779 
L 228.407528 130.125779 
L 228.407528 64.790449 
L 226.904498 64.790449 
z
" clip-path="url(#p0ea58bf9ef)" style="fill: #d62728"/>
   </g>
   <g id="patch_73">
    <path d="M 243.912472 130.188228 
L 245.415502 130.188228 
L 245.415502 65.062874 
L 243.912472 65.062874 
z
" clip-path="url(#p0ea58bf9ef)" style="fill: #d62728"/>
   </g>
   <g id="patch_74">
    <path d="M 260.920447 130.195504 
L 262.423477 130.195504 
L 262.423477 65.260288 
L 260.920447 65.260288 
z
" clip-path="url(#p0ea58bf9ef)" style="fill: #d62728"/>
   </g>
   <g id="patch_75">
    <path d="M 277.928421 130.156017 
L 279.431451 130.156017 
L 279.431451 65.393702 
L 277.928421 65.393702 
z
" clip-path="url(#p0ea58bf9ef)" style="fill: #d62728"/>
   </g>
   <g id="patch_76">
    <path d="M 294.936396 130.076546 
L 296.439426 130.076546 
L 296.439426 65.472066 
L 294.936396 65.472066 
z
" clip-path="url(#p0ea58bf9ef)" style="fill: #d62728"/>
   </g>
   <g id="patch_77">
    <path d="M 311.94437 129.962636 
L 313.4474 129.962636 
L 313.4474 65.502749 
L 311.94437 65.502749 
z
" clip-path="url(#p0ea58bf9ef)" style="fill: #d62728"/>
   </g>
   <g id="patch_78">
    <path d="M 328.952344 129.818876 
L 330.455375 129.818876 
L 330.455375 65.491886 
L 328.952344 65.491886 
z
" clip-path="url(#p0ea58bf9ef)" style="fill: #d62728"/>
   </g>
   <g id="patch_79">
    <path d="M 345.960319 129.649109 
L 347.463349 129.649109 
L 347.463349 65.44463 
L 345.960319 65.44463 
z
" clip-path="url(#p0ea58bf9ef)" style="fill: #d62728"/>
   </g>
   <g id="patch_80">
    <path d="M 362.968293 129.456579 
L 364.471324 129.456579 
L 364.471324 65.365353 
L 362.968293 65.365353 
z
" clip-path="url(#p0ea58bf9ef)" style="fill: #d62728"/>
   </g>
   <g id="patch_81">
    <path d="M 379.976268 129.244054 
L 381.479298 129.244054 
L 381.479298 65.257789 
L 379.976268 65.257789 
z
" clip-path="url(#p0ea58bf9ef)" style="fill: #d62728"/>
   </g>
   <g id="patch_82">
    <path d="M 396.984242 129.013907 
L 398.487273 129.013907 
L 398.487273 65.12515 
L 396.984242 65.12515 
z
" clip-path="url(#p0ea58bf9ef)" style="fill: #d62728"/>
   </g>
   <g id="matplotlib.axis_1">
    <g id="xtick_1">
     <g id="line2d_1">
      <defs>
       <path id="m4ace417773" d="M 0 0 
L 0 3.5 
" style="stroke: #000000; stroke-width: 0.8"/>
      </defs>
      <g>
       <use xlink:href="#m4ace417773" x="89.614545" y="307.584" style="stroke: #000000; stroke-width: 0.8"/>
      </g>
     </g>
     <g id="text_1">
      <!-- 50 -->
      <g transform="translate(78.162045 328.261187) scale(0.18 -0.18)">
       <defs>
        <path id="DejaVuSans-35" d="M 691 4666 
L 3169 4666 
L 3169 4134 
L 1269 4134 
L 1269 2991 
Q 1406 3038 1543 3061 
Q 1681 3084 1819 3084 
Q 2600 3084 3056 2656 
Q 3513 2228 3513 1497 
Q 3513 744 3044 326 
Q 2575 -91 1722 -91 
Q 1428 -91 1123 -41 
Q 819 9 494 109 
L 494 744 
Q 775 591 1075 516 
Q 1375 441 1709 441 
Q 2250 441 2565 725 
Q 2881 1009 2881 1497 
Q 2881 1984 2565 2268 
Q 2250 2553 1709 2553 
Q 1456 2553 1204 2497 
Q 953 2441 691 2322 
L 691 4666 
z
" transform="scale(0.015625)"/>
        <path id="DejaVuSans-30" d="M 2034 4250 
Q 1547 4250 1301 3770 
Q 1056 3291 1056 2328 
Q 1056 1369 1301 889 
Q 1547 409 2034 409 
Q 2525 409 2770 889 
Q 3016 1369 3016 2328 
Q 3016 3291 2770 3770 
Q 2525 4250 2034 4250 
z
M 2034 4750 
Q 2819 4750 3233 4129 
Q 3647 3509 3647 2328 
Q 3647 1150 3233 529 
Q 2819 -91 2034 -91 
Q 1250 -91 836 529 
Q 422 1150 422 2328 
Q 422 3509 836 4129 
Q 1250 4750 2034 4750 
z
" transform="scale(0.015625)"/>
       </defs>
       <use xlink:href="#DejaVuSans-35"/>
       <use xlink:href="#DejaVuSans-30" x="63.623047"/>
      </g>
     </g>
    </g>
    <g id="xtick_2">
     <g id="line2d_2">
      <g>
       <use xlink:href="#m4ace417773" x="164.766061" y="307.584" style="stroke: #000000; stroke-width: 0.8"/>
      </g>
     </g>
     <g id="text_2">
      <!-- 60 -->
      <g transform="translate(153.313561 328.261187) scale(0.18 -0.18)">
       <defs>
        <path id="DejaVuSans-36" d="M 2113 2584 
Q 1688 2584 1439 2293 
Q 1191 2003 1191 1497 
Q 1191 994 1439 701 
Q 1688 409 2113 409 
Q 2538 409 2786 701 
Q 3034 994 3034 1497 
Q 3034 2003 2786 2293 
Q 2538 2584 2113 2584 
z
M 3366 4563 
L 3366 3988 
Q 3128 4100 2886 4159 
Q 2644 4219 2406 4219 
Q 1781 4219 1451 3797 
Q 1122 3375 1075 2522 
Q 1259 2794 1537 2939 
Q 1816 3084 2150 3084 
Q 2853 3084 3261 2657 
Q 3669 2231 3669 1497 
Q 3669 778 3244 343 
Q 2819 -91 2113 -91 
Q 1303 -91 875 529 
Q 447 1150 447 2328 
Q 447 3434 972 4092 
Q 1497 4750 2381 4750 
Q 2619 4750 2861 4703 
Q 3103 4656 3366 4563 
z
" transform="scale(0.015625)"/>
       </defs>
       <use xlink:href="#DejaVuSans-36"/>
       <use xlink:href="#DejaVuSans-30" x="63.623047"/>
      </g>
     </g>
    </g>
    <g id="xtick_3">
     <g id="line2d_3">
      <g>
       <use xlink:href="#m4ace417773" x="239.917576" y="307.584" style="stroke: #000000; stroke-width: 0.8"/>
      </g>
     </g>
     <g id="text_3">
      <!-- 70 -->
      <g transform="translate(228.465076 328.261187) scale(0.18 -0.18)">
       <defs>
        <path id="DejaVuSans-37" d="M 525 4666 
L 3525 4666 
L 3525 4397 
L 1831 0 
L 1172 0 
L 2766 4134 
L 525 4134 
L 525 4666 
z
" transform="scale(0.015625)"/>
       </defs>
       <use xlink:href="#DejaVuSans-37"/>
       <use xlink:href="#DejaVuSans-30" x="63.623047"/>
      </g>
     </g>
    </g>
    <g id="xtick_4">
     <g id="line2d_4">
      <g>
       <use xlink:href="#m4ace417773" x="315.069091" y="307.584" style="stroke: #000000; stroke-width: 0.8"/>
      </g>
     </g>
     <g id="text_4">
      <!-- 80 -->
      <g transform="translate(303.616591 328.261187) scale(0.18 -0.18)">
       <defs>
        <path id="DejaVuSans-38" d="M 2034 2216 
Q 1584 2216 1326 1975 
Q 1069 1734 1069 1313 
Q 1069 891 1326 650 
Q 1584 409 2034 409 
Q 2484 409 2743 651 
Q 3003 894 3003 1313 
Q 3003 1734 2745 1975 
Q 2488 2216 2034 2216 
z
M 1403 2484 
Q 997 2584 770 2862 
Q 544 3141 544 3541 
Q 544 4100 942 4425 
Q 1341 4750 2034 4750 
Q 2731 4750 3128 4425 
Q 3525 4100 3525 3541 
Q 3525 3141 3298 2862 
Q 3072 2584 2669 2484 
Q 3125 2378 3379 2068 
Q 3634 1759 3634 1313 
Q 3634 634 3220 271 
Q 2806 -91 2034 -91 
Q 1263 -91 848 271 
Q 434 634 434 1313 
Q 434 1759 690 2068 
Q 947 2378 1403 2484 
z
M 1172 3481 
Q 1172 3119 1398 2916 
Q 1625 2713 2034 2713 
Q 2441 2713 2670 2916 
Q 2900 3119 2900 3481 
Q 2900 3844 2670 4047 
Q 2441 4250 2034 4250 
Q 1625 4250 1398 4047 
Q 1172 3844 1172 3481 
z
" transform="scale(0.015625)"/>
       </defs>
       <use xlink:href="#DejaVuSans-38"/>
       <use xlink:href="#DejaVuSans-30" x="63.623047"/>
      </g>
     </g>
    </g>
    <g id="xtick_5">
     <g id="line2d_5">
      <g>
       <use xlink:href="#m4ace417773" x="390.220606" y="307.584" style="stroke: #000000; stroke-width: 0.8"/>
      </g>
     </g>
     <g id="text_5">
      <!-- 90 -->
      <g transform="translate(378.768106 328.261187) scale(0.18 -0.18)">
       <defs>
        <path id="DejaVuSans-39" d="M 703 97 
L 703 672 
Q 941 559 1184 500 
Q 1428 441 1663 441 
Q 2288 441 2617 861 
Q 2947 1281 2994 2138 
Q 2813 1869 2534 1725 
Q 2256 1581 1919 1581 
Q 1219 1581 811 2004 
Q 403 2428 403 3163 
Q 403 3881 828 4315 
Q 1253 4750 1959 4750 
Q 2769 4750 3195 4129 
Q 3622 3509 3622 2328 
Q 3622 1225 3098 567 
Q 2575 -91 1691 -91 
Q 1453 -91 1209 -44 
Q 966 3 703 97 
z
M 1959 2075 
Q 2384 2075 2632 2365 
Q 2881 2656 2881 3163 
Q 2881 3666 2632 3958 
Q 2384 4250 1959 4250 
Q 1534 4250 1286 3958 
Q 1038 3666 1038 3163 
Q 1038 2656 1286 2365 
Q 1534 2075 1959 2075 
z
" transform="scale(0.015625)"/>
       </defs>
       <use xlink:href="#DejaVuSans-39"/>
       <use xlink:href="#DejaVuSans-30" x="63.623047"/>
      </g>
     </g>
    </g>
    <g id="text_6">
     <!-- Kondensatordruck in bar -->
     <g transform="translate(125.630156 349.681812) scale(0.18 -0.18)">
      <defs>
       <path id="DejaVuSans-4b" d="M 628 4666 
L 1259 4666 
L 1259 2694 
L 3353 4666 
L 4166 4666 
L 1850 2491 
L 4331 0 
L 3500 0 
L 1259 2247 
L 1259 0 
L 628 0 
L 628 4666 
z
" transform="scale(0.015625)"/>
       <path id="DejaVuSans-6f" d="M 1959 3097 
Q 1497 3097 1228 2736 
Q 959 2375 959 1747 
Q 959 1119 1226 758 
Q 1494 397 1959 397 
Q 2419 397 2687 759 
Q 2956 1122 2956 1747 
Q 2956 2369 2687 2733 
Q 2419 3097 1959 3097 
z
M 1959 3584 
Q 2709 3584 3137 3096 
Q 3566 2609 3566 1747 
Q 3566 888 3137 398 
Q 2709 -91 1959 -91 
Q 1206 -91 779 398 
Q 353 888 353 1747 
Q 353 2609 779 3096 
Q 1206 3584 1959 3584 
z
" transform="scale(0.015625)"/>
       <path id="DejaVuSans-6e" d="M 3513 2113 
L 3513 0 
L 2938 0 
L 2938 2094 
Q 2938 2591 2744 2837 
Q 2550 3084 2163 3084 
Q 1697 3084 1428 2787 
Q 1159 2491 1159 1978 
L 1159 0 
L 581 0 
L 581 3500 
L 1159 3500 
L 1159 2956 
Q 1366 3272 1645 3428 
Q 1925 3584 2291 3584 
Q 2894 3584 3203 3211 
Q 3513 2838 3513 2113 
z
" transform="scale(0.015625)"/>
       <path id="DejaVuSans-64" d="M 2906 2969 
L 2906 4863 
L 3481 4863 
L 3481 0 
L 2906 0 
L 2906 525 
Q 2725 213 2448 61 
Q 2172 -91 1784 -91 
Q 1150 -91 751 415 
Q 353 922 353 1747 
Q 353 2572 751 3078 
Q 1150 3584 1784 3584 
Q 2172 3584 2448 3432 
Q 2725 3281 2906 2969 
z
M 947 1747 
Q 947 1113 1208 752 
Q 1469 391 1925 391 
Q 2381 391 2643 752 
Q 2906 1113 2906 1747 
Q 2906 2381 2643 2742 
Q 2381 3103 1925 3103 
Q 1469 3103 1208 2742 
Q 947 2381 947 1747 
z
" transform="scale(0.015625)"/>
       <path id="DejaVuSans-65" d="M 3597 1894 
L 3597 1613 
L 953 1613 
Q 991 1019 1311 708 
Q 1631 397 2203 397 
Q 2534 397 2845 478 
Q 3156 559 3463 722 
L 3463 178 
Q 3153 47 2828 -22 
Q 2503 -91 2169 -91 
Q 1331 -91 842 396 
Q 353 884 353 1716 
Q 353 2575 817 3079 
Q 1281 3584 2069 3584 
Q 2775 3584 3186 3129 
Q 3597 2675 3597 1894 
z
M 3022 2063 
Q 3016 2534 2758 2815 
Q 2500 3097 2075 3097 
Q 1594 3097 1305 2825 
Q 1016 2553 972 2059 
L 3022 2063 
z
" transform="scale(0.015625)"/>
       <path id="DejaVuSans-73" d="M 2834 3397 
L 2834 2853 
Q 2591 2978 2328 3040 
Q 2066 3103 1784 3103 
Q 1356 3103 1142 2972 
Q 928 2841 928 2578 
Q 928 2378 1081 2264 
Q 1234 2150 1697 2047 
L 1894 2003 
Q 2506 1872 2764 1633 
Q 3022 1394 3022 966 
Q 3022 478 2636 193 
Q 2250 -91 1575 -91 
Q 1294 -91 989 -36 
Q 684 19 347 128 
L 347 722 
Q 666 556 975 473 
Q 1284 391 1588 391 
Q 1994 391 2212 530 
Q 2431 669 2431 922 
Q 2431 1156 2273 1281 
Q 2116 1406 1581 1522 
L 1381 1569 
Q 847 1681 609 1914 
Q 372 2147 372 2553 
Q 372 3047 722 3315 
Q 1072 3584 1716 3584 
Q 2034 3584 2315 3537 
Q 2597 3491 2834 3397 
z
" transform="scale(0.015625)"/>
       <path id="DejaVuSans-61" d="M 2194 1759 
Q 1497 1759 1228 1600 
Q 959 1441 959 1056 
Q 959 750 1161 570 
Q 1363 391 1709 391 
Q 2188 391 2477 730 
Q 2766 1069 2766 1631 
L 2766 1759 
L 2194 1759 
z
M 3341 1997 
L 3341 0 
L 2766 0 
L 2766 531 
Q 2569 213 2275 61 
Q 1981 -91 1556 -91 
Q 1019 -91 701 211 
Q 384 513 384 1019 
Q 384 1609 779 1909 
Q 1175 2209 1959 2209 
L 2766 2209 
L 2766 2266 
Q 2766 2663 2505 2880 
Q 2244 3097 1772 3097 
Q 1472 3097 1187 3025 
Q 903 2953 641 2809 
L 641 3341 
Q 956 3463 1253 3523 
Q 1550 3584 1831 3584 
Q 2591 3584 2966 3190 
Q 3341 2797 3341 1997 
z
" transform="scale(0.015625)"/>
       <path id="DejaVuSans-74" d="M 1172 4494 
L 1172 3500 
L 2356 3500 
L 2356 3053 
L 1172 3053 
L 1172 1153 
Q 1172 725 1289 603 
Q 1406 481 1766 481 
L 2356 481 
L 2356 0 
L 1766 0 
Q 1100 0 847 248 
Q 594 497 594 1153 
L 594 3053 
L 172 3053 
L 172 3500 
L 594 3500 
L 594 4494 
L 1172 4494 
z
" transform="scale(0.015625)"/>
       <path id="DejaVuSans-72" d="M 2631 2963 
Q 2534 3019 2420 3045 
Q 2306 3072 2169 3072 
Q 1681 3072 1420 2755 
Q 1159 2438 1159 1844 
L 1159 0 
L 581 0 
L 581 3500 
L 1159 3500 
L 1159 2956 
Q 1341 3275 1631 3429 
Q 1922 3584 2338 3584 
Q 2397 3584 2469 3576 
Q 2541 3569 2628 3553 
L 2631 2963 
z
" transform="scale(0.015625)"/>
       <path id="DejaVuSans-75" d="M 544 1381 
L 544 3500 
L 1119 3500 
L 1119 1403 
Q 1119 906 1312 657 
Q 1506 409 1894 409 
Q 2359 409 2629 706 
Q 2900 1003 2900 1516 
L 2900 3500 
L 3475 3500 
L 3475 0 
L 2900 0 
L 2900 538 
Q 2691 219 2414 64 
Q 2138 -91 1772 -91 
Q 1169 -91 856 284 
Q 544 659 544 1381 
z
M 1991 3584 
L 1991 3584 
z
" transform="scale(0.015625)"/>
       <path id="DejaVuSans-63" d="M 3122 3366 
L 3122 2828 
Q 2878 2963 2633 3030 
Q 2388 3097 2138 3097 
Q 1578 3097 1268 2742 
Q 959 2388 959 1747 
Q 959 1106 1268 751 
Q 1578 397 2138 397 
Q 2388 397 2633 464 
Q 2878 531 3122 666 
L 3122 134 
Q 2881 22 2623 -34 
Q 2366 -91 2075 -91 
Q 1284 -91 818 406 
Q 353 903 353 1747 
Q 353 2603 823 3093 
Q 1294 3584 2113 3584 
Q 2378 3584 2631 3529 
Q 2884 3475 3122 3366 
z
" transform="scale(0.015625)"/>
       <path id="DejaVuSans-6b" d="M 581 4863 
L 1159 4863 
L 1159 1991 
L 2875 3500 
L 3609 3500 
L 1753 1863 
L 3688 0 
L 2938 0 
L 1159 1709 
L 1159 0 
L 581 0 
L 581 4863 
z
" transform="scale(0.015625)"/>
       <path id="DejaVuSans-20" transform="scale(0.015625)"/>
       <path id="DejaVuSans-69" d="M 603 3500 
L 1178 3500 
L 1178 0 
L 603 0 
L 603 3500 
z
M 603 4863 
L 1178 4863 
L 1178 4134 
L 603 4134 
L 603 4863 
z
" transform="scale(0.015625)"/>
       <path id="DejaVuSans-62" d="M 3116 1747 
Q 3116 2381 2855 2742 
Q 2594 3103 2138 3103 
Q 1681 3103 1420 2742 
Q 1159 2381 1159 1747 
Q 1159 1113 1420 752 
Q 1681 391 2138 391 
Q 2594 391 2855 752 
Q 3116 1113 3116 1747 
z
M 1159 2969 
Q 1341 3281 1617 3432 
Q 1894 3584 2278 3584 
Q 2916 3584 3314 3078 
Q 3713 2572 3713 1747 
Q 3713 922 3314 415 
Q 2916 -91 2278 -91 
Q 1894 -91 1617 61 
Q 1341 213 1159 525 
L 1159 0 
L 581 0 
L 581 4863 
L 1159 4863 
L 1159 2969 
z
" transform="scale(0.015625)"/>
      </defs>
      <use xlink:href="#DejaVuSans-4b"/>
      <use xlink:href="#DejaVuSans-6f" x="60.576172"/>
      <use xlink:href="#DejaVuSans-6e" x="121.757812"/>
      <use xlink:href="#DejaVuSans-64" x="185.136719"/>
      <use xlink:href="#DejaVuSans-65" x="248.613281"/>
      <use xlink:href="#DejaVuSans-6e" x="310.136719"/>
      <use xlink:href="#DejaVuSans-73" x="373.515625"/>
      <use xlink:href="#DejaVuSans-61" x="425.615234"/>
      <use xlink:href="#DejaVuSans-74" x="486.894531"/>
      <use xlink:href="#DejaVuSans-6f" x="526.103516"/>
      <use xlink:href="#DejaVuSans-72" x="587.285156"/>
      <use xlink:href="#DejaVuSans-64" x="626.648438"/>
      <use xlink:href="#DejaVuSans-72" x="690.125"/>
      <use xlink:href="#DejaVuSans-75" x="731.238281"/>
      <use xlink:href="#DejaVuSans-63" x="794.617188"/>
      <use xlink:href="#DejaVuSans-6b" x="849.597656"/>
      <use xlink:href="#DejaVuSans-20" x="907.507812"/>
      <use xlink:href="#DejaVuSans-69" x="939.294922"/>
      <use xlink:href="#DejaVuSans-6e" x="967.078125"/>
      <use xlink:href="#DejaVuSans-20" x="1030.457031"/>
      <use xlink:href="#DejaVuSans-62" x="1062.244141"/>
      <use xlink:href="#DejaVuSans-61" x="1125.720703"/>
      <use xlink:href="#DejaVuSans-72" x="1187"/>
     </g>
    </g>
   </g>
   <g id="matplotlib.axis_2">
    <g id="ytick_1">
     <g id="line2d_6">
      <defs>
       <path id="m74d4a8906f" d="M 0 0 
L -3.5 0 
" style="stroke: #000000; stroke-width: 0.8"/>
      </defs>
      <g>
       <use xlink:href="#m74d4a8906f" x="57.6" y="307.584" style="stroke: #000000; stroke-width: 0.8"/>
      </g>
     </g>
     <g id="text_7">
      <!-- 0.0 -->
      <g transform="translate(21.974375 314.422594) scale(0.18 -0.18)">
       <defs>
        <path id="DejaVuSans-2e" d="M 684 794 
L 1344 794 
L 1344 0 
L 684 0 
L 684 794 
z
" transform="scale(0.015625)"/>
       </defs>
       <use xlink:href="#DejaVuSans-30"/>
       <use xlink:href="#DejaVuSans-2e" x="63.623047"/>
       <use xlink:href="#DejaVuSans-30" x="95.410156"/>
      </g>
     </g>
    </g>
    <g id="ytick_2">
     <g id="line2d_7">
      <g>
       <use xlink:href="#m74d4a8906f" x="57.6" y="257.697196" style="stroke: #000000; stroke-width: 0.8"/>
      </g>
     </g>
     <g id="text_8">
      <!-- 0.1 -->
      <g transform="translate(21.974375 264.53579) scale(0.18 -0.18)">
       <defs>
        <path id="DejaVuSans-31" d="M 794 531 
L 1825 531 
L 1825 4091 
L 703 3866 
L 703 4441 
L 1819 4666 
L 2450 4666 
L 2450 531 
L 3481 531 
L 3481 0 
L 794 0 
L 794 531 
z
" transform="scale(0.015625)"/>
       </defs>
       <use xlink:href="#DejaVuSans-30"/>
       <use xlink:href="#DejaVuSans-2e" x="63.623047"/>
       <use xlink:href="#DejaVuSans-31" x="95.410156"/>
      </g>
     </g>
    </g>
    <g id="ytick_3">
     <g id="line2d_8">
      <g>
       <use xlink:href="#m74d4a8906f" x="57.6" y="207.810392" style="stroke: #000000; stroke-width: 0.8"/>
      </g>
     </g>
     <g id="text_9">
      <!-- 0.2 -->
      <g transform="translate(21.974375 214.648986) scale(0.18 -0.18)">
       <defs>
        <path id="DejaVuSans-32" d="M 1228 531 
L 3431 531 
L 3431 0 
L 469 0 
L 469 531 
Q 828 903 1448 1529 
Q 2069 2156 2228 2338 
Q 2531 2678 2651 2914 
Q 2772 3150 2772 3378 
Q 2772 3750 2511 3984 
Q 2250 4219 1831 4219 
Q 1534 4219 1204 4116 
Q 875 4013 500 3803 
L 500 4441 
Q 881 4594 1212 4672 
Q 1544 4750 1819 4750 
Q 2544 4750 2975 4387 
Q 3406 4025 3406 3419 
Q 3406 3131 3298 2873 
Q 3191 2616 2906 2266 
Q 2828 2175 2409 1742 
Q 1991 1309 1228 531 
z
" transform="scale(0.015625)"/>
       </defs>
       <use xlink:href="#DejaVuSans-30"/>
       <use xlink:href="#DejaVuSans-2e" x="63.623047"/>
       <use xlink:href="#DejaVuSans-32" x="95.410156"/>
      </g>
     </g>
    </g>
    <g id="ytick_4">
     <g id="line2d_9">
      <g>
       <use xlink:href="#m74d4a8906f" x="57.6" y="157.923588" style="stroke: #000000; stroke-width: 0.8"/>
      </g>
     </g>
     <g id="text_10">
      <!-- 0.3 -->
      <g transform="translate(21.974375 164.762181) scale(0.18 -0.18)">
       <defs>
        <path id="DejaVuSans-33" d="M 2597 2516 
Q 3050 2419 3304 2112 
Q 3559 1806 3559 1356 
Q 3559 666 3084 287 
Q 2609 -91 1734 -91 
Q 1441 -91 1130 -33 
Q 819 25 488 141 
L 488 750 
Q 750 597 1062 519 
Q 1375 441 1716 441 
Q 2309 441 2620 675 
Q 2931 909 2931 1356 
Q 2931 1769 2642 2001 
Q 2353 2234 1838 2234 
L 1294 2234 
L 1294 2753 
L 1863 2753 
Q 2328 2753 2575 2939 
Q 2822 3125 2822 3475 
Q 2822 3834 2567 4026 
Q 2313 4219 1838 4219 
Q 1578 4219 1281 4162 
Q 984 4106 628 3988 
L 628 4550 
Q 988 4650 1302 4700 
Q 1616 4750 1894 4750 
Q 2613 4750 3031 4423 
Q 3450 4097 3450 3541 
Q 3450 3153 3228 2886 
Q 3006 2619 2597 2516 
z
" transform="scale(0.015625)"/>
       </defs>
       <use xlink:href="#DejaVuSans-30"/>
       <use xlink:href="#DejaVuSans-2e" x="63.623047"/>
       <use xlink:href="#DejaVuSans-33" x="95.410156"/>
      </g>
     </g>
    </g>
    <g id="ytick_5">
     <g id="line2d_10">
      <g>
       <use xlink:href="#m74d4a8906f" x="57.6" y="108.036784" style="stroke: #000000; stroke-width: 0.8"/>
      </g>
     </g>
     <g id="text_11">
      <!-- 0.4 -->
      <g transform="translate(21.974375 114.875377) scale(0.18 -0.18)">
       <defs>
        <path id="DejaVuSans-34" d="M 2419 4116 
L 825 1625 
L 2419 1625 
L 2419 4116 
z
M 2253 4666 
L 3047 4666 
L 3047 1625 
L 3713 1625 
L 3713 1100 
L 3047 1100 
L 3047 0 
L 2419 0 
L 2419 1100 
L 313 1100 
L 313 1709 
L 2253 4666 
z
" transform="scale(0.015625)"/>
       </defs>
       <use xlink:href="#DejaVuSans-30"/>
       <use xlink:href="#DejaVuSans-2e" x="63.623047"/>
       <use xlink:href="#DejaVuSans-34" x="95.410156"/>
      </g>
     </g>
    </g>
    <g id="ytick_6">
     <g id="line2d_11">
      <g>
       <use xlink:href="#m74d4a8906f" x="57.6" y="58.149979" style="stroke: #000000; stroke-width: 0.8"/>
      </g>
     </g>
     <g id="text_12">
      <!-- 0.5 -->
      <g transform="translate(21.974375 64.988573) scale(0.18 -0.18)">
       <use xlink:href="#DejaVuSans-30"/>
       <use xlink:href="#DejaVuSans-2e" x="63.623047"/>
       <use xlink:href="#DejaVuSans-35" x="95.410156"/>
      </g>
     </g>
    </g>
    <g id="text_13">
     <!-- Exergievernichtungsquotient -->
     <g transform="translate(14.230937 304.416281) rotate(-90) scale(0.18 -0.18)">
      <defs>
       <path id="DejaVuSans-45" d="M 628 4666 
L 3578 4666 
L 3578 4134 
L 1259 4134 
L 1259 2753 
L 3481 2753 
L 3481 2222 
L 1259 2222 
L 1259 531 
L 3634 531 
L 3634 0 
L 628 0 
L 628 4666 
z
" transform="scale(0.015625)"/>
       <path id="DejaVuSans-78" d="M 3513 3500 
L 2247 1797 
L 3578 0 
L 2900 0 
L 1881 1375 
L 863 0 
L 184 0 
L 1544 1831 
L 300 3500 
L 978 3500 
L 1906 2253 
L 2834 3500 
L 3513 3500 
z
" transform="scale(0.015625)"/>
       <path id="DejaVuSans-67" d="M 2906 1791 
Q 2906 2416 2648 2759 
Q 2391 3103 1925 3103 
Q 1463 3103 1205 2759 
Q 947 2416 947 1791 
Q 947 1169 1205 825 
Q 1463 481 1925 481 
Q 2391 481 2648 825 
Q 2906 1169 2906 1791 
z
M 3481 434 
Q 3481 -459 3084 -895 
Q 2688 -1331 1869 -1331 
Q 1566 -1331 1297 -1286 
Q 1028 -1241 775 -1147 
L 775 -588 
Q 1028 -725 1275 -790 
Q 1522 -856 1778 -856 
Q 2344 -856 2625 -561 
Q 2906 -266 2906 331 
L 2906 616 
Q 2728 306 2450 153 
Q 2172 0 1784 0 
Q 1141 0 747 490 
Q 353 981 353 1791 
Q 353 2603 747 3093 
Q 1141 3584 1784 3584 
Q 2172 3584 2450 3431 
Q 2728 3278 2906 2969 
L 2906 3500 
L 3481 3500 
L 3481 434 
z
" transform="scale(0.015625)"/>
       <path id="DejaVuSans-76" d="M 191 3500 
L 800 3500 
L 1894 563 
L 2988 3500 
L 3597 3500 
L 2284 0 
L 1503 0 
L 191 3500 
z
" transform="scale(0.015625)"/>
       <path id="DejaVuSans-68" d="M 3513 2113 
L 3513 0 
L 2938 0 
L 2938 2094 
Q 2938 2591 2744 2837 
Q 2550 3084 2163 3084 
Q 1697 3084 1428 2787 
Q 1159 2491 1159 1978 
L 1159 0 
L 581 0 
L 581 4863 
L 1159 4863 
L 1159 2956 
Q 1366 3272 1645 3428 
Q 1925 3584 2291 3584 
Q 2894 3584 3203 3211 
Q 3513 2838 3513 2113 
z
" transform="scale(0.015625)"/>
       <path id="DejaVuSans-71" d="M 947 1747 
Q 947 1113 1208 752 
Q 1469 391 1925 391 
Q 2381 391 2643 752 
Q 2906 1113 2906 1747 
Q 2906 2381 2643 2742 
Q 2381 3103 1925 3103 
Q 1469 3103 1208 2742 
Q 947 2381 947 1747 
z
M 2906 525 
Q 2725 213 2448 61 
Q 2172 -91 1784 -91 
Q 1150 -91 751 415 
Q 353 922 353 1747 
Q 353 2572 751 3078 
Q 1150 3584 1784 3584 
Q 2172 3584 2448 3432 
Q 2725 3281 2906 2969 
L 2906 3500 
L 3481 3500 
L 3481 -1331 
L 2906 -1331 
L 2906 525 
z
" transform="scale(0.015625)"/>
      </defs>
      <use xlink:href="#DejaVuSans-45"/>
      <use xlink:href="#DejaVuSans-78" x="63.183594"/>
      <use xlink:href="#DejaVuSans-65" x="119.238281"/>
      <use xlink:href="#DejaVuSans-72" x="180.761719"/>
      <use xlink:href="#DejaVuSans-67" x="220.125"/>
      <use xlink:href="#DejaVuSans-69" x="283.601562"/>
      <use xlink:href="#DejaVuSans-65" x="311.384766"/>
      <use xlink:href="#DejaVuSans-76" x="372.908203"/>
      <use xlink:href="#DejaVuSans-65" x="432.087891"/>
      <use xlink:href="#DejaVuSans-72" x="493.611328"/>
      <use xlink:href="#DejaVuSans-6e" x="532.974609"/>
      <use xlink:href="#DejaVuSans-69" x="596.353516"/>
      <use xlink:href="#DejaVuSans-63" x="624.136719"/>
      <use xlink:href="#DejaVuSans-68" x="679.117188"/>
      <use xlink:href="#DejaVuSans-74" x="742.496094"/>
      <use xlink:href="#DejaVuSans-75" x="781.705078"/>
      <use xlink:href="#DejaVuSans-6e" x="845.083984"/>
      <use xlink:href="#DejaVuSans-67" x="908.462891"/>
      <use xlink:href="#DejaVuSans-73" x="971.939453"/>
      <use xlink:href="#DejaVuSans-71" x="1024.039062"/>
      <use xlink:href="#DejaVuSans-75" x="1087.515625"/>
      <use xlink:href="#DejaVuSans-6f" x="1150.894531"/>
      <use xlink:href="#DejaVuSans-74" x="1212.076172"/>
      <use xlink:href="#DejaVuSans-69" x="1251.285156"/>
      <use xlink:href="#DejaVuSans-65" x="1279.068359"/>
      <use xlink:href="#DejaVuSans-6e" x="1340.591797"/>
      <use xlink:href="#DejaVuSans-74" x="1403.970703"/>
     </g>
    </g>
   </g>
   <g id="patch_83">
    <path d="M 57.6 307.584 
L 57.6 41.472 
" style="fill: none; stroke: #000000; stroke-width: 0.8; stroke-linejoin: miter; stroke-linecap: square"/>
   </g>
   <g id="patch_84">
    <path d="M 414.72 307.584 
L 414.72 41.472 
" style="fill: none; stroke: #000000; stroke-width: 0.8; stroke-linejoin: miter; stroke-linecap: square"/>
   </g>
   <g id="patch_85">
    <path d="M 57.6 307.584 
L 414.72 307.584 
" style="fill: none; stroke: #000000; stroke-width: 0.8; stroke-linejoin: miter; stroke-linecap: square"/>
   </g>
   <g id="patch_86">
    <path d="M 57.6 41.472 
L 414.72 41.472 
" style="fill: none; stroke: #000000; stroke-width: 0.8; stroke-linejoin: miter; stroke-linecap: square"/>
   </g>
   <g id="legend_1">
    <g id="patch_87">
     <path d="M 236.739375 298.584 
L 402.12 298.584 
Q 405.72 298.584 405.72 294.984 
L 405.72 191.1015 
Q 405.72 187.5015 402.12 187.5015 
L 236.739375 187.5015 
Q 233.139375 187.5015 233.139375 191.1015 
L 233.139375 294.984 
Q 233.139375 298.584 236.739375 298.584 
z
" style="fill: #ffffff; opacity: 0.8; stroke: #cccccc; stroke-linejoin: miter"/>
    </g>
    <g id="patch_88">
     <path d="M 240.339375 208.378687 
L 276.339375 208.378687 
L 276.339375 195.778687 
L 240.339375 195.778687 
z
" style="fill: #1f77b4"/>
    </g>
    <g id="text_14">
     <!-- Gas cooler -->
     <g transform="translate(290.739375 208.378687) scale(0.18 -0.18)">
      <defs>
       <path id="DejaVuSans-47" d="M 3809 666 
L 3809 1919 
L 2778 1919 
L 2778 2438 
L 4434 2438 
L 4434 434 
Q 4069 175 3628 42 
Q 3188 -91 2688 -91 
Q 1594 -91 976 548 
Q 359 1188 359 2328 
Q 359 3472 976 4111 
Q 1594 4750 2688 4750 
Q 3144 4750 3555 4637 
Q 3966 4525 4313 4306 
L 4313 3634 
Q 3963 3931 3569 4081 
Q 3175 4231 2741 4231 
Q 1884 4231 1454 3753 
Q 1025 3275 1025 2328 
Q 1025 1384 1454 906 
Q 1884 428 2741 428 
Q 3075 428 3337 486 
Q 3600 544 3809 666 
z
" transform="scale(0.015625)"/>
       <path id="DejaVuSans-6c" d="M 603 4863 
L 1178 4863 
L 1178 0 
L 603 0 
L 603 4863 
z
" transform="scale(0.015625)"/>
      </defs>
      <use xlink:href="#DejaVuSans-47"/>
      <use xlink:href="#DejaVuSans-61" x="77.490234"/>
      <use xlink:href="#DejaVuSans-73" x="138.769531"/>
      <use xlink:href="#DejaVuSans-20" x="190.869141"/>
      <use xlink:href="#DejaVuSans-63" x="222.65625"/>
      <use xlink:href="#DejaVuSans-6f" x="277.636719"/>
      <use xlink:href="#DejaVuSans-6f" x="338.818359"/>
      <use xlink:href="#DejaVuSans-6c" x="400"/>
      <use xlink:href="#DejaVuSans-65" x="427.783203"/>
      <use xlink:href="#DejaVuSans-72" x="489.306641"/>
     </g>
    </g>
    <g id="patch_89">
     <path d="M 240.339375 234.799312 
L 276.339375 234.799312 
L 276.339375 222.199312 
L 240.339375 222.199312 
z
" style="fill: #ff7f0e"/>
    </g>
    <g id="text_15">
     <!-- Evaporator -->
     <g transform="translate(290.739375 234.799312) scale(0.18 -0.18)">
      <defs>
       <path id="DejaVuSans-70" d="M 1159 525 
L 1159 -1331 
L 581 -1331 
L 581 3500 
L 1159 3500 
L 1159 2969 
Q 1341 3281 1617 3432 
Q 1894 3584 2278 3584 
Q 2916 3584 3314 3078 
Q 3713 2572 3713 1747 
Q 3713 922 3314 415 
Q 2916 -91 2278 -91 
Q 1894 -91 1617 61 
Q 1341 213 1159 525 
z
M 3116 1747 
Q 3116 2381 2855 2742 
Q 2594 3103 2138 3103 
Q 1681 3103 1420 2742 
Q 1159 2381 1159 1747 
Q 1159 1113 1420 752 
Q 1681 391 2138 391 
Q 2594 391 2855 752 
Q 3116 1113 3116 1747 
z
" transform="scale(0.015625)"/>
      </defs>
      <use xlink:href="#DejaVuSans-45"/>
      <use xlink:href="#DejaVuSans-76" x="63.183594"/>
      <use xlink:href="#DejaVuSans-61" x="122.363281"/>
      <use xlink:href="#DejaVuSans-70" x="183.642578"/>
      <use xlink:href="#DejaVuSans-6f" x="247.119141"/>
      <use xlink:href="#DejaVuSans-72" x="308.300781"/>
      <use xlink:href="#DejaVuSans-61" x="349.414062"/>
      <use xlink:href="#DejaVuSans-74" x="410.693359"/>
      <use xlink:href="#DejaVuSans-6f" x="449.902344"/>
      <use xlink:href="#DejaVuSans-72" x="511.083984"/>
     </g>
    </g>
    <g id="patch_90">
     <path d="M 240.339375 261.219937 
L 276.339375 261.219937 
L 276.339375 248.619937 
L 240.339375 248.619937 
z
" style="fill: #2ca02c"/>
    </g>
    <g id="text_16">
     <!-- Valve -->
     <g transform="translate(290.739375 261.219937) scale(0.18 -0.18)">
      <defs>
       <path id="DejaVuSans-56" d="M 1831 0 
L 50 4666 
L 709 4666 
L 2188 738 
L 3669 4666 
L 4325 4666 
L 2547 0 
L 1831 0 
z
" transform="scale(0.015625)"/>
      </defs>
      <use xlink:href="#DejaVuSans-56"/>
      <use xlink:href="#DejaVuSans-61" x="60.658203"/>
      <use xlink:href="#DejaVuSans-6c" x="121.9375"/>
      <use xlink:href="#DejaVuSans-76" x="149.720703"/>
      <use xlink:href="#DejaVuSans-65" x="208.900391"/>
     </g>
    </g>
    <g id="patch_91">
     <path d="M 240.339375 287.640562 
L 276.339375 287.640562 
L 276.339375 275.040562 
L 240.339375 275.040562 
z
" style="fill: #d62728"/>
    </g>
    <g id="text_17">
     <!-- Compressor -->
     <g transform="translate(290.739375 287.640562) scale(0.18 -0.18)">
      <defs>
       <path id="DejaVuSans-43" d="M 4122 4306 
L 4122 3641 
Q 3803 3938 3442 4084 
Q 3081 4231 2675 4231 
Q 1875 4231 1450 3742 
Q 1025 3253 1025 2328 
Q 1025 1406 1450 917 
Q 1875 428 2675 428 
Q 3081 428 3442 575 
Q 3803 722 4122 1019 
L 4122 359 
Q 3791 134 3420 21 
Q 3050 -91 2638 -91 
Q 1578 -91 968 557 
Q 359 1206 359 2328 
Q 359 3453 968 4101 
Q 1578 4750 2638 4750 
Q 3056 4750 3426 4639 
Q 3797 4528 4122 4306 
z
" transform="scale(0.015625)"/>
       <path id="DejaVuSans-6d" d="M 3328 2828 
Q 3544 3216 3844 3400 
Q 4144 3584 4550 3584 
Q 5097 3584 5394 3201 
Q 5691 2819 5691 2113 
L 5691 0 
L 5113 0 
L 5113 2094 
Q 5113 2597 4934 2840 
Q 4756 3084 4391 3084 
Q 3944 3084 3684 2787 
Q 3425 2491 3425 1978 
L 3425 0 
L 2847 0 
L 2847 2094 
Q 2847 2600 2669 2842 
Q 2491 3084 2119 3084 
Q 1678 3084 1418 2786 
Q 1159 2488 1159 1978 
L 1159 0 
L 581 0 
L 581 3500 
L 1159 3500 
L 1159 2956 
Q 1356 3278 1631 3431 
Q 1906 3584 2284 3584 
Q 2666 3584 2933 3390 
Q 3200 3197 3328 2828 
z
" transform="scale(0.015625)"/>
      </defs>
      <use xlink:href="#DejaVuSans-43"/>
      <use xlink:href="#DejaVuSans-6f" x="69.824219"/>
      <use xlink:href="#DejaVuSans-6d" x="131.005859"/>
      <use xlink:href="#DejaVuSans-70" x="228.417969"/>
      <use xlink:href="#DejaVuSans-72" x="291.894531"/>
      <use xlink:href="#DejaVuSans-65" x="330.757812"/>
      <use xlink:href="#DejaVuSans-73" x="392.28125"/>
      <use xlink:href="#DejaVuSans-73" x="444.380859"/>
      <use xlink:href="#DejaVuSans-6f" x="496.480469"/>
      <use xlink:href="#DejaVuSans-72" x="557.662109"/>
     </g>
    </g>
   </g>
  </g>
 </g>
 <defs>
  <clipPath id="p0ea58bf9ef">
   <rect x="57.6" y="41.472" width="357.12" height="266.112"/>
  </clipPath>
 </defs>
</svg>
