<?xml version="1.0" encoding="utf-8" standalone="no"?>
<!DOCTYPE svg PUBLIC "-//W3C//DTD SVG 1.1//EN"
  "http://www.w3.org/Graphics/SVG/1.1/DTD/svg11.dtd">
<svg xmlns:xlink="http://www.w3.org/1999/xlink" width="1105.92pt" height="577.728pt" viewBox="0 0 1105.92 577.728" xmlns="http://www.w3.org/2000/svg" version="1.1">
 <metadata>
  <rdf:RDF xmlns:dc="http://purl.org/dc/elements/1.1/" xmlns:cc="http://creativecommons.org/ns#" xmlns:rdf="http://www.w3.org/1999/02/22-rdf-syntax-ns#">
   <cc:Work>
    <dc:type rdf:resource="http://purl.org/dc/dcmitype/StillImage"/>
    <dc:date>2023-02-27T09:51:54.458992</dc:date>
    <dc:format>image/svg+xml</dc:format>
    <dc:creator>
     <cc:Agent>
      <dc:title>Matplotlib v3.6.1, https://matplotlib.org/</dc:title>
     </cc:Agent>
    </dc:creator>
   </cc:Work>
  </rdf:RDF>
 </metadata>
 <defs>
  <style type="text/css">*{stroke-linejoin: round; stroke-linecap: butt}</style>
 </defs>
 <g id="figure_1">
  <g id="patch_1">
   <path d="M 0 577.728 
L 1105.92 577.728 
L 1105.92 0 
L 0 0 
z
" style="fill: #ffffff"/>
  </g>
  <g id="axes_1">
   <g id="patch_2">
    <path d="M 138.24 514.17792 
L 995.328 514.17792 
L 995.328 69.32736 
L 138.24 69.32736 
z
" style="fill: #ffffff"/>
   </g>
   <g id="patch_3">
    <path d="M 177.198545 514.17792 
L 179.141615 514.17792 
L 179.141615 498.196862 
L 177.198545 498.196862 
z
" clip-path="url(#p6112c94ddf)" style="fill: #1f77b4"/>
   </g>
   <g id="patch_4">
    <path d="M 197.127464 514.17792 
L 199.070534 514.17792 
L 199.070534 498.284283 
L 197.127464 498.284283 
z
" clip-path="url(#p6112c94ddf)" style="fill: #1f77b4"/>
   </g>
   <g id="patch_5">
    <path d="M 217.056383 514.17792 
L 218.999453 514.17792 
L 218.999453 498.365725 
L 217.056383 498.365725 
z
" clip-path="url(#p6112c94ddf)" style="fill: #1f77b4"/>
   </g>
   <g id="patch_6">
    <path d="M 236.985302 514.17792 
L 238.928372 514.17792 
L 238.928372 498.441808 
L 236.985302 498.441808 
z
" clip-path="url(#p6112c94ddf)" style="fill: #1f77b4"/>
   </g>
   <g id="patch_7">
    <path d="M 256.914221 514.17792 
L 258.857291 514.17792 
L 258.857291 498.513075 
L 256.914221 498.513075 
z
" clip-path="url(#p6112c94ddf)" style="fill: #1f77b4"/>
   </g>
   <g id="patch_8">
    <path d="M 276.84314 514.17792 
L 278.78621 514.17792 
L 278.78621 498.580004 
L 276.84314 498.580004 
z
" clip-path="url(#p6112c94ddf)" style="fill: #1f77b4"/>
   </g>
   <g id="patch_9">
    <path d="M 296.772059 514.17792 
L 298.715129 514.17792 
L 298.715129 498.643015 
L 296.772059 498.643015 
z
" clip-path="url(#p6112c94ddf)" style="fill: #1f77b4"/>
   </g>
   <g id="patch_10">
    <path d="M 316.700978 514.17792 
L 318.644048 514.17792 
L 318.644048 498.702478 
L 316.700978 498.702478 
z
" clip-path="url(#p6112c94ddf)" style="fill: #1f77b4"/>
   </g>
   <g id="patch_11">
    <path d="M 336.629897 514.17792 
L 338.572967 514.17792 
L 338.572967 498.758718 
L 336.629897 498.758718 
z
" clip-path="url(#p6112c94ddf)" style="fill: #1f77b4"/>
   </g>
   <g id="patch_12">
    <path d="M 356.558816 514.17792 
L 358.501886 514.17792 
L 358.501886 498.812024 
L 356.558816 498.812024 
z
" clip-path="url(#p6112c94ddf)" style="fill: #1f77b4"/>
   </g>
   <g id="patch_13">
    <path d="M 376.487735 514.17792 
L 378.430805 514.17792 
L 378.430805 498.862651 
L 376.487735 498.862651 
z
" clip-path="url(#p6112c94ddf)" style="fill: #1f77b4"/>
   </g>
   <g id="patch_14">
    <path d="M 396.416654 514.17792 
L 398.359724 514.17792 
L 398.359724 498.910828 
L 396.416654 498.910828 
z
" clip-path="url(#p6112c94ddf)" style="fill: #1f77b4"/>
   </g>
   <g id="patch_15">
    <path d="M 416.345573 514.17792 
L 418.288643 514.17792 
L 418.288643 498.956755 
L 416.345573 498.956755 
z
" clip-path="url(#p6112c94ddf)" style="fill: #1f77b4"/>
   </g>
   <g id="patch_16">
    <path d="M 436.274492 514.17792 
L 438.217562 514.17792 
L 438.217562 499.000615 
L 436.274492 499.000615 
z
" clip-path="url(#p6112c94ddf)" style="fill: #1f77b4"/>
   </g>
   <g id="patch_17">
    <path d="M 456.203411 514.17792 
L 458.146481 514.17792 
L 458.146481 499.04257 
L 456.203411 499.04257 
z
" clip-path="url(#p6112c94ddf)" style="fill: #1f77b4"/>
   </g>
   <g id="patch_18">
    <path d="M 476.13233 514.17792 
L 478.075399 514.17792 
L 478.075399 499.082764 
L 476.13233 499.082764 
z
" clip-path="url(#p6112c94ddf)" style="fill: #1f77b4"/>
   </g>
   <g id="patch_19">
    <path d="M 496.061249 514.17792 
L 498.004318 514.17792 
L 498.004318 499.121327 
L 496.061249 499.121327 
z
" clip-path="url(#p6112c94ddf)" style="fill: #1f77b4"/>
   </g>
   <g id="patch_20">
    <path d="M 515.990168 514.17792 
L 517.933237 514.17792 
L 517.933237 499.158379 
L 515.990168 499.158379 
z
" clip-path="url(#p6112c94ddf)" style="fill: #1f77b4"/>
   </g>
   <g id="patch_21">
    <path d="M 535.919087 514.17792 
L 537.862156 514.17792 
L 537.862156 499.194026 
L 535.919087 499.194026 
z
" clip-path="url(#p6112c94ddf)" style="fill: #1f77b4"/>
   </g>
   <g id="patch_22">
    <path d="M 555.848006 514.17792 
L 557.791075 514.17792 
L 557.791075 499.228363 
L 555.848006 499.228363 
z
" clip-path="url(#p6112c94ddf)" style="fill: #1f77b4"/>
   </g>
   <g id="patch_23">
    <path d="M 575.776925 514.17792 
L 577.719994 514.17792 
L 577.719994 499.26148 
L 575.776925 499.26148 
z
" clip-path="url(#p6112c94ddf)" style="fill: #1f77b4"/>
   </g>
   <g id="patch_24">
    <path d="M 595.705844 514.17792 
L 597.648913 514.17792 
L 597.648913 499.293456 
L 595.705844 499.293456 
z
" clip-path="url(#p6112c94ddf)" style="fill: #1f77b4"/>
   </g>
   <g id="patch_25">
    <path d="M 615.634763 514.17792 
L 617.577832 514.17792 
L 617.577832 499.324364 
L 615.634763 499.324364 
z
" clip-path="url(#p6112c94ddf)" style="fill: #1f77b4"/>
   </g>
   <g id="patch_26">
    <path d="M 635.563682 514.17792 
L 637.506751 514.17792 
L 637.506751 499.35427 
L 635.563682 499.35427 
z
" clip-path="url(#p6112c94ddf)" style="fill: #1f77b4"/>
   </g>
   <g id="patch_27">
    <path d="M 655.492601 514.17792 
L 657.43567 514.17792 
L 657.43567 499.383236 
L 655.492601 499.383236 
z
" clip-path="url(#p6112c94ddf)" style="fill: #1f77b4"/>
   </g>
   <g id="patch_28">
    <path d="M 675.421519 514.17792 
L 677.364589 514.17792 
L 677.364589 499.411317 
L 675.421519 499.411317 
z
" clip-path="url(#p6112c94ddf)" style="fill: #1f77b4"/>
   </g>
   <g id="patch_29">
    <path d="M 695.350438 514.17792 
L 697.293508 514.17792 
L 697.293508 499.438565 
L 695.350438 499.438565 
z
" clip-path="url(#p6112c94ddf)" style="fill: #1f77b4"/>
   </g>
   <g id="patch_30">
    <path d="M 715.279357 514.17792 
L 717.222427 514.17792 
L 717.222427 499.465028 
L 715.279357 499.465028 
z
" clip-path="url(#p6112c94ddf)" style="fill: #1f77b4"/>
   </g>
   <g id="patch_31">
    <path d="M 735.208276 514.17792 
L 737.151346 514.17792 
L 737.151346 499.490749 
L 735.208276 499.490749 
z
" clip-path="url(#p6112c94ddf)" style="fill: #1f77b4"/>
   </g>
   <g id="patch_32">
    <path d="M 755.137195 514.17792 
L 757.080265 514.17792 
L 757.080265 499.515768 
L 755.137195 499.515768 
z
" clip-path="url(#p6112c94ddf)" style="fill: #1f77b4"/>
   </g>
   <g id="patch_33">
    <path d="M 775.066114 514.17792 
L 777.009184 514.17792 
L 777.009184 499.540123 
L 775.066114 499.540123 
z
" clip-path="url(#p6112c94ddf)" style="fill: #1f77b4"/>
   </g>
   <g id="patch_34">
    <path d="M 794.995033 514.17792 
L 796.938103 514.17792 
L 796.938103 499.563848 
L 794.995033 499.563848 
z
" clip-path="url(#p6112c94ddf)" style="fill: #1f77b4"/>
   </g>
   <g id="patch_35">
    <path d="M 814.923952 514.17792 
L 816.867022 514.17792 
L 816.867022 499.586976 
L 814.923952 499.586976 
z
" clip-path="url(#p6112c94ddf)" style="fill: #1f77b4"/>
   </g>
   <g id="patch_36">
    <path d="M 834.852871 514.17792 
L 836.795941 514.17792 
L 836.795941 499.609536 
L 834.852871 499.609536 
z
" clip-path="url(#p6112c94ddf)" style="fill: #1f77b4"/>
   </g>
   <g id="patch_37">
    <path d="M 854.78179 514.17792 
L 856.72486 514.17792 
L 856.72486 499.631557 
L 854.78179 499.631557 
z
" clip-path="url(#p6112c94ddf)" style="fill: #1f77b4"/>
   </g>
   <g id="patch_38">
    <path d="M 874.710709 514.17792 
L 876.653779 514.17792 
L 876.653779 499.653064 
L 874.710709 499.653064 
z
" clip-path="url(#p6112c94ddf)" style="fill: #1f77b4"/>
   </g>
   <g id="patch_39">
    <path d="M 894.639628 514.17792 
L 896.582698 514.17792 
L 896.582698 499.674082 
L 894.639628 499.674082 
z
" clip-path="url(#p6112c94ddf)" style="fill: #1f77b4"/>
   </g>
   <g id="patch_40">
    <path d="M 914.568547 514.17792 
L 916.511617 514.17792 
L 916.511617 499.694633 
L 914.568547 499.694633 
z
" clip-path="url(#p6112c94ddf)" style="fill: #1f77b4"/>
   </g>
   <g id="patch_41">
    <path d="M 934.497466 514.17792 
L 936.440536 514.17792 
L 936.440536 499.714739 
L 934.497466 499.714739 
z
" clip-path="url(#p6112c94ddf)" style="fill: #1f77b4"/>
   </g>
   <g id="patch_42">
    <path d="M 954.426385 514.17792 
L 956.369455 514.17792 
L 956.369455 499.734418 
L 954.426385 499.734418 
z
" clip-path="url(#p6112c94ddf)" style="fill: #1f77b4"/>
   </g>
   <g id="patch_43">
    <path d="M 177.198545 498.196862 
L 179.141615 498.196862 
L 179.141615 492.194522 
L 177.198545 492.194522 
z
" clip-path="url(#p6112c94ddf)" style="fill: #ff7f0e"/>
   </g>
   <g id="patch_44">
    <path d="M 197.127464 498.284283 
L 199.070534 498.284283 
L 199.070534 492.277641 
L 197.127464 492.277641 
z
" clip-path="url(#p6112c94ddf)" style="fill: #ff7f0e"/>
   </g>
   <g id="patch_45">
    <path d="M 217.056383 498.365725 
L 218.999453 498.365725 
L 218.999453 492.355614 
L 217.056383 492.355614 
z
" clip-path="url(#p6112c94ddf)" style="fill: #ff7f0e"/>
   </g>
   <g id="patch_46">
    <path d="M 236.985302 498.441808 
L 238.928372 498.441808 
L 238.928372 492.428995 
L 236.985302 492.428995 
z
" clip-path="url(#p6112c94ddf)" style="fill: #ff7f0e"/>
   </g>
   <g id="patch_47">
    <path d="M 256.914221 498.513075 
L 258.857291 498.513075 
L 258.857291 492.498266 
L 256.914221 492.498266 
z
" clip-path="url(#p6112c94ddf)" style="fill: #ff7f0e"/>
   </g>
   <g id="patch_48">
    <path d="M 276.84314 498.580004 
L 278.78621 498.580004 
L 278.78621 492.563852 
L 276.84314 492.563852 
z
" clip-path="url(#p6112c94ddf)" style="fill: #ff7f0e"/>
   </g>
   <g id="patch_49">
    <path d="M 296.772059 498.643015 
L 298.715129 498.643015 
L 298.715129 492.626126 
L 296.772059 492.626126 
z
" clip-path="url(#p6112c94ddf)" style="fill: #ff7f0e"/>
   </g>
   <g id="patch_50">
    <path d="M 316.700978 498.702478 
L 318.644048 498.702478 
L 318.644048 492.685412 
L 316.700978 492.685412 
z
" clip-path="url(#p6112c94ddf)" style="fill: #ff7f0e"/>
   </g>
   <g id="patch_51">
    <path d="M 336.629897 498.758718 
L 338.572967 498.758718 
L 338.572967 492.741999 
L 336.629897 492.741999 
z
" clip-path="url(#p6112c94ddf)" style="fill: #ff7f0e"/>
   </g>
   <g id="patch_52">
    <path d="M 356.558816 498.812024 
L 358.501886 498.812024 
L 358.501886 492.796138 
L 356.558816 492.796138 
z
" clip-path="url(#p6112c94ddf)" style="fill: #ff7f0e"/>
   </g>
   <g id="patch_53">
    <path d="M 376.487735 498.862651 
L 378.430805 498.862651 
L 378.430805 492.848052 
L 376.487735 492.848052 
z
" clip-path="url(#p6112c94ddf)" style="fill: #ff7f0e"/>
   </g>
   <g id="patch_54">
    <path d="M 396.416654 498.910828 
L 398.359724 498.910828 
L 398.359724 492.89794 
L 396.416654 492.89794 
z
" clip-path="url(#p6112c94ddf)" style="fill: #ff7f0e"/>
   </g>
   <g id="patch_55">
    <path d="M 416.345573 498.956755 
L 418.288643 498.956755 
L 418.288643 492.945976 
L 416.345573 492.945976 
z
" clip-path="url(#p6112c94ddf)" style="fill: #ff7f0e"/>
   </g>
   <g id="patch_56">
    <path d="M 436.274492 499.000615 
L 438.217562 499.000615 
L 438.217562 492.992317 
L 436.274492 492.992317 
z
" clip-path="url(#p6112c94ddf)" style="fill: #ff7f0e"/>
   </g>
   <g id="patch_57">
    <path d="M 456.203411 499.04257 
L 458.146481 499.04257 
L 458.146481 493.0371 
L 456.203411 493.0371 
z
" clip-path="url(#p6112c94ddf)" style="fill: #ff7f0e"/>
   </g>
   <g id="patch_58">
    <path d="M 476.13233 499.082764 
L 478.075399 499.082764 
L 478.075399 493.08045 
L 476.13233 493.08045 
z
" clip-path="url(#p6112c94ddf)" style="fill: #ff7f0e"/>
   </g>
   <g id="patch_59">
    <path d="M 496.061249 499.121327 
L 498.004318 499.121327 
L 498.004318 493.122479 
L 496.061249 493.122479 
z
" clip-path="url(#p6112c94ddf)" style="fill: #ff7f0e"/>
   </g>
   <g id="patch_60">
    <path d="M 515.990168 499.158379 
L 517.933237 499.158379 
L 517.933237 493.163285 
L 515.990168 493.163285 
z
" clip-path="url(#p6112c94ddf)" style="fill: #ff7f0e"/>
   </g>
   <g id="patch_61">
    <path d="M 535.919087 499.194026 
L 537.862156 499.194026 
L 537.862156 493.202959 
L 535.919087 493.202959 
z
" clip-path="url(#p6112c94ddf)" style="fill: #ff7f0e"/>
   </g>
   <g id="patch_62">
    <path d="M 555.848006 499.228363 
L 557.791075 499.228363 
L 557.791075 493.241582 
L 555.848006 493.241582 
z
" clip-path="url(#p6112c94ddf)" style="fill: #ff7f0e"/>
   </g>
   <g id="patch_63">
    <path d="M 575.776925 499.26148 
L 577.719994 499.26148 
L 577.719994 493.279227 
L 575.776925 493.279227 
z
" clip-path="url(#p6112c94ddf)" style="fill: #ff7f0e"/>
   </g>
   <g id="patch_64">
    <path d="M 595.705844 499.293456 
L 597.648913 499.293456 
L 597.648913 493.315961 
L 595.705844 493.315961 
z
" clip-path="url(#p6112c94ddf)" style="fill: #ff7f0e"/>
   </g>
   <g id="patch_65">
    <path d="M 615.634763 499.324364 
L 617.577832 499.324364 
L 617.577832 493.351844 
L 615.634763 493.351844 
z
" clip-path="url(#p6112c94ddf)" style="fill: #ff7f0e"/>
   </g>
   <g id="patch_66">
    <path d="M 635.563682 499.35427 
L 637.506751 499.35427 
L 637.506751 493.386931 
L 635.563682 493.386931 
z
" clip-path="url(#p6112c94ddf)" style="fill: #ff7f0e"/>
   </g>
   <g id="patch_67">
    <path d="M 655.492601 499.383236 
L 657.43567 499.383236 
L 657.43567 493.421271 
L 655.492601 493.421271 
z
" clip-path="url(#p6112c94ddf)" style="fill: #ff7f0e"/>
   </g>
   <g id="patch_68">
    <path d="M 675.421519 499.411317 
L 677.364589 499.411317 
L 677.364589 493.45491 
L 675.421519 493.45491 
z
" clip-path="url(#p6112c94ddf)" style="fill: #ff7f0e"/>
   </g>
   <g id="patch_69">
    <path d="M 695.350438 499.438565 
L 697.293508 499.438565 
L 697.293508 493.487891 
L 695.350438 493.487891 
z
" clip-path="url(#p6112c94ddf)" style="fill: #ff7f0e"/>
   </g>
   <g id="patch_70">
    <path d="M 715.279357 499.465028 
L 717.222427 499.465028 
L 717.222427 493.520252 
L 715.279357 493.520252 
z
" clip-path="url(#p6112c94ddf)" style="fill: #ff7f0e"/>
   </g>
   <g id="patch_71">
    <path d="M 735.208276 499.490749 
L 737.151346 499.490749 
L 737.151346 493.552028 
L 735.208276 493.552028 
z
" clip-path="url(#p6112c94ddf)" style="fill: #ff7f0e"/>
   </g>
   <g id="patch_72">
    <path d="M 755.137195 499.515768 
L 757.080265 499.515768 
L 757.080265 493.583251 
L 755.137195 493.583251 
z
" clip-path="url(#p6112c94ddf)" style="fill: #ff7f0e"/>
   </g>
   <g id="patch_73">
    <path d="M 775.066114 499.540123 
L 777.009184 499.540123 
L 777.009184 493.613952 
L 775.066114 493.613952 
z
" clip-path="url(#p6112c94ddf)" style="fill: #ff7f0e"/>
   </g>
   <g id="patch_74">
    <path d="M 794.995033 499.563848 
L 796.938103 499.563848 
L 796.938103 493.644157 
L 794.995033 493.644157 
z
" clip-path="url(#p6112c94ddf)" style="fill: #ff7f0e"/>
   </g>
   <g id="patch_75">
    <path d="M 814.923952 499.586976 
L 816.867022 499.586976 
L 816.867022 493.673893 
L 814.923952 493.673893 
z
" clip-path="url(#p6112c94ddf)" style="fill: #ff7f0e"/>
   </g>
   <g id="patch_76">
    <path d="M 834.852871 499.609536 
L 836.795941 499.609536 
L 836.795941 493.703184 
L 834.852871 493.703184 
z
" clip-path="url(#p6112c94ddf)" style="fill: #ff7f0e"/>
   </g>
   <g id="patch_77">
    <path d="M 854.78179 499.631557 
L 856.72486 499.631557 
L 856.72486 493.73205 
L 854.78179 493.73205 
z
" clip-path="url(#p6112c94ddf)" style="fill: #ff7f0e"/>
   </g>
   <g id="patch_78">
    <path d="M 874.710709 499.653064 
L 876.653779 499.653064 
L 876.653779 493.760513 
L 874.710709 493.760513 
z
" clip-path="url(#p6112c94ddf)" style="fill: #ff7f0e"/>
   </g>
   <g id="patch_79">
    <path d="M 894.639628 499.674082 
L 896.582698 499.674082 
L 896.582698 493.788591 
L 894.639628 493.788591 
z
" clip-path="url(#p6112c94ddf)" style="fill: #ff7f0e"/>
   </g>
   <g id="patch_80">
    <path d="M 914.568547 499.694633 
L 916.511617 499.694633 
L 916.511617 493.816302 
L 914.568547 493.816302 
z
" clip-path="url(#p6112c94ddf)" style="fill: #ff7f0e"/>
   </g>
   <g id="patch_81">
    <path d="M 934.497466 499.714739 
L 936.440536 499.714739 
L 936.440536 493.843662 
L 934.497466 493.843662 
z
" clip-path="url(#p6112c94ddf)" style="fill: #ff7f0e"/>
   </g>
   <g id="patch_82">
    <path d="M 954.426385 499.734418 
L 956.369455 499.734418 
L 956.369455 493.870687 
L 954.426385 493.870687 
z
" clip-path="url(#p6112c94ddf)" style="fill: #ff7f0e"/>
   </g>
   <g id="patch_83">
    <path d="M 177.198545 492.194522 
L 179.141615 492.194522 
L 179.141615 235.150891 
L 177.198545 235.150891 
z
" clip-path="url(#p6112c94ddf)" style="fill: #2ca02c"/>
   </g>
   <g id="patch_84">
    <path d="M 197.127464 492.277641 
L 199.070534 492.277641 
L 199.070534 235.816245 
L 197.127464 235.816245 
z
" clip-path="url(#p6112c94ddf)" style="fill: #2ca02c"/>
   </g>
   <g id="patch_85">
    <path d="M 217.056383 492.355614 
L 218.999453 492.355614 
L 218.999453 236.415432 
L 217.056383 236.415432 
z
" clip-path="url(#p6112c94ddf)" style="fill: #2ca02c"/>
   </g>
   <g id="patch_86">
    <path d="M 236.985302 492.428995 
L 238.928372 492.428995 
L 238.928372 236.953853 
L 236.985302 236.953853 
z
" clip-path="url(#p6112c94ddf)" style="fill: #2ca02c"/>
   </g>
   <g id="patch_87">
    <path d="M 256.914221 492.498266 
L 258.857291 492.498266 
L 258.857291 237.436318 
L 256.914221 237.436318 
z
" clip-path="url(#p6112c94ddf)" style="fill: #2ca02c"/>
   </g>
   <g id="patch_88">
    <path d="M 276.84314 492.563852 
L 278.78621 492.563852 
L 278.78621 237.86713 
L 276.84314 237.86713 
z
" clip-path="url(#p6112c94ddf)" style="fill: #2ca02c"/>
   </g>
   <g id="patch_89">
    <path d="M 296.772059 492.626126 
L 298.715129 492.626126 
L 298.715129 238.250147 
L 296.772059 238.250147 
z
" clip-path="url(#p6112c94ddf)" style="fill: #2ca02c"/>
   </g>
   <g id="patch_90">
    <path d="M 316.700978 492.685412 
L 318.644048 492.685412 
L 318.644048 238.588842 
L 316.700978 238.588842 
z
" clip-path="url(#p6112c94ddf)" style="fill: #2ca02c"/>
   </g>
   <g id="patch_91">
    <path d="M 336.629897 492.741999 
L 338.572967 492.741999 
L 338.572967 238.886349 
L 336.629897 238.886349 
z
" clip-path="url(#p6112c94ddf)" style="fill: #2ca02c"/>
   </g>
   <g id="patch_92">
    <path d="M 356.558816 492.796138 
L 358.501886 492.796138 
L 358.501886 239.145507 
L 356.558816 239.145507 
z
" clip-path="url(#p6112c94ddf)" style="fill: #2ca02c"/>
   </g>
   <g id="patch_93">
    <path d="M 376.487735 492.848052 
L 378.430805 492.848052 
L 378.430805 239.368893 
L 376.487735 239.368893 
z
" clip-path="url(#p6112c94ddf)" style="fill: #2ca02c"/>
   </g>
   <g id="patch_94">
    <path d="M 396.416654 492.89794 
L 398.359724 492.89794 
L 398.359724 239.558856 
L 396.416654 239.558856 
z
" clip-path="url(#p6112c94ddf)" style="fill: #2ca02c"/>
   </g>
   <g id="patch_95">
    <path d="M 416.345573 492.945976 
L 418.288643 492.945976 
L 418.288643 239.717536 
L 416.345573 239.717536 
z
" clip-path="url(#p6112c94ddf)" style="fill: #2ca02c"/>
   </g>
   <g id="patch_96">
    <path d="M 436.274492 492.992317 
L 438.217562 492.992317 
L 438.217562 239.846895 
L 436.274492 239.846895 
z
" clip-path="url(#p6112c94ddf)" style="fill: #2ca02c"/>
   </g>
   <g id="patch_97">
    <path d="M 456.203411 493.0371 
L 458.146481 493.0371 
L 458.146481 239.94873 
L 456.203411 239.94873 
z
" clip-path="url(#p6112c94ddf)" style="fill: #2ca02c"/>
   </g>
   <g id="patch_98">
    <path d="M 476.13233 493.08045 
L 478.075399 493.08045 
L 478.075399 240.024692 
L 476.13233 240.024692 
z
" clip-path="url(#p6112c94ddf)" style="fill: #2ca02c"/>
   </g>
   <g id="patch_99">
    <path d="M 496.061249 493.122479 
L 498.004318 493.122479 
L 498.004318 240.076303 
L 496.061249 240.076303 
z
" clip-path="url(#p6112c94ddf)" style="fill: #2ca02c"/>
   </g>
   <g id="patch_100">
    <path d="M 515.990168 493.163285 
L 517.933237 493.163285 
L 517.933237 240.104968 
L 515.990168 240.104968 
z
" clip-path="url(#p6112c94ddf)" style="fill: #2ca02c"/>
   </g>
   <g id="patch_101">
    <path d="M 535.919087 493.202959 
L 537.862156 493.202959 
L 537.862156 240.111985 
L 535.919087 240.111985 
z
" clip-path="url(#p6112c94ddf)" style="fill: #2ca02c"/>
   </g>
   <g id="patch_102">
    <path d="M 555.848006 493.241582 
L 557.791075 493.241582 
L 557.791075 240.098556 
L 555.848006 240.098556 
z
" clip-path="url(#p6112c94ddf)" style="fill: #2ca02c"/>
   </g>
   <g id="patch_103">
    <path d="M 575.776925 493.279227 
L 577.719994 493.279227 
L 577.719994 240.065796 
L 575.776925 240.065796 
z
" clip-path="url(#p6112c94ddf)" style="fill: #2ca02c"/>
   </g>
   <g id="patch_104">
    <path d="M 595.705844 493.315961 
L 597.648913 493.315961 
L 597.648913 240.014744 
L 595.705844 240.014744 
z
" clip-path="url(#p6112c94ddf)" style="fill: #2ca02c"/>
   </g>
   <g id="patch_105">
    <path d="M 615.634763 493.351844 
L 617.577832 493.351844 
L 617.577832 239.946362 
L 615.634763 239.946362 
z
" clip-path="url(#p6112c94ddf)" style="fill: #2ca02c"/>
   </g>
   <g id="patch_106">
    <path d="M 635.563682 493.386931 
L 637.506751 493.386931 
L 637.506751 239.861551 
L 635.563682 239.861551 
z
" clip-path="url(#p6112c94ddf)" style="fill: #2ca02c"/>
   </g>
   <g id="patch_107">
    <path d="M 655.492601 493.421271 
L 657.43567 493.421271 
L 657.43567 239.76115 
L 655.492601 239.76115 
z
" clip-path="url(#p6112c94ddf)" style="fill: #2ca02c"/>
   </g>
   <g id="patch_108">
    <path d="M 675.421519 493.45491 
L 677.364589 493.45491 
L 677.364589 239.645944 
L 675.421519 239.645944 
z
" clip-path="url(#p6112c94ddf)" style="fill: #2ca02c"/>
   </g>
   <g id="patch_109">
    <path d="M 695.350438 493.487891 
L 697.293508 493.487891 
L 697.293508 239.516667 
L 695.350438 239.516667 
z
" clip-path="url(#p6112c94ddf)" style="fill: #2ca02c"/>
   </g>
   <g id="patch_110">
    <path d="M 715.279357 493.520252 
L 717.222427 493.520252 
L 717.222427 239.374008 
L 715.279357 239.374008 
z
" clip-path="url(#p6112c94ddf)" style="fill: #2ca02c"/>
   </g>
   <g id="patch_111">
    <path d="M 735.208276 493.552028 
L 737.151346 493.552028 
L 737.151346 239.218612 
L 735.208276 239.218612 
z
" clip-path="url(#p6112c94ddf)" style="fill: #2ca02c"/>
   </g>
   <g id="patch_112">
    <path d="M 755.137195 493.583251 
L 757.080265 493.583251 
L 757.080265 239.051085 
L 755.137195 239.051085 
z
" clip-path="url(#p6112c94ddf)" style="fill: #2ca02c"/>
   </g>
   <g id="patch_113">
    <path d="M 775.066114 493.613952 
L 777.009184 493.613952 
L 777.009184 238.871999 
L 775.066114 238.871999 
z
" clip-path="url(#p6112c94ddf)" style="fill: #2ca02c"/>
   </g>
   <g id="patch_114">
    <path d="M 794.995033 493.644157 
L 796.938103 493.644157 
L 796.938103 238.681889 
L 794.995033 238.681889 
z
" clip-path="url(#p6112c94ddf)" style="fill: #2ca02c"/>
   </g>
   <g id="patch_115">
    <path d="M 814.923952 493.673893 
L 816.867022 493.673893 
L 816.867022 238.481262 
L 814.923952 238.481262 
z
" clip-path="url(#p6112c94ddf)" style="fill: #2ca02c"/>
   </g>
   <g id="patch_116">
    <path d="M 834.852871 493.703184 
L 836.795941 493.703184 
L 836.795941 238.270594 
L 834.852871 238.270594 
z
" clip-path="url(#p6112c94ddf)" style="fill: #2ca02c"/>
   </g>
   <g id="patch_117">
    <path d="M 854.78179 493.73205 
L 856.72486 493.73205 
L 856.72486 238.050337 
L 854.78179 238.050337 
z
" clip-path="url(#p6112c94ddf)" style="fill: #2ca02c"/>
   </g>
   <g id="patch_118">
    <path d="M 874.710709 493.760513 
L 876.653779 493.760513 
L 876.653779 237.820914 
L 874.710709 237.820914 
z
" clip-path="url(#p6112c94ddf)" style="fill: #2ca02c"/>
   </g>
   <g id="patch_119">
    <path d="M 894.639628 493.788591 
L 896.582698 493.788591 
L 896.582698 237.582731 
L 894.639628 237.582731 
z
" clip-path="url(#p6112c94ddf)" style="fill: #2ca02c"/>
   </g>
   <g id="patch_120">
    <path d="M 914.568547 493.816302 
L 916.511617 493.816302 
L 916.511617 237.336166 
L 914.568547 237.336166 
z
" clip-path="url(#p6112c94ddf)" style="fill: #2ca02c"/>
   </g>
   <g id="patch_121">
    <path d="M 934.497466 493.843662 
L 936.440536 493.843662 
L 936.440536 237.081581 
L 934.497466 237.081581 
z
" clip-path="url(#p6112c94ddf)" style="fill: #2ca02c"/>
   </g>
   <g id="patch_122">
    <path d="M 954.426385 493.870687 
L 956.369455 493.870687 
L 956.369455 236.819319 
L 954.426385 236.819319 
z
" clip-path="url(#p6112c94ddf)" style="fill: #2ca02c"/>
   </g>
   <g id="patch_123">
    <path d="M 177.198545 235.150891 
L 179.141615 235.150891 
L 179.141615 90.51072 
L 177.198545 90.51072 
z
" clip-path="url(#p6112c94ddf)" style="fill: #d62728"/>
   </g>
   <g id="patch_124">
    <path d="M 197.127464 235.816245 
L 199.070534 235.816245 
L 199.070534 91.41535 
L 197.127464 91.41535 
z
" clip-path="url(#p6112c94ddf)" style="fill: #d62728"/>
   </g>
   <g id="patch_125">
    <path d="M 217.056383 236.415432 
L 218.999453 236.415432 
L 218.999453 92.23179 
L 217.056383 92.23179 
z
" clip-path="url(#p6112c94ddf)" style="fill: #d62728"/>
   </g>
   <g id="patch_126">
    <path d="M 236.985302 236.953853 
L 238.928372 236.953853 
L 238.928372 92.967295 
L 236.985302 92.967295 
z
" clip-path="url(#p6112c94ddf)" style="fill: #d62728"/>
   </g>
   <g id="patch_127">
    <path d="M 256.914221 237.436318 
L 258.857291 237.436318 
L 258.857291 93.628326 
L 256.914221 93.628326 
z
" clip-path="url(#p6112c94ddf)" style="fill: #d62728"/>
   </g>
   <g id="patch_128">
    <path d="M 276.84314 237.86713 
L 278.78621 237.86713 
L 278.78621 94.220648 
L 276.84314 94.220648 
z
" clip-path="url(#p6112c94ddf)" style="fill: #d62728"/>
   </g>
   <g id="patch_129">
    <path d="M 296.772059 238.250147 
L 298.715129 238.250147 
L 298.715129 94.749432 
L 296.772059 94.749432 
z
" clip-path="url(#p6112c94ddf)" style="fill: #d62728"/>
   </g>
   <g id="patch_130">
    <path d="M 316.700978 238.588842 
L 318.644048 238.588842 
L 318.644048 95.219326 
L 316.700978 95.219326 
z
" clip-path="url(#p6112c94ddf)" style="fill: #d62728"/>
   </g>
   <g id="patch_131">
    <path d="M 336.629897 238.886349 
L 338.572967 238.886349 
L 338.572967 95.634526 
L 336.629897 95.634526 
z
" clip-path="url(#p6112c94ddf)" style="fill: #d62728"/>
   </g>
   <g id="patch_132">
    <path d="M 356.558816 239.145507 
L 358.501886 239.145507 
L 358.501886 95.998825 
L 356.558816 95.998825 
z
" clip-path="url(#p6112c94ddf)" style="fill: #d62728"/>
   </g>
   <g id="patch_133">
    <path d="M 376.487735 239.368893 
L 378.430805 239.368893 
L 378.430805 96.315668 
L 376.487735 96.315668 
z
" clip-path="url(#p6112c94ddf)" style="fill: #d62728"/>
   </g>
   <g id="patch_134">
    <path d="M 396.416654 239.558856 
L 398.359724 239.558856 
L 398.359724 96.588189 
L 396.416654 96.588189 
z
" clip-path="url(#p6112c94ddf)" style="fill: #d62728"/>
   </g>
   <g id="patch_135">
    <path d="M 416.345573 239.717536 
L 418.288643 239.717536 
L 418.288643 96.819247 
L 416.345573 96.819247 
z
" clip-path="url(#p6112c94ddf)" style="fill: #d62728"/>
   </g>
   <g id="patch_136">
    <path d="M 436.274492 239.846895 
L 438.217562 239.846895 
L 438.217562 97.011457 
L 436.274492 97.011457 
z
" clip-path="url(#p6112c94ddf)" style="fill: #d62728"/>
   </g>
   <g id="patch_137">
    <path d="M 456.203411 239.94873 
L 458.146481 239.94873 
L 458.146481 97.167216 
L 456.203411 97.167216 
z
" clip-path="url(#p6112c94ddf)" style="fill: #d62728"/>
   </g>
   <g id="patch_138">
    <path d="M 476.13233 240.024692 
L 478.075399 240.024692 
L 478.075399 97.288726 
L 476.13233 97.288726 
z
" clip-path="url(#p6112c94ddf)" style="fill: #d62728"/>
   </g>
   <g id="patch_139">
    <path d="M 496.061249 240.076303 
L 498.004318 240.076303 
L 498.004318 97.378014 
L 496.061249 97.378014 
z
" clip-path="url(#p6112c94ddf)" style="fill: #d62728"/>
   </g>
   <g id="patch_140">
    <path d="M 515.990168 240.104968 
L 517.933237 240.104968 
L 517.933237 97.436949 
L 515.990168 97.436949 
z
" clip-path="url(#p6112c94ddf)" style="fill: #d62728"/>
   </g>
   <g id="patch_141">
    <path d="M 535.919087 240.111985 
L 537.862156 240.111985 
L 537.862156 97.467261 
L 535.919087 97.467261 
z
" clip-path="url(#p6112c94ddf)" style="fill: #d62728"/>
   </g>
   <g id="patch_142">
    <path d="M 555.848006 240.098556 
L 557.791075 240.098556 
L 557.791075 97.470548 
L 555.848006 97.470548 
z
" clip-path="url(#p6112c94ddf)" style="fill: #d62728"/>
   </g>
   <g id="patch_143">
    <path d="M 575.776925 240.065796 
L 577.719994 240.065796 
L 577.719994 97.448295 
L 575.776925 97.448295 
z
" clip-path="url(#p6112c94ddf)" style="fill: #d62728"/>
   </g>
   <g id="patch_144">
    <path d="M 595.705844 240.014744 
L 597.648913 240.014744 
L 597.648913 97.401882 
L 595.705844 97.401882 
z
" clip-path="url(#p6112c94ddf)" style="fill: #d62728"/>
   </g>
   <g id="patch_145">
    <path d="M 615.634763 239.946362 
L 617.577832 239.946362 
L 617.577832 97.332589 
L 615.634763 97.332589 
z
" clip-path="url(#p6112c94ddf)" style="fill: #d62728"/>
   </g>
   <g id="patch_146">
    <path d="M 635.563682 239.861551 
L 637.506751 239.861551 
L 637.506751 97.241612 
L 635.563682 97.241612 
z
" clip-path="url(#p6112c94ddf)" style="fill: #d62728"/>
   </g>
   <g id="patch_147">
    <path d="M 655.492601 239.76115 
L 657.43567 239.76115 
L 657.43567 97.130068 
L 655.492601 97.130068 
z
" clip-path="url(#p6112c94ddf)" style="fill: #d62728"/>
   </g>
   <g id="patch_148">
    <path d="M 675.421519 239.645944 
L 677.364589 239.645944 
L 677.364589 96.998996 
L 675.421519 96.998996 
z
" clip-path="url(#p6112c94ddf)" style="fill: #d62728"/>
   </g>
   <g id="patch_149">
    <path d="M 695.350438 239.516667 
L 697.293508 239.516667 
L 697.293508 96.849373 
L 695.350438 96.849373 
z
" clip-path="url(#p6112c94ddf)" style="fill: #d62728"/>
   </g>
   <g id="patch_150">
    <path d="M 715.279357 239.374008 
L 717.222427 239.374008 
L 717.222427 96.682112 
L 715.279357 96.682112 
z
" clip-path="url(#p6112c94ddf)" style="fill: #d62728"/>
   </g>
   <g id="patch_151">
    <path d="M 735.208276 239.218612 
L 737.151346 239.218612 
L 737.151346 96.498069 
L 735.208276 96.498069 
z
" clip-path="url(#p6112c94ddf)" style="fill: #d62728"/>
   </g>
   <g id="patch_152">
    <path d="M 755.137195 239.051085 
L 757.080265 239.051085 
L 757.080265 96.29805 
L 755.137195 96.29805 
z
" clip-path="url(#p6112c94ddf)" style="fill: #d62728"/>
   </g>
   <g id="patch_153">
    <path d="M 775.066114 238.871999 
L 777.009184 238.871999 
L 777.009184 96.08281 
L 775.066114 96.08281 
z
" clip-path="url(#p6112c94ddf)" style="fill: #d62728"/>
   </g>
   <g id="patch_154">
    <path d="M 794.995033 238.681889 
L 796.938103 238.681889 
L 796.938103 95.85306 
L 794.995033 95.85306 
z
" clip-path="url(#p6112c94ddf)" style="fill: #d62728"/>
   </g>
   <g id="patch_155">
    <path d="M 814.923952 238.481262 
L 816.867022 238.481262 
L 816.867022 95.609472 
L 814.923952 95.609472 
z
" clip-path="url(#p6112c94ddf)" style="fill: #d62728"/>
   </g>
   <g id="patch_156">
    <path d="M 834.852871 238.270594 
L 836.795941 238.270594 
L 836.795941 95.352677 
L 834.852871 95.352677 
z
" clip-path="url(#p6112c94ddf)" style="fill: #d62728"/>
   </g>
   <g id="patch_157">
    <path d="M 854.78179 238.050337 
L 856.72486 238.050337 
L 856.72486 95.083272 
L 854.78179 95.083272 
z
" clip-path="url(#p6112c94ddf)" style="fill: #d62728"/>
   </g>
   <g id="patch_158">
    <path d="M 874.710709 237.820914 
L 876.653779 237.820914 
L 876.653779 94.801821 
L 874.710709 94.801821 
z
" clip-path="url(#p6112c94ddf)" style="fill: #d62728"/>
   </g>
   <g id="patch_159">
    <path d="M 894.639628 237.582731 
L 896.582698 237.582731 
L 896.582698 94.508856 
L 894.639628 94.508856 
z
" clip-path="url(#p6112c94ddf)" style="fill: #d62728"/>
   </g>
   <g id="patch_160">
    <path d="M 914.568547 237.336166 
L 916.511617 237.336166 
L 916.511617 94.204881 
L 914.568547 94.204881 
z
" clip-path="url(#p6112c94ddf)" style="fill: #d62728"/>
   </g>
   <g id="patch_161">
    <path d="M 934.497466 237.081581 
L 936.440536 237.081581 
L 936.440536 93.890375 
L 934.497466 93.890375 
z
" clip-path="url(#p6112c94ddf)" style="fill: #d62728"/>
   </g>
   <g id="patch_162">
    <path d="M 954.426385 236.819319 
L 956.369455 236.819319 
L 956.369455 93.56579 
L 954.426385 93.56579 
z
" clip-path="url(#p6112c94ddf)" style="fill: #d62728"/>
   </g>
   <g id="matplotlib.axis_1">
    <g id="xtick_1">
     <g id="line2d_1">
      <defs>
       <path id="m1bdea4a852" d="M 0 0 
L 0 3.5 
" style="stroke: #000000; stroke-width: 0.8"/>
      </defs>
      <g>
       <use xlink:href="#m1bdea4a852" x="178.17008" y="514.17792" style="stroke: #000000; stroke-width: 0.8"/>
      </g>
     </g>
     <g id="text_1">
      <!-- 50 -->
      <g transform="translate(166.71758 534.855107) scale(0.18 -0.18)">
       <defs>
        <path id="DejaVuSans-35" d="M 691 4666 
L 3169 4666 
L 3169 4134 
L 1269 4134 
L 1269 2991 
Q 1406 3038 1543 3061 
Q 1681 3084 1819 3084 
Q 2600 3084 3056 2656 
Q 3513 2228 3513 1497 
Q 3513 744 3044 326 
Q 2575 -91 1722 -91 
Q 1428 -91 1123 -41 
Q 819 9 494 109 
L 494 744 
Q 775 591 1075 516 
Q 1375 441 1709 441 
Q 2250 441 2565 725 
Q 2881 1009 2881 1497 
Q 2881 1984 2565 2268 
Q 2250 2553 1709 2553 
Q 1456 2553 1204 2497 
Q 953 2441 691 2322 
L 691 4666 
z
" transform="scale(0.015625)"/>
        <path id="DejaVuSans-30" d="M 2034 4250 
Q 1547 4250 1301 3770 
Q 1056 3291 1056 2328 
Q 1056 1369 1301 889 
Q 1547 409 2034 409 
Q 2525 409 2770 889 
Q 3016 1369 3016 2328 
Q 3016 3291 2770 3770 
Q 2525 4250 2034 4250 
z
M 2034 4750 
Q 2819 4750 3233 4129 
Q 3647 3509 3647 2328 
Q 3647 1150 3233 529 
Q 2819 -91 2034 -91 
Q 1250 -91 836 529 
Q 422 1150 422 2328 
Q 422 3509 836 4129 
Q 1250 4750 2034 4750 
z
" transform="scale(0.015625)"/>
       </defs>
       <use xlink:href="#DejaVuSans-35"/>
       <use xlink:href="#DejaVuSans-30" x="63.623047"/>
      </g>
     </g>
    </g>
    <g id="xtick_2">
     <g id="line2d_2">
      <g>
       <use xlink:href="#m1bdea4a852" x="275.32356" y="514.17792" style="stroke: #000000; stroke-width: 0.8"/>
      </g>
     </g>
     <g id="text_2">
      <!-- 55 -->
      <g transform="translate(263.87106 534.855107) scale(0.18 -0.18)">
       <use xlink:href="#DejaVuSans-35"/>
       <use xlink:href="#DejaVuSans-35" x="63.623047"/>
      </g>
     </g>
    </g>
    <g id="xtick_3">
     <g id="line2d_3">
      <g>
       <use xlink:href="#m1bdea4a852" x="372.47704" y="514.17792" style="stroke: #000000; stroke-width: 0.8"/>
      </g>
     </g>
     <g id="text_3">
      <!-- 60 -->
      <g transform="translate(361.02454 534.855107) scale(0.18 -0.18)">
       <defs>
        <path id="DejaVuSans-36" d="M 2113 2584 
Q 1688 2584 1439 2293 
Q 1191 2003 1191 1497 
Q 1191 994 1439 701 
Q 1688 409 2113 409 
Q 2538 409 2786 701 
Q 3034 994 3034 1497 
Q 3034 2003 2786 2293 
Q 2538 2584 2113 2584 
z
M 3366 4563 
L 3366 3988 
Q 3128 4100 2886 4159 
Q 2644 4219 2406 4219 
Q 1781 4219 1451 3797 
Q 1122 3375 1075 2522 
Q 1259 2794 1537 2939 
Q 1816 3084 2150 3084 
Q 2853 3084 3261 2657 
Q 3669 2231 3669 1497 
Q 3669 778 3244 343 
Q 2819 -91 2113 -91 
Q 1303 -91 875 529 
Q 447 1150 447 2328 
Q 447 3434 972 4092 
Q 1497 4750 2381 4750 
Q 2619 4750 2861 4703 
Q 3103 4656 3366 4563 
z
" transform="scale(0.015625)"/>
       </defs>
       <use xlink:href="#DejaVuSans-36"/>
       <use xlink:href="#DejaVuSans-30" x="63.623047"/>
      </g>
     </g>
    </g>
    <g id="xtick_4">
     <g id="line2d_4">
      <g>
       <use xlink:href="#m1bdea4a852" x="469.63052" y="514.17792" style="stroke: #000000; stroke-width: 0.8"/>
      </g>
     </g>
     <g id="text_4">
      <!-- 65 -->
      <g transform="translate(458.17802 534.855107) scale(0.18 -0.18)">
       <use xlink:href="#DejaVuSans-36"/>
       <use xlink:href="#DejaVuSans-35" x="63.623047"/>
      </g>
     </g>
    </g>
    <g id="xtick_5">
     <g id="line2d_5">
      <g>
       <use xlink:href="#m1bdea4a852" x="566.784" y="514.17792" style="stroke: #000000; stroke-width: 0.8"/>
      </g>
     </g>
     <g id="text_5">
      <!-- 70 -->
      <g transform="translate(555.3315 534.855107) scale(0.18 -0.18)">
       <defs>
        <path id="DejaVuSans-37" d="M 525 4666 
L 3525 4666 
L 3525 4397 
L 1831 0 
L 1172 0 
L 2766 4134 
L 525 4134 
L 525 4666 
z
" transform="scale(0.015625)"/>
       </defs>
       <use xlink:href="#DejaVuSans-37"/>
       <use xlink:href="#DejaVuSans-30" x="63.623047"/>
      </g>
     </g>
    </g>
    <g id="xtick_6">
     <g id="line2d_6">
      <g>
       <use xlink:href="#m1bdea4a852" x="663.93748" y="514.17792" style="stroke: #000000; stroke-width: 0.8"/>
      </g>
     </g>
     <g id="text_6">
      <!-- 75 -->
      <g transform="translate(652.48498 534.855107) scale(0.18 -0.18)">
       <use xlink:href="#DejaVuSans-37"/>
       <use xlink:href="#DejaVuSans-35" x="63.623047"/>
      </g>
     </g>
    </g>
    <g id="xtick_7">
     <g id="line2d_7">
      <g>
       <use xlink:href="#m1bdea4a852" x="761.09096" y="514.17792" style="stroke: #000000; stroke-width: 0.8"/>
      </g>
     </g>
     <g id="text_7">
      <!-- 80 -->
      <g transform="translate(749.63846 534.855107) scale(0.18 -0.18)">
       <defs>
        <path id="DejaVuSans-38" d="M 2034 2216 
Q 1584 2216 1326 1975 
Q 1069 1734 1069 1313 
Q 1069 891 1326 650 
Q 1584 409 2034 409 
Q 2484 409 2743 651 
Q 3003 894 3003 1313 
Q 3003 1734 2745 1975 
Q 2488 2216 2034 2216 
z
M 1403 2484 
Q 997 2584 770 2862 
Q 544 3141 544 3541 
Q 544 4100 942 4425 
Q 1341 4750 2034 4750 
Q 2731 4750 3128 4425 
Q 3525 4100 3525 3541 
Q 3525 3141 3298 2862 
Q 3072 2584 2669 2484 
Q 3125 2378 3379 2068 
Q 3634 1759 3634 1313 
Q 3634 634 3220 271 
Q 2806 -91 2034 -91 
Q 1263 -91 848 271 
Q 434 634 434 1313 
Q 434 1759 690 2068 
Q 947 2378 1403 2484 
z
M 1172 3481 
Q 1172 3119 1398 2916 
Q 1625 2713 2034 2713 
Q 2441 2713 2670 2916 
Q 2900 3119 2900 3481 
Q 2900 3844 2670 4047 
Q 2441 4250 2034 4250 
Q 1625 4250 1398 4047 
Q 1172 3844 1172 3481 
z
" transform="scale(0.015625)"/>
       </defs>
       <use xlink:href="#DejaVuSans-38"/>
       <use xlink:href="#DejaVuSans-30" x="63.623047"/>
      </g>
     </g>
    </g>
    <g id="xtick_8">
     <g id="line2d_8">
      <g>
       <use xlink:href="#m1bdea4a852" x="858.24444" y="514.17792" style="stroke: #000000; stroke-width: 0.8"/>
      </g>
     </g>
     <g id="text_8">
      <!-- 85 -->
      <g transform="translate(846.79194 534.855107) scale(0.18 -0.18)">
       <use xlink:href="#DejaVuSans-38"/>
       <use xlink:href="#DejaVuSans-35" x="63.623047"/>
      </g>
     </g>
    </g>
    <g id="xtick_9">
     <g id="line2d_9">
      <g>
       <use xlink:href="#m1bdea4a852" x="955.39792" y="514.17792" style="stroke: #000000; stroke-width: 0.8"/>
      </g>
     </g>
     <g id="text_9">
      <!-- 90 -->
      <g transform="translate(943.94542 534.855107) scale(0.18 -0.18)">
       <defs>
        <path id="DejaVuSans-39" d="M 703 97 
L 703 672 
Q 941 559 1184 500 
Q 1428 441 1663 441 
Q 2288 441 2617 861 
Q 2947 1281 2994 2138 
Q 2813 1869 2534 1725 
Q 2256 1581 1919 1581 
Q 1219 1581 811 2004 
Q 403 2428 403 3163 
Q 403 3881 828 4315 
Q 1253 4750 1959 4750 
Q 2769 4750 3195 4129 
Q 3622 3509 3622 2328 
Q 3622 1225 3098 567 
Q 2575 -91 1691 -91 
Q 1453 -91 1209 -44 
Q 966 3 703 97 
z
M 1959 2075 
Q 2384 2075 2632 2365 
Q 2881 2656 2881 3163 
Q 2881 3666 2632 3958 
Q 2384 4250 1959 4250 
Q 1534 4250 1286 3958 
Q 1038 3666 1038 3163 
Q 1038 2656 1286 2365 
Q 1534 2075 1959 2075 
z
" transform="scale(0.015625)"/>
       </defs>
       <use xlink:href="#DejaVuSans-39"/>
       <use xlink:href="#DejaVuSans-30" x="63.623047"/>
      </g>
     </g>
    </g>
    <g id="text_10">
     <!-- Kondensatordruck in bar -->
     <g transform="translate(456.254156 556.275733) scale(0.18 -0.18)">
      <defs>
       <path id="DejaVuSans-4b" d="M 628 4666 
L 1259 4666 
L 1259 2694 
L 3353 4666 
L 4166 4666 
L 1850 2491 
L 4331 0 
L 3500 0 
L 1259 2247 
L 1259 0 
L 628 0 
L 628 4666 
z
" transform="scale(0.015625)"/>
       <path id="DejaVuSans-6f" d="M 1959 3097 
Q 1497 3097 1228 2736 
Q 959 2375 959 1747 
Q 959 1119 1226 758 
Q 1494 397 1959 397 
Q 2419 397 2687 759 
Q 2956 1122 2956 1747 
Q 2956 2369 2687 2733 
Q 2419 3097 1959 3097 
z
M 1959 3584 
Q 2709 3584 3137 3096 
Q 3566 2609 3566 1747 
Q 3566 888 3137 398 
Q 2709 -91 1959 -91 
Q 1206 -91 779 398 
Q 353 888 353 1747 
Q 353 2609 779 3096 
Q 1206 3584 1959 3584 
z
" transform="scale(0.015625)"/>
       <path id="DejaVuSans-6e" d="M 3513 2113 
L 3513 0 
L 2938 0 
L 2938 2094 
Q 2938 2591 2744 2837 
Q 2550 3084 2163 3084 
Q 1697 3084 1428 2787 
Q 1159 2491 1159 1978 
L 1159 0 
L 581 0 
L 581 3500 
L 1159 3500 
L 1159 2956 
Q 1366 3272 1645 3428 
Q 1925 3584 2291 3584 
Q 2894 3584 3203 3211 
Q 3513 2838 3513 2113 
z
" transform="scale(0.015625)"/>
       <path id="DejaVuSans-64" d="M 2906 2969 
L 2906 4863 
L 3481 4863 
L 3481 0 
L 2906 0 
L 2906 525 
Q 2725 213 2448 61 
Q 2172 -91 1784 -91 
Q 1150 -91 751 415 
Q 353 922 353 1747 
Q 353 2572 751 3078 
Q 1150 3584 1784 3584 
Q 2172 3584 2448 3432 
Q 2725 3281 2906 2969 
z
M 947 1747 
Q 947 1113 1208 752 
Q 1469 391 1925 391 
Q 2381 391 2643 752 
Q 2906 1113 2906 1747 
Q 2906 2381 2643 2742 
Q 2381 3103 1925 3103 
Q 1469 3103 1208 2742 
Q 947 2381 947 1747 
z
" transform="scale(0.015625)"/>
       <path id="DejaVuSans-65" d="M 3597 1894 
L 3597 1613 
L 953 1613 
Q 991 1019 1311 708 
Q 1631 397 2203 397 
Q 2534 397 2845 478 
Q 3156 559 3463 722 
L 3463 178 
Q 3153 47 2828 -22 
Q 2503 -91 2169 -91 
Q 1331 -91 842 396 
Q 353 884 353 1716 
Q 353 2575 817 3079 
Q 1281 3584 2069 3584 
Q 2775 3584 3186 3129 
Q 3597 2675 3597 1894 
z
M 3022 2063 
Q 3016 2534 2758 2815 
Q 2500 3097 2075 3097 
Q 1594 3097 1305 2825 
Q 1016 2553 972 2059 
L 3022 2063 
z
" transform="scale(0.015625)"/>
       <path id="DejaVuSans-73" d="M 2834 3397 
L 2834 2853 
Q 2591 2978 2328 3040 
Q 2066 3103 1784 3103 
Q 1356 3103 1142 2972 
Q 928 2841 928 2578 
Q 928 2378 1081 2264 
Q 1234 2150 1697 2047 
L 1894 2003 
Q 2506 1872 2764 1633 
Q 3022 1394 3022 966 
Q 3022 478 2636 193 
Q 2250 -91 1575 -91 
Q 1294 -91 989 -36 
Q 684 19 347 128 
L 347 722 
Q 666 556 975 473 
Q 1284 391 1588 391 
Q 1994 391 2212 530 
Q 2431 669 2431 922 
Q 2431 1156 2273 1281 
Q 2116 1406 1581 1522 
L 1381 1569 
Q 847 1681 609 1914 
Q 372 2147 372 2553 
Q 372 3047 722 3315 
Q 1072 3584 1716 3584 
Q 2034 3584 2315 3537 
Q 2597 3491 2834 3397 
z
" transform="scale(0.015625)"/>
       <path id="DejaVuSans-61" d="M 2194 1759 
Q 1497 1759 1228 1600 
Q 959 1441 959 1056 
Q 959 750 1161 570 
Q 1363 391 1709 391 
Q 2188 391 2477 730 
Q 2766 1069 2766 1631 
L 2766 1759 
L 2194 1759 
z
M 3341 1997 
L 3341 0 
L 2766 0 
L 2766 531 
Q 2569 213 2275 61 
Q 1981 -91 1556 -91 
Q 1019 -91 701 211 
Q 384 513 384 1019 
Q 384 1609 779 1909 
Q 1175 2209 1959 2209 
L 2766 2209 
L 2766 2266 
Q 2766 2663 2505 2880 
Q 2244 3097 1772 3097 
Q 1472 3097 1187 3025 
Q 903 2953 641 2809 
L 641 3341 
Q 956 3463 1253 3523 
Q 1550 3584 1831 3584 
Q 2591 3584 2966 3190 
Q 3341 2797 3341 1997 
z
" transform="scale(0.015625)"/>
       <path id="DejaVuSans-74" d="M 1172 4494 
L 1172 3500 
L 2356 3500 
L 2356 3053 
L 1172 3053 
L 1172 1153 
Q 1172 725 1289 603 
Q 1406 481 1766 481 
L 2356 481 
L 2356 0 
L 1766 0 
Q 1100 0 847 248 
Q 594 497 594 1153 
L 594 3053 
L 172 3053 
L 172 3500 
L 594 3500 
L 594 4494 
L 1172 4494 
z
" transform="scale(0.015625)"/>
       <path id="DejaVuSans-72" d="M 2631 2963 
Q 2534 3019 2420 3045 
Q 2306 3072 2169 3072 
Q 1681 3072 1420 2755 
Q 1159 2438 1159 1844 
L 1159 0 
L 581 0 
L 581 3500 
L 1159 3500 
L 1159 2956 
Q 1341 3275 1631 3429 
Q 1922 3584 2338 3584 
Q 2397 3584 2469 3576 
Q 2541 3569 2628 3553 
L 2631 2963 
z
" transform="scale(0.015625)"/>
       <path id="DejaVuSans-75" d="M 544 1381 
L 544 3500 
L 1119 3500 
L 1119 1403 
Q 1119 906 1312 657 
Q 1506 409 1894 409 
Q 2359 409 2629 706 
Q 2900 1003 2900 1516 
L 2900 3500 
L 3475 3500 
L 3475 0 
L 2900 0 
L 2900 538 
Q 2691 219 2414 64 
Q 2138 -91 1772 -91 
Q 1169 -91 856 284 
Q 544 659 544 1381 
z
M 1991 3584 
L 1991 3584 
z
" transform="scale(0.015625)"/>
       <path id="DejaVuSans-63" d="M 3122 3366 
L 3122 2828 
Q 2878 2963 2633 3030 
Q 2388 3097 2138 3097 
Q 1578 3097 1268 2742 
Q 959 2388 959 1747 
Q 959 1106 1268 751 
Q 1578 397 2138 397 
Q 2388 397 2633 464 
Q 2878 531 3122 666 
L 3122 134 
Q 2881 22 2623 -34 
Q 2366 -91 2075 -91 
Q 1284 -91 818 406 
Q 353 903 353 1747 
Q 353 2603 823 3093 
Q 1294 3584 2113 3584 
Q 2378 3584 2631 3529 
Q 2884 3475 3122 3366 
z
" transform="scale(0.015625)"/>
       <path id="DejaVuSans-6b" d="M 581 4863 
L 1159 4863 
L 1159 1991 
L 2875 3500 
L 3609 3500 
L 1753 1863 
L 3688 0 
L 2938 0 
L 1159 1709 
L 1159 0 
L 581 0 
L 581 4863 
z
" transform="scale(0.015625)"/>
       <path id="DejaVuSans-20" transform="scale(0.015625)"/>
       <path id="DejaVuSans-69" d="M 603 3500 
L 1178 3500 
L 1178 0 
L 603 0 
L 603 3500 
z
M 603 4863 
L 1178 4863 
L 1178 4134 
L 603 4134 
L 603 4863 
z
" transform="scale(0.015625)"/>
       <path id="DejaVuSans-62" d="M 3116 1747 
Q 3116 2381 2855 2742 
Q 2594 3103 2138 3103 
Q 1681 3103 1420 2742 
Q 1159 2381 1159 1747 
Q 1159 1113 1420 752 
Q 1681 391 2138 391 
Q 2594 391 2855 752 
Q 3116 1113 3116 1747 
z
M 1159 2969 
Q 1341 3281 1617 3432 
Q 1894 3584 2278 3584 
Q 2916 3584 3314 3078 
Q 3713 2572 3713 1747 
Q 3713 922 3314 415 
Q 2916 -91 2278 -91 
Q 1894 -91 1617 61 
Q 1341 213 1159 525 
L 1159 0 
L 581 0 
L 581 4863 
L 1159 4863 
L 1159 2969 
z
" transform="scale(0.015625)"/>
      </defs>
      <use xlink:href="#DejaVuSans-4b"/>
      <use xlink:href="#DejaVuSans-6f" x="60.576172"/>
      <use xlink:href="#DejaVuSans-6e" x="121.757812"/>
      <use xlink:href="#DejaVuSans-64" x="185.136719"/>
      <use xlink:href="#DejaVuSans-65" x="248.613281"/>
      <use xlink:href="#DejaVuSans-6e" x="310.136719"/>
      <use xlink:href="#DejaVuSans-73" x="373.515625"/>
      <use xlink:href="#DejaVuSans-61" x="425.615234"/>
      <use xlink:href="#DejaVuSans-74" x="486.894531"/>
      <use xlink:href="#DejaVuSans-6f" x="526.103516"/>
      <use xlink:href="#DejaVuSans-72" x="587.285156"/>
      <use xlink:href="#DejaVuSans-64" x="626.648438"/>
      <use xlink:href="#DejaVuSans-72" x="690.125"/>
      <use xlink:href="#DejaVuSans-75" x="731.238281"/>
      <use xlink:href="#DejaVuSans-63" x="794.617188"/>
      <use xlink:href="#DejaVuSans-6b" x="849.597656"/>
      <use xlink:href="#DejaVuSans-20" x="907.507812"/>
      <use xlink:href="#DejaVuSans-69" x="939.294922"/>
      <use xlink:href="#DejaVuSans-6e" x="967.078125"/>
      <use xlink:href="#DejaVuSans-20" x="1030.457031"/>
      <use xlink:href="#DejaVuSans-62" x="1062.244141"/>
      <use xlink:href="#DejaVuSans-61" x="1125.720703"/>
      <use xlink:href="#DejaVuSans-72" x="1187"/>
     </g>
    </g>
   </g>
   <g id="matplotlib.axis_2">
    <g id="ytick_1">
     <g id="line2d_10">
      <defs>
       <path id="m017485b811" d="M 0 0 
L -3.5 0 
" style="stroke: #000000; stroke-width: 0.8"/>
      </defs>
      <g>
       <use xlink:href="#m017485b811" x="138.24" y="514.17792" style="stroke: #000000; stroke-width: 0.8"/>
      </g>
     </g>
     <g id="text_11">
      <!-- 0.00 -->
      <g transform="translate(91.161875 521.016514) scale(0.18 -0.18)">
       <defs>
        <path id="DejaVuSans-2e" d="M 684 794 
L 1344 794 
L 1344 0 
L 684 0 
L 684 794 
z
" transform="scale(0.015625)"/>
       </defs>
       <use xlink:href="#DejaVuSans-30"/>
       <use xlink:href="#DejaVuSans-2e" x="63.623047"/>
       <use xlink:href="#DejaVuSans-30" x="95.410156"/>
       <use xlink:href="#DejaVuSans-30" x="159.033203"/>
      </g>
     </g>
    </g>
    <g id="ytick_2">
     <g id="line2d_11">
      <g>
       <use xlink:href="#m017485b811" x="138.24" y="447.980497" style="stroke: #000000; stroke-width: 0.8"/>
      </g>
     </g>
     <g id="text_12">
      <!-- 0.05 -->
      <g transform="translate(91.161875 454.819091) scale(0.18 -0.18)">
       <use xlink:href="#DejaVuSans-30"/>
       <use xlink:href="#DejaVuSans-2e" x="63.623047"/>
       <use xlink:href="#DejaVuSans-30" x="95.410156"/>
       <use xlink:href="#DejaVuSans-35" x="159.033203"/>
      </g>
     </g>
    </g>
    <g id="ytick_3">
     <g id="line2d_12">
      <g>
       <use xlink:href="#m017485b811" x="138.24" y="381.783075" style="stroke: #000000; stroke-width: 0.8"/>
      </g>
     </g>
     <g id="text_13">
      <!-- 0.10 -->
      <g transform="translate(91.161875 388.621668) scale(0.18 -0.18)">
       <defs>
        <path id="DejaVuSans-31" d="M 794 531 
L 1825 531 
L 1825 4091 
L 703 3866 
L 703 4441 
L 1819 4666 
L 2450 4666 
L 2450 531 
L 3481 531 
L 3481 0 
L 794 0 
L 794 531 
z
" transform="scale(0.015625)"/>
       </defs>
       <use xlink:href="#DejaVuSans-30"/>
       <use xlink:href="#DejaVuSans-2e" x="63.623047"/>
       <use xlink:href="#DejaVuSans-31" x="95.410156"/>
       <use xlink:href="#DejaVuSans-30" x="159.033203"/>
      </g>
     </g>
    </g>
    <g id="ytick_4">
     <g id="line2d_13">
      <g>
       <use xlink:href="#m017485b811" x="138.24" y="315.585652" style="stroke: #000000; stroke-width: 0.8"/>
      </g>
     </g>
     <g id="text_14">
      <!-- 0.15 -->
      <g transform="translate(91.161875 322.424246) scale(0.18 -0.18)">
       <use xlink:href="#DejaVuSans-30"/>
       <use xlink:href="#DejaVuSans-2e" x="63.623047"/>
       <use xlink:href="#DejaVuSans-31" x="95.410156"/>
       <use xlink:href="#DejaVuSans-35" x="159.033203"/>
      </g>
     </g>
    </g>
    <g id="ytick_5">
     <g id="line2d_14">
      <g>
       <use xlink:href="#m017485b811" x="138.24" y="249.388229" style="stroke: #000000; stroke-width: 0.8"/>
      </g>
     </g>
     <g id="text_15">
      <!-- 0.20 -->
      <g transform="translate(91.161875 256.226823) scale(0.18 -0.18)">
       <defs>
        <path id="DejaVuSans-32" d="M 1228 531 
L 3431 531 
L 3431 0 
L 469 0 
L 469 531 
Q 828 903 1448 1529 
Q 2069 2156 2228 2338 
Q 2531 2678 2651 2914 
Q 2772 3150 2772 3378 
Q 2772 3750 2511 3984 
Q 2250 4219 1831 4219 
Q 1534 4219 1204 4116 
Q 875 4013 500 3803 
L 500 4441 
Q 881 4594 1212 4672 
Q 1544 4750 1819 4750 
Q 2544 4750 2975 4387 
Q 3406 4025 3406 3419 
Q 3406 3131 3298 2873 
Q 3191 2616 2906 2266 
Q 2828 2175 2409 1742 
Q 1991 1309 1228 531 
z
" transform="scale(0.015625)"/>
       </defs>
       <use xlink:href="#DejaVuSans-30"/>
       <use xlink:href="#DejaVuSans-2e" x="63.623047"/>
       <use xlink:href="#DejaVuSans-32" x="95.410156"/>
       <use xlink:href="#DejaVuSans-30" x="159.033203"/>
      </g>
     </g>
    </g>
    <g id="ytick_6">
     <g id="line2d_15">
      <g>
       <use xlink:href="#m017485b811" x="138.24" y="183.190807" style="stroke: #000000; stroke-width: 0.8"/>
      </g>
     </g>
     <g id="text_16">
      <!-- 0.25 -->
      <g transform="translate(91.161875 190.0294) scale(0.18 -0.18)">
       <use xlink:href="#DejaVuSans-30"/>
       <use xlink:href="#DejaVuSans-2e" x="63.623047"/>
       <use xlink:href="#DejaVuSans-32" x="95.410156"/>
       <use xlink:href="#DejaVuSans-35" x="159.033203"/>
      </g>
     </g>
    </g>
    <g id="ytick_7">
     <g id="line2d_16">
      <g>
       <use xlink:href="#m017485b811" x="138.24" y="116.993384" style="stroke: #000000; stroke-width: 0.8"/>
      </g>
     </g>
     <g id="text_17">
      <!-- 0.30 -->
      <g transform="translate(91.161875 123.831978) scale(0.18 -0.18)">
       <defs>
        <path id="DejaVuSans-33" d="M 2597 2516 
Q 3050 2419 3304 2112 
Q 3559 1806 3559 1356 
Q 3559 666 3084 287 
Q 2609 -91 1734 -91 
Q 1441 -91 1130 -33 
Q 819 25 488 141 
L 488 750 
Q 750 597 1062 519 
Q 1375 441 1716 441 
Q 2309 441 2620 675 
Q 2931 909 2931 1356 
Q 2931 1769 2642 2001 
Q 2353 2234 1838 2234 
L 1294 2234 
L 1294 2753 
L 1863 2753 
Q 2328 2753 2575 2939 
Q 2822 3125 2822 3475 
Q 2822 3834 2567 4026 
Q 2313 4219 1838 4219 
Q 1578 4219 1281 4162 
Q 984 4106 628 3988 
L 628 4550 
Q 988 4650 1302 4700 
Q 1616 4750 1894 4750 
Q 2613 4750 3031 4423 
Q 3450 4097 3450 3541 
Q 3450 3153 3228 2886 
Q 3006 2619 2597 2516 
z
" transform="scale(0.015625)"/>
       </defs>
       <use xlink:href="#DejaVuSans-30"/>
       <use xlink:href="#DejaVuSans-2e" x="63.623047"/>
       <use xlink:href="#DejaVuSans-33" x="95.410156"/>
       <use xlink:href="#DejaVuSans-30" x="159.033203"/>
      </g>
     </g>
    </g>
    <g id="text_18">
     <!-- Exergievernichtung in MW -->
     <g transform="translate(83.418438 409.818577) rotate(-90) scale(0.18 -0.18)">
      <defs>
       <path id="DejaVuSans-45" d="M 628 4666 
L 3578 4666 
L 3578 4134 
L 1259 4134 
L 1259 2753 
L 3481 2753 
L 3481 2222 
L 1259 2222 
L 1259 531 
L 3634 531 
L 3634 0 
L 628 0 
L 628 4666 
z
" transform="scale(0.015625)"/>
       <path id="DejaVuSans-78" d="M 3513 3500 
L 2247 1797 
L 3578 0 
L 2900 0 
L 1881 1375 
L 863 0 
L 184 0 
L 1544 1831 
L 300 3500 
L 978 3500 
L 1906 2253 
L 2834 3500 
L 3513 3500 
z
" transform="scale(0.015625)"/>
       <path id="DejaVuSans-67" d="M 2906 1791 
Q 2906 2416 2648 2759 
Q 2391 3103 1925 3103 
Q 1463 3103 1205 2759 
Q 947 2416 947 1791 
Q 947 1169 1205 825 
Q 1463 481 1925 481 
Q 2391 481 2648 825 
Q 2906 1169 2906 1791 
z
M 3481 434 
Q 3481 -459 3084 -895 
Q 2688 -1331 1869 -1331 
Q 1566 -1331 1297 -1286 
Q 1028 -1241 775 -1147 
L 775 -588 
Q 1028 -725 1275 -790 
Q 1522 -856 1778 -856 
Q 2344 -856 2625 -561 
Q 2906 -266 2906 331 
L 2906 616 
Q 2728 306 2450 153 
Q 2172 0 1784 0 
Q 1141 0 747 490 
Q 353 981 353 1791 
Q 353 2603 747 3093 
Q 1141 3584 1784 3584 
Q 2172 3584 2450 3431 
Q 2728 3278 2906 2969 
L 2906 3500 
L 3481 3500 
L 3481 434 
z
" transform="scale(0.015625)"/>
       <path id="DejaVuSans-76" d="M 191 3500 
L 800 3500 
L 1894 563 
L 2988 3500 
L 3597 3500 
L 2284 0 
L 1503 0 
L 191 3500 
z
" transform="scale(0.015625)"/>
       <path id="DejaVuSans-68" d="M 3513 2113 
L 3513 0 
L 2938 0 
L 2938 2094 
Q 2938 2591 2744 2837 
Q 2550 3084 2163 3084 
Q 1697 3084 1428 2787 
Q 1159 2491 1159 1978 
L 1159 0 
L 581 0 
L 581 4863 
L 1159 4863 
L 1159 2956 
Q 1366 3272 1645 3428 
Q 1925 3584 2291 3584 
Q 2894 3584 3203 3211 
Q 3513 2838 3513 2113 
z
" transform="scale(0.015625)"/>
       <path id="DejaVuSans-4d" d="M 628 4666 
L 1569 4666 
L 2759 1491 
L 3956 4666 
L 4897 4666 
L 4897 0 
L 4281 0 
L 4281 4097 
L 3078 897 
L 2444 897 
L 1241 4097 
L 1241 0 
L 628 0 
L 628 4666 
z
" transform="scale(0.015625)"/>
       <path id="DejaVuSans-57" d="M 213 4666 
L 850 4666 
L 1831 722 
L 2809 4666 
L 3519 4666 
L 4500 722 
L 5478 4666 
L 6119 4666 
L 4947 0 
L 4153 0 
L 3169 4050 
L 2175 0 
L 1381 0 
L 213 4666 
z
" transform="scale(0.015625)"/>
      </defs>
      <use xlink:href="#DejaVuSans-45"/>
      <use xlink:href="#DejaVuSans-78" x="63.183594"/>
      <use xlink:href="#DejaVuSans-65" x="119.238281"/>
      <use xlink:href="#DejaVuSans-72" x="180.761719"/>
      <use xlink:href="#DejaVuSans-67" x="220.125"/>
      <use xlink:href="#DejaVuSans-69" x="283.601562"/>
      <use xlink:href="#DejaVuSans-65" x="311.384766"/>
      <use xlink:href="#DejaVuSans-76" x="372.908203"/>
      <use xlink:href="#DejaVuSans-65" x="432.087891"/>
      <use xlink:href="#DejaVuSans-72" x="493.611328"/>
      <use xlink:href="#DejaVuSans-6e" x="532.974609"/>
      <use xlink:href="#DejaVuSans-69" x="596.353516"/>
      <use xlink:href="#DejaVuSans-63" x="624.136719"/>
      <use xlink:href="#DejaVuSans-68" x="679.117188"/>
      <use xlink:href="#DejaVuSans-74" x="742.496094"/>
      <use xlink:href="#DejaVuSans-75" x="781.705078"/>
      <use xlink:href="#DejaVuSans-6e" x="845.083984"/>
      <use xlink:href="#DejaVuSans-67" x="908.462891"/>
      <use xlink:href="#DejaVuSans-20" x="971.939453"/>
      <use xlink:href="#DejaVuSans-69" x="1003.726562"/>
      <use xlink:href="#DejaVuSans-6e" x="1031.509766"/>
      <use xlink:href="#DejaVuSans-20" x="1094.888672"/>
      <use xlink:href="#DejaVuSans-4d" x="1126.675781"/>
      <use xlink:href="#DejaVuSans-57" x="1212.955078"/>
     </g>
    </g>
   </g>
   <g id="patch_163">
    <path d="M 138.24 514.17792 
L 138.24 69.32736 
" style="fill: none; stroke: #000000; stroke-width: 0.8; stroke-linejoin: miter; stroke-linecap: square"/>
   </g>
   <g id="patch_164">
    <path d="M 995.328 514.17792 
L 995.328 69.32736 
" style="fill: none; stroke: #000000; stroke-width: 0.8; stroke-linejoin: miter; stroke-linecap: square"/>
   </g>
   <g id="patch_165">
    <path d="M 138.24 514.17792 
L 995.328 514.17792 
" style="fill: none; stroke: #000000; stroke-width: 0.8; stroke-linejoin: miter; stroke-linecap: square"/>
   </g>
   <g id="patch_166">
    <path d="M 138.24 69.32736 
L 995.328 69.32736 
" style="fill: none; stroke: #000000; stroke-width: 0.8; stroke-linejoin: miter; stroke-linecap: square"/>
   </g>
   <g id="legend_1">
    <g id="patch_167">
     <path d="M 817.347375 189.40986 
L 982.728 189.40986 
Q 986.328 189.40986 986.328 185.80986 
L 986.328 81.92736 
Q 986.328 78.32736 982.728 78.32736 
L 817.347375 78.32736 
Q 813.747375 78.32736 813.747375 81.92736 
L 813.747375 185.80986 
Q 813.747375 189.40986 817.347375 189.40986 
z
" style="fill: #ffffff; opacity: 0.8; stroke: #cccccc; stroke-linejoin: miter"/>
    </g>
    <g id="patch_168">
     <path d="M 820.947375 99.204547 
L 856.947375 99.204547 
L 856.947375 86.604547 
L 820.947375 86.604547 
z
" style="fill: #1f77b4"/>
    </g>
    <g id="text_19">
     <!-- Gas cooler -->
     <g transform="translate(871.347375 99.204547) scale(0.18 -0.18)">
      <defs>
       <path id="DejaVuSans-47" d="M 3809 666 
L 3809 1919 
L 2778 1919 
L 2778 2438 
L 4434 2438 
L 4434 434 
Q 4069 175 3628 42 
Q 3188 -91 2688 -91 
Q 1594 -91 976 548 
Q 359 1188 359 2328 
Q 359 3472 976 4111 
Q 1594 4750 2688 4750 
Q 3144 4750 3555 4637 
Q 3966 4525 4313 4306 
L 4313 3634 
Q 3963 3931 3569 4081 
Q 3175 4231 2741 4231 
Q 1884 4231 1454 3753 
Q 1025 3275 1025 2328 
Q 1025 1384 1454 906 
Q 1884 428 2741 428 
Q 3075 428 3337 486 
Q 3600 544 3809 666 
z
" transform="scale(0.015625)"/>
       <path id="DejaVuSans-6c" d="M 603 4863 
L 1178 4863 
L 1178 0 
L 603 0 
L 603 4863 
z
" transform="scale(0.015625)"/>
      </defs>
      <use xlink:href="#DejaVuSans-47"/>
      <use xlink:href="#DejaVuSans-61" x="77.490234"/>
      <use xlink:href="#DejaVuSans-73" x="138.769531"/>
      <use xlink:href="#DejaVuSans-20" x="190.869141"/>
      <use xlink:href="#DejaVuSans-63" x="222.65625"/>
      <use xlink:href="#DejaVuSans-6f" x="277.636719"/>
      <use xlink:href="#DejaVuSans-6f" x="338.818359"/>
      <use xlink:href="#DejaVuSans-6c" x="400"/>
      <use xlink:href="#DejaVuSans-65" x="427.783203"/>
      <use xlink:href="#DejaVuSans-72" x="489.306641"/>
     </g>
    </g>
    <g id="patch_169">
     <path d="M 820.947375 125.625172 
L 856.947375 125.625172 
L 856.947375 113.025172 
L 820.947375 113.025172 
z
" style="fill: #ff7f0e"/>
    </g>
    <g id="text_20">
     <!-- Evaporator -->
     <g transform="translate(871.347375 125.625172) scale(0.18 -0.18)">
      <defs>
       <path id="DejaVuSans-70" d="M 1159 525 
L 1159 -1331 
L 581 -1331 
L 581 3500 
L 1159 3500 
L 1159 2969 
Q 1341 3281 1617 3432 
Q 1894 3584 2278 3584 
Q 2916 3584 3314 3078 
Q 3713 2572 3713 1747 
Q 3713 922 3314 415 
Q 2916 -91 2278 -91 
Q 1894 -91 1617 61 
Q 1341 213 1159 525 
z
M 3116 1747 
Q 3116 2381 2855 2742 
Q 2594 3103 2138 3103 
Q 1681 3103 1420 2742 
Q 1159 2381 1159 1747 
Q 1159 1113 1420 752 
Q 1681 391 2138 391 
Q 2594 391 2855 752 
Q 3116 1113 3116 1747 
z
" transform="scale(0.015625)"/>
      </defs>
      <use xlink:href="#DejaVuSans-45"/>
      <use xlink:href="#DejaVuSans-76" x="63.183594"/>
      <use xlink:href="#DejaVuSans-61" x="122.363281"/>
      <use xlink:href="#DejaVuSans-70" x="183.642578"/>
      <use xlink:href="#DejaVuSans-6f" x="247.119141"/>
      <use xlink:href="#DejaVuSans-72" x="308.300781"/>
      <use xlink:href="#DejaVuSans-61" x="349.414062"/>
      <use xlink:href="#DejaVuSans-74" x="410.693359"/>
      <use xlink:href="#DejaVuSans-6f" x="449.902344"/>
      <use xlink:href="#DejaVuSans-72" x="511.083984"/>
     </g>
    </g>
    <g id="patch_170">
     <path d="M 820.947375 152.045797 
L 856.947375 152.045797 
L 856.947375 139.445797 
L 820.947375 139.445797 
z
" style="fill: #2ca02c"/>
    </g>
    <g id="text_21">
     <!-- Valve -->
     <g transform="translate(871.347375 152.045797) scale(0.18 -0.18)">
      <defs>
       <path id="DejaVuSans-56" d="M 1831 0 
L 50 4666 
L 709 4666 
L 2188 738 
L 3669 4666 
L 4325 4666 
L 2547 0 
L 1831 0 
z
" transform="scale(0.015625)"/>
      </defs>
      <use xlink:href="#DejaVuSans-56"/>
      <use xlink:href="#DejaVuSans-61" x="60.658203"/>
      <use xlink:href="#DejaVuSans-6c" x="121.9375"/>
      <use xlink:href="#DejaVuSans-76" x="149.720703"/>
      <use xlink:href="#DejaVuSans-65" x="208.900391"/>
     </g>
    </g>
    <g id="patch_171">
     <path d="M 820.947375 178.466422 
L 856.947375 178.466422 
L 856.947375 165.866422 
L 820.947375 165.866422 
z
" style="fill: #d62728"/>
    </g>
    <g id="text_22">
     <!-- Compressor -->
     <g transform="translate(871.347375 178.466422) scale(0.18 -0.18)">
      <defs>
       <path id="DejaVuSans-43" d="M 4122 4306 
L 4122 3641 
Q 3803 3938 3442 4084 
Q 3081 4231 2675 4231 
Q 1875 4231 1450 3742 
Q 1025 3253 1025 2328 
Q 1025 1406 1450 917 
Q 1875 428 2675 428 
Q 3081 428 3442 575 
Q 3803 722 4122 1019 
L 4122 359 
Q 3791 134 3420 21 
Q 3050 -91 2638 -91 
Q 1578 -91 968 557 
Q 359 1206 359 2328 
Q 359 3453 968 4101 
Q 1578 4750 2638 4750 
Q 3056 4750 3426 4639 
Q 3797 4528 4122 4306 
z
" transform="scale(0.015625)"/>
       <path id="DejaVuSans-6d" d="M 3328 2828 
Q 3544 3216 3844 3400 
Q 4144 3584 4550 3584 
Q 5097 3584 5394 3201 
Q 5691 2819 5691 2113 
L 5691 0 
L 5113 0 
L 5113 2094 
Q 5113 2597 4934 2840 
Q 4756 3084 4391 3084 
Q 3944 3084 3684 2787 
Q 3425 2491 3425 1978 
L 3425 0 
L 2847 0 
L 2847 2094 
Q 2847 2600 2669 2842 
Q 2491 3084 2119 3084 
Q 1678 3084 1418 2786 
Q 1159 2488 1159 1978 
L 1159 0 
L 581 0 
L 581 3500 
L 1159 3500 
L 1159 2956 
Q 1356 3278 1631 3431 
Q 1906 3584 2284 3584 
Q 2666 3584 2933 3390 
Q 3200 3197 3328 2828 
z
" transform="scale(0.015625)"/>
      </defs>
      <use xlink:href="#DejaVuSans-43"/>
      <use xlink:href="#DejaVuSans-6f" x="69.824219"/>
      <use xlink:href="#DejaVuSans-6d" x="131.005859"/>
      <use xlink:href="#DejaVuSans-70" x="228.417969"/>
      <use xlink:href="#DejaVuSans-72" x="291.894531"/>
      <use xlink:href="#DejaVuSans-65" x="330.757812"/>
      <use xlink:href="#DejaVuSans-73" x="392.28125"/>
      <use xlink:href="#DejaVuSans-73" x="444.380859"/>
      <use xlink:href="#DejaVuSans-6f" x="496.480469"/>
      <use xlink:href="#DejaVuSans-72" x="557.662109"/>
     </g>
    </g>
   </g>
  </g>
 </g>
 <defs>
  <clipPath id="p6112c94ddf">
   <rect x="138.24" y="69.32736" width="857.088" height="444.85056"/>
  </clipPath>
 </defs>
</svg>
