<?xml version="1.0" encoding="utf-8" standalone="no"?>
<!DOCTYPE svg PUBLIC "-//W3C//DTD SVG 1.1//EN"
  "http://www.w3.org/Graphics/SVG/1.1/DTD/svg11.dtd">
<svg xmlns:xlink="http://www.w3.org/1999/xlink" width="460.8pt" height="345.6pt" viewBox="0 0 460.8 345.6" xmlns="http://www.w3.org/2000/svg" version="1.1">
 <metadata>
  <rdf:RDF xmlns:dc="http://purl.org/dc/elements/1.1/" xmlns:cc="http://creativecommons.org/ns#" xmlns:rdf="http://www.w3.org/1999/02/22-rdf-syntax-ns#">
   <cc:Work>
    <dc:type rdf:resource="http://purl.org/dc/dcmitype/StillImage"/>
    <dc:date>2023-04-04T10:59:39.326622</dc:date>
    <dc:format>image/svg+xml</dc:format>
    <dc:creator>
     <cc:Agent>
      <dc:title>Matplotlib v3.6.1, https://matplotlib.org/</dc:title>
     </cc:Agent>
    </dc:creator>
   </cc:Work>
  </rdf:RDF>
 </metadata>
 <defs>
  <style type="text/css">*{stroke-linejoin: round; stroke-linecap: butt}</style>
 </defs>
 <g id="figure_1">
  <g id="patch_1">
   <path d="M 0 345.6 
L 460.8 345.6 
L 460.8 0 
L 0 0 
z
" style="fill: #ffffff"/>
  </g>
  <g id="axes_1">
   <g id="patch_2">
    <path d="M 57.6 307.584 
L 414.72 307.584 
L 414.72 41.472 
L 57.6 41.472 
z
" style="fill: #ffffff"/>
   </g>
   <g id="patch_3">
    <path d="M 73.832727 307.584 
L 84.305455 307.584 
L 84.305455 286.143633 
L 73.832727 286.143633 
z
" clip-path="url(#pe358df8e92)" style="fill: #1f77b4"/>
   </g>
   <g id="patch_4">
    <path d="M 90.368612 307.584 
L 100.84134 307.584 
L 100.84134 285.067576 
L 90.368612 285.067576 
z
" clip-path="url(#pe358df8e92)" style="fill: #1f77b4"/>
   </g>
   <g id="patch_5">
    <path d="M 106.904498 307.584 
L 117.377225 307.584 
L 117.377225 284.012473 
L 106.904498 284.012473 
z
" clip-path="url(#pe358df8e92)" style="fill: #1f77b4"/>
   </g>
   <g id="patch_6">
    <path d="M 123.440383 307.584 
L 133.91311 307.584 
L 133.91311 282.979734 
L 123.440383 282.979734 
z
" clip-path="url(#pe358df8e92)" style="fill: #1f77b4"/>
   </g>
   <g id="patch_7">
    <path d="M 139.976268 307.584 
L 150.448995 307.584 
L 150.448995 281.96987 
L 139.976268 281.96987 
z
" clip-path="url(#pe358df8e92)" style="fill: #1f77b4"/>
   </g>
   <g id="patch_8">
    <path d="M 156.512153 307.584 
L 166.98488 307.584 
L 166.98488 280.982938 
L 156.512153 280.982938 
z
" clip-path="url(#pe358df8e92)" style="fill: #1f77b4"/>
   </g>
   <g id="patch_9">
    <path d="M 173.048038 307.584 
L 183.520766 307.584 
L 183.520766 280.018739 
L 173.048038 280.018739 
z
" clip-path="url(#pe358df8e92)" style="fill: #1f77b4"/>
   </g>
   <g id="patch_10">
    <path d="M 189.583923 307.584 
L 200.056651 307.584 
L 200.056651 279.076933 
L 189.583923 279.076933 
z
" clip-path="url(#pe358df8e92)" style="fill: #1f77b4"/>
   </g>
   <g id="patch_11">
    <path d="M 206.119809 307.584 
L 216.592536 307.584 
L 216.592536 278.157097 
L 206.119809 278.157097 
z
" clip-path="url(#pe358df8e92)" style="fill: #1f77b4"/>
   </g>
   <g id="patch_12">
    <path d="M 222.655694 307.584 
L 233.128421 307.584 
L 233.128421 277.258759 
L 222.655694 277.258759 
z
" clip-path="url(#pe358df8e92)" style="fill: #1f77b4"/>
   </g>
   <g id="patch_13">
    <path d="M 239.191579 307.584 
L 249.664306 307.584 
L 249.664306 276.381419 
L 239.191579 276.381419 
z
" clip-path="url(#pe358df8e92)" style="fill: #1f77b4"/>
   </g>
   <g id="patch_14">
    <path d="M 255.727464 307.584 
L 266.200191 307.584 
L 266.200191 275.52457 
L 255.727464 275.52457 
z
" clip-path="url(#pe358df8e92)" style="fill: #1f77b4"/>
   </g>
   <g id="patch_15">
    <path d="M 272.263349 307.584 
L 282.736077 307.584 
L 282.736077 274.687697 
L 272.263349 274.687697 
z
" clip-path="url(#pe358df8e92)" style="fill: #1f77b4"/>
   </g>
   <g id="patch_16">
    <path d="M 288.799234 307.584 
L 299.271962 307.584 
L 299.271962 273.870289 
L 288.799234 273.870289 
z
" clip-path="url(#pe358df8e92)" style="fill: #1f77b4"/>
   </g>
   <g id="patch_17">
    <path d="M 305.33512 307.584 
L 315.807847 307.584 
L 315.807847 273.071842 
L 305.33512 273.071842 
z
" clip-path="url(#pe358df8e92)" style="fill: #1f77b4"/>
   </g>
   <g id="patch_18">
    <path d="M 321.871005 307.584 
L 332.343732 307.584 
L 332.343732 272.29186 
L 321.871005 272.29186 
z
" clip-path="url(#pe358df8e92)" style="fill: #1f77b4"/>
   </g>
   <g id="patch_19">
    <path d="M 338.40689 307.584 
L 348.879617 307.584 
L 348.879617 271.529855 
L 338.40689 271.529855 
z
" clip-path="url(#pe358df8e92)" style="fill: #1f77b4"/>
   </g>
   <g id="patch_20">
    <path d="M 354.942775 307.584 
L 365.415502 307.584 
L 365.415502 270.785354 
L 354.942775 270.785354 
z
" clip-path="url(#pe358df8e92)" style="fill: #1f77b4"/>
   </g>
   <g id="patch_21">
    <path d="M 371.47866 307.584 
L 381.951388 307.584 
L 381.951388 270.057891 
L 371.47866 270.057891 
z
" clip-path="url(#pe358df8e92)" style="fill: #1f77b4"/>
   </g>
   <g id="patch_22">
    <path d="M 388.014545 307.584 
L 398.487273 307.584 
L 398.487273 269.347015 
L 388.014545 269.347015 
z
" clip-path="url(#pe358df8e92)" style="fill: #1f77b4"/>
   </g>
   <g id="patch_23">
    <path d="M 73.832727 286.143633 
L 84.305455 286.143633 
L 84.305455 271.720713 
L 73.832727 271.720713 
z
" clip-path="url(#pe358df8e92)" style="fill: #ff7f0e"/>
   </g>
   <g id="patch_24">
    <path d="M 90.368612 285.067576 
L 100.84134 285.067576 
L 100.84134 270.636825 
L 90.368612 270.636825 
z
" clip-path="url(#pe358df8e92)" style="fill: #ff7f0e"/>
   </g>
   <g id="patch_25">
    <path d="M 106.904498 284.012473 
L 117.377225 284.012473 
L 117.377225 269.578734 
L 106.904498 269.578734 
z
" clip-path="url(#pe358df8e92)" style="fill: #ff7f0e"/>
   </g>
   <g id="patch_26">
    <path d="M 123.440383 282.979734 
L 133.91311 282.979734 
L 133.91311 268.546386 
L 123.440383 268.546386 
z
" clip-path="url(#pe358df8e92)" style="fill: #ff7f0e"/>
   </g>
   <g id="patch_27">
    <path d="M 139.976268 281.96987 
L 150.448995 281.96987 
L 150.448995 267.539369 
L 139.976268 267.539369 
z
" clip-path="url(#pe358df8e92)" style="fill: #ff7f0e"/>
   </g>
   <g id="patch_28">
    <path d="M 156.512153 280.982938 
L 166.98488 280.982938 
L 166.98488 266.557128 
L 156.512153 266.557128 
z
" clip-path="url(#pe358df8e92)" style="fill: #ff7f0e"/>
   </g>
   <g id="patch_29">
    <path d="M 173.048038 280.018739 
L 183.520766 280.018739 
L 183.520766 265.599029 
L 173.048038 265.599029 
z
" clip-path="url(#pe358df8e92)" style="fill: #ff7f0e"/>
   </g>
   <g id="patch_30">
    <path d="M 189.583923 279.076933 
L 200.056651 279.076933 
L 200.056651 264.66442 
L 189.583923 264.66442 
z
" clip-path="url(#pe358df8e92)" style="fill: #ff7f0e"/>
   </g>
   <g id="patch_31">
    <path d="M 206.119809 278.157097 
L 216.592536 278.157097 
L 216.592536 263.752642 
L 206.119809 263.752642 
z
" clip-path="url(#pe358df8e92)" style="fill: #ff7f0e"/>
   </g>
   <g id="patch_32">
    <path d="M 222.655694 277.258759 
L 233.128421 277.258759 
L 233.128421 262.863044 
L 222.655694 262.863044 
z
" clip-path="url(#pe358df8e92)" style="fill: #ff7f0e"/>
   </g>
   <g id="patch_33">
    <path d="M 239.191579 276.381419 
L 249.664306 276.381419 
L 249.664306 261.994987 
L 239.191579 261.994987 
z
" clip-path="url(#pe358df8e92)" style="fill: #ff7f0e"/>
   </g>
   <g id="patch_34">
    <path d="M 255.727464 275.52457 
L 266.200191 275.52457 
L 266.200191 261.14785 
L 255.727464 261.14785 
z
" clip-path="url(#pe358df8e92)" style="fill: #ff7f0e"/>
   </g>
   <g id="patch_35">
    <path d="M 272.263349 274.687697 
L 282.736077 274.687697 
L 282.736077 260.321032 
L 272.263349 260.321032 
z
" clip-path="url(#pe358df8e92)" style="fill: #ff7f0e"/>
   </g>
   <g id="patch_36">
    <path d="M 288.799234 273.870289 
L 299.271962 273.870289 
L 299.271962 259.51395 
L 288.799234 259.51395 
z
" clip-path="url(#pe358df8e92)" style="fill: #ff7f0e"/>
   </g>
   <g id="patch_37">
    <path d="M 305.33512 273.071842 
L 315.807847 273.071842 
L 315.807847 258.726039 
L 305.33512 258.726039 
z
" clip-path="url(#pe358df8e92)" style="fill: #ff7f0e"/>
   </g>
   <g id="patch_38">
    <path d="M 321.871005 272.29186 
L 332.343732 272.29186 
L 332.343732 257.956756 
L 321.871005 257.956756 
z
" clip-path="url(#pe358df8e92)" style="fill: #ff7f0e"/>
   </g>
   <g id="patch_39">
    <path d="M 338.40689 271.529855 
L 348.879617 271.529855 
L 348.879617 257.205574 
L 338.40689 257.205574 
z
" clip-path="url(#pe358df8e92)" style="fill: #ff7f0e"/>
   </g>
   <g id="patch_40">
    <path d="M 354.942775 270.785354 
L 365.415502 270.785354 
L 365.415502 256.471984 
L 354.942775 256.471984 
z
" clip-path="url(#pe358df8e92)" style="fill: #ff7f0e"/>
   </g>
   <g id="patch_41">
    <path d="M 371.47866 270.057891 
L 381.951388 270.057891 
L 381.951388 255.755494 
L 371.47866 255.755494 
z
" clip-path="url(#pe358df8e92)" style="fill: #ff7f0e"/>
   </g>
   <g id="patch_42">
    <path d="M 388.014545 269.347015 
L 398.487273 269.347015 
L 398.487273 255.055628 
L 388.014545 255.055628 
z
" clip-path="url(#pe358df8e92)" style="fill: #ff7f0e"/>
   </g>
   <g id="patch_43">
    <path d="M 73.832727 271.720713 
L 84.305455 271.720713 
L 84.305455 262.81819 
L 73.832727 262.81819 
z
" clip-path="url(#pe358df8e92)" style="fill: #2ca02c"/>
   </g>
   <g id="patch_44">
    <path d="M 90.368612 270.636825 
L 100.84134 270.636825 
L 100.84134 261.729468 
L 90.368612 261.729468 
z
" clip-path="url(#pe358df8e92)" style="fill: #2ca02c"/>
   </g>
   <g id="patch_45">
    <path d="M 106.904498 269.578734 
L 117.377225 269.578734 
L 117.377225 260.669534 
L 106.904498 260.669534 
z
" clip-path="url(#pe358df8e92)" style="fill: #2ca02c"/>
   </g>
   <g id="patch_46">
    <path d="M 123.440383 268.546386 
L 133.91311 268.546386 
L 133.91311 259.637427 
L 123.440383 259.637427 
z
" clip-path="url(#pe358df8e92)" style="fill: #2ca02c"/>
   </g>
   <g id="patch_47">
    <path d="M 139.976268 267.539369 
L 150.448995 267.539369 
L 150.448995 258.632168 
L 139.976268 258.632168 
z
" clip-path="url(#pe358df8e92)" style="fill: #2ca02c"/>
   </g>
   <g id="patch_48">
    <path d="M 156.512153 266.557128 
L 166.98488 266.557128 
L 166.98488 257.652822 
L 156.512153 257.652822 
z
" clip-path="url(#pe358df8e92)" style="fill: #2ca02c"/>
   </g>
   <g id="patch_49">
    <path d="M 173.048038 265.599029 
L 183.520766 265.599029 
L 183.520766 256.698487 
L 173.048038 256.698487 
z
" clip-path="url(#pe358df8e92)" style="fill: #2ca02c"/>
   </g>
   <g id="patch_50">
    <path d="M 189.583923 264.66442 
L 200.056651 264.66442 
L 200.056651 255.768321 
L 189.583923 255.768321 
z
" clip-path="url(#pe358df8e92)" style="fill: #2ca02c"/>
   </g>
   <g id="patch_51">
    <path d="M 206.119809 263.752642 
L 216.592536 263.752642 
L 216.592536 254.861517 
L 206.119809 254.861517 
z
" clip-path="url(#pe358df8e92)" style="fill: #2ca02c"/>
   </g>
   <g id="patch_52">
    <path d="M 222.655694 262.863044 
L 233.128421 262.863044 
L 233.128421 253.977314 
L 222.655694 253.977314 
z
" clip-path="url(#pe358df8e92)" style="fill: #2ca02c"/>
   </g>
   <g id="patch_53">
    <path d="M 239.191579 261.994987 
L 249.664306 261.994987 
L 249.664306 253.114986 
L 239.191579 253.114986 
z
" clip-path="url(#pe358df8e92)" style="fill: #2ca02c"/>
   </g>
   <g id="patch_54">
    <path d="M 255.727464 261.14785 
L 266.200191 261.14785 
L 266.200191 252.273845 
L 255.727464 252.273845 
z
" clip-path="url(#pe358df8e92)" style="fill: #2ca02c"/>
   </g>
   <g id="patch_55">
    <path d="M 272.263349 260.321032 
L 282.736077 260.321032 
L 282.736077 251.453233 
L 272.263349 251.453233 
z
" clip-path="url(#pe358df8e92)" style="fill: #2ca02c"/>
   </g>
   <g id="patch_56">
    <path d="M 288.799234 259.51395 
L 299.271962 259.51395 
L 299.271962 250.652524 
L 288.799234 250.652524 
z
" clip-path="url(#pe358df8e92)" style="fill: #2ca02c"/>
   </g>
   <g id="patch_57">
    <path d="M 305.33512 258.726039 
L 315.807847 258.726039 
L 315.807847 249.871118 
L 305.33512 249.871118 
z
" clip-path="url(#pe358df8e92)" style="fill: #2ca02c"/>
   </g>
   <g id="patch_58">
    <path d="M 321.871005 257.956756 
L 332.343732 257.956756 
L 332.343732 249.108439 
L 321.871005 249.108439 
z
" clip-path="url(#pe358df8e92)" style="fill: #2ca02c"/>
   </g>
   <g id="patch_59">
    <path d="M 338.40689 257.205574 
L 348.879617 257.205574 
L 348.879617 248.363936 
L 338.40689 248.363936 
z
" clip-path="url(#pe358df8e92)" style="fill: #2ca02c"/>
   </g>
   <g id="patch_60">
    <path d="M 354.942775 256.471984 
L 365.415502 256.471984 
L 365.415502 247.637081 
L 354.942775 247.637081 
z
" clip-path="url(#pe358df8e92)" style="fill: #2ca02c"/>
   </g>
   <g id="patch_61">
    <path d="M 371.47866 255.755494 
L 381.951388 255.755494 
L 381.951388 246.927364 
L 371.47866 246.927364 
z
" clip-path="url(#pe358df8e92)" style="fill: #2ca02c"/>
   </g>
   <g id="patch_62">
    <path d="M 388.014545 255.055628 
L 398.487273 255.055628 
L 398.487273 246.234294 
L 388.014545 246.234294 
z
" clip-path="url(#pe358df8e92)" style="fill: #2ca02c"/>
   </g>
   <g id="patch_63">
    <path d="M 73.832727 262.81819 
L 84.305455 262.81819 
L 84.305455 187.079858 
L 73.832727 187.079858 
z
" clip-path="url(#pe358df8e92)" style="fill: #d62728"/>
   </g>
   <g id="patch_64">
    <path d="M 90.368612 261.729468 
L 100.84134 261.729468 
L 100.84134 186.758892 
L 90.368612 186.758892 
z
" clip-path="url(#pe358df8e92)" style="fill: #d62728"/>
   </g>
   <g id="patch_65">
    <path d="M 106.904498 260.669534 
L 117.377225 260.669534 
L 117.377225 186.317326 
L 106.904498 186.317326 
z
" clip-path="url(#pe358df8e92)" style="fill: #d62728"/>
   </g>
   <g id="patch_66">
    <path d="M 123.440383 259.637427 
L 133.91311 259.637427 
L 133.91311 185.794434 
L 123.440383 185.794434 
z
" clip-path="url(#pe358df8e92)" style="fill: #d62728"/>
   </g>
   <g id="patch_67">
    <path d="M 139.976268 258.632168 
L 150.448995 258.632168 
L 150.448995 185.214721 
L 139.976268 185.214721 
z
" clip-path="url(#pe358df8e92)" style="fill: #d62728"/>
   </g>
   <g id="patch_68">
    <path d="M 156.512153 257.652822 
L 166.98488 257.652822 
L 166.98488 184.594505 
L 156.512153 184.594505 
z
" clip-path="url(#pe358df8e92)" style="fill: #d62728"/>
   </g>
   <g id="patch_69">
    <path d="M 173.048038 256.698487 
L 183.520766 256.698487 
L 183.520766 183.945152 
L 173.048038 183.945152 
z
" clip-path="url(#pe358df8e92)" style="fill: #d62728"/>
   </g>
   <g id="patch_70">
    <path d="M 189.583923 255.768321 
L 200.056651 255.768321 
L 200.056651 183.274882 
L 189.583923 183.274882 
z
" clip-path="url(#pe358df8e92)" style="fill: #d62728"/>
   </g>
   <g id="patch_71">
    <path d="M 206.119809 254.861517 
L 216.592536 254.861517 
L 216.592536 182.589793 
L 206.119809 182.589793 
z
" clip-path="url(#pe358df8e92)" style="fill: #d62728"/>
   </g>
   <g id="patch_72">
    <path d="M 222.655694 253.977314 
L 233.128421 253.977314 
L 233.128421 181.894513 
L 222.655694 181.894513 
z
" clip-path="url(#pe358df8e92)" style="fill: #d62728"/>
   </g>
   <g id="patch_73">
    <path d="M 239.191579 253.114986 
L 249.664306 253.114986 
L 249.664306 181.192613 
L 239.191579 181.192613 
z
" clip-path="url(#pe358df8e92)" style="fill: #d62728"/>
   </g>
   <g id="patch_74">
    <path d="M 255.727464 252.273845 
L 266.200191 252.273845 
L 266.200191 180.486885 
L 255.727464 180.486885 
z
" clip-path="url(#pe358df8e92)" style="fill: #d62728"/>
   </g>
   <g id="patch_75">
    <path d="M 272.263349 251.453233 
L 282.736077 251.453233 
L 282.736077 179.77954 
L 272.263349 179.77954 
z
" clip-path="url(#pe358df8e92)" style="fill: #d62728"/>
   </g>
   <g id="patch_76">
    <path d="M 288.799234 250.652524 
L 299.271962 250.652524 
L 299.271962 179.072343 
L 288.799234 179.072343 
z
" clip-path="url(#pe358df8e92)" style="fill: #d62728"/>
   </g>
   <g id="patch_77">
    <path d="M 305.33512 249.871118 
L 315.807847 249.871118 
L 315.807847 178.366709 
L 305.33512 178.366709 
z
" clip-path="url(#pe358df8e92)" style="fill: #d62728"/>
   </g>
   <g id="patch_78">
    <path d="M 321.871005 249.108439 
L 332.343732 249.108439 
L 332.343732 177.663781 
L 321.871005 177.663781 
z
" clip-path="url(#pe358df8e92)" style="fill: #d62728"/>
   </g>
   <g id="patch_79">
    <path d="M 338.40689 248.363936 
L 348.879617 248.363936 
L 348.879617 176.964486 
L 338.40689 176.964486 
z
" clip-path="url(#pe358df8e92)" style="fill: #d62728"/>
   </g>
   <g id="patch_80">
    <path d="M 354.942775 247.637081 
L 365.415502 247.637081 
L 365.415502 176.269573 
L 354.942775 176.269573 
z
" clip-path="url(#pe358df8e92)" style="fill: #d62728"/>
   </g>
   <g id="patch_81">
    <path d="M 371.47866 246.927364 
L 381.951388 246.927364 
L 381.951388 175.579648 
L 371.47866 175.579648 
z
" clip-path="url(#pe358df8e92)" style="fill: #d62728"/>
   </g>
   <g id="patch_82">
    <path d="M 388.014545 246.234294 
L 398.487273 246.234294 
L 398.487273 174.895203 
L 388.014545 174.895203 
z
" clip-path="url(#pe358df8e92)" style="fill: #d62728"/>
   </g>
   <g id="patch_83">
    <path d="M 73.832727 187.079858 
L 84.305455 187.079858 
L 84.305455 137.342833 
L 73.832727 137.342833 
z
" clip-path="url(#pe358df8e92)" style="fill: #9467bd"/>
   </g>
   <g id="patch_84">
    <path d="M 90.368612 186.758892 
L 100.84134 186.758892 
L 100.84134 136.910354 
L 90.368612 136.910354 
z
" clip-path="url(#pe358df8e92)" style="fill: #9467bd"/>
   </g>
   <g id="patch_85">
    <path d="M 106.904498 186.317326 
L 117.377225 186.317326 
L 117.377225 136.376657 
L 106.904498 136.376657 
z
" clip-path="url(#pe358df8e92)" style="fill: #9467bd"/>
   </g>
   <g id="patch_86">
    <path d="M 123.440383 185.794434 
L 133.91311 185.794434 
L 133.91311 135.775884 
L 123.440383 135.775884 
z
" clip-path="url(#pe358df8e92)" style="fill: #9467bd"/>
   </g>
   <g id="patch_87">
    <path d="M 139.976268 185.214721 
L 150.448995 185.214721 
L 150.448995 135.129276 
L 139.976268 135.129276 
z
" clip-path="url(#pe358df8e92)" style="fill: #9467bd"/>
   </g>
   <g id="patch_88">
    <path d="M 156.512153 184.594505 
L 166.98488 184.594505 
L 166.98488 134.450924 
L 156.512153 134.450924 
z
" clip-path="url(#pe358df8e92)" style="fill: #9467bd"/>
   </g>
   <g id="patch_89">
    <path d="M 173.048038 183.945152 
L 183.520766 183.945152 
L 183.520766 133.750592 
L 173.048038 133.750592 
z
" clip-path="url(#pe358df8e92)" style="fill: #9467bd"/>
   </g>
   <g id="patch_90">
    <path d="M 189.583923 183.274882 
L 200.056651 183.274882 
L 200.056651 133.035304 
L 189.583923 133.035304 
z
" clip-path="url(#pe358df8e92)" style="fill: #9467bd"/>
   </g>
   <g id="patch_91">
    <path d="M 206.119809 182.589793 
L 216.592536 182.589793 
L 216.592536 132.310232 
L 206.119809 132.310232 
z
" clip-path="url(#pe358df8e92)" style="fill: #9467bd"/>
   </g>
   <g id="patch_92">
    <path d="M 222.655694 181.894513 
L 233.128421 181.894513 
L 233.128421 131.579269 
L 222.655694 131.579269 
z
" clip-path="url(#pe358df8e92)" style="fill: #9467bd"/>
   </g>
   <g id="patch_93">
    <path d="M 239.191579 181.192613 
L 249.664306 181.192613 
L 249.664306 130.845389 
L 239.191579 130.845389 
z
" clip-path="url(#pe358df8e92)" style="fill: #9467bd"/>
   </g>
   <g id="patch_94">
    <path d="M 255.727464 180.486885 
L 266.200191 180.486885 
L 266.200191 130.110893 
L 255.727464 130.110893 
z
" clip-path="url(#pe358df8e92)" style="fill: #9467bd"/>
   </g>
   <g id="patch_95">
    <path d="M 272.263349 179.77954 
L 282.736077 179.77954 
L 282.736077 129.377579 
L 272.263349 129.377579 
z
" clip-path="url(#pe358df8e92)" style="fill: #9467bd"/>
   </g>
   <g id="patch_96">
    <path d="M 288.799234 179.072343 
L 299.271962 179.072343 
L 299.271962 128.646858 
L 288.799234 128.646858 
z
" clip-path="url(#pe358df8e92)" style="fill: #9467bd"/>
   </g>
   <g id="patch_97">
    <path d="M 305.33512 178.366709 
L 315.807847 178.366709 
L 315.807847 127.919846 
L 305.33512 127.919846 
z
" clip-path="url(#pe358df8e92)" style="fill: #9467bd"/>
   </g>
   <g id="patch_98">
    <path d="M 321.871005 177.663781 
L 332.343732 177.663781 
L 332.343732 127.197422 
L 321.871005 127.197422 
z
" clip-path="url(#pe358df8e92)" style="fill: #9467bd"/>
   </g>
   <g id="patch_99">
    <path d="M 338.40689 176.964486 
L 348.879617 176.964486 
L 348.879617 126.480284 
L 338.40689 126.480284 
z
" clip-path="url(#pe358df8e92)" style="fill: #9467bd"/>
   </g>
   <g id="patch_100">
    <path d="M 354.942775 176.269573 
L 365.415502 176.269573 
L 365.415502 125.76898 
L 354.942775 125.76898 
z
" clip-path="url(#pe358df8e92)" style="fill: #9467bd"/>
   </g>
   <g id="patch_101">
    <path d="M 371.47866 175.579648 
L 381.951388 175.579648 
L 381.951388 125.063938 
L 371.47866 125.063938 
z
" clip-path="url(#pe358df8e92)" style="fill: #9467bd"/>
   </g>
   <g id="patch_102">
    <path d="M 388.014545 174.895203 
L 398.487273 174.895203 
L 398.487273 124.365492 
L 388.014545 124.365492 
z
" clip-path="url(#pe358df8e92)" style="fill: #9467bd"/>
   </g>
   <g id="patch_103">
    <path d="M 73.832727 137.342833 
L 84.305455 137.342833 
L 84.305455 98.066843 
L 73.832727 98.066843 
z
" clip-path="url(#pe358df8e92)" style="fill: #8c564b"/>
   </g>
   <g id="patch_104">
    <path d="M 90.368612 136.910354 
L 100.84134 136.910354 
L 100.84134 97.916473 
L 90.368612 97.916473 
z
" clip-path="url(#pe358df8e92)" style="fill: #8c564b"/>
   </g>
   <g id="patch_105">
    <path d="M 106.904498 136.376657 
L 117.377225 136.376657 
L 117.377225 97.604359 
L 106.904498 97.604359 
z
" clip-path="url(#pe358df8e92)" style="fill: #8c564b"/>
   </g>
   <g id="patch_106">
    <path d="M 123.440383 135.775884 
L 133.91311 135.775884 
L 133.91311 97.182075 
L 123.440383 97.182075 
z
" clip-path="url(#pe358df8e92)" style="fill: #8c564b"/>
   </g>
   <g id="patch_107">
    <path d="M 139.976268 135.129276 
L 150.448995 135.129276 
L 150.448995 96.681825 
L 139.976268 96.681825 
z
" clip-path="url(#pe358df8e92)" style="fill: #8c564b"/>
   </g>
   <g id="patch_108">
    <path d="M 156.512153 134.450924 
L 166.98488 134.450924 
L 166.98488 96.125065 
L 156.512153 96.125065 
z
" clip-path="url(#pe358df8e92)" style="fill: #8c564b"/>
   </g>
   <g id="patch_109">
    <path d="M 173.048038 133.750592 
L 183.520766 133.750592 
L 183.520766 95.52677 
L 173.048038 95.52677 
z
" clip-path="url(#pe358df8e92)" style="fill: #8c564b"/>
   </g>
   <g id="patch_110">
    <path d="M 189.583923 133.035304 
L 200.056651 133.035304 
L 200.056651 94.897734 
L 189.583923 94.897734 
z
" clip-path="url(#pe358df8e92)" style="fill: #8c564b"/>
   </g>
   <g id="patch_111">
    <path d="M 206.119809 132.310232 
L 216.592536 132.310232 
L 216.592536 94.246004 
L 206.119809 94.246004 
z
" clip-path="url(#pe358df8e92)" style="fill: #8c564b"/>
   </g>
   <g id="patch_112">
    <path d="M 222.655694 131.579269 
L 233.128421 131.579269 
L 233.128421 93.577679 
L 222.655694 93.577679 
z
" clip-path="url(#pe358df8e92)" style="fill: #8c564b"/>
   </g>
   <g id="patch_113">
    <path d="M 239.191579 130.845389 
L 249.664306 130.845389 
L 249.664306 92.897472 
L 239.191579 92.897472 
z
" clip-path="url(#pe358df8e92)" style="fill: #8c564b"/>
   </g>
   <g id="patch_114">
    <path d="M 255.727464 130.110893 
L 266.200191 130.110893 
L 266.200191 92.209076 
L 255.727464 92.209076 
z
" clip-path="url(#pe358df8e92)" style="fill: #8c564b"/>
   </g>
   <g id="patch_115">
    <path d="M 272.263349 129.377579 
L 282.736077 129.377579 
L 282.736077 91.515414 
L 272.263349 91.515414 
z
" clip-path="url(#pe358df8e92)" style="fill: #8c564b"/>
   </g>
   <g id="patch_116">
    <path d="M 288.799234 128.646858 
L 299.271962 128.646858 
L 299.271962 90.818826 
L 288.799234 90.818826 
z
" clip-path="url(#pe358df8e92)" style="fill: #8c564b"/>
   </g>
   <g id="patch_117">
    <path d="M 305.33512 127.919846 
L 315.807847 127.919846 
L 315.807847 90.121193 
L 305.33512 90.121193 
z
" clip-path="url(#pe358df8e92)" style="fill: #8c564b"/>
   </g>
   <g id="patch_118">
    <path d="M 321.871005 127.197422 
L 332.343732 127.197422 
L 332.343732 89.424041 
L 321.871005 89.424041 
z
" clip-path="url(#pe358df8e92)" style="fill: #8c564b"/>
   </g>
   <g id="patch_119">
    <path d="M 338.40689 126.480284 
L 348.879617 126.480284 
L 348.879617 88.728608 
L 338.40689 88.728608 
z
" clip-path="url(#pe358df8e92)" style="fill: #8c564b"/>
   </g>
   <g id="patch_120">
    <path d="M 354.942775 125.76898 
L 365.415502 125.76898 
L 365.415502 88.035904 
L 354.942775 88.035904 
z
" clip-path="url(#pe358df8e92)" style="fill: #8c564b"/>
   </g>
   <g id="patch_121">
    <path d="M 371.47866 125.063938 
L 381.951388 125.063938 
L 381.951388 87.346752 
L 371.47866 87.346752 
z
" clip-path="url(#pe358df8e92)" style="fill: #8c564b"/>
   </g>
   <g id="patch_122">
    <path d="M 388.014545 124.365492 
L 398.487273 124.365492 
L 398.487273 86.661824 
L 388.014545 86.661824 
z
" clip-path="url(#pe358df8e92)" style="fill: #8c564b"/>
   </g>
   <g id="patch_123">
    <path d="M 73.832727 98.066843 
L 84.305455 98.066843 
L 84.305455 89.834528 
L 73.832727 89.834528 
z
" clip-path="url(#pe358df8e92)" style="fill: #e377c2"/>
   </g>
   <g id="patch_124">
    <path d="M 90.368612 97.916473 
L 100.84134 97.916473 
L 100.84134 89.679688 
L 90.368612 89.679688 
z
" clip-path="url(#pe358df8e92)" style="fill: #e377c2"/>
   </g>
   <g id="patch_125">
    <path d="M 106.904498 97.604359 
L 117.377225 97.604359 
L 117.377225 89.36587 
L 106.904498 89.36587 
z
" clip-path="url(#pe358df8e92)" style="fill: #e377c2"/>
   </g>
   <g id="patch_126">
    <path d="M 123.440383 97.182075 
L 133.91311 97.182075 
L 133.91311 88.943808 
L 123.440383 88.943808 
z
" clip-path="url(#pe358df8e92)" style="fill: #e377c2"/>
   </g>
   <g id="patch_127">
    <path d="M 139.976268 96.681825 
L 150.448995 96.681825 
L 150.448995 88.445184 
L 139.976268 88.445184 
z
" clip-path="url(#pe358df8e92)" style="fill: #e377c2"/>
   </g>
   <g id="patch_128">
    <path d="M 156.512153 96.125065 
L 166.98488 96.125065 
L 166.98488 87.8911 
L 156.512153 87.8911 
z
" clip-path="url(#pe358df8e92)" style="fill: #e377c2"/>
   </g>
   <g id="patch_129">
    <path d="M 173.048038 95.52677 
L 183.520766 95.52677 
L 183.520766 87.296287 
L 173.048038 87.296287 
z
" clip-path="url(#pe358df8e92)" style="fill: #e377c2"/>
   </g>
   <g id="patch_130">
    <path d="M 189.583923 94.897734 
L 200.056651 94.897734 
L 200.056651 86.671359 
L 189.583923 86.671359 
z
" clip-path="url(#pe358df8e92)" style="fill: #e377c2"/>
   </g>
   <g id="patch_131">
    <path d="M 206.119809 94.246004 
L 216.592536 94.246004 
L 216.592536 86.024228 
L 206.119809 86.024228 
z
" clip-path="url(#pe358df8e92)" style="fill: #e377c2"/>
   </g>
   <g id="patch_132">
    <path d="M 222.655694 93.577679 
L 233.128421 93.577679 
L 233.128421 85.360892 
L 222.655694 85.360892 
z
" clip-path="url(#pe358df8e92)" style="fill: #e377c2"/>
   </g>
   <g id="patch_133">
    <path d="M 239.191579 92.897472 
L 249.664306 92.897472 
L 249.664306 84.685984 
L 239.191579 84.685984 
z
" clip-path="url(#pe358df8e92)" style="fill: #e377c2"/>
   </g>
   <g id="patch_134">
    <path d="M 255.727464 92.209076 
L 266.200191 92.209076 
L 266.200191 84.003132 
L 255.727464 84.003132 
z
" clip-path="url(#pe358df8e92)" style="fill: #e377c2"/>
   </g>
   <g id="patch_135">
    <path d="M 272.263349 91.515414 
L 282.736077 91.515414 
L 282.736077 83.315209 
L 272.263349 83.315209 
z
" clip-path="url(#pe358df8e92)" style="fill: #e377c2"/>
   </g>
   <g id="patch_136">
    <path d="M 288.799234 90.818826 
L 299.271962 90.818826 
L 299.271962 82.624514 
L 288.799234 82.624514 
z
" clip-path="url(#pe358df8e92)" style="fill: #e377c2"/>
   </g>
   <g id="patch_137">
    <path d="M 305.33512 90.121193 
L 315.807847 90.121193 
L 315.807847 81.932895 
L 305.33512 81.932895 
z
" clip-path="url(#pe358df8e92)" style="fill: #e377c2"/>
   </g>
   <g id="patch_138">
    <path d="M 321.871005 89.424041 
L 332.343732 89.424041 
L 332.343732 81.24185 
L 321.871005 81.24185 
z
" clip-path="url(#pe358df8e92)" style="fill: #e377c2"/>
   </g>
   <g id="patch_139">
    <path d="M 338.40689 88.728608 
L 348.879617 88.728608 
L 348.879617 80.552594 
L 338.40689 80.552594 
z
" clip-path="url(#pe358df8e92)" style="fill: #e377c2"/>
   </g>
   <g id="patch_140">
    <path d="M 354.942775 88.035904 
L 365.415502 88.035904 
L 365.415502 79.866118 
L 354.942775 79.866118 
z
" clip-path="url(#pe358df8e92)" style="fill: #e377c2"/>
   </g>
   <g id="patch_141">
    <path d="M 371.47866 87.346752 
L 381.951388 87.346752 
L 381.951388 79.18323 
L 371.47866 79.18323 
z
" clip-path="url(#pe358df8e92)" style="fill: #e377c2"/>
   </g>
   <g id="patch_142">
    <path d="M 388.014545 86.661824 
L 398.487273 86.661824 
L 398.487273 78.504586 
L 388.014545 78.504586 
z
" clip-path="url(#pe358df8e92)" style="fill: #e377c2"/>
   </g>
   <g id="patch_143">
    <path d="M 73.832727 89.834528 
L 84.305455 89.834528 
L 84.305455 62.863303 
L 73.832727 62.863303 
z
" clip-path="url(#pe358df8e92)" style="fill: #7f7f7f"/>
   </g>
   <g id="patch_144">
    <path d="M 90.368612 89.679688 
L 100.84134 89.679688 
L 100.84134 63.20643 
L 90.368612 63.20643 
z
" clip-path="url(#pe358df8e92)" style="fill: #7f7f7f"/>
   </g>
   <g id="patch_145">
    <path d="M 106.904498 89.36587 
L 117.377225 89.36587 
L 117.377225 63.319501 
L 106.904498 63.319501 
z
" clip-path="url(#pe358df8e92)" style="fill: #7f7f7f"/>
   </g>
   <g id="patch_146">
    <path d="M 123.440383 88.943808 
L 133.91311 88.943808 
L 133.91311 63.272337 
L 123.440383 63.272337 
z
" clip-path="url(#pe358df8e92)" style="fill: #7f7f7f"/>
   </g>
   <g id="patch_147">
    <path d="M 139.976268 88.445184 
L 150.448995 88.445184 
L 150.448995 63.108704 
L 139.976268 63.108704 
z
" clip-path="url(#pe358df8e92)" style="fill: #7f7f7f"/>
   </g>
   <g id="patch_148">
    <path d="M 156.512153 87.8911 
L 166.98488 87.8911 
L 166.98488 62.857886 
L 156.512153 62.857886 
z
" clip-path="url(#pe358df8e92)" style="fill: #7f7f7f"/>
   </g>
   <g id="patch_149">
    <path d="M 173.048038 87.296287 
L 183.520766 87.296287 
L 183.520766 62.540433 
L 173.048038 62.540433 
z
" clip-path="url(#pe358df8e92)" style="fill: #7f7f7f"/>
   </g>
   <g id="patch_150">
    <path d="M 189.583923 86.671359 
L 200.056651 86.671359 
L 200.056651 62.171266 
L 189.583923 62.171266 
z
" clip-path="url(#pe358df8e92)" style="fill: #7f7f7f"/>
   </g>
   <g id="patch_151">
    <path d="M 206.119809 86.024228 
L 216.592536 86.024228 
L 216.592536 61.761569 
L 206.119809 61.761569 
z
" clip-path="url(#pe358df8e92)" style="fill: #7f7f7f"/>
   </g>
   <g id="patch_152">
    <path d="M 222.655694 85.360892 
L 233.128421 85.360892 
L 233.128421 61.319898 
L 222.655694 61.319898 
z
" clip-path="url(#pe358df8e92)" style="fill: #7f7f7f"/>
   </g>
   <g id="patch_153">
    <path d="M 239.191579 84.685984 
L 249.664306 84.685984 
L 249.664306 60.852922 
L 239.191579 60.852922 
z
" clip-path="url(#pe358df8e92)" style="fill: #7f7f7f"/>
   </g>
   <g id="patch_154">
    <path d="M 255.727464 84.003132 
L 266.200191 84.003132 
L 266.200191 60.365924 
L 255.727464 60.365924 
z
" clip-path="url(#pe358df8e92)" style="fill: #7f7f7f"/>
   </g>
   <g id="patch_155">
    <path d="M 272.263349 83.315209 
L 282.736077 83.315209 
L 282.736077 59.863138 
L 272.263349 59.863138 
z
" clip-path="url(#pe358df8e92)" style="fill: #7f7f7f"/>
   </g>
   <g id="patch_156">
    <path d="M 288.799234 82.624514 
L 299.271962 82.624514 
L 299.271962 59.347997 
L 288.799234 59.347997 
z
" clip-path="url(#pe358df8e92)" style="fill: #7f7f7f"/>
   </g>
   <g id="patch_157">
    <path d="M 305.33512 81.932895 
L 315.807847 81.932895 
L 315.807847 58.823308 
L 305.33512 58.823308 
z
" clip-path="url(#pe358df8e92)" style="fill: #7f7f7f"/>
   </g>
   <g id="patch_158">
    <path d="M 321.871005 81.24185 
L 332.343732 81.24185 
L 332.343732 58.291382 
L 321.871005 58.291382 
z
" clip-path="url(#pe358df8e92)" style="fill: #7f7f7f"/>
   </g>
   <g id="patch_159">
    <path d="M 338.40689 80.552594 
L 348.879617 80.552594 
L 348.879617 57.754137 
L 338.40689 57.754137 
z
" clip-path="url(#pe358df8e92)" style="fill: #7f7f7f"/>
   </g>
   <g id="patch_160">
    <path d="M 354.942775 79.866118 
L 365.415502 79.866118 
L 365.415502 57.213173 
L 354.942775 57.213173 
z
" clip-path="url(#pe358df8e92)" style="fill: #7f7f7f"/>
   </g>
   <g id="patch_161">
    <path d="M 371.47866 79.18323 
L 381.951388 79.18323 
L 381.951388 56.669826 
L 371.47866 56.669826 
z
" clip-path="url(#pe358df8e92)" style="fill: #7f7f7f"/>
   </g>
   <g id="patch_162">
    <path d="M 388.014545 78.504586 
L 398.487273 78.504586 
L 398.487273 56.12522 
L 388.014545 56.12522 
z
" clip-path="url(#pe358df8e92)" style="fill: #7f7f7f"/>
   </g>
   <g id="patch_163">
    <path d="M 73.832727 62.863303 
L 84.305455 62.863303 
L 84.305455 60.429581 
L 73.832727 60.429581 
z
" clip-path="url(#pe358df8e92)" style="fill: #bcbd22"/>
   </g>
   <g id="patch_164">
    <path d="M 90.368612 63.20643 
L 100.84134 63.20643 
L 100.84134 60.803809 
L 90.368612 60.803809 
z
" clip-path="url(#pe358df8e92)" style="fill: #bcbd22"/>
   </g>
   <g id="patch_165">
    <path d="M 106.904498 63.319501 
L 117.377225 63.319501 
L 117.377225 60.946537 
L 106.904498 60.946537 
z
" clip-path="url(#pe358df8e92)" style="fill: #bcbd22"/>
   </g>
   <g id="patch_166">
    <path d="M 123.440383 63.272337 
L 133.91311 63.272337 
L 133.91311 60.927877 
L 123.440383 60.927877 
z
" clip-path="url(#pe358df8e92)" style="fill: #bcbd22"/>
   </g>
   <g id="patch_167">
    <path d="M 139.976268 63.108704 
L 150.448995 63.108704 
L 150.448995 60.791785 
L 139.976268 60.791785 
z
" clip-path="url(#pe358df8e92)" style="fill: #bcbd22"/>
   </g>
   <g id="patch_168">
    <path d="M 156.512153 62.857886 
L 166.98488 62.857886 
L 166.98488 60.567665 
L 156.512153 60.567665 
z
" clip-path="url(#pe358df8e92)" style="fill: #bcbd22"/>
   </g>
   <g id="patch_169">
    <path d="M 173.048038 62.540433 
L 183.520766 62.540433 
L 183.520766 60.276162 
L 173.048038 60.276162 
z
" clip-path="url(#pe358df8e92)" style="fill: #bcbd22"/>
   </g>
   <g id="patch_170">
    <path d="M 189.583923 62.171266 
L 200.056651 62.171266 
L 200.056651 59.932255 
L 189.583923 59.932255 
z
" clip-path="url(#pe358df8e92)" style="fill: #bcbd22"/>
   </g>
   <g id="patch_171">
    <path d="M 206.119809 61.761569 
L 216.592536 61.761569 
L 216.592536 59.547174 
L 206.119809 59.547174 
z
" clip-path="url(#pe358df8e92)" style="fill: #bcbd22"/>
   </g>
   <g id="patch_172">
    <path d="M 222.655694 61.319898 
L 233.128421 61.319898 
L 233.128421 59.129506 
L 222.655694 59.129506 
z
" clip-path="url(#pe358df8e92)" style="fill: #bcbd22"/>
   </g>
   <g id="patch_173">
    <path d="M 239.191579 60.852922 
L 249.664306 60.852922 
L 249.664306 58.685946 
L 239.191579 58.685946 
z
" clip-path="url(#pe358df8e92)" style="fill: #bcbd22"/>
   </g>
   <g id="patch_174">
    <path d="M 255.727464 60.365924 
L 266.200191 60.365924 
L 266.200191 58.221791 
L 255.727464 58.221791 
z
" clip-path="url(#pe358df8e92)" style="fill: #bcbd22"/>
   </g>
   <g id="patch_175">
    <path d="M 272.263349 59.863138 
L 282.736077 59.863138 
L 282.736077 57.741288 
L 272.263349 57.741288 
z
" clip-path="url(#pe358df8e92)" style="fill: #bcbd22"/>
   </g>
   <g id="patch_176">
    <path d="M 288.799234 59.347997 
L 299.271962 59.347997 
L 299.271962 57.247877 
L 288.799234 57.247877 
z
" clip-path="url(#pe358df8e92)" style="fill: #bcbd22"/>
   </g>
   <g id="patch_177">
    <path d="M 305.33512 58.823308 
L 315.807847 58.823308 
L 315.807847 56.744369 
L 305.33512 56.744369 
z
" clip-path="url(#pe358df8e92)" style="fill: #bcbd22"/>
   </g>
   <g id="patch_178">
    <path d="M 321.871005 58.291382 
L 332.343732 58.291382 
L 332.343732 56.233079 
L 321.871005 56.233079 
z
" clip-path="url(#pe358df8e92)" style="fill: #bcbd22"/>
   </g>
   <g id="patch_179">
    <path d="M 338.40689 57.754137 
L 348.879617 57.754137 
L 348.879617 55.715926 
L 338.40689 55.715926 
z
" clip-path="url(#pe358df8e92)" style="fill: #bcbd22"/>
   </g>
   <g id="patch_180">
    <path d="M 354.942775 57.213173 
L 365.415502 57.213173 
L 365.415502 55.194506 
L 354.942775 55.194506 
z
" clip-path="url(#pe358df8e92)" style="fill: #bcbd22"/>
   </g>
   <g id="patch_181">
    <path d="M 371.47866 56.669826 
L 381.951388 56.669826 
L 381.951388 54.670157 
L 371.47866 54.670157 
z
" clip-path="url(#pe358df8e92)" style="fill: #bcbd22"/>
   </g>
   <g id="patch_182">
    <path d="M 388.014545 56.12522 
L 398.487273 56.12522 
L 398.487273 54.144 
L 388.014545 54.144 
z
" clip-path="url(#pe358df8e92)" style="fill: #bcbd22"/>
   </g>
   <g id="matplotlib.axis_1">
    <g id="xtick_1">
     <g id="line2d_1">
      <defs>
       <path id="m7d81ec2ca4" d="M 0 0 
L 0 3.5 
" style="stroke: #000000; stroke-width: 0.8"/>
      </defs>
      <g>
       <use xlink:href="#m7d81ec2ca4" x="79.069091" y="307.584" style="stroke: #000000; stroke-width: 0.8"/>
      </g>
     </g>
     <g id="text_1">
      <!-- 32 -->
      <g transform="translate(67.616591 328.261187) scale(0.18 -0.18)">
       <defs>
        <path id="DejaVuSans-33" d="M 2597 2516 
Q 3050 2419 3304 2112 
Q 3559 1806 3559 1356 
Q 3559 666 3084 287 
Q 2609 -91 1734 -91 
Q 1441 -91 1130 -33 
Q 819 25 488 141 
L 488 750 
Q 750 597 1062 519 
Q 1375 441 1716 441 
Q 2309 441 2620 675 
Q 2931 909 2931 1356 
Q 2931 1769 2642 2001 
Q 2353 2234 1838 2234 
L 1294 2234 
L 1294 2753 
L 1863 2753 
Q 2328 2753 2575 2939 
Q 2822 3125 2822 3475 
Q 2822 3834 2567 4026 
Q 2313 4219 1838 4219 
Q 1578 4219 1281 4162 
Q 984 4106 628 3988 
L 628 4550 
Q 988 4650 1302 4700 
Q 1616 4750 1894 4750 
Q 2613 4750 3031 4423 
Q 3450 4097 3450 3541 
Q 3450 3153 3228 2886 
Q 3006 2619 2597 2516 
z
" transform="scale(0.015625)"/>
        <path id="DejaVuSans-32" d="M 1228 531 
L 3431 531 
L 3431 0 
L 469 0 
L 469 531 
Q 828 903 1448 1529 
Q 2069 2156 2228 2338 
Q 2531 2678 2651 2914 
Q 2772 3150 2772 3378 
Q 2772 3750 2511 3984 
Q 2250 4219 1831 4219 
Q 1534 4219 1204 4116 
Q 875 4013 500 3803 
L 500 4441 
Q 881 4594 1212 4672 
Q 1544 4750 1819 4750 
Q 2544 4750 2975 4387 
Q 3406 4025 3406 3419 
Q 3406 3131 3298 2873 
Q 3191 2616 2906 2266 
Q 2828 2175 2409 1742 
Q 1991 1309 1228 531 
z
" transform="scale(0.015625)"/>
       </defs>
       <use xlink:href="#DejaVuSans-33"/>
       <use xlink:href="#DejaVuSans-32" x="63.623047"/>
      </g>
     </g>
    </g>
    <g id="xtick_2">
     <g id="line2d_2">
      <g>
       <use xlink:href="#m7d81ec2ca4" x="183.796364" y="307.584" style="stroke: #000000; stroke-width: 0.8"/>
      </g>
     </g>
     <g id="text_2">
      <!-- 34 -->
      <g transform="translate(172.343864 328.261187) scale(0.18 -0.18)">
       <defs>
        <path id="DejaVuSans-34" d="M 2419 4116 
L 825 1625 
L 2419 1625 
L 2419 4116 
z
M 2253 4666 
L 3047 4666 
L 3047 1625 
L 3713 1625 
L 3713 1100 
L 3047 1100 
L 3047 0 
L 2419 0 
L 2419 1100 
L 313 1100 
L 313 1709 
L 2253 4666 
z
" transform="scale(0.015625)"/>
       </defs>
       <use xlink:href="#DejaVuSans-33"/>
       <use xlink:href="#DejaVuSans-34" x="63.623047"/>
      </g>
     </g>
    </g>
    <g id="xtick_3">
     <g id="line2d_3">
      <g>
       <use xlink:href="#m7d81ec2ca4" x="288.523636" y="307.584" style="stroke: #000000; stroke-width: 0.8"/>
      </g>
     </g>
     <g id="text_3">
      <!-- 36 -->
      <g transform="translate(277.071136 328.261187) scale(0.18 -0.18)">
       <defs>
        <path id="DejaVuSans-36" d="M 2113 2584 
Q 1688 2584 1439 2293 
Q 1191 2003 1191 1497 
Q 1191 994 1439 701 
Q 1688 409 2113 409 
Q 2538 409 2786 701 
Q 3034 994 3034 1497 
Q 3034 2003 2786 2293 
Q 2538 2584 2113 2584 
z
M 3366 4563 
L 3366 3988 
Q 3128 4100 2886 4159 
Q 2644 4219 2406 4219 
Q 1781 4219 1451 3797 
Q 1122 3375 1075 2522 
Q 1259 2794 1537 2939 
Q 1816 3084 2150 3084 
Q 2853 3084 3261 2657 
Q 3669 2231 3669 1497 
Q 3669 778 3244 343 
Q 2819 -91 2113 -91 
Q 1303 -91 875 529 
Q 447 1150 447 2328 
Q 447 3434 972 4092 
Q 1497 4750 2381 4750 
Q 2619 4750 2861 4703 
Q 3103 4656 3366 4563 
z
" transform="scale(0.015625)"/>
       </defs>
       <use xlink:href="#DejaVuSans-33"/>
       <use xlink:href="#DejaVuSans-36" x="63.623047"/>
      </g>
     </g>
    </g>
    <g id="xtick_4">
     <g id="line2d_4">
      <g>
       <use xlink:href="#m7d81ec2ca4" x="393.250909" y="307.584" style="stroke: #000000; stroke-width: 0.8"/>
      </g>
     </g>
     <g id="text_4">
      <!-- 38 -->
      <g transform="translate(381.798409 328.261187) scale(0.18 -0.18)">
       <defs>
        <path id="DejaVuSans-38" d="M 2034 2216 
Q 1584 2216 1326 1975 
Q 1069 1734 1069 1313 
Q 1069 891 1326 650 
Q 1584 409 2034 409 
Q 2484 409 2743 651 
Q 3003 894 3003 1313 
Q 3003 1734 2745 1975 
Q 2488 2216 2034 2216 
z
M 1403 2484 
Q 997 2584 770 2862 
Q 544 3141 544 3541 
Q 544 4100 942 4425 
Q 1341 4750 2034 4750 
Q 2731 4750 3128 4425 
Q 3525 4100 3525 3541 
Q 3525 3141 3298 2862 
Q 3072 2584 2669 2484 
Q 3125 2378 3379 2068 
Q 3634 1759 3634 1313 
Q 3634 634 3220 271 
Q 2806 -91 2034 -91 
Q 1263 -91 848 271 
Q 434 634 434 1313 
Q 434 1759 690 2068 
Q 947 2378 1403 2484 
z
M 1172 3481 
Q 1172 3119 1398 2916 
Q 1625 2713 2034 2713 
Q 2441 2713 2670 2916 
Q 2900 3119 2900 3481 
Q 2900 3844 2670 4047 
Q 2441 4250 2034 4250 
Q 1625 4250 1398 4047 
Q 1172 3844 1172 3481 
z
" transform="scale(0.015625)"/>
       </defs>
       <use xlink:href="#DejaVuSans-33"/>
       <use xlink:href="#DejaVuSans-38" x="63.623047"/>
      </g>
     </g>
    </g>
    <g id="text_5">
     <!-- Kondensatordruck in bar -->
     <g transform="translate(125.630156 349.681812) scale(0.18 -0.18)">
      <defs>
       <path id="DejaVuSans-4b" d="M 628 4666 
L 1259 4666 
L 1259 2694 
L 3353 4666 
L 4166 4666 
L 1850 2491 
L 4331 0 
L 3500 0 
L 1259 2247 
L 1259 0 
L 628 0 
L 628 4666 
z
" transform="scale(0.015625)"/>
       <path id="DejaVuSans-6f" d="M 1959 3097 
Q 1497 3097 1228 2736 
Q 959 2375 959 1747 
Q 959 1119 1226 758 
Q 1494 397 1959 397 
Q 2419 397 2687 759 
Q 2956 1122 2956 1747 
Q 2956 2369 2687 2733 
Q 2419 3097 1959 3097 
z
M 1959 3584 
Q 2709 3584 3137 3096 
Q 3566 2609 3566 1747 
Q 3566 888 3137 398 
Q 2709 -91 1959 -91 
Q 1206 -91 779 398 
Q 353 888 353 1747 
Q 353 2609 779 3096 
Q 1206 3584 1959 3584 
z
" transform="scale(0.015625)"/>
       <path id="DejaVuSans-6e" d="M 3513 2113 
L 3513 0 
L 2938 0 
L 2938 2094 
Q 2938 2591 2744 2837 
Q 2550 3084 2163 3084 
Q 1697 3084 1428 2787 
Q 1159 2491 1159 1978 
L 1159 0 
L 581 0 
L 581 3500 
L 1159 3500 
L 1159 2956 
Q 1366 3272 1645 3428 
Q 1925 3584 2291 3584 
Q 2894 3584 3203 3211 
Q 3513 2838 3513 2113 
z
" transform="scale(0.015625)"/>
       <path id="DejaVuSans-64" d="M 2906 2969 
L 2906 4863 
L 3481 4863 
L 3481 0 
L 2906 0 
L 2906 525 
Q 2725 213 2448 61 
Q 2172 -91 1784 -91 
Q 1150 -91 751 415 
Q 353 922 353 1747 
Q 353 2572 751 3078 
Q 1150 3584 1784 3584 
Q 2172 3584 2448 3432 
Q 2725 3281 2906 2969 
z
M 947 1747 
Q 947 1113 1208 752 
Q 1469 391 1925 391 
Q 2381 391 2643 752 
Q 2906 1113 2906 1747 
Q 2906 2381 2643 2742 
Q 2381 3103 1925 3103 
Q 1469 3103 1208 2742 
Q 947 2381 947 1747 
z
" transform="scale(0.015625)"/>
       <path id="DejaVuSans-65" d="M 3597 1894 
L 3597 1613 
L 953 1613 
Q 991 1019 1311 708 
Q 1631 397 2203 397 
Q 2534 397 2845 478 
Q 3156 559 3463 722 
L 3463 178 
Q 3153 47 2828 -22 
Q 2503 -91 2169 -91 
Q 1331 -91 842 396 
Q 353 884 353 1716 
Q 353 2575 817 3079 
Q 1281 3584 2069 3584 
Q 2775 3584 3186 3129 
Q 3597 2675 3597 1894 
z
M 3022 2063 
Q 3016 2534 2758 2815 
Q 2500 3097 2075 3097 
Q 1594 3097 1305 2825 
Q 1016 2553 972 2059 
L 3022 2063 
z
" transform="scale(0.015625)"/>
       <path id="DejaVuSans-73" d="M 2834 3397 
L 2834 2853 
Q 2591 2978 2328 3040 
Q 2066 3103 1784 3103 
Q 1356 3103 1142 2972 
Q 928 2841 928 2578 
Q 928 2378 1081 2264 
Q 1234 2150 1697 2047 
L 1894 2003 
Q 2506 1872 2764 1633 
Q 3022 1394 3022 966 
Q 3022 478 2636 193 
Q 2250 -91 1575 -91 
Q 1294 -91 989 -36 
Q 684 19 347 128 
L 347 722 
Q 666 556 975 473 
Q 1284 391 1588 391 
Q 1994 391 2212 530 
Q 2431 669 2431 922 
Q 2431 1156 2273 1281 
Q 2116 1406 1581 1522 
L 1381 1569 
Q 847 1681 609 1914 
Q 372 2147 372 2553 
Q 372 3047 722 3315 
Q 1072 3584 1716 3584 
Q 2034 3584 2315 3537 
Q 2597 3491 2834 3397 
z
" transform="scale(0.015625)"/>
       <path id="DejaVuSans-61" d="M 2194 1759 
Q 1497 1759 1228 1600 
Q 959 1441 959 1056 
Q 959 750 1161 570 
Q 1363 391 1709 391 
Q 2188 391 2477 730 
Q 2766 1069 2766 1631 
L 2766 1759 
L 2194 1759 
z
M 3341 1997 
L 3341 0 
L 2766 0 
L 2766 531 
Q 2569 213 2275 61 
Q 1981 -91 1556 -91 
Q 1019 -91 701 211 
Q 384 513 384 1019 
Q 384 1609 779 1909 
Q 1175 2209 1959 2209 
L 2766 2209 
L 2766 2266 
Q 2766 2663 2505 2880 
Q 2244 3097 1772 3097 
Q 1472 3097 1187 3025 
Q 903 2953 641 2809 
L 641 3341 
Q 956 3463 1253 3523 
Q 1550 3584 1831 3584 
Q 2591 3584 2966 3190 
Q 3341 2797 3341 1997 
z
" transform="scale(0.015625)"/>
       <path id="DejaVuSans-74" d="M 1172 4494 
L 1172 3500 
L 2356 3500 
L 2356 3053 
L 1172 3053 
L 1172 1153 
Q 1172 725 1289 603 
Q 1406 481 1766 481 
L 2356 481 
L 2356 0 
L 1766 0 
Q 1100 0 847 248 
Q 594 497 594 1153 
L 594 3053 
L 172 3053 
L 172 3500 
L 594 3500 
L 594 4494 
L 1172 4494 
z
" transform="scale(0.015625)"/>
       <path id="DejaVuSans-72" d="M 2631 2963 
Q 2534 3019 2420 3045 
Q 2306 3072 2169 3072 
Q 1681 3072 1420 2755 
Q 1159 2438 1159 1844 
L 1159 0 
L 581 0 
L 581 3500 
L 1159 3500 
L 1159 2956 
Q 1341 3275 1631 3429 
Q 1922 3584 2338 3584 
Q 2397 3584 2469 3576 
Q 2541 3569 2628 3553 
L 2631 2963 
z
" transform="scale(0.015625)"/>
       <path id="DejaVuSans-75" d="M 544 1381 
L 544 3500 
L 1119 3500 
L 1119 1403 
Q 1119 906 1312 657 
Q 1506 409 1894 409 
Q 2359 409 2629 706 
Q 2900 1003 2900 1516 
L 2900 3500 
L 3475 3500 
L 3475 0 
L 2900 0 
L 2900 538 
Q 2691 219 2414 64 
Q 2138 -91 1772 -91 
Q 1169 -91 856 284 
Q 544 659 544 1381 
z
M 1991 3584 
L 1991 3584 
z
" transform="scale(0.015625)"/>
       <path id="DejaVuSans-63" d="M 3122 3366 
L 3122 2828 
Q 2878 2963 2633 3030 
Q 2388 3097 2138 3097 
Q 1578 3097 1268 2742 
Q 959 2388 959 1747 
Q 959 1106 1268 751 
Q 1578 397 2138 397 
Q 2388 397 2633 464 
Q 2878 531 3122 666 
L 3122 134 
Q 2881 22 2623 -34 
Q 2366 -91 2075 -91 
Q 1284 -91 818 406 
Q 353 903 353 1747 
Q 353 2603 823 3093 
Q 1294 3584 2113 3584 
Q 2378 3584 2631 3529 
Q 2884 3475 3122 3366 
z
" transform="scale(0.015625)"/>
       <path id="DejaVuSans-6b" d="M 581 4863 
L 1159 4863 
L 1159 1991 
L 2875 3500 
L 3609 3500 
L 1753 1863 
L 3688 0 
L 2938 0 
L 1159 1709 
L 1159 0 
L 581 0 
L 581 4863 
z
" transform="scale(0.015625)"/>
       <path id="DejaVuSans-20" transform="scale(0.015625)"/>
       <path id="DejaVuSans-69" d="M 603 3500 
L 1178 3500 
L 1178 0 
L 603 0 
L 603 3500 
z
M 603 4863 
L 1178 4863 
L 1178 4134 
L 603 4134 
L 603 4863 
z
" transform="scale(0.015625)"/>
       <path id="DejaVuSans-62" d="M 3116 1747 
Q 3116 2381 2855 2742 
Q 2594 3103 2138 3103 
Q 1681 3103 1420 2742 
Q 1159 2381 1159 1747 
Q 1159 1113 1420 752 
Q 1681 391 2138 391 
Q 2594 391 2855 752 
Q 3116 1113 3116 1747 
z
M 1159 2969 
Q 1341 3281 1617 3432 
Q 1894 3584 2278 3584 
Q 2916 3584 3314 3078 
Q 3713 2572 3713 1747 
Q 3713 922 3314 415 
Q 2916 -91 2278 -91 
Q 1894 -91 1617 61 
Q 1341 213 1159 525 
L 1159 0 
L 581 0 
L 581 4863 
L 1159 4863 
L 1159 2969 
z
" transform="scale(0.015625)"/>
      </defs>
      <use xlink:href="#DejaVuSans-4b"/>
      <use xlink:href="#DejaVuSans-6f" x="60.576172"/>
      <use xlink:href="#DejaVuSans-6e" x="121.757812"/>
      <use xlink:href="#DejaVuSans-64" x="185.136719"/>
      <use xlink:href="#DejaVuSans-65" x="248.613281"/>
      <use xlink:href="#DejaVuSans-6e" x="310.136719"/>
      <use xlink:href="#DejaVuSans-73" x="373.515625"/>
      <use xlink:href="#DejaVuSans-61" x="425.615234"/>
      <use xlink:href="#DejaVuSans-74" x="486.894531"/>
      <use xlink:href="#DejaVuSans-6f" x="526.103516"/>
      <use xlink:href="#DejaVuSans-72" x="587.285156"/>
      <use xlink:href="#DejaVuSans-64" x="626.648438"/>
      <use xlink:href="#DejaVuSans-72" x="690.125"/>
      <use xlink:href="#DejaVuSans-75" x="731.238281"/>
      <use xlink:href="#DejaVuSans-63" x="794.617188"/>
      <use xlink:href="#DejaVuSans-6b" x="849.597656"/>
      <use xlink:href="#DejaVuSans-20" x="907.507812"/>
      <use xlink:href="#DejaVuSans-69" x="939.294922"/>
      <use xlink:href="#DejaVuSans-6e" x="967.078125"/>
      <use xlink:href="#DejaVuSans-20" x="1030.457031"/>
      <use xlink:href="#DejaVuSans-62" x="1062.244141"/>
      <use xlink:href="#DejaVuSans-61" x="1125.720703"/>
      <use xlink:href="#DejaVuSans-72" x="1187"/>
     </g>
    </g>
   </g>
   <g id="matplotlib.axis_2">
    <g id="ytick_1">
     <g id="line2d_5">
      <defs>
       <path id="mfd00b6ba64" d="M 0 0 
L -3.5 0 
" style="stroke: #000000; stroke-width: 0.8"/>
      </defs>
      <g>
       <use xlink:href="#mfd00b6ba64" x="57.6" y="307.584" style="stroke: #000000; stroke-width: 0.8"/>
      </g>
     </g>
     <g id="text_6">
      <!-- 0.0 -->
      <g transform="translate(21.974375 314.422594) scale(0.18 -0.18)">
       <defs>
        <path id="DejaVuSans-30" d="M 2034 4250 
Q 1547 4250 1301 3770 
Q 1056 3291 1056 2328 
Q 1056 1369 1301 889 
Q 1547 409 2034 409 
Q 2525 409 2770 889 
Q 3016 1369 3016 2328 
Q 3016 3291 2770 3770 
Q 2525 4250 2034 4250 
z
M 2034 4750 
Q 2819 4750 3233 4129 
Q 3647 3509 3647 2328 
Q 3647 1150 3233 529 
Q 2819 -91 2034 -91 
Q 1250 -91 836 529 
Q 422 1150 422 2328 
Q 422 3509 836 4129 
Q 1250 4750 2034 4750 
z
" transform="scale(0.015625)"/>
        <path id="DejaVuSans-2e" d="M 684 794 
L 1344 794 
L 1344 0 
L 684 0 
L 684 794 
z
" transform="scale(0.015625)"/>
       </defs>
       <use xlink:href="#DejaVuSans-30"/>
       <use xlink:href="#DejaVuSans-2e" x="63.623047"/>
       <use xlink:href="#DejaVuSans-30" x="95.410156"/>
      </g>
     </g>
    </g>
    <g id="ytick_2">
     <g id="line2d_6">
      <g>
       <use xlink:href="#mfd00b6ba64" x="57.6" y="235.483944" style="stroke: #000000; stroke-width: 0.8"/>
      </g>
     </g>
     <g id="text_7">
      <!-- 0.5 -->
      <g transform="translate(21.974375 242.322537) scale(0.18 -0.18)">
       <defs>
        <path id="DejaVuSans-35" d="M 691 4666 
L 3169 4666 
L 3169 4134 
L 1269 4134 
L 1269 2991 
Q 1406 3038 1543 3061 
Q 1681 3084 1819 3084 
Q 2600 3084 3056 2656 
Q 3513 2228 3513 1497 
Q 3513 744 3044 326 
Q 2575 -91 1722 -91 
Q 1428 -91 1123 -41 
Q 819 9 494 109 
L 494 744 
Q 775 591 1075 516 
Q 1375 441 1709 441 
Q 2250 441 2565 725 
Q 2881 1009 2881 1497 
Q 2881 1984 2565 2268 
Q 2250 2553 1709 2553 
Q 1456 2553 1204 2497 
Q 953 2441 691 2322 
L 691 4666 
z
" transform="scale(0.015625)"/>
       </defs>
       <use xlink:href="#DejaVuSans-30"/>
       <use xlink:href="#DejaVuSans-2e" x="63.623047"/>
       <use xlink:href="#DejaVuSans-35" x="95.410156"/>
      </g>
     </g>
    </g>
    <g id="ytick_3">
     <g id="line2d_7">
      <g>
       <use xlink:href="#mfd00b6ba64" x="57.6" y="163.383887" style="stroke: #000000; stroke-width: 0.8"/>
      </g>
     </g>
     <g id="text_8">
      <!-- 1.0 -->
      <g transform="translate(21.974375 170.222481) scale(0.18 -0.18)">
       <defs>
        <path id="DejaVuSans-31" d="M 794 531 
L 1825 531 
L 1825 4091 
L 703 3866 
L 703 4441 
L 1819 4666 
L 2450 4666 
L 2450 531 
L 3481 531 
L 3481 0 
L 794 0 
L 794 531 
z
" transform="scale(0.015625)"/>
       </defs>
       <use xlink:href="#DejaVuSans-31"/>
       <use xlink:href="#DejaVuSans-2e" x="63.623047"/>
       <use xlink:href="#DejaVuSans-30" x="95.410156"/>
      </g>
     </g>
    </g>
    <g id="ytick_4">
     <g id="line2d_8">
      <g>
       <use xlink:href="#mfd00b6ba64" x="57.6" y="91.283831" style="stroke: #000000; stroke-width: 0.8"/>
      </g>
     </g>
     <g id="text_9">
      <!-- 1.5 -->
      <g transform="translate(21.974375 98.122425) scale(0.18 -0.18)">
       <use xlink:href="#DejaVuSans-31"/>
       <use xlink:href="#DejaVuSans-2e" x="63.623047"/>
       <use xlink:href="#DejaVuSans-35" x="95.410156"/>
      </g>
     </g>
    </g>
    <g id="text_10">
     <!-- Exergievernichtung in MW -->
     <g transform="translate(14.230937 292.593937) rotate(-90) scale(0.18 -0.18)">
      <defs>
       <path id="DejaVuSans-45" d="M 628 4666 
L 3578 4666 
L 3578 4134 
L 1259 4134 
L 1259 2753 
L 3481 2753 
L 3481 2222 
L 1259 2222 
L 1259 531 
L 3634 531 
L 3634 0 
L 628 0 
L 628 4666 
z
" transform="scale(0.015625)"/>
       <path id="DejaVuSans-78" d="M 3513 3500 
L 2247 1797 
L 3578 0 
L 2900 0 
L 1881 1375 
L 863 0 
L 184 0 
L 1544 1831 
L 300 3500 
L 978 3500 
L 1906 2253 
L 2834 3500 
L 3513 3500 
z
" transform="scale(0.015625)"/>
       <path id="DejaVuSans-67" d="M 2906 1791 
Q 2906 2416 2648 2759 
Q 2391 3103 1925 3103 
Q 1463 3103 1205 2759 
Q 947 2416 947 1791 
Q 947 1169 1205 825 
Q 1463 481 1925 481 
Q 2391 481 2648 825 
Q 2906 1169 2906 1791 
z
M 3481 434 
Q 3481 -459 3084 -895 
Q 2688 -1331 1869 -1331 
Q 1566 -1331 1297 -1286 
Q 1028 -1241 775 -1147 
L 775 -588 
Q 1028 -725 1275 -790 
Q 1522 -856 1778 -856 
Q 2344 -856 2625 -561 
Q 2906 -266 2906 331 
L 2906 616 
Q 2728 306 2450 153 
Q 2172 0 1784 0 
Q 1141 0 747 490 
Q 353 981 353 1791 
Q 353 2603 747 3093 
Q 1141 3584 1784 3584 
Q 2172 3584 2450 3431 
Q 2728 3278 2906 2969 
L 2906 3500 
L 3481 3500 
L 3481 434 
z
" transform="scale(0.015625)"/>
       <path id="DejaVuSans-76" d="M 191 3500 
L 800 3500 
L 1894 563 
L 2988 3500 
L 3597 3500 
L 2284 0 
L 1503 0 
L 191 3500 
z
" transform="scale(0.015625)"/>
       <path id="DejaVuSans-68" d="M 3513 2113 
L 3513 0 
L 2938 0 
L 2938 2094 
Q 2938 2591 2744 2837 
Q 2550 3084 2163 3084 
Q 1697 3084 1428 2787 
Q 1159 2491 1159 1978 
L 1159 0 
L 581 0 
L 581 4863 
L 1159 4863 
L 1159 2956 
Q 1366 3272 1645 3428 
Q 1925 3584 2291 3584 
Q 2894 3584 3203 3211 
Q 3513 2838 3513 2113 
z
" transform="scale(0.015625)"/>
       <path id="DejaVuSans-4d" d="M 628 4666 
L 1569 4666 
L 2759 1491 
L 3956 4666 
L 4897 4666 
L 4897 0 
L 4281 0 
L 4281 4097 
L 3078 897 
L 2444 897 
L 1241 4097 
L 1241 0 
L 628 0 
L 628 4666 
z
" transform="scale(0.015625)"/>
       <path id="DejaVuSans-57" d="M 213 4666 
L 850 4666 
L 1831 722 
L 2809 4666 
L 3519 4666 
L 4500 722 
L 5478 4666 
L 6119 4666 
L 4947 0 
L 4153 0 
L 3169 4050 
L 2175 0 
L 1381 0 
L 213 4666 
z
" transform="scale(0.015625)"/>
      </defs>
      <use xlink:href="#DejaVuSans-45"/>
      <use xlink:href="#DejaVuSans-78" x="63.183594"/>
      <use xlink:href="#DejaVuSans-65" x="119.238281"/>
      <use xlink:href="#DejaVuSans-72" x="180.761719"/>
      <use xlink:href="#DejaVuSans-67" x="220.125"/>
      <use xlink:href="#DejaVuSans-69" x="283.601562"/>
      <use xlink:href="#DejaVuSans-65" x="311.384766"/>
      <use xlink:href="#DejaVuSans-76" x="372.908203"/>
      <use xlink:href="#DejaVuSans-65" x="432.087891"/>
      <use xlink:href="#DejaVuSans-72" x="493.611328"/>
      <use xlink:href="#DejaVuSans-6e" x="532.974609"/>
      <use xlink:href="#DejaVuSans-69" x="596.353516"/>
      <use xlink:href="#DejaVuSans-63" x="624.136719"/>
      <use xlink:href="#DejaVuSans-68" x="679.117188"/>
      <use xlink:href="#DejaVuSans-74" x="742.496094"/>
      <use xlink:href="#DejaVuSans-75" x="781.705078"/>
      <use xlink:href="#DejaVuSans-6e" x="845.083984"/>
      <use xlink:href="#DejaVuSans-67" x="908.462891"/>
      <use xlink:href="#DejaVuSans-20" x="971.939453"/>
      <use xlink:href="#DejaVuSans-69" x="1003.726562"/>
      <use xlink:href="#DejaVuSans-6e" x="1031.509766"/>
      <use xlink:href="#DejaVuSans-20" x="1094.888672"/>
      <use xlink:href="#DejaVuSans-4d" x="1126.675781"/>
      <use xlink:href="#DejaVuSans-57" x="1212.955078"/>
     </g>
    </g>
   </g>
   <g id="patch_183">
    <path d="M 57.6 307.584 
L 57.6 41.472 
" style="fill: none; stroke: #000000; stroke-width: 0.8; stroke-linejoin: miter; stroke-linecap: square"/>
   </g>
   <g id="patch_184">
    <path d="M 414.72 307.584 
L 414.72 41.472 
" style="fill: none; stroke: #000000; stroke-width: 0.8; stroke-linejoin: miter; stroke-linecap: square"/>
   </g>
   <g id="patch_185">
    <path d="M 57.6 307.584 
L 414.72 307.584 
" style="fill: none; stroke: #000000; stroke-width: 0.8; stroke-linejoin: miter; stroke-linecap: square"/>
   </g>
   <g id="patch_186">
    <path d="M 57.6 41.472 
L 414.72 41.472 
" style="fill: none; stroke: #000000; stroke-width: 0.8; stroke-linejoin: miter; stroke-linecap: square"/>
   </g>
   <g id="legend_1">
    <g id="patch_187">
     <path d="M 108.475313 298.584 
L 402.12 298.584 
Q 405.72 298.584 405.72 294.984 
L 405.72 58.998375 
Q 405.72 55.398375 402.12 55.398375 
L 108.475313 55.398375 
Q 104.875313 55.398375 104.875313 58.998375 
L 104.875313 294.984 
Q 104.875313 298.584 108.475313 298.584 
z
" style="fill: #ffffff; opacity: 0.8; stroke: #cccccc; stroke-linejoin: miter"/>
    </g>
    <g id="patch_188">
     <path d="M 112.075313 76.275563 
L 148.075313 76.275563 
L 148.075313 63.675563 
L 112.075313 63.675563 
z
" style="fill: #1f77b4"/>
    </g>
    <g id="text_11">
     <!-- Gas cooler -->
     <g transform="translate(162.475313 76.275563) scale(0.18 -0.18)">
      <defs>
       <path id="DejaVuSans-47" d="M 3809 666 
L 3809 1919 
L 2778 1919 
L 2778 2438 
L 4434 2438 
L 4434 434 
Q 4069 175 3628 42 
Q 3188 -91 2688 -91 
Q 1594 -91 976 548 
Q 359 1188 359 2328 
Q 359 3472 976 4111 
Q 1594 4750 2688 4750 
Q 3144 4750 3555 4637 
Q 3966 4525 4313 4306 
L 4313 3634 
Q 3963 3931 3569 4081 
Q 3175 4231 2741 4231 
Q 1884 4231 1454 3753 
Q 1025 3275 1025 2328 
Q 1025 1384 1454 906 
Q 1884 428 2741 428 
Q 3075 428 3337 486 
Q 3600 544 3809 666 
z
" transform="scale(0.015625)"/>
       <path id="DejaVuSans-6c" d="M 603 4863 
L 1178 4863 
L 1178 0 
L 603 0 
L 603 4863 
z
" transform="scale(0.015625)"/>
      </defs>
      <use xlink:href="#DejaVuSans-47"/>
      <use xlink:href="#DejaVuSans-61" x="77.490234"/>
      <use xlink:href="#DejaVuSans-73" x="138.769531"/>
      <use xlink:href="#DejaVuSans-20" x="190.869141"/>
      <use xlink:href="#DejaVuSans-63" x="222.65625"/>
      <use xlink:href="#DejaVuSans-6f" x="277.636719"/>
      <use xlink:href="#DejaVuSans-6f" x="338.818359"/>
      <use xlink:href="#DejaVuSans-6c" x="400"/>
      <use xlink:href="#DejaVuSans-65" x="427.783203"/>
      <use xlink:href="#DejaVuSans-72" x="489.306641"/>
     </g>
    </g>
    <g id="patch_189">
     <path d="M 112.075313 102.696188 
L 148.075313 102.696188 
L 148.075313 90.096188 
L 112.075313 90.096188 
z
" style="fill: #ff7f0e"/>
    </g>
    <g id="text_12">
     <!-- Evaporator -->
     <g transform="translate(162.475313 102.696188) scale(0.18 -0.18)">
      <defs>
       <path id="DejaVuSans-70" d="M 1159 525 
L 1159 -1331 
L 581 -1331 
L 581 3500 
L 1159 3500 
L 1159 2969 
Q 1341 3281 1617 3432 
Q 1894 3584 2278 3584 
Q 2916 3584 3314 3078 
Q 3713 2572 3713 1747 
Q 3713 922 3314 415 
Q 2916 -91 2278 -91 
Q 1894 -91 1617 61 
Q 1341 213 1159 525 
z
M 3116 1747 
Q 3116 2381 2855 2742 
Q 2594 3103 2138 3103 
Q 1681 3103 1420 2742 
Q 1159 2381 1159 1747 
Q 1159 1113 1420 752 
Q 1681 391 2138 391 
Q 2594 391 2855 752 
Q 3116 1113 3116 1747 
z
" transform="scale(0.015625)"/>
      </defs>
      <use xlink:href="#DejaVuSans-45"/>
      <use xlink:href="#DejaVuSans-76" x="63.183594"/>
      <use xlink:href="#DejaVuSans-61" x="122.363281"/>
      <use xlink:href="#DejaVuSans-70" x="183.642578"/>
      <use xlink:href="#DejaVuSans-6f" x="247.119141"/>
      <use xlink:href="#DejaVuSans-72" x="308.300781"/>
      <use xlink:href="#DejaVuSans-61" x="349.414062"/>
      <use xlink:href="#DejaVuSans-74" x="410.693359"/>
      <use xlink:href="#DejaVuSans-6f" x="449.902344"/>
      <use xlink:href="#DejaVuSans-72" x="511.083984"/>
     </g>
    </g>
    <g id="patch_190">
     <path d="M 112.075313 129.116813 
L 148.075313 129.116813 
L 148.075313 116.516813 
L 112.075313 116.516813 
z
" style="fill: #2ca02c"/>
    </g>
    <g id="text_13">
     <!-- Valve 1 -->
     <g transform="translate(162.475313 129.116813) scale(0.18 -0.18)">
      <defs>
       <path id="DejaVuSans-56" d="M 1831 0 
L 50 4666 
L 709 4666 
L 2188 738 
L 3669 4666 
L 4325 4666 
L 2547 0 
L 1831 0 
z
" transform="scale(0.015625)"/>
      </defs>
      <use xlink:href="#DejaVuSans-56"/>
      <use xlink:href="#DejaVuSans-61" x="60.658203"/>
      <use xlink:href="#DejaVuSans-6c" x="121.9375"/>
      <use xlink:href="#DejaVuSans-76" x="149.720703"/>
      <use xlink:href="#DejaVuSans-65" x="208.900391"/>
      <use xlink:href="#DejaVuSans-20" x="270.423828"/>
      <use xlink:href="#DejaVuSans-31" x="302.210938"/>
     </g>
    </g>
    <g id="patch_191">
     <path d="M 112.075313 155.537438 
L 148.075313 155.537438 
L 148.075313 142.937438 
L 112.075313 142.937438 
z
" style="fill: #d62728"/>
    </g>
    <g id="text_14">
     <!-- Valve 2 -->
     <g transform="translate(162.475313 155.537438) scale(0.18 -0.18)">
      <use xlink:href="#DejaVuSans-56"/>
      <use xlink:href="#DejaVuSans-61" x="60.658203"/>
      <use xlink:href="#DejaVuSans-6c" x="121.9375"/>
      <use xlink:href="#DejaVuSans-76" x="149.720703"/>
      <use xlink:href="#DejaVuSans-65" x="208.900391"/>
      <use xlink:href="#DejaVuSans-20" x="270.423828"/>
      <use xlink:href="#DejaVuSans-32" x="302.210938"/>
     </g>
    </g>
    <g id="patch_192">
     <path d="M 112.075313 181.958063 
L 148.075313 181.958063 
L 148.075313 169.358063 
L 112.075313 169.358063 
z
" style="fill: #9467bd"/>
    </g>
    <g id="text_15">
     <!-- Compressor 1 -->
     <g transform="translate(162.475313 181.958063) scale(0.18 -0.18)">
      <defs>
       <path id="DejaVuSans-43" d="M 4122 4306 
L 4122 3641 
Q 3803 3938 3442 4084 
Q 3081 4231 2675 4231 
Q 1875 4231 1450 3742 
Q 1025 3253 1025 2328 
Q 1025 1406 1450 917 
Q 1875 428 2675 428 
Q 3081 428 3442 575 
Q 3803 722 4122 1019 
L 4122 359 
Q 3791 134 3420 21 
Q 3050 -91 2638 -91 
Q 1578 -91 968 557 
Q 359 1206 359 2328 
Q 359 3453 968 4101 
Q 1578 4750 2638 4750 
Q 3056 4750 3426 4639 
Q 3797 4528 4122 4306 
z
" transform="scale(0.015625)"/>
       <path id="DejaVuSans-6d" d="M 3328 2828 
Q 3544 3216 3844 3400 
Q 4144 3584 4550 3584 
Q 5097 3584 5394 3201 
Q 5691 2819 5691 2113 
L 5691 0 
L 5113 0 
L 5113 2094 
Q 5113 2597 4934 2840 
Q 4756 3084 4391 3084 
Q 3944 3084 3684 2787 
Q 3425 2491 3425 1978 
L 3425 0 
L 2847 0 
L 2847 2094 
Q 2847 2600 2669 2842 
Q 2491 3084 2119 3084 
Q 1678 3084 1418 2786 
Q 1159 2488 1159 1978 
L 1159 0 
L 581 0 
L 581 3500 
L 1159 3500 
L 1159 2956 
Q 1356 3278 1631 3431 
Q 1906 3584 2284 3584 
Q 2666 3584 2933 3390 
Q 3200 3197 3328 2828 
z
" transform="scale(0.015625)"/>
      </defs>
      <use xlink:href="#DejaVuSans-43"/>
      <use xlink:href="#DejaVuSans-6f" x="69.824219"/>
      <use xlink:href="#DejaVuSans-6d" x="131.005859"/>
      <use xlink:href="#DejaVuSans-70" x="228.417969"/>
      <use xlink:href="#DejaVuSans-72" x="291.894531"/>
      <use xlink:href="#DejaVuSans-65" x="330.757812"/>
      <use xlink:href="#DejaVuSans-73" x="392.28125"/>
      <use xlink:href="#DejaVuSans-73" x="444.380859"/>
      <use xlink:href="#DejaVuSans-6f" x="496.480469"/>
      <use xlink:href="#DejaVuSans-72" x="557.662109"/>
      <use xlink:href="#DejaVuSans-20" x="598.775391"/>
      <use xlink:href="#DejaVuSans-31" x="630.5625"/>
     </g>
    </g>
    <g id="patch_193">
     <path d="M 112.075313 208.378688 
L 148.075313 208.378688 
L 148.075313 195.778688 
L 112.075313 195.778688 
z
" style="fill: #8c564b"/>
    </g>
    <g id="text_16">
     <!-- Compressor 2 -->
     <g transform="translate(162.475313 208.378688) scale(0.18 -0.18)">
      <use xlink:href="#DejaVuSans-43"/>
      <use xlink:href="#DejaVuSans-6f" x="69.824219"/>
      <use xlink:href="#DejaVuSans-6d" x="131.005859"/>
      <use xlink:href="#DejaVuSans-70" x="228.417969"/>
      <use xlink:href="#DejaVuSans-72" x="291.894531"/>
      <use xlink:href="#DejaVuSans-65" x="330.757812"/>
      <use xlink:href="#DejaVuSans-73" x="392.28125"/>
      <use xlink:href="#DejaVuSans-73" x="444.380859"/>
      <use xlink:href="#DejaVuSans-6f" x="496.480469"/>
      <use xlink:href="#DejaVuSans-72" x="557.662109"/>
      <use xlink:href="#DejaVuSans-20" x="598.775391"/>
      <use xlink:href="#DejaVuSans-32" x="630.5625"/>
     </g>
    </g>
    <g id="patch_194">
     <path d="M 112.075313 234.799313 
L 148.075313 234.799313 
L 148.075313 222.199313 
L 112.075313 222.199313 
z
" style="fill: #e377c2"/>
    </g>
    <g id="text_17">
     <!-- Internal Heat Exchanger 1 -->
     <g transform="translate(162.475313 234.799313) scale(0.18 -0.18)">
      <defs>
       <path id="DejaVuSans-49" d="M 628 4666 
L 1259 4666 
L 1259 0 
L 628 0 
L 628 4666 
z
" transform="scale(0.015625)"/>
       <path id="DejaVuSans-48" d="M 628 4666 
L 1259 4666 
L 1259 2753 
L 3553 2753 
L 3553 4666 
L 4184 4666 
L 4184 0 
L 3553 0 
L 3553 2222 
L 1259 2222 
L 1259 0 
L 628 0 
L 628 4666 
z
" transform="scale(0.015625)"/>
      </defs>
      <use xlink:href="#DejaVuSans-49"/>
      <use xlink:href="#DejaVuSans-6e" x="29.492188"/>
      <use xlink:href="#DejaVuSans-74" x="92.871094"/>
      <use xlink:href="#DejaVuSans-65" x="132.080078"/>
      <use xlink:href="#DejaVuSans-72" x="193.603516"/>
      <use xlink:href="#DejaVuSans-6e" x="232.966797"/>
      <use xlink:href="#DejaVuSans-61" x="296.345703"/>
      <use xlink:href="#DejaVuSans-6c" x="357.625"/>
      <use xlink:href="#DejaVuSans-20" x="385.408203"/>
      <use xlink:href="#DejaVuSans-48" x="417.195312"/>
      <use xlink:href="#DejaVuSans-65" x="492.390625"/>
      <use xlink:href="#DejaVuSans-61" x="553.914062"/>
      <use xlink:href="#DejaVuSans-74" x="615.193359"/>
      <use xlink:href="#DejaVuSans-20" x="654.402344"/>
      <use xlink:href="#DejaVuSans-45" x="686.189453"/>
      <use xlink:href="#DejaVuSans-78" x="749.373047"/>
      <use xlink:href="#DejaVuSans-63" x="806.802734"/>
      <use xlink:href="#DejaVuSans-68" x="861.783203"/>
      <use xlink:href="#DejaVuSans-61" x="925.162109"/>
      <use xlink:href="#DejaVuSans-6e" x="986.441406"/>
      <use xlink:href="#DejaVuSans-67" x="1049.820312"/>
      <use xlink:href="#DejaVuSans-65" x="1113.296875"/>
      <use xlink:href="#DejaVuSans-72" x="1174.820312"/>
      <use xlink:href="#DejaVuSans-20" x="1215.933594"/>
      <use xlink:href="#DejaVuSans-31" x="1247.720703"/>
     </g>
    </g>
    <g id="patch_195">
     <path d="M 112.075313 261.219938 
L 148.075313 261.219938 
L 148.075313 248.619938 
L 112.075313 248.619938 
z
" style="fill: #7f7f7f"/>
    </g>
    <g id="text_18">
     <!-- Internal Heat Exchanger 2 -->
     <g transform="translate(162.475313 261.219938) scale(0.18 -0.18)">
      <use xlink:href="#DejaVuSans-49"/>
      <use xlink:href="#DejaVuSans-6e" x="29.492188"/>
      <use xlink:href="#DejaVuSans-74" x="92.871094"/>
      <use xlink:href="#DejaVuSans-65" x="132.080078"/>
      <use xlink:href="#DejaVuSans-72" x="193.603516"/>
      <use xlink:href="#DejaVuSans-6e" x="232.966797"/>
      <use xlink:href="#DejaVuSans-61" x="296.345703"/>
      <use xlink:href="#DejaVuSans-6c" x="357.625"/>
      <use xlink:href="#DejaVuSans-20" x="385.408203"/>
      <use xlink:href="#DejaVuSans-48" x="417.195312"/>
      <use xlink:href="#DejaVuSans-65" x="492.390625"/>
      <use xlink:href="#DejaVuSans-61" x="553.914062"/>
      <use xlink:href="#DejaVuSans-74" x="615.193359"/>
      <use xlink:href="#DejaVuSans-20" x="654.402344"/>
      <use xlink:href="#DejaVuSans-45" x="686.189453"/>
      <use xlink:href="#DejaVuSans-78" x="749.373047"/>
      <use xlink:href="#DejaVuSans-63" x="806.802734"/>
      <use xlink:href="#DejaVuSans-68" x="861.783203"/>
      <use xlink:href="#DejaVuSans-61" x="925.162109"/>
      <use xlink:href="#DejaVuSans-6e" x="986.441406"/>
      <use xlink:href="#DejaVuSans-67" x="1049.820312"/>
      <use xlink:href="#DejaVuSans-65" x="1113.296875"/>
      <use xlink:href="#DejaVuSans-72" x="1174.820312"/>
      <use xlink:href="#DejaVuSans-20" x="1215.933594"/>
      <use xlink:href="#DejaVuSans-32" x="1247.720703"/>
     </g>
    </g>
    <g id="patch_196">
     <path d="M 112.075313 287.640562 
L 148.075313 287.640562 
L 148.075313 275.040562 
L 112.075313 275.040562 
z
" style="fill: #bcbd22"/>
    </g>
    <g id="text_19">
     <!-- Merge -->
     <g transform="translate(162.475313 287.640562) scale(0.18 -0.18)">
      <use xlink:href="#DejaVuSans-4d"/>
      <use xlink:href="#DejaVuSans-65" x="86.279297"/>
      <use xlink:href="#DejaVuSans-72" x="147.802734"/>
      <use xlink:href="#DejaVuSans-67" x="187.166016"/>
      <use xlink:href="#DejaVuSans-65" x="250.642578"/>
     </g>
    </g>
   </g>
  </g>
 </g>
 <defs>
  <clipPath id="pe358df8e92">
   <rect x="57.6" y="41.472" width="357.12" height="266.112"/>
  </clipPath>
 </defs>
</svg>
