<?xml version="1.0" encoding="utf-8" standalone="no"?>
<!DOCTYPE svg PUBLIC "-//W3C//DTD SVG 1.1//EN"
  "http://www.w3.org/Graphics/SVG/1.1/DTD/svg11.dtd">
<svg xmlns:xlink="http://www.w3.org/1999/xlink" width="1382.4pt" height="730.8pt" viewBox="0 0 1382.4 730.8" xmlns="http://www.w3.org/2000/svg" version="1.1">
 <metadata>
  <rdf:RDF xmlns:dc="http://purl.org/dc/elements/1.1/" xmlns:cc="http://creativecommons.org/ns#" xmlns:rdf="http://www.w3.org/1999/02/22-rdf-syntax-ns#">
   <cc:Work>
    <dc:type rdf:resource="http://purl.org/dc/dcmitype/StillImage"/>
    <dc:date>2023-03-01T20:12:33.971557</dc:date>
    <dc:format>image/svg+xml</dc:format>
    <dc:creator>
     <cc:Agent>
      <dc:title>Matplotlib v3.6.1, https://matplotlib.org/</dc:title>
     </cc:Agent>
    </dc:creator>
   </cc:Work>
  </rdf:RDF>
 </metadata>
 <defs>
  <style type="text/css">*{stroke-linejoin: round; stroke-linecap: butt}</style>
 </defs>
 <g id="figure_1">
  <g id="patch_1">
   <path d="M 0 730.8 
L 1382.4 730.8 
L 1382.4 0 
L 0 0 
z
" style="fill: #ffffff"/>
  </g>
  <g id="axes_1">
   <g id="patch_2">
    <path d="M 172.8 650.412 
L 1244.16 650.412 
L 1244.16 87.696 
L 172.8 87.696 
z
" style="fill: #ffffff"/>
   </g>
   <g id="patch_3">
    <path d="M 221.498182 650.412 
L 227.032066 650.412 
L 227.032066 585.823461 
L 221.498182 585.823461 
z
" clip-path="url(#p591f8c703b)" style="fill: #1f77b4"/>
   </g>
   <g id="patch_4">
    <path d="M 272.468169 650.412 
L 278.002053 650.412 
L 278.002053 591.101085 
L 272.468169 591.101085 
z
" clip-path="url(#p591f8c703b)" style="fill: #1f77b4"/>
   </g>
   <g id="patch_5">
    <path d="M 323.438156 650.412 
L 328.97204 650.412 
L 328.97204 594.303374 
L 323.438156 594.303374 
z
" clip-path="url(#p591f8c703b)" style="fill: #1f77b4"/>
   </g>
   <g id="patch_6">
    <path d="M 374.408143 650.412 
L 379.942027 650.412 
L 379.942027 595.551766 
L 374.408143 595.551766 
z
" clip-path="url(#p591f8c703b)" style="fill: #1f77b4"/>
   </g>
   <g id="patch_7">
    <path d="M 425.37813 650.412 
L 430.912014 650.412 
L 430.912014 595.860931 
L 425.37813 595.860931 
z
" clip-path="url(#p591f8c703b)" style="fill: #1f77b4"/>
   </g>
   <g id="patch_8">
    <path d="M 476.348117 650.412 
L 481.882001 650.412 
L 481.882001 595.760098 
L 476.348117 595.760098 
z
" clip-path="url(#p591f8c703b)" style="fill: #1f77b4"/>
   </g>
   <g id="patch_9">
    <path d="M 527.318104 650.412 
L 532.851988 650.412 
L 532.851988 595.488343 
L 527.318104 595.488343 
z
" clip-path="url(#p591f8c703b)" style="fill: #1f77b4"/>
   </g>
   <g id="patch_10">
    <path d="M 578.28809 650.412 
L 583.821975 650.412 
L 583.821975 595.157576 
L 578.28809 595.157576 
z
" clip-path="url(#p591f8c703b)" style="fill: #1f77b4"/>
   </g>
   <g id="patch_11">
    <path d="M 629.258077 650.412 
L 634.791962 650.412 
L 634.791962 594.822232 
L 629.258077 594.822232 
z
" clip-path="url(#p591f8c703b)" style="fill: #1f77b4"/>
   </g>
   <g id="patch_12">
    <path d="M 680.228064 650.412 
L 685.761949 650.412 
L 685.761949 594.508937 
L 680.228064 594.508937 
z
" clip-path="url(#p591f8c703b)" style="fill: #1f77b4"/>
   </g>
   <g id="patch_13">
    <path d="M 731.198051 650.412 
L 736.731936 650.412 
L 736.731936 594.230072 
L 731.198051 594.230072 
z
" clip-path="url(#p591f8c703b)" style="fill: #1f77b4"/>
   </g>
   <g id="patch_14">
    <path d="M 782.168038 650.412 
L 787.701923 650.412 
L 787.701923 593.990443 
L 782.168038 593.990443 
z
" clip-path="url(#p591f8c703b)" style="fill: #1f77b4"/>
   </g>
   <g id="patch_15">
    <path d="M 833.138025 650.412 
L 838.67191 650.412 
L 838.67191 593.790754 
L 833.138025 593.790754 
z
" clip-path="url(#p591f8c703b)" style="fill: #1f77b4"/>
   </g>
   <g id="patch_16">
    <path d="M 884.108012 650.412 
L 889.641896 650.412 
L 889.641896 593.629509 
L 884.108012 593.629509 
z
" clip-path="url(#p591f8c703b)" style="fill: #1f77b4"/>
   </g>
   <g id="patch_17">
    <path d="M 935.077999 650.412 
L 940.611883 650.412 
L 940.611883 593.504081 
L 935.077999 593.504081 
z
" clip-path="url(#p591f8c703b)" style="fill: #1f77b4"/>
   </g>
   <g id="patch_18">
    <path d="M 986.047986 650.412 
L 991.58187 650.412 
L 991.58187 593.411329 
L 986.047986 593.411329 
z
" clip-path="url(#p591f8c703b)" style="fill: #1f77b4"/>
   </g>
   <g id="patch_19">
    <path d="M 1037.017973 650.412 
L 1042.551857 650.412 
L 1042.551857 593.34796 
L 1037.017973 593.34796 
z
" clip-path="url(#p591f8c703b)" style="fill: #1f77b4"/>
   </g>
   <g id="patch_20">
    <path d="M 1087.98796 650.412 
L 1093.521844 650.412 
L 1093.521844 593.310729 
L 1087.98796 593.310729 
z
" clip-path="url(#p591f8c703b)" style="fill: #1f77b4"/>
   </g>
   <g id="patch_21">
    <path d="M 1138.957947 650.412 
L 1144.491831 650.412 
L 1144.491831 593.296559 
L 1138.957947 593.296559 
z
" clip-path="url(#p591f8c703b)" style="fill: #1f77b4"/>
   </g>
   <g id="patch_22">
    <path d="M 1189.927934 650.412 
L 1195.461818 650.412 
L 1195.461818 593.3026 
L 1189.927934 593.3026 
z
" clip-path="url(#p591f8c703b)" style="fill: #1f77b4"/>
   </g>
   <g id="patch_23">
    <path d="M 221.498182 585.823461 
L 227.032066 585.823461 
L 227.032066 571.600195 
L 221.498182 571.600195 
z
" clip-path="url(#p591f8c703b)" style="fill: #ff7f0e"/>
   </g>
   <g id="patch_24">
    <path d="M 272.468169 591.101085 
L 278.002053 591.101085 
L 278.002053 576.089934 
L 272.468169 576.089934 
z
" clip-path="url(#p591f8c703b)" style="fill: #ff7f0e"/>
   </g>
   <g id="patch_25">
    <path d="M 323.438156 594.303374 
L 328.97204 594.303374 
L 328.97204 579.166098 
L 323.438156 579.166098 
z
" clip-path="url(#p591f8c703b)" style="fill: #ff7f0e"/>
   </g>
   <g id="patch_26">
    <path d="M 374.408143 595.551766 
L 379.942027 595.551766 
L 379.942027 580.433737 
L 374.408143 580.433737 
z
" clip-path="url(#p591f8c703b)" style="fill: #ff7f0e"/>
   </g>
   <g id="patch_27">
    <path d="M 425.37813 595.860931 
L 430.912014 595.860931 
L 430.912014 580.803479 
L 425.37813 580.803479 
z
" clip-path="url(#p591f8c703b)" style="fill: #ff7f0e"/>
   </g>
   <g id="patch_28">
    <path d="M 476.348117 595.760098 
L 481.882001 595.760098 
L 481.882001 580.776543 
L 476.348117 580.776543 
z
" clip-path="url(#p591f8c703b)" style="fill: #ff7f0e"/>
   </g>
   <g id="patch_29">
    <path d="M 527.318104 595.488343 
L 532.851988 595.488343 
L 532.851988 580.582546 
L 527.318104 580.582546 
z
" clip-path="url(#p591f8c703b)" style="fill: #ff7f0e"/>
   </g>
   <g id="patch_30">
    <path d="M 578.28809 595.157576 
L 583.821975 595.157576 
L 583.821975 580.329668 
L 578.28809 580.329668 
z
" clip-path="url(#p591f8c703b)" style="fill: #ff7f0e"/>
   </g>
   <g id="patch_31">
    <path d="M 629.258077 594.822232 
L 634.791962 594.822232 
L 634.791962 580.070738 
L 629.258077 580.070738 
z
" clip-path="url(#p591f8c703b)" style="fill: #ff7f0e"/>
   </g>
   <g id="patch_32">
    <path d="M 680.228064 594.508937 
L 685.761949 594.508937 
L 685.761949 579.831684 
L 680.228064 579.831684 
z
" clip-path="url(#p591f8c703b)" style="fill: #ff7f0e"/>
   </g>
   <g id="patch_33">
    <path d="M 731.198051 594.230072 
L 736.731936 594.230072 
L 736.731936 579.624614 
L 731.198051 579.624614 
z
" clip-path="url(#p591f8c703b)" style="fill: #ff7f0e"/>
   </g>
   <g id="patch_34">
    <path d="M 782.168038 593.990443 
L 787.701923 593.990443 
L 787.701923 579.454266 
L 782.168038 579.454266 
z
" clip-path="url(#p591f8c703b)" style="fill: #ff7f0e"/>
   </g>
   <g id="patch_35">
    <path d="M 833.138025 593.790754 
L 838.67191 593.790754 
L 838.67191 579.321387 
L 833.138025 579.321387 
z
" clip-path="url(#p591f8c703b)" style="fill: #ff7f0e"/>
   </g>
   <g id="patch_36">
    <path d="M 884.108012 593.629509 
L 889.641896 593.629509 
L 889.641896 579.224572 
L 884.108012 579.224572 
z
" clip-path="url(#p591f8c703b)" style="fill: #ff7f0e"/>
   </g>
   <g id="patch_37">
    <path d="M 935.077999 593.504081 
L 940.611883 593.504081 
L 940.611883 579.161315 
L 935.077999 579.161315 
z
" clip-path="url(#p591f8c703b)" style="fill: #ff7f0e"/>
   </g>
   <g id="patch_38">
    <path d="M 986.047986 593.411329 
L 991.58187 593.411329 
L 991.58187 579.128604 
L 986.047986 579.128604 
z
" clip-path="url(#p591f8c703b)" style="fill: #ff7f0e"/>
   </g>
   <g id="patch_39">
    <path d="M 1037.017973 593.34796 
L 1042.551857 593.34796 
L 1042.551857 579.123277 
L 1037.017973 579.123277 
z
" clip-path="url(#p591f8c703b)" style="fill: #ff7f0e"/>
   </g>
   <g id="patch_40">
    <path d="M 1087.98796 593.310729 
L 1093.521844 593.310729 
L 1093.521844 579.142219 
L 1087.98796 579.142219 
z
" clip-path="url(#p591f8c703b)" style="fill: #ff7f0e"/>
   </g>
   <g id="patch_41">
    <path d="M 1138.957947 593.296559 
L 1144.491831 593.296559 
L 1144.491831 579.182473 
L 1138.957947 579.182473 
z
" clip-path="url(#p591f8c703b)" style="fill: #ff7f0e"/>
   </g>
   <g id="patch_42">
    <path d="M 1189.927934 593.3026 
L 1195.461818 593.3026 
L 1195.461818 579.241304 
L 1189.927934 579.241304 
z
" clip-path="url(#p591f8c703b)" style="fill: #ff7f0e"/>
   </g>
   <g id="patch_43">
    <path d="M 221.498182 571.600195 
L 227.032066 571.600195 
L 227.032066 502.648392 
L 221.498182 502.648392 
z
" clip-path="url(#p591f8c703b)" style="fill: #2ca02c"/>
   </g>
   <g id="patch_44">
    <path d="M 272.468169 576.089934 
L 278.002053 576.089934 
L 278.002053 503.318608 
L 272.468169 503.318608 
z
" clip-path="url(#p591f8c703b)" style="fill: #2ca02c"/>
   </g>
   <g id="patch_45">
    <path d="M 323.438156 579.166098 
L 328.97204 579.166098 
L 328.97204 505.78334 
L 323.438156 505.78334 
z
" clip-path="url(#p591f8c703b)" style="fill: #2ca02c"/>
   </g>
   <g id="patch_46">
    <path d="M 374.408143 580.433737 
L 379.942027 580.433737 
L 379.942027 507.144285 
L 374.408143 507.144285 
z
" clip-path="url(#p591f8c703b)" style="fill: #2ca02c"/>
   </g>
   <g id="patch_47">
    <path d="M 425.37813 580.803479 
L 430.912014 580.803479 
L 430.912014 507.8077 
L 425.37813 507.8077 
z
" clip-path="url(#p591f8c703b)" style="fill: #2ca02c"/>
   </g>
   <g id="patch_48">
    <path d="M 476.348117 580.776543 
L 481.882001 580.776543 
L 481.882001 508.138999 
L 476.348117 508.138999 
z
" clip-path="url(#p591f8c703b)" style="fill: #2ca02c"/>
   </g>
   <g id="patch_49">
    <path d="M 527.318104 580.582546 
L 532.851988 580.582546 
L 532.851988 508.321961 
L 527.318104 508.321961 
z
" clip-path="url(#p591f8c703b)" style="fill: #2ca02c"/>
   </g>
   <g id="patch_50">
    <path d="M 578.28809 580.329668 
L 583.821975 580.329668 
L 583.821975 508.446669 
L 578.28809 508.446669 
z
" clip-path="url(#p591f8c703b)" style="fill: #2ca02c"/>
   </g>
   <g id="patch_51">
    <path d="M 629.258077 580.070738 
L 634.791962 580.070738 
L 634.791962 508.558178 
L 629.258077 508.558178 
z
" clip-path="url(#p591f8c703b)" style="fill: #2ca02c"/>
   </g>
   <g id="patch_52">
    <path d="M 680.228064 579.831684 
L 685.761949 579.831684 
L 685.761949 508.679035 
L 680.228064 508.679035 
z
" clip-path="url(#p591f8c703b)" style="fill: #2ca02c"/>
   </g>
   <g id="patch_53">
    <path d="M 731.198051 579.624614 
L 736.731936 579.624614 
L 736.731936 508.820013 
L 731.198051 508.820013 
z
" clip-path="url(#p591f8c703b)" style="fill: #2ca02c"/>
   </g>
   <g id="patch_54">
    <path d="M 782.168038 579.454266 
L 787.701923 579.454266 
L 787.701923 508.985531 
L 782.168038 508.985531 
z
" clip-path="url(#p591f8c703b)" style="fill: #2ca02c"/>
   </g>
   <g id="patch_55">
    <path d="M 833.138025 579.321387 
L 838.67191 579.321387 
L 838.67191 509.176529 
L 833.138025 509.176529 
z
" clip-path="url(#p591f8c703b)" style="fill: #2ca02c"/>
   </g>
   <g id="patch_56">
    <path d="M 884.108012 579.224572 
L 889.641896 579.224572 
L 889.641896 509.39206 
L 884.108012 509.39206 
z
" clip-path="url(#p591f8c703b)" style="fill: #2ca02c"/>
   </g>
   <g id="patch_57">
    <path d="M 935.077999 579.161315 
L 940.611883 579.161315 
L 940.611883 509.630195 
L 935.077999 509.630195 
z
" clip-path="url(#p591f8c703b)" style="fill: #2ca02c"/>
   </g>
   <g id="patch_58">
    <path d="M 986.047986 579.128604 
L 991.58187 579.128604 
L 991.58187 509.888554 
L 986.047986 509.888554 
z
" clip-path="url(#p591f8c703b)" style="fill: #2ca02c"/>
   </g>
   <g id="patch_59">
    <path d="M 1037.017973 579.123277 
L 1042.551857 579.123277 
L 1042.551857 510.164608 
L 1037.017973 510.164608 
z
" clip-path="url(#p591f8c703b)" style="fill: #2ca02c"/>
   </g>
   <g id="patch_60">
    <path d="M 1087.98796 579.142219 
L 1093.521844 579.142219 
L 1093.521844 510.455863 
L 1087.98796 510.455863 
z
" clip-path="url(#p591f8c703b)" style="fill: #2ca02c"/>
   </g>
   <g id="patch_61">
    <path d="M 1138.957947 579.182473 
L 1144.491831 579.182473 
L 1144.491831 510.759954 
L 1138.957947 510.759954 
z
" clip-path="url(#p591f8c703b)" style="fill: #2ca02c"/>
   </g>
   <g id="patch_62">
    <path d="M 1189.927934 579.241304 
L 1195.461818 579.241304 
L 1195.461818 511.074702 
L 1189.927934 511.074702 
z
" clip-path="url(#p591f8c703b)" style="fill: #2ca02c"/>
   </g>
   <g id="patch_63">
    <path d="M 221.498182 502.648392 
L 227.032066 502.648392 
L 227.032066 398.652841 
L 221.498182 398.652841 
z
" clip-path="url(#p591f8c703b)" style="fill: #d62728"/>
   </g>
   <g id="patch_64">
    <path d="M 272.468169 503.318608 
L 278.002053 503.318608 
L 278.002053 445.278973 
L 272.468169 445.278973 
z
" clip-path="url(#p591f8c703b)" style="fill: #d62728"/>
   </g>
   <g id="patch_65">
    <path d="M 323.438156 505.78334 
L 328.97204 505.78334 
L 328.97204 458.178484 
L 323.438156 458.178484 
z
" clip-path="url(#p591f8c703b)" style="fill: #d62728"/>
   </g>
   <g id="patch_66">
    <path d="M 374.408143 507.144285 
L 379.942027 507.144285 
L 379.942027 461.95566 
L 374.408143 461.95566 
z
" clip-path="url(#p591f8c703b)" style="fill: #d62728"/>
   </g>
   <g id="patch_67">
    <path d="M 425.37813 507.8077 
L 430.912014 507.8077 
L 430.912014 462.560874 
L 425.37813 462.560874 
z
" clip-path="url(#p591f8c703b)" style="fill: #d62728"/>
   </g>
   <g id="patch_68">
    <path d="M 476.348117 508.138999 
L 481.882001 508.138999 
L 481.882001 461.864381 
L 476.348117 461.864381 
z
" clip-path="url(#p591f8c703b)" style="fill: #d62728"/>
   </g>
   <g id="patch_69">
    <path d="M 527.318104 508.321961 
L 532.851988 508.321961 
L 532.851988 460.573162 
L 527.318104 460.573162 
z
" clip-path="url(#p591f8c703b)" style="fill: #d62728"/>
   </g>
   <g id="patch_70">
    <path d="M 578.28809 508.446669 
L 583.821975 508.446669 
L 583.821975 458.997124 
L 578.28809 458.997124 
z
" clip-path="url(#p591f8c703b)" style="fill: #d62728"/>
   </g>
   <g id="patch_71">
    <path d="M 629.258077 508.558178 
L 634.791962 508.558178 
L 634.791962 457.286928 
L 629.258077 457.286928 
z
" clip-path="url(#p591f8c703b)" style="fill: #d62728"/>
   </g>
   <g id="patch_72">
    <path d="M 680.228064 508.679035 
L 685.761949 508.679035 
L 685.761949 455.520888 
L 680.228064 455.520888 
z
" clip-path="url(#p591f8c703b)" style="fill: #d62728"/>
   </g>
   <g id="patch_73">
    <path d="M 731.198051 508.820013 
L 736.731936 508.820013 
L 736.731936 453.741286 
L 731.198051 453.741286 
z
" clip-path="url(#p591f8c703b)" style="fill: #d62728"/>
   </g>
   <g id="patch_74">
    <path d="M 782.168038 508.985531 
L 787.701923 508.985531 
L 787.701923 451.971234 
L 782.168038 451.971234 
z
" clip-path="url(#p591f8c703b)" style="fill: #d62728"/>
   </g>
   <g id="patch_75">
    <path d="M 833.138025 509.176529 
L 838.67191 509.176529 
L 838.67191 450.223149 
L 833.138025 450.223149 
z
" clip-path="url(#p591f8c703b)" style="fill: #d62728"/>
   </g>
   <g id="patch_76">
    <path d="M 884.108012 509.39206 
L 889.641896 509.39206 
L 889.641896 448.503293 
L 884.108012 448.503293 
z
" clip-path="url(#p591f8c703b)" style="fill: #d62728"/>
   </g>
   <g id="patch_77">
    <path d="M 935.077999 509.630195 
L 940.611883 509.630195 
L 940.611883 446.814325 
L 935.077999 446.814325 
z
" clip-path="url(#p591f8c703b)" style="fill: #d62728"/>
   </g>
   <g id="patch_78">
    <path d="M 986.047986 509.888554 
L 991.58187 509.888554 
L 991.58187 445.156786 
L 986.047986 445.156786 
z
" clip-path="url(#p591f8c703b)" style="fill: #d62728"/>
   </g>
   <g id="patch_79">
    <path d="M 1037.017973 510.164608 
L 1042.551857 510.164608 
L 1042.551857 443.529991 
L 1037.017973 443.529991 
z
" clip-path="url(#p591f8c703b)" style="fill: #d62728"/>
   </g>
   <g id="patch_80">
    <path d="M 1087.98796 510.455863 
L 1093.521844 510.455863 
L 1093.521844 441.932569 
L 1087.98796 441.932569 
z
" clip-path="url(#p591f8c703b)" style="fill: #d62728"/>
   </g>
   <g id="patch_81">
    <path d="M 1138.957947 510.759954 
L 1144.491831 510.759954 
L 1144.491831 440.362798 
L 1138.957947 440.362798 
z
" clip-path="url(#p591f8c703b)" style="fill: #d62728"/>
   </g>
   <g id="patch_82">
    <path d="M 1189.927934 511.074702 
L 1195.461818 511.074702 
L 1195.461818 438.818812 
L 1189.927934 438.818812 
z
" clip-path="url(#p591f8c703b)" style="fill: #d62728"/>
   </g>
   <g id="patch_83">
    <path d="M 221.498182 398.652841 
L 227.032066 398.652841 
L 227.032066 260.506779 
L 221.498182 260.506779 
z
" clip-path="url(#p591f8c703b)" style="fill: #9467bd"/>
   </g>
   <g id="patch_84">
    <path d="M 272.468169 445.278973 
L 278.002053 445.278973 
L 278.002053 296.153317 
L 272.468169 296.153317 
z
" clip-path="url(#p591f8c703b)" style="fill: #9467bd"/>
   </g>
   <g id="patch_85">
    <path d="M 323.438156 458.178484 
L 328.97204 458.178484 
L 328.97204 304.647502 
L 323.438156 304.647502 
z
" clip-path="url(#p591f8c703b)" style="fill: #9467bd"/>
   </g>
   <g id="patch_86">
    <path d="M 374.408143 461.95566 
L 379.942027 461.95566 
L 379.942027 305.654058 
L 374.408143 305.654058 
z
" clip-path="url(#p591f8c703b)" style="fill: #9467bd"/>
   </g>
   <g id="patch_87">
    <path d="M 425.37813 462.560874 
L 430.912014 462.560874 
L 430.912014 304.095635 
L 425.37813 304.095635 
z
" clip-path="url(#p591f8c703b)" style="fill: #9467bd"/>
   </g>
   <g id="patch_88">
    <path d="M 476.348117 461.864381 
L 481.882001 461.864381 
L 481.882001 301.547933 
L 476.348117 301.547933 
z
" clip-path="url(#p591f8c703b)" style="fill: #9467bd"/>
   </g>
   <g id="patch_89">
    <path d="M 527.318104 460.573162 
L 532.851988 460.573162 
L 532.851988 298.60586 
L 527.318104 298.60586 
z
" clip-path="url(#p591f8c703b)" style="fill: #9467bd"/>
   </g>
   <g id="patch_90">
    <path d="M 578.28809 458.997124 
L 583.821975 458.997124 
L 583.821975 295.525354 
L 578.28809 295.525354 
z
" clip-path="url(#p591f8c703b)" style="fill: #9467bd"/>
   </g>
   <g id="patch_91">
    <path d="M 629.258077 457.286928 
L 634.791962 457.286928 
L 634.791962 292.425992 
L 629.258077 292.425992 
z
" clip-path="url(#p591f8c703b)" style="fill: #9467bd"/>
   </g>
   <g id="patch_92">
    <path d="M 680.228064 455.520888 
L 685.761949 455.520888 
L 685.761949 289.365693 
L 680.228064 289.365693 
z
" clip-path="url(#p591f8c703b)" style="fill: #9467bd"/>
   </g>
   <g id="patch_93">
    <path d="M 731.198051 453.741286 
L 736.731936 453.741286 
L 736.731936 286.372084 
L 731.198051 286.372084 
z
" clip-path="url(#p591f8c703b)" style="fill: #9467bd"/>
   </g>
   <g id="patch_94">
    <path d="M 782.168038 451.971234 
L 787.701923 451.971234 
L 787.701923 283.457064 
L 782.168038 283.457064 
z
" clip-path="url(#p591f8c703b)" style="fill: #9467bd"/>
   </g>
   <g id="patch_95">
    <path d="M 833.138025 450.223149 
L 838.67191 450.223149 
L 838.67191 280.624112 
L 833.138025 280.624112 
z
" clip-path="url(#p591f8c703b)" style="fill: #9467bd"/>
   </g>
   <g id="patch_96">
    <path d="M 884.108012 448.503293 
L 889.641896 448.503293 
L 889.641896 277.872157 
L 884.108012 277.872157 
z
" clip-path="url(#p591f8c703b)" style="fill: #9467bd"/>
   </g>
   <g id="patch_97">
    <path d="M 935.077999 446.814325 
L 940.611883 446.814325 
L 940.611883 275.197732 
L 935.077999 275.197732 
z
" clip-path="url(#p591f8c703b)" style="fill: #9467bd"/>
   </g>
   <g id="patch_98">
    <path d="M 986.047986 445.156786 
L 991.58187 445.156786 
L 991.58187 272.596191 
L 986.047986 272.596191 
z
" clip-path="url(#p591f8c703b)" style="fill: #9467bd"/>
   </g>
   <g id="patch_99">
    <path d="M 1037.017973 443.529991 
L 1042.551857 443.529991 
L 1042.551857 270.062416 
L 1037.017973 270.062416 
z
" clip-path="url(#p591f8c703b)" style="fill: #9467bd"/>
   </g>
   <g id="patch_100">
    <path d="M 1087.98796 441.932569 
L 1093.521844 441.932569 
L 1093.521844 267.591227 
L 1087.98796 267.591227 
z
" clip-path="url(#p591f8c703b)" style="fill: #9467bd"/>
   </g>
   <g id="patch_101">
    <path d="M 1138.957947 440.362798 
L 1144.491831 440.362798 
L 1144.491831 265.177609 
L 1138.957947 265.177609 
z
" clip-path="url(#p591f8c703b)" style="fill: #9467bd"/>
   </g>
   <g id="patch_102">
    <path d="M 1189.927934 438.818812 
L 1195.461818 438.818812 
L 1195.461818 262.816841 
L 1189.927934 262.816841 
z
" clip-path="url(#p591f8c703b)" style="fill: #9467bd"/>
   </g>
   <g id="patch_103">
    <path d="M 221.498182 260.506779 
L 227.032066 260.506779 
L 227.032066 208.97068 
L 221.498182 208.97068 
z
" clip-path="url(#p591f8c703b)" style="fill: #8c564b"/>
   </g>
   <g id="patch_104">
    <path d="M 272.468169 296.153317 
L 278.002053 296.153317 
L 278.002053 273.095275 
L 272.468169 273.095275 
z
" clip-path="url(#p591f8c703b)" style="fill: #8c564b"/>
   </g>
   <g id="patch_105">
    <path d="M 323.438156 304.647502 
L 328.97204 304.647502 
L 328.97204 289.647159 
L 323.438156 289.647159 
z
" clip-path="url(#p591f8c703b)" style="fill: #8c564b"/>
   </g>
   <g id="patch_106">
    <path d="M 374.408143 305.654058 
L 379.942027 305.654058 
L 379.942027 294.021119 
L 374.408143 294.021119 
z
" clip-path="url(#p591f8c703b)" style="fill: #8c564b"/>
   </g>
   <g id="patch_107">
    <path d="M 425.37813 304.095635 
L 430.912014 304.095635 
L 430.912014 294.335273 
L 425.37813 294.335273 
z
" clip-path="url(#p591f8c703b)" style="fill: #8c564b"/>
   </g>
   <g id="patch_108">
    <path d="M 476.348117 301.547933 
L 481.882001 301.547933 
L 481.882001 293.04289 
L 476.348117 293.04289 
z
" clip-path="url(#p591f8c703b)" style="fill: #8c564b"/>
   </g>
   <g id="patch_109">
    <path d="M 527.318104 298.60586 
L 532.851988 298.60586 
L 532.851988 291.047985 
L 527.318104 291.047985 
z
" clip-path="url(#p591f8c703b)" style="fill: #8c564b"/>
   </g>
   <g id="patch_110">
    <path d="M 578.28809 295.525354 
L 583.821975 295.525354 
L 583.821975 288.738603 
L 578.28809 288.738603 
z
" clip-path="url(#p591f8c703b)" style="fill: #8c564b"/>
   </g>
   <g id="patch_111">
    <path d="M 629.258077 292.425992 
L 634.791962 292.425992 
L 634.791962 286.299358 
L 629.258077 286.299358 
z
" clip-path="url(#p591f8c703b)" style="fill: #8c564b"/>
   </g>
   <g id="patch_112">
    <path d="M 680.228064 289.365693 
L 685.761949 289.365693 
L 685.761949 283.823723 
L 680.228064 283.823723 
z
" clip-path="url(#p591f8c703b)" style="fill: #8c564b"/>
   </g>
   <g id="patch_113">
    <path d="M 731.198051 286.372084 
L 736.731936 286.372084 
L 736.731936 281.360393 
L 731.198051 281.360393 
z
" clip-path="url(#p591f8c703b)" style="fill: #8c564b"/>
   </g>
   <g id="patch_114">
    <path d="M 782.168038 283.457064 
L 787.701923 283.457064 
L 787.701923 278.934565 
L 782.168038 278.934565 
z
" clip-path="url(#p591f8c703b)" style="fill: #8c564b"/>
   </g>
   <g id="patch_115">
    <path d="M 833.138025 280.624112 
L 838.67191 280.624112 
L 838.67191 276.558559 
L 833.138025 276.558559 
z
" clip-path="url(#p591f8c703b)" style="fill: #8c564b"/>
   </g>
   <g id="patch_116">
    <path d="M 884.108012 277.872157 
L 889.641896 277.872157 
L 889.641896 274.237442 
L 884.108012 274.237442 
z
" clip-path="url(#p591f8c703b)" style="fill: #8c564b"/>
   </g>
   <g id="patch_117">
    <path d="M 935.077999 275.197732 
L 940.611883 275.197732 
L 940.611883 271.972163 
L 935.077999 271.972163 
z
" clip-path="url(#p591f8c703b)" style="fill: #8c564b"/>
   </g>
   <g id="patch_118">
    <path d="M 986.047986 272.596191 
L 991.58187 272.596191 
L 991.58187 269.761352 
L 986.047986 269.761352 
z
" clip-path="url(#p591f8c703b)" style="fill: #8c564b"/>
   </g>
   <g id="patch_119">
    <path d="M 1037.017973 270.062416 
L 1042.551857 270.062416 
L 1042.551857 267.60239 
L 1037.017973 267.60239 
z
" clip-path="url(#p591f8c703b)" style="fill: #8c564b"/>
   </g>
   <g id="patch_120">
    <path d="M 1087.98796 267.591227 
L 1093.521844 267.591227 
L 1093.521844 265.492041 
L 1087.98796 265.492041 
z
" clip-path="url(#p591f8c703b)" style="fill: #8c564b"/>
   </g>
   <g id="patch_121">
    <path d="M 1138.957947 265.177609 
L 1144.491831 265.177609 
L 1144.491831 263.42684 
L 1138.957947 263.42684 
z
" clip-path="url(#p591f8c703b)" style="fill: #8c564b"/>
   </g>
   <g id="patch_122">
    <path d="M 1189.927934 262.816841 
L 1195.461818 262.816841 
L 1195.461818 261.403318 
L 1189.927934 261.403318 
z
" clip-path="url(#p591f8c703b)" style="fill: #8c564b"/>
   </g>
   <g id="patch_123">
    <path d="M 221.498182 208.97068 
L 227.032066 208.97068 
L 227.032066 161.953213 
L 221.498182 161.953213 
z
" clip-path="url(#p591f8c703b)" style="fill: #e377c2"/>
   </g>
   <g id="patch_124">
    <path d="M 272.468169 273.095275 
L 278.002053 273.095275 
L 278.002053 223.473318 
L 272.468169 223.473318 
z
" clip-path="url(#p591f8c703b)" style="fill: #e377c2"/>
   </g>
   <g id="patch_125">
    <path d="M 323.438156 289.647159 
L 328.97204 289.647159 
L 328.97204 239.608274 
L 323.438156 239.608274 
z
" clip-path="url(#p591f8c703b)" style="fill: #e377c2"/>
   </g>
   <g id="patch_126">
    <path d="M 374.408143 294.021119 
L 379.942027 294.021119 
L 379.942027 244.045858 
L 374.408143 244.045858 
z
" clip-path="url(#p591f8c703b)" style="fill: #e377c2"/>
   </g>
   <g id="patch_127">
    <path d="M 425.37813 294.335273 
L 430.912014 294.335273 
L 430.912014 244.560263 
L 425.37813 244.560263 
z
" clip-path="url(#p591f8c703b)" style="fill: #e377c2"/>
   </g>
   <g id="patch_128">
    <path d="M 476.348117 293.04289 
L 481.882001 293.04289 
L 481.882001 243.512158 
L 476.348117 243.512158 
z
" clip-path="url(#p591f8c703b)" style="fill: #e377c2"/>
   </g>
   <g id="patch_129">
    <path d="M 527.318104 291.047985 
L 532.851988 291.047985 
L 532.851988 241.774297 
L 527.318104 241.774297 
z
" clip-path="url(#p591f8c703b)" style="fill: #e377c2"/>
   </g>
   <g id="patch_130">
    <path d="M 578.28809 288.738603 
L 583.821975 288.738603 
L 583.821975 239.722387 
L 578.28809 239.722387 
z
" clip-path="url(#p591f8c703b)" style="fill: #e377c2"/>
   </g>
   <g id="patch_131">
    <path d="M 629.258077 286.299358 
L 634.791962 286.299358 
L 634.791962 237.53574 
L 629.258077 237.53574 
z
" clip-path="url(#p591f8c703b)" style="fill: #e377c2"/>
   </g>
   <g id="patch_132">
    <path d="M 680.228064 283.823723 
L 685.761949 283.823723 
L 685.761949 235.305525 
L 680.228064 235.305525 
z
" clip-path="url(#p591f8c703b)" style="fill: #e377c2"/>
   </g>
   <g id="patch_133">
    <path d="M 731.198051 281.360393 
L 736.731936 281.360393 
L 736.731936 233.079524 
L 731.198051 233.079524 
z
" clip-path="url(#p591f8c703b)" style="fill: #e377c2"/>
   </g>
   <g id="patch_134">
    <path d="M 782.168038 278.934565 
L 787.701923 278.934565 
L 787.701923 230.882719 
L 782.168038 230.882719 
z
" clip-path="url(#p591f8c703b)" style="fill: #e377c2"/>
   </g>
   <g id="patch_135">
    <path d="M 833.138025 276.558559 
L 838.67191 276.558559 
L 838.67191 228.727561 
L 833.138025 228.727561 
z
" clip-path="url(#p591f8c703b)" style="fill: #e377c2"/>
   </g>
   <g id="patch_136">
    <path d="M 884.108012 274.237442 
L 889.641896 274.237442 
L 889.641896 226.61943 
L 884.108012 226.61943 
z
" clip-path="url(#p591f8c703b)" style="fill: #e377c2"/>
   </g>
   <g id="patch_137">
    <path d="M 935.077999 271.972163 
L 940.611883 271.972163 
L 940.611883 224.559667 
L 935.077999 224.559667 
z
" clip-path="url(#p591f8c703b)" style="fill: #e377c2"/>
   </g>
   <g id="patch_138">
    <path d="M 986.047986 269.761352 
L 991.58187 269.761352 
L 991.58187 222.547334 
L 986.047986 222.547334 
z
" clip-path="url(#p591f8c703b)" style="fill: #e377c2"/>
   </g>
   <g id="patch_139">
    <path d="M 1037.017973 267.60239 
L 1042.551857 267.60239 
L 1042.551857 220.580242 
L 1037.017973 220.580242 
z
" clip-path="url(#p591f8c703b)" style="fill: #e377c2"/>
   </g>
   <g id="patch_140">
    <path d="M 1087.98796 265.492041 
L 1093.521844 265.492041 
L 1093.521844 218.65558 
L 1087.98796 218.65558 
z
" clip-path="url(#p591f8c703b)" style="fill: #e377c2"/>
   </g>
   <g id="patch_141">
    <path d="M 1138.957947 263.42684 
L 1144.491831 263.42684 
L 1144.491831 216.770287 
L 1138.957947 216.770287 
z
" clip-path="url(#p591f8c703b)" style="fill: #e377c2"/>
   </g>
   <g id="patch_142">
    <path d="M 1189.927934 261.403318 
L 1195.461818 261.403318 
L 1195.461818 214.921272 
L 1189.927934 214.921272 
z
" clip-path="url(#p591f8c703b)" style="fill: #e377c2"/>
   </g>
   <g id="patch_143">
    <path d="M 221.498182 161.953213 
L 227.032066 161.953213 
L 227.032066 136.536023 
L 221.498182 136.536023 
z
" clip-path="url(#p591f8c703b)" style="fill: #7f7f7f"/>
   </g>
   <g id="patch_144">
    <path d="M 272.468169 223.473318 
L 278.002053 223.473318 
L 278.002053 213.676033 
L 272.468169 213.676033 
z
" clip-path="url(#p591f8c703b)" style="fill: #7f7f7f"/>
   </g>
   <g id="patch_145">
    <path d="M 323.438156 239.608274 
L 328.97204 239.608274 
L 328.97204 234.037316 
L 323.438156 234.037316 
z
" clip-path="url(#p591f8c703b)" style="fill: #7f7f7f"/>
   </g>
   <g id="patch_146">
    <path d="M 374.408143 244.045858 
L 379.942027 244.045858 
L 379.942027 240.181223 
L 374.408143 240.181223 
z
" clip-path="url(#p591f8c703b)" style="fill: #7f7f7f"/>
   </g>
   <g id="patch_147">
    <path d="M 425.37813 244.560263 
L 430.912014 244.560263 
L 430.912014 241.604688 
L 425.37813 241.604688 
z
" clip-path="url(#p591f8c703b)" style="fill: #7f7f7f"/>
   </g>
   <g id="patch_148">
    <path d="M 476.348117 243.512158 
L 481.882001 243.512158 
L 481.882001 241.132079 
L 476.348117 241.132079 
z
" clip-path="url(#p591f8c703b)" style="fill: #7f7f7f"/>
   </g>
   <g id="patch_149">
    <path d="M 527.318104 241.774297 
L 532.851988 241.774297 
L 532.851988 239.799575 
L 527.318104 239.799575 
z
" clip-path="url(#p591f8c703b)" style="fill: #7f7f7f"/>
   </g>
   <g id="patch_150">
    <path d="M 578.28809 239.722387 
L 583.821975 239.722387 
L 583.821975 238.053673 
L 578.28809 238.053673 
z
" clip-path="url(#p591f8c703b)" style="fill: #7f7f7f"/>
   </g>
   <g id="patch_151">
    <path d="M 629.258077 237.53574 
L 634.791962 237.53574 
L 634.791962 236.109273 
L 629.258077 236.109273 
z
" clip-path="url(#p591f8c703b)" style="fill: #7f7f7f"/>
   </g>
   <g id="patch_152">
    <path d="M 680.228064 235.305525 
L 685.761949 235.305525 
L 685.761949 234.07748 
L 680.228064 234.07748 
z
" clip-path="url(#p591f8c703b)" style="fill: #7f7f7f"/>
   </g>
   <g id="patch_153">
    <path d="M 731.198051 233.079524 
L 736.731936 233.079524 
L 736.731936 232.018191 
L 731.198051 232.018191 
z
" clip-path="url(#p591f8c703b)" style="fill: #7f7f7f"/>
   </g>
   <g id="patch_154">
    <path d="M 782.168038 230.882719 
L 787.701923 230.882719 
L 787.701923 229.96422 
L 782.168038 229.96422 
z
" clip-path="url(#p591f8c703b)" style="fill: #7f7f7f"/>
   </g>
   <g id="patch_155">
    <path d="M 833.138025 228.727561 
L 838.67191 228.727561 
L 838.67191 227.933343 
L 833.138025 227.933343 
z
" clip-path="url(#p591f8c703b)" style="fill: #7f7f7f"/>
   </g>
   <g id="patch_156">
    <path d="M 884.108012 226.61943 
L 889.641896 226.61943 
L 889.641896 225.934704 
L 884.108012 225.934704 
z
" clip-path="url(#p591f8c703b)" style="fill: #7f7f7f"/>
   </g>
   <g id="patch_157">
    <path d="M 935.077999 224.559667 
L 940.611883 224.559667 
L 940.611883 223.972394 
L 935.077999 223.972394 
z
" clip-path="url(#p591f8c703b)" style="fill: #7f7f7f"/>
   </g>
   <g id="patch_158">
    <path d="M 986.047986 222.547334 
L 991.58187 222.547334 
L 991.58187 222.047538 
L 986.047986 222.047538 
z
" clip-path="url(#p591f8c703b)" style="fill: #7f7f7f"/>
   </g>
   <g id="patch_159">
    <path d="M 1037.017973 220.580242 
L 1042.551857 220.580242 
L 1042.551857 220.159538 
L 1037.017973 220.159538 
z
" clip-path="url(#p591f8c703b)" style="fill: #7f7f7f"/>
   </g>
   <g id="patch_160">
    <path d="M 1087.98796 218.65558 
L 1093.521844 218.65558 
L 1093.521844 218.306823 
L 1087.98796 218.306823 
z
" clip-path="url(#p591f8c703b)" style="fill: #7f7f7f"/>
   </g>
   <g id="patch_161">
    <path d="M 1138.957947 216.770287 
L 1144.491831 216.770287 
L 1144.491831 216.487325 
L 1138.957947 216.487325 
z
" clip-path="url(#p591f8c703b)" style="fill: #7f7f7f"/>
   </g>
   <g id="patch_162">
    <path d="M 1189.927934 214.921272 
L 1195.461818 214.921272 
L 1195.461818 214.698756 
L 1189.927934 214.698756 
z
" clip-path="url(#p591f8c703b)" style="fill: #7f7f7f"/>
   </g>
   <g id="patch_163">
    <path d="M 221.498182 136.536023 
L 227.032066 136.536023 
L 227.032066 114.492 
L 221.498182 114.492 
z
" clip-path="url(#p591f8c703b)" style="fill: #bcbd22"/>
   </g>
   <g id="patch_164">
    <path d="M 272.468169 213.676033 
L 278.002053 213.676033 
L 278.002053 196.307802 
L 272.468169 196.307802 
z
" clip-path="url(#p591f8c703b)" style="fill: #bcbd22"/>
   </g>
   <g id="patch_165">
    <path d="M 323.438156 234.037316 
L 328.97204 234.037316 
L 328.97204 220.767773 
L 323.438156 220.767773 
z
" clip-path="url(#p591f8c703b)" style="fill: #bcbd22"/>
   </g>
   <g id="patch_166">
    <path d="M 374.408143 240.181223 
L 379.942027 240.181223 
L 379.942027 229.602477 
L 374.408143 229.602477 
z
" clip-path="url(#p591f8c703b)" style="fill: #bcbd22"/>
   </g>
   <g id="patch_167">
    <path d="M 425.37813 241.604688 
L 430.912014 241.604688 
L 430.912014 232.868887 
L 425.37813 232.868887 
z
" clip-path="url(#p591f8c703b)" style="fill: #bcbd22"/>
   </g>
   <g id="patch_168">
    <path d="M 476.348117 241.132079 
L 481.882001 241.132079 
L 481.882001 233.750282 
L 476.348117 233.750282 
z
" clip-path="url(#p591f8c703b)" style="fill: #bcbd22"/>
   </g>
   <g id="patch_169">
    <path d="M 527.318104 239.799575 
L 532.851988 239.799575 
L 532.851988 233.467649 
L 527.318104 233.467649 
z
" clip-path="url(#p591f8c703b)" style="fill: #bcbd22"/>
   </g>
   <g id="patch_170">
    <path d="M 578.28809 238.053673 
L 583.821975 238.053673 
L 583.821975 232.568221 
L 578.28809 232.568221 
z
" clip-path="url(#p591f8c703b)" style="fill: #bcbd22"/>
   </g>
   <g id="patch_171">
    <path d="M 629.258077 236.109273 
L 634.791962 236.109273 
L 634.791962 231.326447 
L 629.258077 231.326447 
z
" clip-path="url(#p591f8c703b)" style="fill: #bcbd22"/>
   </g>
   <g id="patch_172">
    <path d="M 680.228064 234.07748 
L 685.761949 234.07748 
L 685.761949 229.891163 
L 680.228064 229.891163 
z
" clip-path="url(#p591f8c703b)" style="fill: #bcbd22"/>
   </g>
   <g id="patch_173">
    <path d="M 731.198051 232.018191 
L 736.731936 232.018191 
L 736.731936 228.34751 
L 731.198051 228.34751 
z
" clip-path="url(#p591f8c703b)" style="fill: #bcbd22"/>
   </g>
   <g id="patch_174">
    <path d="M 782.168038 229.96422 
L 787.701923 229.96422 
L 787.701923 226.745936 
L 782.168038 226.745936 
z
" clip-path="url(#p591f8c703b)" style="fill: #bcbd22"/>
   </g>
   <g id="patch_175">
    <path d="M 833.138025 227.933343 
L 838.67191 227.933343 
L 838.67191 225.11695 
L 833.138025 225.11695 
z
" clip-path="url(#p591f8c703b)" style="fill: #bcbd22"/>
   </g>
   <g id="patch_176">
    <path d="M 884.108012 225.934704 
L 889.641896 225.934704 
L 889.641896 223.479136 
L 884.108012 223.479136 
z
" clip-path="url(#p591f8c703b)" style="fill: #bcbd22"/>
   </g>
   <g id="patch_177">
    <path d="M 935.077999 223.972394 
L 940.611883 223.972394 
L 940.611883 221.843742 
L 935.077999 221.843742 
z
" clip-path="url(#p591f8c703b)" style="fill: #bcbd22"/>
   </g>
   <g id="patch_178">
    <path d="M 986.047986 222.047538 
L 991.58187 222.047538 
L 991.58187 220.217412 
L 986.047986 220.217412 
z
" clip-path="url(#p591f8c703b)" style="fill: #bcbd22"/>
   </g>
   <g id="patch_179">
    <path d="M 1037.017973 220.159538 
L 1042.551857 220.159538 
L 1042.551857 218.603871 
L 1037.017973 218.603871 
z
" clip-path="url(#p591f8c703b)" style="fill: #bcbd22"/>
   </g>
   <g id="patch_180">
    <path d="M 1087.98796 218.306823 
L 1093.521844 218.306823 
L 1093.521844 217.004978 
L 1087.98796 217.004978 
z
" clip-path="url(#p591f8c703b)" style="fill: #bcbd22"/>
   </g>
   <g id="patch_181">
    <path d="M 1138.957947 216.487325 
L 1144.491831 216.487325 
L 1144.491831 215.421416 
L 1138.957947 215.421416 
z
" clip-path="url(#p591f8c703b)" style="fill: #bcbd22"/>
   </g>
   <g id="patch_182">
    <path d="M 1189.927934 214.698756 
L 1195.461818 214.698756 
L 1195.461818 213.853131 
L 1189.927934 213.853131 
z
" clip-path="url(#p591f8c703b)" style="fill: #bcbd22"/>
   </g>
   <g id="matplotlib.axis_1">
    <g id="xtick_1">
     <g id="line2d_1">
      <defs>
       <path id="m705f76b47a" d="M 0 0 
L 0 3.5 
" style="stroke: #000000; stroke-width: 0.8"/>
      </defs>
      <g>
       <use xlink:href="#m705f76b47a" x="224.265124" y="650.412" style="stroke: #000000; stroke-width: 0.8"/>
      </g>
     </g>
     <g id="text_1">
      <!-- 45 -->
      <g transform="translate(212.812624 671.089188) scale(0.18 -0.18)">
       <defs>
        <path id="DejaVuSans-34" d="M 2419 4116 
L 825 1625 
L 2419 1625 
L 2419 4116 
z
M 2253 4666 
L 3047 4666 
L 3047 1625 
L 3713 1625 
L 3713 1100 
L 3047 1100 
L 3047 0 
L 2419 0 
L 2419 1100 
L 313 1100 
L 313 1709 
L 2253 4666 
z
" transform="scale(0.015625)"/>
        <path id="DejaVuSans-35" d="M 691 4666 
L 3169 4666 
L 3169 4134 
L 1269 4134 
L 1269 2991 
Q 1406 3038 1543 3061 
Q 1681 3084 1819 3084 
Q 2600 3084 3056 2656 
Q 3513 2228 3513 1497 
Q 3513 744 3044 326 
Q 2575 -91 1722 -91 
Q 1428 -91 1123 -41 
Q 819 9 494 109 
L 494 744 
Q 775 591 1075 516 
Q 1375 441 1709 441 
Q 2250 441 2565 725 
Q 2881 1009 2881 1497 
Q 2881 1984 2565 2268 
Q 2250 2553 1709 2553 
Q 1456 2553 1204 2497 
Q 953 2441 691 2322 
L 691 4666 
z
" transform="scale(0.015625)"/>
       </defs>
       <use xlink:href="#DejaVuSans-34"/>
       <use xlink:href="#DejaVuSans-35" x="63.623047"/>
      </g>
     </g>
    </g>
    <g id="xtick_2">
     <g id="line2d_2">
      <g>
       <use xlink:href="#m705f76b47a" x="362.612231" y="650.412" style="stroke: #000000; stroke-width: 0.8"/>
      </g>
     </g>
     <g id="text_2">
      <!-- 50 -->
      <g transform="translate(351.159731 671.089188) scale(0.18 -0.18)">
       <defs>
        <path id="DejaVuSans-30" d="M 2034 4250 
Q 1547 4250 1301 3770 
Q 1056 3291 1056 2328 
Q 1056 1369 1301 889 
Q 1547 409 2034 409 
Q 2525 409 2770 889 
Q 3016 1369 3016 2328 
Q 3016 3291 2770 3770 
Q 2525 4250 2034 4250 
z
M 2034 4750 
Q 2819 4750 3233 4129 
Q 3647 3509 3647 2328 
Q 3647 1150 3233 529 
Q 2819 -91 2034 -91 
Q 1250 -91 836 529 
Q 422 1150 422 2328 
Q 422 3509 836 4129 
Q 1250 4750 2034 4750 
z
" transform="scale(0.015625)"/>
       </defs>
       <use xlink:href="#DejaVuSans-35"/>
       <use xlink:href="#DejaVuSans-30" x="63.623047"/>
      </g>
     </g>
    </g>
    <g id="xtick_3">
     <g id="line2d_3">
      <g>
       <use xlink:href="#m705f76b47a" x="500.959339" y="650.412" style="stroke: #000000; stroke-width: 0.8"/>
      </g>
     </g>
     <g id="text_3">
      <!-- 55 -->
      <g transform="translate(489.506839 671.089188) scale(0.18 -0.18)">
       <use xlink:href="#DejaVuSans-35"/>
       <use xlink:href="#DejaVuSans-35" x="63.623047"/>
      </g>
     </g>
    </g>
    <g id="xtick_4">
     <g id="line2d_4">
      <g>
       <use xlink:href="#m705f76b47a" x="639.306446" y="650.412" style="stroke: #000000; stroke-width: 0.8"/>
      </g>
     </g>
     <g id="text_4">
      <!-- 60 -->
      <g transform="translate(627.853946 671.089188) scale(0.18 -0.18)">
       <defs>
        <path id="DejaVuSans-36" d="M 2113 2584 
Q 1688 2584 1439 2293 
Q 1191 2003 1191 1497 
Q 1191 994 1439 701 
Q 1688 409 2113 409 
Q 2538 409 2786 701 
Q 3034 994 3034 1497 
Q 3034 2003 2786 2293 
Q 2538 2584 2113 2584 
z
M 3366 4563 
L 3366 3988 
Q 3128 4100 2886 4159 
Q 2644 4219 2406 4219 
Q 1781 4219 1451 3797 
Q 1122 3375 1075 2522 
Q 1259 2794 1537 2939 
Q 1816 3084 2150 3084 
Q 2853 3084 3261 2657 
Q 3669 2231 3669 1497 
Q 3669 778 3244 343 
Q 2819 -91 2113 -91 
Q 1303 -91 875 529 
Q 447 1150 447 2328 
Q 447 3434 972 4092 
Q 1497 4750 2381 4750 
Q 2619 4750 2861 4703 
Q 3103 4656 3366 4563 
z
" transform="scale(0.015625)"/>
       </defs>
       <use xlink:href="#DejaVuSans-36"/>
       <use xlink:href="#DejaVuSans-30" x="63.623047"/>
      </g>
     </g>
    </g>
    <g id="xtick_5">
     <g id="line2d_5">
      <g>
       <use xlink:href="#m705f76b47a" x="777.653554" y="650.412" style="stroke: #000000; stroke-width: 0.8"/>
      </g>
     </g>
     <g id="text_5">
      <!-- 65 -->
      <g transform="translate(766.201054 671.089188) scale(0.18 -0.18)">
       <use xlink:href="#DejaVuSans-36"/>
       <use xlink:href="#DejaVuSans-35" x="63.623047"/>
      </g>
     </g>
    </g>
    <g id="xtick_6">
     <g id="line2d_6">
      <g>
       <use xlink:href="#m705f76b47a" x="916.000661" y="650.412" style="stroke: #000000; stroke-width: 0.8"/>
      </g>
     </g>
     <g id="text_6">
      <!-- 70 -->
      <g transform="translate(904.548161 671.089188) scale(0.18 -0.18)">
       <defs>
        <path id="DejaVuSans-37" d="M 525 4666 
L 3525 4666 
L 3525 4397 
L 1831 0 
L 1172 0 
L 2766 4134 
L 525 4134 
L 525 4666 
z
" transform="scale(0.015625)"/>
       </defs>
       <use xlink:href="#DejaVuSans-37"/>
       <use xlink:href="#DejaVuSans-30" x="63.623047"/>
      </g>
     </g>
    </g>
    <g id="xtick_7">
     <g id="line2d_7">
      <g>
       <use xlink:href="#m705f76b47a" x="1054.347769" y="650.412" style="stroke: #000000; stroke-width: 0.8"/>
      </g>
     </g>
     <g id="text_7">
      <!-- 75 -->
      <g transform="translate(1042.895269 671.089188) scale(0.18 -0.18)">
       <use xlink:href="#DejaVuSans-37"/>
       <use xlink:href="#DejaVuSans-35" x="63.623047"/>
      </g>
     </g>
    </g>
    <g id="xtick_8">
     <g id="line2d_8">
      <g>
       <use xlink:href="#m705f76b47a" x="1192.694876" y="650.412" style="stroke: #000000; stroke-width: 0.8"/>
      </g>
     </g>
     <g id="text_8">
      <!-- 80 -->
      <g transform="translate(1181.242376 671.089188) scale(0.18 -0.18)">
       <defs>
        <path id="DejaVuSans-38" d="M 2034 2216 
Q 1584 2216 1326 1975 
Q 1069 1734 1069 1313 
Q 1069 891 1326 650 
Q 1584 409 2034 409 
Q 2484 409 2743 651 
Q 3003 894 3003 1313 
Q 3003 1734 2745 1975 
Q 2488 2216 2034 2216 
z
M 1403 2484 
Q 997 2584 770 2862 
Q 544 3141 544 3541 
Q 544 4100 942 4425 
Q 1341 4750 2034 4750 
Q 2731 4750 3128 4425 
Q 3525 4100 3525 3541 
Q 3525 3141 3298 2862 
Q 3072 2584 2669 2484 
Q 3125 2378 3379 2068 
Q 3634 1759 3634 1313 
Q 3634 634 3220 271 
Q 2806 -91 2034 -91 
Q 1263 -91 848 271 
Q 434 634 434 1313 
Q 434 1759 690 2068 
Q 947 2378 1403 2484 
z
M 1172 3481 
Q 1172 3119 1398 2916 
Q 1625 2713 2034 2713 
Q 2441 2713 2670 2916 
Q 2900 3119 2900 3481 
Q 2900 3844 2670 4047 
Q 2441 4250 2034 4250 
Q 1625 4250 1398 4047 
Q 1172 3844 1172 3481 
z
" transform="scale(0.015625)"/>
       </defs>
       <use xlink:href="#DejaVuSans-38"/>
       <use xlink:href="#DejaVuSans-30" x="63.623047"/>
      </g>
     </g>
    </g>
    <g id="text_9">
     <!-- Kondensatordruck in bar -->
     <g transform="translate(597.950156 692.509813) scale(0.18 -0.18)">
      <defs>
       <path id="DejaVuSans-4b" d="M 628 4666 
L 1259 4666 
L 1259 2694 
L 3353 4666 
L 4166 4666 
L 1850 2491 
L 4331 0 
L 3500 0 
L 1259 2247 
L 1259 0 
L 628 0 
L 628 4666 
z
" transform="scale(0.015625)"/>
       <path id="DejaVuSans-6f" d="M 1959 3097 
Q 1497 3097 1228 2736 
Q 959 2375 959 1747 
Q 959 1119 1226 758 
Q 1494 397 1959 397 
Q 2419 397 2687 759 
Q 2956 1122 2956 1747 
Q 2956 2369 2687 2733 
Q 2419 3097 1959 3097 
z
M 1959 3584 
Q 2709 3584 3137 3096 
Q 3566 2609 3566 1747 
Q 3566 888 3137 398 
Q 2709 -91 1959 -91 
Q 1206 -91 779 398 
Q 353 888 353 1747 
Q 353 2609 779 3096 
Q 1206 3584 1959 3584 
z
" transform="scale(0.015625)"/>
       <path id="DejaVuSans-6e" d="M 3513 2113 
L 3513 0 
L 2938 0 
L 2938 2094 
Q 2938 2591 2744 2837 
Q 2550 3084 2163 3084 
Q 1697 3084 1428 2787 
Q 1159 2491 1159 1978 
L 1159 0 
L 581 0 
L 581 3500 
L 1159 3500 
L 1159 2956 
Q 1366 3272 1645 3428 
Q 1925 3584 2291 3584 
Q 2894 3584 3203 3211 
Q 3513 2838 3513 2113 
z
" transform="scale(0.015625)"/>
       <path id="DejaVuSans-64" d="M 2906 2969 
L 2906 4863 
L 3481 4863 
L 3481 0 
L 2906 0 
L 2906 525 
Q 2725 213 2448 61 
Q 2172 -91 1784 -91 
Q 1150 -91 751 415 
Q 353 922 353 1747 
Q 353 2572 751 3078 
Q 1150 3584 1784 3584 
Q 2172 3584 2448 3432 
Q 2725 3281 2906 2969 
z
M 947 1747 
Q 947 1113 1208 752 
Q 1469 391 1925 391 
Q 2381 391 2643 752 
Q 2906 1113 2906 1747 
Q 2906 2381 2643 2742 
Q 2381 3103 1925 3103 
Q 1469 3103 1208 2742 
Q 947 2381 947 1747 
z
" transform="scale(0.015625)"/>
       <path id="DejaVuSans-65" d="M 3597 1894 
L 3597 1613 
L 953 1613 
Q 991 1019 1311 708 
Q 1631 397 2203 397 
Q 2534 397 2845 478 
Q 3156 559 3463 722 
L 3463 178 
Q 3153 47 2828 -22 
Q 2503 -91 2169 -91 
Q 1331 -91 842 396 
Q 353 884 353 1716 
Q 353 2575 817 3079 
Q 1281 3584 2069 3584 
Q 2775 3584 3186 3129 
Q 3597 2675 3597 1894 
z
M 3022 2063 
Q 3016 2534 2758 2815 
Q 2500 3097 2075 3097 
Q 1594 3097 1305 2825 
Q 1016 2553 972 2059 
L 3022 2063 
z
" transform="scale(0.015625)"/>
       <path id="DejaVuSans-73" d="M 2834 3397 
L 2834 2853 
Q 2591 2978 2328 3040 
Q 2066 3103 1784 3103 
Q 1356 3103 1142 2972 
Q 928 2841 928 2578 
Q 928 2378 1081 2264 
Q 1234 2150 1697 2047 
L 1894 2003 
Q 2506 1872 2764 1633 
Q 3022 1394 3022 966 
Q 3022 478 2636 193 
Q 2250 -91 1575 -91 
Q 1294 -91 989 -36 
Q 684 19 347 128 
L 347 722 
Q 666 556 975 473 
Q 1284 391 1588 391 
Q 1994 391 2212 530 
Q 2431 669 2431 922 
Q 2431 1156 2273 1281 
Q 2116 1406 1581 1522 
L 1381 1569 
Q 847 1681 609 1914 
Q 372 2147 372 2553 
Q 372 3047 722 3315 
Q 1072 3584 1716 3584 
Q 2034 3584 2315 3537 
Q 2597 3491 2834 3397 
z
" transform="scale(0.015625)"/>
       <path id="DejaVuSans-61" d="M 2194 1759 
Q 1497 1759 1228 1600 
Q 959 1441 959 1056 
Q 959 750 1161 570 
Q 1363 391 1709 391 
Q 2188 391 2477 730 
Q 2766 1069 2766 1631 
L 2766 1759 
L 2194 1759 
z
M 3341 1997 
L 3341 0 
L 2766 0 
L 2766 531 
Q 2569 213 2275 61 
Q 1981 -91 1556 -91 
Q 1019 -91 701 211 
Q 384 513 384 1019 
Q 384 1609 779 1909 
Q 1175 2209 1959 2209 
L 2766 2209 
L 2766 2266 
Q 2766 2663 2505 2880 
Q 2244 3097 1772 3097 
Q 1472 3097 1187 3025 
Q 903 2953 641 2809 
L 641 3341 
Q 956 3463 1253 3523 
Q 1550 3584 1831 3584 
Q 2591 3584 2966 3190 
Q 3341 2797 3341 1997 
z
" transform="scale(0.015625)"/>
       <path id="DejaVuSans-74" d="M 1172 4494 
L 1172 3500 
L 2356 3500 
L 2356 3053 
L 1172 3053 
L 1172 1153 
Q 1172 725 1289 603 
Q 1406 481 1766 481 
L 2356 481 
L 2356 0 
L 1766 0 
Q 1100 0 847 248 
Q 594 497 594 1153 
L 594 3053 
L 172 3053 
L 172 3500 
L 594 3500 
L 594 4494 
L 1172 4494 
z
" transform="scale(0.015625)"/>
       <path id="DejaVuSans-72" d="M 2631 2963 
Q 2534 3019 2420 3045 
Q 2306 3072 2169 3072 
Q 1681 3072 1420 2755 
Q 1159 2438 1159 1844 
L 1159 0 
L 581 0 
L 581 3500 
L 1159 3500 
L 1159 2956 
Q 1341 3275 1631 3429 
Q 1922 3584 2338 3584 
Q 2397 3584 2469 3576 
Q 2541 3569 2628 3553 
L 2631 2963 
z
" transform="scale(0.015625)"/>
       <path id="DejaVuSans-75" d="M 544 1381 
L 544 3500 
L 1119 3500 
L 1119 1403 
Q 1119 906 1312 657 
Q 1506 409 1894 409 
Q 2359 409 2629 706 
Q 2900 1003 2900 1516 
L 2900 3500 
L 3475 3500 
L 3475 0 
L 2900 0 
L 2900 538 
Q 2691 219 2414 64 
Q 2138 -91 1772 -91 
Q 1169 -91 856 284 
Q 544 659 544 1381 
z
M 1991 3584 
L 1991 3584 
z
" transform="scale(0.015625)"/>
       <path id="DejaVuSans-63" d="M 3122 3366 
L 3122 2828 
Q 2878 2963 2633 3030 
Q 2388 3097 2138 3097 
Q 1578 3097 1268 2742 
Q 959 2388 959 1747 
Q 959 1106 1268 751 
Q 1578 397 2138 397 
Q 2388 397 2633 464 
Q 2878 531 3122 666 
L 3122 134 
Q 2881 22 2623 -34 
Q 2366 -91 2075 -91 
Q 1284 -91 818 406 
Q 353 903 353 1747 
Q 353 2603 823 3093 
Q 1294 3584 2113 3584 
Q 2378 3584 2631 3529 
Q 2884 3475 3122 3366 
z
" transform="scale(0.015625)"/>
       <path id="DejaVuSans-6b" d="M 581 4863 
L 1159 4863 
L 1159 1991 
L 2875 3500 
L 3609 3500 
L 1753 1863 
L 3688 0 
L 2938 0 
L 1159 1709 
L 1159 0 
L 581 0 
L 581 4863 
z
" transform="scale(0.015625)"/>
       <path id="DejaVuSans-20" transform="scale(0.015625)"/>
       <path id="DejaVuSans-69" d="M 603 3500 
L 1178 3500 
L 1178 0 
L 603 0 
L 603 3500 
z
M 603 4863 
L 1178 4863 
L 1178 4134 
L 603 4134 
L 603 4863 
z
" transform="scale(0.015625)"/>
       <path id="DejaVuSans-62" d="M 3116 1747 
Q 3116 2381 2855 2742 
Q 2594 3103 2138 3103 
Q 1681 3103 1420 2742 
Q 1159 2381 1159 1747 
Q 1159 1113 1420 752 
Q 1681 391 2138 391 
Q 2594 391 2855 752 
Q 3116 1113 3116 1747 
z
M 1159 2969 
Q 1341 3281 1617 3432 
Q 1894 3584 2278 3584 
Q 2916 3584 3314 3078 
Q 3713 2572 3713 1747 
Q 3713 922 3314 415 
Q 2916 -91 2278 -91 
Q 1894 -91 1617 61 
Q 1341 213 1159 525 
L 1159 0 
L 581 0 
L 581 4863 
L 1159 4863 
L 1159 2969 
z
" transform="scale(0.015625)"/>
      </defs>
      <use xlink:href="#DejaVuSans-4b"/>
      <use xlink:href="#DejaVuSans-6f" x="60.576172"/>
      <use xlink:href="#DejaVuSans-6e" x="121.757812"/>
      <use xlink:href="#DejaVuSans-64" x="185.136719"/>
      <use xlink:href="#DejaVuSans-65" x="248.613281"/>
      <use xlink:href="#DejaVuSans-6e" x="310.136719"/>
      <use xlink:href="#DejaVuSans-73" x="373.515625"/>
      <use xlink:href="#DejaVuSans-61" x="425.615234"/>
      <use xlink:href="#DejaVuSans-74" x="486.894531"/>
      <use xlink:href="#DejaVuSans-6f" x="526.103516"/>
      <use xlink:href="#DejaVuSans-72" x="587.285156"/>
      <use xlink:href="#DejaVuSans-64" x="626.648438"/>
      <use xlink:href="#DejaVuSans-72" x="690.125"/>
      <use xlink:href="#DejaVuSans-75" x="731.238281"/>
      <use xlink:href="#DejaVuSans-63" x="794.617188"/>
      <use xlink:href="#DejaVuSans-6b" x="849.597656"/>
      <use xlink:href="#DejaVuSans-20" x="907.507812"/>
      <use xlink:href="#DejaVuSans-69" x="939.294922"/>
      <use xlink:href="#DejaVuSans-6e" x="967.078125"/>
      <use xlink:href="#DejaVuSans-20" x="1030.457031"/>
      <use xlink:href="#DejaVuSans-62" x="1062.244141"/>
      <use xlink:href="#DejaVuSans-61" x="1125.720703"/>
      <use xlink:href="#DejaVuSans-72" x="1187"/>
     </g>
    </g>
   </g>
   <g id="matplotlib.axis_2">
    <g id="ytick_1">
     <g id="line2d_9">
      <defs>
       <path id="mbb51719c1a" d="M 0 0 
L -3.5 0 
" style="stroke: #000000; stroke-width: 0.8"/>
      </defs>
      <g>
       <use xlink:href="#mbb51719c1a" x="172.8" y="650.412" style="stroke: #000000; stroke-width: 0.8"/>
      </g>
     </g>
     <g id="text_10">
      <!-- 0.0 -->
      <g transform="translate(137.174375 657.250594) scale(0.18 -0.18)">
       <defs>
        <path id="DejaVuSans-2e" d="M 684 794 
L 1344 794 
L 1344 0 
L 684 0 
L 684 794 
z
" transform="scale(0.015625)"/>
       </defs>
       <use xlink:href="#DejaVuSans-30"/>
       <use xlink:href="#DejaVuSans-2e" x="63.623047"/>
       <use xlink:href="#DejaVuSans-30" x="95.410156"/>
      </g>
     </g>
    </g>
    <g id="ytick_2">
     <g id="line2d_10">
      <g>
       <use xlink:href="#mbb51719c1a" x="172.8" y="530.580272" style="stroke: #000000; stroke-width: 0.8"/>
      </g>
     </g>
     <g id="text_11">
      <!-- 0.5 -->
      <g transform="translate(137.174375 537.418866) scale(0.18 -0.18)">
       <use xlink:href="#DejaVuSans-30"/>
       <use xlink:href="#DejaVuSans-2e" x="63.623047"/>
       <use xlink:href="#DejaVuSans-35" x="95.410156"/>
      </g>
     </g>
    </g>
    <g id="ytick_3">
     <g id="line2d_11">
      <g>
       <use xlink:href="#mbb51719c1a" x="172.8" y="410.748544" style="stroke: #000000; stroke-width: 0.8"/>
      </g>
     </g>
     <g id="text_12">
      <!-- 1.0 -->
      <g transform="translate(137.174375 417.587138) scale(0.18 -0.18)">
       <defs>
        <path id="DejaVuSans-31" d="M 794 531 
L 1825 531 
L 1825 4091 
L 703 3866 
L 703 4441 
L 1819 4666 
L 2450 4666 
L 2450 531 
L 3481 531 
L 3481 0 
L 794 0 
L 794 531 
z
" transform="scale(0.015625)"/>
       </defs>
       <use xlink:href="#DejaVuSans-31"/>
       <use xlink:href="#DejaVuSans-2e" x="63.623047"/>
       <use xlink:href="#DejaVuSans-30" x="95.410156"/>
      </g>
     </g>
    </g>
    <g id="ytick_4">
     <g id="line2d_12">
      <g>
       <use xlink:href="#mbb51719c1a" x="172.8" y="290.916816" style="stroke: #000000; stroke-width: 0.8"/>
      </g>
     </g>
     <g id="text_13">
      <!-- 1.5 -->
      <g transform="translate(137.174375 297.75541) scale(0.18 -0.18)">
       <use xlink:href="#DejaVuSans-31"/>
       <use xlink:href="#DejaVuSans-2e" x="63.623047"/>
       <use xlink:href="#DejaVuSans-35" x="95.410156"/>
      </g>
     </g>
    </g>
    <g id="ytick_5">
     <g id="line2d_13">
      <g>
       <use xlink:href="#mbb51719c1a" x="172.8" y="171.085088" style="stroke: #000000; stroke-width: 0.8"/>
      </g>
     </g>
     <g id="text_14">
      <!-- 2.0 -->
      <g transform="translate(137.174375 177.923682) scale(0.18 -0.18)">
       <defs>
        <path id="DejaVuSans-32" d="M 1228 531 
L 3431 531 
L 3431 0 
L 469 0 
L 469 531 
Q 828 903 1448 1529 
Q 2069 2156 2228 2338 
Q 2531 2678 2651 2914 
Q 2772 3150 2772 3378 
Q 2772 3750 2511 3984 
Q 2250 4219 1831 4219 
Q 1534 4219 1204 4116 
Q 875 4013 500 3803 
L 500 4441 
Q 881 4594 1212 4672 
Q 1544 4750 1819 4750 
Q 2544 4750 2975 4387 
Q 3406 4025 3406 3419 
Q 3406 3131 3298 2873 
Q 3191 2616 2906 2266 
Q 2828 2175 2409 1742 
Q 1991 1309 1228 531 
z
" transform="scale(0.015625)"/>
       </defs>
       <use xlink:href="#DejaVuSans-32"/>
       <use xlink:href="#DejaVuSans-2e" x="63.623047"/>
       <use xlink:href="#DejaVuSans-30" x="95.410156"/>
      </g>
     </g>
    </g>
    <g id="text_15">
     <!-- Exergievernichtung in MW -->
     <g transform="translate(129.430937 487.119938) rotate(-90) scale(0.18 -0.18)">
      <defs>
       <path id="DejaVuSans-45" d="M 628 4666 
L 3578 4666 
L 3578 4134 
L 1259 4134 
L 1259 2753 
L 3481 2753 
L 3481 2222 
L 1259 2222 
L 1259 531 
L 3634 531 
L 3634 0 
L 628 0 
L 628 4666 
z
" transform="scale(0.015625)"/>
       <path id="DejaVuSans-78" d="M 3513 3500 
L 2247 1797 
L 3578 0 
L 2900 0 
L 1881 1375 
L 863 0 
L 184 0 
L 1544 1831 
L 300 3500 
L 978 3500 
L 1906 2253 
L 2834 3500 
L 3513 3500 
z
" transform="scale(0.015625)"/>
       <path id="DejaVuSans-67" d="M 2906 1791 
Q 2906 2416 2648 2759 
Q 2391 3103 1925 3103 
Q 1463 3103 1205 2759 
Q 947 2416 947 1791 
Q 947 1169 1205 825 
Q 1463 481 1925 481 
Q 2391 481 2648 825 
Q 2906 1169 2906 1791 
z
M 3481 434 
Q 3481 -459 3084 -895 
Q 2688 -1331 1869 -1331 
Q 1566 -1331 1297 -1286 
Q 1028 -1241 775 -1147 
L 775 -588 
Q 1028 -725 1275 -790 
Q 1522 -856 1778 -856 
Q 2344 -856 2625 -561 
Q 2906 -266 2906 331 
L 2906 616 
Q 2728 306 2450 153 
Q 2172 0 1784 0 
Q 1141 0 747 490 
Q 353 981 353 1791 
Q 353 2603 747 3093 
Q 1141 3584 1784 3584 
Q 2172 3584 2450 3431 
Q 2728 3278 2906 2969 
L 2906 3500 
L 3481 3500 
L 3481 434 
z
" transform="scale(0.015625)"/>
       <path id="DejaVuSans-76" d="M 191 3500 
L 800 3500 
L 1894 563 
L 2988 3500 
L 3597 3500 
L 2284 0 
L 1503 0 
L 191 3500 
z
" transform="scale(0.015625)"/>
       <path id="DejaVuSans-68" d="M 3513 2113 
L 3513 0 
L 2938 0 
L 2938 2094 
Q 2938 2591 2744 2837 
Q 2550 3084 2163 3084 
Q 1697 3084 1428 2787 
Q 1159 2491 1159 1978 
L 1159 0 
L 581 0 
L 581 4863 
L 1159 4863 
L 1159 2956 
Q 1366 3272 1645 3428 
Q 1925 3584 2291 3584 
Q 2894 3584 3203 3211 
Q 3513 2838 3513 2113 
z
" transform="scale(0.015625)"/>
       <path id="DejaVuSans-4d" d="M 628 4666 
L 1569 4666 
L 2759 1491 
L 3956 4666 
L 4897 4666 
L 4897 0 
L 4281 0 
L 4281 4097 
L 3078 897 
L 2444 897 
L 1241 4097 
L 1241 0 
L 628 0 
L 628 4666 
z
" transform="scale(0.015625)"/>
       <path id="DejaVuSans-57" d="M 213 4666 
L 850 4666 
L 1831 722 
L 2809 4666 
L 3519 4666 
L 4500 722 
L 5478 4666 
L 6119 4666 
L 4947 0 
L 4153 0 
L 3169 4050 
L 2175 0 
L 1381 0 
L 213 4666 
z
" transform="scale(0.015625)"/>
      </defs>
      <use xlink:href="#DejaVuSans-45"/>
      <use xlink:href="#DejaVuSans-78" x="63.183594"/>
      <use xlink:href="#DejaVuSans-65" x="119.238281"/>
      <use xlink:href="#DejaVuSans-72" x="180.761719"/>
      <use xlink:href="#DejaVuSans-67" x="220.125"/>
      <use xlink:href="#DejaVuSans-69" x="283.601562"/>
      <use xlink:href="#DejaVuSans-65" x="311.384766"/>
      <use xlink:href="#DejaVuSans-76" x="372.908203"/>
      <use xlink:href="#DejaVuSans-65" x="432.087891"/>
      <use xlink:href="#DejaVuSans-72" x="493.611328"/>
      <use xlink:href="#DejaVuSans-6e" x="532.974609"/>
      <use xlink:href="#DejaVuSans-69" x="596.353516"/>
      <use xlink:href="#DejaVuSans-63" x="624.136719"/>
      <use xlink:href="#DejaVuSans-68" x="679.117188"/>
      <use xlink:href="#DejaVuSans-74" x="742.496094"/>
      <use xlink:href="#DejaVuSans-75" x="781.705078"/>
      <use xlink:href="#DejaVuSans-6e" x="845.083984"/>
      <use xlink:href="#DejaVuSans-67" x="908.462891"/>
      <use xlink:href="#DejaVuSans-20" x="971.939453"/>
      <use xlink:href="#DejaVuSans-69" x="1003.726562"/>
      <use xlink:href="#DejaVuSans-6e" x="1031.509766"/>
      <use xlink:href="#DejaVuSans-20" x="1094.888672"/>
      <use xlink:href="#DejaVuSans-4d" x="1126.675781"/>
      <use xlink:href="#DejaVuSans-57" x="1212.955078"/>
     </g>
    </g>
   </g>
   <g id="patch_183">
    <path d="M 172.8 650.412 
L 172.8 87.696 
" style="fill: none; stroke: #000000; stroke-width: 0.8; stroke-linejoin: miter; stroke-linecap: square"/>
   </g>
   <g id="patch_184">
    <path d="M 1244.16 650.412 
L 1244.16 87.696 
" style="fill: none; stroke: #000000; stroke-width: 0.8; stroke-linejoin: miter; stroke-linecap: square"/>
   </g>
   <g id="patch_185">
    <path d="M 172.8 650.412 
L 1244.16 650.412 
" style="fill: none; stroke: #000000; stroke-width: 0.8; stroke-linejoin: miter; stroke-linecap: square"/>
   </g>
   <g id="patch_186">
    <path d="M 172.8 87.696 
L 1244.16 87.696 
" style="fill: none; stroke: #000000; stroke-width: 0.8; stroke-linejoin: miter; stroke-linecap: square"/>
   </g>
   <g id="legend_1">
    <g id="patch_187">
     <path d="M 937.915312 641.412 
L 1231.56 641.412 
Q 1235.16 641.412 1235.16 637.812 
L 1235.16 401.826375 
Q 1235.16 398.226375 1231.56 398.226375 
L 937.915312 398.226375 
Q 934.315312 398.226375 934.315312 401.826375 
L 934.315312 637.812 
Q 934.315312 641.412 937.915312 641.412 
z
" style="fill: #ffffff; opacity: 0.8; stroke: #cccccc; stroke-linejoin: miter"/>
    </g>
    <g id="patch_188">
     <path d="M 941.515312 419.103563 
L 977.515312 419.103563 
L 977.515312 406.503563 
L 941.515312 406.503563 
z
" style="fill: #1f77b4"/>
    </g>
    <g id="text_16">
     <!-- Gas cooler -->
     <g transform="translate(991.915312 419.103563) scale(0.18 -0.18)">
      <defs>
       <path id="DejaVuSans-47" d="M 3809 666 
L 3809 1919 
L 2778 1919 
L 2778 2438 
L 4434 2438 
L 4434 434 
Q 4069 175 3628 42 
Q 3188 -91 2688 -91 
Q 1594 -91 976 548 
Q 359 1188 359 2328 
Q 359 3472 976 4111 
Q 1594 4750 2688 4750 
Q 3144 4750 3555 4637 
Q 3966 4525 4313 4306 
L 4313 3634 
Q 3963 3931 3569 4081 
Q 3175 4231 2741 4231 
Q 1884 4231 1454 3753 
Q 1025 3275 1025 2328 
Q 1025 1384 1454 906 
Q 1884 428 2741 428 
Q 3075 428 3337 486 
Q 3600 544 3809 666 
z
" transform="scale(0.015625)"/>
       <path id="DejaVuSans-6c" d="M 603 4863 
L 1178 4863 
L 1178 0 
L 603 0 
L 603 4863 
z
" transform="scale(0.015625)"/>
      </defs>
      <use xlink:href="#DejaVuSans-47"/>
      <use xlink:href="#DejaVuSans-61" x="77.490234"/>
      <use xlink:href="#DejaVuSans-73" x="138.769531"/>
      <use xlink:href="#DejaVuSans-20" x="190.869141"/>
      <use xlink:href="#DejaVuSans-63" x="222.65625"/>
      <use xlink:href="#DejaVuSans-6f" x="277.636719"/>
      <use xlink:href="#DejaVuSans-6f" x="338.818359"/>
      <use xlink:href="#DejaVuSans-6c" x="400"/>
      <use xlink:href="#DejaVuSans-65" x="427.783203"/>
      <use xlink:href="#DejaVuSans-72" x="489.306641"/>
     </g>
    </g>
    <g id="patch_189">
     <path d="M 941.515312 445.524188 
L 977.515312 445.524188 
L 977.515312 432.924188 
L 941.515312 432.924188 
z
" style="fill: #ff7f0e"/>
    </g>
    <g id="text_17">
     <!-- Evaporator -->
     <g transform="translate(991.915312 445.524188) scale(0.18 -0.18)">
      <defs>
       <path id="DejaVuSans-70" d="M 1159 525 
L 1159 -1331 
L 581 -1331 
L 581 3500 
L 1159 3500 
L 1159 2969 
Q 1341 3281 1617 3432 
Q 1894 3584 2278 3584 
Q 2916 3584 3314 3078 
Q 3713 2572 3713 1747 
Q 3713 922 3314 415 
Q 2916 -91 2278 -91 
Q 1894 -91 1617 61 
Q 1341 213 1159 525 
z
M 3116 1747 
Q 3116 2381 2855 2742 
Q 2594 3103 2138 3103 
Q 1681 3103 1420 2742 
Q 1159 2381 1159 1747 
Q 1159 1113 1420 752 
Q 1681 391 2138 391 
Q 2594 391 2855 752 
Q 3116 1113 3116 1747 
z
" transform="scale(0.015625)"/>
      </defs>
      <use xlink:href="#DejaVuSans-45"/>
      <use xlink:href="#DejaVuSans-76" x="63.183594"/>
      <use xlink:href="#DejaVuSans-61" x="122.363281"/>
      <use xlink:href="#DejaVuSans-70" x="183.642578"/>
      <use xlink:href="#DejaVuSans-6f" x="247.119141"/>
      <use xlink:href="#DejaVuSans-72" x="308.300781"/>
      <use xlink:href="#DejaVuSans-61" x="349.414062"/>
      <use xlink:href="#DejaVuSans-74" x="410.693359"/>
      <use xlink:href="#DejaVuSans-6f" x="449.902344"/>
      <use xlink:href="#DejaVuSans-72" x="511.083984"/>
     </g>
    </g>
    <g id="patch_190">
     <path d="M 941.515312 471.944813 
L 977.515312 471.944813 
L 977.515312 459.344813 
L 941.515312 459.344813 
z
" style="fill: #2ca02c"/>
    </g>
    <g id="text_18">
     <!-- Valve 1 -->
     <g transform="translate(991.915312 471.944813) scale(0.18 -0.18)">
      <defs>
       <path id="DejaVuSans-56" d="M 1831 0 
L 50 4666 
L 709 4666 
L 2188 738 
L 3669 4666 
L 4325 4666 
L 2547 0 
L 1831 0 
z
" transform="scale(0.015625)"/>
      </defs>
      <use xlink:href="#DejaVuSans-56"/>
      <use xlink:href="#DejaVuSans-61" x="60.658203"/>
      <use xlink:href="#DejaVuSans-6c" x="121.9375"/>
      <use xlink:href="#DejaVuSans-76" x="149.720703"/>
      <use xlink:href="#DejaVuSans-65" x="208.900391"/>
      <use xlink:href="#DejaVuSans-20" x="270.423828"/>
      <use xlink:href="#DejaVuSans-31" x="302.210938"/>
     </g>
    </g>
    <g id="patch_191">
     <path d="M 941.515312 498.365438 
L 977.515312 498.365438 
L 977.515312 485.765438 
L 941.515312 485.765438 
z
" style="fill: #d62728"/>
    </g>
    <g id="text_19">
     <!-- Valve 2 -->
     <g transform="translate(991.915312 498.365438) scale(0.18 -0.18)">
      <use xlink:href="#DejaVuSans-56"/>
      <use xlink:href="#DejaVuSans-61" x="60.658203"/>
      <use xlink:href="#DejaVuSans-6c" x="121.9375"/>
      <use xlink:href="#DejaVuSans-76" x="149.720703"/>
      <use xlink:href="#DejaVuSans-65" x="208.900391"/>
      <use xlink:href="#DejaVuSans-20" x="270.423828"/>
      <use xlink:href="#DejaVuSans-32" x="302.210938"/>
     </g>
    </g>
    <g id="patch_192">
     <path d="M 941.515312 524.786063 
L 977.515312 524.786063 
L 977.515312 512.186063 
L 941.515312 512.186063 
z
" style="fill: #9467bd"/>
    </g>
    <g id="text_20">
     <!-- Compressor 1 -->
     <g transform="translate(991.915312 524.786063) scale(0.18 -0.18)">
      <defs>
       <path id="DejaVuSans-43" d="M 4122 4306 
L 4122 3641 
Q 3803 3938 3442 4084 
Q 3081 4231 2675 4231 
Q 1875 4231 1450 3742 
Q 1025 3253 1025 2328 
Q 1025 1406 1450 917 
Q 1875 428 2675 428 
Q 3081 428 3442 575 
Q 3803 722 4122 1019 
L 4122 359 
Q 3791 134 3420 21 
Q 3050 -91 2638 -91 
Q 1578 -91 968 557 
Q 359 1206 359 2328 
Q 359 3453 968 4101 
Q 1578 4750 2638 4750 
Q 3056 4750 3426 4639 
Q 3797 4528 4122 4306 
z
" transform="scale(0.015625)"/>
       <path id="DejaVuSans-6d" d="M 3328 2828 
Q 3544 3216 3844 3400 
Q 4144 3584 4550 3584 
Q 5097 3584 5394 3201 
Q 5691 2819 5691 2113 
L 5691 0 
L 5113 0 
L 5113 2094 
Q 5113 2597 4934 2840 
Q 4756 3084 4391 3084 
Q 3944 3084 3684 2787 
Q 3425 2491 3425 1978 
L 3425 0 
L 2847 0 
L 2847 2094 
Q 2847 2600 2669 2842 
Q 2491 3084 2119 3084 
Q 1678 3084 1418 2786 
Q 1159 2488 1159 1978 
L 1159 0 
L 581 0 
L 581 3500 
L 1159 3500 
L 1159 2956 
Q 1356 3278 1631 3431 
Q 1906 3584 2284 3584 
Q 2666 3584 2933 3390 
Q 3200 3197 3328 2828 
z
" transform="scale(0.015625)"/>
      </defs>
      <use xlink:href="#DejaVuSans-43"/>
      <use xlink:href="#DejaVuSans-6f" x="69.824219"/>
      <use xlink:href="#DejaVuSans-6d" x="131.005859"/>
      <use xlink:href="#DejaVuSans-70" x="228.417969"/>
      <use xlink:href="#DejaVuSans-72" x="291.894531"/>
      <use xlink:href="#DejaVuSans-65" x="330.757812"/>
      <use xlink:href="#DejaVuSans-73" x="392.28125"/>
      <use xlink:href="#DejaVuSans-73" x="444.380859"/>
      <use xlink:href="#DejaVuSans-6f" x="496.480469"/>
      <use xlink:href="#DejaVuSans-72" x="557.662109"/>
      <use xlink:href="#DejaVuSans-20" x="598.775391"/>
      <use xlink:href="#DejaVuSans-31" x="630.5625"/>
     </g>
    </g>
    <g id="patch_193">
     <path d="M 941.515312 551.206688 
L 977.515312 551.206688 
L 977.515312 538.606688 
L 941.515312 538.606688 
z
" style="fill: #8c564b"/>
    </g>
    <g id="text_21">
     <!-- Compressor 2 -->
     <g transform="translate(991.915312 551.206688) scale(0.18 -0.18)">
      <use xlink:href="#DejaVuSans-43"/>
      <use xlink:href="#DejaVuSans-6f" x="69.824219"/>
      <use xlink:href="#DejaVuSans-6d" x="131.005859"/>
      <use xlink:href="#DejaVuSans-70" x="228.417969"/>
      <use xlink:href="#DejaVuSans-72" x="291.894531"/>
      <use xlink:href="#DejaVuSans-65" x="330.757812"/>
      <use xlink:href="#DejaVuSans-73" x="392.28125"/>
      <use xlink:href="#DejaVuSans-73" x="444.380859"/>
      <use xlink:href="#DejaVuSans-6f" x="496.480469"/>
      <use xlink:href="#DejaVuSans-72" x="557.662109"/>
      <use xlink:href="#DejaVuSans-20" x="598.775391"/>
      <use xlink:href="#DejaVuSans-32" x="630.5625"/>
     </g>
    </g>
    <g id="patch_194">
     <path d="M 941.515312 577.627313 
L 977.515312 577.627313 
L 977.515312 565.027313 
L 941.515312 565.027313 
z
" style="fill: #e377c2"/>
    </g>
    <g id="text_22">
     <!-- Internal Heat Exchanger 1 -->
     <g transform="translate(991.915312 577.627313) scale(0.18 -0.18)">
      <defs>
       <path id="DejaVuSans-49" d="M 628 4666 
L 1259 4666 
L 1259 0 
L 628 0 
L 628 4666 
z
" transform="scale(0.015625)"/>
       <path id="DejaVuSans-48" d="M 628 4666 
L 1259 4666 
L 1259 2753 
L 3553 2753 
L 3553 4666 
L 4184 4666 
L 4184 0 
L 3553 0 
L 3553 2222 
L 1259 2222 
L 1259 0 
L 628 0 
L 628 4666 
z
" transform="scale(0.015625)"/>
      </defs>
      <use xlink:href="#DejaVuSans-49"/>
      <use xlink:href="#DejaVuSans-6e" x="29.492188"/>
      <use xlink:href="#DejaVuSans-74" x="92.871094"/>
      <use xlink:href="#DejaVuSans-65" x="132.080078"/>
      <use xlink:href="#DejaVuSans-72" x="193.603516"/>
      <use xlink:href="#DejaVuSans-6e" x="232.966797"/>
      <use xlink:href="#DejaVuSans-61" x="296.345703"/>
      <use xlink:href="#DejaVuSans-6c" x="357.625"/>
      <use xlink:href="#DejaVuSans-20" x="385.408203"/>
      <use xlink:href="#DejaVuSans-48" x="417.195312"/>
      <use xlink:href="#DejaVuSans-65" x="492.390625"/>
      <use xlink:href="#DejaVuSans-61" x="553.914062"/>
      <use xlink:href="#DejaVuSans-74" x="615.193359"/>
      <use xlink:href="#DejaVuSans-20" x="654.402344"/>
      <use xlink:href="#DejaVuSans-45" x="686.189453"/>
      <use xlink:href="#DejaVuSans-78" x="749.373047"/>
      <use xlink:href="#DejaVuSans-63" x="806.802734"/>
      <use xlink:href="#DejaVuSans-68" x="861.783203"/>
      <use xlink:href="#DejaVuSans-61" x="925.162109"/>
      <use xlink:href="#DejaVuSans-6e" x="986.441406"/>
      <use xlink:href="#DejaVuSans-67" x="1049.820312"/>
      <use xlink:href="#DejaVuSans-65" x="1113.296875"/>
      <use xlink:href="#DejaVuSans-72" x="1174.820312"/>
      <use xlink:href="#DejaVuSans-20" x="1215.933594"/>
      <use xlink:href="#DejaVuSans-31" x="1247.720703"/>
     </g>
    </g>
    <g id="patch_195">
     <path d="M 941.515312 604.047938 
L 977.515312 604.047938 
L 977.515312 591.447938 
L 941.515312 591.447938 
z
" style="fill: #7f7f7f"/>
    </g>
    <g id="text_23">
     <!-- Internal Heat Exchanger 2 -->
     <g transform="translate(991.915312 604.047938) scale(0.18 -0.18)">
      <use xlink:href="#DejaVuSans-49"/>
      <use xlink:href="#DejaVuSans-6e" x="29.492188"/>
      <use xlink:href="#DejaVuSans-74" x="92.871094"/>
      <use xlink:href="#DejaVuSans-65" x="132.080078"/>
      <use xlink:href="#DejaVuSans-72" x="193.603516"/>
      <use xlink:href="#DejaVuSans-6e" x="232.966797"/>
      <use xlink:href="#DejaVuSans-61" x="296.345703"/>
      <use xlink:href="#DejaVuSans-6c" x="357.625"/>
      <use xlink:href="#DejaVuSans-20" x="385.408203"/>
      <use xlink:href="#DejaVuSans-48" x="417.195312"/>
      <use xlink:href="#DejaVuSans-65" x="492.390625"/>
      <use xlink:href="#DejaVuSans-61" x="553.914062"/>
      <use xlink:href="#DejaVuSans-74" x="615.193359"/>
      <use xlink:href="#DejaVuSans-20" x="654.402344"/>
      <use xlink:href="#DejaVuSans-45" x="686.189453"/>
      <use xlink:href="#DejaVuSans-78" x="749.373047"/>
      <use xlink:href="#DejaVuSans-63" x="806.802734"/>
      <use xlink:href="#DejaVuSans-68" x="861.783203"/>
      <use xlink:href="#DejaVuSans-61" x="925.162109"/>
      <use xlink:href="#DejaVuSans-6e" x="986.441406"/>
      <use xlink:href="#DejaVuSans-67" x="1049.820312"/>
      <use xlink:href="#DejaVuSans-65" x="1113.296875"/>
      <use xlink:href="#DejaVuSans-72" x="1174.820312"/>
      <use xlink:href="#DejaVuSans-20" x="1215.933594"/>
      <use xlink:href="#DejaVuSans-32" x="1247.720703"/>
     </g>
    </g>
    <g id="patch_196">
     <path d="M 941.515312 630.468563 
L 977.515312 630.468563 
L 977.515312 617.868563 
L 941.515312 617.868563 
z
" style="fill: #bcbd22"/>
    </g>
    <g id="text_24">
     <!-- Merge -->
     <g transform="translate(991.915312 630.468563) scale(0.18 -0.18)">
      <use xlink:href="#DejaVuSans-4d"/>
      <use xlink:href="#DejaVuSans-65" x="86.279297"/>
      <use xlink:href="#DejaVuSans-72" x="147.802734"/>
      <use xlink:href="#DejaVuSans-67" x="187.166016"/>
      <use xlink:href="#DejaVuSans-65" x="250.642578"/>
     </g>
    </g>
   </g>
  </g>
 </g>
 <defs>
  <clipPath id="p591f8c703b">
   <rect x="172.8" y="87.696" width="1071.36" height="562.716"/>
  </clipPath>
 </defs>
</svg>
