<?xml version="1.0" encoding="utf-8" standalone="no"?>
<!DOCTYPE svg PUBLIC "-//W3C//DTD SVG 1.1//EN"
  "http://www.w3.org/Graphics/SVG/1.1/DTD/svg11.dtd">
<svg xmlns:xlink="http://www.w3.org/1999/xlink" width="460.8pt" height="345.6pt" viewBox="0 0 460.8 345.6" xmlns="http://www.w3.org/2000/svg" version="1.1">
 <metadata>
  <rdf:RDF xmlns:dc="http://purl.org/dc/elements/1.1/" xmlns:cc="http://creativecommons.org/ns#" xmlns:rdf="http://www.w3.org/1999/02/22-rdf-syntax-ns#">
   <cc:Work>
    <dc:type rdf:resource="http://purl.org/dc/dcmitype/StillImage"/>
    <dc:date>2023-03-24T12:54:27.179484</dc:date>
    <dc:format>image/svg+xml</dc:format>
    <dc:creator>
     <cc:Agent>
      <dc:title>Matplotlib v3.6.1, https://matplotlib.org/</dc:title>
     </cc:Agent>
    </dc:creator>
   </cc:Work>
  </rdf:RDF>
 </metadata>
 <defs>
  <style type="text/css">*{stroke-linejoin: round; stroke-linecap: butt}</style>
 </defs>
 <g id="figure_1">
  <g id="patch_1">
   <path d="M 0 345.6 
L 460.8 345.6 
L 460.8 0 
L 0 0 
z
" style="fill: #ffffff"/>
  </g>
  <g id="axes_1">
   <g id="patch_2">
    <path d="M 57.6 307.584 
L 414.72 307.584 
L 414.72 41.472 
L 57.6 41.472 
z
" style="fill: #ffffff"/>
   </g>
   <g id="patch_3">
    <path d="M 73.832727 307.584 
L 78.751736 307.584 
L 78.751736 306.581053 
L 73.832727 306.581053 
z
" clip-path="url(#pd10627cf0a)" style="fill: #1f77b4"/>
   </g>
   <g id="patch_4">
    <path d="M 90.660913 307.584 
L 95.579922 307.584 
L 95.579922 304.804464 
L 90.660913 304.804464 
z
" clip-path="url(#pd10627cf0a)" style="fill: #1f77b4"/>
   </g>
   <g id="patch_5">
    <path d="M 107.4891 307.584 
L 112.408108 307.584 
L 112.408108 303.105368 
L 107.4891 303.105368 
z
" clip-path="url(#pd10627cf0a)" style="fill: #1f77b4"/>
   </g>
   <g id="patch_6">
    <path d="M 124.317286 307.584 
L 129.236294 307.584 
L 129.236294 301.47579 
L 124.317286 301.47579 
z
" clip-path="url(#pd10627cf0a)" style="fill: #1f77b4"/>
   </g>
   <g id="patch_7">
    <path d="M 141.145472 307.584 
L 146.06448 307.584 
L 146.06448 299.909203 
L 141.145472 299.909203 
z
" clip-path="url(#pd10627cf0a)" style="fill: #1f77b4"/>
   </g>
   <g id="patch_8">
    <path d="M 157.973658 307.584 
L 162.892666 307.584 
L 162.892666 298.400182 
L 157.973658 298.400182 
z
" clip-path="url(#pd10627cf0a)" style="fill: #1f77b4"/>
   </g>
   <g id="patch_9">
    <path d="M 174.801844 307.584 
L 179.720853 307.584 
L 179.720853 296.94415 
L 174.801844 296.94415 
z
" clip-path="url(#pd10627cf0a)" style="fill: #1f77b4"/>
   </g>
   <g id="patch_10">
    <path d="M 191.63003 307.584 
L 196.549039 307.584 
L 196.549039 295.537193 
L 191.63003 295.537193 
z
" clip-path="url(#pd10627cf0a)" style="fill: #1f77b4"/>
   </g>
   <g id="patch_11">
    <path d="M 208.458217 307.584 
L 213.377225 307.584 
L 213.377225 294.175926 
L 208.458217 294.175926 
z
" clip-path="url(#pd10627cf0a)" style="fill: #1f77b4"/>
   </g>
   <g id="patch_12">
    <path d="M 225.286403 307.584 
L 230.205411 307.584 
L 230.205411 292.857385 
L 225.286403 292.857385 
z
" clip-path="url(#pd10627cf0a)" style="fill: #1f77b4"/>
   </g>
   <g id="patch_13">
    <path d="M 242.114589 307.584 
L 247.033597 307.584 
L 247.033597 291.578954 
L 242.114589 291.578954 
z
" clip-path="url(#pd10627cf0a)" style="fill: #1f77b4"/>
   </g>
   <g id="patch_14">
    <path d="M 258.942775 307.584 
L 263.861783 307.584 
L 263.861783 290.3383 
L 258.942775 290.3383 
z
" clip-path="url(#pd10627cf0a)" style="fill: #1f77b4"/>
   </g>
   <g id="patch_15">
    <path d="M 275.770961 307.584 
L 280.68997 307.584 
L 280.68997 289.133331 
L 275.770961 289.133331 
z
" clip-path="url(#pd10627cf0a)" style="fill: #1f77b4"/>
   </g>
   <g id="patch_16">
    <path d="M 292.599147 307.584 
L 297.518156 307.584 
L 297.518156 287.962154 
L 292.599147 287.962154 
z
" clip-path="url(#pd10627cf0a)" style="fill: #1f77b4"/>
   </g>
   <g id="patch_17">
    <path d="M 309.427334 307.584 
L 314.346342 307.584 
L 314.346342 286.823049 
L 309.427334 286.823049 
z
" clip-path="url(#pd10627cf0a)" style="fill: #1f77b4"/>
   </g>
   <g id="patch_18">
    <path d="M 326.25552 307.584 
L 331.174528 307.584 
L 331.174528 285.714442 
L 326.25552 285.714442 
z
" clip-path="url(#pd10627cf0a)" style="fill: #1f77b4"/>
   </g>
   <g id="patch_19">
    <path d="M 343.083706 307.584 
L 348.002714 307.584 
L 348.002714 284.634889 
L 343.083706 284.634889 
z
" clip-path="url(#pd10627cf0a)" style="fill: #1f77b4"/>
   </g>
   <g id="patch_20">
    <path d="M 359.911892 307.584 
L 364.8309 307.584 
L 364.8309 283.583057 
L 359.911892 283.583057 
z
" clip-path="url(#pd10627cf0a)" style="fill: #1f77b4"/>
   </g>
   <g id="patch_21">
    <path d="M 376.740078 307.584 
L 381.659087 307.584 
L 381.659087 282.557711 
L 376.740078 282.557711 
z
" clip-path="url(#pd10627cf0a)" style="fill: #1f77b4"/>
   </g>
   <g id="patch_22">
    <path d="M 393.568264 307.584 
L 398.487273 307.584 
L 398.487273 281.557706 
L 393.568264 281.557706 
z
" clip-path="url(#pd10627cf0a)" style="fill: #1f77b4"/>
   </g>
   <g id="patch_23">
    <path d="M 73.832727 306.581053 
L 78.751736 306.581053 
L 78.751736 290.033492 
L 73.832727 290.033492 
z
" clip-path="url(#pd10627cf0a)" style="fill: #ff7f0e"/>
   </g>
   <g id="patch_24">
    <path d="M 90.660913 304.804464 
L 95.579922 304.804464 
L 95.579922 288.283776 
L 90.660913 288.283776 
z
" clip-path="url(#pd10627cf0a)" style="fill: #ff7f0e"/>
   </g>
   <g id="patch_25">
    <path d="M 107.4891 303.105368 
L 112.408108 303.105368 
L 112.408108 286.61293 
L 107.4891 286.61293 
z
" clip-path="url(#pd10627cf0a)" style="fill: #ff7f0e"/>
   </g>
   <g id="patch_26">
    <path d="M 124.317286 301.47579 
L 129.236294 301.47579 
L 129.236294 285.012485 
L 124.317286 285.012485 
z
" clip-path="url(#pd10627cf0a)" style="fill: #ff7f0e"/>
   </g>
   <g id="patch_27">
    <path d="M 141.145472 299.909203 
L 146.06448 299.909203 
L 146.06448 283.475567 
L 141.145472 283.475567 
z
" clip-path="url(#pd10627cf0a)" style="fill: #ff7f0e"/>
   </g>
   <g id="patch_28">
    <path d="M 157.973658 298.400182 
L 162.892666 298.400182 
L 162.892666 281.996505 
L 157.973658 281.996505 
z
" clip-path="url(#pd10627cf0a)" style="fill: #ff7f0e"/>
   </g>
   <g id="patch_29">
    <path d="M 174.801844 296.94415 
L 179.720853 296.94415 
L 179.720853 280.570542 
L 174.801844 280.570542 
z
" clip-path="url(#pd10627cf0a)" style="fill: #ff7f0e"/>
   </g>
   <g id="patch_30">
    <path d="M 191.63003 295.537193 
L 196.549039 295.537193 
L 196.549039 279.193635 
L 191.63003 279.193635 
z
" clip-path="url(#pd10627cf0a)" style="fill: #ff7f0e"/>
   </g>
   <g id="patch_31">
    <path d="M 208.458217 294.175926 
L 213.377225 294.175926 
L 213.377225 277.862301 
L 208.458217 277.862301 
z
" clip-path="url(#pd10627cf0a)" style="fill: #ff7f0e"/>
   </g>
   <g id="patch_32">
    <path d="M 225.286403 292.857385 
L 230.205411 292.857385 
L 230.205411 276.573506 
L 225.286403 276.573506 
z
" clip-path="url(#pd10627cf0a)" style="fill: #ff7f0e"/>
   </g>
   <g id="patch_33">
    <path d="M 242.114589 291.578954 
L 247.033597 291.578954 
L 247.033597 275.32458 
L 242.114589 275.32458 
z
" clip-path="url(#pd10627cf0a)" style="fill: #ff7f0e"/>
   </g>
   <g id="patch_34">
    <path d="M 258.942775 290.3383 
L 263.861783 290.3383 
L 263.861783 274.113155 
L 258.942775 274.113155 
z
" clip-path="url(#pd10627cf0a)" style="fill: #ff7f0e"/>
   </g>
   <g id="patch_35">
    <path d="M 275.770961 289.133331 
L 280.68997 289.133331 
L 280.68997 272.937107 
L 275.770961 272.937107 
z
" clip-path="url(#pd10627cf0a)" style="fill: #ff7f0e"/>
   </g>
   <g id="patch_36">
    <path d="M 292.599147 287.962154 
L 297.518156 287.962154 
L 297.518156 271.794525 
L 292.599147 271.794525 
z
" clip-path="url(#pd10627cf0a)" style="fill: #ff7f0e"/>
   </g>
   <g id="patch_37">
    <path d="M 309.427334 286.823049 
L 314.346342 286.823049 
L 314.346342 270.683675 
L 309.427334 270.683675 
z
" clip-path="url(#pd10627cf0a)" style="fill: #ff7f0e"/>
   </g>
   <g id="patch_38">
    <path d="M 326.25552 285.714442 
L 331.174528 285.714442 
L 331.174528 269.602974 
L 326.25552 269.602974 
z
" clip-path="url(#pd10627cf0a)" style="fill: #ff7f0e"/>
   </g>
   <g id="patch_39">
    <path d="M 343.083706 284.634889 
L 348.002714 284.634889 
L 348.002714 268.550972 
L 343.083706 268.550972 
z
" clip-path="url(#pd10627cf0a)" style="fill: #ff7f0e"/>
   </g>
   <g id="patch_40">
    <path d="M 359.911892 283.583057 
L 364.8309 283.583057 
L 364.8309 267.526334 
L 359.911892 267.526334 
z
" clip-path="url(#pd10627cf0a)" style="fill: #ff7f0e"/>
   </g>
   <g id="patch_41">
    <path d="M 376.740078 282.557711 
L 381.659087 282.557711 
L 381.659087 266.527826 
L 376.740078 266.527826 
z
" clip-path="url(#pd10627cf0a)" style="fill: #ff7f0e"/>
   </g>
   <g id="patch_42">
    <path d="M 393.568264 281.557706 
L 398.487273 281.557706 
L 398.487273 265.554302 
L 393.568264 265.554302 
z
" clip-path="url(#pd10627cf0a)" style="fill: #ff7f0e"/>
   </g>
   <g id="patch_43">
    <path d="M 73.832727 290.033492 
L 78.751736 290.033492 
L 78.751736 239.232352 
L 73.832727 239.232352 
z
" clip-path="url(#pd10627cf0a)" style="fill: #2ca02c"/>
   </g>
   <g id="patch_44">
    <path d="M 90.660913 288.283776 
L 95.579922 288.283776 
L 95.579922 237.565139 
L 90.660913 237.565139 
z
" clip-path="url(#pd10627cf0a)" style="fill: #2ca02c"/>
   </g>
   <g id="patch_45">
    <path d="M 107.4891 286.61293 
L 112.408108 286.61293 
L 112.408108 235.98102 
L 107.4891 235.98102 
z
" clip-path="url(#pd10627cf0a)" style="fill: #2ca02c"/>
   </g>
   <g id="patch_46">
    <path d="M 124.317286 285.012485 
L 129.236294 285.012485 
L 129.236294 234.470012 
L 124.317286 234.470012 
z
" clip-path="url(#pd10627cf0a)" style="fill: #2ca02c"/>
   </g>
   <g id="patch_47">
    <path d="M 141.145472 283.475567 
L 146.06448 283.475567 
L 146.06448 233.02418 
L 141.145472 233.02418 
z
" clip-path="url(#pd10627cf0a)" style="fill: #2ca02c"/>
   </g>
   <g id="patch_48">
    <path d="M 157.973658 281.996505 
L 162.892666 281.996505 
L 162.892666 231.637091 
L 157.973658 231.637091 
z
" clip-path="url(#pd10627cf0a)" style="fill: #2ca02c"/>
   </g>
   <g id="patch_49">
    <path d="M 174.801844 280.570542 
L 179.720853 280.570542 
L 179.720853 230.303442 
L 174.801844 230.303442 
z
" clip-path="url(#pd10627cf0a)" style="fill: #2ca02c"/>
   </g>
   <g id="patch_50">
    <path d="M 191.63003 279.193635 
L 196.549039 279.193635 
L 196.549039 229.018786 
L 191.63003 229.018786 
z
" clip-path="url(#pd10627cf0a)" style="fill: #2ca02c"/>
   </g>
   <g id="patch_51">
    <path d="M 208.458217 277.862301 
L 213.377225 277.862301 
L 213.377225 227.779346 
L 208.458217 227.779346 
z
" clip-path="url(#pd10627cf0a)" style="fill: #2ca02c"/>
   </g>
   <g id="patch_52">
    <path d="M 225.286403 276.573506 
L 230.205411 276.573506 
L 230.205411 226.581871 
L 225.286403 226.581871 
z
" clip-path="url(#pd10627cf0a)" style="fill: #2ca02c"/>
   </g>
   <g id="patch_53">
    <path d="M 242.114589 275.32458 
L 247.033597 275.32458 
L 247.033597 225.42353 
L 242.114589 225.42353 
z
" clip-path="url(#pd10627cf0a)" style="fill: #2ca02c"/>
   </g>
   <g id="patch_54">
    <path d="M 258.942775 274.113155 
L 263.861783 274.113155 
L 263.861783 224.301833 
L 258.942775 224.301833 
z
" clip-path="url(#pd10627cf0a)" style="fill: #2ca02c"/>
   </g>
   <g id="patch_55">
    <path d="M 275.770961 272.937107 
L 280.68997 272.937107 
L 280.68997 223.214575 
L 275.770961 223.214575 
z
" clip-path="url(#pd10627cf0a)" style="fill: #2ca02c"/>
   </g>
   <g id="patch_56">
    <path d="M 292.599147 271.794525 
L 297.518156 271.794525 
L 297.518156 222.159781 
L 292.599147 222.159781 
z
" clip-path="url(#pd10627cf0a)" style="fill: #2ca02c"/>
   </g>
   <g id="patch_57">
    <path d="M 309.427334 270.683675 
L 314.346342 270.683675 
L 314.346342 221.135674 
L 309.427334 221.135674 
z
" clip-path="url(#pd10627cf0a)" style="fill: #2ca02c"/>
   </g>
   <g id="patch_58">
    <path d="M 326.25552 269.602974 
L 331.174528 269.602974 
L 331.174528 220.140644 
L 326.25552 220.140644 
z
" clip-path="url(#pd10627cf0a)" style="fill: #2ca02c"/>
   </g>
   <g id="patch_59">
    <path d="M 343.083706 268.550972 
L 348.002714 268.550972 
L 348.002714 219.173225 
L 343.083706 219.173225 
z
" clip-path="url(#pd10627cf0a)" style="fill: #2ca02c"/>
   </g>
   <g id="patch_60">
    <path d="M 359.911892 267.526334 
L 364.8309 267.526334 
L 364.8309 218.232074 
L 359.911892 218.232074 
z
" clip-path="url(#pd10627cf0a)" style="fill: #2ca02c"/>
   </g>
   <g id="patch_61">
    <path d="M 376.740078 266.527826 
L 381.659087 266.527826 
L 381.659087 217.315956 
L 376.740078 217.315956 
z
" clip-path="url(#pd10627cf0a)" style="fill: #2ca02c"/>
   </g>
   <g id="patch_62">
    <path d="M 393.568264 265.554302 
L 398.487273 265.554302 
L 398.487273 216.42373 
L 393.568264 216.42373 
z
" clip-path="url(#pd10627cf0a)" style="fill: #2ca02c"/>
   </g>
   <g id="patch_63">
    <path d="M 73.832727 239.232352 
L 78.751736 239.232352 
L 78.751736 210.506396 
L 73.832727 210.506396 
z
" clip-path="url(#pd10627cf0a)" style="fill: #d62728"/>
   </g>
   <g id="patch_64">
    <path d="M 90.660913 237.565139 
L 95.579922 237.565139 
L 95.579922 208.681438 
L 90.660913 208.681438 
z
" clip-path="url(#pd10627cf0a)" style="fill: #d62728"/>
   </g>
   <g id="patch_65">
    <path d="M 107.4891 235.98102 
L 112.408108 235.98102 
L 112.408108 206.869446 
L 107.4891 206.869446 
z
" clip-path="url(#pd10627cf0a)" style="fill: #d62728"/>
   </g>
   <g id="patch_66">
    <path d="M 124.317286 234.470012 
L 129.236294 234.470012 
L 129.236294 205.077936 
L 124.317286 205.077936 
z
" clip-path="url(#pd10627cf0a)" style="fill: #d62728"/>
   </g>
   <g id="patch_67">
    <path d="M 141.145472 233.02418 
L 146.06448 233.02418 
L 146.06448 203.311478 
L 141.145472 203.311478 
z
" clip-path="url(#pd10627cf0a)" style="fill: #d62728"/>
   </g>
   <g id="patch_68">
    <path d="M 157.973658 231.637091 
L 162.892666 231.637091 
L 162.892666 201.572777 
L 157.973658 201.572777 
z
" clip-path="url(#pd10627cf0a)" style="fill: #d62728"/>
   </g>
   <g id="patch_69">
    <path d="M 174.801844 230.303442 
L 179.720853 230.303442 
L 179.720853 199.863332 
L 174.801844 199.863332 
z
" clip-path="url(#pd10627cf0a)" style="fill: #d62728"/>
   </g>
   <g id="patch_70">
    <path d="M 191.63003 229.018786 
L 196.549039 229.018786 
L 196.549039 198.183848 
L 191.63003 198.183848 
z
" clip-path="url(#pd10627cf0a)" style="fill: #d62728"/>
   </g>
   <g id="patch_71">
    <path d="M 208.458217 227.779346 
L 213.377225 227.779346 
L 213.377225 196.534508 
L 208.458217 196.534508 
z
" clip-path="url(#pd10627cf0a)" style="fill: #d62728"/>
   </g>
   <g id="patch_72">
    <path d="M 225.286403 226.581871 
L 230.205411 226.581871 
L 230.205411 194.915141 
L 225.286403 194.915141 
z
" clip-path="url(#pd10627cf0a)" style="fill: #d62728"/>
   </g>
   <g id="patch_73">
    <path d="M 242.114589 225.42353 
L 247.033597 225.42353 
L 247.033597 193.325348 
L 242.114589 193.325348 
z
" clip-path="url(#pd10627cf0a)" style="fill: #d62728"/>
   </g>
   <g id="patch_74">
    <path d="M 258.942775 224.301833 
L 263.861783 224.301833 
L 263.861783 191.764572 
L 258.942775 191.764572 
z
" clip-path="url(#pd10627cf0a)" style="fill: #d62728"/>
   </g>
   <g id="patch_75">
    <path d="M 275.770961 223.214575 
L 280.68997 223.214575 
L 280.68997 190.23216 
L 275.770961 190.23216 
z
" clip-path="url(#pd10627cf0a)" style="fill: #d62728"/>
   </g>
   <g id="patch_76">
    <path d="M 292.599147 222.159781 
L 297.518156 222.159781 
L 297.518156 188.727398 
L 292.599147 188.727398 
z
" clip-path="url(#pd10627cf0a)" style="fill: #d62728"/>
   </g>
   <g id="patch_77">
    <path d="M 309.427334 221.135674 
L 314.346342 221.135674 
L 314.346342 187.249533 
L 309.427334 187.249533 
z
" clip-path="url(#pd10627cf0a)" style="fill: #d62728"/>
   </g>
   <g id="patch_78">
    <path d="M 326.25552 220.140644 
L 331.174528 220.140644 
L 331.174528 185.7978 
L 326.25552 185.7978 
z
" clip-path="url(#pd10627cf0a)" style="fill: #d62728"/>
   </g>
   <g id="patch_79">
    <path d="M 343.083706 219.173225 
L 348.002714 219.173225 
L 348.002714 184.371428 
L 343.083706 184.371428 
z
" clip-path="url(#pd10627cf0a)" style="fill: #d62728"/>
   </g>
   <g id="patch_80">
    <path d="M 359.911892 218.232074 
L 364.8309 218.232074 
L 364.8309 182.969652 
L 359.911892 182.969652 
z
" clip-path="url(#pd10627cf0a)" style="fill: #d62728"/>
   </g>
   <g id="patch_81">
    <path d="M 376.740078 217.315956 
L 381.659087 217.315956 
L 381.659087 181.591718 
L 376.740078 181.591718 
z
" clip-path="url(#pd10627cf0a)" style="fill: #d62728"/>
   </g>
   <g id="patch_82">
    <path d="M 393.568264 216.42373 
L 398.487273 216.42373 
L 398.487273 180.236889 
L 393.568264 180.236889 
z
" clip-path="url(#pd10627cf0a)" style="fill: #d62728"/>
   </g>
   <g id="patch_83">
    <path d="M 73.832727 210.506396 
L 78.751736 210.506396 
L 78.751736 129.366191 
L 73.832727 129.366191 
z
" clip-path="url(#pd10627cf0a)" style="fill: #9467bd"/>
   </g>
   <g id="patch_84">
    <path d="M 90.660913 208.681438 
L 95.579922 208.681438 
L 95.579922 127.194523 
L 90.660913 127.194523 
z
" clip-path="url(#pd10627cf0a)" style="fill: #9467bd"/>
   </g>
   <g id="patch_85">
    <path d="M 107.4891 206.869446 
L 112.408108 206.869446 
L 112.408108 125.053674 
L 107.4891 125.053674 
z
" clip-path="url(#pd10627cf0a)" style="fill: #9467bd"/>
   </g>
   <g id="patch_86">
    <path d="M 124.317286 205.077936 
L 129.236294 205.077936 
L 129.236294 122.948423 
L 124.317286 122.948423 
z
" clip-path="url(#pd10627cf0a)" style="fill: #9467bd"/>
   </g>
   <g id="patch_87">
    <path d="M 141.145472 203.311478 
L 146.06448 203.311478 
L 146.06448 120.881298 
L 141.145472 120.881298 
z
" clip-path="url(#pd10627cf0a)" style="fill: #9467bd"/>
   </g>
   <g id="patch_88">
    <path d="M 157.973658 201.572777 
L 162.892666 201.572777 
L 162.892666 118.853438 
L 157.973658 118.853438 
z
" clip-path="url(#pd10627cf0a)" style="fill: #9467bd"/>
   </g>
   <g id="patch_89">
    <path d="M 174.801844 199.863332 
L 179.720853 199.863332 
L 179.720853 116.865104 
L 174.801844 116.865104 
z
" clip-path="url(#pd10627cf0a)" style="fill: #9467bd"/>
   </g>
   <g id="patch_90">
    <path d="M 191.63003 198.183848 
L 196.549039 198.183848 
L 196.549039 114.916009 
L 191.63003 114.916009 
z
" clip-path="url(#pd10627cf0a)" style="fill: #9467bd"/>
   </g>
   <g id="patch_91">
    <path d="M 208.458217 196.534508 
L 213.377225 196.534508 
L 213.377225 113.005515 
L 208.458217 113.005515 
z
" clip-path="url(#pd10627cf0a)" style="fill: #9467bd"/>
   </g>
   <g id="patch_92">
    <path d="M 225.286403 194.915141 
L 230.205411 194.915141 
L 230.205411 111.132768 
L 225.286403 111.132768 
z
" clip-path="url(#pd10627cf0a)" style="fill: #9467bd"/>
   </g>
   <g id="patch_93">
    <path d="M 242.114589 193.325348 
L 247.033597 193.325348 
L 247.033597 109.296782 
L 242.114589 109.296782 
z
" clip-path="url(#pd10627cf0a)" style="fill: #9467bd"/>
   </g>
   <g id="patch_94">
    <path d="M 258.942775 191.764572 
L 263.861783 191.764572 
L 263.861783 107.496497 
L 258.942775 107.496497 
z
" clip-path="url(#pd10627cf0a)" style="fill: #9467bd"/>
   </g>
   <g id="patch_95">
    <path d="M 275.770961 190.23216 
L 280.68997 190.23216 
L 280.68997 105.730817 
L 275.770961 105.730817 
z
" clip-path="url(#pd10627cf0a)" style="fill: #9467bd"/>
   </g>
   <g id="patch_96">
    <path d="M 292.599147 188.727398 
L 297.518156 188.727398 
L 297.518156 103.998636 
L 292.599147 103.998636 
z
" clip-path="url(#pd10627cf0a)" style="fill: #9467bd"/>
   </g>
   <g id="patch_97">
    <path d="M 309.427334 187.249533 
L 314.346342 187.249533 
L 314.346342 102.298854 
L 309.427334 102.298854 
z
" clip-path="url(#pd10627cf0a)" style="fill: #9467bd"/>
   </g>
   <g id="patch_98">
    <path d="M 326.25552 185.7978 
L 331.174528 185.7978 
L 331.174528 100.630389 
L 326.25552 100.630389 
z
" clip-path="url(#pd10627cf0a)" style="fill: #9467bd"/>
   </g>
   <g id="patch_99">
    <path d="M 343.083706 184.371428 
L 348.002714 184.371428 
L 348.002714 98.992184 
L 343.083706 98.992184 
z
" clip-path="url(#pd10627cf0a)" style="fill: #9467bd"/>
   </g>
   <g id="patch_100">
    <path d="M 359.911892 182.969652 
L 364.8309 182.969652 
L 364.8309 97.383213 
L 359.911892 97.383213 
z
" clip-path="url(#pd10627cf0a)" style="fill: #9467bd"/>
   </g>
   <g id="patch_101">
    <path d="M 376.740078 181.591718 
L 381.659087 181.591718 
L 381.659087 95.802484 
L 376.740078 95.802484 
z
" clip-path="url(#pd10627cf0a)" style="fill: #9467bd"/>
   </g>
   <g id="patch_102">
    <path d="M 393.568264 180.236889 
L 398.487273 180.236889 
L 398.487273 94.249038 
L 393.568264 94.249038 
z
" clip-path="url(#pd10627cf0a)" style="fill: #9467bd"/>
   </g>
   <g id="patch_103">
    <path d="M 73.832727 129.366191 
L 78.751736 129.366191 
L 78.751736 124.642625 
L 73.832727 124.642625 
z
" clip-path="url(#pd10627cf0a)" style="fill: #8c564b"/>
   </g>
   <g id="patch_104">
    <path d="M 90.660913 127.194523 
L 95.579922 127.194523 
L 95.579922 122.731502 
L 90.660913 122.731502 
z
" clip-path="url(#pd10627cf0a)" style="fill: #8c564b"/>
   </g>
   <g id="patch_105">
    <path d="M 107.4891 125.053674 
L 112.408108 125.053674 
L 112.408108 120.817877 
L 107.4891 120.817877 
z
" clip-path="url(#pd10627cf0a)" style="fill: #8c564b"/>
   </g>
   <g id="patch_106">
    <path d="M 124.317286 122.948423 
L 129.236294 122.948423 
L 129.236294 118.914134 
L 124.317286 118.914134 
z
" clip-path="url(#pd10627cf0a)" style="fill: #8c564b"/>
   </g>
   <g id="patch_107">
    <path d="M 141.145472 120.881298 
L 146.06448 120.881298 
L 146.06448 117.028261 
L 141.145472 117.028261 
z
" clip-path="url(#pd10627cf0a)" style="fill: #8c564b"/>
   </g>
   <g id="patch_108">
    <path d="M 157.973658 118.853438 
L 162.892666 118.853438 
L 162.892666 115.165412 
L 157.973658 115.165412 
z
" clip-path="url(#pd10627cf0a)" style="fill: #8c564b"/>
   </g>
   <g id="patch_109">
    <path d="M 174.801844 116.865104 
L 179.720853 116.865104 
L 179.720853 113.32886 
L 174.801844 113.32886 
z
" clip-path="url(#pd10627cf0a)" style="fill: #8c564b"/>
   </g>
   <g id="patch_110">
    <path d="M 191.63003 114.916009 
L 196.549039 114.916009 
L 196.549039 111.520613 
L 191.63003 111.520613 
z
" clip-path="url(#pd10627cf0a)" style="fill: #8c564b"/>
   </g>
   <g id="patch_111">
    <path d="M 208.458217 113.005515 
L 213.377225 113.005515 
L 213.377225 109.741814 
L 208.458217 109.741814 
z
" clip-path="url(#pd10627cf0a)" style="fill: #8c564b"/>
   </g>
   <g id="patch_112">
    <path d="M 225.286403 111.132768 
L 230.205411 111.132768 
L 230.205411 107.993012 
L 225.286403 107.993012 
z
" clip-path="url(#pd10627cf0a)" style="fill: #8c564b"/>
   </g>
   <g id="patch_113">
    <path d="M 242.114589 109.296782 
L 247.033597 109.296782 
L 247.033597 106.274338 
L 242.114589 106.274338 
z
" clip-path="url(#pd10627cf0a)" style="fill: #8c564b"/>
   </g>
   <g id="patch_114">
    <path d="M 258.942775 107.496497 
L 263.861783 107.496497 
L 263.861783 104.585633 
L 258.942775 104.585633 
z
" clip-path="url(#pd10627cf0a)" style="fill: #8c564b"/>
   </g>
   <g id="patch_115">
    <path d="M 275.770961 105.730817 
L 280.68997 105.730817 
L 280.68997 102.926537 
L 275.770961 102.926537 
z
" clip-path="url(#pd10627cf0a)" style="fill: #8c564b"/>
   </g>
   <g id="patch_116">
    <path d="M 292.599147 103.998636 
L 297.518156 103.998636 
L 297.518156 101.296549 
L 292.599147 101.296549 
z
" clip-path="url(#pd10627cf0a)" style="fill: #8c564b"/>
   </g>
   <g id="patch_117">
    <path d="M 309.427334 102.298854 
L 314.346342 102.298854 
L 314.346342 99.695072 
L 309.427334 99.695072 
z
" clip-path="url(#pd10627cf0a)" style="fill: #8c564b"/>
   </g>
   <g id="patch_118">
    <path d="M 326.25552 100.630389 
L 331.174528 100.630389 
L 331.174528 98.121447 
L 326.25552 98.121447 
z
" clip-path="url(#pd10627cf0a)" style="fill: #8c564b"/>
   </g>
   <g id="patch_119">
    <path d="M 343.083706 98.992184 
L 348.002714 98.992184 
L 348.002714 96.574974 
L 343.083706 96.574974 
z
" clip-path="url(#pd10627cf0a)" style="fill: #8c564b"/>
   </g>
   <g id="patch_120">
    <path d="M 359.911892 97.383213 
L 364.8309 97.383213 
L 364.8309 95.05493 
L 359.911892 95.05493 
z
" clip-path="url(#pd10627cf0a)" style="fill: #8c564b"/>
   </g>
   <g id="patch_121">
    <path d="M 376.740078 95.802484 
L 381.659087 95.802484 
L 381.659087 93.560582 
L 376.740078 93.560582 
z
" clip-path="url(#pd10627cf0a)" style="fill: #8c564b"/>
   </g>
   <g id="patch_122">
    <path d="M 393.568264 94.249038 
L 398.487273 94.249038 
L 398.487273 92.091196 
L 393.568264 92.091196 
z
" clip-path="url(#pd10627cf0a)" style="fill: #8c564b"/>
   </g>
   <g id="patch_123">
    <path d="M 73.832727 124.642625 
L 78.751736 124.642625 
L 78.751736 88.348882 
L 73.832727 88.348882 
z
" clip-path="url(#pd10627cf0a)" style="fill: #e377c2"/>
   </g>
   <g id="patch_124">
    <path d="M 90.660913 122.731502 
L 95.579922 122.731502 
L 95.579922 86.496701 
L 90.660913 86.496701 
z
" clip-path="url(#pd10627cf0a)" style="fill: #e377c2"/>
   </g>
   <g id="patch_125">
    <path d="M 107.4891 120.817877 
L 112.408108 120.817877 
L 112.408108 84.645037 
L 107.4891 84.645037 
z
" clip-path="url(#pd10627cf0a)" style="fill: #e377c2"/>
   </g>
   <g id="patch_126">
    <path d="M 124.317286 118.914134 
L 129.236294 118.914134 
L 129.236294 82.805189 
L 124.317286 82.805189 
z
" clip-path="url(#pd10627cf0a)" style="fill: #e377c2"/>
   </g>
   <g id="patch_127">
    <path d="M 141.145472 117.028261 
L 146.06448 117.028261 
L 146.06448 80.98439 
L 141.145472 80.98439 
z
" clip-path="url(#pd10627cf0a)" style="fill: #e377c2"/>
   </g>
   <g id="patch_128">
    <path d="M 157.973658 115.165412 
L 162.892666 115.165412 
L 162.892666 79.18725 
L 157.973658 79.18725 
z
" clip-path="url(#pd10627cf0a)" style="fill: #e377c2"/>
   </g>
   <g id="patch_129">
    <path d="M 174.801844 113.32886 
L 179.720853 113.32886 
L 179.720853 77.416649 
L 174.801844 77.416649 
z
" clip-path="url(#pd10627cf0a)" style="fill: #e377c2"/>
   </g>
   <g id="patch_130">
    <path d="M 191.63003 111.520613 
L 196.549039 111.520613 
L 196.549039 75.674309 
L 191.63003 75.674309 
z
" clip-path="url(#pd10627cf0a)" style="fill: #e377c2"/>
   </g>
   <g id="patch_131">
    <path d="M 208.458217 109.741814 
L 213.377225 109.741814 
L 213.377225 73.961162 
L 208.458217 73.961162 
z
" clip-path="url(#pd10627cf0a)" style="fill: #e377c2"/>
   </g>
   <g id="patch_132">
    <path d="M 225.286403 107.993012 
L 230.205411 107.993012 
L 230.205411 72.277602 
L 225.286403 72.277602 
z
" clip-path="url(#pd10627cf0a)" style="fill: #e377c2"/>
   </g>
   <g id="patch_133">
    <path d="M 242.114589 106.274338 
L 247.033597 106.274338 
L 247.033597 70.623643 
L 242.114589 70.623643 
z
" clip-path="url(#pd10627cf0a)" style="fill: #e377c2"/>
   </g>
   <g id="patch_134">
    <path d="M 258.942775 104.585633 
L 263.861783 104.585633 
L 263.861783 68.999043 
L 258.942775 68.999043 
z
" clip-path="url(#pd10627cf0a)" style="fill: #e377c2"/>
   </g>
   <g id="patch_135">
    <path d="M 275.770961 102.926537 
L 280.68997 102.926537 
L 280.68997 67.403381 
L 275.770961 67.403381 
z
" clip-path="url(#pd10627cf0a)" style="fill: #e377c2"/>
   </g>
   <g id="patch_136">
    <path d="M 292.599147 101.296549 
L 297.518156 101.296549 
L 297.518156 65.836111 
L 292.599147 65.836111 
z
" clip-path="url(#pd10627cf0a)" style="fill: #e377c2"/>
   </g>
   <g id="patch_137">
    <path d="M 309.427334 99.695072 
L 314.346342 99.695072 
L 314.346342 64.296606 
L 309.427334 64.296606 
z
" clip-path="url(#pd10627cf0a)" style="fill: #e377c2"/>
   </g>
   <g id="patch_138">
    <path d="M 326.25552 98.121447 
L 331.174528 98.121447 
L 331.174528 62.784187 
L 326.25552 62.784187 
z
" clip-path="url(#pd10627cf0a)" style="fill: #e377c2"/>
   </g>
   <g id="patch_139">
    <path d="M 343.083706 96.574974 
L 348.002714 96.574974 
L 348.002714 61.298142 
L 343.083706 61.298142 
z
" clip-path="url(#pd10627cf0a)" style="fill: #e377c2"/>
   </g>
   <g id="patch_140">
    <path d="M 359.911892 95.05493 
L 364.8309 95.05493 
L 364.8309 59.837743 
L 359.911892 59.837743 
z
" clip-path="url(#pd10627cf0a)" style="fill: #e377c2"/>
   </g>
   <g id="patch_141">
    <path d="M 376.740078 93.560582 
L 381.659087 93.560582 
L 381.659087 58.402257 
L 376.740078 58.402257 
z
" clip-path="url(#pd10627cf0a)" style="fill: #e377c2"/>
   </g>
   <g id="patch_142">
    <path d="M 393.568264 92.091196 
L 398.487273 92.091196 
L 398.487273 56.990953 
L 393.568264 56.990953 
z
" clip-path="url(#pd10627cf0a)" style="fill: #e377c2"/>
   </g>
   <g id="patch_143">
    <path d="M 73.832727 88.348882 
L 78.751736 88.348882 
L 78.751736 86.374177 
L 73.832727 86.374177 
z
" clip-path="url(#pd10627cf0a)" style="fill: #7f7f7f"/>
   </g>
   <g id="patch_144">
    <path d="M 90.660913 86.496701 
L 95.579922 86.496701 
L 95.579922 84.689111 
L 90.660913 84.689111 
z
" clip-path="url(#pd10627cf0a)" style="fill: #7f7f7f"/>
   </g>
   <g id="patch_145">
    <path d="M 107.4891 84.645037 
L 112.408108 84.645037 
L 112.408108 82.980012 
L 107.4891 82.980012 
z
" clip-path="url(#pd10627cf0a)" style="fill: #7f7f7f"/>
   </g>
   <g id="patch_146">
    <path d="M 124.317286 82.805189 
L 129.236294 82.805189 
L 129.236294 81.263625 
L 124.317286 81.263625 
z
" clip-path="url(#pd10627cf0a)" style="fill: #7f7f7f"/>
   </g>
   <g id="patch_147">
    <path d="M 141.145472 80.98439 
L 146.06448 80.98439 
L 146.06448 79.551111 
L 141.145472 79.551111 
z
" clip-path="url(#pd10627cf0a)" style="fill: #7f7f7f"/>
   </g>
   <g id="patch_148">
    <path d="M 157.973658 79.18725 
L 162.892666 79.18725 
L 162.892666 77.849983 
L 157.973658 77.849983 
z
" clip-path="url(#pd10627cf0a)" style="fill: #7f7f7f"/>
   </g>
   <g id="patch_149">
    <path d="M 174.801844 77.416649 
L 179.720853 77.416649 
L 179.720853 76.165311 
L 174.801844 76.165311 
z
" clip-path="url(#pd10627cf0a)" style="fill: #7f7f7f"/>
   </g>
   <g id="patch_150">
    <path d="M 191.63003 75.674309 
L 196.549039 75.674309 
L 196.549039 74.500502 
L 191.63003 74.500502 
z
" clip-path="url(#pd10627cf0a)" style="fill: #7f7f7f"/>
   </g>
   <g id="patch_151">
    <path d="M 208.458217 73.961162 
L 213.377225 73.961162 
L 213.377225 72.857804 
L 208.458217 72.857804 
z
" clip-path="url(#pd10627cf0a)" style="fill: #7f7f7f"/>
   </g>
   <g id="patch_152">
    <path d="M 225.286403 72.277602 
L 230.205411 72.277602 
L 230.205411 71.238656 
L 225.286403 71.238656 
z
" clip-path="url(#pd10627cf0a)" style="fill: #7f7f7f"/>
   </g>
   <g id="patch_153">
    <path d="M 242.114589 70.623643 
L 247.033597 70.623643 
L 247.033597 69.643915 
L 242.114589 69.643915 
z
" clip-path="url(#pd10627cf0a)" style="fill: #7f7f7f"/>
   </g>
   <g id="patch_154">
    <path d="M 258.942775 68.999043 
L 263.861783 68.999043 
L 263.861783 68.074021 
L 258.942775 68.074021 
z
" clip-path="url(#pd10627cf0a)" style="fill: #7f7f7f"/>
   </g>
   <g id="patch_155">
    <path d="M 275.770961 67.403381 
L 280.68997 67.403381 
L 280.68997 66.529117 
L 275.770961 66.529117 
z
" clip-path="url(#pd10627cf0a)" style="fill: #7f7f7f"/>
   </g>
   <g id="patch_156">
    <path d="M 292.599147 65.836111 
L 297.518156 65.836111 
L 297.518156 65.009126 
L 292.599147 65.009126 
z
" clip-path="url(#pd10627cf0a)" style="fill: #7f7f7f"/>
   </g>
   <g id="patch_157">
    <path d="M 309.427334 64.296606 
L 314.346342 64.296606 
L 314.346342 63.513816 
L 309.427334 63.513816 
z
" clip-path="url(#pd10627cf0a)" style="fill: #7f7f7f"/>
   </g>
   <g id="patch_158">
    <path d="M 326.25552 62.784187 
L 331.174528 62.784187 
L 331.174528 62.042837 
L 326.25552 62.042837 
z
" clip-path="url(#pd10627cf0a)" style="fill: #7f7f7f"/>
   </g>
   <g id="patch_159">
    <path d="M 343.083706 61.298142 
L 348.002714 61.298142 
L 348.002714 60.595764 
L 343.083706 60.595764 
z
" clip-path="url(#pd10627cf0a)" style="fill: #7f7f7f"/>
   </g>
   <g id="patch_160">
    <path d="M 359.911892 59.837743 
L 364.8309 59.837743 
L 364.8309 59.172112 
L 359.911892 59.172112 
z
" clip-path="url(#pd10627cf0a)" style="fill: #7f7f7f"/>
   </g>
   <g id="patch_161">
    <path d="M 376.740078 58.402257 
L 381.659087 58.402257 
L 381.659087 57.771357 
L 376.740078 57.771357 
z
" clip-path="url(#pd10627cf0a)" style="fill: #7f7f7f"/>
   </g>
   <g id="patch_162">
    <path d="M 393.568264 56.990953 
L 398.487273 56.990953 
L 398.487273 56.392952 
L 393.568264 56.392952 
z
" clip-path="url(#pd10627cf0a)" style="fill: #7f7f7f"/>
   </g>
   <g id="patch_163">
    <path d="M 73.832727 86.374177 
L 78.751736 86.374177 
L 78.751736 80.14763 
L 73.832727 80.14763 
z
" clip-path="url(#pd10627cf0a)" style="fill: #bcbd22"/>
   </g>
   <g id="patch_164">
    <path d="M 90.660913 84.689111 
L 95.579922 84.689111 
L 95.579922 78.863417 
L 90.660913 78.863417 
z
" clip-path="url(#pd10627cf0a)" style="fill: #bcbd22"/>
   </g>
   <g id="patch_165">
    <path d="M 107.4891 82.980012 
L 112.408108 82.980012 
L 112.408108 77.513447 
L 107.4891 77.513447 
z
" clip-path="url(#pd10627cf0a)" style="fill: #bcbd22"/>
   </g>
   <g id="patch_166">
    <path d="M 124.317286 81.263625 
L 129.236294 81.263625 
L 129.236294 76.121287 
L 124.317286 76.121287 
z
" clip-path="url(#pd10627cf0a)" style="fill: #bcbd22"/>
   </g>
   <g id="patch_167">
    <path d="M 141.145472 79.551111 
L 146.06448 79.551111 
L 146.06448 74.703483 
L 141.145472 74.703483 
z
" clip-path="url(#pd10627cf0a)" style="fill: #bcbd22"/>
   </g>
   <g id="patch_168">
    <path d="M 157.973658 77.849983 
L 162.892666 77.849983 
L 162.892666 73.271846 
L 157.973658 73.271846 
z
" clip-path="url(#pd10627cf0a)" style="fill: #bcbd22"/>
   </g>
   <g id="patch_169">
    <path d="M 174.801844 76.165311 
L 179.720853 76.165311 
L 179.720853 71.834922 
L 174.801844 71.834922 
z
" clip-path="url(#pd10627cf0a)" style="fill: #bcbd22"/>
   </g>
   <g id="patch_170">
    <path d="M 191.63003 74.500502 
L 196.549039 74.500502 
L 196.549039 70.398956 
L 191.63003 70.398956 
z
" clip-path="url(#pd10627cf0a)" style="fill: #bcbd22"/>
   </g>
   <g id="patch_171">
    <path d="M 208.458217 72.857804 
L 213.377225 72.857804 
L 213.377225 68.968546 
L 208.458217 68.968546 
z
" clip-path="url(#pd10627cf0a)" style="fill: #bcbd22"/>
   </g>
   <g id="patch_172">
    <path d="M 225.286403 71.238656 
L 230.205411 71.238656 
L 230.205411 67.547085 
L 225.286403 67.547085 
z
" clip-path="url(#pd10627cf0a)" style="fill: #bcbd22"/>
   </g>
   <g id="patch_173">
    <path d="M 242.114589 69.643915 
L 247.033597 69.643915 
L 247.033597 66.137082 
L 242.114589 66.137082 
z
" clip-path="url(#pd10627cf0a)" style="fill: #bcbd22"/>
   </g>
   <g id="patch_174">
    <path d="M 258.942775 68.074021 
L 263.861783 68.074021 
L 263.861783 64.740376 
L 258.942775 64.740376 
z
" clip-path="url(#pd10627cf0a)" style="fill: #bcbd22"/>
   </g>
   <g id="patch_175">
    <path d="M 275.770961 66.529117 
L 280.68997 66.529117 
L 280.68997 63.358307 
L 275.770961 63.358307 
z
" clip-path="url(#pd10627cf0a)" style="fill: #bcbd22"/>
   </g>
   <g id="patch_176">
    <path d="M 292.599147 65.009126 
L 297.518156 65.009126 
L 297.518156 61.991831 
L 292.599147 61.991831 
z
" clip-path="url(#pd10627cf0a)" style="fill: #bcbd22"/>
   </g>
   <g id="patch_177">
    <path d="M 309.427334 63.513816 
L 314.346342 63.513816 
L 314.346342 60.641608 
L 309.427334 60.641608 
z
" clip-path="url(#pd10627cf0a)" style="fill: #bcbd22"/>
   </g>
   <g id="patch_178">
    <path d="M 326.25552 62.042837 
L 331.174528 62.042837 
L 331.174528 59.308071 
L 326.25552 59.308071 
z
" clip-path="url(#pd10627cf0a)" style="fill: #bcbd22"/>
   </g>
   <g id="patch_179">
    <path d="M 343.083706 60.595764 
L 348.002714 60.595764 
L 348.002714 57.991476 
L 343.083706 57.991476 
z
" clip-path="url(#pd10627cf0a)" style="fill: #bcbd22"/>
   </g>
   <g id="patch_180">
    <path d="M 359.911892 59.172112 
L 364.8309 59.172112 
L 364.8309 56.69194 
L 359.911892 56.69194 
z
" clip-path="url(#pd10627cf0a)" style="fill: #bcbd22"/>
   </g>
   <g id="patch_181">
    <path d="M 376.740078 57.771357 
L 381.659087 57.771357 
L 381.659087 55.409473 
L 376.740078 55.409473 
z
" clip-path="url(#pd10627cf0a)" style="fill: #bcbd22"/>
   </g>
   <g id="patch_182">
    <path d="M 393.568264 56.392952 
L 398.487273 56.392952 
L 398.487273 54.144 
L 393.568264 54.144 
z
" clip-path="url(#pd10627cf0a)" style="fill: #bcbd22"/>
   </g>
   <g id="matplotlib.axis_1">
    <g id="xtick_1">
     <g id="line2d_1">
      <defs>
       <path id="m33449f7f56" d="M 0 0 
L 0 3.5 
" style="stroke: #000000; stroke-width: 0.8"/>
      </defs>
      <g>
       <use xlink:href="#m33449f7f56" x="88.589752" y="307.584" style="stroke: #000000; stroke-width: 0.8"/>
      </g>
     </g>
     <g id="text_1">
      <!-- 52.5 -->
      <g transform="translate(68.55069 328.261187) scale(0.18 -0.18)">
       <defs>
        <path id="DejaVuSans-35" d="M 691 4666 
L 3169 4666 
L 3169 4134 
L 1269 4134 
L 1269 2991 
Q 1406 3038 1543 3061 
Q 1681 3084 1819 3084 
Q 2600 3084 3056 2656 
Q 3513 2228 3513 1497 
Q 3513 744 3044 326 
Q 2575 -91 1722 -91 
Q 1428 -91 1123 -41 
Q 819 9 494 109 
L 494 744 
Q 775 591 1075 516 
Q 1375 441 1709 441 
Q 2250 441 2565 725 
Q 2881 1009 2881 1497 
Q 2881 1984 2565 2268 
Q 2250 2553 1709 2553 
Q 1456 2553 1204 2497 
Q 953 2441 691 2322 
L 691 4666 
z
" transform="scale(0.015625)"/>
        <path id="DejaVuSans-32" d="M 1228 531 
L 3431 531 
L 3431 0 
L 469 0 
L 469 531 
Q 828 903 1448 1529 
Q 2069 2156 2228 2338 
Q 2531 2678 2651 2914 
Q 2772 3150 2772 3378 
Q 2772 3750 2511 3984 
Q 2250 4219 1831 4219 
Q 1534 4219 1204 4116 
Q 875 4013 500 3803 
L 500 4441 
Q 881 4594 1212 4672 
Q 1544 4750 1819 4750 
Q 2544 4750 2975 4387 
Q 3406 4025 3406 3419 
Q 3406 3131 3298 2873 
Q 3191 2616 2906 2266 
Q 2828 2175 2409 1742 
Q 1991 1309 1228 531 
z
" transform="scale(0.015625)"/>
        <path id="DejaVuSans-2e" d="M 684 794 
L 1344 794 
L 1344 0 
L 684 0 
L 684 794 
z
" transform="scale(0.015625)"/>
       </defs>
       <use xlink:href="#DejaVuSans-35"/>
       <use xlink:href="#DejaVuSans-32" x="63.623047"/>
       <use xlink:href="#DejaVuSans-2e" x="127.246094"/>
       <use xlink:href="#DejaVuSans-35" x="159.033203"/>
      </g>
     </g>
    </g>
    <g id="xtick_2">
     <g id="line2d_2">
      <g>
       <use xlink:href="#m33449f7f56" x="150.077355" y="307.584" style="stroke: #000000; stroke-width: 0.8"/>
      </g>
     </g>
     <g id="text_2">
      <!-- 55.0 -->
      <g transform="translate(130.038293 328.261187) scale(0.18 -0.18)">
       <defs>
        <path id="DejaVuSans-30" d="M 2034 4250 
Q 1547 4250 1301 3770 
Q 1056 3291 1056 2328 
Q 1056 1369 1301 889 
Q 1547 409 2034 409 
Q 2525 409 2770 889 
Q 3016 1369 3016 2328 
Q 3016 3291 2770 3770 
Q 2525 4250 2034 4250 
z
M 2034 4750 
Q 2819 4750 3233 4129 
Q 3647 3509 3647 2328 
Q 3647 1150 3233 529 
Q 2819 -91 2034 -91 
Q 1250 -91 836 529 
Q 422 1150 422 2328 
Q 422 3509 836 4129 
Q 1250 4750 2034 4750 
z
" transform="scale(0.015625)"/>
       </defs>
       <use xlink:href="#DejaVuSans-35"/>
       <use xlink:href="#DejaVuSans-35" x="63.623047"/>
       <use xlink:href="#DejaVuSans-2e" x="127.246094"/>
       <use xlink:href="#DejaVuSans-30" x="159.033203"/>
      </g>
     </g>
    </g>
    <g id="xtick_3">
     <g id="line2d_3">
      <g>
       <use xlink:href="#m33449f7f56" x="211.564959" y="307.584" style="stroke: #000000; stroke-width: 0.8"/>
      </g>
     </g>
     <g id="text_3">
      <!-- 57.5 -->
      <g transform="translate(191.525896 328.261187) scale(0.18 -0.18)">
       <defs>
        <path id="DejaVuSans-37" d="M 525 4666 
L 3525 4666 
L 3525 4397 
L 1831 0 
L 1172 0 
L 2766 4134 
L 525 4134 
L 525 4666 
z
" transform="scale(0.015625)"/>
       </defs>
       <use xlink:href="#DejaVuSans-35"/>
       <use xlink:href="#DejaVuSans-37" x="63.623047"/>
       <use xlink:href="#DejaVuSans-2e" x="127.246094"/>
       <use xlink:href="#DejaVuSans-35" x="159.033203"/>
      </g>
     </g>
    </g>
    <g id="xtick_4">
     <g id="line2d_4">
      <g>
       <use xlink:href="#m33449f7f56" x="273.052562" y="307.584" style="stroke: #000000; stroke-width: 0.8"/>
      </g>
     </g>
     <g id="text_4">
      <!-- 60.0 -->
      <g transform="translate(253.013499 328.261187) scale(0.18 -0.18)">
       <defs>
        <path id="DejaVuSans-36" d="M 2113 2584 
Q 1688 2584 1439 2293 
Q 1191 2003 1191 1497 
Q 1191 994 1439 701 
Q 1688 409 2113 409 
Q 2538 409 2786 701 
Q 3034 994 3034 1497 
Q 3034 2003 2786 2293 
Q 2538 2584 2113 2584 
z
M 3366 4563 
L 3366 3988 
Q 3128 4100 2886 4159 
Q 2644 4219 2406 4219 
Q 1781 4219 1451 3797 
Q 1122 3375 1075 2522 
Q 1259 2794 1537 2939 
Q 1816 3084 2150 3084 
Q 2853 3084 3261 2657 
Q 3669 2231 3669 1497 
Q 3669 778 3244 343 
Q 2819 -91 2113 -91 
Q 1303 -91 875 529 
Q 447 1150 447 2328 
Q 447 3434 972 4092 
Q 1497 4750 2381 4750 
Q 2619 4750 2861 4703 
Q 3103 4656 3366 4563 
z
" transform="scale(0.015625)"/>
       </defs>
       <use xlink:href="#DejaVuSans-36"/>
       <use xlink:href="#DejaVuSans-30" x="63.623047"/>
       <use xlink:href="#DejaVuSans-2e" x="127.246094"/>
       <use xlink:href="#DejaVuSans-30" x="159.033203"/>
      </g>
     </g>
    </g>
    <g id="xtick_5">
     <g id="line2d_5">
      <g>
       <use xlink:href="#m33449f7f56" x="334.540165" y="307.584" style="stroke: #000000; stroke-width: 0.8"/>
      </g>
     </g>
     <g id="text_5">
      <!-- 62.5 -->
      <g transform="translate(314.501103 328.261187) scale(0.18 -0.18)">
       <use xlink:href="#DejaVuSans-36"/>
       <use xlink:href="#DejaVuSans-32" x="63.623047"/>
       <use xlink:href="#DejaVuSans-2e" x="127.246094"/>
       <use xlink:href="#DejaVuSans-35" x="159.033203"/>
      </g>
     </g>
    </g>
    <g id="xtick_6">
     <g id="line2d_6">
      <g>
       <use xlink:href="#m33449f7f56" x="396.027769" y="307.584" style="stroke: #000000; stroke-width: 0.8"/>
      </g>
     </g>
     <g id="text_6">
      <!-- 65.0 -->
      <g transform="translate(375.988706 328.261187) scale(0.18 -0.18)">
       <use xlink:href="#DejaVuSans-36"/>
       <use xlink:href="#DejaVuSans-35" x="63.623047"/>
       <use xlink:href="#DejaVuSans-2e" x="127.246094"/>
       <use xlink:href="#DejaVuSans-30" x="159.033203"/>
      </g>
     </g>
    </g>
    <g id="text_7">
     <!-- Kondensatordruck in bar -->
     <g transform="translate(125.630156 349.681812) scale(0.18 -0.18)">
      <defs>
       <path id="DejaVuSans-4b" d="M 628 4666 
L 1259 4666 
L 1259 2694 
L 3353 4666 
L 4166 4666 
L 1850 2491 
L 4331 0 
L 3500 0 
L 1259 2247 
L 1259 0 
L 628 0 
L 628 4666 
z
" transform="scale(0.015625)"/>
       <path id="DejaVuSans-6f" d="M 1959 3097 
Q 1497 3097 1228 2736 
Q 959 2375 959 1747 
Q 959 1119 1226 758 
Q 1494 397 1959 397 
Q 2419 397 2687 759 
Q 2956 1122 2956 1747 
Q 2956 2369 2687 2733 
Q 2419 3097 1959 3097 
z
M 1959 3584 
Q 2709 3584 3137 3096 
Q 3566 2609 3566 1747 
Q 3566 888 3137 398 
Q 2709 -91 1959 -91 
Q 1206 -91 779 398 
Q 353 888 353 1747 
Q 353 2609 779 3096 
Q 1206 3584 1959 3584 
z
" transform="scale(0.015625)"/>
       <path id="DejaVuSans-6e" d="M 3513 2113 
L 3513 0 
L 2938 0 
L 2938 2094 
Q 2938 2591 2744 2837 
Q 2550 3084 2163 3084 
Q 1697 3084 1428 2787 
Q 1159 2491 1159 1978 
L 1159 0 
L 581 0 
L 581 3500 
L 1159 3500 
L 1159 2956 
Q 1366 3272 1645 3428 
Q 1925 3584 2291 3584 
Q 2894 3584 3203 3211 
Q 3513 2838 3513 2113 
z
" transform="scale(0.015625)"/>
       <path id="DejaVuSans-64" d="M 2906 2969 
L 2906 4863 
L 3481 4863 
L 3481 0 
L 2906 0 
L 2906 525 
Q 2725 213 2448 61 
Q 2172 -91 1784 -91 
Q 1150 -91 751 415 
Q 353 922 353 1747 
Q 353 2572 751 3078 
Q 1150 3584 1784 3584 
Q 2172 3584 2448 3432 
Q 2725 3281 2906 2969 
z
M 947 1747 
Q 947 1113 1208 752 
Q 1469 391 1925 391 
Q 2381 391 2643 752 
Q 2906 1113 2906 1747 
Q 2906 2381 2643 2742 
Q 2381 3103 1925 3103 
Q 1469 3103 1208 2742 
Q 947 2381 947 1747 
z
" transform="scale(0.015625)"/>
       <path id="DejaVuSans-65" d="M 3597 1894 
L 3597 1613 
L 953 1613 
Q 991 1019 1311 708 
Q 1631 397 2203 397 
Q 2534 397 2845 478 
Q 3156 559 3463 722 
L 3463 178 
Q 3153 47 2828 -22 
Q 2503 -91 2169 -91 
Q 1331 -91 842 396 
Q 353 884 353 1716 
Q 353 2575 817 3079 
Q 1281 3584 2069 3584 
Q 2775 3584 3186 3129 
Q 3597 2675 3597 1894 
z
M 3022 2063 
Q 3016 2534 2758 2815 
Q 2500 3097 2075 3097 
Q 1594 3097 1305 2825 
Q 1016 2553 972 2059 
L 3022 2063 
z
" transform="scale(0.015625)"/>
       <path id="DejaVuSans-73" d="M 2834 3397 
L 2834 2853 
Q 2591 2978 2328 3040 
Q 2066 3103 1784 3103 
Q 1356 3103 1142 2972 
Q 928 2841 928 2578 
Q 928 2378 1081 2264 
Q 1234 2150 1697 2047 
L 1894 2003 
Q 2506 1872 2764 1633 
Q 3022 1394 3022 966 
Q 3022 478 2636 193 
Q 2250 -91 1575 -91 
Q 1294 -91 989 -36 
Q 684 19 347 128 
L 347 722 
Q 666 556 975 473 
Q 1284 391 1588 391 
Q 1994 391 2212 530 
Q 2431 669 2431 922 
Q 2431 1156 2273 1281 
Q 2116 1406 1581 1522 
L 1381 1569 
Q 847 1681 609 1914 
Q 372 2147 372 2553 
Q 372 3047 722 3315 
Q 1072 3584 1716 3584 
Q 2034 3584 2315 3537 
Q 2597 3491 2834 3397 
z
" transform="scale(0.015625)"/>
       <path id="DejaVuSans-61" d="M 2194 1759 
Q 1497 1759 1228 1600 
Q 959 1441 959 1056 
Q 959 750 1161 570 
Q 1363 391 1709 391 
Q 2188 391 2477 730 
Q 2766 1069 2766 1631 
L 2766 1759 
L 2194 1759 
z
M 3341 1997 
L 3341 0 
L 2766 0 
L 2766 531 
Q 2569 213 2275 61 
Q 1981 -91 1556 -91 
Q 1019 -91 701 211 
Q 384 513 384 1019 
Q 384 1609 779 1909 
Q 1175 2209 1959 2209 
L 2766 2209 
L 2766 2266 
Q 2766 2663 2505 2880 
Q 2244 3097 1772 3097 
Q 1472 3097 1187 3025 
Q 903 2953 641 2809 
L 641 3341 
Q 956 3463 1253 3523 
Q 1550 3584 1831 3584 
Q 2591 3584 2966 3190 
Q 3341 2797 3341 1997 
z
" transform="scale(0.015625)"/>
       <path id="DejaVuSans-74" d="M 1172 4494 
L 1172 3500 
L 2356 3500 
L 2356 3053 
L 1172 3053 
L 1172 1153 
Q 1172 725 1289 603 
Q 1406 481 1766 481 
L 2356 481 
L 2356 0 
L 1766 0 
Q 1100 0 847 248 
Q 594 497 594 1153 
L 594 3053 
L 172 3053 
L 172 3500 
L 594 3500 
L 594 4494 
L 1172 4494 
z
" transform="scale(0.015625)"/>
       <path id="DejaVuSans-72" d="M 2631 2963 
Q 2534 3019 2420 3045 
Q 2306 3072 2169 3072 
Q 1681 3072 1420 2755 
Q 1159 2438 1159 1844 
L 1159 0 
L 581 0 
L 581 3500 
L 1159 3500 
L 1159 2956 
Q 1341 3275 1631 3429 
Q 1922 3584 2338 3584 
Q 2397 3584 2469 3576 
Q 2541 3569 2628 3553 
L 2631 2963 
z
" transform="scale(0.015625)"/>
       <path id="DejaVuSans-75" d="M 544 1381 
L 544 3500 
L 1119 3500 
L 1119 1403 
Q 1119 906 1312 657 
Q 1506 409 1894 409 
Q 2359 409 2629 706 
Q 2900 1003 2900 1516 
L 2900 3500 
L 3475 3500 
L 3475 0 
L 2900 0 
L 2900 538 
Q 2691 219 2414 64 
Q 2138 -91 1772 -91 
Q 1169 -91 856 284 
Q 544 659 544 1381 
z
M 1991 3584 
L 1991 3584 
z
" transform="scale(0.015625)"/>
       <path id="DejaVuSans-63" d="M 3122 3366 
L 3122 2828 
Q 2878 2963 2633 3030 
Q 2388 3097 2138 3097 
Q 1578 3097 1268 2742 
Q 959 2388 959 1747 
Q 959 1106 1268 751 
Q 1578 397 2138 397 
Q 2388 397 2633 464 
Q 2878 531 3122 666 
L 3122 134 
Q 2881 22 2623 -34 
Q 2366 -91 2075 -91 
Q 1284 -91 818 406 
Q 353 903 353 1747 
Q 353 2603 823 3093 
Q 1294 3584 2113 3584 
Q 2378 3584 2631 3529 
Q 2884 3475 3122 3366 
z
" transform="scale(0.015625)"/>
       <path id="DejaVuSans-6b" d="M 581 4863 
L 1159 4863 
L 1159 1991 
L 2875 3500 
L 3609 3500 
L 1753 1863 
L 3688 0 
L 2938 0 
L 1159 1709 
L 1159 0 
L 581 0 
L 581 4863 
z
" transform="scale(0.015625)"/>
       <path id="DejaVuSans-20" transform="scale(0.015625)"/>
       <path id="DejaVuSans-69" d="M 603 3500 
L 1178 3500 
L 1178 0 
L 603 0 
L 603 3500 
z
M 603 4863 
L 1178 4863 
L 1178 4134 
L 603 4134 
L 603 4863 
z
" transform="scale(0.015625)"/>
       <path id="DejaVuSans-62" d="M 3116 1747 
Q 3116 2381 2855 2742 
Q 2594 3103 2138 3103 
Q 1681 3103 1420 2742 
Q 1159 2381 1159 1747 
Q 1159 1113 1420 752 
Q 1681 391 2138 391 
Q 2594 391 2855 752 
Q 3116 1113 3116 1747 
z
M 1159 2969 
Q 1341 3281 1617 3432 
Q 1894 3584 2278 3584 
Q 2916 3584 3314 3078 
Q 3713 2572 3713 1747 
Q 3713 922 3314 415 
Q 2916 -91 2278 -91 
Q 1894 -91 1617 61 
Q 1341 213 1159 525 
L 1159 0 
L 581 0 
L 581 4863 
L 1159 4863 
L 1159 2969 
z
" transform="scale(0.015625)"/>
      </defs>
      <use xlink:href="#DejaVuSans-4b"/>
      <use xlink:href="#DejaVuSans-6f" x="60.576172"/>
      <use xlink:href="#DejaVuSans-6e" x="121.757812"/>
      <use xlink:href="#DejaVuSans-64" x="185.136719"/>
      <use xlink:href="#DejaVuSans-65" x="248.613281"/>
      <use xlink:href="#DejaVuSans-6e" x="310.136719"/>
      <use xlink:href="#DejaVuSans-73" x="373.515625"/>
      <use xlink:href="#DejaVuSans-61" x="425.615234"/>
      <use xlink:href="#DejaVuSans-74" x="486.894531"/>
      <use xlink:href="#DejaVuSans-6f" x="526.103516"/>
      <use xlink:href="#DejaVuSans-72" x="587.285156"/>
      <use xlink:href="#DejaVuSans-64" x="626.648438"/>
      <use xlink:href="#DejaVuSans-72" x="690.125"/>
      <use xlink:href="#DejaVuSans-75" x="731.238281"/>
      <use xlink:href="#DejaVuSans-63" x="794.617188"/>
      <use xlink:href="#DejaVuSans-6b" x="849.597656"/>
      <use xlink:href="#DejaVuSans-20" x="907.507812"/>
      <use xlink:href="#DejaVuSans-69" x="939.294922"/>
      <use xlink:href="#DejaVuSans-6e" x="967.078125"/>
      <use xlink:href="#DejaVuSans-20" x="1030.457031"/>
      <use xlink:href="#DejaVuSans-62" x="1062.244141"/>
      <use xlink:href="#DejaVuSans-61" x="1125.720703"/>
      <use xlink:href="#DejaVuSans-72" x="1187"/>
     </g>
    </g>
   </g>
   <g id="matplotlib.axis_2">
    <g id="ytick_1">
     <g id="line2d_7">
      <defs>
       <path id="m49cb0c66b0" d="M 0 0 
L -3.5 0 
" style="stroke: #000000; stroke-width: 0.8"/>
      </defs>
      <g>
       <use xlink:href="#m49cb0c66b0" x="57.6" y="307.584" style="stroke: #000000; stroke-width: 0.8"/>
      </g>
     </g>
     <g id="text_8">
      <!-- 0.00 -->
      <g transform="translate(10.521875 314.422594) scale(0.18 -0.18)">
       <use xlink:href="#DejaVuSans-30"/>
       <use xlink:href="#DejaVuSans-2e" x="63.623047"/>
       <use xlink:href="#DejaVuSans-30" x="95.410156"/>
       <use xlink:href="#DejaVuSans-30" x="159.033203"/>
      </g>
     </g>
    </g>
    <g id="ytick_2">
     <g id="line2d_8">
      <g>
       <use xlink:href="#m49cb0c66b0" x="57.6" y="268.910561" style="stroke: #000000; stroke-width: 0.8"/>
      </g>
     </g>
     <g id="text_9">
      <!-- 0.25 -->
      <g transform="translate(10.521875 275.749155) scale(0.18 -0.18)">
       <use xlink:href="#DejaVuSans-30"/>
       <use xlink:href="#DejaVuSans-2e" x="63.623047"/>
       <use xlink:href="#DejaVuSans-32" x="95.410156"/>
       <use xlink:href="#DejaVuSans-35" x="159.033203"/>
      </g>
     </g>
    </g>
    <g id="ytick_3">
     <g id="line2d_9">
      <g>
       <use xlink:href="#m49cb0c66b0" x="57.6" y="230.237123" style="stroke: #000000; stroke-width: 0.8"/>
      </g>
     </g>
     <g id="text_10">
      <!-- 0.50 -->
      <g transform="translate(10.521875 237.075717) scale(0.18 -0.18)">
       <use xlink:href="#DejaVuSans-30"/>
       <use xlink:href="#DejaVuSans-2e" x="63.623047"/>
       <use xlink:href="#DejaVuSans-35" x="95.410156"/>
       <use xlink:href="#DejaVuSans-30" x="159.033203"/>
      </g>
     </g>
    </g>
    <g id="ytick_4">
     <g id="line2d_10">
      <g>
       <use xlink:href="#m49cb0c66b0" x="57.6" y="191.563684" style="stroke: #000000; stroke-width: 0.8"/>
      </g>
     </g>
     <g id="text_11">
      <!-- 0.75 -->
      <g transform="translate(10.521875 198.402278) scale(0.18 -0.18)">
       <use xlink:href="#DejaVuSans-30"/>
       <use xlink:href="#DejaVuSans-2e" x="63.623047"/>
       <use xlink:href="#DejaVuSans-37" x="95.410156"/>
       <use xlink:href="#DejaVuSans-35" x="159.033203"/>
      </g>
     </g>
    </g>
    <g id="ytick_5">
     <g id="line2d_11">
      <g>
       <use xlink:href="#m49cb0c66b0" x="57.6" y="152.890246" style="stroke: #000000; stroke-width: 0.8"/>
      </g>
     </g>
     <g id="text_12">
      <!-- 1.00 -->
      <g transform="translate(10.521875 159.728839) scale(0.18 -0.18)">
       <defs>
        <path id="DejaVuSans-31" d="M 794 531 
L 1825 531 
L 1825 4091 
L 703 3866 
L 703 4441 
L 1819 4666 
L 2450 4666 
L 2450 531 
L 3481 531 
L 3481 0 
L 794 0 
L 794 531 
z
" transform="scale(0.015625)"/>
       </defs>
       <use xlink:href="#DejaVuSans-31"/>
       <use xlink:href="#DejaVuSans-2e" x="63.623047"/>
       <use xlink:href="#DejaVuSans-30" x="95.410156"/>
       <use xlink:href="#DejaVuSans-30" x="159.033203"/>
      </g>
     </g>
    </g>
    <g id="ytick_6">
     <g id="line2d_12">
      <g>
       <use xlink:href="#m49cb0c66b0" x="57.6" y="114.216807" style="stroke: #000000; stroke-width: 0.8"/>
      </g>
     </g>
     <g id="text_13">
      <!-- 1.25 -->
      <g transform="translate(10.521875 121.055401) scale(0.18 -0.18)">
       <use xlink:href="#DejaVuSans-31"/>
       <use xlink:href="#DejaVuSans-2e" x="63.623047"/>
       <use xlink:href="#DejaVuSans-32" x="95.410156"/>
       <use xlink:href="#DejaVuSans-35" x="159.033203"/>
      </g>
     </g>
    </g>
    <g id="ytick_7">
     <g id="line2d_13">
      <g>
       <use xlink:href="#m49cb0c66b0" x="57.6" y="75.543368" style="stroke: #000000; stroke-width: 0.8"/>
      </g>
     </g>
     <g id="text_14">
      <!-- 1.50 -->
      <g transform="translate(10.521875 82.381962) scale(0.18 -0.18)">
       <use xlink:href="#DejaVuSans-31"/>
       <use xlink:href="#DejaVuSans-2e" x="63.623047"/>
       <use xlink:href="#DejaVuSans-35" x="95.410156"/>
       <use xlink:href="#DejaVuSans-30" x="159.033203"/>
      </g>
     </g>
    </g>
    <g id="text_15">
     <!-- Exergievernichtung in MW -->
     <g transform="translate(2.778437 292.593937) rotate(-90) scale(0.18 -0.18)">
      <defs>
       <path id="DejaVuSans-45" d="M 628 4666 
L 3578 4666 
L 3578 4134 
L 1259 4134 
L 1259 2753 
L 3481 2753 
L 3481 2222 
L 1259 2222 
L 1259 531 
L 3634 531 
L 3634 0 
L 628 0 
L 628 4666 
z
" transform="scale(0.015625)"/>
       <path id="DejaVuSans-78" d="M 3513 3500 
L 2247 1797 
L 3578 0 
L 2900 0 
L 1881 1375 
L 863 0 
L 184 0 
L 1544 1831 
L 300 3500 
L 978 3500 
L 1906 2253 
L 2834 3500 
L 3513 3500 
z
" transform="scale(0.015625)"/>
       <path id="DejaVuSans-67" d="M 2906 1791 
Q 2906 2416 2648 2759 
Q 2391 3103 1925 3103 
Q 1463 3103 1205 2759 
Q 947 2416 947 1791 
Q 947 1169 1205 825 
Q 1463 481 1925 481 
Q 2391 481 2648 825 
Q 2906 1169 2906 1791 
z
M 3481 434 
Q 3481 -459 3084 -895 
Q 2688 -1331 1869 -1331 
Q 1566 -1331 1297 -1286 
Q 1028 -1241 775 -1147 
L 775 -588 
Q 1028 -725 1275 -790 
Q 1522 -856 1778 -856 
Q 2344 -856 2625 -561 
Q 2906 -266 2906 331 
L 2906 616 
Q 2728 306 2450 153 
Q 2172 0 1784 0 
Q 1141 0 747 490 
Q 353 981 353 1791 
Q 353 2603 747 3093 
Q 1141 3584 1784 3584 
Q 2172 3584 2450 3431 
Q 2728 3278 2906 2969 
L 2906 3500 
L 3481 3500 
L 3481 434 
z
" transform="scale(0.015625)"/>
       <path id="DejaVuSans-76" d="M 191 3500 
L 800 3500 
L 1894 563 
L 2988 3500 
L 3597 3500 
L 2284 0 
L 1503 0 
L 191 3500 
z
" transform="scale(0.015625)"/>
       <path id="DejaVuSans-68" d="M 3513 2113 
L 3513 0 
L 2938 0 
L 2938 2094 
Q 2938 2591 2744 2837 
Q 2550 3084 2163 3084 
Q 1697 3084 1428 2787 
Q 1159 2491 1159 1978 
L 1159 0 
L 581 0 
L 581 4863 
L 1159 4863 
L 1159 2956 
Q 1366 3272 1645 3428 
Q 1925 3584 2291 3584 
Q 2894 3584 3203 3211 
Q 3513 2838 3513 2113 
z
" transform="scale(0.015625)"/>
       <path id="DejaVuSans-4d" d="M 628 4666 
L 1569 4666 
L 2759 1491 
L 3956 4666 
L 4897 4666 
L 4897 0 
L 4281 0 
L 4281 4097 
L 3078 897 
L 2444 897 
L 1241 4097 
L 1241 0 
L 628 0 
L 628 4666 
z
" transform="scale(0.015625)"/>
       <path id="DejaVuSans-57" d="M 213 4666 
L 850 4666 
L 1831 722 
L 2809 4666 
L 3519 4666 
L 4500 722 
L 5478 4666 
L 6119 4666 
L 4947 0 
L 4153 0 
L 3169 4050 
L 2175 0 
L 1381 0 
L 213 4666 
z
" transform="scale(0.015625)"/>
      </defs>
      <use xlink:href="#DejaVuSans-45"/>
      <use xlink:href="#DejaVuSans-78" x="63.183594"/>
      <use xlink:href="#DejaVuSans-65" x="119.238281"/>
      <use xlink:href="#DejaVuSans-72" x="180.761719"/>
      <use xlink:href="#DejaVuSans-67" x="220.125"/>
      <use xlink:href="#DejaVuSans-69" x="283.601562"/>
      <use xlink:href="#DejaVuSans-65" x="311.384766"/>
      <use xlink:href="#DejaVuSans-76" x="372.908203"/>
      <use xlink:href="#DejaVuSans-65" x="432.087891"/>
      <use xlink:href="#DejaVuSans-72" x="493.611328"/>
      <use xlink:href="#DejaVuSans-6e" x="532.974609"/>
      <use xlink:href="#DejaVuSans-69" x="596.353516"/>
      <use xlink:href="#DejaVuSans-63" x="624.136719"/>
      <use xlink:href="#DejaVuSans-68" x="679.117188"/>
      <use xlink:href="#DejaVuSans-74" x="742.496094"/>
      <use xlink:href="#DejaVuSans-75" x="781.705078"/>
      <use xlink:href="#DejaVuSans-6e" x="845.083984"/>
      <use xlink:href="#DejaVuSans-67" x="908.462891"/>
      <use xlink:href="#DejaVuSans-20" x="971.939453"/>
      <use xlink:href="#DejaVuSans-69" x="1003.726562"/>
      <use xlink:href="#DejaVuSans-6e" x="1031.509766"/>
      <use xlink:href="#DejaVuSans-20" x="1094.888672"/>
      <use xlink:href="#DejaVuSans-4d" x="1126.675781"/>
      <use xlink:href="#DejaVuSans-57" x="1212.955078"/>
     </g>
    </g>
   </g>
   <g id="patch_183">
    <path d="M 57.6 307.584 
L 57.6 41.472 
" style="fill: none; stroke: #000000; stroke-width: 0.8; stroke-linejoin: miter; stroke-linecap: square"/>
   </g>
   <g id="patch_184">
    <path d="M 414.72 307.584 
L 414.72 41.472 
" style="fill: none; stroke: #000000; stroke-width: 0.8; stroke-linejoin: miter; stroke-linecap: square"/>
   </g>
   <g id="patch_185">
    <path d="M 57.6 307.584 
L 414.72 307.584 
" style="fill: none; stroke: #000000; stroke-width: 0.8; stroke-linejoin: miter; stroke-linecap: square"/>
   </g>
   <g id="patch_186">
    <path d="M 57.6 41.472 
L 414.72 41.472 
" style="fill: none; stroke: #000000; stroke-width: 0.8; stroke-linejoin: miter; stroke-linecap: square"/>
   </g>
   <g id="legend_1">
    <g id="patch_187">
     <path d="M 108.475313 298.584 
L 402.12 298.584 
Q 405.72 298.584 405.72 294.984 
L 405.72 58.998375 
Q 405.72 55.398375 402.12 55.398375 
L 108.475313 55.398375 
Q 104.875313 55.398375 104.875313 58.998375 
L 104.875313 294.984 
Q 104.875313 298.584 108.475313 298.584 
z
" style="fill: #ffffff; opacity: 0.8; stroke: #cccccc; stroke-linejoin: miter"/>
    </g>
    <g id="patch_188">
     <path d="M 112.075313 76.275563 
L 148.075313 76.275563 
L 148.075313 63.675563 
L 112.075313 63.675563 
z
" style="fill: #1f77b4"/>
    </g>
    <g id="text_16">
     <!-- Gas cooler -->
     <g transform="translate(162.475313 76.275563) scale(0.18 -0.18)">
      <defs>
       <path id="DejaVuSans-47" d="M 3809 666 
L 3809 1919 
L 2778 1919 
L 2778 2438 
L 4434 2438 
L 4434 434 
Q 4069 175 3628 42 
Q 3188 -91 2688 -91 
Q 1594 -91 976 548 
Q 359 1188 359 2328 
Q 359 3472 976 4111 
Q 1594 4750 2688 4750 
Q 3144 4750 3555 4637 
Q 3966 4525 4313 4306 
L 4313 3634 
Q 3963 3931 3569 4081 
Q 3175 4231 2741 4231 
Q 1884 4231 1454 3753 
Q 1025 3275 1025 2328 
Q 1025 1384 1454 906 
Q 1884 428 2741 428 
Q 3075 428 3337 486 
Q 3600 544 3809 666 
z
" transform="scale(0.015625)"/>
       <path id="DejaVuSans-6c" d="M 603 4863 
L 1178 4863 
L 1178 0 
L 603 0 
L 603 4863 
z
" transform="scale(0.015625)"/>
      </defs>
      <use xlink:href="#DejaVuSans-47"/>
      <use xlink:href="#DejaVuSans-61" x="77.490234"/>
      <use xlink:href="#DejaVuSans-73" x="138.769531"/>
      <use xlink:href="#DejaVuSans-20" x="190.869141"/>
      <use xlink:href="#DejaVuSans-63" x="222.65625"/>
      <use xlink:href="#DejaVuSans-6f" x="277.636719"/>
      <use xlink:href="#DejaVuSans-6f" x="338.818359"/>
      <use xlink:href="#DejaVuSans-6c" x="400"/>
      <use xlink:href="#DejaVuSans-65" x="427.783203"/>
      <use xlink:href="#DejaVuSans-72" x="489.306641"/>
     </g>
    </g>
    <g id="patch_189">
     <path d="M 112.075313 102.696188 
L 148.075313 102.696188 
L 148.075313 90.096188 
L 112.075313 90.096188 
z
" style="fill: #ff7f0e"/>
    </g>
    <g id="text_17">
     <!-- Evaporator -->
     <g transform="translate(162.475313 102.696188) scale(0.18 -0.18)">
      <defs>
       <path id="DejaVuSans-70" d="M 1159 525 
L 1159 -1331 
L 581 -1331 
L 581 3500 
L 1159 3500 
L 1159 2969 
Q 1341 3281 1617 3432 
Q 1894 3584 2278 3584 
Q 2916 3584 3314 3078 
Q 3713 2572 3713 1747 
Q 3713 922 3314 415 
Q 2916 -91 2278 -91 
Q 1894 -91 1617 61 
Q 1341 213 1159 525 
z
M 3116 1747 
Q 3116 2381 2855 2742 
Q 2594 3103 2138 3103 
Q 1681 3103 1420 2742 
Q 1159 2381 1159 1747 
Q 1159 1113 1420 752 
Q 1681 391 2138 391 
Q 2594 391 2855 752 
Q 3116 1113 3116 1747 
z
" transform="scale(0.015625)"/>
      </defs>
      <use xlink:href="#DejaVuSans-45"/>
      <use xlink:href="#DejaVuSans-76" x="63.183594"/>
      <use xlink:href="#DejaVuSans-61" x="122.363281"/>
      <use xlink:href="#DejaVuSans-70" x="183.642578"/>
      <use xlink:href="#DejaVuSans-6f" x="247.119141"/>
      <use xlink:href="#DejaVuSans-72" x="308.300781"/>
      <use xlink:href="#DejaVuSans-61" x="349.414062"/>
      <use xlink:href="#DejaVuSans-74" x="410.693359"/>
      <use xlink:href="#DejaVuSans-6f" x="449.902344"/>
      <use xlink:href="#DejaVuSans-72" x="511.083984"/>
     </g>
    </g>
    <g id="patch_190">
     <path d="M 112.075313 129.116813 
L 148.075313 129.116813 
L 148.075313 116.516813 
L 112.075313 116.516813 
z
" style="fill: #2ca02c"/>
    </g>
    <g id="text_18">
     <!-- Valve 1 -->
     <g transform="translate(162.475313 129.116813) scale(0.18 -0.18)">
      <defs>
       <path id="DejaVuSans-56" d="M 1831 0 
L 50 4666 
L 709 4666 
L 2188 738 
L 3669 4666 
L 4325 4666 
L 2547 0 
L 1831 0 
z
" transform="scale(0.015625)"/>
      </defs>
      <use xlink:href="#DejaVuSans-56"/>
      <use xlink:href="#DejaVuSans-61" x="60.658203"/>
      <use xlink:href="#DejaVuSans-6c" x="121.9375"/>
      <use xlink:href="#DejaVuSans-76" x="149.720703"/>
      <use xlink:href="#DejaVuSans-65" x="208.900391"/>
      <use xlink:href="#DejaVuSans-20" x="270.423828"/>
      <use xlink:href="#DejaVuSans-31" x="302.210938"/>
     </g>
    </g>
    <g id="patch_191">
     <path d="M 112.075313 155.537438 
L 148.075313 155.537438 
L 148.075313 142.937438 
L 112.075313 142.937438 
z
" style="fill: #d62728"/>
    </g>
    <g id="text_19">
     <!-- Valve 2 -->
     <g transform="translate(162.475313 155.537438) scale(0.18 -0.18)">
      <use xlink:href="#DejaVuSans-56"/>
      <use xlink:href="#DejaVuSans-61" x="60.658203"/>
      <use xlink:href="#DejaVuSans-6c" x="121.9375"/>
      <use xlink:href="#DejaVuSans-76" x="149.720703"/>
      <use xlink:href="#DejaVuSans-65" x="208.900391"/>
      <use xlink:href="#DejaVuSans-20" x="270.423828"/>
      <use xlink:href="#DejaVuSans-32" x="302.210938"/>
     </g>
    </g>
    <g id="patch_192">
     <path d="M 112.075313 181.958063 
L 148.075313 181.958063 
L 148.075313 169.358063 
L 112.075313 169.358063 
z
" style="fill: #9467bd"/>
    </g>
    <g id="text_20">
     <!-- Compressor 1 -->
     <g transform="translate(162.475313 181.958063) scale(0.18 -0.18)">
      <defs>
       <path id="DejaVuSans-43" d="M 4122 4306 
L 4122 3641 
Q 3803 3938 3442 4084 
Q 3081 4231 2675 4231 
Q 1875 4231 1450 3742 
Q 1025 3253 1025 2328 
Q 1025 1406 1450 917 
Q 1875 428 2675 428 
Q 3081 428 3442 575 
Q 3803 722 4122 1019 
L 4122 359 
Q 3791 134 3420 21 
Q 3050 -91 2638 -91 
Q 1578 -91 968 557 
Q 359 1206 359 2328 
Q 359 3453 968 4101 
Q 1578 4750 2638 4750 
Q 3056 4750 3426 4639 
Q 3797 4528 4122 4306 
z
" transform="scale(0.015625)"/>
       <path id="DejaVuSans-6d" d="M 3328 2828 
Q 3544 3216 3844 3400 
Q 4144 3584 4550 3584 
Q 5097 3584 5394 3201 
Q 5691 2819 5691 2113 
L 5691 0 
L 5113 0 
L 5113 2094 
Q 5113 2597 4934 2840 
Q 4756 3084 4391 3084 
Q 3944 3084 3684 2787 
Q 3425 2491 3425 1978 
L 3425 0 
L 2847 0 
L 2847 2094 
Q 2847 2600 2669 2842 
Q 2491 3084 2119 3084 
Q 1678 3084 1418 2786 
Q 1159 2488 1159 1978 
L 1159 0 
L 581 0 
L 581 3500 
L 1159 3500 
L 1159 2956 
Q 1356 3278 1631 3431 
Q 1906 3584 2284 3584 
Q 2666 3584 2933 3390 
Q 3200 3197 3328 2828 
z
" transform="scale(0.015625)"/>
      </defs>
      <use xlink:href="#DejaVuSans-43"/>
      <use xlink:href="#DejaVuSans-6f" x="69.824219"/>
      <use xlink:href="#DejaVuSans-6d" x="131.005859"/>
      <use xlink:href="#DejaVuSans-70" x="228.417969"/>
      <use xlink:href="#DejaVuSans-72" x="291.894531"/>
      <use xlink:href="#DejaVuSans-65" x="330.757812"/>
      <use xlink:href="#DejaVuSans-73" x="392.28125"/>
      <use xlink:href="#DejaVuSans-73" x="444.380859"/>
      <use xlink:href="#DejaVuSans-6f" x="496.480469"/>
      <use xlink:href="#DejaVuSans-72" x="557.662109"/>
      <use xlink:href="#DejaVuSans-20" x="598.775391"/>
      <use xlink:href="#DejaVuSans-31" x="630.5625"/>
     </g>
    </g>
    <g id="patch_193">
     <path d="M 112.075313 208.378688 
L 148.075313 208.378688 
L 148.075313 195.778688 
L 112.075313 195.778688 
z
" style="fill: #8c564b"/>
    </g>
    <g id="text_21">
     <!-- Compressor 2 -->
     <g transform="translate(162.475313 208.378688) scale(0.18 -0.18)">
      <use xlink:href="#DejaVuSans-43"/>
      <use xlink:href="#DejaVuSans-6f" x="69.824219"/>
      <use xlink:href="#DejaVuSans-6d" x="131.005859"/>
      <use xlink:href="#DejaVuSans-70" x="228.417969"/>
      <use xlink:href="#DejaVuSans-72" x="291.894531"/>
      <use xlink:href="#DejaVuSans-65" x="330.757812"/>
      <use xlink:href="#DejaVuSans-73" x="392.28125"/>
      <use xlink:href="#DejaVuSans-73" x="444.380859"/>
      <use xlink:href="#DejaVuSans-6f" x="496.480469"/>
      <use xlink:href="#DejaVuSans-72" x="557.662109"/>
      <use xlink:href="#DejaVuSans-20" x="598.775391"/>
      <use xlink:href="#DejaVuSans-32" x="630.5625"/>
     </g>
    </g>
    <g id="patch_194">
     <path d="M 112.075313 234.799313 
L 148.075313 234.799313 
L 148.075313 222.199313 
L 112.075313 222.199313 
z
" style="fill: #e377c2"/>
    </g>
    <g id="text_22">
     <!-- Internal Heat Exchanger 1 -->
     <g transform="translate(162.475313 234.799313) scale(0.18 -0.18)">
      <defs>
       <path id="DejaVuSans-49" d="M 628 4666 
L 1259 4666 
L 1259 0 
L 628 0 
L 628 4666 
z
" transform="scale(0.015625)"/>
       <path id="DejaVuSans-48" d="M 628 4666 
L 1259 4666 
L 1259 2753 
L 3553 2753 
L 3553 4666 
L 4184 4666 
L 4184 0 
L 3553 0 
L 3553 2222 
L 1259 2222 
L 1259 0 
L 628 0 
L 628 4666 
z
" transform="scale(0.015625)"/>
      </defs>
      <use xlink:href="#DejaVuSans-49"/>
      <use xlink:href="#DejaVuSans-6e" x="29.492188"/>
      <use xlink:href="#DejaVuSans-74" x="92.871094"/>
      <use xlink:href="#DejaVuSans-65" x="132.080078"/>
      <use xlink:href="#DejaVuSans-72" x="193.603516"/>
      <use xlink:href="#DejaVuSans-6e" x="232.966797"/>
      <use xlink:href="#DejaVuSans-61" x="296.345703"/>
      <use xlink:href="#DejaVuSans-6c" x="357.625"/>
      <use xlink:href="#DejaVuSans-20" x="385.408203"/>
      <use xlink:href="#DejaVuSans-48" x="417.195312"/>
      <use xlink:href="#DejaVuSans-65" x="492.390625"/>
      <use xlink:href="#DejaVuSans-61" x="553.914062"/>
      <use xlink:href="#DejaVuSans-74" x="615.193359"/>
      <use xlink:href="#DejaVuSans-20" x="654.402344"/>
      <use xlink:href="#DejaVuSans-45" x="686.189453"/>
      <use xlink:href="#DejaVuSans-78" x="749.373047"/>
      <use xlink:href="#DejaVuSans-63" x="806.802734"/>
      <use xlink:href="#DejaVuSans-68" x="861.783203"/>
      <use xlink:href="#DejaVuSans-61" x="925.162109"/>
      <use xlink:href="#DejaVuSans-6e" x="986.441406"/>
      <use xlink:href="#DejaVuSans-67" x="1049.820312"/>
      <use xlink:href="#DejaVuSans-65" x="1113.296875"/>
      <use xlink:href="#DejaVuSans-72" x="1174.820312"/>
      <use xlink:href="#DejaVuSans-20" x="1215.933594"/>
      <use xlink:href="#DejaVuSans-31" x="1247.720703"/>
     </g>
    </g>
    <g id="patch_195">
     <path d="M 112.075313 261.219938 
L 148.075313 261.219938 
L 148.075313 248.619938 
L 112.075313 248.619938 
z
" style="fill: #7f7f7f"/>
    </g>
    <g id="text_23">
     <!-- Internal Heat Exchanger 2 -->
     <g transform="translate(162.475313 261.219938) scale(0.18 -0.18)">
      <use xlink:href="#DejaVuSans-49"/>
      <use xlink:href="#DejaVuSans-6e" x="29.492188"/>
      <use xlink:href="#DejaVuSans-74" x="92.871094"/>
      <use xlink:href="#DejaVuSans-65" x="132.080078"/>
      <use xlink:href="#DejaVuSans-72" x="193.603516"/>
      <use xlink:href="#DejaVuSans-6e" x="232.966797"/>
      <use xlink:href="#DejaVuSans-61" x="296.345703"/>
      <use xlink:href="#DejaVuSans-6c" x="357.625"/>
      <use xlink:href="#DejaVuSans-20" x="385.408203"/>
      <use xlink:href="#DejaVuSans-48" x="417.195312"/>
      <use xlink:href="#DejaVuSans-65" x="492.390625"/>
      <use xlink:href="#DejaVuSans-61" x="553.914062"/>
      <use xlink:href="#DejaVuSans-74" x="615.193359"/>
      <use xlink:href="#DejaVuSans-20" x="654.402344"/>
      <use xlink:href="#DejaVuSans-45" x="686.189453"/>
      <use xlink:href="#DejaVuSans-78" x="749.373047"/>
      <use xlink:href="#DejaVuSans-63" x="806.802734"/>
      <use xlink:href="#DejaVuSans-68" x="861.783203"/>
      <use xlink:href="#DejaVuSans-61" x="925.162109"/>
      <use xlink:href="#DejaVuSans-6e" x="986.441406"/>
      <use xlink:href="#DejaVuSans-67" x="1049.820312"/>
      <use xlink:href="#DejaVuSans-65" x="1113.296875"/>
      <use xlink:href="#DejaVuSans-72" x="1174.820312"/>
      <use xlink:href="#DejaVuSans-20" x="1215.933594"/>
      <use xlink:href="#DejaVuSans-32" x="1247.720703"/>
     </g>
    </g>
    <g id="patch_196">
     <path d="M 112.075313 287.640562 
L 148.075313 287.640562 
L 148.075313 275.040562 
L 112.075313 275.040562 
z
" style="fill: #bcbd22"/>
    </g>
    <g id="text_24">
     <!-- Merge -->
     <g transform="translate(162.475313 287.640562) scale(0.18 -0.18)">
      <use xlink:href="#DejaVuSans-4d"/>
      <use xlink:href="#DejaVuSans-65" x="86.279297"/>
      <use xlink:href="#DejaVuSans-72" x="147.802734"/>
      <use xlink:href="#DejaVuSans-67" x="187.166016"/>
      <use xlink:href="#DejaVuSans-65" x="250.642578"/>
     </g>
    </g>
   </g>
  </g>
 </g>
 <defs>
  <clipPath id="pd10627cf0a">
   <rect x="57.6" y="41.472" width="357.12" height="266.112"/>
  </clipPath>
 </defs>
</svg>
