<?xml version="1.0" encoding="utf-8" standalone="no"?>
<!DOCTYPE svg PUBLIC "-//W3C//DTD SVG 1.1//EN"
  "http://www.w3.org/Graphics/SVG/1.1/DTD/svg11.dtd">
<svg xmlns:xlink="http://www.w3.org/1999/xlink" width="1382.4pt" height="730.8pt" viewBox="0 0 1382.4 730.8" xmlns="http://www.w3.org/2000/svg" version="1.1">
 <metadata>
  <rdf:RDF xmlns:dc="http://purl.org/dc/elements/1.1/" xmlns:cc="http://creativecommons.org/ns#" xmlns:rdf="http://www.w3.org/1999/02/22-rdf-syntax-ns#">
   <cc:Work>
    <dc:type rdf:resource="http://purl.org/dc/dcmitype/StillImage"/>
    <dc:date>2023-04-17T11:00:02.119337</dc:date>
    <dc:format>image/svg+xml</dc:format>
    <dc:creator>
     <cc:Agent>
      <dc:title>Matplotlib v3.6.1, https://matplotlib.org/</dc:title>
     </cc:Agent>
    </dc:creator>
   </cc:Work>
  </rdf:RDF>
 </metadata>
 <defs>
  <style type="text/css">*{stroke-linejoin: round; stroke-linecap: butt}</style>
 </defs>
 <g id="figure_1">
  <g id="patch_1">
   <path d="M 0 730.8 
L 1382.4 730.8 
L 1382.4 0 
L 0 0 
z
" style="fill: #ffffff"/>
  </g>
  <g id="axes_1">
   <g id="patch_2">
    <path d="M 172.8 650.412 
L 1244.16 650.412 
L 1244.16 87.696 
L 172.8 87.696 
z
" style="fill: #ffffff"/>
   </g>
   <g id="patch_3">
    <path d="M 221.498182 650.412 
L 252.916364 650.412 
L 252.916364 626.911734 
L 221.498182 626.911734 
z
" clip-path="url(#pc19e1ac2c2)" style="fill: #1f77b4"/>
   </g>
   <g id="patch_4">
    <path d="M 271.105837 650.412 
L 302.524019 650.412 
L 302.524019 625.029625 
L 271.105837 625.029625 
z
" clip-path="url(#pc19e1ac2c2)" style="fill: #1f77b4"/>
   </g>
   <g id="patch_5">
    <path d="M 320.713493 650.412 
L 352.131675 650.412 
L 352.131675 623.18981 
L 320.713493 623.18981 
z
" clip-path="url(#pc19e1ac2c2)" style="fill: #1f77b4"/>
   </g>
   <g id="patch_6">
    <path d="M 370.321148 650.412 
L 401.73933 650.412 
L 401.73933 621.391857 
L 370.321148 621.391857 
z
" clip-path="url(#pc19e1ac2c2)" style="fill: #1f77b4"/>
   </g>
   <g id="patch_7">
    <path d="M 419.928804 650.412 
L 451.346986 650.412 
L 451.346986 619.635144 
L 419.928804 619.635144 
z
" clip-path="url(#pc19e1ac2c2)" style="fill: #1f77b4"/>
   </g>
   <g id="patch_8">
    <path d="M 469.536459 650.412 
L 500.954641 650.412 
L 500.954641 617.918946 
L 469.536459 617.918946 
z
" clip-path="url(#pc19e1ac2c2)" style="fill: #1f77b4"/>
   </g>
   <g id="patch_9">
    <path d="M 519.144115 650.412 
L 550.562297 650.412 
L 550.562297 616.242227 
L 519.144115 616.242227 
z
" clip-path="url(#pc19e1ac2c2)" style="fill: #1f77b4"/>
   </g>
   <g id="patch_10">
    <path d="M 568.75177 650.412 
L 600.169952 650.412 
L 600.169952 614.604048 
L 568.75177 614.604048 
z
" clip-path="url(#pc19e1ac2c2)" style="fill: #1f77b4"/>
   </g>
   <g id="patch_11">
    <path d="M 618.359426 650.412 
L 649.777608 650.412 
L 649.777608 613.003539 
L 618.359426 613.003539 
z
" clip-path="url(#pc19e1ac2c2)" style="fill: #1f77b4"/>
   </g>
   <g id="patch_12">
    <path d="M 667.967081 650.412 
L 699.385263 650.412 
L 699.385263 611.439822 
L 667.967081 611.439822 
z
" clip-path="url(#pc19e1ac2c2)" style="fill: #1f77b4"/>
   </g>
   <g id="patch_13">
    <path d="M 717.574737 650.412 
L 748.992919 650.412 
L 748.992919 609.912019 
L 717.574737 609.912019 
z
" clip-path="url(#pc19e1ac2c2)" style="fill: #1f77b4"/>
   </g>
   <g id="patch_14">
    <path d="M 767.182392 650.412 
L 798.600574 650.412 
L 798.600574 608.419259 
L 767.182392 608.419259 
z
" clip-path="url(#pc19e1ac2c2)" style="fill: #1f77b4"/>
   </g>
   <g id="patch_15">
    <path d="M 816.790048 650.412 
L 848.20823 650.412 
L 848.20823 606.960677 
L 816.790048 606.960677 
z
" clip-path="url(#pc19e1ac2c2)" style="fill: #1f77b4"/>
   </g>
   <g id="patch_16">
    <path d="M 866.397703 650.412 
L 897.815885 650.412 
L 897.815885 605.535426 
L 866.397703 605.535426 
z
" clip-path="url(#pc19e1ac2c2)" style="fill: #1f77b4"/>
   </g>
   <g id="patch_17">
    <path d="M 916.005359 650.412 
L 947.423541 650.412 
L 947.423541 604.142672 
L 916.005359 604.142672 
z
" clip-path="url(#pc19e1ac2c2)" style="fill: #1f77b4"/>
   </g>
   <g id="patch_18">
    <path d="M 965.613014 650.412 
L 997.031196 650.412 
L 997.031196 602.781596 
L 965.613014 602.781596 
z
" clip-path="url(#pc19e1ac2c2)" style="fill: #1f77b4"/>
   </g>
   <g id="patch_19">
    <path d="M 1015.22067 650.412 
L 1046.638852 650.412 
L 1046.638852 601.451399 
L 1015.22067 601.451399 
z
" clip-path="url(#pc19e1ac2c2)" style="fill: #1f77b4"/>
   </g>
   <g id="patch_20">
    <path d="M 1064.828325 650.412 
L 1096.246507 650.412 
L 1096.246507 600.151299 
L 1064.828325 600.151299 
z
" clip-path="url(#pc19e1ac2c2)" style="fill: #1f77b4"/>
   </g>
   <g id="patch_21">
    <path d="M 1114.435981 650.412 
L 1145.854163 650.412 
L 1145.854163 598.880531 
L 1114.435981 598.880531 
z
" clip-path="url(#pc19e1ac2c2)" style="fill: #1f77b4"/>
   </g>
   <g id="patch_22">
    <path d="M 1164.043636 650.412 
L 1195.461818 650.412 
L 1195.461818 597.638348 
L 1164.043636 597.638348 
z
" clip-path="url(#pc19e1ac2c2)" style="fill: #1f77b4"/>
   </g>
   <g id="patch_23">
    <path d="M 221.498182 626.911734 
L 252.916364 626.911734 
L 252.916364 602.755467 
L 221.498182 602.755467 
z
" clip-path="url(#pc19e1ac2c2)" style="fill: #ff7f0e"/>
   </g>
   <g id="patch_24">
    <path d="M 271.105837 625.029625 
L 302.524019 625.029625 
L 302.524019 600.870386 
L 271.105837 600.870386 
z
" clip-path="url(#pc19e1ac2c2)" style="fill: #ff7f0e"/>
   </g>
   <g id="patch_25">
    <path d="M 320.713493 623.18981 
L 352.131675 623.18981 
L 352.131675 599.030419 
L 320.713493 599.030419 
z
" clip-path="url(#pc19e1ac2c2)" style="fill: #ff7f0e"/>
   </g>
   <g id="patch_26">
    <path d="M 370.321148 621.391857 
L 401.73933 621.391857 
L 401.73933 597.234575 
L 370.321148 597.234575 
z
" clip-path="url(#pc19e1ac2c2)" style="fill: #ff7f0e"/>
   </g>
   <g id="patch_27">
    <path d="M 419.928804 619.635144 
L 451.346986 619.635144 
L 451.346986 595.481796 
L 419.928804 595.481796 
z
" clip-path="url(#pc19e1ac2c2)" style="fill: #ff7f0e"/>
   </g>
   <g id="patch_28">
    <path d="M 469.536459 617.918946 
L 500.954641 617.918946 
L 500.954641 593.771017 
L 469.536459 593.771017 
z
" clip-path="url(#pc19e1ac2c2)" style="fill: #ff7f0e"/>
   </g>
   <g id="patch_29">
    <path d="M 519.144115 616.242227 
L 550.562297 616.242227 
L 550.562297 592.101048 
L 519.144115 592.101048 
z
" clip-path="url(#pc19e1ac2c2)" style="fill: #ff7f0e"/>
   </g>
   <g id="patch_30">
    <path d="M 568.75177 614.604048 
L 600.169952 614.604048 
L 600.169952 590.470779 
L 568.75177 590.470779 
z
" clip-path="url(#pc19e1ac2c2)" style="fill: #ff7f0e"/>
   </g>
   <g id="patch_31">
    <path d="M 618.359426 613.003539 
L 649.777608 613.003539 
L 649.777608 588.879167 
L 618.359426 588.879167 
z
" clip-path="url(#pc19e1ac2c2)" style="fill: #ff7f0e"/>
   </g>
   <g id="patch_32">
    <path d="M 667.967081 611.439822 
L 699.385263 611.439822 
L 699.385263 587.325186 
L 667.967081 587.325186 
z
" clip-path="url(#pc19e1ac2c2)" style="fill: #ff7f0e"/>
   </g>
   <g id="patch_33">
    <path d="M 717.574737 609.912019 
L 748.992919 609.912019 
L 748.992919 585.807837 
L 717.574737 585.807837 
z
" clip-path="url(#pc19e1ac2c2)" style="fill: #ff7f0e"/>
   </g>
   <g id="patch_34">
    <path d="M 767.182392 608.419259 
L 798.600574 608.419259 
L 798.600574 584.326144 
L 767.182392 584.326144 
z
" clip-path="url(#pc19e1ac2c2)" style="fill: #ff7f0e"/>
   </g>
   <g id="patch_35">
    <path d="M 816.790048 606.960677 
L 848.20823 606.960677 
L 848.20823 582.87916 
L 816.790048 582.87916 
z
" clip-path="url(#pc19e1ac2c2)" style="fill: #ff7f0e"/>
   </g>
   <g id="patch_36">
    <path d="M 866.397703 605.535426 
L 897.815885 605.535426 
L 897.815885 581.46596 
L 866.397703 581.46596 
z
" clip-path="url(#pc19e1ac2c2)" style="fill: #ff7f0e"/>
   </g>
   <g id="patch_37">
    <path d="M 916.005359 604.142672 
L 947.423541 604.142672 
L 947.423541 580.085646 
L 916.005359 580.085646 
z
" clip-path="url(#pc19e1ac2c2)" style="fill: #ff7f0e"/>
   </g>
   <g id="patch_38">
    <path d="M 965.613014 602.781596 
L 997.031196 602.781596 
L 997.031196 578.737347 
L 965.613014 578.737347 
z
" clip-path="url(#pc19e1ac2c2)" style="fill: #ff7f0e"/>
   </g>
   <g id="patch_39">
    <path d="M 1015.22067 601.451399 
L 1046.638852 601.451399 
L 1046.638852 577.420214 
L 1015.22067 577.420214 
z
" clip-path="url(#pc19e1ac2c2)" style="fill: #ff7f0e"/>
   </g>
   <g id="patch_40">
    <path d="M 1064.828325 600.151299 
L 1096.246507 600.151299 
L 1096.246507 576.133423 
L 1064.828325 576.133423 
z
" clip-path="url(#pc19e1ac2c2)" style="fill: #ff7f0e"/>
   </g>
   <g id="patch_41">
    <path d="M 1114.435981 598.880531 
L 1145.854163 598.880531 
L 1145.854163 574.876174 
L 1114.435981 574.876174 
z
" clip-path="url(#pc19e1ac2c2)" style="fill: #ff7f0e"/>
   </g>
   <g id="patch_42">
    <path d="M 1164.043636 597.638348 
L 1195.461818 597.638348 
L 1195.461818 573.647689 
L 1164.043636 573.647689 
z
" clip-path="url(#pc19e1ac2c2)" style="fill: #ff7f0e"/>
   </g>
   <g id="patch_43">
    <path d="M 221.498182 602.755467 
L 252.916364 602.755467 
L 252.916364 596.774835 
L 221.498182 596.774835 
z
" clip-path="url(#pc19e1ac2c2)" style="fill: #2ca02c"/>
   </g>
   <g id="patch_44">
    <path d="M 271.105837 600.870386 
L 302.524019 600.870386 
L 302.524019 594.889019 
L 271.105837 594.889019 
z
" clip-path="url(#pc19e1ac2c2)" style="fill: #2ca02c"/>
   </g>
   <g id="patch_45">
    <path d="M 320.713493 599.030419 
L 352.131675 599.030419 
L 352.131675 593.049015 
L 320.713493 593.049015 
z
" clip-path="url(#pc19e1ac2c2)" style="fill: #2ca02c"/>
   </g>
   <g id="patch_46">
    <path d="M 370.321148 597.234575 
L 401.73933 597.234575 
L 401.73933 591.253692 
L 370.321148 591.253692 
z
" clip-path="url(#pc19e1ac2c2)" style="fill: #2ca02c"/>
   </g>
   <g id="patch_47">
    <path d="M 419.928804 595.481796 
L 451.346986 595.481796 
L 451.346986 589.501887 
L 419.928804 589.501887 
z
" clip-path="url(#pc19e1ac2c2)" style="fill: #2ca02c"/>
   </g>
   <g id="patch_48">
    <path d="M 469.536459 593.771017 
L 500.954641 593.771017 
L 500.954641 587.792451 
L 469.536459 587.792451 
z
" clip-path="url(#pc19e1ac2c2)" style="fill: #2ca02c"/>
   </g>
   <g id="patch_49">
    <path d="M 519.144115 592.101048 
L 550.562297 592.101048 
L 550.562297 586.124153 
L 519.144115 586.124153 
z
" clip-path="url(#pc19e1ac2c2)" style="fill: #2ca02c"/>
   </g>
   <g id="patch_50">
    <path d="M 568.75177 590.470779 
L 600.169952 590.470779 
L 600.169952 584.495842 
L 568.75177 584.495842 
z
" clip-path="url(#pc19e1ac2c2)" style="fill: #2ca02c"/>
   </g>
   <g id="patch_51">
    <path d="M 618.359426 588.879167 
L 649.777608 588.879167 
L 649.777608 582.906432 
L 618.359426 582.906432 
z
" clip-path="url(#pc19e1ac2c2)" style="fill: #2ca02c"/>
   </g>
   <g id="patch_52">
    <path d="M 667.967081 587.325186 
L 699.385263 587.325186 
L 699.385263 581.354862 
L 667.967081 581.354862 
z
" clip-path="url(#pc19e1ac2c2)" style="fill: #2ca02c"/>
   </g>
   <g id="patch_53">
    <path d="M 717.574737 585.807837 
L 748.992919 585.807837 
L 748.992919 579.840101 
L 717.574737 579.840101 
z
" clip-path="url(#pc19e1ac2c2)" style="fill: #2ca02c"/>
   </g>
   <g id="patch_54">
    <path d="M 767.182392 584.326144 
L 798.600574 584.326144 
L 798.600574 578.361149 
L 767.182392 578.361149 
z
" clip-path="url(#pc19e1ac2c2)" style="fill: #2ca02c"/>
   </g>
   <g id="patch_55">
    <path d="M 816.790048 582.87916 
L 848.20823 582.87916 
L 848.20823 576.917036 
L 816.790048 576.917036 
z
" clip-path="url(#pc19e1ac2c2)" style="fill: #2ca02c"/>
   </g>
   <g id="patch_56">
    <path d="M 866.397703 581.46596 
L 897.815885 581.46596 
L 897.815885 575.506819 
L 866.397703 575.506819 
z
" clip-path="url(#pc19e1ac2c2)" style="fill: #2ca02c"/>
   </g>
   <g id="patch_57">
    <path d="M 916.005359 580.085646 
L 947.423541 580.085646 
L 947.423541 574.129586 
L 916.005359 574.129586 
z
" clip-path="url(#pc19e1ac2c2)" style="fill: #2ca02c"/>
   </g>
   <g id="patch_58">
    <path d="M 965.613014 578.737347 
L 997.031196 578.737347 
L 997.031196 572.78445 
L 965.613014 572.78445 
z
" clip-path="url(#pc19e1ac2c2)" style="fill: #2ca02c"/>
   </g>
   <g id="patch_59">
    <path d="M 1015.22067 577.420214 
L 1046.638852 577.420214 
L 1046.638852 571.470551 
L 1015.22067 571.470551 
z
" clip-path="url(#pc19e1ac2c2)" style="fill: #2ca02c"/>
   </g>
   <g id="patch_60">
    <path d="M 1064.828325 576.133423 
L 1096.246507 576.133423 
L 1096.246507 570.187055 
L 1064.828325 570.187055 
z
" clip-path="url(#pc19e1ac2c2)" style="fill: #2ca02c"/>
   </g>
   <g id="patch_61">
    <path d="M 1114.435981 574.876174 
L 1145.854163 574.876174 
L 1145.854163 568.933153 
L 1114.435981 568.933153 
z
" clip-path="url(#pc19e1ac2c2)" style="fill: #2ca02c"/>
   </g>
   <g id="patch_62">
    <path d="M 1164.043636 573.647689 
L 1195.461818 573.647689 
L 1195.461818 567.708059 
L 1164.043636 567.708059 
z
" clip-path="url(#pc19e1ac2c2)" style="fill: #2ca02c"/>
   </g>
   <g id="patch_63">
    <path d="M 221.498182 596.774835 
L 252.916364 596.774835 
L 252.916364 403.072354 
L 221.498182 403.072354 
z
" clip-path="url(#pc19e1ac2c2)" style="fill: #d62728"/>
   </g>
   <g id="patch_64">
    <path d="M 271.105837 594.889019 
L 302.524019 594.889019 
L 302.524019 402.040802 
L 271.105837 402.040802 
z
" clip-path="url(#pc19e1ac2c2)" style="fill: #d62728"/>
   </g>
   <g id="patch_65">
    <path d="M 320.713493 593.049015 
L 352.131675 593.049015 
L 352.131675 400.958375 
L 320.713493 400.958375 
z
" clip-path="url(#pc19e1ac2c2)" style="fill: #d62728"/>
   </g>
   <g id="patch_66">
    <path d="M 370.321148 591.253692 
L 401.73933 591.253692 
L 401.73933 399.838327 
L 370.321148 399.838327 
z
" clip-path="url(#pc19e1ac2c2)" style="fill: #d62728"/>
   </g>
   <g id="patch_67">
    <path d="M 419.928804 589.501887 
L 451.346986 589.501887 
L 451.346986 398.690653 
L 419.928804 398.690653 
z
" clip-path="url(#pc19e1ac2c2)" style="fill: #d62728"/>
   </g>
   <g id="patch_68">
    <path d="M 469.536459 587.792451 
L 500.954641 587.792451 
L 500.954641 397.523099 
L 469.536459 397.523099 
z
" clip-path="url(#pc19e1ac2c2)" style="fill: #d62728"/>
   </g>
   <g id="patch_69">
    <path d="M 519.144115 586.124153 
L 550.562297 586.124153 
L 550.562297 396.34257 
L 519.144115 396.34257 
z
" clip-path="url(#pc19e1ac2c2)" style="fill: #d62728"/>
   </g>
   <g id="patch_70">
    <path d="M 568.75177 584.495842 
L 600.169952 584.495842 
L 600.169952 395.15424 
L 568.75177 395.15424 
z
" clip-path="url(#pc19e1ac2c2)" style="fill: #d62728"/>
   </g>
   <g id="patch_71">
    <path d="M 618.359426 582.906432 
L 649.777608 582.906432 
L 649.777608 393.961999 
L 618.359426 393.961999 
z
" clip-path="url(#pc19e1ac2c2)" style="fill: #d62728"/>
   </g>
   <g id="patch_72">
    <path d="M 667.967081 581.354862 
L 699.385263 581.354862 
L 699.385263 392.768993 
L 667.967081 392.768993 
z
" clip-path="url(#pc19e1ac2c2)" style="fill: #d62728"/>
   </g>
   <g id="patch_73">
    <path d="M 717.574737 579.840101 
L 748.992919 579.840101 
L 748.992919 391.577777 
L 717.574737 391.577777 
z
" clip-path="url(#pc19e1ac2c2)" style="fill: #d62728"/>
   </g>
   <g id="patch_74">
    <path d="M 767.182392 578.361149 
L 798.600574 578.361149 
L 798.600574 390.390438 
L 767.182392 390.390438 
z
" clip-path="url(#pc19e1ac2c2)" style="fill: #d62728"/>
   </g>
   <g id="patch_75">
    <path d="M 816.790048 576.917036 
L 848.20823 576.917036 
L 848.20823 389.208686 
L 816.790048 389.208686 
z
" clip-path="url(#pc19e1ac2c2)" style="fill: #d62728"/>
   </g>
   <g id="patch_76">
    <path d="M 866.397703 575.506819 
L 897.815885 575.506819 
L 897.815885 388.033921 
L 866.397703 388.033921 
z
" clip-path="url(#pc19e1ac2c2)" style="fill: #d62728"/>
   </g>
   <g id="patch_77">
    <path d="M 916.005359 574.129586 
L 947.423541 574.129586 
L 947.423541 386.867291 
L 916.005359 386.867291 
z
" clip-path="url(#pc19e1ac2c2)" style="fill: #d62728"/>
   </g>
   <g id="patch_78">
    <path d="M 965.613014 572.78445 
L 997.031196 572.78445 
L 997.031196 385.709735 
L 965.613014 385.709735 
z
" clip-path="url(#pc19e1ac2c2)" style="fill: #d62728"/>
   </g>
   <g id="patch_79">
    <path d="M 1015.22067 571.470551 
L 1046.638852 571.470551 
L 1046.638852 384.562016 
L 1015.22067 384.562016 
z
" clip-path="url(#pc19e1ac2c2)" style="fill: #d62728"/>
   </g>
   <g id="patch_80">
    <path d="M 1064.828325 570.187055 
L 1096.246507 570.187055 
L 1096.246507 383.424752 
L 1064.828325 383.424752 
z
" clip-path="url(#pc19e1ac2c2)" style="fill: #d62728"/>
   </g>
   <g id="patch_81">
    <path d="M 1114.435981 568.933153 
L 1145.854163 568.933153 
L 1145.854163 382.298439 
L 1114.435981 382.298439 
z
" clip-path="url(#pc19e1ac2c2)" style="fill: #d62728"/>
   </g>
   <g id="patch_82">
    <path d="M 1164.043636 567.708059 
L 1195.461818 567.708059 
L 1195.461818 381.183467 
L 1164.043636 381.183467 
z
" clip-path="url(#pc19e1ac2c2)" style="fill: #d62728"/>
   </g>
   <g id="patch_83">
    <path d="M 221.498182 403.072354 
L 252.916364 403.072354 
L 252.916364 339.192524 
L 221.498182 339.192524 
z
" clip-path="url(#pc19e1ac2c2)" style="fill: #9467bd"/>
   </g>
   <g id="patch_84">
    <path d="M 271.105837 402.040802 
L 302.524019 402.040802 
L 302.524019 338.096662 
L 271.105837 338.096662 
z
" clip-path="url(#pc19e1ac2c2)" style="fill: #9467bd"/>
   </g>
   <g id="patch_85">
    <path d="M 320.713493 400.958375 
L 352.131675 400.958375 
L 352.131675 336.960763 
L 320.713493 336.960763 
z
" clip-path="url(#pc19e1ac2c2)" style="fill: #9467bd"/>
   </g>
   <g id="patch_86">
    <path d="M 370.321148 399.838327 
L 401.73933 399.838327 
L 401.73933 335.796527 
L 370.321148 335.796527 
z
" clip-path="url(#pc19e1ac2c2)" style="fill: #9467bd"/>
   </g>
   <g id="patch_87">
    <path d="M 419.928804 398.690653 
L 451.346986 398.690653 
L 451.346986 334.612737 
L 419.928804 334.612737 
z
" clip-path="url(#pc19e1ac2c2)" style="fill: #9467bd"/>
   </g>
   <g id="patch_88">
    <path d="M 469.536459 397.523099 
L 500.954641 397.523099 
L 500.954641 333.415767 
L 469.536459 333.415767 
z
" clip-path="url(#pc19e1ac2c2)" style="fill: #9467bd"/>
   </g>
   <g id="patch_89">
    <path d="M 519.144115 396.34257 
L 550.562297 396.34257 
L 550.562297 332.205482 
L 519.144115 332.205482 
z
" clip-path="url(#pc19e1ac2c2)" style="fill: #9467bd"/>
   </g>
   <g id="patch_90">
    <path d="M 568.75177 395.15424 
L 600.169952 395.15424 
L 600.169952 330.989105 
L 568.75177 330.989105 
z
" clip-path="url(#pc19e1ac2c2)" style="fill: #9467bd"/>
   </g>
   <g id="patch_91">
    <path d="M 618.359426 393.961999 
L 649.777608 393.961999 
L 649.777608 329.770393 
L 618.359426 329.770393 
z
" clip-path="url(#pc19e1ac2c2)" style="fill: #9467bd"/>
   </g>
   <g id="patch_92">
    <path d="M 667.967081 392.768993 
L 699.385263 392.768993 
L 699.385263 328.552104 
L 667.967081 328.552104 
z
" clip-path="url(#pc19e1ac2c2)" style="fill: #9467bd"/>
   </g>
   <g id="patch_93">
    <path d="M 717.574737 391.577777 
L 748.992919 391.577777 
L 748.992919 327.336478 
L 717.574737 327.336478 
z
" clip-path="url(#pc19e1ac2c2)" style="fill: #9467bd"/>
   </g>
   <g id="patch_94">
    <path d="M 767.182392 390.390438 
L 798.600574 390.390438 
L 798.600574 326.125341 
L 767.182392 326.125341 
z
" clip-path="url(#pc19e1ac2c2)" style="fill: #9467bd"/>
   </g>
   <g id="patch_95">
    <path d="M 816.790048 389.208686 
L 848.20823 389.208686 
L 848.20823 324.920188 
L 816.790048 324.920188 
z
" clip-path="url(#pc19e1ac2c2)" style="fill: #9467bd"/>
   </g>
   <g id="patch_96">
    <path d="M 866.397703 388.033921 
L 897.815885 388.033921 
L 897.815885 323.722246 
L 866.397703 323.722246 
z
" clip-path="url(#pc19e1ac2c2)" style="fill: #9467bd"/>
   </g>
   <g id="patch_97">
    <path d="M 916.005359 386.867291 
L 947.423541 386.867291 
L 947.423541 322.532521 
L 916.005359 322.532521 
z
" clip-path="url(#pc19e1ac2c2)" style="fill: #9467bd"/>
   </g>
   <g id="patch_98">
    <path d="M 965.613014 385.709735 
L 997.031196 385.709735 
L 997.031196 321.351836 
L 965.613014 321.351836 
z
" clip-path="url(#pc19e1ac2c2)" style="fill: #9467bd"/>
   </g>
   <g id="patch_99">
    <path d="M 1015.22067 384.562016 
L 1046.638852 384.562016 
L 1046.638852 320.180865 
L 1015.22067 320.180865 
z
" clip-path="url(#pc19e1ac2c2)" style="fill: #9467bd"/>
   </g>
   <g id="patch_100">
    <path d="M 1064.828325 383.424752 
L 1096.246507 383.424752 
L 1096.246507 319.020152 
L 1064.828325 319.020152 
z
" clip-path="url(#pc19e1ac2c2)" style="fill: #9467bd"/>
   </g>
   <g id="patch_101">
    <path d="M 1114.435981 382.298439 
L 1145.854163 382.298439 
L 1145.854163 317.870136 
L 1114.435981 317.870136 
z
" clip-path="url(#pc19e1ac2c2)" style="fill: #9467bd"/>
   </g>
   <g id="patch_102">
    <path d="M 1164.043636 381.183467 
L 1195.461818 381.183467 
L 1195.461818 316.731165 
L 1164.043636 316.731165 
z
" clip-path="url(#pc19e1ac2c2)" style="fill: #9467bd"/>
   </g>
   <g id="patch_103">
    <path d="M 221.498182 339.192524 
L 252.916364 339.192524 
L 252.916364 228.36977 
L 221.498182 228.36977 
z
" clip-path="url(#pc19e1ac2c2)" style="fill: #8c564b"/>
   </g>
   <g id="patch_104">
    <path d="M 271.105837 338.096662 
L 302.524019 338.096662 
L 302.524019 227.538324 
L 271.105837 227.538324 
z
" clip-path="url(#pc19e1ac2c2)" style="fill: #8c564b"/>
   </g>
   <g id="patch_105">
    <path d="M 320.713493 336.960763 
L 352.131675 336.960763 
L 352.131675 226.631665 
L 320.713493 226.631665 
z
" clip-path="url(#pc19e1ac2c2)" style="fill: #8c564b"/>
   </g>
   <g id="patch_106">
    <path d="M 370.321148 335.796527 
L 401.73933 335.796527 
L 401.73933 225.66761 
L 370.321148 225.66761 
z
" clip-path="url(#pc19e1ac2c2)" style="fill: #8c564b"/>
   </g>
   <g id="patch_107">
    <path d="M 419.928804 334.612737 
L 451.346986 334.612737 
L 451.346986 224.659638 
L 419.928804 224.659638 
z
" clip-path="url(#pc19e1ac2c2)" style="fill: #8c564b"/>
   </g>
   <g id="patch_108">
    <path d="M 469.536459 333.415767 
L 500.954641 333.415767 
L 500.954641 223.617865 
L 469.536459 223.617865 
z
" clip-path="url(#pc19e1ac2c2)" style="fill: #8c564b"/>
   </g>
   <g id="patch_109">
    <path d="M 519.144115 332.205482 
L 550.562297 332.205482 
L 550.562297 222.545573 
L 519.144115 222.545573 
z
" clip-path="url(#pc19e1ac2c2)" style="fill: #8c564b"/>
   </g>
   <g id="patch_110">
    <path d="M 568.75177 330.989105 
L 600.169952 330.989105 
L 600.169952 221.452658 
L 568.75177 221.452658 
z
" clip-path="url(#pc19e1ac2c2)" style="fill: #8c564b"/>
   </g>
   <g id="patch_111">
    <path d="M 618.359426 329.770393 
L 649.777608 329.770393 
L 649.777608 220.34487 
L 618.359426 220.34487 
z
" clip-path="url(#pc19e1ac2c2)" style="fill: #8c564b"/>
   </g>
   <g id="patch_112">
    <path d="M 667.967081 328.552104 
L 699.385263 328.552104 
L 699.385263 219.226627 
L 667.967081 219.226627 
z
" clip-path="url(#pc19e1ac2c2)" style="fill: #8c564b"/>
   </g>
   <g id="patch_113">
    <path d="M 717.574737 327.336478 
L 748.992919 327.336478 
L 748.992919 218.101564 
L 717.574737 218.101564 
z
" clip-path="url(#pc19e1ac2c2)" style="fill: #8c564b"/>
   </g>
   <g id="patch_114">
    <path d="M 767.182392 326.125341 
L 798.600574 326.125341 
L 798.600574 216.972689 
L 767.182392 216.972689 
z
" clip-path="url(#pc19e1ac2c2)" style="fill: #8c564b"/>
   </g>
   <g id="patch_115">
    <path d="M 816.790048 324.920188 
L 848.20823 324.920188 
L 848.20823 215.842506 
L 816.790048 215.842506 
z
" clip-path="url(#pc19e1ac2c2)" style="fill: #8c564b"/>
   </g>
   <g id="patch_116">
    <path d="M 866.397703 323.722246 
L 897.815885 323.722246 
L 897.815885 214.713106 
L 866.397703 214.713106 
z
" clip-path="url(#pc19e1ac2c2)" style="fill: #8c564b"/>
   </g>
   <g id="patch_117">
    <path d="M 916.005359 322.532521 
L 947.423541 322.532521 
L 947.423541 213.586244 
L 916.005359 213.586244 
z
" clip-path="url(#pc19e1ac2c2)" style="fill: #8c564b"/>
   </g>
   <g id="patch_118">
    <path d="M 965.613014 321.351836 
L 997.031196 321.351836 
L 997.031196 212.463392 
L 965.613014 212.463392 
z
" clip-path="url(#pc19e1ac2c2)" style="fill: #8c564b"/>
   </g>
   <g id="patch_119">
    <path d="M 1015.22067 320.180865 
L 1046.638852 320.180865 
L 1046.638852 211.345787 
L 1015.22067 211.345787 
z
" clip-path="url(#pc19e1ac2c2)" style="fill: #8c564b"/>
   </g>
   <g id="patch_120">
    <path d="M 1064.828325 319.020152 
L 1096.246507 319.020152 
L 1096.246507 210.234471 
L 1064.828325 210.234471 
z
" clip-path="url(#pc19e1ac2c2)" style="fill: #8c564b"/>
   </g>
   <g id="patch_121">
    <path d="M 1114.435981 317.870136 
L 1145.854163 317.870136 
L 1145.854163 209.130316 
L 1114.435981 209.130316 
z
" clip-path="url(#pc19e1ac2c2)" style="fill: #8c564b"/>
   </g>
   <g id="patch_122">
    <path d="M 1164.043636 316.731165 
L 1195.461818 316.731165 
L 1195.461818 208.034054 
L 1164.043636 208.034054 
z
" clip-path="url(#pc19e1ac2c2)" style="fill: #8c564b"/>
   </g>
   <g id="patch_123">
    <path d="M 221.498182 228.36977 
L 252.916364 228.36977 
L 252.916364 226.872173 
L 221.498182 226.872173 
z
" clip-path="url(#pc19e1ac2c2)" style="fill: #e377c2"/>
   </g>
   <g id="patch_124">
    <path d="M 271.105837 227.538324 
L 302.524019 227.538324 
L 302.524019 226.040544 
L 271.105837 226.040544 
z
" clip-path="url(#pc19e1ac2c2)" style="fill: #e377c2"/>
   </g>
   <g id="patch_125">
    <path d="M 320.713493 226.631665 
L 352.131675 226.631665 
L 352.131675 225.133874 
L 320.713493 225.133874 
z
" clip-path="url(#pc19e1ac2c2)" style="fill: #e377c2"/>
   </g>
   <g id="patch_126">
    <path d="M 370.321148 225.66761 
L 401.73933 225.66761 
L 401.73933 224.16995 
L 370.321148 224.16995 
z
" clip-path="url(#pc19e1ac2c2)" style="fill: #e377c2"/>
   </g>
   <g id="patch_127">
    <path d="M 419.928804 224.659638 
L 451.346986 224.659638 
L 451.346986 223.162222 
L 419.928804 223.162222 
z
" clip-path="url(#pc19e1ac2c2)" style="fill: #e377c2"/>
   </g>
   <g id="patch_128">
    <path d="M 469.536459 223.617865 
L 500.954641 223.617865 
L 500.954641 222.120785 
L 469.536459 222.120785 
z
" clip-path="url(#pc19e1ac2c2)" style="fill: #e377c2"/>
   </g>
   <g id="patch_129">
    <path d="M 519.144115 222.545573 
L 550.562297 222.545573 
L 550.562297 221.048912 
L 519.144115 221.048912 
z
" clip-path="url(#pc19e1ac2c2)" style="fill: #e377c2"/>
   </g>
   <g id="patch_130">
    <path d="M 568.75177 221.452658 
L 600.169952 221.452658 
L 600.169952 219.956488 
L 568.75177 219.956488 
z
" clip-path="url(#pc19e1ac2c2)" style="fill: #e377c2"/>
   </g>
   <g id="patch_131">
    <path d="M 618.359426 220.34487 
L 649.777608 220.34487 
L 649.777608 218.849251 
L 618.359426 218.849251 
z
" clip-path="url(#pc19e1ac2c2)" style="fill: #e377c2"/>
   </g>
   <g id="patch_132">
    <path d="M 667.967081 219.226627 
L 699.385263 219.226627 
L 699.385263 217.731612 
L 667.967081 217.731612 
z
" clip-path="url(#pc19e1ac2c2)" style="fill: #e377c2"/>
   </g>
   <g id="patch_133">
    <path d="M 717.574737 218.101564 
L 748.992919 218.101564 
L 748.992919 216.607196 
L 717.574737 216.607196 
z
" clip-path="url(#pc19e1ac2c2)" style="fill: #e377c2"/>
   </g>
   <g id="patch_134">
    <path d="M 767.182392 216.972689 
L 798.600574 216.972689 
L 798.600574 215.479008 
L 767.182392 215.479008 
z
" clip-path="url(#pc19e1ac2c2)" style="fill: #e377c2"/>
   </g>
   <g id="patch_135">
    <path d="M 816.790048 215.842506 
L 848.20823 215.842506 
L 848.20823 214.349544 
L 816.790048 214.349544 
z
" clip-path="url(#pc19e1ac2c2)" style="fill: #e377c2"/>
   </g>
   <g id="patch_136">
    <path d="M 866.397703 214.713106 
L 897.815885 214.713106 
L 897.815885 213.220891 
L 866.397703 213.220891 
z
" clip-path="url(#pc19e1ac2c2)" style="fill: #e377c2"/>
   </g>
   <g id="patch_137">
    <path d="M 916.005359 213.586244 
L 947.423541 213.586244 
L 947.423541 212.0948 
L 916.005359 212.0948 
z
" clip-path="url(#pc19e1ac2c2)" style="fill: #e377c2"/>
   </g>
   <g id="patch_138">
    <path d="M 965.613014 212.463392 
L 997.031196 212.463392 
L 997.031196 210.97274 
L 965.613014 210.97274 
z
" clip-path="url(#pc19e1ac2c2)" style="fill: #e377c2"/>
   </g>
   <g id="patch_139">
    <path d="M 1015.22067 211.345787 
L 1046.638852 211.345787 
L 1046.638852 209.855945 
L 1015.22067 209.855945 
z
" clip-path="url(#pc19e1ac2c2)" style="fill: #e377c2"/>
   </g>
   <g id="patch_140">
    <path d="M 1064.828325 210.234471 
L 1096.246507 210.234471 
L 1096.246507 208.745454 
L 1064.828325 208.745454 
z
" clip-path="url(#pc19e1ac2c2)" style="fill: #e377c2"/>
   </g>
   <g id="patch_141">
    <path d="M 1114.435981 209.130316 
L 1145.854163 209.130316 
L 1145.854163 207.642137 
L 1114.435981 207.642137 
z
" clip-path="url(#pc19e1ac2c2)" style="fill: #e377c2"/>
   </g>
   <g id="patch_142">
    <path d="M 1164.043636 208.034054 
L 1195.461818 208.034054 
L 1195.461818 206.546724 
L 1164.043636 206.546724 
z
" clip-path="url(#pc19e1ac2c2)" style="fill: #e377c2"/>
   </g>
   <g id="patch_143">
    <path d="M 221.498182 226.872173 
L 252.916364 226.872173 
L 252.916364 141.996331 
L 221.498182 141.996331 
z
" clip-path="url(#pc19e1ac2c2)" style="fill: #7f7f7f"/>
   </g>
   <g id="patch_144">
    <path d="M 271.105837 226.040544 
L 302.524019 226.040544 
L 302.524019 141.935724 
L 271.105837 141.935724 
z
" clip-path="url(#pc19e1ac2c2)" style="fill: #7f7f7f"/>
   </g>
   <g id="patch_145">
    <path d="M 320.713493 225.133874 
L 352.131675 225.133874 
L 352.131675 141.742859 
L 320.713493 141.742859 
z
" clip-path="url(#pc19e1ac2c2)" style="fill: #7f7f7f"/>
   </g>
   <g id="patch_146">
    <path d="M 370.321148 224.16995 
L 401.73933 224.16995 
L 401.73933 141.444064 
L 370.321148 141.444064 
z
" clip-path="url(#pc19e1ac2c2)" style="fill: #7f7f7f"/>
   </g>
   <g id="patch_147">
    <path d="M 419.928804 223.162222 
L 451.346986 223.162222 
L 451.346986 141.05946 
L 419.928804 141.05946 
z
" clip-path="url(#pc19e1ac2c2)" style="fill: #7f7f7f"/>
   </g>
   <g id="patch_148">
    <path d="M 469.536459 222.120785 
L 500.954641 222.120785 
L 500.954641 140.604435 
L 469.536459 140.604435 
z
" clip-path="url(#pc19e1ac2c2)" style="fill: #7f7f7f"/>
   </g>
   <g id="patch_149">
    <path d="M 519.144115 221.048912 
L 550.562297 221.048912 
L 550.562297 140.086924 
L 519.144115 140.086924 
z
" clip-path="url(#pc19e1ac2c2)" style="fill: #7f7f7f"/>
   </g>
   <g id="patch_150">
    <path d="M 568.75177 219.956488 
L 600.169952 219.956488 
L 600.169952 139.520517 
L 568.75177 139.520517 
z
" clip-path="url(#pc19e1ac2c2)" style="fill: #7f7f7f"/>
   </g>
   <g id="patch_151">
    <path d="M 618.359426 218.849251 
L 649.777608 218.849251 
L 649.777608 138.913897 
L 618.359426 138.913897 
z
" clip-path="url(#pc19e1ac2c2)" style="fill: #7f7f7f"/>
   </g>
   <g id="patch_152">
    <path d="M 667.967081 217.731612 
L 699.385263 217.731612 
L 699.385263 138.273961 
L 667.967081 138.273961 
z
" clip-path="url(#pc19e1ac2c2)" style="fill: #7f7f7f"/>
   </g>
   <g id="patch_153">
    <path d="M 717.574737 216.607196 
L 748.992919 216.607196 
L 748.992919 137.606454 
L 717.574737 137.606454 
z
" clip-path="url(#pc19e1ac2c2)" style="fill: #7f7f7f"/>
   </g>
   <g id="patch_154">
    <path d="M 767.182392 215.479008 
L 798.600574 215.479008 
L 798.600574 136.916202 
L 767.182392 136.916202 
z
" clip-path="url(#pc19e1ac2c2)" style="fill: #7f7f7f"/>
   </g>
   <g id="patch_155">
    <path d="M 816.790048 214.349544 
L 848.20823 214.349544 
L 848.20823 136.207286 
L 816.790048 136.207286 
z
" clip-path="url(#pc19e1ac2c2)" style="fill: #7f7f7f"/>
   </g>
   <g id="patch_156">
    <path d="M 866.397703 213.220891 
L 897.815885 213.220891 
L 897.815885 135.483173 
L 866.397703 135.483173 
z
" clip-path="url(#pc19e1ac2c2)" style="fill: #7f7f7f"/>
   </g>
   <g id="patch_157">
    <path d="M 916.005359 212.0948 
L 947.423541 212.0948 
L 947.423541 134.746827 
L 916.005359 134.746827 
z
" clip-path="url(#pc19e1ac2c2)" style="fill: #7f7f7f"/>
   </g>
   <g id="patch_158">
    <path d="M 965.613014 210.97274 
L 997.031196 210.97274 
L 997.031196 134.000794 
L 965.613014 134.000794 
z
" clip-path="url(#pc19e1ac2c2)" style="fill: #7f7f7f"/>
   </g>
   <g id="patch_159">
    <path d="M 1015.22067 209.855945 
L 1046.638852 209.855945 
L 1046.638852 133.247264 
L 1015.22067 133.247264 
z
" clip-path="url(#pc19e1ac2c2)" style="fill: #7f7f7f"/>
   </g>
   <g id="patch_160">
    <path d="M 1064.828325 208.745454 
L 1096.246507 208.745454 
L 1096.246507 132.488128 
L 1064.828325 132.488128 
z
" clip-path="url(#pc19e1ac2c2)" style="fill: #7f7f7f"/>
   </g>
   <g id="patch_161">
    <path d="M 1114.435981 207.642137 
L 1145.854163 207.642137 
L 1145.854163 131.725026 
L 1114.435981 131.725026 
z
" clip-path="url(#pc19e1ac2c2)" style="fill: #7f7f7f"/>
   </g>
   <g id="patch_162">
    <path d="M 1164.043636 206.546724 
L 1195.461818 206.546724 
L 1195.461818 130.959379 
L 1164.043636 130.959379 
z
" clip-path="url(#pc19e1ac2c2)" style="fill: #7f7f7f"/>
   </g>
   <g id="patch_163">
    <path d="M 221.498182 141.996331 
L 252.916364 141.996331 
L 252.916364 122.405853 
L 221.498182 122.405853 
z
" clip-path="url(#pc19e1ac2c2)" style="fill: #bcbd22"/>
   </g>
   <g id="patch_164">
    <path d="M 271.105837 141.935724 
L 302.524019 141.935724 
L 302.524019 122.547863 
L 271.105837 122.547863 
z
" clip-path="url(#pc19e1ac2c2)" style="fill: #bcbd22"/>
   </g>
   <g id="patch_165">
    <path d="M 320.713493 141.742859 
L 352.131675 141.742859 
L 352.131675 122.555087 
L 320.713493 122.555087 
z
" clip-path="url(#pc19e1ac2c2)" style="fill: #bcbd22"/>
   </g>
   <g id="patch_166">
    <path d="M 370.321148 141.444064 
L 401.73933 141.444064 
L 401.73933 122.454343 
L 370.321148 122.454343 
z
" clip-path="url(#pc19e1ac2c2)" style="fill: #bcbd22"/>
   </g>
   <g id="patch_167">
    <path d="M 419.928804 141.05946 
L 451.346986 141.05946 
L 451.346986 122.266354 
L 419.928804 122.266354 
z
" clip-path="url(#pc19e1ac2c2)" style="fill: #bcbd22"/>
   </g>
   <g id="patch_168">
    <path d="M 469.536459 140.604435 
L 500.954641 140.604435 
L 500.954641 122.007381 
L 469.536459 122.007381 
z
" clip-path="url(#pc19e1ac2c2)" style="fill: #bcbd22"/>
   </g>
   <g id="patch_169">
    <path d="M 519.144115 140.086924 
L 550.562297 140.086924 
L 550.562297 121.684839 
L 519.144115 121.684839 
z
" clip-path="url(#pc19e1ac2c2)" style="fill: #bcbd22"/>
   </g>
   <g id="patch_170">
    <path d="M 568.75177 139.520517 
L 600.169952 139.520517 
L 600.169952 121.306799 
L 568.75177 121.306799 
z
" clip-path="url(#pc19e1ac2c2)" style="fill: #bcbd22"/>
   </g>
   <g id="patch_171">
    <path d="M 618.359426 138.913897 
L 649.777608 138.913897 
L 649.777608 120.881676 
L 618.359426 120.881676 
z
" clip-path="url(#pc19e1ac2c2)" style="fill: #bcbd22"/>
   </g>
   <g id="patch_172">
    <path d="M 667.967081 138.273961 
L 699.385263 138.273961 
L 699.385263 120.416437 
L 667.967081 120.416437 
z
" clip-path="url(#pc19e1ac2c2)" style="fill: #bcbd22"/>
   </g>
   <g id="patch_173">
    <path d="M 717.574737 137.606454 
L 748.992919 137.606454 
L 748.992919 119.916899 
L 717.574737 119.916899 
z
" clip-path="url(#pc19e1ac2c2)" style="fill: #bcbd22"/>
   </g>
   <g id="patch_174">
    <path d="M 767.182392 136.916202 
L 798.600574 136.916202 
L 798.600574 119.387964 
L 767.182392 119.387964 
z
" clip-path="url(#pc19e1ac2c2)" style="fill: #bcbd22"/>
   </g>
   <g id="patch_175">
    <path d="M 816.790048 136.207286 
L 848.20823 136.207286 
L 848.20823 118.833785 
L 816.790048 118.833785 
z
" clip-path="url(#pc19e1ac2c2)" style="fill: #bcbd22"/>
   </g>
   <g id="patch_176">
    <path d="M 866.397703 135.483173 
L 897.815885 135.483173 
L 897.815885 118.257913 
L 866.397703 118.257913 
z
" clip-path="url(#pc19e1ac2c2)" style="fill: #bcbd22"/>
   </g>
   <g id="patch_177">
    <path d="M 916.005359 134.746827 
L 947.423541 134.746827 
L 947.423541 117.663394 
L 916.005359 117.663394 
z
" clip-path="url(#pc19e1ac2c2)" style="fill: #bcbd22"/>
   </g>
   <g id="patch_178">
    <path d="M 965.613014 134.000794 
L 997.031196 134.000794 
L 997.031196 117.052858 
L 965.613014 117.052858 
z
" clip-path="url(#pc19e1ac2c2)" style="fill: #bcbd22"/>
   </g>
   <g id="patch_179">
    <path d="M 1015.22067 133.247264 
L 1046.638852 133.247264 
L 1046.638852 116.428587 
L 1015.22067 116.428587 
z
" clip-path="url(#pc19e1ac2c2)" style="fill: #bcbd22"/>
   </g>
   <g id="patch_180">
    <path d="M 1064.828325 132.488128 
L 1096.246507 132.488128 
L 1096.246507 115.792565 
L 1064.828325 115.792565 
z
" clip-path="url(#pc19e1ac2c2)" style="fill: #bcbd22"/>
   </g>
   <g id="patch_181">
    <path d="M 1114.435981 131.725026 
L 1145.854163 131.725026 
L 1145.854163 115.146529 
L 1114.435981 115.146529 
z
" clip-path="url(#pc19e1ac2c2)" style="fill: #bcbd22"/>
   </g>
   <g id="patch_182">
    <path d="M 1164.043636 130.959379 
L 1195.461818 130.959379 
L 1195.461818 114.492 
L 1164.043636 114.492 
z
" clip-path="url(#pc19e1ac2c2)" style="fill: #bcbd22"/>
   </g>
   <g id="matplotlib.axis_1">
    <g id="xtick_1">
     <g id="line2d_1">
      <defs>
       <path id="m0268071c20" d="M 0 0 
L 0 3.5 
" style="stroke: #000000; stroke-width: 0.8"/>
      </defs>
      <g>
       <use xlink:href="#m0268071c20" x="237.207273" y="650.412" style="stroke: #000000; stroke-width: 0.8"/>
      </g>
     </g>
     <g id="text_1">
      <!-- 32 -->
      <g transform="translate(225.754773 671.089188) scale(0.18 -0.18)">
       <defs>
        <path id="DejaVuSans-33" d="M 2597 2516 
Q 3050 2419 3304 2112 
Q 3559 1806 3559 1356 
Q 3559 666 3084 287 
Q 2609 -91 1734 -91 
Q 1441 -91 1130 -33 
Q 819 25 488 141 
L 488 750 
Q 750 597 1062 519 
Q 1375 441 1716 441 
Q 2309 441 2620 675 
Q 2931 909 2931 1356 
Q 2931 1769 2642 2001 
Q 2353 2234 1838 2234 
L 1294 2234 
L 1294 2753 
L 1863 2753 
Q 2328 2753 2575 2939 
Q 2822 3125 2822 3475 
Q 2822 3834 2567 4026 
Q 2313 4219 1838 4219 
Q 1578 4219 1281 4162 
Q 984 4106 628 3988 
L 628 4550 
Q 988 4650 1302 4700 
Q 1616 4750 1894 4750 
Q 2613 4750 3031 4423 
Q 3450 4097 3450 3541 
Q 3450 3153 3228 2886 
Q 3006 2619 2597 2516 
z
" transform="scale(0.015625)"/>
        <path id="DejaVuSans-32" d="M 1228 531 
L 3431 531 
L 3431 0 
L 469 0 
L 469 531 
Q 828 903 1448 1529 
Q 2069 2156 2228 2338 
Q 2531 2678 2651 2914 
Q 2772 3150 2772 3378 
Q 2772 3750 2511 3984 
Q 2250 4219 1831 4219 
Q 1534 4219 1204 4116 
Q 875 4013 500 3803 
L 500 4441 
Q 881 4594 1212 4672 
Q 1544 4750 1819 4750 
Q 2544 4750 2975 4387 
Q 3406 4025 3406 3419 
Q 3406 3131 3298 2873 
Q 3191 2616 2906 2266 
Q 2828 2175 2409 1742 
Q 1991 1309 1228 531 
z
" transform="scale(0.015625)"/>
       </defs>
       <use xlink:href="#DejaVuSans-33"/>
       <use xlink:href="#DejaVuSans-32" x="63.623047"/>
      </g>
     </g>
    </g>
    <g id="xtick_2">
     <g id="line2d_2">
      <g>
       <use xlink:href="#m0268071c20" x="394.298182" y="650.412" style="stroke: #000000; stroke-width: 0.8"/>
      </g>
     </g>
     <g id="text_2">
      <!-- 33 -->
      <g transform="translate(382.845682 671.089188) scale(0.18 -0.18)">
       <use xlink:href="#DejaVuSans-33"/>
       <use xlink:href="#DejaVuSans-33" x="63.623047"/>
      </g>
     </g>
    </g>
    <g id="xtick_3">
     <g id="line2d_3">
      <g>
       <use xlink:href="#m0268071c20" x="551.389091" y="650.412" style="stroke: #000000; stroke-width: 0.8"/>
      </g>
     </g>
     <g id="text_3">
      <!-- 34 -->
      <g transform="translate(539.936591 671.089188) scale(0.18 -0.18)">
       <defs>
        <path id="DejaVuSans-34" d="M 2419 4116 
L 825 1625 
L 2419 1625 
L 2419 4116 
z
M 2253 4666 
L 3047 4666 
L 3047 1625 
L 3713 1625 
L 3713 1100 
L 3047 1100 
L 3047 0 
L 2419 0 
L 2419 1100 
L 313 1100 
L 313 1709 
L 2253 4666 
z
" transform="scale(0.015625)"/>
       </defs>
       <use xlink:href="#DejaVuSans-33"/>
       <use xlink:href="#DejaVuSans-34" x="63.623047"/>
      </g>
     </g>
    </g>
    <g id="xtick_4">
     <g id="line2d_4">
      <g>
       <use xlink:href="#m0268071c20" x="708.48" y="650.412" style="stroke: #000000; stroke-width: 0.8"/>
      </g>
     </g>
     <g id="text_4">
      <!-- 35 -->
      <g transform="translate(697.0275 671.089188) scale(0.18 -0.18)">
       <defs>
        <path id="DejaVuSans-35" d="M 691 4666 
L 3169 4666 
L 3169 4134 
L 1269 4134 
L 1269 2991 
Q 1406 3038 1543 3061 
Q 1681 3084 1819 3084 
Q 2600 3084 3056 2656 
Q 3513 2228 3513 1497 
Q 3513 744 3044 326 
Q 2575 -91 1722 -91 
Q 1428 -91 1123 -41 
Q 819 9 494 109 
L 494 744 
Q 775 591 1075 516 
Q 1375 441 1709 441 
Q 2250 441 2565 725 
Q 2881 1009 2881 1497 
Q 2881 1984 2565 2268 
Q 2250 2553 1709 2553 
Q 1456 2553 1204 2497 
Q 953 2441 691 2322 
L 691 4666 
z
" transform="scale(0.015625)"/>
       </defs>
       <use xlink:href="#DejaVuSans-33"/>
       <use xlink:href="#DejaVuSans-35" x="63.623047"/>
      </g>
     </g>
    </g>
    <g id="xtick_5">
     <g id="line2d_5">
      <g>
       <use xlink:href="#m0268071c20" x="865.570909" y="650.412" style="stroke: #000000; stroke-width: 0.8"/>
      </g>
     </g>
     <g id="text_5">
      <!-- 36 -->
      <g transform="translate(854.118409 671.089188) scale(0.18 -0.18)">
       <defs>
        <path id="DejaVuSans-36" d="M 2113 2584 
Q 1688 2584 1439 2293 
Q 1191 2003 1191 1497 
Q 1191 994 1439 701 
Q 1688 409 2113 409 
Q 2538 409 2786 701 
Q 3034 994 3034 1497 
Q 3034 2003 2786 2293 
Q 2538 2584 2113 2584 
z
M 3366 4563 
L 3366 3988 
Q 3128 4100 2886 4159 
Q 2644 4219 2406 4219 
Q 1781 4219 1451 3797 
Q 1122 3375 1075 2522 
Q 1259 2794 1537 2939 
Q 1816 3084 2150 3084 
Q 2853 3084 3261 2657 
Q 3669 2231 3669 1497 
Q 3669 778 3244 343 
Q 2819 -91 2113 -91 
Q 1303 -91 875 529 
Q 447 1150 447 2328 
Q 447 3434 972 4092 
Q 1497 4750 2381 4750 
Q 2619 4750 2861 4703 
Q 3103 4656 3366 4563 
z
" transform="scale(0.015625)"/>
       </defs>
       <use xlink:href="#DejaVuSans-33"/>
       <use xlink:href="#DejaVuSans-36" x="63.623047"/>
      </g>
     </g>
    </g>
    <g id="xtick_6">
     <g id="line2d_6">
      <g>
       <use xlink:href="#m0268071c20" x="1022.661818" y="650.412" style="stroke: #000000; stroke-width: 0.8"/>
      </g>
     </g>
     <g id="text_6">
      <!-- 37 -->
      <g transform="translate(1011.209318 671.089188) scale(0.18 -0.18)">
       <defs>
        <path id="DejaVuSans-37" d="M 525 4666 
L 3525 4666 
L 3525 4397 
L 1831 0 
L 1172 0 
L 2766 4134 
L 525 4134 
L 525 4666 
z
" transform="scale(0.015625)"/>
       </defs>
       <use xlink:href="#DejaVuSans-33"/>
       <use xlink:href="#DejaVuSans-37" x="63.623047"/>
      </g>
     </g>
    </g>
    <g id="xtick_7">
     <g id="line2d_7">
      <g>
       <use xlink:href="#m0268071c20" x="1179.752727" y="650.412" style="stroke: #000000; stroke-width: 0.8"/>
      </g>
     </g>
     <g id="text_7">
      <!-- 38 -->
      <g transform="translate(1168.300227 671.089188) scale(0.18 -0.18)">
       <defs>
        <path id="DejaVuSans-38" d="M 2034 2216 
Q 1584 2216 1326 1975 
Q 1069 1734 1069 1313 
Q 1069 891 1326 650 
Q 1584 409 2034 409 
Q 2484 409 2743 651 
Q 3003 894 3003 1313 
Q 3003 1734 2745 1975 
Q 2488 2216 2034 2216 
z
M 1403 2484 
Q 997 2584 770 2862 
Q 544 3141 544 3541 
Q 544 4100 942 4425 
Q 1341 4750 2034 4750 
Q 2731 4750 3128 4425 
Q 3525 4100 3525 3541 
Q 3525 3141 3298 2862 
Q 3072 2584 2669 2484 
Q 3125 2378 3379 2068 
Q 3634 1759 3634 1313 
Q 3634 634 3220 271 
Q 2806 -91 2034 -91 
Q 1263 -91 848 271 
Q 434 634 434 1313 
Q 434 1759 690 2068 
Q 947 2378 1403 2484 
z
M 1172 3481 
Q 1172 3119 1398 2916 
Q 1625 2713 2034 2713 
Q 2441 2713 2670 2916 
Q 2900 3119 2900 3481 
Q 2900 3844 2670 4047 
Q 2441 4250 2034 4250 
Q 1625 4250 1398 4047 
Q 1172 3844 1172 3481 
z
" transform="scale(0.015625)"/>
       </defs>
       <use xlink:href="#DejaVuSans-33"/>
       <use xlink:href="#DejaVuSans-38" x="63.623047"/>
      </g>
     </g>
    </g>
    <g id="text_8">
     <!-- Kondensatordruck in bar -->
     <g transform="translate(597.950156 692.509813) scale(0.18 -0.18)">
      <defs>
       <path id="DejaVuSans-4b" d="M 628 4666 
L 1259 4666 
L 1259 2694 
L 3353 4666 
L 4166 4666 
L 1850 2491 
L 4331 0 
L 3500 0 
L 1259 2247 
L 1259 0 
L 628 0 
L 628 4666 
z
" transform="scale(0.015625)"/>
       <path id="DejaVuSans-6f" d="M 1959 3097 
Q 1497 3097 1228 2736 
Q 959 2375 959 1747 
Q 959 1119 1226 758 
Q 1494 397 1959 397 
Q 2419 397 2687 759 
Q 2956 1122 2956 1747 
Q 2956 2369 2687 2733 
Q 2419 3097 1959 3097 
z
M 1959 3584 
Q 2709 3584 3137 3096 
Q 3566 2609 3566 1747 
Q 3566 888 3137 398 
Q 2709 -91 1959 -91 
Q 1206 -91 779 398 
Q 353 888 353 1747 
Q 353 2609 779 3096 
Q 1206 3584 1959 3584 
z
" transform="scale(0.015625)"/>
       <path id="DejaVuSans-6e" d="M 3513 2113 
L 3513 0 
L 2938 0 
L 2938 2094 
Q 2938 2591 2744 2837 
Q 2550 3084 2163 3084 
Q 1697 3084 1428 2787 
Q 1159 2491 1159 1978 
L 1159 0 
L 581 0 
L 581 3500 
L 1159 3500 
L 1159 2956 
Q 1366 3272 1645 3428 
Q 1925 3584 2291 3584 
Q 2894 3584 3203 3211 
Q 3513 2838 3513 2113 
z
" transform="scale(0.015625)"/>
       <path id="DejaVuSans-64" d="M 2906 2969 
L 2906 4863 
L 3481 4863 
L 3481 0 
L 2906 0 
L 2906 525 
Q 2725 213 2448 61 
Q 2172 -91 1784 -91 
Q 1150 -91 751 415 
Q 353 922 353 1747 
Q 353 2572 751 3078 
Q 1150 3584 1784 3584 
Q 2172 3584 2448 3432 
Q 2725 3281 2906 2969 
z
M 947 1747 
Q 947 1113 1208 752 
Q 1469 391 1925 391 
Q 2381 391 2643 752 
Q 2906 1113 2906 1747 
Q 2906 2381 2643 2742 
Q 2381 3103 1925 3103 
Q 1469 3103 1208 2742 
Q 947 2381 947 1747 
z
" transform="scale(0.015625)"/>
       <path id="DejaVuSans-65" d="M 3597 1894 
L 3597 1613 
L 953 1613 
Q 991 1019 1311 708 
Q 1631 397 2203 397 
Q 2534 397 2845 478 
Q 3156 559 3463 722 
L 3463 178 
Q 3153 47 2828 -22 
Q 2503 -91 2169 -91 
Q 1331 -91 842 396 
Q 353 884 353 1716 
Q 353 2575 817 3079 
Q 1281 3584 2069 3584 
Q 2775 3584 3186 3129 
Q 3597 2675 3597 1894 
z
M 3022 2063 
Q 3016 2534 2758 2815 
Q 2500 3097 2075 3097 
Q 1594 3097 1305 2825 
Q 1016 2553 972 2059 
L 3022 2063 
z
" transform="scale(0.015625)"/>
       <path id="DejaVuSans-73" d="M 2834 3397 
L 2834 2853 
Q 2591 2978 2328 3040 
Q 2066 3103 1784 3103 
Q 1356 3103 1142 2972 
Q 928 2841 928 2578 
Q 928 2378 1081 2264 
Q 1234 2150 1697 2047 
L 1894 2003 
Q 2506 1872 2764 1633 
Q 3022 1394 3022 966 
Q 3022 478 2636 193 
Q 2250 -91 1575 -91 
Q 1294 -91 989 -36 
Q 684 19 347 128 
L 347 722 
Q 666 556 975 473 
Q 1284 391 1588 391 
Q 1994 391 2212 530 
Q 2431 669 2431 922 
Q 2431 1156 2273 1281 
Q 2116 1406 1581 1522 
L 1381 1569 
Q 847 1681 609 1914 
Q 372 2147 372 2553 
Q 372 3047 722 3315 
Q 1072 3584 1716 3584 
Q 2034 3584 2315 3537 
Q 2597 3491 2834 3397 
z
" transform="scale(0.015625)"/>
       <path id="DejaVuSans-61" d="M 2194 1759 
Q 1497 1759 1228 1600 
Q 959 1441 959 1056 
Q 959 750 1161 570 
Q 1363 391 1709 391 
Q 2188 391 2477 730 
Q 2766 1069 2766 1631 
L 2766 1759 
L 2194 1759 
z
M 3341 1997 
L 3341 0 
L 2766 0 
L 2766 531 
Q 2569 213 2275 61 
Q 1981 -91 1556 -91 
Q 1019 -91 701 211 
Q 384 513 384 1019 
Q 384 1609 779 1909 
Q 1175 2209 1959 2209 
L 2766 2209 
L 2766 2266 
Q 2766 2663 2505 2880 
Q 2244 3097 1772 3097 
Q 1472 3097 1187 3025 
Q 903 2953 641 2809 
L 641 3341 
Q 956 3463 1253 3523 
Q 1550 3584 1831 3584 
Q 2591 3584 2966 3190 
Q 3341 2797 3341 1997 
z
" transform="scale(0.015625)"/>
       <path id="DejaVuSans-74" d="M 1172 4494 
L 1172 3500 
L 2356 3500 
L 2356 3053 
L 1172 3053 
L 1172 1153 
Q 1172 725 1289 603 
Q 1406 481 1766 481 
L 2356 481 
L 2356 0 
L 1766 0 
Q 1100 0 847 248 
Q 594 497 594 1153 
L 594 3053 
L 172 3053 
L 172 3500 
L 594 3500 
L 594 4494 
L 1172 4494 
z
" transform="scale(0.015625)"/>
       <path id="DejaVuSans-72" d="M 2631 2963 
Q 2534 3019 2420 3045 
Q 2306 3072 2169 3072 
Q 1681 3072 1420 2755 
Q 1159 2438 1159 1844 
L 1159 0 
L 581 0 
L 581 3500 
L 1159 3500 
L 1159 2956 
Q 1341 3275 1631 3429 
Q 1922 3584 2338 3584 
Q 2397 3584 2469 3576 
Q 2541 3569 2628 3553 
L 2631 2963 
z
" transform="scale(0.015625)"/>
       <path id="DejaVuSans-75" d="M 544 1381 
L 544 3500 
L 1119 3500 
L 1119 1403 
Q 1119 906 1312 657 
Q 1506 409 1894 409 
Q 2359 409 2629 706 
Q 2900 1003 2900 1516 
L 2900 3500 
L 3475 3500 
L 3475 0 
L 2900 0 
L 2900 538 
Q 2691 219 2414 64 
Q 2138 -91 1772 -91 
Q 1169 -91 856 284 
Q 544 659 544 1381 
z
M 1991 3584 
L 1991 3584 
z
" transform="scale(0.015625)"/>
       <path id="DejaVuSans-63" d="M 3122 3366 
L 3122 2828 
Q 2878 2963 2633 3030 
Q 2388 3097 2138 3097 
Q 1578 3097 1268 2742 
Q 959 2388 959 1747 
Q 959 1106 1268 751 
Q 1578 397 2138 397 
Q 2388 397 2633 464 
Q 2878 531 3122 666 
L 3122 134 
Q 2881 22 2623 -34 
Q 2366 -91 2075 -91 
Q 1284 -91 818 406 
Q 353 903 353 1747 
Q 353 2603 823 3093 
Q 1294 3584 2113 3584 
Q 2378 3584 2631 3529 
Q 2884 3475 3122 3366 
z
" transform="scale(0.015625)"/>
       <path id="DejaVuSans-6b" d="M 581 4863 
L 1159 4863 
L 1159 1991 
L 2875 3500 
L 3609 3500 
L 1753 1863 
L 3688 0 
L 2938 0 
L 1159 1709 
L 1159 0 
L 581 0 
L 581 4863 
z
" transform="scale(0.015625)"/>
       <path id="DejaVuSans-20" transform="scale(0.015625)"/>
       <path id="DejaVuSans-69" d="M 603 3500 
L 1178 3500 
L 1178 0 
L 603 0 
L 603 3500 
z
M 603 4863 
L 1178 4863 
L 1178 4134 
L 603 4134 
L 603 4863 
z
" transform="scale(0.015625)"/>
       <path id="DejaVuSans-62" d="M 3116 1747 
Q 3116 2381 2855 2742 
Q 2594 3103 2138 3103 
Q 1681 3103 1420 2742 
Q 1159 2381 1159 1747 
Q 1159 1113 1420 752 
Q 1681 391 2138 391 
Q 2594 391 2855 752 
Q 3116 1113 3116 1747 
z
M 1159 2969 
Q 1341 3281 1617 3432 
Q 1894 3584 2278 3584 
Q 2916 3584 3314 3078 
Q 3713 2572 3713 1747 
Q 3713 922 3314 415 
Q 2916 -91 2278 -91 
Q 1894 -91 1617 61 
Q 1341 213 1159 525 
L 1159 0 
L 581 0 
L 581 4863 
L 1159 4863 
L 1159 2969 
z
" transform="scale(0.015625)"/>
      </defs>
      <use xlink:href="#DejaVuSans-4b"/>
      <use xlink:href="#DejaVuSans-6f" x="60.576172"/>
      <use xlink:href="#DejaVuSans-6e" x="121.757812"/>
      <use xlink:href="#DejaVuSans-64" x="185.136719"/>
      <use xlink:href="#DejaVuSans-65" x="248.613281"/>
      <use xlink:href="#DejaVuSans-6e" x="310.136719"/>
      <use xlink:href="#DejaVuSans-73" x="373.515625"/>
      <use xlink:href="#DejaVuSans-61" x="425.615234"/>
      <use xlink:href="#DejaVuSans-74" x="486.894531"/>
      <use xlink:href="#DejaVuSans-6f" x="526.103516"/>
      <use xlink:href="#DejaVuSans-72" x="587.285156"/>
      <use xlink:href="#DejaVuSans-64" x="626.648438"/>
      <use xlink:href="#DejaVuSans-72" x="690.125"/>
      <use xlink:href="#DejaVuSans-75" x="731.238281"/>
      <use xlink:href="#DejaVuSans-63" x="794.617188"/>
      <use xlink:href="#DejaVuSans-6b" x="849.597656"/>
      <use xlink:href="#DejaVuSans-20" x="907.507812"/>
      <use xlink:href="#DejaVuSans-69" x="939.294922"/>
      <use xlink:href="#DejaVuSans-6e" x="967.078125"/>
      <use xlink:href="#DejaVuSans-20" x="1030.457031"/>
      <use xlink:href="#DejaVuSans-62" x="1062.244141"/>
      <use xlink:href="#DejaVuSans-61" x="1125.720703"/>
      <use xlink:href="#DejaVuSans-72" x="1187"/>
     </g>
    </g>
   </g>
   <g id="matplotlib.axis_2">
    <g id="ytick_1">
     <g id="line2d_8">
      <defs>
       <path id="md05d6e1a2b" d="M 0 0 
L -3.5 0 
" style="stroke: #000000; stroke-width: 0.8"/>
      </defs>
      <g>
       <use xlink:href="#md05d6e1a2b" x="172.8" y="650.412" style="stroke: #000000; stroke-width: 0.8"/>
      </g>
     </g>
     <g id="text_9">
      <!-- 0.00 -->
      <g transform="translate(125.721875 657.250594) scale(0.18 -0.18)">
       <defs>
        <path id="DejaVuSans-30" d="M 2034 4250 
Q 1547 4250 1301 3770 
Q 1056 3291 1056 2328 
Q 1056 1369 1301 889 
Q 1547 409 2034 409 
Q 2525 409 2770 889 
Q 3016 1369 3016 2328 
Q 3016 3291 2770 3770 
Q 2525 4250 2034 4250 
z
M 2034 4750 
Q 2819 4750 3233 4129 
Q 3647 3509 3647 2328 
Q 3647 1150 3233 529 
Q 2819 -91 2034 -91 
Q 1250 -91 836 529 
Q 422 1150 422 2328 
Q 422 3509 836 4129 
Q 1250 4750 2034 4750 
z
" transform="scale(0.015625)"/>
        <path id="DejaVuSans-2e" d="M 684 794 
L 1344 794 
L 1344 0 
L 684 0 
L 684 794 
z
" transform="scale(0.015625)"/>
       </defs>
       <use xlink:href="#DejaVuSans-30"/>
       <use xlink:href="#DejaVuSans-2e" x="63.623047"/>
       <use xlink:href="#DejaVuSans-30" x="95.410156"/>
       <use xlink:href="#DejaVuSans-30" x="159.033203"/>
      </g>
     </g>
    </g>
    <g id="ytick_2">
     <g id="line2d_9">
      <g>
       <use xlink:href="#md05d6e1a2b" x="172.8" y="585.088983" style="stroke: #000000; stroke-width: 0.8"/>
      </g>
     </g>
     <g id="text_10">
      <!-- 0.25 -->
      <g transform="translate(125.721875 591.927576) scale(0.18 -0.18)">
       <use xlink:href="#DejaVuSans-30"/>
       <use xlink:href="#DejaVuSans-2e" x="63.623047"/>
       <use xlink:href="#DejaVuSans-32" x="95.410156"/>
       <use xlink:href="#DejaVuSans-35" x="159.033203"/>
      </g>
     </g>
    </g>
    <g id="ytick_3">
     <g id="line2d_10">
      <g>
       <use xlink:href="#md05d6e1a2b" x="172.8" y="519.765965" style="stroke: #000000; stroke-width: 0.8"/>
      </g>
     </g>
     <g id="text_11">
      <!-- 0.50 -->
      <g transform="translate(125.721875 526.604559) scale(0.18 -0.18)">
       <use xlink:href="#DejaVuSans-30"/>
       <use xlink:href="#DejaVuSans-2e" x="63.623047"/>
       <use xlink:href="#DejaVuSans-35" x="95.410156"/>
       <use xlink:href="#DejaVuSans-30" x="159.033203"/>
      </g>
     </g>
    </g>
    <g id="ytick_4">
     <g id="line2d_11">
      <g>
       <use xlink:href="#md05d6e1a2b" x="172.8" y="454.442948" style="stroke: #000000; stroke-width: 0.8"/>
      </g>
     </g>
     <g id="text_12">
      <!-- 0.75 -->
      <g transform="translate(125.721875 461.281542) scale(0.18 -0.18)">
       <use xlink:href="#DejaVuSans-30"/>
       <use xlink:href="#DejaVuSans-2e" x="63.623047"/>
       <use xlink:href="#DejaVuSans-37" x="95.410156"/>
       <use xlink:href="#DejaVuSans-35" x="159.033203"/>
      </g>
     </g>
    </g>
    <g id="ytick_5">
     <g id="line2d_12">
      <g>
       <use xlink:href="#md05d6e1a2b" x="172.8" y="389.119931" style="stroke: #000000; stroke-width: 0.8"/>
      </g>
     </g>
     <g id="text_13">
      <!-- 1.00 -->
      <g transform="translate(125.721875 395.958524) scale(0.18 -0.18)">
       <defs>
        <path id="DejaVuSans-31" d="M 794 531 
L 1825 531 
L 1825 4091 
L 703 3866 
L 703 4441 
L 1819 4666 
L 2450 4666 
L 2450 531 
L 3481 531 
L 3481 0 
L 794 0 
L 794 531 
z
" transform="scale(0.015625)"/>
       </defs>
       <use xlink:href="#DejaVuSans-31"/>
       <use xlink:href="#DejaVuSans-2e" x="63.623047"/>
       <use xlink:href="#DejaVuSans-30" x="95.410156"/>
       <use xlink:href="#DejaVuSans-30" x="159.033203"/>
      </g>
     </g>
    </g>
    <g id="ytick_6">
     <g id="line2d_13">
      <g>
       <use xlink:href="#md05d6e1a2b" x="172.8" y="323.796913" style="stroke: #000000; stroke-width: 0.8"/>
      </g>
     </g>
     <g id="text_14">
      <!-- 1.25 -->
      <g transform="translate(125.721875 330.635507) scale(0.18 -0.18)">
       <use xlink:href="#DejaVuSans-31"/>
       <use xlink:href="#DejaVuSans-2e" x="63.623047"/>
       <use xlink:href="#DejaVuSans-32" x="95.410156"/>
       <use xlink:href="#DejaVuSans-35" x="159.033203"/>
      </g>
     </g>
    </g>
    <g id="ytick_7">
     <g id="line2d_14">
      <g>
       <use xlink:href="#md05d6e1a2b" x="172.8" y="258.473896" style="stroke: #000000; stroke-width: 0.8"/>
      </g>
     </g>
     <g id="text_15">
      <!-- 1.50 -->
      <g transform="translate(125.721875 265.31249) scale(0.18 -0.18)">
       <use xlink:href="#DejaVuSans-31"/>
       <use xlink:href="#DejaVuSans-2e" x="63.623047"/>
       <use xlink:href="#DejaVuSans-35" x="95.410156"/>
       <use xlink:href="#DejaVuSans-30" x="159.033203"/>
      </g>
     </g>
    </g>
    <g id="ytick_8">
     <g id="line2d_15">
      <g>
       <use xlink:href="#md05d6e1a2b" x="172.8" y="193.150878" style="stroke: #000000; stroke-width: 0.8"/>
      </g>
     </g>
     <g id="text_16">
      <!-- 1.75 -->
      <g transform="translate(125.721875 199.989472) scale(0.18 -0.18)">
       <use xlink:href="#DejaVuSans-31"/>
       <use xlink:href="#DejaVuSans-2e" x="63.623047"/>
       <use xlink:href="#DejaVuSans-37" x="95.410156"/>
       <use xlink:href="#DejaVuSans-35" x="159.033203"/>
      </g>
     </g>
    </g>
    <g id="ytick_9">
     <g id="line2d_16">
      <g>
       <use xlink:href="#md05d6e1a2b" x="172.8" y="127.827861" style="stroke: #000000; stroke-width: 0.8"/>
      </g>
     </g>
     <g id="text_17">
      <!-- 2.00 -->
      <g transform="translate(125.721875 134.666455) scale(0.18 -0.18)">
       <use xlink:href="#DejaVuSans-32"/>
       <use xlink:href="#DejaVuSans-2e" x="63.623047"/>
       <use xlink:href="#DejaVuSans-30" x="95.410156"/>
       <use xlink:href="#DejaVuSans-30" x="159.033203"/>
      </g>
     </g>
    </g>
    <g id="text_18">
     <!-- Exergievernichtung in MW -->
     <g transform="translate(117.978437 487.119938) rotate(-90) scale(0.18 -0.18)">
      <defs>
       <path id="DejaVuSans-45" d="M 628 4666 
L 3578 4666 
L 3578 4134 
L 1259 4134 
L 1259 2753 
L 3481 2753 
L 3481 2222 
L 1259 2222 
L 1259 531 
L 3634 531 
L 3634 0 
L 628 0 
L 628 4666 
z
" transform="scale(0.015625)"/>
       <path id="DejaVuSans-78" d="M 3513 3500 
L 2247 1797 
L 3578 0 
L 2900 0 
L 1881 1375 
L 863 0 
L 184 0 
L 1544 1831 
L 300 3500 
L 978 3500 
L 1906 2253 
L 2834 3500 
L 3513 3500 
z
" transform="scale(0.015625)"/>
       <path id="DejaVuSans-67" d="M 2906 1791 
Q 2906 2416 2648 2759 
Q 2391 3103 1925 3103 
Q 1463 3103 1205 2759 
Q 947 2416 947 1791 
Q 947 1169 1205 825 
Q 1463 481 1925 481 
Q 2391 481 2648 825 
Q 2906 1169 2906 1791 
z
M 3481 434 
Q 3481 -459 3084 -895 
Q 2688 -1331 1869 -1331 
Q 1566 -1331 1297 -1286 
Q 1028 -1241 775 -1147 
L 775 -588 
Q 1028 -725 1275 -790 
Q 1522 -856 1778 -856 
Q 2344 -856 2625 -561 
Q 2906 -266 2906 331 
L 2906 616 
Q 2728 306 2450 153 
Q 2172 0 1784 0 
Q 1141 0 747 490 
Q 353 981 353 1791 
Q 353 2603 747 3093 
Q 1141 3584 1784 3584 
Q 2172 3584 2450 3431 
Q 2728 3278 2906 2969 
L 2906 3500 
L 3481 3500 
L 3481 434 
z
" transform="scale(0.015625)"/>
       <path id="DejaVuSans-76" d="M 191 3500 
L 800 3500 
L 1894 563 
L 2988 3500 
L 3597 3500 
L 2284 0 
L 1503 0 
L 191 3500 
z
" transform="scale(0.015625)"/>
       <path id="DejaVuSans-68" d="M 3513 2113 
L 3513 0 
L 2938 0 
L 2938 2094 
Q 2938 2591 2744 2837 
Q 2550 3084 2163 3084 
Q 1697 3084 1428 2787 
Q 1159 2491 1159 1978 
L 1159 0 
L 581 0 
L 581 4863 
L 1159 4863 
L 1159 2956 
Q 1366 3272 1645 3428 
Q 1925 3584 2291 3584 
Q 2894 3584 3203 3211 
Q 3513 2838 3513 2113 
z
" transform="scale(0.015625)"/>
       <path id="DejaVuSans-4d" d="M 628 4666 
L 1569 4666 
L 2759 1491 
L 3956 4666 
L 4897 4666 
L 4897 0 
L 4281 0 
L 4281 4097 
L 3078 897 
L 2444 897 
L 1241 4097 
L 1241 0 
L 628 0 
L 628 4666 
z
" transform="scale(0.015625)"/>
       <path id="DejaVuSans-57" d="M 213 4666 
L 850 4666 
L 1831 722 
L 2809 4666 
L 3519 4666 
L 4500 722 
L 5478 4666 
L 6119 4666 
L 4947 0 
L 4153 0 
L 3169 4050 
L 2175 0 
L 1381 0 
L 213 4666 
z
" transform="scale(0.015625)"/>
      </defs>
      <use xlink:href="#DejaVuSans-45"/>
      <use xlink:href="#DejaVuSans-78" x="63.183594"/>
      <use xlink:href="#DejaVuSans-65" x="119.238281"/>
      <use xlink:href="#DejaVuSans-72" x="180.761719"/>
      <use xlink:href="#DejaVuSans-67" x="220.125"/>
      <use xlink:href="#DejaVuSans-69" x="283.601562"/>
      <use xlink:href="#DejaVuSans-65" x="311.384766"/>
      <use xlink:href="#DejaVuSans-76" x="372.908203"/>
      <use xlink:href="#DejaVuSans-65" x="432.087891"/>
      <use xlink:href="#DejaVuSans-72" x="493.611328"/>
      <use xlink:href="#DejaVuSans-6e" x="532.974609"/>
      <use xlink:href="#DejaVuSans-69" x="596.353516"/>
      <use xlink:href="#DejaVuSans-63" x="624.136719"/>
      <use xlink:href="#DejaVuSans-68" x="679.117188"/>
      <use xlink:href="#DejaVuSans-74" x="742.496094"/>
      <use xlink:href="#DejaVuSans-75" x="781.705078"/>
      <use xlink:href="#DejaVuSans-6e" x="845.083984"/>
      <use xlink:href="#DejaVuSans-67" x="908.462891"/>
      <use xlink:href="#DejaVuSans-20" x="971.939453"/>
      <use xlink:href="#DejaVuSans-69" x="1003.726562"/>
      <use xlink:href="#DejaVuSans-6e" x="1031.509766"/>
      <use xlink:href="#DejaVuSans-20" x="1094.888672"/>
      <use xlink:href="#DejaVuSans-4d" x="1126.675781"/>
      <use xlink:href="#DejaVuSans-57" x="1212.955078"/>
     </g>
    </g>
   </g>
   <g id="patch_183">
    <path d="M 172.8 650.412 
L 172.8 87.696 
" style="fill: none; stroke: #000000; stroke-width: 0.8; stroke-linejoin: miter; stroke-linecap: square"/>
   </g>
   <g id="patch_184">
    <path d="M 1244.16 650.412 
L 1244.16 87.696 
" style="fill: none; stroke: #000000; stroke-width: 0.8; stroke-linejoin: miter; stroke-linecap: square"/>
   </g>
   <g id="patch_185">
    <path d="M 172.8 650.412 
L 1244.16 650.412 
" style="fill: none; stroke: #000000; stroke-width: 0.8; stroke-linejoin: miter; stroke-linecap: square"/>
   </g>
   <g id="patch_186">
    <path d="M 172.8 87.696 
L 1244.16 87.696 
" style="fill: none; stroke: #000000; stroke-width: 0.8; stroke-linejoin: miter; stroke-linecap: square"/>
   </g>
   <g id="legend_1">
    <g id="patch_187">
     <path d="M 937.915312 641.412 
L 1231.56 641.412 
Q 1235.16 641.412 1235.16 637.812 
L 1235.16 401.826375 
Q 1235.16 398.226375 1231.56 398.226375 
L 937.915312 398.226375 
Q 934.315312 398.226375 934.315312 401.826375 
L 934.315312 637.812 
Q 934.315312 641.412 937.915312 641.412 
z
" style="fill: #ffffff; opacity: 0.8; stroke: #cccccc; stroke-linejoin: miter"/>
    </g>
    <g id="patch_188">
     <path d="M 941.515312 419.103563 
L 977.515312 419.103563 
L 977.515312 406.503563 
L 941.515312 406.503563 
z
" style="fill: #1f77b4"/>
    </g>
    <g id="text_19">
     <!-- Gas cooler -->
     <g transform="translate(991.915312 419.103563) scale(0.18 -0.18)">
      <defs>
       <path id="DejaVuSans-47" d="M 3809 666 
L 3809 1919 
L 2778 1919 
L 2778 2438 
L 4434 2438 
L 4434 434 
Q 4069 175 3628 42 
Q 3188 -91 2688 -91 
Q 1594 -91 976 548 
Q 359 1188 359 2328 
Q 359 3472 976 4111 
Q 1594 4750 2688 4750 
Q 3144 4750 3555 4637 
Q 3966 4525 4313 4306 
L 4313 3634 
Q 3963 3931 3569 4081 
Q 3175 4231 2741 4231 
Q 1884 4231 1454 3753 
Q 1025 3275 1025 2328 
Q 1025 1384 1454 906 
Q 1884 428 2741 428 
Q 3075 428 3337 486 
Q 3600 544 3809 666 
z
" transform="scale(0.015625)"/>
       <path id="DejaVuSans-6c" d="M 603 4863 
L 1178 4863 
L 1178 0 
L 603 0 
L 603 4863 
z
" transform="scale(0.015625)"/>
      </defs>
      <use xlink:href="#DejaVuSans-47"/>
      <use xlink:href="#DejaVuSans-61" x="77.490234"/>
      <use xlink:href="#DejaVuSans-73" x="138.769531"/>
      <use xlink:href="#DejaVuSans-20" x="190.869141"/>
      <use xlink:href="#DejaVuSans-63" x="222.65625"/>
      <use xlink:href="#DejaVuSans-6f" x="277.636719"/>
      <use xlink:href="#DejaVuSans-6f" x="338.818359"/>
      <use xlink:href="#DejaVuSans-6c" x="400"/>
      <use xlink:href="#DejaVuSans-65" x="427.783203"/>
      <use xlink:href="#DejaVuSans-72" x="489.306641"/>
     </g>
    </g>
    <g id="patch_189">
     <path d="M 941.515312 445.524188 
L 977.515312 445.524188 
L 977.515312 432.924188 
L 941.515312 432.924188 
z
" style="fill: #ff7f0e"/>
    </g>
    <g id="text_20">
     <!-- Evaporator -->
     <g transform="translate(991.915312 445.524188) scale(0.18 -0.18)">
      <defs>
       <path id="DejaVuSans-70" d="M 1159 525 
L 1159 -1331 
L 581 -1331 
L 581 3500 
L 1159 3500 
L 1159 2969 
Q 1341 3281 1617 3432 
Q 1894 3584 2278 3584 
Q 2916 3584 3314 3078 
Q 3713 2572 3713 1747 
Q 3713 922 3314 415 
Q 2916 -91 2278 -91 
Q 1894 -91 1617 61 
Q 1341 213 1159 525 
z
M 3116 1747 
Q 3116 2381 2855 2742 
Q 2594 3103 2138 3103 
Q 1681 3103 1420 2742 
Q 1159 2381 1159 1747 
Q 1159 1113 1420 752 
Q 1681 391 2138 391 
Q 2594 391 2855 752 
Q 3116 1113 3116 1747 
z
" transform="scale(0.015625)"/>
      </defs>
      <use xlink:href="#DejaVuSans-45"/>
      <use xlink:href="#DejaVuSans-76" x="63.183594"/>
      <use xlink:href="#DejaVuSans-61" x="122.363281"/>
      <use xlink:href="#DejaVuSans-70" x="183.642578"/>
      <use xlink:href="#DejaVuSans-6f" x="247.119141"/>
      <use xlink:href="#DejaVuSans-72" x="308.300781"/>
      <use xlink:href="#DejaVuSans-61" x="349.414062"/>
      <use xlink:href="#DejaVuSans-74" x="410.693359"/>
      <use xlink:href="#DejaVuSans-6f" x="449.902344"/>
      <use xlink:href="#DejaVuSans-72" x="511.083984"/>
     </g>
    </g>
    <g id="patch_190">
     <path d="M 941.515312 471.944813 
L 977.515312 471.944813 
L 977.515312 459.344813 
L 941.515312 459.344813 
z
" style="fill: #2ca02c"/>
    </g>
    <g id="text_21">
     <!-- Valve 1 -->
     <g transform="translate(991.915312 471.944813) scale(0.18 -0.18)">
      <defs>
       <path id="DejaVuSans-56" d="M 1831 0 
L 50 4666 
L 709 4666 
L 2188 738 
L 3669 4666 
L 4325 4666 
L 2547 0 
L 1831 0 
z
" transform="scale(0.015625)"/>
      </defs>
      <use xlink:href="#DejaVuSans-56"/>
      <use xlink:href="#DejaVuSans-61" x="60.658203"/>
      <use xlink:href="#DejaVuSans-6c" x="121.9375"/>
      <use xlink:href="#DejaVuSans-76" x="149.720703"/>
      <use xlink:href="#DejaVuSans-65" x="208.900391"/>
      <use xlink:href="#DejaVuSans-20" x="270.423828"/>
      <use xlink:href="#DejaVuSans-31" x="302.210938"/>
     </g>
    </g>
    <g id="patch_191">
     <path d="M 941.515312 498.365438 
L 977.515312 498.365438 
L 977.515312 485.765438 
L 941.515312 485.765438 
z
" style="fill: #d62728"/>
    </g>
    <g id="text_22">
     <!-- Valve 2 -->
     <g transform="translate(991.915312 498.365438) scale(0.18 -0.18)">
      <use xlink:href="#DejaVuSans-56"/>
      <use xlink:href="#DejaVuSans-61" x="60.658203"/>
      <use xlink:href="#DejaVuSans-6c" x="121.9375"/>
      <use xlink:href="#DejaVuSans-76" x="149.720703"/>
      <use xlink:href="#DejaVuSans-65" x="208.900391"/>
      <use xlink:href="#DejaVuSans-20" x="270.423828"/>
      <use xlink:href="#DejaVuSans-32" x="302.210938"/>
     </g>
    </g>
    <g id="patch_192">
     <path d="M 941.515312 524.786063 
L 977.515312 524.786063 
L 977.515312 512.186063 
L 941.515312 512.186063 
z
" style="fill: #9467bd"/>
    </g>
    <g id="text_23">
     <!-- Compressor 1 -->
     <g transform="translate(991.915312 524.786063) scale(0.18 -0.18)">
      <defs>
       <path id="DejaVuSans-43" d="M 4122 4306 
L 4122 3641 
Q 3803 3938 3442 4084 
Q 3081 4231 2675 4231 
Q 1875 4231 1450 3742 
Q 1025 3253 1025 2328 
Q 1025 1406 1450 917 
Q 1875 428 2675 428 
Q 3081 428 3442 575 
Q 3803 722 4122 1019 
L 4122 359 
Q 3791 134 3420 21 
Q 3050 -91 2638 -91 
Q 1578 -91 968 557 
Q 359 1206 359 2328 
Q 359 3453 968 4101 
Q 1578 4750 2638 4750 
Q 3056 4750 3426 4639 
Q 3797 4528 4122 4306 
z
" transform="scale(0.015625)"/>
       <path id="DejaVuSans-6d" d="M 3328 2828 
Q 3544 3216 3844 3400 
Q 4144 3584 4550 3584 
Q 5097 3584 5394 3201 
Q 5691 2819 5691 2113 
L 5691 0 
L 5113 0 
L 5113 2094 
Q 5113 2597 4934 2840 
Q 4756 3084 4391 3084 
Q 3944 3084 3684 2787 
Q 3425 2491 3425 1978 
L 3425 0 
L 2847 0 
L 2847 2094 
Q 2847 2600 2669 2842 
Q 2491 3084 2119 3084 
Q 1678 3084 1418 2786 
Q 1159 2488 1159 1978 
L 1159 0 
L 581 0 
L 581 3500 
L 1159 3500 
L 1159 2956 
Q 1356 3278 1631 3431 
Q 1906 3584 2284 3584 
Q 2666 3584 2933 3390 
Q 3200 3197 3328 2828 
z
" transform="scale(0.015625)"/>
      </defs>
      <use xlink:href="#DejaVuSans-43"/>
      <use xlink:href="#DejaVuSans-6f" x="69.824219"/>
      <use xlink:href="#DejaVuSans-6d" x="131.005859"/>
      <use xlink:href="#DejaVuSans-70" x="228.417969"/>
      <use xlink:href="#DejaVuSans-72" x="291.894531"/>
      <use xlink:href="#DejaVuSans-65" x="330.757812"/>
      <use xlink:href="#DejaVuSans-73" x="392.28125"/>
      <use xlink:href="#DejaVuSans-73" x="444.380859"/>
      <use xlink:href="#DejaVuSans-6f" x="496.480469"/>
      <use xlink:href="#DejaVuSans-72" x="557.662109"/>
      <use xlink:href="#DejaVuSans-20" x="598.775391"/>
      <use xlink:href="#DejaVuSans-31" x="630.5625"/>
     </g>
    </g>
    <g id="patch_193">
     <path d="M 941.515312 551.206688 
L 977.515312 551.206688 
L 977.515312 538.606688 
L 941.515312 538.606688 
z
" style="fill: #8c564b"/>
    </g>
    <g id="text_24">
     <!-- Compressor 2 -->
     <g transform="translate(991.915312 551.206688) scale(0.18 -0.18)">
      <use xlink:href="#DejaVuSans-43"/>
      <use xlink:href="#DejaVuSans-6f" x="69.824219"/>
      <use xlink:href="#DejaVuSans-6d" x="131.005859"/>
      <use xlink:href="#DejaVuSans-70" x="228.417969"/>
      <use xlink:href="#DejaVuSans-72" x="291.894531"/>
      <use xlink:href="#DejaVuSans-65" x="330.757812"/>
      <use xlink:href="#DejaVuSans-73" x="392.28125"/>
      <use xlink:href="#DejaVuSans-73" x="444.380859"/>
      <use xlink:href="#DejaVuSans-6f" x="496.480469"/>
      <use xlink:href="#DejaVuSans-72" x="557.662109"/>
      <use xlink:href="#DejaVuSans-20" x="598.775391"/>
      <use xlink:href="#DejaVuSans-32" x="630.5625"/>
     </g>
    </g>
    <g id="patch_194">
     <path d="M 941.515312 577.627313 
L 977.515312 577.627313 
L 977.515312 565.027313 
L 941.515312 565.027313 
z
" style="fill: #e377c2"/>
    </g>
    <g id="text_25">
     <!-- Internal Heat Exchanger 1 -->
     <g transform="translate(991.915312 577.627313) scale(0.18 -0.18)">
      <defs>
       <path id="DejaVuSans-49" d="M 628 4666 
L 1259 4666 
L 1259 0 
L 628 0 
L 628 4666 
z
" transform="scale(0.015625)"/>
       <path id="DejaVuSans-48" d="M 628 4666 
L 1259 4666 
L 1259 2753 
L 3553 2753 
L 3553 4666 
L 4184 4666 
L 4184 0 
L 3553 0 
L 3553 2222 
L 1259 2222 
L 1259 0 
L 628 0 
L 628 4666 
z
" transform="scale(0.015625)"/>
      </defs>
      <use xlink:href="#DejaVuSans-49"/>
      <use xlink:href="#DejaVuSans-6e" x="29.492188"/>
      <use xlink:href="#DejaVuSans-74" x="92.871094"/>
      <use xlink:href="#DejaVuSans-65" x="132.080078"/>
      <use xlink:href="#DejaVuSans-72" x="193.603516"/>
      <use xlink:href="#DejaVuSans-6e" x="232.966797"/>
      <use xlink:href="#DejaVuSans-61" x="296.345703"/>
      <use xlink:href="#DejaVuSans-6c" x="357.625"/>
      <use xlink:href="#DejaVuSans-20" x="385.408203"/>
      <use xlink:href="#DejaVuSans-48" x="417.195312"/>
      <use xlink:href="#DejaVuSans-65" x="492.390625"/>
      <use xlink:href="#DejaVuSans-61" x="553.914062"/>
      <use xlink:href="#DejaVuSans-74" x="615.193359"/>
      <use xlink:href="#DejaVuSans-20" x="654.402344"/>
      <use xlink:href="#DejaVuSans-45" x="686.189453"/>
      <use xlink:href="#DejaVuSans-78" x="749.373047"/>
      <use xlink:href="#DejaVuSans-63" x="806.802734"/>
      <use xlink:href="#DejaVuSans-68" x="861.783203"/>
      <use xlink:href="#DejaVuSans-61" x="925.162109"/>
      <use xlink:href="#DejaVuSans-6e" x="986.441406"/>
      <use xlink:href="#DejaVuSans-67" x="1049.820312"/>
      <use xlink:href="#DejaVuSans-65" x="1113.296875"/>
      <use xlink:href="#DejaVuSans-72" x="1174.820312"/>
      <use xlink:href="#DejaVuSans-20" x="1215.933594"/>
      <use xlink:href="#DejaVuSans-31" x="1247.720703"/>
     </g>
    </g>
    <g id="patch_195">
     <path d="M 941.515312 604.047938 
L 977.515312 604.047938 
L 977.515312 591.447938 
L 941.515312 591.447938 
z
" style="fill: #7f7f7f"/>
    </g>
    <g id="text_26">
     <!-- Internal Heat Exchanger 2 -->
     <g transform="translate(991.915312 604.047938) scale(0.18 -0.18)">
      <use xlink:href="#DejaVuSans-49"/>
      <use xlink:href="#DejaVuSans-6e" x="29.492188"/>
      <use xlink:href="#DejaVuSans-74" x="92.871094"/>
      <use xlink:href="#DejaVuSans-65" x="132.080078"/>
      <use xlink:href="#DejaVuSans-72" x="193.603516"/>
      <use xlink:href="#DejaVuSans-6e" x="232.966797"/>
      <use xlink:href="#DejaVuSans-61" x="296.345703"/>
      <use xlink:href="#DejaVuSans-6c" x="357.625"/>
      <use xlink:href="#DejaVuSans-20" x="385.408203"/>
      <use xlink:href="#DejaVuSans-48" x="417.195312"/>
      <use xlink:href="#DejaVuSans-65" x="492.390625"/>
      <use xlink:href="#DejaVuSans-61" x="553.914062"/>
      <use xlink:href="#DejaVuSans-74" x="615.193359"/>
      <use xlink:href="#DejaVuSans-20" x="654.402344"/>
      <use xlink:href="#DejaVuSans-45" x="686.189453"/>
      <use xlink:href="#DejaVuSans-78" x="749.373047"/>
      <use xlink:href="#DejaVuSans-63" x="806.802734"/>
      <use xlink:href="#DejaVuSans-68" x="861.783203"/>
      <use xlink:href="#DejaVuSans-61" x="925.162109"/>
      <use xlink:href="#DejaVuSans-6e" x="986.441406"/>
      <use xlink:href="#DejaVuSans-67" x="1049.820312"/>
      <use xlink:href="#DejaVuSans-65" x="1113.296875"/>
      <use xlink:href="#DejaVuSans-72" x="1174.820312"/>
      <use xlink:href="#DejaVuSans-20" x="1215.933594"/>
      <use xlink:href="#DejaVuSans-32" x="1247.720703"/>
     </g>
    </g>
    <g id="patch_196">
     <path d="M 941.515312 630.468563 
L 977.515312 630.468563 
L 977.515312 617.868563 
L 941.515312 617.868563 
z
" style="fill: #bcbd22"/>
    </g>
    <g id="text_27">
     <!-- Merge -->
     <g transform="translate(991.915312 630.468563) scale(0.18 -0.18)">
      <use xlink:href="#DejaVuSans-4d"/>
      <use xlink:href="#DejaVuSans-65" x="86.279297"/>
      <use xlink:href="#DejaVuSans-72" x="147.802734"/>
      <use xlink:href="#DejaVuSans-67" x="187.166016"/>
      <use xlink:href="#DejaVuSans-65" x="250.642578"/>
     </g>
    </g>
   </g>
  </g>
 </g>
 <defs>
  <clipPath id="pc19e1ac2c2">
   <rect x="172.8" y="87.696" width="1071.36" height="562.716"/>
  </clipPath>
 </defs>
</svg>
