<?xml version="1.0" encoding="utf-8" standalone="no"?>
<!DOCTYPE svg PUBLIC "-//W3C//DTD SVG 1.1//EN"
  "http://www.w3.org/Graphics/SVG/1.1/DTD/svg11.dtd">
<svg xmlns:xlink="http://www.w3.org/1999/xlink" width="460.8pt" height="345.6pt" viewBox="0 0 460.8 345.6" xmlns="http://www.w3.org/2000/svg" version="1.1">
 <metadata>
  <rdf:RDF xmlns:dc="http://purl.org/dc/elements/1.1/" xmlns:cc="http://creativecommons.org/ns#" xmlns:rdf="http://www.w3.org/1999/02/22-rdf-syntax-ns#">
   <cc:Work>
    <dc:type rdf:resource="http://purl.org/dc/dcmitype/StillImage"/>
    <dc:date>2023-04-04T17:02:34.952548</dc:date>
    <dc:format>image/svg+xml</dc:format>
    <dc:creator>
     <cc:Agent>
      <dc:title>Matplotlib v3.6.1, https://matplotlib.org/</dc:title>
     </cc:Agent>
    </dc:creator>
   </cc:Work>
  </rdf:RDF>
 </metadata>
 <defs>
  <style type="text/css">*{stroke-linejoin: round; stroke-linecap: butt}</style>
 </defs>
 <g id="figure_1">
  <g id="patch_1">
   <path d="M 0 345.6 
L 460.8 345.6 
L 460.8 0 
L 0 0 
z
" style="fill: #ffffff"/>
  </g>
  <g id="axes_1">
   <g id="patch_2">
    <path d="M 57.6 307.584 
L 414.72 307.584 
L 414.72 41.472 
L 57.6 41.472 
z
" style="fill: #ffffff"/>
   </g>
   <g id="patch_3">
    <path d="M 73.832727 307.584 
L 76.119027 307.584 
L 76.119027 301.855829 
L 73.832727 301.855829 
z
" clip-path="url(#p52a1611b68)" style="fill: #1f77b4"/>
   </g>
   <g id="patch_4">
    <path d="M 90.799477 307.584 
L 93.085777 307.584 
L 93.085777 299.722787 
L 90.799477 299.722787 
z
" clip-path="url(#p52a1611b68)" style="fill: #1f77b4"/>
   </g>
   <g id="patch_5">
    <path d="M 107.766227 307.584 
L 110.052526 307.584 
L 110.052526 297.703294 
L 107.766227 297.703294 
z
" clip-path="url(#p52a1611b68)" style="fill: #1f77b4"/>
   </g>
   <g id="patch_6">
    <path d="M 124.732977 307.584 
L 127.019276 307.584 
L 127.019276 295.794293 
L 124.732977 295.794293 
z
" clip-path="url(#p52a1611b68)" style="fill: #1f77b4"/>
   </g>
   <g id="patch_7">
    <path d="M 141.699726 307.584 
L 143.986026 307.584 
L 143.986026 293.990579 
L 141.699726 293.990579 
z
" clip-path="url(#p52a1611b68)" style="fill: #1f77b4"/>
   </g>
   <g id="patch_8">
    <path d="M 158.666476 307.584 
L 160.952776 307.584 
L 160.952776 292.286228 
L 158.666476 292.286228 
z
" clip-path="url(#p52a1611b68)" style="fill: #1f77b4"/>
   </g>
   <g id="patch_9">
    <path d="M 175.633226 307.584 
L 177.919526 307.584 
L 177.919526 290.675192 
L 175.633226 290.675192 
z
" clip-path="url(#p52a1611b68)" style="fill: #1f77b4"/>
   </g>
   <g id="patch_10">
    <path d="M 192.599976 307.584 
L 194.886275 307.584 
L 194.886275 289.151557 
L 192.599976 289.151557 
z
" clip-path="url(#p52a1611b68)" style="fill: #1f77b4"/>
   </g>
   <g id="patch_11">
    <path d="M 209.566726 307.584 
L 211.853025 307.584 
L 211.853025 287.709666 
L 209.566726 287.709666 
z
" clip-path="url(#p52a1611b68)" style="fill: #1f77b4"/>
   </g>
   <g id="patch_12">
    <path d="M 226.533475 307.584 
L 228.819775 307.584 
L 228.819775 286.344167 
L 226.533475 286.344167 
z
" clip-path="url(#p52a1611b68)" style="fill: #1f77b4"/>
   </g>
   <g id="patch_13">
    <path d="M 243.500225 307.584 
L 245.786525 307.584 
L 245.786525 285.050029 
L 243.500225 285.050029 
z
" clip-path="url(#p52a1611b68)" style="fill: #1f77b4"/>
   </g>
   <g id="patch_14">
    <path d="M 260.466975 307.584 
L 262.753274 307.584 
L 262.753274 283.822542 
L 260.466975 283.822542 
z
" clip-path="url(#p52a1611b68)" style="fill: #1f77b4"/>
   </g>
   <g id="patch_15">
    <path d="M 277.433725 307.584 
L 279.720024 307.584 
L 279.720024 282.657305 
L 277.433725 282.657305 
z
" clip-path="url(#p52a1611b68)" style="fill: #1f77b4"/>
   </g>
   <g id="patch_16">
    <path d="M 294.400474 307.584 
L 296.686774 307.584 
L 296.686774 281.550214 
L 294.400474 281.550214 
z
" clip-path="url(#p52a1611b68)" style="fill: #1f77b4"/>
   </g>
   <g id="patch_17">
    <path d="M 311.367224 307.584 
L 313.653524 307.584 
L 313.653524 280.497444 
L 311.367224 280.497444 
z
" clip-path="url(#p52a1611b68)" style="fill: #1f77b4"/>
   </g>
   <g id="patch_18">
    <path d="M 328.333974 307.584 
L 330.620274 307.584 
L 330.620274 279.495432 
L 328.333974 279.495432 
z
" clip-path="url(#p52a1611b68)" style="fill: #1f77b4"/>
   </g>
   <g id="patch_19">
    <path d="M 345.300724 307.584 
L 347.587023 307.584 
L 347.587023 278.540862 
L 345.300724 278.540862 
z
" clip-path="url(#p52a1611b68)" style="fill: #1f77b4"/>
   </g>
   <g id="patch_20">
    <path d="M 362.267474 307.584 
L 364.553773 307.584 
L 364.553773 277.630645 
L 362.267474 277.630645 
z
" clip-path="url(#p52a1611b68)" style="fill: #1f77b4"/>
   </g>
   <g id="patch_21">
    <path d="M 379.234223 307.584 
L 381.520523 307.584 
L 381.520523 276.761906 
L 379.234223 276.761906 
z
" clip-path="url(#p52a1611b68)" style="fill: #1f77b4"/>
   </g>
   <g id="patch_22">
    <path d="M 396.200973 307.584 
L 398.487273 307.584 
L 398.487273 275.931972 
L 396.200973 275.931972 
z
" clip-path="url(#p52a1611b68)" style="fill: #1f77b4"/>
   </g>
   <g id="patch_23">
    <path d="M 73.832727 301.855829 
L 76.119027 301.855829 
L 76.119027 287.487927 
L 73.832727 287.487927 
z
" clip-path="url(#p52a1611b68)" style="fill: #ff7f0e"/>
   </g>
   <g id="patch_24">
    <path d="M 90.799477 299.722787 
L 93.085777 299.722787 
L 93.085777 285.351052 
L 90.799477 285.351052 
z
" clip-path="url(#p52a1611b68)" style="fill: #ff7f0e"/>
   </g>
   <g id="patch_25">
    <path d="M 107.766227 297.703294 
L 110.052526 297.703294 
L 110.052526 283.336291 
L 107.766227 283.336291 
z
" clip-path="url(#p52a1611b68)" style="fill: #ff7f0e"/>
   </g>
   <g id="patch_26">
    <path d="M 124.732977 295.794293 
L 127.019276 295.794293 
L 127.019276 281.437377 
L 124.732977 281.437377 
z
" clip-path="url(#p52a1611b68)" style="fill: #ff7f0e"/>
   </g>
   <g id="patch_27">
    <path d="M 141.699726 293.990579 
L 143.986026 293.990579 
L 143.986026 279.647255 
L 141.699726 279.647255 
z
" clip-path="url(#p52a1611b68)" style="fill: #ff7f0e"/>
   </g>
   <g id="patch_28">
    <path d="M 158.666476 292.286228 
L 160.952776 292.286228 
L 160.952776 277.958853 
L 158.666476 277.958853 
z
" clip-path="url(#p52a1611b68)" style="fill: #ff7f0e"/>
   </g>
   <g id="patch_29">
    <path d="M 175.633226 290.675192 
L 177.919526 290.675192 
L 177.919526 276.365371 
L 175.633226 276.365371 
z
" clip-path="url(#p52a1611b68)" style="fill: #ff7f0e"/>
   </g>
   <g id="patch_30">
    <path d="M 192.599976 289.151557 
L 194.886275 289.151557 
L 194.886275 274.860386 
L 192.599976 274.860386 
z
" clip-path="url(#p52a1611b68)" style="fill: #ff7f0e"/>
   </g>
   <g id="patch_31">
    <path d="M 209.566726 287.709666 
L 211.853025 287.709666 
L 211.853025 273.437886 
L 209.566726 273.437886 
z
" clip-path="url(#p52a1611b68)" style="fill: #ff7f0e"/>
   </g>
   <g id="patch_32">
    <path d="M 226.533475 286.344167 
L 228.819775 286.344167 
L 228.819775 272.092267 
L 226.533475 272.092267 
z
" clip-path="url(#p52a1611b68)" style="fill: #ff7f0e"/>
   </g>
   <g id="patch_33">
    <path d="M 243.500225 285.050029 
L 245.786525 285.050029 
L 245.786525 270.818314 
L 243.500225 270.818314 
z
" clip-path="url(#p52a1611b68)" style="fill: #ff7f0e"/>
   </g>
   <g id="patch_34">
    <path d="M 260.466975 283.822542 
L 262.753274 283.822542 
L 262.753274 269.611183 
L 260.466975 269.611183 
z
" clip-path="url(#p52a1611b68)" style="fill: #ff7f0e"/>
   </g>
   <g id="patch_35">
    <path d="M 277.433725 282.657305 
L 279.720024 282.657305 
L 279.720024 268.466374 
L 277.433725 268.466374 
z
" clip-path="url(#p52a1611b68)" style="fill: #ff7f0e"/>
   </g>
   <g id="patch_36">
    <path d="M 294.400474 281.550214 
L 296.686774 281.550214 
L 296.686774 267.37971 
L 294.400474 267.37971 
z
" clip-path="url(#p52a1611b68)" style="fill: #ff7f0e"/>
   </g>
   <g id="patch_37">
    <path d="M 311.367224 280.497444 
L 313.653524 280.497444 
L 313.653524 266.347312 
L 311.367224 266.347312 
z
" clip-path="url(#p52a1611b68)" style="fill: #ff7f0e"/>
   </g>
   <g id="patch_38">
    <path d="M 328.333974 279.495432 
L 330.620274 279.495432 
L 330.620274 265.365575 
L 328.333974 265.365575 
z
" clip-path="url(#p52a1611b68)" style="fill: #ff7f0e"/>
   </g>
   <g id="patch_39">
    <path d="M 345.300724 278.540862 
L 347.587023 278.540862 
L 347.587023 264.431155 
L 345.300724 264.431155 
z
" clip-path="url(#p52a1611b68)" style="fill: #ff7f0e"/>
   </g>
   <g id="patch_40">
    <path d="M 362.267474 277.630645 
L 364.553773 277.630645 
L 364.553773 263.54094 
L 362.267474 263.54094 
z
" clip-path="url(#p52a1611b68)" style="fill: #ff7f0e"/>
   </g>
   <g id="patch_41">
    <path d="M 379.234223 276.761906 
L 381.520523 276.761906 
L 381.520523 262.692041 
L 379.234223 262.692041 
z
" clip-path="url(#p52a1611b68)" style="fill: #ff7f0e"/>
   </g>
   <g id="patch_42">
    <path d="M 396.200973 275.931972 
L 398.487273 275.931972 
L 398.487273 261.881773 
L 396.200973 261.881773 
z
" clip-path="url(#p52a1611b68)" style="fill: #ff7f0e"/>
   </g>
   <g id="patch_43">
    <path d="M 73.832727 287.487927 
L 76.119027 287.487927 
L 76.119027 282.771515 
L 73.832727 282.771515 
z
" clip-path="url(#p52a1611b68)" style="fill: #2ca02c"/>
   </g>
   <g id="patch_44">
    <path d="M 90.799477 285.351052 
L 93.085777 285.351052 
L 93.085777 280.633382 
L 90.799477 280.633382 
z
" clip-path="url(#p52a1611b68)" style="fill: #2ca02c"/>
   </g>
   <g id="patch_45">
    <path d="M 107.766227 283.336291 
L 110.052526 283.336291 
L 110.052526 278.620174 
L 107.766227 278.620174 
z
" clip-path="url(#p52a1611b68)" style="fill: #2ca02c"/>
   </g>
   <g id="patch_46">
    <path d="M 124.732977 281.437377 
L 127.019276 281.437377 
L 127.019276 276.724571 
L 124.732977 276.724571 
z
" clip-path="url(#p52a1611b68)" style="fill: #2ca02c"/>
   </g>
   <g id="patch_47">
    <path d="M 141.699726 279.647255 
L 143.986026 279.647255 
L 143.986026 274.938911 
L 141.699726 274.938911 
z
" clip-path="url(#p52a1611b68)" style="fill: #2ca02c"/>
   </g>
   <g id="patch_48">
    <path d="M 158.666476 277.958853 
L 160.952776 277.958853 
L 160.952776 273.255744 
L 158.666476 273.255744 
z
" clip-path="url(#p52a1611b68)" style="fill: #2ca02c"/>
   </g>
   <g id="patch_49">
    <path d="M 175.633226 276.365371 
L 177.919526 276.365371 
L 177.919526 271.668024 
L 175.633226 271.668024 
z
" clip-path="url(#p52a1611b68)" style="fill: #2ca02c"/>
   </g>
   <g id="patch_50">
    <path d="M 192.599976 274.860386 
L 194.886275 274.860386 
L 194.886275 270.169161 
L 192.599976 270.169161 
z
" clip-path="url(#p52a1611b68)" style="fill: #2ca02c"/>
   </g>
   <g id="patch_51">
    <path d="M 209.566726 273.437886 
L 211.853025 273.437886 
L 211.853025 268.753027 
L 209.566726 268.753027 
z
" clip-path="url(#p52a1611b68)" style="fill: #2ca02c"/>
   </g>
   <g id="patch_52">
    <path d="M 226.533475 272.092267 
L 228.819775 272.092267 
L 228.819775 267.413934 
L 226.533475 267.413934 
z
" clip-path="url(#p52a1611b68)" style="fill: #2ca02c"/>
   </g>
   <g id="patch_53">
    <path d="M 243.500225 270.818314 
L 245.786525 270.818314 
L 245.786525 266.146607 
L 243.500225 266.146607 
z
" clip-path="url(#p52a1611b68)" style="fill: #2ca02c"/>
   </g>
   <g id="patch_54">
    <path d="M 260.466975 269.611183 
L 262.753274 269.611183 
L 262.753274 264.946158 
L 260.466975 264.946158 
z
" clip-path="url(#p52a1611b68)" style="fill: #2ca02c"/>
   </g>
   <g id="patch_55">
    <path d="M 277.433725 268.466374 
L 279.720024 268.466374 
L 279.720024 263.808055 
L 277.433725 263.808055 
z
" clip-path="url(#p52a1611b68)" style="fill: #2ca02c"/>
   </g>
   <g id="patch_56">
    <path d="M 294.400474 267.37971 
L 296.686774 267.37971 
L 296.686774 262.728096 
L 294.400474 262.728096 
z
" clip-path="url(#p52a1611b68)" style="fill: #2ca02c"/>
   </g>
   <g id="patch_57">
    <path d="M 311.367224 266.347312 
L 313.653524 266.347312 
L 313.653524 261.702385 
L 311.367224 261.702385 
z
" clip-path="url(#p52a1611b68)" style="fill: #2ca02c"/>
   </g>
   <g id="patch_58">
    <path d="M 328.333974 265.365575 
L 330.620274 265.365575 
L 330.620274 260.727304 
L 328.333974 260.727304 
z
" clip-path="url(#p52a1611b68)" style="fill: #2ca02c"/>
   </g>
   <g id="patch_59">
    <path d="M 345.300724 264.431155 
L 347.587023 264.431155 
L 347.587023 259.799498 
L 345.300724 259.799498 
z
" clip-path="url(#p52a1611b68)" style="fill: #2ca02c"/>
   </g>
   <g id="patch_60">
    <path d="M 362.267474 263.54094 
L 364.553773 263.54094 
L 364.553773 258.915849 
L 362.267474 258.915849 
z
" clip-path="url(#p52a1611b68)" style="fill: #2ca02c"/>
   </g>
   <g id="patch_61">
    <path d="M 379.234223 262.692041 
L 381.520523 262.692041 
L 381.520523 258.073463 
L 379.234223 258.073463 
z
" clip-path="url(#p52a1611b68)" style="fill: #2ca02c"/>
   </g>
   <g id="patch_62">
    <path d="M 396.200973 261.881773 
L 398.487273 261.881773 
L 398.487273 257.26965 
L 396.200973 257.26965 
z
" clip-path="url(#p52a1611b68)" style="fill: #2ca02c"/>
   </g>
   <g id="patch_63">
    <path d="M 73.832727 282.771515 
L 76.119027 282.771515 
L 76.119027 193.654581 
L 73.832727 193.654581 
z
" clip-path="url(#p52a1611b68)" style="fill: #d62728"/>
   </g>
   <g id="patch_64">
    <path d="M 90.799477 280.633382 
L 93.085777 280.633382 
L 93.085777 192.581693 
L 90.799477 192.581693 
z
" clip-path="url(#p52a1611b68)" style="fill: #d62728"/>
   </g>
   <g id="patch_65">
    <path d="M 107.766227 278.620174 
L 110.052526 278.620174 
L 110.052526 191.339355 
L 107.766227 191.339355 
z
" clip-path="url(#p52a1611b68)" style="fill: #d62728"/>
   </g>
   <g id="patch_66">
    <path d="M 124.732977 276.724571 
L 127.019276 276.724571 
L 127.019276 190.008922 
L 124.732977 190.008922 
z
" clip-path="url(#p52a1611b68)" style="fill: #d62728"/>
   </g>
   <g id="patch_67">
    <path d="M 141.699726 274.938911 
L 143.986026 274.938911 
L 143.986026 188.635974 
L 141.699726 188.635974 
z
" clip-path="url(#p52a1611b68)" style="fill: #d62728"/>
   </g>
   <g id="patch_68">
    <path d="M 158.666476 273.255744 
L 160.952776 273.255744 
L 160.952776 187.247737 
L 158.666476 187.247737 
z
" clip-path="url(#p52a1611b68)" style="fill: #d62728"/>
   </g>
   <g id="patch_69">
    <path d="M 175.633226 271.668024 
L 177.919526 271.668024 
L 177.919526 185.861107 
L 175.633226 185.861107 
z
" clip-path="url(#p52a1611b68)" style="fill: #d62728"/>
   </g>
   <g id="patch_70">
    <path d="M 192.599976 270.169161 
L 194.886275 270.169161 
L 194.886275 184.486777 
L 192.599976 184.486777 
z
" clip-path="url(#p52a1611b68)" style="fill: #d62728"/>
   </g>
   <g id="patch_71">
    <path d="M 209.566726 268.753027 
L 211.853025 268.753027 
L 211.853025 183.131532 
L 209.566726 183.131532 
z
" clip-path="url(#p52a1611b68)" style="fill: #d62728"/>
   </g>
   <g id="patch_72">
    <path d="M 226.533475 267.413934 
L 228.819775 267.413934 
L 228.819775 181.799607 
L 226.533475 181.799607 
z
" clip-path="url(#p52a1611b68)" style="fill: #d62728"/>
   </g>
   <g id="patch_73">
    <path d="M 243.500225 266.146607 
L 245.786525 266.146607 
L 245.786525 180.493527 
L 243.500225 180.493527 
z
" clip-path="url(#p52a1611b68)" style="fill: #d62728"/>
   </g>
   <g id="patch_74">
    <path d="M 260.466975 264.946158 
L 262.753274 264.946158 
L 262.753274 179.214653 
L 260.466975 179.214653 
z
" clip-path="url(#p52a1611b68)" style="fill: #d62728"/>
   </g>
   <g id="patch_75">
    <path d="M 277.433725 263.808055 
L 279.720024 263.808055 
L 279.720024 177.963542 
L 277.433725 177.963542 
z
" clip-path="url(#p52a1611b68)" style="fill: #d62728"/>
   </g>
   <g id="patch_76">
    <path d="M 294.400474 262.728096 
L 296.686774 262.728096 
L 296.686774 176.740196 
L 294.400474 176.740196 
z
" clip-path="url(#p52a1611b68)" style="fill: #d62728"/>
   </g>
   <g id="patch_77">
    <path d="M 311.367224 261.702385 
L 313.653524 261.702385 
L 313.653524 175.544227 
L 311.367224 175.544227 
z
" clip-path="url(#p52a1611b68)" style="fill: #d62728"/>
   </g>
   <g id="patch_78">
    <path d="M 328.333974 260.727304 
L 330.620274 260.727304 
L 330.620274 174.374987 
L 328.333974 174.374987 
z
" clip-path="url(#p52a1611b68)" style="fill: #d62728"/>
   </g>
   <g id="patch_79">
    <path d="M 345.300724 259.799498 
L 347.587023 259.799498 
L 347.587023 173.231646 
L 345.300724 173.231646 
z
" clip-path="url(#p52a1611b68)" style="fill: #d62728"/>
   </g>
   <g id="patch_80">
    <path d="M 362.267474 258.915849 
L 364.553773 258.915849 
L 364.553773 172.113263 
L 362.267474 172.113263 
z
" clip-path="url(#p52a1611b68)" style="fill: #d62728"/>
   </g>
   <g id="patch_81">
    <path d="M 379.234223 258.073463 
L 381.520523 258.073463 
L 381.520523 171.018825 
L 379.234223 171.018825 
z
" clip-path="url(#p52a1611b68)" style="fill: #d62728"/>
   </g>
   <g id="patch_82">
    <path d="M 396.200973 257.26965 
L 398.487273 257.26965 
L 398.487273 169.947285 
L 396.200973 169.947285 
z
" clip-path="url(#p52a1611b68)" style="fill: #d62728"/>
   </g>
   <g id="patch_83">
    <path d="M 73.832727 193.654581 
L 76.119027 193.654581 
L 76.119027 157.67158 
L 73.832727 157.67158 
z
" clip-path="url(#p52a1611b68)" style="fill: #9467bd"/>
   </g>
   <g id="patch_84">
    <path d="M 90.799477 192.581693 
L 93.085777 192.581693 
L 93.085777 156.450225 
L 90.799477 156.450225 
z
" clip-path="url(#p52a1611b68)" style="fill: #9467bd"/>
   </g>
   <g id="patch_85">
    <path d="M 107.766227 191.339355 
L 110.052526 191.339355 
L 110.052526 155.084569 
L 107.766227 155.084569 
z
" clip-path="url(#p52a1611b68)" style="fill: #9467bd"/>
   </g>
   <g id="patch_86">
    <path d="M 124.732977 190.008922 
L 127.019276 190.008922 
L 127.019276 153.647308 
L 124.732977 153.647308 
z
" clip-path="url(#p52a1611b68)" style="fill: #9467bd"/>
   </g>
   <g id="patch_87">
    <path d="M 141.699726 188.635974 
L 143.986026 188.635974 
L 143.986026 152.178818 
L 141.699726 152.178818 
z
" clip-path="url(#p52a1611b68)" style="fill: #9467bd"/>
   </g>
   <g id="patch_88">
    <path d="M 158.666476 187.247737 
L 160.952776 187.247737 
L 160.952776 150.702942 
L 158.666476 150.702942 
z
" clip-path="url(#p52a1611b68)" style="fill: #9467bd"/>
   </g>
   <g id="patch_89">
    <path d="M 175.633226 185.861107 
L 177.919526 185.861107 
L 177.919526 149.234262 
L 175.633226 149.234262 
z
" clip-path="url(#p52a1611b68)" style="fill: #9467bd"/>
   </g>
   <g id="patch_90">
    <path d="M 192.599976 184.486777 
L 194.886275 184.486777 
L 194.886275 147.781833 
L 192.599976 147.781833 
z
" clip-path="url(#p52a1611b68)" style="fill: #9467bd"/>
   </g>
   <g id="patch_91">
    <path d="M 209.566726 183.131532 
L 211.853025 183.131532 
L 211.853025 146.351259 
L 209.566726 146.351259 
z
" clip-path="url(#p52a1611b68)" style="fill: #9467bd"/>
   </g>
   <g id="patch_92">
    <path d="M 226.533475 181.799607 
L 228.819775 181.799607 
L 228.819775 144.945917 
L 226.533475 144.945917 
z
" clip-path="url(#p52a1611b68)" style="fill: #9467bd"/>
   </g>
   <g id="patch_93">
    <path d="M 243.500225 180.493527 
L 245.786525 180.493527 
L 245.786525 143.567709 
L 243.500225 143.567709 
z
" clip-path="url(#p52a1611b68)" style="fill: #9467bd"/>
   </g>
   <g id="patch_94">
    <path d="M 260.466975 179.214653 
L 262.753274 179.214653 
L 262.753274 142.217547 
L 260.466975 142.217547 
z
" clip-path="url(#p52a1611b68)" style="fill: #9467bd"/>
   </g>
   <g id="patch_95">
    <path d="M 277.433725 177.963542 
L 279.720024 177.963542 
L 279.720024 140.895667 
L 277.433725 140.895667 
z
" clip-path="url(#p52a1611b68)" style="fill: #9467bd"/>
   </g>
   <g id="patch_96">
    <path d="M 294.400474 176.740196 
L 296.686774 176.740196 
L 296.686774 139.601846 
L 294.400474 139.601846 
z
" clip-path="url(#p52a1611b68)" style="fill: #9467bd"/>
   </g>
   <g id="patch_97">
    <path d="M 311.367224 175.544227 
L 313.653524 175.544227 
L 313.653524 138.335543 
L 311.367224 138.335543 
z
" clip-path="url(#p52a1611b68)" style="fill: #9467bd"/>
   </g>
   <g id="patch_98">
    <path d="M 328.333974 174.374987 
L 330.620274 174.374987 
L 330.620274 137.096004 
L 328.333974 137.096004 
z
" clip-path="url(#p52a1611b68)" style="fill: #9467bd"/>
   </g>
   <g id="patch_99">
    <path d="M 345.300724 173.231646 
L 347.587023 173.231646 
L 347.587023 135.882337 
L 345.300724 135.882337 
z
" clip-path="url(#p52a1611b68)" style="fill: #9467bd"/>
   </g>
   <g id="patch_100">
    <path d="M 362.267474 172.113263 
L 364.553773 172.113263 
L 364.553773 134.693559 
L 362.267474 134.693559 
z
" clip-path="url(#p52a1611b68)" style="fill: #9467bd"/>
   </g>
   <g id="patch_101">
    <path d="M 379.234223 171.018825 
L 381.520523 171.018825 
L 381.520523 133.52864 
L 379.234223 133.52864 
z
" clip-path="url(#p52a1611b68)" style="fill: #9467bd"/>
   </g>
   <g id="patch_102">
    <path d="M 396.200973 169.947285 
L 398.487273 169.947285 
L 398.487273 132.386526 
L 396.200973 132.386526 
z
" clip-path="url(#p52a1611b68)" style="fill: #9467bd"/>
   </g>
   <g id="patch_103">
    <path d="M 73.832727 157.67158 
L 76.119027 157.67158 
L 76.119027 109.449119 
L 73.832727 109.449119 
z
" clip-path="url(#p52a1611b68)" style="fill: #8c564b"/>
   </g>
   <g id="patch_104">
    <path d="M 90.799477 156.450225 
L 93.085777 156.450225 
L 93.085777 108.623917 
L 90.799477 108.623917 
z
" clip-path="url(#p52a1611b68)" style="fill: #8c564b"/>
   </g>
   <g id="patch_105">
    <path d="M 107.766227 155.084569 
L 110.052526 155.084569 
L 110.052526 107.547604 
L 107.766227 107.547604 
z
" clip-path="url(#p52a1611b68)" style="fill: #8c564b"/>
   </g>
   <g id="patch_106">
    <path d="M 124.732977 153.647308 
L 127.019276 153.647308 
L 127.019276 106.329706 
L 124.732977 106.329706 
z
" clip-path="url(#p52a1611b68)" style="fill: #8c564b"/>
   </g>
   <g id="patch_107">
    <path d="M 141.699726 152.178818 
L 143.986026 152.178818 
L 143.986026 105.032137 
L 141.699726 105.032137 
z
" clip-path="url(#p52a1611b68)" style="fill: #8c564b"/>
   </g>
   <g id="patch_108">
    <path d="M 158.666476 150.702942 
L 160.952776 150.702942 
L 160.952776 103.692341 
L 158.666476 103.692341 
z
" clip-path="url(#p52a1611b68)" style="fill: #8c564b"/>
   </g>
   <g id="patch_109">
    <path d="M 175.633226 149.234262 
L 177.919526 149.234262 
L 177.919526 102.33397 
L 175.633226 102.33397 
z
" clip-path="url(#p52a1611b68)" style="fill: #8c564b"/>
   </g>
   <g id="patch_110">
    <path d="M 192.599976 147.781833 
L 194.886275 147.781833 
L 194.886275 100.972375 
L 192.599976 100.972375 
z
" clip-path="url(#p52a1611b68)" style="fill: #8c564b"/>
   </g>
   <g id="patch_111">
    <path d="M 209.566726 146.351259 
L 211.853025 146.351259 
L 211.853025 99.617666 
L 209.566726 99.617666 
z
" clip-path="url(#p52a1611b68)" style="fill: #8c564b"/>
   </g>
   <g id="patch_112">
    <path d="M 226.533475 144.945917 
L 228.819775 144.945917 
L 228.819775 98.27652 
L 226.533475 98.27652 
z
" clip-path="url(#p52a1611b68)" style="fill: #8c564b"/>
   </g>
   <g id="patch_113">
    <path d="M 243.500225 143.567709 
L 245.786525 143.567709 
L 245.786525 96.953307 
L 243.500225 96.953307 
z
" clip-path="url(#p52a1611b68)" style="fill: #8c564b"/>
   </g>
   <g id="patch_114">
    <path d="M 260.466975 142.217547 
L 262.753274 142.217547 
L 262.753274 95.650806 
L 260.466975 95.650806 
z
" clip-path="url(#p52a1611b68)" style="fill: #8c564b"/>
   </g>
   <g id="patch_115">
    <path d="M 277.433725 140.895667 
L 279.720024 140.895667 
L 279.720024 94.370686 
L 277.433725 94.370686 
z
" clip-path="url(#p52a1611b68)" style="fill: #8c564b"/>
   </g>
   <g id="patch_116">
    <path d="M 294.400474 139.601846 
L 296.686774 139.601846 
L 296.686774 93.113833 
L 294.400474 93.113833 
z
" clip-path="url(#p52a1611b68)" style="fill: #8c564b"/>
   </g>
   <g id="patch_117">
    <path d="M 311.367224 138.335543 
L 313.653524 138.335543 
L 313.653524 91.880571 
L 311.367224 91.880571 
z
" clip-path="url(#p52a1611b68)" style="fill: #8c564b"/>
   </g>
   <g id="patch_118">
    <path d="M 328.333974 137.096004 
L 330.620274 137.096004 
L 330.620274 90.670825 
L 328.333974 90.670825 
z
" clip-path="url(#p52a1611b68)" style="fill: #8c564b"/>
   </g>
   <g id="patch_119">
    <path d="M 345.300724 135.882337 
L 347.587023 135.882337 
L 347.587023 89.484238 
L 345.300724 89.484238 
z
" clip-path="url(#p52a1611b68)" style="fill: #8c564b"/>
   </g>
   <g id="patch_120">
    <path d="M 362.267474 134.693559 
L 364.553773 134.693559 
L 364.553773 88.320251 
L 362.267474 88.320251 
z
" clip-path="url(#p52a1611b68)" style="fill: #8c564b"/>
   </g>
   <g id="patch_121">
    <path d="M 379.234223 133.52864 
L 381.520523 133.52864 
L 381.520523 87.178168 
L 379.234223 87.178168 
z
" clip-path="url(#p52a1611b68)" style="fill: #8c564b"/>
   </g>
   <g id="patch_122">
    <path d="M 396.200973 132.386526 
L 398.487273 132.386526 
L 398.487273 86.057201 
L 396.200973 86.057201 
z
" clip-path="url(#p52a1611b68)" style="fill: #8c564b"/>
   </g>
   <g id="patch_123">
    <path d="M 73.832727 109.449119 
L 76.119027 109.449119 
L 76.119027 108.018701 
L 73.832727 108.018701 
z
" clip-path="url(#p52a1611b68)" style="fill: #e377c2"/>
   </g>
   <g id="patch_124">
    <path d="M 90.799477 108.623917 
L 93.085777 108.623917 
L 93.085777 107.193118 
L 90.799477 107.193118 
z
" clip-path="url(#p52a1611b68)" style="fill: #e377c2"/>
   </g>
   <g id="patch_125">
    <path d="M 107.766227 107.547604 
L 110.052526 107.547604 
L 110.052526 106.117276 
L 107.766227 106.117276 
z
" clip-path="url(#p52a1611b68)" style="fill: #e377c2"/>
   </g>
   <g id="patch_126">
    <path d="M 124.732977 106.329706 
L 127.019276 106.329706 
L 127.019276 104.900383 
L 124.732977 104.900383 
z
" clip-path="url(#p52a1611b68)" style="fill: #e377c2"/>
   </g>
   <g id="patch_127">
    <path d="M 141.699726 105.032137 
L 143.986026 105.032137 
L 143.986026 103.604166 
L 141.699726 103.604166 
z
" clip-path="url(#p52a1611b68)" style="fill: #e377c2"/>
   </g>
   <g id="patch_128">
    <path d="M 158.666476 103.692341 
L 160.952776 103.692341 
L 160.952776 102.265958 
L 158.666476 102.265958 
z
" clip-path="url(#p52a1611b68)" style="fill: #e377c2"/>
   </g>
   <g id="patch_129">
    <path d="M 175.633226 102.33397 
L 177.919526 102.33397 
L 177.919526 100.909335 
L 175.633226 100.909335 
z
" clip-path="url(#p52a1611b68)" style="fill: #e377c2"/>
   </g>
   <g id="patch_130">
    <path d="M 192.599976 100.972375 
L 194.886275 100.972375 
L 194.886275 99.549597 
L 192.599976 99.549597 
z
" clip-path="url(#p52a1611b68)" style="fill: #e377c2"/>
   </g>
   <g id="patch_131">
    <path d="M 209.566726 99.617666 
L 211.853025 99.617666 
L 211.853025 98.196818 
L 209.566726 98.196818 
z
" clip-path="url(#p52a1611b68)" style="fill: #e377c2"/>
   </g>
   <g id="patch_132">
    <path d="M 226.533475 98.27652 
L 228.819775 98.27652 
L 228.819775 96.857651 
L 226.533475 96.857651 
z
" clip-path="url(#p52a1611b68)" style="fill: #e377c2"/>
   </g>
   <g id="patch_133">
    <path d="M 243.500225 96.953307 
L 245.786525 96.953307 
L 245.786525 95.536448 
L 243.500225 95.536448 
z
" clip-path="url(#p52a1611b68)" style="fill: #e377c2"/>
   </g>
   <g id="patch_134">
    <path d="M 260.466975 95.650806 
L 262.753274 95.650806 
L 262.753274 94.235973 
L 260.466975 94.235973 
z
" clip-path="url(#p52a1611b68)" style="fill: #e377c2"/>
   </g>
   <g id="patch_135">
    <path d="M 277.433725 94.370686 
L 279.720024 94.370686 
L 279.720024 92.957887 
L 277.433725 92.957887 
z
" clip-path="url(#p52a1611b68)" style="fill: #e377c2"/>
   </g>
   <g id="patch_136">
    <path d="M 294.400474 93.113833 
L 296.686774 93.113833 
L 296.686774 91.703068 
L 294.400474 91.703068 
z
" clip-path="url(#p52a1611b68)" style="fill: #e377c2"/>
   </g>
   <g id="patch_137">
    <path d="M 311.367224 91.880571 
L 313.653524 91.880571 
L 313.653524 90.471834 
L 311.367224 90.471834 
z
" clip-path="url(#p52a1611b68)" style="fill: #e377c2"/>
   </g>
   <g id="patch_138">
    <path d="M 328.333974 90.670825 
L 330.620274 90.670825 
L 330.620274 89.264107 
L 328.333974 89.264107 
z
" clip-path="url(#p52a1611b68)" style="fill: #e377c2"/>
   </g>
   <g id="patch_139">
    <path d="M 345.300724 89.484238 
L 347.587023 89.484238 
L 347.587023 88.079526 
L 345.300724 88.079526 
z
" clip-path="url(#p52a1611b68)" style="fill: #e377c2"/>
   </g>
   <g id="patch_140">
    <path d="M 362.267474 88.320251 
L 364.553773 88.320251 
L 364.553773 86.91753 
L 362.267474 86.91753 
z
" clip-path="url(#p52a1611b68)" style="fill: #e377c2"/>
   </g>
   <g id="patch_141">
    <path d="M 379.234223 87.178168 
L 381.520523 87.178168 
L 381.520523 85.777422 
L 379.234223 85.777422 
z
" clip-path="url(#p52a1611b68)" style="fill: #e377c2"/>
   </g>
   <g id="patch_142">
    <path d="M 396.200973 86.057201 
L 398.487273 86.057201 
L 398.487273 84.658413 
L 396.200973 84.658413 
z
" clip-path="url(#p52a1611b68)" style="fill: #e377c2"/>
   </g>
   <g id="patch_143">
    <path d="M 73.832727 108.018701 
L 76.119027 108.018701 
L 76.119027 75.852334 
L 73.832727 75.852334 
z
" clip-path="url(#p52a1611b68)" style="fill: #7f7f7f"/>
   </g>
   <g id="patch_144">
    <path d="M 90.799477 107.193118 
L 93.085777 107.193118 
L 93.085777 75.870422 
L 90.799477 75.870422 
z
" clip-path="url(#p52a1611b68)" style="fill: #7f7f7f"/>
   </g>
   <g id="patch_145">
    <path d="M 107.766227 106.117276 
L 110.052526 106.117276 
L 110.052526 75.49608 
L 107.766227 75.49608 
z
" clip-path="url(#p52a1611b68)" style="fill: #7f7f7f"/>
   </g>
   <g id="patch_146">
    <path d="M 124.732977 104.900383 
L 127.019276 104.900383 
L 127.019276 74.880998 
L 124.732977 74.880998 
z
" clip-path="url(#p52a1611b68)" style="fill: #7f7f7f"/>
   </g>
   <g id="patch_147">
    <path d="M 141.699726 103.604166 
L 143.986026 103.604166 
L 143.986026 74.112406 
L 141.699726 74.112406 
z
" clip-path="url(#p52a1611b68)" style="fill: #7f7f7f"/>
   </g>
   <g id="patch_148">
    <path d="M 158.666476 102.265958 
L 160.952776 102.265958 
L 160.952776 73.244239 
L 158.666476 73.244239 
z
" clip-path="url(#p52a1611b68)" style="fill: #7f7f7f"/>
   </g>
   <g id="patch_149">
    <path d="M 175.633226 100.909335 
L 177.919526 100.909335 
L 177.919526 72.31154 
L 175.633226 72.31154 
z
" clip-path="url(#p52a1611b68)" style="fill: #7f7f7f"/>
   </g>
   <g id="patch_150">
    <path d="M 192.599976 99.549597 
L 194.886275 99.549597 
L 194.886275 71.337886 
L 192.599976 71.337886 
z
" clip-path="url(#p52a1611b68)" style="fill: #7f7f7f"/>
   </g>
   <g id="patch_151">
    <path d="M 209.566726 98.196818 
L 211.853025 98.196818 
L 211.853025 70.339535 
L 209.566726 70.339535 
z
" clip-path="url(#p52a1611b68)" style="fill: #7f7f7f"/>
   </g>
   <g id="patch_152">
    <path d="M 226.533475 96.857651 
L 228.819775 96.857651 
L 228.819775 69.327895 
L 226.533475 69.327895 
z
" clip-path="url(#p52a1611b68)" style="fill: #7f7f7f"/>
   </g>
   <g id="patch_153">
    <path d="M 243.500225 95.536448 
L 245.786525 95.536448 
L 245.786525 68.311056 
L 243.500225 68.311056 
z
" clip-path="url(#p52a1611b68)" style="fill: #7f7f7f"/>
   </g>
   <g id="patch_154">
    <path d="M 260.466975 94.235973 
L 262.753274 94.235973 
L 262.753274 67.294782 
L 260.466975 67.294782 
z
" clip-path="url(#p52a1611b68)" style="fill: #7f7f7f"/>
   </g>
   <g id="patch_155">
    <path d="M 277.433725 92.957887 
L 279.720024 92.957887 
L 279.720024 66.283178 
L 277.433725 66.283178 
z
" clip-path="url(#p52a1611b68)" style="fill: #7f7f7f"/>
   </g>
   <g id="patch_156">
    <path d="M 294.400474 91.703068 
L 296.686774 91.703068 
L 296.686774 65.27914 
L 294.400474 65.27914 
z
" clip-path="url(#p52a1611b68)" style="fill: #7f7f7f"/>
   </g>
   <g id="patch_157">
    <path d="M 311.367224 90.471834 
L 313.653524 90.471834 
L 313.653524 64.284678 
L 311.367224 64.284678 
z
" clip-path="url(#p52a1611b68)" style="fill: #7f7f7f"/>
   </g>
   <g id="patch_158">
    <path d="M 328.333974 89.264107 
L 330.620274 89.264107 
L 330.620274 63.301143 
L 328.333974 63.301143 
z
" clip-path="url(#p52a1611b68)" style="fill: #7f7f7f"/>
   </g>
   <g id="patch_159">
    <path d="M 345.300724 88.079526 
L 347.587023 88.079526 
L 347.587023 62.329394 
L 345.300724 62.329394 
z
" clip-path="url(#p52a1611b68)" style="fill: #7f7f7f"/>
   </g>
   <g id="patch_160">
    <path d="M 362.267474 86.91753 
L 364.553773 86.91753 
L 364.553773 61.369921 
L 362.267474 61.369921 
z
" clip-path="url(#p52a1611b68)" style="fill: #7f7f7f"/>
   </g>
   <g id="patch_161">
    <path d="M 379.234223 85.777422 
L 381.520523 85.777422 
L 381.520523 60.422938 
L 379.234223 60.422938 
z
" clip-path="url(#p52a1611b68)" style="fill: #7f7f7f"/>
   </g>
   <g id="patch_162">
    <path d="M 396.200973 84.658413 
L 398.487273 84.658413 
L 398.487273 59.488453 
L 396.200973 59.488453 
z
" clip-path="url(#p52a1611b68)" style="fill: #7f7f7f"/>
   </g>
   <g id="patch_163">
    <path d="M 73.832727 75.852334 
L 76.119027 75.852334 
L 76.119027 69.326008 
L 73.832727 69.326008 
z
" clip-path="url(#p52a1611b68)" style="fill: #bcbd22"/>
   </g>
   <g id="patch_164">
    <path d="M 90.799477 75.870422 
L 93.085777 75.870422 
L 93.085777 69.509194 
L 90.799477 69.509194 
z
" clip-path="url(#p52a1611b68)" style="fill: #bcbd22"/>
   </g>
   <g id="patch_165">
    <path d="M 107.766227 75.49608 
L 110.052526 75.49608 
L 110.052526 69.283078 
L 107.766227 69.283078 
z
" clip-path="url(#p52a1611b68)" style="fill: #bcbd22"/>
   </g>
   <g id="patch_166">
    <path d="M 124.732977 74.880998 
L 127.019276 74.880998 
L 127.019276 68.801039 
L 124.732977 68.801039 
z
" clip-path="url(#p52a1611b68)" style="fill: #bcbd22"/>
   </g>
   <g id="patch_167">
    <path d="M 141.699726 74.112406 
L 143.986026 74.112406 
L 143.986026 68.151508 
L 141.699726 68.151508 
z
" clip-path="url(#p52a1611b68)" style="fill: #bcbd22"/>
   </g>
   <g id="patch_168">
    <path d="M 158.666476 73.244239 
L 160.952776 73.244239 
L 160.952776 67.38938 
L 158.666476 67.38938 
z
" clip-path="url(#p52a1611b68)" style="fill: #bcbd22"/>
   </g>
   <g id="patch_169">
    <path d="M 175.633226 72.31154 
L 177.919526 72.31154 
L 177.919526 66.550531 
L 175.633226 66.550531 
z
" clip-path="url(#p52a1611b68)" style="fill: #bcbd22"/>
   </g>
   <g id="patch_170">
    <path d="M 192.599976 71.337886 
L 194.886275 71.337886 
L 194.886275 65.659294 
L 192.599976 65.659294 
z
" clip-path="url(#p52a1611b68)" style="fill: #bcbd22"/>
   </g>
   <g id="patch_171">
    <path d="M 209.566726 70.339535 
L 211.853025 70.339535 
L 211.853025 64.732638 
L 209.566726 64.732638 
z
" clip-path="url(#p52a1611b68)" style="fill: #bcbd22"/>
   </g>
   <g id="patch_172">
    <path d="M 226.533475 69.327895 
L 228.819775 69.327895 
L 228.819775 63.782651 
L 226.533475 63.782651 
z
" clip-path="url(#p52a1611b68)" style="fill: #bcbd22"/>
   </g>
   <g id="patch_173">
    <path d="M 243.500225 68.311056 
L 245.786525 68.311056 
L 245.786525 62.818078 
L 243.500225 62.818078 
z
" clip-path="url(#p52a1611b68)" style="fill: #bcbd22"/>
   </g>
   <g id="patch_174">
    <path d="M 260.466975 67.294782 
L 262.753274 67.294782 
L 262.753274 61.845326 
L 260.466975 61.845326 
z
" clip-path="url(#p52a1611b68)" style="fill: #bcbd22"/>
   </g>
   <g id="patch_175">
    <path d="M 277.433725 66.283178 
L 279.720024 66.283178 
L 279.720024 60.869122 
L 277.433725 60.869122 
z
" clip-path="url(#p52a1611b68)" style="fill: #bcbd22"/>
   </g>
   <g id="patch_176">
    <path d="M 294.400474 65.27914 
L 296.686774 65.27914 
L 296.686774 59.892974 
L 294.400474 59.892974 
z
" clip-path="url(#p52a1611b68)" style="fill: #bcbd22"/>
   </g>
   <g id="patch_177">
    <path d="M 311.367224 64.284678 
L 313.653524 64.284678 
L 313.653524 58.919487 
L 311.367224 58.919487 
z
" clip-path="url(#p52a1611b68)" style="fill: #bcbd22"/>
   </g>
   <g id="patch_178">
    <path d="M 328.333974 63.301143 
L 330.620274 63.301143 
L 330.620274 57.950592 
L 328.333974 57.950592 
z
" clip-path="url(#p52a1611b68)" style="fill: #bcbd22"/>
   </g>
   <g id="patch_179">
    <path d="M 345.300724 62.329394 
L 347.587023 62.329394 
L 347.587023 56.987708 
L 345.300724 56.987708 
z
" clip-path="url(#p52a1611b68)" style="fill: #bcbd22"/>
   </g>
   <g id="patch_180">
    <path d="M 362.267474 61.369921 
L 364.553773 61.369921 
L 364.553773 56.031866 
L 362.267474 56.031866 
z
" clip-path="url(#p52a1611b68)" style="fill: #bcbd22"/>
   </g>
   <g id="patch_181">
    <path d="M 379.234223 60.422938 
L 381.520523 60.422938 
L 381.520523 55.083796 
L 379.234223 55.083796 
z
" clip-path="url(#p52a1611b68)" style="fill: #bcbd22"/>
   </g>
   <g id="patch_182">
    <path d="M 396.200973 59.488453 
L 398.487273 59.488453 
L 398.487273 54.144 
L 396.200973 54.144 
z
" clip-path="url(#p52a1611b68)" style="fill: #bcbd22"/>
   </g>
   <g id="matplotlib.axis_1">
    <g id="xtick_1">
     <g id="line2d_1">
      <defs>
       <path id="m703fd8fe0c" d="M 0 0 
L 0 3.5 
" style="stroke: #000000; stroke-width: 0.8"/>
      </defs>
      <g>
       <use xlink:href="#m703fd8fe0c" x="168.714161" y="307.584" style="stroke: #000000; stroke-width: 0.8"/>
      </g>
     </g>
     <g id="text_1">
      <!-- 35 -->
      <g transform="translate(157.261661 328.261187) scale(0.18 -0.18)">
       <defs>
        <path id="DejaVuSans-33" d="M 2597 2516 
Q 3050 2419 3304 2112 
Q 3559 1806 3559 1356 
Q 3559 666 3084 287 
Q 2609 -91 1734 -91 
Q 1441 -91 1130 -33 
Q 819 25 488 141 
L 488 750 
Q 750 597 1062 519 
Q 1375 441 1716 441 
Q 2309 441 2620 675 
Q 2931 909 2931 1356 
Q 2931 1769 2642 2001 
Q 2353 2234 1838 2234 
L 1294 2234 
L 1294 2753 
L 1863 2753 
Q 2328 2753 2575 2939 
Q 2822 3125 2822 3475 
Q 2822 3834 2567 4026 
Q 2313 4219 1838 4219 
Q 1578 4219 1281 4162 
Q 984 4106 628 3988 
L 628 4550 
Q 988 4650 1302 4700 
Q 1616 4750 1894 4750 
Q 2613 4750 3031 4423 
Q 3450 4097 3450 3541 
Q 3450 3153 3228 2886 
Q 3006 2619 2597 2516 
z
" transform="scale(0.015625)"/>
        <path id="DejaVuSans-35" d="M 691 4666 
L 3169 4666 
L 3169 4134 
L 1269 4134 
L 1269 2991 
Q 1406 3038 1543 3061 
Q 1681 3084 1819 3084 
Q 2600 3084 3056 2656 
Q 3513 2228 3513 1497 
Q 3513 744 3044 326 
Q 2575 -91 1722 -91 
Q 1428 -91 1123 -41 
Q 819 9 494 109 
L 494 744 
Q 775 591 1075 516 
Q 1375 441 1709 441 
Q 2250 441 2565 725 
Q 2881 1009 2881 1497 
Q 2881 1984 2565 2268 
Q 2250 2553 1709 2553 
Q 1456 2553 1204 2497 
Q 953 2441 691 2322 
L 691 4666 
z
" transform="scale(0.015625)"/>
       </defs>
       <use xlink:href="#DejaVuSans-33"/>
       <use xlink:href="#DejaVuSans-35" x="63.623047"/>
      </g>
     </g>
    </g>
    <g id="xtick_2">
     <g id="line2d_2">
      <g>
       <use xlink:href="#m703fd8fe0c" x="283.029142" y="307.584" style="stroke: #000000; stroke-width: 0.8"/>
      </g>
     </g>
     <g id="text_2">
      <!-- 40 -->
      <g transform="translate(271.576642 328.261187) scale(0.18 -0.18)">
       <defs>
        <path id="DejaVuSans-34" d="M 2419 4116 
L 825 1625 
L 2419 1625 
L 2419 4116 
z
M 2253 4666 
L 3047 4666 
L 3047 1625 
L 3713 1625 
L 3713 1100 
L 3047 1100 
L 3047 0 
L 2419 0 
L 2419 1100 
L 313 1100 
L 313 1709 
L 2253 4666 
z
" transform="scale(0.015625)"/>
        <path id="DejaVuSans-30" d="M 2034 4250 
Q 1547 4250 1301 3770 
Q 1056 3291 1056 2328 
Q 1056 1369 1301 889 
Q 1547 409 2034 409 
Q 2525 409 2770 889 
Q 3016 1369 3016 2328 
Q 3016 3291 2770 3770 
Q 2525 4250 2034 4250 
z
M 2034 4750 
Q 2819 4750 3233 4129 
Q 3647 3509 3647 2328 
Q 3647 1150 3233 529 
Q 2819 -91 2034 -91 
Q 1250 -91 836 529 
Q 422 1150 422 2328 
Q 422 3509 836 4129 
Q 1250 4750 2034 4750 
z
" transform="scale(0.015625)"/>
       </defs>
       <use xlink:href="#DejaVuSans-34"/>
       <use xlink:href="#DejaVuSans-30" x="63.623047"/>
      </g>
     </g>
    </g>
    <g id="xtick_3">
     <g id="line2d_3">
      <g>
       <use xlink:href="#m703fd8fe0c" x="397.344123" y="307.584" style="stroke: #000000; stroke-width: 0.8"/>
      </g>
     </g>
     <g id="text_3">
      <!-- 45 -->
      <g transform="translate(385.891623 328.261187) scale(0.18 -0.18)">
       <use xlink:href="#DejaVuSans-34"/>
       <use xlink:href="#DejaVuSans-35" x="63.623047"/>
      </g>
     </g>
    </g>
    <g id="text_4">
     <!-- Kondensatordruck in bar -->
     <g transform="translate(125.630156 349.681812) scale(0.18 -0.18)">
      <defs>
       <path id="DejaVuSans-4b" d="M 628 4666 
L 1259 4666 
L 1259 2694 
L 3353 4666 
L 4166 4666 
L 1850 2491 
L 4331 0 
L 3500 0 
L 1259 2247 
L 1259 0 
L 628 0 
L 628 4666 
z
" transform="scale(0.015625)"/>
       <path id="DejaVuSans-6f" d="M 1959 3097 
Q 1497 3097 1228 2736 
Q 959 2375 959 1747 
Q 959 1119 1226 758 
Q 1494 397 1959 397 
Q 2419 397 2687 759 
Q 2956 1122 2956 1747 
Q 2956 2369 2687 2733 
Q 2419 3097 1959 3097 
z
M 1959 3584 
Q 2709 3584 3137 3096 
Q 3566 2609 3566 1747 
Q 3566 888 3137 398 
Q 2709 -91 1959 -91 
Q 1206 -91 779 398 
Q 353 888 353 1747 
Q 353 2609 779 3096 
Q 1206 3584 1959 3584 
z
" transform="scale(0.015625)"/>
       <path id="DejaVuSans-6e" d="M 3513 2113 
L 3513 0 
L 2938 0 
L 2938 2094 
Q 2938 2591 2744 2837 
Q 2550 3084 2163 3084 
Q 1697 3084 1428 2787 
Q 1159 2491 1159 1978 
L 1159 0 
L 581 0 
L 581 3500 
L 1159 3500 
L 1159 2956 
Q 1366 3272 1645 3428 
Q 1925 3584 2291 3584 
Q 2894 3584 3203 3211 
Q 3513 2838 3513 2113 
z
" transform="scale(0.015625)"/>
       <path id="DejaVuSans-64" d="M 2906 2969 
L 2906 4863 
L 3481 4863 
L 3481 0 
L 2906 0 
L 2906 525 
Q 2725 213 2448 61 
Q 2172 -91 1784 -91 
Q 1150 -91 751 415 
Q 353 922 353 1747 
Q 353 2572 751 3078 
Q 1150 3584 1784 3584 
Q 2172 3584 2448 3432 
Q 2725 3281 2906 2969 
z
M 947 1747 
Q 947 1113 1208 752 
Q 1469 391 1925 391 
Q 2381 391 2643 752 
Q 2906 1113 2906 1747 
Q 2906 2381 2643 2742 
Q 2381 3103 1925 3103 
Q 1469 3103 1208 2742 
Q 947 2381 947 1747 
z
" transform="scale(0.015625)"/>
       <path id="DejaVuSans-65" d="M 3597 1894 
L 3597 1613 
L 953 1613 
Q 991 1019 1311 708 
Q 1631 397 2203 397 
Q 2534 397 2845 478 
Q 3156 559 3463 722 
L 3463 178 
Q 3153 47 2828 -22 
Q 2503 -91 2169 -91 
Q 1331 -91 842 396 
Q 353 884 353 1716 
Q 353 2575 817 3079 
Q 1281 3584 2069 3584 
Q 2775 3584 3186 3129 
Q 3597 2675 3597 1894 
z
M 3022 2063 
Q 3016 2534 2758 2815 
Q 2500 3097 2075 3097 
Q 1594 3097 1305 2825 
Q 1016 2553 972 2059 
L 3022 2063 
z
" transform="scale(0.015625)"/>
       <path id="DejaVuSans-73" d="M 2834 3397 
L 2834 2853 
Q 2591 2978 2328 3040 
Q 2066 3103 1784 3103 
Q 1356 3103 1142 2972 
Q 928 2841 928 2578 
Q 928 2378 1081 2264 
Q 1234 2150 1697 2047 
L 1894 2003 
Q 2506 1872 2764 1633 
Q 3022 1394 3022 966 
Q 3022 478 2636 193 
Q 2250 -91 1575 -91 
Q 1294 -91 989 -36 
Q 684 19 347 128 
L 347 722 
Q 666 556 975 473 
Q 1284 391 1588 391 
Q 1994 391 2212 530 
Q 2431 669 2431 922 
Q 2431 1156 2273 1281 
Q 2116 1406 1581 1522 
L 1381 1569 
Q 847 1681 609 1914 
Q 372 2147 372 2553 
Q 372 3047 722 3315 
Q 1072 3584 1716 3584 
Q 2034 3584 2315 3537 
Q 2597 3491 2834 3397 
z
" transform="scale(0.015625)"/>
       <path id="DejaVuSans-61" d="M 2194 1759 
Q 1497 1759 1228 1600 
Q 959 1441 959 1056 
Q 959 750 1161 570 
Q 1363 391 1709 391 
Q 2188 391 2477 730 
Q 2766 1069 2766 1631 
L 2766 1759 
L 2194 1759 
z
M 3341 1997 
L 3341 0 
L 2766 0 
L 2766 531 
Q 2569 213 2275 61 
Q 1981 -91 1556 -91 
Q 1019 -91 701 211 
Q 384 513 384 1019 
Q 384 1609 779 1909 
Q 1175 2209 1959 2209 
L 2766 2209 
L 2766 2266 
Q 2766 2663 2505 2880 
Q 2244 3097 1772 3097 
Q 1472 3097 1187 3025 
Q 903 2953 641 2809 
L 641 3341 
Q 956 3463 1253 3523 
Q 1550 3584 1831 3584 
Q 2591 3584 2966 3190 
Q 3341 2797 3341 1997 
z
" transform="scale(0.015625)"/>
       <path id="DejaVuSans-74" d="M 1172 4494 
L 1172 3500 
L 2356 3500 
L 2356 3053 
L 1172 3053 
L 1172 1153 
Q 1172 725 1289 603 
Q 1406 481 1766 481 
L 2356 481 
L 2356 0 
L 1766 0 
Q 1100 0 847 248 
Q 594 497 594 1153 
L 594 3053 
L 172 3053 
L 172 3500 
L 594 3500 
L 594 4494 
L 1172 4494 
z
" transform="scale(0.015625)"/>
       <path id="DejaVuSans-72" d="M 2631 2963 
Q 2534 3019 2420 3045 
Q 2306 3072 2169 3072 
Q 1681 3072 1420 2755 
Q 1159 2438 1159 1844 
L 1159 0 
L 581 0 
L 581 3500 
L 1159 3500 
L 1159 2956 
Q 1341 3275 1631 3429 
Q 1922 3584 2338 3584 
Q 2397 3584 2469 3576 
Q 2541 3569 2628 3553 
L 2631 2963 
z
" transform="scale(0.015625)"/>
       <path id="DejaVuSans-75" d="M 544 1381 
L 544 3500 
L 1119 3500 
L 1119 1403 
Q 1119 906 1312 657 
Q 1506 409 1894 409 
Q 2359 409 2629 706 
Q 2900 1003 2900 1516 
L 2900 3500 
L 3475 3500 
L 3475 0 
L 2900 0 
L 2900 538 
Q 2691 219 2414 64 
Q 2138 -91 1772 -91 
Q 1169 -91 856 284 
Q 544 659 544 1381 
z
M 1991 3584 
L 1991 3584 
z
" transform="scale(0.015625)"/>
       <path id="DejaVuSans-63" d="M 3122 3366 
L 3122 2828 
Q 2878 2963 2633 3030 
Q 2388 3097 2138 3097 
Q 1578 3097 1268 2742 
Q 959 2388 959 1747 
Q 959 1106 1268 751 
Q 1578 397 2138 397 
Q 2388 397 2633 464 
Q 2878 531 3122 666 
L 3122 134 
Q 2881 22 2623 -34 
Q 2366 -91 2075 -91 
Q 1284 -91 818 406 
Q 353 903 353 1747 
Q 353 2603 823 3093 
Q 1294 3584 2113 3584 
Q 2378 3584 2631 3529 
Q 2884 3475 3122 3366 
z
" transform="scale(0.015625)"/>
       <path id="DejaVuSans-6b" d="M 581 4863 
L 1159 4863 
L 1159 1991 
L 2875 3500 
L 3609 3500 
L 1753 1863 
L 3688 0 
L 2938 0 
L 1159 1709 
L 1159 0 
L 581 0 
L 581 4863 
z
" transform="scale(0.015625)"/>
       <path id="DejaVuSans-20" transform="scale(0.015625)"/>
       <path id="DejaVuSans-69" d="M 603 3500 
L 1178 3500 
L 1178 0 
L 603 0 
L 603 3500 
z
M 603 4863 
L 1178 4863 
L 1178 4134 
L 603 4134 
L 603 4863 
z
" transform="scale(0.015625)"/>
       <path id="DejaVuSans-62" d="M 3116 1747 
Q 3116 2381 2855 2742 
Q 2594 3103 2138 3103 
Q 1681 3103 1420 2742 
Q 1159 2381 1159 1747 
Q 1159 1113 1420 752 
Q 1681 391 2138 391 
Q 2594 391 2855 752 
Q 3116 1113 3116 1747 
z
M 1159 2969 
Q 1341 3281 1617 3432 
Q 1894 3584 2278 3584 
Q 2916 3584 3314 3078 
Q 3713 2572 3713 1747 
Q 3713 922 3314 415 
Q 2916 -91 2278 -91 
Q 1894 -91 1617 61 
Q 1341 213 1159 525 
L 1159 0 
L 581 0 
L 581 4863 
L 1159 4863 
L 1159 2969 
z
" transform="scale(0.015625)"/>
      </defs>
      <use xlink:href="#DejaVuSans-4b"/>
      <use xlink:href="#DejaVuSans-6f" x="60.576172"/>
      <use xlink:href="#DejaVuSans-6e" x="121.757812"/>
      <use xlink:href="#DejaVuSans-64" x="185.136719"/>
      <use xlink:href="#DejaVuSans-65" x="248.613281"/>
      <use xlink:href="#DejaVuSans-6e" x="310.136719"/>
      <use xlink:href="#DejaVuSans-73" x="373.515625"/>
      <use xlink:href="#DejaVuSans-61" x="425.615234"/>
      <use xlink:href="#DejaVuSans-74" x="486.894531"/>
      <use xlink:href="#DejaVuSans-6f" x="526.103516"/>
      <use xlink:href="#DejaVuSans-72" x="587.285156"/>
      <use xlink:href="#DejaVuSans-64" x="626.648438"/>
      <use xlink:href="#DejaVuSans-72" x="690.125"/>
      <use xlink:href="#DejaVuSans-75" x="731.238281"/>
      <use xlink:href="#DejaVuSans-63" x="794.617188"/>
      <use xlink:href="#DejaVuSans-6b" x="849.597656"/>
      <use xlink:href="#DejaVuSans-20" x="907.507812"/>
      <use xlink:href="#DejaVuSans-69" x="939.294922"/>
      <use xlink:href="#DejaVuSans-6e" x="967.078125"/>
      <use xlink:href="#DejaVuSans-20" x="1030.457031"/>
      <use xlink:href="#DejaVuSans-62" x="1062.244141"/>
      <use xlink:href="#DejaVuSans-61" x="1125.720703"/>
      <use xlink:href="#DejaVuSans-72" x="1187"/>
     </g>
    </g>
   </g>
   <g id="matplotlib.axis_2">
    <g id="ytick_1">
     <g id="line2d_4">
      <defs>
       <path id="mf42ddba137" d="M 0 0 
L -3.5 0 
" style="stroke: #000000; stroke-width: 0.8"/>
      </defs>
      <g>
       <use xlink:href="#mf42ddba137" x="57.6" y="307.584" style="stroke: #000000; stroke-width: 0.8"/>
      </g>
     </g>
     <g id="text_5">
      <!-- 0.0 -->
      <g transform="translate(21.974375 314.422594) scale(0.18 -0.18)">
       <defs>
        <path id="DejaVuSans-2e" d="M 684 794 
L 1344 794 
L 1344 0 
L 684 0 
L 684 794 
z
" transform="scale(0.015625)"/>
       </defs>
       <use xlink:href="#DejaVuSans-30"/>
       <use xlink:href="#DejaVuSans-2e" x="63.623047"/>
       <use xlink:href="#DejaVuSans-30" x="95.410156"/>
      </g>
     </g>
    </g>
    <g id="ytick_2">
     <g id="line2d_5">
      <g>
       <use xlink:href="#mf42ddba137" x="57.6" y="238.092452" style="stroke: #000000; stroke-width: 0.8"/>
      </g>
     </g>
     <g id="text_6">
      <!-- 0.5 -->
      <g transform="translate(21.974375 244.931046) scale(0.18 -0.18)">
       <use xlink:href="#DejaVuSans-30"/>
       <use xlink:href="#DejaVuSans-2e" x="63.623047"/>
       <use xlink:href="#DejaVuSans-35" x="95.410156"/>
      </g>
     </g>
    </g>
    <g id="ytick_3">
     <g id="line2d_6">
      <g>
       <use xlink:href="#mf42ddba137" x="57.6" y="168.600905" style="stroke: #000000; stroke-width: 0.8"/>
      </g>
     </g>
     <g id="text_7">
      <!-- 1.0 -->
      <g transform="translate(21.974375 175.439499) scale(0.18 -0.18)">
       <defs>
        <path id="DejaVuSans-31" d="M 794 531 
L 1825 531 
L 1825 4091 
L 703 3866 
L 703 4441 
L 1819 4666 
L 2450 4666 
L 2450 531 
L 3481 531 
L 3481 0 
L 794 0 
L 794 531 
z
" transform="scale(0.015625)"/>
       </defs>
       <use xlink:href="#DejaVuSans-31"/>
       <use xlink:href="#DejaVuSans-2e" x="63.623047"/>
       <use xlink:href="#DejaVuSans-30" x="95.410156"/>
      </g>
     </g>
    </g>
    <g id="ytick_4">
     <g id="line2d_7">
      <g>
       <use xlink:href="#mf42ddba137" x="57.6" y="99.109357" style="stroke: #000000; stroke-width: 0.8"/>
      </g>
     </g>
     <g id="text_8">
      <!-- 1.5 -->
      <g transform="translate(21.974375 105.947951) scale(0.18 -0.18)">
       <use xlink:href="#DejaVuSans-31"/>
       <use xlink:href="#DejaVuSans-2e" x="63.623047"/>
       <use xlink:href="#DejaVuSans-35" x="95.410156"/>
      </g>
     </g>
    </g>
    <g id="text_9">
     <!-- Exergievernichtung in MW -->
     <g transform="translate(14.230937 292.593937) rotate(-90) scale(0.18 -0.18)">
      <defs>
       <path id="DejaVuSans-45" d="M 628 4666 
L 3578 4666 
L 3578 4134 
L 1259 4134 
L 1259 2753 
L 3481 2753 
L 3481 2222 
L 1259 2222 
L 1259 531 
L 3634 531 
L 3634 0 
L 628 0 
L 628 4666 
z
" transform="scale(0.015625)"/>
       <path id="DejaVuSans-78" d="M 3513 3500 
L 2247 1797 
L 3578 0 
L 2900 0 
L 1881 1375 
L 863 0 
L 184 0 
L 1544 1831 
L 300 3500 
L 978 3500 
L 1906 2253 
L 2834 3500 
L 3513 3500 
z
" transform="scale(0.015625)"/>
       <path id="DejaVuSans-67" d="M 2906 1791 
Q 2906 2416 2648 2759 
Q 2391 3103 1925 3103 
Q 1463 3103 1205 2759 
Q 947 2416 947 1791 
Q 947 1169 1205 825 
Q 1463 481 1925 481 
Q 2391 481 2648 825 
Q 2906 1169 2906 1791 
z
M 3481 434 
Q 3481 -459 3084 -895 
Q 2688 -1331 1869 -1331 
Q 1566 -1331 1297 -1286 
Q 1028 -1241 775 -1147 
L 775 -588 
Q 1028 -725 1275 -790 
Q 1522 -856 1778 -856 
Q 2344 -856 2625 -561 
Q 2906 -266 2906 331 
L 2906 616 
Q 2728 306 2450 153 
Q 2172 0 1784 0 
Q 1141 0 747 490 
Q 353 981 353 1791 
Q 353 2603 747 3093 
Q 1141 3584 1784 3584 
Q 2172 3584 2450 3431 
Q 2728 3278 2906 2969 
L 2906 3500 
L 3481 3500 
L 3481 434 
z
" transform="scale(0.015625)"/>
       <path id="DejaVuSans-76" d="M 191 3500 
L 800 3500 
L 1894 563 
L 2988 3500 
L 3597 3500 
L 2284 0 
L 1503 0 
L 191 3500 
z
" transform="scale(0.015625)"/>
       <path id="DejaVuSans-68" d="M 3513 2113 
L 3513 0 
L 2938 0 
L 2938 2094 
Q 2938 2591 2744 2837 
Q 2550 3084 2163 3084 
Q 1697 3084 1428 2787 
Q 1159 2491 1159 1978 
L 1159 0 
L 581 0 
L 581 4863 
L 1159 4863 
L 1159 2956 
Q 1366 3272 1645 3428 
Q 1925 3584 2291 3584 
Q 2894 3584 3203 3211 
Q 3513 2838 3513 2113 
z
" transform="scale(0.015625)"/>
       <path id="DejaVuSans-4d" d="M 628 4666 
L 1569 4666 
L 2759 1491 
L 3956 4666 
L 4897 4666 
L 4897 0 
L 4281 0 
L 4281 4097 
L 3078 897 
L 2444 897 
L 1241 4097 
L 1241 0 
L 628 0 
L 628 4666 
z
" transform="scale(0.015625)"/>
       <path id="DejaVuSans-57" d="M 213 4666 
L 850 4666 
L 1831 722 
L 2809 4666 
L 3519 4666 
L 4500 722 
L 5478 4666 
L 6119 4666 
L 4947 0 
L 4153 0 
L 3169 4050 
L 2175 0 
L 1381 0 
L 213 4666 
z
" transform="scale(0.015625)"/>
      </defs>
      <use xlink:href="#DejaVuSans-45"/>
      <use xlink:href="#DejaVuSans-78" x="63.183594"/>
      <use xlink:href="#DejaVuSans-65" x="119.238281"/>
      <use xlink:href="#DejaVuSans-72" x="180.761719"/>
      <use xlink:href="#DejaVuSans-67" x="220.125"/>
      <use xlink:href="#DejaVuSans-69" x="283.601562"/>
      <use xlink:href="#DejaVuSans-65" x="311.384766"/>
      <use xlink:href="#DejaVuSans-76" x="372.908203"/>
      <use xlink:href="#DejaVuSans-65" x="432.087891"/>
      <use xlink:href="#DejaVuSans-72" x="493.611328"/>
      <use xlink:href="#DejaVuSans-6e" x="532.974609"/>
      <use xlink:href="#DejaVuSans-69" x="596.353516"/>
      <use xlink:href="#DejaVuSans-63" x="624.136719"/>
      <use xlink:href="#DejaVuSans-68" x="679.117188"/>
      <use xlink:href="#DejaVuSans-74" x="742.496094"/>
      <use xlink:href="#DejaVuSans-75" x="781.705078"/>
      <use xlink:href="#DejaVuSans-6e" x="845.083984"/>
      <use xlink:href="#DejaVuSans-67" x="908.462891"/>
      <use xlink:href="#DejaVuSans-20" x="971.939453"/>
      <use xlink:href="#DejaVuSans-69" x="1003.726562"/>
      <use xlink:href="#DejaVuSans-6e" x="1031.509766"/>
      <use xlink:href="#DejaVuSans-20" x="1094.888672"/>
      <use xlink:href="#DejaVuSans-4d" x="1126.675781"/>
      <use xlink:href="#DejaVuSans-57" x="1212.955078"/>
     </g>
    </g>
   </g>
   <g id="patch_183">
    <path d="M 57.6 307.584 
L 57.6 41.472 
" style="fill: none; stroke: #000000; stroke-width: 0.8; stroke-linejoin: miter; stroke-linecap: square"/>
   </g>
   <g id="patch_184">
    <path d="M 414.72 307.584 
L 414.72 41.472 
" style="fill: none; stroke: #000000; stroke-width: 0.8; stroke-linejoin: miter; stroke-linecap: square"/>
   </g>
   <g id="patch_185">
    <path d="M 57.6 307.584 
L 414.72 307.584 
" style="fill: none; stroke: #000000; stroke-width: 0.8; stroke-linejoin: miter; stroke-linecap: square"/>
   </g>
   <g id="patch_186">
    <path d="M 57.6 41.472 
L 414.72 41.472 
" style="fill: none; stroke: #000000; stroke-width: 0.8; stroke-linejoin: miter; stroke-linecap: square"/>
   </g>
   <g id="legend_1">
    <g id="patch_187">
     <path d="M 108.475313 298.584 
L 402.12 298.584 
Q 405.72 298.584 405.72 294.984 
L 405.72 58.998375 
Q 405.72 55.398375 402.12 55.398375 
L 108.475313 55.398375 
Q 104.875313 55.398375 104.875313 58.998375 
L 104.875313 294.984 
Q 104.875313 298.584 108.475313 298.584 
z
" style="fill: #ffffff; opacity: 0.8; stroke: #cccccc; stroke-linejoin: miter"/>
    </g>
    <g id="patch_188">
     <path d="M 112.075313 76.275563 
L 148.075313 76.275563 
L 148.075313 63.675563 
L 112.075313 63.675563 
z
" style="fill: #1f77b4"/>
    </g>
    <g id="text_10">
     <!-- Gas cooler -->
     <g transform="translate(162.475313 76.275563) scale(0.18 -0.18)">
      <defs>
       <path id="DejaVuSans-47" d="M 3809 666 
L 3809 1919 
L 2778 1919 
L 2778 2438 
L 4434 2438 
L 4434 434 
Q 4069 175 3628 42 
Q 3188 -91 2688 -91 
Q 1594 -91 976 548 
Q 359 1188 359 2328 
Q 359 3472 976 4111 
Q 1594 4750 2688 4750 
Q 3144 4750 3555 4637 
Q 3966 4525 4313 4306 
L 4313 3634 
Q 3963 3931 3569 4081 
Q 3175 4231 2741 4231 
Q 1884 4231 1454 3753 
Q 1025 3275 1025 2328 
Q 1025 1384 1454 906 
Q 1884 428 2741 428 
Q 3075 428 3337 486 
Q 3600 544 3809 666 
z
" transform="scale(0.015625)"/>
       <path id="DejaVuSans-6c" d="M 603 4863 
L 1178 4863 
L 1178 0 
L 603 0 
L 603 4863 
z
" transform="scale(0.015625)"/>
      </defs>
      <use xlink:href="#DejaVuSans-47"/>
      <use xlink:href="#DejaVuSans-61" x="77.490234"/>
      <use xlink:href="#DejaVuSans-73" x="138.769531"/>
      <use xlink:href="#DejaVuSans-20" x="190.869141"/>
      <use xlink:href="#DejaVuSans-63" x="222.65625"/>
      <use xlink:href="#DejaVuSans-6f" x="277.636719"/>
      <use xlink:href="#DejaVuSans-6f" x="338.818359"/>
      <use xlink:href="#DejaVuSans-6c" x="400"/>
      <use xlink:href="#DejaVuSans-65" x="427.783203"/>
      <use xlink:href="#DejaVuSans-72" x="489.306641"/>
     </g>
    </g>
    <g id="patch_189">
     <path d="M 112.075313 102.696188 
L 148.075313 102.696188 
L 148.075313 90.096188 
L 112.075313 90.096188 
z
" style="fill: #ff7f0e"/>
    </g>
    <g id="text_11">
     <!-- Evaporator -->
     <g transform="translate(162.475313 102.696188) scale(0.18 -0.18)">
      <defs>
       <path id="DejaVuSans-70" d="M 1159 525 
L 1159 -1331 
L 581 -1331 
L 581 3500 
L 1159 3500 
L 1159 2969 
Q 1341 3281 1617 3432 
Q 1894 3584 2278 3584 
Q 2916 3584 3314 3078 
Q 3713 2572 3713 1747 
Q 3713 922 3314 415 
Q 2916 -91 2278 -91 
Q 1894 -91 1617 61 
Q 1341 213 1159 525 
z
M 3116 1747 
Q 3116 2381 2855 2742 
Q 2594 3103 2138 3103 
Q 1681 3103 1420 2742 
Q 1159 2381 1159 1747 
Q 1159 1113 1420 752 
Q 1681 391 2138 391 
Q 2594 391 2855 752 
Q 3116 1113 3116 1747 
z
" transform="scale(0.015625)"/>
      </defs>
      <use xlink:href="#DejaVuSans-45"/>
      <use xlink:href="#DejaVuSans-76" x="63.183594"/>
      <use xlink:href="#DejaVuSans-61" x="122.363281"/>
      <use xlink:href="#DejaVuSans-70" x="183.642578"/>
      <use xlink:href="#DejaVuSans-6f" x="247.119141"/>
      <use xlink:href="#DejaVuSans-72" x="308.300781"/>
      <use xlink:href="#DejaVuSans-61" x="349.414062"/>
      <use xlink:href="#DejaVuSans-74" x="410.693359"/>
      <use xlink:href="#DejaVuSans-6f" x="449.902344"/>
      <use xlink:href="#DejaVuSans-72" x="511.083984"/>
     </g>
    </g>
    <g id="patch_190">
     <path d="M 112.075313 129.116813 
L 148.075313 129.116813 
L 148.075313 116.516813 
L 112.075313 116.516813 
z
" style="fill: #2ca02c"/>
    </g>
    <g id="text_12">
     <!-- Valve 1 -->
     <g transform="translate(162.475313 129.116813) scale(0.18 -0.18)">
      <defs>
       <path id="DejaVuSans-56" d="M 1831 0 
L 50 4666 
L 709 4666 
L 2188 738 
L 3669 4666 
L 4325 4666 
L 2547 0 
L 1831 0 
z
" transform="scale(0.015625)"/>
      </defs>
      <use xlink:href="#DejaVuSans-56"/>
      <use xlink:href="#DejaVuSans-61" x="60.658203"/>
      <use xlink:href="#DejaVuSans-6c" x="121.9375"/>
      <use xlink:href="#DejaVuSans-76" x="149.720703"/>
      <use xlink:href="#DejaVuSans-65" x="208.900391"/>
      <use xlink:href="#DejaVuSans-20" x="270.423828"/>
      <use xlink:href="#DejaVuSans-31" x="302.210938"/>
     </g>
    </g>
    <g id="patch_191">
     <path d="M 112.075313 155.537438 
L 148.075313 155.537438 
L 148.075313 142.937438 
L 112.075313 142.937438 
z
" style="fill: #d62728"/>
    </g>
    <g id="text_13">
     <!-- Valve 2 -->
     <g transform="translate(162.475313 155.537438) scale(0.18 -0.18)">
      <defs>
       <path id="DejaVuSans-32" d="M 1228 531 
L 3431 531 
L 3431 0 
L 469 0 
L 469 531 
Q 828 903 1448 1529 
Q 2069 2156 2228 2338 
Q 2531 2678 2651 2914 
Q 2772 3150 2772 3378 
Q 2772 3750 2511 3984 
Q 2250 4219 1831 4219 
Q 1534 4219 1204 4116 
Q 875 4013 500 3803 
L 500 4441 
Q 881 4594 1212 4672 
Q 1544 4750 1819 4750 
Q 2544 4750 2975 4387 
Q 3406 4025 3406 3419 
Q 3406 3131 3298 2873 
Q 3191 2616 2906 2266 
Q 2828 2175 2409 1742 
Q 1991 1309 1228 531 
z
" transform="scale(0.015625)"/>
      </defs>
      <use xlink:href="#DejaVuSans-56"/>
      <use xlink:href="#DejaVuSans-61" x="60.658203"/>
      <use xlink:href="#DejaVuSans-6c" x="121.9375"/>
      <use xlink:href="#DejaVuSans-76" x="149.720703"/>
      <use xlink:href="#DejaVuSans-65" x="208.900391"/>
      <use xlink:href="#DejaVuSans-20" x="270.423828"/>
      <use xlink:href="#DejaVuSans-32" x="302.210938"/>
     </g>
    </g>
    <g id="patch_192">
     <path d="M 112.075313 181.958063 
L 148.075313 181.958063 
L 148.075313 169.358063 
L 112.075313 169.358063 
z
" style="fill: #9467bd"/>
    </g>
    <g id="text_14">
     <!-- Compressor 1 -->
     <g transform="translate(162.475313 181.958063) scale(0.18 -0.18)">
      <defs>
       <path id="DejaVuSans-43" d="M 4122 4306 
L 4122 3641 
Q 3803 3938 3442 4084 
Q 3081 4231 2675 4231 
Q 1875 4231 1450 3742 
Q 1025 3253 1025 2328 
Q 1025 1406 1450 917 
Q 1875 428 2675 428 
Q 3081 428 3442 575 
Q 3803 722 4122 1019 
L 4122 359 
Q 3791 134 3420 21 
Q 3050 -91 2638 -91 
Q 1578 -91 968 557 
Q 359 1206 359 2328 
Q 359 3453 968 4101 
Q 1578 4750 2638 4750 
Q 3056 4750 3426 4639 
Q 3797 4528 4122 4306 
z
" transform="scale(0.015625)"/>
       <path id="DejaVuSans-6d" d="M 3328 2828 
Q 3544 3216 3844 3400 
Q 4144 3584 4550 3584 
Q 5097 3584 5394 3201 
Q 5691 2819 5691 2113 
L 5691 0 
L 5113 0 
L 5113 2094 
Q 5113 2597 4934 2840 
Q 4756 3084 4391 3084 
Q 3944 3084 3684 2787 
Q 3425 2491 3425 1978 
L 3425 0 
L 2847 0 
L 2847 2094 
Q 2847 2600 2669 2842 
Q 2491 3084 2119 3084 
Q 1678 3084 1418 2786 
Q 1159 2488 1159 1978 
L 1159 0 
L 581 0 
L 581 3500 
L 1159 3500 
L 1159 2956 
Q 1356 3278 1631 3431 
Q 1906 3584 2284 3584 
Q 2666 3584 2933 3390 
Q 3200 3197 3328 2828 
z
" transform="scale(0.015625)"/>
      </defs>
      <use xlink:href="#DejaVuSans-43"/>
      <use xlink:href="#DejaVuSans-6f" x="69.824219"/>
      <use xlink:href="#DejaVuSans-6d" x="131.005859"/>
      <use xlink:href="#DejaVuSans-70" x="228.417969"/>
      <use xlink:href="#DejaVuSans-72" x="291.894531"/>
      <use xlink:href="#DejaVuSans-65" x="330.757812"/>
      <use xlink:href="#DejaVuSans-73" x="392.28125"/>
      <use xlink:href="#DejaVuSans-73" x="444.380859"/>
      <use xlink:href="#DejaVuSans-6f" x="496.480469"/>
      <use xlink:href="#DejaVuSans-72" x="557.662109"/>
      <use xlink:href="#DejaVuSans-20" x="598.775391"/>
      <use xlink:href="#DejaVuSans-31" x="630.5625"/>
     </g>
    </g>
    <g id="patch_193">
     <path d="M 112.075313 208.378688 
L 148.075313 208.378688 
L 148.075313 195.778688 
L 112.075313 195.778688 
z
" style="fill: #8c564b"/>
    </g>
    <g id="text_15">
     <!-- Compressor 2 -->
     <g transform="translate(162.475313 208.378688) scale(0.18 -0.18)">
      <use xlink:href="#DejaVuSans-43"/>
      <use xlink:href="#DejaVuSans-6f" x="69.824219"/>
      <use xlink:href="#DejaVuSans-6d" x="131.005859"/>
      <use xlink:href="#DejaVuSans-70" x="228.417969"/>
      <use xlink:href="#DejaVuSans-72" x="291.894531"/>
      <use xlink:href="#DejaVuSans-65" x="330.757812"/>
      <use xlink:href="#DejaVuSans-73" x="392.28125"/>
      <use xlink:href="#DejaVuSans-73" x="444.380859"/>
      <use xlink:href="#DejaVuSans-6f" x="496.480469"/>
      <use xlink:href="#DejaVuSans-72" x="557.662109"/>
      <use xlink:href="#DejaVuSans-20" x="598.775391"/>
      <use xlink:href="#DejaVuSans-32" x="630.5625"/>
     </g>
    </g>
    <g id="patch_194">
     <path d="M 112.075313 234.799313 
L 148.075313 234.799313 
L 148.075313 222.199313 
L 112.075313 222.199313 
z
" style="fill: #e377c2"/>
    </g>
    <g id="text_16">
     <!-- Internal Heat Exchanger 1 -->
     <g transform="translate(162.475313 234.799313) scale(0.18 -0.18)">
      <defs>
       <path id="DejaVuSans-49" d="M 628 4666 
L 1259 4666 
L 1259 0 
L 628 0 
L 628 4666 
z
" transform="scale(0.015625)"/>
       <path id="DejaVuSans-48" d="M 628 4666 
L 1259 4666 
L 1259 2753 
L 3553 2753 
L 3553 4666 
L 4184 4666 
L 4184 0 
L 3553 0 
L 3553 2222 
L 1259 2222 
L 1259 0 
L 628 0 
L 628 4666 
z
" transform="scale(0.015625)"/>
      </defs>
      <use xlink:href="#DejaVuSans-49"/>
      <use xlink:href="#DejaVuSans-6e" x="29.492188"/>
      <use xlink:href="#DejaVuSans-74" x="92.871094"/>
      <use xlink:href="#DejaVuSans-65" x="132.080078"/>
      <use xlink:href="#DejaVuSans-72" x="193.603516"/>
      <use xlink:href="#DejaVuSans-6e" x="232.966797"/>
      <use xlink:href="#DejaVuSans-61" x="296.345703"/>
      <use xlink:href="#DejaVuSans-6c" x="357.625"/>
      <use xlink:href="#DejaVuSans-20" x="385.408203"/>
      <use xlink:href="#DejaVuSans-48" x="417.195312"/>
      <use xlink:href="#DejaVuSans-65" x="492.390625"/>
      <use xlink:href="#DejaVuSans-61" x="553.914062"/>
      <use xlink:href="#DejaVuSans-74" x="615.193359"/>
      <use xlink:href="#DejaVuSans-20" x="654.402344"/>
      <use xlink:href="#DejaVuSans-45" x="686.189453"/>
      <use xlink:href="#DejaVuSans-78" x="749.373047"/>
      <use xlink:href="#DejaVuSans-63" x="806.802734"/>
      <use xlink:href="#DejaVuSans-68" x="861.783203"/>
      <use xlink:href="#DejaVuSans-61" x="925.162109"/>
      <use xlink:href="#DejaVuSans-6e" x="986.441406"/>
      <use xlink:href="#DejaVuSans-67" x="1049.820312"/>
      <use xlink:href="#DejaVuSans-65" x="1113.296875"/>
      <use xlink:href="#DejaVuSans-72" x="1174.820312"/>
      <use xlink:href="#DejaVuSans-20" x="1215.933594"/>
      <use xlink:href="#DejaVuSans-31" x="1247.720703"/>
     </g>
    </g>
    <g id="patch_195">
     <path d="M 112.075313 261.219938 
L 148.075313 261.219938 
L 148.075313 248.619938 
L 112.075313 248.619938 
z
" style="fill: #7f7f7f"/>
    </g>
    <g id="text_17">
     <!-- Internal Heat Exchanger 2 -->
     <g transform="translate(162.475313 261.219938) scale(0.18 -0.18)">
      <use xlink:href="#DejaVuSans-49"/>
      <use xlink:href="#DejaVuSans-6e" x="29.492188"/>
      <use xlink:href="#DejaVuSans-74" x="92.871094"/>
      <use xlink:href="#DejaVuSans-65" x="132.080078"/>
      <use xlink:href="#DejaVuSans-72" x="193.603516"/>
      <use xlink:href="#DejaVuSans-6e" x="232.966797"/>
      <use xlink:href="#DejaVuSans-61" x="296.345703"/>
      <use xlink:href="#DejaVuSans-6c" x="357.625"/>
      <use xlink:href="#DejaVuSans-20" x="385.408203"/>
      <use xlink:href="#DejaVuSans-48" x="417.195312"/>
      <use xlink:href="#DejaVuSans-65" x="492.390625"/>
      <use xlink:href="#DejaVuSans-61" x="553.914062"/>
      <use xlink:href="#DejaVuSans-74" x="615.193359"/>
      <use xlink:href="#DejaVuSans-20" x="654.402344"/>
      <use xlink:href="#DejaVuSans-45" x="686.189453"/>
      <use xlink:href="#DejaVuSans-78" x="749.373047"/>
      <use xlink:href="#DejaVuSans-63" x="806.802734"/>
      <use xlink:href="#DejaVuSans-68" x="861.783203"/>
      <use xlink:href="#DejaVuSans-61" x="925.162109"/>
      <use xlink:href="#DejaVuSans-6e" x="986.441406"/>
      <use xlink:href="#DejaVuSans-67" x="1049.820312"/>
      <use xlink:href="#DejaVuSans-65" x="1113.296875"/>
      <use xlink:href="#DejaVuSans-72" x="1174.820312"/>
      <use xlink:href="#DejaVuSans-20" x="1215.933594"/>
      <use xlink:href="#DejaVuSans-32" x="1247.720703"/>
     </g>
    </g>
    <g id="patch_196">
     <path d="M 112.075313 287.640562 
L 148.075313 287.640562 
L 148.075313 275.040562 
L 112.075313 275.040562 
z
" style="fill: #bcbd22"/>
    </g>
    <g id="text_18">
     <!-- Merge -->
     <g transform="translate(162.475313 287.640562) scale(0.18 -0.18)">
      <use xlink:href="#DejaVuSans-4d"/>
      <use xlink:href="#DejaVuSans-65" x="86.279297"/>
      <use xlink:href="#DejaVuSans-72" x="147.802734"/>
      <use xlink:href="#DejaVuSans-67" x="187.166016"/>
      <use xlink:href="#DejaVuSans-65" x="250.642578"/>
     </g>
    </g>
   </g>
  </g>
 </g>
 <defs>
  <clipPath id="p52a1611b68">
   <rect x="57.6" y="41.472" width="357.12" height="266.112"/>
  </clipPath>
 </defs>
</svg>
