<?xml version="1.0" encoding="utf-8" standalone="no"?>
<!DOCTYPE svg PUBLIC "-//W3C//DTD SVG 1.1//EN"
  "http://www.w3.org/Graphics/SVG/1.1/DTD/svg11.dtd">
<svg xmlns:xlink="http://www.w3.org/1999/xlink" width="1382.4pt" height="730.8pt" viewBox="0 0 1382.4 730.8" xmlns="http://www.w3.org/2000/svg" version="1.1">
 <metadata>
  <rdf:RDF xmlns:dc="http://purl.org/dc/elements/1.1/" xmlns:cc="http://creativecommons.org/ns#" xmlns:rdf="http://www.w3.org/1999/02/22-rdf-syntax-ns#">
   <cc:Work>
    <dc:type rdf:resource="http://purl.org/dc/dcmitype/StillImage"/>
    <dc:date>2023-02-28T11:51:44.119537</dc:date>
    <dc:format>image/svg+xml</dc:format>
    <dc:creator>
     <cc:Agent>
      <dc:title>Matplotlib v3.6.1, https://matplotlib.org/</dc:title>
     </cc:Agent>
    </dc:creator>
   </cc:Work>
  </rdf:RDF>
 </metadata>
 <defs>
  <style type="text/css">*{stroke-linejoin: round; stroke-linecap: butt}</style>
 </defs>
 <g id="figure_1">
  <g id="patch_1">
   <path d="M 0 730.8 
L 1382.4 730.8 
L 1382.4 0 
L 0 0 
z
" style="fill: #ffffff"/>
  </g>
  <g id="axes_1">
   <g id="patch_2">
    <path d="M 172.8 650.412 
L 1244.16 650.412 
L 1244.16 87.696 
L 172.8 87.696 
z
" style="fill: #ffffff"/>
   </g>
   <g id="patch_3">
    <path d="M 221.498182 650.412 
L 227.032066 650.412 
L 227.032066 585.823461 
L 221.498182 585.823461 
z
" clip-path="url(#p816f1e23ca)" style="fill: #1f77b4"/>
   </g>
   <g id="patch_4">
    <path d="M 261.849421 650.412 
L 267.383306 650.412 
L 267.383306 590.103628 
L 261.849421 590.103628 
z
" clip-path="url(#p816f1e23ca)" style="fill: #1f77b4"/>
   </g>
   <g id="patch_5">
    <path d="M 302.200661 650.412 
L 307.734545 650.412 
L 307.734545 593.275724 
L 302.200661 593.275724 
z
" clip-path="url(#p816f1e23ca)" style="fill: #1f77b4"/>
   </g>
   <g id="patch_6">
    <path d="M 342.551901 650.412 
L 348.085785 650.412 
L 348.085785 594.935365 
L 342.551901 594.935365 
z
" clip-path="url(#p816f1e23ca)" style="fill: #1f77b4"/>
   </g>
   <g id="patch_7">
    <path d="M 382.90314 650.412 
L 388.437025 650.412 
L 388.437025 595.648857 
L 382.90314 595.648857 
z
" clip-path="url(#p816f1e23ca)" style="fill: #1f77b4"/>
   </g>
   <g id="patch_8">
    <path d="M 423.25438 650.412 
L 428.788264 650.412 
L 428.788264 595.858597 
L 423.25438 595.858597 
z
" clip-path="url(#p816f1e23ca)" style="fill: #1f77b4"/>
   </g>
   <g id="patch_9">
    <path d="M 463.60562 650.412 
L 469.139504 650.412 
L 469.139504 595.807689 
L 463.60562 595.807689 
z
" clip-path="url(#p816f1e23ca)" style="fill: #1f77b4"/>
   </g>
   <g id="patch_10">
    <path d="M 503.95686 650.412 
L 509.490744 650.412 
L 509.490744 595.625125 
L 503.95686 595.625125 
z
" clip-path="url(#p816f1e23ca)" style="fill: #1f77b4"/>
   </g>
   <g id="patch_11">
    <path d="M 544.308099 650.412 
L 549.841983 650.412 
L 549.841983 595.38116 
L 544.308099 595.38116 
z
" clip-path="url(#p816f1e23ca)" style="fill: #1f77b4"/>
   </g>
   <g id="patch_12">
    <path d="M 584.659339 650.412 
L 590.193223 650.412 
L 590.193223 595.11517 
L 584.659339 595.11517 
z
" clip-path="url(#p816f1e23ca)" style="fill: #1f77b4"/>
   </g>
   <g id="patch_13">
    <path d="M 625.010579 650.412 
L 630.544463 650.412 
L 630.544463 594.849584 
L 625.010579 594.849584 
z
" clip-path="url(#p816f1e23ca)" style="fill: #1f77b4"/>
   </g>
   <g id="patch_14">
    <path d="M 665.361818 650.412 
L 670.895702 650.412 
L 670.895702 594.597124 
L 665.361818 594.597124 
z
" clip-path="url(#p816f1e23ca)" style="fill: #1f77b4"/>
   </g>
   <g id="patch_15">
    <path d="M 705.713058 650.412 
L 711.246942 650.412 
L 711.246942 594.364774 
L 705.713058 594.364774 
z
" clip-path="url(#p816f1e23ca)" style="fill: #1f77b4"/>
   </g>
   <g id="patch_16">
    <path d="M 746.064298 650.412 
L 751.598182 650.412 
L 751.598182 594.156039 
L 746.064298 594.156039 
z
" clip-path="url(#p816f1e23ca)" style="fill: #1f77b4"/>
   </g>
   <g id="patch_17">
    <path d="M 786.415537 650.412 
L 791.949421 650.412 
L 791.949421 593.972286 
L 786.415537 593.972286 
z
" clip-path="url(#p816f1e23ca)" style="fill: #1f77b4"/>
   </g>
   <g id="patch_18">
    <path d="M 826.766777 650.412 
L 832.300661 650.412 
L 832.300661 593.813568 
L 826.766777 593.813568 
z
" clip-path="url(#p816f1e23ca)" style="fill: #1f77b4"/>
   </g>
   <g id="patch_19">
    <path d="M 867.118017 650.412 
L 872.651901 650.412 
L 872.651901 593.679133 
L 867.118017 593.679133 
z
" clip-path="url(#p816f1e23ca)" style="fill: #1f77b4"/>
   </g>
   <g id="patch_20">
    <path d="M 907.469256 650.412 
L 913.00314 650.412 
L 913.00314 593.567758 
L 907.469256 593.567758 
z
" clip-path="url(#p816f1e23ca)" style="fill: #1f77b4"/>
   </g>
   <g id="patch_21">
    <path d="M 947.820496 650.412 
L 953.35438 650.412 
L 953.35438 593.477958 
L 947.820496 593.477958 
z
" clip-path="url(#p816f1e23ca)" style="fill: #1f77b4"/>
   </g>
   <g id="patch_22">
    <path d="M 988.171736 650.412 
L 993.70562 650.412 
L 993.70562 593.408125 
L 988.171736 593.408125 
z
" clip-path="url(#p816f1e23ca)" style="fill: #1f77b4"/>
   </g>
   <g id="patch_23">
    <path d="M 1028.522975 650.412 
L 1034.05686 650.412 
L 1034.05686 593.35662 
L 1028.522975 593.35662 
z
" clip-path="url(#p816f1e23ca)" style="fill: #1f77b4"/>
   </g>
   <g id="patch_24">
    <path d="M 1068.874215 650.412 
L 1074.408099 650.412 
L 1074.408099 593.321827 
L 1068.874215 593.321827 
z
" clip-path="url(#p816f1e23ca)" style="fill: #1f77b4"/>
   </g>
   <g id="patch_25">
    <path d="M 1109.225455 650.412 
L 1114.759339 650.412 
L 1114.759339 593.302191 
L 1109.225455 593.302191 
z
" clip-path="url(#p816f1e23ca)" style="fill: #1f77b4"/>
   </g>
   <g id="patch_26">
    <path d="M 1149.576694 650.412 
L 1155.110579 650.412 
L 1155.110579 593.296241 
L 1149.576694 593.296241 
z
" clip-path="url(#p816f1e23ca)" style="fill: #1f77b4"/>
   </g>
   <g id="patch_27">
    <path d="M 1189.927934 650.412 
L 1195.461818 650.412 
L 1195.461818 593.3026 
L 1189.927934 593.3026 
z
" clip-path="url(#p816f1e23ca)" style="fill: #1f77b4"/>
   </g>
   <g id="patch_28">
    <path d="M 221.498182 585.823461 
L 227.032066 585.823461 
L 227.032066 571.600195 
L 221.498182 571.600195 
z
" clip-path="url(#p816f1e23ca)" style="fill: #ff7f0e"/>
   </g>
   <g id="patch_29">
    <path d="M 261.849421 590.103628 
L 267.383306 590.103628 
L 267.383306 575.165859 
L 261.849421 575.165859 
z
" clip-path="url(#p816f1e23ca)" style="fill: #ff7f0e"/>
   </g>
   <g id="patch_30">
    <path d="M 302.200661 593.275724 
L 307.734545 593.275724 
L 307.734545 578.161017 
L 302.200661 578.161017 
z
" clip-path="url(#p816f1e23ca)" style="fill: #ff7f0e"/>
   </g>
   <g id="patch_31">
    <path d="M 342.551901 594.935365 
L 348.085785 594.935365 
L 348.085785 579.796905 
L 342.551901 579.796905 
z
" clip-path="url(#p816f1e23ca)" style="fill: #ff7f0e"/>
   </g>
   <g id="patch_32">
    <path d="M 382.90314 595.648857 
L 388.437025 595.648857 
L 388.437025 580.539225 
L 382.90314 580.539225 
z
" clip-path="url(#p816f1e23ca)" style="fill: #ff7f0e"/>
   </g>
   <g id="patch_33">
    <path d="M 423.25438 595.858597 
L 428.788264 595.858597 
L 428.788264 580.798255 
L 423.25438 580.798255 
z
" clip-path="url(#p816f1e23ca)" style="fill: #ff7f0e"/>
   </g>
   <g id="patch_34">
    <path d="M 463.60562 595.807689 
L 469.139504 595.807689 
L 469.139504 580.805072 
L 463.60562 580.805072 
z
" clip-path="url(#p816f1e23ca)" style="fill: #ff7f0e"/>
   </g>
   <g id="patch_35">
    <path d="M 503.95686 595.625125 
L 509.490744 595.625125 
L 509.490744 580.683521 
L 503.95686 580.683521 
z
" clip-path="url(#p816f1e23ca)" style="fill: #ff7f0e"/>
   </g>
   <g id="patch_36">
    <path d="M 544.308099 595.38116 
L 549.841983 595.38116 
L 549.841983 580.501418 
L 544.308099 580.501418 
z
" clip-path="url(#p816f1e23ca)" style="fill: #ff7f0e"/>
   </g>
   <g id="patch_37">
    <path d="M 584.659339 595.11517 
L 590.193223 595.11517 
L 590.193223 580.296914 
L 584.659339 580.296914 
z
" clip-path="url(#p816f1e23ca)" style="fill: #ff7f0e"/>
   </g>
   <g id="patch_38">
    <path d="M 625.010579 594.849584 
L 630.544463 594.849584 
L 630.544463 580.091798 
L 625.010579 580.091798 
z
" clip-path="url(#p816f1e23ca)" style="fill: #ff7f0e"/>
   </g>
   <g id="patch_39">
    <path d="M 665.361818 594.597124 
L 670.895702 594.597124 
L 670.895702 579.898463 
L 665.361818 579.898463 
z
" clip-path="url(#p816f1e23ca)" style="fill: #ff7f0e"/>
   </g>
   <g id="patch_40">
    <path d="M 705.713058 594.364774 
L 711.246942 594.364774 
L 711.246942 579.723732 
L 705.713058 579.723732 
z
" clip-path="url(#p816f1e23ca)" style="fill: #ff7f0e"/>
   </g>
   <g id="patch_41">
    <path d="M 746.064298 594.156039 
L 751.598182 594.156039 
L 751.598182 579.571047 
L 746.064298 579.571047 
z
" clip-path="url(#p816f1e23ca)" style="fill: #ff7f0e"/>
   </g>
   <g id="patch_42">
    <path d="M 786.415537 593.972286 
L 791.949421 593.972286 
L 791.949421 579.441771 
L 786.415537 579.441771 
z
" clip-path="url(#p816f1e23ca)" style="fill: #ff7f0e"/>
   </g>
   <g id="patch_43">
    <path d="M 826.766777 593.813568 
L 832.300661 593.813568 
L 832.300661 579.335982 
L 826.766777 579.335982 
z
" clip-path="url(#p816f1e23ca)" style="fill: #ff7f0e"/>
   </g>
   <g id="patch_44">
    <path d="M 867.118017 593.679133 
L 872.651901 593.679133 
L 872.651901 579.252976 
L 867.118017 579.252976 
z
" clip-path="url(#p816f1e23ca)" style="fill: #ff7f0e"/>
   </g>
   <g id="patch_45">
    <path d="M 907.469256 593.567758 
L 913.00314 593.567758 
L 913.00314 579.191588 
L 907.469256 579.191588 
z
" clip-path="url(#p816f1e23ca)" style="fill: #ff7f0e"/>
   </g>
   <g id="patch_46">
    <path d="M 947.820496 593.477958 
L 953.35438 593.477958 
L 953.35438 579.150396 
L 947.820496 579.150396 
z
" clip-path="url(#p816f1e23ca)" style="fill: #ff7f0e"/>
   </g>
   <g id="patch_47">
    <path d="M 988.171736 593.408125 
L 993.70562 593.408125 
L 993.70562 579.127858 
L 988.171736 579.127858 
z
" clip-path="url(#p816f1e23ca)" style="fill: #ff7f0e"/>
   </g>
   <g id="patch_48">
    <path d="M 1028.522975 593.35662 
L 1034.05686 593.35662 
L 1034.05686 579.122397 
L 1028.522975 579.122397 
z
" clip-path="url(#p816f1e23ca)" style="fill: #ff7f0e"/>
   </g>
   <g id="patch_49">
    <path d="M 1068.874215 593.321827 
L 1074.408099 593.321827 
L 1074.408099 579.132464 
L 1068.874215 579.132464 
z
" clip-path="url(#p816f1e23ca)" style="fill: #ff7f0e"/>
   </g>
   <g id="patch_50">
    <path d="M 1109.225455 593.302191 
L 1114.759339 593.302191 
L 1114.759339 579.156564 
L 1109.225455 579.156564 
z
" clip-path="url(#p816f1e23ca)" style="fill: #ff7f0e"/>
   </g>
   <g id="patch_51">
    <path d="M 1149.576694 593.296241 
L 1155.110579 593.296241 
L 1155.110579 579.193284 
L 1149.576694 579.193284 
z
" clip-path="url(#p816f1e23ca)" style="fill: #ff7f0e"/>
   </g>
   <g id="patch_52">
    <path d="M 1189.927934 593.3026 
L 1195.461818 593.3026 
L 1195.461818 579.241304 
L 1189.927934 579.241304 
z
" clip-path="url(#p816f1e23ca)" style="fill: #ff7f0e"/>
   </g>
   <g id="patch_53">
    <path d="M 221.498182 571.600195 
L 227.032066 571.600195 
L 227.032066 502.648392 
L 221.498182 502.648392 
z
" clip-path="url(#p816f1e23ca)" style="fill: #2ca02c"/>
   </g>
   <g id="patch_54">
    <path d="M 261.849421 575.165859 
L 267.383306 575.165859 
L 267.383306 502.750271 
L 261.849421 502.750271 
z
" clip-path="url(#p816f1e23ca)" style="fill: #2ca02c"/>
   </g>
   <g id="patch_55">
    <path d="M 302.200661 578.161017 
L 307.734545 578.161017 
L 307.734545 504.887673 
L 302.200661 504.887673 
z
" clip-path="url(#p816f1e23ca)" style="fill: #2ca02c"/>
   </g>
   <g id="patch_56">
    <path d="M 342.551901 579.796905 
L 348.085785 579.796905 
L 348.085785 506.40841 
L 342.551901 506.40841 
z
" clip-path="url(#p816f1e23ca)" style="fill: #2ca02c"/>
   </g>
   <g id="patch_57">
    <path d="M 382.90314 580.539225 
L 388.437025 580.539225 
L 388.437025 507.290483 
L 382.90314 507.290483 
z
" clip-path="url(#p816f1e23ca)" style="fill: #2ca02c"/>
   </g>
   <g id="patch_58">
    <path d="M 423.25438 580.798255 
L 428.788264 580.798255 
L 428.788264 507.78846 
L 423.25438 507.78846 
z
" clip-path="url(#p816f1e23ca)" style="fill: #2ca02c"/>
   </g>
   <g id="patch_59">
    <path d="M 463.60562 580.805072 
L 469.139504 580.805072 
L 469.139504 508.07512 
L 463.60562 508.07512 
z
" clip-path="url(#p816f1e23ca)" style="fill: #2ca02c"/>
   </g>
   <g id="patch_60">
    <path d="M 503.95686 580.683521 
L 509.490744 580.683521 
L 509.490744 508.249343 
L 503.95686 508.249343 
z
" clip-path="url(#p816f1e23ca)" style="fill: #2ca02c"/>
   </g>
   <g id="patch_61">
    <path d="M 544.308099 580.501418 
L 549.841983 580.501418 
L 549.841983 508.36714 
L 544.308099 508.36714 
z
" clip-path="url(#p816f1e23ca)" style="fill: #2ca02c"/>
   </g>
   <g id="patch_62">
    <path d="M 584.659339 580.296914 
L 590.193223 580.296914 
L 590.193223 508.46071 
L 584.659339 508.46071 
z
" clip-path="url(#p816f1e23ca)" style="fill: #2ca02c"/>
   </g>
   <g id="patch_63">
    <path d="M 625.010579 580.091798 
L 630.544463 580.091798 
L 630.544463 508.548742 
L 625.010579 508.548742 
z
" clip-path="url(#p816f1e23ca)" style="fill: #2ca02c"/>
   </g>
   <g id="patch_64">
    <path d="M 665.361818 579.898463 
L 670.895702 579.898463 
L 670.895702 508.642031 
L 665.361818 508.642031 
z
" clip-path="url(#p816f1e23ca)" style="fill: #2ca02c"/>
   </g>
   <g id="patch_65">
    <path d="M 705.713058 579.723732 
L 711.246942 579.723732 
L 711.246942 508.746626 
L 705.713058 508.746626 
z
" clip-path="url(#p816f1e23ca)" style="fill: #2ca02c"/>
   </g>
   <g id="patch_66">
    <path d="M 746.064298 579.571047 
L 751.598182 579.571047 
L 751.598182 508.865663 
L 746.064298 508.865663 
z
" clip-path="url(#p816f1e23ca)" style="fill: #2ca02c"/>
   </g>
   <g id="patch_67">
    <path d="M 786.415537 579.441771 
L 791.949421 579.441771 
L 791.949421 509.000478 
L 786.415537 509.000478 
z
" clip-path="url(#p816f1e23ca)" style="fill: #2ca02c"/>
   </g>
   <g id="patch_68">
    <path d="M 826.766777 579.335982 
L 832.300661 579.335982 
L 832.300661 509.151281 
L 826.766777 509.151281 
z
" clip-path="url(#p816f1e23ca)" style="fill: #2ca02c"/>
   </g>
   <g id="patch_69">
    <path d="M 867.118017 579.252976 
L 872.651901 579.252976 
L 872.651901 509.317596 
L 867.118017 509.317596 
z
" clip-path="url(#p816f1e23ca)" style="fill: #2ca02c"/>
   </g>
   <g id="patch_70">
    <path d="M 907.469256 579.191588 
L 913.00314 579.191588 
L 913.00314 509.498537 
L 907.469256 509.498537 
z
" clip-path="url(#p816f1e23ca)" style="fill: #2ca02c"/>
   </g>
   <g id="patch_71">
    <path d="M 947.820496 579.150396 
L 953.35438 579.150396 
L 953.35438 509.692987 
L 947.820496 509.692987 
z
" clip-path="url(#p816f1e23ca)" style="fill: #2ca02c"/>
   </g>
   <g id="patch_72">
    <path d="M 988.171736 579.127858 
L 993.70562 579.127858 
L 993.70562 509.899721 
L 988.171736 509.899721 
z
" clip-path="url(#p816f1e23ca)" style="fill: #2ca02c"/>
   </g>
   <g id="patch_73">
    <path d="M 1028.522975 579.122397 
L 1034.05686 579.122397 
L 1034.05686 510.117478 
L 1028.522975 510.117478 
z
" clip-path="url(#p816f1e23ca)" style="fill: #2ca02c"/>
   </g>
   <g id="patch_74">
    <path d="M 1068.874215 579.132464 
L 1074.408099 579.132464 
L 1074.408099 510.345015 
L 1068.874215 510.345015 
z
" clip-path="url(#p816f1e23ca)" style="fill: #2ca02c"/>
   </g>
   <g id="patch_75">
    <path d="M 1109.225455 579.156564 
L 1114.759339 579.156564 
L 1114.759339 510.581137 
L 1109.225455 510.581137 
z
" clip-path="url(#p816f1e23ca)" style="fill: #2ca02c"/>
   </g>
   <g id="patch_76">
    <path d="M 1149.576694 579.193284 
L 1155.110579 579.193284 
L 1155.110579 510.824716 
L 1149.576694 510.824716 
z
" clip-path="url(#p816f1e23ca)" style="fill: #2ca02c"/>
   </g>
   <g id="patch_77">
    <path d="M 1189.927934 579.241304 
L 1195.461818 579.241304 
L 1195.461818 511.074702 
L 1189.927934 511.074702 
z
" clip-path="url(#p816f1e23ca)" style="fill: #2ca02c"/>
   </g>
   <g id="patch_78">
    <path d="M 221.498182 502.648392 
L 227.032066 502.648392 
L 227.032066 398.652841 
L 221.498182 398.652841 
z
" clip-path="url(#p816f1e23ca)" style="fill: #d62728"/>
   </g>
   <g id="patch_79">
    <path d="M 261.849421 502.750271 
L 267.383306 502.750271 
L 267.383306 439.992194 
L 261.849421 439.992194 
z
" clip-path="url(#p816f1e23ca)" style="fill: #d62728"/>
   </g>
   <g id="patch_80">
    <path d="M 302.200661 504.887673 
L 307.734545 504.887673 
L 307.734545 454.565588 
L 302.200661 454.565588 
z
" clip-path="url(#p816f1e23ca)" style="fill: #d62728"/>
   </g>
   <g id="patch_81">
    <path d="M 342.551901 506.40841 
L 348.085785 506.40841 
L 348.085785 460.189398 
L 342.551901 460.189398 
z
" clip-path="url(#p816f1e23ca)" style="fill: #d62728"/>
   </g>
   <g id="patch_82">
    <path d="M 382.90314 507.290483 
L 388.437025 507.290483 
L 388.437025 462.201396 
L 382.90314 462.201396 
z
" clip-path="url(#p816f1e23ca)" style="fill: #d62728"/>
   </g>
   <g id="patch_83">
    <path d="M 423.25438 507.78846 
L 428.788264 507.78846 
L 428.788264 462.568923 
L 423.25438 462.568923 
z
" clip-path="url(#p816f1e23ca)" style="fill: #d62728"/>
   </g>
   <g id="patch_84">
    <path d="M 463.60562 508.07512 
L 469.139504 508.07512 
L 469.139504 462.112133 
L 463.60562 462.112133 
z
" clip-path="url(#p816f1e23ca)" style="fill: #d62728"/>
   </g>
   <g id="patch_85">
    <path d="M 503.95686 508.249343 
L 509.490744 508.249343 
L 509.490744 461.213747 
L 503.95686 461.213747 
z
" clip-path="url(#p816f1e23ca)" style="fill: #d62728"/>
   </g>
   <g id="patch_86">
    <path d="M 544.308099 508.36714 
L 549.841983 508.36714 
L 549.841983 460.069913 
L 544.308099 460.069913 
z
" clip-path="url(#p816f1e23ca)" style="fill: #d62728"/>
   </g>
   <g id="patch_87">
    <path d="M 584.659339 508.46071 
L 590.193223 508.46071 
L 590.193223 458.788591 
L 584.659339 458.788591 
z
" clip-path="url(#p816f1e23ca)" style="fill: #d62728"/>
   </g>
   <g id="patch_88">
    <path d="M 625.010579 508.548742 
L 630.544463 508.548742 
L 630.544463 457.432355 
L 625.010579 457.432355 
z
" clip-path="url(#p816f1e23ca)" style="fill: #d62728"/>
   </g>
   <g id="patch_89">
    <path d="M 665.361818 508.642031 
L 670.895702 508.642031 
L 670.895702 456.038798 
L 665.361818 456.038798 
z
" clip-path="url(#p816f1e23ca)" style="fill: #d62728"/>
   </g>
   <g id="patch_90">
    <path d="M 705.713058 508.746626 
L 711.246942 508.746626 
L 711.246942 454.631014 
L 705.713058 454.631014 
z
" clip-path="url(#p816f1e23ca)" style="fill: #d62728"/>
   </g>
   <g id="patch_91">
    <path d="M 746.064298 508.865663 
L 751.598182 508.865663 
L 751.598182 453.223329 
L 746.064298 453.223329 
z
" clip-path="url(#p816f1e23ca)" style="fill: #d62728"/>
   </g>
   <g id="patch_92">
    <path d="M 786.415537 509.000478 
L 791.949421 509.000478 
L 791.949421 451.824603 
L 786.415537 451.824603 
z
" clip-path="url(#p816f1e23ca)" style="fill: #d62728"/>
   </g>
   <g id="patch_93">
    <path d="M 826.766777 509.151281 
L 832.300661 509.151281 
L 832.300661 450.440202 
L 826.766777 450.440202 
z
" clip-path="url(#p816f1e23ca)" style="fill: #d62728"/>
   </g>
   <g id="patch_94">
    <path d="M 867.118017 509.317596 
L 872.651901 509.317596 
L 872.651901 449.073223 
L 867.118017 449.073223 
z
" clip-path="url(#p816f1e23ca)" style="fill: #d62728"/>
   </g>
   <g id="patch_95">
    <path d="M 907.469256 509.498537 
L 913.00314 509.498537 
L 913.00314 447.725279 
L 907.469256 447.725279 
z
" clip-path="url(#p816f1e23ca)" style="fill: #d62728"/>
   </g>
   <g id="patch_96">
    <path d="M 947.820496 509.692987 
L 953.35438 509.692987 
L 953.35438 446.397004 
L 947.820496 446.397004 
z
" clip-path="url(#p816f1e23ca)" style="fill: #d62728"/>
   </g>
   <g id="patch_97">
    <path d="M 988.171736 509.899721 
L 993.70562 509.899721 
L 993.70562 445.088397 
L 988.171736 445.088397 
z
" clip-path="url(#p816f1e23ca)" style="fill: #d62728"/>
   </g>
   <g id="patch_98">
    <path d="M 1028.522975 510.117478 
L 1034.05686 510.117478 
L 1034.05686 443.799041 
L 1028.522975 443.799041 
z
" clip-path="url(#p816f1e23ca)" style="fill: #d62728"/>
   </g>
   <g id="patch_99">
    <path d="M 1068.874215 510.345015 
L 1074.408099 510.345015 
L 1074.408099 442.528264 
L 1068.874215 442.528264 
z
" clip-path="url(#p816f1e23ca)" style="fill: #d62728"/>
   </g>
   <g id="patch_100">
    <path d="M 1109.225455 510.581137 
L 1114.759339 510.581137 
L 1114.759339 441.275242 
L 1109.225455 441.275242 
z
" clip-path="url(#p816f1e23ca)" style="fill: #d62728"/>
   </g>
   <g id="patch_101">
    <path d="M 1149.576694 510.824716 
L 1155.110579 510.824716 
L 1155.110579 440.03907 
L 1149.576694 440.03907 
z
" clip-path="url(#p816f1e23ca)" style="fill: #d62728"/>
   </g>
   <g id="patch_102">
    <path d="M 1189.927934 511.074702 
L 1195.461818 511.074702 
L 1195.461818 438.818812 
L 1189.927934 438.818812 
z
" clip-path="url(#p816f1e23ca)" style="fill: #d62728"/>
   </g>
   <g id="patch_103">
    <path d="M 221.498182 398.652841 
L 227.032066 398.652841 
L 227.032066 260.506779 
L 221.498182 260.506779 
z
" clip-path="url(#p816f1e23ca)" style="fill: #9467bd"/>
   </g>
   <g id="patch_104">
    <path d="M 261.849421 439.992194 
L 267.383306 439.992194 
L 267.383306 292.268099 
L 261.849421 292.268099 
z
" clip-path="url(#p816f1e23ca)" style="fill: #9467bd"/>
   </g>
   <g id="patch_105">
    <path d="M 302.200661 454.565588 
L 307.734545 454.565588 
L 307.734545 302.551777 
L 302.200661 302.551777 
z
" clip-path="url(#p816f1e23ca)" style="fill: #9467bd"/>
   </g>
   <g id="patch_106">
    <path d="M 342.551901 460.189398 
L 348.085785 460.189398 
L 348.085785 305.512309 
L 342.551901 305.512309 
z
" clip-path="url(#p816f1e23ca)" style="fill: #9467bd"/>
   </g>
   <g id="patch_107">
    <path d="M 382.90314 462.201396 
L 388.437025 462.201396 
L 388.437025 305.509036 
L 382.90314 305.509036 
z
" clip-path="url(#p816f1e23ca)" style="fill: #9467bd"/>
   </g>
   <g id="patch_108">
    <path d="M 423.25438 462.568923 
L 428.788264 462.568923 
L 428.788264 304.186466 
L 423.25438 304.186466 
z
" clip-path="url(#p816f1e23ca)" style="fill: #9467bd"/>
   </g>
   <g id="patch_109">
    <path d="M 463.60562 462.112133 
L 469.139504 462.112133 
L 469.139504 302.236768 
L 463.60562 302.236768 
z
" clip-path="url(#p816f1e23ca)" style="fill: #9467bd"/>
   </g>
   <g id="patch_110">
    <path d="M 503.95686 461.213747 
L 509.490744 461.213747 
L 509.490744 299.982416 
L 503.95686 299.982416 
z
" clip-path="url(#p816f1e23ca)" style="fill: #9467bd"/>
   </g>
   <g id="patch_111">
    <path d="M 544.308099 460.069913 
L 549.841983 460.069913 
L 549.841983 297.586697 
L 544.308099 297.586697 
z
" clip-path="url(#p816f1e23ca)" style="fill: #9467bd"/>
   </g>
   <g id="patch_112">
    <path d="M 584.659339 458.788591 
L 590.193223 458.788591 
L 590.193223 295.137362 
L 584.659339 295.137362 
z
" clip-path="url(#p816f1e23ca)" style="fill: #9467bd"/>
   </g>
   <g id="patch_113">
    <path d="M 625.010579 457.432355 
L 630.544463 457.432355 
L 630.544463 292.683323 
L 625.010579 292.683323 
z
" clip-path="url(#p816f1e23ca)" style="fill: #9467bd"/>
   </g>
   <g id="patch_114">
    <path d="M 665.361818 456.038798 
L 670.895702 456.038798 
L 670.895702 290.252234 
L 665.361818 290.252234 
z
" clip-path="url(#p816f1e23ca)" style="fill: #9467bd"/>
   </g>
   <g id="patch_115">
    <path d="M 705.713058 454.631014 
L 711.246942 454.631014 
L 711.246942 287.859548 
L 705.713058 287.859548 
z
" clip-path="url(#p816f1e23ca)" style="fill: #9467bd"/>
   </g>
   <g id="patch_116">
    <path d="M 746.064298 453.223329 
L 751.598182 453.223329 
L 751.598182 285.51348 
L 746.064298 285.51348 
z
" clip-path="url(#p816f1e23ca)" style="fill: #9467bd"/>
   </g>
   <g id="patch_117">
    <path d="M 786.415537 451.824603 
L 791.949421 451.824603 
L 791.949421 283.217843 
L 786.415537 283.217843 
z
" clip-path="url(#p816f1e23ca)" style="fill: #9467bd"/>
   </g>
   <g id="patch_118">
    <path d="M 826.766777 450.440202 
L 832.300661 450.440202 
L 832.300661 280.97375 
L 826.766777 280.97375 
z
" clip-path="url(#p816f1e23ca)" style="fill: #9467bd"/>
   </g>
   <g id="patch_119">
    <path d="M 867.118017 449.073223 
L 872.651901 449.073223 
L 872.651901 278.780656 
L 867.118017 278.780656 
z
" clip-path="url(#p816f1e23ca)" style="fill: #9467bd"/>
   </g>
   <g id="patch_120">
    <path d="M 907.469256 447.725279 
L 913.00314 447.725279 
L 913.00314 276.637018 
L 907.469256 276.637018 
z
" clip-path="url(#p816f1e23ca)" style="fill: #9467bd"/>
   </g>
   <g id="patch_121">
    <path d="M 947.820496 446.397004 
L 953.35438 446.397004 
L 953.35438 274.54071 
L 947.820496 274.54071 
z
" clip-path="url(#p816f1e23ca)" style="fill: #9467bd"/>
   </g>
   <g id="patch_122">
    <path d="M 988.171736 445.088397 
L 993.70562 445.088397 
L 993.70562 272.4893 
L 988.171736 272.4893 
z
" clip-path="url(#p816f1e23ca)" style="fill: #9467bd"/>
   </g>
   <g id="patch_123">
    <path d="M 1028.522975 443.799041 
L 1034.05686 443.799041 
L 1034.05686 270.480227 
L 1028.522975 270.480227 
z
" clip-path="url(#p816f1e23ca)" style="fill: #9467bd"/>
   </g>
   <g id="patch_124">
    <path d="M 1068.874215 442.528264 
L 1074.408099 442.528264 
L 1074.408099 268.510912 
L 1068.874215 268.510912 
z
" clip-path="url(#p816f1e23ca)" style="fill: #9467bd"/>
   </g>
   <g id="patch_125">
    <path d="M 1109.225455 441.275242 
L 1114.759339 441.275242 
L 1114.759339 266.578834 
L 1109.225455 266.578834 
z
" clip-path="url(#p816f1e23ca)" style="fill: #9467bd"/>
   </g>
   <g id="patch_126">
    <path d="M 1149.576694 440.03907 
L 1155.110579 440.03907 
L 1155.110579 264.681574 
L 1149.576694 264.681574 
z
" clip-path="url(#p816f1e23ca)" style="fill: #9467bd"/>
   </g>
   <g id="patch_127">
    <path d="M 1189.927934 438.818812 
L 1195.461818 438.818812 
L 1195.461818 262.816841 
L 1189.927934 262.816841 
z
" clip-path="url(#p816f1e23ca)" style="fill: #9467bd"/>
   </g>
   <g id="patch_128">
    <path d="M 221.498182 260.506779 
L 227.032066 260.506779 
L 227.032066 208.97068 
L 221.498182 208.97068 
z
" clip-path="url(#p816f1e23ca)" style="fill: #8c564b"/>
   </g>
   <g id="patch_129">
    <path d="M 261.849421 292.268099 
L 267.383306 292.268099 
L 267.383306 266.061796 
L 261.849421 266.061796 
z
" clip-path="url(#p816f1e23ca)" style="fill: #8c564b"/>
   </g>
   <g id="patch_130">
    <path d="M 302.200661 302.551777 
L 307.734545 302.551777 
L 307.734545 285.140597 
L 302.200661 285.140597 
z
" clip-path="url(#p816f1e23ca)" style="fill: #8c564b"/>
   </g>
   <g id="patch_131">
    <path d="M 342.551901 305.512309 
L 348.085785 305.512309 
L 348.085785 292.05996 
L 342.551901 292.05996 
z
" clip-path="url(#p816f1e23ca)" style="fill: #8c564b"/>
   </g>
   <g id="patch_132">
    <path d="M 382.90314 305.509036 
L 388.437025 305.509036 
L 388.437025 294.255622 
L 382.90314 294.255622 
z
" clip-path="url(#p816f1e23ca)" style="fill: #8c564b"/>
   </g>
   <g id="patch_133">
    <path d="M 423.25438 304.186466 
L 428.788264 304.186466 
L 428.788264 294.363639 
L 423.25438 294.363639 
z
" clip-path="url(#p816f1e23ca)" style="fill: #8c564b"/>
   </g>
   <g id="patch_134">
    <path d="M 463.60562 302.236768 
L 469.139504 302.236768 
L 469.139504 293.454431 
L 463.60562 293.454431 
z
" clip-path="url(#p816f1e23ca)" style="fill: #8c564b"/>
   </g>
   <g id="patch_135">
    <path d="M 503.95686 299.982416 
L 509.490744 299.982416 
L 509.490744 292.01799 
L 503.95686 292.01799 
z
" clip-path="url(#p816f1e23ca)" style="fill: #8c564b"/>
   </g>
   <g id="patch_136">
    <path d="M 544.308099 297.586697 
L 549.841983 297.586697 
L 549.841983 290.301345 
L 544.308099 290.301345 
z
" clip-path="url(#p816f1e23ca)" style="fill: #8c564b"/>
   </g>
   <g id="patch_137">
    <path d="M 584.659339 295.137362 
L 590.193223 295.137362 
L 590.193223 288.438271 
L 584.659339 288.438271 
z
" clip-path="url(#p816f1e23ca)" style="fill: #8c564b"/>
   </g>
   <g id="patch_138">
    <path d="M 625.010579 292.683323 
L 630.544463 292.683323 
L 630.544463 286.50493 
L 625.010579 286.50493 
z
" clip-path="url(#p816f1e23ca)" style="fill: #8c564b"/>
   </g>
   <g id="patch_139">
    <path d="M 665.361818 290.252234 
L 670.895702 290.252234 
L 670.895702 284.546104 
L 665.361818 284.546104 
z
" clip-path="url(#p816f1e23ca)" style="fill: #8c564b"/>
   </g>
   <g id="patch_140">
    <path d="M 705.713058 287.859548 
L 711.246942 287.859548 
L 711.246942 282.588552 
L 705.713058 282.588552 
z
" clip-path="url(#p816f1e23ca)" style="fill: #8c564b"/>
   </g>
   <g id="patch_141">
    <path d="M 746.064298 285.51348 
L 751.598182 285.51348 
L 751.598182 280.648255 
L 746.064298 280.648255 
z
" clip-path="url(#p816f1e23ca)" style="fill: #8c564b"/>
   </g>
   <g id="patch_142">
    <path d="M 786.415537 283.217843 
L 791.949421 283.217843 
L 791.949421 278.734554 
L 786.415537 278.734554 
z
" clip-path="url(#p816f1e23ca)" style="fill: #8c564b"/>
   </g>
   <g id="patch_143">
    <path d="M 826.766777 280.97375 
L 832.300661 280.97375 
L 832.300661 276.852612 
L 826.766777 276.852612 
z
" clip-path="url(#p816f1e23ca)" style="fill: #8c564b"/>
   </g>
   <g id="patch_144">
    <path d="M 867.118017 278.780656 
L 872.651901 278.780656 
L 872.651901 275.004929 
L 867.118017 275.004929 
z
" clip-path="url(#p816f1e23ca)" style="fill: #8c564b"/>
   </g>
   <g id="patch_145">
    <path d="M 907.469256 276.637018 
L 913.00314 276.637018 
L 913.00314 273.192302 
L 907.469256 273.192302 
z
" clip-path="url(#p816f1e23ca)" style="fill: #8c564b"/>
   </g>
   <g id="patch_146">
    <path d="M 947.820496 274.54071 
L 953.35438 274.54071 
L 953.35438 271.414441 
L 947.820496 271.414441 
z
" clip-path="url(#p816f1e23ca)" style="fill: #8c564b"/>
   </g>
   <g id="patch_147">
    <path d="M 988.171736 272.4893 
L 993.70562 272.4893 
L 993.70562 269.670382 
L 988.171736 269.670382 
z
" clip-path="url(#p816f1e23ca)" style="fill: #8c564b"/>
   </g>
   <g id="patch_148">
    <path d="M 1028.522975 270.480227 
L 1034.05686 270.480227 
L 1034.05686 267.958749 
L 1028.522975 267.958749 
z
" clip-path="url(#p816f1e23ca)" style="fill: #8c564b"/>
   </g>
   <g id="patch_149">
    <path d="M 1068.874215 268.510912 
L 1074.408099 268.510912 
L 1074.408099 266.277943 
L 1068.874215 266.277943 
z
" clip-path="url(#p816f1e23ca)" style="fill: #8c564b"/>
   </g>
   <g id="patch_150">
    <path d="M 1109.225455 266.578834 
L 1114.759339 266.578834 
L 1114.759339 264.626255 
L 1109.225455 264.626255 
z
" clip-path="url(#p816f1e23ca)" style="fill: #8c564b"/>
   </g>
   <g id="patch_151">
    <path d="M 1149.576694 264.681574 
L 1155.110579 264.681574 
L 1155.110579 263.00195 
L 1149.576694 263.00195 
z
" clip-path="url(#p816f1e23ca)" style="fill: #8c564b"/>
   </g>
   <g id="patch_152">
    <path d="M 1189.927934 262.816841 
L 1195.461818 262.816841 
L 1195.461818 261.403318 
L 1189.927934 261.403318 
z
" clip-path="url(#p816f1e23ca)" style="fill: #8c564b"/>
   </g>
   <g id="patch_153">
    <path d="M 221.498182 208.97068 
L 227.032066 208.97068 
L 227.032066 161.953213 
L 221.498182 161.953213 
z
" clip-path="url(#p816f1e23ca)" style="fill: #e377c2"/>
   </g>
   <g id="patch_154">
    <path d="M 261.849421 266.061796 
L 267.383306 266.061796 
L 267.383306 216.682413 
L 261.849421 216.682413 
z
" clip-path="url(#p816f1e23ca)" style="fill: #e377c2"/>
   </g>
   <g id="patch_155">
    <path d="M 302.200661 285.140597 
L 307.734545 285.140597 
L 307.734545 235.17632 
L 302.200661 235.17632 
z
" clip-path="url(#p816f1e23ca)" style="fill: #e377c2"/>
   </g>
   <g id="patch_156">
    <path d="M 342.551901 292.05996 
L 348.085785 292.05996 
L 348.085785 242.017163 
L 342.551901 242.017163 
z
" clip-path="url(#p816f1e23ca)" style="fill: #e377c2"/>
   </g>
   <g id="patch_157">
    <path d="M 382.90314 294.255622 
L 388.437025 294.255622 
L 388.437025 244.308121 
L 382.90314 244.308121 
z
" clip-path="url(#p816f1e23ca)" style="fill: #e377c2"/>
   </g>
   <g id="patch_158">
    <path d="M 423.25438 294.363639 
L 428.788264 294.363639 
L 428.788264 244.579073 
L 423.25438 244.579073 
z
" clip-path="url(#p816f1e23ca)" style="fill: #e377c2"/>
   </g>
   <g id="patch_159">
    <path d="M 463.60562 293.454431 
L 469.139504 293.454431 
L 469.139504 243.860686 
L 463.60562 243.860686 
z
" clip-path="url(#p816f1e23ca)" style="fill: #e377c2"/>
   </g>
   <g id="patch_160">
    <path d="M 503.95686 292.01799 
L 509.490744 292.01799 
L 509.490744 242.625931 
L 503.95686 242.625931 
z
" clip-path="url(#p816f1e23ca)" style="fill: #e377c2"/>
   </g>
   <g id="patch_161">
    <path d="M 544.308099 290.301345 
L 549.841983 290.301345 
L 549.841983 241.113785 
L 544.308099 241.113785 
z
" clip-path="url(#p816f1e23ca)" style="fill: #e377c2"/>
   </g>
   <g id="patch_162">
    <path d="M 584.659339 288.438271 
L 590.193223 288.438271 
L 590.193223 239.453963 
L 584.659339 239.453963 
z
" clip-path="url(#p816f1e23ca)" style="fill: #e377c2"/>
   </g>
   <g id="patch_163">
    <path d="M 625.010579 286.50493 
L 630.544463 286.50493 
L 630.544463 237.720517 
L 625.010579 237.720517 
z
" clip-path="url(#p816f1e23ca)" style="fill: #e377c2"/>
   </g>
   <g id="patch_164">
    <path d="M 665.361818 284.546104 
L 670.895702 284.546104 
L 670.895702 235.957137 
L 665.361818 235.957137 
z
" clip-path="url(#p816f1e23ca)" style="fill: #e377c2"/>
   </g>
   <g id="patch_165">
    <path d="M 705.713058 282.588552 
L 711.246942 282.588552 
L 711.246942 234.190054 
L 705.713058 234.190054 
z
" clip-path="url(#p816f1e23ca)" style="fill: #e377c2"/>
   </g>
   <g id="patch_166">
    <path d="M 746.064298 280.648255 
L 751.598182 280.648255 
L 751.598182 232.435042 
L 746.064298 232.435042 
z
" clip-path="url(#p816f1e23ca)" style="fill: #e377c2"/>
   </g>
   <g id="patch_167">
    <path d="M 786.415537 278.734554 
L 791.949421 278.734554 
L 791.949421 230.701421 
L 786.415537 230.701421 
z
" clip-path="url(#p816f1e23ca)" style="fill: #e377c2"/>
   </g>
   <g id="patch_168">
    <path d="M 826.766777 276.852612 
L 832.300661 276.852612 
L 832.300661 228.994446 
L 826.766777 228.994446 
z
" clip-path="url(#p816f1e23ca)" style="fill: #e377c2"/>
   </g>
   <g id="patch_169">
    <path d="M 867.118017 275.004929 
L 872.651901 275.004929 
L 872.651901 227.316772 
L 867.118017 227.316772 
z
" clip-path="url(#p816f1e23ca)" style="fill: #e377c2"/>
   </g>
   <g id="patch_170">
    <path d="M 907.469256 273.192302 
L 913.00314 273.192302 
L 913.00314 225.669386 
L 907.469256 225.669386 
z
" clip-path="url(#p816f1e23ca)" style="fill: #e377c2"/>
   </g>
   <g id="patch_171">
    <path d="M 947.820496 271.414441 
L 953.35438 271.414441 
L 953.35438 224.052208 
L 947.820496 224.052208 
z
" clip-path="url(#p816f1e23ca)" style="fill: #e377c2"/>
   </g>
   <g id="patch_172">
    <path d="M 988.171736 269.670382 
L 993.70562 269.670382 
L 993.70562 222.464486 
L 988.171736 222.464486 
z
" clip-path="url(#p816f1e23ca)" style="fill: #e377c2"/>
   </g>
   <g id="patch_173">
    <path d="M 1028.522975 267.958749 
L 1034.05686 267.958749 
L 1034.05686 220.905063 
L 1028.522975 220.905063 
z
" clip-path="url(#p816f1e23ca)" style="fill: #e377c2"/>
   </g>
   <g id="patch_174">
    <path d="M 1068.874215 266.277943 
L 1074.408099 266.277943 
L 1074.408099 219.372548 
L 1068.874215 219.372548 
z
" clip-path="url(#p816f1e23ca)" style="fill: #e377c2"/>
   </g>
   <g id="patch_175">
    <path d="M 1109.225455 264.626255 
L 1114.759339 264.626255 
L 1114.759339 217.865435 
L 1109.225455 217.865435 
z
" clip-path="url(#p816f1e23ca)" style="fill: #e377c2"/>
   </g>
   <g id="patch_176">
    <path d="M 1149.576694 263.00195 
L 1155.110579 263.00195 
L 1155.110579 216.382185 
L 1149.576694 216.382185 
z
" clip-path="url(#p816f1e23ca)" style="fill: #e377c2"/>
   </g>
   <g id="patch_177">
    <path d="M 1189.927934 261.403318 
L 1195.461818 261.403318 
L 1195.461818 214.921272 
L 1189.927934 214.921272 
z
" clip-path="url(#p816f1e23ca)" style="fill: #e377c2"/>
   </g>
   <g id="patch_178">
    <path d="M 221.498182 161.953213 
L 227.032066 161.953213 
L 227.032066 136.536023 
L 221.498182 136.536023 
z
" clip-path="url(#p816f1e23ca)" style="fill: #7f7f7f"/>
   </g>
   <g id="patch_179">
    <path d="M 261.849421 216.682413 
L 267.383306 216.682413 
L 267.383306 205.201318 
L 261.849421 205.201318 
z
" clip-path="url(#p816f1e23ca)" style="fill: #7f7f7f"/>
   </g>
   <g id="patch_180">
    <path d="M 302.200661 235.17632 
L 307.734545 235.17632 
L 307.734545 228.356313 
L 302.200661 228.356313 
z
" clip-path="url(#p816f1e23ca)" style="fill: #7f7f7f"/>
   </g>
   <g id="patch_181">
    <path d="M 342.551901 242.017163 
L 348.085785 242.017163 
L 348.085785 237.237936 
L 342.551901 237.237936 
z
" clip-path="url(#p816f1e23ca)" style="fill: #7f7f7f"/>
   </g>
   <g id="patch_182">
    <path d="M 382.90314 244.308121 
L 388.437025 244.308121 
L 388.437025 240.631102 
L 382.90314 240.631102 
z
" clip-path="url(#p816f1e23ca)" style="fill: #7f7f7f"/>
   </g>
   <g id="patch_183">
    <path d="M 423.25438 244.579073 
L 428.788264 244.579073 
L 428.788264 241.593985 
L 423.25438 241.593985 
z
" clip-path="url(#p816f1e23ca)" style="fill: #7f7f7f"/>
   </g>
   <g id="patch_184">
    <path d="M 463.60562 243.860686 
L 469.139504 243.860686 
L 469.139504 241.356751 
L 463.60562 241.356751 
z
" clip-path="url(#p816f1e23ca)" style="fill: #7f7f7f"/>
   </g>
   <g id="patch_185">
    <path d="M 503.95686 242.625931 
L 509.490744 242.625931 
L 509.490744 240.480843 
L 503.95686 240.480843 
z
" clip-path="url(#p816f1e23ca)" style="fill: #7f7f7f"/>
   </g>
   <g id="patch_186">
    <path d="M 544.308099 241.113785 
L 549.841983 241.113785 
L 549.841983 239.249889 
L 544.308099 239.249889 
z
" clip-path="url(#p816f1e23ca)" style="fill: #7f7f7f"/>
   </g>
   <g id="patch_187">
    <path d="M 584.659339 239.453963 
L 590.193223 239.453963 
L 590.193223 237.818502 
L 584.659339 237.818502 
z
" clip-path="url(#p816f1e23ca)" style="fill: #7f7f7f"/>
   </g>
   <g id="patch_188">
    <path d="M 625.010579 237.720517 
L 630.544463 237.720517 
L 630.544463 236.275746 
L 625.010579 236.275746 
z
" clip-path="url(#p816f1e23ca)" style="fill: #7f7f7f"/>
   </g>
   <g id="patch_189">
    <path d="M 665.361818 235.957137 
L 670.895702 235.957137 
L 670.895702 234.674932 
L 665.361818 234.674932 
z
" clip-path="url(#p816f1e23ca)" style="fill: #7f7f7f"/>
   </g>
   <g id="patch_190">
    <path d="M 705.713058 234.190054 
L 711.246942 234.190054 
L 711.246942 233.048766 
L 705.713058 233.048766 
z
" clip-path="url(#p816f1e23ca)" style="fill: #7f7f7f"/>
   </g>
   <g id="patch_191">
    <path d="M 746.064298 232.435042 
L 751.598182 232.435042 
L 751.598182 231.417561 
L 746.064298 231.417561 
z
" clip-path="url(#p816f1e23ca)" style="fill: #7f7f7f"/>
   </g>
   <g id="patch_192">
    <path d="M 786.415537 230.701421 
L 791.949421 230.701421 
L 791.949421 229.793928 
L 786.415537 229.793928 
z
" clip-path="url(#p816f1e23ca)" style="fill: #7f7f7f"/>
   </g>
   <g id="patch_193">
    <path d="M 826.766777 228.994446 
L 832.300661 228.994446 
L 832.300661 228.185568 
L 826.766777 228.185568 
z
" clip-path="url(#p816f1e23ca)" style="fill: #7f7f7f"/>
   </g>
   <g id="patch_194">
    <path d="M 867.118017 227.316772 
L 872.651901 227.316772 
L 872.651901 226.597006 
L 867.118017 226.597006 
z
" clip-path="url(#p816f1e23ca)" style="fill: #7f7f7f"/>
   </g>
   <g id="patch_195">
    <path d="M 907.469256 225.669386 
L 913.00314 225.669386 
L 913.00314 225.030682 
L 907.469256 225.030682 
z
" clip-path="url(#p816f1e23ca)" style="fill: #7f7f7f"/>
   </g>
   <g id="patch_196">
    <path d="M 947.820496 224.052208 
L 953.35438 224.052208 
L 953.35438 223.48767 
L 947.820496 223.48767 
z
" clip-path="url(#p816f1e23ca)" style="fill: #7f7f7f"/>
   </g>
   <g id="patch_197">
    <path d="M 988.171736 222.464486 
L 993.70562 222.464486 
L 993.70562 221.968144 
L 988.171736 221.968144 
z
" clip-path="url(#p816f1e23ca)" style="fill: #7f7f7f"/>
   </g>
   <g id="patch_198">
    <path d="M 1028.522975 220.905063 
L 1034.05686 220.905063 
L 1034.05686 220.471703 
L 1028.522975 220.471703 
z
" clip-path="url(#p816f1e23ca)" style="fill: #7f7f7f"/>
   </g>
   <g id="patch_199">
    <path d="M 1068.874215 219.372548 
L 1074.408099 219.372548 
L 1074.408099 218.99758 
L 1068.874215 218.99758 
z
" clip-path="url(#p816f1e23ca)" style="fill: #7f7f7f"/>
   </g>
   <g id="patch_200">
    <path d="M 1109.225455 217.865435 
L 1114.759339 217.865435 
L 1114.759339 217.544791 
L 1109.225455 217.544791 
z
" clip-path="url(#p816f1e23ca)" style="fill: #7f7f7f"/>
   </g>
   <g id="patch_201">
    <path d="M 1149.576694 216.382185 
L 1155.110579 216.382185 
L 1155.110579 216.112234 
L 1149.576694 216.112234 
z
" clip-path="url(#p816f1e23ca)" style="fill: #7f7f7f"/>
   </g>
   <g id="patch_202">
    <path d="M 1189.927934 214.921272 
L 1195.461818 214.921272 
L 1195.461818 214.698756 
L 1189.927934 214.698756 
z
" clip-path="url(#p816f1e23ca)" style="fill: #7f7f7f"/>
   </g>
   <g id="patch_203">
    <path d="M 221.498182 136.536023 
L 227.032066 136.536023 
L 227.032066 114.492 
L 221.498182 114.492 
z
" clip-path="url(#p816f1e23ca)" style="fill: #bcbd22"/>
   </g>
   <g id="patch_204">
    <path d="M 261.849421 205.201318 
L 267.383306 205.201318 
L 267.383306 186.792419 
L 261.849421 186.792419 
z
" clip-path="url(#p816f1e23ca)" style="fill: #bcbd22"/>
   </g>
   <g id="patch_205">
    <path d="M 302.200661 228.356313 
L 307.734545 228.356313 
L 307.734545 213.578091 
L 302.200661 213.578091 
z
" clip-path="url(#p816f1e23ca)" style="fill: #bcbd22"/>
   </g>
   <g id="patch_206">
    <path d="M 342.551901 237.237936 
L 348.085785 237.237936 
L 348.085785 225.110566 
L 342.551901 225.110566 
z
" clip-path="url(#p816f1e23ca)" style="fill: #bcbd22"/>
   </g>
   <g id="patch_207">
    <path d="M 382.90314 240.631102 
L 388.437025 240.631102 
L 388.437025 230.405657 
L 382.90314 230.405657 
z
" clip-path="url(#p816f1e23ca)" style="fill: #bcbd22"/>
   </g>
   <g id="patch_208">
    <path d="M 423.25438 241.593985 
L 428.788264 241.593985 
L 428.788264 232.792887 
L 423.25438 232.792887 
z
" clip-path="url(#p816f1e23ca)" style="fill: #bcbd22"/>
   </g>
   <g id="patch_209">
    <path d="M 463.60562 241.356751 
L 469.139504 241.356751 
L 469.139504 233.670263 
L 463.60562 233.670263 
z
" clip-path="url(#p816f1e23ca)" style="fill: #bcbd22"/>
   </g>
   <g id="patch_210">
    <path d="M 503.95686 240.480843 
L 509.490744 240.480843 
L 509.490744 233.697767 
L 503.95686 233.697767 
z
" clip-path="url(#p816f1e23ca)" style="fill: #bcbd22"/>
   </g>
   <g id="patch_211">
    <path d="M 544.308099 239.249889 
L 549.841983 239.249889 
L 549.841983 233.21918 
L 544.308099 233.21918 
z
" clip-path="url(#p816f1e23ca)" style="fill: #bcbd22"/>
   </g>
   <g id="patch_212">
    <path d="M 584.659339 237.818502 
L 590.193223 237.818502 
L 590.193223 232.427812 
L 584.659339 232.427812 
z
" clip-path="url(#p816f1e23ca)" style="fill: #bcbd22"/>
   </g>
   <g id="patch_213">
    <path d="M 625.010579 236.275746 
L 630.544463 236.275746 
L 630.544463 231.438841 
L 625.010579 231.438841 
z
" clip-path="url(#p816f1e23ca)" style="fill: #bcbd22"/>
   </g>
   <g id="patch_214">
    <path d="M 665.361818 234.674932 
L 670.895702 234.674932 
L 670.895702 230.323933 
L 665.361818 230.323933 
z
" clip-path="url(#p816f1e23ca)" style="fill: #bcbd22"/>
   </g>
   <g id="patch_215">
    <path d="M 705.713058 233.048766 
L 711.246942 233.048766 
L 711.246942 229.129134 
L 705.713058 229.129134 
z
" clip-path="url(#p816f1e23ca)" style="fill: #bcbd22"/>
   </g>
   <g id="patch_216">
    <path d="M 746.064298 231.417561 
L 751.598182 231.417561 
L 751.598182 227.88472 
L 746.064298 227.88472 
z
" clip-path="url(#p816f1e23ca)" style="fill: #bcbd22"/>
   </g>
   <g id="patch_217">
    <path d="M 786.415537 229.793928 
L 791.949421 229.793928 
L 791.949421 226.610915 
L 786.415537 226.610915 
z
" clip-path="url(#p816f1e23ca)" style="fill: #bcbd22"/>
   </g>
   <g id="patch_218">
    <path d="M 826.766777 228.185568 
L 832.300661 228.185568 
L 832.300661 225.321353 
L 826.766777 225.321353 
z
" clip-path="url(#p816f1e23ca)" style="fill: #bcbd22"/>
   </g>
   <g id="patch_219">
    <path d="M 867.118017 226.597006 
L 872.651901 226.597006 
L 872.651901 224.025245 
L 867.118017 224.025245 
z
" clip-path="url(#p816f1e23ca)" style="fill: #bcbd22"/>
   </g>
   <g id="patch_220">
    <path d="M 907.469256 225.030682 
L 913.00314 225.030682 
L 913.00314 222.728795 
L 907.469256 222.728795 
z
" clip-path="url(#p816f1e23ca)" style="fill: #bcbd22"/>
   </g>
   <g id="patch_221">
    <path d="M 947.820496 223.48767 
L 953.35438 223.48767 
L 953.35438 221.436124 
L 947.820496 221.436124 
z
" clip-path="url(#p816f1e23ca)" style="fill: #bcbd22"/>
   </g>
   <g id="patch_222">
    <path d="M 988.171736 221.968144 
L 993.70562 221.968144 
L 993.70562 220.149908 
L 988.171736 220.149908 
z
" clip-path="url(#p816f1e23ca)" style="fill: #bcbd22"/>
   </g>
   <g id="patch_223">
    <path d="M 1028.522975 220.471703 
L 1034.05686 220.471703 
L 1034.05686 218.87181 
L 1028.522975 218.87181 
z
" clip-path="url(#p816f1e23ca)" style="fill: #bcbd22"/>
   </g>
   <g id="patch_224">
    <path d="M 1068.874215 218.99758 
L 1074.408099 218.99758 
L 1074.408099 217.602783 
L 1068.874215 217.602783 
z
" clip-path="url(#p816f1e23ca)" style="fill: #bcbd22"/>
   </g>
   <g id="patch_225">
    <path d="M 1109.225455 217.544791 
L 1114.759339 217.544791 
L 1114.759339 216.343288 
L 1109.225455 216.343288 
z
" clip-path="url(#p816f1e23ca)" style="fill: #bcbd22"/>
   </g>
   <g id="patch_226">
    <path d="M 1149.576694 216.112234 
L 1155.110579 216.112234 
L 1155.110579 215.093442 
L 1149.576694 215.093442 
z
" clip-path="url(#p816f1e23ca)" style="fill: #bcbd22"/>
   </g>
   <g id="patch_227">
    <path d="M 1189.927934 214.698756 
L 1195.461818 214.698756 
L 1195.461818 213.853131 
L 1189.927934 213.853131 
z
" clip-path="url(#p816f1e23ca)" style="fill: #bcbd22"/>
   </g>
   <g id="matplotlib.axis_1">
    <g id="xtick_1">
     <g id="line2d_1">
      <defs>
       <path id="m17ffd5c955" d="M 0 0 
L 0 3.5 
" style="stroke: #000000; stroke-width: 0.8"/>
      </defs>
      <g>
       <use xlink:href="#m17ffd5c955" x="224.265124" y="650.412" style="stroke: #000000; stroke-width: 0.8"/>
      </g>
     </g>
     <g id="text_1">
      <!-- 45 -->
      <g transform="translate(212.812624 671.089188) scale(0.18 -0.18)">
       <defs>
        <path id="DejaVuSans-34" d="M 2419 4116 
L 825 1625 
L 2419 1625 
L 2419 4116 
z
M 2253 4666 
L 3047 4666 
L 3047 1625 
L 3713 1625 
L 3713 1100 
L 3047 1100 
L 3047 0 
L 2419 0 
L 2419 1100 
L 313 1100 
L 313 1709 
L 2253 4666 
z
" transform="scale(0.015625)"/>
        <path id="DejaVuSans-35" d="M 691 4666 
L 3169 4666 
L 3169 4134 
L 1269 4134 
L 1269 2991 
Q 1406 3038 1543 3061 
Q 1681 3084 1819 3084 
Q 2600 3084 3056 2656 
Q 3513 2228 3513 1497 
Q 3513 744 3044 326 
Q 2575 -91 1722 -91 
Q 1428 -91 1123 -41 
Q 819 9 494 109 
L 494 744 
Q 775 591 1075 516 
Q 1375 441 1709 441 
Q 2250 441 2565 725 
Q 2881 1009 2881 1497 
Q 2881 1984 2565 2268 
Q 2250 2553 1709 2553 
Q 1456 2553 1204 2497 
Q 953 2441 691 2322 
L 691 4666 
z
" transform="scale(0.015625)"/>
       </defs>
       <use xlink:href="#DejaVuSans-34"/>
       <use xlink:href="#DejaVuSans-35" x="63.623047"/>
      </g>
     </g>
    </g>
    <g id="xtick_2">
     <g id="line2d_2">
      <g>
       <use xlink:href="#m17ffd5c955" x="362.612231" y="650.412" style="stroke: #000000; stroke-width: 0.8"/>
      </g>
     </g>
     <g id="text_2">
      <!-- 50 -->
      <g transform="translate(351.159731 671.089188) scale(0.18 -0.18)">
       <defs>
        <path id="DejaVuSans-30" d="M 2034 4250 
Q 1547 4250 1301 3770 
Q 1056 3291 1056 2328 
Q 1056 1369 1301 889 
Q 1547 409 2034 409 
Q 2525 409 2770 889 
Q 3016 1369 3016 2328 
Q 3016 3291 2770 3770 
Q 2525 4250 2034 4250 
z
M 2034 4750 
Q 2819 4750 3233 4129 
Q 3647 3509 3647 2328 
Q 3647 1150 3233 529 
Q 2819 -91 2034 -91 
Q 1250 -91 836 529 
Q 422 1150 422 2328 
Q 422 3509 836 4129 
Q 1250 4750 2034 4750 
z
" transform="scale(0.015625)"/>
       </defs>
       <use xlink:href="#DejaVuSans-35"/>
       <use xlink:href="#DejaVuSans-30" x="63.623047"/>
      </g>
     </g>
    </g>
    <g id="xtick_3">
     <g id="line2d_3">
      <g>
       <use xlink:href="#m17ffd5c955" x="500.959339" y="650.412" style="stroke: #000000; stroke-width: 0.8"/>
      </g>
     </g>
     <g id="text_3">
      <!-- 55 -->
      <g transform="translate(489.506839 671.089188) scale(0.18 -0.18)">
       <use xlink:href="#DejaVuSans-35"/>
       <use xlink:href="#DejaVuSans-35" x="63.623047"/>
      </g>
     </g>
    </g>
    <g id="xtick_4">
     <g id="line2d_4">
      <g>
       <use xlink:href="#m17ffd5c955" x="639.306446" y="650.412" style="stroke: #000000; stroke-width: 0.8"/>
      </g>
     </g>
     <g id="text_4">
      <!-- 60 -->
      <g transform="translate(627.853946 671.089188) scale(0.18 -0.18)">
       <defs>
        <path id="DejaVuSans-36" d="M 2113 2584 
Q 1688 2584 1439 2293 
Q 1191 2003 1191 1497 
Q 1191 994 1439 701 
Q 1688 409 2113 409 
Q 2538 409 2786 701 
Q 3034 994 3034 1497 
Q 3034 2003 2786 2293 
Q 2538 2584 2113 2584 
z
M 3366 4563 
L 3366 3988 
Q 3128 4100 2886 4159 
Q 2644 4219 2406 4219 
Q 1781 4219 1451 3797 
Q 1122 3375 1075 2522 
Q 1259 2794 1537 2939 
Q 1816 3084 2150 3084 
Q 2853 3084 3261 2657 
Q 3669 2231 3669 1497 
Q 3669 778 3244 343 
Q 2819 -91 2113 -91 
Q 1303 -91 875 529 
Q 447 1150 447 2328 
Q 447 3434 972 4092 
Q 1497 4750 2381 4750 
Q 2619 4750 2861 4703 
Q 3103 4656 3366 4563 
z
" transform="scale(0.015625)"/>
       </defs>
       <use xlink:href="#DejaVuSans-36"/>
       <use xlink:href="#DejaVuSans-30" x="63.623047"/>
      </g>
     </g>
    </g>
    <g id="xtick_5">
     <g id="line2d_5">
      <g>
       <use xlink:href="#m17ffd5c955" x="777.653554" y="650.412" style="stroke: #000000; stroke-width: 0.8"/>
      </g>
     </g>
     <g id="text_5">
      <!-- 65 -->
      <g transform="translate(766.201054 671.089188) scale(0.18 -0.18)">
       <use xlink:href="#DejaVuSans-36"/>
       <use xlink:href="#DejaVuSans-35" x="63.623047"/>
      </g>
     </g>
    </g>
    <g id="xtick_6">
     <g id="line2d_6">
      <g>
       <use xlink:href="#m17ffd5c955" x="916.000661" y="650.412" style="stroke: #000000; stroke-width: 0.8"/>
      </g>
     </g>
     <g id="text_6">
      <!-- 70 -->
      <g transform="translate(904.548161 671.089188) scale(0.18 -0.18)">
       <defs>
        <path id="DejaVuSans-37" d="M 525 4666 
L 3525 4666 
L 3525 4397 
L 1831 0 
L 1172 0 
L 2766 4134 
L 525 4134 
L 525 4666 
z
" transform="scale(0.015625)"/>
       </defs>
       <use xlink:href="#DejaVuSans-37"/>
       <use xlink:href="#DejaVuSans-30" x="63.623047"/>
      </g>
     </g>
    </g>
    <g id="xtick_7">
     <g id="line2d_7">
      <g>
       <use xlink:href="#m17ffd5c955" x="1054.347769" y="650.412" style="stroke: #000000; stroke-width: 0.8"/>
      </g>
     </g>
     <g id="text_7">
      <!-- 75 -->
      <g transform="translate(1042.895269 671.089188) scale(0.18 -0.18)">
       <use xlink:href="#DejaVuSans-37"/>
       <use xlink:href="#DejaVuSans-35" x="63.623047"/>
      </g>
     </g>
    </g>
    <g id="xtick_8">
     <g id="line2d_8">
      <g>
       <use xlink:href="#m17ffd5c955" x="1192.694876" y="650.412" style="stroke: #000000; stroke-width: 0.8"/>
      </g>
     </g>
     <g id="text_8">
      <!-- 80 -->
      <g transform="translate(1181.242376 671.089188) scale(0.18 -0.18)">
       <defs>
        <path id="DejaVuSans-38" d="M 2034 2216 
Q 1584 2216 1326 1975 
Q 1069 1734 1069 1313 
Q 1069 891 1326 650 
Q 1584 409 2034 409 
Q 2484 409 2743 651 
Q 3003 894 3003 1313 
Q 3003 1734 2745 1975 
Q 2488 2216 2034 2216 
z
M 1403 2484 
Q 997 2584 770 2862 
Q 544 3141 544 3541 
Q 544 4100 942 4425 
Q 1341 4750 2034 4750 
Q 2731 4750 3128 4425 
Q 3525 4100 3525 3541 
Q 3525 3141 3298 2862 
Q 3072 2584 2669 2484 
Q 3125 2378 3379 2068 
Q 3634 1759 3634 1313 
Q 3634 634 3220 271 
Q 2806 -91 2034 -91 
Q 1263 -91 848 271 
Q 434 634 434 1313 
Q 434 1759 690 2068 
Q 947 2378 1403 2484 
z
M 1172 3481 
Q 1172 3119 1398 2916 
Q 1625 2713 2034 2713 
Q 2441 2713 2670 2916 
Q 2900 3119 2900 3481 
Q 2900 3844 2670 4047 
Q 2441 4250 2034 4250 
Q 1625 4250 1398 4047 
Q 1172 3844 1172 3481 
z
" transform="scale(0.015625)"/>
       </defs>
       <use xlink:href="#DejaVuSans-38"/>
       <use xlink:href="#DejaVuSans-30" x="63.623047"/>
      </g>
     </g>
    </g>
    <g id="text_9">
     <!-- Kondensatordruck in bar -->
     <g transform="translate(597.950156 692.509813) scale(0.18 -0.18)">
      <defs>
       <path id="DejaVuSans-4b" d="M 628 4666 
L 1259 4666 
L 1259 2694 
L 3353 4666 
L 4166 4666 
L 1850 2491 
L 4331 0 
L 3500 0 
L 1259 2247 
L 1259 0 
L 628 0 
L 628 4666 
z
" transform="scale(0.015625)"/>
       <path id="DejaVuSans-6f" d="M 1959 3097 
Q 1497 3097 1228 2736 
Q 959 2375 959 1747 
Q 959 1119 1226 758 
Q 1494 397 1959 397 
Q 2419 397 2687 759 
Q 2956 1122 2956 1747 
Q 2956 2369 2687 2733 
Q 2419 3097 1959 3097 
z
M 1959 3584 
Q 2709 3584 3137 3096 
Q 3566 2609 3566 1747 
Q 3566 888 3137 398 
Q 2709 -91 1959 -91 
Q 1206 -91 779 398 
Q 353 888 353 1747 
Q 353 2609 779 3096 
Q 1206 3584 1959 3584 
z
" transform="scale(0.015625)"/>
       <path id="DejaVuSans-6e" d="M 3513 2113 
L 3513 0 
L 2938 0 
L 2938 2094 
Q 2938 2591 2744 2837 
Q 2550 3084 2163 3084 
Q 1697 3084 1428 2787 
Q 1159 2491 1159 1978 
L 1159 0 
L 581 0 
L 581 3500 
L 1159 3500 
L 1159 2956 
Q 1366 3272 1645 3428 
Q 1925 3584 2291 3584 
Q 2894 3584 3203 3211 
Q 3513 2838 3513 2113 
z
" transform="scale(0.015625)"/>
       <path id="DejaVuSans-64" d="M 2906 2969 
L 2906 4863 
L 3481 4863 
L 3481 0 
L 2906 0 
L 2906 525 
Q 2725 213 2448 61 
Q 2172 -91 1784 -91 
Q 1150 -91 751 415 
Q 353 922 353 1747 
Q 353 2572 751 3078 
Q 1150 3584 1784 3584 
Q 2172 3584 2448 3432 
Q 2725 3281 2906 2969 
z
M 947 1747 
Q 947 1113 1208 752 
Q 1469 391 1925 391 
Q 2381 391 2643 752 
Q 2906 1113 2906 1747 
Q 2906 2381 2643 2742 
Q 2381 3103 1925 3103 
Q 1469 3103 1208 2742 
Q 947 2381 947 1747 
z
" transform="scale(0.015625)"/>
       <path id="DejaVuSans-65" d="M 3597 1894 
L 3597 1613 
L 953 1613 
Q 991 1019 1311 708 
Q 1631 397 2203 397 
Q 2534 397 2845 478 
Q 3156 559 3463 722 
L 3463 178 
Q 3153 47 2828 -22 
Q 2503 -91 2169 -91 
Q 1331 -91 842 396 
Q 353 884 353 1716 
Q 353 2575 817 3079 
Q 1281 3584 2069 3584 
Q 2775 3584 3186 3129 
Q 3597 2675 3597 1894 
z
M 3022 2063 
Q 3016 2534 2758 2815 
Q 2500 3097 2075 3097 
Q 1594 3097 1305 2825 
Q 1016 2553 972 2059 
L 3022 2063 
z
" transform="scale(0.015625)"/>
       <path id="DejaVuSans-73" d="M 2834 3397 
L 2834 2853 
Q 2591 2978 2328 3040 
Q 2066 3103 1784 3103 
Q 1356 3103 1142 2972 
Q 928 2841 928 2578 
Q 928 2378 1081 2264 
Q 1234 2150 1697 2047 
L 1894 2003 
Q 2506 1872 2764 1633 
Q 3022 1394 3022 966 
Q 3022 478 2636 193 
Q 2250 -91 1575 -91 
Q 1294 -91 989 -36 
Q 684 19 347 128 
L 347 722 
Q 666 556 975 473 
Q 1284 391 1588 391 
Q 1994 391 2212 530 
Q 2431 669 2431 922 
Q 2431 1156 2273 1281 
Q 2116 1406 1581 1522 
L 1381 1569 
Q 847 1681 609 1914 
Q 372 2147 372 2553 
Q 372 3047 722 3315 
Q 1072 3584 1716 3584 
Q 2034 3584 2315 3537 
Q 2597 3491 2834 3397 
z
" transform="scale(0.015625)"/>
       <path id="DejaVuSans-61" d="M 2194 1759 
Q 1497 1759 1228 1600 
Q 959 1441 959 1056 
Q 959 750 1161 570 
Q 1363 391 1709 391 
Q 2188 391 2477 730 
Q 2766 1069 2766 1631 
L 2766 1759 
L 2194 1759 
z
M 3341 1997 
L 3341 0 
L 2766 0 
L 2766 531 
Q 2569 213 2275 61 
Q 1981 -91 1556 -91 
Q 1019 -91 701 211 
Q 384 513 384 1019 
Q 384 1609 779 1909 
Q 1175 2209 1959 2209 
L 2766 2209 
L 2766 2266 
Q 2766 2663 2505 2880 
Q 2244 3097 1772 3097 
Q 1472 3097 1187 3025 
Q 903 2953 641 2809 
L 641 3341 
Q 956 3463 1253 3523 
Q 1550 3584 1831 3584 
Q 2591 3584 2966 3190 
Q 3341 2797 3341 1997 
z
" transform="scale(0.015625)"/>
       <path id="DejaVuSans-74" d="M 1172 4494 
L 1172 3500 
L 2356 3500 
L 2356 3053 
L 1172 3053 
L 1172 1153 
Q 1172 725 1289 603 
Q 1406 481 1766 481 
L 2356 481 
L 2356 0 
L 1766 0 
Q 1100 0 847 248 
Q 594 497 594 1153 
L 594 3053 
L 172 3053 
L 172 3500 
L 594 3500 
L 594 4494 
L 1172 4494 
z
" transform="scale(0.015625)"/>
       <path id="DejaVuSans-72" d="M 2631 2963 
Q 2534 3019 2420 3045 
Q 2306 3072 2169 3072 
Q 1681 3072 1420 2755 
Q 1159 2438 1159 1844 
L 1159 0 
L 581 0 
L 581 3500 
L 1159 3500 
L 1159 2956 
Q 1341 3275 1631 3429 
Q 1922 3584 2338 3584 
Q 2397 3584 2469 3576 
Q 2541 3569 2628 3553 
L 2631 2963 
z
" transform="scale(0.015625)"/>
       <path id="DejaVuSans-75" d="M 544 1381 
L 544 3500 
L 1119 3500 
L 1119 1403 
Q 1119 906 1312 657 
Q 1506 409 1894 409 
Q 2359 409 2629 706 
Q 2900 1003 2900 1516 
L 2900 3500 
L 3475 3500 
L 3475 0 
L 2900 0 
L 2900 538 
Q 2691 219 2414 64 
Q 2138 -91 1772 -91 
Q 1169 -91 856 284 
Q 544 659 544 1381 
z
M 1991 3584 
L 1991 3584 
z
" transform="scale(0.015625)"/>
       <path id="DejaVuSans-63" d="M 3122 3366 
L 3122 2828 
Q 2878 2963 2633 3030 
Q 2388 3097 2138 3097 
Q 1578 3097 1268 2742 
Q 959 2388 959 1747 
Q 959 1106 1268 751 
Q 1578 397 2138 397 
Q 2388 397 2633 464 
Q 2878 531 3122 666 
L 3122 134 
Q 2881 22 2623 -34 
Q 2366 -91 2075 -91 
Q 1284 -91 818 406 
Q 353 903 353 1747 
Q 353 2603 823 3093 
Q 1294 3584 2113 3584 
Q 2378 3584 2631 3529 
Q 2884 3475 3122 3366 
z
" transform="scale(0.015625)"/>
       <path id="DejaVuSans-6b" d="M 581 4863 
L 1159 4863 
L 1159 1991 
L 2875 3500 
L 3609 3500 
L 1753 1863 
L 3688 0 
L 2938 0 
L 1159 1709 
L 1159 0 
L 581 0 
L 581 4863 
z
" transform="scale(0.015625)"/>
       <path id="DejaVuSans-20" transform="scale(0.015625)"/>
       <path id="DejaVuSans-69" d="M 603 3500 
L 1178 3500 
L 1178 0 
L 603 0 
L 603 3500 
z
M 603 4863 
L 1178 4863 
L 1178 4134 
L 603 4134 
L 603 4863 
z
" transform="scale(0.015625)"/>
       <path id="DejaVuSans-62" d="M 3116 1747 
Q 3116 2381 2855 2742 
Q 2594 3103 2138 3103 
Q 1681 3103 1420 2742 
Q 1159 2381 1159 1747 
Q 1159 1113 1420 752 
Q 1681 391 2138 391 
Q 2594 391 2855 752 
Q 3116 1113 3116 1747 
z
M 1159 2969 
Q 1341 3281 1617 3432 
Q 1894 3584 2278 3584 
Q 2916 3584 3314 3078 
Q 3713 2572 3713 1747 
Q 3713 922 3314 415 
Q 2916 -91 2278 -91 
Q 1894 -91 1617 61 
Q 1341 213 1159 525 
L 1159 0 
L 581 0 
L 581 4863 
L 1159 4863 
L 1159 2969 
z
" transform="scale(0.015625)"/>
      </defs>
      <use xlink:href="#DejaVuSans-4b"/>
      <use xlink:href="#DejaVuSans-6f" x="60.576172"/>
      <use xlink:href="#DejaVuSans-6e" x="121.757812"/>
      <use xlink:href="#DejaVuSans-64" x="185.136719"/>
      <use xlink:href="#DejaVuSans-65" x="248.613281"/>
      <use xlink:href="#DejaVuSans-6e" x="310.136719"/>
      <use xlink:href="#DejaVuSans-73" x="373.515625"/>
      <use xlink:href="#DejaVuSans-61" x="425.615234"/>
      <use xlink:href="#DejaVuSans-74" x="486.894531"/>
      <use xlink:href="#DejaVuSans-6f" x="526.103516"/>
      <use xlink:href="#DejaVuSans-72" x="587.285156"/>
      <use xlink:href="#DejaVuSans-64" x="626.648438"/>
      <use xlink:href="#DejaVuSans-72" x="690.125"/>
      <use xlink:href="#DejaVuSans-75" x="731.238281"/>
      <use xlink:href="#DejaVuSans-63" x="794.617188"/>
      <use xlink:href="#DejaVuSans-6b" x="849.597656"/>
      <use xlink:href="#DejaVuSans-20" x="907.507812"/>
      <use xlink:href="#DejaVuSans-69" x="939.294922"/>
      <use xlink:href="#DejaVuSans-6e" x="967.078125"/>
      <use xlink:href="#DejaVuSans-20" x="1030.457031"/>
      <use xlink:href="#DejaVuSans-62" x="1062.244141"/>
      <use xlink:href="#DejaVuSans-61" x="1125.720703"/>
      <use xlink:href="#DejaVuSans-72" x="1187"/>
     </g>
    </g>
   </g>
   <g id="matplotlib.axis_2">
    <g id="ytick_1">
     <g id="line2d_9">
      <defs>
       <path id="m2a79ad9c34" d="M 0 0 
L -3.5 0 
" style="stroke: #000000; stroke-width: 0.8"/>
      </defs>
      <g>
       <use xlink:href="#m2a79ad9c34" x="172.8" y="650.412" style="stroke: #000000; stroke-width: 0.8"/>
      </g>
     </g>
     <g id="text_10">
      <!-- 0.0 -->
      <g transform="translate(137.174375 657.250594) scale(0.18 -0.18)">
       <defs>
        <path id="DejaVuSans-2e" d="M 684 794 
L 1344 794 
L 1344 0 
L 684 0 
L 684 794 
z
" transform="scale(0.015625)"/>
       </defs>
       <use xlink:href="#DejaVuSans-30"/>
       <use xlink:href="#DejaVuSans-2e" x="63.623047"/>
       <use xlink:href="#DejaVuSans-30" x="95.410156"/>
      </g>
     </g>
    </g>
    <g id="ytick_2">
     <g id="line2d_10">
      <g>
       <use xlink:href="#m2a79ad9c34" x="172.8" y="530.580272" style="stroke: #000000; stroke-width: 0.8"/>
      </g>
     </g>
     <g id="text_11">
      <!-- 0.5 -->
      <g transform="translate(137.174375 537.418866) scale(0.18 -0.18)">
       <use xlink:href="#DejaVuSans-30"/>
       <use xlink:href="#DejaVuSans-2e" x="63.623047"/>
       <use xlink:href="#DejaVuSans-35" x="95.410156"/>
      </g>
     </g>
    </g>
    <g id="ytick_3">
     <g id="line2d_11">
      <g>
       <use xlink:href="#m2a79ad9c34" x="172.8" y="410.748544" style="stroke: #000000; stroke-width: 0.8"/>
      </g>
     </g>
     <g id="text_12">
      <!-- 1.0 -->
      <g transform="translate(137.174375 417.587138) scale(0.18 -0.18)">
       <defs>
        <path id="DejaVuSans-31" d="M 794 531 
L 1825 531 
L 1825 4091 
L 703 3866 
L 703 4441 
L 1819 4666 
L 2450 4666 
L 2450 531 
L 3481 531 
L 3481 0 
L 794 0 
L 794 531 
z
" transform="scale(0.015625)"/>
       </defs>
       <use xlink:href="#DejaVuSans-31"/>
       <use xlink:href="#DejaVuSans-2e" x="63.623047"/>
       <use xlink:href="#DejaVuSans-30" x="95.410156"/>
      </g>
     </g>
    </g>
    <g id="ytick_4">
     <g id="line2d_12">
      <g>
       <use xlink:href="#m2a79ad9c34" x="172.8" y="290.916816" style="stroke: #000000; stroke-width: 0.8"/>
      </g>
     </g>
     <g id="text_13">
      <!-- 1.5 -->
      <g transform="translate(137.174375 297.75541) scale(0.18 -0.18)">
       <use xlink:href="#DejaVuSans-31"/>
       <use xlink:href="#DejaVuSans-2e" x="63.623047"/>
       <use xlink:href="#DejaVuSans-35" x="95.410156"/>
      </g>
     </g>
    </g>
    <g id="ytick_5">
     <g id="line2d_13">
      <g>
       <use xlink:href="#m2a79ad9c34" x="172.8" y="171.085088" style="stroke: #000000; stroke-width: 0.8"/>
      </g>
     </g>
     <g id="text_14">
      <!-- 2.0 -->
      <g transform="translate(137.174375 177.923682) scale(0.18 -0.18)">
       <defs>
        <path id="DejaVuSans-32" d="M 1228 531 
L 3431 531 
L 3431 0 
L 469 0 
L 469 531 
Q 828 903 1448 1529 
Q 2069 2156 2228 2338 
Q 2531 2678 2651 2914 
Q 2772 3150 2772 3378 
Q 2772 3750 2511 3984 
Q 2250 4219 1831 4219 
Q 1534 4219 1204 4116 
Q 875 4013 500 3803 
L 500 4441 
Q 881 4594 1212 4672 
Q 1544 4750 1819 4750 
Q 2544 4750 2975 4387 
Q 3406 4025 3406 3419 
Q 3406 3131 3298 2873 
Q 3191 2616 2906 2266 
Q 2828 2175 2409 1742 
Q 1991 1309 1228 531 
z
" transform="scale(0.015625)"/>
       </defs>
       <use xlink:href="#DejaVuSans-32"/>
       <use xlink:href="#DejaVuSans-2e" x="63.623047"/>
       <use xlink:href="#DejaVuSans-30" x="95.410156"/>
      </g>
     </g>
    </g>
    <g id="text_15">
     <!-- Exergievernichtung in MW -->
     <g transform="translate(129.430937 487.119938) rotate(-90) scale(0.18 -0.18)">
      <defs>
       <path id="DejaVuSans-45" d="M 628 4666 
L 3578 4666 
L 3578 4134 
L 1259 4134 
L 1259 2753 
L 3481 2753 
L 3481 2222 
L 1259 2222 
L 1259 531 
L 3634 531 
L 3634 0 
L 628 0 
L 628 4666 
z
" transform="scale(0.015625)"/>
       <path id="DejaVuSans-78" d="M 3513 3500 
L 2247 1797 
L 3578 0 
L 2900 0 
L 1881 1375 
L 863 0 
L 184 0 
L 1544 1831 
L 300 3500 
L 978 3500 
L 1906 2253 
L 2834 3500 
L 3513 3500 
z
" transform="scale(0.015625)"/>
       <path id="DejaVuSans-67" d="M 2906 1791 
Q 2906 2416 2648 2759 
Q 2391 3103 1925 3103 
Q 1463 3103 1205 2759 
Q 947 2416 947 1791 
Q 947 1169 1205 825 
Q 1463 481 1925 481 
Q 2391 481 2648 825 
Q 2906 1169 2906 1791 
z
M 3481 434 
Q 3481 -459 3084 -895 
Q 2688 -1331 1869 -1331 
Q 1566 -1331 1297 -1286 
Q 1028 -1241 775 -1147 
L 775 -588 
Q 1028 -725 1275 -790 
Q 1522 -856 1778 -856 
Q 2344 -856 2625 -561 
Q 2906 -266 2906 331 
L 2906 616 
Q 2728 306 2450 153 
Q 2172 0 1784 0 
Q 1141 0 747 490 
Q 353 981 353 1791 
Q 353 2603 747 3093 
Q 1141 3584 1784 3584 
Q 2172 3584 2450 3431 
Q 2728 3278 2906 2969 
L 2906 3500 
L 3481 3500 
L 3481 434 
z
" transform="scale(0.015625)"/>
       <path id="DejaVuSans-76" d="M 191 3500 
L 800 3500 
L 1894 563 
L 2988 3500 
L 3597 3500 
L 2284 0 
L 1503 0 
L 191 3500 
z
" transform="scale(0.015625)"/>
       <path id="DejaVuSans-68" d="M 3513 2113 
L 3513 0 
L 2938 0 
L 2938 2094 
Q 2938 2591 2744 2837 
Q 2550 3084 2163 3084 
Q 1697 3084 1428 2787 
Q 1159 2491 1159 1978 
L 1159 0 
L 581 0 
L 581 4863 
L 1159 4863 
L 1159 2956 
Q 1366 3272 1645 3428 
Q 1925 3584 2291 3584 
Q 2894 3584 3203 3211 
Q 3513 2838 3513 2113 
z
" transform="scale(0.015625)"/>
       <path id="DejaVuSans-4d" d="M 628 4666 
L 1569 4666 
L 2759 1491 
L 3956 4666 
L 4897 4666 
L 4897 0 
L 4281 0 
L 4281 4097 
L 3078 897 
L 2444 897 
L 1241 4097 
L 1241 0 
L 628 0 
L 628 4666 
z
" transform="scale(0.015625)"/>
       <path id="DejaVuSans-57" d="M 213 4666 
L 850 4666 
L 1831 722 
L 2809 4666 
L 3519 4666 
L 4500 722 
L 5478 4666 
L 6119 4666 
L 4947 0 
L 4153 0 
L 3169 4050 
L 2175 0 
L 1381 0 
L 213 4666 
z
" transform="scale(0.015625)"/>
      </defs>
      <use xlink:href="#DejaVuSans-45"/>
      <use xlink:href="#DejaVuSans-78" x="63.183594"/>
      <use xlink:href="#DejaVuSans-65" x="119.238281"/>
      <use xlink:href="#DejaVuSans-72" x="180.761719"/>
      <use xlink:href="#DejaVuSans-67" x="220.125"/>
      <use xlink:href="#DejaVuSans-69" x="283.601562"/>
      <use xlink:href="#DejaVuSans-65" x="311.384766"/>
      <use xlink:href="#DejaVuSans-76" x="372.908203"/>
      <use xlink:href="#DejaVuSans-65" x="432.087891"/>
      <use xlink:href="#DejaVuSans-72" x="493.611328"/>
      <use xlink:href="#DejaVuSans-6e" x="532.974609"/>
      <use xlink:href="#DejaVuSans-69" x="596.353516"/>
      <use xlink:href="#DejaVuSans-63" x="624.136719"/>
      <use xlink:href="#DejaVuSans-68" x="679.117188"/>
      <use xlink:href="#DejaVuSans-74" x="742.496094"/>
      <use xlink:href="#DejaVuSans-75" x="781.705078"/>
      <use xlink:href="#DejaVuSans-6e" x="845.083984"/>
      <use xlink:href="#DejaVuSans-67" x="908.462891"/>
      <use xlink:href="#DejaVuSans-20" x="971.939453"/>
      <use xlink:href="#DejaVuSans-69" x="1003.726562"/>
      <use xlink:href="#DejaVuSans-6e" x="1031.509766"/>
      <use xlink:href="#DejaVuSans-20" x="1094.888672"/>
      <use xlink:href="#DejaVuSans-4d" x="1126.675781"/>
      <use xlink:href="#DejaVuSans-57" x="1212.955078"/>
     </g>
    </g>
   </g>
   <g id="patch_228">
    <path d="M 172.8 650.412 
L 172.8 87.696 
" style="fill: none; stroke: #000000; stroke-width: 0.8; stroke-linejoin: miter; stroke-linecap: square"/>
   </g>
   <g id="patch_229">
    <path d="M 1244.16 650.412 
L 1244.16 87.696 
" style="fill: none; stroke: #000000; stroke-width: 0.8; stroke-linejoin: miter; stroke-linecap: square"/>
   </g>
   <g id="patch_230">
    <path d="M 172.8 650.412 
L 1244.16 650.412 
" style="fill: none; stroke: #000000; stroke-width: 0.8; stroke-linejoin: miter; stroke-linecap: square"/>
   </g>
   <g id="patch_231">
    <path d="M 172.8 87.696 
L 1244.16 87.696 
" style="fill: none; stroke: #000000; stroke-width: 0.8; stroke-linejoin: miter; stroke-linecap: square"/>
   </g>
   <g id="legend_1">
    <g id="patch_232">
     <path d="M 185.4 490.646813 
L 479.044687 490.646813 
Q 482.644687 490.646813 482.644687 487.046813 
L 482.644687 251.061188 
Q 482.644687 247.461188 479.044687 247.461188 
L 185.4 247.461188 
Q 181.8 247.461188 181.8 251.061188 
L 181.8 487.046813 
Q 181.8 490.646813 185.4 490.646813 
z
" style="fill: #ffffff; opacity: 0.8; stroke: #cccccc; stroke-linejoin: miter"/>
    </g>
    <g id="patch_233">
     <path d="M 189 268.338375 
L 225 268.338375 
L 225 255.738375 
L 189 255.738375 
z
" style="fill: #1f77b4"/>
    </g>
    <g id="text_16">
     <!-- Gas cooler -->
     <g transform="translate(239.4 268.338375) scale(0.18 -0.18)">
      <defs>
       <path id="DejaVuSans-47" d="M 3809 666 
L 3809 1919 
L 2778 1919 
L 2778 2438 
L 4434 2438 
L 4434 434 
Q 4069 175 3628 42 
Q 3188 -91 2688 -91 
Q 1594 -91 976 548 
Q 359 1188 359 2328 
Q 359 3472 976 4111 
Q 1594 4750 2688 4750 
Q 3144 4750 3555 4637 
Q 3966 4525 4313 4306 
L 4313 3634 
Q 3963 3931 3569 4081 
Q 3175 4231 2741 4231 
Q 1884 4231 1454 3753 
Q 1025 3275 1025 2328 
Q 1025 1384 1454 906 
Q 1884 428 2741 428 
Q 3075 428 3337 486 
Q 3600 544 3809 666 
z
" transform="scale(0.015625)"/>
       <path id="DejaVuSans-6c" d="M 603 4863 
L 1178 4863 
L 1178 0 
L 603 0 
L 603 4863 
z
" transform="scale(0.015625)"/>
      </defs>
      <use xlink:href="#DejaVuSans-47"/>
      <use xlink:href="#DejaVuSans-61" x="77.490234"/>
      <use xlink:href="#DejaVuSans-73" x="138.769531"/>
      <use xlink:href="#DejaVuSans-20" x="190.869141"/>
      <use xlink:href="#DejaVuSans-63" x="222.65625"/>
      <use xlink:href="#DejaVuSans-6f" x="277.636719"/>
      <use xlink:href="#DejaVuSans-6f" x="338.818359"/>
      <use xlink:href="#DejaVuSans-6c" x="400"/>
      <use xlink:href="#DejaVuSans-65" x="427.783203"/>
      <use xlink:href="#DejaVuSans-72" x="489.306641"/>
     </g>
    </g>
    <g id="patch_234">
     <path d="M 189 294.759 
L 225 294.759 
L 225 282.159 
L 189 282.159 
z
" style="fill: #ff7f0e"/>
    </g>
    <g id="text_17">
     <!-- Evaporator -->
     <g transform="translate(239.4 294.759) scale(0.18 -0.18)">
      <defs>
       <path id="DejaVuSans-70" d="M 1159 525 
L 1159 -1331 
L 581 -1331 
L 581 3500 
L 1159 3500 
L 1159 2969 
Q 1341 3281 1617 3432 
Q 1894 3584 2278 3584 
Q 2916 3584 3314 3078 
Q 3713 2572 3713 1747 
Q 3713 922 3314 415 
Q 2916 -91 2278 -91 
Q 1894 -91 1617 61 
Q 1341 213 1159 525 
z
M 3116 1747 
Q 3116 2381 2855 2742 
Q 2594 3103 2138 3103 
Q 1681 3103 1420 2742 
Q 1159 2381 1159 1747 
Q 1159 1113 1420 752 
Q 1681 391 2138 391 
Q 2594 391 2855 752 
Q 3116 1113 3116 1747 
z
" transform="scale(0.015625)"/>
      </defs>
      <use xlink:href="#DejaVuSans-45"/>
      <use xlink:href="#DejaVuSans-76" x="63.183594"/>
      <use xlink:href="#DejaVuSans-61" x="122.363281"/>
      <use xlink:href="#DejaVuSans-70" x="183.642578"/>
      <use xlink:href="#DejaVuSans-6f" x="247.119141"/>
      <use xlink:href="#DejaVuSans-72" x="308.300781"/>
      <use xlink:href="#DejaVuSans-61" x="349.414062"/>
      <use xlink:href="#DejaVuSans-74" x="410.693359"/>
      <use xlink:href="#DejaVuSans-6f" x="449.902344"/>
      <use xlink:href="#DejaVuSans-72" x="511.083984"/>
     </g>
    </g>
    <g id="patch_235">
     <path d="M 189 321.179625 
L 225 321.179625 
L 225 308.579625 
L 189 308.579625 
z
" style="fill: #2ca02c"/>
    </g>
    <g id="text_18">
     <!-- Valve 1 -->
     <g transform="translate(239.4 321.179625) scale(0.18 -0.18)">
      <defs>
       <path id="DejaVuSans-56" d="M 1831 0 
L 50 4666 
L 709 4666 
L 2188 738 
L 3669 4666 
L 4325 4666 
L 2547 0 
L 1831 0 
z
" transform="scale(0.015625)"/>
      </defs>
      <use xlink:href="#DejaVuSans-56"/>
      <use xlink:href="#DejaVuSans-61" x="60.658203"/>
      <use xlink:href="#DejaVuSans-6c" x="121.9375"/>
      <use xlink:href="#DejaVuSans-76" x="149.720703"/>
      <use xlink:href="#DejaVuSans-65" x="208.900391"/>
      <use xlink:href="#DejaVuSans-20" x="270.423828"/>
      <use xlink:href="#DejaVuSans-31" x="302.210938"/>
     </g>
    </g>
    <g id="patch_236">
     <path d="M 189 347.60025 
L 225 347.60025 
L 225 335.00025 
L 189 335.00025 
z
" style="fill: #d62728"/>
    </g>
    <g id="text_19">
     <!-- Valve 2 -->
     <g transform="translate(239.4 347.60025) scale(0.18 -0.18)">
      <use xlink:href="#DejaVuSans-56"/>
      <use xlink:href="#DejaVuSans-61" x="60.658203"/>
      <use xlink:href="#DejaVuSans-6c" x="121.9375"/>
      <use xlink:href="#DejaVuSans-76" x="149.720703"/>
      <use xlink:href="#DejaVuSans-65" x="208.900391"/>
      <use xlink:href="#DejaVuSans-20" x="270.423828"/>
      <use xlink:href="#DejaVuSans-32" x="302.210938"/>
     </g>
    </g>
    <g id="patch_237">
     <path d="M 189 374.020875 
L 225 374.020875 
L 225 361.420875 
L 189 361.420875 
z
" style="fill: #9467bd"/>
    </g>
    <g id="text_20">
     <!-- Compressor 1 -->
     <g transform="translate(239.4 374.020875) scale(0.18 -0.18)">
      <defs>
       <path id="DejaVuSans-43" d="M 4122 4306 
L 4122 3641 
Q 3803 3938 3442 4084 
Q 3081 4231 2675 4231 
Q 1875 4231 1450 3742 
Q 1025 3253 1025 2328 
Q 1025 1406 1450 917 
Q 1875 428 2675 428 
Q 3081 428 3442 575 
Q 3803 722 4122 1019 
L 4122 359 
Q 3791 134 3420 21 
Q 3050 -91 2638 -91 
Q 1578 -91 968 557 
Q 359 1206 359 2328 
Q 359 3453 968 4101 
Q 1578 4750 2638 4750 
Q 3056 4750 3426 4639 
Q 3797 4528 4122 4306 
z
" transform="scale(0.015625)"/>
       <path id="DejaVuSans-6d" d="M 3328 2828 
Q 3544 3216 3844 3400 
Q 4144 3584 4550 3584 
Q 5097 3584 5394 3201 
Q 5691 2819 5691 2113 
L 5691 0 
L 5113 0 
L 5113 2094 
Q 5113 2597 4934 2840 
Q 4756 3084 4391 3084 
Q 3944 3084 3684 2787 
Q 3425 2491 3425 1978 
L 3425 0 
L 2847 0 
L 2847 2094 
Q 2847 2600 2669 2842 
Q 2491 3084 2119 3084 
Q 1678 3084 1418 2786 
Q 1159 2488 1159 1978 
L 1159 0 
L 581 0 
L 581 3500 
L 1159 3500 
L 1159 2956 
Q 1356 3278 1631 3431 
Q 1906 3584 2284 3584 
Q 2666 3584 2933 3390 
Q 3200 3197 3328 2828 
z
" transform="scale(0.015625)"/>
      </defs>
      <use xlink:href="#DejaVuSans-43"/>
      <use xlink:href="#DejaVuSans-6f" x="69.824219"/>
      <use xlink:href="#DejaVuSans-6d" x="131.005859"/>
      <use xlink:href="#DejaVuSans-70" x="228.417969"/>
      <use xlink:href="#DejaVuSans-72" x="291.894531"/>
      <use xlink:href="#DejaVuSans-65" x="330.757812"/>
      <use xlink:href="#DejaVuSans-73" x="392.28125"/>
      <use xlink:href="#DejaVuSans-73" x="444.380859"/>
      <use xlink:href="#DejaVuSans-6f" x="496.480469"/>
      <use xlink:href="#DejaVuSans-72" x="557.662109"/>
      <use xlink:href="#DejaVuSans-20" x="598.775391"/>
      <use xlink:href="#DejaVuSans-31" x="630.5625"/>
     </g>
    </g>
    <g id="patch_238">
     <path d="M 189 400.4415 
L 225 400.4415 
L 225 387.8415 
L 189 387.8415 
z
" style="fill: #8c564b"/>
    </g>
    <g id="text_21">
     <!-- Compressor 2 -->
     <g transform="translate(239.4 400.4415) scale(0.18 -0.18)">
      <use xlink:href="#DejaVuSans-43"/>
      <use xlink:href="#DejaVuSans-6f" x="69.824219"/>
      <use xlink:href="#DejaVuSans-6d" x="131.005859"/>
      <use xlink:href="#DejaVuSans-70" x="228.417969"/>
      <use xlink:href="#DejaVuSans-72" x="291.894531"/>
      <use xlink:href="#DejaVuSans-65" x="330.757812"/>
      <use xlink:href="#DejaVuSans-73" x="392.28125"/>
      <use xlink:href="#DejaVuSans-73" x="444.380859"/>
      <use xlink:href="#DejaVuSans-6f" x="496.480469"/>
      <use xlink:href="#DejaVuSans-72" x="557.662109"/>
      <use xlink:href="#DejaVuSans-20" x="598.775391"/>
      <use xlink:href="#DejaVuSans-32" x="630.5625"/>
     </g>
    </g>
    <g id="patch_239">
     <path d="M 189 426.862125 
L 225 426.862125 
L 225 414.262125 
L 189 414.262125 
z
" style="fill: #e377c2"/>
    </g>
    <g id="text_22">
     <!-- Internal Heat Exchanger 1 -->
     <g transform="translate(239.4 426.862125) scale(0.18 -0.18)">
      <defs>
       <path id="DejaVuSans-49" d="M 628 4666 
L 1259 4666 
L 1259 0 
L 628 0 
L 628 4666 
z
" transform="scale(0.015625)"/>
       <path id="DejaVuSans-48" d="M 628 4666 
L 1259 4666 
L 1259 2753 
L 3553 2753 
L 3553 4666 
L 4184 4666 
L 4184 0 
L 3553 0 
L 3553 2222 
L 1259 2222 
L 1259 0 
L 628 0 
L 628 4666 
z
" transform="scale(0.015625)"/>
      </defs>
      <use xlink:href="#DejaVuSans-49"/>
      <use xlink:href="#DejaVuSans-6e" x="29.492188"/>
      <use xlink:href="#DejaVuSans-74" x="92.871094"/>
      <use xlink:href="#DejaVuSans-65" x="132.080078"/>
      <use xlink:href="#DejaVuSans-72" x="193.603516"/>
      <use xlink:href="#DejaVuSans-6e" x="232.966797"/>
      <use xlink:href="#DejaVuSans-61" x="296.345703"/>
      <use xlink:href="#DejaVuSans-6c" x="357.625"/>
      <use xlink:href="#DejaVuSans-20" x="385.408203"/>
      <use xlink:href="#DejaVuSans-48" x="417.195312"/>
      <use xlink:href="#DejaVuSans-65" x="492.390625"/>
      <use xlink:href="#DejaVuSans-61" x="553.914062"/>
      <use xlink:href="#DejaVuSans-74" x="615.193359"/>
      <use xlink:href="#DejaVuSans-20" x="654.402344"/>
      <use xlink:href="#DejaVuSans-45" x="686.189453"/>
      <use xlink:href="#DejaVuSans-78" x="749.373047"/>
      <use xlink:href="#DejaVuSans-63" x="806.802734"/>
      <use xlink:href="#DejaVuSans-68" x="861.783203"/>
      <use xlink:href="#DejaVuSans-61" x="925.162109"/>
      <use xlink:href="#DejaVuSans-6e" x="986.441406"/>
      <use xlink:href="#DejaVuSans-67" x="1049.820312"/>
      <use xlink:href="#DejaVuSans-65" x="1113.296875"/>
      <use xlink:href="#DejaVuSans-72" x="1174.820312"/>
      <use xlink:href="#DejaVuSans-20" x="1215.933594"/>
      <use xlink:href="#DejaVuSans-31" x="1247.720703"/>
     </g>
    </g>
    <g id="patch_240">
     <path d="M 189 453.28275 
L 225 453.28275 
L 225 440.68275 
L 189 440.68275 
z
" style="fill: #7f7f7f"/>
    </g>
    <g id="text_23">
     <!-- Internal Heat Exchanger 2 -->
     <g transform="translate(239.4 453.28275) scale(0.18 -0.18)">
      <use xlink:href="#DejaVuSans-49"/>
      <use xlink:href="#DejaVuSans-6e" x="29.492188"/>
      <use xlink:href="#DejaVuSans-74" x="92.871094"/>
      <use xlink:href="#DejaVuSans-65" x="132.080078"/>
      <use xlink:href="#DejaVuSans-72" x="193.603516"/>
      <use xlink:href="#DejaVuSans-6e" x="232.966797"/>
      <use xlink:href="#DejaVuSans-61" x="296.345703"/>
      <use xlink:href="#DejaVuSans-6c" x="357.625"/>
      <use xlink:href="#DejaVuSans-20" x="385.408203"/>
      <use xlink:href="#DejaVuSans-48" x="417.195312"/>
      <use xlink:href="#DejaVuSans-65" x="492.390625"/>
      <use xlink:href="#DejaVuSans-61" x="553.914062"/>
      <use xlink:href="#DejaVuSans-74" x="615.193359"/>
      <use xlink:href="#DejaVuSans-20" x="654.402344"/>
      <use xlink:href="#DejaVuSans-45" x="686.189453"/>
      <use xlink:href="#DejaVuSans-78" x="749.373047"/>
      <use xlink:href="#DejaVuSans-63" x="806.802734"/>
      <use xlink:href="#DejaVuSans-68" x="861.783203"/>
      <use xlink:href="#DejaVuSans-61" x="925.162109"/>
      <use xlink:href="#DejaVuSans-6e" x="986.441406"/>
      <use xlink:href="#DejaVuSans-67" x="1049.820312"/>
      <use xlink:href="#DejaVuSans-65" x="1113.296875"/>
      <use xlink:href="#DejaVuSans-72" x="1174.820312"/>
      <use xlink:href="#DejaVuSans-20" x="1215.933594"/>
      <use xlink:href="#DejaVuSans-32" x="1247.720703"/>
     </g>
    </g>
    <g id="patch_241">
     <path d="M 189 479.703375 
L 225 479.703375 
L 225 467.103375 
L 189 467.103375 
z
" style="fill: #bcbd22"/>
    </g>
    <g id="text_24">
     <!-- Merge -->
     <g transform="translate(239.4 479.703375) scale(0.18 -0.18)">
      <use xlink:href="#DejaVuSans-4d"/>
      <use xlink:href="#DejaVuSans-65" x="86.279297"/>
      <use xlink:href="#DejaVuSans-72" x="147.802734"/>
      <use xlink:href="#DejaVuSans-67" x="187.166016"/>
      <use xlink:href="#DejaVuSans-65" x="250.642578"/>
     </g>
    </g>
   </g>
  </g>
 </g>
 <defs>
  <clipPath id="p816f1e23ca">
   <rect x="172.8" y="87.696" width="1071.36" height="562.716"/>
  </clipPath>
 </defs>
</svg>
