<?xml version="1.0" encoding="utf-8" standalone="no"?>
<!DOCTYPE svg PUBLIC "-//W3C//DTD SVG 1.1//EN"
  "http://www.w3.org/Graphics/SVG/1.1/DTD/svg11.dtd">
<svg xmlns:xlink="http://www.w3.org/1999/xlink" width="1382.4pt" height="730.8pt" viewBox="0 0 1382.4 730.8" xmlns="http://www.w3.org/2000/svg" version="1.1">
 <metadata>
  <rdf:RDF xmlns:dc="http://purl.org/dc/elements/1.1/" xmlns:cc="http://creativecommons.org/ns#" xmlns:rdf="http://www.w3.org/1999/02/22-rdf-syntax-ns#">
   <cc:Work>
    <dc:type rdf:resource="http://purl.org/dc/dcmitype/StillImage"/>
    <dc:date>2023-03-01T20:12:17.415131</dc:date>
    <dc:format>image/svg+xml</dc:format>
    <dc:creator>
     <cc:Agent>
      <dc:title>Matplotlib v3.6.1, https://matplotlib.org/</dc:title>
     </cc:Agent>
    </dc:creator>
   </cc:Work>
  </rdf:RDF>
 </metadata>
 <defs>
  <style type="text/css">*{stroke-linejoin: round; stroke-linecap: butt}</style>
 </defs>
 <g id="figure_1">
  <g id="patch_1">
   <path d="M 0 730.8 
L 1382.4 730.8 
L 1382.4 0 
L 0 0 
z
" style="fill: #ffffff"/>
  </g>
  <g id="axes_1">
   <g id="patch_2">
    <path d="M 172.8 650.412 
L 1244.16 650.412 
L 1244.16 87.696 
L 172.8 87.696 
z
" style="fill: #ffffff"/>
   </g>
   <g id="patch_3">
    <path d="M 221.498182 650.412 
L 238.89039 650.412 
L 238.89039 588.007945 
L 221.498182 588.007945 
z
" clip-path="url(#pb979cc37f1)" style="fill: #1f77b4"/>
   </g>
   <g id="patch_4">
    <path d="M 271.844046 650.412 
L 289.236254 650.412 
L 289.236254 585.152414 
L 271.844046 585.152414 
z
" clip-path="url(#pb979cc37f1)" style="fill: #1f77b4"/>
   </g>
   <g id="patch_5">
    <path d="M 322.189911 650.412 
L 339.582119 650.412 
L 339.582119 582.427765 
L 322.189911 582.427765 
z
" clip-path="url(#pb979cc37f1)" style="fill: #1f77b4"/>
   </g>
   <g id="patch_6">
    <path d="M 372.535776 650.412 
L 389.927984 650.412 
L 389.927984 579.861527 
L 372.535776 579.861527 
z
" clip-path="url(#pb979cc37f1)" style="fill: #1f77b4"/>
   </g>
   <g id="patch_7">
    <path d="M 422.88164 650.412 
L 440.273848 650.412 
L 440.273848 577.459085 
L 422.88164 577.459085 
z
" clip-path="url(#pb979cc37f1)" style="fill: #1f77b4"/>
   </g>
   <g id="patch_8">
    <path d="M 473.227505 650.412 
L 490.619713 650.412 
L 490.619713 575.217723 
L 473.227505 575.217723 
z
" clip-path="url(#pb979cc37f1)" style="fill: #1f77b4"/>
   </g>
   <g id="patch_9">
    <path d="M 523.57337 650.412 
L 540.965578 650.412 
L 540.965578 573.131389 
L 523.57337 573.131389 
z
" clip-path="url(#pb979cc37f1)" style="fill: #1f77b4"/>
   </g>
   <g id="patch_10">
    <path d="M 573.919234 650.412 
L 591.311442 650.412 
L 591.311442 571.192721 
L 573.919234 571.192721 
z
" clip-path="url(#pb979cc37f1)" style="fill: #1f77b4"/>
   </g>
   <g id="patch_11">
    <path d="M 624.265099 650.412 
L 641.657307 650.412 
L 641.657307 569.393872 
L 624.265099 569.393872 
z
" clip-path="url(#pb979cc37f1)" style="fill: #1f77b4"/>
   </g>
   <g id="patch_12">
    <path d="M 674.610964 650.412 
L 692.003172 650.412 
L 692.003172 567.726967 
L 674.610964 567.726967 
z
" clip-path="url(#pb979cc37f1)" style="fill: #1f77b4"/>
   </g>
   <g id="patch_13">
    <path d="M 724.956828 650.412 
L 742.349036 650.412 
L 742.349036 566.184321 
L 724.956828 566.184321 
z
" clip-path="url(#pb979cc37f1)" style="fill: #1f77b4"/>
   </g>
   <g id="patch_14">
    <path d="M 775.302693 650.412 
L 792.694901 650.412 
L 792.694901 564.758539 
L 775.302693 564.758539 
z
" clip-path="url(#pb979cc37f1)" style="fill: #1f77b4"/>
   </g>
   <g id="patch_15">
    <path d="M 825.648558 650.412 
L 843.040766 650.412 
L 843.040766 563.442572 
L 825.648558 563.442572 
z
" clip-path="url(#pb979cc37f1)" style="fill: #1f77b4"/>
   </g>
   <g id="patch_16">
    <path d="M 875.994422 650.412 
L 893.38663 650.412 
L 893.38663 562.22973 
L 875.994422 562.22973 
z
" clip-path="url(#pb979cc37f1)" style="fill: #1f77b4"/>
   </g>
   <g id="patch_17">
    <path d="M 926.340287 650.412 
L 943.732495 650.412 
L 943.732495 561.113682 
L 926.340287 561.113682 
z
" clip-path="url(#pb979cc37f1)" style="fill: #1f77b4"/>
   </g>
   <g id="patch_18">
    <path d="M 976.686152 650.412 
L 994.07836 650.412 
L 994.07836 560.088453 
L 976.686152 560.088453 
z
" clip-path="url(#pb979cc37f1)" style="fill: #1f77b4"/>
   </g>
   <g id="patch_19">
    <path d="M 1027.032016 650.412 
L 1044.424224 650.412 
L 1044.424224 559.148402 
L 1027.032016 559.148402 
z
" clip-path="url(#pb979cc37f1)" style="fill: #1f77b4"/>
   </g>
   <g id="patch_20">
    <path d="M 1077.377881 650.412 
L 1094.770089 650.412 
L 1094.770089 558.288211 
L 1077.377881 558.288211 
z
" clip-path="url(#pb979cc37f1)" style="fill: #1f77b4"/>
   </g>
   <g id="patch_21">
    <path d="M 1127.723746 650.412 
L 1145.115954 650.412 
L 1145.115954 557.50287 
L 1127.723746 557.50287 
z
" clip-path="url(#pb979cc37f1)" style="fill: #1f77b4"/>
   </g>
   <g id="patch_22">
    <path d="M 1178.06961 650.412 
L 1195.461818 650.412 
L 1195.461818 556.787654 
L 1178.06961 556.787654 
z
" clip-path="url(#pb979cc37f1)" style="fill: #1f77b4"/>
   </g>
   <g id="patch_23">
    <path d="M 221.498182 588.007945 
L 238.89039 588.007945 
L 238.89039 559.467222 
L 221.498182 559.467222 
z
" clip-path="url(#pb979cc37f1)" style="fill: #ff7f0e"/>
   </g>
   <g id="patch_24">
    <path d="M 271.844046 585.152414 
L 289.236254 585.152414 
L 289.236254 556.72435 
L 271.844046 556.72435 
z
" clip-path="url(#pb979cc37f1)" style="fill: #ff7f0e"/>
   </g>
   <g id="patch_25">
    <path d="M 322.189911 582.427765 
L 339.582119 582.427765 
L 339.582119 554.109139 
L 322.189911 554.109139 
z
" clip-path="url(#pb979cc37f1)" style="fill: #ff7f0e"/>
   </g>
   <g id="patch_26">
    <path d="M 372.535776 579.861527 
L 389.927984 579.861527 
L 389.927984 551.648585 
L 372.535776 551.648585 
z
" clip-path="url(#pb979cc37f1)" style="fill: #ff7f0e"/>
   </g>
   <g id="patch_27">
    <path d="M 422.88164 577.459085 
L 440.273848 577.459085 
L 440.273848 549.348 
L 422.88164 549.348 
z
" clip-path="url(#pb979cc37f1)" style="fill: #ff7f0e"/>
   </g>
   <g id="patch_28">
    <path d="M 473.227505 575.217723 
L 490.619713 575.217723 
L 490.619713 547.204758 
L 473.227505 547.204758 
z
" clip-path="url(#pb979cc37f1)" style="fill: #ff7f0e"/>
   </g>
   <g id="patch_29">
    <path d="M 523.57337 573.131389 
L 540.965578 573.131389 
L 540.965578 545.212957 
L 523.57337 545.212957 
z
" clip-path="url(#pb979cc37f1)" style="fill: #ff7f0e"/>
   </g>
   <g id="patch_30">
    <path d="M 573.919234 571.192721 
L 591.311442 571.192721 
L 591.311442 543.365409 
L 573.919234 543.365409 
z
" clip-path="url(#pb979cc37f1)" style="fill: #ff7f0e"/>
   </g>
   <g id="patch_31">
    <path d="M 624.265099 569.393872 
L 641.657307 569.393872 
L 641.657307 541.654442 
L 624.265099 541.654442 
z
" clip-path="url(#pb979cc37f1)" style="fill: #ff7f0e"/>
   </g>
   <g id="patch_32">
    <path d="M 674.610964 567.726967 
L 692.003172 567.726967 
L 692.003172 540.072353 
L 674.610964 540.072353 
z
" clip-path="url(#pb979cc37f1)" style="fill: #ff7f0e"/>
   </g>
   <g id="patch_33">
    <path d="M 724.956828 566.184321 
L 742.349036 566.184321 
L 742.349036 538.611623 
L 724.956828 538.611623 
z
" clip-path="url(#pb979cc37f1)" style="fill: #ff7f0e"/>
   </g>
   <g id="patch_34">
    <path d="M 775.302693 564.758539 
L 792.694901 564.758539 
L 792.694901 537.265016 
L 775.302693 537.265016 
z
" clip-path="url(#pb979cc37f1)" style="fill: #ff7f0e"/>
   </g>
   <g id="patch_35">
    <path d="M 825.648558 563.442572 
L 843.040766 563.442572 
L 843.040766 536.025628 
L 825.648558 536.025628 
z
" clip-path="url(#pb979cc37f1)" style="fill: #ff7f0e"/>
   </g>
   <g id="patch_36">
    <path d="M 875.994422 562.22973 
L 893.38663 562.22973 
L 893.38663 534.886909 
L 875.994422 534.886909 
z
" clip-path="url(#pb979cc37f1)" style="fill: #ff7f0e"/>
   </g>
   <g id="patch_37">
    <path d="M 926.340287 561.113682 
L 943.732495 561.113682 
L 943.732495 533.842659 
L 926.340287 533.842659 
z
" clip-path="url(#pb979cc37f1)" style="fill: #ff7f0e"/>
   </g>
   <g id="patch_38">
    <path d="M 976.686152 560.088453 
L 994.07836 560.088453 
L 994.07836 532.887022 
L 976.686152 532.887022 
z
" clip-path="url(#pb979cc37f1)" style="fill: #ff7f0e"/>
   </g>
   <g id="patch_39">
    <path d="M 1027.032016 559.148402 
L 1044.424224 559.148402 
L 1044.424224 532.014473 
L 1027.032016 532.014473 
z
" clip-path="url(#pb979cc37f1)" style="fill: #ff7f0e"/>
   </g>
   <g id="patch_40">
    <path d="M 1077.377881 558.288211 
L 1094.770089 558.288211 
L 1094.770089 531.219802 
L 1077.377881 531.219802 
z
" clip-path="url(#pb979cc37f1)" style="fill: #ff7f0e"/>
   </g>
   <g id="patch_41">
    <path d="M 1127.723746 557.50287 
L 1145.115954 557.50287 
L 1145.115954 530.498095 
L 1127.723746 530.498095 
z
" clip-path="url(#pb979cc37f1)" style="fill: #ff7f0e"/>
   </g>
   <g id="patch_42">
    <path d="M 1178.06961 556.787654 
L 1195.461818 556.787654 
L 1195.461818 529.844722 
L 1178.06961 529.844722 
z
" clip-path="url(#pb979cc37f1)" style="fill: #ff7f0e"/>
   </g>
   <g id="patch_43">
    <path d="M 221.498182 559.467222 
L 238.89039 559.467222 
L 238.89039 495.700522 
L 221.498182 495.700522 
z
" clip-path="url(#pb979cc37f1)" style="fill: #2ca02c"/>
   </g>
   <g id="patch_44">
    <path d="M 271.844046 556.72435 
L 289.236254 556.72435 
L 289.236254 493.209355 
L 271.844046 493.209355 
z
" clip-path="url(#pb979cc37f1)" style="fill: #2ca02c"/>
   </g>
   <g id="patch_45">
    <path d="M 322.189911 554.109139 
L 339.582119 554.109139 
L 339.582119 490.838656 
L 322.189911 490.838656 
z
" clip-path="url(#pb979cc37f1)" style="fill: #2ca02c"/>
   </g>
   <g id="patch_46">
    <path d="M 372.535776 551.648585 
L 389.927984 551.648585 
L 389.927984 488.614222 
L 372.535776 488.614222 
z
" clip-path="url(#pb979cc37f1)" style="fill: #2ca02c"/>
   </g>
   <g id="patch_47">
    <path d="M 422.88164 549.348 
L 440.273848 549.348 
L 440.273848 486.54121 
L 422.88164 486.54121 
z
" clip-path="url(#pb979cc37f1)" style="fill: #2ca02c"/>
   </g>
   <g id="patch_48">
    <path d="M 473.227505 547.204758 
L 490.619713 547.204758 
L 490.619713 484.617193 
L 473.227505 484.617193 
z
" clip-path="url(#pb979cc37f1)" style="fill: #2ca02c"/>
   </g>
   <g id="patch_49">
    <path d="M 523.57337 545.212957 
L 540.965578 545.212957 
L 540.965578 482.836602 
L 523.57337 482.836602 
z
" clip-path="url(#pb979cc37f1)" style="fill: #2ca02c"/>
   </g>
   <g id="patch_50">
    <path d="M 573.919234 543.365409 
L 591.311442 543.365409 
L 591.311442 481.192636 
L 573.919234 481.192636 
z
" clip-path="url(#pb979cc37f1)" style="fill: #2ca02c"/>
   </g>
   <g id="patch_51">
    <path d="M 624.265099 541.654442 
L 641.657307 541.654442 
L 641.657307 479.678017 
L 624.265099 479.678017 
z
" clip-path="url(#pb979cc37f1)" style="fill: #2ca02c"/>
   </g>
   <g id="patch_52">
    <path d="M 674.610964 540.072353 
L 692.003172 540.072353 
L 692.003172 478.285428 
L 674.610964 478.285428 
z
" clip-path="url(#pb979cc37f1)" style="fill: #2ca02c"/>
   </g>
   <g id="patch_53">
    <path d="M 724.956828 538.611623 
L 742.349036 538.611623 
L 742.349036 477.007719 
L 724.956828 477.007719 
z
" clip-path="url(#pb979cc37f1)" style="fill: #2ca02c"/>
   </g>
   <g id="patch_54">
    <path d="M 775.302693 537.265016 
L 792.694901 537.265016 
L 792.694901 475.838005 
L 775.302693 475.838005 
z
" clip-path="url(#pb979cc37f1)" style="fill: #2ca02c"/>
   </g>
   <g id="patch_55">
    <path d="M 825.648558 536.025628 
L 843.040766 536.025628 
L 843.040766 474.769714 
L 825.648558 474.769714 
z
" clip-path="url(#pb979cc37f1)" style="fill: #2ca02c"/>
   </g>
   <g id="patch_56">
    <path d="M 875.994422 534.886909 
L 893.38663 534.886909 
L 893.38663 473.796604 
L 875.994422 473.796604 
z
" clip-path="url(#pb979cc37f1)" style="fill: #2ca02c"/>
   </g>
   <g id="patch_57">
    <path d="M 926.340287 533.842659 
L 943.732495 533.842659 
L 943.732495 472.912765 
L 926.340287 472.912765 
z
" clip-path="url(#pb979cc37f1)" style="fill: #2ca02c"/>
   </g>
   <g id="patch_58">
    <path d="M 976.686152 532.887022 
L 994.07836 532.887022 
L 994.07836 472.112615 
L 976.686152 472.112615 
z
" clip-path="url(#pb979cc37f1)" style="fill: #2ca02c"/>
   </g>
   <g id="patch_59">
    <path d="M 1027.032016 532.014473 
L 1044.424224 532.014473 
L 1044.424224 471.390882 
L 1027.032016 471.390882 
z
" clip-path="url(#pb979cc37f1)" style="fill: #2ca02c"/>
   </g>
   <g id="patch_60">
    <path d="M 1077.377881 531.219802 
L 1094.770089 531.219802 
L 1094.770089 470.742594 
L 1077.377881 470.742594 
z
" clip-path="url(#pb979cc37f1)" style="fill: #2ca02c"/>
   </g>
   <g id="patch_61">
    <path d="M 1127.723746 530.498095 
L 1145.115954 530.498095 
L 1145.115954 470.163061 
L 1127.723746 470.163061 
z
" clip-path="url(#pb979cc37f1)" style="fill: #2ca02c"/>
   </g>
   <g id="patch_62">
    <path d="M 1178.06961 529.844722 
L 1195.461818 529.844722 
L 1195.461818 469.647863 
L 1178.06961 469.647863 
z
" clip-path="url(#pb979cc37f1)" style="fill: #2ca02c"/>
   </g>
   <g id="patch_63">
    <path d="M 221.498182 495.700522 
L 238.89039 495.700522 
L 238.89039 469.835935 
L 221.498182 469.835935 
z
" clip-path="url(#pb979cc37f1)" style="fill: #d62728"/>
   </g>
   <g id="patch_64">
    <path d="M 271.844046 493.209355 
L 289.236254 493.209355 
L 289.236254 466.543415 
L 271.844046 466.543415 
z
" clip-path="url(#pb979cc37f1)" style="fill: #d62728"/>
   </g>
   <g id="patch_65">
    <path d="M 322.189911 490.838656 
L 339.582119 490.838656 
L 339.582119 463.202481 
L 322.189911 463.202481 
z
" clip-path="url(#pb979cc37f1)" style="fill: #d62728"/>
   </g>
   <g id="patch_66">
    <path d="M 372.535776 488.614222 
L 389.927984 488.614222 
L 389.927984 459.918623 
L 372.535776 459.918623 
z
" clip-path="url(#pb979cc37f1)" style="fill: #d62728"/>
   </g>
   <g id="patch_67">
    <path d="M 422.88164 486.54121 
L 440.273848 486.54121 
L 440.273848 456.734504 
L 422.88164 456.734504 
z
" clip-path="url(#pb979cc37f1)" style="fill: #d62728"/>
   </g>
   <g id="patch_68">
    <path d="M 473.227505 484.617193 
L 490.619713 484.617193 
L 490.619713 453.668104 
L 473.227505 453.668104 
z
" clip-path="url(#pb979cc37f1)" style="fill: #d62728"/>
   </g>
   <g id="patch_69">
    <path d="M 523.57337 482.836602 
L 540.965578 482.836602 
L 540.965578 450.726014 
L 523.57337 450.726014 
z
" clip-path="url(#pb979cc37f1)" style="fill: #d62728"/>
   </g>
   <g id="patch_70">
    <path d="M 573.919234 481.192636 
L 591.311442 481.192636 
L 591.311442 447.909147 
L 573.919234 447.909147 
z
" clip-path="url(#pb979cc37f1)" style="fill: #d62728"/>
   </g>
   <g id="patch_71">
    <path d="M 624.265099 479.678017 
L 641.657307 479.678017 
L 641.657307 445.215301 
L 624.265099 445.215301 
z
" clip-path="url(#pb979cc37f1)" style="fill: #d62728"/>
   </g>
   <g id="patch_72">
    <path d="M 674.610964 478.285428 
L 692.003172 478.285428 
L 692.003172 442.640629 
L 674.610964 442.640629 
z
" clip-path="url(#pb979cc37f1)" style="fill: #d62728"/>
   </g>
   <g id="patch_73">
    <path d="M 724.956828 477.007719 
L 742.349036 477.007719 
L 742.349036 440.180399 
L 724.956828 440.180399 
z
" clip-path="url(#pb979cc37f1)" style="fill: #d62728"/>
   </g>
   <g id="patch_74">
    <path d="M 775.302693 475.838005 
L 792.694901 475.838005 
L 792.694901 437.82944 
L 775.302693 437.82944 
z
" clip-path="url(#pb979cc37f1)" style="fill: #d62728"/>
   </g>
   <g id="patch_75">
    <path d="M 825.648558 474.769714 
L 843.040766 474.769714 
L 843.040766 435.582407 
L 825.648558 435.582407 
z
" clip-path="url(#pb979cc37f1)" style="fill: #d62728"/>
   </g>
   <g id="patch_76">
    <path d="M 875.994422 473.796604 
L 893.38663 473.796604 
L 893.38663 433.433946 
L 875.994422 433.433946 
z
" clip-path="url(#pb979cc37f1)" style="fill: #d62728"/>
   </g>
   <g id="patch_77">
    <path d="M 926.340287 472.912765 
L 943.732495 472.912765 
L 943.732495 431.378783 
L 926.340287 431.378783 
z
" clip-path="url(#pb979cc37f1)" style="fill: #d62728"/>
   </g>
   <g id="patch_78">
    <path d="M 976.686152 472.112615 
L 994.07836 472.112615 
L 994.07836 429.411793 
L 976.686152 429.411793 
z
" clip-path="url(#pb979cc37f1)" style="fill: #d62728"/>
   </g>
   <g id="patch_79">
    <path d="M 1027.032016 471.390882 
L 1044.424224 471.390882 
L 1044.424224 427.528027 
L 1027.032016 427.528027 
z
" clip-path="url(#pb979cc37f1)" style="fill: #d62728"/>
   </g>
   <g id="patch_80">
    <path d="M 1077.377881 470.742594 
L 1094.770089 470.742594 
L 1094.770089 425.722737 
L 1077.377881 425.722737 
z
" clip-path="url(#pb979cc37f1)" style="fill: #d62728"/>
   </g>
   <g id="patch_81">
    <path d="M 1127.723746 470.163061 
L 1145.115954 470.163061 
L 1145.115954 423.991381 
L 1127.723746 423.991381 
z
" clip-path="url(#pb979cc37f1)" style="fill: #d62728"/>
   </g>
   <g id="patch_82">
    <path d="M 1178.06961 469.647863 
L 1195.461818 469.647863 
L 1195.461818 422.329629 
L 1178.06961 422.329629 
z
" clip-path="url(#pb979cc37f1)" style="fill: #d62728"/>
   </g>
   <g id="patch_83">
    <path d="M 221.498182 469.835935 
L 238.89039 469.835935 
L 238.89039 255.080942 
L 221.498182 255.080942 
z
" clip-path="url(#pb979cc37f1)" style="fill: #9467bd"/>
   </g>
   <g id="patch_84">
    <path d="M 271.844046 466.543415 
L 289.236254 466.543415 
L 289.236254 250.441178 
L 271.844046 250.441178 
z
" clip-path="url(#pb979cc37f1)" style="fill: #9467bd"/>
   </g>
   <g id="patch_85">
    <path d="M 322.189911 463.202481 
L 339.582119 463.202481 
L 339.582119 245.822519 
L 322.189911 245.822519 
z
" clip-path="url(#pb979cc37f1)" style="fill: #9467bd"/>
   </g>
   <g id="patch_86">
    <path d="M 372.535776 459.918623 
L 389.927984 459.918623 
L 389.927984 241.320997 
L 372.535776 241.320997 
z
" clip-path="url(#pb979cc37f1)" style="fill: #9467bd"/>
   </g>
   <g id="patch_87">
    <path d="M 422.88164 456.734504 
L 440.273848 456.734504 
L 440.273848 236.973631 
L 422.88164 236.973631 
z
" clip-path="url(#pb979cc37f1)" style="fill: #9467bd"/>
   </g>
   <g id="patch_88">
    <path d="M 473.227505 453.668104 
L 490.619713 453.668104 
L 490.619713 232.794296 
L 473.227505 232.794296 
z
" clip-path="url(#pb979cc37f1)" style="fill: #9467bd"/>
   </g>
   <g id="patch_89">
    <path d="M 523.57337 450.726014 
L 540.965578 450.726014 
L 540.965578 228.786322 
L 523.57337 228.786322 
z
" clip-path="url(#pb979cc37f1)" style="fill: #9467bd"/>
   </g>
   <g id="patch_90">
    <path d="M 573.919234 447.909147 
L 591.311442 447.909147 
L 591.311442 224.947708 
L 573.919234 224.947708 
z
" clip-path="url(#pb979cc37f1)" style="fill: #9467bd"/>
   </g>
   <g id="patch_91">
    <path d="M 624.265099 445.215301 
L 641.657307 445.215301 
L 641.657307 221.273749 
L 624.265099 221.273749 
z
" clip-path="url(#pb979cc37f1)" style="fill: #9467bd"/>
   </g>
   <g id="patch_92">
    <path d="M 674.610964 442.640629 
L 692.003172 442.640629 
L 692.003172 217.758303 
L 674.610964 217.758303 
z
" clip-path="url(#pb979cc37f1)" style="fill: #9467bd"/>
   </g>
   <g id="patch_93">
    <path d="M 724.956828 440.180399 
L 742.349036 440.180399 
L 742.349036 214.394522 
L 724.956828 214.394522 
z
" clip-path="url(#pb979cc37f1)" style="fill: #9467bd"/>
   </g>
   <g id="patch_94">
    <path d="M 775.302693 437.82944 
L 792.694901 437.82944 
L 792.694901 211.175269 
L 775.302693 211.175269 
z
" clip-path="url(#pb979cc37f1)" style="fill: #9467bd"/>
   </g>
   <g id="patch_95">
    <path d="M 825.648558 435.582407 
L 843.040766 435.582407 
L 843.040766 208.093363 
L 825.648558 208.093363 
z
" clip-path="url(#pb979cc37f1)" style="fill: #9467bd"/>
   </g>
   <g id="patch_96">
    <path d="M 875.994422 433.433946 
L 893.38663 433.433946 
L 893.38663 205.141722 
L 875.994422 205.141722 
z
" clip-path="url(#pb979cc37f1)" style="fill: #9467bd"/>
   </g>
   <g id="patch_97">
    <path d="M 926.340287 431.378783 
L 943.732495 431.378783 
L 943.732495 202.31345 
L 926.340287 202.31345 
z
" clip-path="url(#pb979cc37f1)" style="fill: #9467bd"/>
   </g>
   <g id="patch_98">
    <path d="M 976.686152 429.411793 
L 994.07836 429.411793 
L 994.07836 199.601885 
L 976.686152 199.601885 
z
" clip-path="url(#pb979cc37f1)" style="fill: #9467bd"/>
   </g>
   <g id="patch_99">
    <path d="M 1027.032016 427.528027 
L 1044.424224 427.528027 
L 1044.424224 197.000627 
L 1027.032016 197.000627 
z
" clip-path="url(#pb979cc37f1)" style="fill: #9467bd"/>
   </g>
   <g id="patch_100">
    <path d="M 1077.377881 425.722737 
L 1094.770089 425.722737 
L 1094.770089 194.503551 
L 1077.377881 194.503551 
z
" clip-path="url(#pb979cc37f1)" style="fill: #9467bd"/>
   </g>
   <g id="patch_101">
    <path d="M 1127.723746 423.991381 
L 1145.115954 423.991381 
L 1145.115954 192.104813 
L 1127.723746 192.104813 
z
" clip-path="url(#pb979cc37f1)" style="fill: #9467bd"/>
   </g>
   <g id="patch_102">
    <path d="M 1178.06961 422.329629 
L 1195.461818 422.329629 
L 1195.461818 189.798844 
L 1178.06961 189.798844 
z
" clip-path="url(#pb979cc37f1)" style="fill: #9467bd"/>
   </g>
   <g id="patch_103">
    <path d="M 221.498182 255.080942 
L 238.89039 255.080942 
L 238.89039 246.18155 
L 221.498182 246.18155 
z
" clip-path="url(#pb979cc37f1)" style="fill: #8c564b"/>
   </g>
   <g id="patch_104">
    <path d="M 271.844046 250.441178 
L 289.236254 250.441178 
L 289.236254 241.327689 
L 271.844046 241.327689 
z
" clip-path="url(#pb979cc37f1)" style="fill: #8c564b"/>
   </g>
   <g id="patch_105">
    <path d="M 322.189911 245.822519 
L 339.582119 245.822519 
L 339.582119 236.483224 
L 322.189911 236.483224 
z
" clip-path="url(#pb979cc37f1)" style="fill: #8c564b"/>
   </g>
   <g id="patch_106">
    <path d="M 372.535776 241.320997 
L 389.927984 241.320997 
L 389.927984 231.764094 
L 372.535776 231.764094 
z
" clip-path="url(#pb979cc37f1)" style="fill: #8c564b"/>
   </g>
   <g id="patch_107">
    <path d="M 422.88164 236.973631 
L 440.273848 236.973631 
L 440.273848 227.214203 
L 422.88164 227.214203 
z
" clip-path="url(#pb979cc37f1)" style="fill: #8c564b"/>
   </g>
   <g id="patch_108">
    <path d="M 473.227505 232.794296 
L 490.619713 232.794296 
L 490.619713 222.84959 
L 473.227505 222.84959 
z
" clip-path="url(#pb979cc37f1)" style="fill: #8c564b"/>
   </g>
   <g id="patch_109">
    <path d="M 523.57337 228.786322 
L 540.965578 228.786322 
L 540.965578 218.673778 
L 523.57337 218.673778 
z
" clip-path="url(#pb979cc37f1)" style="fill: #8c564b"/>
   </g>
   <g id="patch_110">
    <path d="M 573.919234 224.947708 
L 591.311442 224.947708 
L 591.311442 214.684076 
L 573.919234 214.684076 
z
" clip-path="url(#pb979cc37f1)" style="fill: #8c564b"/>
   </g>
   <g id="patch_111">
    <path d="M 624.265099 221.273749 
L 641.657307 221.273749 
L 641.657307 210.87472 
L 624.265099 210.87472 
z
" clip-path="url(#pb979cc37f1)" style="fill: #8c564b"/>
   </g>
   <g id="patch_112">
    <path d="M 674.610964 217.758303 
L 692.003172 217.758303 
L 692.003172 207.238358 
L 674.610964 207.238358 
z
" clip-path="url(#pb979cc37f1)" style="fill: #8c564b"/>
   </g>
   <g id="patch_113">
    <path d="M 724.956828 214.394522 
L 742.349036 214.394522 
L 742.349036 203.766913 
L 724.956828 203.766913 
z
" clip-path="url(#pb979cc37f1)" style="fill: #8c564b"/>
   </g>
   <g id="patch_114">
    <path d="M 775.302693 211.175269 
L 792.694901 211.175269 
L 792.694901 200.452058 
L 775.302693 200.452058 
z
" clip-path="url(#pb979cc37f1)" style="fill: #8c564b"/>
   </g>
   <g id="patch_115">
    <path d="M 825.648558 208.093363 
L 843.040766 208.093363 
L 843.040766 197.285488 
L 825.648558 197.285488 
z
" clip-path="url(#pb979cc37f1)" style="fill: #8c564b"/>
   </g>
   <g id="patch_116">
    <path d="M 875.994422 205.141722 
L 893.38663 205.141722 
L 893.38663 194.259076 
L 875.994422 194.259076 
z
" clip-path="url(#pb979cc37f1)" style="fill: #8c564b"/>
   </g>
   <g id="patch_117">
    <path d="M 926.340287 202.31345 
L 943.732495 202.31345 
L 943.732495 191.364969 
L 926.340287 191.364969 
z
" clip-path="url(#pb979cc37f1)" style="fill: #8c564b"/>
   </g>
   <g id="patch_118">
    <path d="M 976.686152 199.601885 
L 994.07836 199.601885 
L 994.07836 188.595629 
L 976.686152 188.595629 
z
" clip-path="url(#pb979cc37f1)" style="fill: #8c564b"/>
   </g>
   <g id="patch_119">
    <path d="M 1027.032016 197.000627 
L 1044.424224 197.000627 
L 1044.424224 185.943859 
L 1027.032016 185.943859 
z
" clip-path="url(#pb979cc37f1)" style="fill: #8c564b"/>
   </g>
   <g id="patch_120">
    <path d="M 1077.377881 194.503551 
L 1094.770089 194.503551 
L 1094.770089 183.402813 
L 1077.377881 183.402813 
z
" clip-path="url(#pb979cc37f1)" style="fill: #8c564b"/>
   </g>
   <g id="patch_121">
    <path d="M 1127.723746 192.104813 
L 1145.115954 192.104813 
L 1145.115954 180.965991 
L 1127.723746 180.965991 
z
" clip-path="url(#pb979cc37f1)" style="fill: #8c564b"/>
   </g>
   <g id="patch_122">
    <path d="M 1178.06961 189.798844 
L 1195.461818 189.798844 
L 1195.461818 178.627233 
L 1178.06961 178.627233 
z
" clip-path="url(#pb979cc37f1)" style="fill: #8c564b"/>
   </g>
   <g id="patch_123">
    <path d="M 221.498182 246.18155 
L 238.89039 246.18155 
L 238.89039 185.264718 
L 221.498182 185.264718 
z
" clip-path="url(#pb979cc37f1)" style="fill: #e377c2"/>
   </g>
   <g id="patch_124">
    <path d="M 271.844046 241.327689 
L 289.236254 241.327689 
L 289.236254 180.651313 
L 271.844046 180.651313 
z
" clip-path="url(#pb979cc37f1)" style="fill: #e377c2"/>
   </g>
   <g id="patch_125">
    <path d="M 322.189911 236.483224 
L 339.582119 236.483224 
L 339.582119 176.040432 
L 322.189911 176.040432 
z
" clip-path="url(#pb979cc37f1)" style="fill: #e377c2"/>
   </g>
   <g id="patch_126">
    <path d="M 372.535776 231.764094 
L 389.927984 231.764094 
L 389.927984 171.54687 
L 372.535776 171.54687 
z
" clip-path="url(#pb979cc37f1)" style="fill: #e377c2"/>
   </g>
   <g id="patch_127">
    <path d="M 422.88164 227.214203 
L 440.273848 227.214203 
L 440.273848 167.21438 
L 422.88164 167.21438 
z
" clip-path="url(#pb979cc37f1)" style="fill: #e377c2"/>
   </g>
   <g id="patch_128">
    <path d="M 473.227505 222.84959 
L 490.619713 222.84959 
L 490.619713 163.059194 
L 473.227505 163.059194 
z
" clip-path="url(#pb979cc37f1)" style="fill: #e377c2"/>
   </g>
   <g id="patch_129">
    <path d="M 523.57337 218.673778 
L 540.965578 218.673778 
L 540.965578 159.085153 
L 523.57337 159.085153 
z
" clip-path="url(#pb979cc37f1)" style="fill: #e377c2"/>
   </g>
   <g id="patch_130">
    <path d="M 573.919234 214.684076 
L 591.311442 214.684076 
L 591.311442 155.289936 
L 573.919234 155.289936 
z
" clip-path="url(#pb979cc37f1)" style="fill: #e377c2"/>
   </g>
   <g id="patch_131">
    <path d="M 624.265099 210.87472 
L 641.657307 210.87472 
L 641.657307 151.668152 
L 624.265099 151.668152 
z
" clip-path="url(#pb979cc37f1)" style="fill: #e377c2"/>
   </g>
   <g id="patch_132">
    <path d="M 674.610964 207.238358 
L 692.003172 207.238358 
L 692.003172 148.21282 
L 674.610964 148.21282 
z
" clip-path="url(#pb979cc37f1)" style="fill: #e377c2"/>
   </g>
   <g id="patch_133">
    <path d="M 724.956828 203.766913 
L 742.349036 203.766913 
L 742.349036 144.916217 
L 724.956828 144.916217 
z
" clip-path="url(#pb979cc37f1)" style="fill: #e377c2"/>
   </g>
   <g id="patch_134">
    <path d="M 775.302693 200.452058 
L 792.694901 200.452058 
L 792.694901 141.77035 
L 775.302693 141.77035 
z
" clip-path="url(#pb979cc37f1)" style="fill: #e377c2"/>
   </g>
   <g id="patch_135">
    <path d="M 825.648558 197.285488 
L 843.040766 197.285488 
L 843.040766 138.767229 
L 825.648558 138.767229 
z
" clip-path="url(#pb979cc37f1)" style="fill: #e377c2"/>
   </g>
   <g id="patch_136">
    <path d="M 875.994422 194.259076 
L 893.38663 194.259076 
L 893.38663 135.899025 
L 875.994422 135.899025 
z
" clip-path="url(#pb979cc37f1)" style="fill: #e377c2"/>
   </g>
   <g id="patch_137">
    <path d="M 926.340287 191.364969 
L 943.732495 191.364969 
L 943.732495 133.158161 
L 926.340287 133.158161 
z
" clip-path="url(#pb979cc37f1)" style="fill: #e377c2"/>
   </g>
   <g id="patch_138">
    <path d="M 976.686152 188.595629 
L 994.07836 188.595629 
L 994.07836 130.537358 
L 976.686152 130.537358 
z
" clip-path="url(#pb979cc37f1)" style="fill: #e377c2"/>
   </g>
   <g id="patch_139">
    <path d="M 1027.032016 185.943859 
L 1044.424224 185.943859 
L 1044.424224 128.029664 
L 1027.032016 128.029664 
z
" clip-path="url(#pb979cc37f1)" style="fill: #e377c2"/>
   </g>
   <g id="patch_140">
    <path d="M 1077.377881 183.402813 
L 1094.770089 183.402813 
L 1094.770089 125.628459 
L 1077.377881 125.628459 
z
" clip-path="url(#pb979cc37f1)" style="fill: #e377c2"/>
   </g>
   <g id="patch_141">
    <path d="M 1127.723746 180.965991 
L 1145.115954 180.965991 
L 1145.115954 123.327458 
L 1127.723746 123.327458 
z
" clip-path="url(#pb979cc37f1)" style="fill: #e377c2"/>
   </g>
   <g id="patch_142">
    <path d="M 1178.06961 178.627233 
L 1195.461818 178.627233 
L 1195.461818 121.120699 
L 1178.06961 121.120699 
z
" clip-path="url(#pb979cc37f1)" style="fill: #e377c2"/>
   </g>
   <g id="patch_143">
    <path d="M 221.498182 185.264718 
L 238.89039 185.264718 
L 238.89039 184.526408 
L 221.498182 184.526408 
z
" clip-path="url(#pb979cc37f1)" style="fill: #7f7f7f"/>
   </g>
   <g id="patch_144">
    <path d="M 271.844046 180.651313 
L 289.236254 180.651313 
L 289.236254 179.959741 
L 271.844046 179.959741 
z
" clip-path="url(#pb979cc37f1)" style="fill: #7f7f7f"/>
   </g>
   <g id="patch_145">
    <path d="M 322.189911 176.040432 
L 339.582119 176.040432 
L 339.582119 175.385061 
L 322.189911 175.385061 
z
" clip-path="url(#pb979cc37f1)" style="fill: #7f7f7f"/>
   </g>
   <g id="patch_146">
    <path d="M 372.535776 171.54687 
L 389.927984 171.54687 
L 389.927984 170.921237 
L 372.535776 170.921237 
z
" clip-path="url(#pb979cc37f1)" style="fill: #7f7f7f"/>
   </g>
   <g id="patch_147">
    <path d="M 422.88164 167.21438 
L 440.273848 167.21438 
L 440.273848 166.614056 
L 422.88164 166.614056 
z
" clip-path="url(#pb979cc37f1)" style="fill: #7f7f7f"/>
   </g>
   <g id="patch_148">
    <path d="M 473.227505 163.059194 
L 490.619713 163.059194 
L 490.619713 162.480925 
L 473.227505 162.480925 
z
" clip-path="url(#pb979cc37f1)" style="fill: #7f7f7f"/>
   </g>
   <g id="patch_149">
    <path d="M 523.57337 159.085153 
L 540.965578 159.085153 
L 540.965578 158.526439 
L 523.57337 158.526439 
z
" clip-path="url(#pb979cc37f1)" style="fill: #7f7f7f"/>
   </g>
   <g id="patch_150">
    <path d="M 573.919234 155.289936 
L 591.311442 155.289936 
L 591.311442 154.748788 
L 573.919234 154.748788 
z
" clip-path="url(#pb979cc37f1)" style="fill: #7f7f7f"/>
   </g>
   <g id="patch_151">
    <path d="M 624.265099 151.668152 
L 641.657307 151.668152 
L 641.657307 151.142946 
L 624.265099 151.142946 
z
" clip-path="url(#pb979cc37f1)" style="fill: #7f7f7f"/>
   </g>
   <g id="patch_152">
    <path d="M 674.610964 148.21282 
L 692.003172 148.21282 
L 692.003172 147.702202 
L 674.610964 147.702202 
z
" clip-path="url(#pb979cc37f1)" style="fill: #7f7f7f"/>
   </g>
   <g id="patch_153">
    <path d="M 724.956828 144.916217 
L 742.349036 144.916217 
L 742.349036 144.419039 
L 724.956828 144.419039 
z
" clip-path="url(#pb979cc37f1)" style="fill: #7f7f7f"/>
   </g>
   <g id="patch_154">
    <path d="M 775.302693 141.77035 
L 792.694901 141.77035 
L 792.694901 141.285626 
L 775.302693 141.285626 
z
" clip-path="url(#pb979cc37f1)" style="fill: #7f7f7f"/>
   </g>
   <g id="patch_155">
    <path d="M 825.648558 138.767229 
L 843.040766 138.767229 
L 843.040766 138.294102 
L 825.648558 138.294102 
z
" clip-path="url(#pb979cc37f1)" style="fill: #7f7f7f"/>
   </g>
   <g id="patch_156">
    <path d="M 875.994422 135.899025 
L 893.38663 135.899025 
L 893.38663 135.436743 
L 875.994422 135.436743 
z
" clip-path="url(#pb979cc37f1)" style="fill: #7f7f7f"/>
   </g>
   <g id="patch_157">
    <path d="M 926.340287 133.158161 
L 943.732495 133.158161 
L 943.732495 132.706058 
L 926.340287 132.706058 
z
" clip-path="url(#pb979cc37f1)" style="fill: #7f7f7f"/>
   </g>
   <g id="patch_158">
    <path d="M 976.686152 130.537358 
L 994.07836 130.537358 
L 994.07836 130.094842 
L 976.686152 130.094842 
z
" clip-path="url(#pb979cc37f1)" style="fill: #7f7f7f"/>
   </g>
   <g id="patch_159">
    <path d="M 1027.032016 128.029664 
L 1044.424224 128.029664 
L 1044.424224 127.596201 
L 1027.032016 127.596201 
z
" clip-path="url(#pb979cc37f1)" style="fill: #7f7f7f"/>
   </g>
   <g id="patch_160">
    <path d="M 1077.377881 125.628459 
L 1094.770089 125.628459 
L 1094.770089 125.203569 
L 1077.377881 125.203569 
z
" clip-path="url(#pb979cc37f1)" style="fill: #7f7f7f"/>
   </g>
   <g id="patch_161">
    <path d="M 1127.723746 123.327458 
L 1145.115954 123.327458 
L 1145.115954 122.910704 
L 1127.723746 122.910704 
z
" clip-path="url(#pb979cc37f1)" style="fill: #7f7f7f"/>
   </g>
   <g id="patch_162">
    <path d="M 1178.06961 121.120699 
L 1195.461818 121.120699 
L 1195.461818 120.711684 
L 1178.06961 120.711684 
z
" clip-path="url(#pb979cc37f1)" style="fill: #7f7f7f"/>
   </g>
   <g id="patch_163">
    <path d="M 221.498182 184.526408 
L 238.89039 184.526408 
L 238.89039 172.879122 
L 221.498182 172.879122 
z
" clip-path="url(#pb979cc37f1)" style="fill: #bcbd22"/>
   </g>
   <g id="patch_164">
    <path d="M 271.844046 179.959741 
L 289.236254 179.959741 
L 289.236254 168.956285 
L 271.844046 168.956285 
z
" clip-path="url(#pb979cc37f1)" style="fill: #bcbd22"/>
   </g>
   <g id="patch_165">
    <path d="M 322.189911 175.385061 
L 339.582119 175.385061 
L 339.582119 164.914213 
L 322.189911 164.914213 
z
" clip-path="url(#pb979cc37f1)" style="fill: #bcbd22"/>
   </g>
   <g id="patch_166">
    <path d="M 372.535776 170.921237 
L 389.927984 170.921237 
L 389.927984 160.910258 
L 372.535776 160.910258 
z
" clip-path="url(#pb979cc37f1)" style="fill: #bcbd22"/>
   </g>
   <g id="patch_167">
    <path d="M 422.88164 166.614056 
L 440.273848 166.614056 
L 440.273848 157.010106 
L 422.88164 157.010106 
z
" clip-path="url(#pb979cc37f1)" style="fill: #bcbd22"/>
   </g>
   <g id="patch_168">
    <path d="M 473.227505 162.480925 
L 490.619713 162.480925 
L 490.619713 153.243076 
L 473.227505 153.243076 
z
" clip-path="url(#pb979cc37f1)" style="fill: #bcbd22"/>
   </g>
   <g id="patch_169">
    <path d="M 523.57337 158.526439 
L 540.965578 158.526439 
L 540.965578 149.621601 
L 523.57337 149.621601 
z
" clip-path="url(#pb979cc37f1)" style="fill: #bcbd22"/>
   </g>
   <g id="patch_170">
    <path d="M 573.919234 154.748788 
L 591.311442 154.748788 
L 591.311442 146.149268 
L 573.919234 146.149268 
z
" clip-path="url(#pb979cc37f1)" style="fill: #bcbd22"/>
   </g>
   <g id="patch_171">
    <path d="M 624.265099 151.142946 
L 641.657307 151.142946 
L 641.657307 142.825048 
L 624.265099 142.825048 
z
" clip-path="url(#pb979cc37f1)" style="fill: #bcbd22"/>
   </g>
   <g id="patch_172">
    <path d="M 674.610964 147.702202 
L 692.003172 147.702202 
L 692.003172 139.645258 
L 674.610964 139.645258 
z
" clip-path="url(#pb979cc37f1)" style="fill: #bcbd22"/>
   </g>
   <g id="patch_173">
    <path d="M 724.956828 144.419039 
L 742.349036 144.419039 
L 742.349036 136.604759 
L 724.956828 136.604759 
z
" clip-path="url(#pb979cc37f1)" style="fill: #bcbd22"/>
   </g>
   <g id="patch_174">
    <path d="M 775.302693 141.285626 
L 792.694901 141.285626 
L 792.694901 133.69763 
L 775.302693 133.69763 
z
" clip-path="url(#pb979cc37f1)" style="fill: #bcbd22"/>
   </g>
   <g id="patch_175">
    <path d="M 825.648558 138.294102 
L 843.040766 138.294102 
L 843.040766 130.917585 
L 825.648558 130.917585 
z
" clip-path="url(#pb979cc37f1)" style="fill: #bcbd22"/>
   </g>
   <g id="patch_176">
    <path d="M 875.994422 135.436743 
L 893.38663 135.436743 
L 893.38663 128.25822 
L 875.994422 128.25822 
z
" clip-path="url(#pb979cc37f1)" style="fill: #bcbd22"/>
   </g>
   <g id="patch_177">
    <path d="M 926.340287 132.706058 
L 943.732495 132.706058 
L 943.732495 125.713169 
L 926.340287 125.713169 
z
" clip-path="url(#pb979cc37f1)" style="fill: #bcbd22"/>
   </g>
   <g id="patch_178">
    <path d="M 976.686152 130.094842 
L 994.07836 130.094842 
L 994.07836 123.276204 
L 976.686152 123.276204 
z
" clip-path="url(#pb979cc37f1)" style="fill: #bcbd22"/>
   </g>
   <g id="patch_179">
    <path d="M 1027.032016 127.596201 
L 1044.424224 127.596201 
L 1044.424224 120.941289 
L 1027.032016 120.941289 
z
" clip-path="url(#pb979cc37f1)" style="fill: #bcbd22"/>
   </g>
   <g id="patch_180">
    <path d="M 1077.377881 125.203569 
L 1094.770089 125.203569 
L 1094.770089 118.702615 
L 1077.377881 118.702615 
z
" clip-path="url(#pb979cc37f1)" style="fill: #bcbd22"/>
   </g>
   <g id="patch_181">
    <path d="M 1127.723746 122.910704 
L 1145.115954 122.910704 
L 1145.115954 116.554621 
L 1127.723746 116.554621 
z
" clip-path="url(#pb979cc37f1)" style="fill: #bcbd22"/>
   </g>
   <g id="patch_182">
    <path d="M 1178.06961 120.711684 
L 1195.461818 120.711684 
L 1195.461818 114.492 
L 1178.06961 114.492 
z
" clip-path="url(#pb979cc37f1)" style="fill: #bcbd22"/>
   </g>
   <g id="matplotlib.axis_1">
    <g id="xtick_1">
     <g id="line2d_1">
      <defs>
       <path id="m8dfb3b738a" d="M 0 0 
L 0 3.5 
" style="stroke: #000000; stroke-width: 0.8"/>
      </defs>
      <g>
       <use xlink:href="#m8dfb3b738a" x="230.194286" y="650.412" style="stroke: #000000; stroke-width: 0.8"/>
      </g>
     </g>
     <g id="text_1">
      <!-- 26 -->
      <g transform="translate(218.741786 671.089188) scale(0.18 -0.18)">
       <defs>
        <path id="DejaVuSans-32" d="M 1228 531 
L 3431 531 
L 3431 0 
L 469 0 
L 469 531 
Q 828 903 1448 1529 
Q 2069 2156 2228 2338 
Q 2531 2678 2651 2914 
Q 2772 3150 2772 3378 
Q 2772 3750 2511 3984 
Q 2250 4219 1831 4219 
Q 1534 4219 1204 4116 
Q 875 4013 500 3803 
L 500 4441 
Q 881 4594 1212 4672 
Q 1544 4750 1819 4750 
Q 2544 4750 2975 4387 
Q 3406 4025 3406 3419 
Q 3406 3131 3298 2873 
Q 3191 2616 2906 2266 
Q 2828 2175 2409 1742 
Q 1991 1309 1228 531 
z
" transform="scale(0.015625)"/>
        <path id="DejaVuSans-36" d="M 2113 2584 
Q 1688 2584 1439 2293 
Q 1191 2003 1191 1497 
Q 1191 994 1439 701 
Q 1688 409 2113 409 
Q 2538 409 2786 701 
Q 3034 994 3034 1497 
Q 3034 2003 2786 2293 
Q 2538 2584 2113 2584 
z
M 3366 4563 
L 3366 3988 
Q 3128 4100 2886 4159 
Q 2644 4219 2406 4219 
Q 1781 4219 1451 3797 
Q 1122 3375 1075 2522 
Q 1259 2794 1537 2939 
Q 1816 3084 2150 3084 
Q 2853 3084 3261 2657 
Q 3669 2231 3669 1497 
Q 3669 778 3244 343 
Q 2819 -91 2113 -91 
Q 1303 -91 875 529 
Q 447 1150 447 2328 
Q 447 3434 972 4092 
Q 1497 4750 2381 4750 
Q 2619 4750 2861 4703 
Q 3103 4656 3366 4563 
z
" transform="scale(0.015625)"/>
       </defs>
       <use xlink:href="#DejaVuSans-32"/>
       <use xlink:href="#DejaVuSans-36" x="63.623047"/>
      </g>
     </g>
    </g>
    <g id="xtick_2">
     <g id="line2d_2">
      <g>
       <use xlink:href="#m8dfb3b738a" x="404.116364" y="650.412" style="stroke: #000000; stroke-width: 0.8"/>
      </g>
     </g>
     <g id="text_2">
      <!-- 28 -->
      <g transform="translate(392.663864 671.089188) scale(0.18 -0.18)">
       <defs>
        <path id="DejaVuSans-38" d="M 2034 2216 
Q 1584 2216 1326 1975 
Q 1069 1734 1069 1313 
Q 1069 891 1326 650 
Q 1584 409 2034 409 
Q 2484 409 2743 651 
Q 3003 894 3003 1313 
Q 3003 1734 2745 1975 
Q 2488 2216 2034 2216 
z
M 1403 2484 
Q 997 2584 770 2862 
Q 544 3141 544 3541 
Q 544 4100 942 4425 
Q 1341 4750 2034 4750 
Q 2731 4750 3128 4425 
Q 3525 4100 3525 3541 
Q 3525 3141 3298 2862 
Q 3072 2584 2669 2484 
Q 3125 2378 3379 2068 
Q 3634 1759 3634 1313 
Q 3634 634 3220 271 
Q 2806 -91 2034 -91 
Q 1263 -91 848 271 
Q 434 634 434 1313 
Q 434 1759 690 2068 
Q 947 2378 1403 2484 
z
M 1172 3481 
Q 1172 3119 1398 2916 
Q 1625 2713 2034 2713 
Q 2441 2713 2670 2916 
Q 2900 3119 2900 3481 
Q 2900 3844 2670 4047 
Q 2441 4250 2034 4250 
Q 1625 4250 1398 4047 
Q 1172 3844 1172 3481 
z
" transform="scale(0.015625)"/>
       </defs>
       <use xlink:href="#DejaVuSans-32"/>
       <use xlink:href="#DejaVuSans-38" x="63.623047"/>
      </g>
     </g>
    </g>
    <g id="xtick_3">
     <g id="line2d_3">
      <g>
       <use xlink:href="#m8dfb3b738a" x="578.038442" y="650.412" style="stroke: #000000; stroke-width: 0.8"/>
      </g>
     </g>
     <g id="text_3">
      <!-- 30 -->
      <g transform="translate(566.585942 671.089188) scale(0.18 -0.18)">
       <defs>
        <path id="DejaVuSans-33" d="M 2597 2516 
Q 3050 2419 3304 2112 
Q 3559 1806 3559 1356 
Q 3559 666 3084 287 
Q 2609 -91 1734 -91 
Q 1441 -91 1130 -33 
Q 819 25 488 141 
L 488 750 
Q 750 597 1062 519 
Q 1375 441 1716 441 
Q 2309 441 2620 675 
Q 2931 909 2931 1356 
Q 2931 1769 2642 2001 
Q 2353 2234 1838 2234 
L 1294 2234 
L 1294 2753 
L 1863 2753 
Q 2328 2753 2575 2939 
Q 2822 3125 2822 3475 
Q 2822 3834 2567 4026 
Q 2313 4219 1838 4219 
Q 1578 4219 1281 4162 
Q 984 4106 628 3988 
L 628 4550 
Q 988 4650 1302 4700 
Q 1616 4750 1894 4750 
Q 2613 4750 3031 4423 
Q 3450 4097 3450 3541 
Q 3450 3153 3228 2886 
Q 3006 2619 2597 2516 
z
" transform="scale(0.015625)"/>
        <path id="DejaVuSans-30" d="M 2034 4250 
Q 1547 4250 1301 3770 
Q 1056 3291 1056 2328 
Q 1056 1369 1301 889 
Q 1547 409 2034 409 
Q 2525 409 2770 889 
Q 3016 1369 3016 2328 
Q 3016 3291 2770 3770 
Q 2525 4250 2034 4250 
z
M 2034 4750 
Q 2819 4750 3233 4129 
Q 3647 3509 3647 2328 
Q 3647 1150 3233 529 
Q 2819 -91 2034 -91 
Q 1250 -91 836 529 
Q 422 1150 422 2328 
Q 422 3509 836 4129 
Q 1250 4750 2034 4750 
z
" transform="scale(0.015625)"/>
       </defs>
       <use xlink:href="#DejaVuSans-33"/>
       <use xlink:href="#DejaVuSans-30" x="63.623047"/>
      </g>
     </g>
    </g>
    <g id="xtick_4">
     <g id="line2d_4">
      <g>
       <use xlink:href="#m8dfb3b738a" x="751.960519" y="650.412" style="stroke: #000000; stroke-width: 0.8"/>
      </g>
     </g>
     <g id="text_4">
      <!-- 32 -->
      <g transform="translate(740.508019 671.089188) scale(0.18 -0.18)">
       <use xlink:href="#DejaVuSans-33"/>
       <use xlink:href="#DejaVuSans-32" x="63.623047"/>
      </g>
     </g>
    </g>
    <g id="xtick_5">
     <g id="line2d_5">
      <g>
       <use xlink:href="#m8dfb3b738a" x="925.882597" y="650.412" style="stroke: #000000; stroke-width: 0.8"/>
      </g>
     </g>
     <g id="text_5">
      <!-- 34 -->
      <g transform="translate(914.430097 671.089188) scale(0.18 -0.18)">
       <defs>
        <path id="DejaVuSans-34" d="M 2419 4116 
L 825 1625 
L 2419 1625 
L 2419 4116 
z
M 2253 4666 
L 3047 4666 
L 3047 1625 
L 3713 1625 
L 3713 1100 
L 3047 1100 
L 3047 0 
L 2419 0 
L 2419 1100 
L 313 1100 
L 313 1709 
L 2253 4666 
z
" transform="scale(0.015625)"/>
       </defs>
       <use xlink:href="#DejaVuSans-33"/>
       <use xlink:href="#DejaVuSans-34" x="63.623047"/>
      </g>
     </g>
    </g>
    <g id="xtick_6">
     <g id="line2d_6">
      <g>
       <use xlink:href="#m8dfb3b738a" x="1099.804675" y="650.412" style="stroke: #000000; stroke-width: 0.8"/>
      </g>
     </g>
     <g id="text_6">
      <!-- 36 -->
      <g transform="translate(1088.352175 671.089188) scale(0.18 -0.18)">
       <use xlink:href="#DejaVuSans-33"/>
       <use xlink:href="#DejaVuSans-36" x="63.623047"/>
      </g>
     </g>
    </g>
    <g id="text_7">
     <!-- Kondensatordruck in bar -->
     <g transform="translate(597.950156 692.509813) scale(0.18 -0.18)">
      <defs>
       <path id="DejaVuSans-4b" d="M 628 4666 
L 1259 4666 
L 1259 2694 
L 3353 4666 
L 4166 4666 
L 1850 2491 
L 4331 0 
L 3500 0 
L 1259 2247 
L 1259 0 
L 628 0 
L 628 4666 
z
" transform="scale(0.015625)"/>
       <path id="DejaVuSans-6f" d="M 1959 3097 
Q 1497 3097 1228 2736 
Q 959 2375 959 1747 
Q 959 1119 1226 758 
Q 1494 397 1959 397 
Q 2419 397 2687 759 
Q 2956 1122 2956 1747 
Q 2956 2369 2687 2733 
Q 2419 3097 1959 3097 
z
M 1959 3584 
Q 2709 3584 3137 3096 
Q 3566 2609 3566 1747 
Q 3566 888 3137 398 
Q 2709 -91 1959 -91 
Q 1206 -91 779 398 
Q 353 888 353 1747 
Q 353 2609 779 3096 
Q 1206 3584 1959 3584 
z
" transform="scale(0.015625)"/>
       <path id="DejaVuSans-6e" d="M 3513 2113 
L 3513 0 
L 2938 0 
L 2938 2094 
Q 2938 2591 2744 2837 
Q 2550 3084 2163 3084 
Q 1697 3084 1428 2787 
Q 1159 2491 1159 1978 
L 1159 0 
L 581 0 
L 581 3500 
L 1159 3500 
L 1159 2956 
Q 1366 3272 1645 3428 
Q 1925 3584 2291 3584 
Q 2894 3584 3203 3211 
Q 3513 2838 3513 2113 
z
" transform="scale(0.015625)"/>
       <path id="DejaVuSans-64" d="M 2906 2969 
L 2906 4863 
L 3481 4863 
L 3481 0 
L 2906 0 
L 2906 525 
Q 2725 213 2448 61 
Q 2172 -91 1784 -91 
Q 1150 -91 751 415 
Q 353 922 353 1747 
Q 353 2572 751 3078 
Q 1150 3584 1784 3584 
Q 2172 3584 2448 3432 
Q 2725 3281 2906 2969 
z
M 947 1747 
Q 947 1113 1208 752 
Q 1469 391 1925 391 
Q 2381 391 2643 752 
Q 2906 1113 2906 1747 
Q 2906 2381 2643 2742 
Q 2381 3103 1925 3103 
Q 1469 3103 1208 2742 
Q 947 2381 947 1747 
z
" transform="scale(0.015625)"/>
       <path id="DejaVuSans-65" d="M 3597 1894 
L 3597 1613 
L 953 1613 
Q 991 1019 1311 708 
Q 1631 397 2203 397 
Q 2534 397 2845 478 
Q 3156 559 3463 722 
L 3463 178 
Q 3153 47 2828 -22 
Q 2503 -91 2169 -91 
Q 1331 -91 842 396 
Q 353 884 353 1716 
Q 353 2575 817 3079 
Q 1281 3584 2069 3584 
Q 2775 3584 3186 3129 
Q 3597 2675 3597 1894 
z
M 3022 2063 
Q 3016 2534 2758 2815 
Q 2500 3097 2075 3097 
Q 1594 3097 1305 2825 
Q 1016 2553 972 2059 
L 3022 2063 
z
" transform="scale(0.015625)"/>
       <path id="DejaVuSans-73" d="M 2834 3397 
L 2834 2853 
Q 2591 2978 2328 3040 
Q 2066 3103 1784 3103 
Q 1356 3103 1142 2972 
Q 928 2841 928 2578 
Q 928 2378 1081 2264 
Q 1234 2150 1697 2047 
L 1894 2003 
Q 2506 1872 2764 1633 
Q 3022 1394 3022 966 
Q 3022 478 2636 193 
Q 2250 -91 1575 -91 
Q 1294 -91 989 -36 
Q 684 19 347 128 
L 347 722 
Q 666 556 975 473 
Q 1284 391 1588 391 
Q 1994 391 2212 530 
Q 2431 669 2431 922 
Q 2431 1156 2273 1281 
Q 2116 1406 1581 1522 
L 1381 1569 
Q 847 1681 609 1914 
Q 372 2147 372 2553 
Q 372 3047 722 3315 
Q 1072 3584 1716 3584 
Q 2034 3584 2315 3537 
Q 2597 3491 2834 3397 
z
" transform="scale(0.015625)"/>
       <path id="DejaVuSans-61" d="M 2194 1759 
Q 1497 1759 1228 1600 
Q 959 1441 959 1056 
Q 959 750 1161 570 
Q 1363 391 1709 391 
Q 2188 391 2477 730 
Q 2766 1069 2766 1631 
L 2766 1759 
L 2194 1759 
z
M 3341 1997 
L 3341 0 
L 2766 0 
L 2766 531 
Q 2569 213 2275 61 
Q 1981 -91 1556 -91 
Q 1019 -91 701 211 
Q 384 513 384 1019 
Q 384 1609 779 1909 
Q 1175 2209 1959 2209 
L 2766 2209 
L 2766 2266 
Q 2766 2663 2505 2880 
Q 2244 3097 1772 3097 
Q 1472 3097 1187 3025 
Q 903 2953 641 2809 
L 641 3341 
Q 956 3463 1253 3523 
Q 1550 3584 1831 3584 
Q 2591 3584 2966 3190 
Q 3341 2797 3341 1997 
z
" transform="scale(0.015625)"/>
       <path id="DejaVuSans-74" d="M 1172 4494 
L 1172 3500 
L 2356 3500 
L 2356 3053 
L 1172 3053 
L 1172 1153 
Q 1172 725 1289 603 
Q 1406 481 1766 481 
L 2356 481 
L 2356 0 
L 1766 0 
Q 1100 0 847 248 
Q 594 497 594 1153 
L 594 3053 
L 172 3053 
L 172 3500 
L 594 3500 
L 594 4494 
L 1172 4494 
z
" transform="scale(0.015625)"/>
       <path id="DejaVuSans-72" d="M 2631 2963 
Q 2534 3019 2420 3045 
Q 2306 3072 2169 3072 
Q 1681 3072 1420 2755 
Q 1159 2438 1159 1844 
L 1159 0 
L 581 0 
L 581 3500 
L 1159 3500 
L 1159 2956 
Q 1341 3275 1631 3429 
Q 1922 3584 2338 3584 
Q 2397 3584 2469 3576 
Q 2541 3569 2628 3553 
L 2631 2963 
z
" transform="scale(0.015625)"/>
       <path id="DejaVuSans-75" d="M 544 1381 
L 544 3500 
L 1119 3500 
L 1119 1403 
Q 1119 906 1312 657 
Q 1506 409 1894 409 
Q 2359 409 2629 706 
Q 2900 1003 2900 1516 
L 2900 3500 
L 3475 3500 
L 3475 0 
L 2900 0 
L 2900 538 
Q 2691 219 2414 64 
Q 2138 -91 1772 -91 
Q 1169 -91 856 284 
Q 544 659 544 1381 
z
M 1991 3584 
L 1991 3584 
z
" transform="scale(0.015625)"/>
       <path id="DejaVuSans-63" d="M 3122 3366 
L 3122 2828 
Q 2878 2963 2633 3030 
Q 2388 3097 2138 3097 
Q 1578 3097 1268 2742 
Q 959 2388 959 1747 
Q 959 1106 1268 751 
Q 1578 397 2138 397 
Q 2388 397 2633 464 
Q 2878 531 3122 666 
L 3122 134 
Q 2881 22 2623 -34 
Q 2366 -91 2075 -91 
Q 1284 -91 818 406 
Q 353 903 353 1747 
Q 353 2603 823 3093 
Q 1294 3584 2113 3584 
Q 2378 3584 2631 3529 
Q 2884 3475 3122 3366 
z
" transform="scale(0.015625)"/>
       <path id="DejaVuSans-6b" d="M 581 4863 
L 1159 4863 
L 1159 1991 
L 2875 3500 
L 3609 3500 
L 1753 1863 
L 3688 0 
L 2938 0 
L 1159 1709 
L 1159 0 
L 581 0 
L 581 4863 
z
" transform="scale(0.015625)"/>
       <path id="DejaVuSans-20" transform="scale(0.015625)"/>
       <path id="DejaVuSans-69" d="M 603 3500 
L 1178 3500 
L 1178 0 
L 603 0 
L 603 3500 
z
M 603 4863 
L 1178 4863 
L 1178 4134 
L 603 4134 
L 603 4863 
z
" transform="scale(0.015625)"/>
       <path id="DejaVuSans-62" d="M 3116 1747 
Q 3116 2381 2855 2742 
Q 2594 3103 2138 3103 
Q 1681 3103 1420 2742 
Q 1159 2381 1159 1747 
Q 1159 1113 1420 752 
Q 1681 391 2138 391 
Q 2594 391 2855 752 
Q 3116 1113 3116 1747 
z
M 1159 2969 
Q 1341 3281 1617 3432 
Q 1894 3584 2278 3584 
Q 2916 3584 3314 3078 
Q 3713 2572 3713 1747 
Q 3713 922 3314 415 
Q 2916 -91 2278 -91 
Q 1894 -91 1617 61 
Q 1341 213 1159 525 
L 1159 0 
L 581 0 
L 581 4863 
L 1159 4863 
L 1159 2969 
z
" transform="scale(0.015625)"/>
      </defs>
      <use xlink:href="#DejaVuSans-4b"/>
      <use xlink:href="#DejaVuSans-6f" x="60.576172"/>
      <use xlink:href="#DejaVuSans-6e" x="121.757812"/>
      <use xlink:href="#DejaVuSans-64" x="185.136719"/>
      <use xlink:href="#DejaVuSans-65" x="248.613281"/>
      <use xlink:href="#DejaVuSans-6e" x="310.136719"/>
      <use xlink:href="#DejaVuSans-73" x="373.515625"/>
      <use xlink:href="#DejaVuSans-61" x="425.615234"/>
      <use xlink:href="#DejaVuSans-74" x="486.894531"/>
      <use xlink:href="#DejaVuSans-6f" x="526.103516"/>
      <use xlink:href="#DejaVuSans-72" x="587.285156"/>
      <use xlink:href="#DejaVuSans-64" x="626.648438"/>
      <use xlink:href="#DejaVuSans-72" x="690.125"/>
      <use xlink:href="#DejaVuSans-75" x="731.238281"/>
      <use xlink:href="#DejaVuSans-63" x="794.617188"/>
      <use xlink:href="#DejaVuSans-6b" x="849.597656"/>
      <use xlink:href="#DejaVuSans-20" x="907.507812"/>
      <use xlink:href="#DejaVuSans-69" x="939.294922"/>
      <use xlink:href="#DejaVuSans-6e" x="967.078125"/>
      <use xlink:href="#DejaVuSans-20" x="1030.457031"/>
      <use xlink:href="#DejaVuSans-62" x="1062.244141"/>
      <use xlink:href="#DejaVuSans-61" x="1125.720703"/>
      <use xlink:href="#DejaVuSans-72" x="1187"/>
     </g>
    </g>
   </g>
   <g id="matplotlib.axis_2">
    <g id="ytick_1">
     <g id="line2d_7">
      <defs>
       <path id="m30d5cf767b" d="M 0 0 
L -3.5 0 
" style="stroke: #000000; stroke-width: 0.8"/>
      </defs>
      <g>
       <use xlink:href="#m30d5cf767b" x="172.8" y="650.412" style="stroke: #000000; stroke-width: 0.8"/>
      </g>
     </g>
     <g id="text_8">
      <!-- 0.0 -->
      <g transform="translate(137.174375 657.250594) scale(0.18 -0.18)">
       <defs>
        <path id="DejaVuSans-2e" d="M 684 794 
L 1344 794 
L 1344 0 
L 684 0 
L 684 794 
z
" transform="scale(0.015625)"/>
       </defs>
       <use xlink:href="#DejaVuSans-30"/>
       <use xlink:href="#DejaVuSans-2e" x="63.623047"/>
       <use xlink:href="#DejaVuSans-30" x="95.410156"/>
      </g>
     </g>
    </g>
    <g id="ytick_2">
     <g id="line2d_8">
      <g>
       <use xlink:href="#m30d5cf767b" x="172.8" y="572.962204" style="stroke: #000000; stroke-width: 0.8"/>
      </g>
     </g>
     <g id="text_9">
      <!-- 0.2 -->
      <g transform="translate(137.174375 579.800798) scale(0.18 -0.18)">
       <use xlink:href="#DejaVuSans-30"/>
       <use xlink:href="#DejaVuSans-2e" x="63.623047"/>
       <use xlink:href="#DejaVuSans-32" x="95.410156"/>
      </g>
     </g>
    </g>
    <g id="ytick_3">
     <g id="line2d_9">
      <g>
       <use xlink:href="#m30d5cf767b" x="172.8" y="495.512408" style="stroke: #000000; stroke-width: 0.8"/>
      </g>
     </g>
     <g id="text_10">
      <!-- 0.4 -->
      <g transform="translate(137.174375 502.351002) scale(0.18 -0.18)">
       <use xlink:href="#DejaVuSans-30"/>
       <use xlink:href="#DejaVuSans-2e" x="63.623047"/>
       <use xlink:href="#DejaVuSans-34" x="95.410156"/>
      </g>
     </g>
    </g>
    <g id="ytick_4">
     <g id="line2d_10">
      <g>
       <use xlink:href="#m30d5cf767b" x="172.8" y="418.062613" style="stroke: #000000; stroke-width: 0.8"/>
      </g>
     </g>
     <g id="text_11">
      <!-- 0.6 -->
      <g transform="translate(137.174375 424.901206) scale(0.18 -0.18)">
       <use xlink:href="#DejaVuSans-30"/>
       <use xlink:href="#DejaVuSans-2e" x="63.623047"/>
       <use xlink:href="#DejaVuSans-36" x="95.410156"/>
      </g>
     </g>
    </g>
    <g id="ytick_5">
     <g id="line2d_11">
      <g>
       <use xlink:href="#m30d5cf767b" x="172.8" y="340.612817" style="stroke: #000000; stroke-width: 0.8"/>
      </g>
     </g>
     <g id="text_12">
      <!-- 0.8 -->
      <g transform="translate(137.174375 347.451411) scale(0.18 -0.18)">
       <use xlink:href="#DejaVuSans-30"/>
       <use xlink:href="#DejaVuSans-2e" x="63.623047"/>
       <use xlink:href="#DejaVuSans-38" x="95.410156"/>
      </g>
     </g>
    </g>
    <g id="ytick_6">
     <g id="line2d_12">
      <g>
       <use xlink:href="#m30d5cf767b" x="172.8" y="263.163021" style="stroke: #000000; stroke-width: 0.8"/>
      </g>
     </g>
     <g id="text_13">
      <!-- 1.0 -->
      <g transform="translate(137.174375 270.001615) scale(0.18 -0.18)">
       <defs>
        <path id="DejaVuSans-31" d="M 794 531 
L 1825 531 
L 1825 4091 
L 703 3866 
L 703 4441 
L 1819 4666 
L 2450 4666 
L 2450 531 
L 3481 531 
L 3481 0 
L 794 0 
L 794 531 
z
" transform="scale(0.015625)"/>
       </defs>
       <use xlink:href="#DejaVuSans-31"/>
       <use xlink:href="#DejaVuSans-2e" x="63.623047"/>
       <use xlink:href="#DejaVuSans-30" x="95.410156"/>
      </g>
     </g>
    </g>
    <g id="ytick_7">
     <g id="line2d_13">
      <g>
       <use xlink:href="#m30d5cf767b" x="172.8" y="185.713225" style="stroke: #000000; stroke-width: 0.8"/>
      </g>
     </g>
     <g id="text_14">
      <!-- 1.2 -->
      <g transform="translate(137.174375 192.551819) scale(0.18 -0.18)">
       <use xlink:href="#DejaVuSans-31"/>
       <use xlink:href="#DejaVuSans-2e" x="63.623047"/>
       <use xlink:href="#DejaVuSans-32" x="95.410156"/>
      </g>
     </g>
    </g>
    <g id="ytick_8">
     <g id="line2d_14">
      <g>
       <use xlink:href="#m30d5cf767b" x="172.8" y="108.263429" style="stroke: #000000; stroke-width: 0.8"/>
      </g>
     </g>
     <g id="text_15">
      <!-- 1.4 -->
      <g transform="translate(137.174375 115.102023) scale(0.18 -0.18)">
       <use xlink:href="#DejaVuSans-31"/>
       <use xlink:href="#DejaVuSans-2e" x="63.623047"/>
       <use xlink:href="#DejaVuSans-34" x="95.410156"/>
      </g>
     </g>
    </g>
    <g id="text_16">
     <!-- Exergievernichtung in MW -->
     <g transform="translate(129.430937 487.119938) rotate(-90) scale(0.18 -0.18)">
      <defs>
       <path id="DejaVuSans-45" d="M 628 4666 
L 3578 4666 
L 3578 4134 
L 1259 4134 
L 1259 2753 
L 3481 2753 
L 3481 2222 
L 1259 2222 
L 1259 531 
L 3634 531 
L 3634 0 
L 628 0 
L 628 4666 
z
" transform="scale(0.015625)"/>
       <path id="DejaVuSans-78" d="M 3513 3500 
L 2247 1797 
L 3578 0 
L 2900 0 
L 1881 1375 
L 863 0 
L 184 0 
L 1544 1831 
L 300 3500 
L 978 3500 
L 1906 2253 
L 2834 3500 
L 3513 3500 
z
" transform="scale(0.015625)"/>
       <path id="DejaVuSans-67" d="M 2906 1791 
Q 2906 2416 2648 2759 
Q 2391 3103 1925 3103 
Q 1463 3103 1205 2759 
Q 947 2416 947 1791 
Q 947 1169 1205 825 
Q 1463 481 1925 481 
Q 2391 481 2648 825 
Q 2906 1169 2906 1791 
z
M 3481 434 
Q 3481 -459 3084 -895 
Q 2688 -1331 1869 -1331 
Q 1566 -1331 1297 -1286 
Q 1028 -1241 775 -1147 
L 775 -588 
Q 1028 -725 1275 -790 
Q 1522 -856 1778 -856 
Q 2344 -856 2625 -561 
Q 2906 -266 2906 331 
L 2906 616 
Q 2728 306 2450 153 
Q 2172 0 1784 0 
Q 1141 0 747 490 
Q 353 981 353 1791 
Q 353 2603 747 3093 
Q 1141 3584 1784 3584 
Q 2172 3584 2450 3431 
Q 2728 3278 2906 2969 
L 2906 3500 
L 3481 3500 
L 3481 434 
z
" transform="scale(0.015625)"/>
       <path id="DejaVuSans-76" d="M 191 3500 
L 800 3500 
L 1894 563 
L 2988 3500 
L 3597 3500 
L 2284 0 
L 1503 0 
L 191 3500 
z
" transform="scale(0.015625)"/>
       <path id="DejaVuSans-68" d="M 3513 2113 
L 3513 0 
L 2938 0 
L 2938 2094 
Q 2938 2591 2744 2837 
Q 2550 3084 2163 3084 
Q 1697 3084 1428 2787 
Q 1159 2491 1159 1978 
L 1159 0 
L 581 0 
L 581 4863 
L 1159 4863 
L 1159 2956 
Q 1366 3272 1645 3428 
Q 1925 3584 2291 3584 
Q 2894 3584 3203 3211 
Q 3513 2838 3513 2113 
z
" transform="scale(0.015625)"/>
       <path id="DejaVuSans-4d" d="M 628 4666 
L 1569 4666 
L 2759 1491 
L 3956 4666 
L 4897 4666 
L 4897 0 
L 4281 0 
L 4281 4097 
L 3078 897 
L 2444 897 
L 1241 4097 
L 1241 0 
L 628 0 
L 628 4666 
z
" transform="scale(0.015625)"/>
       <path id="DejaVuSans-57" d="M 213 4666 
L 850 4666 
L 1831 722 
L 2809 4666 
L 3519 4666 
L 4500 722 
L 5478 4666 
L 6119 4666 
L 4947 0 
L 4153 0 
L 3169 4050 
L 2175 0 
L 1381 0 
L 213 4666 
z
" transform="scale(0.015625)"/>
      </defs>
      <use xlink:href="#DejaVuSans-45"/>
      <use xlink:href="#DejaVuSans-78" x="63.183594"/>
      <use xlink:href="#DejaVuSans-65" x="119.238281"/>
      <use xlink:href="#DejaVuSans-72" x="180.761719"/>
      <use xlink:href="#DejaVuSans-67" x="220.125"/>
      <use xlink:href="#DejaVuSans-69" x="283.601562"/>
      <use xlink:href="#DejaVuSans-65" x="311.384766"/>
      <use xlink:href="#DejaVuSans-76" x="372.908203"/>
      <use xlink:href="#DejaVuSans-65" x="432.087891"/>
      <use xlink:href="#DejaVuSans-72" x="493.611328"/>
      <use xlink:href="#DejaVuSans-6e" x="532.974609"/>
      <use xlink:href="#DejaVuSans-69" x="596.353516"/>
      <use xlink:href="#DejaVuSans-63" x="624.136719"/>
      <use xlink:href="#DejaVuSans-68" x="679.117188"/>
      <use xlink:href="#DejaVuSans-74" x="742.496094"/>
      <use xlink:href="#DejaVuSans-75" x="781.705078"/>
      <use xlink:href="#DejaVuSans-6e" x="845.083984"/>
      <use xlink:href="#DejaVuSans-67" x="908.462891"/>
      <use xlink:href="#DejaVuSans-20" x="971.939453"/>
      <use xlink:href="#DejaVuSans-69" x="1003.726562"/>
      <use xlink:href="#DejaVuSans-6e" x="1031.509766"/>
      <use xlink:href="#DejaVuSans-20" x="1094.888672"/>
      <use xlink:href="#DejaVuSans-4d" x="1126.675781"/>
      <use xlink:href="#DejaVuSans-57" x="1212.955078"/>
     </g>
    </g>
   </g>
   <g id="patch_183">
    <path d="M 172.8 650.412 
L 172.8 87.696 
" style="fill: none; stroke: #000000; stroke-width: 0.8; stroke-linejoin: miter; stroke-linecap: square"/>
   </g>
   <g id="patch_184">
    <path d="M 1244.16 650.412 
L 1244.16 87.696 
" style="fill: none; stroke: #000000; stroke-width: 0.8; stroke-linejoin: miter; stroke-linecap: square"/>
   </g>
   <g id="patch_185">
    <path d="M 172.8 650.412 
L 1244.16 650.412 
" style="fill: none; stroke: #000000; stroke-width: 0.8; stroke-linejoin: miter; stroke-linecap: square"/>
   </g>
   <g id="patch_186">
    <path d="M 172.8 87.696 
L 1244.16 87.696 
" style="fill: none; stroke: #000000; stroke-width: 0.8; stroke-linejoin: miter; stroke-linecap: square"/>
   </g>
   <g id="legend_1">
    <g id="patch_187">
     <path d="M 937.915312 641.412 
L 1231.56 641.412 
Q 1235.16 641.412 1235.16 637.812 
L 1235.16 401.826375 
Q 1235.16 398.226375 1231.56 398.226375 
L 937.915312 398.226375 
Q 934.315312 398.226375 934.315312 401.826375 
L 934.315312 637.812 
Q 934.315312 641.412 937.915312 641.412 
z
" style="fill: #ffffff; opacity: 0.8; stroke: #cccccc; stroke-linejoin: miter"/>
    </g>
    <g id="patch_188">
     <path d="M 941.515312 419.103563 
L 977.515312 419.103563 
L 977.515312 406.503563 
L 941.515312 406.503563 
z
" style="fill: #1f77b4"/>
    </g>
    <g id="text_17">
     <!-- Gas cooler -->
     <g transform="translate(991.915312 419.103563) scale(0.18 -0.18)">
      <defs>
       <path id="DejaVuSans-47" d="M 3809 666 
L 3809 1919 
L 2778 1919 
L 2778 2438 
L 4434 2438 
L 4434 434 
Q 4069 175 3628 42 
Q 3188 -91 2688 -91 
Q 1594 -91 976 548 
Q 359 1188 359 2328 
Q 359 3472 976 4111 
Q 1594 4750 2688 4750 
Q 3144 4750 3555 4637 
Q 3966 4525 4313 4306 
L 4313 3634 
Q 3963 3931 3569 4081 
Q 3175 4231 2741 4231 
Q 1884 4231 1454 3753 
Q 1025 3275 1025 2328 
Q 1025 1384 1454 906 
Q 1884 428 2741 428 
Q 3075 428 3337 486 
Q 3600 544 3809 666 
z
" transform="scale(0.015625)"/>
       <path id="DejaVuSans-6c" d="M 603 4863 
L 1178 4863 
L 1178 0 
L 603 0 
L 603 4863 
z
" transform="scale(0.015625)"/>
      </defs>
      <use xlink:href="#DejaVuSans-47"/>
      <use xlink:href="#DejaVuSans-61" x="77.490234"/>
      <use xlink:href="#DejaVuSans-73" x="138.769531"/>
      <use xlink:href="#DejaVuSans-20" x="190.869141"/>
      <use xlink:href="#DejaVuSans-63" x="222.65625"/>
      <use xlink:href="#DejaVuSans-6f" x="277.636719"/>
      <use xlink:href="#DejaVuSans-6f" x="338.818359"/>
      <use xlink:href="#DejaVuSans-6c" x="400"/>
      <use xlink:href="#DejaVuSans-65" x="427.783203"/>
      <use xlink:href="#DejaVuSans-72" x="489.306641"/>
     </g>
    </g>
    <g id="patch_189">
     <path d="M 941.515312 445.524188 
L 977.515312 445.524188 
L 977.515312 432.924188 
L 941.515312 432.924188 
z
" style="fill: #ff7f0e"/>
    </g>
    <g id="text_18">
     <!-- Evaporator -->
     <g transform="translate(991.915312 445.524188) scale(0.18 -0.18)">
      <defs>
       <path id="DejaVuSans-70" d="M 1159 525 
L 1159 -1331 
L 581 -1331 
L 581 3500 
L 1159 3500 
L 1159 2969 
Q 1341 3281 1617 3432 
Q 1894 3584 2278 3584 
Q 2916 3584 3314 3078 
Q 3713 2572 3713 1747 
Q 3713 922 3314 415 
Q 2916 -91 2278 -91 
Q 1894 -91 1617 61 
Q 1341 213 1159 525 
z
M 3116 1747 
Q 3116 2381 2855 2742 
Q 2594 3103 2138 3103 
Q 1681 3103 1420 2742 
Q 1159 2381 1159 1747 
Q 1159 1113 1420 752 
Q 1681 391 2138 391 
Q 2594 391 2855 752 
Q 3116 1113 3116 1747 
z
" transform="scale(0.015625)"/>
      </defs>
      <use xlink:href="#DejaVuSans-45"/>
      <use xlink:href="#DejaVuSans-76" x="63.183594"/>
      <use xlink:href="#DejaVuSans-61" x="122.363281"/>
      <use xlink:href="#DejaVuSans-70" x="183.642578"/>
      <use xlink:href="#DejaVuSans-6f" x="247.119141"/>
      <use xlink:href="#DejaVuSans-72" x="308.300781"/>
      <use xlink:href="#DejaVuSans-61" x="349.414062"/>
      <use xlink:href="#DejaVuSans-74" x="410.693359"/>
      <use xlink:href="#DejaVuSans-6f" x="449.902344"/>
      <use xlink:href="#DejaVuSans-72" x="511.083984"/>
     </g>
    </g>
    <g id="patch_190">
     <path d="M 941.515312 471.944813 
L 977.515312 471.944813 
L 977.515312 459.344813 
L 941.515312 459.344813 
z
" style="fill: #2ca02c"/>
    </g>
    <g id="text_19">
     <!-- Valve 1 -->
     <g transform="translate(991.915312 471.944813) scale(0.18 -0.18)">
      <defs>
       <path id="DejaVuSans-56" d="M 1831 0 
L 50 4666 
L 709 4666 
L 2188 738 
L 3669 4666 
L 4325 4666 
L 2547 0 
L 1831 0 
z
" transform="scale(0.015625)"/>
      </defs>
      <use xlink:href="#DejaVuSans-56"/>
      <use xlink:href="#DejaVuSans-61" x="60.658203"/>
      <use xlink:href="#DejaVuSans-6c" x="121.9375"/>
      <use xlink:href="#DejaVuSans-76" x="149.720703"/>
      <use xlink:href="#DejaVuSans-65" x="208.900391"/>
      <use xlink:href="#DejaVuSans-20" x="270.423828"/>
      <use xlink:href="#DejaVuSans-31" x="302.210938"/>
     </g>
    </g>
    <g id="patch_191">
     <path d="M 941.515312 498.365438 
L 977.515312 498.365438 
L 977.515312 485.765438 
L 941.515312 485.765438 
z
" style="fill: #d62728"/>
    </g>
    <g id="text_20">
     <!-- Valve 2 -->
     <g transform="translate(991.915312 498.365438) scale(0.18 -0.18)">
      <use xlink:href="#DejaVuSans-56"/>
      <use xlink:href="#DejaVuSans-61" x="60.658203"/>
      <use xlink:href="#DejaVuSans-6c" x="121.9375"/>
      <use xlink:href="#DejaVuSans-76" x="149.720703"/>
      <use xlink:href="#DejaVuSans-65" x="208.900391"/>
      <use xlink:href="#DejaVuSans-20" x="270.423828"/>
      <use xlink:href="#DejaVuSans-32" x="302.210938"/>
     </g>
    </g>
    <g id="patch_192">
     <path d="M 941.515312 524.786063 
L 977.515312 524.786063 
L 977.515312 512.186063 
L 941.515312 512.186063 
z
" style="fill: #9467bd"/>
    </g>
    <g id="text_21">
     <!-- Compressor 1 -->
     <g transform="translate(991.915312 524.786063) scale(0.18 -0.18)">
      <defs>
       <path id="DejaVuSans-43" d="M 4122 4306 
L 4122 3641 
Q 3803 3938 3442 4084 
Q 3081 4231 2675 4231 
Q 1875 4231 1450 3742 
Q 1025 3253 1025 2328 
Q 1025 1406 1450 917 
Q 1875 428 2675 428 
Q 3081 428 3442 575 
Q 3803 722 4122 1019 
L 4122 359 
Q 3791 134 3420 21 
Q 3050 -91 2638 -91 
Q 1578 -91 968 557 
Q 359 1206 359 2328 
Q 359 3453 968 4101 
Q 1578 4750 2638 4750 
Q 3056 4750 3426 4639 
Q 3797 4528 4122 4306 
z
" transform="scale(0.015625)"/>
       <path id="DejaVuSans-6d" d="M 3328 2828 
Q 3544 3216 3844 3400 
Q 4144 3584 4550 3584 
Q 5097 3584 5394 3201 
Q 5691 2819 5691 2113 
L 5691 0 
L 5113 0 
L 5113 2094 
Q 5113 2597 4934 2840 
Q 4756 3084 4391 3084 
Q 3944 3084 3684 2787 
Q 3425 2491 3425 1978 
L 3425 0 
L 2847 0 
L 2847 2094 
Q 2847 2600 2669 2842 
Q 2491 3084 2119 3084 
Q 1678 3084 1418 2786 
Q 1159 2488 1159 1978 
L 1159 0 
L 581 0 
L 581 3500 
L 1159 3500 
L 1159 2956 
Q 1356 3278 1631 3431 
Q 1906 3584 2284 3584 
Q 2666 3584 2933 3390 
Q 3200 3197 3328 2828 
z
" transform="scale(0.015625)"/>
      </defs>
      <use xlink:href="#DejaVuSans-43"/>
      <use xlink:href="#DejaVuSans-6f" x="69.824219"/>
      <use xlink:href="#DejaVuSans-6d" x="131.005859"/>
      <use xlink:href="#DejaVuSans-70" x="228.417969"/>
      <use xlink:href="#DejaVuSans-72" x="291.894531"/>
      <use xlink:href="#DejaVuSans-65" x="330.757812"/>
      <use xlink:href="#DejaVuSans-73" x="392.28125"/>
      <use xlink:href="#DejaVuSans-73" x="444.380859"/>
      <use xlink:href="#DejaVuSans-6f" x="496.480469"/>
      <use xlink:href="#DejaVuSans-72" x="557.662109"/>
      <use xlink:href="#DejaVuSans-20" x="598.775391"/>
      <use xlink:href="#DejaVuSans-31" x="630.5625"/>
     </g>
    </g>
    <g id="patch_193">
     <path d="M 941.515312 551.206688 
L 977.515312 551.206688 
L 977.515312 538.606688 
L 941.515312 538.606688 
z
" style="fill: #8c564b"/>
    </g>
    <g id="text_22">
     <!-- Compressor 2 -->
     <g transform="translate(991.915312 551.206688) scale(0.18 -0.18)">
      <use xlink:href="#DejaVuSans-43"/>
      <use xlink:href="#DejaVuSans-6f" x="69.824219"/>
      <use xlink:href="#DejaVuSans-6d" x="131.005859"/>
      <use xlink:href="#DejaVuSans-70" x="228.417969"/>
      <use xlink:href="#DejaVuSans-72" x="291.894531"/>
      <use xlink:href="#DejaVuSans-65" x="330.757812"/>
      <use xlink:href="#DejaVuSans-73" x="392.28125"/>
      <use xlink:href="#DejaVuSans-73" x="444.380859"/>
      <use xlink:href="#DejaVuSans-6f" x="496.480469"/>
      <use xlink:href="#DejaVuSans-72" x="557.662109"/>
      <use xlink:href="#DejaVuSans-20" x="598.775391"/>
      <use xlink:href="#DejaVuSans-32" x="630.5625"/>
     </g>
    </g>
    <g id="patch_194">
     <path d="M 941.515312 577.627313 
L 977.515312 577.627313 
L 977.515312 565.027313 
L 941.515312 565.027313 
z
" style="fill: #e377c2"/>
    </g>
    <g id="text_23">
     <!-- Internal Heat Exchanger 1 -->
     <g transform="translate(991.915312 577.627313) scale(0.18 -0.18)">
      <defs>
       <path id="DejaVuSans-49" d="M 628 4666 
L 1259 4666 
L 1259 0 
L 628 0 
L 628 4666 
z
" transform="scale(0.015625)"/>
       <path id="DejaVuSans-48" d="M 628 4666 
L 1259 4666 
L 1259 2753 
L 3553 2753 
L 3553 4666 
L 4184 4666 
L 4184 0 
L 3553 0 
L 3553 2222 
L 1259 2222 
L 1259 0 
L 628 0 
L 628 4666 
z
" transform="scale(0.015625)"/>
      </defs>
      <use xlink:href="#DejaVuSans-49"/>
      <use xlink:href="#DejaVuSans-6e" x="29.492188"/>
      <use xlink:href="#DejaVuSans-74" x="92.871094"/>
      <use xlink:href="#DejaVuSans-65" x="132.080078"/>
      <use xlink:href="#DejaVuSans-72" x="193.603516"/>
      <use xlink:href="#DejaVuSans-6e" x="232.966797"/>
      <use xlink:href="#DejaVuSans-61" x="296.345703"/>
      <use xlink:href="#DejaVuSans-6c" x="357.625"/>
      <use xlink:href="#DejaVuSans-20" x="385.408203"/>
      <use xlink:href="#DejaVuSans-48" x="417.195312"/>
      <use xlink:href="#DejaVuSans-65" x="492.390625"/>
      <use xlink:href="#DejaVuSans-61" x="553.914062"/>
      <use xlink:href="#DejaVuSans-74" x="615.193359"/>
      <use xlink:href="#DejaVuSans-20" x="654.402344"/>
      <use xlink:href="#DejaVuSans-45" x="686.189453"/>
      <use xlink:href="#DejaVuSans-78" x="749.373047"/>
      <use xlink:href="#DejaVuSans-63" x="806.802734"/>
      <use xlink:href="#DejaVuSans-68" x="861.783203"/>
      <use xlink:href="#DejaVuSans-61" x="925.162109"/>
      <use xlink:href="#DejaVuSans-6e" x="986.441406"/>
      <use xlink:href="#DejaVuSans-67" x="1049.820312"/>
      <use xlink:href="#DejaVuSans-65" x="1113.296875"/>
      <use xlink:href="#DejaVuSans-72" x="1174.820312"/>
      <use xlink:href="#DejaVuSans-20" x="1215.933594"/>
      <use xlink:href="#DejaVuSans-31" x="1247.720703"/>
     </g>
    </g>
    <g id="patch_195">
     <path d="M 941.515312 604.047938 
L 977.515312 604.047938 
L 977.515312 591.447938 
L 941.515312 591.447938 
z
" style="fill: #7f7f7f"/>
    </g>
    <g id="text_24">
     <!-- Internal Heat Exchanger 2 -->
     <g transform="translate(991.915312 604.047938) scale(0.18 -0.18)">
      <use xlink:href="#DejaVuSans-49"/>
      <use xlink:href="#DejaVuSans-6e" x="29.492188"/>
      <use xlink:href="#DejaVuSans-74" x="92.871094"/>
      <use xlink:href="#DejaVuSans-65" x="132.080078"/>
      <use xlink:href="#DejaVuSans-72" x="193.603516"/>
      <use xlink:href="#DejaVuSans-6e" x="232.966797"/>
      <use xlink:href="#DejaVuSans-61" x="296.345703"/>
      <use xlink:href="#DejaVuSans-6c" x="357.625"/>
      <use xlink:href="#DejaVuSans-20" x="385.408203"/>
      <use xlink:href="#DejaVuSans-48" x="417.195312"/>
      <use xlink:href="#DejaVuSans-65" x="492.390625"/>
      <use xlink:href="#DejaVuSans-61" x="553.914062"/>
      <use xlink:href="#DejaVuSans-74" x="615.193359"/>
      <use xlink:href="#DejaVuSans-20" x="654.402344"/>
      <use xlink:href="#DejaVuSans-45" x="686.189453"/>
      <use xlink:href="#DejaVuSans-78" x="749.373047"/>
      <use xlink:href="#DejaVuSans-63" x="806.802734"/>
      <use xlink:href="#DejaVuSans-68" x="861.783203"/>
      <use xlink:href="#DejaVuSans-61" x="925.162109"/>
      <use xlink:href="#DejaVuSans-6e" x="986.441406"/>
      <use xlink:href="#DejaVuSans-67" x="1049.820312"/>
      <use xlink:href="#DejaVuSans-65" x="1113.296875"/>
      <use xlink:href="#DejaVuSans-72" x="1174.820312"/>
      <use xlink:href="#DejaVuSans-20" x="1215.933594"/>
      <use xlink:href="#DejaVuSans-32" x="1247.720703"/>
     </g>
    </g>
    <g id="patch_196">
     <path d="M 941.515312 630.468563 
L 977.515312 630.468563 
L 977.515312 617.868563 
L 941.515312 617.868563 
z
" style="fill: #bcbd22"/>
    </g>
    <g id="text_25">
     <!-- Merge -->
     <g transform="translate(991.915312 630.468563) scale(0.18 -0.18)">
      <use xlink:href="#DejaVuSans-4d"/>
      <use xlink:href="#DejaVuSans-65" x="86.279297"/>
      <use xlink:href="#DejaVuSans-72" x="147.802734"/>
      <use xlink:href="#DejaVuSans-67" x="187.166016"/>
      <use xlink:href="#DejaVuSans-65" x="250.642578"/>
     </g>
    </g>
   </g>
  </g>
 </g>
 <defs>
  <clipPath id="pb979cc37f1">
   <rect x="172.8" y="87.696" width="1071.36" height="562.716"/>
  </clipPath>
 </defs>
</svg>
