<?xml version="1.0" encoding="utf-8" standalone="no"?>
<!DOCTYPE svg PUBLIC "-//W3C//DTD SVG 1.1//EN"
  "http://www.w3.org/Graphics/SVG/1.1/DTD/svg11.dtd">
<svg xmlns:xlink="http://www.w3.org/1999/xlink" width="1382.4pt" height="730.8pt" viewBox="0 0 1382.4 730.8" xmlns="http://www.w3.org/2000/svg" version="1.1">
 <metadata>
  <rdf:RDF xmlns:dc="http://purl.org/dc/elements/1.1/" xmlns:cc="http://creativecommons.org/ns#" xmlns:rdf="http://www.w3.org/1999/02/22-rdf-syntax-ns#">
   <cc:Work>
    <dc:type rdf:resource="http://purl.org/dc/dcmitype/StillImage"/>
    <dc:date>2023-02-28T12:10:16.781300</dc:date>
    <dc:format>image/svg+xml</dc:format>
    <dc:creator>
     <cc:Agent>
      <dc:title>Matplotlib v3.6.1, https://matplotlib.org/</dc:title>
     </cc:Agent>
    </dc:creator>
   </cc:Work>
  </rdf:RDF>
 </metadata>
 <defs>
  <style type="text/css">*{stroke-linejoin: round; stroke-linecap: butt}</style>
 </defs>
 <g id="figure_1">
  <g id="patch_1">
   <path d="M 0 730.8 
L 1382.4 730.8 
L 1382.4 0 
L 0 0 
z
" style="fill: #ffffff"/>
  </g>
  <g id="axes_1">
   <g id="patch_2">
    <path d="M 172.8 650.412 
L 1244.16 650.412 
L 1244.16 87.696 
L 172.8 87.696 
z
" style="fill: #ffffff"/>
   </g>
   <g id="patch_3">
    <path d="M 221.498182 650.412 
L 238.89039 650.412 
L 238.89039 588.007945 
L 221.498182 588.007945 
z
" clip-path="url(#p383a792c6d)" style="fill: #1f77b4"/>
   </g>
   <g id="patch_4">
    <path d="M 289.824712 650.412 
L 307.21692 650.412 
L 307.21692 584.16211 
L 289.824712 584.16211 
z
" clip-path="url(#p383a792c6d)" style="fill: #1f77b4"/>
   </g>
   <g id="patch_5">
    <path d="M 358.151243 650.412 
L 375.543451 650.412 
L 375.543451 580.578043 
L 358.151243 580.578043 
z
" clip-path="url(#p383a792c6d)" style="fill: #1f77b4"/>
   </g>
   <g id="patch_6">
    <path d="M 426.477774 650.412 
L 443.869981 650.412 
L 443.869981 577.293708 
L 426.477774 577.293708 
z
" clip-path="url(#p383a792c6d)" style="fill: #1f77b4"/>
   </g>
   <g id="patch_7">
    <path d="M 494.804304 650.412 
L 512.196512 650.412 
L 512.196512 574.305005 
L 494.804304 574.305005 
z
" clip-path="url(#p383a792c6d)" style="fill: #1f77b4"/>
   </g>
   <g id="patch_8">
    <path d="M 563.130835 650.412 
L 580.523043 650.412 
L 580.523043 571.59611 
L 563.130835 571.59611 
z
" clip-path="url(#p383a792c6d)" style="fill: #1f77b4"/>
   </g>
   <g id="patch_9">
    <path d="M 631.457365 650.412 
L 648.849573 650.412 
L 648.849573 569.147847 
L 631.457365 569.147847 
z
" clip-path="url(#p383a792c6d)" style="fill: #1f77b4"/>
   </g>
   <g id="patch_10">
    <path d="M 699.783896 650.412 
L 717.176104 650.412 
L 717.176104 566.940581 
L 699.783896 566.940581 
z
" clip-path="url(#p383a792c6d)" style="fill: #1f77b4"/>
   </g>
   <g id="patch_11">
    <path d="M 768.110427 650.412 
L 785.502635 650.412 
L 785.502635 564.955338 
L 768.110427 564.955338 
z
" clip-path="url(#p383a792c6d)" style="fill: #1f77b4"/>
   </g>
   <g id="patch_12">
    <path d="M 836.436957 650.412 
L 853.829165 650.412 
L 853.829165 563.174217 
L 836.436957 563.174217 
z
" clip-path="url(#p383a792c6d)" style="fill: #1f77b4"/>
   </g>
   <g id="patch_13">
    <path d="M 904.763488 650.412 
L 922.155696 650.412 
L 922.155696 561.580527 
L 904.763488 561.580527 
z
" clip-path="url(#p383a792c6d)" style="fill: #1f77b4"/>
   </g>
   <g id="patch_14">
    <path d="M 973.090019 650.412 
L 990.482226 650.412 
L 990.482226 560.158794 
L 973.090019 560.158794 
z
" clip-path="url(#p383a792c6d)" style="fill: #1f77b4"/>
   </g>
   <g id="patch_15">
    <path d="M 1041.416549 650.412 
L 1058.808757 650.412 
L 1058.808757 558.894709 
L 1041.416549 558.894709 
z
" clip-path="url(#p383a792c6d)" style="fill: #1f77b4"/>
   </g>
   <g id="patch_16">
    <path d="M 1109.74308 650.412 
L 1127.135288 650.412 
L 1127.135288 557.77506 
L 1109.74308 557.77506 
z
" clip-path="url(#p383a792c6d)" style="fill: #1f77b4"/>
   </g>
   <g id="patch_17">
    <path d="M 1178.06961 650.412 
L 1195.461818 650.412 
L 1195.461818 556.787654 
L 1178.06961 556.787654 
z
" clip-path="url(#p383a792c6d)" style="fill: #1f77b4"/>
   </g>
   <g id="patch_18">
    <path d="M 221.498182 588.007945 
L 238.89039 588.007945 
L 238.89039 559.467222 
L 221.498182 559.467222 
z
" clip-path="url(#p383a792c6d)" style="fill: #ff7f0e"/>
   </g>
   <g id="patch_19">
    <path d="M 289.824712 584.16211 
L 307.21692 584.16211 
L 307.21692 555.773545 
L 289.824712 555.773545 
z
" clip-path="url(#p383a792c6d)" style="fill: #ff7f0e"/>
   </g>
   <g id="patch_20">
    <path d="M 358.151243 580.578043 
L 375.543451 580.578043 
L 375.543451 552.335297 
L 358.151243 552.335297 
z
" clip-path="url(#p383a792c6d)" style="fill: #ff7f0e"/>
   </g>
   <g id="patch_21">
    <path d="M 426.477774 577.293708 
L 443.869981 577.293708 
L 443.869981 549.189754 
L 426.477774 549.189754 
z
" clip-path="url(#p383a792c6d)" style="fill: #ff7f0e"/>
   </g>
   <g id="patch_22">
    <path d="M 494.804304 574.305005 
L 512.196512 574.305005 
L 512.196512 546.332983 
L 494.804304 546.332983 
z
" clip-path="url(#p383a792c6d)" style="fill: #ff7f0e"/>
   </g>
   <g id="patch_23">
    <path d="M 563.130835 571.59611 
L 580.523043 571.59611 
L 580.523043 543.749551 
L 563.130835 543.749551 
z
" clip-path="url(#p383a792c6d)" style="fill: #ff7f0e"/>
   </g>
   <g id="patch_24">
    <path d="M 631.457365 569.147847 
L 648.849573 569.147847 
L 648.849573 541.420717 
L 631.457365 541.420717 
z
" clip-path="url(#p383a792c6d)" style="fill: #ff7f0e"/>
   </g>
   <g id="patch_25">
    <path d="M 699.783896 566.940581 
L 717.176104 566.940581 
L 717.176104 539.327278 
L 699.783896 539.327278 
z
" clip-path="url(#p383a792c6d)" style="fill: #ff7f0e"/>
   </g>
   <g id="patch_26">
    <path d="M 768.110427 564.955338 
L 785.502635 564.955338 
L 785.502635 537.450667 
L 768.110427 537.450667 
z
" clip-path="url(#p383a792c6d)" style="fill: #ff7f0e"/>
   </g>
   <g id="patch_27">
    <path d="M 836.436957 563.174217 
L 853.829165 563.174217 
L 853.829165 535.773359 
L 836.436957 535.773359 
z
" clip-path="url(#p383a792c6d)" style="fill: #ff7f0e"/>
   </g>
   <g id="patch_28">
    <path d="M 904.763488 561.580527 
L 922.155696 561.580527 
L 922.155696 534.279011 
L 904.763488 534.279011 
z
" clip-path="url(#p383a792c6d)" style="fill: #ff7f0e"/>
   </g>
   <g id="patch_29">
    <path d="M 973.090019 560.158794 
L 990.482226 560.158794 
L 990.482226 532.952463 
L 973.090019 532.952463 
z
" clip-path="url(#p383a792c6d)" style="fill: #ff7f0e"/>
   </g>
   <g id="patch_30">
    <path d="M 1041.416549 558.894709 
L 1058.808757 558.894709 
L 1058.808757 531.779698 
L 1041.416549 531.779698 
z
" clip-path="url(#p383a792c6d)" style="fill: #ff7f0e"/>
   </g>
   <g id="patch_31">
    <path d="M 1109.74308 557.77506 
L 1127.135288 557.77506 
L 1127.135288 530.747768 
L 1109.74308 530.747768 
z
" clip-path="url(#p383a792c6d)" style="fill: #ff7f0e"/>
   </g>
   <g id="patch_32">
    <path d="M 1178.06961 556.787654 
L 1195.461818 556.787654 
L 1195.461818 529.844722 
L 1178.06961 529.844722 
z
" clip-path="url(#p383a792c6d)" style="fill: #ff7f0e"/>
   </g>
   <g id="patch_33">
    <path d="M 221.498182 559.467222 
L 238.89039 559.467222 
L 238.89039 495.700522 
L 221.498182 495.700522 
z
" clip-path="url(#p383a792c6d)" style="fill: #2ca02c"/>
   </g>
   <g id="patch_34">
    <path d="M 289.824712 555.773545 
L 307.21692 555.773545 
L 307.21692 492.3468 
L 289.824712 492.3468 
z
" clip-path="url(#p383a792c6d)" style="fill: #2ca02c"/>
   </g>
   <g id="patch_35">
    <path d="M 358.151243 552.335297 
L 375.543451 552.335297 
L 375.543451 489.234346 
L 358.151243 489.234346 
z
" clip-path="url(#p383a792c6d)" style="fill: #2ca02c"/>
   </g>
   <g id="patch_36">
    <path d="M 426.477774 549.189754 
L 443.869981 549.189754 
L 443.869981 486.398896 
L 426.477774 486.398896 
z
" clip-path="url(#p383a792c6d)" style="fill: #2ca02c"/>
   </g>
   <g id="patch_37">
    <path d="M 494.804304 546.332983 
L 512.196512 546.332983 
L 512.196512 483.836895 
L 494.804304 483.836895 
z
" clip-path="url(#p383a792c6d)" style="fill: #2ca02c"/>
   </g>
   <g id="patch_38">
    <path d="M 563.130835 543.749551 
L 580.523043 543.749551 
L 580.523043 481.533775 
L 563.130835 481.533775 
z
" clip-path="url(#p383a792c6d)" style="fill: #2ca02c"/>
   </g>
   <g id="patch_39">
    <path d="M 631.457365 541.420717 
L 648.849573 541.420717 
L 648.849573 479.471773 
L 631.457365 479.471773 
z
" clip-path="url(#p383a792c6d)" style="fill: #2ca02c"/>
   </g>
   <g id="patch_40">
    <path d="M 699.783896 539.327278 
L 717.176104 539.327278 
L 717.176104 477.632651 
L 699.783896 477.632651 
z
" clip-path="url(#p383a792c6d)" style="fill: #2ca02c"/>
   </g>
   <g id="patch_41">
    <path d="M 768.110427 537.450667 
L 785.502635 537.450667 
L 785.502635 475.998748 
L 768.110427 475.998748 
z
" clip-path="url(#p383a792c6d)" style="fill: #2ca02c"/>
   </g>
   <g id="patch_42">
    <path d="M 836.436957 535.773359 
L 853.829165 535.773359 
L 853.829165 474.553384 
L 836.436957 474.553384 
z
" clip-path="url(#p383a792c6d)" style="fill: #2ca02c"/>
   </g>
   <g id="patch_43">
    <path d="M 904.763488 534.279011 
L 922.155696 534.279011 
L 922.155696 473.280987 
L 904.763488 473.280987 
z
" clip-path="url(#p383a792c6d)" style="fill: #2ca02c"/>
   </g>
   <g id="patch_44">
    <path d="M 973.090019 532.952463 
L 990.482226 532.952463 
L 990.482226 472.167108 
L 973.090019 472.167108 
z
" clip-path="url(#p383a792c6d)" style="fill: #2ca02c"/>
   </g>
   <g id="patch_45">
    <path d="M 1041.416549 531.779698 
L 1058.808757 531.779698 
L 1058.808757 471.198373 
L 1041.416549 471.198373 
z
" clip-path="url(#p383a792c6d)" style="fill: #2ca02c"/>
   </g>
   <g id="patch_46">
    <path d="M 1109.74308 530.747768 
L 1127.135288 530.747768 
L 1127.135288 470.362428 
L 1109.74308 470.362428 
z
" clip-path="url(#p383a792c6d)" style="fill: #2ca02c"/>
   </g>
   <g id="patch_47">
    <path d="M 1178.06961 529.844722 
L 1195.461818 529.844722 
L 1195.461818 469.647863 
L 1178.06961 469.647863 
z
" clip-path="url(#p383a792c6d)" style="fill: #2ca02c"/>
   </g>
   <g id="patch_48">
    <path d="M 221.498182 495.700522 
L 238.89039 495.700522 
L 238.89039 469.835935 
L 221.498182 469.835935 
z
" clip-path="url(#p383a792c6d)" style="fill: #d62728"/>
   </g>
   <g id="patch_49">
    <path d="M 289.824712 492.3468 
L 307.21692 492.3468 
L 307.21692 465.348184 
L 289.824712 465.348184 
z
" clip-path="url(#p383a792c6d)" style="fill: #d62728"/>
   </g>
   <g id="patch_50">
    <path d="M 358.151243 489.234346 
L 375.543451 489.234346 
L 375.543451 460.847919 
L 358.151243 460.847919 
z
" clip-path="url(#p383a792c6d)" style="fill: #d62728"/>
   </g>
   <g id="patch_51">
    <path d="M 426.477774 486.398896 
L 443.869981 486.398896 
L 443.869981 456.51145 
L 426.477774 456.51145 
z
" clip-path="url(#p383a792c6d)" style="fill: #d62728"/>
   </g>
   <g id="patch_52">
    <path d="M 494.804304 483.836895 
L 512.196512 483.836895 
L 512.196512 452.391831 
L 494.804304 452.391831 
z
" clip-path="url(#p383a792c6d)" style="fill: #d62728"/>
   </g>
   <g id="patch_53">
    <path d="M 563.130835 481.533775 
L 580.523043 481.533775 
L 580.523043 448.502298 
L 563.130835 448.502298 
z
" clip-path="url(#p383a792c6d)" style="fill: #d62728"/>
   </g>
   <g id="patch_54">
    <path d="M 631.457365 479.471773 
L 648.849573 479.471773 
L 648.849573 444.840298 
L 631.457365 444.840298 
z
" clip-path="url(#p383a792c6d)" style="fill: #d62728"/>
   </g>
   <g id="patch_55">
    <path d="M 699.783896 477.632651 
L 717.176104 477.632651 
L 717.176104 441.396526 
L 699.783896 441.396526 
z
" clip-path="url(#p383a792c6d)" style="fill: #d62728"/>
   </g>
   <g id="patch_56">
    <path d="M 768.110427 475.998748 
L 785.502635 475.998748 
L 785.502635 438.158803 
L 768.110427 438.158803 
z
" clip-path="url(#p383a792c6d)" style="fill: #d62728"/>
   </g>
   <g id="patch_57">
    <path d="M 836.436957 474.553384 
L 853.829165 474.553384 
L 853.829165 435.113906 
L 836.436957 435.113906 
z
" clip-path="url(#p383a792c6d)" style="fill: #d62728"/>
   </g>
   <g id="patch_58">
    <path d="M 904.763488 473.280987 
L 922.155696 473.280987 
L 922.155696 432.248475 
L 904.763488 432.248475 
z
" clip-path="url(#p383a792c6d)" style="fill: #d62728"/>
   </g>
   <g id="patch_59">
    <path d="M 973.090019 472.167108 
L 990.482226 472.167108 
L 990.482226 429.549475 
L 973.090019 429.549475 
z
" clip-path="url(#p383a792c6d)" style="fill: #d62728"/>
   </g>
   <g id="patch_60">
    <path d="M 1041.416549 471.198373 
L 1058.808757 471.198373 
L 1058.808757 427.004425 
L 1041.416549 427.004425 
z
" clip-path="url(#p383a792c6d)" style="fill: #d62728"/>
   </g>
   <g id="patch_61">
    <path d="M 1109.74308 470.362428 
L 1127.135288 470.362428 
L 1127.135288 424.601512 
L 1109.74308 424.601512 
z
" clip-path="url(#p383a792c6d)" style="fill: #d62728"/>
   </g>
   <g id="patch_62">
    <path d="M 1178.06961 469.647863 
L 1195.461818 469.647863 
L 1195.461818 422.329629 
L 1178.06961 422.329629 
z
" clip-path="url(#p383a792c6d)" style="fill: #d62728"/>
   </g>
   <g id="patch_63">
    <path d="M 221.498182 469.835935 
L 238.89039 469.835935 
L 238.89039 255.080942 
L 221.498182 255.080942 
z
" clip-path="url(#p383a792c6d)" style="fill: #9467bd"/>
   </g>
   <g id="patch_64">
    <path d="M 289.824712 465.348184 
L 307.21692 465.348184 
L 307.21692 248.782255 
L 289.824712 248.782255 
z
" clip-path="url(#p383a792c6d)" style="fill: #9467bd"/>
   </g>
   <g id="patch_65">
    <path d="M 358.151243 460.847919 
L 375.543451 460.847919 
L 375.543451 242.592437 
L 358.151243 242.592437 
z
" clip-path="url(#p383a792c6d)" style="fill: #9467bd"/>
   </g>
   <g id="patch_66">
    <path d="M 426.477774 456.51145 
L 443.869981 456.51145 
L 443.869981 236.669455 
L 426.477774 236.669455 
z
" clip-path="url(#p383a792c6d)" style="fill: #9467bd"/>
   </g>
   <g id="patch_67">
    <path d="M 494.804304 452.391831 
L 512.196512 452.391831 
L 512.196512 231.05565 
L 494.804304 231.05565 
z
" clip-path="url(#p383a792c6d)" style="fill: #9467bd"/>
   </g>
   <g id="patch_68">
    <path d="M 563.130835 448.502298 
L 580.523043 448.502298 
L 580.523043 225.756218 
L 563.130835 225.756218 
z
" clip-path="url(#p383a792c6d)" style="fill: #9467bd"/>
   </g>
   <g id="patch_69">
    <path d="M 631.457365 444.840298 
L 648.849573 444.840298 
L 648.849573 220.761993 
L 631.457365 220.761993 
z
" clip-path="url(#p383a792c6d)" style="fill: #9467bd"/>
   </g>
   <g id="patch_70">
    <path d="M 699.783896 441.396526 
L 717.176104 441.396526 
L 717.176104 216.057897 
L 699.783896 216.057897 
z
" clip-path="url(#p383a792c6d)" style="fill: #9467bd"/>
   </g>
   <g id="patch_71">
    <path d="M 768.110427 438.158803 
L 785.502635 438.158803 
L 785.502635 211.626586 
L 768.110427 211.626586 
z
" clip-path="url(#p383a792c6d)" style="fill: #9467bd"/>
   </g>
   <g id="patch_72">
    <path d="M 836.436957 435.113906 
L 853.829165 435.113906 
L 853.829165 207.450141 
L 836.436957 207.450141 
z
" clip-path="url(#p383a792c6d)" style="fill: #9467bd"/>
   </g>
   <g id="patch_73">
    <path d="M 904.763488 432.248475 
L 922.155696 432.248475 
L 922.155696 203.510893 
L 904.763488 203.510893 
z
" clip-path="url(#p383a792c6d)" style="fill: #9467bd"/>
   </g>
   <g id="patch_74">
    <path d="M 973.090019 429.549475 
L 990.482226 429.549475 
L 990.482226 199.791835 
L 973.090019 199.791835 
z
" clip-path="url(#p383a792c6d)" style="fill: #9467bd"/>
   </g>
   <g id="patch_75">
    <path d="M 1041.416549 427.004425 
L 1058.808757 427.004425 
L 1058.808757 196.276806 
L 1041.416549 196.276806 
z
" clip-path="url(#p383a792c6d)" style="fill: #9467bd"/>
   </g>
   <g id="patch_76">
    <path d="M 1109.74308 424.601512 
L 1127.135288 424.601512 
L 1127.135288 192.950573 
L 1109.74308 192.950573 
z
" clip-path="url(#p383a792c6d)" style="fill: #9467bd"/>
   </g>
   <g id="patch_77">
    <path d="M 1178.06961 422.329629 
L 1195.461818 422.329629 
L 1195.461818 189.798844 
L 1178.06961 189.798844 
z
" clip-path="url(#p383a792c6d)" style="fill: #9467bd"/>
   </g>
   <g id="patch_78">
    <path d="M 221.498182 255.080942 
L 238.89039 255.080942 
L 238.89039 246.18155 
L 221.498182 246.18155 
z
" clip-path="url(#p383a792c6d)" style="fill: #8c564b"/>
   </g>
   <g id="patch_79">
    <path d="M 289.824712 248.782255 
L 307.21692 248.782255 
L 307.21692 239.58798 
L 289.824712 239.58798 
z
" clip-path="url(#p383a792c6d)" style="fill: #8c564b"/>
   </g>
   <g id="patch_80">
    <path d="M 358.151243 242.592437 
L 375.543451 242.592437 
L 375.543451 233.096345 
L 358.151243 233.096345 
z
" clip-path="url(#p383a792c6d)" style="fill: #8c564b"/>
   </g>
   <g id="patch_81">
    <path d="M 426.477774 236.669455 
L 443.869981 236.669455 
L 443.869981 226.896211 
L 426.477774 226.896211 
z
" clip-path="url(#p383a792c6d)" style="fill: #8c564b"/>
   </g>
   <g id="patch_82">
    <path d="M 494.804304 231.05565 
L 512.196512 231.05565 
L 512.196512 221.036906 
L 494.804304 221.036906 
z
" clip-path="url(#p383a792c6d)" style="fill: #8c564b"/>
   </g>
   <g id="patch_83">
    <path d="M 563.130835 225.756218 
L 580.523043 225.756218 
L 580.523043 215.523602 
L 563.130835 215.523602 
z
" clip-path="url(#p383a792c6d)" style="fill: #8c564b"/>
   </g>
   <g id="patch_84">
    <path d="M 631.457365 220.761993 
L 648.849573 220.761993 
L 648.849573 210.344832 
L 631.457365 210.344832 
z
" clip-path="url(#p383a792c6d)" style="fill: #8c564b"/>
   </g>
   <g id="patch_85">
    <path d="M 699.783896 216.057897 
L 717.176104 216.057897 
L 717.176104 205.482539 
L 699.783896 205.482539 
z
" clip-path="url(#p383a792c6d)" style="fill: #8c564b"/>
   </g>
   <g id="patch_86">
    <path d="M 768.110427 211.626586 
L 785.502635 211.626586 
L 785.502635 200.916338 
L 768.110427 200.916338 
z
" clip-path="url(#p383a792c6d)" style="fill: #8c564b"/>
   </g>
   <g id="patch_87">
    <path d="M 836.436957 207.450141 
L 853.829165 207.450141 
L 853.829165 196.625444 
L 836.436957 196.625444 
z
" clip-path="url(#p383a792c6d)" style="fill: #8c564b"/>
   </g>
   <g id="patch_88">
    <path d="M 904.763488 203.510893 
L 922.155696 203.510893 
L 922.155696 192.589591 
L 904.763488 192.589591 
z
" clip-path="url(#p383a792c6d)" style="fill: #8c564b"/>
   </g>
   <g id="patch_89">
    <path d="M 973.090019 199.791835 
L 990.482226 199.791835 
L 990.482226 188.789456 
L 973.090019 188.789456 
z
" clip-path="url(#p383a792c6d)" style="fill: #8c564b"/>
   </g>
   <g id="patch_90">
    <path d="M 1041.416549 196.276806 
L 1058.808757 196.276806 
L 1058.808757 185.206838 
L 1041.416549 185.206838 
z
" clip-path="url(#p383a792c6d)" style="fill: #8c564b"/>
   </g>
   <g id="patch_91">
    <path d="M 1109.74308 192.950573 
L 1127.135288 192.950573 
L 1127.135288 181.824715 
L 1109.74308 181.824715 
z
" clip-path="url(#p383a792c6d)" style="fill: #8c564b"/>
   </g>
   <g id="patch_92">
    <path d="M 1178.06961 189.798844 
L 1195.461818 189.798844 
L 1195.461818 178.627233 
L 1178.06961 178.627233 
z
" clip-path="url(#p383a792c6d)" style="fill: #8c564b"/>
   </g>
   <g id="patch_93">
    <path d="M 221.498182 246.18155 
L 238.89039 246.18155 
L 238.89039 185.264718 
L 221.498182 185.264718 
z
" clip-path="url(#p383a792c6d)" style="fill: #e377c2"/>
   </g>
   <g id="patch_94">
    <path d="M 289.824712 239.58798 
L 307.21692 239.58798 
L 307.21692 178.99591 
L 289.824712 178.99591 
z
" clip-path="url(#p383a792c6d)" style="fill: #e377c2"/>
   </g>
   <g id="patch_95">
    <path d="M 358.151243 233.096345 
L 375.543451 233.096345 
L 375.543451 172.815509 
L 358.151243 172.815509 
z
" clip-path="url(#p383a792c6d)" style="fill: #e377c2"/>
   </g>
   <g id="patch_96">
    <path d="M 426.477774 226.896211 
L 443.869981 226.896211 
L 443.869981 166.911609 
L 426.477774 166.911609 
z
" clip-path="url(#p383a792c6d)" style="fill: #e377c2"/>
   </g>
   <g id="patch_97">
    <path d="M 494.804304 221.036906 
L 512.196512 221.036906 
L 512.196512 161.333899 
L 494.804304 161.333899 
z
" clip-path="url(#p383a792c6d)" style="fill: #e377c2"/>
   </g>
   <g id="patch_98">
    <path d="M 563.130835 215.523602 
L 580.523043 215.523602 
L 580.523043 156.08838 
L 563.130835 156.08838 
z
" clip-path="url(#p383a792c6d)" style="fill: #e377c2"/>
   </g>
   <g id="patch_99">
    <path d="M 631.457365 210.344832 
L 648.849573 210.344832 
L 648.849573 151.164517 
L 631.457365 151.164517 
z
" clip-path="url(#p383a792c6d)" style="fill: #e377c2"/>
   </g>
   <g id="patch_100">
    <path d="M 699.783896 205.482539 
L 717.176104 205.482539 
L 717.176104 146.545175 
L 699.783896 146.545175 
z
" clip-path="url(#p383a792c6d)" style="fill: #e377c2"/>
   </g>
   <g id="patch_101">
    <path d="M 768.110427 200.916338 
L 785.502635 200.916338 
L 785.502635 142.210835 
L 768.110427 142.210835 
z
" clip-path="url(#p383a792c6d)" style="fill: #e377c2"/>
   </g>
   <g id="patch_102">
    <path d="M 836.436957 196.625444 
L 853.829165 196.625444 
L 853.829165 138.141519 
L 836.436957 138.141519 
z
" clip-path="url(#p383a792c6d)" style="fill: #e377c2"/>
   </g>
   <g id="patch_103">
    <path d="M 904.763488 192.589591 
L 922.155696 192.589591 
L 922.155696 134.317699 
L 904.763488 134.317699 
z
" clip-path="url(#p383a792c6d)" style="fill: #e377c2"/>
   </g>
   <g id="patch_104">
    <path d="M 973.090019 188.789456 
L 990.482226 188.789456 
L 990.482226 130.720727 
L 973.090019 130.720727 
z
" clip-path="url(#p383a792c6d)" style="fill: #e377c2"/>
   </g>
   <g id="patch_105">
    <path d="M 1041.416549 185.206838 
L 1058.808757 185.206838 
L 1058.808757 127.33302 
L 1041.416549 127.33302 
z
" clip-path="url(#p383a792c6d)" style="fill: #e377c2"/>
   </g>
   <g id="patch_106">
    <path d="M 1109.74308 181.824715 
L 1127.135288 181.824715 
L 1127.135288 124.138123 
L 1109.74308 124.138123 
z
" clip-path="url(#p383a792c6d)" style="fill: #e377c2"/>
   </g>
   <g id="patch_107">
    <path d="M 1178.06961 178.627233 
L 1195.461818 178.627233 
L 1195.461818 121.120699 
L 1178.06961 121.120699 
z
" clip-path="url(#p383a792c6d)" style="fill: #e377c2"/>
   </g>
   <g id="patch_108">
    <path d="M 221.498182 185.264718 
L 238.89039 185.264718 
L 238.89039 184.526408 
L 221.498182 184.526408 
z
" clip-path="url(#p383a792c6d)" style="fill: #7f7f7f"/>
   </g>
   <g id="patch_109">
    <path d="M 289.824712 178.99591 
L 307.21692 178.99591 
L 307.21692 178.318198 
L 289.824712 178.318198 
z
" clip-path="url(#p383a792c6d)" style="fill: #7f7f7f"/>
   </g>
   <g id="patch_110">
    <path d="M 358.151243 172.815509 
L 375.543451 172.815509 
L 375.543451 172.181898 
L 358.151243 172.181898 
z
" clip-path="url(#p383a792c6d)" style="fill: #7f7f7f"/>
   </g>
   <g id="patch_111">
    <path d="M 426.477774 166.911609 
L 443.869981 166.911609 
L 443.869981 166.312954 
L 426.477774 166.312954 
z
" clip-path="url(#p383a792c6d)" style="fill: #7f7f7f"/>
   </g>
   <g id="patch_112">
    <path d="M 494.804304 161.333899 
L 512.196512 161.333899 
L 512.196512 160.764283 
L 494.804304 160.764283 
z
" clip-path="url(#p383a792c6d)" style="fill: #7f7f7f"/>
   </g>
   <g id="patch_113">
    <path d="M 563.130835 156.08838 
L 580.523043 156.08838 
L 580.523043 155.543616 
L 563.130835 155.543616 
z
" clip-path="url(#p383a792c6d)" style="fill: #7f7f7f"/>
   </g>
   <g id="patch_114">
    <path d="M 631.457365 151.164517 
L 648.849573 151.164517 
L 648.849573 150.641472 
L 631.457365 150.641472 
z
" clip-path="url(#p383a792c6d)" style="fill: #7f7f7f"/>
   </g>
   <g id="patch_115">
    <path d="M 699.783896 146.545175 
L 717.176104 146.545175 
L 717.176104 146.041409 
L 699.783896 146.041409 
z
" clip-path="url(#p383a792c6d)" style="fill: #7f7f7f"/>
   </g>
   <g id="patch_116">
    <path d="M 768.110427 142.210835 
L 785.502635 142.210835 
L 785.502635 141.724386 
L 768.110427 141.724386 
z
" clip-path="url(#p383a792c6d)" style="fill: #7f7f7f"/>
   </g>
   <g id="patch_117">
    <path d="M 836.436957 138.141519 
L 853.829165 138.141519 
L 853.829165 137.670776 
L 836.436957 137.670776 
z
" clip-path="url(#p383a792c6d)" style="fill: #7f7f7f"/>
   </g>
   <g id="patch_118">
    <path d="M 904.763488 134.317699 
L 922.155696 134.317699 
L 922.155696 133.86131 
L 904.763488 133.86131 
z
" clip-path="url(#p383a792c6d)" style="fill: #7f7f7f"/>
   </g>
   <g id="patch_119">
    <path d="M 973.090019 130.720727 
L 990.482226 130.720727 
L 990.482226 130.277544 
L 973.090019 130.277544 
z
" clip-path="url(#p383a792c6d)" style="fill: #7f7f7f"/>
   </g>
   <g id="patch_120">
    <path d="M 1041.416549 127.33302 
L 1058.808757 127.33302 
L 1058.808757 126.902054 
L 1041.416549 126.902054 
z
" clip-path="url(#p383a792c6d)" style="fill: #7f7f7f"/>
   </g>
   <g id="patch_121">
    <path d="M 1109.74308 124.138123 
L 1127.135288 124.138123 
L 1127.135288 123.718511 
L 1109.74308 123.718511 
z
" clip-path="url(#p383a792c6d)" style="fill: #7f7f7f"/>
   </g>
   <g id="patch_122">
    <path d="M 1178.06961 121.120699 
L 1195.461818 121.120699 
L 1195.461818 120.711684 
L 1178.06961 120.711684 
z
" clip-path="url(#p383a792c6d)" style="fill: #7f7f7f"/>
   </g>
   <g id="patch_123">
    <path d="M 221.498182 184.526408 
L 238.89039 184.526408 
L 238.89039 172.879122 
L 221.498182 172.879122 
z
" clip-path="url(#p383a792c6d)" style="fill: #bcbd22"/>
   </g>
   <g id="patch_124">
    <path d="M 289.824712 178.318198 
L 307.21692 178.318198 
L 307.21692 167.51512 
L 289.824712 167.51512 
z
" clip-path="url(#p383a792c6d)" style="fill: #bcbd22"/>
   </g>
   <g id="patch_125">
    <path d="M 358.151243 172.181898 
L 375.543451 172.181898 
L 375.543451 162.045588 
L 358.151243 162.045588 
z
" clip-path="url(#p383a792c6d)" style="fill: #bcbd22"/>
   </g>
   <g id="patch_126">
    <path d="M 426.477774 166.312954 
L 443.869981 166.312954 
L 443.869981 156.736401 
L 426.477774 156.736401 
z
" clip-path="url(#p383a792c6d)" style="fill: #bcbd22"/>
   </g>
   <g id="patch_127">
    <path d="M 494.804304 160.764283 
L 512.196512 160.764283 
L 512.196512 151.672858 
L 494.804304 151.672858 
z
" clip-path="url(#p383a792c6d)" style="fill: #bcbd22"/>
   </g>
   <g id="patch_128">
    <path d="M 563.130835 155.543616 
L 580.523043 155.543616 
L 580.523043 146.880785 
L 563.130835 146.880785 
z
" clip-path="url(#p383a792c6d)" style="fill: #bcbd22"/>
   </g>
   <g id="patch_129">
    <path d="M 631.457365 150.641472 
L 648.849573 150.641472 
L 648.849573 142.362057 
L 631.457365 142.362057 
z
" clip-path="url(#p383a792c6d)" style="fill: #bcbd22"/>
   </g>
   <g id="patch_130">
    <path d="M 699.783896 146.041409 
L 717.176104 146.041409 
L 717.176104 138.107955 
L 699.783896 138.107955 
z
" clip-path="url(#p383a792c6d)" style="fill: #bcbd22"/>
   </g>
   <g id="patch_131">
    <path d="M 768.110427 141.724386 
L 785.502635 141.724386 
L 785.502635 134.105005 
L 768.110427 134.105005 
z
" clip-path="url(#p383a792c6d)" style="fill: #bcbd22"/>
   </g>
   <g id="patch_132">
    <path d="M 836.436957 137.670776 
L 853.829165 137.670776 
L 853.829165 130.33778 
L 836.436957 130.33778 
z
" clip-path="url(#p383a792c6d)" style="fill: #bcbd22"/>
   </g>
   <g id="patch_133">
    <path d="M 904.763488 133.86131 
L 922.155696 133.86131 
L 922.155696 126.790311 
L 904.763488 126.790311 
z
" clip-path="url(#p383a792c6d)" style="fill: #bcbd22"/>
   </g>
   <g id="patch_134">
    <path d="M 973.090019 130.277544 
L 990.482226 130.277544 
L 990.482226 123.446818 
L 973.090019 123.446818 
z
" clip-path="url(#p383a792c6d)" style="fill: #bcbd22"/>
   </g>
   <g id="patch_135">
    <path d="M 1041.416549 126.902054 
L 1058.808757 126.902054 
L 1058.808757 120.292095 
L 1041.416549 120.292095 
z
" clip-path="url(#p383a792c6d)" style="fill: #bcbd22"/>
   </g>
   <g id="patch_136">
    <path d="M 1109.74308 123.718511 
L 1127.135288 123.718511 
L 1127.135288 117.311691 
L 1109.74308 117.311691 
z
" clip-path="url(#p383a792c6d)" style="fill: #bcbd22"/>
   </g>
   <g id="patch_137">
    <path d="M 1178.06961 120.711684 
L 1195.461818 120.711684 
L 1195.461818 114.492 
L 1178.06961 114.492 
z
" clip-path="url(#p383a792c6d)" style="fill: #bcbd22"/>
   </g>
   <g id="matplotlib.axis_1">
    <g id="xtick_1">
     <g id="line2d_1">
      <defs>
       <path id="mbadb34c5d4" d="M 0 0 
L 0 3.5 
" style="stroke: #000000; stroke-width: 0.8"/>
      </defs>
      <g>
       <use xlink:href="#mbadb34c5d4" x="230.194286" y="650.412" style="stroke: #000000; stroke-width: 0.8"/>
      </g>
     </g>
     <g id="text_1">
      <!-- 26 -->
      <g transform="translate(218.741786 671.089188) scale(0.18 -0.18)">
       <defs>
        <path id="DejaVuSans-32" d="M 1228 531 
L 3431 531 
L 3431 0 
L 469 0 
L 469 531 
Q 828 903 1448 1529 
Q 2069 2156 2228 2338 
Q 2531 2678 2651 2914 
Q 2772 3150 2772 3378 
Q 2772 3750 2511 3984 
Q 2250 4219 1831 4219 
Q 1534 4219 1204 4116 
Q 875 4013 500 3803 
L 500 4441 
Q 881 4594 1212 4672 
Q 1544 4750 1819 4750 
Q 2544 4750 2975 4387 
Q 3406 4025 3406 3419 
Q 3406 3131 3298 2873 
Q 3191 2616 2906 2266 
Q 2828 2175 2409 1742 
Q 1991 1309 1228 531 
z
" transform="scale(0.015625)"/>
        <path id="DejaVuSans-36" d="M 2113 2584 
Q 1688 2584 1439 2293 
Q 1191 2003 1191 1497 
Q 1191 994 1439 701 
Q 1688 409 2113 409 
Q 2538 409 2786 701 
Q 3034 994 3034 1497 
Q 3034 2003 2786 2293 
Q 2538 2584 2113 2584 
z
M 3366 4563 
L 3366 3988 
Q 3128 4100 2886 4159 
Q 2644 4219 2406 4219 
Q 1781 4219 1451 3797 
Q 1122 3375 1075 2522 
Q 1259 2794 1537 2939 
Q 1816 3084 2150 3084 
Q 2853 3084 3261 2657 
Q 3669 2231 3669 1497 
Q 3669 778 3244 343 
Q 2819 -91 2113 -91 
Q 1303 -91 875 529 
Q 447 1150 447 2328 
Q 447 3434 972 4092 
Q 1497 4750 2381 4750 
Q 2619 4750 2861 4703 
Q 3103 4656 3366 4563 
z
" transform="scale(0.015625)"/>
       </defs>
       <use xlink:href="#DejaVuSans-32"/>
       <use xlink:href="#DejaVuSans-36" x="63.623047"/>
      </g>
     </g>
    </g>
    <g id="xtick_2">
     <g id="line2d_2">
      <g>
       <use xlink:href="#mbadb34c5d4" x="404.116364" y="650.412" style="stroke: #000000; stroke-width: 0.8"/>
      </g>
     </g>
     <g id="text_2">
      <!-- 28 -->
      <g transform="translate(392.663864 671.089188) scale(0.18 -0.18)">
       <defs>
        <path id="DejaVuSans-38" d="M 2034 2216 
Q 1584 2216 1326 1975 
Q 1069 1734 1069 1313 
Q 1069 891 1326 650 
Q 1584 409 2034 409 
Q 2484 409 2743 651 
Q 3003 894 3003 1313 
Q 3003 1734 2745 1975 
Q 2488 2216 2034 2216 
z
M 1403 2484 
Q 997 2584 770 2862 
Q 544 3141 544 3541 
Q 544 4100 942 4425 
Q 1341 4750 2034 4750 
Q 2731 4750 3128 4425 
Q 3525 4100 3525 3541 
Q 3525 3141 3298 2862 
Q 3072 2584 2669 2484 
Q 3125 2378 3379 2068 
Q 3634 1759 3634 1313 
Q 3634 634 3220 271 
Q 2806 -91 2034 -91 
Q 1263 -91 848 271 
Q 434 634 434 1313 
Q 434 1759 690 2068 
Q 947 2378 1403 2484 
z
M 1172 3481 
Q 1172 3119 1398 2916 
Q 1625 2713 2034 2713 
Q 2441 2713 2670 2916 
Q 2900 3119 2900 3481 
Q 2900 3844 2670 4047 
Q 2441 4250 2034 4250 
Q 1625 4250 1398 4047 
Q 1172 3844 1172 3481 
z
" transform="scale(0.015625)"/>
       </defs>
       <use xlink:href="#DejaVuSans-32"/>
       <use xlink:href="#DejaVuSans-38" x="63.623047"/>
      </g>
     </g>
    </g>
    <g id="xtick_3">
     <g id="line2d_3">
      <g>
       <use xlink:href="#mbadb34c5d4" x="578.038442" y="650.412" style="stroke: #000000; stroke-width: 0.8"/>
      </g>
     </g>
     <g id="text_3">
      <!-- 30 -->
      <g transform="translate(566.585942 671.089188) scale(0.18 -0.18)">
       <defs>
        <path id="DejaVuSans-33" d="M 2597 2516 
Q 3050 2419 3304 2112 
Q 3559 1806 3559 1356 
Q 3559 666 3084 287 
Q 2609 -91 1734 -91 
Q 1441 -91 1130 -33 
Q 819 25 488 141 
L 488 750 
Q 750 597 1062 519 
Q 1375 441 1716 441 
Q 2309 441 2620 675 
Q 2931 909 2931 1356 
Q 2931 1769 2642 2001 
Q 2353 2234 1838 2234 
L 1294 2234 
L 1294 2753 
L 1863 2753 
Q 2328 2753 2575 2939 
Q 2822 3125 2822 3475 
Q 2822 3834 2567 4026 
Q 2313 4219 1838 4219 
Q 1578 4219 1281 4162 
Q 984 4106 628 3988 
L 628 4550 
Q 988 4650 1302 4700 
Q 1616 4750 1894 4750 
Q 2613 4750 3031 4423 
Q 3450 4097 3450 3541 
Q 3450 3153 3228 2886 
Q 3006 2619 2597 2516 
z
" transform="scale(0.015625)"/>
        <path id="DejaVuSans-30" d="M 2034 4250 
Q 1547 4250 1301 3770 
Q 1056 3291 1056 2328 
Q 1056 1369 1301 889 
Q 1547 409 2034 409 
Q 2525 409 2770 889 
Q 3016 1369 3016 2328 
Q 3016 3291 2770 3770 
Q 2525 4250 2034 4250 
z
M 2034 4750 
Q 2819 4750 3233 4129 
Q 3647 3509 3647 2328 
Q 3647 1150 3233 529 
Q 2819 -91 2034 -91 
Q 1250 -91 836 529 
Q 422 1150 422 2328 
Q 422 3509 836 4129 
Q 1250 4750 2034 4750 
z
" transform="scale(0.015625)"/>
       </defs>
       <use xlink:href="#DejaVuSans-33"/>
       <use xlink:href="#DejaVuSans-30" x="63.623047"/>
      </g>
     </g>
    </g>
    <g id="xtick_4">
     <g id="line2d_4">
      <g>
       <use xlink:href="#mbadb34c5d4" x="751.960519" y="650.412" style="stroke: #000000; stroke-width: 0.8"/>
      </g>
     </g>
     <g id="text_4">
      <!-- 32 -->
      <g transform="translate(740.508019 671.089188) scale(0.18 -0.18)">
       <use xlink:href="#DejaVuSans-33"/>
       <use xlink:href="#DejaVuSans-32" x="63.623047"/>
      </g>
     </g>
    </g>
    <g id="xtick_5">
     <g id="line2d_5">
      <g>
       <use xlink:href="#mbadb34c5d4" x="925.882597" y="650.412" style="stroke: #000000; stroke-width: 0.8"/>
      </g>
     </g>
     <g id="text_5">
      <!-- 34 -->
      <g transform="translate(914.430097 671.089188) scale(0.18 -0.18)">
       <defs>
        <path id="DejaVuSans-34" d="M 2419 4116 
L 825 1625 
L 2419 1625 
L 2419 4116 
z
M 2253 4666 
L 3047 4666 
L 3047 1625 
L 3713 1625 
L 3713 1100 
L 3047 1100 
L 3047 0 
L 2419 0 
L 2419 1100 
L 313 1100 
L 313 1709 
L 2253 4666 
z
" transform="scale(0.015625)"/>
       </defs>
       <use xlink:href="#DejaVuSans-33"/>
       <use xlink:href="#DejaVuSans-34" x="63.623047"/>
      </g>
     </g>
    </g>
    <g id="xtick_6">
     <g id="line2d_6">
      <g>
       <use xlink:href="#mbadb34c5d4" x="1099.804675" y="650.412" style="stroke: #000000; stroke-width: 0.8"/>
      </g>
     </g>
     <g id="text_6">
      <!-- 36 -->
      <g transform="translate(1088.352175 671.089188) scale(0.18 -0.18)">
       <use xlink:href="#DejaVuSans-33"/>
       <use xlink:href="#DejaVuSans-36" x="63.623047"/>
      </g>
     </g>
    </g>
    <g id="text_7">
     <!-- Kondensatordruck in bar -->
     <g transform="translate(597.950156 692.509813) scale(0.18 -0.18)">
      <defs>
       <path id="DejaVuSans-4b" d="M 628 4666 
L 1259 4666 
L 1259 2694 
L 3353 4666 
L 4166 4666 
L 1850 2491 
L 4331 0 
L 3500 0 
L 1259 2247 
L 1259 0 
L 628 0 
L 628 4666 
z
" transform="scale(0.015625)"/>
       <path id="DejaVuSans-6f" d="M 1959 3097 
Q 1497 3097 1228 2736 
Q 959 2375 959 1747 
Q 959 1119 1226 758 
Q 1494 397 1959 397 
Q 2419 397 2687 759 
Q 2956 1122 2956 1747 
Q 2956 2369 2687 2733 
Q 2419 3097 1959 3097 
z
M 1959 3584 
Q 2709 3584 3137 3096 
Q 3566 2609 3566 1747 
Q 3566 888 3137 398 
Q 2709 -91 1959 -91 
Q 1206 -91 779 398 
Q 353 888 353 1747 
Q 353 2609 779 3096 
Q 1206 3584 1959 3584 
z
" transform="scale(0.015625)"/>
       <path id="DejaVuSans-6e" d="M 3513 2113 
L 3513 0 
L 2938 0 
L 2938 2094 
Q 2938 2591 2744 2837 
Q 2550 3084 2163 3084 
Q 1697 3084 1428 2787 
Q 1159 2491 1159 1978 
L 1159 0 
L 581 0 
L 581 3500 
L 1159 3500 
L 1159 2956 
Q 1366 3272 1645 3428 
Q 1925 3584 2291 3584 
Q 2894 3584 3203 3211 
Q 3513 2838 3513 2113 
z
" transform="scale(0.015625)"/>
       <path id="DejaVuSans-64" d="M 2906 2969 
L 2906 4863 
L 3481 4863 
L 3481 0 
L 2906 0 
L 2906 525 
Q 2725 213 2448 61 
Q 2172 -91 1784 -91 
Q 1150 -91 751 415 
Q 353 922 353 1747 
Q 353 2572 751 3078 
Q 1150 3584 1784 3584 
Q 2172 3584 2448 3432 
Q 2725 3281 2906 2969 
z
M 947 1747 
Q 947 1113 1208 752 
Q 1469 391 1925 391 
Q 2381 391 2643 752 
Q 2906 1113 2906 1747 
Q 2906 2381 2643 2742 
Q 2381 3103 1925 3103 
Q 1469 3103 1208 2742 
Q 947 2381 947 1747 
z
" transform="scale(0.015625)"/>
       <path id="DejaVuSans-65" d="M 3597 1894 
L 3597 1613 
L 953 1613 
Q 991 1019 1311 708 
Q 1631 397 2203 397 
Q 2534 397 2845 478 
Q 3156 559 3463 722 
L 3463 178 
Q 3153 47 2828 -22 
Q 2503 -91 2169 -91 
Q 1331 -91 842 396 
Q 353 884 353 1716 
Q 353 2575 817 3079 
Q 1281 3584 2069 3584 
Q 2775 3584 3186 3129 
Q 3597 2675 3597 1894 
z
M 3022 2063 
Q 3016 2534 2758 2815 
Q 2500 3097 2075 3097 
Q 1594 3097 1305 2825 
Q 1016 2553 972 2059 
L 3022 2063 
z
" transform="scale(0.015625)"/>
       <path id="DejaVuSans-73" d="M 2834 3397 
L 2834 2853 
Q 2591 2978 2328 3040 
Q 2066 3103 1784 3103 
Q 1356 3103 1142 2972 
Q 928 2841 928 2578 
Q 928 2378 1081 2264 
Q 1234 2150 1697 2047 
L 1894 2003 
Q 2506 1872 2764 1633 
Q 3022 1394 3022 966 
Q 3022 478 2636 193 
Q 2250 -91 1575 -91 
Q 1294 -91 989 -36 
Q 684 19 347 128 
L 347 722 
Q 666 556 975 473 
Q 1284 391 1588 391 
Q 1994 391 2212 530 
Q 2431 669 2431 922 
Q 2431 1156 2273 1281 
Q 2116 1406 1581 1522 
L 1381 1569 
Q 847 1681 609 1914 
Q 372 2147 372 2553 
Q 372 3047 722 3315 
Q 1072 3584 1716 3584 
Q 2034 3584 2315 3537 
Q 2597 3491 2834 3397 
z
" transform="scale(0.015625)"/>
       <path id="DejaVuSans-61" d="M 2194 1759 
Q 1497 1759 1228 1600 
Q 959 1441 959 1056 
Q 959 750 1161 570 
Q 1363 391 1709 391 
Q 2188 391 2477 730 
Q 2766 1069 2766 1631 
L 2766 1759 
L 2194 1759 
z
M 3341 1997 
L 3341 0 
L 2766 0 
L 2766 531 
Q 2569 213 2275 61 
Q 1981 -91 1556 -91 
Q 1019 -91 701 211 
Q 384 513 384 1019 
Q 384 1609 779 1909 
Q 1175 2209 1959 2209 
L 2766 2209 
L 2766 2266 
Q 2766 2663 2505 2880 
Q 2244 3097 1772 3097 
Q 1472 3097 1187 3025 
Q 903 2953 641 2809 
L 641 3341 
Q 956 3463 1253 3523 
Q 1550 3584 1831 3584 
Q 2591 3584 2966 3190 
Q 3341 2797 3341 1997 
z
" transform="scale(0.015625)"/>
       <path id="DejaVuSans-74" d="M 1172 4494 
L 1172 3500 
L 2356 3500 
L 2356 3053 
L 1172 3053 
L 1172 1153 
Q 1172 725 1289 603 
Q 1406 481 1766 481 
L 2356 481 
L 2356 0 
L 1766 0 
Q 1100 0 847 248 
Q 594 497 594 1153 
L 594 3053 
L 172 3053 
L 172 3500 
L 594 3500 
L 594 4494 
L 1172 4494 
z
" transform="scale(0.015625)"/>
       <path id="DejaVuSans-72" d="M 2631 2963 
Q 2534 3019 2420 3045 
Q 2306 3072 2169 3072 
Q 1681 3072 1420 2755 
Q 1159 2438 1159 1844 
L 1159 0 
L 581 0 
L 581 3500 
L 1159 3500 
L 1159 2956 
Q 1341 3275 1631 3429 
Q 1922 3584 2338 3584 
Q 2397 3584 2469 3576 
Q 2541 3569 2628 3553 
L 2631 2963 
z
" transform="scale(0.015625)"/>
       <path id="DejaVuSans-75" d="M 544 1381 
L 544 3500 
L 1119 3500 
L 1119 1403 
Q 1119 906 1312 657 
Q 1506 409 1894 409 
Q 2359 409 2629 706 
Q 2900 1003 2900 1516 
L 2900 3500 
L 3475 3500 
L 3475 0 
L 2900 0 
L 2900 538 
Q 2691 219 2414 64 
Q 2138 -91 1772 -91 
Q 1169 -91 856 284 
Q 544 659 544 1381 
z
M 1991 3584 
L 1991 3584 
z
" transform="scale(0.015625)"/>
       <path id="DejaVuSans-63" d="M 3122 3366 
L 3122 2828 
Q 2878 2963 2633 3030 
Q 2388 3097 2138 3097 
Q 1578 3097 1268 2742 
Q 959 2388 959 1747 
Q 959 1106 1268 751 
Q 1578 397 2138 397 
Q 2388 397 2633 464 
Q 2878 531 3122 666 
L 3122 134 
Q 2881 22 2623 -34 
Q 2366 -91 2075 -91 
Q 1284 -91 818 406 
Q 353 903 353 1747 
Q 353 2603 823 3093 
Q 1294 3584 2113 3584 
Q 2378 3584 2631 3529 
Q 2884 3475 3122 3366 
z
" transform="scale(0.015625)"/>
       <path id="DejaVuSans-6b" d="M 581 4863 
L 1159 4863 
L 1159 1991 
L 2875 3500 
L 3609 3500 
L 1753 1863 
L 3688 0 
L 2938 0 
L 1159 1709 
L 1159 0 
L 581 0 
L 581 4863 
z
" transform="scale(0.015625)"/>
       <path id="DejaVuSans-20" transform="scale(0.015625)"/>
       <path id="DejaVuSans-69" d="M 603 3500 
L 1178 3500 
L 1178 0 
L 603 0 
L 603 3500 
z
M 603 4863 
L 1178 4863 
L 1178 4134 
L 603 4134 
L 603 4863 
z
" transform="scale(0.015625)"/>
       <path id="DejaVuSans-62" d="M 3116 1747 
Q 3116 2381 2855 2742 
Q 2594 3103 2138 3103 
Q 1681 3103 1420 2742 
Q 1159 2381 1159 1747 
Q 1159 1113 1420 752 
Q 1681 391 2138 391 
Q 2594 391 2855 752 
Q 3116 1113 3116 1747 
z
M 1159 2969 
Q 1341 3281 1617 3432 
Q 1894 3584 2278 3584 
Q 2916 3584 3314 3078 
Q 3713 2572 3713 1747 
Q 3713 922 3314 415 
Q 2916 -91 2278 -91 
Q 1894 -91 1617 61 
Q 1341 213 1159 525 
L 1159 0 
L 581 0 
L 581 4863 
L 1159 4863 
L 1159 2969 
z
" transform="scale(0.015625)"/>
      </defs>
      <use xlink:href="#DejaVuSans-4b"/>
      <use xlink:href="#DejaVuSans-6f" x="60.576172"/>
      <use xlink:href="#DejaVuSans-6e" x="121.757812"/>
      <use xlink:href="#DejaVuSans-64" x="185.136719"/>
      <use xlink:href="#DejaVuSans-65" x="248.613281"/>
      <use xlink:href="#DejaVuSans-6e" x="310.136719"/>
      <use xlink:href="#DejaVuSans-73" x="373.515625"/>
      <use xlink:href="#DejaVuSans-61" x="425.615234"/>
      <use xlink:href="#DejaVuSans-74" x="486.894531"/>
      <use xlink:href="#DejaVuSans-6f" x="526.103516"/>
      <use xlink:href="#DejaVuSans-72" x="587.285156"/>
      <use xlink:href="#DejaVuSans-64" x="626.648438"/>
      <use xlink:href="#DejaVuSans-72" x="690.125"/>
      <use xlink:href="#DejaVuSans-75" x="731.238281"/>
      <use xlink:href="#DejaVuSans-63" x="794.617188"/>
      <use xlink:href="#DejaVuSans-6b" x="849.597656"/>
      <use xlink:href="#DejaVuSans-20" x="907.507812"/>
      <use xlink:href="#DejaVuSans-69" x="939.294922"/>
      <use xlink:href="#DejaVuSans-6e" x="967.078125"/>
      <use xlink:href="#DejaVuSans-20" x="1030.457031"/>
      <use xlink:href="#DejaVuSans-62" x="1062.244141"/>
      <use xlink:href="#DejaVuSans-61" x="1125.720703"/>
      <use xlink:href="#DejaVuSans-72" x="1187"/>
     </g>
    </g>
   </g>
   <g id="matplotlib.axis_2">
    <g id="ytick_1">
     <g id="line2d_7">
      <defs>
       <path id="m089f116e4a" d="M 0 0 
L -3.5 0 
" style="stroke: #000000; stroke-width: 0.8"/>
      </defs>
      <g>
       <use xlink:href="#m089f116e4a" x="172.8" y="650.412" style="stroke: #000000; stroke-width: 0.8"/>
      </g>
     </g>
     <g id="text_8">
      <!-- 0.0 -->
      <g transform="translate(137.174375 657.250594) scale(0.18 -0.18)">
       <defs>
        <path id="DejaVuSans-2e" d="M 684 794 
L 1344 794 
L 1344 0 
L 684 0 
L 684 794 
z
" transform="scale(0.015625)"/>
       </defs>
       <use xlink:href="#DejaVuSans-30"/>
       <use xlink:href="#DejaVuSans-2e" x="63.623047"/>
       <use xlink:href="#DejaVuSans-30" x="95.410156"/>
      </g>
     </g>
    </g>
    <g id="ytick_2">
     <g id="line2d_8">
      <g>
       <use xlink:href="#m089f116e4a" x="172.8" y="572.962204" style="stroke: #000000; stroke-width: 0.8"/>
      </g>
     </g>
     <g id="text_9">
      <!-- 0.2 -->
      <g transform="translate(137.174375 579.800798) scale(0.18 -0.18)">
       <use xlink:href="#DejaVuSans-30"/>
       <use xlink:href="#DejaVuSans-2e" x="63.623047"/>
       <use xlink:href="#DejaVuSans-32" x="95.410156"/>
      </g>
     </g>
    </g>
    <g id="ytick_3">
     <g id="line2d_9">
      <g>
       <use xlink:href="#m089f116e4a" x="172.8" y="495.512408" style="stroke: #000000; stroke-width: 0.8"/>
      </g>
     </g>
     <g id="text_10">
      <!-- 0.4 -->
      <g transform="translate(137.174375 502.351002) scale(0.18 -0.18)">
       <use xlink:href="#DejaVuSans-30"/>
       <use xlink:href="#DejaVuSans-2e" x="63.623047"/>
       <use xlink:href="#DejaVuSans-34" x="95.410156"/>
      </g>
     </g>
    </g>
    <g id="ytick_4">
     <g id="line2d_10">
      <g>
       <use xlink:href="#m089f116e4a" x="172.8" y="418.062613" style="stroke: #000000; stroke-width: 0.8"/>
      </g>
     </g>
     <g id="text_11">
      <!-- 0.6 -->
      <g transform="translate(137.174375 424.901206) scale(0.18 -0.18)">
       <use xlink:href="#DejaVuSans-30"/>
       <use xlink:href="#DejaVuSans-2e" x="63.623047"/>
       <use xlink:href="#DejaVuSans-36" x="95.410156"/>
      </g>
     </g>
    </g>
    <g id="ytick_5">
     <g id="line2d_11">
      <g>
       <use xlink:href="#m089f116e4a" x="172.8" y="340.612817" style="stroke: #000000; stroke-width: 0.8"/>
      </g>
     </g>
     <g id="text_12">
      <!-- 0.8 -->
      <g transform="translate(137.174375 347.451411) scale(0.18 -0.18)">
       <use xlink:href="#DejaVuSans-30"/>
       <use xlink:href="#DejaVuSans-2e" x="63.623047"/>
       <use xlink:href="#DejaVuSans-38" x="95.410156"/>
      </g>
     </g>
    </g>
    <g id="ytick_6">
     <g id="line2d_12">
      <g>
       <use xlink:href="#m089f116e4a" x="172.8" y="263.163021" style="stroke: #000000; stroke-width: 0.8"/>
      </g>
     </g>
     <g id="text_13">
      <!-- 1.0 -->
      <g transform="translate(137.174375 270.001615) scale(0.18 -0.18)">
       <defs>
        <path id="DejaVuSans-31" d="M 794 531 
L 1825 531 
L 1825 4091 
L 703 3866 
L 703 4441 
L 1819 4666 
L 2450 4666 
L 2450 531 
L 3481 531 
L 3481 0 
L 794 0 
L 794 531 
z
" transform="scale(0.015625)"/>
       </defs>
       <use xlink:href="#DejaVuSans-31"/>
       <use xlink:href="#DejaVuSans-2e" x="63.623047"/>
       <use xlink:href="#DejaVuSans-30" x="95.410156"/>
      </g>
     </g>
    </g>
    <g id="ytick_7">
     <g id="line2d_13">
      <g>
       <use xlink:href="#m089f116e4a" x="172.8" y="185.713225" style="stroke: #000000; stroke-width: 0.8"/>
      </g>
     </g>
     <g id="text_14">
      <!-- 1.2 -->
      <g transform="translate(137.174375 192.551819) scale(0.18 -0.18)">
       <use xlink:href="#DejaVuSans-31"/>
       <use xlink:href="#DejaVuSans-2e" x="63.623047"/>
       <use xlink:href="#DejaVuSans-32" x="95.410156"/>
      </g>
     </g>
    </g>
    <g id="ytick_8">
     <g id="line2d_14">
      <g>
       <use xlink:href="#m089f116e4a" x="172.8" y="108.263429" style="stroke: #000000; stroke-width: 0.8"/>
      </g>
     </g>
     <g id="text_15">
      <!-- 1.4 -->
      <g transform="translate(137.174375 115.102023) scale(0.18 -0.18)">
       <use xlink:href="#DejaVuSans-31"/>
       <use xlink:href="#DejaVuSans-2e" x="63.623047"/>
       <use xlink:href="#DejaVuSans-34" x="95.410156"/>
      </g>
     </g>
    </g>
    <g id="text_16">
     <!-- Exergievernichtung in MW -->
     <g transform="translate(129.430937 487.119938) rotate(-90) scale(0.18 -0.18)">
      <defs>
       <path id="DejaVuSans-45" d="M 628 4666 
L 3578 4666 
L 3578 4134 
L 1259 4134 
L 1259 2753 
L 3481 2753 
L 3481 2222 
L 1259 2222 
L 1259 531 
L 3634 531 
L 3634 0 
L 628 0 
L 628 4666 
z
" transform="scale(0.015625)"/>
       <path id="DejaVuSans-78" d="M 3513 3500 
L 2247 1797 
L 3578 0 
L 2900 0 
L 1881 1375 
L 863 0 
L 184 0 
L 1544 1831 
L 300 3500 
L 978 3500 
L 1906 2253 
L 2834 3500 
L 3513 3500 
z
" transform="scale(0.015625)"/>
       <path id="DejaVuSans-67" d="M 2906 1791 
Q 2906 2416 2648 2759 
Q 2391 3103 1925 3103 
Q 1463 3103 1205 2759 
Q 947 2416 947 1791 
Q 947 1169 1205 825 
Q 1463 481 1925 481 
Q 2391 481 2648 825 
Q 2906 1169 2906 1791 
z
M 3481 434 
Q 3481 -459 3084 -895 
Q 2688 -1331 1869 -1331 
Q 1566 -1331 1297 -1286 
Q 1028 -1241 775 -1147 
L 775 -588 
Q 1028 -725 1275 -790 
Q 1522 -856 1778 -856 
Q 2344 -856 2625 -561 
Q 2906 -266 2906 331 
L 2906 616 
Q 2728 306 2450 153 
Q 2172 0 1784 0 
Q 1141 0 747 490 
Q 353 981 353 1791 
Q 353 2603 747 3093 
Q 1141 3584 1784 3584 
Q 2172 3584 2450 3431 
Q 2728 3278 2906 2969 
L 2906 3500 
L 3481 3500 
L 3481 434 
z
" transform="scale(0.015625)"/>
       <path id="DejaVuSans-76" d="M 191 3500 
L 800 3500 
L 1894 563 
L 2988 3500 
L 3597 3500 
L 2284 0 
L 1503 0 
L 191 3500 
z
" transform="scale(0.015625)"/>
       <path id="DejaVuSans-68" d="M 3513 2113 
L 3513 0 
L 2938 0 
L 2938 2094 
Q 2938 2591 2744 2837 
Q 2550 3084 2163 3084 
Q 1697 3084 1428 2787 
Q 1159 2491 1159 1978 
L 1159 0 
L 581 0 
L 581 4863 
L 1159 4863 
L 1159 2956 
Q 1366 3272 1645 3428 
Q 1925 3584 2291 3584 
Q 2894 3584 3203 3211 
Q 3513 2838 3513 2113 
z
" transform="scale(0.015625)"/>
       <path id="DejaVuSans-4d" d="M 628 4666 
L 1569 4666 
L 2759 1491 
L 3956 4666 
L 4897 4666 
L 4897 0 
L 4281 0 
L 4281 4097 
L 3078 897 
L 2444 897 
L 1241 4097 
L 1241 0 
L 628 0 
L 628 4666 
z
" transform="scale(0.015625)"/>
       <path id="DejaVuSans-57" d="M 213 4666 
L 850 4666 
L 1831 722 
L 2809 4666 
L 3519 4666 
L 4500 722 
L 5478 4666 
L 6119 4666 
L 4947 0 
L 4153 0 
L 3169 4050 
L 2175 0 
L 1381 0 
L 213 4666 
z
" transform="scale(0.015625)"/>
      </defs>
      <use xlink:href="#DejaVuSans-45"/>
      <use xlink:href="#DejaVuSans-78" x="63.183594"/>
      <use xlink:href="#DejaVuSans-65" x="119.238281"/>
      <use xlink:href="#DejaVuSans-72" x="180.761719"/>
      <use xlink:href="#DejaVuSans-67" x="220.125"/>
      <use xlink:href="#DejaVuSans-69" x="283.601562"/>
      <use xlink:href="#DejaVuSans-65" x="311.384766"/>
      <use xlink:href="#DejaVuSans-76" x="372.908203"/>
      <use xlink:href="#DejaVuSans-65" x="432.087891"/>
      <use xlink:href="#DejaVuSans-72" x="493.611328"/>
      <use xlink:href="#DejaVuSans-6e" x="532.974609"/>
      <use xlink:href="#DejaVuSans-69" x="596.353516"/>
      <use xlink:href="#DejaVuSans-63" x="624.136719"/>
      <use xlink:href="#DejaVuSans-68" x="679.117188"/>
      <use xlink:href="#DejaVuSans-74" x="742.496094"/>
      <use xlink:href="#DejaVuSans-75" x="781.705078"/>
      <use xlink:href="#DejaVuSans-6e" x="845.083984"/>
      <use xlink:href="#DejaVuSans-67" x="908.462891"/>
      <use xlink:href="#DejaVuSans-20" x="971.939453"/>
      <use xlink:href="#DejaVuSans-69" x="1003.726562"/>
      <use xlink:href="#DejaVuSans-6e" x="1031.509766"/>
      <use xlink:href="#DejaVuSans-20" x="1094.888672"/>
      <use xlink:href="#DejaVuSans-4d" x="1126.675781"/>
      <use xlink:href="#DejaVuSans-57" x="1212.955078"/>
     </g>
    </g>
   </g>
   <g id="patch_138">
    <path d="M 172.8 650.412 
L 172.8 87.696 
" style="fill: none; stroke: #000000; stroke-width: 0.8; stroke-linejoin: miter; stroke-linecap: square"/>
   </g>
   <g id="patch_139">
    <path d="M 1244.16 650.412 
L 1244.16 87.696 
" style="fill: none; stroke: #000000; stroke-width: 0.8; stroke-linejoin: miter; stroke-linecap: square"/>
   </g>
   <g id="patch_140">
    <path d="M 172.8 650.412 
L 1244.16 650.412 
" style="fill: none; stroke: #000000; stroke-width: 0.8; stroke-linejoin: miter; stroke-linecap: square"/>
   </g>
   <g id="patch_141">
    <path d="M 172.8 87.696 
L 1244.16 87.696 
" style="fill: none; stroke: #000000; stroke-width: 0.8; stroke-linejoin: miter; stroke-linecap: square"/>
   </g>
   <g id="legend_1">
    <g id="patch_142">
     <path d="M 937.915312 490.646813 
L 1231.56 490.646813 
Q 1235.16 490.646813 1235.16 487.046813 
L 1235.16 251.061188 
Q 1235.16 247.461188 1231.56 247.461188 
L 937.915312 247.461188 
Q 934.315312 247.461188 934.315312 251.061188 
L 934.315312 487.046813 
Q 934.315312 490.646813 937.915312 490.646813 
z
" style="fill: #ffffff; opacity: 0.8; stroke: #cccccc; stroke-linejoin: miter"/>
    </g>
    <g id="patch_143">
     <path d="M 941.515312 268.338375 
L 977.515312 268.338375 
L 977.515312 255.738375 
L 941.515312 255.738375 
z
" style="fill: #1f77b4"/>
    </g>
    <g id="text_17">
     <!-- Gas cooler -->
     <g transform="translate(991.915312 268.338375) scale(0.18 -0.18)">
      <defs>
       <path id="DejaVuSans-47" d="M 3809 666 
L 3809 1919 
L 2778 1919 
L 2778 2438 
L 4434 2438 
L 4434 434 
Q 4069 175 3628 42 
Q 3188 -91 2688 -91 
Q 1594 -91 976 548 
Q 359 1188 359 2328 
Q 359 3472 976 4111 
Q 1594 4750 2688 4750 
Q 3144 4750 3555 4637 
Q 3966 4525 4313 4306 
L 4313 3634 
Q 3963 3931 3569 4081 
Q 3175 4231 2741 4231 
Q 1884 4231 1454 3753 
Q 1025 3275 1025 2328 
Q 1025 1384 1454 906 
Q 1884 428 2741 428 
Q 3075 428 3337 486 
Q 3600 544 3809 666 
z
" transform="scale(0.015625)"/>
       <path id="DejaVuSans-6c" d="M 603 4863 
L 1178 4863 
L 1178 0 
L 603 0 
L 603 4863 
z
" transform="scale(0.015625)"/>
      </defs>
      <use xlink:href="#DejaVuSans-47"/>
      <use xlink:href="#DejaVuSans-61" x="77.490234"/>
      <use xlink:href="#DejaVuSans-73" x="138.769531"/>
      <use xlink:href="#DejaVuSans-20" x="190.869141"/>
      <use xlink:href="#DejaVuSans-63" x="222.65625"/>
      <use xlink:href="#DejaVuSans-6f" x="277.636719"/>
      <use xlink:href="#DejaVuSans-6f" x="338.818359"/>
      <use xlink:href="#DejaVuSans-6c" x="400"/>
      <use xlink:href="#DejaVuSans-65" x="427.783203"/>
      <use xlink:href="#DejaVuSans-72" x="489.306641"/>
     </g>
    </g>
    <g id="patch_144">
     <path d="M 941.515312 294.759 
L 977.515312 294.759 
L 977.515312 282.159 
L 941.515312 282.159 
z
" style="fill: #ff7f0e"/>
    </g>
    <g id="text_18">
     <!-- Evaporator -->
     <g transform="translate(991.915312 294.759) scale(0.18 -0.18)">
      <defs>
       <path id="DejaVuSans-70" d="M 1159 525 
L 1159 -1331 
L 581 -1331 
L 581 3500 
L 1159 3500 
L 1159 2969 
Q 1341 3281 1617 3432 
Q 1894 3584 2278 3584 
Q 2916 3584 3314 3078 
Q 3713 2572 3713 1747 
Q 3713 922 3314 415 
Q 2916 -91 2278 -91 
Q 1894 -91 1617 61 
Q 1341 213 1159 525 
z
M 3116 1747 
Q 3116 2381 2855 2742 
Q 2594 3103 2138 3103 
Q 1681 3103 1420 2742 
Q 1159 2381 1159 1747 
Q 1159 1113 1420 752 
Q 1681 391 2138 391 
Q 2594 391 2855 752 
Q 3116 1113 3116 1747 
z
" transform="scale(0.015625)"/>
      </defs>
      <use xlink:href="#DejaVuSans-45"/>
      <use xlink:href="#DejaVuSans-76" x="63.183594"/>
      <use xlink:href="#DejaVuSans-61" x="122.363281"/>
      <use xlink:href="#DejaVuSans-70" x="183.642578"/>
      <use xlink:href="#DejaVuSans-6f" x="247.119141"/>
      <use xlink:href="#DejaVuSans-72" x="308.300781"/>
      <use xlink:href="#DejaVuSans-61" x="349.414062"/>
      <use xlink:href="#DejaVuSans-74" x="410.693359"/>
      <use xlink:href="#DejaVuSans-6f" x="449.902344"/>
      <use xlink:href="#DejaVuSans-72" x="511.083984"/>
     </g>
    </g>
    <g id="patch_145">
     <path d="M 941.515312 321.179625 
L 977.515312 321.179625 
L 977.515312 308.579625 
L 941.515312 308.579625 
z
" style="fill: #2ca02c"/>
    </g>
    <g id="text_19">
     <!-- Valve 1 -->
     <g transform="translate(991.915312 321.179625) scale(0.18 -0.18)">
      <defs>
       <path id="DejaVuSans-56" d="M 1831 0 
L 50 4666 
L 709 4666 
L 2188 738 
L 3669 4666 
L 4325 4666 
L 2547 0 
L 1831 0 
z
" transform="scale(0.015625)"/>
      </defs>
      <use xlink:href="#DejaVuSans-56"/>
      <use xlink:href="#DejaVuSans-61" x="60.658203"/>
      <use xlink:href="#DejaVuSans-6c" x="121.9375"/>
      <use xlink:href="#DejaVuSans-76" x="149.720703"/>
      <use xlink:href="#DejaVuSans-65" x="208.900391"/>
      <use xlink:href="#DejaVuSans-20" x="270.423828"/>
      <use xlink:href="#DejaVuSans-31" x="302.210938"/>
     </g>
    </g>
    <g id="patch_146">
     <path d="M 941.515312 347.60025 
L 977.515312 347.60025 
L 977.515312 335.00025 
L 941.515312 335.00025 
z
" style="fill: #d62728"/>
    </g>
    <g id="text_20">
     <!-- Valve 2 -->
     <g transform="translate(991.915312 347.60025) scale(0.18 -0.18)">
      <use xlink:href="#DejaVuSans-56"/>
      <use xlink:href="#DejaVuSans-61" x="60.658203"/>
      <use xlink:href="#DejaVuSans-6c" x="121.9375"/>
      <use xlink:href="#DejaVuSans-76" x="149.720703"/>
      <use xlink:href="#DejaVuSans-65" x="208.900391"/>
      <use xlink:href="#DejaVuSans-20" x="270.423828"/>
      <use xlink:href="#DejaVuSans-32" x="302.210938"/>
     </g>
    </g>
    <g id="patch_147">
     <path d="M 941.515312 374.020875 
L 977.515312 374.020875 
L 977.515312 361.420875 
L 941.515312 361.420875 
z
" style="fill: #9467bd"/>
    </g>
    <g id="text_21">
     <!-- Compressor 1 -->
     <g transform="translate(991.915312 374.020875) scale(0.18 -0.18)">
      <defs>
       <path id="DejaVuSans-43" d="M 4122 4306 
L 4122 3641 
Q 3803 3938 3442 4084 
Q 3081 4231 2675 4231 
Q 1875 4231 1450 3742 
Q 1025 3253 1025 2328 
Q 1025 1406 1450 917 
Q 1875 428 2675 428 
Q 3081 428 3442 575 
Q 3803 722 4122 1019 
L 4122 359 
Q 3791 134 3420 21 
Q 3050 -91 2638 -91 
Q 1578 -91 968 557 
Q 359 1206 359 2328 
Q 359 3453 968 4101 
Q 1578 4750 2638 4750 
Q 3056 4750 3426 4639 
Q 3797 4528 4122 4306 
z
" transform="scale(0.015625)"/>
       <path id="DejaVuSans-6d" d="M 3328 2828 
Q 3544 3216 3844 3400 
Q 4144 3584 4550 3584 
Q 5097 3584 5394 3201 
Q 5691 2819 5691 2113 
L 5691 0 
L 5113 0 
L 5113 2094 
Q 5113 2597 4934 2840 
Q 4756 3084 4391 3084 
Q 3944 3084 3684 2787 
Q 3425 2491 3425 1978 
L 3425 0 
L 2847 0 
L 2847 2094 
Q 2847 2600 2669 2842 
Q 2491 3084 2119 3084 
Q 1678 3084 1418 2786 
Q 1159 2488 1159 1978 
L 1159 0 
L 581 0 
L 581 3500 
L 1159 3500 
L 1159 2956 
Q 1356 3278 1631 3431 
Q 1906 3584 2284 3584 
Q 2666 3584 2933 3390 
Q 3200 3197 3328 2828 
z
" transform="scale(0.015625)"/>
      </defs>
      <use xlink:href="#DejaVuSans-43"/>
      <use xlink:href="#DejaVuSans-6f" x="69.824219"/>
      <use xlink:href="#DejaVuSans-6d" x="131.005859"/>
      <use xlink:href="#DejaVuSans-70" x="228.417969"/>
      <use xlink:href="#DejaVuSans-72" x="291.894531"/>
      <use xlink:href="#DejaVuSans-65" x="330.757812"/>
      <use xlink:href="#DejaVuSans-73" x="392.28125"/>
      <use xlink:href="#DejaVuSans-73" x="444.380859"/>
      <use xlink:href="#DejaVuSans-6f" x="496.480469"/>
      <use xlink:href="#DejaVuSans-72" x="557.662109"/>
      <use xlink:href="#DejaVuSans-20" x="598.775391"/>
      <use xlink:href="#DejaVuSans-31" x="630.5625"/>
     </g>
    </g>
    <g id="patch_148">
     <path d="M 941.515312 400.4415 
L 977.515312 400.4415 
L 977.515312 387.8415 
L 941.515312 387.8415 
z
" style="fill: #8c564b"/>
    </g>
    <g id="text_22">
     <!-- Compressor 2 -->
     <g transform="translate(991.915312 400.4415) scale(0.18 -0.18)">
      <use xlink:href="#DejaVuSans-43"/>
      <use xlink:href="#DejaVuSans-6f" x="69.824219"/>
      <use xlink:href="#DejaVuSans-6d" x="131.005859"/>
      <use xlink:href="#DejaVuSans-70" x="228.417969"/>
      <use xlink:href="#DejaVuSans-72" x="291.894531"/>
      <use xlink:href="#DejaVuSans-65" x="330.757812"/>
      <use xlink:href="#DejaVuSans-73" x="392.28125"/>
      <use xlink:href="#DejaVuSans-73" x="444.380859"/>
      <use xlink:href="#DejaVuSans-6f" x="496.480469"/>
      <use xlink:href="#DejaVuSans-72" x="557.662109"/>
      <use xlink:href="#DejaVuSans-20" x="598.775391"/>
      <use xlink:href="#DejaVuSans-32" x="630.5625"/>
     </g>
    </g>
    <g id="patch_149">
     <path d="M 941.515312 426.862125 
L 977.515312 426.862125 
L 977.515312 414.262125 
L 941.515312 414.262125 
z
" style="fill: #e377c2"/>
    </g>
    <g id="text_23">
     <!-- Internal Heat Exchanger 1 -->
     <g transform="translate(991.915312 426.862125) scale(0.18 -0.18)">
      <defs>
       <path id="DejaVuSans-49" d="M 628 4666 
L 1259 4666 
L 1259 0 
L 628 0 
L 628 4666 
z
" transform="scale(0.015625)"/>
       <path id="DejaVuSans-48" d="M 628 4666 
L 1259 4666 
L 1259 2753 
L 3553 2753 
L 3553 4666 
L 4184 4666 
L 4184 0 
L 3553 0 
L 3553 2222 
L 1259 2222 
L 1259 0 
L 628 0 
L 628 4666 
z
" transform="scale(0.015625)"/>
      </defs>
      <use xlink:href="#DejaVuSans-49"/>
      <use xlink:href="#DejaVuSans-6e" x="29.492188"/>
      <use xlink:href="#DejaVuSans-74" x="92.871094"/>
      <use xlink:href="#DejaVuSans-65" x="132.080078"/>
      <use xlink:href="#DejaVuSans-72" x="193.603516"/>
      <use xlink:href="#DejaVuSans-6e" x="232.966797"/>
      <use xlink:href="#DejaVuSans-61" x="296.345703"/>
      <use xlink:href="#DejaVuSans-6c" x="357.625"/>
      <use xlink:href="#DejaVuSans-20" x="385.408203"/>
      <use xlink:href="#DejaVuSans-48" x="417.195312"/>
      <use xlink:href="#DejaVuSans-65" x="492.390625"/>
      <use xlink:href="#DejaVuSans-61" x="553.914062"/>
      <use xlink:href="#DejaVuSans-74" x="615.193359"/>
      <use xlink:href="#DejaVuSans-20" x="654.402344"/>
      <use xlink:href="#DejaVuSans-45" x="686.189453"/>
      <use xlink:href="#DejaVuSans-78" x="749.373047"/>
      <use xlink:href="#DejaVuSans-63" x="806.802734"/>
      <use xlink:href="#DejaVuSans-68" x="861.783203"/>
      <use xlink:href="#DejaVuSans-61" x="925.162109"/>
      <use xlink:href="#DejaVuSans-6e" x="986.441406"/>
      <use xlink:href="#DejaVuSans-67" x="1049.820312"/>
      <use xlink:href="#DejaVuSans-65" x="1113.296875"/>
      <use xlink:href="#DejaVuSans-72" x="1174.820312"/>
      <use xlink:href="#DejaVuSans-20" x="1215.933594"/>
      <use xlink:href="#DejaVuSans-31" x="1247.720703"/>
     </g>
    </g>
    <g id="patch_150">
     <path d="M 941.515312 453.28275 
L 977.515312 453.28275 
L 977.515312 440.68275 
L 941.515312 440.68275 
z
" style="fill: #7f7f7f"/>
    </g>
    <g id="text_24">
     <!-- Internal Heat Exchanger 2 -->
     <g transform="translate(991.915312 453.28275) scale(0.18 -0.18)">
      <use xlink:href="#DejaVuSans-49"/>
      <use xlink:href="#DejaVuSans-6e" x="29.492188"/>
      <use xlink:href="#DejaVuSans-74" x="92.871094"/>
      <use xlink:href="#DejaVuSans-65" x="132.080078"/>
      <use xlink:href="#DejaVuSans-72" x="193.603516"/>
      <use xlink:href="#DejaVuSans-6e" x="232.966797"/>
      <use xlink:href="#DejaVuSans-61" x="296.345703"/>
      <use xlink:href="#DejaVuSans-6c" x="357.625"/>
      <use xlink:href="#DejaVuSans-20" x="385.408203"/>
      <use xlink:href="#DejaVuSans-48" x="417.195312"/>
      <use xlink:href="#DejaVuSans-65" x="492.390625"/>
      <use xlink:href="#DejaVuSans-61" x="553.914062"/>
      <use xlink:href="#DejaVuSans-74" x="615.193359"/>
      <use xlink:href="#DejaVuSans-20" x="654.402344"/>
      <use xlink:href="#DejaVuSans-45" x="686.189453"/>
      <use xlink:href="#DejaVuSans-78" x="749.373047"/>
      <use xlink:href="#DejaVuSans-63" x="806.802734"/>
      <use xlink:href="#DejaVuSans-68" x="861.783203"/>
      <use xlink:href="#DejaVuSans-61" x="925.162109"/>
      <use xlink:href="#DejaVuSans-6e" x="986.441406"/>
      <use xlink:href="#DejaVuSans-67" x="1049.820312"/>
      <use xlink:href="#DejaVuSans-65" x="1113.296875"/>
      <use xlink:href="#DejaVuSans-72" x="1174.820312"/>
      <use xlink:href="#DejaVuSans-20" x="1215.933594"/>
      <use xlink:href="#DejaVuSans-32" x="1247.720703"/>
     </g>
    </g>
    <g id="patch_151">
     <path d="M 941.515312 479.703375 
L 977.515312 479.703375 
L 977.515312 467.103375 
L 941.515312 467.103375 
z
" style="fill: #bcbd22"/>
    </g>
    <g id="text_25">
     <!-- Merge -->
     <g transform="translate(991.915312 479.703375) scale(0.18 -0.18)">
      <use xlink:href="#DejaVuSans-4d"/>
      <use xlink:href="#DejaVuSans-65" x="86.279297"/>
      <use xlink:href="#DejaVuSans-72" x="147.802734"/>
      <use xlink:href="#DejaVuSans-67" x="187.166016"/>
      <use xlink:href="#DejaVuSans-65" x="250.642578"/>
     </g>
    </g>
   </g>
  </g>
 </g>
 <defs>
  <clipPath id="p383a792c6d">
   <rect x="172.8" y="87.696" width="1071.36" height="562.716"/>
  </clipPath>
 </defs>
</svg>
