<?xml version="1.0" encoding="utf-8" standalone="no"?>
<!DOCTYPE svg PUBLIC "-//W3C//DTD SVG 1.1//EN"
  "http://www.w3.org/Graphics/SVG/1.1/DTD/svg11.dtd">
<svg xmlns:xlink="http://www.w3.org/1999/xlink" width="1382.4pt" height="730.8pt" viewBox="0 0 1382.4 730.8" xmlns="http://www.w3.org/2000/svg" version="1.1">
 <metadata>
  <rdf:RDF xmlns:dc="http://purl.org/dc/elements/1.1/" xmlns:cc="http://creativecommons.org/ns#" xmlns:rdf="http://www.w3.org/1999/02/22-rdf-syntax-ns#">
   <cc:Work>
    <dc:type rdf:resource="http://purl.org/dc/dcmitype/StillImage"/>
    <dc:date>2023-03-21T21:24:36.971783</dc:date>
    <dc:format>image/svg+xml</dc:format>
    <dc:creator>
     <cc:Agent>
      <dc:title>Matplotlib v3.6.1, https://matplotlib.org/</dc:title>
     </cc:Agent>
    </dc:creator>
   </cc:Work>
  </rdf:RDF>
 </metadata>
 <defs>
  <style type="text/css">*{stroke-linejoin: round; stroke-linecap: butt}</style>
 </defs>
 <g id="figure_1">
  <g id="patch_1">
   <path d="M 0 730.8 
L 1382.4 730.8 
L 1382.4 0 
L 0 0 
z
" style="fill: #ffffff"/>
  </g>
  <g id="axes_1">
   <g id="patch_2">
    <path d="M 172.8 650.412 
L 1244.16 650.412 
L 1244.16 87.696 
L 172.8 87.696 
z
" style="fill: #ffffff"/>
   </g>
   <g id="patch_3">
    <path d="M 221.498182 642.894413 
L 232.201079 642.894413 
L 232.201079 650.412 
L 221.498182 650.412 
z
" clip-path="url(#p0dd5613c84)" style="fill: #1f77b4"/>
   </g>
   <g id="patch_4">
    <path d="M 272.196115 642.894413 
L 282.899013 642.894413 
L 282.899013 646.151345 
L 272.196115 646.151345 
z
" clip-path="url(#p0dd5613c84)" style="fill: #1f77b4"/>
   </g>
   <g id="patch_5">
    <path d="M 322.894049 642.894413 
L 333.596946 642.894413 
L 333.596946 642.0394 
L 322.894049 642.0394 
z
" clip-path="url(#p0dd5613c84)" style="fill: #1f77b4"/>
   </g>
   <g id="patch_6">
    <path d="M 373.591983 642.894413 
L 384.29488 642.894413 
L 384.29488 638.067554 
L 373.591983 638.067554 
z
" clip-path="url(#p0dd5613c84)" style="fill: #1f77b4"/>
   </g>
   <g id="patch_7">
    <path d="M 424.289916 642.894413 
L 434.992814 642.894413 
L 434.992814 634.228056 
L 424.289916 634.228056 
z
" clip-path="url(#p0dd5613c84)" style="fill: #1f77b4"/>
   </g>
   <g id="patch_8">
    <path d="M 474.98785 642.894413 
L 485.690747 642.894413 
L 485.690747 630.513878 
L 474.98785 630.513878 
z
" clip-path="url(#p0dd5613c84)" style="fill: #1f77b4"/>
   </g>
   <g id="patch_9">
    <path d="M 525.685784 642.894413 
L 536.388681 642.894413 
L 536.388681 626.918597 
L 525.685784 626.918597 
z
" clip-path="url(#p0dd5613c84)" style="fill: #1f77b4"/>
   </g>
   <g id="patch_10">
    <path d="M 576.383717 642.894413 
L 587.086614 642.894413 
L 587.086614 623.436314 
L 576.383717 623.436314 
z
" clip-path="url(#p0dd5613c84)" style="fill: #1f77b4"/>
   </g>
   <g id="patch_11">
    <path d="M 627.081651 642.894413 
L 637.784548 642.894413 
L 637.784548 620.061586 
L 627.081651 620.061586 
z
" clip-path="url(#p0dd5613c84)" style="fill: #1f77b4"/>
   </g>
   <g id="patch_12">
    <path d="M 677.779585 642.894413 
L 688.482482 642.894413 
L 688.482482 616.789366 
L 677.779585 616.789366 
z
" clip-path="url(#p0dd5613c84)" style="fill: #1f77b4"/>
   </g>
   <g id="patch_13">
    <path d="M 728.477518 642.894413 
L 739.180415 642.894413 
L 739.180415 613.614963 
L 728.477518 613.614963 
z
" clip-path="url(#p0dd5613c84)" style="fill: #1f77b4"/>
   </g>
   <g id="patch_14">
    <path d="M 779.175452 642.894413 
L 789.878349 642.894413 
L 789.878349 610.533999 
L 779.175452 610.533999 
z
" clip-path="url(#p0dd5613c84)" style="fill: #1f77b4"/>
   </g>
   <g id="patch_15">
    <path d="M 829.873386 642.894413 
L 840.576283 642.894413 
L 840.576283 607.54238 
L 829.873386 607.54238 
z
" clip-path="url(#p0dd5613c84)" style="fill: #1f77b4"/>
   </g>
   <g id="patch_16">
    <path d="M 880.571319 642.894413 
L 891.274216 642.894413 
L 891.274216 604.636267 
L 880.571319 604.636267 
z
" clip-path="url(#p0dd5613c84)" style="fill: #1f77b4"/>
   </g>
   <g id="patch_17">
    <path d="M 931.269253 642.894413 
L 941.97215 642.894413 
L 941.97215 601.812053 
L 931.269253 601.812053 
z
" clip-path="url(#p0dd5613c84)" style="fill: #1f77b4"/>
   </g>
   <g id="patch_18">
    <path d="M 981.967186 642.894413 
L 992.670084 642.894413 
L 992.670084 599.066341 
L 981.967186 599.066341 
z
" clip-path="url(#p0dd5613c84)" style="fill: #1f77b4"/>
   </g>
   <g id="patch_19">
    <path d="M 1032.66512 642.894413 
L 1043.368017 642.894413 
L 1043.368017 596.395929 
L 1032.66512 596.395929 
z
" clip-path="url(#p0dd5613c84)" style="fill: #1f77b4"/>
   </g>
   <g id="patch_20">
    <path d="M 1083.363054 642.894413 
L 1094.065951 642.894413 
L 1094.065951 593.797792 
L 1083.363054 593.797792 
z
" clip-path="url(#p0dd5613c84)" style="fill: #1f77b4"/>
   </g>
   <g id="patch_21">
    <path d="M 1134.060987 642.894413 
L 1144.763885 642.894413 
L 1144.763885 591.269069 
L 1134.060987 591.269069 
z
" clip-path="url(#p0dd5613c84)" style="fill: #1f77b4"/>
   </g>
   <g id="patch_22">
    <path d="M 1184.758921 642.894413 
L 1195.461818 642.894413 
L 1195.461818 588.807048 
L 1184.758921 588.807048 
z
" clip-path="url(#p0dd5613c84)" style="fill: #1f77b4"/>
   </g>
   <g id="patch_23">
    <path d="M 221.498182 650.412 
L 232.201079 650.412 
L 232.201079 607.141488 
L 221.498182 607.141488 
z
" clip-path="url(#p0dd5613c84)" style="fill: #ff7f0e"/>
   </g>
   <g id="patch_24">
    <path d="M 272.196115 646.151345 
L 282.899013 646.151345 
L 282.899013 602.991987 
L 272.196115 602.991987 
z
" clip-path="url(#p0dd5613c84)" style="fill: #ff7f0e"/>
   </g>
   <g id="patch_25">
    <path d="M 322.894049 642.0394 
L 333.596946 642.0394 
L 333.596946 598.988042 
L 322.894049 598.988042 
z
" clip-path="url(#p0dd5613c84)" style="fill: #ff7f0e"/>
   </g>
   <g id="patch_26">
    <path d="M 373.591983 638.067554 
L 384.29488 638.067554 
L 384.29488 595.121176 
L 373.591983 595.121176 
z
" clip-path="url(#p0dd5613c84)" style="fill: #ff7f0e"/>
   </g>
   <g id="patch_27">
    <path d="M 424.289916 634.228056 
L 434.992814 634.228056 
L 434.992814 591.383776 
L 424.289916 591.383776 
z
" clip-path="url(#p0dd5613c84)" style="fill: #ff7f0e"/>
   </g>
   <g id="patch_28">
    <path d="M 474.98785 630.513878 
L 485.690747 630.513878 
L 485.690747 587.768937 
L 474.98785 587.768937 
z
" clip-path="url(#p0dd5613c84)" style="fill: #ff7f0e"/>
   </g>
   <g id="patch_29">
    <path d="M 525.685784 626.918597 
L 536.388681 626.918597 
L 536.388681 584.270359 
L 525.685784 584.270359 
z
" clip-path="url(#p0dd5613c84)" style="fill: #ff7f0e"/>
   </g>
   <g id="patch_30">
    <path d="M 576.383717 623.436314 
L 587.086614 623.436314 
L 587.086614 580.882258 
L 576.383717 580.882258 
z
" clip-path="url(#p0dd5613c84)" style="fill: #ff7f0e"/>
   </g>
   <g id="patch_31">
    <path d="M 627.081651 620.061586 
L 637.784548 620.061586 
L 637.784548 577.599299 
L 627.081651 577.599299 
z
" clip-path="url(#p0dd5613c84)" style="fill: #ff7f0e"/>
   </g>
   <g id="patch_32">
    <path d="M 677.779585 616.789366 
L 688.482482 616.789366 
L 688.482482 574.41654 
L 677.779585 574.41654 
z
" clip-path="url(#p0dd5613c84)" style="fill: #ff7f0e"/>
   </g>
   <g id="patch_33">
    <path d="M 728.477518 613.614963 
L 739.180415 613.614963 
L 739.180415 571.329386 
L 728.477518 571.329386 
z
" clip-path="url(#p0dd5613c84)" style="fill: #ff7f0e"/>
   </g>
   <g id="patch_34">
    <path d="M 779.175452 610.533999 
L 789.878349 610.533999 
L 789.878349 568.333553 
L 779.175452 568.333553 
z
" clip-path="url(#p0dd5613c84)" style="fill: #ff7f0e"/>
   </g>
   <g id="patch_35">
    <path d="M 829.873386 607.54238 
L 840.576283 607.54238 
L 840.576283 565.425033 
L 829.873386 565.425033 
z
" clip-path="url(#p0dd5613c84)" style="fill: #ff7f0e"/>
   </g>
   <g id="patch_36">
    <path d="M 880.571319 604.636267 
L 891.274216 604.636267 
L 891.274216 562.600071 
L 880.571319 562.600071 
z
" clip-path="url(#p0dd5613c84)" style="fill: #ff7f0e"/>
   </g>
   <g id="patch_37">
    <path d="M 931.269253 601.812053 
L 941.97215 601.812053 
L 941.97215 559.855139 
L 931.269253 559.855139 
z
" clip-path="url(#p0dd5613c84)" style="fill: #ff7f0e"/>
   </g>
   <g id="patch_38">
    <path d="M 981.967186 599.066341 
L 992.670084 599.066341 
L 992.670084 557.186916 
L 981.967186 557.186916 
z
" clip-path="url(#p0dd5613c84)" style="fill: #ff7f0e"/>
   </g>
   <g id="patch_39">
    <path d="M 1032.66512 596.395929 
L 1043.368017 596.395929 
L 1043.368017 554.592271 
L 1032.66512 554.592271 
z
" clip-path="url(#p0dd5613c84)" style="fill: #ff7f0e"/>
   </g>
   <g id="patch_40">
    <path d="M 1083.363054 593.797792 
L 1094.065951 593.797792 
L 1094.065951 552.068245 
L 1083.363054 552.068245 
z
" clip-path="url(#p0dd5613c84)" style="fill: #ff7f0e"/>
   </g>
   <g id="patch_41">
    <path d="M 1134.060987 591.269069 
L 1144.763885 591.269069 
L 1144.763885 549.612042 
L 1134.060987 549.612042 
z
" clip-path="url(#p0dd5613c84)" style="fill: #ff7f0e"/>
   </g>
   <g id="patch_42">
    <path d="M 1184.758921 588.807048 
L 1195.461818 588.807048 
L 1195.461818 547.221013 
L 1184.758921 547.221013 
z
" clip-path="url(#p0dd5613c84)" style="fill: #ff7f0e"/>
   </g>
   <g id="patch_43">
    <path d="M 221.498182 607.141488 
L 232.201079 607.141488 
L 232.201079 542.156827 
L 221.498182 542.156827 
z
" clip-path="url(#p0dd5613c84)" style="fill: #2ca02c"/>
   </g>
   <g id="patch_44">
    <path d="M 272.196115 602.991987 
L 282.899013 602.991987 
L 282.899013 538.174262 
L 272.196115 538.174262 
z
" clip-path="url(#p0dd5613c84)" style="fill: #2ca02c"/>
   </g>
   <g id="patch_45">
    <path d="M 322.894049 598.988042 
L 333.596946 598.988042 
L 333.596946 534.332511 
L 322.894049 534.332511 
z
" clip-path="url(#p0dd5613c84)" style="fill: #2ca02c"/>
   </g>
   <g id="patch_46">
    <path d="M 373.591983 595.121176 
L 384.29488 595.121176 
L 384.29488 530.623309 
L 373.591983 530.623309 
z
" clip-path="url(#p0dd5613c84)" style="fill: #2ca02c"/>
   </g>
   <g id="patch_47">
    <path d="M 424.289916 591.383776 
L 434.992814 591.383776 
L 434.992814 527.039239 
L 424.289916 527.039239 
z
" clip-path="url(#p0dd5613c84)" style="fill: #2ca02c"/>
   </g>
   <g id="patch_48">
    <path d="M 474.98785 587.768937 
L 485.690747 587.768937 
L 485.690747 523.573591 
L 474.98785 523.573591 
z
" clip-path="url(#p0dd5613c84)" style="fill: #2ca02c"/>
   </g>
   <g id="patch_49">
    <path d="M 525.685784 584.270359 
L 536.388681 584.270359 
L 536.388681 520.220244 
L 525.685784 520.220244 
z
" clip-path="url(#p0dd5613c84)" style="fill: #2ca02c"/>
   </g>
   <g id="patch_50">
    <path d="M 576.383717 580.882258 
L 587.086614 580.882258 
L 587.086614 516.973588 
L 576.383717 516.973588 
z
" clip-path="url(#p0dd5613c84)" style="fill: #2ca02c"/>
   </g>
   <g id="patch_51">
    <path d="M 627.081651 577.599299 
L 637.784548 577.599299 
L 637.784548 513.828451 
L 627.081651 513.828451 
z
" clip-path="url(#p0dd5613c84)" style="fill: #2ca02c"/>
   </g>
   <g id="patch_52">
    <path d="M 677.779585 574.41654 
L 688.482482 574.41654 
L 688.482482 510.780046 
L 677.779585 510.780046 
z
" clip-path="url(#p0dd5613c84)" style="fill: #2ca02c"/>
   </g>
   <g id="patch_53">
    <path d="M 728.477518 571.329386 
L 739.180415 571.329386 
L 739.180415 507.823924 
L 728.477518 507.823924 
z
" clip-path="url(#p0dd5613c84)" style="fill: #2ca02c"/>
   </g>
   <g id="patch_54">
    <path d="M 779.175452 568.333553 
L 789.878349 568.333553 
L 789.878349 504.955941 
L 779.175452 504.955941 
z
" clip-path="url(#p0dd5613c84)" style="fill: #2ca02c"/>
   </g>
   <g id="patch_55">
    <path d="M 829.873386 565.425033 
L 840.576283 565.425033 
L 840.576283 502.172221 
L 829.873386 502.172221 
z
" clip-path="url(#p0dd5613c84)" style="fill: #2ca02c"/>
   </g>
   <g id="patch_56">
    <path d="M 880.571319 562.600071 
L 891.274216 562.600071 
L 891.274216 499.469135 
L 880.571319 499.469135 
z
" clip-path="url(#p0dd5613c84)" style="fill: #2ca02c"/>
   </g>
   <g id="patch_57">
    <path d="M 931.269253 559.855139 
L 941.97215 559.855139 
L 941.97215 496.843271 
L 931.269253 496.843271 
z
" clip-path="url(#p0dd5613c84)" style="fill: #2ca02c"/>
   </g>
   <g id="patch_58">
    <path d="M 981.967186 557.186916 
L 992.670084 557.186916 
L 992.670084 494.291423 
L 981.967186 494.291423 
z
" clip-path="url(#p0dd5613c84)" style="fill: #2ca02c"/>
   </g>
   <g id="patch_59">
    <path d="M 1032.66512 554.592271 
L 1043.368017 554.592271 
L 1043.368017 491.810565 
L 1032.66512 491.810565 
z
" clip-path="url(#p0dd5613c84)" style="fill: #2ca02c"/>
   </g>
   <g id="patch_60">
    <path d="M 1083.363054 552.068245 
L 1094.065951 552.068245 
L 1094.065951 489.397841 
L 1083.363054 489.397841 
z
" clip-path="url(#p0dd5613c84)" style="fill: #2ca02c"/>
   </g>
   <g id="patch_61">
    <path d="M 1134.060987 549.612042 
L 1144.763885 549.612042 
L 1144.763885 487.050552 
L 1134.060987 487.050552 
z
" clip-path="url(#p0dd5613c84)" style="fill: #2ca02c"/>
   </g>
   <g id="patch_62">
    <path d="M 1184.758921 547.221013 
L 1195.461818 547.221013 
L 1195.461818 484.766139 
L 1184.758921 484.766139 
z
" clip-path="url(#p0dd5613c84)" style="fill: #2ca02c"/>
   </g>
   <g id="patch_63">
    <path d="M 221.498182 542.156827 
L 232.201079 542.156827 
L 232.201079 510.500401 
L 221.498182 510.500401 
z
" clip-path="url(#p0dd5613c84)" style="fill: #d62728"/>
   </g>
   <g id="patch_64">
    <path d="M 272.196115 538.174262 
L 282.899013 538.174262 
L 282.899013 505.596831 
L 272.196115 505.596831 
z
" clip-path="url(#p0dd5613c84)" style="fill: #d62728"/>
   </g>
   <g id="patch_65">
    <path d="M 322.894049 534.332511 
L 333.596946 534.332511 
L 333.596946 500.831746 
L 322.894049 500.831746 
z
" clip-path="url(#p0dd5613c84)" style="fill: #d62728"/>
   </g>
   <g id="patch_66">
    <path d="M 373.591983 530.623309 
L 384.29488 530.623309 
L 384.29488 496.198311 
L 373.591983 496.198311 
z
" clip-path="url(#p0dd5613c84)" style="fill: #d62728"/>
   </g>
   <g id="patch_67">
    <path d="M 424.289916 527.039239 
L 434.992814 527.039239 
L 434.992814 491.690184 
L 424.289916 491.690184 
z
" clip-path="url(#p0dd5613c84)" style="fill: #d62728"/>
   </g>
   <g id="patch_68">
    <path d="M 474.98785 523.573591 
L 485.690747 523.573591 
L 485.690747 487.301468 
L 474.98785 487.301468 
z
" clip-path="url(#p0dd5613c84)" style="fill: #d62728"/>
   </g>
   <g id="patch_69">
    <path d="M 525.685784 520.220244 
L 536.388681 520.220244 
L 536.388681 483.026666 
L 525.685784 483.026666 
z
" clip-path="url(#p0dd5613c84)" style="fill: #d62728"/>
   </g>
   <g id="patch_70">
    <path d="M 576.383717 516.973588 
L 587.086614 516.973588 
L 587.086614 478.860642 
L 576.383717 478.860642 
z
" clip-path="url(#p0dd5613c84)" style="fill: #d62728"/>
   </g>
   <g id="patch_71">
    <path d="M 627.081651 513.828451 
L 637.784548 513.828451 
L 637.784548 474.798588 
L 627.081651 474.798588 
z
" clip-path="url(#p0dd5613c84)" style="fill: #d62728"/>
   </g>
   <g id="patch_72">
    <path d="M 677.779585 510.780046 
L 688.482482 510.780046 
L 688.482482 470.835994 
L 677.779585 470.835994 
z
" clip-path="url(#p0dd5613c84)" style="fill: #d62728"/>
   </g>
   <g id="patch_73">
    <path d="M 728.477518 507.823924 
L 739.180415 507.823924 
L 739.180415 466.968624 
L 728.477518 466.968624 
z
" clip-path="url(#p0dd5613c84)" style="fill: #d62728"/>
   </g>
   <g id="patch_74">
    <path d="M 779.175452 504.955941 
L 789.878349 504.955941 
L 789.878349 463.192489 
L 779.175452 463.192489 
z
" clip-path="url(#p0dd5613c84)" style="fill: #d62728"/>
   </g>
   <g id="patch_75">
    <path d="M 829.873386 502.172221 
L 840.576283 502.172221 
L 840.576283 459.503832 
L 829.873386 459.503832 
z
" clip-path="url(#p0dd5613c84)" style="fill: #d62728"/>
   </g>
   <g id="patch_76">
    <path d="M 880.571319 499.469135 
L 891.274216 499.469135 
L 891.274216 455.899106 
L 880.571319 455.899106 
z
" clip-path="url(#p0dd5613c84)" style="fill: #d62728"/>
   </g>
   <g id="patch_77">
    <path d="M 931.269253 496.843271 
L 941.97215 496.843271 
L 941.97215 452.374958 
L 931.269253 452.374958 
z
" clip-path="url(#p0dd5613c84)" style="fill: #d62728"/>
   </g>
   <g id="patch_78">
    <path d="M 981.967186 494.291423 
L 992.670084 494.291423 
L 992.670084 448.928216 
L 981.967186 448.928216 
z
" clip-path="url(#p0dd5613c84)" style="fill: #d62728"/>
   </g>
   <g id="patch_79">
    <path d="M 1032.66512 491.810565 
L 1043.368017 491.810565 
L 1043.368017 445.555874 
L 1032.66512 445.555874 
z
" clip-path="url(#p0dd5613c84)" style="fill: #d62728"/>
   </g>
   <g id="patch_80">
    <path d="M 1083.363054 489.397841 
L 1094.065951 489.397841 
L 1094.065951 442.255083 
L 1083.363054 442.255083 
z
" clip-path="url(#p0dd5613c84)" style="fill: #d62728"/>
   </g>
   <g id="patch_81">
    <path d="M 1134.060987 487.050552 
L 1144.763885 487.050552 
L 1144.763885 439.023136 
L 1134.060987 439.023136 
z
" clip-path="url(#p0dd5613c84)" style="fill: #d62728"/>
   </g>
   <g id="patch_82">
    <path d="M 1184.758921 484.766139 
L 1195.461818 484.766139 
L 1195.461818 435.857463 
L 1184.758921 435.857463 
z
" clip-path="url(#p0dd5613c84)" style="fill: #d62728"/>
   </g>
   <g id="patch_83">
    <path d="M 221.498182 510.500401 
L 232.201079 510.500401 
L 232.201079 279.768463 
L 221.498182 279.768463 
z
" clip-path="url(#p0dd5613c84)" style="fill: #9467bd"/>
   </g>
   <g id="patch_84">
    <path d="M 272.196115 505.596831 
L 282.899013 505.596831 
L 282.899013 274.124237 
L 272.196115 274.124237 
z
" clip-path="url(#p0dd5613c84)" style="fill: #9467bd"/>
   </g>
   <g id="patch_85">
    <path d="M 322.894049 500.831746 
L 333.596946 500.831746 
L 333.596946 268.642914 
L 322.894049 268.642914 
z
" clip-path="url(#p0dd5613c84)" style="fill: #9467bd"/>
   </g>
   <g id="patch_86">
    <path d="M 373.591983 496.198311 
L 384.29488 496.198311 
L 384.29488 263.316585 
L 373.591983 263.316585 
z
" clip-path="url(#p0dd5613c84)" style="fill: #9467bd"/>
   </g>
   <g id="patch_87">
    <path d="M 424.289916 491.690184 
L 434.992814 491.690184 
L 434.992814 258.137904 
L 424.289916 258.137904 
z
" clip-path="url(#p0dd5613c84)" style="fill: #9467bd"/>
   </g>
   <g id="patch_88">
    <path d="M 474.98785 487.301468 
L 485.690747 487.301468 
L 485.690747 253.100022 
L 474.98785 253.100022 
z
" clip-path="url(#p0dd5613c84)" style="fill: #9467bd"/>
   </g>
   <g id="patch_89">
    <path d="M 525.685784 483.026666 
L 536.388681 483.026666 
L 536.388681 248.196542 
L 525.685784 248.196542 
z
" clip-path="url(#p0dd5613c84)" style="fill: #9467bd"/>
   </g>
   <g id="patch_90">
    <path d="M 576.383717 478.860642 
L 587.086614 478.860642 
L 587.086614 243.421475 
L 576.383717 243.421475 
z
" clip-path="url(#p0dd5613c84)" style="fill: #9467bd"/>
   </g>
   <g id="patch_91">
    <path d="M 627.081651 474.798588 
L 637.784548 474.798588 
L 637.784548 238.769198 
L 627.081651 238.769198 
z
" clip-path="url(#p0dd5613c84)" style="fill: #9467bd"/>
   </g>
   <g id="patch_92">
    <path d="M 677.779585 470.835994 
L 688.482482 470.835994 
L 688.482482 234.234426 
L 677.779585 234.234426 
z
" clip-path="url(#p0dd5613c84)" style="fill: #9467bd"/>
   </g>
   <g id="patch_93">
    <path d="M 728.477518 466.968624 
L 739.180415 466.968624 
L 739.180415 229.812181 
L 728.477518 229.812181 
z
" clip-path="url(#p0dd5613c84)" style="fill: #9467bd"/>
   </g>
   <g id="patch_94">
    <path d="M 779.175452 463.192489 
L 789.878349 463.192489 
L 789.878349 225.497768 
L 779.175452 225.497768 
z
" clip-path="url(#p0dd5613c84)" style="fill: #9467bd"/>
   </g>
   <g id="patch_95">
    <path d="M 829.873386 459.503832 
L 840.576283 459.503832 
L 840.576283 221.286748 
L 829.873386 221.286748 
z
" clip-path="url(#p0dd5613c84)" style="fill: #9467bd"/>
   </g>
   <g id="patch_96">
    <path d="M 880.571319 455.899106 
L 891.274216 455.899106 
L 891.274216 217.174925 
L 880.571319 217.174925 
z
" clip-path="url(#p0dd5613c84)" style="fill: #9467bd"/>
   </g>
   <g id="patch_97">
    <path d="M 931.269253 452.374958 
L 941.97215 452.374958 
L 941.97215 213.158323 
L 931.269253 213.158323 
z
" clip-path="url(#p0dd5613c84)" style="fill: #9467bd"/>
   </g>
   <g id="patch_98">
    <path d="M 981.967186 448.928216 
L 992.670084 448.928216 
L 992.670084 209.233172 
L 981.967186 209.233172 
z
" clip-path="url(#p0dd5613c84)" style="fill: #9467bd"/>
   </g>
   <g id="patch_99">
    <path d="M 1032.66512 445.555874 
L 1043.368017 445.555874 
L 1043.368017 205.395892 
L 1032.66512 205.395892 
z
" clip-path="url(#p0dd5613c84)" style="fill: #9467bd"/>
   </g>
   <g id="patch_100">
    <path d="M 1083.363054 442.255083 
L 1094.065951 442.255083 
L 1094.065951 201.643083 
L 1083.363054 201.643083 
z
" clip-path="url(#p0dd5613c84)" style="fill: #9467bd"/>
   </g>
   <g id="patch_101">
    <path d="M 1134.060987 439.023136 
L 1144.763885 439.023136 
L 1144.763885 197.971511 
L 1134.060987 197.971511 
z
" clip-path="url(#p0dd5613c84)" style="fill: #9467bd"/>
   </g>
   <g id="patch_102">
    <path d="M 1184.758921 435.857463 
L 1195.461818 435.857463 
L 1195.461818 194.378094 
L 1184.758921 194.378094 
z
" clip-path="url(#p0dd5613c84)" style="fill: #9467bd"/>
   </g>
   <g id="patch_103">
    <path d="M 221.498182 279.768463 
L 232.201079 279.768463 
L 232.201079 269.98757 
L 221.498182 269.98757 
z
" clip-path="url(#p0dd5613c84)" style="fill: #8c564b"/>
   </g>
   <g id="patch_104">
    <path d="M 272.196115 274.124237 
L 282.899013 274.124237 
L 282.899013 264.235185 
L 272.196115 264.235185 
z
" clip-path="url(#p0dd5613c84)" style="fill: #8c564b"/>
   </g>
   <g id="patch_105">
    <path d="M 322.894049 268.642914 
L 333.596946 268.642914 
L 333.596946 258.65518 
L 322.894049 258.65518 
z
" clip-path="url(#p0dd5613c84)" style="fill: #8c564b"/>
   </g>
   <g id="patch_106">
    <path d="M 373.591983 263.316585 
L 384.29488 263.316585 
L 384.29488 253.239001 
L 373.591983 253.239001 
z
" clip-path="url(#p0dd5613c84)" style="fill: #8c564b"/>
   </g>
   <g id="patch_107">
    <path d="M 424.289916 258.137904 
L 434.992814 258.137904 
L 434.992814 247.978664 
L 424.289916 247.978664 
z
" clip-path="url(#p0dd5613c84)" style="fill: #8c564b"/>
   </g>
   <g id="patch_108">
    <path d="M 474.98785 253.100022 
L 485.690747 253.100022 
L 485.690747 242.866707 
L 474.98785 242.866707 
z
" clip-path="url(#p0dd5613c84)" style="fill: #8c564b"/>
   </g>
   <g id="patch_109">
    <path d="M 525.685784 248.196542 
L 536.388681 248.196542 
L 536.388681 237.89615 
L 525.685784 237.89615 
z
" clip-path="url(#p0dd5613c84)" style="fill: #8c564b"/>
   </g>
   <g id="patch_110">
    <path d="M 576.383717 243.421475 
L 587.086614 243.421475 
L 587.086614 233.060451 
L 576.383717 233.060451 
z
" clip-path="url(#p0dd5613c84)" style="fill: #8c564b"/>
   </g>
   <g id="patch_111">
    <path d="M 627.081651 238.769198 
L 637.784548 238.769198 
L 637.784548 228.353477 
L 627.081651 228.353477 
z
" clip-path="url(#p0dd5613c84)" style="fill: #8c564b"/>
   </g>
   <g id="patch_112">
    <path d="M 677.779585 234.234426 
L 688.482482 234.234426 
L 688.482482 223.769464 
L 677.779585 223.769464 
z
" clip-path="url(#p0dd5613c84)" style="fill: #8c564b"/>
   </g>
   <g id="patch_113">
    <path d="M 728.477518 229.812181 
L 739.180415 229.812181 
L 739.180415 219.302993 
L 728.477518 219.302993 
z
" clip-path="url(#p0dd5613c84)" style="fill: #8c564b"/>
   </g>
   <g id="patch_114">
    <path d="M 779.175452 225.497768 
L 789.878349 225.497768 
L 789.878349 214.948957 
L 779.175452 214.948957 
z
" clip-path="url(#p0dd5613c84)" style="fill: #8c564b"/>
   </g>
   <g id="patch_115">
    <path d="M 829.873386 221.286748 
L 840.576283 221.286748 
L 840.576283 210.702543 
L 829.873386 210.702543 
z
" clip-path="url(#p0dd5613c84)" style="fill: #8c564b"/>
   </g>
   <g id="patch_116">
    <path d="M 880.571319 217.174925 
L 891.274216 217.174925 
L 891.274216 206.559204 
L 880.571319 206.559204 
z
" clip-path="url(#p0dd5613c84)" style="fill: #8c564b"/>
   </g>
   <g id="patch_117">
    <path d="M 931.269253 213.158323 
L 941.97215 213.158323 
L 941.97215 202.514643 
L 931.269253 202.514643 
z
" clip-path="url(#p0dd5613c84)" style="fill: #8c564b"/>
   </g>
   <g id="patch_118">
    <path d="M 981.967186 209.233172 
L 992.670084 209.233172 
L 992.670084 198.564794 
L 981.967186 198.564794 
z
" clip-path="url(#p0dd5613c84)" style="fill: #8c564b"/>
   </g>
   <g id="patch_119">
    <path d="M 1032.66512 205.395892 
L 1043.368017 205.395892 
L 1043.368017 194.705806 
L 1032.66512 194.705806 
z
" clip-path="url(#p0dd5613c84)" style="fill: #8c564b"/>
   </g>
   <g id="patch_120">
    <path d="M 1083.363054 201.643083 
L 1094.065951 201.643083 
L 1094.065951 190.934027 
L 1083.363054 190.934027 
z
" clip-path="url(#p0dd5613c84)" style="fill: #8c564b"/>
   </g>
   <g id="patch_121">
    <path d="M 1134.060987 197.971511 
L 1144.763885 197.971511 
L 1144.763885 187.245991 
L 1134.060987 187.245991 
z
" clip-path="url(#p0dd5613c84)" style="fill: #8c564b"/>
   </g>
   <g id="patch_122">
    <path d="M 1184.758921 194.378094 
L 1195.461818 194.378094 
L 1195.461818 183.638407 
L 1184.758921 183.638407 
z
" clip-path="url(#p0dd5613c84)" style="fill: #8c564b"/>
   </g>
   <g id="patch_123">
    <path d="M 221.498182 269.98757 
L 232.201079 269.98757 
L 232.201079 205.371067 
L 221.498182 205.371067 
z
" clip-path="url(#p0dd5613c84)" style="fill: #e377c2"/>
   </g>
   <g id="patch_124">
    <path d="M 272.196115 264.235185 
L 282.899013 264.235185 
L 282.899013 199.784672 
L 272.196115 199.784672 
z
" clip-path="url(#p0dd5613c84)" style="fill: #e377c2"/>
   </g>
   <g id="patch_125">
    <path d="M 322.894049 258.65518 
L 333.596946 258.65518 
L 333.596946 194.365943 
L 322.894049 194.365943 
z
" clip-path="url(#p0dd5613c84)" style="fill: #e377c2"/>
   </g>
   <g id="patch_126">
    <path d="M 373.591983 253.239001 
L 384.29488 253.239001 
L 384.29488 189.106534 
L 373.591983 189.106534 
z
" clip-path="url(#p0dd5613c84)" style="fill: #e377c2"/>
   </g>
   <g id="patch_127">
    <path d="M 424.289916 247.978664 
L 434.992814 247.978664 
L 434.992814 183.99866 
L 424.289916 183.99866 
z
" clip-path="url(#p0dd5613c84)" style="fill: #e377c2"/>
   </g>
   <g id="patch_128">
    <path d="M 474.98785 242.866707 
L 485.690747 242.866707 
L 485.690747 179.035048 
L 474.98785 179.035048 
z
" clip-path="url(#p0dd5613c84)" style="fill: #e377c2"/>
   </g>
   <g id="patch_129">
    <path d="M 525.685784 237.89615 
L 536.388681 237.89615 
L 536.388681 174.208899 
L 525.685784 174.208899 
z
" clip-path="url(#p0dd5613c84)" style="fill: #e377c2"/>
   </g>
   <g id="patch_130">
    <path d="M 576.383717 233.060451 
L 587.086614 233.060451 
L 587.086614 169.513844 
L 576.383717 169.513844 
z
" clip-path="url(#p0dd5613c84)" style="fill: #e377c2"/>
   </g>
   <g id="patch_131">
    <path d="M 627.081651 228.353477 
L 637.784548 228.353477 
L 637.784548 164.94391 
L 627.081651 164.94391 
z
" clip-path="url(#p0dd5613c84)" style="fill: #e377c2"/>
   </g>
   <g id="patch_132">
    <path d="M 677.779585 223.769464 
L 688.482482 223.769464 
L 688.482482 160.49349 
L 677.779585 160.49349 
z
" clip-path="url(#p0dd5613c84)" style="fill: #e377c2"/>
   </g>
   <g id="patch_133">
    <path d="M 728.477518 219.302993 
L 739.180415 219.302993 
L 739.180415 156.157309 
L 728.477518 156.157309 
z
" clip-path="url(#p0dd5613c84)" style="fill: #e377c2"/>
   </g>
   <g id="patch_134">
    <path d="M 779.175452 214.948957 
L 789.878349 214.948957 
L 789.878349 151.9304 
L 779.175452 151.9304 
z
" clip-path="url(#p0dd5613c84)" style="fill: #e377c2"/>
   </g>
   <g id="patch_135">
    <path d="M 829.873386 210.702543 
L 840.576283 210.702543 
L 840.576283 147.808078 
L 829.873386 147.808078 
z
" clip-path="url(#p0dd5613c84)" style="fill: #e377c2"/>
   </g>
   <g id="patch_136">
    <path d="M 880.571319 206.559204 
L 891.274216 206.559204 
L 891.274216 143.785924 
L 880.571319 143.785924 
z
" clip-path="url(#p0dd5613c84)" style="fill: #e377c2"/>
   </g>
   <g id="patch_137">
    <path d="M 931.269253 202.514643 
L 941.97215 202.514643 
L 941.97215 139.859757 
L 931.269253 139.859757 
z
" clip-path="url(#p0dd5613c84)" style="fill: #e377c2"/>
   </g>
   <g id="patch_138">
    <path d="M 981.967186 198.564794 
L 992.670084 198.564794 
L 992.670084 136.025623 
L 981.967186 136.025623 
z
" clip-path="url(#p0dd5613c84)" style="fill: #e377c2"/>
   </g>
   <g id="patch_139">
    <path d="M 1032.66512 194.705806 
L 1043.368017 194.705806 
L 1043.368017 132.279778 
L 1032.66512 132.279778 
z
" clip-path="url(#p0dd5613c84)" style="fill: #e377c2"/>
   </g>
   <g id="patch_140">
    <path d="M 1083.363054 190.934027 
L 1094.065951 190.934027 
L 1094.065951 128.618671 
L 1083.363054 128.618671 
z
" clip-path="url(#p0dd5613c84)" style="fill: #e377c2"/>
   </g>
   <g id="patch_141">
    <path d="M 1134.060987 187.245991 
L 1144.763885 187.245991 
L 1144.763885 125.038931 
L 1134.060987 125.038931 
z
" clip-path="url(#p0dd5613c84)" style="fill: #e377c2"/>
   </g>
   <g id="patch_142">
    <path d="M 1184.758921 183.638407 
L 1195.461818 183.638407 
L 1195.461818 121.537359 
L 1184.758921 121.537359 
z
" clip-path="url(#p0dd5613c84)" style="fill: #e377c2"/>
   </g>
   <g id="patch_143">
    <path d="M 221.498182 205.371067 
L 232.201079 205.371067 
L 232.201079 204.853259 
L 221.498182 204.853259 
z
" clip-path="url(#p0dd5613c84)" style="fill: #7f7f7f"/>
   </g>
   <g id="patch_144">
    <path d="M 272.196115 199.784672 
L 282.899013 199.784672 
L 282.899013 199.279504 
L 272.196115 199.279504 
z
" clip-path="url(#p0dd5613c84)" style="fill: #7f7f7f"/>
   </g>
   <g id="patch_145">
    <path d="M 322.894049 194.365943 
L 333.596946 194.365943 
L 333.596946 193.87251 
L 322.894049 193.87251 
z
" clip-path="url(#p0dd5613c84)" style="fill: #7f7f7f"/>
   </g>
   <g id="patch_146">
    <path d="M 373.591983 189.106534 
L 384.29488 189.106534 
L 384.29488 188.624049 
L 373.591983 188.624049 
z
" clip-path="url(#p0dd5613c84)" style="fill: #7f7f7f"/>
   </g>
   <g id="patch_147">
    <path d="M 424.289916 183.99866 
L 434.992814 183.99866 
L 434.992814 183.526434 
L 424.289916 183.526434 
z
" clip-path="url(#p0dd5613c84)" style="fill: #7f7f7f"/>
   </g>
   <g id="patch_148">
    <path d="M 474.98785 179.035048 
L 485.690747 179.035048 
L 485.690747 178.572468 
L 474.98785 178.572468 
z
" clip-path="url(#p0dd5613c84)" style="fill: #7f7f7f"/>
   </g>
   <g id="patch_149">
    <path d="M 525.685784 174.208899 
L 536.388681 174.208899 
L 536.388681 173.75542 
L 525.685784 173.75542 
z
" clip-path="url(#p0dd5613c84)" style="fill: #7f7f7f"/>
   </g>
   <g id="patch_150">
    <path d="M 576.383717 169.513844 
L 587.086614 169.513844 
L 587.086614 169.068975 
L 576.383717 169.068975 
z
" clip-path="url(#p0dd5613c84)" style="fill: #7f7f7f"/>
   </g>
   <g id="patch_151">
    <path d="M 627.081651 164.94391 
L 637.784548 164.94391 
L 637.784548 164.507209 
L 627.081651 164.507209 
z
" clip-path="url(#p0dd5613c84)" style="fill: #7f7f7f"/>
   </g>
   <g id="patch_152">
    <path d="M 677.779585 160.49349 
L 688.482482 160.49349 
L 688.482482 160.064554 
L 677.779585 160.064554 
z
" clip-path="url(#p0dd5613c84)" style="fill: #7f7f7f"/>
   </g>
   <g id="patch_153">
    <path d="M 728.477518 156.157309 
L 739.180415 156.157309 
L 739.180415 155.735771 
L 728.477518 155.735771 
z
" clip-path="url(#p0dd5613c84)" style="fill: #7f7f7f"/>
   </g>
   <g id="patch_154">
    <path d="M 779.175452 151.9304 
L 789.878349 151.9304 
L 789.878349 151.515923 
L 779.175452 151.515923 
z
" clip-path="url(#p0dd5613c84)" style="fill: #7f7f7f"/>
   </g>
   <g id="patch_155">
    <path d="M 829.873386 147.808078 
L 840.576283 147.808078 
L 840.576283 147.400354 
L 829.873386 147.400354 
z
" clip-path="url(#p0dd5613c84)" style="fill: #7f7f7f"/>
   </g>
   <g id="patch_156">
    <path d="M 880.571319 143.785924 
L 891.274216 143.785924 
L 891.274216 143.384667 
L 880.571319 143.384667 
z
" clip-path="url(#p0dd5613c84)" style="fill: #7f7f7f"/>
   </g>
   <g id="patch_157">
    <path d="M 931.269253 139.859757 
L 941.97215 139.859757 
L 941.97215 139.464703 
L 931.269253 139.464703 
z
" clip-path="url(#p0dd5613c84)" style="fill: #7f7f7f"/>
   </g>
   <g id="patch_158">
    <path d="M 981.967186 136.025623 
L 992.670084 136.025623 
L 992.670084 135.636527 
L 981.967186 135.636527 
z
" clip-path="url(#p0dd5613c84)" style="fill: #7f7f7f"/>
   </g>
   <g id="patch_159">
    <path d="M 1032.66512 132.279778 
L 1043.368017 132.279778 
L 1043.368017 131.896412 
L 1032.66512 131.896412 
z
" clip-path="url(#p0dd5613c84)" style="fill: #7f7f7f"/>
   </g>
   <g id="patch_160">
    <path d="M 1083.363054 128.618671 
L 1094.065951 128.618671 
L 1094.065951 128.24082 
L 1083.363054 128.24082 
z
" clip-path="url(#p0dd5613c84)" style="fill: #7f7f7f"/>
   </g>
   <g id="patch_161">
    <path d="M 1134.060987 125.038931 
L 1144.763885 125.038931 
L 1144.763885 124.666398 
L 1134.060987 124.666398 
z
" clip-path="url(#p0dd5613c84)" style="fill: #7f7f7f"/>
   </g>
   <g id="patch_162">
    <path d="M 1184.758921 121.537359 
L 1195.461818 121.537359 
L 1195.461818 121.169956 
L 1184.758921 121.169956 
z
" clip-path="url(#p0dd5613c84)" style="fill: #7f7f7f"/>
   </g>
   <g id="patch_163">
    <path d="M 221.498182 204.853259 
L 232.201079 204.853259 
L 232.201079 194.987888 
L 221.498182 194.987888 
z
" clip-path="url(#p0dd5613c84)" style="fill: #bcbd22"/>
   </g>
   <g id="patch_164">
    <path d="M 272.196115 199.279504 
L 282.899013 199.279504 
L 282.899013 189.676136 
L 272.196115 189.676136 
z
" clip-path="url(#p0dd5613c84)" style="fill: #bcbd22"/>
   </g>
   <g id="patch_165">
    <path d="M 322.894049 193.87251 
L 333.596946 193.87251 
L 333.596946 184.515214 
L 322.894049 184.515214 
z
" clip-path="url(#p0dd5613c84)" style="fill: #bcbd22"/>
   </g>
   <g id="patch_166">
    <path d="M 373.591983 188.624049 
L 384.29488 188.624049 
L 384.29488 179.498495 
L 373.591983 179.498495 
z
" clip-path="url(#p0dd5613c84)" style="fill: #bcbd22"/>
   </g>
   <g id="patch_167">
    <path d="M 424.289916 183.526434 
L 434.992814 183.526434 
L 434.992814 174.61961 
L 424.289916 174.61961 
z
" clip-path="url(#p0dd5613c84)" style="fill: #bcbd22"/>
   </g>
   <g id="patch_168">
    <path d="M 474.98785 178.572468 
L 485.690747 178.572468 
L 485.690747 169.872484 
L 474.98785 169.872484 
z
" clip-path="url(#p0dd5613c84)" style="fill: #bcbd22"/>
   </g>
   <g id="patch_169">
    <path d="M 525.685784 173.75542 
L 536.388681 173.75542 
L 536.388681 165.251334 
L 525.685784 165.251334 
z
" clip-path="url(#p0dd5613c84)" style="fill: #bcbd22"/>
   </g>
   <g id="patch_170">
    <path d="M 576.383717 169.068975 
L 587.086614 169.068975 
L 587.086614 160.750671 
L 576.383717 160.750671 
z
" clip-path="url(#p0dd5613c84)" style="fill: #bcbd22"/>
   </g>
   <g id="patch_171">
    <path d="M 627.081651 164.507209 
L 637.784548 164.507209 
L 637.784548 156.36529 
L 627.081651 156.36529 
z
" clip-path="url(#p0dd5613c84)" style="fill: #bcbd22"/>
   </g>
   <g id="patch_172">
    <path d="M 677.779585 160.064554 
L 688.482482 160.064554 
L 688.482482 152.090259 
L 677.779585 152.090259 
z
" clip-path="url(#p0dd5613c84)" style="fill: #bcbd22"/>
   </g>
   <g id="patch_173">
    <path d="M 728.477518 155.735771 
L 739.180415 155.735771 
L 739.180415 147.920906 
L 728.477518 147.920906 
z
" clip-path="url(#p0dd5613c84)" style="fill: #bcbd22"/>
   </g>
   <g id="patch_174">
    <path d="M 779.175452 151.515923 
L 789.878349 151.515923 
L 789.878349 143.852803 
L 779.175452 143.852803 
z
" clip-path="url(#p0dd5613c84)" style="fill: #bcbd22"/>
   </g>
   <g id="patch_175">
    <path d="M 829.873386 147.400354 
L 840.576283 147.400354 
L 840.576283 139.881754 
L 829.873386 139.881754 
z
" clip-path="url(#p0dd5613c84)" style="fill: #bcbd22"/>
   </g>
   <g id="patch_176">
    <path d="M 880.571319 143.384667 
L 891.274216 143.384667 
L 891.274216 136.003781 
L 880.571319 136.003781 
z
" clip-path="url(#p0dd5613c84)" style="fill: #bcbd22"/>
   </g>
   <g id="patch_177">
    <path d="M 931.269253 139.464703 
L 941.97215 139.464703 
L 941.97215 132.21511 
L 931.269253 132.21511 
z
" clip-path="url(#p0dd5613c84)" style="fill: #bcbd22"/>
   </g>
   <g id="patch_178">
    <path d="M 981.967186 135.636527 
L 992.670084 135.636527 
L 992.670084 128.512159 
L 981.967186 128.512159 
z
" clip-path="url(#p0dd5613c84)" style="fill: #bcbd22"/>
   </g>
   <g id="patch_179">
    <path d="M 1032.66512 131.896412 
L 1043.368017 131.896412 
L 1043.368017 124.891526 
L 1032.66512 124.891526 
z
" clip-path="url(#p0dd5613c84)" style="fill: #bcbd22"/>
   </g>
   <g id="patch_180">
    <path d="M 1083.363054 128.24082 
L 1094.065951 128.24082 
L 1094.065951 121.349979 
L 1083.363054 121.349979 
z
" clip-path="url(#p0dd5613c84)" style="fill: #bcbd22"/>
   </g>
   <g id="patch_181">
    <path d="M 1134.060987 124.666398 
L 1144.763885 124.666398 
L 1144.763885 117.884445 
L 1134.060987 117.884445 
z
" clip-path="url(#p0dd5613c84)" style="fill: #bcbd22"/>
   </g>
   <g id="patch_182">
    <path d="M 1184.758921 121.169956 
L 1195.461818 121.169956 
L 1195.461818 114.492 
L 1184.758921 114.492 
z
" clip-path="url(#p0dd5613c84)" style="fill: #bcbd22"/>
   </g>
   <g id="matplotlib.axis_1">
    <g id="xtick_1">
     <g id="line2d_1">
      <defs>
       <path id="m73e8e32851" d="M 0 0 
L 0 3.5 
" style="stroke: #000000; stroke-width: 0.8"/>
      </defs>
      <g>
       <use xlink:href="#m73e8e32851" x="226.84963" y="650.412" style="stroke: #000000; stroke-width: 0.8"/>
      </g>
     </g>
     <g id="text_1">
      <!-- 30 -->
      <g transform="translate(215.39713 671.089188) scale(0.18 -0.18)">
       <defs>
        <path id="DejaVuSans-33" d="M 2597 2516 
Q 3050 2419 3304 2112 
Q 3559 1806 3559 1356 
Q 3559 666 3084 287 
Q 2609 -91 1734 -91 
Q 1441 -91 1130 -33 
Q 819 25 488 141 
L 488 750 
Q 750 597 1062 519 
Q 1375 441 1716 441 
Q 2309 441 2620 675 
Q 2931 909 2931 1356 
Q 2931 1769 2642 2001 
Q 2353 2234 1838 2234 
L 1294 2234 
L 1294 2753 
L 1863 2753 
Q 2328 2753 2575 2939 
Q 2822 3125 2822 3475 
Q 2822 3834 2567 4026 
Q 2313 4219 1838 4219 
Q 1578 4219 1281 4162 
Q 984 4106 628 3988 
L 628 4550 
Q 988 4650 1302 4700 
Q 1616 4750 1894 4750 
Q 2613 4750 3031 4423 
Q 3450 4097 3450 3541 
Q 3450 3153 3228 2886 
Q 3006 2619 2597 2516 
z
" transform="scale(0.015625)"/>
        <path id="DejaVuSans-30" d="M 2034 4250 
Q 1547 4250 1301 3770 
Q 1056 3291 1056 2328 
Q 1056 1369 1301 889 
Q 1547 409 2034 409 
Q 2525 409 2770 889 
Q 3016 1369 3016 2328 
Q 3016 3291 2770 3770 
Q 2525 4250 2034 4250 
z
M 2034 4750 
Q 2819 4750 3233 4129 
Q 3647 3509 3647 2328 
Q 3647 1150 3233 529 
Q 2819 -91 2034 -91 
Q 1250 -91 836 529 
Q 422 1150 422 2328 
Q 422 3509 836 4129 
Q 1250 4750 2034 4750 
z
" transform="scale(0.015625)"/>
       </defs>
       <use xlink:href="#DejaVuSans-33"/>
       <use xlink:href="#DejaVuSans-30" x="63.623047"/>
      </g>
     </g>
    </g>
    <g id="xtick_2">
     <g id="line2d_2">
      <g>
       <use xlink:href="#m73e8e32851" x="440.907572" y="650.412" style="stroke: #000000; stroke-width: 0.8"/>
      </g>
     </g>
     <g id="text_2">
      <!-- 32 -->
      <g transform="translate(429.455072 671.089188) scale(0.18 -0.18)">
       <defs>
        <path id="DejaVuSans-32" d="M 1228 531 
L 3431 531 
L 3431 0 
L 469 0 
L 469 531 
Q 828 903 1448 1529 
Q 2069 2156 2228 2338 
Q 2531 2678 2651 2914 
Q 2772 3150 2772 3378 
Q 2772 3750 2511 3984 
Q 2250 4219 1831 4219 
Q 1534 4219 1204 4116 
Q 875 4013 500 3803 
L 500 4441 
Q 881 4594 1212 4672 
Q 1544 4750 1819 4750 
Q 2544 4750 2975 4387 
Q 3406 4025 3406 3419 
Q 3406 3131 3298 2873 
Q 3191 2616 2906 2266 
Q 2828 2175 2409 1742 
Q 1991 1309 1228 531 
z
" transform="scale(0.015625)"/>
       </defs>
       <use xlink:href="#DejaVuSans-33"/>
       <use xlink:href="#DejaVuSans-32" x="63.623047"/>
      </g>
     </g>
    </g>
    <g id="xtick_3">
     <g id="line2d_3">
      <g>
       <use xlink:href="#m73e8e32851" x="654.965514" y="650.412" style="stroke: #000000; stroke-width: 0.8"/>
      </g>
     </g>
     <g id="text_3">
      <!-- 34 -->
      <g transform="translate(643.513014 671.089188) scale(0.18 -0.18)">
       <defs>
        <path id="DejaVuSans-34" d="M 2419 4116 
L 825 1625 
L 2419 1625 
L 2419 4116 
z
M 2253 4666 
L 3047 4666 
L 3047 1625 
L 3713 1625 
L 3713 1100 
L 3047 1100 
L 3047 0 
L 2419 0 
L 2419 1100 
L 313 1100 
L 313 1709 
L 2253 4666 
z
" transform="scale(0.015625)"/>
       </defs>
       <use xlink:href="#DejaVuSans-33"/>
       <use xlink:href="#DejaVuSans-34" x="63.623047"/>
      </g>
     </g>
    </g>
    <g id="xtick_4">
     <g id="line2d_4">
      <g>
       <use xlink:href="#m73e8e32851" x="869.023457" y="650.412" style="stroke: #000000; stroke-width: 0.8"/>
      </g>
     </g>
     <g id="text_4">
      <!-- 36 -->
      <g transform="translate(857.570957 671.089188) scale(0.18 -0.18)">
       <defs>
        <path id="DejaVuSans-36" d="M 2113 2584 
Q 1688 2584 1439 2293 
Q 1191 2003 1191 1497 
Q 1191 994 1439 701 
Q 1688 409 2113 409 
Q 2538 409 2786 701 
Q 3034 994 3034 1497 
Q 3034 2003 2786 2293 
Q 2538 2584 2113 2584 
z
M 3366 4563 
L 3366 3988 
Q 3128 4100 2886 4159 
Q 2644 4219 2406 4219 
Q 1781 4219 1451 3797 
Q 1122 3375 1075 2522 
Q 1259 2794 1537 2939 
Q 1816 3084 2150 3084 
Q 2853 3084 3261 2657 
Q 3669 2231 3669 1497 
Q 3669 778 3244 343 
Q 2819 -91 2113 -91 
Q 1303 -91 875 529 
Q 447 1150 447 2328 
Q 447 3434 972 4092 
Q 1497 4750 2381 4750 
Q 2619 4750 2861 4703 
Q 3103 4656 3366 4563 
z
" transform="scale(0.015625)"/>
       </defs>
       <use xlink:href="#DejaVuSans-33"/>
       <use xlink:href="#DejaVuSans-36" x="63.623047"/>
      </g>
     </g>
    </g>
    <g id="xtick_5">
     <g id="line2d_5">
      <g>
       <use xlink:href="#m73e8e32851" x="1083.081399" y="650.412" style="stroke: #000000; stroke-width: 0.8"/>
      </g>
     </g>
     <g id="text_5">
      <!-- 38 -->
      <g transform="translate(1071.628899 671.089188) scale(0.18 -0.18)">
       <defs>
        <path id="DejaVuSans-38" d="M 2034 2216 
Q 1584 2216 1326 1975 
Q 1069 1734 1069 1313 
Q 1069 891 1326 650 
Q 1584 409 2034 409 
Q 2484 409 2743 651 
Q 3003 894 3003 1313 
Q 3003 1734 2745 1975 
Q 2488 2216 2034 2216 
z
M 1403 2484 
Q 997 2584 770 2862 
Q 544 3141 544 3541 
Q 544 4100 942 4425 
Q 1341 4750 2034 4750 
Q 2731 4750 3128 4425 
Q 3525 4100 3525 3541 
Q 3525 3141 3298 2862 
Q 3072 2584 2669 2484 
Q 3125 2378 3379 2068 
Q 3634 1759 3634 1313 
Q 3634 634 3220 271 
Q 2806 -91 2034 -91 
Q 1263 -91 848 271 
Q 434 634 434 1313 
Q 434 1759 690 2068 
Q 947 2378 1403 2484 
z
M 1172 3481 
Q 1172 3119 1398 2916 
Q 1625 2713 2034 2713 
Q 2441 2713 2670 2916 
Q 2900 3119 2900 3481 
Q 2900 3844 2670 4047 
Q 2441 4250 2034 4250 
Q 1625 4250 1398 4047 
Q 1172 3844 1172 3481 
z
" transform="scale(0.015625)"/>
       </defs>
       <use xlink:href="#DejaVuSans-33"/>
       <use xlink:href="#DejaVuSans-38" x="63.623047"/>
      </g>
     </g>
    </g>
    <g id="text_6">
     <!-- Kondensatordruck in bar -->
     <g transform="translate(597.950156 692.509813) scale(0.18 -0.18)">
      <defs>
       <path id="DejaVuSans-4b" d="M 628 4666 
L 1259 4666 
L 1259 2694 
L 3353 4666 
L 4166 4666 
L 1850 2491 
L 4331 0 
L 3500 0 
L 1259 2247 
L 1259 0 
L 628 0 
L 628 4666 
z
" transform="scale(0.015625)"/>
       <path id="DejaVuSans-6f" d="M 1959 3097 
Q 1497 3097 1228 2736 
Q 959 2375 959 1747 
Q 959 1119 1226 758 
Q 1494 397 1959 397 
Q 2419 397 2687 759 
Q 2956 1122 2956 1747 
Q 2956 2369 2687 2733 
Q 2419 3097 1959 3097 
z
M 1959 3584 
Q 2709 3584 3137 3096 
Q 3566 2609 3566 1747 
Q 3566 888 3137 398 
Q 2709 -91 1959 -91 
Q 1206 -91 779 398 
Q 353 888 353 1747 
Q 353 2609 779 3096 
Q 1206 3584 1959 3584 
z
" transform="scale(0.015625)"/>
       <path id="DejaVuSans-6e" d="M 3513 2113 
L 3513 0 
L 2938 0 
L 2938 2094 
Q 2938 2591 2744 2837 
Q 2550 3084 2163 3084 
Q 1697 3084 1428 2787 
Q 1159 2491 1159 1978 
L 1159 0 
L 581 0 
L 581 3500 
L 1159 3500 
L 1159 2956 
Q 1366 3272 1645 3428 
Q 1925 3584 2291 3584 
Q 2894 3584 3203 3211 
Q 3513 2838 3513 2113 
z
" transform="scale(0.015625)"/>
       <path id="DejaVuSans-64" d="M 2906 2969 
L 2906 4863 
L 3481 4863 
L 3481 0 
L 2906 0 
L 2906 525 
Q 2725 213 2448 61 
Q 2172 -91 1784 -91 
Q 1150 -91 751 415 
Q 353 922 353 1747 
Q 353 2572 751 3078 
Q 1150 3584 1784 3584 
Q 2172 3584 2448 3432 
Q 2725 3281 2906 2969 
z
M 947 1747 
Q 947 1113 1208 752 
Q 1469 391 1925 391 
Q 2381 391 2643 752 
Q 2906 1113 2906 1747 
Q 2906 2381 2643 2742 
Q 2381 3103 1925 3103 
Q 1469 3103 1208 2742 
Q 947 2381 947 1747 
z
" transform="scale(0.015625)"/>
       <path id="DejaVuSans-65" d="M 3597 1894 
L 3597 1613 
L 953 1613 
Q 991 1019 1311 708 
Q 1631 397 2203 397 
Q 2534 397 2845 478 
Q 3156 559 3463 722 
L 3463 178 
Q 3153 47 2828 -22 
Q 2503 -91 2169 -91 
Q 1331 -91 842 396 
Q 353 884 353 1716 
Q 353 2575 817 3079 
Q 1281 3584 2069 3584 
Q 2775 3584 3186 3129 
Q 3597 2675 3597 1894 
z
M 3022 2063 
Q 3016 2534 2758 2815 
Q 2500 3097 2075 3097 
Q 1594 3097 1305 2825 
Q 1016 2553 972 2059 
L 3022 2063 
z
" transform="scale(0.015625)"/>
       <path id="DejaVuSans-73" d="M 2834 3397 
L 2834 2853 
Q 2591 2978 2328 3040 
Q 2066 3103 1784 3103 
Q 1356 3103 1142 2972 
Q 928 2841 928 2578 
Q 928 2378 1081 2264 
Q 1234 2150 1697 2047 
L 1894 2003 
Q 2506 1872 2764 1633 
Q 3022 1394 3022 966 
Q 3022 478 2636 193 
Q 2250 -91 1575 -91 
Q 1294 -91 989 -36 
Q 684 19 347 128 
L 347 722 
Q 666 556 975 473 
Q 1284 391 1588 391 
Q 1994 391 2212 530 
Q 2431 669 2431 922 
Q 2431 1156 2273 1281 
Q 2116 1406 1581 1522 
L 1381 1569 
Q 847 1681 609 1914 
Q 372 2147 372 2553 
Q 372 3047 722 3315 
Q 1072 3584 1716 3584 
Q 2034 3584 2315 3537 
Q 2597 3491 2834 3397 
z
" transform="scale(0.015625)"/>
       <path id="DejaVuSans-61" d="M 2194 1759 
Q 1497 1759 1228 1600 
Q 959 1441 959 1056 
Q 959 750 1161 570 
Q 1363 391 1709 391 
Q 2188 391 2477 730 
Q 2766 1069 2766 1631 
L 2766 1759 
L 2194 1759 
z
M 3341 1997 
L 3341 0 
L 2766 0 
L 2766 531 
Q 2569 213 2275 61 
Q 1981 -91 1556 -91 
Q 1019 -91 701 211 
Q 384 513 384 1019 
Q 384 1609 779 1909 
Q 1175 2209 1959 2209 
L 2766 2209 
L 2766 2266 
Q 2766 2663 2505 2880 
Q 2244 3097 1772 3097 
Q 1472 3097 1187 3025 
Q 903 2953 641 2809 
L 641 3341 
Q 956 3463 1253 3523 
Q 1550 3584 1831 3584 
Q 2591 3584 2966 3190 
Q 3341 2797 3341 1997 
z
" transform="scale(0.015625)"/>
       <path id="DejaVuSans-74" d="M 1172 4494 
L 1172 3500 
L 2356 3500 
L 2356 3053 
L 1172 3053 
L 1172 1153 
Q 1172 725 1289 603 
Q 1406 481 1766 481 
L 2356 481 
L 2356 0 
L 1766 0 
Q 1100 0 847 248 
Q 594 497 594 1153 
L 594 3053 
L 172 3053 
L 172 3500 
L 594 3500 
L 594 4494 
L 1172 4494 
z
" transform="scale(0.015625)"/>
       <path id="DejaVuSans-72" d="M 2631 2963 
Q 2534 3019 2420 3045 
Q 2306 3072 2169 3072 
Q 1681 3072 1420 2755 
Q 1159 2438 1159 1844 
L 1159 0 
L 581 0 
L 581 3500 
L 1159 3500 
L 1159 2956 
Q 1341 3275 1631 3429 
Q 1922 3584 2338 3584 
Q 2397 3584 2469 3576 
Q 2541 3569 2628 3553 
L 2631 2963 
z
" transform="scale(0.015625)"/>
       <path id="DejaVuSans-75" d="M 544 1381 
L 544 3500 
L 1119 3500 
L 1119 1403 
Q 1119 906 1312 657 
Q 1506 409 1894 409 
Q 2359 409 2629 706 
Q 2900 1003 2900 1516 
L 2900 3500 
L 3475 3500 
L 3475 0 
L 2900 0 
L 2900 538 
Q 2691 219 2414 64 
Q 2138 -91 1772 -91 
Q 1169 -91 856 284 
Q 544 659 544 1381 
z
M 1991 3584 
L 1991 3584 
z
" transform="scale(0.015625)"/>
       <path id="DejaVuSans-63" d="M 3122 3366 
L 3122 2828 
Q 2878 2963 2633 3030 
Q 2388 3097 2138 3097 
Q 1578 3097 1268 2742 
Q 959 2388 959 1747 
Q 959 1106 1268 751 
Q 1578 397 2138 397 
Q 2388 397 2633 464 
Q 2878 531 3122 666 
L 3122 134 
Q 2881 22 2623 -34 
Q 2366 -91 2075 -91 
Q 1284 -91 818 406 
Q 353 903 353 1747 
Q 353 2603 823 3093 
Q 1294 3584 2113 3584 
Q 2378 3584 2631 3529 
Q 2884 3475 3122 3366 
z
" transform="scale(0.015625)"/>
       <path id="DejaVuSans-6b" d="M 581 4863 
L 1159 4863 
L 1159 1991 
L 2875 3500 
L 3609 3500 
L 1753 1863 
L 3688 0 
L 2938 0 
L 1159 1709 
L 1159 0 
L 581 0 
L 581 4863 
z
" transform="scale(0.015625)"/>
       <path id="DejaVuSans-20" transform="scale(0.015625)"/>
       <path id="DejaVuSans-69" d="M 603 3500 
L 1178 3500 
L 1178 0 
L 603 0 
L 603 3500 
z
M 603 4863 
L 1178 4863 
L 1178 4134 
L 603 4134 
L 603 4863 
z
" transform="scale(0.015625)"/>
       <path id="DejaVuSans-62" d="M 3116 1747 
Q 3116 2381 2855 2742 
Q 2594 3103 2138 3103 
Q 1681 3103 1420 2742 
Q 1159 2381 1159 1747 
Q 1159 1113 1420 752 
Q 1681 391 2138 391 
Q 2594 391 2855 752 
Q 3116 1113 3116 1747 
z
M 1159 2969 
Q 1341 3281 1617 3432 
Q 1894 3584 2278 3584 
Q 2916 3584 3314 3078 
Q 3713 2572 3713 1747 
Q 3713 922 3314 415 
Q 2916 -91 2278 -91 
Q 1894 -91 1617 61 
Q 1341 213 1159 525 
L 1159 0 
L 581 0 
L 581 4863 
L 1159 4863 
L 1159 2969 
z
" transform="scale(0.015625)"/>
      </defs>
      <use xlink:href="#DejaVuSans-4b"/>
      <use xlink:href="#DejaVuSans-6f" x="60.576172"/>
      <use xlink:href="#DejaVuSans-6e" x="121.757812"/>
      <use xlink:href="#DejaVuSans-64" x="185.136719"/>
      <use xlink:href="#DejaVuSans-65" x="248.613281"/>
      <use xlink:href="#DejaVuSans-6e" x="310.136719"/>
      <use xlink:href="#DejaVuSans-73" x="373.515625"/>
      <use xlink:href="#DejaVuSans-61" x="425.615234"/>
      <use xlink:href="#DejaVuSans-74" x="486.894531"/>
      <use xlink:href="#DejaVuSans-6f" x="526.103516"/>
      <use xlink:href="#DejaVuSans-72" x="587.285156"/>
      <use xlink:href="#DejaVuSans-64" x="626.648438"/>
      <use xlink:href="#DejaVuSans-72" x="690.125"/>
      <use xlink:href="#DejaVuSans-75" x="731.238281"/>
      <use xlink:href="#DejaVuSans-63" x="794.617188"/>
      <use xlink:href="#DejaVuSans-6b" x="849.597656"/>
      <use xlink:href="#DejaVuSans-20" x="907.507812"/>
      <use xlink:href="#DejaVuSans-69" x="939.294922"/>
      <use xlink:href="#DejaVuSans-6e" x="967.078125"/>
      <use xlink:href="#DejaVuSans-20" x="1030.457031"/>
      <use xlink:href="#DejaVuSans-62" x="1062.244141"/>
      <use xlink:href="#DejaVuSans-61" x="1125.720703"/>
      <use xlink:href="#DejaVuSans-72" x="1187"/>
     </g>
    </g>
   </g>
   <g id="matplotlib.axis_2">
    <g id="ytick_1">
     <g id="line2d_6">
      <defs>
       <path id="mb1562e8792" d="M 0 0 
L -3.5 0 
" style="stroke: #000000; stroke-width: 0.8"/>
      </defs>
      <g>
       <use xlink:href="#mb1562e8792" x="172.8" y="642.894413" style="stroke: #000000; stroke-width: 0.8"/>
      </g>
     </g>
     <g id="text_7">
      <!-- 0.0 -->
      <g transform="translate(137.174375 649.733007) scale(0.18 -0.18)">
       <defs>
        <path id="DejaVuSans-2e" d="M 684 794 
L 1344 794 
L 1344 0 
L 684 0 
L 684 794 
z
" transform="scale(0.015625)"/>
       </defs>
       <use xlink:href="#DejaVuSans-30"/>
       <use xlink:href="#DejaVuSans-2e" x="63.623047"/>
       <use xlink:href="#DejaVuSans-30" x="95.410156"/>
      </g>
     </g>
    </g>
    <g id="ytick_2">
     <g id="line2d_7">
      <g>
       <use xlink:href="#mb1562e8792" x="172.8" y="566.453513" style="stroke: #000000; stroke-width: 0.8"/>
      </g>
     </g>
     <g id="text_8">
      <!-- 0.2 -->
      <g transform="translate(137.174375 573.292107) scale(0.18 -0.18)">
       <use xlink:href="#DejaVuSans-30"/>
       <use xlink:href="#DejaVuSans-2e" x="63.623047"/>
       <use xlink:href="#DejaVuSans-32" x="95.410156"/>
      </g>
     </g>
    </g>
    <g id="ytick_3">
     <g id="line2d_8">
      <g>
       <use xlink:href="#mb1562e8792" x="172.8" y="490.012613" style="stroke: #000000; stroke-width: 0.8"/>
      </g>
     </g>
     <g id="text_9">
      <!-- 0.4 -->
      <g transform="translate(137.174375 496.851206) scale(0.18 -0.18)">
       <use xlink:href="#DejaVuSans-30"/>
       <use xlink:href="#DejaVuSans-2e" x="63.623047"/>
       <use xlink:href="#DejaVuSans-34" x="95.410156"/>
      </g>
     </g>
    </g>
    <g id="ytick_4">
     <g id="line2d_9">
      <g>
       <use xlink:href="#mb1562e8792" x="172.8" y="413.571712" style="stroke: #000000; stroke-width: 0.8"/>
      </g>
     </g>
     <g id="text_10">
      <!-- 0.6 -->
      <g transform="translate(137.174375 420.410306) scale(0.18 -0.18)">
       <use xlink:href="#DejaVuSans-30"/>
       <use xlink:href="#DejaVuSans-2e" x="63.623047"/>
       <use xlink:href="#DejaVuSans-36" x="95.410156"/>
      </g>
     </g>
    </g>
    <g id="ytick_5">
     <g id="line2d_10">
      <g>
       <use xlink:href="#mb1562e8792" x="172.8" y="337.130812" style="stroke: #000000; stroke-width: 0.8"/>
      </g>
     </g>
     <g id="text_11">
      <!-- 0.8 -->
      <g transform="translate(137.174375 343.969406) scale(0.18 -0.18)">
       <use xlink:href="#DejaVuSans-30"/>
       <use xlink:href="#DejaVuSans-2e" x="63.623047"/>
       <use xlink:href="#DejaVuSans-38" x="95.410156"/>
      </g>
     </g>
    </g>
    <g id="ytick_6">
     <g id="line2d_11">
      <g>
       <use xlink:href="#mb1562e8792" x="172.8" y="260.689912" style="stroke: #000000; stroke-width: 0.8"/>
      </g>
     </g>
     <g id="text_12">
      <!-- 1.0 -->
      <g transform="translate(137.174375 267.528506) scale(0.18 -0.18)">
       <defs>
        <path id="DejaVuSans-31" d="M 794 531 
L 1825 531 
L 1825 4091 
L 703 3866 
L 703 4441 
L 1819 4666 
L 2450 4666 
L 2450 531 
L 3481 531 
L 3481 0 
L 794 0 
L 794 531 
z
" transform="scale(0.015625)"/>
       </defs>
       <use xlink:href="#DejaVuSans-31"/>
       <use xlink:href="#DejaVuSans-2e" x="63.623047"/>
       <use xlink:href="#DejaVuSans-30" x="95.410156"/>
      </g>
     </g>
    </g>
    <g id="ytick_7">
     <g id="line2d_12">
      <g>
       <use xlink:href="#mb1562e8792" x="172.8" y="184.249011" style="stroke: #000000; stroke-width: 0.8"/>
      </g>
     </g>
     <g id="text_13">
      <!-- 1.2 -->
      <g transform="translate(137.174375 191.087605) scale(0.18 -0.18)">
       <use xlink:href="#DejaVuSans-31"/>
       <use xlink:href="#DejaVuSans-2e" x="63.623047"/>
       <use xlink:href="#DejaVuSans-32" x="95.410156"/>
      </g>
     </g>
    </g>
    <g id="ytick_8">
     <g id="line2d_13">
      <g>
       <use xlink:href="#mb1562e8792" x="172.8" y="107.808111" style="stroke: #000000; stroke-width: 0.8"/>
      </g>
     </g>
     <g id="text_14">
      <!-- 1.4 -->
      <g transform="translate(137.174375 114.646705) scale(0.18 -0.18)">
       <use xlink:href="#DejaVuSans-31"/>
       <use xlink:href="#DejaVuSans-2e" x="63.623047"/>
       <use xlink:href="#DejaVuSans-34" x="95.410156"/>
      </g>
     </g>
    </g>
    <g id="text_15">
     <!-- Exergievernichtung in MW -->
     <g transform="translate(129.430937 487.119938) rotate(-90) scale(0.18 -0.18)">
      <defs>
       <path id="DejaVuSans-45" d="M 628 4666 
L 3578 4666 
L 3578 4134 
L 1259 4134 
L 1259 2753 
L 3481 2753 
L 3481 2222 
L 1259 2222 
L 1259 531 
L 3634 531 
L 3634 0 
L 628 0 
L 628 4666 
z
" transform="scale(0.015625)"/>
       <path id="DejaVuSans-78" d="M 3513 3500 
L 2247 1797 
L 3578 0 
L 2900 0 
L 1881 1375 
L 863 0 
L 184 0 
L 1544 1831 
L 300 3500 
L 978 3500 
L 1906 2253 
L 2834 3500 
L 3513 3500 
z
" transform="scale(0.015625)"/>
       <path id="DejaVuSans-67" d="M 2906 1791 
Q 2906 2416 2648 2759 
Q 2391 3103 1925 3103 
Q 1463 3103 1205 2759 
Q 947 2416 947 1791 
Q 947 1169 1205 825 
Q 1463 481 1925 481 
Q 2391 481 2648 825 
Q 2906 1169 2906 1791 
z
M 3481 434 
Q 3481 -459 3084 -895 
Q 2688 -1331 1869 -1331 
Q 1566 -1331 1297 -1286 
Q 1028 -1241 775 -1147 
L 775 -588 
Q 1028 -725 1275 -790 
Q 1522 -856 1778 -856 
Q 2344 -856 2625 -561 
Q 2906 -266 2906 331 
L 2906 616 
Q 2728 306 2450 153 
Q 2172 0 1784 0 
Q 1141 0 747 490 
Q 353 981 353 1791 
Q 353 2603 747 3093 
Q 1141 3584 1784 3584 
Q 2172 3584 2450 3431 
Q 2728 3278 2906 2969 
L 2906 3500 
L 3481 3500 
L 3481 434 
z
" transform="scale(0.015625)"/>
       <path id="DejaVuSans-76" d="M 191 3500 
L 800 3500 
L 1894 563 
L 2988 3500 
L 3597 3500 
L 2284 0 
L 1503 0 
L 191 3500 
z
" transform="scale(0.015625)"/>
       <path id="DejaVuSans-68" d="M 3513 2113 
L 3513 0 
L 2938 0 
L 2938 2094 
Q 2938 2591 2744 2837 
Q 2550 3084 2163 3084 
Q 1697 3084 1428 2787 
Q 1159 2491 1159 1978 
L 1159 0 
L 581 0 
L 581 4863 
L 1159 4863 
L 1159 2956 
Q 1366 3272 1645 3428 
Q 1925 3584 2291 3584 
Q 2894 3584 3203 3211 
Q 3513 2838 3513 2113 
z
" transform="scale(0.015625)"/>
       <path id="DejaVuSans-4d" d="M 628 4666 
L 1569 4666 
L 2759 1491 
L 3956 4666 
L 4897 4666 
L 4897 0 
L 4281 0 
L 4281 4097 
L 3078 897 
L 2444 897 
L 1241 4097 
L 1241 0 
L 628 0 
L 628 4666 
z
" transform="scale(0.015625)"/>
       <path id="DejaVuSans-57" d="M 213 4666 
L 850 4666 
L 1831 722 
L 2809 4666 
L 3519 4666 
L 4500 722 
L 5478 4666 
L 6119 4666 
L 4947 0 
L 4153 0 
L 3169 4050 
L 2175 0 
L 1381 0 
L 213 4666 
z
" transform="scale(0.015625)"/>
      </defs>
      <use xlink:href="#DejaVuSans-45"/>
      <use xlink:href="#DejaVuSans-78" x="63.183594"/>
      <use xlink:href="#DejaVuSans-65" x="119.238281"/>
      <use xlink:href="#DejaVuSans-72" x="180.761719"/>
      <use xlink:href="#DejaVuSans-67" x="220.125"/>
      <use xlink:href="#DejaVuSans-69" x="283.601562"/>
      <use xlink:href="#DejaVuSans-65" x="311.384766"/>
      <use xlink:href="#DejaVuSans-76" x="372.908203"/>
      <use xlink:href="#DejaVuSans-65" x="432.087891"/>
      <use xlink:href="#DejaVuSans-72" x="493.611328"/>
      <use xlink:href="#DejaVuSans-6e" x="532.974609"/>
      <use xlink:href="#DejaVuSans-69" x="596.353516"/>
      <use xlink:href="#DejaVuSans-63" x="624.136719"/>
      <use xlink:href="#DejaVuSans-68" x="679.117188"/>
      <use xlink:href="#DejaVuSans-74" x="742.496094"/>
      <use xlink:href="#DejaVuSans-75" x="781.705078"/>
      <use xlink:href="#DejaVuSans-6e" x="845.083984"/>
      <use xlink:href="#DejaVuSans-67" x="908.462891"/>
      <use xlink:href="#DejaVuSans-20" x="971.939453"/>
      <use xlink:href="#DejaVuSans-69" x="1003.726562"/>
      <use xlink:href="#DejaVuSans-6e" x="1031.509766"/>
      <use xlink:href="#DejaVuSans-20" x="1094.888672"/>
      <use xlink:href="#DejaVuSans-4d" x="1126.675781"/>
      <use xlink:href="#DejaVuSans-57" x="1212.955078"/>
     </g>
    </g>
   </g>
   <g id="patch_183">
    <path d="M 172.8 650.412 
L 172.8 87.696 
" style="fill: none; stroke: #000000; stroke-width: 0.8; stroke-linejoin: miter; stroke-linecap: square"/>
   </g>
   <g id="patch_184">
    <path d="M 1244.16 650.412 
L 1244.16 87.696 
" style="fill: none; stroke: #000000; stroke-width: 0.8; stroke-linejoin: miter; stroke-linecap: square"/>
   </g>
   <g id="patch_185">
    <path d="M 172.8 650.412 
L 1244.16 650.412 
" style="fill: none; stroke: #000000; stroke-width: 0.8; stroke-linejoin: miter; stroke-linecap: square"/>
   </g>
   <g id="patch_186">
    <path d="M 172.8 87.696 
L 1244.16 87.696 
" style="fill: none; stroke: #000000; stroke-width: 0.8; stroke-linejoin: miter; stroke-linecap: square"/>
   </g>
   <g id="legend_1">
    <g id="patch_187">
     <path d="M 937.915312 641.412 
L 1231.56 641.412 
Q 1235.16 641.412 1235.16 637.812 
L 1235.16 401.826375 
Q 1235.16 398.226375 1231.56 398.226375 
L 937.915312 398.226375 
Q 934.315312 398.226375 934.315312 401.826375 
L 934.315312 637.812 
Q 934.315312 641.412 937.915312 641.412 
z
" style="fill: #ffffff; opacity: 0.8; stroke: #cccccc; stroke-linejoin: miter"/>
    </g>
    <g id="patch_188">
     <path d="M 941.515312 419.103563 
L 977.515312 419.103563 
L 977.515312 406.503563 
L 941.515312 406.503563 
z
" style="fill: #1f77b4"/>
    </g>
    <g id="text_16">
     <!-- Gas cooler -->
     <g transform="translate(991.915312 419.103563) scale(0.18 -0.18)">
      <defs>
       <path id="DejaVuSans-47" d="M 3809 666 
L 3809 1919 
L 2778 1919 
L 2778 2438 
L 4434 2438 
L 4434 434 
Q 4069 175 3628 42 
Q 3188 -91 2688 -91 
Q 1594 -91 976 548 
Q 359 1188 359 2328 
Q 359 3472 976 4111 
Q 1594 4750 2688 4750 
Q 3144 4750 3555 4637 
Q 3966 4525 4313 4306 
L 4313 3634 
Q 3963 3931 3569 4081 
Q 3175 4231 2741 4231 
Q 1884 4231 1454 3753 
Q 1025 3275 1025 2328 
Q 1025 1384 1454 906 
Q 1884 428 2741 428 
Q 3075 428 3337 486 
Q 3600 544 3809 666 
z
" transform="scale(0.015625)"/>
       <path id="DejaVuSans-6c" d="M 603 4863 
L 1178 4863 
L 1178 0 
L 603 0 
L 603 4863 
z
" transform="scale(0.015625)"/>
      </defs>
      <use xlink:href="#DejaVuSans-47"/>
      <use xlink:href="#DejaVuSans-61" x="77.490234"/>
      <use xlink:href="#DejaVuSans-73" x="138.769531"/>
      <use xlink:href="#DejaVuSans-20" x="190.869141"/>
      <use xlink:href="#DejaVuSans-63" x="222.65625"/>
      <use xlink:href="#DejaVuSans-6f" x="277.636719"/>
      <use xlink:href="#DejaVuSans-6f" x="338.818359"/>
      <use xlink:href="#DejaVuSans-6c" x="400"/>
      <use xlink:href="#DejaVuSans-65" x="427.783203"/>
      <use xlink:href="#DejaVuSans-72" x="489.306641"/>
     </g>
    </g>
    <g id="patch_189">
     <path d="M 941.515312 445.524188 
L 977.515312 445.524188 
L 977.515312 432.924188 
L 941.515312 432.924188 
z
" style="fill: #ff7f0e"/>
    </g>
    <g id="text_17">
     <!-- Evaporator -->
     <g transform="translate(991.915312 445.524188) scale(0.18 -0.18)">
      <defs>
       <path id="DejaVuSans-70" d="M 1159 525 
L 1159 -1331 
L 581 -1331 
L 581 3500 
L 1159 3500 
L 1159 2969 
Q 1341 3281 1617 3432 
Q 1894 3584 2278 3584 
Q 2916 3584 3314 3078 
Q 3713 2572 3713 1747 
Q 3713 922 3314 415 
Q 2916 -91 2278 -91 
Q 1894 -91 1617 61 
Q 1341 213 1159 525 
z
M 3116 1747 
Q 3116 2381 2855 2742 
Q 2594 3103 2138 3103 
Q 1681 3103 1420 2742 
Q 1159 2381 1159 1747 
Q 1159 1113 1420 752 
Q 1681 391 2138 391 
Q 2594 391 2855 752 
Q 3116 1113 3116 1747 
z
" transform="scale(0.015625)"/>
      </defs>
      <use xlink:href="#DejaVuSans-45"/>
      <use xlink:href="#DejaVuSans-76" x="63.183594"/>
      <use xlink:href="#DejaVuSans-61" x="122.363281"/>
      <use xlink:href="#DejaVuSans-70" x="183.642578"/>
      <use xlink:href="#DejaVuSans-6f" x="247.119141"/>
      <use xlink:href="#DejaVuSans-72" x="308.300781"/>
      <use xlink:href="#DejaVuSans-61" x="349.414062"/>
      <use xlink:href="#DejaVuSans-74" x="410.693359"/>
      <use xlink:href="#DejaVuSans-6f" x="449.902344"/>
      <use xlink:href="#DejaVuSans-72" x="511.083984"/>
     </g>
    </g>
    <g id="patch_190">
     <path d="M 941.515312 471.944813 
L 977.515312 471.944813 
L 977.515312 459.344813 
L 941.515312 459.344813 
z
" style="fill: #2ca02c"/>
    </g>
    <g id="text_18">
     <!-- Valve 1 -->
     <g transform="translate(991.915312 471.944813) scale(0.18 -0.18)">
      <defs>
       <path id="DejaVuSans-56" d="M 1831 0 
L 50 4666 
L 709 4666 
L 2188 738 
L 3669 4666 
L 4325 4666 
L 2547 0 
L 1831 0 
z
" transform="scale(0.015625)"/>
      </defs>
      <use xlink:href="#DejaVuSans-56"/>
      <use xlink:href="#DejaVuSans-61" x="60.658203"/>
      <use xlink:href="#DejaVuSans-6c" x="121.9375"/>
      <use xlink:href="#DejaVuSans-76" x="149.720703"/>
      <use xlink:href="#DejaVuSans-65" x="208.900391"/>
      <use xlink:href="#DejaVuSans-20" x="270.423828"/>
      <use xlink:href="#DejaVuSans-31" x="302.210938"/>
     </g>
    </g>
    <g id="patch_191">
     <path d="M 941.515312 498.365438 
L 977.515312 498.365438 
L 977.515312 485.765438 
L 941.515312 485.765438 
z
" style="fill: #d62728"/>
    </g>
    <g id="text_19">
     <!-- Valve 2 -->
     <g transform="translate(991.915312 498.365438) scale(0.18 -0.18)">
      <use xlink:href="#DejaVuSans-56"/>
      <use xlink:href="#DejaVuSans-61" x="60.658203"/>
      <use xlink:href="#DejaVuSans-6c" x="121.9375"/>
      <use xlink:href="#DejaVuSans-76" x="149.720703"/>
      <use xlink:href="#DejaVuSans-65" x="208.900391"/>
      <use xlink:href="#DejaVuSans-20" x="270.423828"/>
      <use xlink:href="#DejaVuSans-32" x="302.210938"/>
     </g>
    </g>
    <g id="patch_192">
     <path d="M 941.515312 524.786063 
L 977.515312 524.786063 
L 977.515312 512.186063 
L 941.515312 512.186063 
z
" style="fill: #9467bd"/>
    </g>
    <g id="text_20">
     <!-- Compressor 1 -->
     <g transform="translate(991.915312 524.786063) scale(0.18 -0.18)">
      <defs>
       <path id="DejaVuSans-43" d="M 4122 4306 
L 4122 3641 
Q 3803 3938 3442 4084 
Q 3081 4231 2675 4231 
Q 1875 4231 1450 3742 
Q 1025 3253 1025 2328 
Q 1025 1406 1450 917 
Q 1875 428 2675 428 
Q 3081 428 3442 575 
Q 3803 722 4122 1019 
L 4122 359 
Q 3791 134 3420 21 
Q 3050 -91 2638 -91 
Q 1578 -91 968 557 
Q 359 1206 359 2328 
Q 359 3453 968 4101 
Q 1578 4750 2638 4750 
Q 3056 4750 3426 4639 
Q 3797 4528 4122 4306 
z
" transform="scale(0.015625)"/>
       <path id="DejaVuSans-6d" d="M 3328 2828 
Q 3544 3216 3844 3400 
Q 4144 3584 4550 3584 
Q 5097 3584 5394 3201 
Q 5691 2819 5691 2113 
L 5691 0 
L 5113 0 
L 5113 2094 
Q 5113 2597 4934 2840 
Q 4756 3084 4391 3084 
Q 3944 3084 3684 2787 
Q 3425 2491 3425 1978 
L 3425 0 
L 2847 0 
L 2847 2094 
Q 2847 2600 2669 2842 
Q 2491 3084 2119 3084 
Q 1678 3084 1418 2786 
Q 1159 2488 1159 1978 
L 1159 0 
L 581 0 
L 581 3500 
L 1159 3500 
L 1159 2956 
Q 1356 3278 1631 3431 
Q 1906 3584 2284 3584 
Q 2666 3584 2933 3390 
Q 3200 3197 3328 2828 
z
" transform="scale(0.015625)"/>
      </defs>
      <use xlink:href="#DejaVuSans-43"/>
      <use xlink:href="#DejaVuSans-6f" x="69.824219"/>
      <use xlink:href="#DejaVuSans-6d" x="131.005859"/>
      <use xlink:href="#DejaVuSans-70" x="228.417969"/>
      <use xlink:href="#DejaVuSans-72" x="291.894531"/>
      <use xlink:href="#DejaVuSans-65" x="330.757812"/>
      <use xlink:href="#DejaVuSans-73" x="392.28125"/>
      <use xlink:href="#DejaVuSans-73" x="444.380859"/>
      <use xlink:href="#DejaVuSans-6f" x="496.480469"/>
      <use xlink:href="#DejaVuSans-72" x="557.662109"/>
      <use xlink:href="#DejaVuSans-20" x="598.775391"/>
      <use xlink:href="#DejaVuSans-31" x="630.5625"/>
     </g>
    </g>
    <g id="patch_193">
     <path d="M 941.515312 551.206688 
L 977.515312 551.206688 
L 977.515312 538.606688 
L 941.515312 538.606688 
z
" style="fill: #8c564b"/>
    </g>
    <g id="text_21">
     <!-- Compressor 2 -->
     <g transform="translate(991.915312 551.206688) scale(0.18 -0.18)">
      <use xlink:href="#DejaVuSans-43"/>
      <use xlink:href="#DejaVuSans-6f" x="69.824219"/>
      <use xlink:href="#DejaVuSans-6d" x="131.005859"/>
      <use xlink:href="#DejaVuSans-70" x="228.417969"/>
      <use xlink:href="#DejaVuSans-72" x="291.894531"/>
      <use xlink:href="#DejaVuSans-65" x="330.757812"/>
      <use xlink:href="#DejaVuSans-73" x="392.28125"/>
      <use xlink:href="#DejaVuSans-73" x="444.380859"/>
      <use xlink:href="#DejaVuSans-6f" x="496.480469"/>
      <use xlink:href="#DejaVuSans-72" x="557.662109"/>
      <use xlink:href="#DejaVuSans-20" x="598.775391"/>
      <use xlink:href="#DejaVuSans-32" x="630.5625"/>
     </g>
    </g>
    <g id="patch_194">
     <path d="M 941.515312 577.627313 
L 977.515312 577.627313 
L 977.515312 565.027313 
L 941.515312 565.027313 
z
" style="fill: #e377c2"/>
    </g>
    <g id="text_22">
     <!-- Internal Heat Exchanger 1 -->
     <g transform="translate(991.915312 577.627313) scale(0.18 -0.18)">
      <defs>
       <path id="DejaVuSans-49" d="M 628 4666 
L 1259 4666 
L 1259 0 
L 628 0 
L 628 4666 
z
" transform="scale(0.015625)"/>
       <path id="DejaVuSans-48" d="M 628 4666 
L 1259 4666 
L 1259 2753 
L 3553 2753 
L 3553 4666 
L 4184 4666 
L 4184 0 
L 3553 0 
L 3553 2222 
L 1259 2222 
L 1259 0 
L 628 0 
L 628 4666 
z
" transform="scale(0.015625)"/>
      </defs>
      <use xlink:href="#DejaVuSans-49"/>
      <use xlink:href="#DejaVuSans-6e" x="29.492188"/>
      <use xlink:href="#DejaVuSans-74" x="92.871094"/>
      <use xlink:href="#DejaVuSans-65" x="132.080078"/>
      <use xlink:href="#DejaVuSans-72" x="193.603516"/>
      <use xlink:href="#DejaVuSans-6e" x="232.966797"/>
      <use xlink:href="#DejaVuSans-61" x="296.345703"/>
      <use xlink:href="#DejaVuSans-6c" x="357.625"/>
      <use xlink:href="#DejaVuSans-20" x="385.408203"/>
      <use xlink:href="#DejaVuSans-48" x="417.195312"/>
      <use xlink:href="#DejaVuSans-65" x="492.390625"/>
      <use xlink:href="#DejaVuSans-61" x="553.914062"/>
      <use xlink:href="#DejaVuSans-74" x="615.193359"/>
      <use xlink:href="#DejaVuSans-20" x="654.402344"/>
      <use xlink:href="#DejaVuSans-45" x="686.189453"/>
      <use xlink:href="#DejaVuSans-78" x="749.373047"/>
      <use xlink:href="#DejaVuSans-63" x="806.802734"/>
      <use xlink:href="#DejaVuSans-68" x="861.783203"/>
      <use xlink:href="#DejaVuSans-61" x="925.162109"/>
      <use xlink:href="#DejaVuSans-6e" x="986.441406"/>
      <use xlink:href="#DejaVuSans-67" x="1049.820312"/>
      <use xlink:href="#DejaVuSans-65" x="1113.296875"/>
      <use xlink:href="#DejaVuSans-72" x="1174.820312"/>
      <use xlink:href="#DejaVuSans-20" x="1215.933594"/>
      <use xlink:href="#DejaVuSans-31" x="1247.720703"/>
     </g>
    </g>
    <g id="patch_195">
     <path d="M 941.515312 604.047938 
L 977.515312 604.047938 
L 977.515312 591.447938 
L 941.515312 591.447938 
z
" style="fill: #7f7f7f"/>
    </g>
    <g id="text_23">
     <!-- Internal Heat Exchanger 2 -->
     <g transform="translate(991.915312 604.047938) scale(0.18 -0.18)">
      <use xlink:href="#DejaVuSans-49"/>
      <use xlink:href="#DejaVuSans-6e" x="29.492188"/>
      <use xlink:href="#DejaVuSans-74" x="92.871094"/>
      <use xlink:href="#DejaVuSans-65" x="132.080078"/>
      <use xlink:href="#DejaVuSans-72" x="193.603516"/>
      <use xlink:href="#DejaVuSans-6e" x="232.966797"/>
      <use xlink:href="#DejaVuSans-61" x="296.345703"/>
      <use xlink:href="#DejaVuSans-6c" x="357.625"/>
      <use xlink:href="#DejaVuSans-20" x="385.408203"/>
      <use xlink:href="#DejaVuSans-48" x="417.195312"/>
      <use xlink:href="#DejaVuSans-65" x="492.390625"/>
      <use xlink:href="#DejaVuSans-61" x="553.914062"/>
      <use xlink:href="#DejaVuSans-74" x="615.193359"/>
      <use xlink:href="#DejaVuSans-20" x="654.402344"/>
      <use xlink:href="#DejaVuSans-45" x="686.189453"/>
      <use xlink:href="#DejaVuSans-78" x="749.373047"/>
      <use xlink:href="#DejaVuSans-63" x="806.802734"/>
      <use xlink:href="#DejaVuSans-68" x="861.783203"/>
      <use xlink:href="#DejaVuSans-61" x="925.162109"/>
      <use xlink:href="#DejaVuSans-6e" x="986.441406"/>
      <use xlink:href="#DejaVuSans-67" x="1049.820312"/>
      <use xlink:href="#DejaVuSans-65" x="1113.296875"/>
      <use xlink:href="#DejaVuSans-72" x="1174.820312"/>
      <use xlink:href="#DejaVuSans-20" x="1215.933594"/>
      <use xlink:href="#DejaVuSans-32" x="1247.720703"/>
     </g>
    </g>
    <g id="patch_196">
     <path d="M 941.515312 630.468563 
L 977.515312 630.468563 
L 977.515312 617.868563 
L 941.515312 617.868563 
z
" style="fill: #bcbd22"/>
    </g>
    <g id="text_24">
     <!-- Merge -->
     <g transform="translate(991.915312 630.468563) scale(0.18 -0.18)">
      <use xlink:href="#DejaVuSans-4d"/>
      <use xlink:href="#DejaVuSans-65" x="86.279297"/>
      <use xlink:href="#DejaVuSans-72" x="147.802734"/>
      <use xlink:href="#DejaVuSans-67" x="187.166016"/>
      <use xlink:href="#DejaVuSans-65" x="250.642578"/>
     </g>
    </g>
   </g>
  </g>
 </g>
 <defs>
  <clipPath id="p0dd5613c84">
   <rect x="172.8" y="87.696" width="1071.36" height="562.716"/>
  </clipPath>
 </defs>
</svg>
