<?xml version="1.0" encoding="utf-8" standalone="no"?>
<!DOCTYPE svg PUBLIC "-//W3C//DTD SVG 1.1//EN"
  "http://www.w3.org/Graphics/SVG/1.1/DTD/svg11.dtd">
<svg xmlns:xlink="http://www.w3.org/1999/xlink" width="1440pt" height="936pt" viewBox="0 0 1440 936" xmlns="http://www.w3.org/2000/svg" version="1.1">
 <metadata>
  <rdf:RDF xmlns:dc="http://purl.org/dc/elements/1.1/" xmlns:cc="http://creativecommons.org/ns#" xmlns:rdf="http://www.w3.org/1999/02/22-rdf-syntax-ns#">
   <cc:Work>
    <dc:type rdf:resource="http://purl.org/dc/dcmitype/StillImage"/>
    <dc:date>2023-05-16T19:29:57.151026</dc:date>
    <dc:format>image/svg+xml</dc:format>
    <dc:creator>
     <cc:Agent>
      <dc:title>Matplotlib v3.6.1, https://matplotlib.org/</dc:title>
     </cc:Agent>
    </dc:creator>
   </cc:Work>
  </rdf:RDF>
 </metadata>
 <defs>
  <style type="text/css">*{stroke-linejoin: round; stroke-linecap: butt}</style>
 </defs>
 <g id="figure_1">
  <g id="patch_1">
   <path d="M 0 936 
L 1440 936 
L 1440 0 
L 0 0 
z
" style="fill: #ffffff"/>
  </g>
  <g id="axes_1">
   <g id="patch_2">
    <path d="M 180 833.04 
L 1296 833.04 
L 1296 112.32 
L 180 112.32 
z
" style="fill: #ffffff"/>
   </g>
   <g id="matplotlib.axis_1">
    <g id="xtick_1">
     <g id="line2d_1">
      <path d="M 180 833.04 
L 180 112.32 
" clip-path="url(#ped30410063)" style="fill: none; stroke: #b0b0b0; stroke-width: 0.8; stroke-linecap: square"/>
     </g>
     <g id="line2d_2">
      <defs>
       <path id="mc3f5213341" d="M 0 0 
L 0 3.5 
" style="stroke: #000000; stroke-width: 0.8"/>
      </defs>
      <g>
       <use xlink:href="#mc3f5213341" x="180" y="833.04" style="stroke: #000000; stroke-width: 0.8"/>
      </g>
     </g>
     <g id="text_1">
      <!-- 30 -->
      <g transform="translate(167.275 855.236875) scale(0.2 -0.2)">
       <defs>
        <path id="DejaVuSans-33" d="M 2597 2516 
Q 3050 2419 3304 2112 
Q 3559 1806 3559 1356 
Q 3559 666 3084 287 
Q 2609 -91 1734 -91 
Q 1441 -91 1130 -33 
Q 819 25 488 141 
L 488 750 
Q 750 597 1062 519 
Q 1375 441 1716 441 
Q 2309 441 2620 675 
Q 2931 909 2931 1356 
Q 2931 1769 2642 2001 
Q 2353 2234 1838 2234 
L 1294 2234 
L 1294 2753 
L 1863 2753 
Q 2328 2753 2575 2939 
Q 2822 3125 2822 3475 
Q 2822 3834 2567 4026 
Q 2313 4219 1838 4219 
Q 1578 4219 1281 4162 
Q 984 4106 628 3988 
L 628 4550 
Q 988 4650 1302 4700 
Q 1616 4750 1894 4750 
Q 2613 4750 3031 4423 
Q 3450 4097 3450 3541 
Q 3450 3153 3228 2886 
Q 3006 2619 2597 2516 
z
" transform="scale(0.015625)"/>
        <path id="DejaVuSans-30" d="M 2034 4250 
Q 1547 4250 1301 3770 
Q 1056 3291 1056 2328 
Q 1056 1369 1301 889 
Q 1547 409 2034 409 
Q 2525 409 2770 889 
Q 3016 1369 3016 2328 
Q 3016 3291 2770 3770 
Q 2525 4250 2034 4250 
z
M 2034 4750 
Q 2819 4750 3233 4129 
Q 3647 3509 3647 2328 
Q 3647 1150 3233 529 
Q 2819 -91 2034 -91 
Q 1250 -91 836 529 
Q 422 1150 422 2328 
Q 422 3509 836 4129 
Q 1250 4750 2034 4750 
z
" transform="scale(0.015625)"/>
       </defs>
       <use xlink:href="#DejaVuSans-33"/>
       <use xlink:href="#DejaVuSans-30" x="63.623047"/>
      </g>
     </g>
    </g>
    <g id="xtick_2">
     <g id="line2d_3">
      <path d="M 328.8 833.04 
L 328.8 112.32 
" clip-path="url(#ped30410063)" style="fill: none; stroke: #b0b0b0; stroke-width: 0.8; stroke-linecap: square"/>
     </g>
     <g id="line2d_4">
      <g>
       <use xlink:href="#mc3f5213341" x="328.8" y="833.04" style="stroke: #000000; stroke-width: 0.8"/>
      </g>
     </g>
     <g id="text_2">
      <!-- 32 -->
      <g transform="translate(316.075 855.236875) scale(0.2 -0.2)">
       <defs>
        <path id="DejaVuSans-32" d="M 1228 531 
L 3431 531 
L 3431 0 
L 469 0 
L 469 531 
Q 828 903 1448 1529 
Q 2069 2156 2228 2338 
Q 2531 2678 2651 2914 
Q 2772 3150 2772 3378 
Q 2772 3750 2511 3984 
Q 2250 4219 1831 4219 
Q 1534 4219 1204 4116 
Q 875 4013 500 3803 
L 500 4441 
Q 881 4594 1212 4672 
Q 1544 4750 1819 4750 
Q 2544 4750 2975 4387 
Q 3406 4025 3406 3419 
Q 3406 3131 3298 2873 
Q 3191 2616 2906 2266 
Q 2828 2175 2409 1742 
Q 1991 1309 1228 531 
z
" transform="scale(0.015625)"/>
       </defs>
       <use xlink:href="#DejaVuSans-33"/>
       <use xlink:href="#DejaVuSans-32" x="63.623047"/>
      </g>
     </g>
    </g>
    <g id="xtick_3">
     <g id="line2d_5">
      <path d="M 477.6 833.04 
L 477.6 112.32 
" clip-path="url(#ped30410063)" style="fill: none; stroke: #b0b0b0; stroke-width: 0.8; stroke-linecap: square"/>
     </g>
     <g id="line2d_6">
      <g>
       <use xlink:href="#mc3f5213341" x="477.6" y="833.04" style="stroke: #000000; stroke-width: 0.8"/>
      </g>
     </g>
     <g id="text_3">
      <!-- 34 -->
      <g transform="translate(464.875 855.236875) scale(0.2 -0.2)">
       <defs>
        <path id="DejaVuSans-34" d="M 2419 4116 
L 825 1625 
L 2419 1625 
L 2419 4116 
z
M 2253 4666 
L 3047 4666 
L 3047 1625 
L 3713 1625 
L 3713 1100 
L 3047 1100 
L 3047 0 
L 2419 0 
L 2419 1100 
L 313 1100 
L 313 1709 
L 2253 4666 
z
" transform="scale(0.015625)"/>
       </defs>
       <use xlink:href="#DejaVuSans-33"/>
       <use xlink:href="#DejaVuSans-34" x="63.623047"/>
      </g>
     </g>
    </g>
    <g id="xtick_4">
     <g id="line2d_7">
      <path d="M 626.4 833.04 
L 626.4 112.32 
" clip-path="url(#ped30410063)" style="fill: none; stroke: #b0b0b0; stroke-width: 0.8; stroke-linecap: square"/>
     </g>
     <g id="line2d_8">
      <g>
       <use xlink:href="#mc3f5213341" x="626.4" y="833.04" style="stroke: #000000; stroke-width: 0.8"/>
      </g>
     </g>
     <g id="text_4">
      <!-- 36 -->
      <g transform="translate(613.675 855.236875) scale(0.2 -0.2)">
       <defs>
        <path id="DejaVuSans-36" d="M 2113 2584 
Q 1688 2584 1439 2293 
Q 1191 2003 1191 1497 
Q 1191 994 1439 701 
Q 1688 409 2113 409 
Q 2538 409 2786 701 
Q 3034 994 3034 1497 
Q 3034 2003 2786 2293 
Q 2538 2584 2113 2584 
z
M 3366 4563 
L 3366 3988 
Q 3128 4100 2886 4159 
Q 2644 4219 2406 4219 
Q 1781 4219 1451 3797 
Q 1122 3375 1075 2522 
Q 1259 2794 1537 2939 
Q 1816 3084 2150 3084 
Q 2853 3084 3261 2657 
Q 3669 2231 3669 1497 
Q 3669 778 3244 343 
Q 2819 -91 2113 -91 
Q 1303 -91 875 529 
Q 447 1150 447 2328 
Q 447 3434 972 4092 
Q 1497 4750 2381 4750 
Q 2619 4750 2861 4703 
Q 3103 4656 3366 4563 
z
" transform="scale(0.015625)"/>
       </defs>
       <use xlink:href="#DejaVuSans-33"/>
       <use xlink:href="#DejaVuSans-36" x="63.623047"/>
      </g>
     </g>
    </g>
    <g id="xtick_5">
     <g id="line2d_9">
      <path d="M 775.2 833.04 
L 775.2 112.32 
" clip-path="url(#ped30410063)" style="fill: none; stroke: #b0b0b0; stroke-width: 0.8; stroke-linecap: square"/>
     </g>
     <g id="line2d_10">
      <g>
       <use xlink:href="#mc3f5213341" x="775.2" y="833.04" style="stroke: #000000; stroke-width: 0.8"/>
      </g>
     </g>
     <g id="text_5">
      <!-- 38 -->
      <g transform="translate(762.475 855.236875) scale(0.2 -0.2)">
       <defs>
        <path id="DejaVuSans-38" d="M 2034 2216 
Q 1584 2216 1326 1975 
Q 1069 1734 1069 1313 
Q 1069 891 1326 650 
Q 1584 409 2034 409 
Q 2484 409 2743 651 
Q 3003 894 3003 1313 
Q 3003 1734 2745 1975 
Q 2488 2216 2034 2216 
z
M 1403 2484 
Q 997 2584 770 2862 
Q 544 3141 544 3541 
Q 544 4100 942 4425 
Q 1341 4750 2034 4750 
Q 2731 4750 3128 4425 
Q 3525 4100 3525 3541 
Q 3525 3141 3298 2862 
Q 3072 2584 2669 2484 
Q 3125 2378 3379 2068 
Q 3634 1759 3634 1313 
Q 3634 634 3220 271 
Q 2806 -91 2034 -91 
Q 1263 -91 848 271 
Q 434 634 434 1313 
Q 434 1759 690 2068 
Q 947 2378 1403 2484 
z
M 1172 3481 
Q 1172 3119 1398 2916 
Q 1625 2713 2034 2713 
Q 2441 2713 2670 2916 
Q 2900 3119 2900 3481 
Q 2900 3844 2670 4047 
Q 2441 4250 2034 4250 
Q 1625 4250 1398 4047 
Q 1172 3844 1172 3481 
z
" transform="scale(0.015625)"/>
       </defs>
       <use xlink:href="#DejaVuSans-33"/>
       <use xlink:href="#DejaVuSans-38" x="63.623047"/>
      </g>
     </g>
    </g>
    <g id="xtick_6">
     <g id="line2d_11">
      <path d="M 924 833.04 
L 924 112.32 
" clip-path="url(#ped30410063)" style="fill: none; stroke: #b0b0b0; stroke-width: 0.8; stroke-linecap: square"/>
     </g>
     <g id="line2d_12">
      <g>
       <use xlink:href="#mc3f5213341" x="924" y="833.04" style="stroke: #000000; stroke-width: 0.8"/>
      </g>
     </g>
     <g id="text_6">
      <!-- 40 -->
      <g transform="translate(911.275 855.236875) scale(0.2 -0.2)">
       <use xlink:href="#DejaVuSans-34"/>
       <use xlink:href="#DejaVuSans-30" x="63.623047"/>
      </g>
     </g>
    </g>
    <g id="xtick_7">
     <g id="line2d_13">
      <path d="M 1072.8 833.04 
L 1072.8 112.32 
" clip-path="url(#ped30410063)" style="fill: none; stroke: #b0b0b0; stroke-width: 0.8; stroke-linecap: square"/>
     </g>
     <g id="line2d_14">
      <g>
       <use xlink:href="#mc3f5213341" x="1072.8" y="833.04" style="stroke: #000000; stroke-width: 0.8"/>
      </g>
     </g>
     <g id="text_7">
      <!-- 42 -->
      <g transform="translate(1060.075 855.236875) scale(0.2 -0.2)">
       <use xlink:href="#DejaVuSans-34"/>
       <use xlink:href="#DejaVuSans-32" x="63.623047"/>
      </g>
     </g>
    </g>
    <g id="xtick_8">
     <g id="line2d_15">
      <path d="M 1221.6 833.04 
L 1221.6 112.32 
" clip-path="url(#ped30410063)" style="fill: none; stroke: #b0b0b0; stroke-width: 0.8; stroke-linecap: square"/>
     </g>
     <g id="line2d_16">
      <g>
       <use xlink:href="#mc3f5213341" x="1221.6" y="833.04" style="stroke: #000000; stroke-width: 0.8"/>
      </g>
     </g>
     <g id="text_8">
      <!-- 44 -->
      <g transform="translate(1208.875 855.236875) scale(0.2 -0.2)">
       <use xlink:href="#DejaVuSans-34"/>
       <use xlink:href="#DejaVuSans-34" x="63.623047"/>
      </g>
     </g>
    </g>
    <g id="text_9">
     <!-- Gaskühlerdruck in bar -->
     <g transform="translate(627.748438 878.593125) scale(0.2 -0.2)">
      <defs>
       <path id="DejaVuSans-47" d="M 3809 666 
L 3809 1919 
L 2778 1919 
L 2778 2438 
L 4434 2438 
L 4434 434 
Q 4069 175 3628 42 
Q 3188 -91 2688 -91 
Q 1594 -91 976 548 
Q 359 1188 359 2328 
Q 359 3472 976 4111 
Q 1594 4750 2688 4750 
Q 3144 4750 3555 4637 
Q 3966 4525 4313 4306 
L 4313 3634 
Q 3963 3931 3569 4081 
Q 3175 4231 2741 4231 
Q 1884 4231 1454 3753 
Q 1025 3275 1025 2328 
Q 1025 1384 1454 906 
Q 1884 428 2741 428 
Q 3075 428 3337 486 
Q 3600 544 3809 666 
z
" transform="scale(0.015625)"/>
       <path id="DejaVuSans-61" d="M 2194 1759 
Q 1497 1759 1228 1600 
Q 959 1441 959 1056 
Q 959 750 1161 570 
Q 1363 391 1709 391 
Q 2188 391 2477 730 
Q 2766 1069 2766 1631 
L 2766 1759 
L 2194 1759 
z
M 3341 1997 
L 3341 0 
L 2766 0 
L 2766 531 
Q 2569 213 2275 61 
Q 1981 -91 1556 -91 
Q 1019 -91 701 211 
Q 384 513 384 1019 
Q 384 1609 779 1909 
Q 1175 2209 1959 2209 
L 2766 2209 
L 2766 2266 
Q 2766 2663 2505 2880 
Q 2244 3097 1772 3097 
Q 1472 3097 1187 3025 
Q 903 2953 641 2809 
L 641 3341 
Q 956 3463 1253 3523 
Q 1550 3584 1831 3584 
Q 2591 3584 2966 3190 
Q 3341 2797 3341 1997 
z
" transform="scale(0.015625)"/>
       <path id="DejaVuSans-73" d="M 2834 3397 
L 2834 2853 
Q 2591 2978 2328 3040 
Q 2066 3103 1784 3103 
Q 1356 3103 1142 2972 
Q 928 2841 928 2578 
Q 928 2378 1081 2264 
Q 1234 2150 1697 2047 
L 1894 2003 
Q 2506 1872 2764 1633 
Q 3022 1394 3022 966 
Q 3022 478 2636 193 
Q 2250 -91 1575 -91 
Q 1294 -91 989 -36 
Q 684 19 347 128 
L 347 722 
Q 666 556 975 473 
Q 1284 391 1588 391 
Q 1994 391 2212 530 
Q 2431 669 2431 922 
Q 2431 1156 2273 1281 
Q 2116 1406 1581 1522 
L 1381 1569 
Q 847 1681 609 1914 
Q 372 2147 372 2553 
Q 372 3047 722 3315 
Q 1072 3584 1716 3584 
Q 2034 3584 2315 3537 
Q 2597 3491 2834 3397 
z
" transform="scale(0.015625)"/>
       <path id="DejaVuSans-6b" d="M 581 4863 
L 1159 4863 
L 1159 1991 
L 2875 3500 
L 3609 3500 
L 1753 1863 
L 3688 0 
L 2938 0 
L 1159 1709 
L 1159 0 
L 581 0 
L 581 4863 
z
" transform="scale(0.015625)"/>
       <path id="DejaVuSans-fc" d="M 544 1381 
L 544 3500 
L 1119 3500 
L 1119 1403 
Q 1119 906 1312 657 
Q 1506 409 1894 409 
Q 2359 409 2629 706 
Q 2900 1003 2900 1516 
L 2900 3500 
L 3475 3500 
L 3475 0 
L 2900 0 
L 2900 538 
Q 2691 219 2414 64 
Q 2138 -91 1772 -91 
Q 1169 -91 856 284 
Q 544 659 544 1381 
z
M 1991 3584 
L 1991 3584 
z
M 2278 4850 
L 2912 4850 
L 2912 4219 
L 2278 4219 
L 2278 4850 
z
M 1056 4850 
L 1690 4850 
L 1690 4219 
L 1056 4219 
L 1056 4850 
z
" transform="scale(0.015625)"/>
       <path id="DejaVuSans-68" d="M 3513 2113 
L 3513 0 
L 2938 0 
L 2938 2094 
Q 2938 2591 2744 2837 
Q 2550 3084 2163 3084 
Q 1697 3084 1428 2787 
Q 1159 2491 1159 1978 
L 1159 0 
L 581 0 
L 581 4863 
L 1159 4863 
L 1159 2956 
Q 1366 3272 1645 3428 
Q 1925 3584 2291 3584 
Q 2894 3584 3203 3211 
Q 3513 2838 3513 2113 
z
" transform="scale(0.015625)"/>
       <path id="DejaVuSans-6c" d="M 603 4863 
L 1178 4863 
L 1178 0 
L 603 0 
L 603 4863 
z
" transform="scale(0.015625)"/>
       <path id="DejaVuSans-65" d="M 3597 1894 
L 3597 1613 
L 953 1613 
Q 991 1019 1311 708 
Q 1631 397 2203 397 
Q 2534 397 2845 478 
Q 3156 559 3463 722 
L 3463 178 
Q 3153 47 2828 -22 
Q 2503 -91 2169 -91 
Q 1331 -91 842 396 
Q 353 884 353 1716 
Q 353 2575 817 3079 
Q 1281 3584 2069 3584 
Q 2775 3584 3186 3129 
Q 3597 2675 3597 1894 
z
M 3022 2063 
Q 3016 2534 2758 2815 
Q 2500 3097 2075 3097 
Q 1594 3097 1305 2825 
Q 1016 2553 972 2059 
L 3022 2063 
z
" transform="scale(0.015625)"/>
       <path id="DejaVuSans-72" d="M 2631 2963 
Q 2534 3019 2420 3045 
Q 2306 3072 2169 3072 
Q 1681 3072 1420 2755 
Q 1159 2438 1159 1844 
L 1159 0 
L 581 0 
L 581 3500 
L 1159 3500 
L 1159 2956 
Q 1341 3275 1631 3429 
Q 1922 3584 2338 3584 
Q 2397 3584 2469 3576 
Q 2541 3569 2628 3553 
L 2631 2963 
z
" transform="scale(0.015625)"/>
       <path id="DejaVuSans-64" d="M 2906 2969 
L 2906 4863 
L 3481 4863 
L 3481 0 
L 2906 0 
L 2906 525 
Q 2725 213 2448 61 
Q 2172 -91 1784 -91 
Q 1150 -91 751 415 
Q 353 922 353 1747 
Q 353 2572 751 3078 
Q 1150 3584 1784 3584 
Q 2172 3584 2448 3432 
Q 2725 3281 2906 2969 
z
M 947 1747 
Q 947 1113 1208 752 
Q 1469 391 1925 391 
Q 2381 391 2643 752 
Q 2906 1113 2906 1747 
Q 2906 2381 2643 2742 
Q 2381 3103 1925 3103 
Q 1469 3103 1208 2742 
Q 947 2381 947 1747 
z
" transform="scale(0.015625)"/>
       <path id="DejaVuSans-75" d="M 544 1381 
L 544 3500 
L 1119 3500 
L 1119 1403 
Q 1119 906 1312 657 
Q 1506 409 1894 409 
Q 2359 409 2629 706 
Q 2900 1003 2900 1516 
L 2900 3500 
L 3475 3500 
L 3475 0 
L 2900 0 
L 2900 538 
Q 2691 219 2414 64 
Q 2138 -91 1772 -91 
Q 1169 -91 856 284 
Q 544 659 544 1381 
z
M 1991 3584 
L 1991 3584 
z
" transform="scale(0.015625)"/>
       <path id="DejaVuSans-63" d="M 3122 3366 
L 3122 2828 
Q 2878 2963 2633 3030 
Q 2388 3097 2138 3097 
Q 1578 3097 1268 2742 
Q 959 2388 959 1747 
Q 959 1106 1268 751 
Q 1578 397 2138 397 
Q 2388 397 2633 464 
Q 2878 531 3122 666 
L 3122 134 
Q 2881 22 2623 -34 
Q 2366 -91 2075 -91 
Q 1284 -91 818 406 
Q 353 903 353 1747 
Q 353 2603 823 3093 
Q 1294 3584 2113 3584 
Q 2378 3584 2631 3529 
Q 2884 3475 3122 3366 
z
" transform="scale(0.015625)"/>
       <path id="DejaVuSans-20" transform="scale(0.015625)"/>
       <path id="DejaVuSans-69" d="M 603 3500 
L 1178 3500 
L 1178 0 
L 603 0 
L 603 3500 
z
M 603 4863 
L 1178 4863 
L 1178 4134 
L 603 4134 
L 603 4863 
z
" transform="scale(0.015625)"/>
       <path id="DejaVuSans-6e" d="M 3513 2113 
L 3513 0 
L 2938 0 
L 2938 2094 
Q 2938 2591 2744 2837 
Q 2550 3084 2163 3084 
Q 1697 3084 1428 2787 
Q 1159 2491 1159 1978 
L 1159 0 
L 581 0 
L 581 3500 
L 1159 3500 
L 1159 2956 
Q 1366 3272 1645 3428 
Q 1925 3584 2291 3584 
Q 2894 3584 3203 3211 
Q 3513 2838 3513 2113 
z
" transform="scale(0.015625)"/>
       <path id="DejaVuSans-62" d="M 3116 1747 
Q 3116 2381 2855 2742 
Q 2594 3103 2138 3103 
Q 1681 3103 1420 2742 
Q 1159 2381 1159 1747 
Q 1159 1113 1420 752 
Q 1681 391 2138 391 
Q 2594 391 2855 752 
Q 3116 1113 3116 1747 
z
M 1159 2969 
Q 1341 3281 1617 3432 
Q 1894 3584 2278 3584 
Q 2916 3584 3314 3078 
Q 3713 2572 3713 1747 
Q 3713 922 3314 415 
Q 2916 -91 2278 -91 
Q 1894 -91 1617 61 
Q 1341 213 1159 525 
L 1159 0 
L 581 0 
L 581 4863 
L 1159 4863 
L 1159 2969 
z
" transform="scale(0.015625)"/>
      </defs>
      <use xlink:href="#DejaVuSans-47"/>
      <use xlink:href="#DejaVuSans-61" x="77.490234"/>
      <use xlink:href="#DejaVuSans-73" x="138.769531"/>
      <use xlink:href="#DejaVuSans-6b" x="190.869141"/>
      <use xlink:href="#DejaVuSans-fc" x="245.654297"/>
      <use xlink:href="#DejaVuSans-68" x="309.033203"/>
      <use xlink:href="#DejaVuSans-6c" x="372.412109"/>
      <use xlink:href="#DejaVuSans-65" x="400.195312"/>
      <use xlink:href="#DejaVuSans-72" x="461.71875"/>
      <use xlink:href="#DejaVuSans-64" x="501.082031"/>
      <use xlink:href="#DejaVuSans-72" x="564.558594"/>
      <use xlink:href="#DejaVuSans-75" x="605.671875"/>
      <use xlink:href="#DejaVuSans-63" x="669.050781"/>
      <use xlink:href="#DejaVuSans-6b" x="724.03125"/>
      <use xlink:href="#DejaVuSans-20" x="781.941406"/>
      <use xlink:href="#DejaVuSans-69" x="813.728516"/>
      <use xlink:href="#DejaVuSans-6e" x="841.511719"/>
      <use xlink:href="#DejaVuSans-20" x="904.890625"/>
      <use xlink:href="#DejaVuSans-62" x="936.677734"/>
      <use xlink:href="#DejaVuSans-61" x="1000.154297"/>
      <use xlink:href="#DejaVuSans-72" x="1061.433594"/>
     </g>
    </g>
   </g>
   <g id="matplotlib.axis_2">
    <g id="ytick_1">
     <g id="line2d_17">
      <path d="M 180 704.466953 
L 1296 704.466953 
" clip-path="url(#ped30410063)" style="fill: none; stroke: #b0b0b0; stroke-width: 0.8; stroke-linecap: square"/>
     </g>
     <g id="line2d_18">
      <defs>
       <path id="mcc2545b632" d="M 0 0 
L -3.5 0 
" style="stroke: #000000; stroke-width: 0.8"/>
      </defs>
      <g>
       <use xlink:href="#mcc2545b632" x="180" y="704.466953" style="stroke: #000000; stroke-width: 0.8"/>
      </g>
     </g>
     <g id="text_10">
      <!-- 66 -->
      <g transform="translate(147.55 712.065391) scale(0.2 -0.2)">
       <use xlink:href="#DejaVuSans-36"/>
       <use xlink:href="#DejaVuSans-36" x="63.623047"/>
      </g>
     </g>
    </g>
    <g id="ytick_2">
     <g id="line2d_19">
      <path d="M 180 554.475121 
L 1296 554.475121 
" clip-path="url(#ped30410063)" style="fill: none; stroke: #b0b0b0; stroke-width: 0.8; stroke-linecap: square"/>
     </g>
     <g id="line2d_20">
      <g>
       <use xlink:href="#mcc2545b632" x="180" y="554.475121" style="stroke: #000000; stroke-width: 0.8"/>
      </g>
     </g>
     <g id="text_11">
      <!-- 68 -->
      <g transform="translate(147.55 562.073558) scale(0.2 -0.2)">
       <use xlink:href="#DejaVuSans-36"/>
       <use xlink:href="#DejaVuSans-38" x="63.623047"/>
      </g>
     </g>
    </g>
    <g id="ytick_3">
     <g id="line2d_21">
      <path d="M 180 404.483288 
L 1296 404.483288 
" clip-path="url(#ped30410063)" style="fill: none; stroke: #b0b0b0; stroke-width: 0.8; stroke-linecap: square"/>
     </g>
     <g id="line2d_22">
      <g>
       <use xlink:href="#mcc2545b632" x="180" y="404.483288" style="stroke: #000000; stroke-width: 0.8"/>
      </g>
     </g>
     <g id="text_12">
      <!-- 70 -->
      <g transform="translate(147.55 412.081726) scale(0.2 -0.2)">
       <defs>
        <path id="DejaVuSans-37" d="M 525 4666 
L 3525 4666 
L 3525 4397 
L 1831 0 
L 1172 0 
L 2766 4134 
L 525 4134 
L 525 4666 
z
" transform="scale(0.015625)"/>
       </defs>
       <use xlink:href="#DejaVuSans-37"/>
       <use xlink:href="#DejaVuSans-30" x="63.623047"/>
      </g>
     </g>
    </g>
    <g id="ytick_4">
     <g id="line2d_23">
      <path d="M 180 254.491456 
L 1296 254.491456 
" clip-path="url(#ped30410063)" style="fill: none; stroke: #b0b0b0; stroke-width: 0.8; stroke-linecap: square"/>
     </g>
     <g id="line2d_24">
      <g>
       <use xlink:href="#mcc2545b632" x="180" y="254.491456" style="stroke: #000000; stroke-width: 0.8"/>
      </g>
     </g>
     <g id="text_13">
      <!-- 72 -->
      <g transform="translate(147.55 262.089893) scale(0.2 -0.2)">
       <use xlink:href="#DejaVuSans-37"/>
       <use xlink:href="#DejaVuSans-32" x="63.623047"/>
      </g>
     </g>
    </g>
    <g id="text_14">
     <!-- exergetischer Wirkungsgrad -->
     <g transform="translate(139.390625 613.239375) rotate(-90) scale(0.2 -0.2)">
      <defs>
       <path id="DejaVuSans-78" d="M 3513 3500 
L 2247 1797 
L 3578 0 
L 2900 0 
L 1881 1375 
L 863 0 
L 184 0 
L 1544 1831 
L 300 3500 
L 978 3500 
L 1906 2253 
L 2834 3500 
L 3513 3500 
z
" transform="scale(0.015625)"/>
       <path id="DejaVuSans-67" d="M 2906 1791 
Q 2906 2416 2648 2759 
Q 2391 3103 1925 3103 
Q 1463 3103 1205 2759 
Q 947 2416 947 1791 
Q 947 1169 1205 825 
Q 1463 481 1925 481 
Q 2391 481 2648 825 
Q 2906 1169 2906 1791 
z
M 3481 434 
Q 3481 -459 3084 -895 
Q 2688 -1331 1869 -1331 
Q 1566 -1331 1297 -1286 
Q 1028 -1241 775 -1147 
L 775 -588 
Q 1028 -725 1275 -790 
Q 1522 -856 1778 -856 
Q 2344 -856 2625 -561 
Q 2906 -266 2906 331 
L 2906 616 
Q 2728 306 2450 153 
Q 2172 0 1784 0 
Q 1141 0 747 490 
Q 353 981 353 1791 
Q 353 2603 747 3093 
Q 1141 3584 1784 3584 
Q 2172 3584 2450 3431 
Q 2728 3278 2906 2969 
L 2906 3500 
L 3481 3500 
L 3481 434 
z
" transform="scale(0.015625)"/>
       <path id="DejaVuSans-74" d="M 1172 4494 
L 1172 3500 
L 2356 3500 
L 2356 3053 
L 1172 3053 
L 1172 1153 
Q 1172 725 1289 603 
Q 1406 481 1766 481 
L 2356 481 
L 2356 0 
L 1766 0 
Q 1100 0 847 248 
Q 594 497 594 1153 
L 594 3053 
L 172 3053 
L 172 3500 
L 594 3500 
L 594 4494 
L 1172 4494 
z
" transform="scale(0.015625)"/>
       <path id="DejaVuSans-57" d="M 213 4666 
L 850 4666 
L 1831 722 
L 2809 4666 
L 3519 4666 
L 4500 722 
L 5478 4666 
L 6119 4666 
L 4947 0 
L 4153 0 
L 3169 4050 
L 2175 0 
L 1381 0 
L 213 4666 
z
" transform="scale(0.015625)"/>
      </defs>
      <use xlink:href="#DejaVuSans-65"/>
      <use xlink:href="#DejaVuSans-78" x="59.773438"/>
      <use xlink:href="#DejaVuSans-65" x="115.828125"/>
      <use xlink:href="#DejaVuSans-72" x="177.351562"/>
      <use xlink:href="#DejaVuSans-67" x="216.714844"/>
      <use xlink:href="#DejaVuSans-65" x="280.191406"/>
      <use xlink:href="#DejaVuSans-74" x="341.714844"/>
      <use xlink:href="#DejaVuSans-69" x="380.923828"/>
      <use xlink:href="#DejaVuSans-73" x="408.707031"/>
      <use xlink:href="#DejaVuSans-63" x="460.806641"/>
      <use xlink:href="#DejaVuSans-68" x="515.787109"/>
      <use xlink:href="#DejaVuSans-65" x="579.166016"/>
      <use xlink:href="#DejaVuSans-72" x="640.689453"/>
      <use xlink:href="#DejaVuSans-20" x="681.802734"/>
      <use xlink:href="#DejaVuSans-57" x="713.589844"/>
      <use xlink:href="#DejaVuSans-69" x="810.216797"/>
      <use xlink:href="#DejaVuSans-72" x="838"/>
      <use xlink:href="#DejaVuSans-6b" x="879.113281"/>
      <use xlink:href="#DejaVuSans-75" x="933.898438"/>
      <use xlink:href="#DejaVuSans-6e" x="997.277344"/>
      <use xlink:href="#DejaVuSans-67" x="1060.65625"/>
      <use xlink:href="#DejaVuSans-73" x="1124.132812"/>
      <use xlink:href="#DejaVuSans-67" x="1176.232422"/>
      <use xlink:href="#DejaVuSans-72" x="1239.708984"/>
      <use xlink:href="#DejaVuSans-61" x="1280.822266"/>
      <use xlink:href="#DejaVuSans-64" x="1342.101562"/>
     </g>
    </g>
   </g>
   <g id="line2d_25">
    <path d="M 239.52 695.978795 
L 295.124211 694.171436 
L 350.728421 695.48856 
L 406.332632 698.73508 
L 461.936842 703.228878 
L 517.541053 708.549705 
L 573.145263 714.424759 
L 628.749474 720.670191 
L 684.353684 727.158642 
L 739.957895 733.800058 
L 795.562105 740.529785 
L 851.166316 747.300899 
L 906.770526 754.079114 
L 962.374737 760.839294 
L 1017.978947 767.563034 
L 1073.583158 774.236931 
L 1129.187368 780.851343 
L 1184.791579 787.399471 
L 1240.395789 793.876682 
L 1296 800.28 
" clip-path="url(#ped30410063)" style="fill: none; stroke: #000000; stroke-width: 1.5; stroke-linecap: square"/>
   </g>
   <g id="line2d_26">
    <path d="M 269.28 412.596448 
L 323.317895 419.381561 
L 377.355789 427.787433 
L 431.393684 437.109885 
L 485.431579 446.937084 
L 539.469474 457.015146 
L 593.507368 467.182258 
L 647.545263 477.333299 
L 701.583158 487.399503 
L 755.621053 497.336125 
L 809.658947 507.11467 
L 863.696842 516.717804 
L 917.734737 526.135945 
L 971.772632 535.364926 
L 1025.810526 544.404359 
L 1079.848421 553.256473 
L 1133.886316 561.925291 
L 1187.924211 570.416028 
L 1241.962105 578.734656 
L 1296 586.887592 
" clip-path="url(#ped30410063)" style="fill: none; stroke: #000000; stroke-width: 1.5; stroke-linecap: square"/>
   </g>
   <g id="line2d_27">
    <path d="M 239.52 203.073424 
L 295.124211 217.444207 
L 350.728421 232.908039 
L 406.332632 248.743315 
L 461.936842 264.572624 
L 517.541053 280.188407 
L 573.145263 295.475016 
L 628.749474 310.369715 
L 684.353684 324.841524 
L 739.957895 338.879038 
L 795.562105 352.483091 
L 851.166316 365.662176 
L 906.770526 378.429507 
L 962.374737 390.801108 
L 1017.978947 402.79454 
L 1073.583158 414.428054 
L 1129.187368 425.72002 
L 1184.791579 436.688556 
L 1240.395789 447.35127 
L 1296 457.72511 
" clip-path="url(#ped30410063)" style="fill: none; stroke: #000000; stroke-width: 1.5; stroke-linecap: square"/>
   </g>
   <g id="line2d_28">
    <path d="M 194.88 145.08 
L 252.833684 164.201492 
L 310.787368 184.297361 
L 368.741053 204.442398 
L 426.694737 224.229393 
L 484.648421 243.469026 
L 542.602105 262.076461 
L 600.555789 280.021063 
L 658.509474 297.301613 
L 716.463158 313.933144 
L 774.416842 329.93958 
L 832.370526 345.349452 
L 890.324211 360.19335 
L 948.277895 374.502382 
L 1006.231579 388.307241 
L 1064.185263 401.637653 
L 1122.138947 414.522049 
L 1180.092632 426.987402 
L 1238.046316 439.059146 
L 1296 450.761164 
" clip-path="url(#ped30410063)" style="fill: none; stroke: #000000; stroke-width: 1.5; stroke-linecap: square"/>
   </g>
   <g id="line2d_29">
    <path d="M 387.647048 697.478052 
L 389.935234 679.651892 
L 392.017292 662.247505 
L 393.902732 645.255479 
L 395.6003 628.666958 
L 397.118055 612.47359 
L 398.463437 596.667477 
L 399.643321 581.24114 
L 400.664072 566.187475 
L 401.531593 551.499724 
L 402.251362 537.171444 
L 402.828474 523.196479 
L 403.267669 509.56894 
L 403.573366 496.283174 
L 403.749689 483.333757 
L 403.80049 470.715462 
L 403.729371 458.423257 
L 403.539707 446.452284 
L 403.23466 434.797839 
L 402.817199 423.455375 
L 402.290115 412.420479 
L 401.656031 401.688871 
L 400.917422 391.256385 
L 400.076619 381.118973 
L 399.135826 371.272698 
L 398.097126 361.713713 
L 396.962495 352.438277 
L 395.733805 343.442728 
L 394.41284 334.7235 
L 393.001295 326.277107 
L 391.500793 318.100144 
L 389.912884 310.189279 
L 388.239057 302.541263 
L 386.480745 295.152917 
L 384.639333 288.021136 
L 382.716161 281.142888 
L 380.712535 274.515206 
L 378.629729 268.135204 
L 376.468997 262.000061 
L 374.231571 256.107033 
L 371.918676 250.453444 
L 369.531533 245.036693 
L 367.071366 239.854257 
L 364.539407 234.903688 
L 361.936908 230.182621 
L 359.265147 225.68877 
L 356.525436 221.419937 
L 353.719127 217.374012 
L 350.847628 213.548974 
L 347.912406 209.942905 
L 344.915004 206.553986 
L 341.857048 203.380505 
L 338.740261 200.420864 
L 335.566479 197.673587 
L 332.337663 195.137322 
L 329.055916 192.810856 
L 325.723505 190.693121 
L 322.342875 188.783203 
L 318.916676 187.080353 
L 315.447786 185.584011 
L 311.939341 184.293801 
L 308.39476 183.209565 
L 304.817789 182.331367 
L 301.212533 181.659529 
L 297.583509 181.194633 
L 293.935691 180.937572 
L 290.274575 180.889567 
L 286.60625 181.052196 
L 282.937478 181.42745 
L 279.27579 182.01778 
L 275.629607 182.826144 
L 272.008377 183.856081 
L 268.422746 185.111793 
L 264.884768 186.598249 
L 261.408167 188.321309 
L 258.008669 190.287882 
L 254.704426 192.506125 
L 251.516569 194.985705 
L 248.469945 197.738143 
L 245.594107 200.777276 
" clip-path="url(#ped30410063)" style="fill: none; stroke-dasharray: 5.55,2.4; stroke-dashoffset: 0; stroke: #ff0000; stroke-width: 1.5"/>
   </g>
   <g id="line2d_30">
    <path d="M 486.538982 705.499827 
L 488.532685 688.241339 
L 490.329212 671.394145 
L 491.937093 654.949412 
L 493.364202 638.898778 
L 494.617811 623.234304 
L 495.704652 607.948446 
L 496.630958 593.034015 
L 497.402514 578.484151 
L 498.024688 564.292299 
L 498.502471 550.45218 
L 498.840508 536.957774 
L 499.043121 523.8033 
L 499.114344 510.983191 
L 499.057935 498.49209 
L 498.877406 486.324821 
L 498.576038 474.47639 
L 498.156898 462.941965 
L 497.622858 451.716858 
L 496.976604 440.79653 
L 496.220657 430.176571 
L 495.357379 419.852695 
L 494.388987 409.820726 
L 493.317563 400.076603 
L 492.145064 390.616369 
L 490.87333 381.436156 
L 489.504096 372.532199 
L 488.038993 363.900805 
L 486.479564 355.538378 
L 484.827264 347.441396 
L 483.083469 339.606417 
L 481.249486 332.030066 
L 479.326552 324.70905 
L 477.315848 317.640139 
L 475.218496 310.820178 
L 473.035574 304.246076 
L 470.768114 297.914805 
L 468.417113 291.823412 
L 465.983533 285.969003 
L 463.468312 280.348759 
L 460.872368 274.959917 
L 458.196604 269.799789 
L 455.441914 264.865752 
L 452.60919 260.155257 
L 449.69933 255.665823 
L 446.713242 251.395045 
L 443.651855 247.340594 
L 440.516123 243.500222 
L 437.307039 239.871759 
L 434.025636 236.453127 
L 430.673008 233.242334 
L 427.250309 230.237487 
L 423.758775 227.436794 
L 420.199731 224.838568 
L 416.574608 222.441237 
L 412.884959 220.243353 
L 409.132474 218.243597 
L 405.319004 216.440791 
L 401.44658 214.833906 
L 397.51744 213.422086 
L 393.534057 212.204642 
L 389.499168 211.181089 
L 385.415815 210.351148 
L 381.287382 209.714781 
L 377.117649 209.272196 
L 372.910839 209.023898 
L 368.671691 208.970703 
L 364.405528 209.113778 
L 360.118352 209.45469 
L 355.816943 209.995458 
L 351.508989 210.738603 
L 347.203239 211.687228 
L 342.909682 212.845103 
L 338.639781 214.216774 
L 334.406754 215.807691 
L 330.225931 217.624377 
L 326.115213 219.674636 
L 322.095664 221.96782 
L 318.192298 224.515186 
L 314.43513 227.33037 
" clip-path="url(#ped30410063)" style="fill: none; stroke-dasharray: 5.55,2.4; stroke-dashoffset: 0; stroke: #ffa500; stroke-width: 1.5"/>
   </g>
   <g id="line2d_31">
    <path d="M 586.872521 715.937863 
L 588.64917 699.146677 
L 590.232388 682.761145 
L 591.630181 666.772598 
L 592.849946 651.172795 
L 593.898531 635.953895 
L 594.782277 621.108417 
L 595.507068 606.629221 
L 596.078365 592.509473 
L 596.501242 578.742628 
L 596.780418 565.322406 
L 596.920287 552.24277 
L 596.924938 539.497917 
L 596.798184 527.082246 
L 596.543581 514.990364 
L 596.164445 503.21705 
L 595.663873 491.757263 
L 595.044756 480.606121 
L 594.309795 469.758882 
L 593.461515 459.210954 
L 592.502274 448.957871 
L 591.434278 438.995293 
L 590.25959 429.318986 
L 588.980139 419.924836 
L 587.597728 410.80883 
L 586.114047 401.967045 
L 584.530675 393.395661 
L 582.84909 385.090933 
L 581.070676 377.04921 
L 579.196727 369.266918 
L 577.228458 361.740559 
L 575.167005 354.466708 
L 573.013435 347.442015 
L 570.768749 340.663198 
L 568.433886 334.127042 
L 566.009734 327.830402 
L 563.497126 321.77019 
L 560.896855 315.94339 
L 558.209668 310.347048 
L 555.436282 304.978273 
L 552.57738 299.834234 
L 549.633623 294.912169 
L 546.605651 290.209375 
L 543.49409 285.723219 
L 540.299558 281.451131 
L 537.022673 277.39061 
L 533.664055 273.539225 
L 530.224338 269.894618 
L 526.704175 266.4545 
L 523.104249 263.216667 
L 519.425276 260.178992 
L 515.668023 257.339435 
L 511.833313 254.696047 
L 507.922041 252.246971 
L 503.935183 249.990456 
L 499.873816 247.924856 
L 495.739132 246.048643 
L 491.532457 244.360414 
L 487.255273 242.858899 
L 482.90924 241.542982 
L 478.496228 240.411697 
L 474.018344 239.464261 
L 469.477971 238.70008 
L 464.877804 238.118772 
L 460.220907 237.720186 
L 455.510759 237.50444 
L 450.751326 237.471939 
L 445.947134 237.623413 
L 441.103361 237.959966 
L 436.225946 238.483124 
L 431.321716 239.194891 
L 426.398546 240.097821 
L 421.465549 241.195106 
L 416.533315 242.490686 
L 411.614204 243.989374 
L 406.72272 245.697029 
L 401.87599 247.620759 
L 397.094376 249.769191 
L 392.402299 252.152828 
L 387.829333 254.784519 
" clip-path="url(#ped30410063)" style="fill: none; stroke-dasharray: 5.55,2.4; stroke-dashoffset: 0; stroke: #008000; stroke-width: 1.5"/>
   </g>
   <g id="line2d_32">
    <path d="M 742.134589 734.062195 
L 743.676199 717.861189 
L 745.023702 702.060876 
L 746.184724 686.6526 
L 747.166329 671.628103 
L 747.975072 656.9795 
L 748.617036 642.69925 
L 749.097874 628.780135 
L 749.422842 615.215233 
L 749.596831 601.997897 
L 749.624394 589.121742 
L 749.509774 576.58062 
L 749.256924 564.36861 
L 748.869531 552.479993 
L 748.351033 540.909257 
L 747.704635 529.651061 
L 746.933331 518.700243 
L 746.039912 508.051801 
L 745.026981 497.700879 
L 743.896968 487.642768 
L 742.652137 477.872892 
L 741.2946 468.386798 
L 739.826324 459.180151 
L 738.249141 450.24873 
L 736.564754 441.588424 
L 734.77475 433.195215 
L 732.880598 425.065188 
L 730.883665 417.194511 
L 728.785216 409.579444 
L 726.586421 402.216329 
L 724.288362 395.101589 
L 721.892036 388.231717 
L 719.398362 381.603287 
L 716.808184 375.212941 
L 714.122275 369.05739 
L 711.341343 363.133412 
L 708.466037 357.437846 
L 705.496946 351.967601 
L 702.434606 346.719645 
L 699.279506 341.691013 
L 696.03209 336.878791 
L 692.69276 332.280133 
L 689.261885 327.892253 
L 685.739801 323.712424 
L 682.126819 319.73798 
L 678.423227 315.966318 
L 674.629299 312.394897 
L 670.7453 309.021243 
L 666.77149 305.842941 
L 662.708134 302.857652 
L 658.555507 300.063102 
L 654.313906 297.457093 
L 649.983655 295.037504 
L 645.56512 292.802294 
L 641.058718 290.749508 
L 636.464929 288.877282 
L 631.784316 287.183851 
L 627.017534 285.667551 
L 622.16536 284.326833 
L 617.228702 283.160276 
L 612.208638 282.166581 
L 607.106433 281.344607 
L 601.923582 280.693366 
L 596.661843 280.212055 
L 591.323286 279.900058 
L 585.910345 279.756995 
L 580.425883 279.782729 
L 574.873265 279.977399 
L 569.25645 280.341471 
L 563.580095 280.87578 
L 557.849686 281.581576 
L 552.071699 282.4606 
L 546.253788 283.515159 
L 540.40503 284.748234 
L 534.536224 286.163596 
L 528.660272 287.76597 
L 522.792669 289.561228 
L 516.952134 291.556651 
L 511.161457 293.761264 
L 505.44862 296.186289 
" clip-path="url(#ped30410063)" style="fill: none; stroke-dasharray: 5.55,2.4; stroke-dashoffset: 0; stroke: #4682b4; stroke-width: 1.5"/>
   </g>
   <g id="line2d_33">
    <path d="M 1020.449322 767.860682 
L 1021.750479 752.470008 
L 1022.842644 737.473786 
L 1023.733434 722.863343 
L 1024.42995 708.630366 
L 1024.93882 694.766884 
L 1025.266236 681.265246 
L 1025.417983 668.1181 
L 1025.399472 655.318373 
L 1025.215763 642.859254 
L 1024.871593 630.734182 
L 1024.371397 618.936827 
L 1023.719326 607.46108 
L 1022.919269 596.301032 
L 1021.974866 585.450978 
L 1020.889527 574.905387 
L 1019.666443 564.658909 
L 1018.308602 554.706356 
L 1016.818797 545.042692 
L 1015.199642 535.663031 
L 1013.453576 526.562624 
L 1011.582877 517.736858 
L 1009.589669 509.181236 
L 1007.47593 500.891388 
L 1005.243498 492.863057 
L 1002.89408 485.092087 
L 1000.429256 477.574434 
L 997.850486 470.306139 
L 995.159117 463.283346 
L 992.356383 456.502284 
L 989.443415 449.959271 
L 986.421244 443.6507 
L 983.290802 437.57305 
L 980.052931 431.722873 
L 976.708381 426.096792 
L 973.25782 420.691503 
L 969.701832 415.503768 
L 966.040923 410.530416 
L 962.275522 405.768343 
L 958.405988 401.214504 
L 954.43261 396.865915 
L 950.355609 392.719654 
L 946.175147 388.772857 
L 941.891324 385.022719 
L 937.504184 381.46649 
L 933.01372 378.101481 
L 928.419874 374.925058 
L 923.722547 371.934646 
L 918.921597 369.127722 
L 914.016851 366.501829 
L 909.008102 364.054564 
L 903.895124 361.783589 
L 898.677671 359.686624 
L 893.355492 357.761458 
L 887.928335 356.005944 
L 882.395956 354.418009 
L 876.758137 352.995652 
L 871.014693 351.736952 
L 865.16549 350.640071 
L 859.210462 349.703268 
L 853.149633 348.924895 
L 846.983141 348.303417 
L 840.711265 347.837411 
L 834.334462 347.525593 
L 827.853403 347.366816 
L 821.269022 347.360107 
L 814.582575 347.504673 
L 807.795703 347.799928 
L 800.910518 348.24553 
L 793.929701 348.841421 
L 786.856624 349.587856 
L 779.695497 350.485472 
L 772.451559 351.535346 
L 765.131301 352.739086 
L 757.742769 354.098931 
L 750.295926 355.61789 
L 742.803144 357.299907 
L 735.279826 359.150086 
L 727.745248 361.174987 
L 720.223691 363.383019 
" clip-path="url(#ped30410063)" style="fill: none; stroke-dasharray: 5.55,2.4; stroke-dashoffset: 0; stroke: #8a2be2; stroke-width: 1.5"/>
   </g>
   <g id="patch_3">
    <path d="M 180 833.04 
L 180 112.32 
" style="fill: none; stroke: #000000; stroke-width: 0.8; stroke-linejoin: miter; stroke-linecap: square"/>
   </g>
   <g id="patch_4">
    <path d="M 1296 833.04 
L 1296 112.32 
" style="fill: none; stroke: #000000; stroke-width: 0.8; stroke-linejoin: miter; stroke-linecap: square"/>
   </g>
   <g id="patch_5">
    <path d="M 180 833.04 
L 1296 833.04 
" style="fill: none; stroke: #000000; stroke-width: 0.8; stroke-linejoin: miter; stroke-linecap: square"/>
   </g>
   <g id="patch_6">
    <path d="M 180 112.32 
L 1296 112.32 
" style="fill: none; stroke: #000000; stroke-width: 0.8; stroke-linejoin: miter; stroke-linecap: square"/>
   </g>
   <g id="text_15">
    <!-- 8 -->
    <g transform="translate(217.2 703.716994) scale(0.2 -0.2)">
     <use xlink:href="#DejaVuSans-38"/>
    </g>
   </g>
   <g id="text_16">
    <!-- 11 -->
    <g transform="translate(239.52 420.23243) scale(0.2 -0.2)">
     <defs>
      <path id="DejaVuSans-31" d="M 794 531 
L 1825 531 
L 1825 4091 
L 703 3866 
L 703 4441 
L 1819 4666 
L 2450 4666 
L 2450 531 
L 3481 531 
L 3481 0 
L 794 0 
L 794 531 
z
" transform="scale(0.015625)"/>
     </defs>
     <use xlink:href="#DejaVuSans-31"/>
     <use xlink:href="#DejaVuSans-31" x="63.623047"/>
    </g>
   </g>
   <g id="text_17">
    <!-- 15 -->
    <g transform="translate(209.76 210.243865) scale(0.2 -0.2)">
     <defs>
      <path id="DejaVuSans-35" d="M 691 4666 
L 3169 4666 
L 3169 4134 
L 1269 4134 
L 1269 2991 
Q 1406 3038 1543 3061 
Q 1681 3084 1819 3084 
Q 2600 3084 3056 2656 
Q 3513 2228 3513 1497 
Q 3513 744 3044 326 
Q 2575 -91 1722 -91 
Q 1428 -91 1123 -41 
Q 819 9 494 109 
L 494 744 
Q 775 591 1075 516 
Q 1375 441 1709 441 
Q 2250 441 2565 725 
Q 2881 1009 2881 1497 
Q 2881 1984 2565 2268 
Q 2250 2553 1709 2553 
Q 1456 2553 1204 2497 
Q 953 2441 691 2322 
L 691 4666 
z
" transform="scale(0.015625)"/>
     </defs>
     <use xlink:href="#DejaVuSans-31"/>
     <use xlink:href="#DejaVuSans-35" x="63.623047"/>
    </g>
   </g>
   <g id="text_18">
    <!-- 18,16 -->
    <g transform="translate(187.44 140.497663) scale(0.2 -0.2)">
     <defs>
      <path id="DejaVuSans-2c" d="M 750 794 
L 1409 794 
L 1409 256 
L 897 -744 
L 494 -744 
L 750 256 
L 750 794 
z
" transform="scale(0.015625)"/>
     </defs>
     <use xlink:href="#DejaVuSans-31"/>
     <use xlink:href="#DejaVuSans-38" x="63.623047"/>
     <use xlink:href="#DejaVuSans-2c" x="127.246094"/>
     <use xlink:href="#DejaVuSans-31" x="159.033203"/>
     <use xlink:href="#DejaVuSans-36" x="222.65625"/>
    </g>
   </g>
   <g id="legend_1">
    <g id="patch_7">
     <path d="M 258.682813 823.04 
L 1217.317188 823.04 
Q 1221.317188 823.04 1221.317188 819.04 
L 1221.317188 789.64 
Q 1221.317188 785.64 1217.317188 785.64 
L 258.682813 785.64 
Q 254.682813 785.64 254.682813 789.64 
L 254.682813 819.04 
Q 254.682813 823.04 258.682813 823.04 
z
" style="fill: #ffffff; opacity: 0.8; stroke: #cccccc; stroke-linejoin: miter"/>
    </g>
    <g id="line2d_34">
     <path d="M 262.682813 801.84 
L 282.682813 801.84 
L 302.682813 801.84 
" style="fill: none; stroke: #000000; stroke-width: 1.5; stroke-linecap: square"/>
    </g>
    <g id="text_19">
     <!-- $p_{zw}$ [bar]          $ttd_{gk,ob}$: -->
     <g transform="translate(318.682813 808.84) scale(0.2 -0.2)">
      <defs>
       <path id="DejaVuSans-Oblique-70" d="M 3175 2156 
Q 3175 2616 2975 2859 
Q 2775 3103 2400 3103 
Q 2144 3103 1911 2972 
Q 1678 2841 1497 2591 
Q 1319 2344 1212 1994 
Q 1106 1644 1106 1300 
Q 1106 863 1306 627 
Q 1506 391 1875 391 
Q 2147 391 2380 519 
Q 2613 647 2778 891 
Q 2956 1147 3065 1494 
Q 3175 1841 3175 2156 
z
M 1394 2969 
Q 1625 3272 1939 3428 
Q 2253 3584 2638 3584 
Q 3175 3584 3472 3232 
Q 3769 2881 3769 2247 
Q 3769 1728 3584 1258 
Q 3400 788 3053 416 
Q 2822 169 2531 39 
Q 2241 -91 1919 -91 
Q 1547 -91 1294 64 
Q 1041 219 916 525 
L 556 -1331 
L -19 -1331 
L 922 3500 
L 1497 3500 
L 1394 2969 
z
" transform="scale(0.015625)"/>
       <path id="DejaVuSans-Oblique-7a" d="M 744 3500 
L 3475 3500 
L 3372 2975 
L 738 459 
L 2913 459 
L 2822 0 
L -19 0 
L 84 525 
L 2719 3041 
L 653 3041 
L 744 3500 
z
" transform="scale(0.015625)"/>
       <path id="DejaVuSans-Oblique-77" d="M 544 3500 
L 1113 3500 
L 1259 684 
L 2566 3500 
L 3231 3500 
L 3425 684 
L 4666 3500 
L 5241 3500 
L 3641 0 
L 2969 0 
L 2797 2900 
L 1459 0 
L 781 0 
L 544 3500 
z
" transform="scale(0.015625)"/>
       <path id="DejaVuSans-5b" d="M 550 4863 
L 1875 4863 
L 1875 4416 
L 1125 4416 
L 1125 -397 
L 1875 -397 
L 1875 -844 
L 550 -844 
L 550 4863 
z
" transform="scale(0.015625)"/>
       <path id="DejaVuSans-5d" d="M 1947 4863 
L 1947 -844 
L 622 -844 
L 622 -397 
L 1369 -397 
L 1369 4416 
L 622 4416 
L 622 4863 
L 1947 4863 
z
" transform="scale(0.015625)"/>
       <path id="DejaVuSans-Oblique-74" d="M 2706 3500 
L 2619 3053 
L 1472 3053 
L 1100 1153 
Q 1081 1047 1072 975 
Q 1063 903 1063 863 
Q 1063 663 1183 572 
Q 1303 481 1569 481 
L 2150 481 
L 2053 0 
L 1503 0 
Q 991 0 739 200 
Q 488 400 488 806 
Q 488 878 497 964 
Q 506 1050 525 1153 
L 897 3053 
L 409 3053 
L 500 3500 
L 978 3500 
L 1172 4494 
L 1747 4494 
L 1556 3500 
L 2706 3500 
z
" transform="scale(0.015625)"/>
       <path id="DejaVuSans-Oblique-64" d="M 2675 525 
Q 2444 222 2128 65 
Q 1813 -91 1428 -91 
Q 903 -91 598 267 
Q 294 625 294 1247 
Q 294 1766 478 2236 
Q 663 2706 1013 3078 
Q 1244 3325 1534 3454 
Q 1825 3584 2144 3584 
Q 2481 3584 2739 3421 
Q 2997 3259 3138 2956 
L 3513 4863 
L 4091 4863 
L 3144 0 
L 2566 0 
L 2675 525 
z
M 891 1350 
Q 891 897 1095 644 
Q 1300 391 1663 391 
Q 1931 391 2161 520 
Q 2391 650 2566 903 
Q 2750 1166 2856 1509 
Q 2963 1853 2963 2188 
Q 2963 2622 2758 2865 
Q 2553 3109 2194 3109 
Q 1922 3109 1687 2981 
Q 1453 2853 1288 2613 
Q 1106 2353 998 2009 
Q 891 1666 891 1350 
z
" transform="scale(0.015625)"/>
       <path id="DejaVuSans-Oblique-67" d="M 3816 3500 
L 3219 434 
Q 3047 -456 2561 -893 
Q 2075 -1331 1253 -1331 
Q 950 -1331 690 -1286 
Q 431 -1241 206 -1147 
L 313 -588 
Q 525 -725 762 -790 
Q 1000 -856 1269 -856 
Q 1816 -856 2167 -557 
Q 2519 -259 2631 300 
L 2681 563 
Q 2441 288 2122 144 
Q 1803 0 1434 0 
Q 903 0 598 351 
Q 294 703 294 1319 
Q 294 1803 478 2267 
Q 663 2731 997 3091 
Q 1219 3328 1514 3456 
Q 1809 3584 2131 3584 
Q 2484 3584 2746 3420 
Q 3009 3256 3138 2956 
L 3238 3500 
L 3816 3500 
z
M 2950 2216 
Q 2950 2641 2750 2872 
Q 2550 3103 2181 3103 
Q 1953 3103 1747 3012 
Q 1541 2922 1394 2759 
Q 1156 2491 1023 2127 
Q 891 1763 891 1375 
Q 891 944 1092 712 
Q 1294 481 1672 481 
Q 2219 481 2584 976 
Q 2950 1472 2950 2216 
z
" transform="scale(0.015625)"/>
       <path id="DejaVuSans-Oblique-6b" d="M 1172 4863 
L 1747 4863 
L 1197 2028 
L 3169 3500 
L 3916 3500 
L 1716 1825 
L 3322 0 
L 2625 0 
L 1131 1709 
L 800 0 
L 225 0 
L 1172 4863 
z
" transform="scale(0.015625)"/>
       <path id="DejaVuSans-Oblique-6f" d="M 1625 -91 
Q 1009 -91 651 289 
Q 294 669 294 1325 
Q 294 1706 417 2101 
Q 541 2497 738 2766 
Q 1047 3184 1428 3384 
Q 1809 3584 2291 3584 
Q 2888 3584 3255 3212 
Q 3622 2841 3622 2241 
Q 3622 1825 3500 1412 
Q 3378 1000 3181 728 
Q 2875 309 2494 109 
Q 2113 -91 1625 -91 
z
M 891 1344 
Q 891 869 1089 633 
Q 1288 397 1691 397 
Q 2269 397 2648 901 
Q 3028 1406 3028 2181 
Q 3028 2634 2825 2865 
Q 2622 3097 2228 3097 
Q 1903 3097 1650 2945 
Q 1397 2794 1197 2484 
Q 1050 2253 970 1956 
Q 891 1659 891 1344 
z
" transform="scale(0.015625)"/>
       <path id="DejaVuSans-Oblique-62" d="M 3169 2138 
Q 3169 2591 2961 2847 
Q 2753 3103 2388 3103 
Q 2122 3103 1889 2973 
Q 1656 2844 1484 2597 
Q 1303 2338 1198 1995 
Q 1094 1653 1094 1313 
Q 1094 881 1298 636 
Q 1503 391 1863 391 
Q 2134 391 2365 517 
Q 2597 644 2772 891 
Q 2950 1147 3059 1487 
Q 3169 1828 3169 2138 
z
M 1381 2969 
Q 1594 3256 1914 3420 
Q 2234 3584 2584 3584 
Q 3122 3584 3439 3221 
Q 3756 2859 3756 2241 
Q 3756 1734 3570 1259 
Q 3384 784 3041 416 
Q 2816 172 2522 40 
Q 2228 -91 1906 -91 
Q 1566 -91 1316 65 
Q 1066 222 909 531 
L 806 0 
L 231 0 
L 1178 4863 
L 1753 4863 
L 1381 2969 
z
" transform="scale(0.015625)"/>
       <path id="DejaVuSans-3a" d="M 750 794 
L 1409 794 
L 1409 0 
L 750 0 
L 750 794 
z
M 750 3309 
L 1409 3309 
L 1409 2516 
L 750 2516 
L 750 3309 
z
" transform="scale(0.015625)"/>
      </defs>
      <use xlink:href="#DejaVuSans-Oblique-70" transform="translate(0 0.015625)"/>
      <use xlink:href="#DejaVuSans-Oblique-7a" transform="translate(63.476562 -16.390625) scale(0.7)"/>
      <use xlink:href="#DejaVuSans-Oblique-77" transform="translate(100.219727 -16.390625) scale(0.7)"/>
      <use xlink:href="#DejaVuSans-20" transform="translate(160.205078 0.015625)"/>
      <use xlink:href="#DejaVuSans-5b" transform="translate(191.992188 0.015625)"/>
      <use xlink:href="#DejaVuSans-62" transform="translate(231.005859 0.015625)"/>
      <use xlink:href="#DejaVuSans-61" transform="translate(294.482422 0.015625)"/>
      <use xlink:href="#DejaVuSans-72" transform="translate(355.761719 0.015625)"/>
      <use xlink:href="#DejaVuSans-5d" transform="translate(396.875 0.015625)"/>
      <use xlink:href="#DejaVuSans-20" transform="translate(435.888672 0.015625)"/>
      <use xlink:href="#DejaVuSans-20" transform="translate(467.675781 0.015625)"/>
      <use xlink:href="#DejaVuSans-20" transform="translate(499.462891 0.015625)"/>
      <use xlink:href="#DejaVuSans-20" transform="translate(531.25 0.015625)"/>
      <use xlink:href="#DejaVuSans-20" transform="translate(563.037109 0.015625)"/>
      <use xlink:href="#DejaVuSans-20" transform="translate(594.824219 0.015625)"/>
      <use xlink:href="#DejaVuSans-20" transform="translate(626.611328 0.015625)"/>
      <use xlink:href="#DejaVuSans-20" transform="translate(658.398438 0.015625)"/>
      <use xlink:href="#DejaVuSans-20" transform="translate(690.185547 0.015625)"/>
      <use xlink:href="#DejaVuSans-20" transform="translate(721.972656 0.015625)"/>
      <use xlink:href="#DejaVuSans-Oblique-74" transform="translate(753.759766 0.015625)"/>
      <use xlink:href="#DejaVuSans-Oblique-74" transform="translate(792.96875 0.015625)"/>
      <use xlink:href="#DejaVuSans-Oblique-64" transform="translate(832.177734 0.015625)"/>
      <use xlink:href="#DejaVuSans-Oblique-67" transform="translate(895.654297 -16.390625) scale(0.7)"/>
      <use xlink:href="#DejaVuSans-Oblique-6b" transform="translate(940.087891 -16.390625) scale(0.7)"/>
      <use xlink:href="#DejaVuSans-2c" transform="translate(980.625 -16.390625) scale(0.7)"/>
      <use xlink:href="#DejaVuSans-Oblique-6f" transform="translate(1016.513672 -16.390625) scale(0.7)"/>
      <use xlink:href="#DejaVuSans-Oblique-62" transform="translate(1059.34082 -16.390625) scale(0.7)"/>
      <use xlink:href="#DejaVuSans-3a" transform="translate(1106.508789 0.015625)"/>
     </g>
    </g>
    <g id="line2d_35">
     <path d="M 586.882812 801.84 
L 606.882812 801.84 
L 626.882812 801.84 
" style="fill: none; stroke-dasharray: 5.55,2.4; stroke-dashoffset: 0; stroke: #ff0000; stroke-width: 1.5"/>
    </g>
    <g id="text_20">
     <!-- 3 K -->
     <g transform="translate(642.882812 808.84) scale(0.2 -0.2)">
      <defs>
       <path id="DejaVuSans-4b" d="M 628 4666 
L 1259 4666 
L 1259 2694 
L 3353 4666 
L 4166 4666 
L 1850 2491 
L 4331 0 
L 3500 0 
L 1259 2247 
L 1259 0 
L 628 0 
L 628 4666 
z
" transform="scale(0.015625)"/>
      </defs>
      <use xlink:href="#DejaVuSans-33"/>
      <use xlink:href="#DejaVuSans-20" x="63.623047"/>
      <use xlink:href="#DejaVuSans-4b" x="95.410156"/>
     </g>
    </g>
    <g id="line2d_36">
     <path d="M 715.079688 801.84 
L 735.079688 801.84 
L 755.079688 801.84 
" style="fill: none; stroke-dasharray: 5.55,2.4; stroke-dashoffset: 0; stroke: #ffa500; stroke-width: 1.5"/>
    </g>
    <g id="text_21">
     <!-- 5 K -->
     <g transform="translate(771.079688 808.84) scale(0.2 -0.2)">
      <use xlink:href="#DejaVuSans-35"/>
      <use xlink:href="#DejaVuSans-20" x="63.623047"/>
      <use xlink:href="#DejaVuSans-4b" x="95.410156"/>
     </g>
    </g>
    <g id="line2d_37">
     <path d="M 843.276562 801.84 
L 863.276562 801.84 
L 883.276562 801.84 
" style="fill: none; stroke-dasharray: 5.55,2.4; stroke-dashoffset: 0; stroke: #008000; stroke-width: 1.5"/>
    </g>
    <g id="text_22">
     <!-- 7 K -->
     <g transform="translate(899.276562 808.84) scale(0.2 -0.2)">
      <use xlink:href="#DejaVuSans-37"/>
      <use xlink:href="#DejaVuSans-20" x="63.623047"/>
      <use xlink:href="#DejaVuSans-4b" x="95.410156"/>
     </g>
    </g>
    <g id="line2d_38">
     <path d="M 971.473438 801.84 
L 991.473438 801.84 
L 1011.473438 801.84 
" style="fill: none; stroke-dasharray: 5.55,2.4; stroke-dashoffset: 0; stroke: #4682b4; stroke-width: 1.5"/>
    </g>
    <g id="text_23">
     <!-- 10 K -->
     <g transform="translate(1027.473438 808.84) scale(0.2 -0.2)">
      <use xlink:href="#DejaVuSans-31"/>
      <use xlink:href="#DejaVuSans-30" x="63.623047"/>
      <use xlink:href="#DejaVuSans-20" x="127.246094"/>
      <use xlink:href="#DejaVuSans-4b" x="159.033203"/>
     </g>
    </g>
    <g id="line2d_39">
     <path d="M 1112.395313 801.84 
L 1132.395313 801.84 
L 1152.395313 801.84 
" style="fill: none; stroke-dasharray: 5.55,2.4; stroke-dashoffset: 0; stroke: #8a2be2; stroke-width: 1.5"/>
    </g>
    <g id="text_24">
     <!-- 15 K -->
     <g transform="translate(1168.395313 808.84) scale(0.2 -0.2)">
      <use xlink:href="#DejaVuSans-31"/>
      <use xlink:href="#DejaVuSans-35" x="63.623047"/>
      <use xlink:href="#DejaVuSans-20" x="127.246094"/>
      <use xlink:href="#DejaVuSans-4b" x="159.033203"/>
     </g>
    </g>
   </g>
  </g>
 </g>
 <defs>
  <clipPath id="ped30410063">
   <rect x="180" y="112.32" width="1116" height="720.72"/>
  </clipPath>
 </defs>
</svg>
