<?xml version="1.0" encoding="utf-8" standalone="no"?>
<!DOCTYPE svg PUBLIC "-//W3C//DTD SVG 1.1//EN"
  "http://www.w3.org/Graphics/SVG/1.1/DTD/svg11.dtd">
<svg xmlns:xlink="http://www.w3.org/1999/xlink" width="1440pt" height="936pt" viewBox="0 0 1440 936" xmlns="http://www.w3.org/2000/svg" version="1.1">
 <metadata>
  <rdf:RDF xmlns:dc="http://purl.org/dc/elements/1.1/" xmlns:cc="http://creativecommons.org/ns#" xmlns:rdf="http://www.w3.org/1999/02/22-rdf-syntax-ns#">
   <cc:Work>
    <dc:type rdf:resource="http://purl.org/dc/dcmitype/StillImage"/>
    <dc:date>2023-06-23T10:58:28.892324</dc:date>
    <dc:format>image/svg+xml</dc:format>
    <dc:creator>
     <cc:Agent>
      <dc:title>Matplotlib v3.6.1, https://matplotlib.org/</dc:title>
     </cc:Agent>
    </dc:creator>
   </cc:Work>
  </rdf:RDF>
 </metadata>
 <defs>
  <style type="text/css">*{stroke-linejoin: round; stroke-linecap: butt}</style>
 </defs>
 <g id="figure_1">
  <g id="patch_1">
   <path d="M 0 936 
L 1440 936 
L 1440 0 
L 0 0 
z
" style="fill: #ffffff"/>
  </g>
  <g id="axes_1">
   <g id="patch_2">
    <path d="M 180 833.04 
L 1296 833.04 
L 1296 112.32 
L 180 112.32 
z
" style="fill: #ffffff"/>
   </g>
   <g id="matplotlib.axis_1">
    <g id="xtick_1">
     <g id="line2d_1">
      <path d="M 180 833.04 
L 180 112.32 
" clip-path="url(#p0d7d152556)" style="fill: none; stroke: #b0b0b0; stroke-width: 0.8; stroke-linecap: square"/>
     </g>
     <g id="line2d_2">
      <defs>
       <path id="m3e5feb5621" d="M 0 0 
L 0 3.5 
" style="stroke: #000000; stroke-width: 0.8"/>
      </defs>
      <g>
       <use xlink:href="#m3e5feb5621" x="180" y="833.04" style="stroke: #000000; stroke-width: 0.8"/>
      </g>
     </g>
     <g id="text_1">
      <!-- 37.5 -->
      <g transform="translate(157.734375 855.236875) scale(0.2 -0.2)">
       <defs>
        <path id="DejaVuSans-33" d="M 2597 2516 
Q 3050 2419 3304 2112 
Q 3559 1806 3559 1356 
Q 3559 666 3084 287 
Q 2609 -91 1734 -91 
Q 1441 -91 1130 -33 
Q 819 25 488 141 
L 488 750 
Q 750 597 1062 519 
Q 1375 441 1716 441 
Q 2309 441 2620 675 
Q 2931 909 2931 1356 
Q 2931 1769 2642 2001 
Q 2353 2234 1838 2234 
L 1294 2234 
L 1294 2753 
L 1863 2753 
Q 2328 2753 2575 2939 
Q 2822 3125 2822 3475 
Q 2822 3834 2567 4026 
Q 2313 4219 1838 4219 
Q 1578 4219 1281 4162 
Q 984 4106 628 3988 
L 628 4550 
Q 988 4650 1302 4700 
Q 1616 4750 1894 4750 
Q 2613 4750 3031 4423 
Q 3450 4097 3450 3541 
Q 3450 3153 3228 2886 
Q 3006 2619 2597 2516 
z
" transform="scale(0.015625)"/>
        <path id="DejaVuSans-37" d="M 525 4666 
L 3525 4666 
L 3525 4397 
L 1831 0 
L 1172 0 
L 2766 4134 
L 525 4134 
L 525 4666 
z
" transform="scale(0.015625)"/>
        <path id="DejaVuSans-2e" d="M 684 794 
L 1344 794 
L 1344 0 
L 684 0 
L 684 794 
z
" transform="scale(0.015625)"/>
        <path id="DejaVuSans-35" d="M 691 4666 
L 3169 4666 
L 3169 4134 
L 1269 4134 
L 1269 2991 
Q 1406 3038 1543 3061 
Q 1681 3084 1819 3084 
Q 2600 3084 3056 2656 
Q 3513 2228 3513 1497 
Q 3513 744 3044 326 
Q 2575 -91 1722 -91 
Q 1428 -91 1123 -41 
Q 819 9 494 109 
L 494 744 
Q 775 591 1075 516 
Q 1375 441 1709 441 
Q 2250 441 2565 725 
Q 2881 1009 2881 1497 
Q 2881 1984 2565 2268 
Q 2250 2553 1709 2553 
Q 1456 2553 1204 2497 
Q 953 2441 691 2322 
L 691 4666 
z
" transform="scale(0.015625)"/>
       </defs>
       <use xlink:href="#DejaVuSans-33"/>
       <use xlink:href="#DejaVuSans-37" x="63.623047"/>
       <use xlink:href="#DejaVuSans-2e" x="127.246094"/>
       <use xlink:href="#DejaVuSans-35" x="159.033203"/>
      </g>
     </g>
    </g>
    <g id="xtick_2">
     <g id="line2d_3">
      <path d="M 309.767442 833.04 
L 309.767442 112.32 
" clip-path="url(#p0d7d152556)" style="fill: none; stroke: #b0b0b0; stroke-width: 0.8; stroke-linecap: square"/>
     </g>
     <g id="line2d_4">
      <g>
       <use xlink:href="#m3e5feb5621" x="309.767442" y="833.04" style="stroke: #000000; stroke-width: 0.8"/>
      </g>
     </g>
     <g id="text_2">
      <!-- 40.0 -->
      <g transform="translate(287.501817 855.236875) scale(0.2 -0.2)">
       <defs>
        <path id="DejaVuSans-34" d="M 2419 4116 
L 825 1625 
L 2419 1625 
L 2419 4116 
z
M 2253 4666 
L 3047 4666 
L 3047 1625 
L 3713 1625 
L 3713 1100 
L 3047 1100 
L 3047 0 
L 2419 0 
L 2419 1100 
L 313 1100 
L 313 1709 
L 2253 4666 
z
" transform="scale(0.015625)"/>
        <path id="DejaVuSans-30" d="M 2034 4250 
Q 1547 4250 1301 3770 
Q 1056 3291 1056 2328 
Q 1056 1369 1301 889 
Q 1547 409 2034 409 
Q 2525 409 2770 889 
Q 3016 1369 3016 2328 
Q 3016 3291 2770 3770 
Q 2525 4250 2034 4250 
z
M 2034 4750 
Q 2819 4750 3233 4129 
Q 3647 3509 3647 2328 
Q 3647 1150 3233 529 
Q 2819 -91 2034 -91 
Q 1250 -91 836 529 
Q 422 1150 422 2328 
Q 422 3509 836 4129 
Q 1250 4750 2034 4750 
z
" transform="scale(0.015625)"/>
       </defs>
       <use xlink:href="#DejaVuSans-34"/>
       <use xlink:href="#DejaVuSans-30" x="63.623047"/>
       <use xlink:href="#DejaVuSans-2e" x="127.246094"/>
       <use xlink:href="#DejaVuSans-30" x="159.033203"/>
      </g>
     </g>
    </g>
    <g id="xtick_3">
     <g id="line2d_5">
      <path d="M 439.534884 833.04 
L 439.534884 112.32 
" clip-path="url(#p0d7d152556)" style="fill: none; stroke: #b0b0b0; stroke-width: 0.8; stroke-linecap: square"/>
     </g>
     <g id="line2d_6">
      <g>
       <use xlink:href="#m3e5feb5621" x="439.534884" y="833.04" style="stroke: #000000; stroke-width: 0.8"/>
      </g>
     </g>
     <g id="text_3">
      <!-- 42.5 -->
      <g transform="translate(417.269259 855.236875) scale(0.2 -0.2)">
       <defs>
        <path id="DejaVuSans-32" d="M 1228 531 
L 3431 531 
L 3431 0 
L 469 0 
L 469 531 
Q 828 903 1448 1529 
Q 2069 2156 2228 2338 
Q 2531 2678 2651 2914 
Q 2772 3150 2772 3378 
Q 2772 3750 2511 3984 
Q 2250 4219 1831 4219 
Q 1534 4219 1204 4116 
Q 875 4013 500 3803 
L 500 4441 
Q 881 4594 1212 4672 
Q 1544 4750 1819 4750 
Q 2544 4750 2975 4387 
Q 3406 4025 3406 3419 
Q 3406 3131 3298 2873 
Q 3191 2616 2906 2266 
Q 2828 2175 2409 1742 
Q 1991 1309 1228 531 
z
" transform="scale(0.015625)"/>
       </defs>
       <use xlink:href="#DejaVuSans-34"/>
       <use xlink:href="#DejaVuSans-32" x="63.623047"/>
       <use xlink:href="#DejaVuSans-2e" x="127.246094"/>
       <use xlink:href="#DejaVuSans-35" x="159.033203"/>
      </g>
     </g>
    </g>
    <g id="xtick_4">
     <g id="line2d_7">
      <path d="M 569.302326 833.04 
L 569.302326 112.32 
" clip-path="url(#p0d7d152556)" style="fill: none; stroke: #b0b0b0; stroke-width: 0.8; stroke-linecap: square"/>
     </g>
     <g id="line2d_8">
      <g>
       <use xlink:href="#m3e5feb5621" x="569.302326" y="833.04" style="stroke: #000000; stroke-width: 0.8"/>
      </g>
     </g>
     <g id="text_4">
      <!-- 45.0 -->
      <g transform="translate(547.036701 855.236875) scale(0.2 -0.2)">
       <use xlink:href="#DejaVuSans-34"/>
       <use xlink:href="#DejaVuSans-35" x="63.623047"/>
       <use xlink:href="#DejaVuSans-2e" x="127.246094"/>
       <use xlink:href="#DejaVuSans-30" x="159.033203"/>
      </g>
     </g>
    </g>
    <g id="xtick_5">
     <g id="line2d_9">
      <path d="M 699.069767 833.04 
L 699.069767 112.32 
" clip-path="url(#p0d7d152556)" style="fill: none; stroke: #b0b0b0; stroke-width: 0.8; stroke-linecap: square"/>
     </g>
     <g id="line2d_10">
      <g>
       <use xlink:href="#m3e5feb5621" x="699.069767" y="833.04" style="stroke: #000000; stroke-width: 0.8"/>
      </g>
     </g>
     <g id="text_5">
      <!-- 47.5 -->
      <g transform="translate(676.804142 855.236875) scale(0.2 -0.2)">
       <use xlink:href="#DejaVuSans-34"/>
       <use xlink:href="#DejaVuSans-37" x="63.623047"/>
       <use xlink:href="#DejaVuSans-2e" x="127.246094"/>
       <use xlink:href="#DejaVuSans-35" x="159.033203"/>
      </g>
     </g>
    </g>
    <g id="xtick_6">
     <g id="line2d_11">
      <path d="M 828.837209 833.04 
L 828.837209 112.32 
" clip-path="url(#p0d7d152556)" style="fill: none; stroke: #b0b0b0; stroke-width: 0.8; stroke-linecap: square"/>
     </g>
     <g id="line2d_12">
      <g>
       <use xlink:href="#m3e5feb5621" x="828.837209" y="833.04" style="stroke: #000000; stroke-width: 0.8"/>
      </g>
     </g>
     <g id="text_6">
      <!-- 50.0 -->
      <g transform="translate(806.571584 855.236875) scale(0.2 -0.2)">
       <use xlink:href="#DejaVuSans-35"/>
       <use xlink:href="#DejaVuSans-30" x="63.623047"/>
       <use xlink:href="#DejaVuSans-2e" x="127.246094"/>
       <use xlink:href="#DejaVuSans-30" x="159.033203"/>
      </g>
     </g>
    </g>
    <g id="xtick_7">
     <g id="line2d_13">
      <path d="M 958.604651 833.04 
L 958.604651 112.32 
" clip-path="url(#p0d7d152556)" style="fill: none; stroke: #b0b0b0; stroke-width: 0.8; stroke-linecap: square"/>
     </g>
     <g id="line2d_14">
      <g>
       <use xlink:href="#m3e5feb5621" x="958.604651" y="833.04" style="stroke: #000000; stroke-width: 0.8"/>
      </g>
     </g>
     <g id="text_7">
      <!-- 52.5 -->
      <g transform="translate(936.339026 855.236875) scale(0.2 -0.2)">
       <use xlink:href="#DejaVuSans-35"/>
       <use xlink:href="#DejaVuSans-32" x="63.623047"/>
       <use xlink:href="#DejaVuSans-2e" x="127.246094"/>
       <use xlink:href="#DejaVuSans-35" x="159.033203"/>
      </g>
     </g>
    </g>
    <g id="xtick_8">
     <g id="line2d_15">
      <path d="M 1088.372093 833.04 
L 1088.372093 112.32 
" clip-path="url(#p0d7d152556)" style="fill: none; stroke: #b0b0b0; stroke-width: 0.8; stroke-linecap: square"/>
     </g>
     <g id="line2d_16">
      <g>
       <use xlink:href="#m3e5feb5621" x="1088.372093" y="833.04" style="stroke: #000000; stroke-width: 0.8"/>
      </g>
     </g>
     <g id="text_8">
      <!-- 55.0 -->
      <g transform="translate(1066.106468 855.236875) scale(0.2 -0.2)">
       <use xlink:href="#DejaVuSans-35"/>
       <use xlink:href="#DejaVuSans-35" x="63.623047"/>
       <use xlink:href="#DejaVuSans-2e" x="127.246094"/>
       <use xlink:href="#DejaVuSans-30" x="159.033203"/>
      </g>
     </g>
    </g>
    <g id="xtick_9">
     <g id="line2d_17">
      <path d="M 1218.139535 833.04 
L 1218.139535 112.32 
" clip-path="url(#p0d7d152556)" style="fill: none; stroke: #b0b0b0; stroke-width: 0.8; stroke-linecap: square"/>
     </g>
     <g id="line2d_18">
      <g>
       <use xlink:href="#m3e5feb5621" x="1218.139535" y="833.04" style="stroke: #000000; stroke-width: 0.8"/>
      </g>
     </g>
     <g id="text_9">
      <!-- 57.5 -->
      <g transform="translate(1195.87391 855.236875) scale(0.2 -0.2)">
       <use xlink:href="#DejaVuSans-35"/>
       <use xlink:href="#DejaVuSans-37" x="63.623047"/>
       <use xlink:href="#DejaVuSans-2e" x="127.246094"/>
       <use xlink:href="#DejaVuSans-35" x="159.033203"/>
      </g>
     </g>
    </g>
    <g id="text_10">
     <!-- Gaskühlerdruck [bar] -->
     <g transform="translate(632.239063 878.593125) scale(0.2 -0.2)">
      <defs>
       <path id="DejaVuSans-47" d="M 3809 666 
L 3809 1919 
L 2778 1919 
L 2778 2438 
L 4434 2438 
L 4434 434 
Q 4069 175 3628 42 
Q 3188 -91 2688 -91 
Q 1594 -91 976 548 
Q 359 1188 359 2328 
Q 359 3472 976 4111 
Q 1594 4750 2688 4750 
Q 3144 4750 3555 4637 
Q 3966 4525 4313 4306 
L 4313 3634 
Q 3963 3931 3569 4081 
Q 3175 4231 2741 4231 
Q 1884 4231 1454 3753 
Q 1025 3275 1025 2328 
Q 1025 1384 1454 906 
Q 1884 428 2741 428 
Q 3075 428 3337 486 
Q 3600 544 3809 666 
z
" transform="scale(0.015625)"/>
       <path id="DejaVuSans-61" d="M 2194 1759 
Q 1497 1759 1228 1600 
Q 959 1441 959 1056 
Q 959 750 1161 570 
Q 1363 391 1709 391 
Q 2188 391 2477 730 
Q 2766 1069 2766 1631 
L 2766 1759 
L 2194 1759 
z
M 3341 1997 
L 3341 0 
L 2766 0 
L 2766 531 
Q 2569 213 2275 61 
Q 1981 -91 1556 -91 
Q 1019 -91 701 211 
Q 384 513 384 1019 
Q 384 1609 779 1909 
Q 1175 2209 1959 2209 
L 2766 2209 
L 2766 2266 
Q 2766 2663 2505 2880 
Q 2244 3097 1772 3097 
Q 1472 3097 1187 3025 
Q 903 2953 641 2809 
L 641 3341 
Q 956 3463 1253 3523 
Q 1550 3584 1831 3584 
Q 2591 3584 2966 3190 
Q 3341 2797 3341 1997 
z
" transform="scale(0.015625)"/>
       <path id="DejaVuSans-73" d="M 2834 3397 
L 2834 2853 
Q 2591 2978 2328 3040 
Q 2066 3103 1784 3103 
Q 1356 3103 1142 2972 
Q 928 2841 928 2578 
Q 928 2378 1081 2264 
Q 1234 2150 1697 2047 
L 1894 2003 
Q 2506 1872 2764 1633 
Q 3022 1394 3022 966 
Q 3022 478 2636 193 
Q 2250 -91 1575 -91 
Q 1294 -91 989 -36 
Q 684 19 347 128 
L 347 722 
Q 666 556 975 473 
Q 1284 391 1588 391 
Q 1994 391 2212 530 
Q 2431 669 2431 922 
Q 2431 1156 2273 1281 
Q 2116 1406 1581 1522 
L 1381 1569 
Q 847 1681 609 1914 
Q 372 2147 372 2553 
Q 372 3047 722 3315 
Q 1072 3584 1716 3584 
Q 2034 3584 2315 3537 
Q 2597 3491 2834 3397 
z
" transform="scale(0.015625)"/>
       <path id="DejaVuSans-6b" d="M 581 4863 
L 1159 4863 
L 1159 1991 
L 2875 3500 
L 3609 3500 
L 1753 1863 
L 3688 0 
L 2938 0 
L 1159 1709 
L 1159 0 
L 581 0 
L 581 4863 
z
" transform="scale(0.015625)"/>
       <path id="DejaVuSans-fc" d="M 544 1381 
L 544 3500 
L 1119 3500 
L 1119 1403 
Q 1119 906 1312 657 
Q 1506 409 1894 409 
Q 2359 409 2629 706 
Q 2900 1003 2900 1516 
L 2900 3500 
L 3475 3500 
L 3475 0 
L 2900 0 
L 2900 538 
Q 2691 219 2414 64 
Q 2138 -91 1772 -91 
Q 1169 -91 856 284 
Q 544 659 544 1381 
z
M 1991 3584 
L 1991 3584 
z
M 2278 4850 
L 2912 4850 
L 2912 4219 
L 2278 4219 
L 2278 4850 
z
M 1056 4850 
L 1690 4850 
L 1690 4219 
L 1056 4219 
L 1056 4850 
z
" transform="scale(0.015625)"/>
       <path id="DejaVuSans-68" d="M 3513 2113 
L 3513 0 
L 2938 0 
L 2938 2094 
Q 2938 2591 2744 2837 
Q 2550 3084 2163 3084 
Q 1697 3084 1428 2787 
Q 1159 2491 1159 1978 
L 1159 0 
L 581 0 
L 581 4863 
L 1159 4863 
L 1159 2956 
Q 1366 3272 1645 3428 
Q 1925 3584 2291 3584 
Q 2894 3584 3203 3211 
Q 3513 2838 3513 2113 
z
" transform="scale(0.015625)"/>
       <path id="DejaVuSans-6c" d="M 603 4863 
L 1178 4863 
L 1178 0 
L 603 0 
L 603 4863 
z
" transform="scale(0.015625)"/>
       <path id="DejaVuSans-65" d="M 3597 1894 
L 3597 1613 
L 953 1613 
Q 991 1019 1311 708 
Q 1631 397 2203 397 
Q 2534 397 2845 478 
Q 3156 559 3463 722 
L 3463 178 
Q 3153 47 2828 -22 
Q 2503 -91 2169 -91 
Q 1331 -91 842 396 
Q 353 884 353 1716 
Q 353 2575 817 3079 
Q 1281 3584 2069 3584 
Q 2775 3584 3186 3129 
Q 3597 2675 3597 1894 
z
M 3022 2063 
Q 3016 2534 2758 2815 
Q 2500 3097 2075 3097 
Q 1594 3097 1305 2825 
Q 1016 2553 972 2059 
L 3022 2063 
z
" transform="scale(0.015625)"/>
       <path id="DejaVuSans-72" d="M 2631 2963 
Q 2534 3019 2420 3045 
Q 2306 3072 2169 3072 
Q 1681 3072 1420 2755 
Q 1159 2438 1159 1844 
L 1159 0 
L 581 0 
L 581 3500 
L 1159 3500 
L 1159 2956 
Q 1341 3275 1631 3429 
Q 1922 3584 2338 3584 
Q 2397 3584 2469 3576 
Q 2541 3569 2628 3553 
L 2631 2963 
z
" transform="scale(0.015625)"/>
       <path id="DejaVuSans-64" d="M 2906 2969 
L 2906 4863 
L 3481 4863 
L 3481 0 
L 2906 0 
L 2906 525 
Q 2725 213 2448 61 
Q 2172 -91 1784 -91 
Q 1150 -91 751 415 
Q 353 922 353 1747 
Q 353 2572 751 3078 
Q 1150 3584 1784 3584 
Q 2172 3584 2448 3432 
Q 2725 3281 2906 2969 
z
M 947 1747 
Q 947 1113 1208 752 
Q 1469 391 1925 391 
Q 2381 391 2643 752 
Q 2906 1113 2906 1747 
Q 2906 2381 2643 2742 
Q 2381 3103 1925 3103 
Q 1469 3103 1208 2742 
Q 947 2381 947 1747 
z
" transform="scale(0.015625)"/>
       <path id="DejaVuSans-75" d="M 544 1381 
L 544 3500 
L 1119 3500 
L 1119 1403 
Q 1119 906 1312 657 
Q 1506 409 1894 409 
Q 2359 409 2629 706 
Q 2900 1003 2900 1516 
L 2900 3500 
L 3475 3500 
L 3475 0 
L 2900 0 
L 2900 538 
Q 2691 219 2414 64 
Q 2138 -91 1772 -91 
Q 1169 -91 856 284 
Q 544 659 544 1381 
z
M 1991 3584 
L 1991 3584 
z
" transform="scale(0.015625)"/>
       <path id="DejaVuSans-63" d="M 3122 3366 
L 3122 2828 
Q 2878 2963 2633 3030 
Q 2388 3097 2138 3097 
Q 1578 3097 1268 2742 
Q 959 2388 959 1747 
Q 959 1106 1268 751 
Q 1578 397 2138 397 
Q 2388 397 2633 464 
Q 2878 531 3122 666 
L 3122 134 
Q 2881 22 2623 -34 
Q 2366 -91 2075 -91 
Q 1284 -91 818 406 
Q 353 903 353 1747 
Q 353 2603 823 3093 
Q 1294 3584 2113 3584 
Q 2378 3584 2631 3529 
Q 2884 3475 3122 3366 
z
" transform="scale(0.015625)"/>
       <path id="DejaVuSans-20" transform="scale(0.015625)"/>
       <path id="DejaVuSans-5b" d="M 550 4863 
L 1875 4863 
L 1875 4416 
L 1125 4416 
L 1125 -397 
L 1875 -397 
L 1875 -844 
L 550 -844 
L 550 4863 
z
" transform="scale(0.015625)"/>
       <path id="DejaVuSans-62" d="M 3116 1747 
Q 3116 2381 2855 2742 
Q 2594 3103 2138 3103 
Q 1681 3103 1420 2742 
Q 1159 2381 1159 1747 
Q 1159 1113 1420 752 
Q 1681 391 2138 391 
Q 2594 391 2855 752 
Q 3116 1113 3116 1747 
z
M 1159 2969 
Q 1341 3281 1617 3432 
Q 1894 3584 2278 3584 
Q 2916 3584 3314 3078 
Q 3713 2572 3713 1747 
Q 3713 922 3314 415 
Q 2916 -91 2278 -91 
Q 1894 -91 1617 61 
Q 1341 213 1159 525 
L 1159 0 
L 581 0 
L 581 4863 
L 1159 4863 
L 1159 2969 
z
" transform="scale(0.015625)"/>
       <path id="DejaVuSans-5d" d="M 1947 4863 
L 1947 -844 
L 622 -844 
L 622 -397 
L 1369 -397 
L 1369 4416 
L 622 4416 
L 622 4863 
L 1947 4863 
z
" transform="scale(0.015625)"/>
      </defs>
      <use xlink:href="#DejaVuSans-47"/>
      <use xlink:href="#DejaVuSans-61" x="77.490234"/>
      <use xlink:href="#DejaVuSans-73" x="138.769531"/>
      <use xlink:href="#DejaVuSans-6b" x="190.869141"/>
      <use xlink:href="#DejaVuSans-fc" x="245.654297"/>
      <use xlink:href="#DejaVuSans-68" x="309.033203"/>
      <use xlink:href="#DejaVuSans-6c" x="372.412109"/>
      <use xlink:href="#DejaVuSans-65" x="400.195312"/>
      <use xlink:href="#DejaVuSans-72" x="461.71875"/>
      <use xlink:href="#DejaVuSans-64" x="501.082031"/>
      <use xlink:href="#DejaVuSans-72" x="564.558594"/>
      <use xlink:href="#DejaVuSans-75" x="605.671875"/>
      <use xlink:href="#DejaVuSans-63" x="669.050781"/>
      <use xlink:href="#DejaVuSans-6b" x="724.03125"/>
      <use xlink:href="#DejaVuSans-20" x="781.941406"/>
      <use xlink:href="#DejaVuSans-5b" x="813.728516"/>
      <use xlink:href="#DejaVuSans-62" x="852.742188"/>
      <use xlink:href="#DejaVuSans-61" x="916.21875"/>
      <use xlink:href="#DejaVuSans-72" x="977.498047"/>
      <use xlink:href="#DejaVuSans-5d" x="1018.611328"/>
     </g>
    </g>
   </g>
   <g id="matplotlib.axis_2">
    <g id="ytick_1">
     <g id="line2d_19">
      <path d="M 180 777.6 
L 1296 777.6 
" clip-path="url(#p0d7d152556)" style="fill: none; stroke: #b0b0b0; stroke-width: 0.8; stroke-linecap: square"/>
     </g>
     <g id="line2d_20">
      <defs>
       <path id="md4c76f2683" d="M 0 0 
L -3.5 0 
" style="stroke: #000000; stroke-width: 0.8"/>
      </defs>
      <g>
       <use xlink:href="#md4c76f2683" x="180" y="777.6" style="stroke: #000000; stroke-width: 0.8"/>
      </g>
     </g>
     <g id="text_11">
      <!-- 60 -->
      <g transform="translate(147.55 785.198437) scale(0.2 -0.2)">
       <defs>
        <path id="DejaVuSans-36" d="M 2113 2584 
Q 1688 2584 1439 2293 
Q 1191 2003 1191 1497 
Q 1191 994 1439 701 
Q 1688 409 2113 409 
Q 2538 409 2786 701 
Q 3034 994 3034 1497 
Q 3034 2003 2786 2293 
Q 2538 2584 2113 2584 
z
M 3366 4563 
L 3366 3988 
Q 3128 4100 2886 4159 
Q 2644 4219 2406 4219 
Q 1781 4219 1451 3797 
Q 1122 3375 1075 2522 
Q 1259 2794 1537 2939 
Q 1816 3084 2150 3084 
Q 2853 3084 3261 2657 
Q 3669 2231 3669 1497 
Q 3669 778 3244 343 
Q 2819 -91 2113 -91 
Q 1303 -91 875 529 
Q 447 1150 447 2328 
Q 447 3434 972 4092 
Q 1497 4750 2381 4750 
Q 2619 4750 2861 4703 
Q 3103 4656 3366 4563 
z
" transform="scale(0.015625)"/>
       </defs>
       <use xlink:href="#DejaVuSans-36"/>
       <use xlink:href="#DejaVuSans-30" x="63.623047"/>
      </g>
     </g>
    </g>
    <g id="ytick_2">
     <g id="line2d_21">
      <path d="M 180 666.72 
L 1296 666.72 
" clip-path="url(#p0d7d152556)" style="fill: none; stroke: #b0b0b0; stroke-width: 0.8; stroke-linecap: square"/>
     </g>
     <g id="line2d_22">
      <g>
       <use xlink:href="#md4c76f2683" x="180" y="666.72" style="stroke: #000000; stroke-width: 0.8"/>
      </g>
     </g>
     <g id="text_12">
      <!-- 62 -->
      <g transform="translate(147.55 674.318437) scale(0.2 -0.2)">
       <use xlink:href="#DejaVuSans-36"/>
       <use xlink:href="#DejaVuSans-32" x="63.623047"/>
      </g>
     </g>
    </g>
    <g id="ytick_3">
     <g id="line2d_23">
      <path d="M 180 555.84 
L 1296 555.84 
" clip-path="url(#p0d7d152556)" style="fill: none; stroke: #b0b0b0; stroke-width: 0.8; stroke-linecap: square"/>
     </g>
     <g id="line2d_24">
      <g>
       <use xlink:href="#md4c76f2683" x="180" y="555.84" style="stroke: #000000; stroke-width: 0.8"/>
      </g>
     </g>
     <g id="text_13">
      <!-- 64 -->
      <g transform="translate(147.55 563.438437) scale(0.2 -0.2)">
       <use xlink:href="#DejaVuSans-36"/>
       <use xlink:href="#DejaVuSans-34" x="63.623047"/>
      </g>
     </g>
    </g>
    <g id="ytick_4">
     <g id="line2d_25">
      <path d="M 180 444.96 
L 1296 444.96 
" clip-path="url(#p0d7d152556)" style="fill: none; stroke: #b0b0b0; stroke-width: 0.8; stroke-linecap: square"/>
     </g>
     <g id="line2d_26">
      <g>
       <use xlink:href="#md4c76f2683" x="180" y="444.96" style="stroke: #000000; stroke-width: 0.8"/>
      </g>
     </g>
     <g id="text_14">
      <!-- 66 -->
      <g transform="translate(147.55 452.558437) scale(0.2 -0.2)">
       <use xlink:href="#DejaVuSans-36"/>
       <use xlink:href="#DejaVuSans-36" x="63.623047"/>
      </g>
     </g>
    </g>
    <g id="ytick_5">
     <g id="line2d_27">
      <path d="M 180 334.08 
L 1296 334.08 
" clip-path="url(#p0d7d152556)" style="fill: none; stroke: #b0b0b0; stroke-width: 0.8; stroke-linecap: square"/>
     </g>
     <g id="line2d_28">
      <g>
       <use xlink:href="#md4c76f2683" x="180" y="334.08" style="stroke: #000000; stroke-width: 0.8"/>
      </g>
     </g>
     <g id="text_15">
      <!-- 68 -->
      <g transform="translate(147.55 341.678437) scale(0.2 -0.2)">
       <defs>
        <path id="DejaVuSans-38" d="M 2034 2216 
Q 1584 2216 1326 1975 
Q 1069 1734 1069 1313 
Q 1069 891 1326 650 
Q 1584 409 2034 409 
Q 2484 409 2743 651 
Q 3003 894 3003 1313 
Q 3003 1734 2745 1975 
Q 2488 2216 2034 2216 
z
M 1403 2484 
Q 997 2584 770 2862 
Q 544 3141 544 3541 
Q 544 4100 942 4425 
Q 1341 4750 2034 4750 
Q 2731 4750 3128 4425 
Q 3525 4100 3525 3541 
Q 3525 3141 3298 2862 
Q 3072 2584 2669 2484 
Q 3125 2378 3379 2068 
Q 3634 1759 3634 1313 
Q 3634 634 3220 271 
Q 2806 -91 2034 -91 
Q 1263 -91 848 271 
Q 434 634 434 1313 
Q 434 1759 690 2068 
Q 947 2378 1403 2484 
z
M 1172 3481 
Q 1172 3119 1398 2916 
Q 1625 2713 2034 2713 
Q 2441 2713 2670 2916 
Q 2900 3119 2900 3481 
Q 2900 3844 2670 4047 
Q 2441 4250 2034 4250 
Q 1625 4250 1398 4047 
Q 1172 3844 1172 3481 
z
" transform="scale(0.015625)"/>
       </defs>
       <use xlink:href="#DejaVuSans-36"/>
       <use xlink:href="#DejaVuSans-38" x="63.623047"/>
      </g>
     </g>
    </g>
    <g id="ytick_6">
     <g id="line2d_29">
      <path d="M 180 223.2 
L 1296 223.2 
" clip-path="url(#p0d7d152556)" style="fill: none; stroke: #b0b0b0; stroke-width: 0.8; stroke-linecap: square"/>
     </g>
     <g id="line2d_30">
      <g>
       <use xlink:href="#md4c76f2683" x="180" y="223.2" style="stroke: #000000; stroke-width: 0.8"/>
      </g>
     </g>
     <g id="text_16">
      <!-- 70 -->
      <g transform="translate(147.55 230.798437) scale(0.2 -0.2)">
       <use xlink:href="#DejaVuSans-37"/>
       <use xlink:href="#DejaVuSans-30" x="63.623047"/>
      </g>
     </g>
    </g>
    <g id="ytick_7">
     <g id="line2d_31">
      <path d="M 180 112.32 
L 1296 112.32 
" clip-path="url(#p0d7d152556)" style="fill: none; stroke: #b0b0b0; stroke-width: 0.8; stroke-linecap: square"/>
     </g>
     <g id="line2d_32">
      <g>
       <use xlink:href="#md4c76f2683" x="180" y="112.32" style="stroke: #000000; stroke-width: 0.8"/>
      </g>
     </g>
     <g id="text_17">
      <!-- 72 -->
      <g transform="translate(147.55 119.918437) scale(0.2 -0.2)">
       <use xlink:href="#DejaVuSans-37"/>
       <use xlink:href="#DejaVuSans-32" x="63.623047"/>
      </g>
     </g>
    </g>
    <g id="text_18">
     <!-- exergetischer Wirkungsgrad [%] -->
     <g transform="translate(139.390625 633.722188) rotate(-90) scale(0.2 -0.2)">
      <defs>
       <path id="DejaVuSans-78" d="M 3513 3500 
L 2247 1797 
L 3578 0 
L 2900 0 
L 1881 1375 
L 863 0 
L 184 0 
L 1544 1831 
L 300 3500 
L 978 3500 
L 1906 2253 
L 2834 3500 
L 3513 3500 
z
" transform="scale(0.015625)"/>
       <path id="DejaVuSans-67" d="M 2906 1791 
Q 2906 2416 2648 2759 
Q 2391 3103 1925 3103 
Q 1463 3103 1205 2759 
Q 947 2416 947 1791 
Q 947 1169 1205 825 
Q 1463 481 1925 481 
Q 2391 481 2648 825 
Q 2906 1169 2906 1791 
z
M 3481 434 
Q 3481 -459 3084 -895 
Q 2688 -1331 1869 -1331 
Q 1566 -1331 1297 -1286 
Q 1028 -1241 775 -1147 
L 775 -588 
Q 1028 -725 1275 -790 
Q 1522 -856 1778 -856 
Q 2344 -856 2625 -561 
Q 2906 -266 2906 331 
L 2906 616 
Q 2728 306 2450 153 
Q 2172 0 1784 0 
Q 1141 0 747 490 
Q 353 981 353 1791 
Q 353 2603 747 3093 
Q 1141 3584 1784 3584 
Q 2172 3584 2450 3431 
Q 2728 3278 2906 2969 
L 2906 3500 
L 3481 3500 
L 3481 434 
z
" transform="scale(0.015625)"/>
       <path id="DejaVuSans-74" d="M 1172 4494 
L 1172 3500 
L 2356 3500 
L 2356 3053 
L 1172 3053 
L 1172 1153 
Q 1172 725 1289 603 
Q 1406 481 1766 481 
L 2356 481 
L 2356 0 
L 1766 0 
Q 1100 0 847 248 
Q 594 497 594 1153 
L 594 3053 
L 172 3053 
L 172 3500 
L 594 3500 
L 594 4494 
L 1172 4494 
z
" transform="scale(0.015625)"/>
       <path id="DejaVuSans-69" d="M 603 3500 
L 1178 3500 
L 1178 0 
L 603 0 
L 603 3500 
z
M 603 4863 
L 1178 4863 
L 1178 4134 
L 603 4134 
L 603 4863 
z
" transform="scale(0.015625)"/>
       <path id="DejaVuSans-57" d="M 213 4666 
L 850 4666 
L 1831 722 
L 2809 4666 
L 3519 4666 
L 4500 722 
L 5478 4666 
L 6119 4666 
L 4947 0 
L 4153 0 
L 3169 4050 
L 2175 0 
L 1381 0 
L 213 4666 
z
" transform="scale(0.015625)"/>
       <path id="DejaVuSans-6e" d="M 3513 2113 
L 3513 0 
L 2938 0 
L 2938 2094 
Q 2938 2591 2744 2837 
Q 2550 3084 2163 3084 
Q 1697 3084 1428 2787 
Q 1159 2491 1159 1978 
L 1159 0 
L 581 0 
L 581 3500 
L 1159 3500 
L 1159 2956 
Q 1366 3272 1645 3428 
Q 1925 3584 2291 3584 
Q 2894 3584 3203 3211 
Q 3513 2838 3513 2113 
z
" transform="scale(0.015625)"/>
       <path id="DejaVuSans-25" d="M 4653 2053 
Q 4381 2053 4226 1822 
Q 4072 1591 4072 1178 
Q 4072 772 4226 539 
Q 4381 306 4653 306 
Q 4919 306 5073 539 
Q 5228 772 5228 1178 
Q 5228 1588 5073 1820 
Q 4919 2053 4653 2053 
z
M 4653 2450 
Q 5147 2450 5437 2106 
Q 5728 1763 5728 1178 
Q 5728 594 5436 251 
Q 5144 -91 4653 -91 
Q 4153 -91 3862 251 
Q 3572 594 3572 1178 
Q 3572 1766 3864 2108 
Q 4156 2450 4653 2450 
z
M 1428 4353 
Q 1159 4353 1004 4120 
Q 850 3888 850 3481 
Q 850 3069 1003 2837 
Q 1156 2606 1428 2606 
Q 1700 2606 1854 2837 
Q 2009 3069 2009 3481 
Q 2009 3884 1853 4118 
Q 1697 4353 1428 4353 
z
M 4250 4750 
L 4750 4750 
L 1831 -91 
L 1331 -91 
L 4250 4750 
z
M 1428 4750 
Q 1922 4750 2215 4408 
Q 2509 4066 2509 3481 
Q 2509 2891 2217 2550 
Q 1925 2209 1428 2209 
Q 931 2209 642 2551 
Q 353 2894 353 3481 
Q 353 4063 643 4406 
Q 934 4750 1428 4750 
z
" transform="scale(0.015625)"/>
      </defs>
      <use xlink:href="#DejaVuSans-65"/>
      <use xlink:href="#DejaVuSans-78" x="59.773438"/>
      <use xlink:href="#DejaVuSans-65" x="115.828125"/>
      <use xlink:href="#DejaVuSans-72" x="177.351562"/>
      <use xlink:href="#DejaVuSans-67" x="216.714844"/>
      <use xlink:href="#DejaVuSans-65" x="280.191406"/>
      <use xlink:href="#DejaVuSans-74" x="341.714844"/>
      <use xlink:href="#DejaVuSans-69" x="380.923828"/>
      <use xlink:href="#DejaVuSans-73" x="408.707031"/>
      <use xlink:href="#DejaVuSans-63" x="460.806641"/>
      <use xlink:href="#DejaVuSans-68" x="515.787109"/>
      <use xlink:href="#DejaVuSans-65" x="579.166016"/>
      <use xlink:href="#DejaVuSans-72" x="640.689453"/>
      <use xlink:href="#DejaVuSans-20" x="681.802734"/>
      <use xlink:href="#DejaVuSans-57" x="713.589844"/>
      <use xlink:href="#DejaVuSans-69" x="810.216797"/>
      <use xlink:href="#DejaVuSans-72" x="838"/>
      <use xlink:href="#DejaVuSans-6b" x="879.113281"/>
      <use xlink:href="#DejaVuSans-75" x="933.898438"/>
      <use xlink:href="#DejaVuSans-6e" x="997.277344"/>
      <use xlink:href="#DejaVuSans-67" x="1060.65625"/>
      <use xlink:href="#DejaVuSans-73" x="1124.132812"/>
      <use xlink:href="#DejaVuSans-67" x="1176.232422"/>
      <use xlink:href="#DejaVuSans-72" x="1239.708984"/>
      <use xlink:href="#DejaVuSans-61" x="1280.822266"/>
      <use xlink:href="#DejaVuSans-64" x="1342.101562"/>
      <use xlink:href="#DejaVuSans-20" x="1405.578125"/>
      <use xlink:href="#DejaVuSans-5b" x="1437.365234"/>
      <use xlink:href="#DejaVuSans-25" x="1476.378906"/>
      <use xlink:href="#DejaVuSans-5d" x="1571.398438"/>
     </g>
    </g>
   </g>
   <g id="line2d_33">
    <path d="M 205.953488 827.963722 
L 219.094495 724.675962 
L 232.235502 618.804577 
L 245.376509 542.296953 
L 258.517515 494.021 
L 271.658522 462.128703 
L 284.799529 439.573054 
L 297.940536 422.766186 
L 311.081543 409.773482 
L 324.222549 399.46564 
L 337.363556 391.136074 
L 350.504563 384.316957 
L 363.64557 378.684052 
L 376.786576 374.004114 
L 389.927583 370.104116 
L 403.06859 366.852362 
L 416.209597 364.146426 
L 429.350603 361.905149 
L 442.49161 360.063191 
L 455.632617 358.567211 
L 468.773624 357.373129 
L 481.914631 356.444125 
L 495.055637 355.749147 
L 508.196644 355.261785 
L 521.337651 354.959403 
L 534.478658 354.822464 
L 547.619664 354.834001 
L 560.760671 354.979201 
L 573.901678 355.245046 
L 587.042685 355.620065 
L 600.183691 356.094089 
L 613.324698 356.658074 
L 626.465705 357.303946 
L 639.606712 358.02447 
L 652.747719 358.813145 
L 665.888725 359.664109 
L 679.029732 360.572067 
L 692.170739 361.532218 
L 705.311746 362.540202 
L 718.452752 363.592053 
L 731.593759 364.684147 
L 744.734766 365.813177 
L 757.875773 366.976113 
L 771.01678 368.170176 
L 784.157786 369.392812 
L 797.298793 370.641672 
L 810.4398 371.914592 
L 823.580807 373.209575 
L 836.721813 374.524775 
L 849.86282 375.858488 
L 863.003827 377.209132 
L 876.144834 378.575243 
L 889.28584 379.955464 
L 902.426847 381.348532 
L 915.567854 382.753274 
L 928.708861 384.168605 
L 941.849868 385.593501 
L 954.990874 387.02702 
L 968.131881 388.46828 
L 981.272888 389.916459 
L 994.413895 391.37079 
L 1007.554901 392.830555 
L 1020.695908 394.295085 
L 1033.836915 395.763755 
L 1046.977922 397.235978 
L 1060.118928 398.711207 
L 1073.259935 400.188931 
L 1086.400942 401.668669 
L 1099.541949 403.149974 
L 1112.682956 404.632425 
L 1125.823962 406.115626 
L 1138.964969 407.599209 
L 1152.105976 409.08283 
L 1165.246983 410.566164 
L 1178.387989 412.048907 
L 1191.528996 413.530776 
L 1204.670003 415.011504 
L 1217.81101 416.490842 
L 1230.952016 417.968556 
L 1244.093023 419.444426 
" clip-path="url(#p0d7d152556)" style="fill: none; stroke: #000000; stroke-width: 1.5; stroke-linecap: square"/>
   </g>
   <g id="line2d_34">
    <path d="M 205.953488 792.28338 
L 219.094495 687.870681 
L 232.235502 580.846217 
L 245.376509 503.505325 
L 258.517515 454.703583 
L 271.658522 422.463937 
L 284.799529 399.662627 
L 297.940536 382.672711 
L 311.081543 369.538499 
L 324.222549 359.118392 
L 337.363556 350.698105 
L 350.504563 343.804719 
L 363.64557 338.110465 
L 376.786576 333.379556 
L 389.927583 329.437081 
L 403.06859 326.149912 
L 416.209597 323.414504 
L 429.350603 321.148817 
L 442.49161 319.286797 
L 455.632617 317.774525 
L 468.773624 316.567437 
L 481.914631 315.628315 
L 495.055637 314.925769 
L 508.196644 314.433098 
L 521.337651 314.127423 
L 534.478658 313.988992 
L 547.619664 314.000655 
L 560.760671 314.147436 
L 573.901678 314.416177 
L 587.042685 314.79528 
L 600.183691 315.274467 
L 613.324698 315.844595 
L 626.465705 316.497501 
L 639.606712 317.225873 
L 652.747719 318.023137 
L 665.888725 318.883369 
L 679.029732 319.801216 
L 692.170739 320.771825 
L 705.311746 321.790787 
L 718.452752 322.854093 
L 731.593759 323.958082 
L 744.734766 325.099409 
L 757.875773 326.275011 
L 771.01678 327.482078 
L 784.157786 328.71803 
L 797.298793 329.980492 
L 810.4398 331.267276 
L 823.580807 332.576363 
L 836.721813 333.905888 
L 849.86282 335.254126 
L 863.003827 336.61948 
L 876.144834 338.00047 
L 889.28584 339.395723 
L 902.426847 340.803964 
L 915.567854 342.224006 
L 928.708861 343.654751 
L 941.849868 345.095166 
L 954.990874 346.544298 
L 968.131881 348.001255 
L 981.272888 349.465207 
L 994.413895 350.935378 
L 1007.554901 352.411042 
L 1020.695908 353.891522 
L 1033.836915 355.376187 
L 1046.977922 356.864445 
L 1060.118928 358.355742 
L 1073.259935 359.84956 
L 1086.400942 361.345414 
L 1099.541949 362.842852 
L 1112.682956 364.341449 
L 1125.823962 365.840804 
L 1138.964969 367.340546 
L 1152.105976 368.840325 
L 1165.246983 370.339814 
L 1178.387989 371.838707 
L 1191.528996 373.336715 
L 1204.670003 374.83357 
L 1217.81101 376.32902 
L 1230.952016 377.822828 
L 1244.093023 379.314772 
" clip-path="url(#p0d7d152556)" style="fill: none; stroke: #000000; stroke-width: 1.5; stroke-linecap: square"/>
   </g>
   <g id="line2d_35">
    <path d="M 205.953488 757.034702 
L 219.094495 651.510672 
L 232.235502 543.34708 
L 245.376509 465.183 
L 258.517515 415.861831 
L 271.658522 383.279038 
L 284.799529 360.235039 
L 297.940536 343.064289 
L 311.081543 329.790281 
L 324.222549 319.259266 
L 337.363556 310.749357 
L 350.504563 303.7826 
L 363.64557 298.027738 
L 376.786576 293.246475 
L 389.927583 289.262039 
L 403.06859 285.939882 
L 416.209597 283.17536 
L 429.350603 280.885557 
L 442.49161 279.003719 
L 455.632617 277.47535 
L 468.773624 276.255415 
L 481.914631 275.306297 
L 495.055637 274.596273 
L 508.196644 274.098359 
L 521.337651 273.78943 
L 534.478658 273.649526 
L 547.619664 273.661313 
L 560.760671 273.809656 
L 573.901678 274.081258 
L 587.042685 274.464396 
L 600.183691 274.948683 
L 613.324698 275.524879 
L 626.465705 276.184735 
L 639.606712 276.920859 
L 652.747719 277.726608 
L 665.888725 278.595997 
L 679.029732 279.523613 
L 692.170739 280.504552 
L 705.311746 281.53436 
L 718.452752 282.608984 
L 731.593759 283.724723 
L 744.734766 284.878198 
L 757.875773 286.066312 
L 771.01678 287.286227 
L 784.157786 288.535334 
L 797.298793 289.811234 
L 810.4398 291.111713 
L 823.580807 292.434734 
L 836.721813 293.778409 
L 849.86282 295.140998 
L 863.003827 296.520884 
L 876.144834 297.916573 
L 889.28584 299.326677 
L 902.426847 300.749906 
L 915.567854 302.185063 
L 928.708861 303.631036 
L 941.849868 305.086782 
L 954.990874 306.551338 
L 968.131881 308.023803 
L 981.272888 309.503337 
L 994.413895 310.989155 
L 1007.554901 312.480525 
L 1020.695908 313.976764 
L 1033.836915 315.477231 
L 1046.977922 316.981329 
L 1060.118928 318.488499 
L 1073.259935 319.998217 
L 1086.400942 321.509992 
L 1099.541949 323.023368 
L 1112.682956 324.537916 
L 1125.823962 326.053229 
L 1138.964969 327.568934 
L 1152.105976 329.084676 
L 1165.246983 330.600125 
L 1178.387989 332.114971 
L 1191.528996 333.628924 
L 1204.670003 335.141711 
L 1217.81101 336.653078 
L 1230.952016 338.162785 
L 1244.093023 339.670609 
" clip-path="url(#p0d7d152556)" style="fill: none; stroke: #000000; stroke-width: 1.5; stroke-linecap: square"/>
   </g>
   <g id="line2d_36">
    <path d="M 205.953488 722.200932 
L 219.094495 615.578655 
L 232.235502 506.289342 
L 245.376509 427.311765 
L 258.517515 377.477281 
L 271.658522 344.555381 
L 284.799529 321.271551 
L 297.940536 303.922094 
L 311.081543 290.509936 
L 324.222549 279.869319 
L 337.363556 271.270843 
L 350.504563 264.231579 
L 363.64557 258.416823 
L 376.786576 253.585799 
L 389.927583 249.559894 
L 403.06859 246.203161 
L 416.209597 243.409867 
L 429.350603 241.096233 
L 442.49161 239.19481 
L 455.632617 237.650535 
L 468.773624 236.417903 
L 481.914631 235.458907 
L 495.055637 234.741493 
L 508.196644 234.238396 
L 521.337651 233.926252 
L 534.478658 233.784892 
L 547.619664 233.796802 
L 560.760671 233.946689 
L 573.901678 234.221117 
L 587.042685 234.608243 
L 600.183691 235.09757 
L 613.324698 235.679763 
L 626.465705 236.346487 
L 639.606712 237.090272 
L 652.747719 237.904407 
L 665.888725 238.782844 
L 679.029732 239.720114 
L 692.170739 240.711263 
L 705.311746 241.751789 
L 718.452752 242.837597 
L 731.593759 243.964948 
L 744.734766 245.130427 
L 757.875773 246.330907 
L 771.01678 247.563519 
L 784.157786 248.825626 
L 797.298793 250.114804 
L 810.4398 251.428819 
L 823.580807 252.765609 
L 836.721813 254.123269 
L 849.86282 255.500038 
L 863.003827 256.894286 
L 876.144834 258.304501 
L 889.28584 259.72928 
L 902.426847 261.167322 
L 915.567854 262.617415 
L 928.708861 264.078437 
L 941.849868 265.549334 
L 954.990874 267.029133 
L 968.131881 268.516922 
L 981.272888 270.011854 
L 994.413895 271.513136 
L 1007.554901 273.020028 
L 1020.695908 274.531839 
L 1033.836915 276.047922 
L 1046.977922 277.567674 
L 1060.118928 279.09053 
L 1073.259935 280.61596 
L 1086.400942 282.14347 
L 1099.541949 283.672596 
L 1112.682956 285.202907 
L 1125.823962 286.733991 
L 1138.964969 288.26547 
L 1152.105976 289.796987 
L 1165.246983 291.328209 
L 1178.387989 292.858821 
L 1191.528996 294.38853 
L 1204.670003 295.917062 
L 1217.81101 297.444158 
L 1230.952016 298.969578 
L 1244.093023 300.493095 
" clip-path="url(#p0d7d152556)" style="fill: none; stroke: #000000; stroke-width: 1.5; stroke-linecap: square"/>
   </g>
   <g id="line2d_37">
    <path d="M 205.953488 687.765269 
L 219.094495 580.057294 
L 232.235502 469.655128 
L 245.376509 389.873349 
L 258.517515 339.531419 
L 271.658522 306.274287 
L 284.799529 282.753365 
L 297.940536 265.227245 
L 311.081543 251.678516 
L 324.222549 240.929549 
L 337.363556 232.243518 
L 350.504563 225.132575 
L 363.64557 219.25861 
L 376.786576 214.378393 
L 389.927583 210.311494 
L 403.06859 206.92058 
L 416.209597 204.098843 
L 429.350603 201.76165 
L 442.49161 199.840866 
L 455.632617 198.280866 
L 468.773624 197.035682 
L 481.914631 196.066921 
L 495.055637 195.342202 
L 508.196644 194.833983 
L 521.337651 194.51866 
L 534.478658 194.375861 
L 547.619664 194.387892 
L 560.760671 194.539306 
L 573.901678 194.816528 
L 587.042685 195.207596 
L 600.183691 195.701906 
L 613.324698 196.290027 
L 626.465705 196.963539 
L 639.606712 197.714898 
L 652.747719 198.537324 
L 665.888725 199.424705 
L 679.029732 200.371519 
L 692.170739 201.372761 
L 705.311746 202.423881 
L 718.452752 203.520746 
L 731.593759 204.659577 
L 744.734766 205.836924 
L 757.875773 207.049628 
L 771.01678 208.29479 
L 784.157786 209.569749 
L 797.298793 210.872055 
L 810.4398 212.199449 
L 823.580807 213.549851 
L 836.721813 214.921336 
L 849.86282 216.312125 
L 863.003827 217.72057 
L 876.144834 219.145144 
L 889.28584 220.584431 
L 902.426847 222.037116 
L 915.567854 223.501975 
L 928.708861 224.977874 
L 941.849868 226.463749 
L 954.990874 227.958616 
L 968.131881 229.461555 
L 981.272888 230.971709 
L 994.413895 232.488278 
L 1007.554901 234.010514 
L 1020.695908 235.537719 
L 1033.836915 237.069241 
L 1046.977922 238.604468 
L 1060.118928 240.14283 
L 1073.259935 241.683793 
L 1086.400942 243.226857 
L 1099.541949 244.771554 
L 1112.682956 246.317447 
L 1125.823962 247.864122 
L 1138.964969 249.411195 
L 1152.105976 250.958308 
L 1165.246983 252.505121 
L 1178.387989 254.051318 
L 1191.528996 255.596604 
L 1204.670003 257.1407 
L 1217.81101 258.683347 
L 1230.952016 260.224299 
L 1244.093023 261.763329 
" clip-path="url(#p0d7d152556)" style="fill: none; stroke: #000000; stroke-width: 1.5; stroke-linecap: square"/>
   </g>
   <g id="line2d_38">
    <path d="M 205.953488 653.710762 
L 219.094495 544.929107 
L 232.235502 433.426404 
L 245.376509 352.849326 
L 258.517515 302.005566 
L 271.658522 268.416913 
L 284.799529 244.661524 
L 297.940536 226.960696 
L 311.081543 213.276908 
L 324.222549 202.42079 
L 337.363556 193.648173 
L 350.504563 186.466345 
L 363.64557 180.533826 
L 376.786576 175.604961 
L 389.927583 171.497521 
L 403.06859 168.072805 
L 416.209597 165.22294 
L 429.350603 162.862449 
L 442.49161 160.922517 
L 455.632617 159.346966 
L 468.773624 158.089371 
L 481.914631 157.110952 
L 495.055637 156.379009 
L 508.196644 155.865724 
L 521.337651 155.547258 
L 534.478658 155.403035 
L 547.619664 155.415186 
L 560.760671 155.568109 
L 573.901678 155.848095 
L 587.042685 156.24306 
L 600.183691 156.742298 
L 613.324698 157.336282 
L 626.465705 158.016508 
L 639.606712 158.775357 
L 652.747719 159.605981 
L 665.888725 160.502208 
L 679.029732 161.45846 
L 692.170739 162.469683 
L 705.311746 163.531281 
L 718.452752 164.63908 
L 731.593759 165.789263 
L 744.734766 166.978346 
L 757.875773 168.203139 
L 771.01678 169.460714 
L 784.157786 170.748382 
L 797.298793 172.06367 
L 810.4398 173.404297 
L 823.580807 174.76816 
L 836.721813 176.153316 
L 849.86282 177.557969 
L 863.003827 178.980454 
L 876.144834 180.419229 
L 889.28584 181.872864 
L 902.426847 183.340029 
L 915.567854 184.81949 
L 928.708861 186.310102 
L 941.849868 187.810789 
L 954.990874 189.320557 
L 968.131881 190.838478 
L 981.272888 192.363686 
L 994.413895 193.895373 
L 1007.554901 195.432784 
L 1020.695908 196.975212 
L 1033.836915 198.522001 
L 1046.977922 200.072532 
L 1060.118928 201.626229 
L 1073.259935 203.182553 
L 1086.400942 204.740999 
L 1099.541949 206.301094 
L 1112.682956 207.862397 
L 1125.823962 209.42449 
L 1138.964969 210.986985 
L 1152.105976 212.54952 
L 1165.246983 214.111752 
L 1178.387989 215.673363 
L 1191.528996 217.234053 
L 1204.670003 218.793541 
L 1217.81101 220.351565 
L 1230.952016 221.907879 
L 1244.093023 223.462251 
" clip-path="url(#p0d7d152556)" style="fill: none; stroke: #000000; stroke-width: 1.5; stroke-linecap: square"/>
   </g>
   <g id="line2d_39">
    <path d="M 205.953488 620.020206 
L 219.094495 510.176347 
L 232.235502 397.584869 
L 245.376509 316.220991 
L 258.517515 264.880764 
L 271.658522 230.964132 
L 284.799529 206.976783 
L 297.940536 189.103114 
L 311.081543 175.28571 
L 324.222549 164.323587 
L 337.363556 155.465309 
L 350.504563 148.213354 
L 363.64557 142.222906 
L 376.786576 137.245912 
L 389.927583 133.098365 
L 403.06859 129.640209 
L 416.209597 126.762516 
L 429.350603 124.378976 
L 442.49161 122.420101 
L 455.632617 120.829166 
L 468.773624 119.55929 
L 481.914631 118.571318 
L 495.055637 117.832228 
L 508.196644 117.31393 
L 521.337651 116.992355 
L 534.478658 116.846724 
L 547.619664 116.858994 
L 560.760671 117.01341 
L 573.901678 117.296129 
L 587.042685 117.694952 
L 600.183691 118.199064 
L 613.324698 118.798848 
L 626.465705 119.485716 
L 639.606712 120.251975 
L 652.747719 121.09071 
L 665.888725 121.995688 
L 679.029732 122.961278 
L 692.170739 123.982374 
L 705.311746 125.054339 
L 718.452752 126.172955 
L 731.593759 127.334369 
L 744.734766 128.535063 
L 757.875773 129.771815 
L 771.01678 131.04167 
L 784.157786 132.341912 
L 797.298793 133.670042 
L 810.4398 135.02376 
L 823.580807 136.40094 
L 836.721813 137.799622 
L 849.86282 139.217991 
L 863.003827 140.654366 
L 876.144834 142.10719 
L 889.28584 143.575019 
L 902.426847 145.05651 
L 915.567854 146.550418 
L 928.708861 148.055585 
L 941.849868 149.570925 
L 954.990874 151.095436 
L 968.131881 152.628179 
L 981.272888 154.16828 
L 994.413895 155.714923 
L 1007.554901 157.267345 
L 1020.695908 158.824835 
L 1033.836915 160.386727 
L 1046.977922 161.952398 
L 1060.118928 163.521267 
L 1073.259935 165.092788 
L 1086.400942 166.666451 
L 1099.541949 168.24178 
L 1112.682956 169.818329 
L 1125.823962 171.395674 
L 1138.964969 172.973427 
L 1152.105976 174.551219 
L 1165.246983 176.128706 
L 1178.387989 177.705565 
L 1191.528996 179.281495 
L 1204.670003 180.856211 
L 1217.81101 182.429448 
L 1230.952016 184.000958 
L 1244.093023 185.570508 
" clip-path="url(#p0d7d152556)" style="fill: none; stroke: #000000; stroke-width: 1.5; stroke-linecap: square"/>
   </g>
   <g id="line2d_40">
    <path d="M 206.763688 645.932946 
L 208.964625 628.532866 
L 211.167474 610.45113 
L 213.372235 591.724442 
L 215.57891 572.425369 
L 217.787501 552.66957 
L 219.998009 532.6191 
L 222.210436 512.478805 
L 224.424782 492.483879 
L 226.64105 472.879315 
L 228.859241 453.895356 
L 231.079356 435.724895 
L 233.301398 418.509478 
L 235.525366 402.333379 
L 237.751264 387.228662 
L 239.979092 373.184998 
L 242.208851 360.160983 
L 244.440544 348.096316 
L 246.674172 336.920326 
L 248.909737 326.558852 
L 251.147239 316.938727 
L 253.38668 307.990483 
L 255.628063 299.649805 
L 257.871387 291.858121 
L 260.116656 284.562664 
L 262.36387 277.716228 
L 264.613031 271.276755 
L 266.864141 265.206859 
L 269.1172 259.47333 
L 271.372211 254.046666 
L 273.629175 248.900631 
L 275.888094 244.01186 
L 278.148969 239.359509 
L 280.411801 234.924945 
L 282.676593 230.691477 
L 284.943346 226.644102 
L 287.212061 222.769331 
L 289.48274 219.054985 
L 291.755385 215.490053 
L 294.029996 212.064551 
L 296.306576 208.769406 
L 298.585127 205.596358 
L 300.865649 202.537867 
L 303.148144 199.587035 
L 305.432615 196.737543 
L 307.719062 193.983586 
L 310.007487 191.319822 
L 312.297892 188.741328 
L 314.590278 186.243555 
L 316.884647 183.822298 
L 319.181001 181.473656 
L 321.479341 179.19401 
L 323.779668 176.979996 
L 326.081985 174.828481 
L 328.386293 172.736543 
L 330.692593 170.701453 
L 333.000888 168.720661 
L 335.311178 166.791778 
L 337.623466 164.912564 
L 339.937753 163.080918 
L 342.254041 161.294865 
L 344.572331 159.552544 
L 346.892626 157.852207 
L 349.214926 156.192202 
L 351.539233 154.57097 
L 353.865549 152.98704 
L 356.193876 151.439018 
L 358.524216 149.925588 
L 360.856569 148.445499 
L 363.190938 146.997567 
L 365.527324 145.580668 
L 367.86573 144.193733 
L 370.206156 142.835747 
L 372.548604 141.505743 
L 374.893077 140.202801 
L 377.239575 138.926044 
L 379.588101 137.674636 
L 381.938656 136.447778 
L 384.291242 135.244708 
L 386.64586 134.064698 
" clip-path="url(#p0d7d152556)" style="fill: none; stroke-dasharray: 5.55,2.4; stroke-dashoffset: 0; stroke: #ff0000; stroke-width: 1.5"/>
   </g>
   <g id="line2d_41">
    <path d="M 204.93489 693.841487 
L 209.474589 658.702953 
L 214.022424 620.748931 
L 218.57841 580.55683 
L 223.142558 539.457517 
L 227.714881 499.405643 
L 232.295393 462.335362 
L 236.884106 429.450317 
L 241.481033 401.031578 
L 246.086188 376.730643 
L 250.699583 355.945016 
L 255.321232 338.0537 
L 259.951149 322.515159 
L 264.589345 308.888896 
L 269.235836 296.826613 
L 273.890634 286.055218 
L 278.553753 276.360254 
L 283.225206 267.572197 
L 287.905007 259.55582 
L 292.59317 252.202211 
L 297.289709 245.422746 
L 301.994637 239.1446 
L 306.707968 233.307371 
L 311.429716 227.860511 
L 316.159895 222.761367 
L 320.89852 217.973672 
L 325.645604 213.466362 
L 330.401161 209.212654 
L 335.165206 205.189313 
L 339.937753 201.376062 
L 344.718817 197.755115 
L 349.508412 194.310789 
L 354.306552 191.029191 
L 359.113252 187.89796 
L 363.928526 184.906056 
L 368.75239 182.043576 
L 373.584858 179.301611 
L 378.425945 176.672112 
L 383.275666 174.14779 
L 388.134036 171.722023 
L 393.00107 169.388772 
L 397.876782 167.142525 
L 402.761171 164.978236 
L 407.654287 162.891258 
L 412.556128 160.87733 
L 417.466709 158.932515 
L 422.386045 157.053178 
L 427.314152 155.235952 
L 432.251046 153.477712 
L 437.196742 151.775556 
L 442.151256 150.126783 
L 447.114604 148.528873 
L 452.086801 146.979474 
L 457.067864 145.476386 
L 462.057809 144.017548 
L 467.056651 142.601029 
L 472.064407 141.225013 
L 477.081093 139.887796 
L 482.106725 138.587771 
L 487.14132 137.323426 
L 492.184895 136.093333 
L 497.237464 134.896142 
L 502.299047 133.730579 
L 507.369658 132.595438 
L 512.449314 131.489576 
L 517.538033 130.41191 
L 522.635832 129.36141 
L 527.742727 128.337099 
L 532.858735 127.33805 
L 537.983874 126.363378 
L 543.118161 125.412242 
L 548.261612 124.483841 
L 553.414246 123.577413 
L 558.57608 122.692224 
L 563.747131 121.827578 
L 568.927417 120.982812 
L 574.116955 120.157289 
L 579.315764 119.350399 
L 584.523861 118.561561 
L 589.741264 117.790215 
" clip-path="url(#p0d7d152556)" style="fill: none; stroke-dasharray: 5.55,2.4; stroke-dashoffset: 0; stroke: #ffa500; stroke-width: 1.5"/>
   </g>
   <g id="line2d_42">
    <path d="M 204.93489 762.928258 
L 214.115322 690.455714 
L 223.329023 609.880859 
L 232.576099 533.777096 
L 241.856655 473.640874 
L 251.170802 429.561562 
L 260.518646 396.905002 
L 269.900298 371.799866 
L 279.31587 351.780003 
L 288.765471 335.324237 
L 298.249217 321.468479 
L 307.767219 309.576952 
L 317.319593 299.213661 
L 326.906456 290.068964 
L 336.527923 281.916163 
L 346.184113 274.584878 
L 355.875144 267.944124 
L 365.601138 261.891209 
L 375.362215 256.344237 
L 385.158496 251.236907 
L 394.990107 246.514834 
L 404.857153 242.132877 
L 414.759796 238.053169 
L 424.698145 234.243658 
L 434.672327 230.676976 
L 444.682472 227.329574 
L 454.728709 224.181048 
L 464.811171 221.21361 
L 474.92999 218.411656 
L 485.0853 215.761431 
L 495.277236 213.250745 
L 505.505934 210.86875 
L 515.771532 208.605748 
L 526.074168 206.453037 
L 536.413983 204.402779 
L 546.791118 202.447892 
L 557.205716 200.581959 
L 567.657921 198.799135 
L 578.147877 197.0941 
L 588.675731 195.461988 
L 599.241633 193.89834 
L 609.845729 192.39906 
L 620.488172 190.960375 
L 631.169114 189.578809 
L 641.888707 188.251145 
L 652.647107 186.974407 
L 663.44447 185.745833 
L 674.280954 184.562856 
L 685.156717 183.423089 
L 696.071921 182.324304 
L 707.026728 181.264426 
L 718.021301 180.241513 
L 729.055805 179.253747 
L 740.130408 178.299425 
L 751.245276 177.376949 
L 762.400581 176.484821 
L 773.596494 175.621628 
L 784.833187 174.786043 
L 796.110836 173.976817 
L 807.429615 173.192768 
L 818.789704 172.432785 
L 830.191283 171.695815 
L 841.634531 170.980865 
L 853.119632 170.286993 
L 864.646772 169.613309 
L 876.216136 168.95897 
L 887.827912 168.323174 
L 899.482292 167.705162 
L 911.179466 167.104213 
L 922.919629 166.519646 
L 934.702976 165.950803 
L 946.529704 165.397067 
L 958.400014 164.85785 
L 970.314107 164.332589 
L 982.272185 163.820751 
L 994.274455 163.321825 
L 1006.321124 162.835327 
L 1018.412401 162.360792 
L 1030.548498 161.897778 
L 1042.729629 161.445863 
" clip-path="url(#p0d7d152556)" style="fill: none; stroke-dasharray: 5.55,2.4; stroke-dashoffset: 0; stroke: #008000; stroke-width: 1.5"/>
   </g>
   <g id="line2d_43">
    <path d="M 204.93489 833.668321 
L 215.973991 747.071319 
L 227.061191 652.167782 
L 238.196675 571.307289 
L 249.380629 514.210526 
L 260.613241 474.583657 
L 271.894703 445.668256 
L 283.225206 423.442777 
L 294.604946 405.643168 
L 306.03412 390.937949 
L 317.512926 378.497705 
L 329.041565 367.77778 
L 340.620241 358.404084 
L 352.249159 350.10984 
L 363.928526 342.698713 
L 375.658554 336.022329 
L 387.439453 329.965994 
L 399.271421 324.439313 
L 411.154711 319.36983 
L 423.089523 314.698629 
L 435.076079 310.377166 
L 447.114604 306.364991 
L 459.205323 302.628056 
L 471.348467 299.137435 
L 483.544266 295.868356 
L 495.792954 292.799446 
L 508.094769 289.912139 
L 520.449948 287.190212 
L 532.858735 284.619403 
L 545.321374 282.187116 
L 557.838111 279.882174 
L 570.409197 277.694603 
L 583.034885 275.615484 
L 595.715429 273.636804 
L 608.451088 271.751335 
L 621.242124 269.952542 
L 634.0888 268.234495 
L 646.991383 266.591798 
L 659.950142 265.01953 
L 672.965352 263.51319 
L 686.037287 262.068653 
L 699.166227 260.682127 
L 712.352453 259.350124 
L 725.596252 258.069425 
L 738.897911 256.837056 
L 752.257722 255.650264 
L 765.675979 254.506495 
L 779.152982 253.40338 
L 792.689031 252.338713 
L 806.284432 251.310441 
L 819.939492 250.316648 
L 833.654525 249.355547 
L 847.429844 248.425465 
L 861.26577 247.524838 
L 875.162625 246.652199 
L 889.120736 245.806175 
L 903.140432 244.985473 
L 917.222048 244.188881 
L 931.365921 243.415261 
L 945.572393 242.663533 
L 959.841811 241.932689 
L 974.174523 241.221774 
L 988.570885 240.529889 
L 1003.031254 239.856184 
L 1017.555992 239.199858 
L 1032.145467 238.560152 
L 1046.80005 237.936348 
L 1061.520117 237.327768 
L 1076.306048 236.73377 
L 1091.158228 236.153745 
L 1106.077047 235.587119 
L 1121.062899 235.03334 
L 1136.116184 234.491893 
L 1151.237307 233.962285 
L 1166.426676 233.444051 
L 1181.684708 232.936748 
L 1197.011823 232.439954 
L 1212.408445 231.953272 
L 1227.875006 231.476322 
L 1243.411943 231.008744 
" clip-path="url(#p0d7d152556)" style="fill: none; stroke-dasharray: 5.55,2.4; stroke-dashoffset: 0; stroke: #4682b4; stroke-width: 1.5"/>
   </g>
   <g id="patch_3">
    <path d="M 180 833.04 
L 180 112.32 
" style="fill: none; stroke: #000000; stroke-width: 0.8; stroke-linejoin: miter; stroke-linecap: square"/>
   </g>
   <g id="patch_4">
    <path d="M 1296 833.04 
L 1296 112.32 
" style="fill: none; stroke: #000000; stroke-width: 0.8; stroke-linejoin: miter; stroke-linecap: square"/>
   </g>
   <g id="patch_5">
    <path d="M 180 833.04 
L 1296 833.04 
" style="fill: none; stroke: #000000; stroke-width: 0.8; stroke-linejoin: miter; stroke-linecap: square"/>
   </g>
   <g id="patch_6">
    <path d="M 180 112.32 
L 1296 112.32 
" style="fill: none; stroke: #000000; stroke-width: 0.8; stroke-linejoin: miter; stroke-linecap: square"/>
   </g>
   <g id="text_19">
    <!-- 190 -->
    <g transform="translate(1249.283721 428.328) scale(0.2 -0.2)">
     <defs>
      <path id="DejaVuSans-31" d="M 794 531 
L 1825 531 
L 1825 4091 
L 703 3866 
L 703 4441 
L 1819 4666 
L 2450 4666 
L 2450 531 
L 3481 531 
L 3481 0 
L 794 0 
L 794 531 
z
" transform="scale(0.015625)"/>
      <path id="DejaVuSans-39" d="M 703 97 
L 703 672 
Q 941 559 1184 500 
Q 1428 441 1663 441 
Q 2288 441 2617 861 
Q 2947 1281 2994 2138 
Q 2813 1869 2534 1725 
Q 2256 1581 1919 1581 
Q 1219 1581 811 2004 
Q 403 2428 403 3163 
Q 403 3881 828 4315 
Q 1253 4750 1959 4750 
Q 2769 4750 3195 4129 
Q 3622 3509 3622 2328 
Q 3622 1225 3098 567 
Q 2575 -91 1691 -91 
Q 1453 -91 1209 -44 
Q 966 3 703 97 
z
M 1959 2075 
Q 2384 2075 2632 2365 
Q 2881 2656 2881 3163 
Q 2881 3666 2632 3958 
Q 2384 4250 1959 4250 
Q 1534 4250 1286 3958 
Q 1038 3666 1038 3163 
Q 1038 2656 1286 2365 
Q 1534 2075 1959 2075 
z
" transform="scale(0.015625)"/>
     </defs>
     <use xlink:href="#DejaVuSans-31"/>
     <use xlink:href="#DejaVuSans-39" x="63.623047"/>
     <use xlink:href="#DejaVuSans-30" x="127.246094"/>
    </g>
   </g>
   <g id="text_20">
    <!-- 195 -->
    <g transform="translate(1249.283721 389.52) scale(0.2 -0.2)">
     <use xlink:href="#DejaVuSans-31"/>
     <use xlink:href="#DejaVuSans-39" x="63.623047"/>
     <use xlink:href="#DejaVuSans-35" x="127.246094"/>
    </g>
   </g>
   <g id="text_21">
    <!-- 200 -->
    <g transform="translate(1249.283721 350.712) scale(0.2 -0.2)">
     <use xlink:href="#DejaVuSans-32"/>
     <use xlink:href="#DejaVuSans-30" x="63.623047"/>
     <use xlink:href="#DejaVuSans-30" x="127.246094"/>
    </g>
   </g>
   <g id="text_22">
    <!-- 205 -->
    <g transform="translate(1249.283721 311.904) scale(0.2 -0.2)">
     <use xlink:href="#DejaVuSans-32"/>
     <use xlink:href="#DejaVuSans-30" x="63.623047"/>
     <use xlink:href="#DejaVuSans-35" x="127.246094"/>
    </g>
   </g>
   <g id="text_23">
    <!-- 210 -->
    <g transform="translate(1249.283721 273.096) scale(0.2 -0.2)">
     <use xlink:href="#DejaVuSans-32"/>
     <use xlink:href="#DejaVuSans-31" x="63.623047"/>
     <use xlink:href="#DejaVuSans-30" x="127.246094"/>
    </g>
   </g>
   <g id="text_24">
    <!-- 215 -->
    <g transform="translate(1249.283721 234.288) scale(0.2 -0.2)">
     <use xlink:href="#DejaVuSans-32"/>
     <use xlink:href="#DejaVuSans-31" x="63.623047"/>
     <use xlink:href="#DejaVuSans-35" x="127.246094"/>
    </g>
   </g>
   <g id="text_25">
    <!-- 220 -->
    <g transform="translate(1249.283721 195.48) scale(0.2 -0.2)">
     <use xlink:href="#DejaVuSans-32"/>
     <use xlink:href="#DejaVuSans-32" x="63.623047"/>
     <use xlink:href="#DejaVuSans-30" x="127.246094"/>
    </g>
   </g>
   <g id="legend_1">
    <g id="patch_7">
     <path d="M 308.35625 823.04 
L 1167.64375 823.04 
Q 1171.64375 823.04 1171.64375 819.04 
L 1171.64375 789.64 
Q 1171.64375 785.64 1167.64375 785.64 
L 308.35625 785.64 
Q 304.35625 785.64 304.35625 789.64 
L 304.35625 819.04 
Q 304.35625 823.04 308.35625 823.04 
z
" style="fill: #ffffff; opacity: 0.8; stroke: #cccccc; stroke-linejoin: miter"/>
    </g>
    <g id="line2d_44">
     <path d="M 312.35625 801.84 
L 332.35625 801.84 
L 352.35625 801.84 
" style="fill: none; stroke: #000000; stroke-width: 1.5; stroke-linecap: square"/>
    </g>
    <g id="text_26">
     <!-- $T_{se,ein}$ [C]          $ΔT_{gk,ob}$: -->
     <g transform="translate(368.35625 808.84) scale(0.2 -0.2)">
      <defs>
       <path id="DejaVuSans-Oblique-54" d="M 378 4666 
L 4325 4666 
L 4225 4134 
L 2559 4134 
L 1759 0 
L 1125 0 
L 1925 4134 
L 275 4134 
L 378 4666 
z
" transform="scale(0.015625)"/>
       <path id="DejaVuSans-Oblique-73" d="M 3200 3397 
L 3091 2853 
Q 2863 2978 2609 3040 
Q 2356 3103 2088 3103 
Q 1634 3103 1373 2948 
Q 1113 2794 1113 2528 
Q 1113 2219 1719 2053 
Q 1766 2041 1788 2034 
L 1972 1978 
Q 2547 1819 2739 1644 
Q 2931 1469 2931 1166 
Q 2931 609 2489 259 
Q 2047 -91 1331 -91 
Q 1053 -91 747 -37 
Q 441 16 72 128 
L 184 722 
Q 500 559 806 475 
Q 1113 391 1394 391 
Q 1816 391 2080 572 
Q 2344 753 2344 1031 
Q 2344 1331 1650 1516 
L 1591 1531 
L 1394 1581 
Q 956 1697 753 1886 
Q 550 2075 550 2369 
Q 550 2928 970 3256 
Q 1391 3584 2113 3584 
Q 2397 3584 2667 3537 
Q 2938 3491 3200 3397 
z
" transform="scale(0.015625)"/>
       <path id="DejaVuSans-Oblique-65" d="M 3078 2063 
Q 3088 2113 3092 2166 
Q 3097 2219 3097 2272 
Q 3097 2653 2873 2875 
Q 2650 3097 2266 3097 
Q 1838 3097 1509 2826 
Q 1181 2556 1013 2059 
L 3078 2063 
z
M 3578 1613 
L 903 1613 
Q 884 1494 878 1425 
Q 872 1356 872 1306 
Q 872 872 1139 634 
Q 1406 397 1894 397 
Q 2269 397 2603 481 
Q 2938 566 3225 728 
L 3116 159 
Q 2806 34 2476 -28 
Q 2147 -91 1806 -91 
Q 1078 -91 686 257 
Q 294 606 294 1247 
Q 294 1794 489 2264 
Q 684 2734 1063 3103 
Q 1306 3334 1642 3459 
Q 1978 3584 2356 3584 
Q 2950 3584 3301 3228 
Q 3653 2872 3653 2272 
Q 3653 2128 3634 1964 
Q 3616 1800 3578 1613 
z
" transform="scale(0.015625)"/>
       <path id="DejaVuSans-2c" d="M 750 794 
L 1409 794 
L 1409 256 
L 897 -744 
L 494 -744 
L 750 256 
L 750 794 
z
" transform="scale(0.015625)"/>
       <path id="DejaVuSans-Oblique-69" d="M 1172 4863 
L 1747 4863 
L 1606 4134 
L 1031 4134 
L 1172 4863 
z
M 909 3500 
L 1484 3500 
L 800 0 
L 225 0 
L 909 3500 
z
" transform="scale(0.015625)"/>
       <path id="DejaVuSans-Oblique-6e" d="M 3566 2113 
L 3156 0 
L 2578 0 
L 2988 2091 
Q 3016 2238 3031 2350 
Q 3047 2463 3047 2528 
Q 3047 2791 2881 2937 
Q 2716 3084 2419 3084 
Q 1956 3084 1622 2776 
Q 1288 2469 1184 1941 
L 800 0 
L 225 0 
L 903 3500 
L 1478 3500 
L 1363 2950 
Q 1603 3253 1940 3418 
Q 2278 3584 2650 3584 
Q 3113 3584 3367 3334 
Q 3622 3084 3622 2631 
Q 3622 2519 3608 2391 
Q 3594 2263 3566 2113 
z
" transform="scale(0.015625)"/>
       <path id="DejaVuSans-43" d="M 4122 4306 
L 4122 3641 
Q 3803 3938 3442 4084 
Q 3081 4231 2675 4231 
Q 1875 4231 1450 3742 
Q 1025 3253 1025 2328 
Q 1025 1406 1450 917 
Q 1875 428 2675 428 
Q 3081 428 3442 575 
Q 3803 722 4122 1019 
L 4122 359 
Q 3791 134 3420 21 
Q 3050 -91 2638 -91 
Q 1578 -91 968 557 
Q 359 1206 359 2328 
Q 359 3453 968 4101 
Q 1578 4750 2638 4750 
Q 3056 4750 3426 4639 
Q 3797 4528 4122 4306 
z
" transform="scale(0.015625)"/>
       <path id="DejaVuSans-394" d="M 2188 4044 
L 906 525 
L 3472 525 
L 2188 4044 
z
M 50 0 
L 1831 4666 
L 2547 4666 
L 4325 0 
L 50 0 
z
" transform="scale(0.015625)"/>
       <path id="DejaVuSans-Oblique-67" d="M 3816 3500 
L 3219 434 
Q 3047 -456 2561 -893 
Q 2075 -1331 1253 -1331 
Q 950 -1331 690 -1286 
Q 431 -1241 206 -1147 
L 313 -588 
Q 525 -725 762 -790 
Q 1000 -856 1269 -856 
Q 1816 -856 2167 -557 
Q 2519 -259 2631 300 
L 2681 563 
Q 2441 288 2122 144 
Q 1803 0 1434 0 
Q 903 0 598 351 
Q 294 703 294 1319 
Q 294 1803 478 2267 
Q 663 2731 997 3091 
Q 1219 3328 1514 3456 
Q 1809 3584 2131 3584 
Q 2484 3584 2746 3420 
Q 3009 3256 3138 2956 
L 3238 3500 
L 3816 3500 
z
M 2950 2216 
Q 2950 2641 2750 2872 
Q 2550 3103 2181 3103 
Q 1953 3103 1747 3012 
Q 1541 2922 1394 2759 
Q 1156 2491 1023 2127 
Q 891 1763 891 1375 
Q 891 944 1092 712 
Q 1294 481 1672 481 
Q 2219 481 2584 976 
Q 2950 1472 2950 2216 
z
" transform="scale(0.015625)"/>
       <path id="DejaVuSans-Oblique-6b" d="M 1172 4863 
L 1747 4863 
L 1197 2028 
L 3169 3500 
L 3916 3500 
L 1716 1825 
L 3322 0 
L 2625 0 
L 1131 1709 
L 800 0 
L 225 0 
L 1172 4863 
z
" transform="scale(0.015625)"/>
       <path id="DejaVuSans-Oblique-6f" d="M 1625 -91 
Q 1009 -91 651 289 
Q 294 669 294 1325 
Q 294 1706 417 2101 
Q 541 2497 738 2766 
Q 1047 3184 1428 3384 
Q 1809 3584 2291 3584 
Q 2888 3584 3255 3212 
Q 3622 2841 3622 2241 
Q 3622 1825 3500 1412 
Q 3378 1000 3181 728 
Q 2875 309 2494 109 
Q 2113 -91 1625 -91 
z
M 891 1344 
Q 891 869 1089 633 
Q 1288 397 1691 397 
Q 2269 397 2648 901 
Q 3028 1406 3028 2181 
Q 3028 2634 2825 2865 
Q 2622 3097 2228 3097 
Q 1903 3097 1650 2945 
Q 1397 2794 1197 2484 
Q 1050 2253 970 1956 
Q 891 1659 891 1344 
z
" transform="scale(0.015625)"/>
       <path id="DejaVuSans-Oblique-62" d="M 3169 2138 
Q 3169 2591 2961 2847 
Q 2753 3103 2388 3103 
Q 2122 3103 1889 2973 
Q 1656 2844 1484 2597 
Q 1303 2338 1198 1995 
Q 1094 1653 1094 1313 
Q 1094 881 1298 636 
Q 1503 391 1863 391 
Q 2134 391 2365 517 
Q 2597 644 2772 891 
Q 2950 1147 3059 1487 
Q 3169 1828 3169 2138 
z
M 1381 2969 
Q 1594 3256 1914 3420 
Q 2234 3584 2584 3584 
Q 3122 3584 3439 3221 
Q 3756 2859 3756 2241 
Q 3756 1734 3570 1259 
Q 3384 784 3041 416 
Q 2816 172 2522 40 
Q 2228 -91 1906 -91 
Q 1566 -91 1316 65 
Q 1066 222 909 531 
L 806 0 
L 231 0 
L 1178 4863 
L 1753 4863 
L 1381 2969 
z
" transform="scale(0.015625)"/>
       <path id="DejaVuSans-3a" d="M 750 794 
L 1409 794 
L 1409 0 
L 750 0 
L 750 794 
z
M 750 3309 
L 1409 3309 
L 1409 2516 
L 750 2516 
L 750 3309 
z
" transform="scale(0.015625)"/>
      </defs>
      <use xlink:href="#DejaVuSans-Oblique-54" transform="translate(0 0.015625)"/>
      <use xlink:href="#DejaVuSans-Oblique-73" transform="translate(61.083984 -16.390625) scale(0.7)"/>
      <use xlink:href="#DejaVuSans-Oblique-65" transform="translate(97.553711 -16.390625) scale(0.7)"/>
      <use xlink:href="#DejaVuSans-2c" transform="translate(140.620117 -16.390625) scale(0.7)"/>
      <use xlink:href="#DejaVuSans-Oblique-65" transform="translate(176.508789 -16.390625) scale(0.7)"/>
      <use xlink:href="#DejaVuSans-Oblique-69" transform="translate(219.575195 -16.390625) scale(0.7)"/>
      <use xlink:href="#DejaVuSans-Oblique-6e" transform="translate(239.023438 -16.390625) scale(0.7)"/>
      <use xlink:href="#DejaVuSans-20" transform="translate(286.123047 0.015625)"/>
      <use xlink:href="#DejaVuSans-5b" transform="translate(317.910156 0.015625)"/>
      <use xlink:href="#DejaVuSans-43" transform="translate(356.923828 0.015625)"/>
      <use xlink:href="#DejaVuSans-5d" transform="translate(426.748047 0.015625)"/>
      <use xlink:href="#DejaVuSans-20" transform="translate(465.761719 0.015625)"/>
      <use xlink:href="#DejaVuSans-20" transform="translate(497.548828 0.015625)"/>
      <use xlink:href="#DejaVuSans-20" transform="translate(529.335938 0.015625)"/>
      <use xlink:href="#DejaVuSans-20" transform="translate(561.123047 0.015625)"/>
      <use xlink:href="#DejaVuSans-20" transform="translate(592.910156 0.015625)"/>
      <use xlink:href="#DejaVuSans-20" transform="translate(624.697266 0.015625)"/>
      <use xlink:href="#DejaVuSans-20" transform="translate(656.484375 0.015625)"/>
      <use xlink:href="#DejaVuSans-20" transform="translate(688.271484 0.015625)"/>
      <use xlink:href="#DejaVuSans-20" transform="translate(720.058594 0.015625)"/>
      <use xlink:href="#DejaVuSans-20" transform="translate(751.845703 0.015625)"/>
      <use xlink:href="#DejaVuSans-394" transform="translate(783.632812 0.015625)"/>
      <use xlink:href="#DejaVuSans-Oblique-54" transform="translate(852.041016 0.015625)"/>
      <use xlink:href="#DejaVuSans-Oblique-67" transform="translate(913.125 -16.390625) scale(0.7)"/>
      <use xlink:href="#DejaVuSans-Oblique-6b" transform="translate(957.558594 -16.390625) scale(0.7)"/>
      <use xlink:href="#DejaVuSans-2c" transform="translate(998.095703 -16.390625) scale(0.7)"/>
      <use xlink:href="#DejaVuSans-Oblique-6f" transform="translate(1033.984375 -16.390625) scale(0.7)"/>
      <use xlink:href="#DejaVuSans-Oblique-62" transform="translate(1076.811523 -16.390625) scale(0.7)"/>
      <use xlink:href="#DejaVuSans-3a" transform="translate(1123.979492 0.015625)"/>
     </g>
    </g>
    <g id="line2d_45">
     <path d="M 639.95625 801.84 
L 659.95625 801.84 
L 679.95625 801.84 
" style="fill: none; stroke-dasharray: 5.55,2.4; stroke-dashoffset: 0; stroke: #4682b4; stroke-width: 1.5"/>
    </g>
    <g id="text_27">
     <!-- 40 K -->
     <g transform="translate(695.95625 808.84) scale(0.2 -0.2)">
      <defs>
       <path id="DejaVuSans-4b" d="M 628 4666 
L 1259 4666 
L 1259 2694 
L 3353 4666 
L 4166 4666 
L 1850 2491 
L 4331 0 
L 3500 0 
L 1259 2247 
L 1259 0 
L 628 0 
L 628 4666 
z
" transform="scale(0.015625)"/>
      </defs>
      <use xlink:href="#DejaVuSans-34"/>
      <use xlink:href="#DejaVuSans-30" x="63.623047"/>
      <use xlink:href="#DejaVuSans-20" x="127.246094"/>
      <use xlink:href="#DejaVuSans-4b" x="159.033203"/>
     </g>
    </g>
    <g id="line2d_46">
     <path d="M 780.878125 801.84 
L 800.878125 801.84 
L 820.878125 801.84 
" style="fill: none; stroke-dasharray: 5.55,2.4; stroke-dashoffset: 0; stroke: #008000; stroke-width: 1.5"/>
    </g>
    <g id="text_28">
     <!-- 30 K -->
     <g transform="translate(836.878125 808.84) scale(0.2 -0.2)">
      <use xlink:href="#DejaVuSans-33"/>
      <use xlink:href="#DejaVuSans-30" x="63.623047"/>
      <use xlink:href="#DejaVuSans-20" x="127.246094"/>
      <use xlink:href="#DejaVuSans-4b" x="159.033203"/>
     </g>
    </g>
    <g id="line2d_47">
     <path d="M 921.8 801.84 
L 941.8 801.84 
L 961.8 801.84 
" style="fill: none; stroke-dasharray: 5.55,2.4; stroke-dashoffset: 0; stroke: #ffa500; stroke-width: 1.5"/>
    </g>
    <g id="text_29">
     <!-- 20 K -->
     <g transform="translate(977.8 808.84) scale(0.2 -0.2)">
      <use xlink:href="#DejaVuSans-32"/>
      <use xlink:href="#DejaVuSans-30" x="63.623047"/>
      <use xlink:href="#DejaVuSans-20" x="127.246094"/>
      <use xlink:href="#DejaVuSans-4b" x="159.033203"/>
     </g>
    </g>
    <g id="line2d_48">
     <path d="M 1062.721875 801.84 
L 1082.721875 801.84 
L 1102.721875 801.84 
" style="fill: none; stroke-dasharray: 5.55,2.4; stroke-dashoffset: 0; stroke: #ff0000; stroke-width: 1.5"/>
    </g>
    <g id="text_30">
     <!-- 15 K -->
     <g transform="translate(1118.721875 808.84) scale(0.2 -0.2)">
      <use xlink:href="#DejaVuSans-31"/>
      <use xlink:href="#DejaVuSans-35" x="63.623047"/>
      <use xlink:href="#DejaVuSans-20" x="127.246094"/>
      <use xlink:href="#DejaVuSans-4b" x="159.033203"/>
     </g>
    </g>
   </g>
  </g>
 </g>
 <defs>
  <clipPath id="p0d7d152556">
   <rect x="180" y="112.32" width="1116" height="720.72"/>
  </clipPath>
 </defs>
</svg>
