<?xml version="1.0" encoding="utf-8" standalone="no"?>
<!DOCTYPE svg PUBLIC "-//W3C//DTD SVG 1.1//EN"
  "http://www.w3.org/Graphics/SVG/1.1/DTD/svg11.dtd">
<svg xmlns:xlink="http://www.w3.org/1999/xlink" width="1440pt" height="936pt" viewBox="0 0 1440 936" xmlns="http://www.w3.org/2000/svg" version="1.1">
 <metadata>
  <rdf:RDF xmlns:dc="http://purl.org/dc/elements/1.1/" xmlns:cc="http://creativecommons.org/ns#" xmlns:rdf="http://www.w3.org/1999/02/22-rdf-syntax-ns#">
   <cc:Work>
    <dc:type rdf:resource="http://purl.org/dc/dcmitype/StillImage"/>
    <dc:date>2023-05-16T16:38:33.641976</dc:date>
    <dc:format>image/svg+xml</dc:format>
    <dc:creator>
     <cc:Agent>
      <dc:title>Matplotlib v3.6.1, https://matplotlib.org/</dc:title>
     </cc:Agent>
    </dc:creator>
   </cc:Work>
  </rdf:RDF>
 </metadata>
 <defs>
  <style type="text/css">*{stroke-linejoin: round; stroke-linecap: butt}</style>
 </defs>
 <g id="figure_1">
  <g id="patch_1">
   <path d="M 0 936 
L 1440 936 
L 1440 0 
L 0 0 
z
" style="fill: #ffffff"/>
  </g>
  <g id="axes_1">
   <g id="patch_2">
    <path d="M 180 833.04 
L 1296 833.04 
L 1296 112.32 
L 180 112.32 
z
" style="fill: #ffffff"/>
   </g>
   <g id="matplotlib.axis_1">
    <g id="xtick_1">
     <g id="line2d_1">
      <path d="M 180 833.04 
L 180 112.32 
" clip-path="url(#pb42cae7114)" style="fill: none; stroke: #b0b0b0; stroke-width: 0.8; stroke-linecap: square"/>
     </g>
     <g id="line2d_2">
      <defs>
       <path id="m4ea008862a" d="M 0 0 
L 0 3.5 
" style="stroke: #000000; stroke-width: 0.8"/>
      </defs>
      <g>
       <use xlink:href="#m4ea008862a" x="180" y="833.04" style="stroke: #000000; stroke-width: 0.8"/>
      </g>
     </g>
     <g id="text_1">
      <!-- 37.5 -->
      <g transform="translate(157.734375 855.236875) scale(0.2 -0.2)">
       <defs>
        <path id="DejaVuSans-33" d="M 2597 2516 
Q 3050 2419 3304 2112 
Q 3559 1806 3559 1356 
Q 3559 666 3084 287 
Q 2609 -91 1734 -91 
Q 1441 -91 1130 -33 
Q 819 25 488 141 
L 488 750 
Q 750 597 1062 519 
Q 1375 441 1716 441 
Q 2309 441 2620 675 
Q 2931 909 2931 1356 
Q 2931 1769 2642 2001 
Q 2353 2234 1838 2234 
L 1294 2234 
L 1294 2753 
L 1863 2753 
Q 2328 2753 2575 2939 
Q 2822 3125 2822 3475 
Q 2822 3834 2567 4026 
Q 2313 4219 1838 4219 
Q 1578 4219 1281 4162 
Q 984 4106 628 3988 
L 628 4550 
Q 988 4650 1302 4700 
Q 1616 4750 1894 4750 
Q 2613 4750 3031 4423 
Q 3450 4097 3450 3541 
Q 3450 3153 3228 2886 
Q 3006 2619 2597 2516 
z
" transform="scale(0.015625)"/>
        <path id="DejaVuSans-37" d="M 525 4666 
L 3525 4666 
L 3525 4397 
L 1831 0 
L 1172 0 
L 2766 4134 
L 525 4134 
L 525 4666 
z
" transform="scale(0.015625)"/>
        <path id="DejaVuSans-2e" d="M 684 794 
L 1344 794 
L 1344 0 
L 684 0 
L 684 794 
z
" transform="scale(0.015625)"/>
        <path id="DejaVuSans-35" d="M 691 4666 
L 3169 4666 
L 3169 4134 
L 1269 4134 
L 1269 2991 
Q 1406 3038 1543 3061 
Q 1681 3084 1819 3084 
Q 2600 3084 3056 2656 
Q 3513 2228 3513 1497 
Q 3513 744 3044 326 
Q 2575 -91 1722 -91 
Q 1428 -91 1123 -41 
Q 819 9 494 109 
L 494 744 
Q 775 591 1075 516 
Q 1375 441 1709 441 
Q 2250 441 2565 725 
Q 2881 1009 2881 1497 
Q 2881 1984 2565 2268 
Q 2250 2553 1709 2553 
Q 1456 2553 1204 2497 
Q 953 2441 691 2322 
L 691 4666 
z
" transform="scale(0.015625)"/>
       </defs>
       <use xlink:href="#DejaVuSans-33"/>
       <use xlink:href="#DejaVuSans-37" x="63.623047"/>
       <use xlink:href="#DejaVuSans-2e" x="127.246094"/>
       <use xlink:href="#DejaVuSans-35" x="159.033203"/>
      </g>
     </g>
    </g>
    <g id="xtick_2">
     <g id="line2d_3">
      <path d="M 309.767442 833.04 
L 309.767442 112.32 
" clip-path="url(#pb42cae7114)" style="fill: none; stroke: #b0b0b0; stroke-width: 0.8; stroke-linecap: square"/>
     </g>
     <g id="line2d_4">
      <g>
       <use xlink:href="#m4ea008862a" x="309.767442" y="833.04" style="stroke: #000000; stroke-width: 0.8"/>
      </g>
     </g>
     <g id="text_2">
      <!-- 40.0 -->
      <g transform="translate(287.501817 855.236875) scale(0.2 -0.2)">
       <defs>
        <path id="DejaVuSans-34" d="M 2419 4116 
L 825 1625 
L 2419 1625 
L 2419 4116 
z
M 2253 4666 
L 3047 4666 
L 3047 1625 
L 3713 1625 
L 3713 1100 
L 3047 1100 
L 3047 0 
L 2419 0 
L 2419 1100 
L 313 1100 
L 313 1709 
L 2253 4666 
z
" transform="scale(0.015625)"/>
        <path id="DejaVuSans-30" d="M 2034 4250 
Q 1547 4250 1301 3770 
Q 1056 3291 1056 2328 
Q 1056 1369 1301 889 
Q 1547 409 2034 409 
Q 2525 409 2770 889 
Q 3016 1369 3016 2328 
Q 3016 3291 2770 3770 
Q 2525 4250 2034 4250 
z
M 2034 4750 
Q 2819 4750 3233 4129 
Q 3647 3509 3647 2328 
Q 3647 1150 3233 529 
Q 2819 -91 2034 -91 
Q 1250 -91 836 529 
Q 422 1150 422 2328 
Q 422 3509 836 4129 
Q 1250 4750 2034 4750 
z
" transform="scale(0.015625)"/>
       </defs>
       <use xlink:href="#DejaVuSans-34"/>
       <use xlink:href="#DejaVuSans-30" x="63.623047"/>
       <use xlink:href="#DejaVuSans-2e" x="127.246094"/>
       <use xlink:href="#DejaVuSans-30" x="159.033203"/>
      </g>
     </g>
    </g>
    <g id="xtick_3">
     <g id="line2d_5">
      <path d="M 439.534884 833.04 
L 439.534884 112.32 
" clip-path="url(#pb42cae7114)" style="fill: none; stroke: #b0b0b0; stroke-width: 0.8; stroke-linecap: square"/>
     </g>
     <g id="line2d_6">
      <g>
       <use xlink:href="#m4ea008862a" x="439.534884" y="833.04" style="stroke: #000000; stroke-width: 0.8"/>
      </g>
     </g>
     <g id="text_3">
      <!-- 42.5 -->
      <g transform="translate(417.269259 855.236875) scale(0.2 -0.2)">
       <defs>
        <path id="DejaVuSans-32" d="M 1228 531 
L 3431 531 
L 3431 0 
L 469 0 
L 469 531 
Q 828 903 1448 1529 
Q 2069 2156 2228 2338 
Q 2531 2678 2651 2914 
Q 2772 3150 2772 3378 
Q 2772 3750 2511 3984 
Q 2250 4219 1831 4219 
Q 1534 4219 1204 4116 
Q 875 4013 500 3803 
L 500 4441 
Q 881 4594 1212 4672 
Q 1544 4750 1819 4750 
Q 2544 4750 2975 4387 
Q 3406 4025 3406 3419 
Q 3406 3131 3298 2873 
Q 3191 2616 2906 2266 
Q 2828 2175 2409 1742 
Q 1991 1309 1228 531 
z
" transform="scale(0.015625)"/>
       </defs>
       <use xlink:href="#DejaVuSans-34"/>
       <use xlink:href="#DejaVuSans-32" x="63.623047"/>
       <use xlink:href="#DejaVuSans-2e" x="127.246094"/>
       <use xlink:href="#DejaVuSans-35" x="159.033203"/>
      </g>
     </g>
    </g>
    <g id="xtick_4">
     <g id="line2d_7">
      <path d="M 569.302326 833.04 
L 569.302326 112.32 
" clip-path="url(#pb42cae7114)" style="fill: none; stroke: #b0b0b0; stroke-width: 0.8; stroke-linecap: square"/>
     </g>
     <g id="line2d_8">
      <g>
       <use xlink:href="#m4ea008862a" x="569.302326" y="833.04" style="stroke: #000000; stroke-width: 0.8"/>
      </g>
     </g>
     <g id="text_4">
      <!-- 45.0 -->
      <g transform="translate(547.036701 855.236875) scale(0.2 -0.2)">
       <use xlink:href="#DejaVuSans-34"/>
       <use xlink:href="#DejaVuSans-35" x="63.623047"/>
       <use xlink:href="#DejaVuSans-2e" x="127.246094"/>
       <use xlink:href="#DejaVuSans-30" x="159.033203"/>
      </g>
     </g>
    </g>
    <g id="xtick_5">
     <g id="line2d_9">
      <path d="M 699.069767 833.04 
L 699.069767 112.32 
" clip-path="url(#pb42cae7114)" style="fill: none; stroke: #b0b0b0; stroke-width: 0.8; stroke-linecap: square"/>
     </g>
     <g id="line2d_10">
      <g>
       <use xlink:href="#m4ea008862a" x="699.069767" y="833.04" style="stroke: #000000; stroke-width: 0.8"/>
      </g>
     </g>
     <g id="text_5">
      <!-- 47.5 -->
      <g transform="translate(676.804142 855.236875) scale(0.2 -0.2)">
       <use xlink:href="#DejaVuSans-34"/>
       <use xlink:href="#DejaVuSans-37" x="63.623047"/>
       <use xlink:href="#DejaVuSans-2e" x="127.246094"/>
       <use xlink:href="#DejaVuSans-35" x="159.033203"/>
      </g>
     </g>
    </g>
    <g id="xtick_6">
     <g id="line2d_11">
      <path d="M 828.837209 833.04 
L 828.837209 112.32 
" clip-path="url(#pb42cae7114)" style="fill: none; stroke: #b0b0b0; stroke-width: 0.8; stroke-linecap: square"/>
     </g>
     <g id="line2d_12">
      <g>
       <use xlink:href="#m4ea008862a" x="828.837209" y="833.04" style="stroke: #000000; stroke-width: 0.8"/>
      </g>
     </g>
     <g id="text_6">
      <!-- 50.0 -->
      <g transform="translate(806.571584 855.236875) scale(0.2 -0.2)">
       <use xlink:href="#DejaVuSans-35"/>
       <use xlink:href="#DejaVuSans-30" x="63.623047"/>
       <use xlink:href="#DejaVuSans-2e" x="127.246094"/>
       <use xlink:href="#DejaVuSans-30" x="159.033203"/>
      </g>
     </g>
    </g>
    <g id="xtick_7">
     <g id="line2d_13">
      <path d="M 958.604651 833.04 
L 958.604651 112.32 
" clip-path="url(#pb42cae7114)" style="fill: none; stroke: #b0b0b0; stroke-width: 0.8; stroke-linecap: square"/>
     </g>
     <g id="line2d_14">
      <g>
       <use xlink:href="#m4ea008862a" x="958.604651" y="833.04" style="stroke: #000000; stroke-width: 0.8"/>
      </g>
     </g>
     <g id="text_7">
      <!-- 52.5 -->
      <g transform="translate(936.339026 855.236875) scale(0.2 -0.2)">
       <use xlink:href="#DejaVuSans-35"/>
       <use xlink:href="#DejaVuSans-32" x="63.623047"/>
       <use xlink:href="#DejaVuSans-2e" x="127.246094"/>
       <use xlink:href="#DejaVuSans-35" x="159.033203"/>
      </g>
     </g>
    </g>
    <g id="xtick_8">
     <g id="line2d_15">
      <path d="M 1088.372093 833.04 
L 1088.372093 112.32 
" clip-path="url(#pb42cae7114)" style="fill: none; stroke: #b0b0b0; stroke-width: 0.8; stroke-linecap: square"/>
     </g>
     <g id="line2d_16">
      <g>
       <use xlink:href="#m4ea008862a" x="1088.372093" y="833.04" style="stroke: #000000; stroke-width: 0.8"/>
      </g>
     </g>
     <g id="text_8">
      <!-- 55.0 -->
      <g transform="translate(1066.106468 855.236875) scale(0.2 -0.2)">
       <use xlink:href="#DejaVuSans-35"/>
       <use xlink:href="#DejaVuSans-35" x="63.623047"/>
       <use xlink:href="#DejaVuSans-2e" x="127.246094"/>
       <use xlink:href="#DejaVuSans-30" x="159.033203"/>
      </g>
     </g>
    </g>
    <g id="xtick_9">
     <g id="line2d_17">
      <path d="M 1218.139535 833.04 
L 1218.139535 112.32 
" clip-path="url(#pb42cae7114)" style="fill: none; stroke: #b0b0b0; stroke-width: 0.8; stroke-linecap: square"/>
     </g>
     <g id="line2d_18">
      <g>
       <use xlink:href="#m4ea008862a" x="1218.139535" y="833.04" style="stroke: #000000; stroke-width: 0.8"/>
      </g>
     </g>
     <g id="text_9">
      <!-- 57.5 -->
      <g transform="translate(1195.87391 855.236875) scale(0.2 -0.2)">
       <use xlink:href="#DejaVuSans-35"/>
       <use xlink:href="#DejaVuSans-37" x="63.623047"/>
       <use xlink:href="#DejaVuSans-2e" x="127.246094"/>
       <use xlink:href="#DejaVuSans-35" x="159.033203"/>
      </g>
     </g>
    </g>
    <g id="text_10">
     <!-- Gaskühlerdruck [bar] -->
     <g transform="translate(632.239063 878.593125) scale(0.2 -0.2)">
      <defs>
       <path id="DejaVuSans-47" d="M 3809 666 
L 3809 1919 
L 2778 1919 
L 2778 2438 
L 4434 2438 
L 4434 434 
Q 4069 175 3628 42 
Q 3188 -91 2688 -91 
Q 1594 -91 976 548 
Q 359 1188 359 2328 
Q 359 3472 976 4111 
Q 1594 4750 2688 4750 
Q 3144 4750 3555 4637 
Q 3966 4525 4313 4306 
L 4313 3634 
Q 3963 3931 3569 4081 
Q 3175 4231 2741 4231 
Q 1884 4231 1454 3753 
Q 1025 3275 1025 2328 
Q 1025 1384 1454 906 
Q 1884 428 2741 428 
Q 3075 428 3337 486 
Q 3600 544 3809 666 
z
" transform="scale(0.015625)"/>
       <path id="DejaVuSans-61" d="M 2194 1759 
Q 1497 1759 1228 1600 
Q 959 1441 959 1056 
Q 959 750 1161 570 
Q 1363 391 1709 391 
Q 2188 391 2477 730 
Q 2766 1069 2766 1631 
L 2766 1759 
L 2194 1759 
z
M 3341 1997 
L 3341 0 
L 2766 0 
L 2766 531 
Q 2569 213 2275 61 
Q 1981 -91 1556 -91 
Q 1019 -91 701 211 
Q 384 513 384 1019 
Q 384 1609 779 1909 
Q 1175 2209 1959 2209 
L 2766 2209 
L 2766 2266 
Q 2766 2663 2505 2880 
Q 2244 3097 1772 3097 
Q 1472 3097 1187 3025 
Q 903 2953 641 2809 
L 641 3341 
Q 956 3463 1253 3523 
Q 1550 3584 1831 3584 
Q 2591 3584 2966 3190 
Q 3341 2797 3341 1997 
z
" transform="scale(0.015625)"/>
       <path id="DejaVuSans-73" d="M 2834 3397 
L 2834 2853 
Q 2591 2978 2328 3040 
Q 2066 3103 1784 3103 
Q 1356 3103 1142 2972 
Q 928 2841 928 2578 
Q 928 2378 1081 2264 
Q 1234 2150 1697 2047 
L 1894 2003 
Q 2506 1872 2764 1633 
Q 3022 1394 3022 966 
Q 3022 478 2636 193 
Q 2250 -91 1575 -91 
Q 1294 -91 989 -36 
Q 684 19 347 128 
L 347 722 
Q 666 556 975 473 
Q 1284 391 1588 391 
Q 1994 391 2212 530 
Q 2431 669 2431 922 
Q 2431 1156 2273 1281 
Q 2116 1406 1581 1522 
L 1381 1569 
Q 847 1681 609 1914 
Q 372 2147 372 2553 
Q 372 3047 722 3315 
Q 1072 3584 1716 3584 
Q 2034 3584 2315 3537 
Q 2597 3491 2834 3397 
z
" transform="scale(0.015625)"/>
       <path id="DejaVuSans-6b" d="M 581 4863 
L 1159 4863 
L 1159 1991 
L 2875 3500 
L 3609 3500 
L 1753 1863 
L 3688 0 
L 2938 0 
L 1159 1709 
L 1159 0 
L 581 0 
L 581 4863 
z
" transform="scale(0.015625)"/>
       <path id="DejaVuSans-fc" d="M 544 1381 
L 544 3500 
L 1119 3500 
L 1119 1403 
Q 1119 906 1312 657 
Q 1506 409 1894 409 
Q 2359 409 2629 706 
Q 2900 1003 2900 1516 
L 2900 3500 
L 3475 3500 
L 3475 0 
L 2900 0 
L 2900 538 
Q 2691 219 2414 64 
Q 2138 -91 1772 -91 
Q 1169 -91 856 284 
Q 544 659 544 1381 
z
M 1991 3584 
L 1991 3584 
z
M 2278 4850 
L 2912 4850 
L 2912 4219 
L 2278 4219 
L 2278 4850 
z
M 1056 4850 
L 1690 4850 
L 1690 4219 
L 1056 4219 
L 1056 4850 
z
" transform="scale(0.015625)"/>
       <path id="DejaVuSans-68" d="M 3513 2113 
L 3513 0 
L 2938 0 
L 2938 2094 
Q 2938 2591 2744 2837 
Q 2550 3084 2163 3084 
Q 1697 3084 1428 2787 
Q 1159 2491 1159 1978 
L 1159 0 
L 581 0 
L 581 4863 
L 1159 4863 
L 1159 2956 
Q 1366 3272 1645 3428 
Q 1925 3584 2291 3584 
Q 2894 3584 3203 3211 
Q 3513 2838 3513 2113 
z
" transform="scale(0.015625)"/>
       <path id="DejaVuSans-6c" d="M 603 4863 
L 1178 4863 
L 1178 0 
L 603 0 
L 603 4863 
z
" transform="scale(0.015625)"/>
       <path id="DejaVuSans-65" d="M 3597 1894 
L 3597 1613 
L 953 1613 
Q 991 1019 1311 708 
Q 1631 397 2203 397 
Q 2534 397 2845 478 
Q 3156 559 3463 722 
L 3463 178 
Q 3153 47 2828 -22 
Q 2503 -91 2169 -91 
Q 1331 -91 842 396 
Q 353 884 353 1716 
Q 353 2575 817 3079 
Q 1281 3584 2069 3584 
Q 2775 3584 3186 3129 
Q 3597 2675 3597 1894 
z
M 3022 2063 
Q 3016 2534 2758 2815 
Q 2500 3097 2075 3097 
Q 1594 3097 1305 2825 
Q 1016 2553 972 2059 
L 3022 2063 
z
" transform="scale(0.015625)"/>
       <path id="DejaVuSans-72" d="M 2631 2963 
Q 2534 3019 2420 3045 
Q 2306 3072 2169 3072 
Q 1681 3072 1420 2755 
Q 1159 2438 1159 1844 
L 1159 0 
L 581 0 
L 581 3500 
L 1159 3500 
L 1159 2956 
Q 1341 3275 1631 3429 
Q 1922 3584 2338 3584 
Q 2397 3584 2469 3576 
Q 2541 3569 2628 3553 
L 2631 2963 
z
" transform="scale(0.015625)"/>
       <path id="DejaVuSans-64" d="M 2906 2969 
L 2906 4863 
L 3481 4863 
L 3481 0 
L 2906 0 
L 2906 525 
Q 2725 213 2448 61 
Q 2172 -91 1784 -91 
Q 1150 -91 751 415 
Q 353 922 353 1747 
Q 353 2572 751 3078 
Q 1150 3584 1784 3584 
Q 2172 3584 2448 3432 
Q 2725 3281 2906 2969 
z
M 947 1747 
Q 947 1113 1208 752 
Q 1469 391 1925 391 
Q 2381 391 2643 752 
Q 2906 1113 2906 1747 
Q 2906 2381 2643 2742 
Q 2381 3103 1925 3103 
Q 1469 3103 1208 2742 
Q 947 2381 947 1747 
z
" transform="scale(0.015625)"/>
       <path id="DejaVuSans-75" d="M 544 1381 
L 544 3500 
L 1119 3500 
L 1119 1403 
Q 1119 906 1312 657 
Q 1506 409 1894 409 
Q 2359 409 2629 706 
Q 2900 1003 2900 1516 
L 2900 3500 
L 3475 3500 
L 3475 0 
L 2900 0 
L 2900 538 
Q 2691 219 2414 64 
Q 2138 -91 1772 -91 
Q 1169 -91 856 284 
Q 544 659 544 1381 
z
M 1991 3584 
L 1991 3584 
z
" transform="scale(0.015625)"/>
       <path id="DejaVuSans-63" d="M 3122 3366 
L 3122 2828 
Q 2878 2963 2633 3030 
Q 2388 3097 2138 3097 
Q 1578 3097 1268 2742 
Q 959 2388 959 1747 
Q 959 1106 1268 751 
Q 1578 397 2138 397 
Q 2388 397 2633 464 
Q 2878 531 3122 666 
L 3122 134 
Q 2881 22 2623 -34 
Q 2366 -91 2075 -91 
Q 1284 -91 818 406 
Q 353 903 353 1747 
Q 353 2603 823 3093 
Q 1294 3584 2113 3584 
Q 2378 3584 2631 3529 
Q 2884 3475 3122 3366 
z
" transform="scale(0.015625)"/>
       <path id="DejaVuSans-20" transform="scale(0.015625)"/>
       <path id="DejaVuSans-5b" d="M 550 4863 
L 1875 4863 
L 1875 4416 
L 1125 4416 
L 1125 -397 
L 1875 -397 
L 1875 -844 
L 550 -844 
L 550 4863 
z
" transform="scale(0.015625)"/>
       <path id="DejaVuSans-62" d="M 3116 1747 
Q 3116 2381 2855 2742 
Q 2594 3103 2138 3103 
Q 1681 3103 1420 2742 
Q 1159 2381 1159 1747 
Q 1159 1113 1420 752 
Q 1681 391 2138 391 
Q 2594 391 2855 752 
Q 3116 1113 3116 1747 
z
M 1159 2969 
Q 1341 3281 1617 3432 
Q 1894 3584 2278 3584 
Q 2916 3584 3314 3078 
Q 3713 2572 3713 1747 
Q 3713 922 3314 415 
Q 2916 -91 2278 -91 
Q 1894 -91 1617 61 
Q 1341 213 1159 525 
L 1159 0 
L 581 0 
L 581 4863 
L 1159 4863 
L 1159 2969 
z
" transform="scale(0.015625)"/>
       <path id="DejaVuSans-5d" d="M 1947 4863 
L 1947 -844 
L 622 -844 
L 622 -397 
L 1369 -397 
L 1369 4416 
L 622 4416 
L 622 4863 
L 1947 4863 
z
" transform="scale(0.015625)"/>
      </defs>
      <use xlink:href="#DejaVuSans-47"/>
      <use xlink:href="#DejaVuSans-61" x="77.490234"/>
      <use xlink:href="#DejaVuSans-73" x="138.769531"/>
      <use xlink:href="#DejaVuSans-6b" x="190.869141"/>
      <use xlink:href="#DejaVuSans-fc" x="245.654297"/>
      <use xlink:href="#DejaVuSans-68" x="309.033203"/>
      <use xlink:href="#DejaVuSans-6c" x="372.412109"/>
      <use xlink:href="#DejaVuSans-65" x="400.195312"/>
      <use xlink:href="#DejaVuSans-72" x="461.71875"/>
      <use xlink:href="#DejaVuSans-64" x="501.082031"/>
      <use xlink:href="#DejaVuSans-72" x="564.558594"/>
      <use xlink:href="#DejaVuSans-75" x="605.671875"/>
      <use xlink:href="#DejaVuSans-63" x="669.050781"/>
      <use xlink:href="#DejaVuSans-6b" x="724.03125"/>
      <use xlink:href="#DejaVuSans-20" x="781.941406"/>
      <use xlink:href="#DejaVuSans-5b" x="813.728516"/>
      <use xlink:href="#DejaVuSans-62" x="852.742188"/>
      <use xlink:href="#DejaVuSans-61" x="916.21875"/>
      <use xlink:href="#DejaVuSans-72" x="977.498047"/>
      <use xlink:href="#DejaVuSans-5d" x="1018.611328"/>
     </g>
    </g>
   </g>
   <g id="matplotlib.axis_2">
    <g id="ytick_1">
     <g id="line2d_19">
      <path d="M 180 779.653333 
L 1296 779.653333 
" clip-path="url(#pb42cae7114)" style="fill: none; stroke: #b0b0b0; stroke-width: 0.8; stroke-linecap: square"/>
     </g>
     <g id="line2d_20">
      <defs>
       <path id="m3674756e37" d="M 0 0 
L -3.5 0 
" style="stroke: #000000; stroke-width: 0.8"/>
      </defs>
      <g>
       <use xlink:href="#m3674756e37" x="180" y="779.653333" style="stroke: #000000; stroke-width: 0.8"/>
      </g>
     </g>
     <g id="text_11">
      <!-- 60 -->
      <g transform="translate(147.55 787.251771) scale(0.2 -0.2)">
       <defs>
        <path id="DejaVuSans-36" d="M 2113 2584 
Q 1688 2584 1439 2293 
Q 1191 2003 1191 1497 
Q 1191 994 1439 701 
Q 1688 409 2113 409 
Q 2538 409 2786 701 
Q 3034 994 3034 1497 
Q 3034 2003 2786 2293 
Q 2538 2584 2113 2584 
z
M 3366 4563 
L 3366 3988 
Q 3128 4100 2886 4159 
Q 2644 4219 2406 4219 
Q 1781 4219 1451 3797 
Q 1122 3375 1075 2522 
Q 1259 2794 1537 2939 
Q 1816 3084 2150 3084 
Q 2853 3084 3261 2657 
Q 3669 2231 3669 1497 
Q 3669 778 3244 343 
Q 2819 -91 2113 -91 
Q 1303 -91 875 529 
Q 447 1150 447 2328 
Q 447 3434 972 4092 
Q 1497 4750 2381 4750 
Q 2619 4750 2861 4703 
Q 3103 4656 3366 4563 
z
" transform="scale(0.015625)"/>
       </defs>
       <use xlink:href="#DejaVuSans-36"/>
       <use xlink:href="#DejaVuSans-30" x="63.623047"/>
      </g>
     </g>
    </g>
    <g id="ytick_2">
     <g id="line2d_21">
      <path d="M 180 672.88 
L 1296 672.88 
" clip-path="url(#pb42cae7114)" style="fill: none; stroke: #b0b0b0; stroke-width: 0.8; stroke-linecap: square"/>
     </g>
     <g id="line2d_22">
      <g>
       <use xlink:href="#m3674756e37" x="180" y="672.88" style="stroke: #000000; stroke-width: 0.8"/>
      </g>
     </g>
     <g id="text_12">
      <!-- 62 -->
      <g transform="translate(147.55 680.478438) scale(0.2 -0.2)">
       <use xlink:href="#DejaVuSans-36"/>
       <use xlink:href="#DejaVuSans-32" x="63.623047"/>
      </g>
     </g>
    </g>
    <g id="ytick_3">
     <g id="line2d_23">
      <path d="M 180 566.106667 
L 1296 566.106667 
" clip-path="url(#pb42cae7114)" style="fill: none; stroke: #b0b0b0; stroke-width: 0.8; stroke-linecap: square"/>
     </g>
     <g id="line2d_24">
      <g>
       <use xlink:href="#m3674756e37" x="180" y="566.106667" style="stroke: #000000; stroke-width: 0.8"/>
      </g>
     </g>
     <g id="text_13">
      <!-- 64 -->
      <g transform="translate(147.55 573.705104) scale(0.2 -0.2)">
       <use xlink:href="#DejaVuSans-36"/>
       <use xlink:href="#DejaVuSans-34" x="63.623047"/>
      </g>
     </g>
    </g>
    <g id="ytick_4">
     <g id="line2d_25">
      <path d="M 180 459.333333 
L 1296 459.333333 
" clip-path="url(#pb42cae7114)" style="fill: none; stroke: #b0b0b0; stroke-width: 0.8; stroke-linecap: square"/>
     </g>
     <g id="line2d_26">
      <g>
       <use xlink:href="#m3674756e37" x="180" y="459.333333" style="stroke: #000000; stroke-width: 0.8"/>
      </g>
     </g>
     <g id="text_14">
      <!-- 66 -->
      <g transform="translate(147.55 466.931771) scale(0.2 -0.2)">
       <use xlink:href="#DejaVuSans-36"/>
       <use xlink:href="#DejaVuSans-36" x="63.623047"/>
      </g>
     </g>
    </g>
    <g id="ytick_5">
     <g id="line2d_27">
      <path d="M 180 352.56 
L 1296 352.56 
" clip-path="url(#pb42cae7114)" style="fill: none; stroke: #b0b0b0; stroke-width: 0.8; stroke-linecap: square"/>
     </g>
     <g id="line2d_28">
      <g>
       <use xlink:href="#m3674756e37" x="180" y="352.56" style="stroke: #000000; stroke-width: 0.8"/>
      </g>
     </g>
     <g id="text_15">
      <!-- 68 -->
      <g transform="translate(147.55 360.158438) scale(0.2 -0.2)">
       <defs>
        <path id="DejaVuSans-38" d="M 2034 2216 
Q 1584 2216 1326 1975 
Q 1069 1734 1069 1313 
Q 1069 891 1326 650 
Q 1584 409 2034 409 
Q 2484 409 2743 651 
Q 3003 894 3003 1313 
Q 3003 1734 2745 1975 
Q 2488 2216 2034 2216 
z
M 1403 2484 
Q 997 2584 770 2862 
Q 544 3141 544 3541 
Q 544 4100 942 4425 
Q 1341 4750 2034 4750 
Q 2731 4750 3128 4425 
Q 3525 4100 3525 3541 
Q 3525 3141 3298 2862 
Q 3072 2584 2669 2484 
Q 3125 2378 3379 2068 
Q 3634 1759 3634 1313 
Q 3634 634 3220 271 
Q 2806 -91 2034 -91 
Q 1263 -91 848 271 
Q 434 634 434 1313 
Q 434 1759 690 2068 
Q 947 2378 1403 2484 
z
M 1172 3481 
Q 1172 3119 1398 2916 
Q 1625 2713 2034 2713 
Q 2441 2713 2670 2916 
Q 2900 3119 2900 3481 
Q 2900 3844 2670 4047 
Q 2441 4250 2034 4250 
Q 1625 4250 1398 4047 
Q 1172 3844 1172 3481 
z
" transform="scale(0.015625)"/>
       </defs>
       <use xlink:href="#DejaVuSans-36"/>
       <use xlink:href="#DejaVuSans-38" x="63.623047"/>
      </g>
     </g>
    </g>
    <g id="ytick_6">
     <g id="line2d_29">
      <path d="M 180 245.786667 
L 1296 245.786667 
" clip-path="url(#pb42cae7114)" style="fill: none; stroke: #b0b0b0; stroke-width: 0.8; stroke-linecap: square"/>
     </g>
     <g id="line2d_30">
      <g>
       <use xlink:href="#m3674756e37" x="180" y="245.786667" style="stroke: #000000; stroke-width: 0.8"/>
      </g>
     </g>
     <g id="text_16">
      <!-- 70 -->
      <g transform="translate(147.55 253.385104) scale(0.2 -0.2)">
       <use xlink:href="#DejaVuSans-37"/>
       <use xlink:href="#DejaVuSans-30" x="63.623047"/>
      </g>
     </g>
    </g>
    <g id="ytick_7">
     <g id="line2d_31">
      <path d="M 180 139.013333 
L 1296 139.013333 
" clip-path="url(#pb42cae7114)" style="fill: none; stroke: #b0b0b0; stroke-width: 0.8; stroke-linecap: square"/>
     </g>
     <g id="line2d_32">
      <g>
       <use xlink:href="#m3674756e37" x="180" y="139.013333" style="stroke: #000000; stroke-width: 0.8"/>
      </g>
     </g>
     <g id="text_17">
      <!-- 72 -->
      <g transform="translate(147.55 146.611771) scale(0.2 -0.2)">
       <use xlink:href="#DejaVuSans-37"/>
       <use xlink:href="#DejaVuSans-32" x="63.623047"/>
      </g>
     </g>
    </g>
    <g id="text_18">
     <!-- exergetischer Wirkungsgrad [%] -->
     <g transform="translate(139.390625 633.722188) rotate(-90) scale(0.2 -0.2)">
      <defs>
       <path id="DejaVuSans-78" d="M 3513 3500 
L 2247 1797 
L 3578 0 
L 2900 0 
L 1881 1375 
L 863 0 
L 184 0 
L 1544 1831 
L 300 3500 
L 978 3500 
L 1906 2253 
L 2834 3500 
L 3513 3500 
z
" transform="scale(0.015625)"/>
       <path id="DejaVuSans-67" d="M 2906 1791 
Q 2906 2416 2648 2759 
Q 2391 3103 1925 3103 
Q 1463 3103 1205 2759 
Q 947 2416 947 1791 
Q 947 1169 1205 825 
Q 1463 481 1925 481 
Q 2391 481 2648 825 
Q 2906 1169 2906 1791 
z
M 3481 434 
Q 3481 -459 3084 -895 
Q 2688 -1331 1869 -1331 
Q 1566 -1331 1297 -1286 
Q 1028 -1241 775 -1147 
L 775 -588 
Q 1028 -725 1275 -790 
Q 1522 -856 1778 -856 
Q 2344 -856 2625 -561 
Q 2906 -266 2906 331 
L 2906 616 
Q 2728 306 2450 153 
Q 2172 0 1784 0 
Q 1141 0 747 490 
Q 353 981 353 1791 
Q 353 2603 747 3093 
Q 1141 3584 1784 3584 
Q 2172 3584 2450 3431 
Q 2728 3278 2906 2969 
L 2906 3500 
L 3481 3500 
L 3481 434 
z
" transform="scale(0.015625)"/>
       <path id="DejaVuSans-74" d="M 1172 4494 
L 1172 3500 
L 2356 3500 
L 2356 3053 
L 1172 3053 
L 1172 1153 
Q 1172 725 1289 603 
Q 1406 481 1766 481 
L 2356 481 
L 2356 0 
L 1766 0 
Q 1100 0 847 248 
Q 594 497 594 1153 
L 594 3053 
L 172 3053 
L 172 3500 
L 594 3500 
L 594 4494 
L 1172 4494 
z
" transform="scale(0.015625)"/>
       <path id="DejaVuSans-69" d="M 603 3500 
L 1178 3500 
L 1178 0 
L 603 0 
L 603 3500 
z
M 603 4863 
L 1178 4863 
L 1178 4134 
L 603 4134 
L 603 4863 
z
" transform="scale(0.015625)"/>
       <path id="DejaVuSans-57" d="M 213 4666 
L 850 4666 
L 1831 722 
L 2809 4666 
L 3519 4666 
L 4500 722 
L 5478 4666 
L 6119 4666 
L 4947 0 
L 4153 0 
L 3169 4050 
L 2175 0 
L 1381 0 
L 213 4666 
z
" transform="scale(0.015625)"/>
       <path id="DejaVuSans-6e" d="M 3513 2113 
L 3513 0 
L 2938 0 
L 2938 2094 
Q 2938 2591 2744 2837 
Q 2550 3084 2163 3084 
Q 1697 3084 1428 2787 
Q 1159 2491 1159 1978 
L 1159 0 
L 581 0 
L 581 3500 
L 1159 3500 
L 1159 2956 
Q 1366 3272 1645 3428 
Q 1925 3584 2291 3584 
Q 2894 3584 3203 3211 
Q 3513 2838 3513 2113 
z
" transform="scale(0.015625)"/>
       <path id="DejaVuSans-25" d="M 4653 2053 
Q 4381 2053 4226 1822 
Q 4072 1591 4072 1178 
Q 4072 772 4226 539 
Q 4381 306 4653 306 
Q 4919 306 5073 539 
Q 5228 772 5228 1178 
Q 5228 1588 5073 1820 
Q 4919 2053 4653 2053 
z
M 4653 2450 
Q 5147 2450 5437 2106 
Q 5728 1763 5728 1178 
Q 5728 594 5436 251 
Q 5144 -91 4653 -91 
Q 4153 -91 3862 251 
Q 3572 594 3572 1178 
Q 3572 1766 3864 2108 
Q 4156 2450 4653 2450 
z
M 1428 4353 
Q 1159 4353 1004 4120 
Q 850 3888 850 3481 
Q 850 3069 1003 2837 
Q 1156 2606 1428 2606 
Q 1700 2606 1854 2837 
Q 2009 3069 2009 3481 
Q 2009 3884 1853 4118 
Q 1697 4353 1428 4353 
z
M 4250 4750 
L 4750 4750 
L 1831 -91 
L 1331 -91 
L 4250 4750 
z
M 1428 4750 
Q 1922 4750 2215 4408 
Q 2509 4066 2509 3481 
Q 2509 2891 2217 2550 
Q 1925 2209 1428 2209 
Q 931 2209 642 2551 
Q 353 2894 353 3481 
Q 353 4063 643 4406 
Q 934 4750 1428 4750 
z
" transform="scale(0.015625)"/>
      </defs>
      <use xlink:href="#DejaVuSans-65"/>
      <use xlink:href="#DejaVuSans-78" x="59.773438"/>
      <use xlink:href="#DejaVuSans-65" x="115.828125"/>
      <use xlink:href="#DejaVuSans-72" x="177.351562"/>
      <use xlink:href="#DejaVuSans-67" x="216.714844"/>
      <use xlink:href="#DejaVuSans-65" x="280.191406"/>
      <use xlink:href="#DejaVuSans-74" x="341.714844"/>
      <use xlink:href="#DejaVuSans-69" x="380.923828"/>
      <use xlink:href="#DejaVuSans-73" x="408.707031"/>
      <use xlink:href="#DejaVuSans-63" x="460.806641"/>
      <use xlink:href="#DejaVuSans-68" x="515.787109"/>
      <use xlink:href="#DejaVuSans-65" x="579.166016"/>
      <use xlink:href="#DejaVuSans-72" x="640.689453"/>
      <use xlink:href="#DejaVuSans-20" x="681.802734"/>
      <use xlink:href="#DejaVuSans-57" x="713.589844"/>
      <use xlink:href="#DejaVuSans-69" x="810.216797"/>
      <use xlink:href="#DejaVuSans-72" x="838"/>
      <use xlink:href="#DejaVuSans-6b" x="879.113281"/>
      <use xlink:href="#DejaVuSans-75" x="933.898438"/>
      <use xlink:href="#DejaVuSans-6e" x="997.277344"/>
      <use xlink:href="#DejaVuSans-67" x="1060.65625"/>
      <use xlink:href="#DejaVuSans-73" x="1124.132812"/>
      <use xlink:href="#DejaVuSans-67" x="1176.232422"/>
      <use xlink:href="#DejaVuSans-72" x="1239.708984"/>
      <use xlink:href="#DejaVuSans-61" x="1280.822266"/>
      <use xlink:href="#DejaVuSans-64" x="1342.101562"/>
      <use xlink:href="#DejaVuSans-20" x="1405.578125"/>
      <use xlink:href="#DejaVuSans-5b" x="1437.365234"/>
      <use xlink:href="#DejaVuSans-25" x="1476.378906"/>
      <use xlink:href="#DejaVuSans-5d" x="1571.398438"/>
     </g>
    </g>
   </g>
   <g id="line2d_33">
    <path d="M 205.953488 828.151732 
L 219.094495 728.689445 
L 232.235502 626.739222 
L 245.376509 553.065214 
L 258.517515 506.577259 
L 271.658522 475.866159 
L 284.799529 454.145904 
L 297.940536 437.961513 
L 311.081543 425.45002 
L 324.222549 415.52395 
L 337.363556 407.502886 
L 350.504563 400.936329 
L 363.64557 395.51205 
L 376.786576 391.005443 
L 389.927583 387.249889 
L 403.06859 384.118571 
L 416.209597 381.512854 
L 429.350603 379.354588 
L 442.49161 377.58085 
L 455.632617 376.140278 
L 468.773624 374.990421 
L 481.914631 374.095824 
L 495.055637 373.426586 
L 508.196644 372.957274 
L 521.337651 372.666092 
L 534.478658 372.534224 
L 547.619664 372.545335 
L 560.760671 372.685156 
L 573.901678 372.941156 
L 587.042685 373.302285 
L 600.183691 373.758752 
L 613.324698 374.301849 
L 626.465705 374.9238 
L 639.606712 375.617638 
L 652.747719 376.377102 
L 665.888725 377.19655 
L 679.029732 378.070879 
L 692.170739 378.99547 
L 705.311746 379.966121 
L 718.452752 380.979014 
L 731.593759 382.03066 
L 744.734766 383.117874 
L 757.875773 384.237739 
L 771.01678 385.387577 
L 784.157786 386.56493 
L 797.298793 387.767536 
L 810.4398 388.993311 
L 823.580807 390.240331 
L 836.721813 391.506821 
L 849.86282 392.791136 
L 863.003827 394.091756 
L 876.144834 395.407271 
L 889.28584 396.736372 
L 902.426847 398.077845 
L 915.567854 399.430561 
L 928.708861 400.793471 
L 941.849868 402.165593 
L 954.990874 403.546019 
L 968.131881 404.933899 
L 981.272888 406.328442 
L 994.413895 407.728909 
L 1007.554901 409.134609 
L 1020.695908 410.544897 
L 1033.836915 411.959171 
L 1046.977922 413.376868 
L 1060.118928 414.797459 
L 1073.259935 416.220452 
L 1086.400942 417.645385 
L 1099.541949 419.071826 
L 1112.682956 420.499372 
L 1125.823962 421.92764 
L 1138.964969 423.356276 
L 1152.105976 424.784947 
L 1165.246983 426.213343 
L 1178.387989 427.64117 
L 1191.528996 429.068155 
L 1204.670003 430.494041 
L 1217.81101 431.918589 
L 1230.952016 433.341572 
L 1244.093023 434.76278 
" clip-path="url(#pb42cae7114)" style="fill: none; stroke: #000000; stroke-width: 1.5; stroke-linecap: square"/>
   </g>
   <g id="line2d_34">
    <path d="M 205.953488 793.792885 
L 219.094495 693.247323 
L 232.235502 590.186728 
L 245.376509 515.710313 
L 258.517515 468.716043 
L 271.658522 437.670458 
L 284.799529 415.713641 
L 297.940536 399.352981 
L 311.081543 386.705221 
L 324.222549 376.671044 
L 337.363556 368.56262 
L 350.504563 361.924544 
L 363.64557 356.441188 
L 376.786576 351.885498 
L 389.927583 348.089041 
L 403.06859 344.923618 
L 416.209597 342.289522 
L 429.350603 340.107749 
L 442.49161 338.314694 
L 455.632617 336.858431 
L 468.773624 335.696051 
L 481.914631 334.791711 
L 495.055637 334.115184 
L 508.196644 333.640761 
L 521.337651 333.346407 
L 534.478658 333.213103 
L 547.619664 333.224335 
L 560.760671 333.365679 
L 573.901678 333.624467 
L 587.042685 333.989529 
L 600.183691 334.450968 
L 613.324698 334.99998 
L 626.465705 335.628705 
L 639.606712 336.330099 
L 652.747719 337.097835 
L 665.888725 337.926207 
L 679.029732 338.81006 
L 692.170739 339.74472 
L 705.311746 340.725943 
L 718.452752 341.749867 
L 731.593759 342.812968 
L 744.734766 343.912023 
L 757.875773 345.044084 
L 771.01678 346.206446 
L 784.157786 347.396622 
L 797.298793 348.612326 
L 810.4398 349.851451 
L 823.580807 351.112053 
L 836.721813 352.392336 
L 849.86282 353.69064 
L 863.003827 355.005425 
L 876.144834 356.335268 
L 889.28584 357.678845 
L 902.426847 359.034928 
L 915.567854 360.402376 
L 928.708861 361.780131 
L 941.849868 363.167197 
L 954.990874 364.562657 
L 968.131881 365.965653 
L 981.272888 367.375385 
L 994.413895 368.791104 
L 1007.554901 370.212114 
L 1020.695908 371.637762 
L 1033.836915 373.06744 
L 1046.977922 374.500577 
L 1060.118928 375.93664 
L 1073.259935 377.375132 
L 1086.400942 378.815584 
L 1099.541949 380.257561 
L 1112.682956 381.700655 
L 1125.823962 383.144478 
L 1138.964969 384.588674 
L 1152.105976 386.032905 
L 1165.246983 387.476858 
L 1178.387989 388.920236 
L 1191.528996 390.362763 
L 1204.670003 391.804179 
L 1217.81101 393.244241 
L 1230.952016 394.682723 
L 1244.093023 396.11941 
" clip-path="url(#pb42cae7114)" style="fill: none; stroke: #000000; stroke-width: 1.5; stroke-linecap: square"/>
   </g>
   <g id="line2d_35">
    <path d="M 205.953488 759.849713 
L 219.094495 658.233981 
L 232.235502 554.076448 
L 245.376509 478.807334 
L 258.517515 431.312874 
L 271.658522 399.936852 
L 284.799529 377.746334 
L 297.940536 361.211537 
L 311.081543 348.42916 
L 324.222549 338.288182 
L 337.363556 330.093455 
L 350.504563 323.384726 
L 363.64557 317.843007 
L 376.786576 313.238828 
L 389.927583 309.401963 
L 403.06859 306.202849 
L 416.209597 303.540717 
L 429.350603 301.335722 
L 442.49161 299.523581 
L 455.632617 298.051819 
L 468.773624 296.877066 
L 481.914631 295.963101 
L 495.055637 295.279374 
L 508.196644 294.799901 
L 521.337651 294.502414 
L 534.478658 294.367691 
L 547.619664 294.379042 
L 560.760671 294.521891 
L 573.901678 294.783433 
L 587.042685 295.152381 
L 600.183691 295.618732 
L 613.324698 296.173587 
L 626.465705 296.809004 
L 639.606712 297.517864 
L 652.747719 298.293771 
L 665.888725 299.13096 
L 679.029732 300.02422 
L 692.170739 300.968828 
L 705.311746 301.960495 
L 718.452752 302.995318 
L 731.593759 304.069733 
L 744.734766 305.180487 
L 757.875773 306.324597 
L 771.01678 307.49933 
L 784.157786 308.702174 
L 797.298793 309.930818 
L 810.4398 311.183132 
L 823.580807 312.457151 
L 836.721813 313.751061 
L 849.86282 315.063183 
L 863.003827 316.391963 
L 876.144834 317.73596 
L 889.28584 319.093837 
L 902.426847 320.464354 
L 915.567854 321.846357 
L 928.708861 323.238776 
L 941.849868 324.640605 
L 954.990874 326.050918 
L 968.131881 327.468848 
L 981.272888 328.893584 
L 994.413895 330.324371 
L 1007.554901 331.760506 
L 1020.695908 333.201328 
L 1033.836915 334.646223 
L 1046.977922 336.094613 
L 1060.118928 337.545962 
L 1073.259935 338.999764 
L 1086.400942 340.455548 
L 1099.541949 341.912873 
L 1112.682956 343.371327 
L 1125.823962 344.830517 
L 1138.964969 346.290084 
L 1152.105976 347.749688 
L 1165.246983 349.209009 
L 1178.387989 350.66775 
L 1191.528996 352.12563 
L 1204.670003 353.582389 
L 1217.81101 355.037779 
L 1230.952016 356.491571 
L 1244.093023 357.94355 
" clip-path="url(#pb42cae7114)" style="fill: none; stroke: #000000; stroke-width: 1.5; stroke-linecap: square"/>
   </g>
   <g id="line2d_36">
    <path d="M 205.953488 726.306083 
L 219.094495 623.632778 
L 232.235502 518.391219 
L 245.376509 442.338736 
L 258.517515 394.349975 
L 271.658522 362.647404 
L 284.799529 340.225938 
L 297.940536 323.519053 
L 311.081543 310.603643 
L 324.222549 300.357122 
L 337.363556 292.077108 
L 350.504563 285.298557 
L 363.64557 279.699163 
L 376.786576 275.047065 
L 389.927583 271.170268 
L 403.06859 267.937859 
L 416.209597 265.24802 
L 429.350603 263.020076 
L 442.49161 261.189076 
L 455.632617 259.701996 
L 468.773624 258.515017 
L 481.914631 257.59154 
L 495.055637 256.900697 
L 508.196644 256.416234 
L 521.337651 256.11565 
L 534.478658 255.979526 
L 547.619664 255.990995 
L 560.760671 256.135331 
L 573.901678 256.399595 
L 587.042685 256.772382 
L 600.183691 257.243586 
L 613.324698 257.804217 
L 626.465705 258.446246 
L 639.606712 259.162484 
L 652.747719 259.946466 
L 665.888725 260.792369 
L 679.029732 261.694925 
L 692.170739 262.649364 
L 705.311746 263.651352 
L 718.452752 264.696945 
L 731.593759 265.782542 
L 744.734766 266.904856 
L 757.875773 268.060874 
L 771.01678 269.247833 
L 784.157786 270.463195 
L 797.298793 271.704626 
L 810.4398 272.969974 
L 823.580807 274.257253 
L 836.721813 275.564629 
L 849.86282 276.890407 
L 863.003827 278.233016 
L 876.144834 279.591001 
L 889.28584 280.96301 
L 902.426847 282.347791 
L 915.567854 283.744177 
L 928.708861 285.151088 
L 941.849868 286.567507 
L 954.990874 287.992498 
L 968.131881 289.425184 
L 981.272888 290.864749 
L 994.413895 292.310427 
L 1007.554901 293.761509 
L 1020.695908 295.217326 
L 1033.836915 296.677259 
L 1046.977922 298.140724 
L 1060.118928 299.607177 
L 1073.259935 301.07611 
L 1086.400942 302.547045 
L 1099.541949 304.019537 
L 1112.682956 305.49317 
L 1125.823962 306.967547 
L 1138.964969 308.442305 
L 1152.105976 309.917099 
L 1165.246983 311.391608 
L 1178.387989 312.865531 
L 1191.528996 314.338585 
L 1204.670003 315.810504 
L 1217.81101 317.281041 
L 1230.952016 318.749964 
L 1244.093023 320.217054 
" clip-path="url(#pb42cae7114)" style="fill: none; stroke: #000000; stroke-width: 1.5; stroke-linecap: square"/>
   </g>
   <g id="line2d_37">
    <path d="M 205.953488 693.145814 
L 219.094495 589.427024 
L 232.235502 483.113826 
L 245.376509 406.286929 
L 258.517515 357.809514 
L 271.658522 325.784128 
L 284.799529 303.134351 
L 297.940536 286.257347 
L 311.081543 273.210423 
L 324.222549 262.859566 
L 337.363556 254.495239 
L 350.504563 247.647665 
L 363.64557 241.991254 
L 376.786576 237.291786 
L 389.927583 233.375512 
L 403.06859 230.110189 
L 416.209597 227.39296 
L 429.350603 225.14233 
L 442.49161 223.292685 
L 455.632617 221.790463 
L 468.773624 220.591398 
L 481.914631 219.658517 
L 495.055637 218.960639 
L 508.196644 218.471243 
L 521.337651 218.167599 
L 534.478658 218.030088 
L 547.619664 218.041674 
L 560.760671 218.187479 
L 573.901678 218.454434 
L 587.042685 218.831018 
L 600.183691 219.30702 
L 613.324698 219.873359 
L 626.465705 220.521926 
L 639.606712 221.245457 
L 652.747719 222.037423 
L 665.888725 222.891939 
L 679.029732 223.803685 
L 692.170739 224.767844 
L 705.311746 225.780034 
L 718.452752 226.836274 
L 731.593759 227.932926 
L 744.734766 229.066667 
L 757.875773 230.234456 
L 771.01678 231.433502 
L 784.157786 232.66124 
L 797.298793 233.915312 
L 810.4398 235.193544 
L 823.580807 236.493931 
L 836.721813 237.81462 
L 849.86282 239.153898 
L 863.003827 240.510178 
L 876.144834 241.881991 
L 889.28584 243.267971 
L 902.426847 244.666852 
L 915.567854 246.077457 
L 928.708861 247.498694 
L 941.849868 248.929536 
L 954.990874 250.369037 
L 968.131881 251.816312 
L 981.272888 253.270535 
L 994.413895 254.730935 
L 1007.554901 256.196792 
L 1020.695908 257.667433 
L 1033.836915 259.142232 
L 1046.977922 260.620599 
L 1060.118928 262.101984 
L 1073.259935 263.585875 
L 1086.400942 265.071788 
L 1099.541949 266.559274 
L 1112.682956 268.047912 
L 1125.823962 269.537302 
L 1138.964969 271.027077 
L 1152.105976 272.516889 
L 1165.246983 274.006413 
L 1178.387989 275.495344 
L 1191.528996 276.983397 
L 1204.670003 278.470304 
L 1217.81101 279.955815 
L 1230.952016 281.439695 
L 1244.093023 282.921725 
" clip-path="url(#pb42cae7114)" style="fill: none; stroke: #000000; stroke-width: 1.5; stroke-linecap: square"/>
   </g>
   <g id="line2d_38">
    <path d="M 205.953488 660.352585 
L 219.094495 555.599881 
L 232.235502 448.226908 
L 245.376509 370.634166 
L 258.517515 321.673508 
L 271.658522 289.328879 
L 284.799529 266.453319 
L 297.940536 249.408078 
L 311.081543 236.231096 
L 324.222549 225.777057 
L 337.363556 217.329351 
L 350.504563 210.413518 
L 363.64557 204.700721 
L 376.786576 199.954407 
L 389.927583 195.999094 
L 403.06859 192.70122 
L 416.209597 189.956905 
L 429.350603 187.68384 
L 442.49161 185.815757 
L 455.632617 184.29856 
L 468.773624 183.087542 
L 481.914631 182.145361 
L 495.055637 181.440527 
L 508.196644 180.946252 
L 521.337651 180.639582 
L 534.478658 180.5007 
L 547.619664 180.512401 
L 560.760671 180.65966 
L 573.901678 180.929276 
L 587.042685 181.309614 
L 600.183691 181.790361 
L 613.324698 182.362346 
L 626.465705 183.017378 
L 639.606712 183.748121 
L 652.747719 184.547982 
L 665.888725 185.411015 
L 679.029732 186.331851 
L 692.170739 187.30562 
L 705.311746 188.327901 
L 718.452752 189.394669 
L 731.593759 190.502253 
L 744.734766 191.647297 
L 757.875773 192.826727 
L 771.01678 194.037725 
L 784.157786 195.277702 
L 797.298793 196.544275 
L 810.4398 197.835249 
L 823.580807 199.148598 
L 836.721813 200.482452 
L 849.86282 201.835081 
L 863.003827 203.204881 
L 876.144834 204.590368 
L 889.28584 205.990165 
L 902.426847 207.402991 
L 915.567854 208.827657 
L 928.708861 210.263062 
L 941.849868 211.708167 
L 954.990874 213.162018 
L 968.131881 214.62372 
L 981.272888 216.092439 
L 994.413895 217.567396 
L 1007.554901 219.047866 
L 1020.695908 220.533168 
L 1033.836915 222.022667 
L 1046.977922 223.515771 
L 1060.118928 225.011924 
L 1073.259935 226.510606 
L 1086.400942 228.011332 
L 1099.541949 229.513646 
L 1112.682956 231.017123 
L 1125.823962 232.52136 
L 1138.964969 234.025986 
L 1152.105976 235.530649 
L 1165.246983 237.035021 
L 1178.387989 238.538794 
L 1191.528996 240.041681 
L 1204.670003 241.54341 
L 1217.81101 243.04373 
L 1230.952016 244.542402 
L 1244.093023 246.039204 
" clip-path="url(#pb42cae7114)" style="fill: none; stroke: #000000; stroke-width: 1.5; stroke-linecap: square"/>
   </g>
   <g id="line2d_39">
    <path d="M 205.953488 627.909828 
L 219.094495 522.13426 
L 232.235502 413.712837 
L 245.376509 335.362436 
L 258.517515 285.923699 
L 271.658522 253.263239 
L 284.799529 230.164309 
L 297.940536 212.952628 
L 311.081543 199.64698 
L 324.222549 189.090861 
L 337.363556 180.560667 
L 350.504563 173.577304 
L 363.64557 167.808724 
L 376.786576 163.016064 
L 389.927583 159.022129 
L 403.06859 155.692053 
L 416.209597 152.920941 
L 429.350603 150.62568 
L 442.49161 148.739357 
L 455.632617 147.207345 
L 468.773624 145.984502 
L 481.914631 145.033121 
L 495.055637 144.321405 
L 508.196644 143.822303 
L 521.337651 143.512638 
L 534.478658 143.3724 
L 547.619664 143.384216 
L 560.760671 143.532913 
L 573.901678 143.805162 
L 587.042685 144.189213 
L 600.183691 144.674655 
L 613.324698 145.252224 
L 626.465705 145.913653 
L 639.606712 146.651531 
L 652.747719 147.459202 
L 665.888725 148.330663 
L 679.029732 149.26049 
L 692.170739 150.243768 
L 705.311746 151.27603 
L 718.452752 152.353216 
L 731.593759 153.471614 
L 744.734766 154.627839 
L 757.875773 155.818785 
L 771.01678 157.041608 
L 784.157786 158.293693 
L 797.298793 159.572633 
L 810.4398 160.876213 
L 823.580807 162.202387 
L 836.721813 163.549266 
L 849.86282 164.915102 
L 863.003827 166.298278 
L 876.144834 167.697294 
L 889.28584 169.110759 
L 902.426847 170.53738 
L 915.567854 171.975958 
L 928.708861 173.425378 
L 941.849868 174.884595 
L 954.990874 176.352642 
L 968.131881 177.828617 
L 981.272888 179.311677 
L 994.413895 180.801037 
L 1007.554901 182.295962 
L 1020.695908 183.795767 
L 1033.836915 185.299811 
L 1046.977922 186.807495 
L 1060.118928 188.318257 
L 1073.259935 189.831573 
L 1086.400942 191.346953 
L 1099.541949 192.863936 
L 1112.682956 194.382094 
L 1125.823962 195.90102 
L 1138.964969 197.420337 
L 1152.105976 198.939692 
L 1165.246983 200.458754 
L 1178.387989 201.977211 
L 1191.528996 203.494773 
L 1204.670003 205.011166 
L 1217.81101 206.526135 
L 1230.952016 208.039441 
L 1244.093023 209.55086 
" clip-path="url(#pb42cae7114)" style="fill: none; stroke: #000000; stroke-width: 1.5; stroke-linecap: square"/>
   </g>
   <g id="line2d_40">
    <path d="M 206.763688 652.862837 
L 208.964625 636.107205 
L 211.167474 618.695162 
L 213.372235 600.662055 
L 215.57891 582.077763 
L 217.787501 563.05366 
L 219.998009 543.7458 
L 222.210436 524.351442 
L 224.424782 505.097069 
L 226.64105 486.2186 
L 228.859241 467.93775 
L 231.079356 450.440269 
L 233.301398 433.86246 
L 235.525366 418.285476 
L 237.751264 403.740193 
L 239.979092 390.216665 
L 242.208851 377.675021 
L 244.440544 366.057193 
L 246.674172 355.295128 
L 248.909737 345.317413 
L 251.147239 336.053589 
L 253.38668 327.436762 
L 255.628063 319.404998 
L 257.871387 311.901894 
L 260.116656 304.876639 
L 262.36387 298.283775 
L 264.613031 292.082801 
L 266.864141 286.237716 
L 269.1172 280.71654 
L 271.372211 275.490864 
L 273.629175 270.535422 
L 275.888094 265.827717 
L 278.148969 261.347676 
L 280.411801 257.077355 
L 282.676593 253.000681 
L 284.943346 249.103209 
L 287.212061 245.371948 
L 289.48274 241.795171 
L 291.755385 238.362274 
L 294.029996 235.063642 
L 296.306576 231.890539 
L 298.585127 228.835012 
L 300.865649 225.889797 
L 303.148144 223.048256 
L 305.432615 220.304301 
L 307.719062 217.652342 
L 310.007487 215.087236 
L 312.297892 212.604241 
L 314.590278 210.198979 
L 316.884647 207.867398 
L 319.181001 205.605743 
L 321.479341 203.410528 
L 323.779668 201.278515 
L 326.081985 199.206685 
L 328.386293 197.192226 
L 330.692593 195.23251 
L 333.000888 193.325081 
L 335.311178 191.467638 
L 337.623466 189.658025 
L 339.937753 187.894218 
L 342.254041 186.174314 
L 344.572331 184.496524 
L 346.892626 182.859163 
L 349.214926 181.260639 
L 351.539233 179.699453 
L 353.865549 178.174186 
L 356.193876 176.683499 
L 358.524216 175.226122 
L 360.856569 173.800851 
L 363.190938 172.406546 
L 365.527324 171.042125 
L 367.86573 169.706558 
L 370.206156 168.398867 
L 372.548604 167.118123 
L 374.893077 165.863438 
L 377.239575 164.633968 
L 379.588101 163.428908 
L 381.938656 162.24749 
L 384.291242 161.088978 
L 386.64586 159.952673 
" clip-path="url(#pb42cae7114)" style="fill: none; stroke-dasharray: 5.55,2.4; stroke-dashoffset: 0; stroke: #ff0000; stroke-width: 1.5"/>
   </g>
   <g id="line2d_41">
    <path d="M 204.93489 698.996988 
L 209.474589 665.159881 
L 214.022424 628.611563 
L 218.57841 589.908059 
L 223.142558 550.330943 
L 227.714881 511.762471 
L 232.295393 476.065164 
L 236.884106 444.398083 
L 241.481033 417.03189 
L 246.086188 393.630989 
L 250.699583 373.6152 
L 255.321232 356.386525 
L 259.951149 341.423486 
L 264.589345 328.3019 
L 269.235836 316.686368 
L 273.890634 306.313914 
L 278.553753 296.978023 
L 283.225206 288.515449 
L 287.905007 280.795975 
L 292.59317 273.714722 
L 297.289709 267.186348 
L 301.994637 261.140726 
L 306.707968 255.51969 
L 311.429716 250.274566 
L 316.159895 245.364279 
L 320.89852 240.753906 
L 325.645604 236.413533 
L 330.401161 232.31737 
L 335.165206 228.443042 
L 339.937753 224.771023 
L 344.718817 221.284185 
L 349.508412 217.967427 
L 354.306552 214.807369 
L 359.113252 211.79211 
L 363.928526 208.911017 
L 368.75239 206.154555 
L 373.584858 203.514144 
L 378.425945 200.982034 
L 383.275666 198.551205 
L 388.134036 196.215281 
L 393.00107 193.968447 
L 397.876782 191.805394 
L 402.761171 189.721264 
L 407.654287 187.711582 
L 412.556128 185.772243 
L 417.466709 183.899459 
L 422.386045 182.089727 
L 427.314152 180.339805 
L 432.251046 178.646686 
L 437.196742 177.007573 
L 442.151256 175.419865 
L 447.114604 173.881137 
L 452.086801 172.389123 
L 457.067864 170.941706 
L 462.057809 169.536899 
L 467.056651 168.172843 
L 472.064407 166.847791 
L 477.081093 165.5601 
L 482.106725 164.308224 
L 487.14132 163.090707 
L 492.184895 161.906172 
L 497.237464 160.753322 
L 502.299047 159.630928 
L 507.369658 158.537829 
L 512.449314 157.472925 
L 517.538033 156.435172 
L 522.635832 155.42358 
L 527.742727 154.437207 
L 532.858735 153.475159 
L 537.983874 152.536586 
L 543.118161 151.620677 
L 548.261612 150.726662 
L 553.414246 149.853806 
L 558.57608 149.001401 
L 563.747131 148.168779 
L 568.927417 147.355301 
L 574.116955 146.560352 
L 579.315764 145.783347 
L 584.523861 145.023725 
L 589.741264 144.280948 
" clip-path="url(#pb42cae7114)" style="fill: none; stroke-dasharray: 5.55,2.4; stroke-dashoffset: 0; stroke: #ffa500; stroke-width: 1.5"/>
   </g>
   <g id="line2d_42">
    <path d="M 204.93489 765.524989 
L 214.115322 695.736614 
L 223.329023 618.146013 
L 232.576099 544.860907 
L 241.856655 486.951952 
L 251.170802 444.505208 
L 260.518646 413.05815 
L 269.900298 388.882834 
L 279.31587 369.604447 
L 288.765471 353.758154 
L 298.249217 340.415572 
L 307.767219 328.964473 
L 317.319593 318.985007 
L 326.906456 310.179002 
L 336.527923 302.328156 
L 346.184113 295.268401 
L 355.875144 288.873601 
L 365.601138 283.044868 
L 375.362215 277.703339 
L 385.158496 272.78517 
L 394.990107 268.237988 
L 404.857153 264.018326 
L 414.759796 260.089718 
L 424.698145 256.421301 
L 434.672327 252.986718 
L 444.682472 249.763294 
L 454.728709 246.73138 
L 464.811171 243.873847 
L 474.92999 241.175669 
L 485.0853 238.6236 
L 495.277236 236.205903 
L 505.505934 233.912129 
L 515.771532 231.732942 
L 526.074168 229.659961 
L 536.413983 227.685639 
L 546.791118 225.803155 
L 557.205716 224.006331 
L 567.657921 222.289537 
L 578.147877 220.647652 
L 588.675731 219.075989 
L 599.241633 217.570253 
L 609.845729 216.126502 
L 620.488172 214.741102 
L 631.169114 213.410705 
L 641.888707 212.132214 
L 652.647107 210.902763 
L 663.44447 209.719691 
L 674.280954 208.580528 
L 685.156717 207.482974 
L 696.071921 206.424886 
L 707.026728 205.404262 
L 718.021301 204.419235 
L 729.055805 203.468053 
L 740.130408 202.549076 
L 751.245276 201.660766 
L 762.400581 200.801679 
L 773.596494 199.970456 
L 784.833187 199.165819 
L 796.110836 198.386564 
L 807.429615 197.631554 
L 818.789704 196.899719 
L 830.191283 196.190044 
L 841.634531 195.501573 
L 853.119632 194.833401 
L 864.646772 194.184668 
L 876.216136 193.554563 
L 887.827912 192.942315 
L 899.482292 192.347193 
L 911.179466 191.768502 
L 922.919629 191.205585 
L 934.702976 190.65781 
L 946.529704 190.124583 
L 958.400014 189.605337 
L 970.314107 189.09953 
L 982.272185 188.606649 
L 994.274455 188.126202 
L 1006.321124 187.657722 
L 1018.412401 187.200762 
L 1030.548498 186.754897 
L 1042.729629 186.31972 
" clip-path="url(#pb42cae7114)" style="fill: none; stroke-dasharray: 5.55,2.4; stroke-dashoffset: 0; stroke: #008000; stroke-width: 1.5"/>
   </g>
   <g id="line2d_43">
    <path d="M 204.93489 833.64505 
L 215.973991 750.255344 
L 227.061191 658.866753 
L 238.196675 581.001093 
L 249.380629 526.019025 
L 260.613241 487.859818 
L 271.894703 460.015357 
L 283.225206 438.613044 
L 294.604946 421.472681 
L 306.03412 407.312099 
L 317.512926 395.332605 
L 329.041565 385.009714 
L 340.620241 375.983192 
L 352.249159 367.996142 
L 363.928526 360.859502 
L 375.658554 354.430391 
L 387.439453 348.598365 
L 399.271421 343.276375 
L 411.154711 338.394651 
L 423.089523 333.896457 
L 435.076079 329.735048 
L 447.114604 325.871473 
L 459.205323 322.272943 
L 471.348467 318.911604 
L 483.544266 315.763602 
L 495.792954 312.808356 
L 508.094769 310.027986 
L 520.449948 307.406871 
L 532.858735 304.931277 
L 545.321374 302.589075 
L 557.838111 300.369501 
L 570.409197 298.262951 
L 583.034885 296.260837 
L 595.715429 294.355441 
L 608.451088 292.539804 
L 621.242124 290.807633 
L 634.0888 289.153217 
L 646.991383 287.571361 
L 659.950142 286.057325 
L 672.965352 284.606776 
L 686.037287 283.21574 
L 699.166227 281.880567 
L 712.352453 280.597897 
L 725.596252 279.364631 
L 738.897911 278.177906 
L 752.257722 277.035069 
L 765.675979 275.933662 
L 779.152982 274.871403 
L 792.689031 273.846168 
L 806.284432 272.85598 
L 819.939492 271.898994 
L 833.654525 270.973489 
L 847.429844 270.077855 
L 861.26577 269.210584 
L 875.162625 268.370266 
L 889.120736 267.555576 
L 903.140432 266.76527 
L 917.222048 265.998182 
L 931.365921 265.253215 
L 945.572393 264.529328 
L 959.841811 263.825552 
L 974.174523 263.140967 
L 988.570885 262.474708 
L 1003.031254 261.825955 
L 1017.555992 261.193937 
L 1032.145467 260.577924 
L 1046.80005 259.977224 
L 1061.520117 259.391184 
L 1076.306048 258.819186 
L 1091.158228 258.260643 
L 1106.077047 257.715003 
L 1121.062899 257.181735 
L 1136.116184 256.660341 
L 1151.237307 256.150349 
L 1166.426676 255.651308 
L 1181.684708 255.162794 
L 1197.011823 254.684401 
L 1212.408445 254.215744 
L 1227.875006 253.756458 
L 1243.411943 253.306198 
" clip-path="url(#pb42cae7114)" style="fill: none; stroke-dasharray: 5.55,2.4; stroke-dashoffset: 0; stroke: #4682b4; stroke-width: 1.5"/>
   </g>
   <g id="patch_3">
    <path d="M 180 833.04 
L 180 112.32 
" style="fill: none; stroke: #000000; stroke-width: 0.8; stroke-linejoin: miter; stroke-linecap: square"/>
   </g>
   <g id="patch_4">
    <path d="M 1296 833.04 
L 1296 112.32 
" style="fill: none; stroke: #000000; stroke-width: 0.8; stroke-linejoin: miter; stroke-linecap: square"/>
   </g>
   <g id="patch_5">
    <path d="M 180 833.04 
L 1296 833.04 
" style="fill: none; stroke: #000000; stroke-width: 0.8; stroke-linejoin: miter; stroke-linecap: square"/>
   </g>
   <g id="patch_6">
    <path d="M 180 112.32 
L 1296 112.32 
" style="fill: none; stroke: #000000; stroke-width: 0.8; stroke-linejoin: miter; stroke-linecap: square"/>
   </g>
   <g id="text_19">
    <!-- 190 -->
    <g transform="translate(1249.283721 443.317333) scale(0.2 -0.2)">
     <defs>
      <path id="DejaVuSans-31" d="M 794 531 
L 1825 531 
L 1825 4091 
L 703 3866 
L 703 4441 
L 1819 4666 
L 2450 4666 
L 2450 531 
L 3481 531 
L 3481 0 
L 794 0 
L 794 531 
z
" transform="scale(0.015625)"/>
      <path id="DejaVuSans-39" d="M 703 97 
L 703 672 
Q 941 559 1184 500 
Q 1428 441 1663 441 
Q 2288 441 2617 861 
Q 2947 1281 2994 2138 
Q 2813 1869 2534 1725 
Q 2256 1581 1919 1581 
Q 1219 1581 811 2004 
Q 403 2428 403 3163 
Q 403 3881 828 4315 
Q 1253 4750 1959 4750 
Q 2769 4750 3195 4129 
Q 3622 3509 3622 2328 
Q 3622 1225 3098 567 
Q 2575 -91 1691 -91 
Q 1453 -91 1209 -44 
Q 966 3 703 97 
z
M 1959 2075 
Q 2384 2075 2632 2365 
Q 2881 2656 2881 3163 
Q 2881 3666 2632 3958 
Q 2384 4250 1959 4250 
Q 1534 4250 1286 3958 
Q 1038 3666 1038 3163 
Q 1038 2656 1286 2365 
Q 1534 2075 1959 2075 
z
" transform="scale(0.015625)"/>
     </defs>
     <use xlink:href="#DejaVuSans-31"/>
     <use xlink:href="#DejaVuSans-39" x="63.623047"/>
     <use xlink:href="#DejaVuSans-30" x="127.246094"/>
    </g>
   </g>
   <g id="text_20">
    <!-- 195 -->
    <g transform="translate(1249.283721 405.946667) scale(0.2 -0.2)">
     <use xlink:href="#DejaVuSans-31"/>
     <use xlink:href="#DejaVuSans-39" x="63.623047"/>
     <use xlink:href="#DejaVuSans-35" x="127.246094"/>
    </g>
   </g>
   <g id="text_21">
    <!-- 200 -->
    <g transform="translate(1249.283721 368.576) scale(0.2 -0.2)">
     <use xlink:href="#DejaVuSans-32"/>
     <use xlink:href="#DejaVuSans-30" x="63.623047"/>
     <use xlink:href="#DejaVuSans-30" x="127.246094"/>
    </g>
   </g>
   <g id="text_22">
    <!-- 205 -->
    <g transform="translate(1249.283721 331.205333) scale(0.2 -0.2)">
     <use xlink:href="#DejaVuSans-32"/>
     <use xlink:href="#DejaVuSans-30" x="63.623047"/>
     <use xlink:href="#DejaVuSans-35" x="127.246094"/>
    </g>
   </g>
   <g id="text_23">
    <!-- 210 -->
    <g transform="translate(1249.283721 293.834667) scale(0.2 -0.2)">
     <use xlink:href="#DejaVuSans-32"/>
     <use xlink:href="#DejaVuSans-31" x="63.623047"/>
     <use xlink:href="#DejaVuSans-30" x="127.246094"/>
    </g>
   </g>
   <g id="text_24">
    <!-- 215 -->
    <g transform="translate(1249.283721 256.464) scale(0.2 -0.2)">
     <use xlink:href="#DejaVuSans-32"/>
     <use xlink:href="#DejaVuSans-31" x="63.623047"/>
     <use xlink:href="#DejaVuSans-35" x="127.246094"/>
    </g>
   </g>
   <g id="text_25">
    <!-- 220 -->
    <g transform="translate(1249.283721 219.093333) scale(0.2 -0.2)">
     <use xlink:href="#DejaVuSans-32"/>
     <use xlink:href="#DejaVuSans-32" x="63.623047"/>
     <use xlink:href="#DejaVuSans-30" x="127.246094"/>
    </g>
   </g>
   <g id="legend_1">
    <g id="patch_7">
     <path d="M 284.507812 823.04 
L 1191.492188 823.04 
Q 1195.492188 823.04 1195.492188 819.04 
L 1195.492188 791.1275 
Q 1195.492188 787.1275 1191.492188 787.1275 
L 284.507812 787.1275 
Q 280.507812 787.1275 280.507812 791.1275 
L 280.507812 819.04 
Q 280.507812 823.04 284.507812 823.04 
z
" style="fill: #ffffff; opacity: 0.8; stroke: #cccccc; stroke-linejoin: miter"/>
    </g>
    <g id="line2d_44">
     <path d="M 288.507812 803.324375 
L 308.507812 803.324375 
L 328.507812 803.324375 
" style="fill: none; stroke: #000000; stroke-width: 1.5; stroke-linecap: square"/>
    </g>
    <g id="text_26">
     <!-- T_se,ein [°C]        ttd_gk,ob: -->
     <g transform="translate(344.507812 810.324375) scale(0.2 -0.2)">
      <defs>
       <path id="DejaVuSans-54" d="M -19 4666 
L 3928 4666 
L 3928 4134 
L 2272 4134 
L 2272 0 
L 1638 0 
L 1638 4134 
L -19 4134 
L -19 4666 
z
" transform="scale(0.015625)"/>
       <path id="DejaVuSans-5f" d="M 3263 -1063 
L 3263 -1509 
L -63 -1509 
L -63 -1063 
L 3263 -1063 
z
" transform="scale(0.015625)"/>
       <path id="DejaVuSans-2c" d="M 750 794 
L 1409 794 
L 1409 256 
L 897 -744 
L 494 -744 
L 750 256 
L 750 794 
z
" transform="scale(0.015625)"/>
       <path id="DejaVuSans-b0" d="M 1600 4347 
Q 1350 4347 1178 4173 
Q 1006 4000 1006 3750 
Q 1006 3503 1178 3333 
Q 1350 3163 1600 3163 
Q 1850 3163 2022 3333 
Q 2194 3503 2194 3750 
Q 2194 3997 2020 4172 
Q 1847 4347 1600 4347 
z
M 1600 4750 
Q 1800 4750 1984 4673 
Q 2169 4597 2303 4453 
Q 2447 4313 2519 4134 
Q 2591 3956 2591 3750 
Q 2591 3338 2302 3052 
Q 2013 2766 1594 2766 
Q 1172 2766 890 3047 
Q 609 3328 609 3750 
Q 609 4169 896 4459 
Q 1184 4750 1600 4750 
z
" transform="scale(0.015625)"/>
       <path id="DejaVuSans-43" d="M 4122 4306 
L 4122 3641 
Q 3803 3938 3442 4084 
Q 3081 4231 2675 4231 
Q 1875 4231 1450 3742 
Q 1025 3253 1025 2328 
Q 1025 1406 1450 917 
Q 1875 428 2675 428 
Q 3081 428 3442 575 
Q 3803 722 4122 1019 
L 4122 359 
Q 3791 134 3420 21 
Q 3050 -91 2638 -91 
Q 1578 -91 968 557 
Q 359 1206 359 2328 
Q 359 3453 968 4101 
Q 1578 4750 2638 4750 
Q 3056 4750 3426 4639 
Q 3797 4528 4122 4306 
z
" transform="scale(0.015625)"/>
       <path id="DejaVuSans-6f" d="M 1959 3097 
Q 1497 3097 1228 2736 
Q 959 2375 959 1747 
Q 959 1119 1226 758 
Q 1494 397 1959 397 
Q 2419 397 2687 759 
Q 2956 1122 2956 1747 
Q 2956 2369 2687 2733 
Q 2419 3097 1959 3097 
z
M 1959 3584 
Q 2709 3584 3137 3096 
Q 3566 2609 3566 1747 
Q 3566 888 3137 398 
Q 2709 -91 1959 -91 
Q 1206 -91 779 398 
Q 353 888 353 1747 
Q 353 2609 779 3096 
Q 1206 3584 1959 3584 
z
" transform="scale(0.015625)"/>
       <path id="DejaVuSans-3a" d="M 750 794 
L 1409 794 
L 1409 0 
L 750 0 
L 750 794 
z
M 750 3309 
L 1409 3309 
L 1409 2516 
L 750 2516 
L 750 3309 
z
" transform="scale(0.015625)"/>
      </defs>
      <use xlink:href="#DejaVuSans-54"/>
      <use xlink:href="#DejaVuSans-5f" x="61.083984"/>
      <use xlink:href="#DejaVuSans-73" x="111.083984"/>
      <use xlink:href="#DejaVuSans-65" x="163.183594"/>
      <use xlink:href="#DejaVuSans-2c" x="224.707031"/>
      <use xlink:href="#DejaVuSans-65" x="256.494141"/>
      <use xlink:href="#DejaVuSans-69" x="318.017578"/>
      <use xlink:href="#DejaVuSans-6e" x="345.800781"/>
      <use xlink:href="#DejaVuSans-20" x="409.179688"/>
      <use xlink:href="#DejaVuSans-5b" x="440.966797"/>
      <use xlink:href="#DejaVuSans-b0" x="479.980469"/>
      <use xlink:href="#DejaVuSans-43" x="529.980469"/>
      <use xlink:href="#DejaVuSans-5d" x="599.804688"/>
      <use xlink:href="#DejaVuSans-20" x="638.818359"/>
      <use xlink:href="#DejaVuSans-20" x="670.605469"/>
      <use xlink:href="#DejaVuSans-20" x="702.392578"/>
      <use xlink:href="#DejaVuSans-20" x="734.179688"/>
      <use xlink:href="#DejaVuSans-20" x="765.966797"/>
      <use xlink:href="#DejaVuSans-20" x="797.753906"/>
      <use xlink:href="#DejaVuSans-20" x="829.541016"/>
      <use xlink:href="#DejaVuSans-20" x="861.328125"/>
      <use xlink:href="#DejaVuSans-74" x="893.115234"/>
      <use xlink:href="#DejaVuSans-74" x="932.324219"/>
      <use xlink:href="#DejaVuSans-64" x="971.533203"/>
      <use xlink:href="#DejaVuSans-5f" x="1035.009766"/>
      <use xlink:href="#DejaVuSans-67" x="1085.009766"/>
      <use xlink:href="#DejaVuSans-6b" x="1148.486328"/>
      <use xlink:href="#DejaVuSans-2c" x="1206.396484"/>
      <use xlink:href="#DejaVuSans-6f" x="1238.183594"/>
      <use xlink:href="#DejaVuSans-62" x="1299.365234"/>
      <use xlink:href="#DejaVuSans-3a" x="1362.841797"/>
     </g>
    </g>
    <g id="line2d_45">
     <path d="M 663.804688 803.324375 
L 683.804688 803.324375 
L 703.804688 803.324375 
" style="fill: none; stroke-dasharray: 5.55,2.4; stroke-dashoffset: 0; stroke: #4682b4; stroke-width: 1.5"/>
    </g>
    <g id="text_27">
     <!-- 40 K -->
     <g transform="translate(719.804688 810.324375) scale(0.2 -0.2)">
      <defs>
       <path id="DejaVuSans-4b" d="M 628 4666 
L 1259 4666 
L 1259 2694 
L 3353 4666 
L 4166 4666 
L 1850 2491 
L 4331 0 
L 3500 0 
L 1259 2247 
L 1259 0 
L 628 0 
L 628 4666 
z
" transform="scale(0.015625)"/>
      </defs>
      <use xlink:href="#DejaVuSans-34"/>
      <use xlink:href="#DejaVuSans-30" x="63.623047"/>
      <use xlink:href="#DejaVuSans-20" x="127.246094"/>
      <use xlink:href="#DejaVuSans-4b" x="159.033203"/>
     </g>
    </g>
    <g id="line2d_46">
     <path d="M 804.726562 803.324375 
L 824.726562 803.324375 
L 844.726562 803.324375 
" style="fill: none; stroke-dasharray: 5.55,2.4; stroke-dashoffset: 0; stroke: #008000; stroke-width: 1.5"/>
    </g>
    <g id="text_28">
     <!-- 30 K -->
     <g transform="translate(860.726562 810.324375) scale(0.2 -0.2)">
      <use xlink:href="#DejaVuSans-33"/>
      <use xlink:href="#DejaVuSans-30" x="63.623047"/>
      <use xlink:href="#DejaVuSans-20" x="127.246094"/>
      <use xlink:href="#DejaVuSans-4b" x="159.033203"/>
     </g>
    </g>
    <g id="line2d_47">
     <path d="M 945.648438 803.324375 
L 965.648438 803.324375 
L 985.648438 803.324375 
" style="fill: none; stroke-dasharray: 5.55,2.4; stroke-dashoffset: 0; stroke: #ffa500; stroke-width: 1.5"/>
    </g>
    <g id="text_29">
     <!-- 20 K -->
     <g transform="translate(1001.648438 810.324375) scale(0.2 -0.2)">
      <use xlink:href="#DejaVuSans-32"/>
      <use xlink:href="#DejaVuSans-30" x="63.623047"/>
      <use xlink:href="#DejaVuSans-20" x="127.246094"/>
      <use xlink:href="#DejaVuSans-4b" x="159.033203"/>
     </g>
    </g>
    <g id="line2d_48">
     <path d="M 1086.570312 803.324375 
L 1106.570312 803.324375 
L 1126.570312 803.324375 
" style="fill: none; stroke-dasharray: 5.55,2.4; stroke-dashoffset: 0; stroke: #ff0000; stroke-width: 1.5"/>
    </g>
    <g id="text_30">
     <!-- 15 K -->
     <g transform="translate(1142.570312 810.324375) scale(0.2 -0.2)">
      <use xlink:href="#DejaVuSans-31"/>
      <use xlink:href="#DejaVuSans-35" x="63.623047"/>
      <use xlink:href="#DejaVuSans-20" x="127.246094"/>
      <use xlink:href="#DejaVuSans-4b" x="159.033203"/>
     </g>
    </g>
   </g>
  </g>
 </g>
 <defs>
  <clipPath id="pb42cae7114">
   <rect x="180" y="112.32" width="1116" height="720.72"/>
  </clipPath>
 </defs>
</svg>
