<?xml version="1.0" encoding="utf-8" standalone="no"?>
<!DOCTYPE svg PUBLIC "-//W3C//DTD SVG 1.1//EN"
  "http://www.w3.org/Graphics/SVG/1.1/DTD/svg11.dtd">
<svg xmlns:xlink="http://www.w3.org/1999/xlink" width="1440pt" height="864pt" viewBox="0 0 1440 864" xmlns="http://www.w3.org/2000/svg" version="1.1">
 <metadata>
  <rdf:RDF xmlns:dc="http://purl.org/dc/elements/1.1/" xmlns:cc="http://creativecommons.org/ns#" xmlns:rdf="http://www.w3.org/1999/02/22-rdf-syntax-ns#">
   <cc:Work>
    <dc:type rdf:resource="http://purl.org/dc/dcmitype/StillImage"/>
    <dc:date>2023-06-23T10:56:51.856751</dc:date>
    <dc:format>image/svg+xml</dc:format>
    <dc:creator>
     <cc:Agent>
      <dc:title>Matplotlib v3.6.1, https://matplotlib.org/</dc:title>
     </cc:Agent>
    </dc:creator>
   </cc:Work>
  </rdf:RDF>
 </metadata>
 <defs>
  <style type="text/css">*{stroke-linejoin: round; stroke-linecap: butt}</style>
 </defs>
 <g id="figure_1">
  <g id="patch_1">
   <path d="M 0 864 
L 1440 864 
L 1440 0 
L 0 0 
z
" style="fill: #ffffff"/>
  </g>
  <g id="axes_1">
   <g id="patch_2">
    <path d="M 180 768.96 
L 1296 768.96 
L 1296 103.68 
L 180 103.68 
z
" style="fill: #ffffff"/>
   </g>
   <g id="matplotlib.axis_1">
    <g id="xtick_1">
     <g id="line2d_1">
      <path d="M 266.036566 768.96 
L 266.036566 103.68 
" clip-path="url(#p52faab6bab)" style="fill: none; stroke: #b0b0b0; stroke-width: 0.8; stroke-linecap: square"/>
     </g>
     <g id="line2d_2">
      <defs>
       <path id="mf1d58cab20" d="M 0 0 
L 0 3.5 
" style="stroke: #000000; stroke-width: 0.8"/>
      </defs>
      <g>
       <use xlink:href="#mf1d58cab20" x="266.036566" y="768.96" style="stroke: #000000; stroke-width: 0.8"/>
      </g>
     </g>
     <g id="text_1">
      <!-- 37.5 -->
      <g transform="translate(243.770941 791.156875) scale(0.2 -0.2)">
       <defs>
        <path id="DejaVuSans-33" d="M 2597 2516 
Q 3050 2419 3304 2112 
Q 3559 1806 3559 1356 
Q 3559 666 3084 287 
Q 2609 -91 1734 -91 
Q 1441 -91 1130 -33 
Q 819 25 488 141 
L 488 750 
Q 750 597 1062 519 
Q 1375 441 1716 441 
Q 2309 441 2620 675 
Q 2931 909 2931 1356 
Q 2931 1769 2642 2001 
Q 2353 2234 1838 2234 
L 1294 2234 
L 1294 2753 
L 1863 2753 
Q 2328 2753 2575 2939 
Q 2822 3125 2822 3475 
Q 2822 3834 2567 4026 
Q 2313 4219 1838 4219 
Q 1578 4219 1281 4162 
Q 984 4106 628 3988 
L 628 4550 
Q 988 4650 1302 4700 
Q 1616 4750 1894 4750 
Q 2613 4750 3031 4423 
Q 3450 4097 3450 3541 
Q 3450 3153 3228 2886 
Q 3006 2619 2597 2516 
z
" transform="scale(0.015625)"/>
        <path id="DejaVuSans-37" d="M 525 4666 
L 3525 4666 
L 3525 4397 
L 1831 0 
L 1172 0 
L 2766 4134 
L 525 4134 
L 525 4666 
z
" transform="scale(0.015625)"/>
        <path id="DejaVuSans-2e" d="M 684 794 
L 1344 794 
L 1344 0 
L 684 0 
L 684 794 
z
" transform="scale(0.015625)"/>
        <path id="DejaVuSans-35" d="M 691 4666 
L 3169 4666 
L 3169 4134 
L 1269 4134 
L 1269 2991 
Q 1406 3038 1543 3061 
Q 1681 3084 1819 3084 
Q 2600 3084 3056 2656 
Q 3513 2228 3513 1497 
Q 3513 744 3044 326 
Q 2575 -91 1722 -91 
Q 1428 -91 1123 -41 
Q 819 9 494 109 
L 494 744 
Q 775 591 1075 516 
Q 1375 441 1709 441 
Q 2250 441 2565 725 
Q 2881 1009 2881 1497 
Q 2881 1984 2565 2268 
Q 2250 2553 1709 2553 
Q 1456 2553 1204 2497 
Q 953 2441 691 2322 
L 691 4666 
z
" transform="scale(0.015625)"/>
       </defs>
       <use xlink:href="#DejaVuSans-33"/>
       <use xlink:href="#DejaVuSans-37" x="63.623047"/>
       <use xlink:href="#DejaVuSans-2e" x="127.246094"/>
       <use xlink:href="#DejaVuSans-35" x="159.033203"/>
      </g>
     </g>
    </g>
    <g id="xtick_2">
     <g id="line2d_3">
      <path d="M 413.158621 768.96 
L 413.158621 103.68 
" clip-path="url(#p52faab6bab)" style="fill: none; stroke: #b0b0b0; stroke-width: 0.8; stroke-linecap: square"/>
     </g>
     <g id="line2d_4">
      <g>
       <use xlink:href="#mf1d58cab20" x="413.158621" y="768.96" style="stroke: #000000; stroke-width: 0.8"/>
      </g>
     </g>
     <g id="text_2">
      <!-- 40.0 -->
      <g transform="translate(390.892996 791.156875) scale(0.2 -0.2)">
       <defs>
        <path id="DejaVuSans-34" d="M 2419 4116 
L 825 1625 
L 2419 1625 
L 2419 4116 
z
M 2253 4666 
L 3047 4666 
L 3047 1625 
L 3713 1625 
L 3713 1100 
L 3047 1100 
L 3047 0 
L 2419 0 
L 2419 1100 
L 313 1100 
L 313 1709 
L 2253 4666 
z
" transform="scale(0.015625)"/>
        <path id="DejaVuSans-30" d="M 2034 4250 
Q 1547 4250 1301 3770 
Q 1056 3291 1056 2328 
Q 1056 1369 1301 889 
Q 1547 409 2034 409 
Q 2525 409 2770 889 
Q 3016 1369 3016 2328 
Q 3016 3291 2770 3770 
Q 2525 4250 2034 4250 
z
M 2034 4750 
Q 2819 4750 3233 4129 
Q 3647 3509 3647 2328 
Q 3647 1150 3233 529 
Q 2819 -91 2034 -91 
Q 1250 -91 836 529 
Q 422 1150 422 2328 
Q 422 3509 836 4129 
Q 1250 4750 2034 4750 
z
" transform="scale(0.015625)"/>
       </defs>
       <use xlink:href="#DejaVuSans-34"/>
       <use xlink:href="#DejaVuSans-30" x="63.623047"/>
       <use xlink:href="#DejaVuSans-2e" x="127.246094"/>
       <use xlink:href="#DejaVuSans-30" x="159.033203"/>
      </g>
     </g>
    </g>
    <g id="xtick_3">
     <g id="line2d_5">
      <path d="M 560.280675 768.96 
L 560.280675 103.68 
" clip-path="url(#p52faab6bab)" style="fill: none; stroke: #b0b0b0; stroke-width: 0.8; stroke-linecap: square"/>
     </g>
     <g id="line2d_6">
      <g>
       <use xlink:href="#mf1d58cab20" x="560.280675" y="768.96" style="stroke: #000000; stroke-width: 0.8"/>
      </g>
     </g>
     <g id="text_3">
      <!-- 42.5 -->
      <g transform="translate(538.01505 791.156875) scale(0.2 -0.2)">
       <defs>
        <path id="DejaVuSans-32" d="M 1228 531 
L 3431 531 
L 3431 0 
L 469 0 
L 469 531 
Q 828 903 1448 1529 
Q 2069 2156 2228 2338 
Q 2531 2678 2651 2914 
Q 2772 3150 2772 3378 
Q 2772 3750 2511 3984 
Q 2250 4219 1831 4219 
Q 1534 4219 1204 4116 
Q 875 4013 500 3803 
L 500 4441 
Q 881 4594 1212 4672 
Q 1544 4750 1819 4750 
Q 2544 4750 2975 4387 
Q 3406 4025 3406 3419 
Q 3406 3131 3298 2873 
Q 3191 2616 2906 2266 
Q 2828 2175 2409 1742 
Q 1991 1309 1228 531 
z
" transform="scale(0.015625)"/>
       </defs>
       <use xlink:href="#DejaVuSans-34"/>
       <use xlink:href="#DejaVuSans-32" x="63.623047"/>
       <use xlink:href="#DejaVuSans-2e" x="127.246094"/>
       <use xlink:href="#DejaVuSans-35" x="159.033203"/>
      </g>
     </g>
    </g>
    <g id="xtick_4">
     <g id="line2d_7">
      <path d="M 707.40273 768.96 
L 707.40273 103.68 
" clip-path="url(#p52faab6bab)" style="fill: none; stroke: #b0b0b0; stroke-width: 0.8; stroke-linecap: square"/>
     </g>
     <g id="line2d_8">
      <g>
       <use xlink:href="#mf1d58cab20" x="707.40273" y="768.96" style="stroke: #000000; stroke-width: 0.8"/>
      </g>
     </g>
     <g id="text_4">
      <!-- 45.0 -->
      <g transform="translate(685.137105 791.156875) scale(0.2 -0.2)">
       <use xlink:href="#DejaVuSans-34"/>
       <use xlink:href="#DejaVuSans-35" x="63.623047"/>
       <use xlink:href="#DejaVuSans-2e" x="127.246094"/>
       <use xlink:href="#DejaVuSans-30" x="159.033203"/>
      </g>
     </g>
    </g>
    <g id="xtick_5">
     <g id="line2d_9">
      <path d="M 854.524785 768.96 
L 854.524785 103.68 
" clip-path="url(#p52faab6bab)" style="fill: none; stroke: #b0b0b0; stroke-width: 0.8; stroke-linecap: square"/>
     </g>
     <g id="line2d_10">
      <g>
       <use xlink:href="#mf1d58cab20" x="854.524785" y="768.96" style="stroke: #000000; stroke-width: 0.8"/>
      </g>
     </g>
     <g id="text_5">
      <!-- 47.5 -->
      <g transform="translate(832.25916 791.156875) scale(0.2 -0.2)">
       <use xlink:href="#DejaVuSans-34"/>
       <use xlink:href="#DejaVuSans-37" x="63.623047"/>
       <use xlink:href="#DejaVuSans-2e" x="127.246094"/>
       <use xlink:href="#DejaVuSans-35" x="159.033203"/>
      </g>
     </g>
    </g>
    <g id="xtick_6">
     <g id="line2d_11">
      <path d="M 1001.64684 768.96 
L 1001.64684 103.68 
" clip-path="url(#p52faab6bab)" style="fill: none; stroke: #b0b0b0; stroke-width: 0.8; stroke-linecap: square"/>
     </g>
     <g id="line2d_12">
      <g>
       <use xlink:href="#mf1d58cab20" x="1001.64684" y="768.96" style="stroke: #000000; stroke-width: 0.8"/>
      </g>
     </g>
     <g id="text_6">
      <!-- 50.0 -->
      <g transform="translate(979.381215 791.156875) scale(0.2 -0.2)">
       <use xlink:href="#DejaVuSans-35"/>
       <use xlink:href="#DejaVuSans-30" x="63.623047"/>
       <use xlink:href="#DejaVuSans-2e" x="127.246094"/>
       <use xlink:href="#DejaVuSans-30" x="159.033203"/>
      </g>
     </g>
    </g>
    <g id="xtick_7">
     <g id="line2d_13">
      <path d="M 1148.768894 768.96 
L 1148.768894 103.68 
" clip-path="url(#p52faab6bab)" style="fill: none; stroke: #b0b0b0; stroke-width: 0.8; stroke-linecap: square"/>
     </g>
     <g id="line2d_14">
      <g>
       <use xlink:href="#mf1d58cab20" x="1148.768894" y="768.96" style="stroke: #000000; stroke-width: 0.8"/>
      </g>
     </g>
     <g id="text_7">
      <!-- 52.5 -->
      <g transform="translate(1126.503269 791.156875) scale(0.2 -0.2)">
       <use xlink:href="#DejaVuSans-35"/>
       <use xlink:href="#DejaVuSans-32" x="63.623047"/>
       <use xlink:href="#DejaVuSans-2e" x="127.246094"/>
       <use xlink:href="#DejaVuSans-35" x="159.033203"/>
      </g>
     </g>
    </g>
    <g id="xtick_8">
     <g id="line2d_15">
      <path d="M 1295.890949 768.96 
L 1295.890949 103.68 
" clip-path="url(#p52faab6bab)" style="fill: none; stroke: #b0b0b0; stroke-width: 0.8; stroke-linecap: square"/>
     </g>
     <g id="line2d_16">
      <g>
       <use xlink:href="#mf1d58cab20" x="1295.890949" y="768.96" style="stroke: #000000; stroke-width: 0.8"/>
      </g>
     </g>
     <g id="text_8">
      <!-- 55.0 -->
      <g transform="translate(1273.625324 791.156875) scale(0.2 -0.2)">
       <use xlink:href="#DejaVuSans-35"/>
       <use xlink:href="#DejaVuSans-35" x="63.623047"/>
       <use xlink:href="#DejaVuSans-2e" x="127.246094"/>
       <use xlink:href="#DejaVuSans-30" x="159.033203"/>
      </g>
     </g>
    </g>
    <g id="text_9">
     <!-- Gaskühlerdruck [bar] -->
     <g transform="translate(632.239063 814.513125) scale(0.2 -0.2)">
      <defs>
       <path id="DejaVuSans-47" d="M 3809 666 
L 3809 1919 
L 2778 1919 
L 2778 2438 
L 4434 2438 
L 4434 434 
Q 4069 175 3628 42 
Q 3188 -91 2688 -91 
Q 1594 -91 976 548 
Q 359 1188 359 2328 
Q 359 3472 976 4111 
Q 1594 4750 2688 4750 
Q 3144 4750 3555 4637 
Q 3966 4525 4313 4306 
L 4313 3634 
Q 3963 3931 3569 4081 
Q 3175 4231 2741 4231 
Q 1884 4231 1454 3753 
Q 1025 3275 1025 2328 
Q 1025 1384 1454 906 
Q 1884 428 2741 428 
Q 3075 428 3337 486 
Q 3600 544 3809 666 
z
" transform="scale(0.015625)"/>
       <path id="DejaVuSans-61" d="M 2194 1759 
Q 1497 1759 1228 1600 
Q 959 1441 959 1056 
Q 959 750 1161 570 
Q 1363 391 1709 391 
Q 2188 391 2477 730 
Q 2766 1069 2766 1631 
L 2766 1759 
L 2194 1759 
z
M 3341 1997 
L 3341 0 
L 2766 0 
L 2766 531 
Q 2569 213 2275 61 
Q 1981 -91 1556 -91 
Q 1019 -91 701 211 
Q 384 513 384 1019 
Q 384 1609 779 1909 
Q 1175 2209 1959 2209 
L 2766 2209 
L 2766 2266 
Q 2766 2663 2505 2880 
Q 2244 3097 1772 3097 
Q 1472 3097 1187 3025 
Q 903 2953 641 2809 
L 641 3341 
Q 956 3463 1253 3523 
Q 1550 3584 1831 3584 
Q 2591 3584 2966 3190 
Q 3341 2797 3341 1997 
z
" transform="scale(0.015625)"/>
       <path id="DejaVuSans-73" d="M 2834 3397 
L 2834 2853 
Q 2591 2978 2328 3040 
Q 2066 3103 1784 3103 
Q 1356 3103 1142 2972 
Q 928 2841 928 2578 
Q 928 2378 1081 2264 
Q 1234 2150 1697 2047 
L 1894 2003 
Q 2506 1872 2764 1633 
Q 3022 1394 3022 966 
Q 3022 478 2636 193 
Q 2250 -91 1575 -91 
Q 1294 -91 989 -36 
Q 684 19 347 128 
L 347 722 
Q 666 556 975 473 
Q 1284 391 1588 391 
Q 1994 391 2212 530 
Q 2431 669 2431 922 
Q 2431 1156 2273 1281 
Q 2116 1406 1581 1522 
L 1381 1569 
Q 847 1681 609 1914 
Q 372 2147 372 2553 
Q 372 3047 722 3315 
Q 1072 3584 1716 3584 
Q 2034 3584 2315 3537 
Q 2597 3491 2834 3397 
z
" transform="scale(0.015625)"/>
       <path id="DejaVuSans-6b" d="M 581 4863 
L 1159 4863 
L 1159 1991 
L 2875 3500 
L 3609 3500 
L 1753 1863 
L 3688 0 
L 2938 0 
L 1159 1709 
L 1159 0 
L 581 0 
L 581 4863 
z
" transform="scale(0.015625)"/>
       <path id="DejaVuSans-fc" d="M 544 1381 
L 544 3500 
L 1119 3500 
L 1119 1403 
Q 1119 906 1312 657 
Q 1506 409 1894 409 
Q 2359 409 2629 706 
Q 2900 1003 2900 1516 
L 2900 3500 
L 3475 3500 
L 3475 0 
L 2900 0 
L 2900 538 
Q 2691 219 2414 64 
Q 2138 -91 1772 -91 
Q 1169 -91 856 284 
Q 544 659 544 1381 
z
M 1991 3584 
L 1991 3584 
z
M 2278 4850 
L 2912 4850 
L 2912 4219 
L 2278 4219 
L 2278 4850 
z
M 1056 4850 
L 1690 4850 
L 1690 4219 
L 1056 4219 
L 1056 4850 
z
" transform="scale(0.015625)"/>
       <path id="DejaVuSans-68" d="M 3513 2113 
L 3513 0 
L 2938 0 
L 2938 2094 
Q 2938 2591 2744 2837 
Q 2550 3084 2163 3084 
Q 1697 3084 1428 2787 
Q 1159 2491 1159 1978 
L 1159 0 
L 581 0 
L 581 4863 
L 1159 4863 
L 1159 2956 
Q 1366 3272 1645 3428 
Q 1925 3584 2291 3584 
Q 2894 3584 3203 3211 
Q 3513 2838 3513 2113 
z
" transform="scale(0.015625)"/>
       <path id="DejaVuSans-6c" d="M 603 4863 
L 1178 4863 
L 1178 0 
L 603 0 
L 603 4863 
z
" transform="scale(0.015625)"/>
       <path id="DejaVuSans-65" d="M 3597 1894 
L 3597 1613 
L 953 1613 
Q 991 1019 1311 708 
Q 1631 397 2203 397 
Q 2534 397 2845 478 
Q 3156 559 3463 722 
L 3463 178 
Q 3153 47 2828 -22 
Q 2503 -91 2169 -91 
Q 1331 -91 842 396 
Q 353 884 353 1716 
Q 353 2575 817 3079 
Q 1281 3584 2069 3584 
Q 2775 3584 3186 3129 
Q 3597 2675 3597 1894 
z
M 3022 2063 
Q 3016 2534 2758 2815 
Q 2500 3097 2075 3097 
Q 1594 3097 1305 2825 
Q 1016 2553 972 2059 
L 3022 2063 
z
" transform="scale(0.015625)"/>
       <path id="DejaVuSans-72" d="M 2631 2963 
Q 2534 3019 2420 3045 
Q 2306 3072 2169 3072 
Q 1681 3072 1420 2755 
Q 1159 2438 1159 1844 
L 1159 0 
L 581 0 
L 581 3500 
L 1159 3500 
L 1159 2956 
Q 1341 3275 1631 3429 
Q 1922 3584 2338 3584 
Q 2397 3584 2469 3576 
Q 2541 3569 2628 3553 
L 2631 2963 
z
" transform="scale(0.015625)"/>
       <path id="DejaVuSans-64" d="M 2906 2969 
L 2906 4863 
L 3481 4863 
L 3481 0 
L 2906 0 
L 2906 525 
Q 2725 213 2448 61 
Q 2172 -91 1784 -91 
Q 1150 -91 751 415 
Q 353 922 353 1747 
Q 353 2572 751 3078 
Q 1150 3584 1784 3584 
Q 2172 3584 2448 3432 
Q 2725 3281 2906 2969 
z
M 947 1747 
Q 947 1113 1208 752 
Q 1469 391 1925 391 
Q 2381 391 2643 752 
Q 2906 1113 2906 1747 
Q 2906 2381 2643 2742 
Q 2381 3103 1925 3103 
Q 1469 3103 1208 2742 
Q 947 2381 947 1747 
z
" transform="scale(0.015625)"/>
       <path id="DejaVuSans-75" d="M 544 1381 
L 544 3500 
L 1119 3500 
L 1119 1403 
Q 1119 906 1312 657 
Q 1506 409 1894 409 
Q 2359 409 2629 706 
Q 2900 1003 2900 1516 
L 2900 3500 
L 3475 3500 
L 3475 0 
L 2900 0 
L 2900 538 
Q 2691 219 2414 64 
Q 2138 -91 1772 -91 
Q 1169 -91 856 284 
Q 544 659 544 1381 
z
M 1991 3584 
L 1991 3584 
z
" transform="scale(0.015625)"/>
       <path id="DejaVuSans-63" d="M 3122 3366 
L 3122 2828 
Q 2878 2963 2633 3030 
Q 2388 3097 2138 3097 
Q 1578 3097 1268 2742 
Q 959 2388 959 1747 
Q 959 1106 1268 751 
Q 1578 397 2138 397 
Q 2388 397 2633 464 
Q 2878 531 3122 666 
L 3122 134 
Q 2881 22 2623 -34 
Q 2366 -91 2075 -91 
Q 1284 -91 818 406 
Q 353 903 353 1747 
Q 353 2603 823 3093 
Q 1294 3584 2113 3584 
Q 2378 3584 2631 3529 
Q 2884 3475 3122 3366 
z
" transform="scale(0.015625)"/>
       <path id="DejaVuSans-20" transform="scale(0.015625)"/>
       <path id="DejaVuSans-5b" d="M 550 4863 
L 1875 4863 
L 1875 4416 
L 1125 4416 
L 1125 -397 
L 1875 -397 
L 1875 -844 
L 550 -844 
L 550 4863 
z
" transform="scale(0.015625)"/>
       <path id="DejaVuSans-62" d="M 3116 1747 
Q 3116 2381 2855 2742 
Q 2594 3103 2138 3103 
Q 1681 3103 1420 2742 
Q 1159 2381 1159 1747 
Q 1159 1113 1420 752 
Q 1681 391 2138 391 
Q 2594 391 2855 752 
Q 3116 1113 3116 1747 
z
M 1159 2969 
Q 1341 3281 1617 3432 
Q 1894 3584 2278 3584 
Q 2916 3584 3314 3078 
Q 3713 2572 3713 1747 
Q 3713 922 3314 415 
Q 2916 -91 2278 -91 
Q 1894 -91 1617 61 
Q 1341 213 1159 525 
L 1159 0 
L 581 0 
L 581 4863 
L 1159 4863 
L 1159 2969 
z
" transform="scale(0.015625)"/>
       <path id="DejaVuSans-5d" d="M 1947 4863 
L 1947 -844 
L 622 -844 
L 622 -397 
L 1369 -397 
L 1369 4416 
L 622 4416 
L 622 4863 
L 1947 4863 
z
" transform="scale(0.015625)"/>
      </defs>
      <use xlink:href="#DejaVuSans-47"/>
      <use xlink:href="#DejaVuSans-61" x="77.490234"/>
      <use xlink:href="#DejaVuSans-73" x="138.769531"/>
      <use xlink:href="#DejaVuSans-6b" x="190.869141"/>
      <use xlink:href="#DejaVuSans-fc" x="245.654297"/>
      <use xlink:href="#DejaVuSans-68" x="309.033203"/>
      <use xlink:href="#DejaVuSans-6c" x="372.412109"/>
      <use xlink:href="#DejaVuSans-65" x="400.195312"/>
      <use xlink:href="#DejaVuSans-72" x="461.71875"/>
      <use xlink:href="#DejaVuSans-64" x="501.082031"/>
      <use xlink:href="#DejaVuSans-72" x="564.558594"/>
      <use xlink:href="#DejaVuSans-75" x="605.671875"/>
      <use xlink:href="#DejaVuSans-63" x="669.050781"/>
      <use xlink:href="#DejaVuSans-6b" x="724.03125"/>
      <use xlink:href="#DejaVuSans-20" x="781.941406"/>
      <use xlink:href="#DejaVuSans-5b" x="813.728516"/>
      <use xlink:href="#DejaVuSans-62" x="852.742188"/>
      <use xlink:href="#DejaVuSans-61" x="916.21875"/>
      <use xlink:href="#DejaVuSans-72" x="977.498047"/>
      <use xlink:href="#DejaVuSans-5d" x="1018.611328"/>
     </g>
    </g>
   </g>
   <g id="matplotlib.axis_2">
    <g id="ytick_1">
     <g id="line2d_17">
      <path d="M 180 768.96 
L 1296 768.96 
" clip-path="url(#p52faab6bab)" style="fill: none; stroke: #b0b0b0; stroke-width: 0.8; stroke-linecap: square"/>
     </g>
     <g id="line2d_18">
      <defs>
       <path id="medf7005b10" d="M 0 0 
L -3.5 0 
" style="stroke: #000000; stroke-width: 0.8"/>
      </defs>
      <g>
       <use xlink:href="#medf7005b10" x="180" y="768.96" style="stroke: #000000; stroke-width: 0.8"/>
      </g>
     </g>
     <g id="text_10">
      <!-- 69 -->
      <g transform="translate(147.55 776.558438) scale(0.2 -0.2)">
       <defs>
        <path id="DejaVuSans-36" d="M 2113 2584 
Q 1688 2584 1439 2293 
Q 1191 2003 1191 1497 
Q 1191 994 1439 701 
Q 1688 409 2113 409 
Q 2538 409 2786 701 
Q 3034 994 3034 1497 
Q 3034 2003 2786 2293 
Q 2538 2584 2113 2584 
z
M 3366 4563 
L 3366 3988 
Q 3128 4100 2886 4159 
Q 2644 4219 2406 4219 
Q 1781 4219 1451 3797 
Q 1122 3375 1075 2522 
Q 1259 2794 1537 2939 
Q 1816 3084 2150 3084 
Q 2853 3084 3261 2657 
Q 3669 2231 3669 1497 
Q 3669 778 3244 343 
Q 2819 -91 2113 -91 
Q 1303 -91 875 529 
Q 447 1150 447 2328 
Q 447 3434 972 4092 
Q 1497 4750 2381 4750 
Q 2619 4750 2861 4703 
Q 3103 4656 3366 4563 
z
" transform="scale(0.015625)"/>
        <path id="DejaVuSans-39" d="M 703 97 
L 703 672 
Q 941 559 1184 500 
Q 1428 441 1663 441 
Q 2288 441 2617 861 
Q 2947 1281 2994 2138 
Q 2813 1869 2534 1725 
Q 2256 1581 1919 1581 
Q 1219 1581 811 2004 
Q 403 2428 403 3163 
Q 403 3881 828 4315 
Q 1253 4750 1959 4750 
Q 2769 4750 3195 4129 
Q 3622 3509 3622 2328 
Q 3622 1225 3098 567 
Q 2575 -91 1691 -91 
Q 1453 -91 1209 -44 
Q 966 3 703 97 
z
M 1959 2075 
Q 2384 2075 2632 2365 
Q 2881 2656 2881 3163 
Q 2881 3666 2632 3958 
Q 2384 4250 1959 4250 
Q 1534 4250 1286 3958 
Q 1038 3666 1038 3163 
Q 1038 2656 1286 2365 
Q 1534 2075 1959 2075 
z
" transform="scale(0.015625)"/>
       </defs>
       <use xlink:href="#DejaVuSans-36"/>
       <use xlink:href="#DejaVuSans-39" x="63.623047"/>
      </g>
     </g>
    </g>
    <g id="ytick_2">
     <g id="line2d_19">
      <path d="M 180 673.92 
L 1296 673.92 
" clip-path="url(#p52faab6bab)" style="fill: none; stroke: #b0b0b0; stroke-width: 0.8; stroke-linecap: square"/>
     </g>
     <g id="line2d_20">
      <g>
       <use xlink:href="#medf7005b10" x="180" y="673.92" style="stroke: #000000; stroke-width: 0.8"/>
      </g>
     </g>
     <g id="text_11">
      <!-- 70 -->
      <g transform="translate(147.55 681.518438) scale(0.2 -0.2)">
       <use xlink:href="#DejaVuSans-37"/>
       <use xlink:href="#DejaVuSans-30" x="63.623047"/>
      </g>
     </g>
    </g>
    <g id="ytick_3">
     <g id="line2d_21">
      <path d="M 180 578.88 
L 1296 578.88 
" clip-path="url(#p52faab6bab)" style="fill: none; stroke: #b0b0b0; stroke-width: 0.8; stroke-linecap: square"/>
     </g>
     <g id="line2d_22">
      <g>
       <use xlink:href="#medf7005b10" x="180" y="578.88" style="stroke: #000000; stroke-width: 0.8"/>
      </g>
     </g>
     <g id="text_12">
      <!-- 71 -->
      <g transform="translate(147.55 586.478438) scale(0.2 -0.2)">
       <defs>
        <path id="DejaVuSans-31" d="M 794 531 
L 1825 531 
L 1825 4091 
L 703 3866 
L 703 4441 
L 1819 4666 
L 2450 4666 
L 2450 531 
L 3481 531 
L 3481 0 
L 794 0 
L 794 531 
z
" transform="scale(0.015625)"/>
       </defs>
       <use xlink:href="#DejaVuSans-37"/>
       <use xlink:href="#DejaVuSans-31" x="63.623047"/>
      </g>
     </g>
    </g>
    <g id="ytick_4">
     <g id="line2d_23">
      <path d="M 180 483.84 
L 1296 483.84 
" clip-path="url(#p52faab6bab)" style="fill: none; stroke: #b0b0b0; stroke-width: 0.8; stroke-linecap: square"/>
     </g>
     <g id="line2d_24">
      <g>
       <use xlink:href="#medf7005b10" x="180" y="483.84" style="stroke: #000000; stroke-width: 0.8"/>
      </g>
     </g>
     <g id="text_13">
      <!-- 72 -->
      <g transform="translate(147.55 491.438438) scale(0.2 -0.2)">
       <use xlink:href="#DejaVuSans-37"/>
       <use xlink:href="#DejaVuSans-32" x="63.623047"/>
      </g>
     </g>
    </g>
    <g id="ytick_5">
     <g id="line2d_25">
      <path d="M 180 388.8 
L 1296 388.8 
" clip-path="url(#p52faab6bab)" style="fill: none; stroke: #b0b0b0; stroke-width: 0.8; stroke-linecap: square"/>
     </g>
     <g id="line2d_26">
      <g>
       <use xlink:href="#medf7005b10" x="180" y="388.8" style="stroke: #000000; stroke-width: 0.8"/>
      </g>
     </g>
     <g id="text_14">
      <!-- 73 -->
      <g transform="translate(147.55 396.398438) scale(0.2 -0.2)">
       <use xlink:href="#DejaVuSans-37"/>
       <use xlink:href="#DejaVuSans-33" x="63.623047"/>
      </g>
     </g>
    </g>
    <g id="ytick_6">
     <g id="line2d_27">
      <path d="M 180 293.76 
L 1296 293.76 
" clip-path="url(#p52faab6bab)" style="fill: none; stroke: #b0b0b0; stroke-width: 0.8; stroke-linecap: square"/>
     </g>
     <g id="line2d_28">
      <g>
       <use xlink:href="#medf7005b10" x="180" y="293.76" style="stroke: #000000; stroke-width: 0.8"/>
      </g>
     </g>
     <g id="text_15">
      <!-- 74 -->
      <g transform="translate(147.55 301.358438) scale(0.2 -0.2)">
       <use xlink:href="#DejaVuSans-37"/>
       <use xlink:href="#DejaVuSans-34" x="63.623047"/>
      </g>
     </g>
    </g>
    <g id="ytick_7">
     <g id="line2d_29">
      <path d="M 180 198.72 
L 1296 198.72 
" clip-path="url(#p52faab6bab)" style="fill: none; stroke: #b0b0b0; stroke-width: 0.8; stroke-linecap: square"/>
     </g>
     <g id="line2d_30">
      <g>
       <use xlink:href="#medf7005b10" x="180" y="198.72" style="stroke: #000000; stroke-width: 0.8"/>
      </g>
     </g>
     <g id="text_16">
      <!-- 75 -->
      <g transform="translate(147.55 206.318437) scale(0.2 -0.2)">
       <use xlink:href="#DejaVuSans-37"/>
       <use xlink:href="#DejaVuSans-35" x="63.623047"/>
      </g>
     </g>
    </g>
    <g id="ytick_8">
     <g id="line2d_31">
      <path d="M 180 103.68 
L 1296 103.68 
" clip-path="url(#p52faab6bab)" style="fill: none; stroke: #b0b0b0; stroke-width: 0.8; stroke-linecap: square"/>
     </g>
     <g id="line2d_32">
      <g>
       <use xlink:href="#medf7005b10" x="180" y="103.68" style="stroke: #000000; stroke-width: 0.8"/>
      </g>
     </g>
     <g id="text_17">
      <!-- 76 -->
      <g transform="translate(147.55 111.278437) scale(0.2 -0.2)">
       <use xlink:href="#DejaVuSans-37"/>
       <use xlink:href="#DejaVuSans-36" x="63.623047"/>
      </g>
     </g>
    </g>
    <g id="text_18">
     <!-- exergetischer Wirkungsgrad [%] -->
     <g transform="translate(139.390625 597.362187) rotate(-90) scale(0.2 -0.2)">
      <defs>
       <path id="DejaVuSans-78" d="M 3513 3500 
L 2247 1797 
L 3578 0 
L 2900 0 
L 1881 1375 
L 863 0 
L 184 0 
L 1544 1831 
L 300 3500 
L 978 3500 
L 1906 2253 
L 2834 3500 
L 3513 3500 
z
" transform="scale(0.015625)"/>
       <path id="DejaVuSans-67" d="M 2906 1791 
Q 2906 2416 2648 2759 
Q 2391 3103 1925 3103 
Q 1463 3103 1205 2759 
Q 947 2416 947 1791 
Q 947 1169 1205 825 
Q 1463 481 1925 481 
Q 2391 481 2648 825 
Q 2906 1169 2906 1791 
z
M 3481 434 
Q 3481 -459 3084 -895 
Q 2688 -1331 1869 -1331 
Q 1566 -1331 1297 -1286 
Q 1028 -1241 775 -1147 
L 775 -588 
Q 1028 -725 1275 -790 
Q 1522 -856 1778 -856 
Q 2344 -856 2625 -561 
Q 2906 -266 2906 331 
L 2906 616 
Q 2728 306 2450 153 
Q 2172 0 1784 0 
Q 1141 0 747 490 
Q 353 981 353 1791 
Q 353 2603 747 3093 
Q 1141 3584 1784 3584 
Q 2172 3584 2450 3431 
Q 2728 3278 2906 2969 
L 2906 3500 
L 3481 3500 
L 3481 434 
z
" transform="scale(0.015625)"/>
       <path id="DejaVuSans-74" d="M 1172 4494 
L 1172 3500 
L 2356 3500 
L 2356 3053 
L 1172 3053 
L 1172 1153 
Q 1172 725 1289 603 
Q 1406 481 1766 481 
L 2356 481 
L 2356 0 
L 1766 0 
Q 1100 0 847 248 
Q 594 497 594 1153 
L 594 3053 
L 172 3053 
L 172 3500 
L 594 3500 
L 594 4494 
L 1172 4494 
z
" transform="scale(0.015625)"/>
       <path id="DejaVuSans-69" d="M 603 3500 
L 1178 3500 
L 1178 0 
L 603 0 
L 603 3500 
z
M 603 4863 
L 1178 4863 
L 1178 4134 
L 603 4134 
L 603 4863 
z
" transform="scale(0.015625)"/>
       <path id="DejaVuSans-57" d="M 213 4666 
L 850 4666 
L 1831 722 
L 2809 4666 
L 3519 4666 
L 4500 722 
L 5478 4666 
L 6119 4666 
L 4947 0 
L 4153 0 
L 3169 4050 
L 2175 0 
L 1381 0 
L 213 4666 
z
" transform="scale(0.015625)"/>
       <path id="DejaVuSans-6e" d="M 3513 2113 
L 3513 0 
L 2938 0 
L 2938 2094 
Q 2938 2591 2744 2837 
Q 2550 3084 2163 3084 
Q 1697 3084 1428 2787 
Q 1159 2491 1159 1978 
L 1159 0 
L 581 0 
L 581 3500 
L 1159 3500 
L 1159 2956 
Q 1366 3272 1645 3428 
Q 1925 3584 2291 3584 
Q 2894 3584 3203 3211 
Q 3513 2838 3513 2113 
z
" transform="scale(0.015625)"/>
       <path id="DejaVuSans-25" d="M 4653 2053 
Q 4381 2053 4226 1822 
Q 4072 1591 4072 1178 
Q 4072 772 4226 539 
Q 4381 306 4653 306 
Q 4919 306 5073 539 
Q 5228 772 5228 1178 
Q 5228 1588 5073 1820 
Q 4919 2053 4653 2053 
z
M 4653 2450 
Q 5147 2450 5437 2106 
Q 5728 1763 5728 1178 
Q 5728 594 5436 251 
Q 5144 -91 4653 -91 
Q 4153 -91 3862 251 
Q 3572 594 3572 1178 
Q 3572 1766 3864 2108 
Q 4156 2450 4653 2450 
z
M 1428 4353 
Q 1159 4353 1004 4120 
Q 850 3888 850 3481 
Q 850 3069 1003 2837 
Q 1156 2606 1428 2606 
Q 1700 2606 1854 2837 
Q 2009 3069 2009 3481 
Q 2009 3884 1853 4118 
Q 1697 4353 1428 4353 
z
M 4250 4750 
L 4750 4750 
L 1831 -91 
L 1331 -91 
L 4250 4750 
z
M 1428 4750 
Q 1922 4750 2215 4408 
Q 2509 4066 2509 3481 
Q 2509 2891 2217 2550 
Q 1925 2209 1428 2209 
Q 931 2209 642 2551 
Q 353 2894 353 3481 
Q 353 4063 643 4406 
Q 934 4750 1428 4750 
z
" transform="scale(0.015625)"/>
      </defs>
      <use xlink:href="#DejaVuSans-65"/>
      <use xlink:href="#DejaVuSans-78" x="59.773438"/>
      <use xlink:href="#DejaVuSans-65" x="115.828125"/>
      <use xlink:href="#DejaVuSans-72" x="177.351562"/>
      <use xlink:href="#DejaVuSans-67" x="216.714844"/>
      <use xlink:href="#DejaVuSans-65" x="280.191406"/>
      <use xlink:href="#DejaVuSans-74" x="341.714844"/>
      <use xlink:href="#DejaVuSans-69" x="380.923828"/>
      <use xlink:href="#DejaVuSans-73" x="408.707031"/>
      <use xlink:href="#DejaVuSans-63" x="460.806641"/>
      <use xlink:href="#DejaVuSans-68" x="515.787109"/>
      <use xlink:href="#DejaVuSans-65" x="579.166016"/>
      <use xlink:href="#DejaVuSans-72" x="640.689453"/>
      <use xlink:href="#DejaVuSans-20" x="681.802734"/>
      <use xlink:href="#DejaVuSans-57" x="713.589844"/>
      <use xlink:href="#DejaVuSans-69" x="810.216797"/>
      <use xlink:href="#DejaVuSans-72" x="838"/>
      <use xlink:href="#DejaVuSans-6b" x="879.113281"/>
      <use xlink:href="#DejaVuSans-75" x="933.898438"/>
      <use xlink:href="#DejaVuSans-6e" x="997.277344"/>
      <use xlink:href="#DejaVuSans-67" x="1060.65625"/>
      <use xlink:href="#DejaVuSans-73" x="1124.132812"/>
      <use xlink:href="#DejaVuSans-67" x="1176.232422"/>
      <use xlink:href="#DejaVuSans-72" x="1239.708984"/>
      <use xlink:href="#DejaVuSans-61" x="1280.822266"/>
      <use xlink:href="#DejaVuSans-64" x="1342.101562"/>
      <use xlink:href="#DejaVuSans-20" x="1405.578125"/>
      <use xlink:href="#DejaVuSans-5b" x="1437.365234"/>
      <use xlink:href="#DejaVuSans-25" x="1476.378906"/>
      <use xlink:href="#DejaVuSans-5d" x="1571.398438"/>
     </g>
    </g>
   </g>
   <g id="line2d_33">
    <path d="M 354.309799 535.558759 
L 365.483626 513.973346 
L 376.657453 499.577466 
L 387.83128 489.840921 
L 399.005107 483.287825 
L 410.178933 479.007558 
L 421.35276 476.408602 
L 432.526587 475.089428 
L 443.700414 474.767188 
L 454.874241 475.236332 
L 466.048068 476.343504 
L 477.221895 477.971692 
L 488.395722 480.029887 
L 499.569549 482.446117 
L 510.743376 485.162638 
L 521.917203 488.132526 
L 533.09103 491.317227 
L 544.264857 494.684749 
L 555.438684 498.208308 
L 566.612511 501.865306 
L 577.786338 505.636542 
L 588.960165 509.505594 
L 600.133992 513.458343 
L 611.307818 517.482581 
L 622.481645 521.567708 
L 633.655472 525.704477 
L 644.829299 529.884795 
L 656.003126 534.101548 
L 667.176953 538.34847 
L 678.35078 542.620019 
L 689.524607 546.911291 
L 700.698434 551.217919 
L 711.872261 555.536025 
L 723.046088 559.862149 
L 734.219915 564.193199 
L 745.393742 568.526412 
L 756.567569 572.85931 
L 767.741396 577.189675 
L 778.915223 581.515513 
L 790.08905 585.835037 
L 801.262877 590.146639 
L 812.436703 594.448874 
L 823.61053 598.740446 
L 834.784357 603.020187 
L 845.958184 607.287049 
L 857.132011 611.540091 
L 868.305838 615.778468 
L 879.479665 620.001424 
L 890.653492 624.20828 
L 901.827319 628.398431 
L 913.001146 632.571336 
L 924.174973 636.726514 
L 935.3488 640.863539 
L 946.522627 644.982034 
L 957.696454 649.081667 
L 968.870281 653.162147 
L 980.044108 657.22322 
L 991.217935 661.264669 
L 1002.391762 665.286306 
L 1013.565588 669.287972 
L 1024.739415 673.269536 
L 1035.913242 677.23089 
L 1047.087069 681.17195 
L 1058.260896 685.092649 
L 1069.434723 688.992941 
L 1080.60855 692.872798 
L 1091.782377 696.732206 
L 1102.956204 700.571166 
L 1114.130031 704.389696 
L 1125.303858 708.187815 
L 1136.477685 711.965565 
L 1147.651512 715.722993 
L 1158.825339 719.460156 
L 1169.999166 723.177121 
L 1181.172993 726.87396 
L 1192.34682 730.550754 
L 1203.520647 734.207591 
L 1214.694473 737.844564 
L 1225.8683 741.461772 
L 1237.042127 745.059318 
" clip-path="url(#p52faab6bab)" style="fill: none; stroke: #000000; stroke-width: 1.5; stroke-linecap: square"/>
   </g>
   <g id="line2d_34">
    <path d="M 230.727273 125.247409 
L 251.264311 139.872793 
L 271.801348 154.257675 
L 292.338386 168.402436 
L 312.875424 182.308638 
L 333.412462 195.978728 
L 353.9495 209.415826 
L 374.486538 222.623544 
L 395.023576 235.605866 
L 415.560613 248.367036 
L 436.097651 260.911482 
L 456.634689 273.243751 
L 477.171727 285.368462 
L 497.708765 297.290263 
L 518.245803 309.013802 
L 538.78284 320.543701 
L 559.319878 331.884542 
L 579.856916 343.040843 
L 600.393954 354.017056 
L 620.930992 364.817551 
L 641.46803 375.446612 
L 662.005068 385.908434 
L 682.542105 396.207117 
L 703.079143 406.346665 
L 723.616181 416.330983 
L 744.153219 426.163881 
L 764.690257 435.849068 
L 785.227295 445.390158 
L 805.764333 454.790667 
L 826.30137 464.054017 
L 846.838408 473.183537 
L 867.375446 482.182464 
L 887.912484 491.053944 
L 908.449522 499.801038 
L 928.98656 508.426721 
L 949.523597 516.933882 
L 970.060635 525.325332 
L 990.597673 533.603802 
L 1011.134711 541.771947 
L 1031.671749 549.832344 
L 1052.208787 557.787503 
L 1072.745825 565.63986 
L 1093.282862 573.391784 
L 1113.8199 581.045577 
L 1134.356938 588.603478 
L 1154.893976 596.067663 
L 1175.431014 603.440249 
L 1195.968052 610.723293 
L 1216.505089 617.918796 
L 1237.042127 625.028704 
" clip-path="url(#p52faab6bab)" style="fill: none; stroke: #000000; stroke-width: 1.5; stroke-linecap: square"/>
   </g>
   <g id="line2d_35">
    <path d="M 371.964445 126.976577 
L 417.49485 156.199031 
L 463.025254 184.229334 
L 508.555658 211.146527 
L 554.086063 237.023005 
L 599.616467 261.925195 
L 645.146871 285.914161 
L 690.677276 309.046127 
L 736.20768 331.372947 
L 781.738084 352.942518 
L 827.268488 373.799151 
L 872.798893 393.983895 
L 918.329297 413.534831 
L 963.859701 432.487335 
L 1009.390106 450.87431 
L 1054.92051 468.726396 
L 1100.450914 486.072161 
L 1145.981319 502.938269 
L 1191.511723 519.349631 
L 1237.042127 535.329549 
" clip-path="url(#p52faab6bab)" style="fill: none; stroke: #000000; stroke-width: 1.5; stroke-linecap: square"/>
   </g>
   <g id="line2d_36">
    <path d="M 530.856264 155.758839 
L 545.268221 163.642181 
L 559.680177 171.432361 
L 574.092134 179.131279 
L 588.50409 186.740783 
L 602.916046 194.262677 
L 617.328003 201.698718 
L 631.739959 209.050618 
L 646.151916 216.320046 
L 660.563872 223.508631 
L 674.975828 230.617961 
L 689.387785 237.649583 
L 703.799741 244.605009 
L 718.211697 251.485713 
L 732.623654 258.293133 
L 747.03561 265.028671 
L 761.447567 271.693698 
L 775.859523 278.289552 
L 790.271479 284.817537 
L 804.683436 291.278929 
L 819.095392 297.674971 
L 833.507349 304.006881 
L 847.919305 310.275845 
L 862.331261 316.483023 
L 876.743218 322.629549 
L 891.155174 328.716531 
L 905.56713 334.745051 
L 919.979087 340.716166 
L 934.391043 346.630911 
L 948.803 352.490297 
L 963.214956 358.295311 
L 977.626912 364.046921 
L 992.038869 369.746071 
L 1006.450825 375.393685 
L 1020.862782 380.990668 
L 1035.274738 386.537903 
L 1049.686694 392.036256 
L 1064.098651 397.486573 
L 1078.510607 402.889682 
L 1092.922563 408.246394 
L 1107.33452 413.557501 
L 1121.746476 418.82378 
L 1136.158433 424.045991 
L 1150.570389 429.224877 
L 1164.982345 434.361167 
L 1179.394302 439.455573 
L 1193.806258 444.508793 
L 1208.218215 449.521512 
L 1222.630171 454.494398 
L 1237.042127 459.428106 
" clip-path="url(#p52faab6bab)" style="fill: none; stroke: #000000; stroke-width: 1.5; stroke-linecap: square"/>
   </g>
   <g id="line2d_37">
    <path d="M 372.02965 504.861323 
L 358.241168 433.15947 
L 348.81314 379.733636 
L 343.17316 339.952399 
L 340.577344 309.793362 
L 340.421921 307.188316 
L 340.321105 304.649087 
L 340.24898 302.173199 
L 340.187333 299.757828 
L 340.160968 297.40234 
L 340.149822 296.24584 
L 340.14397 295.558596 
L 340.147526 295.330985 
L 340.1436 295.103397 
L 340.186175 294.879664 
L 340.493218 294.002525 
L 340.864387 292.923005 
L 341.680048 290.82964 
L 342.550851 288.818916 
L 343.323212 286.862106 
L 348.194957 278.205247 
L 353.392162 270.938899 
L 365.00481 259.702575 
L 377.515096 251.579392 
L 390.860643 245.766269 
L 403.978694 241.197283 
L 418.17346 238.24091 
L 432.052821 235.892258 
L 446.6691 234.567417 
L 461.258437 233.703512 
L 476.044607 233.325446 
L 491.321979 233.517401 
L 506.278961 233.759659 
L 521.615698 234.391083 
L 536.897118 235.127801 
L 552.352835 236.059628 
L 567.919838 237.121161 
L 583.756784 238.368092 
L 599.472317 239.57365 
L 615.498851 240.940417 
L 631.471393 242.264887 
L 647.483823 243.58053 
L 663.723189 244.963896 
L 679.961684 246.291575 
L 696.307126 247.603809 
L 712.787307 248.901891 
" clip-path="url(#p52faab6bab)" style="fill: none; stroke-dasharray: 5.55,2.4; stroke-dashoffset: 0; stroke: #ff0000; stroke-width: 1.5"/>
   </g>
   <g id="line2d_38">
    <path d="M 501.633656 482.926846 
L 499.935508 453.025697 
L 500.049143 428.687802 
L 501.597153 408.650133 
L 504.527684 391.978334 
L 504.830739 390.464394 
L 505.197026 388.980055 
L 505.584579 387.522067 
L 505.965637 386.087701 
L 506.379196 384.679652 
L 506.5812 383.983899 
L 506.701253 383.569075 
L 506.749155 383.431969 
L 506.785611 383.294048 
L 506.891604 383.162756 
L 507.515985 382.660469 
L 508.267122 382.039636 
L 509.843998 380.83851 
L 511.457748 379.684675 
L 512.890149 378.544099 
L 520.964355 373.51409 
L 528.784931 369.179675 
L 544.593337 362.224624 
L 560.285988 356.862358 
L 576.203914 352.758022 
L 591.355584 349.20833 
L 607.393719 346.702673 
L 622.826629 344.461706 
L 638.900578 342.925724 
L 654.80689 341.65381 
L 670.8267 340.705744 
L 687.303412 340.182428 
L 703.371163 339.651231 
L 719.806248 339.423171 
L 736.14867 339.262626 
L 752.656623 339.257095 
L 769.270304 339.356776 
L 786.167812 339.616142 
L 802.934837 339.841743 
L 820.043062 340.214594 
L 837.106039 340.559853 
L 854.230748 340.909494 
L 871.624913 341.333332 
L 889.04932 341.725172 
L 906.62679 342.122576 
L 924.394539 342.528929 
" clip-path="url(#p52faab6bab)" style="fill: none; stroke-dasharray: 5.55,2.4; stroke-dashoffset: 0; stroke: #ffa500; stroke-width: 1.5"/>
   </g>
   <g id="line2d_39">
    <path d="M 670.031036 539.437397 
L 673.257498 521.846346 
L 677.478797 506.619258 
L 682.439248 493.36147 
L 688.314419 481.766147 
L 688.871473 480.683285 
L 689.504667 479.618662 
L 690.158522 478.568646 
L 690.797043 477.530495 
L 691.470931 476.507677 
L 691.799244 476.000339 
L 691.993996 475.69725 
L 692.06891 475.597243 
L 692.129067 475.496214 
L 692.278357 475.402289 
L 693.130657 475.049629 
L 694.154084 474.612216 
L 696.281819 473.767202 
L 698.437627 472.955007 
L 700.347366 472.142509 
L 710.811981 468.561466 
L 720.643439 465.406664 
L 739.819752 460.172904 
L 758.219633 455.902354 
L 776.450511 452.42282 
L 793.514088 449.200041 
L 811.369364 446.725024 
L 828.391505 444.356802 
L 846.012291 442.514082 
L 863.360768 440.834496 
L 880.770978 439.389093 
L 898.63587 438.281092 
L 916.020596 437.141782 
L 933.786994 436.253626 
L 951.442247 435.416588 
L 969.277139 434.713781 
L 987.234432 434.10637 
L 1005.516129 433.647124 
L 1023.67745 433.168221 
L 1042.240895 432.833981 
L 1060.791439 432.491803 
L 1079.453173 432.172851 
L 1098.462225 431.942747 
L 1117.56391 431.708817 
L 1136.90212 431.507684 
L 1156.52783 431.345521 
" clip-path="url(#p52faab6bab)" style="fill: none; stroke-dasharray: 5.55,2.4; stroke-dashoffset: 0; stroke: #008000; stroke-width: 1.5"/>
   </g>
   <g id="line2d_40">
    <path d="M 861.909125 613.353953 
L 867.943394 600.818906 
L 874.701827 589.557986 
L 881.923118 579.411151 
L 889.895492 570.252397 
L 890.636596 569.381862 
L 891.467866 568.524108 
L 892.321158 567.675765 
L 893.152659 566.834376 
L 894.024072 566.003252 
L 894.448171 565.590015 
L 894.699574 565.342836 
L 894.795413 565.261308 
L 894.873367 565.178805 
L 895.059093 565.102775 
L 896.109485 564.819258 
L 897.36929 564.466878 
L 899.978284 563.785701 
L 902.610271 563.12974 
L 904.937228 562.469438 
L 917.534766 559.54356 
L 929.193412 556.918359 
L 951.526976 552.435021 
L 972.568473 548.612156 
L 993.146194 545.345261 
L 1012.21489 542.198567 
L 1032.042508 539.630723 
L 1050.839757 537.09689 
L 1070.2367 534.982883 
L 1089.282456 532.981174 
L 1108.366335 531.164969 
L 1127.937307 529.635136 
L 1146.972057 528.070154 
L 1166.435603 526.728223 
L 1185.791959 525.435533 
L 1205.372032 524.271272 
L 1225.121173 523.204764 
L 1245.272727 522.288028 
" clip-path="url(#p52faab6bab)" style="fill: none; stroke-dasharray: 5.55,2.4; stroke-dashoffset: 0; stroke: #4682b4; stroke-width: 1.5"/>
   </g>
   <g id="patch_3">
    <path d="M 180 768.96 
L 180 103.68 
" style="fill: none; stroke: #000000; stroke-width: 0.8; stroke-linejoin: miter; stroke-linecap: square"/>
   </g>
   <g id="patch_4">
    <path d="M 1296 768.96 
L 1296 103.68 
" style="fill: none; stroke: #000000; stroke-width: 0.8; stroke-linejoin: miter; stroke-linecap: square"/>
   </g>
   <g id="patch_5">
    <path d="M 180 768.96 
L 1296 768.96 
" style="fill: none; stroke: #000000; stroke-width: 0.8; stroke-linejoin: miter; stroke-linecap: square"/>
   </g>
   <g id="patch_6">
    <path d="M 180 103.68 
L 1296 103.68 
" style="fill: none; stroke: #000000; stroke-width: 0.8; stroke-linejoin: miter; stroke-linecap: square"/>
   </g>
   <g id="text_19">
    <!-- 160 -->
    <g transform="translate(1242.92701 754.704) scale(0.2 -0.2)">
     <use xlink:href="#DejaVuSans-31"/>
     <use xlink:href="#DejaVuSans-36" x="63.623047"/>
     <use xlink:href="#DejaVuSans-30" x="127.246094"/>
    </g>
   </g>
   <g id="text_20">
    <!-- 150 -->
    <g transform="translate(1242.92701 634.9536) scale(0.2 -0.2)">
     <use xlink:href="#DejaVuSans-31"/>
     <use xlink:href="#DejaVuSans-35" x="63.623047"/>
     <use xlink:href="#DejaVuSans-30" x="127.246094"/>
    </g>
   </g>
   <g id="text_21">
    <!-- 140 -->
    <g transform="translate(1242.92701 545.616) scale(0.2 -0.2)">
     <use xlink:href="#DejaVuSans-31"/>
     <use xlink:href="#DejaVuSans-34" x="63.623047"/>
     <use xlink:href="#DejaVuSans-30" x="127.246094"/>
    </g>
   </g>
   <g id="text_22">
    <!-- 130 -->
    <g transform="translate(1242.92701 469.584) scale(0.2 -0.2)">
     <use xlink:href="#DejaVuSans-31"/>
     <use xlink:href="#DejaVuSans-33" x="63.623047"/>
     <use xlink:href="#DejaVuSans-30" x="127.246094"/>
    </g>
   </g>
   <g id="legend_1">
    <g id="patch_7">
     <path d="M 314.71875 758.96 
L 1161.28125 758.96 
Q 1165.28125 758.96 1165.28125 754.96 
L 1165.28125 725.56 
Q 1165.28125 721.56 1161.28125 721.56 
L 314.71875 721.56 
Q 310.71875 721.56 310.71875 725.56 
L 310.71875 754.96 
Q 310.71875 758.96 314.71875 758.96 
z
" style="fill: #ffffff; opacity: 0.8; stroke: #cccccc; stroke-linejoin: miter"/>
    </g>
    <g id="line2d_41">
     <path d="M 318.71875 737.76 
L 338.71875 737.76 
L 358.71875 737.76 
" style="fill: none; stroke: #000000; stroke-width: 1.5; stroke-linecap: square"/>
    </g>
    <g id="text_23">
     <!-- $T_{se,ein}$ [C]          $ΔT_{gk,ob}$: -->
     <g transform="translate(374.71875 744.76) scale(0.2 -0.2)">
      <defs>
       <path id="DejaVuSans-Oblique-54" d="M 378 4666 
L 4325 4666 
L 4225 4134 
L 2559 4134 
L 1759 0 
L 1125 0 
L 1925 4134 
L 275 4134 
L 378 4666 
z
" transform="scale(0.015625)"/>
       <path id="DejaVuSans-Oblique-73" d="M 3200 3397 
L 3091 2853 
Q 2863 2978 2609 3040 
Q 2356 3103 2088 3103 
Q 1634 3103 1373 2948 
Q 1113 2794 1113 2528 
Q 1113 2219 1719 2053 
Q 1766 2041 1788 2034 
L 1972 1978 
Q 2547 1819 2739 1644 
Q 2931 1469 2931 1166 
Q 2931 609 2489 259 
Q 2047 -91 1331 -91 
Q 1053 -91 747 -37 
Q 441 16 72 128 
L 184 722 
Q 500 559 806 475 
Q 1113 391 1394 391 
Q 1816 391 2080 572 
Q 2344 753 2344 1031 
Q 2344 1331 1650 1516 
L 1591 1531 
L 1394 1581 
Q 956 1697 753 1886 
Q 550 2075 550 2369 
Q 550 2928 970 3256 
Q 1391 3584 2113 3584 
Q 2397 3584 2667 3537 
Q 2938 3491 3200 3397 
z
" transform="scale(0.015625)"/>
       <path id="DejaVuSans-Oblique-65" d="M 3078 2063 
Q 3088 2113 3092 2166 
Q 3097 2219 3097 2272 
Q 3097 2653 2873 2875 
Q 2650 3097 2266 3097 
Q 1838 3097 1509 2826 
Q 1181 2556 1013 2059 
L 3078 2063 
z
M 3578 1613 
L 903 1613 
Q 884 1494 878 1425 
Q 872 1356 872 1306 
Q 872 872 1139 634 
Q 1406 397 1894 397 
Q 2269 397 2603 481 
Q 2938 566 3225 728 
L 3116 159 
Q 2806 34 2476 -28 
Q 2147 -91 1806 -91 
Q 1078 -91 686 257 
Q 294 606 294 1247 
Q 294 1794 489 2264 
Q 684 2734 1063 3103 
Q 1306 3334 1642 3459 
Q 1978 3584 2356 3584 
Q 2950 3584 3301 3228 
Q 3653 2872 3653 2272 
Q 3653 2128 3634 1964 
Q 3616 1800 3578 1613 
z
" transform="scale(0.015625)"/>
       <path id="DejaVuSans-2c" d="M 750 794 
L 1409 794 
L 1409 256 
L 897 -744 
L 494 -744 
L 750 256 
L 750 794 
z
" transform="scale(0.015625)"/>
       <path id="DejaVuSans-Oblique-69" d="M 1172 4863 
L 1747 4863 
L 1606 4134 
L 1031 4134 
L 1172 4863 
z
M 909 3500 
L 1484 3500 
L 800 0 
L 225 0 
L 909 3500 
z
" transform="scale(0.015625)"/>
       <path id="DejaVuSans-Oblique-6e" d="M 3566 2113 
L 3156 0 
L 2578 0 
L 2988 2091 
Q 3016 2238 3031 2350 
Q 3047 2463 3047 2528 
Q 3047 2791 2881 2937 
Q 2716 3084 2419 3084 
Q 1956 3084 1622 2776 
Q 1288 2469 1184 1941 
L 800 0 
L 225 0 
L 903 3500 
L 1478 3500 
L 1363 2950 
Q 1603 3253 1940 3418 
Q 2278 3584 2650 3584 
Q 3113 3584 3367 3334 
Q 3622 3084 3622 2631 
Q 3622 2519 3608 2391 
Q 3594 2263 3566 2113 
z
" transform="scale(0.015625)"/>
       <path id="DejaVuSans-43" d="M 4122 4306 
L 4122 3641 
Q 3803 3938 3442 4084 
Q 3081 4231 2675 4231 
Q 1875 4231 1450 3742 
Q 1025 3253 1025 2328 
Q 1025 1406 1450 917 
Q 1875 428 2675 428 
Q 3081 428 3442 575 
Q 3803 722 4122 1019 
L 4122 359 
Q 3791 134 3420 21 
Q 3050 -91 2638 -91 
Q 1578 -91 968 557 
Q 359 1206 359 2328 
Q 359 3453 968 4101 
Q 1578 4750 2638 4750 
Q 3056 4750 3426 4639 
Q 3797 4528 4122 4306 
z
" transform="scale(0.015625)"/>
       <path id="DejaVuSans-394" d="M 2188 4044 
L 906 525 
L 3472 525 
L 2188 4044 
z
M 50 0 
L 1831 4666 
L 2547 4666 
L 4325 0 
L 50 0 
z
" transform="scale(0.015625)"/>
       <path id="DejaVuSans-Oblique-67" d="M 3816 3500 
L 3219 434 
Q 3047 -456 2561 -893 
Q 2075 -1331 1253 -1331 
Q 950 -1331 690 -1286 
Q 431 -1241 206 -1147 
L 313 -588 
Q 525 -725 762 -790 
Q 1000 -856 1269 -856 
Q 1816 -856 2167 -557 
Q 2519 -259 2631 300 
L 2681 563 
Q 2441 288 2122 144 
Q 1803 0 1434 0 
Q 903 0 598 351 
Q 294 703 294 1319 
Q 294 1803 478 2267 
Q 663 2731 997 3091 
Q 1219 3328 1514 3456 
Q 1809 3584 2131 3584 
Q 2484 3584 2746 3420 
Q 3009 3256 3138 2956 
L 3238 3500 
L 3816 3500 
z
M 2950 2216 
Q 2950 2641 2750 2872 
Q 2550 3103 2181 3103 
Q 1953 3103 1747 3012 
Q 1541 2922 1394 2759 
Q 1156 2491 1023 2127 
Q 891 1763 891 1375 
Q 891 944 1092 712 
Q 1294 481 1672 481 
Q 2219 481 2584 976 
Q 2950 1472 2950 2216 
z
" transform="scale(0.015625)"/>
       <path id="DejaVuSans-Oblique-6b" d="M 1172 4863 
L 1747 4863 
L 1197 2028 
L 3169 3500 
L 3916 3500 
L 1716 1825 
L 3322 0 
L 2625 0 
L 1131 1709 
L 800 0 
L 225 0 
L 1172 4863 
z
" transform="scale(0.015625)"/>
       <path id="DejaVuSans-Oblique-6f" d="M 1625 -91 
Q 1009 -91 651 289 
Q 294 669 294 1325 
Q 294 1706 417 2101 
Q 541 2497 738 2766 
Q 1047 3184 1428 3384 
Q 1809 3584 2291 3584 
Q 2888 3584 3255 3212 
Q 3622 2841 3622 2241 
Q 3622 1825 3500 1412 
Q 3378 1000 3181 728 
Q 2875 309 2494 109 
Q 2113 -91 1625 -91 
z
M 891 1344 
Q 891 869 1089 633 
Q 1288 397 1691 397 
Q 2269 397 2648 901 
Q 3028 1406 3028 2181 
Q 3028 2634 2825 2865 
Q 2622 3097 2228 3097 
Q 1903 3097 1650 2945 
Q 1397 2794 1197 2484 
Q 1050 2253 970 1956 
Q 891 1659 891 1344 
z
" transform="scale(0.015625)"/>
       <path id="DejaVuSans-Oblique-62" d="M 3169 2138 
Q 3169 2591 2961 2847 
Q 2753 3103 2388 3103 
Q 2122 3103 1889 2973 
Q 1656 2844 1484 2597 
Q 1303 2338 1198 1995 
Q 1094 1653 1094 1313 
Q 1094 881 1298 636 
Q 1503 391 1863 391 
Q 2134 391 2365 517 
Q 2597 644 2772 891 
Q 2950 1147 3059 1487 
Q 3169 1828 3169 2138 
z
M 1381 2969 
Q 1594 3256 1914 3420 
Q 2234 3584 2584 3584 
Q 3122 3584 3439 3221 
Q 3756 2859 3756 2241 
Q 3756 1734 3570 1259 
Q 3384 784 3041 416 
Q 2816 172 2522 40 
Q 2228 -91 1906 -91 
Q 1566 -91 1316 65 
Q 1066 222 909 531 
L 806 0 
L 231 0 
L 1178 4863 
L 1753 4863 
L 1381 2969 
z
" transform="scale(0.015625)"/>
       <path id="DejaVuSans-3a" d="M 750 794 
L 1409 794 
L 1409 0 
L 750 0 
L 750 794 
z
M 750 3309 
L 1409 3309 
L 1409 2516 
L 750 2516 
L 750 3309 
z
" transform="scale(0.015625)"/>
      </defs>
      <use xlink:href="#DejaVuSans-Oblique-54" transform="translate(0 0.015625)"/>
      <use xlink:href="#DejaVuSans-Oblique-73" transform="translate(61.083984 -16.390625) scale(0.7)"/>
      <use xlink:href="#DejaVuSans-Oblique-65" transform="translate(97.553711 -16.390625) scale(0.7)"/>
      <use xlink:href="#DejaVuSans-2c" transform="translate(140.620117 -16.390625) scale(0.7)"/>
      <use xlink:href="#DejaVuSans-Oblique-65" transform="translate(176.508789 -16.390625) scale(0.7)"/>
      <use xlink:href="#DejaVuSans-Oblique-69" transform="translate(219.575195 -16.390625) scale(0.7)"/>
      <use xlink:href="#DejaVuSans-Oblique-6e" transform="translate(239.023438 -16.390625) scale(0.7)"/>
      <use xlink:href="#DejaVuSans-20" transform="translate(286.123047 0.015625)"/>
      <use xlink:href="#DejaVuSans-5b" transform="translate(317.910156 0.015625)"/>
      <use xlink:href="#DejaVuSans-43" transform="translate(356.923828 0.015625)"/>
      <use xlink:href="#DejaVuSans-5d" transform="translate(426.748047 0.015625)"/>
      <use xlink:href="#DejaVuSans-20" transform="translate(465.761719 0.015625)"/>
      <use xlink:href="#DejaVuSans-20" transform="translate(497.548828 0.015625)"/>
      <use xlink:href="#DejaVuSans-20" transform="translate(529.335938 0.015625)"/>
      <use xlink:href="#DejaVuSans-20" transform="translate(561.123047 0.015625)"/>
      <use xlink:href="#DejaVuSans-20" transform="translate(592.910156 0.015625)"/>
      <use xlink:href="#DejaVuSans-20" transform="translate(624.697266 0.015625)"/>
      <use xlink:href="#DejaVuSans-20" transform="translate(656.484375 0.015625)"/>
      <use xlink:href="#DejaVuSans-20" transform="translate(688.271484 0.015625)"/>
      <use xlink:href="#DejaVuSans-20" transform="translate(720.058594 0.015625)"/>
      <use xlink:href="#DejaVuSans-20" transform="translate(751.845703 0.015625)"/>
      <use xlink:href="#DejaVuSans-394" transform="translate(783.632812 0.015625)"/>
      <use xlink:href="#DejaVuSans-Oblique-54" transform="translate(852.041016 0.015625)"/>
      <use xlink:href="#DejaVuSans-Oblique-67" transform="translate(913.125 -16.390625) scale(0.7)"/>
      <use xlink:href="#DejaVuSans-Oblique-6b" transform="translate(957.558594 -16.390625) scale(0.7)"/>
      <use xlink:href="#DejaVuSans-2c" transform="translate(998.095703 -16.390625) scale(0.7)"/>
      <use xlink:href="#DejaVuSans-Oblique-6f" transform="translate(1033.984375 -16.390625) scale(0.7)"/>
      <use xlink:href="#DejaVuSans-Oblique-62" transform="translate(1076.811523 -16.390625) scale(0.7)"/>
      <use xlink:href="#DejaVuSans-3a" transform="translate(1123.979492 0.015625)"/>
     </g>
    </g>
    <g id="line2d_42">
     <path d="M 646.31875 737.76 
L 666.31875 737.76 
L 686.31875 737.76 
" style="fill: none; stroke-dasharray: 5.55,2.4; stroke-dashoffset: 0; stroke: #ff0000; stroke-width: 1.5"/>
    </g>
    <g id="text_24">
     <!-- 5 K -->
     <g transform="translate(702.31875 744.76) scale(0.2 -0.2)">
      <defs>
       <path id="DejaVuSans-4b" d="M 628 4666 
L 1259 4666 
L 1259 2694 
L 3353 4666 
L 4166 4666 
L 1850 2491 
L 4331 0 
L 3500 0 
L 1259 2247 
L 1259 0 
L 628 0 
L 628 4666 
z
" transform="scale(0.015625)"/>
      </defs>
      <use xlink:href="#DejaVuSans-35"/>
      <use xlink:href="#DejaVuSans-20" x="63.623047"/>
      <use xlink:href="#DejaVuSans-4b" x="95.410156"/>
     </g>
    </g>
    <g id="line2d_43">
     <path d="M 774.515625 737.76 
L 794.515625 737.76 
L 814.515625 737.76 
" style="fill: none; stroke-dasharray: 5.55,2.4; stroke-dashoffset: 0; stroke: #ffa500; stroke-width: 1.5"/>
    </g>
    <g id="text_25">
     <!-- 10 K -->
     <g transform="translate(830.515625 744.76) scale(0.2 -0.2)">
      <use xlink:href="#DejaVuSans-31"/>
      <use xlink:href="#DejaVuSans-30" x="63.623047"/>
      <use xlink:href="#DejaVuSans-20" x="127.246094"/>
      <use xlink:href="#DejaVuSans-4b" x="159.033203"/>
     </g>
    </g>
    <g id="line2d_44">
     <path d="M 915.4375 737.76 
L 935.4375 737.76 
L 955.4375 737.76 
" style="fill: none; stroke-dasharray: 5.55,2.4; stroke-dashoffset: 0; stroke: #008000; stroke-width: 1.5"/>
    </g>
    <g id="text_26">
     <!-- 15 K -->
     <g transform="translate(971.4375 744.76) scale(0.2 -0.2)">
      <use xlink:href="#DejaVuSans-31"/>
      <use xlink:href="#DejaVuSans-35" x="63.623047"/>
      <use xlink:href="#DejaVuSans-20" x="127.246094"/>
      <use xlink:href="#DejaVuSans-4b" x="159.033203"/>
     </g>
    </g>
    <g id="line2d_45">
     <path d="M 1056.359375 737.76 
L 1076.359375 737.76 
L 1096.359375 737.76 
" style="fill: none; stroke-dasharray: 5.55,2.4; stroke-dashoffset: 0; stroke: #4682b4; stroke-width: 1.5"/>
    </g>
    <g id="text_27">
     <!-- 20 K -->
     <g transform="translate(1112.359375 744.76) scale(0.2 -0.2)">
      <use xlink:href="#DejaVuSans-32"/>
      <use xlink:href="#DejaVuSans-30" x="63.623047"/>
      <use xlink:href="#DejaVuSans-20" x="127.246094"/>
      <use xlink:href="#DejaVuSans-4b" x="159.033203"/>
     </g>
    </g>
   </g>
  </g>
 </g>
 <defs>
  <clipPath id="p52faab6bab">
   <rect x="180" y="103.68" width="1116" height="665.28"/>
  </clipPath>
 </defs>
</svg>
