<?xml version="1.0" encoding="utf-8" standalone="no"?>
<!DOCTYPE svg PUBLIC "-//W3C//DTD SVG 1.1//EN"
  "http://www.w3.org/Graphics/SVG/1.1/DTD/svg11.dtd">
<svg xmlns:xlink="http://www.w3.org/1999/xlink" width="1440pt" height="864pt" viewBox="0 0 1440 864" xmlns="http://www.w3.org/2000/svg" version="1.1">
 <metadata>
  <rdf:RDF xmlns:dc="http://purl.org/dc/elements/1.1/" xmlns:cc="http://creativecommons.org/ns#" xmlns:rdf="http://www.w3.org/1999/02/22-rdf-syntax-ns#">
   <cc:Work>
    <dc:type rdf:resource="http://purl.org/dc/dcmitype/StillImage"/>
    <dc:date>2023-06-23T10:56:59.015808</dc:date>
    <dc:format>image/svg+xml</dc:format>
    <dc:creator>
     <cc:Agent>
      <dc:title>Matplotlib v3.6.1, https://matplotlib.org/</dc:title>
     </cc:Agent>
    </dc:creator>
   </cc:Work>
  </rdf:RDF>
 </metadata>
 <defs>
  <style type="text/css">*{stroke-linejoin: round; stroke-linecap: butt}</style>
 </defs>
 <g id="figure_1">
  <g id="patch_1">
   <path d="M 0 864 
L 1440 864 
L 1440 0 
L 0 0 
z
" style="fill: #ffffff"/>
  </g>
  <g id="axes_1">
   <g id="patch_2">
    <path d="M 180 768.96 
L 1296 768.96 
L 1296 103.68 
L 180 103.68 
z
" style="fill: #ffffff"/>
   </g>
   <g id="matplotlib.axis_1">
    <g id="xtick_1">
     <g id="line2d_1">
      <path d="M 291.6 768.96 
L 291.6 103.68 
" clip-path="url(#p708f369895)" style="fill: none; stroke: #b0b0b0; stroke-width: 0.8; stroke-linecap: square"/>
     </g>
     <g id="line2d_2">
      <defs>
       <path id="me80a10cfb3" d="M 0 0 
L 0 3.5 
" style="stroke: #000000; stroke-width: 0.8"/>
      </defs>
      <g>
       <use xlink:href="#me80a10cfb3" x="291.6" y="768.96" style="stroke: #000000; stroke-width: 0.8"/>
      </g>
     </g>
     <g id="text_1">
      <!-- 37.5 -->
      <g transform="translate(269.334375 791.156875) scale(0.2 -0.2)">
       <defs>
        <path id="DejaVuSans-33" d="M 2597 2516 
Q 3050 2419 3304 2112 
Q 3559 1806 3559 1356 
Q 3559 666 3084 287 
Q 2609 -91 1734 -91 
Q 1441 -91 1130 -33 
Q 819 25 488 141 
L 488 750 
Q 750 597 1062 519 
Q 1375 441 1716 441 
Q 2309 441 2620 675 
Q 2931 909 2931 1356 
Q 2931 1769 2642 2001 
Q 2353 2234 1838 2234 
L 1294 2234 
L 1294 2753 
L 1863 2753 
Q 2328 2753 2575 2939 
Q 2822 3125 2822 3475 
Q 2822 3834 2567 4026 
Q 2313 4219 1838 4219 
Q 1578 4219 1281 4162 
Q 984 4106 628 3988 
L 628 4550 
Q 988 4650 1302 4700 
Q 1616 4750 1894 4750 
Q 2613 4750 3031 4423 
Q 3450 4097 3450 3541 
Q 3450 3153 3228 2886 
Q 3006 2619 2597 2516 
z
" transform="scale(0.015625)"/>
        <path id="DejaVuSans-37" d="M 525 4666 
L 3525 4666 
L 3525 4397 
L 1831 0 
L 1172 0 
L 2766 4134 
L 525 4134 
L 525 4666 
z
" transform="scale(0.015625)"/>
        <path id="DejaVuSans-2e" d="M 684 794 
L 1344 794 
L 1344 0 
L 684 0 
L 684 794 
z
" transform="scale(0.015625)"/>
        <path id="DejaVuSans-35" d="M 691 4666 
L 3169 4666 
L 3169 4134 
L 1269 4134 
L 1269 2991 
Q 1406 3038 1543 3061 
Q 1681 3084 1819 3084 
Q 2600 3084 3056 2656 
Q 3513 2228 3513 1497 
Q 3513 744 3044 326 
Q 2575 -91 1722 -91 
Q 1428 -91 1123 -41 
Q 819 9 494 109 
L 494 744 
Q 775 591 1075 516 
Q 1375 441 1709 441 
Q 2250 441 2565 725 
Q 2881 1009 2881 1497 
Q 2881 1984 2565 2268 
Q 2250 2553 1709 2553 
Q 1456 2553 1204 2497 
Q 953 2441 691 2322 
L 691 4666 
z
" transform="scale(0.015625)"/>
       </defs>
       <use xlink:href="#DejaVuSans-33"/>
       <use xlink:href="#DejaVuSans-37" x="63.623047"/>
       <use xlink:href="#DejaVuSans-2e" x="127.246094"/>
       <use xlink:href="#DejaVuSans-35" x="159.033203"/>
      </g>
     </g>
    </g>
    <g id="xtick_2">
     <g id="line2d_3">
      <path d="M 431.1 768.96 
L 431.1 103.68 
" clip-path="url(#p708f369895)" style="fill: none; stroke: #b0b0b0; stroke-width: 0.8; stroke-linecap: square"/>
     </g>
     <g id="line2d_4">
      <g>
       <use xlink:href="#me80a10cfb3" x="431.1" y="768.96" style="stroke: #000000; stroke-width: 0.8"/>
      </g>
     </g>
     <g id="text_2">
      <!-- 40.0 -->
      <g transform="translate(408.834375 791.156875) scale(0.2 -0.2)">
       <defs>
        <path id="DejaVuSans-34" d="M 2419 4116 
L 825 1625 
L 2419 1625 
L 2419 4116 
z
M 2253 4666 
L 3047 4666 
L 3047 1625 
L 3713 1625 
L 3713 1100 
L 3047 1100 
L 3047 0 
L 2419 0 
L 2419 1100 
L 313 1100 
L 313 1709 
L 2253 4666 
z
" transform="scale(0.015625)"/>
        <path id="DejaVuSans-30" d="M 2034 4250 
Q 1547 4250 1301 3770 
Q 1056 3291 1056 2328 
Q 1056 1369 1301 889 
Q 1547 409 2034 409 
Q 2525 409 2770 889 
Q 3016 1369 3016 2328 
Q 3016 3291 2770 3770 
Q 2525 4250 2034 4250 
z
M 2034 4750 
Q 2819 4750 3233 4129 
Q 3647 3509 3647 2328 
Q 3647 1150 3233 529 
Q 2819 -91 2034 -91 
Q 1250 -91 836 529 
Q 422 1150 422 2328 
Q 422 3509 836 4129 
Q 1250 4750 2034 4750 
z
" transform="scale(0.015625)"/>
       </defs>
       <use xlink:href="#DejaVuSans-34"/>
       <use xlink:href="#DejaVuSans-30" x="63.623047"/>
       <use xlink:href="#DejaVuSans-2e" x="127.246094"/>
       <use xlink:href="#DejaVuSans-30" x="159.033203"/>
      </g>
     </g>
    </g>
    <g id="xtick_3">
     <g id="line2d_5">
      <path d="M 570.6 768.96 
L 570.6 103.68 
" clip-path="url(#p708f369895)" style="fill: none; stroke: #b0b0b0; stroke-width: 0.8; stroke-linecap: square"/>
     </g>
     <g id="line2d_6">
      <g>
       <use xlink:href="#me80a10cfb3" x="570.6" y="768.96" style="stroke: #000000; stroke-width: 0.8"/>
      </g>
     </g>
     <g id="text_3">
      <!-- 42.5 -->
      <g transform="translate(548.334375 791.156875) scale(0.2 -0.2)">
       <defs>
        <path id="DejaVuSans-32" d="M 1228 531 
L 3431 531 
L 3431 0 
L 469 0 
L 469 531 
Q 828 903 1448 1529 
Q 2069 2156 2228 2338 
Q 2531 2678 2651 2914 
Q 2772 3150 2772 3378 
Q 2772 3750 2511 3984 
Q 2250 4219 1831 4219 
Q 1534 4219 1204 4116 
Q 875 4013 500 3803 
L 500 4441 
Q 881 4594 1212 4672 
Q 1544 4750 1819 4750 
Q 2544 4750 2975 4387 
Q 3406 4025 3406 3419 
Q 3406 3131 3298 2873 
Q 3191 2616 2906 2266 
Q 2828 2175 2409 1742 
Q 1991 1309 1228 531 
z
" transform="scale(0.015625)"/>
       </defs>
       <use xlink:href="#DejaVuSans-34"/>
       <use xlink:href="#DejaVuSans-32" x="63.623047"/>
       <use xlink:href="#DejaVuSans-2e" x="127.246094"/>
       <use xlink:href="#DejaVuSans-35" x="159.033203"/>
      </g>
     </g>
    </g>
    <g id="xtick_4">
     <g id="line2d_7">
      <path d="M 710.1 768.96 
L 710.1 103.68 
" clip-path="url(#p708f369895)" style="fill: none; stroke: #b0b0b0; stroke-width: 0.8; stroke-linecap: square"/>
     </g>
     <g id="line2d_8">
      <g>
       <use xlink:href="#me80a10cfb3" x="710.1" y="768.96" style="stroke: #000000; stroke-width: 0.8"/>
      </g>
     </g>
     <g id="text_4">
      <!-- 45.0 -->
      <g transform="translate(687.834375 791.156875) scale(0.2 -0.2)">
       <use xlink:href="#DejaVuSans-34"/>
       <use xlink:href="#DejaVuSans-35" x="63.623047"/>
       <use xlink:href="#DejaVuSans-2e" x="127.246094"/>
       <use xlink:href="#DejaVuSans-30" x="159.033203"/>
      </g>
     </g>
    </g>
    <g id="xtick_5">
     <g id="line2d_9">
      <path d="M 849.6 768.96 
L 849.6 103.68 
" clip-path="url(#p708f369895)" style="fill: none; stroke: #b0b0b0; stroke-width: 0.8; stroke-linecap: square"/>
     </g>
     <g id="line2d_10">
      <g>
       <use xlink:href="#me80a10cfb3" x="849.6" y="768.96" style="stroke: #000000; stroke-width: 0.8"/>
      </g>
     </g>
     <g id="text_5">
      <!-- 47.5 -->
      <g transform="translate(827.334375 791.156875) scale(0.2 -0.2)">
       <use xlink:href="#DejaVuSans-34"/>
       <use xlink:href="#DejaVuSans-37" x="63.623047"/>
       <use xlink:href="#DejaVuSans-2e" x="127.246094"/>
       <use xlink:href="#DejaVuSans-35" x="159.033203"/>
      </g>
     </g>
    </g>
    <g id="xtick_6">
     <g id="line2d_11">
      <path d="M 989.1 768.96 
L 989.1 103.68 
" clip-path="url(#p708f369895)" style="fill: none; stroke: #b0b0b0; stroke-width: 0.8; stroke-linecap: square"/>
     </g>
     <g id="line2d_12">
      <g>
       <use xlink:href="#me80a10cfb3" x="989.1" y="768.96" style="stroke: #000000; stroke-width: 0.8"/>
      </g>
     </g>
     <g id="text_6">
      <!-- 50.0 -->
      <g transform="translate(966.834375 791.156875) scale(0.2 -0.2)">
       <use xlink:href="#DejaVuSans-35"/>
       <use xlink:href="#DejaVuSans-30" x="63.623047"/>
       <use xlink:href="#DejaVuSans-2e" x="127.246094"/>
       <use xlink:href="#DejaVuSans-30" x="159.033203"/>
      </g>
     </g>
    </g>
    <g id="xtick_7">
     <g id="line2d_13">
      <path d="M 1128.6 768.96 
L 1128.6 103.68 
" clip-path="url(#p708f369895)" style="fill: none; stroke: #b0b0b0; stroke-width: 0.8; stroke-linecap: square"/>
     </g>
     <g id="line2d_14">
      <g>
       <use xlink:href="#me80a10cfb3" x="1128.6" y="768.96" style="stroke: #000000; stroke-width: 0.8"/>
      </g>
     </g>
     <g id="text_7">
      <!-- 52.5 -->
      <g transform="translate(1106.334375 791.156875) scale(0.2 -0.2)">
       <use xlink:href="#DejaVuSans-35"/>
       <use xlink:href="#DejaVuSans-32" x="63.623047"/>
       <use xlink:href="#DejaVuSans-2e" x="127.246094"/>
       <use xlink:href="#DejaVuSans-35" x="159.033203"/>
      </g>
     </g>
    </g>
    <g id="xtick_8">
     <g id="line2d_15">
      <path d="M 1268.1 768.96 
L 1268.1 103.68 
" clip-path="url(#p708f369895)" style="fill: none; stroke: #b0b0b0; stroke-width: 0.8; stroke-linecap: square"/>
     </g>
     <g id="line2d_16">
      <g>
       <use xlink:href="#me80a10cfb3" x="1268.1" y="768.96" style="stroke: #000000; stroke-width: 0.8"/>
      </g>
     </g>
     <g id="text_8">
      <!-- 55.0 -->
      <g transform="translate(1245.834375 791.156875) scale(0.2 -0.2)">
       <use xlink:href="#DejaVuSans-35"/>
       <use xlink:href="#DejaVuSans-35" x="63.623047"/>
       <use xlink:href="#DejaVuSans-2e" x="127.246094"/>
       <use xlink:href="#DejaVuSans-30" x="159.033203"/>
      </g>
     </g>
    </g>
    <g id="text_9">
     <!-- Gaskühlerdruck [bar] -->
     <g transform="translate(632.239063 814.513125) scale(0.2 -0.2)">
      <defs>
       <path id="DejaVuSans-47" d="M 3809 666 
L 3809 1919 
L 2778 1919 
L 2778 2438 
L 4434 2438 
L 4434 434 
Q 4069 175 3628 42 
Q 3188 -91 2688 -91 
Q 1594 -91 976 548 
Q 359 1188 359 2328 
Q 359 3472 976 4111 
Q 1594 4750 2688 4750 
Q 3144 4750 3555 4637 
Q 3966 4525 4313 4306 
L 4313 3634 
Q 3963 3931 3569 4081 
Q 3175 4231 2741 4231 
Q 1884 4231 1454 3753 
Q 1025 3275 1025 2328 
Q 1025 1384 1454 906 
Q 1884 428 2741 428 
Q 3075 428 3337 486 
Q 3600 544 3809 666 
z
" transform="scale(0.015625)"/>
       <path id="DejaVuSans-61" d="M 2194 1759 
Q 1497 1759 1228 1600 
Q 959 1441 959 1056 
Q 959 750 1161 570 
Q 1363 391 1709 391 
Q 2188 391 2477 730 
Q 2766 1069 2766 1631 
L 2766 1759 
L 2194 1759 
z
M 3341 1997 
L 3341 0 
L 2766 0 
L 2766 531 
Q 2569 213 2275 61 
Q 1981 -91 1556 -91 
Q 1019 -91 701 211 
Q 384 513 384 1019 
Q 384 1609 779 1909 
Q 1175 2209 1959 2209 
L 2766 2209 
L 2766 2266 
Q 2766 2663 2505 2880 
Q 2244 3097 1772 3097 
Q 1472 3097 1187 3025 
Q 903 2953 641 2809 
L 641 3341 
Q 956 3463 1253 3523 
Q 1550 3584 1831 3584 
Q 2591 3584 2966 3190 
Q 3341 2797 3341 1997 
z
" transform="scale(0.015625)"/>
       <path id="DejaVuSans-73" d="M 2834 3397 
L 2834 2853 
Q 2591 2978 2328 3040 
Q 2066 3103 1784 3103 
Q 1356 3103 1142 2972 
Q 928 2841 928 2578 
Q 928 2378 1081 2264 
Q 1234 2150 1697 2047 
L 1894 2003 
Q 2506 1872 2764 1633 
Q 3022 1394 3022 966 
Q 3022 478 2636 193 
Q 2250 -91 1575 -91 
Q 1294 -91 989 -36 
Q 684 19 347 128 
L 347 722 
Q 666 556 975 473 
Q 1284 391 1588 391 
Q 1994 391 2212 530 
Q 2431 669 2431 922 
Q 2431 1156 2273 1281 
Q 2116 1406 1581 1522 
L 1381 1569 
Q 847 1681 609 1914 
Q 372 2147 372 2553 
Q 372 3047 722 3315 
Q 1072 3584 1716 3584 
Q 2034 3584 2315 3537 
Q 2597 3491 2834 3397 
z
" transform="scale(0.015625)"/>
       <path id="DejaVuSans-6b" d="M 581 4863 
L 1159 4863 
L 1159 1991 
L 2875 3500 
L 3609 3500 
L 1753 1863 
L 3688 0 
L 2938 0 
L 1159 1709 
L 1159 0 
L 581 0 
L 581 4863 
z
" transform="scale(0.015625)"/>
       <path id="DejaVuSans-fc" d="M 544 1381 
L 544 3500 
L 1119 3500 
L 1119 1403 
Q 1119 906 1312 657 
Q 1506 409 1894 409 
Q 2359 409 2629 706 
Q 2900 1003 2900 1516 
L 2900 3500 
L 3475 3500 
L 3475 0 
L 2900 0 
L 2900 538 
Q 2691 219 2414 64 
Q 2138 -91 1772 -91 
Q 1169 -91 856 284 
Q 544 659 544 1381 
z
M 1991 3584 
L 1991 3584 
z
M 2278 4850 
L 2912 4850 
L 2912 4219 
L 2278 4219 
L 2278 4850 
z
M 1056 4850 
L 1690 4850 
L 1690 4219 
L 1056 4219 
L 1056 4850 
z
" transform="scale(0.015625)"/>
       <path id="DejaVuSans-68" d="M 3513 2113 
L 3513 0 
L 2938 0 
L 2938 2094 
Q 2938 2591 2744 2837 
Q 2550 3084 2163 3084 
Q 1697 3084 1428 2787 
Q 1159 2491 1159 1978 
L 1159 0 
L 581 0 
L 581 4863 
L 1159 4863 
L 1159 2956 
Q 1366 3272 1645 3428 
Q 1925 3584 2291 3584 
Q 2894 3584 3203 3211 
Q 3513 2838 3513 2113 
z
" transform="scale(0.015625)"/>
       <path id="DejaVuSans-6c" d="M 603 4863 
L 1178 4863 
L 1178 0 
L 603 0 
L 603 4863 
z
" transform="scale(0.015625)"/>
       <path id="DejaVuSans-65" d="M 3597 1894 
L 3597 1613 
L 953 1613 
Q 991 1019 1311 708 
Q 1631 397 2203 397 
Q 2534 397 2845 478 
Q 3156 559 3463 722 
L 3463 178 
Q 3153 47 2828 -22 
Q 2503 -91 2169 -91 
Q 1331 -91 842 396 
Q 353 884 353 1716 
Q 353 2575 817 3079 
Q 1281 3584 2069 3584 
Q 2775 3584 3186 3129 
Q 3597 2675 3597 1894 
z
M 3022 2063 
Q 3016 2534 2758 2815 
Q 2500 3097 2075 3097 
Q 1594 3097 1305 2825 
Q 1016 2553 972 2059 
L 3022 2063 
z
" transform="scale(0.015625)"/>
       <path id="DejaVuSans-72" d="M 2631 2963 
Q 2534 3019 2420 3045 
Q 2306 3072 2169 3072 
Q 1681 3072 1420 2755 
Q 1159 2438 1159 1844 
L 1159 0 
L 581 0 
L 581 3500 
L 1159 3500 
L 1159 2956 
Q 1341 3275 1631 3429 
Q 1922 3584 2338 3584 
Q 2397 3584 2469 3576 
Q 2541 3569 2628 3553 
L 2631 2963 
z
" transform="scale(0.015625)"/>
       <path id="DejaVuSans-64" d="M 2906 2969 
L 2906 4863 
L 3481 4863 
L 3481 0 
L 2906 0 
L 2906 525 
Q 2725 213 2448 61 
Q 2172 -91 1784 -91 
Q 1150 -91 751 415 
Q 353 922 353 1747 
Q 353 2572 751 3078 
Q 1150 3584 1784 3584 
Q 2172 3584 2448 3432 
Q 2725 3281 2906 2969 
z
M 947 1747 
Q 947 1113 1208 752 
Q 1469 391 1925 391 
Q 2381 391 2643 752 
Q 2906 1113 2906 1747 
Q 2906 2381 2643 2742 
Q 2381 3103 1925 3103 
Q 1469 3103 1208 2742 
Q 947 2381 947 1747 
z
" transform="scale(0.015625)"/>
       <path id="DejaVuSans-75" d="M 544 1381 
L 544 3500 
L 1119 3500 
L 1119 1403 
Q 1119 906 1312 657 
Q 1506 409 1894 409 
Q 2359 409 2629 706 
Q 2900 1003 2900 1516 
L 2900 3500 
L 3475 3500 
L 3475 0 
L 2900 0 
L 2900 538 
Q 2691 219 2414 64 
Q 2138 -91 1772 -91 
Q 1169 -91 856 284 
Q 544 659 544 1381 
z
M 1991 3584 
L 1991 3584 
z
" transform="scale(0.015625)"/>
       <path id="DejaVuSans-63" d="M 3122 3366 
L 3122 2828 
Q 2878 2963 2633 3030 
Q 2388 3097 2138 3097 
Q 1578 3097 1268 2742 
Q 959 2388 959 1747 
Q 959 1106 1268 751 
Q 1578 397 2138 397 
Q 2388 397 2633 464 
Q 2878 531 3122 666 
L 3122 134 
Q 2881 22 2623 -34 
Q 2366 -91 2075 -91 
Q 1284 -91 818 406 
Q 353 903 353 1747 
Q 353 2603 823 3093 
Q 1294 3584 2113 3584 
Q 2378 3584 2631 3529 
Q 2884 3475 3122 3366 
z
" transform="scale(0.015625)"/>
       <path id="DejaVuSans-20" transform="scale(0.015625)"/>
       <path id="DejaVuSans-5b" d="M 550 4863 
L 1875 4863 
L 1875 4416 
L 1125 4416 
L 1125 -397 
L 1875 -397 
L 1875 -844 
L 550 -844 
L 550 4863 
z
" transform="scale(0.015625)"/>
       <path id="DejaVuSans-62" d="M 3116 1747 
Q 3116 2381 2855 2742 
Q 2594 3103 2138 3103 
Q 1681 3103 1420 2742 
Q 1159 2381 1159 1747 
Q 1159 1113 1420 752 
Q 1681 391 2138 391 
Q 2594 391 2855 752 
Q 3116 1113 3116 1747 
z
M 1159 2969 
Q 1341 3281 1617 3432 
Q 1894 3584 2278 3584 
Q 2916 3584 3314 3078 
Q 3713 2572 3713 1747 
Q 3713 922 3314 415 
Q 2916 -91 2278 -91 
Q 1894 -91 1617 61 
Q 1341 213 1159 525 
L 1159 0 
L 581 0 
L 581 4863 
L 1159 4863 
L 1159 2969 
z
" transform="scale(0.015625)"/>
       <path id="DejaVuSans-5d" d="M 1947 4863 
L 1947 -844 
L 622 -844 
L 622 -397 
L 1369 -397 
L 1369 4416 
L 622 4416 
L 622 4863 
L 1947 4863 
z
" transform="scale(0.015625)"/>
      </defs>
      <use xlink:href="#DejaVuSans-47"/>
      <use xlink:href="#DejaVuSans-61" x="77.490234"/>
      <use xlink:href="#DejaVuSans-73" x="138.769531"/>
      <use xlink:href="#DejaVuSans-6b" x="190.869141"/>
      <use xlink:href="#DejaVuSans-fc" x="245.654297"/>
      <use xlink:href="#DejaVuSans-68" x="309.033203"/>
      <use xlink:href="#DejaVuSans-6c" x="372.412109"/>
      <use xlink:href="#DejaVuSans-65" x="400.195312"/>
      <use xlink:href="#DejaVuSans-72" x="461.71875"/>
      <use xlink:href="#DejaVuSans-64" x="501.082031"/>
      <use xlink:href="#DejaVuSans-72" x="564.558594"/>
      <use xlink:href="#DejaVuSans-75" x="605.671875"/>
      <use xlink:href="#DejaVuSans-63" x="669.050781"/>
      <use xlink:href="#DejaVuSans-6b" x="724.03125"/>
      <use xlink:href="#DejaVuSans-20" x="781.941406"/>
      <use xlink:href="#DejaVuSans-5b" x="813.728516"/>
      <use xlink:href="#DejaVuSans-62" x="852.742188"/>
      <use xlink:href="#DejaVuSans-61" x="916.21875"/>
      <use xlink:href="#DejaVuSans-72" x="977.498047"/>
      <use xlink:href="#DejaVuSans-5d" x="1018.611328"/>
     </g>
    </g>
   </g>
   <g id="matplotlib.axis_2">
    <g id="ytick_1">
     <g id="line2d_17">
      <path d="M 180 768.96 
L 1296 768.96 
" clip-path="url(#p708f369895)" style="fill: none; stroke: #b0b0b0; stroke-width: 0.8; stroke-linecap: square"/>
     </g>
     <g id="line2d_18">
      <defs>
       <path id="m972d58885b" d="M 0 0 
L -3.5 0 
" style="stroke: #000000; stroke-width: 0.8"/>
      </defs>
      <g>
       <use xlink:href="#m972d58885b" x="180" y="768.96" style="stroke: #000000; stroke-width: 0.8"/>
      </g>
     </g>
     <g id="text_10">
      <!-- 69 -->
      <g transform="translate(147.55 776.558437) scale(0.2 -0.2)">
       <defs>
        <path id="DejaVuSans-36" d="M 2113 2584 
Q 1688 2584 1439 2293 
Q 1191 2003 1191 1497 
Q 1191 994 1439 701 
Q 1688 409 2113 409 
Q 2538 409 2786 701 
Q 3034 994 3034 1497 
Q 3034 2003 2786 2293 
Q 2538 2584 2113 2584 
z
M 3366 4563 
L 3366 3988 
Q 3128 4100 2886 4159 
Q 2644 4219 2406 4219 
Q 1781 4219 1451 3797 
Q 1122 3375 1075 2522 
Q 1259 2794 1537 2939 
Q 1816 3084 2150 3084 
Q 2853 3084 3261 2657 
Q 3669 2231 3669 1497 
Q 3669 778 3244 343 
Q 2819 -91 2113 -91 
Q 1303 -91 875 529 
Q 447 1150 447 2328 
Q 447 3434 972 4092 
Q 1497 4750 2381 4750 
Q 2619 4750 2861 4703 
Q 3103 4656 3366 4563 
z
" transform="scale(0.015625)"/>
        <path id="DejaVuSans-39" d="M 703 97 
L 703 672 
Q 941 559 1184 500 
Q 1428 441 1663 441 
Q 2288 441 2617 861 
Q 2947 1281 2994 2138 
Q 2813 1869 2534 1725 
Q 2256 1581 1919 1581 
Q 1219 1581 811 2004 
Q 403 2428 403 3163 
Q 403 3881 828 4315 
Q 1253 4750 1959 4750 
Q 2769 4750 3195 4129 
Q 3622 3509 3622 2328 
Q 3622 1225 3098 567 
Q 2575 -91 1691 -91 
Q 1453 -91 1209 -44 
Q 966 3 703 97 
z
M 1959 2075 
Q 2384 2075 2632 2365 
Q 2881 2656 2881 3163 
Q 2881 3666 2632 3958 
Q 2384 4250 1959 4250 
Q 1534 4250 1286 3958 
Q 1038 3666 1038 3163 
Q 1038 2656 1286 2365 
Q 1534 2075 1959 2075 
z
" transform="scale(0.015625)"/>
       </defs>
       <use xlink:href="#DejaVuSans-36"/>
       <use xlink:href="#DejaVuSans-39" x="63.623047"/>
      </g>
     </g>
    </g>
    <g id="ytick_2">
     <g id="line2d_19">
      <path d="M 180 680.256 
L 1296 680.256 
" clip-path="url(#p708f369895)" style="fill: none; stroke: #b0b0b0; stroke-width: 0.8; stroke-linecap: square"/>
     </g>
     <g id="line2d_20">
      <g>
       <use xlink:href="#m972d58885b" x="180" y="680.256" style="stroke: #000000; stroke-width: 0.8"/>
      </g>
     </g>
     <g id="text_11">
      <!-- 70 -->
      <g transform="translate(147.55 687.854437) scale(0.2 -0.2)">
       <use xlink:href="#DejaVuSans-37"/>
       <use xlink:href="#DejaVuSans-30" x="63.623047"/>
      </g>
     </g>
    </g>
    <g id="ytick_3">
     <g id="line2d_21">
      <path d="M 180 591.552 
L 1296 591.552 
" clip-path="url(#p708f369895)" style="fill: none; stroke: #b0b0b0; stroke-width: 0.8; stroke-linecap: square"/>
     </g>
     <g id="line2d_22">
      <g>
       <use xlink:href="#m972d58885b" x="180" y="591.552" style="stroke: #000000; stroke-width: 0.8"/>
      </g>
     </g>
     <g id="text_12">
      <!-- 71 -->
      <g transform="translate(147.55 599.150437) scale(0.2 -0.2)">
       <defs>
        <path id="DejaVuSans-31" d="M 794 531 
L 1825 531 
L 1825 4091 
L 703 3866 
L 703 4441 
L 1819 4666 
L 2450 4666 
L 2450 531 
L 3481 531 
L 3481 0 
L 794 0 
L 794 531 
z
" transform="scale(0.015625)"/>
       </defs>
       <use xlink:href="#DejaVuSans-37"/>
       <use xlink:href="#DejaVuSans-31" x="63.623047"/>
      </g>
     </g>
    </g>
    <g id="ytick_4">
     <g id="line2d_23">
      <path d="M 180 502.848 
L 1296 502.848 
" clip-path="url(#p708f369895)" style="fill: none; stroke: #b0b0b0; stroke-width: 0.8; stroke-linecap: square"/>
     </g>
     <g id="line2d_24">
      <g>
       <use xlink:href="#m972d58885b" x="180" y="502.848" style="stroke: #000000; stroke-width: 0.8"/>
      </g>
     </g>
     <g id="text_13">
      <!-- 72 -->
      <g transform="translate(147.55 510.446437) scale(0.2 -0.2)">
       <use xlink:href="#DejaVuSans-37"/>
       <use xlink:href="#DejaVuSans-32" x="63.623047"/>
      </g>
     </g>
    </g>
    <g id="ytick_5">
     <g id="line2d_25">
      <path d="M 180 414.144 
L 1296 414.144 
" clip-path="url(#p708f369895)" style="fill: none; stroke: #b0b0b0; stroke-width: 0.8; stroke-linecap: square"/>
     </g>
     <g id="line2d_26">
      <g>
       <use xlink:href="#m972d58885b" x="180" y="414.144" style="stroke: #000000; stroke-width: 0.8"/>
      </g>
     </g>
     <g id="text_14">
      <!-- 73 -->
      <g transform="translate(147.55 421.742437) scale(0.2 -0.2)">
       <use xlink:href="#DejaVuSans-37"/>
       <use xlink:href="#DejaVuSans-33" x="63.623047"/>
      </g>
     </g>
    </g>
    <g id="ytick_6">
     <g id="line2d_27">
      <path d="M 180 325.44 
L 1296 325.44 
" clip-path="url(#p708f369895)" style="fill: none; stroke: #b0b0b0; stroke-width: 0.8; stroke-linecap: square"/>
     </g>
     <g id="line2d_28">
      <g>
       <use xlink:href="#m972d58885b" x="180" y="325.44" style="stroke: #000000; stroke-width: 0.8"/>
      </g>
     </g>
     <g id="text_15">
      <!-- 74 -->
      <g transform="translate(147.55 333.038437) scale(0.2 -0.2)">
       <use xlink:href="#DejaVuSans-37"/>
       <use xlink:href="#DejaVuSans-34" x="63.623047"/>
      </g>
     </g>
    </g>
    <g id="ytick_7">
     <g id="line2d_29">
      <path d="M 180 236.736 
L 1296 236.736 
" clip-path="url(#p708f369895)" style="fill: none; stroke: #b0b0b0; stroke-width: 0.8; stroke-linecap: square"/>
     </g>
     <g id="line2d_30">
      <g>
       <use xlink:href="#m972d58885b" x="180" y="236.736" style="stroke: #000000; stroke-width: 0.8"/>
      </g>
     </g>
     <g id="text_16">
      <!-- 75 -->
      <g transform="translate(147.55 244.334437) scale(0.2 -0.2)">
       <use xlink:href="#DejaVuSans-37"/>
       <use xlink:href="#DejaVuSans-35" x="63.623047"/>
      </g>
     </g>
    </g>
    <g id="ytick_8">
     <g id="line2d_31">
      <path d="M 180 148.032 
L 1296 148.032 
" clip-path="url(#p708f369895)" style="fill: none; stroke: #b0b0b0; stroke-width: 0.8; stroke-linecap: square"/>
     </g>
     <g id="line2d_32">
      <g>
       <use xlink:href="#m972d58885b" x="180" y="148.032" style="stroke: #000000; stroke-width: 0.8"/>
      </g>
     </g>
     <g id="text_17">
      <!-- 76 -->
      <g transform="translate(147.55 155.630437) scale(0.2 -0.2)">
       <use xlink:href="#DejaVuSans-37"/>
       <use xlink:href="#DejaVuSans-36" x="63.623047"/>
      </g>
     </g>
    </g>
    <g id="text_18">
     <!-- exergetischer Wirkungsgrad [%] -->
     <g transform="translate(139.390625 597.362187) rotate(-90) scale(0.2 -0.2)">
      <defs>
       <path id="DejaVuSans-78" d="M 3513 3500 
L 2247 1797 
L 3578 0 
L 2900 0 
L 1881 1375 
L 863 0 
L 184 0 
L 1544 1831 
L 300 3500 
L 978 3500 
L 1906 2253 
L 2834 3500 
L 3513 3500 
z
" transform="scale(0.015625)"/>
       <path id="DejaVuSans-67" d="M 2906 1791 
Q 2906 2416 2648 2759 
Q 2391 3103 1925 3103 
Q 1463 3103 1205 2759 
Q 947 2416 947 1791 
Q 947 1169 1205 825 
Q 1463 481 1925 481 
Q 2391 481 2648 825 
Q 2906 1169 2906 1791 
z
M 3481 434 
Q 3481 -459 3084 -895 
Q 2688 -1331 1869 -1331 
Q 1566 -1331 1297 -1286 
Q 1028 -1241 775 -1147 
L 775 -588 
Q 1028 -725 1275 -790 
Q 1522 -856 1778 -856 
Q 2344 -856 2625 -561 
Q 2906 -266 2906 331 
L 2906 616 
Q 2728 306 2450 153 
Q 2172 0 1784 0 
Q 1141 0 747 490 
Q 353 981 353 1791 
Q 353 2603 747 3093 
Q 1141 3584 1784 3584 
Q 2172 3584 2450 3431 
Q 2728 3278 2906 2969 
L 2906 3500 
L 3481 3500 
L 3481 434 
z
" transform="scale(0.015625)"/>
       <path id="DejaVuSans-74" d="M 1172 4494 
L 1172 3500 
L 2356 3500 
L 2356 3053 
L 1172 3053 
L 1172 1153 
Q 1172 725 1289 603 
Q 1406 481 1766 481 
L 2356 481 
L 2356 0 
L 1766 0 
Q 1100 0 847 248 
Q 594 497 594 1153 
L 594 3053 
L 172 3053 
L 172 3500 
L 594 3500 
L 594 4494 
L 1172 4494 
z
" transform="scale(0.015625)"/>
       <path id="DejaVuSans-69" d="M 603 3500 
L 1178 3500 
L 1178 0 
L 603 0 
L 603 3500 
z
M 603 4863 
L 1178 4863 
L 1178 4134 
L 603 4134 
L 603 4863 
z
" transform="scale(0.015625)"/>
       <path id="DejaVuSans-57" d="M 213 4666 
L 850 4666 
L 1831 722 
L 2809 4666 
L 3519 4666 
L 4500 722 
L 5478 4666 
L 6119 4666 
L 4947 0 
L 4153 0 
L 3169 4050 
L 2175 0 
L 1381 0 
L 213 4666 
z
" transform="scale(0.015625)"/>
       <path id="DejaVuSans-6e" d="M 3513 2113 
L 3513 0 
L 2938 0 
L 2938 2094 
Q 2938 2591 2744 2837 
Q 2550 3084 2163 3084 
Q 1697 3084 1428 2787 
Q 1159 2491 1159 1978 
L 1159 0 
L 581 0 
L 581 3500 
L 1159 3500 
L 1159 2956 
Q 1366 3272 1645 3428 
Q 1925 3584 2291 3584 
Q 2894 3584 3203 3211 
Q 3513 2838 3513 2113 
z
" transform="scale(0.015625)"/>
       <path id="DejaVuSans-25" d="M 4653 2053 
Q 4381 2053 4226 1822 
Q 4072 1591 4072 1178 
Q 4072 772 4226 539 
Q 4381 306 4653 306 
Q 4919 306 5073 539 
Q 5228 772 5228 1178 
Q 5228 1588 5073 1820 
Q 4919 2053 4653 2053 
z
M 4653 2450 
Q 5147 2450 5437 2106 
Q 5728 1763 5728 1178 
Q 5728 594 5436 251 
Q 5144 -91 4653 -91 
Q 4153 -91 3862 251 
Q 3572 594 3572 1178 
Q 3572 1766 3864 2108 
Q 4156 2450 4653 2450 
z
M 1428 4353 
Q 1159 4353 1004 4120 
Q 850 3888 850 3481 
Q 850 3069 1003 2837 
Q 1156 2606 1428 2606 
Q 1700 2606 1854 2837 
Q 2009 3069 2009 3481 
Q 2009 3884 1853 4118 
Q 1697 4353 1428 4353 
z
M 4250 4750 
L 4750 4750 
L 1831 -91 
L 1331 -91 
L 4250 4750 
z
M 1428 4750 
Q 1922 4750 2215 4408 
Q 2509 4066 2509 3481 
Q 2509 2891 2217 2550 
Q 1925 2209 1428 2209 
Q 931 2209 642 2551 
Q 353 2894 353 3481 
Q 353 4063 643 4406 
Q 934 4750 1428 4750 
z
" transform="scale(0.015625)"/>
      </defs>
      <use xlink:href="#DejaVuSans-65"/>
      <use xlink:href="#DejaVuSans-78" x="59.773438"/>
      <use xlink:href="#DejaVuSans-65" x="115.828125"/>
      <use xlink:href="#DejaVuSans-72" x="177.351562"/>
      <use xlink:href="#DejaVuSans-67" x="216.714844"/>
      <use xlink:href="#DejaVuSans-65" x="280.191406"/>
      <use xlink:href="#DejaVuSans-74" x="341.714844"/>
      <use xlink:href="#DejaVuSans-69" x="380.923828"/>
      <use xlink:href="#DejaVuSans-73" x="408.707031"/>
      <use xlink:href="#DejaVuSans-63" x="460.806641"/>
      <use xlink:href="#DejaVuSans-68" x="515.787109"/>
      <use xlink:href="#DejaVuSans-65" x="579.166016"/>
      <use xlink:href="#DejaVuSans-72" x="640.689453"/>
      <use xlink:href="#DejaVuSans-20" x="681.802734"/>
      <use xlink:href="#DejaVuSans-57" x="713.589844"/>
      <use xlink:href="#DejaVuSans-69" x="810.216797"/>
      <use xlink:href="#DejaVuSans-72" x="838"/>
      <use xlink:href="#DejaVuSans-6b" x="879.113281"/>
      <use xlink:href="#DejaVuSans-75" x="933.898438"/>
      <use xlink:href="#DejaVuSans-6e" x="997.277344"/>
      <use xlink:href="#DejaVuSans-67" x="1060.65625"/>
      <use xlink:href="#DejaVuSans-73" x="1124.132812"/>
      <use xlink:href="#DejaVuSans-67" x="1176.232422"/>
      <use xlink:href="#DejaVuSans-72" x="1239.708984"/>
      <use xlink:href="#DejaVuSans-61" x="1280.822266"/>
      <use xlink:href="#DejaVuSans-64" x="1342.101562"/>
      <use xlink:href="#DejaVuSans-20" x="1405.578125"/>
      <use xlink:href="#DejaVuSans-5b" x="1437.365234"/>
      <use xlink:href="#DejaVuSans-25" x="1476.378906"/>
      <use xlink:href="#DejaVuSans-5d" x="1571.398438"/>
     </g>
    </g>
   </g>
   <g id="line2d_33">
    <path d="M 474.172971 167.592409 
L 491.755428 177.749419 
L 509.462327 187.817105 
L 527.295636 197.797501 
L 545.257372 207.692612 
L 563.349606 217.504412 
L 581.574465 227.234845 
L 599.934131 236.885828 
L 618.430846 246.459252 
L 637.066913 255.956981 
L 655.844696 265.380854 
L 674.766624 274.732688 
L 693.835195 284.014277 
L 713.052974 293.227392 
L 732.4226 302.373787 
L 751.946785 311.455194 
L 771.62832 320.473328 
L 791.470076 329.429889 
L 811.475007 338.326558 
L 831.646157 347.165004 
L 851.986657 355.946882 
L 872.499734 364.673833 
L 893.188712 373.347489 
L 914.05702 381.969471 
L 935.108189 390.541391 
L 956.345863 399.064852 
L 977.773801 407.541452 
L 999.39588 415.972782 
L 1021.216104 424.360428 
L 1043.238605 432.705974 
L 1065.46765 441.011 
L 1087.907645 449.277083 
L 1110.563146 457.505803 
L 1133.438854 465.698737 
L 1156.539634 473.857463 
L 1179.870508 481.983564 
L 1203.436672 490.078622 
L 1227.243494 498.144227 
L 1251.296528 506.181969 
L 1275.601511 514.193446 
" clip-path="url(#p708f369895)" style="fill: none; stroke: #000000; stroke-width: 1.5; stroke-linecap: square"/>
   </g>
   <g id="line2d_34">
    <path d="M 274.802235 120.670292 
L 291.17404 132.563373 
L 307.655272 144.331502 
L 324.246978 155.977095 
L 340.950232 167.502525 
L 357.766145 178.910129 
L 374.695857 190.2022 
L 391.740543 201.380994 
L 408.901411 212.448729 
L 426.179705 223.407587 
L 443.5767 234.259711 
L 461.09371 245.007209 
L 478.732083 255.652156 
L 496.493202 266.196592 
L 514.37849 276.642521 
L 532.389405 286.991919 
L 550.527447 297.246728 
L 568.794151 307.408859 
L 587.191095 317.480193 
L 605.719899 327.462582 
L 624.382222 337.35785 
L 643.179768 347.167793 
L 662.114286 356.89418 
L 681.187569 366.538754 
L 700.401457 376.103234 
L 719.757838 385.589311 
L 739.25865 394.998657 
L 758.90588 404.332918 
L 778.70157 413.593721 
L 798.647814 422.782668 
L 818.746762 431.901344 
L 839.000623 440.951314 
L 859.411664 449.934122 
L 879.982215 458.851297 
L 900.714668 467.704349 
L 921.611483 476.494774 
L 942.675188 485.22405 
L 963.908379 493.893642 
L 985.313731 502.505 
L 1006.89399 511.059564 
L 1028.651985 519.558757 
L 1050.590623 528.003994 
L 1072.7129 536.39668 
L 1095.021899 544.738208 
L 1117.520794 553.029962 
L 1140.212854 561.273318 
L 1163.101449 569.469647 
L 1186.190049 577.62031 
L 1209.482232 585.726662 
L 1232.981685 593.790055 
L 1256.692211 601.811833 
L 1275.815234 608.200197 
" clip-path="url(#p708f369895)" style="fill: none; stroke: #000000; stroke-width: 1.5; stroke-linecap: square"/>
   </g>
   <g id="line2d_35">
    <path d="M 199.358863 155.274876 
L 212.886169 166.368022 
L 226.524378 177.423271 
L 240.499719 188.435529 
L 254.359099 199.400188 
L 268.563116 210.313352 
L 282.88189 221.171722 
L 297.564406 231.972446 
L 312.11441 242.712995 
L 326.775801 253.391433 
L 341.814216 264.005884 
L 356.973251 274.554964 
L 372.153697 285.037467 
L 387.787518 295.452323 
L 403.215743 305.798825 
L 419.099441 316.07627 
L 435.110836 326.284269 
L 451.249874 336.422472 
L 467.516594 346.490671 
L 483.91112 356.488788 
L 500.433657 366.416855 
L 517.460382 376.274919 
L 534.2459 386.063211 
L 551.548305 395.781948 
L 568.992208 405.431496 
L 586.578195 415.012206 
L 604.306919 424.524497 
L 622.179104 433.968847 
L 640.195562 443.345795 
L 658.357106 452.6559 
L 676.664675 461.899793 
L 695.553954 471.078026 
L 714.162541 480.191365 
L 733.36667 489.240397 
L 752.732861 498.225922 
L 772.262412 507.148668 
L 791.956687 516.00939 
L 811.347809 524.808871 
L 831.845238 533.547921 
L 852.0426 542.227368 
L 872.342133 550.848058 
L 892.841845 559.410879 
L 913.515004 567.916714 
L 934.82652 576.366411 
L 955.857781 584.76093 
L 977.542213 593.101193 
L 998.939813 601.388106 
L 1020.521029 609.622677 
L 1042.778743 617.805815 
L 1064.739855 625.93854 
L 1087.393626 634.021837 
L 1109.74459 642.056667 
L 1132.505468 650.044083 
L 1155.244778 657.98507 
L 1178.185268 665.880658 
L 1201.329872 673.731886 
L 1224.681556 681.539774 
L 1248.243412 689.305357 
L 1272.01864 697.029675 
L 1274.353717 697.799876 
" clip-path="url(#p708f369895)" style="fill: none; stroke: #000000; stroke-width: 1.5; stroke-linecap: square"/>
   </g>
   <g id="line2d_36">
    <path d="M 367.776843 595.41649 
L 368.698156 586.829986 
L 369.860738 578.004007 
L 371.598946 568.977137 
L 373.942238 559.806738 
L 376.736228 550.580637 
L 380.301575 541.42041 
L 384.565018 532.489855 
L 389.841948 524.00856 
L 396.362072 516.229499 
L 404.148115 509.414605 
L 413.18491 503.783706 
L 423.440457 499.470734 
L 434.723592 496.509137 
L 446.869808 494.846585 
L 459.778616 494.378041 
L 473.20497 494.972128 
L 487.178167 496.498936 
L 501.501318 498.832625 
L 516.240716 501.862792 
L 531.368341 505.492593 
L 546.619451 509.63622 
L 562.161652 514.224221 
L 577.979037 519.194677 
L 594.058023 524.495009 
L 610.386987 530.080349 
L 626.955977 535.91225 
L 643.756457 541.957618 
L 660.781109 548.187859 
L 678.023676 554.578176 
L 695.478745 561.106969 
L 713.141743 567.755385 
L 731.008764 574.506919 
L 749.076497 581.347071 
L 766.803227 588.262463 
L 785.244146 595.242489 
L 803.879008 602.27721 
L 822.706266 609.357816 
L 841.724709 616.476494 
L 860.93343 623.626303 
L 880.231894 630.800984 
L 899.726952 637.995163 
L 919.498246 645.203953 
L 939.364 652.422999 
L 959.511475 659.648446 
L 979.848904 666.876869 
L 1000.376915 674.105211 
L 1021.096303 681.330762 
L 1041.900579 688.551117 
L 1063.003202 695.764154 
L 1084.413014 702.968002 
L 1105.908926 710.161016 
L 1127.602433 717.341751 
L 1149.495194 724.508961 
L 1171.588992 731.661564 
L 1193.885742 738.798636 
L 1216.38746 745.919387 
L 1239.096351 753.023179 
L 1262.01468 760.109471 
L 1266.623689 761.52459 
L 1271.375435 762.938988 
L 1273.687645 763.645916 
" clip-path="url(#p708f369895)" style="fill: none; stroke: #000000; stroke-width: 1.5; stroke-linecap: square"/>
   </g>
   <g id="line2d_37">
    <path d="M 396.382462 516.229424 
L 386.460852 484.603975 
L 379.059591 455.132146 
L 373.898277 428.724455 
L 370.285543 405.673021 
L 367.621093 385.752699 
L 365.46766 368.525662 
L 363.570083 353.539258 
L 361.81654 340.399641 
L 360.10978 328.784592 
L 358.343461 318.435674 
L 356.473194 309.146077 
L 354.434913 300.749321 
L 352.240995 293.110083 
L 349.800452 286.117106 
L 347.060415 279.677749 
L 343.94405 273.713812 
L 340.480837 268.158322 
L 336.513793 262.952998 
L 331.983677 258.046228 
L 326.884525 253.391401 
L 321.011639 248.945589 
L 314.439142 244.668412 
L 306.981302 240.52136 
L 304.434 238.891153 
L 307.005944 236.570449 
L 311.852211 233.130718 
L 317.219939 230.193818 
L 323.081657 227.724152 
L 329.094898 225.646896 
L 335.535491 223.957964 
L 342.714545 222.68443 
L 349.614936 221.635778 
L 357.214714 220.952071 
L 365.163526 220.555575 
L 373.086792 220.349094 
L 381.315552 220.379874 
L 389.835691 220.630088 
L 398.633733 221.082975 
L 407.696792 221.722768 
L 417.012523 222.534637 
L 426.18609 223.409177 
L 435.583049 224.424131 
L 445.193445 225.567826 
L 455.007668 226.829253 
L 465.016429 228.198027 
L 475.210735 229.664359 
L 485.581875 231.219021 
L 495.722287 232.746109 
L 506.020281 234.342592 
L 516.870439 236.110257 
L 527.849836 237.930396 
L 537.916701 239.512178 
L 549.095514 241.405436 
L 560.397869 243.336337 
L 570.831919 245.025378 
L 581.375678 246.739242 
L 593.011243 248.749143 
L 603.759786 250.500189 
L 614.602839 252.263368 
L 626.520756 254.313291 
L 637.538256 256.090708 
" clip-path="url(#p708f369895)" style="fill: none; stroke-dasharray: 5.55,2.4; stroke-dashoffset: 0; stroke: #ff0000; stroke-width: 1.5"/>
   </g>
   <g id="line2d_38">
    <path d="M 516.234563 501.862771 
L 515.641498 487.160475 
L 515.244825 473.970432 
L 514.961358 462.09119 
L 514.779575 451.345111 
L 514.486526 441.579272 
L 514.114506 432.663986 
L 513.761739 424.489083 
L 513.22866 416.961387 
L 512.649622 410.001499 
L 511.79947 403.541468 
L 510.620288 397.522837 
L 509.296119 391.894953 
L 507.81606 386.613469 
L 505.898127 381.63924 
L 503.485783 376.937351 
L 500.824935 372.476342 
L 497.585633 368.227297 
L 493.707945 364.163302 
L 489.12966 360.25878 
L 483.785903 356.488815 
L 477.608841 352.828532 
L 470.527582 349.252588 
L 462.906 345.735352 
L 469.044 342.466555 
L 475.371842 339.583802 
L 482.293501 337.074926 
L 489.643248 334.911918 
L 496.915832 333.024506 
L 504.55941 331.424269 
L 512.558167 330.092604 
L 520.896939 329.011847 
L 529.561182 328.165239 
L 538.536938 327.536883 
L 547.277579 327.028137 
L 556.830949 326.78747 
L 566.113018 326.630624 
L 575.646621 326.62943 
L 585.421735 326.772736 
L 595.428681 327.049967 
L 605.658107 327.451096 
L 616.100977 327.966629 
L 626.748556 328.587577 
L 637.131233 329.215606 
L 647.917673 329.972802 
L 658.882783 330.809987 
L 670.019339 331.720209 
L 680.749668 332.581044 
L 692.207091 333.616762 
L 703.242329 334.588819 
L 714.420579 335.607922 
L 725.736536 336.669211 
L 737.762202 337.889282 
L 749.339097 339.022402 
L 760.460435 340.062057 
L 772.278003 341.249426 
L 784.209693 342.459116 
L 796.251434 343.688029 
L 807.820453 344.807464 
L 820.071476 346.065832 
L 831.843328 347.208362 
" clip-path="url(#p708f369895)" style="fill: none; stroke-dasharray: 5.55,2.4; stroke-dashoffset: 0; stroke: #ffa500; stroke-width: 1.5"/>
   </g>
   <g id="line2d_39">
    <path d="M 678.007222 554.578186 
L 679.083618 546.126973 
L 679.974949 538.272106 
L 680.868853 530.950959 
L 681.611975 524.10863 
L 682.316413 517.696801 
L 682.809171 511.67303 
L 683.225509 505.999778 
L 683.371993 500.643763 
L 683.406409 495.575413 
L 683.113998 490.768161 
L 682.455069 486.198228 
L 681.851428 481.843977 
L 680.603596 477.685669 
L 679.143966 473.705194 
L 677.199278 469.885599 
L 674.725744 466.210902 
L 671.677712 462.665753 
L 668.312181 459.235058 
L 663.664399 455.903665 
L 658.262974 452.65591 
L 652.050211 449.474979 
L 644.238635 446.342314 
L 636.942938 443.239594 
L 644.256 440.33522 
L 652.204302 437.730341 
L 660.438 435.394525 
L 668.635565 433.319718 
L 677.178 431.477474 
L 686.106 429.856124 
L 695.592 428.440542 
L 704.52 427.221977 
L 714.564 426.169663 
L 724.70065 425.335388 
L 734.820655 424.612018 
L 744.624994 423.968647 
L 755.258214 423.52991 
L 766.136834 423.221274 
L 776.659336 422.9563 
L 787.40233 422.799312 
L 798.959034 422.82541 
L 810.125171 422.86493 
L 821.490785 422.991425 
L 833.049494 423.198667 
L 844.183313 423.39078 
L 856.107937 423.740603 
L 868.208295 424.154612 
L 879.860859 424.533506 
L 892.295469 425.060147 
L 904.269353 425.540336 
L 916.396759 426.064656 
L 928.674023 426.629557 
L 941.097739 427.231758 
L 953.664779 427.868248 
L 966.372303 428.536287 
L 979.217785 429.233413 
L 991.568634 429.85275 
L 1004.683098 430.600563 
L 1017.297687 431.26472 
L 1030.041905 431.948397 
L 1043.55007 432.75965 
" clip-path="url(#p708f369895)" style="fill: none; stroke-dasharray: 5.55,2.4; stroke-dashoffset: 0; stroke: #008000; stroke-width: 1.5"/>
   </g>
   <g id="line2d_40">
    <path d="M 860.910158 623.626283 
L 862.741947 617.666591 
L 864.309863 612.010402 
L 866.030356 606.633084 
L 867.451453 601.512413 
L 868.786091 596.628324 
L 869.759593 591.962548 
L 870.895921 587.498577 
L 871.636132 583.221235 
L 871.934823 579.116698 
L 872.398388 575.172231 
L 872.38407 571.376047 
L 872.199708 567.717203 
L 871.470488 564.185302 
L 870.531989 560.770697 
L 868.977293 557.463946 
L 866.752419 554.256029 
L 864.235582 551.137813 
L 860.966375 548.100176 
L 856.882593 545.133493 
L 851.917808 542.227352 
L 845.490456 539.369981 
L 837.459729 536.547435 
L 828.396 532.631988 
L 833.976 531.0371 
L 842.904 528.564426 
L 852.620843 526.316542 
L 861.876 524.26074 
L 871.92 522.401737 
L 881.964 520.718254 
L 892.566 519.201288 
L 903.168 517.844374 
L 913.77 516.623955 
L 925.299594 515.574998 
L 936.09 514.58966 
L 947.25 513.747714 
L 958.968 513.020984 
L 971.292697 512.446729 
L 982.404 511.853027 
L 994.68 511.403757 
L 1006.956 511.042869 
L 1019.232 510.750369 
L 1031.684725 510.553526 
L 1044.243105 510.396201 
L 1056.957586 510.301854 
L 1069.866105 510.270917 
L 1082.965308 510.299688 
L 1095.611891 510.310513 
L 1109.081678 510.447272 
L 1122.089332 510.557332 
L 1135.921028 510.79069 
L 1149.283004 510.989699 
L 1162.819399 511.229314 
L 1176.529785 511.507738 
L 1190.414164 511.823441 
L 1204.473008 512.175161 
L 1218.707288 512.561918 
L 1232.454779 512.894526 
L 1247.042633 513.347841 
L 1261.142936 513.743052 
L 1275.422472 514.168556 
" clip-path="url(#p708f369895)" style="fill: none; stroke-dasharray: 5.55,2.4; stroke-dashoffset: 0; stroke: #4682b4; stroke-width: 1.5"/>
   </g>
   <g id="line2d_41">
    <path d="M 637.066913 255.956981 
" clip-path="url(#p708f369895)" style="fill: none; stroke: #000000; stroke-width: 1.5; stroke-linecap: square"/>
    <defs>
     <path id="m0b98bc6d8e" d="M -3 3 
L 3 -3 
M -3 -3 
L 3 3 
" style="stroke: #000000"/>
    </defs>
    <g clip-path="url(#p708f369895)">
     <use xlink:href="#m0b98bc6d8e" x="637.066913" y="255.956981" style="stroke: #000000"/>
    </g>
   </g>
   <g id="line2d_42">
    <path d="M 426.179705 223.407587 
" clip-path="url(#p708f369895)" style="fill: none; stroke: #000000; stroke-width: 1.5; stroke-linecap: square"/>
    <g clip-path="url(#p708f369895)">
     <use xlink:href="#m0b98bc6d8e" x="426.179705" y="223.407587" style="stroke: #000000"/>
    </g>
   </g>
   <g id="line2d_43">
    <path d="M 326.775801 253.391433 
" clip-path="url(#p708f369895)" style="fill: none; stroke: #000000; stroke-width: 1.5; stroke-linecap: square"/>
    <g clip-path="url(#p708f369895)">
     <use xlink:href="#m0b98bc6d8e" x="326.775801" y="253.391433" style="stroke: #000000"/>
    </g>
   </g>
   <g id="line2d_44">
    <path d="M 396.362072 516.229499 
" clip-path="url(#p708f369895)" style="fill: none; stroke: #000000; stroke-width: 1.5; stroke-linecap: square"/>
    <g clip-path="url(#p708f369895)">
     <use xlink:href="#m0b98bc6d8e" x="396.362072" y="516.229499" style="stroke: #000000"/>
    </g>
   </g>
   <g id="line2d_45">
    <path d="M 831.646157 347.165004 
" clip-path="url(#p708f369895)" style="fill: none; stroke: #000000; stroke-width: 1.5; stroke-linecap: square"/>
    <g clip-path="url(#p708f369895)">
     <use xlink:href="#m0b98bc6d8e" x="831.646157" y="347.165004" style="stroke: #000000"/>
    </g>
   </g>
   <g id="line2d_46">
    <path d="M 605.719899 327.462582 
" clip-path="url(#p708f369895)" style="fill: none; stroke: #000000; stroke-width: 1.5; stroke-linecap: square"/>
    <g clip-path="url(#p708f369895)">
     <use xlink:href="#m0b98bc6d8e" x="605.719899" y="327.462582" style="stroke: #000000"/>
    </g>
   </g>
   <g id="line2d_47">
    <path d="M 483.91112 356.488788 
" clip-path="url(#p708f369895)" style="fill: none; stroke: #000000; stroke-width: 1.5; stroke-linecap: square"/>
    <g clip-path="url(#p708f369895)">
     <use xlink:href="#m0b98bc6d8e" x="483.91112" y="356.488788" style="stroke: #000000"/>
    </g>
   </g>
   <g id="line2d_48">
    <path d="M 516.240716 501.862792 
" clip-path="url(#p708f369895)" style="fill: none; stroke: #000000; stroke-width: 1.5; stroke-linecap: square"/>
    <g clip-path="url(#p708f369895)">
     <use xlink:href="#m0b98bc6d8e" x="516.240716" y="501.862792" style="stroke: #000000"/>
    </g>
   </g>
   <g id="line2d_49">
    <path d="M 1043.238605 432.705974 
" clip-path="url(#p708f369895)" style="fill: none; stroke: #000000; stroke-width: 1.5; stroke-linecap: square"/>
    <g clip-path="url(#p708f369895)">
     <use xlink:href="#m0b98bc6d8e" x="1043.238605" y="432.705974" style="stroke: #000000"/>
    </g>
   </g>
   <g id="line2d_50">
    <path d="M 798.647814 422.782668 
" clip-path="url(#p708f369895)" style="fill: none; stroke: #000000; stroke-width: 1.5; stroke-linecap: square"/>
    <g clip-path="url(#p708f369895)">
     <use xlink:href="#m0b98bc6d8e" x="798.647814" y="422.782668" style="stroke: #000000"/>
    </g>
   </g>
   <g id="line2d_51">
    <path d="M 658.357106 452.6559 
" clip-path="url(#p708f369895)" style="fill: none; stroke: #000000; stroke-width: 1.5; stroke-linecap: square"/>
    <g clip-path="url(#p708f369895)">
     <use xlink:href="#m0b98bc6d8e" x="658.357106" y="452.6559" style="stroke: #000000"/>
    </g>
   </g>
   <g id="line2d_52">
    <path d="M 678.023676 554.578176 
" clip-path="url(#p708f369895)" style="fill: none; stroke: #000000; stroke-width: 1.5; stroke-linecap: square"/>
    <g clip-path="url(#p708f369895)">
     <use xlink:href="#m0b98bc6d8e" x="678.023676" y="554.578176" style="stroke: #000000"/>
    </g>
   </g>
   <g id="line2d_53">
    <path d="M 1275.601511 514.193446 
" clip-path="url(#p708f369895)" style="fill: none; stroke: #000000; stroke-width: 1.5; stroke-linecap: square"/>
    <g clip-path="url(#p708f369895)">
     <use xlink:href="#m0b98bc6d8e" x="1275.601511" y="514.193446" style="stroke: #000000"/>
    </g>
   </g>
   <g id="line2d_54">
    <path d="M 1006.89399 511.059564 
" clip-path="url(#p708f369895)" style="fill: none; stroke: #000000; stroke-width: 1.5; stroke-linecap: square"/>
    <g clip-path="url(#p708f369895)">
     <use xlink:href="#m0b98bc6d8e" x="1006.89399" y="511.059564" style="stroke: #000000"/>
    </g>
   </g>
   <g id="line2d_55">
    <path d="M 852.0426 542.227368 
" clip-path="url(#p708f369895)" style="fill: none; stroke: #000000; stroke-width: 1.5; stroke-linecap: square"/>
    <g clip-path="url(#p708f369895)">
     <use xlink:href="#m0b98bc6d8e" x="852.0426" y="542.227368" style="stroke: #000000"/>
    </g>
   </g>
   <g id="line2d_56">
    <path d="M 860.93343 623.626303 
" clip-path="url(#p708f369895)" style="fill: none; stroke: #000000; stroke-width: 1.5; stroke-linecap: square"/>
    <g clip-path="url(#p708f369895)">
     <use xlink:href="#m0b98bc6d8e" x="860.93343" y="623.626303" style="stroke: #000000"/>
    </g>
   </g>
   <g id="patch_3">
    <path d="M 180 768.96 
L 180 103.68 
" style="fill: none; stroke: #000000; stroke-width: 0.8; stroke-linejoin: miter; stroke-linecap: square"/>
   </g>
   <g id="patch_4">
    <path d="M 1296 768.96 
L 1296 103.68 
" style="fill: none; stroke: #000000; stroke-width: 0.8; stroke-linejoin: miter; stroke-linecap: square"/>
   </g>
   <g id="patch_5">
    <path d="M 180 768.96 
L 1296 768.96 
" style="fill: none; stroke: #000000; stroke-width: 0.8; stroke-linejoin: miter; stroke-linecap: square"/>
   </g>
   <g id="patch_6">
    <path d="M 180 103.68 
L 1296 103.68 
" style="fill: none; stroke: #000000; stroke-width: 0.8; stroke-linejoin: miter; stroke-linecap: square"/>
   </g>
   <g id="text_19">
    <!-- 130 -->
    <g transform="translate(1256.94 502.848) scale(0.2 -0.2)">
     <use xlink:href="#DejaVuSans-31"/>
     <use xlink:href="#DejaVuSans-33" x="63.623047"/>
     <use xlink:href="#DejaVuSans-30" x="127.246094"/>
    </g>
   </g>
   <g id="text_20">
    <!-- 140 -->
    <g transform="translate(1256.94 600.4224) scale(0.2 -0.2)">
     <use xlink:href="#DejaVuSans-31"/>
     <use xlink:href="#DejaVuSans-34" x="63.623047"/>
     <use xlink:href="#DejaVuSans-30" x="127.246094"/>
    </g>
   </g>
   <g id="text_21">
    <!-- 150 -->
    <g transform="translate(1256.94 689.1264) scale(0.2 -0.2)">
     <use xlink:href="#DejaVuSans-31"/>
     <use xlink:href="#DejaVuSans-35" x="63.623047"/>
     <use xlink:href="#DejaVuSans-30" x="127.246094"/>
    </g>
   </g>
   <g id="text_22">
    <!-- 160 -->
    <g transform="translate(1256.94 755.6544) scale(0.2 -0.2)">
     <use xlink:href="#DejaVuSans-31"/>
     <use xlink:href="#DejaVuSans-36" x="63.623047"/>
     <use xlink:href="#DejaVuSans-30" x="127.246094"/>
    </g>
   </g>
   <g id="text_23">
    <!-- 130 -->
    <g transform="translate(618.094913 277.245941) scale(0.17 -0.17)">
     <use xlink:href="#DejaVuSans-31"/>
     <use xlink:href="#DejaVuSans-33" x="63.623047"/>
     <use xlink:href="#DejaVuSans-30" x="127.246094"/>
    </g>
   </g>
   <g id="text_24">
    <!-- 140 -->
    <g transform="translate(407.207705 244.696547) scale(0.17 -0.17)">
     <use xlink:href="#DejaVuSans-31"/>
     <use xlink:href="#DejaVuSans-34" x="63.623047"/>
     <use xlink:href="#DejaVuSans-30" x="127.246094"/>
    </g>
   </g>
   <g id="text_25">
    <!-- 150 -->
    <g transform="translate(302.781801 276.454473) scale(0.17 -0.17)">
     <use xlink:href="#DejaVuSans-31"/>
     <use xlink:href="#DejaVuSans-35" x="63.623047"/>
     <use xlink:href="#DejaVuSans-30" x="127.246094"/>
    </g>
   </g>
   <g id="text_26">
    <!-- 160 -->
    <g transform="translate(396.362072 534.857339) scale(0.17 -0.17)">
     <use xlink:href="#DejaVuSans-31"/>
     <use xlink:href="#DejaVuSans-36" x="63.623047"/>
     <use xlink:href="#DejaVuSans-30" x="127.246094"/>
    </g>
   </g>
   <g id="text_27">
    <!-- 130 -->
    <g transform="translate(812.674157 368.453964) scale(0.17 -0.17)">
     <use xlink:href="#DejaVuSans-31"/>
     <use xlink:href="#DejaVuSans-33" x="63.623047"/>
     <use xlink:href="#DejaVuSans-30" x="127.246094"/>
    </g>
   </g>
   <g id="text_28">
    <!-- 140 -->
    <g transform="translate(586.747899 348.751542) scale(0.17 -0.17)">
     <use xlink:href="#DejaVuSans-31"/>
     <use xlink:href="#DejaVuSans-34" x="63.623047"/>
     <use xlink:href="#DejaVuSans-30" x="127.246094"/>
    </g>
   </g>
   <g id="text_29">
    <!-- 150 -->
    <g transform="translate(462.70712 377.777748) scale(0.17 -0.17)">
     <use xlink:href="#DejaVuSans-31"/>
     <use xlink:href="#DejaVuSans-35" x="63.623047"/>
     <use xlink:href="#DejaVuSans-30" x="127.246094"/>
    </g>
   </g>
   <g id="text_30">
    <!-- 160 -->
    <g transform="translate(497.268716 519.603592) scale(0.17 -0.17)">
     <use xlink:href="#DejaVuSans-31"/>
     <use xlink:href="#DejaVuSans-36" x="63.623047"/>
     <use xlink:href="#DejaVuSans-30" x="127.246094"/>
    </g>
   </g>
   <g id="text_31">
    <!-- 130 -->
    <g transform="translate(1024.266605 453.994934) scale(0.17 -0.17)">
     <use xlink:href="#DejaVuSans-31"/>
     <use xlink:href="#DejaVuSans-33" x="63.623047"/>
     <use xlink:href="#DejaVuSans-30" x="127.246094"/>
    </g>
   </g>
   <g id="text_32">
    <!-- 140 -->
    <g transform="translate(779.675814 444.071628) scale(0.17 -0.17)">
     <use xlink:href="#DejaVuSans-31"/>
     <use xlink:href="#DejaVuSans-34" x="63.623047"/>
     <use xlink:href="#DejaVuSans-30" x="127.246094"/>
    </g>
   </g>
   <g id="text_33">
    <!-- 150 -->
    <g transform="translate(639.385106 478.38006) scale(0.17 -0.17)">
     <use xlink:href="#DejaVuSans-31"/>
     <use xlink:href="#DejaVuSans-35" x="63.623047"/>
     <use xlink:href="#DejaVuSans-30" x="127.246094"/>
    </g>
   </g>
   <g id="text_34">
    <!-- 160 -->
    <g transform="translate(659.051676 573.206016) scale(0.17 -0.17)">
     <use xlink:href="#DejaVuSans-31"/>
     <use xlink:href="#DejaVuSans-36" x="63.623047"/>
     <use xlink:href="#DejaVuSans-30" x="127.246094"/>
    </g>
   </g>
   <g id="text_35">
    <!-- 130 -->
    <g transform="translate(1256.629511 535.482406) scale(0.17 -0.17)">
     <use xlink:href="#DejaVuSans-31"/>
     <use xlink:href="#DejaVuSans-33" x="63.623047"/>
     <use xlink:href="#DejaVuSans-30" x="127.246094"/>
    </g>
   </g>
   <g id="text_36">
    <!-- 140 -->
    <g transform="translate(987.92199 532.348524) scale(0.17 -0.17)">
     <use xlink:href="#DejaVuSans-31"/>
     <use xlink:href="#DejaVuSans-34" x="63.623047"/>
     <use xlink:href="#DejaVuSans-30" x="127.246094"/>
    </g>
   </g>
   <g id="text_37">
    <!-- 150 -->
    <g transform="translate(830.8386 563.516328) scale(0.17 -0.17)">
     <use xlink:href="#DejaVuSans-31"/>
     <use xlink:href="#DejaVuSans-35" x="63.623047"/>
     <use xlink:href="#DejaVuSans-30" x="127.246094"/>
    </g>
   </g>
   <g id="text_38">
    <!-- 160 -->
    <g transform="translate(841.96143 642.254143) scale(0.17 -0.17)">
     <use xlink:href="#DejaVuSans-31"/>
     <use xlink:href="#DejaVuSans-36" x="63.623047"/>
     <use xlink:href="#DejaVuSans-30" x="127.246094"/>
    </g>
   </g>
   <g id="legend_1">
    <g id="patch_7">
     <path d="M 314.71875 758.96 
L 1161.28125 758.96 
Q 1165.28125 758.96 1165.28125 754.96 
L 1165.28125 725.56 
Q 1165.28125 721.56 1161.28125 721.56 
L 314.71875 721.56 
Q 310.71875 721.56 310.71875 725.56 
L 310.71875 754.96 
Q 310.71875 758.96 314.71875 758.96 
z
" style="fill: #ffffff; opacity: 0.8; stroke: #cccccc; stroke-linejoin: miter"/>
    </g>
    <g id="line2d_57">
     <path d="M 318.71875 737.76 
L 338.71875 737.76 
L 358.71875 737.76 
" style="fill: none; stroke: #000000; stroke-width: 1.5; stroke-linecap: square"/>
    </g>
    <g id="text_39">
     <!-- $T_{se,ein}$ [C]          $ΔT_{gk,ob}$: -->
     <g transform="translate(374.71875 744.76) scale(0.2 -0.2)">
      <defs>
       <path id="DejaVuSans-Oblique-54" d="M 378 4666 
L 4325 4666 
L 4225 4134 
L 2559 4134 
L 1759 0 
L 1125 0 
L 1925 4134 
L 275 4134 
L 378 4666 
z
" transform="scale(0.015625)"/>
       <path id="DejaVuSans-Oblique-73" d="M 3200 3397 
L 3091 2853 
Q 2863 2978 2609 3040 
Q 2356 3103 2088 3103 
Q 1634 3103 1373 2948 
Q 1113 2794 1113 2528 
Q 1113 2219 1719 2053 
Q 1766 2041 1788 2034 
L 1972 1978 
Q 2547 1819 2739 1644 
Q 2931 1469 2931 1166 
Q 2931 609 2489 259 
Q 2047 -91 1331 -91 
Q 1053 -91 747 -37 
Q 441 16 72 128 
L 184 722 
Q 500 559 806 475 
Q 1113 391 1394 391 
Q 1816 391 2080 572 
Q 2344 753 2344 1031 
Q 2344 1331 1650 1516 
L 1591 1531 
L 1394 1581 
Q 956 1697 753 1886 
Q 550 2075 550 2369 
Q 550 2928 970 3256 
Q 1391 3584 2113 3584 
Q 2397 3584 2667 3537 
Q 2938 3491 3200 3397 
z
" transform="scale(0.015625)"/>
       <path id="DejaVuSans-Oblique-65" d="M 3078 2063 
Q 3088 2113 3092 2166 
Q 3097 2219 3097 2272 
Q 3097 2653 2873 2875 
Q 2650 3097 2266 3097 
Q 1838 3097 1509 2826 
Q 1181 2556 1013 2059 
L 3078 2063 
z
M 3578 1613 
L 903 1613 
Q 884 1494 878 1425 
Q 872 1356 872 1306 
Q 872 872 1139 634 
Q 1406 397 1894 397 
Q 2269 397 2603 481 
Q 2938 566 3225 728 
L 3116 159 
Q 2806 34 2476 -28 
Q 2147 -91 1806 -91 
Q 1078 -91 686 257 
Q 294 606 294 1247 
Q 294 1794 489 2264 
Q 684 2734 1063 3103 
Q 1306 3334 1642 3459 
Q 1978 3584 2356 3584 
Q 2950 3584 3301 3228 
Q 3653 2872 3653 2272 
Q 3653 2128 3634 1964 
Q 3616 1800 3578 1613 
z
" transform="scale(0.015625)"/>
       <path id="DejaVuSans-2c" d="M 750 794 
L 1409 794 
L 1409 256 
L 897 -744 
L 494 -744 
L 750 256 
L 750 794 
z
" transform="scale(0.015625)"/>
       <path id="DejaVuSans-Oblique-69" d="M 1172 4863 
L 1747 4863 
L 1606 4134 
L 1031 4134 
L 1172 4863 
z
M 909 3500 
L 1484 3500 
L 800 0 
L 225 0 
L 909 3500 
z
" transform="scale(0.015625)"/>
       <path id="DejaVuSans-Oblique-6e" d="M 3566 2113 
L 3156 0 
L 2578 0 
L 2988 2091 
Q 3016 2238 3031 2350 
Q 3047 2463 3047 2528 
Q 3047 2791 2881 2937 
Q 2716 3084 2419 3084 
Q 1956 3084 1622 2776 
Q 1288 2469 1184 1941 
L 800 0 
L 225 0 
L 903 3500 
L 1478 3500 
L 1363 2950 
Q 1603 3253 1940 3418 
Q 2278 3584 2650 3584 
Q 3113 3584 3367 3334 
Q 3622 3084 3622 2631 
Q 3622 2519 3608 2391 
Q 3594 2263 3566 2113 
z
" transform="scale(0.015625)"/>
       <path id="DejaVuSans-43" d="M 4122 4306 
L 4122 3641 
Q 3803 3938 3442 4084 
Q 3081 4231 2675 4231 
Q 1875 4231 1450 3742 
Q 1025 3253 1025 2328 
Q 1025 1406 1450 917 
Q 1875 428 2675 428 
Q 3081 428 3442 575 
Q 3803 722 4122 1019 
L 4122 359 
Q 3791 134 3420 21 
Q 3050 -91 2638 -91 
Q 1578 -91 968 557 
Q 359 1206 359 2328 
Q 359 3453 968 4101 
Q 1578 4750 2638 4750 
Q 3056 4750 3426 4639 
Q 3797 4528 4122 4306 
z
" transform="scale(0.015625)"/>
       <path id="DejaVuSans-394" d="M 2188 4044 
L 906 525 
L 3472 525 
L 2188 4044 
z
M 50 0 
L 1831 4666 
L 2547 4666 
L 4325 0 
L 50 0 
z
" transform="scale(0.015625)"/>
       <path id="DejaVuSans-Oblique-67" d="M 3816 3500 
L 3219 434 
Q 3047 -456 2561 -893 
Q 2075 -1331 1253 -1331 
Q 950 -1331 690 -1286 
Q 431 -1241 206 -1147 
L 313 -588 
Q 525 -725 762 -790 
Q 1000 -856 1269 -856 
Q 1816 -856 2167 -557 
Q 2519 -259 2631 300 
L 2681 563 
Q 2441 288 2122 144 
Q 1803 0 1434 0 
Q 903 0 598 351 
Q 294 703 294 1319 
Q 294 1803 478 2267 
Q 663 2731 997 3091 
Q 1219 3328 1514 3456 
Q 1809 3584 2131 3584 
Q 2484 3584 2746 3420 
Q 3009 3256 3138 2956 
L 3238 3500 
L 3816 3500 
z
M 2950 2216 
Q 2950 2641 2750 2872 
Q 2550 3103 2181 3103 
Q 1953 3103 1747 3012 
Q 1541 2922 1394 2759 
Q 1156 2491 1023 2127 
Q 891 1763 891 1375 
Q 891 944 1092 712 
Q 1294 481 1672 481 
Q 2219 481 2584 976 
Q 2950 1472 2950 2216 
z
" transform="scale(0.015625)"/>
       <path id="DejaVuSans-Oblique-6b" d="M 1172 4863 
L 1747 4863 
L 1197 2028 
L 3169 3500 
L 3916 3500 
L 1716 1825 
L 3322 0 
L 2625 0 
L 1131 1709 
L 800 0 
L 225 0 
L 1172 4863 
z
" transform="scale(0.015625)"/>
       <path id="DejaVuSans-Oblique-6f" d="M 1625 -91 
Q 1009 -91 651 289 
Q 294 669 294 1325 
Q 294 1706 417 2101 
Q 541 2497 738 2766 
Q 1047 3184 1428 3384 
Q 1809 3584 2291 3584 
Q 2888 3584 3255 3212 
Q 3622 2841 3622 2241 
Q 3622 1825 3500 1412 
Q 3378 1000 3181 728 
Q 2875 309 2494 109 
Q 2113 -91 1625 -91 
z
M 891 1344 
Q 891 869 1089 633 
Q 1288 397 1691 397 
Q 2269 397 2648 901 
Q 3028 1406 3028 2181 
Q 3028 2634 2825 2865 
Q 2622 3097 2228 3097 
Q 1903 3097 1650 2945 
Q 1397 2794 1197 2484 
Q 1050 2253 970 1956 
Q 891 1659 891 1344 
z
" transform="scale(0.015625)"/>
       <path id="DejaVuSans-Oblique-62" d="M 3169 2138 
Q 3169 2591 2961 2847 
Q 2753 3103 2388 3103 
Q 2122 3103 1889 2973 
Q 1656 2844 1484 2597 
Q 1303 2338 1198 1995 
Q 1094 1653 1094 1313 
Q 1094 881 1298 636 
Q 1503 391 1863 391 
Q 2134 391 2365 517 
Q 2597 644 2772 891 
Q 2950 1147 3059 1487 
Q 3169 1828 3169 2138 
z
M 1381 2969 
Q 1594 3256 1914 3420 
Q 2234 3584 2584 3584 
Q 3122 3584 3439 3221 
Q 3756 2859 3756 2241 
Q 3756 1734 3570 1259 
Q 3384 784 3041 416 
Q 2816 172 2522 40 
Q 2228 -91 1906 -91 
Q 1566 -91 1316 65 
Q 1066 222 909 531 
L 806 0 
L 231 0 
L 1178 4863 
L 1753 4863 
L 1381 2969 
z
" transform="scale(0.015625)"/>
       <path id="DejaVuSans-3a" d="M 750 794 
L 1409 794 
L 1409 0 
L 750 0 
L 750 794 
z
M 750 3309 
L 1409 3309 
L 1409 2516 
L 750 2516 
L 750 3309 
z
" transform="scale(0.015625)"/>
      </defs>
      <use xlink:href="#DejaVuSans-Oblique-54" transform="translate(0 0.015625)"/>
      <use xlink:href="#DejaVuSans-Oblique-73" transform="translate(61.083984 -16.390625) scale(0.7)"/>
      <use xlink:href="#DejaVuSans-Oblique-65" transform="translate(97.553711 -16.390625) scale(0.7)"/>
      <use xlink:href="#DejaVuSans-2c" transform="translate(140.620117 -16.390625) scale(0.7)"/>
      <use xlink:href="#DejaVuSans-Oblique-65" transform="translate(176.508789 -16.390625) scale(0.7)"/>
      <use xlink:href="#DejaVuSans-Oblique-69" transform="translate(219.575195 -16.390625) scale(0.7)"/>
      <use xlink:href="#DejaVuSans-Oblique-6e" transform="translate(239.023438 -16.390625) scale(0.7)"/>
      <use xlink:href="#DejaVuSans-20" transform="translate(286.123047 0.015625)"/>
      <use xlink:href="#DejaVuSans-5b" transform="translate(317.910156 0.015625)"/>
      <use xlink:href="#DejaVuSans-43" transform="translate(356.923828 0.015625)"/>
      <use xlink:href="#DejaVuSans-5d" transform="translate(426.748047 0.015625)"/>
      <use xlink:href="#DejaVuSans-20" transform="translate(465.761719 0.015625)"/>
      <use xlink:href="#DejaVuSans-20" transform="translate(497.548828 0.015625)"/>
      <use xlink:href="#DejaVuSans-20" transform="translate(529.335938 0.015625)"/>
      <use xlink:href="#DejaVuSans-20" transform="translate(561.123047 0.015625)"/>
      <use xlink:href="#DejaVuSans-20" transform="translate(592.910156 0.015625)"/>
      <use xlink:href="#DejaVuSans-20" transform="translate(624.697266 0.015625)"/>
      <use xlink:href="#DejaVuSans-20" transform="translate(656.484375 0.015625)"/>
      <use xlink:href="#DejaVuSans-20" transform="translate(688.271484 0.015625)"/>
      <use xlink:href="#DejaVuSans-20" transform="translate(720.058594 0.015625)"/>
      <use xlink:href="#DejaVuSans-20" transform="translate(751.845703 0.015625)"/>
      <use xlink:href="#DejaVuSans-394" transform="translate(783.632812 0.015625)"/>
      <use xlink:href="#DejaVuSans-Oblique-54" transform="translate(852.041016 0.015625)"/>
      <use xlink:href="#DejaVuSans-Oblique-67" transform="translate(913.125 -16.390625) scale(0.7)"/>
      <use xlink:href="#DejaVuSans-Oblique-6b" transform="translate(957.558594 -16.390625) scale(0.7)"/>
      <use xlink:href="#DejaVuSans-2c" transform="translate(998.095703 -16.390625) scale(0.7)"/>
      <use xlink:href="#DejaVuSans-Oblique-6f" transform="translate(1033.984375 -16.390625) scale(0.7)"/>
      <use xlink:href="#DejaVuSans-Oblique-62" transform="translate(1076.811523 -16.390625) scale(0.7)"/>
      <use xlink:href="#DejaVuSans-3a" transform="translate(1123.979492 0.015625)"/>
     </g>
    </g>
    <g id="line2d_58">
     <path d="M 646.31875 737.76 
L 666.31875 737.76 
L 686.31875 737.76 
" style="fill: none; stroke-dasharray: 5.55,2.4; stroke-dashoffset: 0; stroke: #ff0000; stroke-width: 1.5"/>
    </g>
    <g id="text_40">
     <!-- 5 K -->
     <g transform="translate(702.31875 744.76) scale(0.2 -0.2)">
      <defs>
       <path id="DejaVuSans-4b" d="M 628 4666 
L 1259 4666 
L 1259 2694 
L 3353 4666 
L 4166 4666 
L 1850 2491 
L 4331 0 
L 3500 0 
L 1259 2247 
L 1259 0 
L 628 0 
L 628 4666 
z
" transform="scale(0.015625)"/>
      </defs>
      <use xlink:href="#DejaVuSans-35"/>
      <use xlink:href="#DejaVuSans-20" x="63.623047"/>
      <use xlink:href="#DejaVuSans-4b" x="95.410156"/>
     </g>
    </g>
    <g id="line2d_59">
     <path d="M 774.515625 737.76 
L 794.515625 737.76 
L 814.515625 737.76 
" style="fill: none; stroke-dasharray: 5.55,2.4; stroke-dashoffset: 0; stroke: #ffa500; stroke-width: 1.5"/>
    </g>
    <g id="text_41">
     <!-- 10 K -->
     <g transform="translate(830.515625 744.76) scale(0.2 -0.2)">
      <use xlink:href="#DejaVuSans-31"/>
      <use xlink:href="#DejaVuSans-30" x="63.623047"/>
      <use xlink:href="#DejaVuSans-20" x="127.246094"/>
      <use xlink:href="#DejaVuSans-4b" x="159.033203"/>
     </g>
    </g>
    <g id="line2d_60">
     <path d="M 915.4375 737.76 
L 935.4375 737.76 
L 955.4375 737.76 
" style="fill: none; stroke-dasharray: 5.55,2.4; stroke-dashoffset: 0; stroke: #008000; stroke-width: 1.5"/>
    </g>
    <g id="text_42">
     <!-- 15 K -->
     <g transform="translate(971.4375 744.76) scale(0.2 -0.2)">
      <use xlink:href="#DejaVuSans-31"/>
      <use xlink:href="#DejaVuSans-35" x="63.623047"/>
      <use xlink:href="#DejaVuSans-20" x="127.246094"/>
      <use xlink:href="#DejaVuSans-4b" x="159.033203"/>
     </g>
    </g>
    <g id="line2d_61">
     <path d="M 1056.359375 737.76 
L 1076.359375 737.76 
L 1096.359375 737.76 
" style="fill: none; stroke-dasharray: 5.55,2.4; stroke-dashoffset: 0; stroke: #4682b4; stroke-width: 1.5"/>
    </g>
    <g id="text_43">
     <!-- 20 K -->
     <g transform="translate(1112.359375 744.76) scale(0.2 -0.2)">
      <use xlink:href="#DejaVuSans-32"/>
      <use xlink:href="#DejaVuSans-30" x="63.623047"/>
      <use xlink:href="#DejaVuSans-20" x="127.246094"/>
      <use xlink:href="#DejaVuSans-4b" x="159.033203"/>
     </g>
    </g>
   </g>
  </g>
 </g>
 <defs>
  <clipPath id="p708f369895">
   <rect x="180" y="103.68" width="1116" height="665.28"/>
  </clipPath>
 </defs>
</svg>
