<?xml version="1.0" encoding="utf-8" standalone="no"?>
<!DOCTYPE svg PUBLIC "-//W3C//DTD SVG 1.1//EN"
  "http://www.w3.org/Graphics/SVG/1.1/DTD/svg11.dtd">
<svg xmlns:xlink="http://www.w3.org/1999/xlink" width="1105.92pt" height="577.728pt" viewBox="0 0 1105.92 577.728" xmlns="http://www.w3.org/2000/svg" version="1.1">
 <metadata>
  <rdf:RDF xmlns:dc="http://purl.org/dc/elements/1.1/" xmlns:cc="http://creativecommons.org/ns#" xmlns:rdf="http://www.w3.org/1999/02/22-rdf-syntax-ns#">
   <cc:Work>
    <dc:type rdf:resource="http://purl.org/dc/dcmitype/StillImage"/>
    <dc:date>2023-02-22T11:48:16.796551</dc:date>
    <dc:format>image/svg+xml</dc:format>
    <dc:creator>
     <cc:Agent>
      <dc:title>Matplotlib v3.6.1, https://matplotlib.org/</dc:title>
     </cc:Agent>
    </dc:creator>
   </cc:Work>
  </rdf:RDF>
 </metadata>
 <defs>
  <style type="text/css">*{stroke-linejoin: round; stroke-linecap: butt}</style>
 </defs>
 <g id="figure_1">
  <g id="patch_1">
   <path d="M 0 577.728 
L 1105.92 577.728 
L 1105.92 0 
L 0 0 
z
" style="fill: #ffffff"/>
  </g>
  <g id="axes_1">
   <g id="patch_2">
    <path d="M 138.24 514.17792 
L 995.328 514.17792 
L 995.328 69.32736 
L 138.24 69.32736 
z
" style="fill: #ffffff"/>
   </g>
   <g id="patch_3">
    <path d="M 177.198545 514.17792 
L 179.418406 514.17792 
L 179.418406 481.332794 
L 177.198545 481.332794 
z
" clip-path="url(#p81a7ba1c55)" style="fill: #1f77b4"/>
   </g>
   <g id="patch_4">
    <path d="M 197.120367 514.17792 
L 199.340227 514.17792 
L 199.340227 480.540938 
L 197.120367 480.540938 
z
" clip-path="url(#p81a7ba1c55)" style="fill: #1f77b4"/>
   </g>
   <g id="patch_5">
    <path d="M 217.042189 514.17792 
L 219.262049 514.17792 
L 219.262049 479.466314 
L 217.042189 479.466314 
z
" clip-path="url(#p81a7ba1c55)" style="fill: #1f77b4"/>
   </g>
   <g id="patch_6">
    <path d="M 236.964011 514.17792 
L 239.183871 514.17792 
L 239.183871 478.315751 
L 236.964011 478.315751 
z
" clip-path="url(#p81a7ba1c55)" style="fill: #1f77b4"/>
   </g>
   <g id="patch_7">
    <path d="M 256.885833 514.17792 
L 259.105693 514.17792 
L 259.105693 477.179938 
L 256.885833 477.179938 
z
" clip-path="url(#p81a7ba1c55)" style="fill: #1f77b4"/>
   </g>
   <g id="patch_8">
    <path d="M 276.807654 514.17792 
L 279.027514 514.17792 
L 279.027514 476.100042 
L 276.807654 476.100042 
z
" clip-path="url(#p81a7ba1c55)" style="fill: #1f77b4"/>
   </g>
   <g id="patch_9">
    <path d="M 296.729476 514.17792 
L 298.949336 514.17792 
L 298.949336 475.094224 
L 296.729476 475.094224 
z
" clip-path="url(#p81a7ba1c55)" style="fill: #1f77b4"/>
   </g>
   <g id="patch_10">
    <path d="M 316.651298 514.17792 
L 318.871158 514.17792 
L 318.871158 474.169207 
L 316.651298 474.169207 
z
" clip-path="url(#p81a7ba1c55)" style="fill: #1f77b4"/>
   </g>
   <g id="patch_11">
    <path d="M 336.57312 514.17792 
L 338.79298 514.17792 
L 338.79298 473.325769 
L 336.57312 473.325769 
z
" clip-path="url(#p81a7ba1c55)" style="fill: #1f77b4"/>
   </g>
   <g id="patch_12">
    <path d="M 356.494941 514.17792 
L 358.714802 514.17792 
L 358.714802 472.561548 
L 356.494941 472.561548 
z
" clip-path="url(#p81a7ba1c55)" style="fill: #1f77b4"/>
   </g>
   <g id="patch_13">
    <path d="M 376.416763 514.17792 
L 378.636623 514.17792 
L 378.636623 471.872545 
L 376.416763 471.872545 
z
" clip-path="url(#p81a7ba1c55)" style="fill: #1f77b4"/>
   </g>
   <g id="patch_14">
    <path d="M 396.338585 514.17792 
L 398.558445 514.17792 
L 398.558445 471.253965 
L 396.338585 471.253965 
z
" clip-path="url(#p81a7ba1c55)" style="fill: #1f77b4"/>
   </g>
   <g id="patch_15">
    <path d="M 416.260407 514.17792 
L 418.480267 514.17792 
L 418.480267 470.700706 
L 416.260407 470.700706 
z
" clip-path="url(#p81a7ba1c55)" style="fill: #1f77b4"/>
   </g>
   <g id="patch_16">
    <path d="M 436.182228 514.17792 
L 438.402089 514.17792 
L 438.402089 470.207634 
L 436.182228 470.207634 
z
" clip-path="url(#p81a7ba1c55)" style="fill: #1f77b4"/>
   </g>
   <g id="patch_17">
    <path d="M 456.10405 514.17792 
L 458.32391 514.17792 
L 458.32391 469.769751 
L 456.10405 469.769751 
z
" clip-path="url(#p81a7ba1c55)" style="fill: #1f77b4"/>
   </g>
   <g id="patch_18">
    <path d="M 476.025872 514.17792 
L 478.245732 514.17792 
L 478.245732 469.382284 
L 476.025872 469.382284 
z
" clip-path="url(#p81a7ba1c55)" style="fill: #1f77b4"/>
   </g>
   <g id="patch_19">
    <path d="M 495.947694 514.17792 
L 498.167554 514.17792 
L 498.167554 469.040739 
L 495.947694 469.040739 
z
" clip-path="url(#p81a7ba1c55)" style="fill: #1f77b4"/>
   </g>
   <g id="patch_20">
    <path d="M 515.869516 514.17792 
L 518.089376 514.17792 
L 518.089376 468.740925 
L 515.869516 468.740925 
z
" clip-path="url(#p81a7ba1c55)" style="fill: #1f77b4"/>
   </g>
   <g id="patch_21">
    <path d="M 535.791337 514.17792 
L 538.011197 514.17792 
L 538.011197 468.478958 
L 535.791337 468.478958 
z
" clip-path="url(#p81a7ba1c55)" style="fill: #1f77b4"/>
   </g>
   <g id="patch_22">
    <path d="M 555.713159 514.17792 
L 557.933019 514.17792 
L 557.933019 468.251256 
L 555.713159 468.251256 
z
" clip-path="url(#p81a7ba1c55)" style="fill: #1f77b4"/>
   </g>
   <g id="patch_23">
    <path d="M 575.634981 514.17792 
L 577.854841 514.17792 
L 577.854841 468.054533 
L 575.634981 468.054533 
z
" clip-path="url(#p81a7ba1c55)" style="fill: #1f77b4"/>
   </g>
   <g id="patch_24">
    <path d="M 595.556803 514.17792 
L 597.776663 514.17792 
L 597.776663 467.885783 
L 595.556803 467.885783 
z
" clip-path="url(#p81a7ba1c55)" style="fill: #1f77b4"/>
   </g>
   <g id="patch_25">
    <path d="M 615.478624 514.17792 
L 617.698484 514.17792 
L 617.698484 467.742265 
L 615.478624 467.742265 
z
" clip-path="url(#p81a7ba1c55)" style="fill: #1f77b4"/>
   </g>
   <g id="patch_26">
    <path d="M 635.400446 514.17792 
L 637.620306 514.17792 
L 637.620306 467.62148 
L 635.400446 467.62148 
z
" clip-path="url(#p81a7ba1c55)" style="fill: #1f77b4"/>
   </g>
   <g id="patch_27">
    <path d="M 655.322268 514.17792 
L 657.542128 514.17792 
L 657.542128 467.521163 
L 655.322268 467.521163 
z
" clip-path="url(#p81a7ba1c55)" style="fill: #1f77b4"/>
   </g>
   <g id="patch_28">
    <path d="M 675.24409 514.17792 
L 677.46395 514.17792 
L 677.46395 467.439258 
L 675.24409 467.439258 
z
" clip-path="url(#p81a7ba1c55)" style="fill: #1f77b4"/>
   </g>
   <g id="patch_29">
    <path d="M 695.165911 514.17792 
L 697.385772 514.17792 
L 697.385772 467.373903 
L 695.165911 467.373903 
z
" clip-path="url(#p81a7ba1c55)" style="fill: #1f77b4"/>
   </g>
   <g id="patch_30">
    <path d="M 715.087733 514.17792 
L 717.307593 514.17792 
L 717.307593 467.323415 
L 715.087733 467.323415 
z
" clip-path="url(#p81a7ba1c55)" style="fill: #1f77b4"/>
   </g>
   <g id="patch_31">
    <path d="M 735.009555 514.17792 
L 737.229415 514.17792 
L 737.229415 467.286273 
L 735.009555 467.286273 
z
" clip-path="url(#p81a7ba1c55)" style="fill: #1f77b4"/>
   </g>
   <g id="patch_32">
    <path d="M 754.931377 514.17792 
L 757.151237 514.17792 
L 757.151237 467.261105 
L 754.931377 467.261105 
z
" clip-path="url(#p81a7ba1c55)" style="fill: #1f77b4"/>
   </g>
   <g id="patch_33">
    <path d="M 774.853198 514.17792 
L 777.073059 514.17792 
L 777.073059 467.246674 
L 774.853198 467.246674 
z
" clip-path="url(#p81a7ba1c55)" style="fill: #1f77b4"/>
   </g>
   <g id="patch_34">
    <path d="M 794.77502 514.17792 
L 796.99488 514.17792 
L 796.99488 467.241863 
L 794.77502 467.241863 
z
" clip-path="url(#p81a7ba1c55)" style="fill: #1f77b4"/>
   </g>
   <g id="patch_35">
    <path d="M 814.696842 514.17792 
L 816.916702 514.17792 
L 816.916702 467.24567 
L 814.696842 467.24567 
z
" clip-path="url(#p81a7ba1c55)" style="fill: #1f77b4"/>
   </g>
   <g id="patch_36">
    <path d="M 834.618664 514.17792 
L 836.838524 514.17792 
L 836.838524 467.257187 
L 834.618664 467.257187 
z
" clip-path="url(#p81a7ba1c55)" style="fill: #1f77b4"/>
   </g>
   <g id="patch_37">
    <path d="M 854.540486 514.17792 
L 856.760346 514.17792 
L 856.760346 467.275602 
L 854.540486 467.275602 
z
" clip-path="url(#p81a7ba1c55)" style="fill: #1f77b4"/>
   </g>
   <g id="patch_38">
    <path d="M 874.462307 514.17792 
L 876.682167 514.17792 
L 876.682167 467.300181 
L 874.462307 467.300181 
z
" clip-path="url(#p81a7ba1c55)" style="fill: #1f77b4"/>
   </g>
   <g id="patch_39">
    <path d="M 894.384129 514.17792 
L 896.603989 514.17792 
L 896.603989 467.330264 
L 894.384129 467.330264 
z
" clip-path="url(#p81a7ba1c55)" style="fill: #1f77b4"/>
   </g>
   <g id="patch_40">
    <path d="M 914.305951 514.17792 
L 916.525811 514.17792 
L 916.525811 467.365257 
L 914.305951 467.365257 
z
" clip-path="url(#p81a7ba1c55)" style="fill: #1f77b4"/>
   </g>
   <g id="patch_41">
    <path d="M 934.227773 514.17792 
L 936.447633 514.17792 
L 936.447633 467.404626 
L 934.227773 467.404626 
z
" clip-path="url(#p81a7ba1c55)" style="fill: #1f77b4"/>
   </g>
   <g id="patch_42">
    <path d="M 954.149594 514.17792 
L 956.369455 514.17792 
L 956.369455 467.447889 
L 954.149594 467.447889 
z
" clip-path="url(#p81a7ba1c55)" style="fill: #1f77b4"/>
   </g>
   <g id="patch_43">
    <path d="M 177.198545 481.332794 
L 179.418406 481.332794 
L 179.418406 409.218199 
L 177.198545 409.218199 
z
" clip-path="url(#p81a7ba1c55)" style="fill: #ff7f0e"/>
   </g>
   <g id="patch_44">
    <path d="M 197.120367 480.540938 
L 199.340227 480.540938 
L 199.340227 407.74246 
L 197.120367 407.74246 
z
" clip-path="url(#p81a7ba1c55)" style="fill: #ff7f0e"/>
   </g>
   <g id="patch_45">
    <path d="M 217.042189 479.466314 
L 219.262049 479.466314 
L 219.262049 406.326433 
L 217.042189 406.326433 
z
" clip-path="url(#p81a7ba1c55)" style="fill: #ff7f0e"/>
   </g>
   <g id="patch_46">
    <path d="M 236.964011 478.315751 
L 239.183871 478.315751 
L 239.183871 405.018032 
L 236.964011 405.018032 
z
" clip-path="url(#p81a7ba1c55)" style="fill: #ff7f0e"/>
   </g>
   <g id="patch_47">
    <path d="M 256.885833 477.179938 
L 259.105693 477.179938 
L 259.105693 403.83184 
L 256.885833 403.83184 
z
" clip-path="url(#p81a7ba1c55)" style="fill: #ff7f0e"/>
   </g>
   <g id="patch_48">
    <path d="M 276.807654 476.100042 
L 279.027514 476.100042 
L 279.027514 402.768594 
L 276.807654 402.768594 
z
" clip-path="url(#p81a7ba1c55)" style="fill: #ff7f0e"/>
   </g>
   <g id="patch_49">
    <path d="M 296.729476 475.094224 
L 298.949336 475.094224 
L 298.949336 401.823129 
L 296.729476 401.823129 
z
" clip-path="url(#p81a7ba1c55)" style="fill: #ff7f0e"/>
   </g>
   <g id="patch_50">
    <path d="M 316.651298 474.169207 
L 318.871158 474.169207 
L 318.871158 400.987833 
L 316.651298 400.987833 
z
" clip-path="url(#p81a7ba1c55)" style="fill: #ff7f0e"/>
   </g>
   <g id="patch_51">
    <path d="M 336.57312 473.325769 
L 338.79298 473.325769 
L 338.79298 400.254244 
L 336.57312 400.254244 
z
" clip-path="url(#p81a7ba1c55)" style="fill: #ff7f0e"/>
   </g>
   <g id="patch_52">
    <path d="M 356.494941 472.561548 
L 358.714802 472.561548 
L 358.714802 399.613815 
L 356.494941 399.613815 
z
" clip-path="url(#p81a7ba1c55)" style="fill: #ff7f0e"/>
   </g>
   <g id="patch_53">
    <path d="M 376.416763 471.872545 
L 378.636623 471.872545 
L 378.636623 399.058287 
L 376.416763 399.058287 
z
" clip-path="url(#p81a7ba1c55)" style="fill: #ff7f0e"/>
   </g>
   <g id="patch_54">
    <path d="M 396.338585 471.253965 
L 398.558445 471.253965 
L 398.558445 398.579865 
L 396.338585 398.579865 
z
" clip-path="url(#p81a7ba1c55)" style="fill: #ff7f0e"/>
   </g>
   <g id="patch_55">
    <path d="M 416.260407 470.700706 
L 418.480267 470.700706 
L 418.480267 398.171292 
L 416.260407 398.171292 
z
" clip-path="url(#p81a7ba1c55)" style="fill: #ff7f0e"/>
   </g>
   <g id="patch_56">
    <path d="M 436.182228 470.207634 
L 438.402089 470.207634 
L 438.402089 397.825872 
L 436.182228 397.825872 
z
" clip-path="url(#p81a7ba1c55)" style="fill: #ff7f0e"/>
   </g>
   <g id="patch_57">
    <path d="M 456.10405 469.769751 
L 458.32391 469.769751 
L 458.32391 397.537456 
L 456.10405 397.537456 
z
" clip-path="url(#p81a7ba1c55)" style="fill: #ff7f0e"/>
   </g>
   <g id="patch_58">
    <path d="M 476.025872 469.382284 
L 478.245732 469.382284 
L 478.245732 397.300424 
L 476.025872 397.300424 
z
" clip-path="url(#p81a7ba1c55)" style="fill: #ff7f0e"/>
   </g>
   <g id="patch_59">
    <path d="M 495.947694 469.040739 
L 498.167554 469.040739 
L 498.167554 397.109653 
L 495.947694 397.109653 
z
" clip-path="url(#p81a7ba1c55)" style="fill: #ff7f0e"/>
   </g>
   <g id="patch_60">
    <path d="M 515.869516 468.740925 
L 518.089376 468.740925 
L 518.089376 396.960482 
L 515.869516 396.960482 
z
" clip-path="url(#p81a7ba1c55)" style="fill: #ff7f0e"/>
   </g>
   <g id="patch_61">
    <path d="M 535.791337 468.478958 
L 538.011197 468.478958 
L 538.011197 396.848679 
L 535.791337 396.848679 
z
" clip-path="url(#p81a7ba1c55)" style="fill: #ff7f0e"/>
   </g>
   <g id="patch_62">
    <path d="M 555.713159 468.251256 
L 557.933019 468.251256 
L 557.933019 396.770408 
L 555.713159 396.770408 
z
" clip-path="url(#p81a7ba1c55)" style="fill: #ff7f0e"/>
   </g>
   <g id="patch_63">
    <path d="M 575.634981 468.054533 
L 577.854841 468.054533 
L 577.854841 396.722196 
L 575.634981 396.722196 
z
" clip-path="url(#p81a7ba1c55)" style="fill: #ff7f0e"/>
   </g>
   <g id="patch_64">
    <path d="M 595.556803 467.885783 
L 597.776663 467.885783 
L 597.776663 396.700902 
L 595.556803 396.700902 
z
" clip-path="url(#p81a7ba1c55)" style="fill: #ff7f0e"/>
   </g>
   <g id="patch_65">
    <path d="M 615.478624 467.742265 
L 617.698484 467.742265 
L 617.698484 396.703691 
L 615.478624 396.703691 
z
" clip-path="url(#p81a7ba1c55)" style="fill: #ff7f0e"/>
   </g>
   <g id="patch_66">
    <path d="M 635.400446 467.62148 
L 637.620306 467.62148 
L 637.620306 396.728004 
L 635.400446 396.728004 
z
" clip-path="url(#p81a7ba1c55)" style="fill: #ff7f0e"/>
   </g>
   <g id="patch_67">
    <path d="M 655.322268 467.521163 
L 657.542128 467.521163 
L 657.542128 396.771534 
L 655.322268 396.771534 
z
" clip-path="url(#p81a7ba1c55)" style="fill: #ff7f0e"/>
   </g>
   <g id="patch_68">
    <path d="M 675.24409 467.439258 
L 677.46395 467.439258 
L 677.46395 396.832204 
L 675.24409 396.832204 
z
" clip-path="url(#p81a7ba1c55)" style="fill: #ff7f0e"/>
   </g>
   <g id="patch_69">
    <path d="M 695.165911 467.373903 
L 697.385772 467.373903 
L 697.385772 396.908147 
L 695.165911 396.908147 
z
" clip-path="url(#p81a7ba1c55)" style="fill: #ff7f0e"/>
   </g>
   <g id="patch_70">
    <path d="M 715.087733 467.323415 
L 717.307593 467.323415 
L 717.307593 396.997682 
L 715.087733 396.997682 
z
" clip-path="url(#p81a7ba1c55)" style="fill: #ff7f0e"/>
   </g>
   <g id="patch_71">
    <path d="M 735.009555 467.286273 
L 737.229415 467.286273 
L 737.229415 397.099301 
L 735.009555 397.099301 
z
" clip-path="url(#p81a7ba1c55)" style="fill: #ff7f0e"/>
   </g>
   <g id="patch_72">
    <path d="M 754.931377 467.261105 
L 757.151237 467.261105 
L 757.151237 397.211648 
L 754.931377 397.211648 
z
" clip-path="url(#p81a7ba1c55)" style="fill: #ff7f0e"/>
   </g>
   <g id="patch_73">
    <path d="M 774.853198 467.246674 
L 777.073059 467.246674 
L 777.073059 397.33351 
L 774.853198 397.33351 
z
" clip-path="url(#p81a7ba1c55)" style="fill: #ff7f0e"/>
   </g>
   <g id="patch_74">
    <path d="M 794.77502 467.241863 
L 796.99488 467.241863 
L 796.99488 397.463793 
L 794.77502 397.463793 
z
" clip-path="url(#p81a7ba1c55)" style="fill: #ff7f0e"/>
   </g>
   <g id="patch_75">
    <path d="M 814.696842 467.24567 
L 816.916702 467.24567 
L 816.916702 397.601523 
L 814.696842 397.601523 
z
" clip-path="url(#p81a7ba1c55)" style="fill: #ff7f0e"/>
   </g>
   <g id="patch_76">
    <path d="M 834.618664 467.257187 
L 836.838524 467.257187 
L 836.838524 397.745822 
L 834.618664 397.745822 
z
" clip-path="url(#p81a7ba1c55)" style="fill: #ff7f0e"/>
   </g>
   <g id="patch_77">
    <path d="M 854.540486 467.275602 
L 856.760346 467.275602 
L 856.760346 397.895904 
L 854.540486 397.895904 
z
" clip-path="url(#p81a7ba1c55)" style="fill: #ff7f0e"/>
   </g>
   <g id="patch_78">
    <path d="M 874.462307 467.300181 
L 876.682167 467.300181 
L 876.682167 398.051068 
L 874.462307 398.051068 
z
" clip-path="url(#p81a7ba1c55)" style="fill: #ff7f0e"/>
   </g>
   <g id="patch_79">
    <path d="M 894.384129 467.330264 
L 896.603989 467.330264 
L 896.603989 398.210682 
L 894.384129 398.210682 
z
" clip-path="url(#p81a7ba1c55)" style="fill: #ff7f0e"/>
   </g>
   <g id="patch_80">
    <path d="M 914.305951 467.365257 
L 916.525811 467.365257 
L 916.525811 398.374182 
L 914.305951 398.374182 
z
" clip-path="url(#p81a7ba1c55)" style="fill: #ff7f0e"/>
   </g>
   <g id="patch_81">
    <path d="M 934.227773 467.404626 
L 936.447633 467.404626 
L 936.447633 398.541064 
L 934.227773 398.541064 
z
" clip-path="url(#p81a7ba1c55)" style="fill: #ff7f0e"/>
   </g>
   <g id="patch_82">
    <path d="M 954.149594 467.447889 
L 956.369455 467.447889 
L 956.369455 398.710873 
L 954.149594 398.710873 
z
" clip-path="url(#p81a7ba1c55)" style="fill: #ff7f0e"/>
   </g>
   <g id="patch_83">
    <path d="M 177.198545 409.218199 
L 179.418406 409.218199 
L 179.418406 305.366236 
L 177.198545 305.366236 
z
" clip-path="url(#p81a7ba1c55)" style="fill: #2ca02c"/>
   </g>
   <g id="patch_84">
    <path d="M 197.120367 407.74246 
L 199.340227 407.74246 
L 199.340227 309.844231 
L 197.120367 309.844231 
z
" clip-path="url(#p81a7ba1c55)" style="fill: #2ca02c"/>
   </g>
   <g id="patch_85">
    <path d="M 217.042189 406.326433 
L 219.262049 406.326433 
L 219.262049 311.971701 
L 217.042189 311.971701 
z
" clip-path="url(#p81a7ba1c55)" style="fill: #2ca02c"/>
   </g>
   <g id="patch_86">
    <path d="M 236.964011 405.018032 
L 239.183871 405.018032 
L 239.183871 312.881964 
L 236.964011 312.881964 
z
" clip-path="url(#p81a7ba1c55)" style="fill: #2ca02c"/>
   </g>
   <g id="patch_87">
    <path d="M 256.885833 403.83184 
L 259.105693 403.83184 
L 259.105693 313.103633 
L 256.885833 313.103633 
z
" clip-path="url(#p81a7ba1c55)" style="fill: #2ca02c"/>
   </g>
   <g id="patch_88">
    <path d="M 276.807654 402.768594 
L 279.027514 402.768594 
L 279.027514 312.911008 
L 276.807654 312.911008 
z
" clip-path="url(#p81a7ba1c55)" style="fill: #2ca02c"/>
   </g>
   <g id="patch_89">
    <path d="M 296.729476 401.823129 
L 298.949336 401.823129 
L 298.949336 312.458627 
L 296.729476 312.458627 
z
" clip-path="url(#p81a7ba1c55)" style="fill: #2ca02c"/>
   </g>
   <g id="patch_90">
    <path d="M 316.651298 400.987833 
L 318.871158 400.987833 
L 318.871158 311.839033 
L 316.651298 311.839033 
z
" clip-path="url(#p81a7ba1c55)" style="fill: #2ca02c"/>
   </g>
   <g id="patch_91">
    <path d="M 336.57312 400.254244 
L 338.79298 400.254244 
L 338.79298 311.110197 
L 336.57312 311.110197 
z
" clip-path="url(#p81a7ba1c55)" style="fill: #2ca02c"/>
   </g>
   <g id="patch_92">
    <path d="M 356.494941 399.613815 
L 358.714802 399.613815 
L 358.714802 310.309649 
L 356.494941 310.309649 
z
" clip-path="url(#p81a7ba1c55)" style="fill: #2ca02c"/>
   </g>
   <g id="patch_93">
    <path d="M 376.416763 399.058287 
L 378.636623 399.058287 
L 378.636623 309.46227 
L 376.416763 309.46227 
z
" clip-path="url(#p81a7ba1c55)" style="fill: #2ca02c"/>
   </g>
   <g id="patch_94">
    <path d="M 396.338585 398.579865 
L 398.558445 398.579865 
L 398.558445 308.584822 
L 396.338585 308.584822 
z
" clip-path="url(#p81a7ba1c55)" style="fill: #2ca02c"/>
   </g>
   <g id="patch_95">
    <path d="M 416.260407 398.171292 
L 418.480267 398.171292 
L 418.480267 307.688707 
L 416.260407 307.688707 
z
" clip-path="url(#p81a7ba1c55)" style="fill: #2ca02c"/>
   </g>
   <g id="patch_96">
    <path d="M 436.182228 397.825872 
L 438.402089 397.825872 
L 438.402089 306.78171 
L 436.182228 306.78171 
z
" clip-path="url(#p81a7ba1c55)" style="fill: #2ca02c"/>
   </g>
   <g id="patch_97">
    <path d="M 456.10405 397.537456 
L 458.32391 397.537456 
L 458.32391 305.869125 
L 456.10405 305.869125 
z
" clip-path="url(#p81a7ba1c55)" style="fill: #2ca02c"/>
   </g>
   <g id="patch_98">
    <path d="M 476.025872 397.300424 
L 478.245732 397.300424 
L 478.245732 304.954519 
L 476.025872 304.954519 
z
" clip-path="url(#p81a7ba1c55)" style="fill: #2ca02c"/>
   </g>
   <g id="patch_99">
    <path d="M 495.947694 397.109653 
L 498.167554 397.109653 
L 498.167554 304.040244 
L 495.947694 304.040244 
z
" clip-path="url(#p81a7ba1c55)" style="fill: #2ca02c"/>
   </g>
   <g id="patch_100">
    <path d="M 515.869516 396.960482 
L 518.089376 396.960482 
L 518.089376 303.1278 
L 515.869516 303.1278 
z
" clip-path="url(#p81a7ba1c55)" style="fill: #2ca02c"/>
   </g>
   <g id="patch_101">
    <path d="M 535.791337 396.848679 
L 538.011197 396.848679 
L 538.011197 302.218083 
L 535.791337 302.218083 
z
" clip-path="url(#p81a7ba1c55)" style="fill: #2ca02c"/>
   </g>
   <g id="patch_102">
    <path d="M 555.713159 396.770408 
L 557.933019 396.770408 
L 557.933019 301.311566 
L 555.713159 301.311566 
z
" clip-path="url(#p81a7ba1c55)" style="fill: #2ca02c"/>
   </g>
   <g id="patch_103">
    <path d="M 575.634981 396.722196 
L 577.854841 396.722196 
L 577.854841 300.408431 
L 575.634981 300.408431 
z
" clip-path="url(#p81a7ba1c55)" style="fill: #2ca02c"/>
   </g>
   <g id="patch_104">
    <path d="M 595.556803 396.700902 
L 597.776663 396.700902 
L 597.776663 299.508657 
L 595.556803 299.508657 
z
" clip-path="url(#p81a7ba1c55)" style="fill: #2ca02c"/>
   </g>
   <g id="patch_105">
    <path d="M 615.478624 396.703691 
L 617.698484 396.703691 
L 617.698484 298.612095 
L 615.478624 298.612095 
z
" clip-path="url(#p81a7ba1c55)" style="fill: #2ca02c"/>
   </g>
   <g id="patch_106">
    <path d="M 635.400446 396.728004 
L 637.620306 396.728004 
L 637.620306 297.718509 
L 635.400446 297.718509 
z
" clip-path="url(#p81a7ba1c55)" style="fill: #2ca02c"/>
   </g>
   <g id="patch_107">
    <path d="M 655.322268 396.771534 
L 657.542128 396.771534 
L 657.542128 296.827615 
L 655.322268 296.827615 
z
" clip-path="url(#p81a7ba1c55)" style="fill: #2ca02c"/>
   </g>
   <g id="patch_108">
    <path d="M 675.24409 396.832204 
L 677.46395 396.832204 
L 677.46395 295.939106 
L 675.24409 295.939106 
z
" clip-path="url(#p81a7ba1c55)" style="fill: #2ca02c"/>
   </g>
   <g id="patch_109">
    <path d="M 695.165911 396.908147 
L 697.385772 396.908147 
L 697.385772 295.052671 
L 695.165911 295.052671 
z
" clip-path="url(#p81a7ba1c55)" style="fill: #2ca02c"/>
   </g>
   <g id="patch_110">
    <path d="M 715.087733 396.997682 
L 717.307593 396.997682 
L 717.307593 294.168003 
L 715.087733 294.168003 
z
" clip-path="url(#p81a7ba1c55)" style="fill: #2ca02c"/>
   </g>
   <g id="patch_111">
    <path d="M 735.009555 397.099301 
L 737.229415 397.099301 
L 737.229415 293.284812 
L 735.009555 293.284812 
z
" clip-path="url(#p81a7ba1c55)" style="fill: #2ca02c"/>
   </g>
   <g id="patch_112">
    <path d="M 754.931377 397.211648 
L 757.151237 397.211648 
L 757.151237 292.402828 
L 754.931377 292.402828 
z
" clip-path="url(#p81a7ba1c55)" style="fill: #2ca02c"/>
   </g>
   <g id="patch_113">
    <path d="M 774.853198 397.33351 
L 777.073059 397.33351 
L 777.073059 291.521803 
L 774.853198 291.521803 
z
" clip-path="url(#p81a7ba1c55)" style="fill: #2ca02c"/>
   </g>
   <g id="patch_114">
    <path d="M 794.77502 397.463793 
L 796.99488 397.463793 
L 796.99488 290.641513 
L 794.77502 290.641513 
z
" clip-path="url(#p81a7ba1c55)" style="fill: #2ca02c"/>
   </g>
   <g id="patch_115">
    <path d="M 814.696842 397.601523 
L 816.916702 397.601523 
L 816.916702 289.76176 
L 814.696842 289.76176 
z
" clip-path="url(#p81a7ba1c55)" style="fill: #2ca02c"/>
   </g>
   <g id="patch_116">
    <path d="M 834.618664 397.745822 
L 836.838524 397.745822 
L 836.838524 288.88237 
L 834.618664 288.88237 
z
" clip-path="url(#p81a7ba1c55)" style="fill: #2ca02c"/>
   </g>
   <g id="patch_117">
    <path d="M 854.540486 397.895904 
L 856.760346 397.895904 
L 856.760346 288.003191 
L 854.540486 288.003191 
z
" clip-path="url(#p81a7ba1c55)" style="fill: #2ca02c"/>
   </g>
   <g id="patch_118">
    <path d="M 874.462307 398.051068 
L 876.682167 398.051068 
L 876.682167 287.124095 
L 874.462307 287.124095 
z
" clip-path="url(#p81a7ba1c55)" style="fill: #2ca02c"/>
   </g>
   <g id="patch_119">
    <path d="M 894.384129 398.210682 
L 896.603989 398.210682 
L 896.603989 286.244972 
L 894.384129 286.244972 
z
" clip-path="url(#p81a7ba1c55)" style="fill: #2ca02c"/>
   </g>
   <g id="patch_120">
    <path d="M 914.305951 398.374182 
L 916.525811 398.374182 
L 916.525811 285.36573 
L 914.305951 285.36573 
z
" clip-path="url(#p81a7ba1c55)" style="fill: #2ca02c"/>
   </g>
   <g id="patch_121">
    <path d="M 934.227773 398.541064 
L 936.447633 398.541064 
L 936.447633 284.486297 
L 934.227773 284.486297 
z
" clip-path="url(#p81a7ba1c55)" style="fill: #2ca02c"/>
   </g>
   <g id="patch_122">
    <path d="M 954.149594 398.710873 
L 956.369455 398.710873 
L 956.369455 283.606613 
L 954.149594 283.606613 
z
" clip-path="url(#p81a7ba1c55)" style="fill: #2ca02c"/>
   </g>
   <g id="patch_123">
    <path d="M 177.198545 305.366236 
L 179.418406 305.366236 
L 179.418406 170.951367 
L 177.198545 170.951367 
z
" clip-path="url(#p81a7ba1c55)" style="fill: #d62728"/>
   </g>
   <g id="patch_124">
    <path d="M 197.120367 309.844231 
L 199.340227 309.844231 
L 199.340227 177.586469 
L 197.120367 177.586469 
z
" clip-path="url(#p81a7ba1c55)" style="fill: #d62728"/>
   </g>
   <g id="patch_125">
    <path d="M 217.042189 311.971701 
L 219.262049 311.971701 
L 219.262049 181.005881 
L 217.042189 181.005881 
z
" clip-path="url(#p81a7ba1c55)" style="fill: #d62728"/>
   </g>
   <g id="patch_126">
    <path d="M 236.964011 312.881964 
L 239.183871 312.881964 
L 239.183871 182.739981 
L 236.964011 182.739981 
z
" clip-path="url(#p81a7ba1c55)" style="fill: #d62728"/>
   </g>
   <g id="patch_127">
    <path d="M 256.885833 313.103633 
L 259.105693 313.103633 
L 259.105693 183.50758 
L 256.885833 183.50758 
z
" clip-path="url(#p81a7ba1c55)" style="fill: #d62728"/>
   </g>
   <g id="patch_128">
    <path d="M 276.807654 312.911008 
L 279.027514 312.911008 
L 279.027514 183.6841 
L 276.807654 183.6841 
z
" clip-path="url(#p81a7ba1c55)" style="fill: #d62728"/>
   </g>
   <g id="patch_129">
    <path d="M 296.729476 312.458627 
L 298.949336 312.458627 
L 298.949336 183.482487 
L 296.729476 183.482487 
z
" clip-path="url(#p81a7ba1c55)" style="fill: #d62728"/>
   </g>
   <g id="patch_130">
    <path d="M 316.651298 311.839033 
L 318.871158 311.839033 
L 318.871158 183.031234 
L 316.651298 183.031234 
z
" clip-path="url(#p81a7ba1c55)" style="fill: #d62728"/>
   </g>
   <g id="patch_131">
    <path d="M 336.57312 311.110197 
L 338.79298 311.110197 
L 338.79298 182.411547 
L 336.57312 182.411547 
z
" clip-path="url(#p81a7ba1c55)" style="fill: #d62728"/>
   </g>
   <g id="patch_132">
    <path d="M 356.494941 310.309649 
L 358.714802 310.309649 
L 358.714802 181.676558 
L 356.494941 181.676558 
z
" clip-path="url(#p81a7ba1c55)" style="fill: #d62728"/>
   </g>
   <g id="patch_133">
    <path d="M 376.416763 309.46227 
L 378.636623 309.46227 
L 378.636623 180.861944 
L 376.416763 180.861944 
z
" clip-path="url(#p81a7ba1c55)" style="fill: #d62728"/>
   </g>
   <g id="patch_134">
    <path d="M 396.338585 308.584822 
L 398.558445 308.584822 
L 398.558445 179.992123 
L 396.338585 179.992123 
z
" clip-path="url(#p81a7ba1c55)" style="fill: #d62728"/>
   </g>
   <g id="patch_135">
    <path d="M 416.260407 307.688707 
L 418.480267 307.688707 
L 418.480267 179.084035 
L 416.260407 179.084035 
z
" clip-path="url(#p81a7ba1c55)" style="fill: #d62728"/>
   </g>
   <g id="patch_136">
    <path d="M 436.182228 306.78171 
L 438.402089 306.78171 
L 438.402089 178.149539 
L 436.182228 178.149539 
z
" clip-path="url(#p81a7ba1c55)" style="fill: #d62728"/>
   </g>
   <g id="patch_137">
    <path d="M 456.10405 305.869125 
L 458.32391 305.869125 
L 458.32391 177.196969 
L 456.10405 177.196969 
z
" clip-path="url(#p81a7ba1c55)" style="fill: #d62728"/>
   </g>
   <g id="patch_138">
    <path d="M 476.025872 304.954519 
L 478.245732 304.954519 
L 478.245732 176.232187 
L 476.025872 176.232187 
z
" clip-path="url(#p81a7ba1c55)" style="fill: #d62728"/>
   </g>
   <g id="patch_139">
    <path d="M 495.947694 304.040244 
L 498.167554 304.040244 
L 498.167554 175.259301 
L 495.947694 175.259301 
z
" clip-path="url(#p81a7ba1c55)" style="fill: #d62728"/>
   </g>
   <g id="patch_140">
    <path d="M 515.869516 303.1278 
L 518.089376 303.1278 
L 518.089376 174.281162 
L 515.869516 174.281162 
z
" clip-path="url(#p81a7ba1c55)" style="fill: #d62728"/>
   </g>
   <g id="patch_141">
    <path d="M 535.791337 302.218083 
L 538.011197 302.218083 
L 538.011197 173.299722 
L 535.791337 173.299722 
z
" clip-path="url(#p81a7ba1c55)" style="fill: #d62728"/>
   </g>
   <g id="patch_142">
    <path d="M 555.713159 301.311566 
L 557.933019 301.311566 
L 557.933019 172.316283 
L 555.713159 172.316283 
z
" clip-path="url(#p81a7ba1c55)" style="fill: #d62728"/>
   </g>
   <g id="patch_143">
    <path d="M 575.634981 300.408431 
L 577.854841 300.408431 
L 577.854841 171.331687 
L 575.634981 171.331687 
z
" clip-path="url(#p81a7ba1c55)" style="fill: #d62728"/>
   </g>
   <g id="patch_144">
    <path d="M 595.556803 299.508657 
L 597.776663 299.508657 
L 597.776663 170.346443 
L 595.556803 170.346443 
z
" clip-path="url(#p81a7ba1c55)" style="fill: #d62728"/>
   </g>
   <g id="patch_145">
    <path d="M 615.478624 298.612095 
L 617.698484 298.612095 
L 617.698484 169.36083 
L 615.478624 169.36083 
z
" clip-path="url(#p81a7ba1c55)" style="fill: #d62728"/>
   </g>
   <g id="patch_146">
    <path d="M 635.400446 297.718509 
L 637.620306 297.718509 
L 637.620306 168.374963 
L 635.400446 168.374963 
z
" clip-path="url(#p81a7ba1c55)" style="fill: #d62728"/>
   </g>
   <g id="patch_147">
    <path d="M 655.322268 296.827615 
L 657.542128 296.827615 
L 657.542128 167.388853 
L 655.322268 167.388853 
z
" clip-path="url(#p81a7ba1c55)" style="fill: #d62728"/>
   </g>
   <g id="patch_148">
    <path d="M 675.24409 295.939106 
L 677.46395 295.939106 
L 677.46395 166.402437 
L 675.24409 166.402437 
z
" clip-path="url(#p81a7ba1c55)" style="fill: #d62728"/>
   </g>
   <g id="patch_149">
    <path d="M 695.165911 295.052671 
L 697.385772 295.052671 
L 697.385772 165.415612 
L 695.165911 165.415612 
z
" clip-path="url(#p81a7ba1c55)" style="fill: #d62728"/>
   </g>
   <g id="patch_150">
    <path d="M 715.087733 294.168003 
L 717.307593 294.168003 
L 717.307593 164.428253 
L 715.087733 164.428253 
z
" clip-path="url(#p81a7ba1c55)" style="fill: #d62728"/>
   </g>
   <g id="patch_151">
    <path d="M 735.009555 293.284812 
L 737.229415 293.284812 
L 737.229415 163.440226 
L 735.009555 163.440226 
z
" clip-path="url(#p81a7ba1c55)" style="fill: #d62728"/>
   </g>
   <g id="patch_152">
    <path d="M 754.931377 292.402828 
L 757.151237 292.402828 
L 757.151237 162.451397 
L 754.931377 162.451397 
z
" clip-path="url(#p81a7ba1c55)" style="fill: #d62728"/>
   </g>
   <g id="patch_153">
    <path d="M 774.853198 291.521803 
L 777.073059 291.521803 
L 777.073059 161.461643 
L 774.853198 161.461643 
z
" clip-path="url(#p81a7ba1c55)" style="fill: #d62728"/>
   </g>
   <g id="patch_154">
    <path d="M 794.77502 290.641513 
L 796.99488 290.641513 
L 796.99488 160.470851 
L 794.77502 160.470851 
z
" clip-path="url(#p81a7ba1c55)" style="fill: #d62728"/>
   </g>
   <g id="patch_155">
    <path d="M 814.696842 289.76176 
L 816.916702 289.76176 
L 816.916702 159.478924 
L 814.696842 159.478924 
z
" clip-path="url(#p81a7ba1c55)" style="fill: #d62728"/>
   </g>
   <g id="patch_156">
    <path d="M 834.618664 288.88237 
L 836.838524 288.88237 
L 836.838524 158.48578 
L 834.618664 158.48578 
z
" clip-path="url(#p81a7ba1c55)" style="fill: #d62728"/>
   </g>
   <g id="patch_157">
    <path d="M 854.540486 288.003191 
L 856.760346 288.003191 
L 856.760346 157.491353 
L 854.540486 157.491353 
z
" clip-path="url(#p81a7ba1c55)" style="fill: #d62728"/>
   </g>
   <g id="patch_158">
    <path d="M 874.462307 287.124095 
L 876.682167 287.124095 
L 876.682167 156.495594 
L 874.462307 156.495594 
z
" clip-path="url(#p81a7ba1c55)" style="fill: #d62728"/>
   </g>
   <g id="patch_159">
    <path d="M 894.384129 286.244972 
L 896.603989 286.244972 
L 896.603989 155.498466 
L 894.384129 155.498466 
z
" clip-path="url(#p81a7ba1c55)" style="fill: #d62728"/>
   </g>
   <g id="patch_160">
    <path d="M 914.305951 285.36573 
L 916.525811 285.36573 
L 916.525811 154.499948 
L 914.305951 154.499948 
z
" clip-path="url(#p81a7ba1c55)" style="fill: #d62728"/>
   </g>
   <g id="patch_161">
    <path d="M 934.227773 284.486297 
L 936.447633 284.486297 
L 936.447633 153.500033 
L 934.227773 153.500033 
z
" clip-path="url(#p81a7ba1c55)" style="fill: #d62728"/>
   </g>
   <g id="patch_162">
    <path d="M 954.149594 283.606613 
L 956.369455 283.606613 
L 956.369455 152.498722 
L 954.149594 152.498722 
z
" clip-path="url(#p81a7ba1c55)" style="fill: #d62728"/>
   </g>
   <g id="patch_163">
    <path d="M 177.198545 170.951367 
L 179.418406 170.951367 
L 179.418406 90.51072 
L 177.198545 90.51072 
z
" clip-path="url(#p81a7ba1c55)" style="fill: #9467bd"/>
   </g>
   <g id="patch_164">
    <path d="M 197.120367 177.586469 
L 199.340227 177.586469 
L 199.340227 102.959226 
L 197.120367 102.959226 
z
" clip-path="url(#p81a7ba1c55)" style="fill: #9467bd"/>
   </g>
   <g id="patch_165">
    <path d="M 217.042189 181.005881 
L 219.262049 181.005881 
L 219.262049 110.509411 
L 217.042189 110.509411 
z
" clip-path="url(#p81a7ba1c55)" style="fill: #9467bd"/>
   </g>
   <g id="patch_166">
    <path d="M 236.964011 182.739981 
L 239.183871 182.739981 
L 239.183871 115.396621 
L 236.964011 115.396621 
z
" clip-path="url(#p81a7ba1c55)" style="fill: #9467bd"/>
   </g>
   <g id="patch_167">
    <path d="M 256.885833 183.50758 
L 259.105693 183.50758 
L 259.105693 118.693309 
L 256.885833 118.693309 
z
" clip-path="url(#p81a7ba1c55)" style="fill: #9467bd"/>
   </g>
   <g id="patch_168">
    <path d="M 276.807654 183.6841 
L 279.027514 183.6841 
L 279.027514 120.970796 
L 276.807654 120.970796 
z
" clip-path="url(#p81a7ba1c55)" style="fill: #9467bd"/>
   </g>
   <g id="patch_169">
    <path d="M 296.729476 183.482487 
L 298.949336 183.482487 
L 298.949336 122.559961 
L 296.729476 122.559961 
z
" clip-path="url(#p81a7ba1c55)" style="fill: #9467bd"/>
   </g>
   <g id="patch_170">
    <path d="M 316.651298 183.031234 
L 318.871158 183.031234 
L 318.871158 123.665148 
L 316.651298 123.665148 
z
" clip-path="url(#p81a7ba1c55)" style="fill: #9467bd"/>
   </g>
   <g id="patch_171">
    <path d="M 336.57312 182.411547 
L 338.79298 182.411547 
L 338.79298 124.418978 
L 336.57312 124.418978 
z
" clip-path="url(#p81a7ba1c55)" style="fill: #9467bd"/>
   </g>
   <g id="patch_172">
    <path d="M 356.494941 181.676558 
L 358.714802 181.676558 
L 358.714802 124.910941 
L 356.494941 124.910941 
z
" clip-path="url(#p81a7ba1c55)" style="fill: #9467bd"/>
   </g>
   <g id="patch_173">
    <path d="M 376.416763 180.861944 
L 378.636623 180.861944 
L 378.636623 125.203325 
L 376.416763 125.203325 
z
" clip-path="url(#p81a7ba1c55)" style="fill: #9467bd"/>
   </g>
   <g id="patch_174">
    <path d="M 396.338585 179.992123 
L 398.558445 179.992123 
L 398.558445 125.340591 
L 396.338585 125.340591 
z
" clip-path="url(#p81a7ba1c55)" style="fill: #9467bd"/>
   </g>
   <g id="patch_175">
    <path d="M 416.260407 179.084035 
L 418.480267 179.084035 
L 418.480267 125.35514 
L 416.260407 125.35514 
z
" clip-path="url(#p81a7ba1c55)" style="fill: #9467bd"/>
   </g>
   <g id="patch_176">
    <path d="M 436.182228 178.149539 
L 438.402089 178.149539 
L 438.402089 125.271 
L 436.182228 125.271 
z
" clip-path="url(#p81a7ba1c55)" style="fill: #9467bd"/>
   </g>
   <g id="patch_177">
    <path d="M 456.10405 177.196969 
L 458.32391 177.196969 
L 458.32391 125.106258 
L 456.10405 125.106258 
z
" clip-path="url(#p81a7ba1c55)" style="fill: #9467bd"/>
   </g>
   <g id="patch_178">
    <path d="M 476.025872 176.232187 
L 478.245732 176.232187 
L 478.245732 124.874705 
L 476.025872 124.874705 
z
" clip-path="url(#p81a7ba1c55)" style="fill: #9467bd"/>
   </g>
   <g id="patch_179">
    <path d="M 495.947694 175.259301 
L 498.167554 175.259301 
L 498.167554 124.586985 
L 495.947694 124.586985 
z
" clip-path="url(#p81a7ba1c55)" style="fill: #9467bd"/>
   </g>
   <g id="patch_180">
    <path d="M 515.869516 174.281162 
L 518.089376 174.281162 
L 518.089376 124.251398 
L 515.869516 124.251398 
z
" clip-path="url(#p81a7ba1c55)" style="fill: #9467bd"/>
   </g>
   <g id="patch_181">
    <path d="M 535.791337 173.299722 
L 538.011197 173.299722 
L 538.011197 123.874485 
L 535.791337 123.874485 
z
" clip-path="url(#p81a7ba1c55)" style="fill: #9467bd"/>
   </g>
   <g id="patch_182">
    <path d="M 555.713159 172.316283 
L 557.933019 172.316283 
L 557.933019 123.46145 
L 555.713159 123.46145 
z
" clip-path="url(#p81a7ba1c55)" style="fill: #9467bd"/>
   </g>
   <g id="patch_183">
    <path d="M 575.634981 171.331687 
L 577.854841 171.331687 
L 577.854841 123.016479 
L 575.634981 123.016479 
z
" clip-path="url(#p81a7ba1c55)" style="fill: #9467bd"/>
   </g>
   <g id="patch_184">
    <path d="M 595.556803 170.346443 
L 597.776663 170.346443 
L 597.776663 122.542967 
L 595.556803 122.542967 
z
" clip-path="url(#p81a7ba1c55)" style="fill: #9467bd"/>
   </g>
   <g id="patch_185">
    <path d="M 615.478624 169.36083 
L 617.698484 169.36083 
L 617.698484 122.043702 
L 615.478624 122.043702 
z
" clip-path="url(#p81a7ba1c55)" style="fill: #9467bd"/>
   </g>
   <g id="patch_186">
    <path d="M 635.400446 168.374963 
L 637.620306 168.374963 
L 637.620306 121.520995 
L 635.400446 121.520995 
z
" clip-path="url(#p81a7ba1c55)" style="fill: #9467bd"/>
   </g>
   <g id="patch_187">
    <path d="M 655.322268 167.388853 
L 657.542128 167.388853 
L 657.542128 120.976784 
L 655.322268 120.976784 
z
" clip-path="url(#p81a7ba1c55)" style="fill: #9467bd"/>
   </g>
   <g id="patch_188">
    <path d="M 675.24409 166.402437 
L 677.46395 166.402437 
L 677.46395 120.412712 
L 675.24409 120.412712 
z
" clip-path="url(#p81a7ba1c55)" style="fill: #9467bd"/>
   </g>
   <g id="patch_189">
    <path d="M 695.165911 165.415612 
L 697.385772 165.415612 
L 697.385772 119.830191 
L 695.165911 119.830191 
z
" clip-path="url(#p81a7ba1c55)" style="fill: #9467bd"/>
   </g>
   <g id="patch_190">
    <path d="M 715.087733 164.428253 
L 717.307593 164.428253 
L 717.307593 119.230445 
L 715.087733 119.230445 
z
" clip-path="url(#p81a7ba1c55)" style="fill: #9467bd"/>
   </g>
   <g id="patch_191">
    <path d="M 735.009555 163.440226 
L 737.229415 163.440226 
L 737.229415 118.614547 
L 735.009555 118.614547 
z
" clip-path="url(#p81a7ba1c55)" style="fill: #9467bd"/>
   </g>
   <g id="patch_192">
    <path d="M 754.931377 162.451397 
L 757.151237 162.451397 
L 757.151237 117.983452 
L 754.931377 117.983452 
z
" clip-path="url(#p81a7ba1c55)" style="fill: #9467bd"/>
   </g>
   <g id="patch_193">
    <path d="M 774.853198 161.461643 
L 777.073059 161.461643 
L 777.073059 117.338015 
L 774.853198 117.338015 
z
" clip-path="url(#p81a7ba1c55)" style="fill: #9467bd"/>
   </g>
   <g id="patch_194">
    <path d="M 794.77502 160.470851 
L 796.99488 160.470851 
L 796.99488 116.679009 
L 794.77502 116.679009 
z
" clip-path="url(#p81a7ba1c55)" style="fill: #9467bd"/>
   </g>
   <g id="patch_195">
    <path d="M 814.696842 159.478924 
L 816.916702 159.478924 
L 816.916702 116.00714 
L 814.696842 116.00714 
z
" clip-path="url(#p81a7ba1c55)" style="fill: #9467bd"/>
   </g>
   <g id="patch_196">
    <path d="M 834.618664 158.48578 
L 836.838524 158.48578 
L 836.838524 115.323059 
L 834.618664 115.323059 
z
" clip-path="url(#p81a7ba1c55)" style="fill: #9467bd"/>
   </g>
   <g id="patch_197">
    <path d="M 854.540486 157.491353 
L 856.760346 157.491353 
L 856.760346 114.627366 
L 854.540486 114.627366 
z
" clip-path="url(#p81a7ba1c55)" style="fill: #9467bd"/>
   </g>
   <g id="patch_198">
    <path d="M 874.462307 156.495594 
L 876.682167 156.495594 
L 876.682167 113.920622 
L 874.462307 113.920622 
z
" clip-path="url(#p81a7ba1c55)" style="fill: #9467bd"/>
   </g>
   <g id="patch_199">
    <path d="M 894.384129 155.498466 
L 896.603989 155.498466 
L 896.603989 113.203352 
L 894.384129 113.203352 
z
" clip-path="url(#p81a7ba1c55)" style="fill: #9467bd"/>
   </g>
   <g id="patch_200">
    <path d="M 914.305951 154.499948 
L 916.525811 154.499948 
L 916.525811 112.476047 
L 914.305951 112.476047 
z
" clip-path="url(#p81a7ba1c55)" style="fill: #9467bd"/>
   </g>
   <g id="patch_201">
    <path d="M 934.227773 153.500033 
L 936.447633 153.500033 
L 936.447633 111.739174 
L 934.227773 111.739174 
z
" clip-path="url(#p81a7ba1c55)" style="fill: #9467bd"/>
   </g>
   <g id="patch_202">
    <path d="M 954.149594 152.498722 
L 956.369455 152.498722 
L 956.369455 110.99317 
L 954.149594 110.99317 
z
" clip-path="url(#p81a7ba1c55)" style="fill: #9467bd"/>
   </g>
   <g id="matplotlib.axis_1">
    <g id="xtick_1">
     <g id="line2d_1">
      <defs>
       <path id="mc4aa9761f9" d="M 0 0 
L 0 3.5 
" style="stroke: #000000; stroke-width: 0.8"/>
      </defs>
      <g>
       <use xlink:href="#mc4aa9761f9" x="178.308476" y="514.17792" style="stroke: #000000; stroke-width: 0.8"/>
      </g>
     </g>
     <g id="text_1">
      <!-- 50 -->
      <g transform="translate(166.855976 534.855107) scale(0.18 -0.18)">
       <defs>
        <path id="DejaVuSans-35" d="M 691 4666 
L 3169 4666 
L 3169 4134 
L 1269 4134 
L 1269 2991 
Q 1406 3038 1543 3061 
Q 1681 3084 1819 3084 
Q 2600 3084 3056 2656 
Q 3513 2228 3513 1497 
Q 3513 744 3044 326 
Q 2575 -91 1722 -91 
Q 1428 -91 1123 -41 
Q 819 9 494 109 
L 494 744 
Q 775 591 1075 516 
Q 1375 441 1709 441 
Q 2250 441 2565 725 
Q 2881 1009 2881 1497 
Q 2881 1984 2565 2268 
Q 2250 2553 1709 2553 
Q 1456 2553 1204 2497 
Q 953 2441 691 2322 
L 691 4666 
z
" transform="scale(0.015625)"/>
        <path id="DejaVuSans-30" d="M 2034 4250 
Q 1547 4250 1301 3770 
Q 1056 3291 1056 2328 
Q 1056 1369 1301 889 
Q 1547 409 2034 409 
Q 2525 409 2770 889 
Q 3016 1369 3016 2328 
Q 3016 3291 2770 3770 
Q 2525 4250 2034 4250 
z
M 2034 4750 
Q 2819 4750 3233 4129 
Q 3647 3509 3647 2328 
Q 3647 1150 3233 529 
Q 2819 -91 2034 -91 
Q 1250 -91 836 529 
Q 422 1150 422 2328 
Q 422 3509 836 4129 
Q 1250 4750 2034 4750 
z
" transform="scale(0.015625)"/>
       </defs>
       <use xlink:href="#DejaVuSans-35"/>
       <use xlink:href="#DejaVuSans-30" x="63.623047"/>
      </g>
     </g>
    </g>
    <g id="xtick_2">
     <g id="line2d_2">
      <g>
       <use xlink:href="#mc4aa9761f9" x="289.301483" y="514.17792" style="stroke: #000000; stroke-width: 0.8"/>
      </g>
     </g>
     <g id="text_2">
      <!-- 60 -->
      <g transform="translate(277.848983 534.855107) scale(0.18 -0.18)">
       <defs>
        <path id="DejaVuSans-36" d="M 2113 2584 
Q 1688 2584 1439 2293 
Q 1191 2003 1191 1497 
Q 1191 994 1439 701 
Q 1688 409 2113 409 
Q 2538 409 2786 701 
Q 3034 994 3034 1497 
Q 3034 2003 2786 2293 
Q 2538 2584 2113 2584 
z
M 3366 4563 
L 3366 3988 
Q 3128 4100 2886 4159 
Q 2644 4219 2406 4219 
Q 1781 4219 1451 3797 
Q 1122 3375 1075 2522 
Q 1259 2794 1537 2939 
Q 1816 3084 2150 3084 
Q 2853 3084 3261 2657 
Q 3669 2231 3669 1497 
Q 3669 778 3244 343 
Q 2819 -91 2113 -91 
Q 1303 -91 875 529 
Q 447 1150 447 2328 
Q 447 3434 972 4092 
Q 1497 4750 2381 4750 
Q 2619 4750 2861 4703 
Q 3103 4656 3366 4563 
z
" transform="scale(0.015625)"/>
       </defs>
       <use xlink:href="#DejaVuSans-36"/>
       <use xlink:href="#DejaVuSans-30" x="63.623047"/>
      </g>
     </g>
    </g>
    <g id="xtick_3">
     <g id="line2d_3">
      <g>
       <use xlink:href="#mc4aa9761f9" x="400.29449" y="514.17792" style="stroke: #000000; stroke-width: 0.8"/>
      </g>
     </g>
     <g id="text_3">
      <!-- 70 -->
      <g transform="translate(388.84199 534.855107) scale(0.18 -0.18)">
       <defs>
        <path id="DejaVuSans-37" d="M 525 4666 
L 3525 4666 
L 3525 4397 
L 1831 0 
L 1172 0 
L 2766 4134 
L 525 4134 
L 525 4666 
z
" transform="scale(0.015625)"/>
       </defs>
       <use xlink:href="#DejaVuSans-37"/>
       <use xlink:href="#DejaVuSans-30" x="63.623047"/>
      </g>
     </g>
    </g>
    <g id="xtick_4">
     <g id="line2d_4">
      <g>
       <use xlink:href="#mc4aa9761f9" x="511.287497" y="514.17792" style="stroke: #000000; stroke-width: 0.8"/>
      </g>
     </g>
     <g id="text_4">
      <!-- 80 -->
      <g transform="translate(499.834997 534.855107) scale(0.18 -0.18)">
       <defs>
        <path id="DejaVuSans-38" d="M 2034 2216 
Q 1584 2216 1326 1975 
Q 1069 1734 1069 1313 
Q 1069 891 1326 650 
Q 1584 409 2034 409 
Q 2484 409 2743 651 
Q 3003 894 3003 1313 
Q 3003 1734 2745 1975 
Q 2488 2216 2034 2216 
z
M 1403 2484 
Q 997 2584 770 2862 
Q 544 3141 544 3541 
Q 544 4100 942 4425 
Q 1341 4750 2034 4750 
Q 2731 4750 3128 4425 
Q 3525 4100 3525 3541 
Q 3525 3141 3298 2862 
Q 3072 2584 2669 2484 
Q 3125 2378 3379 2068 
Q 3634 1759 3634 1313 
Q 3634 634 3220 271 
Q 2806 -91 2034 -91 
Q 1263 -91 848 271 
Q 434 634 434 1313 
Q 434 1759 690 2068 
Q 947 2378 1403 2484 
z
M 1172 3481 
Q 1172 3119 1398 2916 
Q 1625 2713 2034 2713 
Q 2441 2713 2670 2916 
Q 2900 3119 2900 3481 
Q 2900 3844 2670 4047 
Q 2441 4250 2034 4250 
Q 1625 4250 1398 4047 
Q 1172 3844 1172 3481 
z
" transform="scale(0.015625)"/>
       </defs>
       <use xlink:href="#DejaVuSans-38"/>
       <use xlink:href="#DejaVuSans-30" x="63.623047"/>
      </g>
     </g>
    </g>
    <g id="xtick_5">
     <g id="line2d_5">
      <g>
       <use xlink:href="#mc4aa9761f9" x="622.280503" y="514.17792" style="stroke: #000000; stroke-width: 0.8"/>
      </g>
     </g>
     <g id="text_5">
      <!-- 90 -->
      <g transform="translate(610.828003 534.855107) scale(0.18 -0.18)">
       <defs>
        <path id="DejaVuSans-39" d="M 703 97 
L 703 672 
Q 941 559 1184 500 
Q 1428 441 1663 441 
Q 2288 441 2617 861 
Q 2947 1281 2994 2138 
Q 2813 1869 2534 1725 
Q 2256 1581 1919 1581 
Q 1219 1581 811 2004 
Q 403 2428 403 3163 
Q 403 3881 828 4315 
Q 1253 4750 1959 4750 
Q 2769 4750 3195 4129 
Q 3622 3509 3622 2328 
Q 3622 1225 3098 567 
Q 2575 -91 1691 -91 
Q 1453 -91 1209 -44 
Q 966 3 703 97 
z
M 1959 2075 
Q 2384 2075 2632 2365 
Q 2881 2656 2881 3163 
Q 2881 3666 2632 3958 
Q 2384 4250 1959 4250 
Q 1534 4250 1286 3958 
Q 1038 3666 1038 3163 
Q 1038 2656 1286 2365 
Q 1534 2075 1959 2075 
z
" transform="scale(0.015625)"/>
       </defs>
       <use xlink:href="#DejaVuSans-39"/>
       <use xlink:href="#DejaVuSans-30" x="63.623047"/>
      </g>
     </g>
    </g>
    <g id="xtick_6">
     <g id="line2d_6">
      <g>
       <use xlink:href="#mc4aa9761f9" x="733.27351" y="514.17792" style="stroke: #000000; stroke-width: 0.8"/>
      </g>
     </g>
     <g id="text_6">
      <!-- 100 -->
      <g transform="translate(716.09476 534.855107) scale(0.18 -0.18)">
       <defs>
        <path id="DejaVuSans-31" d="M 794 531 
L 1825 531 
L 1825 4091 
L 703 3866 
L 703 4441 
L 1819 4666 
L 2450 4666 
L 2450 531 
L 3481 531 
L 3481 0 
L 794 0 
L 794 531 
z
" transform="scale(0.015625)"/>
       </defs>
       <use xlink:href="#DejaVuSans-31"/>
       <use xlink:href="#DejaVuSans-30" x="63.623047"/>
       <use xlink:href="#DejaVuSans-30" x="127.246094"/>
      </g>
     </g>
    </g>
    <g id="xtick_7">
     <g id="line2d_7">
      <g>
       <use xlink:href="#mc4aa9761f9" x="844.266517" y="514.17792" style="stroke: #000000; stroke-width: 0.8"/>
      </g>
     </g>
     <g id="text_7">
      <!-- 110 -->
      <g transform="translate(827.087767 534.855107) scale(0.18 -0.18)">
       <use xlink:href="#DejaVuSans-31"/>
       <use xlink:href="#DejaVuSans-31" x="63.623047"/>
       <use xlink:href="#DejaVuSans-30" x="127.246094"/>
      </g>
     </g>
    </g>
    <g id="xtick_8">
     <g id="line2d_8">
      <g>
       <use xlink:href="#mc4aa9761f9" x="955.259524" y="514.17792" style="stroke: #000000; stroke-width: 0.8"/>
      </g>
     </g>
     <g id="text_8">
      <!-- 120 -->
      <g transform="translate(938.080774 534.855107) scale(0.18 -0.18)">
       <defs>
        <path id="DejaVuSans-32" d="M 1228 531 
L 3431 531 
L 3431 0 
L 469 0 
L 469 531 
Q 828 903 1448 1529 
Q 2069 2156 2228 2338 
Q 2531 2678 2651 2914 
Q 2772 3150 2772 3378 
Q 2772 3750 2511 3984 
Q 2250 4219 1831 4219 
Q 1534 4219 1204 4116 
Q 875 4013 500 3803 
L 500 4441 
Q 881 4594 1212 4672 
Q 1544 4750 1819 4750 
Q 2544 4750 2975 4387 
Q 3406 4025 3406 3419 
Q 3406 3131 3298 2873 
Q 3191 2616 2906 2266 
Q 2828 2175 2409 1742 
Q 1991 1309 1228 531 
z
" transform="scale(0.015625)"/>
       </defs>
       <use xlink:href="#DejaVuSans-31"/>
       <use xlink:href="#DejaVuSans-32" x="63.623047"/>
       <use xlink:href="#DejaVuSans-30" x="127.246094"/>
      </g>
     </g>
    </g>
    <g id="text_9">
     <!-- Kondensatordruck in bar -->
     <g transform="translate(456.254156 556.275733) scale(0.18 -0.18)">
      <defs>
       <path id="DejaVuSans-4b" d="M 628 4666 
L 1259 4666 
L 1259 2694 
L 3353 4666 
L 4166 4666 
L 1850 2491 
L 4331 0 
L 3500 0 
L 1259 2247 
L 1259 0 
L 628 0 
L 628 4666 
z
" transform="scale(0.015625)"/>
       <path id="DejaVuSans-6f" d="M 1959 3097 
Q 1497 3097 1228 2736 
Q 959 2375 959 1747 
Q 959 1119 1226 758 
Q 1494 397 1959 397 
Q 2419 397 2687 759 
Q 2956 1122 2956 1747 
Q 2956 2369 2687 2733 
Q 2419 3097 1959 3097 
z
M 1959 3584 
Q 2709 3584 3137 3096 
Q 3566 2609 3566 1747 
Q 3566 888 3137 398 
Q 2709 -91 1959 -91 
Q 1206 -91 779 398 
Q 353 888 353 1747 
Q 353 2609 779 3096 
Q 1206 3584 1959 3584 
z
" transform="scale(0.015625)"/>
       <path id="DejaVuSans-6e" d="M 3513 2113 
L 3513 0 
L 2938 0 
L 2938 2094 
Q 2938 2591 2744 2837 
Q 2550 3084 2163 3084 
Q 1697 3084 1428 2787 
Q 1159 2491 1159 1978 
L 1159 0 
L 581 0 
L 581 3500 
L 1159 3500 
L 1159 2956 
Q 1366 3272 1645 3428 
Q 1925 3584 2291 3584 
Q 2894 3584 3203 3211 
Q 3513 2838 3513 2113 
z
" transform="scale(0.015625)"/>
       <path id="DejaVuSans-64" d="M 2906 2969 
L 2906 4863 
L 3481 4863 
L 3481 0 
L 2906 0 
L 2906 525 
Q 2725 213 2448 61 
Q 2172 -91 1784 -91 
Q 1150 -91 751 415 
Q 353 922 353 1747 
Q 353 2572 751 3078 
Q 1150 3584 1784 3584 
Q 2172 3584 2448 3432 
Q 2725 3281 2906 2969 
z
M 947 1747 
Q 947 1113 1208 752 
Q 1469 391 1925 391 
Q 2381 391 2643 752 
Q 2906 1113 2906 1747 
Q 2906 2381 2643 2742 
Q 2381 3103 1925 3103 
Q 1469 3103 1208 2742 
Q 947 2381 947 1747 
z
" transform="scale(0.015625)"/>
       <path id="DejaVuSans-65" d="M 3597 1894 
L 3597 1613 
L 953 1613 
Q 991 1019 1311 708 
Q 1631 397 2203 397 
Q 2534 397 2845 478 
Q 3156 559 3463 722 
L 3463 178 
Q 3153 47 2828 -22 
Q 2503 -91 2169 -91 
Q 1331 -91 842 396 
Q 353 884 353 1716 
Q 353 2575 817 3079 
Q 1281 3584 2069 3584 
Q 2775 3584 3186 3129 
Q 3597 2675 3597 1894 
z
M 3022 2063 
Q 3016 2534 2758 2815 
Q 2500 3097 2075 3097 
Q 1594 3097 1305 2825 
Q 1016 2553 972 2059 
L 3022 2063 
z
" transform="scale(0.015625)"/>
       <path id="DejaVuSans-73" d="M 2834 3397 
L 2834 2853 
Q 2591 2978 2328 3040 
Q 2066 3103 1784 3103 
Q 1356 3103 1142 2972 
Q 928 2841 928 2578 
Q 928 2378 1081 2264 
Q 1234 2150 1697 2047 
L 1894 2003 
Q 2506 1872 2764 1633 
Q 3022 1394 3022 966 
Q 3022 478 2636 193 
Q 2250 -91 1575 -91 
Q 1294 -91 989 -36 
Q 684 19 347 128 
L 347 722 
Q 666 556 975 473 
Q 1284 391 1588 391 
Q 1994 391 2212 530 
Q 2431 669 2431 922 
Q 2431 1156 2273 1281 
Q 2116 1406 1581 1522 
L 1381 1569 
Q 847 1681 609 1914 
Q 372 2147 372 2553 
Q 372 3047 722 3315 
Q 1072 3584 1716 3584 
Q 2034 3584 2315 3537 
Q 2597 3491 2834 3397 
z
" transform="scale(0.015625)"/>
       <path id="DejaVuSans-61" d="M 2194 1759 
Q 1497 1759 1228 1600 
Q 959 1441 959 1056 
Q 959 750 1161 570 
Q 1363 391 1709 391 
Q 2188 391 2477 730 
Q 2766 1069 2766 1631 
L 2766 1759 
L 2194 1759 
z
M 3341 1997 
L 3341 0 
L 2766 0 
L 2766 531 
Q 2569 213 2275 61 
Q 1981 -91 1556 -91 
Q 1019 -91 701 211 
Q 384 513 384 1019 
Q 384 1609 779 1909 
Q 1175 2209 1959 2209 
L 2766 2209 
L 2766 2266 
Q 2766 2663 2505 2880 
Q 2244 3097 1772 3097 
Q 1472 3097 1187 3025 
Q 903 2953 641 2809 
L 641 3341 
Q 956 3463 1253 3523 
Q 1550 3584 1831 3584 
Q 2591 3584 2966 3190 
Q 3341 2797 3341 1997 
z
" transform="scale(0.015625)"/>
       <path id="DejaVuSans-74" d="M 1172 4494 
L 1172 3500 
L 2356 3500 
L 2356 3053 
L 1172 3053 
L 1172 1153 
Q 1172 725 1289 603 
Q 1406 481 1766 481 
L 2356 481 
L 2356 0 
L 1766 0 
Q 1100 0 847 248 
Q 594 497 594 1153 
L 594 3053 
L 172 3053 
L 172 3500 
L 594 3500 
L 594 4494 
L 1172 4494 
z
" transform="scale(0.015625)"/>
       <path id="DejaVuSans-72" d="M 2631 2963 
Q 2534 3019 2420 3045 
Q 2306 3072 2169 3072 
Q 1681 3072 1420 2755 
Q 1159 2438 1159 1844 
L 1159 0 
L 581 0 
L 581 3500 
L 1159 3500 
L 1159 2956 
Q 1341 3275 1631 3429 
Q 1922 3584 2338 3584 
Q 2397 3584 2469 3576 
Q 2541 3569 2628 3553 
L 2631 2963 
z
" transform="scale(0.015625)"/>
       <path id="DejaVuSans-75" d="M 544 1381 
L 544 3500 
L 1119 3500 
L 1119 1403 
Q 1119 906 1312 657 
Q 1506 409 1894 409 
Q 2359 409 2629 706 
Q 2900 1003 2900 1516 
L 2900 3500 
L 3475 3500 
L 3475 0 
L 2900 0 
L 2900 538 
Q 2691 219 2414 64 
Q 2138 -91 1772 -91 
Q 1169 -91 856 284 
Q 544 659 544 1381 
z
M 1991 3584 
L 1991 3584 
z
" transform="scale(0.015625)"/>
       <path id="DejaVuSans-63" d="M 3122 3366 
L 3122 2828 
Q 2878 2963 2633 3030 
Q 2388 3097 2138 3097 
Q 1578 3097 1268 2742 
Q 959 2388 959 1747 
Q 959 1106 1268 751 
Q 1578 397 2138 397 
Q 2388 397 2633 464 
Q 2878 531 3122 666 
L 3122 134 
Q 2881 22 2623 -34 
Q 2366 -91 2075 -91 
Q 1284 -91 818 406 
Q 353 903 353 1747 
Q 353 2603 823 3093 
Q 1294 3584 2113 3584 
Q 2378 3584 2631 3529 
Q 2884 3475 3122 3366 
z
" transform="scale(0.015625)"/>
       <path id="DejaVuSans-6b" d="M 581 4863 
L 1159 4863 
L 1159 1991 
L 2875 3500 
L 3609 3500 
L 1753 1863 
L 3688 0 
L 2938 0 
L 1159 1709 
L 1159 0 
L 581 0 
L 581 4863 
z
" transform="scale(0.015625)"/>
       <path id="DejaVuSans-20" transform="scale(0.015625)"/>
       <path id="DejaVuSans-69" d="M 603 3500 
L 1178 3500 
L 1178 0 
L 603 0 
L 603 3500 
z
M 603 4863 
L 1178 4863 
L 1178 4134 
L 603 4134 
L 603 4863 
z
" transform="scale(0.015625)"/>
       <path id="DejaVuSans-62" d="M 3116 1747 
Q 3116 2381 2855 2742 
Q 2594 3103 2138 3103 
Q 1681 3103 1420 2742 
Q 1159 2381 1159 1747 
Q 1159 1113 1420 752 
Q 1681 391 2138 391 
Q 2594 391 2855 752 
Q 3116 1113 3116 1747 
z
M 1159 2969 
Q 1341 3281 1617 3432 
Q 1894 3584 2278 3584 
Q 2916 3584 3314 3078 
Q 3713 2572 3713 1747 
Q 3713 922 3314 415 
Q 2916 -91 2278 -91 
Q 1894 -91 1617 61 
Q 1341 213 1159 525 
L 1159 0 
L 581 0 
L 581 4863 
L 1159 4863 
L 1159 2969 
z
" transform="scale(0.015625)"/>
      </defs>
      <use xlink:href="#DejaVuSans-4b"/>
      <use xlink:href="#DejaVuSans-6f" x="60.576172"/>
      <use xlink:href="#DejaVuSans-6e" x="121.757812"/>
      <use xlink:href="#DejaVuSans-64" x="185.136719"/>
      <use xlink:href="#DejaVuSans-65" x="248.613281"/>
      <use xlink:href="#DejaVuSans-6e" x="310.136719"/>
      <use xlink:href="#DejaVuSans-73" x="373.515625"/>
      <use xlink:href="#DejaVuSans-61" x="425.615234"/>
      <use xlink:href="#DejaVuSans-74" x="486.894531"/>
      <use xlink:href="#DejaVuSans-6f" x="526.103516"/>
      <use xlink:href="#DejaVuSans-72" x="587.285156"/>
      <use xlink:href="#DejaVuSans-64" x="626.648438"/>
      <use xlink:href="#DejaVuSans-72" x="690.125"/>
      <use xlink:href="#DejaVuSans-75" x="731.238281"/>
      <use xlink:href="#DejaVuSans-63" x="794.617188"/>
      <use xlink:href="#DejaVuSans-6b" x="849.597656"/>
      <use xlink:href="#DejaVuSans-20" x="907.507812"/>
      <use xlink:href="#DejaVuSans-69" x="939.294922"/>
      <use xlink:href="#DejaVuSans-6e" x="967.078125"/>
      <use xlink:href="#DejaVuSans-20" x="1030.457031"/>
      <use xlink:href="#DejaVuSans-62" x="1062.244141"/>
      <use xlink:href="#DejaVuSans-61" x="1125.720703"/>
      <use xlink:href="#DejaVuSans-72" x="1187"/>
     </g>
    </g>
   </g>
   <g id="matplotlib.axis_2">
    <g id="ytick_1">
     <g id="line2d_9">
      <defs>
       <path id="mf1c189a5cd" d="M 0 0 
L -3.5 0 
" style="stroke: #000000; stroke-width: 0.8"/>
      </defs>
      <g>
       <use xlink:href="#mf1c189a5cd" x="138.24" y="514.17792" style="stroke: #000000; stroke-width: 0.8"/>
      </g>
     </g>
     <g id="text_10">
      <!-- 0.000 -->
      <g transform="translate(79.709375 521.016514) scale(0.18 -0.18)">
       <defs>
        <path id="DejaVuSans-2e" d="M 684 794 
L 1344 794 
L 1344 0 
L 684 0 
L 684 794 
z
" transform="scale(0.015625)"/>
       </defs>
       <use xlink:href="#DejaVuSans-30"/>
       <use xlink:href="#DejaVuSans-2e" x="63.623047"/>
       <use xlink:href="#DejaVuSans-30" x="95.410156"/>
       <use xlink:href="#DejaVuSans-30" x="159.033203"/>
       <use xlink:href="#DejaVuSans-30" x="222.65625"/>
      </g>
     </g>
    </g>
    <g id="ytick_2">
     <g id="line2d_10">
      <g>
       <use xlink:href="#mf1c189a5cd" x="138.24" y="459.352717" style="stroke: #000000; stroke-width: 0.8"/>
      </g>
     </g>
     <g id="text_11">
      <!-- 0.025 -->
      <g transform="translate(79.709375 466.191311) scale(0.18 -0.18)">
       <use xlink:href="#DejaVuSans-30"/>
       <use xlink:href="#DejaVuSans-2e" x="63.623047"/>
       <use xlink:href="#DejaVuSans-30" x="95.410156"/>
       <use xlink:href="#DejaVuSans-32" x="159.033203"/>
       <use xlink:href="#DejaVuSans-35" x="222.65625"/>
      </g>
     </g>
    </g>
    <g id="ytick_3">
     <g id="line2d_11">
      <g>
       <use xlink:href="#mf1c189a5cd" x="138.24" y="404.527514" style="stroke: #000000; stroke-width: 0.8"/>
      </g>
     </g>
     <g id="text_12">
      <!-- 0.050 -->
      <g transform="translate(79.709375 411.366108) scale(0.18 -0.18)">
       <use xlink:href="#DejaVuSans-30"/>
       <use xlink:href="#DejaVuSans-2e" x="63.623047"/>
       <use xlink:href="#DejaVuSans-30" x="95.410156"/>
       <use xlink:href="#DejaVuSans-35" x="159.033203"/>
       <use xlink:href="#DejaVuSans-30" x="222.65625"/>
      </g>
     </g>
    </g>
    <g id="ytick_4">
     <g id="line2d_12">
      <g>
       <use xlink:href="#mf1c189a5cd" x="138.24" y="349.702312" style="stroke: #000000; stroke-width: 0.8"/>
      </g>
     </g>
     <g id="text_13">
      <!-- 0.075 -->
      <g transform="translate(79.709375 356.540905) scale(0.18 -0.18)">
       <use xlink:href="#DejaVuSans-30"/>
       <use xlink:href="#DejaVuSans-2e" x="63.623047"/>
       <use xlink:href="#DejaVuSans-30" x="95.410156"/>
       <use xlink:href="#DejaVuSans-37" x="159.033203"/>
       <use xlink:href="#DejaVuSans-35" x="222.65625"/>
      </g>
     </g>
    </g>
    <g id="ytick_5">
     <g id="line2d_13">
      <g>
       <use xlink:href="#mf1c189a5cd" x="138.24" y="294.877109" style="stroke: #000000; stroke-width: 0.8"/>
      </g>
     </g>
     <g id="text_14">
      <!-- 0.100 -->
      <g transform="translate(79.709375 301.715703) scale(0.18 -0.18)">
       <use xlink:href="#DejaVuSans-30"/>
       <use xlink:href="#DejaVuSans-2e" x="63.623047"/>
       <use xlink:href="#DejaVuSans-31" x="95.410156"/>
       <use xlink:href="#DejaVuSans-30" x="159.033203"/>
       <use xlink:href="#DejaVuSans-30" x="222.65625"/>
      </g>
     </g>
    </g>
    <g id="ytick_6">
     <g id="line2d_14">
      <g>
       <use xlink:href="#mf1c189a5cd" x="138.24" y="240.051906" style="stroke: #000000; stroke-width: 0.8"/>
      </g>
     </g>
     <g id="text_15">
      <!-- 0.125 -->
      <g transform="translate(79.709375 246.8905) scale(0.18 -0.18)">
       <use xlink:href="#DejaVuSans-30"/>
       <use xlink:href="#DejaVuSans-2e" x="63.623047"/>
       <use xlink:href="#DejaVuSans-31" x="95.410156"/>
       <use xlink:href="#DejaVuSans-32" x="159.033203"/>
       <use xlink:href="#DejaVuSans-35" x="222.65625"/>
      </g>
     </g>
    </g>
    <g id="ytick_7">
     <g id="line2d_15">
      <g>
       <use xlink:href="#mf1c189a5cd" x="138.24" y="185.226703" style="stroke: #000000; stroke-width: 0.8"/>
      </g>
     </g>
     <g id="text_16">
      <!-- 0.150 -->
      <g transform="translate(79.709375 192.065297) scale(0.18 -0.18)">
       <use xlink:href="#DejaVuSans-30"/>
       <use xlink:href="#DejaVuSans-2e" x="63.623047"/>
       <use xlink:href="#DejaVuSans-31" x="95.410156"/>
       <use xlink:href="#DejaVuSans-35" x="159.033203"/>
       <use xlink:href="#DejaVuSans-30" x="222.65625"/>
      </g>
     </g>
    </g>
    <g id="ytick_8">
     <g id="line2d_16">
      <g>
       <use xlink:href="#mf1c189a5cd" x="138.24" y="130.4015" style="stroke: #000000; stroke-width: 0.8"/>
      </g>
     </g>
     <g id="text_17">
      <!-- 0.175 -->
      <g transform="translate(79.709375 137.240094) scale(0.18 -0.18)">
       <use xlink:href="#DejaVuSans-30"/>
       <use xlink:href="#DejaVuSans-2e" x="63.623047"/>
       <use xlink:href="#DejaVuSans-31" x="95.410156"/>
       <use xlink:href="#DejaVuSans-37" x="159.033203"/>
       <use xlink:href="#DejaVuSans-35" x="222.65625"/>
      </g>
     </g>
    </g>
    <g id="ytick_9">
     <g id="line2d_17">
      <g>
       <use xlink:href="#mf1c189a5cd" x="138.24" y="75.576298" style="stroke: #000000; stroke-width: 0.8"/>
      </g>
     </g>
     <g id="text_18">
      <!-- 0.200 -->
      <g transform="translate(79.709375 82.414891) scale(0.18 -0.18)">
       <use xlink:href="#DejaVuSans-30"/>
       <use xlink:href="#DejaVuSans-2e" x="63.623047"/>
       <use xlink:href="#DejaVuSans-32" x="95.410156"/>
       <use xlink:href="#DejaVuSans-30" x="159.033203"/>
       <use xlink:href="#DejaVuSans-30" x="222.65625"/>
      </g>
     </g>
    </g>
    <g id="text_19">
     <!-- Exergievernichtung in MW -->
     <g transform="translate(71.965937 409.818577) rotate(-90) scale(0.18 -0.18)">
      <defs>
       <path id="DejaVuSans-45" d="M 628 4666 
L 3578 4666 
L 3578 4134 
L 1259 4134 
L 1259 2753 
L 3481 2753 
L 3481 2222 
L 1259 2222 
L 1259 531 
L 3634 531 
L 3634 0 
L 628 0 
L 628 4666 
z
" transform="scale(0.015625)"/>
       <path id="DejaVuSans-78" d="M 3513 3500 
L 2247 1797 
L 3578 0 
L 2900 0 
L 1881 1375 
L 863 0 
L 184 0 
L 1544 1831 
L 300 3500 
L 978 3500 
L 1906 2253 
L 2834 3500 
L 3513 3500 
z
" transform="scale(0.015625)"/>
       <path id="DejaVuSans-67" d="M 2906 1791 
Q 2906 2416 2648 2759 
Q 2391 3103 1925 3103 
Q 1463 3103 1205 2759 
Q 947 2416 947 1791 
Q 947 1169 1205 825 
Q 1463 481 1925 481 
Q 2391 481 2648 825 
Q 2906 1169 2906 1791 
z
M 3481 434 
Q 3481 -459 3084 -895 
Q 2688 -1331 1869 -1331 
Q 1566 -1331 1297 -1286 
Q 1028 -1241 775 -1147 
L 775 -588 
Q 1028 -725 1275 -790 
Q 1522 -856 1778 -856 
Q 2344 -856 2625 -561 
Q 2906 -266 2906 331 
L 2906 616 
Q 2728 306 2450 153 
Q 2172 0 1784 0 
Q 1141 0 747 490 
Q 353 981 353 1791 
Q 353 2603 747 3093 
Q 1141 3584 1784 3584 
Q 2172 3584 2450 3431 
Q 2728 3278 2906 2969 
L 2906 3500 
L 3481 3500 
L 3481 434 
z
" transform="scale(0.015625)"/>
       <path id="DejaVuSans-76" d="M 191 3500 
L 800 3500 
L 1894 563 
L 2988 3500 
L 3597 3500 
L 2284 0 
L 1503 0 
L 191 3500 
z
" transform="scale(0.015625)"/>
       <path id="DejaVuSans-68" d="M 3513 2113 
L 3513 0 
L 2938 0 
L 2938 2094 
Q 2938 2591 2744 2837 
Q 2550 3084 2163 3084 
Q 1697 3084 1428 2787 
Q 1159 2491 1159 1978 
L 1159 0 
L 581 0 
L 581 4863 
L 1159 4863 
L 1159 2956 
Q 1366 3272 1645 3428 
Q 1925 3584 2291 3584 
Q 2894 3584 3203 3211 
Q 3513 2838 3513 2113 
z
" transform="scale(0.015625)"/>
       <path id="DejaVuSans-4d" d="M 628 4666 
L 1569 4666 
L 2759 1491 
L 3956 4666 
L 4897 4666 
L 4897 0 
L 4281 0 
L 4281 4097 
L 3078 897 
L 2444 897 
L 1241 4097 
L 1241 0 
L 628 0 
L 628 4666 
z
" transform="scale(0.015625)"/>
       <path id="DejaVuSans-57" d="M 213 4666 
L 850 4666 
L 1831 722 
L 2809 4666 
L 3519 4666 
L 4500 722 
L 5478 4666 
L 6119 4666 
L 4947 0 
L 4153 0 
L 3169 4050 
L 2175 0 
L 1381 0 
L 213 4666 
z
" transform="scale(0.015625)"/>
      </defs>
      <use xlink:href="#DejaVuSans-45"/>
      <use xlink:href="#DejaVuSans-78" x="63.183594"/>
      <use xlink:href="#DejaVuSans-65" x="119.238281"/>
      <use xlink:href="#DejaVuSans-72" x="180.761719"/>
      <use xlink:href="#DejaVuSans-67" x="220.125"/>
      <use xlink:href="#DejaVuSans-69" x="283.601562"/>
      <use xlink:href="#DejaVuSans-65" x="311.384766"/>
      <use xlink:href="#DejaVuSans-76" x="372.908203"/>
      <use xlink:href="#DejaVuSans-65" x="432.087891"/>
      <use xlink:href="#DejaVuSans-72" x="493.611328"/>
      <use xlink:href="#DejaVuSans-6e" x="532.974609"/>
      <use xlink:href="#DejaVuSans-69" x="596.353516"/>
      <use xlink:href="#DejaVuSans-63" x="624.136719"/>
      <use xlink:href="#DejaVuSans-68" x="679.117188"/>
      <use xlink:href="#DejaVuSans-74" x="742.496094"/>
      <use xlink:href="#DejaVuSans-75" x="781.705078"/>
      <use xlink:href="#DejaVuSans-6e" x="845.083984"/>
      <use xlink:href="#DejaVuSans-67" x="908.462891"/>
      <use xlink:href="#DejaVuSans-20" x="971.939453"/>
      <use xlink:href="#DejaVuSans-69" x="1003.726562"/>
      <use xlink:href="#DejaVuSans-6e" x="1031.509766"/>
      <use xlink:href="#DejaVuSans-20" x="1094.888672"/>
      <use xlink:href="#DejaVuSans-4d" x="1126.675781"/>
      <use xlink:href="#DejaVuSans-57" x="1212.955078"/>
     </g>
    </g>
   </g>
   <g id="patch_203">
    <path d="M 138.24 514.17792 
L 138.24 69.32736 
" style="fill: none; stroke: #000000; stroke-width: 0.8; stroke-linejoin: miter; stroke-linecap: square"/>
   </g>
   <g id="patch_204">
    <path d="M 995.328 514.17792 
L 995.328 69.32736 
" style="fill: none; stroke: #000000; stroke-width: 0.8; stroke-linejoin: miter; stroke-linecap: square"/>
   </g>
   <g id="patch_205">
    <path d="M 138.24 514.17792 
L 995.328 514.17792 
" style="fill: none; stroke: #000000; stroke-width: 0.8; stroke-linejoin: miter; stroke-linecap: square"/>
   </g>
   <g id="patch_206">
    <path d="M 138.24 69.32736 
L 995.328 69.32736 
" style="fill: none; stroke: #000000; stroke-width: 0.8; stroke-linejoin: miter; stroke-linecap: square"/>
   </g>
   <g id="legend_1">
    <g id="patch_207">
     <path d="M 706.256438 215.830485 
L 982.728 215.830485 
Q 986.328 215.830485 986.328 212.230485 
L 986.328 81.92736 
Q 986.328 78.32736 982.728 78.32736 
L 706.256438 78.32736 
Q 702.656438 78.32736 702.656438 81.92736 
L 702.656438 212.230485 
Q 702.656438 215.830485 706.256438 215.830485 
z
" style="fill: #ffffff; opacity: 0.8; stroke: #cccccc; stroke-linejoin: miter"/>
    </g>
    <g id="patch_208">
     <path d="M 709.856438 99.204547 
L 745.856438 99.204547 
L 745.856438 86.604547 
L 709.856438 86.604547 
z
" style="fill: #1f77b4"/>
    </g>
    <g id="text_20">
     <!-- Gas cooler -->
     <g transform="translate(760.256438 99.204547) scale(0.18 -0.18)">
      <defs>
       <path id="DejaVuSans-47" d="M 3809 666 
L 3809 1919 
L 2778 1919 
L 2778 2438 
L 4434 2438 
L 4434 434 
Q 4069 175 3628 42 
Q 3188 -91 2688 -91 
Q 1594 -91 976 548 
Q 359 1188 359 2328 
Q 359 3472 976 4111 
Q 1594 4750 2688 4750 
Q 3144 4750 3555 4637 
Q 3966 4525 4313 4306 
L 4313 3634 
Q 3963 3931 3569 4081 
Q 3175 4231 2741 4231 
Q 1884 4231 1454 3753 
Q 1025 3275 1025 2328 
Q 1025 1384 1454 906 
Q 1884 428 2741 428 
Q 3075 428 3337 486 
Q 3600 544 3809 666 
z
" transform="scale(0.015625)"/>
       <path id="DejaVuSans-6c" d="M 603 4863 
L 1178 4863 
L 1178 0 
L 603 0 
L 603 4863 
z
" transform="scale(0.015625)"/>
      </defs>
      <use xlink:href="#DejaVuSans-47"/>
      <use xlink:href="#DejaVuSans-61" x="77.490234"/>
      <use xlink:href="#DejaVuSans-73" x="138.769531"/>
      <use xlink:href="#DejaVuSans-20" x="190.869141"/>
      <use xlink:href="#DejaVuSans-63" x="222.65625"/>
      <use xlink:href="#DejaVuSans-6f" x="277.636719"/>
      <use xlink:href="#DejaVuSans-6f" x="338.818359"/>
      <use xlink:href="#DejaVuSans-6c" x="400"/>
      <use xlink:href="#DejaVuSans-65" x="427.783203"/>
      <use xlink:href="#DejaVuSans-72" x="489.306641"/>
     </g>
    </g>
    <g id="patch_209">
     <path d="M 709.856438 125.625172 
L 745.856438 125.625172 
L 745.856438 113.025172 
L 709.856438 113.025172 
z
" style="fill: #ff7f0e"/>
    </g>
    <g id="text_21">
     <!-- Evaporator -->
     <g transform="translate(760.256438 125.625172) scale(0.18 -0.18)">
      <defs>
       <path id="DejaVuSans-70" d="M 1159 525 
L 1159 -1331 
L 581 -1331 
L 581 3500 
L 1159 3500 
L 1159 2969 
Q 1341 3281 1617 3432 
Q 1894 3584 2278 3584 
Q 2916 3584 3314 3078 
Q 3713 2572 3713 1747 
Q 3713 922 3314 415 
Q 2916 -91 2278 -91 
Q 1894 -91 1617 61 
Q 1341 213 1159 525 
z
M 3116 1747 
Q 3116 2381 2855 2742 
Q 2594 3103 2138 3103 
Q 1681 3103 1420 2742 
Q 1159 2381 1159 1747 
Q 1159 1113 1420 752 
Q 1681 391 2138 391 
Q 2594 391 2855 752 
Q 3116 1113 3116 1747 
z
" transform="scale(0.015625)"/>
      </defs>
      <use xlink:href="#DejaVuSans-45"/>
      <use xlink:href="#DejaVuSans-76" x="63.183594"/>
      <use xlink:href="#DejaVuSans-61" x="122.363281"/>
      <use xlink:href="#DejaVuSans-70" x="183.642578"/>
      <use xlink:href="#DejaVuSans-6f" x="247.119141"/>
      <use xlink:href="#DejaVuSans-72" x="308.300781"/>
      <use xlink:href="#DejaVuSans-61" x="349.414062"/>
      <use xlink:href="#DejaVuSans-74" x="410.693359"/>
      <use xlink:href="#DejaVuSans-6f" x="449.902344"/>
      <use xlink:href="#DejaVuSans-72" x="511.083984"/>
     </g>
    </g>
    <g id="patch_210">
     <path d="M 709.856438 152.045797 
L 745.856438 152.045797 
L 745.856438 139.445797 
L 709.856438 139.445797 
z
" style="fill: #2ca02c"/>
    </g>
    <g id="text_22">
     <!-- Valve -->
     <g transform="translate(760.256438 152.045797) scale(0.18 -0.18)">
      <defs>
       <path id="DejaVuSans-56" d="M 1831 0 
L 50 4666 
L 709 4666 
L 2188 738 
L 3669 4666 
L 4325 4666 
L 2547 0 
L 1831 0 
z
" transform="scale(0.015625)"/>
      </defs>
      <use xlink:href="#DejaVuSans-56"/>
      <use xlink:href="#DejaVuSans-61" x="60.658203"/>
      <use xlink:href="#DejaVuSans-6c" x="121.9375"/>
      <use xlink:href="#DejaVuSans-76" x="149.720703"/>
      <use xlink:href="#DejaVuSans-65" x="208.900391"/>
     </g>
    </g>
    <g id="patch_211">
     <path d="M 709.856438 178.466422 
L 745.856438 178.466422 
L 745.856438 165.866422 
L 709.856438 165.866422 
z
" style="fill: #d62728"/>
    </g>
    <g id="text_23">
     <!-- Compressor -->
     <g transform="translate(760.256438 178.466422) scale(0.18 -0.18)">
      <defs>
       <path id="DejaVuSans-43" d="M 4122 4306 
L 4122 3641 
Q 3803 3938 3442 4084 
Q 3081 4231 2675 4231 
Q 1875 4231 1450 3742 
Q 1025 3253 1025 2328 
Q 1025 1406 1450 917 
Q 1875 428 2675 428 
Q 3081 428 3442 575 
Q 3803 722 4122 1019 
L 4122 359 
Q 3791 134 3420 21 
Q 3050 -91 2638 -91 
Q 1578 -91 968 557 
Q 359 1206 359 2328 
Q 359 3453 968 4101 
Q 1578 4750 2638 4750 
Q 3056 4750 3426 4639 
Q 3797 4528 4122 4306 
z
" transform="scale(0.015625)"/>
       <path id="DejaVuSans-6d" d="M 3328 2828 
Q 3544 3216 3844 3400 
Q 4144 3584 4550 3584 
Q 5097 3584 5394 3201 
Q 5691 2819 5691 2113 
L 5691 0 
L 5113 0 
L 5113 2094 
Q 5113 2597 4934 2840 
Q 4756 3084 4391 3084 
Q 3944 3084 3684 2787 
Q 3425 2491 3425 1978 
L 3425 0 
L 2847 0 
L 2847 2094 
Q 2847 2600 2669 2842 
Q 2491 3084 2119 3084 
Q 1678 3084 1418 2786 
Q 1159 2488 1159 1978 
L 1159 0 
L 581 0 
L 581 3500 
L 1159 3500 
L 1159 2956 
Q 1356 3278 1631 3431 
Q 1906 3584 2284 3584 
Q 2666 3584 2933 3390 
Q 3200 3197 3328 2828 
z
" transform="scale(0.015625)"/>
      </defs>
      <use xlink:href="#DejaVuSans-43"/>
      <use xlink:href="#DejaVuSans-6f" x="69.824219"/>
      <use xlink:href="#DejaVuSans-6d" x="131.005859"/>
      <use xlink:href="#DejaVuSans-70" x="228.417969"/>
      <use xlink:href="#DejaVuSans-72" x="291.894531"/>
      <use xlink:href="#DejaVuSans-65" x="330.757812"/>
      <use xlink:href="#DejaVuSans-73" x="392.28125"/>
      <use xlink:href="#DejaVuSans-73" x="444.380859"/>
      <use xlink:href="#DejaVuSans-6f" x="496.480469"/>
      <use xlink:href="#DejaVuSans-72" x="557.662109"/>
     </g>
    </g>
    <g id="patch_212">
     <path d="M 709.856438 204.887047 
L 745.856438 204.887047 
L 745.856438 192.287047 
L 709.856438 192.287047 
z
" style="fill: #9467bd"/>
    </g>
    <g id="text_24">
     <!-- Internal Heat Exchanger -->
     <g transform="translate(760.256438 204.887047) scale(0.18 -0.18)">
      <defs>
       <path id="DejaVuSans-49" d="M 628 4666 
L 1259 4666 
L 1259 0 
L 628 0 
L 628 4666 
z
" transform="scale(0.015625)"/>
       <path id="DejaVuSans-48" d="M 628 4666 
L 1259 4666 
L 1259 2753 
L 3553 2753 
L 3553 4666 
L 4184 4666 
L 4184 0 
L 3553 0 
L 3553 2222 
L 1259 2222 
L 1259 0 
L 628 0 
L 628 4666 
z
" transform="scale(0.015625)"/>
      </defs>
      <use xlink:href="#DejaVuSans-49"/>
      <use xlink:href="#DejaVuSans-6e" x="29.492188"/>
      <use xlink:href="#DejaVuSans-74" x="92.871094"/>
      <use xlink:href="#DejaVuSans-65" x="132.080078"/>
      <use xlink:href="#DejaVuSans-72" x="193.603516"/>
      <use xlink:href="#DejaVuSans-6e" x="232.966797"/>
      <use xlink:href="#DejaVuSans-61" x="296.345703"/>
      <use xlink:href="#DejaVuSans-6c" x="357.625"/>
      <use xlink:href="#DejaVuSans-20" x="385.408203"/>
      <use xlink:href="#DejaVuSans-48" x="417.195312"/>
      <use xlink:href="#DejaVuSans-65" x="492.390625"/>
      <use xlink:href="#DejaVuSans-61" x="553.914062"/>
      <use xlink:href="#DejaVuSans-74" x="615.193359"/>
      <use xlink:href="#DejaVuSans-20" x="654.402344"/>
      <use xlink:href="#DejaVuSans-45" x="686.189453"/>
      <use xlink:href="#DejaVuSans-78" x="749.373047"/>
      <use xlink:href="#DejaVuSans-63" x="806.802734"/>
      <use xlink:href="#DejaVuSans-68" x="861.783203"/>
      <use xlink:href="#DejaVuSans-61" x="925.162109"/>
      <use xlink:href="#DejaVuSans-6e" x="986.441406"/>
      <use xlink:href="#DejaVuSans-67" x="1049.820312"/>
      <use xlink:href="#DejaVuSans-65" x="1113.296875"/>
      <use xlink:href="#DejaVuSans-72" x="1174.820312"/>
     </g>
    </g>
   </g>
  </g>
 </g>
 <defs>
  <clipPath id="p81a7ba1c55">
   <rect x="138.24" y="69.32736" width="857.088" height="444.85056"/>
  </clipPath>
 </defs>
</svg>
