<?xml version="1.0" encoding="utf-8" standalone="no"?>
<!DOCTYPE svg PUBLIC "-//W3C//DTD SVG 1.1//EN"
  "http://www.w3.org/Graphics/SVG/1.1/DTD/svg11.dtd">
<svg xmlns:xlink="http://www.w3.org/1999/xlink" width="1382.4pt" height="730.8pt" viewBox="0 0 1382.4 730.8" xmlns="http://www.w3.org/2000/svg" version="1.1">
 <metadata>
  <rdf:RDF xmlns:dc="http://purl.org/dc/elements/1.1/" xmlns:cc="http://creativecommons.org/ns#" xmlns:rdf="http://www.w3.org/1999/02/22-rdf-syntax-ns#">
   <cc:Work>
    <dc:type rdf:resource="http://purl.org/dc/dcmitype/StillImage"/>
    <dc:date>2023-02-19T17:26:24.172953</dc:date>
    <dc:format>image/svg+xml</dc:format>
    <dc:creator>
     <cc:Agent>
      <dc:title>Matplotlib v3.6.1, https://matplotlib.org/</dc:title>
     </cc:Agent>
    </dc:creator>
   </cc:Work>
  </rdf:RDF>
 </metadata>
 <defs>
  <style type="text/css">*{stroke-linejoin: round; stroke-linecap: butt}</style>
 </defs>
 <g id="figure_1">
  <g id="patch_1">
   <path d="M 0 730.8 
L 1382.4 730.8 
L 1382.4 0 
L 0 0 
z
" style="fill: #ffffff"/>
  </g>
  <g id="axes_1">
   <g id="patch_2">
    <path d="M 172.8 650.412 
L 1244.16 650.412 
L 1244.16 87.696 
L 172.8 87.696 
z
" style="fill: #ffffff"/>
   </g>
   <g id="patch_3">
    <path d="M 221.498182 650.412 
L 229.547468 650.412 
L 229.547468 647.270156 
L 221.498182 647.270156 
z
" clip-path="url(#pd3c335b967)" style="fill: #1f77b4"/>
   </g>
   <g id="patch_4">
    <path d="M 246.265216 650.412 
L 254.314503 650.412 
L 254.314503 646.378961 
L 246.265216 646.378961 
z
" clip-path="url(#pd3c335b967)" style="fill: #1f77b4"/>
   </g>
   <g id="patch_5">
    <path d="M 271.032251 650.412 
L 279.081537 650.412 
L 279.081537 645.310849 
L 271.032251 645.310849 
z
" clip-path="url(#pd3c335b967)" style="fill: #1f77b4"/>
   </g>
   <g id="patch_6">
    <path d="M 295.799286 650.412 
L 303.848572 650.412 
L 303.848572 644.146659 
L 295.799286 644.146659 
z
" clip-path="url(#pd3c335b967)" style="fill: #1f77b4"/>
   </g>
   <g id="patch_7">
    <path d="M 320.56632 650.412 
L 328.615607 650.412 
L 328.615607 642.928119 
L 320.56632 642.928119 
z
" clip-path="url(#pd3c335b967)" style="fill: #1f77b4"/>
   </g>
   <g id="patch_8">
    <path d="M 345.333355 650.412 
L 353.382641 650.412 
L 353.382641 641.679487 
L 345.333355 641.679487 
z
" clip-path="url(#pd3c335b967)" style="fill: #1f77b4"/>
   </g>
   <g id="patch_9">
    <path d="M 370.10039 650.412 
L 378.149676 650.412 
L 378.149676 640.415992 
L 370.10039 640.415992 
z
" clip-path="url(#pd3c335b967)" style="fill: #1f77b4"/>
   </g>
   <g id="patch_10">
    <path d="M 394.867424 650.412 
L 402.91671 650.412 
L 402.91671 639.147716 
L 394.867424 639.147716 
z
" clip-path="url(#pd3c335b967)" style="fill: #1f77b4"/>
   </g>
   <g id="patch_11">
    <path d="M 419.634459 650.412 
L 427.683745 650.412 
L 427.683745 637.881591 
L 419.634459 637.881591 
z
" clip-path="url(#pd3c335b967)" style="fill: #1f77b4"/>
   </g>
   <g id="patch_12">
    <path d="M 444.401493 650.412 
L 452.45078 650.412 
L 452.45078 636.622515 
L 444.401493 636.622515 
z
" clip-path="url(#pd3c335b967)" style="fill: #1f77b4"/>
   </g>
   <g id="patch_13">
    <path d="M 469.168528 650.412 
L 477.217814 650.412 
L 477.217814 635.374016 
L 469.168528 635.374016 
z
" clip-path="url(#pd3c335b967)" style="fill: #1f77b4"/>
   </g>
   <g id="patch_14">
    <path d="M 493.935563 650.412 
L 501.984849 650.412 
L 501.984849 634.138671 
L 493.935563 634.138671 
z
" clip-path="url(#pd3c335b967)" style="fill: #1f77b4"/>
   </g>
   <g id="patch_15">
    <path d="M 518.702597 650.412 
L 526.751883 650.412 
L 526.751883 632.91837 
L 518.702597 632.91837 
z
" clip-path="url(#pd3c335b967)" style="fill: #1f77b4"/>
   </g>
   <g id="patch_16">
    <path d="M 543.469632 650.412 
L 551.518918 650.412 
L 551.518918 631.714506 
L 543.469632 631.714506 
z
" clip-path="url(#pd3c335b967)" style="fill: #1f77b4"/>
   </g>
   <g id="patch_17">
    <path d="M 568.236666 650.412 
L 576.285953 650.412 
L 576.285953 630.528099 
L 568.236666 630.528099 
z
" clip-path="url(#pd3c335b967)" style="fill: #1f77b4"/>
   </g>
   <g id="patch_18">
    <path d="M 593.003701 650.412 
L 601.052987 650.412 
L 601.052987 629.359887 
L 593.003701 629.359887 
z
" clip-path="url(#pd3c335b967)" style="fill: #1f77b4"/>
   </g>
   <g id="patch_19">
    <path d="M 617.770736 650.412 
L 625.820022 650.412 
L 625.820022 628.210388 
L 617.770736 628.210388 
z
" clip-path="url(#pd3c335b967)" style="fill: #1f77b4"/>
   </g>
   <g id="patch_20">
    <path d="M 642.53777 650.412 
L 650.587057 650.412 
L 650.587057 627.079955 
L 642.53777 627.079955 
z
" clip-path="url(#pd3c335b967)" style="fill: #1f77b4"/>
   </g>
   <g id="patch_21">
    <path d="M 667.304805 650.412 
L 675.354091 650.412 
L 675.354091 625.968808 
L 667.304805 625.968808 
z
" clip-path="url(#pd3c335b967)" style="fill: #1f77b4"/>
   </g>
   <g id="patch_22">
    <path d="M 692.07184 650.412 
L 700.121126 650.412 
L 700.121126 624.877061 
L 692.07184 624.877061 
z
" clip-path="url(#pd3c335b967)" style="fill: #1f77b4"/>
   </g>
   <g id="patch_23">
    <path d="M 716.838874 650.412 
L 724.88816 650.412 
L 724.88816 623.804744 
L 716.838874 623.804744 
z
" clip-path="url(#pd3c335b967)" style="fill: #1f77b4"/>
   </g>
   <g id="patch_24">
    <path d="M 741.605909 650.412 
L 749.655195 650.412 
L 749.655195 622.751832 
L 741.605909 622.751832 
z
" clip-path="url(#pd3c335b967)" style="fill: #1f77b4"/>
   </g>
   <g id="patch_25">
    <path d="M 766.372943 650.412 
L 774.42223 650.412 
L 774.42223 621.718235 
L 766.372943 621.718235 
z
" clip-path="url(#pd3c335b967)" style="fill: #1f77b4"/>
   </g>
   <g id="patch_26">
    <path d="M 791.139978 650.412 
L 799.189264 650.412 
L 799.189264 620.703824 
L 791.139978 620.703824 
z
" clip-path="url(#pd3c335b967)" style="fill: #1f77b4"/>
   </g>
   <g id="patch_27">
    <path d="M 815.907013 650.412 
L 823.956299 650.412 
L 823.956299 619.708437 
L 815.907013 619.708437 
z
" clip-path="url(#pd3c335b967)" style="fill: #1f77b4"/>
   </g>
   <g id="patch_28">
    <path d="M 840.674047 650.412 
L 848.723334 650.412 
L 848.723334 618.731885 
L 840.674047 618.731885 
z
" clip-path="url(#pd3c335b967)" style="fill: #1f77b4"/>
   </g>
   <g id="patch_29">
    <path d="M 865.441082 650.412 
L 873.490368 650.412 
L 873.490368 617.773957 
L 865.441082 617.773957 
z
" clip-path="url(#pd3c335b967)" style="fill: #1f77b4"/>
   </g>
   <g id="patch_30">
    <path d="M 890.208117 650.412 
L 898.257403 650.412 
L 898.257403 616.834424 
L 890.208117 616.834424 
z
" clip-path="url(#pd3c335b967)" style="fill: #1f77b4"/>
   </g>
   <g id="patch_31">
    <path d="M 914.975151 650.412 
L 923.024437 650.412 
L 923.024437 615.913045 
L 914.975151 615.913045 
z
" clip-path="url(#pd3c335b967)" style="fill: #1f77b4"/>
   </g>
   <g id="patch_32">
    <path d="M 939.742186 650.412 
L 947.791472 650.412 
L 947.791472 615.009568 
L 939.742186 615.009568 
z
" clip-path="url(#pd3c335b967)" style="fill: #1f77b4"/>
   </g>
   <g id="patch_33">
    <path d="M 964.50922 650.412 
L 972.558507 650.412 
L 972.558507 614.123733 
L 964.50922 614.123733 
z
" clip-path="url(#pd3c335b967)" style="fill: #1f77b4"/>
   </g>
   <g id="patch_34">
    <path d="M 989.276255 650.412 
L 997.325541 650.412 
L 997.325541 613.255275 
L 989.276255 613.255275 
z
" clip-path="url(#pd3c335b967)" style="fill: #1f77b4"/>
   </g>
   <g id="patch_35">
    <path d="M 1014.04329 650.412 
L 1022.092576 650.412 
L 1022.092576 612.403923 
L 1014.04329 612.403923 
z
" clip-path="url(#pd3c335b967)" style="fill: #1f77b4"/>
   </g>
   <g id="patch_36">
    <path d="M 1038.810324 650.412 
L 1046.85961 650.412 
L 1046.85961 611.569406 
L 1038.810324 611.569406 
z
" clip-path="url(#pd3c335b967)" style="fill: #1f77b4"/>
   </g>
   <g id="patch_37">
    <path d="M 1063.577359 650.412 
L 1071.626645 650.412 
L 1071.626645 610.751448 
L 1063.577359 610.751448 
z
" clip-path="url(#pd3c335b967)" style="fill: #1f77b4"/>
   </g>
   <g id="patch_38">
    <path d="M 1088.344393 650.412 
L 1096.39368 650.412 
L 1096.39368 609.949777 
L 1088.344393 609.949777 
z
" clip-path="url(#pd3c335b967)" style="fill: #1f77b4"/>
   </g>
   <g id="patch_39">
    <path d="M 1113.111428 650.412 
L 1121.160714 650.412 
L 1121.160714 609.164117 
L 1113.111428 609.164117 
z
" clip-path="url(#pd3c335b967)" style="fill: #1f77b4"/>
   </g>
   <g id="patch_40">
    <path d="M 1137.878463 650.412 
L 1145.927749 650.412 
L 1145.927749 608.394196 
L 1137.878463 608.394196 
z
" clip-path="url(#pd3c335b967)" style="fill: #1f77b4"/>
   </g>
   <g id="patch_41">
    <path d="M 1162.645497 650.412 
L 1170.694784 650.412 
L 1170.694784 607.639743 
L 1162.645497 607.639743 
z
" clip-path="url(#pd3c335b967)" style="fill: #1f77b4"/>
   </g>
   <g id="patch_42">
    <path d="M 1187.412532 650.412 
L 1195.461818 650.412 
L 1195.461818 606.900488 
L 1187.412532 606.900488 
z
" clip-path="url(#pd3c335b967)" style="fill: #1f77b4"/>
   </g>
   <g id="patch_43">
    <path d="M 221.498182 647.270156 
L 229.547468 647.270156 
L 229.547468 627.544494 
L 221.498182 627.544494 
z
" clip-path="url(#pd3c335b967)" style="fill: #ff7f0e"/>
   </g>
   <g id="patch_44">
    <path d="M 246.265216 646.378961 
L 254.314503 646.378961 
L 254.314503 626.611394 
L 246.265216 626.611394 
z
" clip-path="url(#pd3c335b967)" style="fill: #ff7f0e"/>
   </g>
   <g id="patch_45">
    <path d="M 271.032251 645.310849 
L 279.081537 645.310849 
L 279.081537 625.516797 
L 271.032251 625.516797 
z
" clip-path="url(#pd3c335b967)" style="fill: #ff7f0e"/>
   </g>
   <g id="patch_46">
    <path d="M 295.799286 644.146659 
L 303.848572 644.146659 
L 303.848572 624.33573 
L 295.799286 624.33573 
z
" clip-path="url(#pd3c335b967)" style="fill: #ff7f0e"/>
   </g>
   <g id="patch_47">
    <path d="M 320.56632 642.928119 
L 328.615607 642.928119 
L 328.615607 623.106866 
L 320.56632 623.106866 
z
" clip-path="url(#pd3c335b967)" style="fill: #ff7f0e"/>
   </g>
   <g id="patch_48">
    <path d="M 345.333355 641.679487 
L 353.382641 641.679487 
L 353.382641 621.852648 
L 345.333355 621.852648 
z
" clip-path="url(#pd3c335b967)" style="fill: #ff7f0e"/>
   </g>
   <g id="patch_49">
    <path d="M 370.10039 640.415992 
L 378.149676 640.415992 
L 378.149676 620.587135 
L 370.10039 620.587135 
z
" clip-path="url(#pd3c335b967)" style="fill: #ff7f0e"/>
   </g>
   <g id="patch_50">
    <path d="M 394.867424 639.147716 
L 402.91671 639.147716 
L 402.91671 619.319606 
L 394.867424 619.319606 
z
" clip-path="url(#pd3c335b967)" style="fill: #ff7f0e"/>
   </g>
   <g id="patch_51">
    <path d="M 419.634459 637.881591 
L 427.683745 637.881591 
L 427.683745 618.056423 
L 419.634459 618.056423 
z
" clip-path="url(#pd3c335b967)" style="fill: #ff7f0e"/>
   </g>
   <g id="patch_52">
    <path d="M 444.401493 636.622515 
L 452.45078 636.622515 
L 452.45078 616.802061 
L 444.401493 616.802061 
z
" clip-path="url(#pd3c335b967)" style="fill: #ff7f0e"/>
   </g>
   <g id="patch_53">
    <path d="M 469.168528 635.374016 
L 477.217814 635.374016 
L 477.217814 615.559726 
L 469.168528 615.559726 
z
" clip-path="url(#pd3c335b967)" style="fill: #ff7f0e"/>
   </g>
   <g id="patch_54">
    <path d="M 493.935563 634.138671 
L 501.984849 634.138671 
L 501.984849 614.331743 
L 493.935563 614.331743 
z
" clip-path="url(#pd3c335b967)" style="fill: #ff7f0e"/>
   </g>
   <g id="patch_55">
    <path d="M 518.702597 632.91837 
L 526.751883 632.91837 
L 526.751883 613.119807 
L 518.702597 613.119807 
z
" clip-path="url(#pd3c335b967)" style="fill: #ff7f0e"/>
   </g>
   <g id="patch_56">
    <path d="M 543.469632 631.714506 
L 551.518918 631.714506 
L 551.518918 611.925152 
L 543.469632 611.925152 
z
" clip-path="url(#pd3c335b967)" style="fill: #ff7f0e"/>
   </g>
   <g id="patch_57">
    <path d="M 568.236666 630.528099 
L 576.285953 630.528099 
L 576.285953 610.748665 
L 568.236666 610.748665 
z
" clip-path="url(#pd3c335b967)" style="fill: #ff7f0e"/>
   </g>
   <g id="patch_58">
    <path d="M 593.003701 629.359887 
L 601.052987 629.359887 
L 601.052987 609.590978 
L 593.003701 609.590978 
z
" clip-path="url(#pd3c335b967)" style="fill: #ff7f0e"/>
   </g>
   <g id="patch_59">
    <path d="M 617.770736 628.210388 
L 625.820022 628.210388 
L 625.820022 608.452521 
L 617.770736 608.452521 
z
" clip-path="url(#pd3c335b967)" style="fill: #ff7f0e"/>
   </g>
   <g id="patch_60">
    <path d="M 642.53777 627.079955 
L 650.587057 627.079955 
L 650.587057 607.333571 
L 642.53777 607.333571 
z
" clip-path="url(#pd3c335b967)" style="fill: #ff7f0e"/>
   </g>
   <g id="patch_61">
    <path d="M 667.304805 625.968808 
L 675.354091 625.968808 
L 675.354091 606.234284 
L 667.304805 606.234284 
z
" clip-path="url(#pd3c335b967)" style="fill: #ff7f0e"/>
   </g>
   <g id="patch_62">
    <path d="M 692.07184 624.877061 
L 700.121126 624.877061 
L 700.121126 605.15472 
L 692.07184 605.15472 
z
" clip-path="url(#pd3c335b967)" style="fill: #ff7f0e"/>
   </g>
   <g id="patch_63">
    <path d="M 716.838874 623.804744 
L 724.88816 623.804744 
L 724.88816 604.094861 
L 716.838874 604.094861 
z
" clip-path="url(#pd3c335b967)" style="fill: #ff7f0e"/>
   </g>
   <g id="patch_64">
    <path d="M 741.605909 622.751832 
L 749.655195 622.751832 
L 749.655195 603.054643 
L 741.605909 603.054643 
z
" clip-path="url(#pd3c335b967)" style="fill: #ff7f0e"/>
   </g>
   <g id="patch_65">
    <path d="M 766.372943 621.718235 
L 774.42223 621.718235 
L 774.42223 602.033941 
L 766.372943 602.033941 
z
" clip-path="url(#pd3c335b967)" style="fill: #ff7f0e"/>
   </g>
   <g id="patch_66">
    <path d="M 791.139978 620.703824 
L 799.189264 620.703824 
L 799.189264 601.032595 
L 791.139978 601.032595 
z
" clip-path="url(#pd3c335b967)" style="fill: #ff7f0e"/>
   </g>
   <g id="patch_67">
    <path d="M 815.907013 619.708437 
L 823.956299 619.708437 
L 823.956299 600.050416 
L 815.907013 600.050416 
z
" clip-path="url(#pd3c335b967)" style="fill: #ff7f0e"/>
   </g>
   <g id="patch_68">
    <path d="M 840.674047 618.731885 
L 848.723334 618.731885 
L 848.723334 599.087192 
L 840.674047 599.087192 
z
" clip-path="url(#pd3c335b967)" style="fill: #ff7f0e"/>
   </g>
   <g id="patch_69">
    <path d="M 865.441082 617.773957 
L 873.490368 617.773957 
L 873.490368 598.142691 
L 865.441082 598.142691 
z
" clip-path="url(#pd3c335b967)" style="fill: #ff7f0e"/>
   </g>
   <g id="patch_70">
    <path d="M 890.208117 616.834424 
L 898.257403 616.834424 
L 898.257403 597.216666 
L 890.208117 597.216666 
z
" clip-path="url(#pd3c335b967)" style="fill: #ff7f0e"/>
   </g>
   <g id="patch_71">
    <path d="M 914.975151 615.913045 
L 923.024437 615.913045 
L 923.024437 596.30886 
L 914.975151 596.30886 
z
" clip-path="url(#pd3c335b967)" style="fill: #ff7f0e"/>
   </g>
   <g id="patch_72">
    <path d="M 939.742186 615.009568 
L 947.791472 615.009568 
L 947.791472 595.419006 
L 939.742186 595.419006 
z
" clip-path="url(#pd3c335b967)" style="fill: #ff7f0e"/>
   </g>
   <g id="patch_73">
    <path d="M 964.50922 614.123733 
L 972.558507 614.123733 
L 972.558507 594.546833 
L 964.50922 594.546833 
z
" clip-path="url(#pd3c335b967)" style="fill: #ff7f0e"/>
   </g>
   <g id="patch_74">
    <path d="M 989.276255 613.255275 
L 997.325541 613.255275 
L 997.325541 593.692062 
L 989.276255 593.692062 
z
" clip-path="url(#pd3c335b967)" style="fill: #ff7f0e"/>
   </g>
   <g id="patch_75">
    <path d="M 1014.04329 612.403923 
L 1022.092576 612.403923 
L 1022.092576 592.854413 
L 1014.04329 592.854413 
z
" clip-path="url(#pd3c335b967)" style="fill: #ff7f0e"/>
   </g>
   <g id="patch_76">
    <path d="M 1038.810324 611.569406 
L 1046.85961 611.569406 
L 1046.85961 592.033606 
L 1038.810324 592.033606 
z
" clip-path="url(#pd3c335b967)" style="fill: #ff7f0e"/>
   </g>
   <g id="patch_77">
    <path d="M 1063.577359 610.751448 
L 1071.626645 610.751448 
L 1071.626645 591.229358 
L 1063.577359 591.229358 
z
" clip-path="url(#pd3c335b967)" style="fill: #ff7f0e"/>
   </g>
   <g id="patch_78">
    <path d="M 1088.344393 609.949777 
L 1096.39368 609.949777 
L 1096.39368 590.441388 
L 1088.344393 590.441388 
z
" clip-path="url(#pd3c335b967)" style="fill: #ff7f0e"/>
   </g>
   <g id="patch_79">
    <path d="M 1113.111428 609.164117 
L 1121.160714 609.164117 
L 1121.160714 589.669414 
L 1113.111428 589.669414 
z
" clip-path="url(#pd3c335b967)" style="fill: #ff7f0e"/>
   </g>
   <g id="patch_80">
    <path d="M 1137.878463 608.394196 
L 1145.927749 608.394196 
L 1145.927749 588.913158 
L 1137.878463 588.913158 
z
" clip-path="url(#pd3c335b967)" style="fill: #ff7f0e"/>
   </g>
   <g id="patch_81">
    <path d="M 1162.645497 607.639743 
L 1170.694784 607.639743 
L 1170.694784 588.172344 
L 1162.645497 588.172344 
z
" clip-path="url(#pd3c335b967)" style="fill: #ff7f0e"/>
   </g>
   <g id="patch_82">
    <path d="M 1187.412532 606.900488 
L 1195.461818 606.900488 
L 1195.461818 587.446698 
L 1187.412532 587.446698 
z
" clip-path="url(#pd3c335b967)" style="fill: #ff7f0e"/>
   </g>
   <g id="patch_83">
    <path d="M 221.498182 627.544494 
L 229.547468 627.544494 
L 229.547468 473.232317 
L 221.498182 473.232317 
z
" clip-path="url(#pd3c335b967)" style="fill: #2ca02c"/>
   </g>
   <g id="patch_84">
    <path d="M 246.265216 626.611394 
L 254.314503 626.611394 
L 254.314503 476.162912 
L 246.265216 476.162912 
z
" clip-path="url(#pd3c335b967)" style="fill: #2ca02c"/>
   </g>
   <g id="patch_85">
    <path d="M 271.032251 625.516797 
L 279.081537 625.516797 
L 279.081537 477.955451 
L 271.032251 477.955451 
z
" clip-path="url(#pd3c335b967)" style="fill: #2ca02c"/>
   </g>
   <g id="patch_86">
    <path d="M 295.799286 624.33573 
L 303.848572 624.33573 
L 303.848572 479.046578 
L 295.799286 479.046578 
z
" clip-path="url(#pd3c335b967)" style="fill: #2ca02c"/>
   </g>
   <g id="patch_87">
    <path d="M 320.56632 623.106866 
L 328.615607 623.106866 
L 328.615607 479.664552 
L 320.56632 479.664552 
z
" clip-path="url(#pd3c335b967)" style="fill: #2ca02c"/>
   </g>
   <g id="patch_88">
    <path d="M 345.333355 621.852648 
L 353.382641 621.852648 
L 353.382641 479.94434 
L 345.333355 479.94434 
z
" clip-path="url(#pd3c335b967)" style="fill: #2ca02c"/>
   </g>
   <g id="patch_89">
    <path d="M 370.10039 620.587135 
L 378.149676 620.587135 
L 378.149676 479.972555 
L 370.10039 479.972555 
z
" clip-path="url(#pd3c335b967)" style="fill: #2ca02c"/>
   </g>
   <g id="patch_90">
    <path d="M 394.867424 619.319606 
L 402.91671 619.319606 
L 402.91671 479.808129 
L 394.867424 479.808129 
z
" clip-path="url(#pd3c335b967)" style="fill: #2ca02c"/>
   </g>
   <g id="patch_91">
    <path d="M 419.634459 618.056423 
L 427.683745 618.056423 
L 427.683745 479.492963 
L 419.634459 479.492963 
z
" clip-path="url(#pd3c335b967)" style="fill: #2ca02c"/>
   </g>
   <g id="patch_92">
    <path d="M 444.401493 616.802061 
L 452.45078 616.802061 
L 452.45078 479.057886 
L 444.401493 479.057886 
z
" clip-path="url(#pd3c335b967)" style="fill: #2ca02c"/>
   </g>
   <g id="patch_93">
    <path d="M 469.168528 615.559726 
L 477.217814 615.559726 
L 477.217814 478.526213 
L 469.168528 478.526213 
z
" clip-path="url(#pd3c335b967)" style="fill: #2ca02c"/>
   </g>
   <g id="patch_94">
    <path d="M 493.935563 614.331743 
L 501.984849 614.331743 
L 501.984849 477.91597 
L 493.935563 477.91597 
z
" clip-path="url(#pd3c335b967)" style="fill: #2ca02c"/>
   </g>
   <g id="patch_95">
    <path d="M 518.702597 613.119807 
L 526.751883 613.119807 
L 526.751883 477.241361 
L 518.702597 477.241361 
z
" clip-path="url(#pd3c335b967)" style="fill: #2ca02c"/>
   </g>
   <g id="patch_96">
    <path d="M 543.469632 611.925152 
L 551.518918 611.925152 
L 551.518918 476.513746 
L 543.469632 476.513746 
z
" clip-path="url(#pd3c335b967)" style="fill: #2ca02c"/>
   </g>
   <g id="patch_97">
    <path d="M 568.236666 610.748665 
L 576.285953 610.748665 
L 576.285953 475.742341 
L 568.236666 475.742341 
z
" clip-path="url(#pd3c335b967)" style="fill: #2ca02c"/>
   </g>
   <g id="patch_98">
    <path d="M 593.003701 609.590978 
L 601.052987 609.590978 
L 601.052987 474.934699 
L 593.003701 474.934699 
z
" clip-path="url(#pd3c335b967)" style="fill: #2ca02c"/>
   </g>
   <g id="patch_99">
    <path d="M 617.770736 608.452521 
L 625.820022 608.452521 
L 625.820022 474.097076 
L 617.770736 474.097076 
z
" clip-path="url(#pd3c335b967)" style="fill: #2ca02c"/>
   </g>
   <g id="patch_100">
    <path d="M 642.53777 607.333571 
L 650.587057 607.333571 
L 650.587057 473.234698 
L 642.53777 473.234698 
z
" clip-path="url(#pd3c335b967)" style="fill: #2ca02c"/>
   </g>
   <g id="patch_101">
    <path d="M 667.304805 606.234284 
L 675.354091 606.234284 
L 675.354091 472.351961 
L 667.304805 472.351961 
z
" clip-path="url(#pd3c335b967)" style="fill: #2ca02c"/>
   </g>
   <g id="patch_102">
    <path d="M 692.07184 605.15472 
L 700.121126 605.15472 
L 700.121126 471.452588 
L 692.07184 471.452588 
z
" clip-path="url(#pd3c335b967)" style="fill: #2ca02c"/>
   </g>
   <g id="patch_103">
    <path d="M 716.838874 604.094861 
L 724.88816 604.094861 
L 724.88816 470.539745 
L 716.838874 470.539745 
z
" clip-path="url(#pd3c335b967)" style="fill: #2ca02c"/>
   </g>
   <g id="patch_104">
    <path d="M 741.605909 603.054643 
L 749.655195 603.054643 
L 749.655195 469.616156 
L 741.605909 469.616156 
z
" clip-path="url(#pd3c335b967)" style="fill: #2ca02c"/>
   </g>
   <g id="patch_105">
    <path d="M 766.372943 602.033941 
L 774.42223 602.033941 
L 774.42223 468.684148 
L 766.372943 468.684148 
z
" clip-path="url(#pd3c335b967)" style="fill: #2ca02c"/>
   </g>
   <g id="patch_106">
    <path d="M 791.139978 601.032595 
L 799.189264 601.032595 
L 799.189264 467.745735 
L 791.139978 467.745735 
z
" clip-path="url(#pd3c335b967)" style="fill: #2ca02c"/>
   </g>
   <g id="patch_107">
    <path d="M 815.907013 600.050416 
L 823.956299 600.050416 
L 823.956299 466.802659 
L 815.907013 466.802659 
z
" clip-path="url(#pd3c335b967)" style="fill: #2ca02c"/>
   </g>
   <g id="patch_108">
    <path d="M 840.674047 599.087192 
L 848.723334 599.087192 
L 848.723334 465.856435 
L 840.674047 465.856435 
z
" clip-path="url(#pd3c335b967)" style="fill: #2ca02c"/>
   </g>
   <g id="patch_109">
    <path d="M 865.441082 598.142691 
L 873.490368 598.142691 
L 873.490368 464.908377 
L 865.441082 464.908377 
z
" clip-path="url(#pd3c335b967)" style="fill: #2ca02c"/>
   </g>
   <g id="patch_110">
    <path d="M 890.208117 597.216666 
L 898.257403 597.216666 
L 898.257403 463.959634 
L 890.208117 463.959634 
z
" clip-path="url(#pd3c335b967)" style="fill: #2ca02c"/>
   </g>
   <g id="patch_111">
    <path d="M 914.975151 596.30886 
L 923.024437 596.30886 
L 923.024437 463.01121 
L 914.975151 463.01121 
z
" clip-path="url(#pd3c335b967)" style="fill: #2ca02c"/>
   </g>
   <g id="patch_112">
    <path d="M 939.742186 595.419006 
L 947.791472 595.419006 
L 947.791472 462.06398 
L 939.742186 462.06398 
z
" clip-path="url(#pd3c335b967)" style="fill: #2ca02c"/>
   </g>
   <g id="patch_113">
    <path d="M 964.50922 594.546833 
L 972.558507 594.546833 
L 972.558507 461.118712 
L 964.50922 461.118712 
z
" clip-path="url(#pd3c335b967)" style="fill: #2ca02c"/>
   </g>
   <g id="patch_114">
    <path d="M 989.276255 593.692062 
L 997.325541 593.692062 
L 997.325541 460.176078 
L 989.276255 460.176078 
z
" clip-path="url(#pd3c335b967)" style="fill: #2ca02c"/>
   </g>
   <g id="patch_115">
    <path d="M 1014.04329 592.854413 
L 1022.092576 592.854413 
L 1022.092576 459.236664 
L 1014.04329 459.236664 
z
" clip-path="url(#pd3c335b967)" style="fill: #2ca02c"/>
   </g>
   <g id="patch_116">
    <path d="M 1038.810324 592.033606 
L 1046.85961 592.033606 
L 1046.85961 458.300987 
L 1038.810324 458.300987 
z
" clip-path="url(#pd3c335b967)" style="fill: #2ca02c"/>
   </g>
   <g id="patch_117">
    <path d="M 1063.577359 591.229358 
L 1071.626645 591.229358 
L 1071.626645 457.369495 
L 1063.577359 457.369495 
z
" clip-path="url(#pd3c335b967)" style="fill: #2ca02c"/>
   </g>
   <g id="patch_118">
    <path d="M 1088.344393 590.441388 
L 1096.39368 590.441388 
L 1096.39368 456.442583 
L 1088.344393 456.442583 
z
" clip-path="url(#pd3c335b967)" style="fill: #2ca02c"/>
   </g>
   <g id="patch_119">
    <path d="M 1113.111428 589.669414 
L 1121.160714 589.669414 
L 1121.160714 455.520591 
L 1113.111428 455.520591 
z
" clip-path="url(#pd3c335b967)" style="fill: #2ca02c"/>
   </g>
   <g id="patch_120">
    <path d="M 1137.878463 588.913158 
L 1145.927749 588.913158 
L 1145.927749 454.603819 
L 1137.878463 454.603819 
z
" clip-path="url(#pd3c335b967)" style="fill: #2ca02c"/>
   </g>
   <g id="patch_121">
    <path d="M 1162.645497 588.172344 
L 1170.694784 588.172344 
L 1170.694784 453.692524 
L 1162.645497 453.692524 
z
" clip-path="url(#pd3c335b967)" style="fill: #2ca02c"/>
   </g>
   <g id="patch_122">
    <path d="M 1187.412532 587.446698 
L 1195.461818 587.446698 
L 1195.461818 452.78693 
L 1187.412532 452.78693 
z
" clip-path="url(#pd3c335b967)" style="fill: #2ca02c"/>
   </g>
   <g id="patch_123">
    <path d="M 221.498182 473.232317 
L 229.547468 473.232317 
L 229.547468 229.304147 
L 221.498182 229.304147 
z
" clip-path="url(#pd3c335b967)" style="fill: #d62728"/>
   </g>
   <g id="patch_124">
    <path d="M 246.265216 476.162912 
L 254.314503 476.162912 
L 254.314503 233.50694 
L 246.265216 233.50694 
z
" clip-path="url(#pd3c335b967)" style="fill: #d62728"/>
   </g>
   <g id="patch_125">
    <path d="M 271.032251 477.955451 
L 279.081537 477.955451 
L 279.081537 236.177709 
L 271.032251 236.177709 
z
" clip-path="url(#pd3c335b967)" style="fill: #d62728"/>
   </g>
   <g id="patch_126">
    <path d="M 295.799286 479.046578 
L 303.848572 479.046578 
L 303.848572 237.901152 
L 295.799286 237.901152 
z
" clip-path="url(#pd3c335b967)" style="fill: #d62728"/>
   </g>
   <g id="patch_127">
    <path d="M 320.56632 479.664552 
L 328.615607 479.664552 
L 328.615607 238.983443 
L 320.56632 238.983443 
z
" clip-path="url(#pd3c335b967)" style="fill: #d62728"/>
   </g>
   <g id="patch_128">
    <path d="M 345.333355 479.94434 
L 353.382641 479.94434 
L 353.382641 239.605881 
L 345.333355 239.605881 
z
" clip-path="url(#pd3c335b967)" style="fill: #d62728"/>
   </g>
   <g id="patch_129">
    <path d="M 370.10039 479.972555 
L 378.149676 479.972555 
L 378.149676 239.884968 
L 370.10039 239.884968 
z
" clip-path="url(#pd3c335b967)" style="fill: #d62728"/>
   </g>
   <g id="patch_130">
    <path d="M 394.867424 479.808129 
L 402.91671 479.808129 
L 402.91671 239.900079 
L 394.867424 239.900079 
z
" clip-path="url(#pd3c335b967)" style="fill: #d62728"/>
   </g>
   <g id="patch_131">
    <path d="M 419.634459 479.492963 
L 427.683745 479.492963 
L 427.683745 239.707726 
L 419.634459 239.707726 
z
" clip-path="url(#pd3c335b967)" style="fill: #d62728"/>
   </g>
   <g id="patch_132">
    <path d="M 444.401493 479.057886 
L 452.45078 479.057886 
L 452.45078 239.349546 
L 444.401493 239.349546 
z
" clip-path="url(#pd3c335b967)" style="fill: #d62728"/>
   </g>
   <g id="patch_133">
    <path d="M 469.168528 478.526213 
L 477.217814 478.526213 
L 477.217814 238.857069 
L 469.168528 238.857069 
z
" clip-path="url(#pd3c335b967)" style="fill: #d62728"/>
   </g>
   <g id="patch_134">
    <path d="M 493.935563 477.91597 
L 501.984849 477.91597 
L 501.984849 238.254712 
L 493.935563 238.254712 
z
" clip-path="url(#pd3c335b967)" style="fill: #d62728"/>
   </g>
   <g id="patch_135">
    <path d="M 518.702597 477.241361 
L 526.751883 477.241361 
L 526.751883 237.561738 
L 518.702597 237.561738 
z
" clip-path="url(#pd3c335b967)" style="fill: #d62728"/>
   </g>
   <g id="patch_136">
    <path d="M 543.469632 476.513746 
L 551.518918 476.513746 
L 551.518918 236.793582 
L 543.469632 236.793582 
z
" clip-path="url(#pd3c335b967)" style="fill: #d62728"/>
   </g>
   <g id="patch_137">
    <path d="M 568.236666 475.742341 
L 576.285953 475.742341 
L 576.285953 235.962782 
L 568.236666 235.962782 
z
" clip-path="url(#pd3c335b967)" style="fill: #d62728"/>
   </g>
   <g id="patch_138">
    <path d="M 593.003701 474.934699 
L 601.052987 474.934699 
L 601.052987 235.079635 
L 593.003701 235.079635 
z
" clip-path="url(#pd3c335b967)" style="fill: #d62728"/>
   </g>
   <g id="patch_139">
    <path d="M 617.770736 474.097076 
L 625.820022 474.097076 
L 625.820022 234.152683 
L 617.770736 234.152683 
z
" clip-path="url(#pd3c335b967)" style="fill: #d62728"/>
   </g>
   <g id="patch_140">
    <path d="M 642.53777 473.234698 
L 650.587057 473.234698 
L 650.587057 233.189076 
L 642.53777 233.189076 
z
" clip-path="url(#pd3c335b967)" style="fill: #d62728"/>
   </g>
   <g id="patch_141">
    <path d="M 667.304805 472.351961 
L 675.354091 472.351961 
L 675.354091 232.19484 
L 667.304805 232.19484 
z
" clip-path="url(#pd3c335b967)" style="fill: #d62728"/>
   </g>
   <g id="patch_142">
    <path d="M 692.07184 471.452588 
L 700.121126 471.452588 
L 700.121126 231.175091 
L 692.07184 231.175091 
z
" clip-path="url(#pd3c335b967)" style="fill: #d62728"/>
   </g>
   <g id="patch_143">
    <path d="M 716.838874 470.539745 
L 724.88816 470.539745 
L 724.88816 230.134194 
L 716.838874 230.134194 
z
" clip-path="url(#pd3c335b967)" style="fill: #d62728"/>
   </g>
   <g id="patch_144">
    <path d="M 741.605909 469.616156 
L 749.655195 469.616156 
L 749.655195 229.075896 
L 741.605909 229.075896 
z
" clip-path="url(#pd3c335b967)" style="fill: #d62728"/>
   </g>
   <g id="patch_145">
    <path d="M 766.372943 468.684148 
L 774.42223 468.684148 
L 774.42223 228.003425 
L 766.372943 228.003425 
z
" clip-path="url(#pd3c335b967)" style="fill: #d62728"/>
   </g>
   <g id="patch_146">
    <path d="M 791.139978 467.745735 
L 799.189264 467.745735 
L 799.189264 226.919577 
L 791.139978 226.919577 
z
" clip-path="url(#pd3c335b967)" style="fill: #d62728"/>
   </g>
   <g id="patch_147">
    <path d="M 815.907013 466.802659 
L 823.956299 466.802659 
L 823.956299 225.826776 
L 815.907013 225.826776 
z
" clip-path="url(#pd3c335b967)" style="fill: #d62728"/>
   </g>
   <g id="patch_148">
    <path d="M 840.674047 465.856435 
L 848.723334 465.856435 
L 848.723334 224.727136 
L 840.674047 224.727136 
z
" clip-path="url(#pd3c335b967)" style="fill: #d62728"/>
   </g>
   <g id="patch_149">
    <path d="M 865.441082 464.908377 
L 873.490368 464.908377 
L 873.490368 223.622502 
L 865.441082 223.622502 
z
" clip-path="url(#pd3c335b967)" style="fill: #d62728"/>
   </g>
   <g id="patch_150">
    <path d="M 890.208117 463.959634 
L 898.257403 463.959634 
L 898.257403 222.514491 
L 890.208117 222.514491 
z
" clip-path="url(#pd3c335b967)" style="fill: #d62728"/>
   </g>
   <g id="patch_151">
    <path d="M 914.975151 463.01121 
L 923.024437 463.01121 
L 923.024437 221.404518 
L 914.975151 221.404518 
z
" clip-path="url(#pd3c335b967)" style="fill: #d62728"/>
   </g>
   <g id="patch_152">
    <path d="M 939.742186 462.06398 
L 947.791472 462.06398 
L 947.791472 220.293827 
L 939.742186 220.293827 
z
" clip-path="url(#pd3c335b967)" style="fill: #d62728"/>
   </g>
   <g id="patch_153">
    <path d="M 964.50922 461.118712 
L 972.558507 461.118712 
L 972.558507 219.183512 
L 964.50922 219.183512 
z
" clip-path="url(#pd3c335b967)" style="fill: #d62728"/>
   </g>
   <g id="patch_154">
    <path d="M 989.276255 460.176078 
L 997.325541 460.176078 
L 997.325541 218.074537 
L 989.276255 218.074537 
z
" clip-path="url(#pd3c335b967)" style="fill: #d62728"/>
   </g>
   <g id="patch_155">
    <path d="M 1014.04329 459.236664 
L 1022.092576 459.236664 
L 1022.092576 216.967749 
L 1014.04329 216.967749 
z
" clip-path="url(#pd3c335b967)" style="fill: #d62728"/>
   </g>
   <g id="patch_156">
    <path d="M 1038.810324 458.300987 
L 1046.85961 458.300987 
L 1046.85961 215.863895 
L 1038.810324 215.863895 
z
" clip-path="url(#pd3c335b967)" style="fill: #d62728"/>
   </g>
   <g id="patch_157">
    <path d="M 1063.577359 457.369495 
L 1071.626645 457.369495 
L 1071.626645 214.763634 
L 1063.577359 214.763634 
z
" clip-path="url(#pd3c335b967)" style="fill: #d62728"/>
   </g>
   <g id="patch_158">
    <path d="M 1088.344393 456.442583 
L 1096.39368 456.442583 
L 1096.39368 213.667545 
L 1088.344393 213.667545 
z
" clip-path="url(#pd3c335b967)" style="fill: #d62728"/>
   </g>
   <g id="patch_159">
    <path d="M 1113.111428 455.520591 
L 1121.160714 455.520591 
L 1121.160714 212.576137 
L 1113.111428 212.576137 
z
" clip-path="url(#pd3c335b967)" style="fill: #d62728"/>
   </g>
   <g id="patch_160">
    <path d="M 1137.878463 454.603819 
L 1145.927749 454.603819 
L 1145.927749 211.489859 
L 1137.878463 211.489859 
z
" clip-path="url(#pd3c335b967)" style="fill: #d62728"/>
   </g>
   <g id="patch_161">
    <path d="M 1162.645497 453.692524 
L 1170.694784 453.692524 
L 1170.694784 210.409103 
L 1162.645497 210.409103 
z
" clip-path="url(#pd3c335b967)" style="fill: #d62728"/>
   </g>
   <g id="patch_162">
    <path d="M 1187.412532 452.78693 
L 1195.461818 452.78693 
L 1195.461818 209.334212 
L 1187.412532 209.334212 
z
" clip-path="url(#pd3c335b967)" style="fill: #d62728"/>
   </g>
   <g id="patch_163">
    <path d="M 221.498182 229.304147 
L 229.547468 229.304147 
L 229.547468 114.492 
L 221.498182 114.492 
z
" clip-path="url(#pd3c335b967)" style="fill: #9467bd"/>
   </g>
   <g id="patch_164">
    <path d="M 246.265216 233.50694 
L 254.314503 233.50694 
L 254.314503 122.130949 
L 246.265216 122.130949 
z
" clip-path="url(#pd3c335b967)" style="fill: #9467bd"/>
   </g>
   <g id="patch_165">
    <path d="M 271.032251 236.177709 
L 279.081537 236.177709 
L 279.081537 127.544563 
L 271.032251 127.544563 
z
" clip-path="url(#pd3c335b967)" style="fill: #9467bd"/>
   </g>
   <g id="patch_166">
    <path d="M 295.799286 237.901152 
L 303.848572 237.901152 
L 303.848572 131.567148 
L 295.799286 131.567148 
z
" clip-path="url(#pd3c335b967)" style="fill: #9467bd"/>
   </g>
   <g id="patch_167">
    <path d="M 320.56632 238.983443 
L 328.615607 238.983443 
L 328.615607 134.637392 
L 320.56632 134.637392 
z
" clip-path="url(#pd3c335b967)" style="fill: #9467bd"/>
   </g>
   <g id="patch_168">
    <path d="M 345.333355 239.605881 
L 353.382641 239.605881 
L 353.382641 137.016088 
L 345.333355 137.016088 
z
" clip-path="url(#pd3c335b967)" style="fill: #9467bd"/>
   </g>
   <g id="patch_169">
    <path d="M 370.10039 239.884968 
L 378.149676 239.884968 
L 378.149676 138.871472 
L 370.10039 138.871472 
z
" clip-path="url(#pd3c335b967)" style="fill: #9467bd"/>
   </g>
   <g id="patch_170">
    <path d="M 394.867424 239.900079 
L 402.91671 239.900079 
L 402.91671 140.318619 
L 394.867424 140.318619 
z
" clip-path="url(#pd3c335b967)" style="fill: #9467bd"/>
   </g>
   <g id="patch_171">
    <path d="M 419.634459 239.707726 
L 427.683745 239.707726 
L 427.683745 141.43979 
L 419.634459 141.43979 
z
" clip-path="url(#pd3c335b967)" style="fill: #9467bd"/>
   </g>
   <g id="patch_172">
    <path d="M 444.401493 239.349546 
L 452.45078 239.349546 
L 452.45078 142.295848 
L 444.401493 142.295848 
z
" clip-path="url(#pd3c335b967)" style="fill: #9467bd"/>
   </g>
   <g id="patch_173">
    <path d="M 469.168528 238.857069 
L 477.217814 238.857069 
L 477.217814 142.933088 
L 469.168528 142.933088 
z
" clip-path="url(#pd3c335b967)" style="fill: #9467bd"/>
   </g>
   <g id="patch_174">
    <path d="M 493.935563 238.254712 
L 501.984849 238.254712 
L 501.984849 143.387528 
L 493.935563 143.387528 
z
" clip-path="url(#pd3c335b967)" style="fill: #9467bd"/>
   </g>
   <g id="patch_175">
    <path d="M 518.702597 237.561738 
L 526.751883 237.561738 
L 526.751883 143.687723 
L 518.702597 143.687723 
z
" clip-path="url(#pd3c335b967)" style="fill: #9467bd"/>
   </g>
   <g id="patch_176">
    <path d="M 543.469632 236.793582 
L 551.518918 236.793582 
L 551.518918 143.856681 
L 543.469632 143.856681 
z
" clip-path="url(#pd3c335b967)" style="fill: #9467bd"/>
   </g>
   <g id="patch_177">
    <path d="M 568.236666 235.962782 
L 576.285953 235.962782 
L 576.285953 143.913188 
L 568.236666 143.913188 
z
" clip-path="url(#pd3c335b967)" style="fill: #9467bd"/>
   </g>
   <g id="patch_178">
    <path d="M 593.003701 235.079635 
L 601.052987 235.079635 
L 601.052987 143.872773 
L 593.003701 143.872773 
z
" clip-path="url(#pd3c335b967)" style="fill: #9467bd"/>
   </g>
   <g id="patch_179">
    <path d="M 617.770736 234.152683 
L 625.820022 234.152683 
L 625.820022 143.748396 
L 617.770736 143.748396 
z
" clip-path="url(#pd3c335b967)" style="fill: #9467bd"/>
   </g>
   <g id="patch_180">
    <path d="M 642.53777 233.189076 
L 650.587057 233.189076 
L 650.587057 143.55098 
L 642.53777 143.55098 
z
" clip-path="url(#pd3c335b967)" style="fill: #9467bd"/>
   </g>
   <g id="patch_181">
    <path d="M 667.304805 232.19484 
L 675.354091 232.19484 
L 675.354091 143.289799 
L 667.304805 143.289799 
z
" clip-path="url(#pd3c335b967)" style="fill: #9467bd"/>
   </g>
   <g id="patch_182">
    <path d="M 692.07184 231.175091 
L 700.121126 231.175091 
L 700.121126 142.972784 
L 692.07184 142.972784 
z
" clip-path="url(#pd3c335b967)" style="fill: #9467bd"/>
   </g>
   <g id="patch_183">
    <path d="M 716.838874 230.134194 
L 724.88816 230.134194 
L 724.88816 142.606766 
L 716.838874 142.606766 
z
" clip-path="url(#pd3c335b967)" style="fill: #9467bd"/>
   </g>
   <g id="patch_184">
    <path d="M 741.605909 229.075896 
L 749.655195 229.075896 
L 749.655195 142.197651 
L 741.605909 142.197651 
z
" clip-path="url(#pd3c335b967)" style="fill: #9467bd"/>
   </g>
   <g id="patch_185">
    <path d="M 766.372943 228.003425 
L 774.42223 228.003425 
L 774.42223 141.750582 
L 766.372943 141.750582 
z
" clip-path="url(#pd3c335b967)" style="fill: #9467bd"/>
   </g>
   <g id="patch_186">
    <path d="M 791.139978 226.919577 
L 799.189264 226.919577 
L 799.189264 141.270054 
L 791.139978 141.270054 
z
" clip-path="url(#pd3c335b967)" style="fill: #9467bd"/>
   </g>
   <g id="patch_187">
    <path d="M 815.907013 225.826776 
L 823.956299 225.826776 
L 823.956299 140.760011 
L 815.907013 140.760011 
z
" clip-path="url(#pd3c335b967)" style="fill: #9467bd"/>
   </g>
   <g id="patch_188">
    <path d="M 840.674047 224.727136 
L 848.723334 224.727136 
L 848.723334 140.223928 
L 840.674047 140.223928 
z
" clip-path="url(#pd3c335b967)" style="fill: #9467bd"/>
   </g>
   <g id="patch_189">
    <path d="M 865.441082 223.622502 
L 873.490368 223.622502 
L 873.490368 139.664878 
L 865.441082 139.664878 
z
" clip-path="url(#pd3c335b967)" style="fill: #9467bd"/>
   </g>
   <g id="patch_190">
    <path d="M 890.208117 222.514491 
L 898.257403 222.514491 
L 898.257403 139.085585 
L 890.208117 139.085585 
z
" clip-path="url(#pd3c335b967)" style="fill: #9467bd"/>
   </g>
   <g id="patch_191">
    <path d="M 914.975151 221.404518 
L 923.024437 221.404518 
L 923.024437 138.488472 
L 914.975151 138.488472 
z
" clip-path="url(#pd3c335b967)" style="fill: #9467bd"/>
   </g>
   <g id="patch_192">
    <path d="M 939.742186 220.293827 
L 947.791472 220.293827 
L 947.791472 137.875701 
L 939.742186 137.875701 
z
" clip-path="url(#pd3c335b967)" style="fill: #9467bd"/>
   </g>
   <g id="patch_193">
    <path d="M 964.50922 219.183512 
L 972.558507 219.183512 
L 972.558507 137.249201 
L 964.50922 137.249201 
z
" clip-path="url(#pd3c335b967)" style="fill: #9467bd"/>
   </g>
   <g id="patch_194">
    <path d="M 989.276255 218.074537 
L 997.325541 218.074537 
L 997.325541 136.610702 
L 989.276255 136.610702 
z
" clip-path="url(#pd3c335b967)" style="fill: #9467bd"/>
   </g>
   <g id="patch_195">
    <path d="M 1014.04329 216.967749 
L 1022.092576 216.967749 
L 1022.092576 135.961757 
L 1014.04329 135.961757 
z
" clip-path="url(#pd3c335b967)" style="fill: #9467bd"/>
   </g>
   <g id="patch_196">
    <path d="M 1038.810324 215.863895 
L 1046.85961 215.863895 
L 1046.85961 135.30376 
L 1038.810324 135.30376 
z
" clip-path="url(#pd3c335b967)" style="fill: #9467bd"/>
   </g>
   <g id="patch_197">
    <path d="M 1063.577359 214.763634 
L 1071.626645 214.763634 
L 1071.626645 134.637969 
L 1063.577359 134.637969 
z
" clip-path="url(#pd3c335b967)" style="fill: #9467bd"/>
   </g>
   <g id="patch_198">
    <path d="M 1088.344393 213.667545 
L 1096.39368 213.667545 
L 1096.39368 133.965514 
L 1088.344393 133.965514 
z
" clip-path="url(#pd3c335b967)" style="fill: #9467bd"/>
   </g>
   <g id="patch_199">
    <path d="M 1113.111428 212.576137 
L 1121.160714 212.576137 
L 1121.160714 133.28742 
L 1113.111428 133.28742 
z
" clip-path="url(#pd3c335b967)" style="fill: #9467bd"/>
   </g>
   <g id="patch_200">
    <path d="M 1137.878463 211.489859 
L 1145.927749 211.489859 
L 1145.927749 132.604611 
L 1137.878463 132.604611 
z
" clip-path="url(#pd3c335b967)" style="fill: #9467bd"/>
   </g>
   <g id="patch_201">
    <path d="M 1162.645497 210.409103 
L 1170.694784 210.409103 
L 1170.694784 131.917921 
L 1162.645497 131.917921 
z
" clip-path="url(#pd3c335b967)" style="fill: #9467bd"/>
   </g>
   <g id="patch_202">
    <path d="M 1187.412532 209.334212 
L 1195.461818 209.334212 
L 1195.461818 131.22811 
L 1187.412532 131.22811 
z
" clip-path="url(#pd3c335b967)" style="fill: #9467bd"/>
   </g>
   <g id="matplotlib.axis_1">
    <g id="xtick_1">
     <g id="line2d_1">
      <defs>
       <path id="m42086f2192" d="M 0 0 
L 0 3.5 
" style="stroke: #000000; stroke-width: 0.8"/>
      </defs>
      <g>
       <use xlink:href="#m42086f2192" x="225.522825" y="650.412" style="stroke: #000000; stroke-width: 0.8"/>
      </g>
     </g>
     <g id="text_1">
      <!-- 36 -->
      <g transform="translate(214.070325 671.089188) scale(0.18 -0.18)">
       <defs>
        <path id="DejaVuSans-33" d="M 2597 2516 
Q 3050 2419 3304 2112 
Q 3559 1806 3559 1356 
Q 3559 666 3084 287 
Q 2609 -91 1734 -91 
Q 1441 -91 1130 -33 
Q 819 25 488 141 
L 488 750 
Q 750 597 1062 519 
Q 1375 441 1716 441 
Q 2309 441 2620 675 
Q 2931 909 2931 1356 
Q 2931 1769 2642 2001 
Q 2353 2234 1838 2234 
L 1294 2234 
L 1294 2753 
L 1863 2753 
Q 2328 2753 2575 2939 
Q 2822 3125 2822 3475 
Q 2822 3834 2567 4026 
Q 2313 4219 1838 4219 
Q 1578 4219 1281 4162 
Q 984 4106 628 3988 
L 628 4550 
Q 988 4650 1302 4700 
Q 1616 4750 1894 4750 
Q 2613 4750 3031 4423 
Q 3450 4097 3450 3541 
Q 3450 3153 3228 2886 
Q 3006 2619 2597 2516 
z
" transform="scale(0.015625)"/>
        <path id="DejaVuSans-36" d="M 2113 2584 
Q 1688 2584 1439 2293 
Q 1191 2003 1191 1497 
Q 1191 994 1439 701 
Q 1688 409 2113 409 
Q 2538 409 2786 701 
Q 3034 994 3034 1497 
Q 3034 2003 2786 2293 
Q 2538 2584 2113 2584 
z
M 3366 4563 
L 3366 3988 
Q 3128 4100 2886 4159 
Q 2644 4219 2406 4219 
Q 1781 4219 1451 3797 
Q 1122 3375 1075 2522 
Q 1259 2794 1537 2939 
Q 1816 3084 2150 3084 
Q 2853 3084 3261 2657 
Q 3669 2231 3669 1497 
Q 3669 778 3244 343 
Q 2819 -91 2113 -91 
Q 1303 -91 875 529 
Q 447 1150 447 2328 
Q 447 3434 972 4092 
Q 1497 4750 2381 4750 
Q 2619 4750 2861 4703 
Q 3103 4656 3366 4563 
z
" transform="scale(0.015625)"/>
       </defs>
       <use xlink:href="#DejaVuSans-33"/>
       <use xlink:href="#DejaVuSans-36" x="63.623047"/>
      </g>
     </g>
    </g>
    <g id="xtick_2">
     <g id="line2d_2">
      <g>
       <use xlink:href="#m42086f2192" x="386.50855" y="650.412" style="stroke: #000000; stroke-width: 0.8"/>
      </g>
     </g>
     <g id="text_2">
      <!-- 38 -->
      <g transform="translate(375.05605 671.089188) scale(0.18 -0.18)">
       <defs>
        <path id="DejaVuSans-38" d="M 2034 2216 
Q 1584 2216 1326 1975 
Q 1069 1734 1069 1313 
Q 1069 891 1326 650 
Q 1584 409 2034 409 
Q 2484 409 2743 651 
Q 3003 894 3003 1313 
Q 3003 1734 2745 1975 
Q 2488 2216 2034 2216 
z
M 1403 2484 
Q 997 2584 770 2862 
Q 544 3141 544 3541 
Q 544 4100 942 4425 
Q 1341 4750 2034 4750 
Q 2731 4750 3128 4425 
Q 3525 4100 3525 3541 
Q 3525 3141 3298 2862 
Q 3072 2584 2669 2484 
Q 3125 2378 3379 2068 
Q 3634 1759 3634 1313 
Q 3634 634 3220 271 
Q 2806 -91 2034 -91 
Q 1263 -91 848 271 
Q 434 634 434 1313 
Q 434 1759 690 2068 
Q 947 2378 1403 2484 
z
M 1172 3481 
Q 1172 3119 1398 2916 
Q 1625 2713 2034 2713 
Q 2441 2713 2670 2916 
Q 2900 3119 2900 3481 
Q 2900 3844 2670 4047 
Q 2441 4250 2034 4250 
Q 1625 4250 1398 4047 
Q 1172 3844 1172 3481 
z
" transform="scale(0.015625)"/>
       </defs>
       <use xlink:href="#DejaVuSans-33"/>
       <use xlink:href="#DejaVuSans-38" x="63.623047"/>
      </g>
     </g>
    </g>
    <g id="xtick_3">
     <g id="line2d_3">
      <g>
       <use xlink:href="#m42086f2192" x="547.494275" y="650.412" style="stroke: #000000; stroke-width: 0.8"/>
      </g>
     </g>
     <g id="text_3">
      <!-- 40 -->
      <g transform="translate(536.041775 671.089188) scale(0.18 -0.18)">
       <defs>
        <path id="DejaVuSans-34" d="M 2419 4116 
L 825 1625 
L 2419 1625 
L 2419 4116 
z
M 2253 4666 
L 3047 4666 
L 3047 1625 
L 3713 1625 
L 3713 1100 
L 3047 1100 
L 3047 0 
L 2419 0 
L 2419 1100 
L 313 1100 
L 313 1709 
L 2253 4666 
z
" transform="scale(0.015625)"/>
        <path id="DejaVuSans-30" d="M 2034 4250 
Q 1547 4250 1301 3770 
Q 1056 3291 1056 2328 
Q 1056 1369 1301 889 
Q 1547 409 2034 409 
Q 2525 409 2770 889 
Q 3016 1369 3016 2328 
Q 3016 3291 2770 3770 
Q 2525 4250 2034 4250 
z
M 2034 4750 
Q 2819 4750 3233 4129 
Q 3647 3509 3647 2328 
Q 3647 1150 3233 529 
Q 2819 -91 2034 -91 
Q 1250 -91 836 529 
Q 422 1150 422 2328 
Q 422 3509 836 4129 
Q 1250 4750 2034 4750 
z
" transform="scale(0.015625)"/>
       </defs>
       <use xlink:href="#DejaVuSans-34"/>
       <use xlink:href="#DejaVuSans-30" x="63.623047"/>
      </g>
     </g>
    </g>
    <g id="xtick_4">
     <g id="line2d_4">
      <g>
       <use xlink:href="#m42086f2192" x="708.48" y="650.412" style="stroke: #000000; stroke-width: 0.8"/>
      </g>
     </g>
     <g id="text_4">
      <!-- 42 -->
      <g transform="translate(697.0275 671.089188) scale(0.18 -0.18)">
       <defs>
        <path id="DejaVuSans-32" d="M 1228 531 
L 3431 531 
L 3431 0 
L 469 0 
L 469 531 
Q 828 903 1448 1529 
Q 2069 2156 2228 2338 
Q 2531 2678 2651 2914 
Q 2772 3150 2772 3378 
Q 2772 3750 2511 3984 
Q 2250 4219 1831 4219 
Q 1534 4219 1204 4116 
Q 875 4013 500 3803 
L 500 4441 
Q 881 4594 1212 4672 
Q 1544 4750 1819 4750 
Q 2544 4750 2975 4387 
Q 3406 4025 3406 3419 
Q 3406 3131 3298 2873 
Q 3191 2616 2906 2266 
Q 2828 2175 2409 1742 
Q 1991 1309 1228 531 
z
" transform="scale(0.015625)"/>
       </defs>
       <use xlink:href="#DejaVuSans-34"/>
       <use xlink:href="#DejaVuSans-32" x="63.623047"/>
      </g>
     </g>
    </g>
    <g id="xtick_5">
     <g id="line2d_5">
      <g>
       <use xlink:href="#m42086f2192" x="869.465725" y="650.412" style="stroke: #000000; stroke-width: 0.8"/>
      </g>
     </g>
     <g id="text_5">
      <!-- 44 -->
      <g transform="translate(858.013225 671.089188) scale(0.18 -0.18)">
       <use xlink:href="#DejaVuSans-34"/>
       <use xlink:href="#DejaVuSans-34" x="63.623047"/>
      </g>
     </g>
    </g>
    <g id="xtick_6">
     <g id="line2d_6">
      <g>
       <use xlink:href="#m42086f2192" x="1030.45145" y="650.412" style="stroke: #000000; stroke-width: 0.8"/>
      </g>
     </g>
     <g id="text_6">
      <!-- 46 -->
      <g transform="translate(1018.99895 671.089188) scale(0.18 -0.18)">
       <use xlink:href="#DejaVuSans-34"/>
       <use xlink:href="#DejaVuSans-36" x="63.623047"/>
      </g>
     </g>
    </g>
    <g id="xtick_7">
     <g id="line2d_7">
      <g>
       <use xlink:href="#m42086f2192" x="1191.437175" y="650.412" style="stroke: #000000; stroke-width: 0.8"/>
      </g>
     </g>
     <g id="text_7">
      <!-- 48 -->
      <g transform="translate(1179.984675 671.089188) scale(0.18 -0.18)">
       <use xlink:href="#DejaVuSans-34"/>
       <use xlink:href="#DejaVuSans-38" x="63.623047"/>
      </g>
     </g>
    </g>
    <g id="text_8">
     <!-- Kondensatordruck in bar -->
     <g transform="translate(597.950156 692.509813) scale(0.18 -0.18)">
      <defs>
       <path id="DejaVuSans-4b" d="M 628 4666 
L 1259 4666 
L 1259 2694 
L 3353 4666 
L 4166 4666 
L 1850 2491 
L 4331 0 
L 3500 0 
L 1259 2247 
L 1259 0 
L 628 0 
L 628 4666 
z
" transform="scale(0.015625)"/>
       <path id="DejaVuSans-6f" d="M 1959 3097 
Q 1497 3097 1228 2736 
Q 959 2375 959 1747 
Q 959 1119 1226 758 
Q 1494 397 1959 397 
Q 2419 397 2687 759 
Q 2956 1122 2956 1747 
Q 2956 2369 2687 2733 
Q 2419 3097 1959 3097 
z
M 1959 3584 
Q 2709 3584 3137 3096 
Q 3566 2609 3566 1747 
Q 3566 888 3137 398 
Q 2709 -91 1959 -91 
Q 1206 -91 779 398 
Q 353 888 353 1747 
Q 353 2609 779 3096 
Q 1206 3584 1959 3584 
z
" transform="scale(0.015625)"/>
       <path id="DejaVuSans-6e" d="M 3513 2113 
L 3513 0 
L 2938 0 
L 2938 2094 
Q 2938 2591 2744 2837 
Q 2550 3084 2163 3084 
Q 1697 3084 1428 2787 
Q 1159 2491 1159 1978 
L 1159 0 
L 581 0 
L 581 3500 
L 1159 3500 
L 1159 2956 
Q 1366 3272 1645 3428 
Q 1925 3584 2291 3584 
Q 2894 3584 3203 3211 
Q 3513 2838 3513 2113 
z
" transform="scale(0.015625)"/>
       <path id="DejaVuSans-64" d="M 2906 2969 
L 2906 4863 
L 3481 4863 
L 3481 0 
L 2906 0 
L 2906 525 
Q 2725 213 2448 61 
Q 2172 -91 1784 -91 
Q 1150 -91 751 415 
Q 353 922 353 1747 
Q 353 2572 751 3078 
Q 1150 3584 1784 3584 
Q 2172 3584 2448 3432 
Q 2725 3281 2906 2969 
z
M 947 1747 
Q 947 1113 1208 752 
Q 1469 391 1925 391 
Q 2381 391 2643 752 
Q 2906 1113 2906 1747 
Q 2906 2381 2643 2742 
Q 2381 3103 1925 3103 
Q 1469 3103 1208 2742 
Q 947 2381 947 1747 
z
" transform="scale(0.015625)"/>
       <path id="DejaVuSans-65" d="M 3597 1894 
L 3597 1613 
L 953 1613 
Q 991 1019 1311 708 
Q 1631 397 2203 397 
Q 2534 397 2845 478 
Q 3156 559 3463 722 
L 3463 178 
Q 3153 47 2828 -22 
Q 2503 -91 2169 -91 
Q 1331 -91 842 396 
Q 353 884 353 1716 
Q 353 2575 817 3079 
Q 1281 3584 2069 3584 
Q 2775 3584 3186 3129 
Q 3597 2675 3597 1894 
z
M 3022 2063 
Q 3016 2534 2758 2815 
Q 2500 3097 2075 3097 
Q 1594 3097 1305 2825 
Q 1016 2553 972 2059 
L 3022 2063 
z
" transform="scale(0.015625)"/>
       <path id="DejaVuSans-73" d="M 2834 3397 
L 2834 2853 
Q 2591 2978 2328 3040 
Q 2066 3103 1784 3103 
Q 1356 3103 1142 2972 
Q 928 2841 928 2578 
Q 928 2378 1081 2264 
Q 1234 2150 1697 2047 
L 1894 2003 
Q 2506 1872 2764 1633 
Q 3022 1394 3022 966 
Q 3022 478 2636 193 
Q 2250 -91 1575 -91 
Q 1294 -91 989 -36 
Q 684 19 347 128 
L 347 722 
Q 666 556 975 473 
Q 1284 391 1588 391 
Q 1994 391 2212 530 
Q 2431 669 2431 922 
Q 2431 1156 2273 1281 
Q 2116 1406 1581 1522 
L 1381 1569 
Q 847 1681 609 1914 
Q 372 2147 372 2553 
Q 372 3047 722 3315 
Q 1072 3584 1716 3584 
Q 2034 3584 2315 3537 
Q 2597 3491 2834 3397 
z
" transform="scale(0.015625)"/>
       <path id="DejaVuSans-61" d="M 2194 1759 
Q 1497 1759 1228 1600 
Q 959 1441 959 1056 
Q 959 750 1161 570 
Q 1363 391 1709 391 
Q 2188 391 2477 730 
Q 2766 1069 2766 1631 
L 2766 1759 
L 2194 1759 
z
M 3341 1997 
L 3341 0 
L 2766 0 
L 2766 531 
Q 2569 213 2275 61 
Q 1981 -91 1556 -91 
Q 1019 -91 701 211 
Q 384 513 384 1019 
Q 384 1609 779 1909 
Q 1175 2209 1959 2209 
L 2766 2209 
L 2766 2266 
Q 2766 2663 2505 2880 
Q 2244 3097 1772 3097 
Q 1472 3097 1187 3025 
Q 903 2953 641 2809 
L 641 3341 
Q 956 3463 1253 3523 
Q 1550 3584 1831 3584 
Q 2591 3584 2966 3190 
Q 3341 2797 3341 1997 
z
" transform="scale(0.015625)"/>
       <path id="DejaVuSans-74" d="M 1172 4494 
L 1172 3500 
L 2356 3500 
L 2356 3053 
L 1172 3053 
L 1172 1153 
Q 1172 725 1289 603 
Q 1406 481 1766 481 
L 2356 481 
L 2356 0 
L 1766 0 
Q 1100 0 847 248 
Q 594 497 594 1153 
L 594 3053 
L 172 3053 
L 172 3500 
L 594 3500 
L 594 4494 
L 1172 4494 
z
" transform="scale(0.015625)"/>
       <path id="DejaVuSans-72" d="M 2631 2963 
Q 2534 3019 2420 3045 
Q 2306 3072 2169 3072 
Q 1681 3072 1420 2755 
Q 1159 2438 1159 1844 
L 1159 0 
L 581 0 
L 581 3500 
L 1159 3500 
L 1159 2956 
Q 1341 3275 1631 3429 
Q 1922 3584 2338 3584 
Q 2397 3584 2469 3576 
Q 2541 3569 2628 3553 
L 2631 2963 
z
" transform="scale(0.015625)"/>
       <path id="DejaVuSans-75" d="M 544 1381 
L 544 3500 
L 1119 3500 
L 1119 1403 
Q 1119 906 1312 657 
Q 1506 409 1894 409 
Q 2359 409 2629 706 
Q 2900 1003 2900 1516 
L 2900 3500 
L 3475 3500 
L 3475 0 
L 2900 0 
L 2900 538 
Q 2691 219 2414 64 
Q 2138 -91 1772 -91 
Q 1169 -91 856 284 
Q 544 659 544 1381 
z
M 1991 3584 
L 1991 3584 
z
" transform="scale(0.015625)"/>
       <path id="DejaVuSans-63" d="M 3122 3366 
L 3122 2828 
Q 2878 2963 2633 3030 
Q 2388 3097 2138 3097 
Q 1578 3097 1268 2742 
Q 959 2388 959 1747 
Q 959 1106 1268 751 
Q 1578 397 2138 397 
Q 2388 397 2633 464 
Q 2878 531 3122 666 
L 3122 134 
Q 2881 22 2623 -34 
Q 2366 -91 2075 -91 
Q 1284 -91 818 406 
Q 353 903 353 1747 
Q 353 2603 823 3093 
Q 1294 3584 2113 3584 
Q 2378 3584 2631 3529 
Q 2884 3475 3122 3366 
z
" transform="scale(0.015625)"/>
       <path id="DejaVuSans-6b" d="M 581 4863 
L 1159 4863 
L 1159 1991 
L 2875 3500 
L 3609 3500 
L 1753 1863 
L 3688 0 
L 2938 0 
L 1159 1709 
L 1159 0 
L 581 0 
L 581 4863 
z
" transform="scale(0.015625)"/>
       <path id="DejaVuSans-20" transform="scale(0.015625)"/>
       <path id="DejaVuSans-69" d="M 603 3500 
L 1178 3500 
L 1178 0 
L 603 0 
L 603 3500 
z
M 603 4863 
L 1178 4863 
L 1178 4134 
L 603 4134 
L 603 4863 
z
" transform="scale(0.015625)"/>
       <path id="DejaVuSans-62" d="M 3116 1747 
Q 3116 2381 2855 2742 
Q 2594 3103 2138 3103 
Q 1681 3103 1420 2742 
Q 1159 2381 1159 1747 
Q 1159 1113 1420 752 
Q 1681 391 2138 391 
Q 2594 391 2855 752 
Q 3116 1113 3116 1747 
z
M 1159 2969 
Q 1341 3281 1617 3432 
Q 1894 3584 2278 3584 
Q 2916 3584 3314 3078 
Q 3713 2572 3713 1747 
Q 3713 922 3314 415 
Q 2916 -91 2278 -91 
Q 1894 -91 1617 61 
Q 1341 213 1159 525 
L 1159 0 
L 581 0 
L 581 4863 
L 1159 4863 
L 1159 2969 
z
" transform="scale(0.015625)"/>
      </defs>
      <use xlink:href="#DejaVuSans-4b"/>
      <use xlink:href="#DejaVuSans-6f" x="60.576172"/>
      <use xlink:href="#DejaVuSans-6e" x="121.757812"/>
      <use xlink:href="#DejaVuSans-64" x="185.136719"/>
      <use xlink:href="#DejaVuSans-65" x="248.613281"/>
      <use xlink:href="#DejaVuSans-6e" x="310.136719"/>
      <use xlink:href="#DejaVuSans-73" x="373.515625"/>
      <use xlink:href="#DejaVuSans-61" x="425.615234"/>
      <use xlink:href="#DejaVuSans-74" x="486.894531"/>
      <use xlink:href="#DejaVuSans-6f" x="526.103516"/>
      <use xlink:href="#DejaVuSans-72" x="587.285156"/>
      <use xlink:href="#DejaVuSans-64" x="626.648438"/>
      <use xlink:href="#DejaVuSans-72" x="690.125"/>
      <use xlink:href="#DejaVuSans-75" x="731.238281"/>
      <use xlink:href="#DejaVuSans-63" x="794.617188"/>
      <use xlink:href="#DejaVuSans-6b" x="849.597656"/>
      <use xlink:href="#DejaVuSans-20" x="907.507812"/>
      <use xlink:href="#DejaVuSans-69" x="939.294922"/>
      <use xlink:href="#DejaVuSans-6e" x="967.078125"/>
      <use xlink:href="#DejaVuSans-20" x="1030.457031"/>
      <use xlink:href="#DejaVuSans-62" x="1062.244141"/>
      <use xlink:href="#DejaVuSans-61" x="1125.720703"/>
      <use xlink:href="#DejaVuSans-72" x="1187"/>
     </g>
    </g>
   </g>
   <g id="matplotlib.axis_2">
    <g id="ytick_1">
     <g id="line2d_8">
      <defs>
       <path id="mbb30cb1249" d="M 0 0 
L -3.5 0 
" style="stroke: #000000; stroke-width: 0.8"/>
      </defs>
      <g>
       <use xlink:href="#mbb30cb1249" x="172.8" y="650.412" style="stroke: #000000; stroke-width: 0.8"/>
      </g>
     </g>
     <g id="text_9">
      <!-- 0.0 -->
      <g transform="translate(137.174375 657.250594) scale(0.18 -0.18)">
       <defs>
        <path id="DejaVuSans-2e" d="M 684 794 
L 1344 794 
L 1344 0 
L 684 0 
L 684 794 
z
" transform="scale(0.015625)"/>
       </defs>
       <use xlink:href="#DejaVuSans-30"/>
       <use xlink:href="#DejaVuSans-2e" x="63.623047"/>
       <use xlink:href="#DejaVuSans-30" x="95.410156"/>
      </g>
     </g>
    </g>
    <g id="ytick_2">
     <g id="line2d_9">
      <g>
       <use xlink:href="#mbb30cb1249" x="172.8" y="546.65055" style="stroke: #000000; stroke-width: 0.8"/>
      </g>
     </g>
     <g id="text_10">
      <!-- 0.2 -->
      <g transform="translate(137.174375 553.489144) scale(0.18 -0.18)">
       <use xlink:href="#DejaVuSans-30"/>
       <use xlink:href="#DejaVuSans-2e" x="63.623047"/>
       <use xlink:href="#DejaVuSans-32" x="95.410156"/>
      </g>
     </g>
    </g>
    <g id="ytick_3">
     <g id="line2d_10">
      <g>
       <use xlink:href="#mbb30cb1249" x="172.8" y="442.8891" style="stroke: #000000; stroke-width: 0.8"/>
      </g>
     </g>
     <g id="text_11">
      <!-- 0.4 -->
      <g transform="translate(137.174375 449.727694) scale(0.18 -0.18)">
       <use xlink:href="#DejaVuSans-30"/>
       <use xlink:href="#DejaVuSans-2e" x="63.623047"/>
       <use xlink:href="#DejaVuSans-34" x="95.410156"/>
      </g>
     </g>
    </g>
    <g id="ytick_4">
     <g id="line2d_11">
      <g>
       <use xlink:href="#mbb30cb1249" x="172.8" y="339.127651" style="stroke: #000000; stroke-width: 0.8"/>
      </g>
     </g>
     <g id="text_12">
      <!-- 0.6 -->
      <g transform="translate(137.174375 345.966244) scale(0.18 -0.18)">
       <use xlink:href="#DejaVuSans-30"/>
       <use xlink:href="#DejaVuSans-2e" x="63.623047"/>
       <use xlink:href="#DejaVuSans-36" x="95.410156"/>
      </g>
     </g>
    </g>
    <g id="ytick_5">
     <g id="line2d_12">
      <g>
       <use xlink:href="#mbb30cb1249" x="172.8" y="235.366201" style="stroke: #000000; stroke-width: 0.8"/>
      </g>
     </g>
     <g id="text_13">
      <!-- 0.8 -->
      <g transform="translate(137.174375 242.204795) scale(0.18 -0.18)">
       <use xlink:href="#DejaVuSans-30"/>
       <use xlink:href="#DejaVuSans-2e" x="63.623047"/>
       <use xlink:href="#DejaVuSans-38" x="95.410156"/>
      </g>
     </g>
    </g>
    <g id="ytick_6">
     <g id="line2d_13">
      <g>
       <use xlink:href="#mbb30cb1249" x="172.8" y="131.604751" style="stroke: #000000; stroke-width: 0.8"/>
      </g>
     </g>
     <g id="text_14">
      <!-- 1.0 -->
      <g transform="translate(137.174375 138.443345) scale(0.18 -0.18)">
       <defs>
        <path id="DejaVuSans-31" d="M 794 531 
L 1825 531 
L 1825 4091 
L 703 3866 
L 703 4441 
L 1819 4666 
L 2450 4666 
L 2450 531 
L 3481 531 
L 3481 0 
L 794 0 
L 794 531 
z
" transform="scale(0.015625)"/>
       </defs>
       <use xlink:href="#DejaVuSans-31"/>
       <use xlink:href="#DejaVuSans-2e" x="63.623047"/>
       <use xlink:href="#DejaVuSans-30" x="95.410156"/>
      </g>
     </g>
    </g>
    <g id="text_15">
     <!-- Exergievernichtung in MW -->
     <g transform="translate(129.430937 487.119938) rotate(-90) scale(0.18 -0.18)">
      <defs>
       <path id="DejaVuSans-45" d="M 628 4666 
L 3578 4666 
L 3578 4134 
L 1259 4134 
L 1259 2753 
L 3481 2753 
L 3481 2222 
L 1259 2222 
L 1259 531 
L 3634 531 
L 3634 0 
L 628 0 
L 628 4666 
z
" transform="scale(0.015625)"/>
       <path id="DejaVuSans-78" d="M 3513 3500 
L 2247 1797 
L 3578 0 
L 2900 0 
L 1881 1375 
L 863 0 
L 184 0 
L 1544 1831 
L 300 3500 
L 978 3500 
L 1906 2253 
L 2834 3500 
L 3513 3500 
z
" transform="scale(0.015625)"/>
       <path id="DejaVuSans-67" d="M 2906 1791 
Q 2906 2416 2648 2759 
Q 2391 3103 1925 3103 
Q 1463 3103 1205 2759 
Q 947 2416 947 1791 
Q 947 1169 1205 825 
Q 1463 481 1925 481 
Q 2391 481 2648 825 
Q 2906 1169 2906 1791 
z
M 3481 434 
Q 3481 -459 3084 -895 
Q 2688 -1331 1869 -1331 
Q 1566 -1331 1297 -1286 
Q 1028 -1241 775 -1147 
L 775 -588 
Q 1028 -725 1275 -790 
Q 1522 -856 1778 -856 
Q 2344 -856 2625 -561 
Q 2906 -266 2906 331 
L 2906 616 
Q 2728 306 2450 153 
Q 2172 0 1784 0 
Q 1141 0 747 490 
Q 353 981 353 1791 
Q 353 2603 747 3093 
Q 1141 3584 1784 3584 
Q 2172 3584 2450 3431 
Q 2728 3278 2906 2969 
L 2906 3500 
L 3481 3500 
L 3481 434 
z
" transform="scale(0.015625)"/>
       <path id="DejaVuSans-76" d="M 191 3500 
L 800 3500 
L 1894 563 
L 2988 3500 
L 3597 3500 
L 2284 0 
L 1503 0 
L 191 3500 
z
" transform="scale(0.015625)"/>
       <path id="DejaVuSans-68" d="M 3513 2113 
L 3513 0 
L 2938 0 
L 2938 2094 
Q 2938 2591 2744 2837 
Q 2550 3084 2163 3084 
Q 1697 3084 1428 2787 
Q 1159 2491 1159 1978 
L 1159 0 
L 581 0 
L 581 4863 
L 1159 4863 
L 1159 2956 
Q 1366 3272 1645 3428 
Q 1925 3584 2291 3584 
Q 2894 3584 3203 3211 
Q 3513 2838 3513 2113 
z
" transform="scale(0.015625)"/>
       <path id="DejaVuSans-4d" d="M 628 4666 
L 1569 4666 
L 2759 1491 
L 3956 4666 
L 4897 4666 
L 4897 0 
L 4281 0 
L 4281 4097 
L 3078 897 
L 2444 897 
L 1241 4097 
L 1241 0 
L 628 0 
L 628 4666 
z
" transform="scale(0.015625)"/>
       <path id="DejaVuSans-57" d="M 213 4666 
L 850 4666 
L 1831 722 
L 2809 4666 
L 3519 4666 
L 4500 722 
L 5478 4666 
L 6119 4666 
L 4947 0 
L 4153 0 
L 3169 4050 
L 2175 0 
L 1381 0 
L 213 4666 
z
" transform="scale(0.015625)"/>
      </defs>
      <use xlink:href="#DejaVuSans-45"/>
      <use xlink:href="#DejaVuSans-78" x="63.183594"/>
      <use xlink:href="#DejaVuSans-65" x="119.238281"/>
      <use xlink:href="#DejaVuSans-72" x="180.761719"/>
      <use xlink:href="#DejaVuSans-67" x="220.125"/>
      <use xlink:href="#DejaVuSans-69" x="283.601562"/>
      <use xlink:href="#DejaVuSans-65" x="311.384766"/>
      <use xlink:href="#DejaVuSans-76" x="372.908203"/>
      <use xlink:href="#DejaVuSans-65" x="432.087891"/>
      <use xlink:href="#DejaVuSans-72" x="493.611328"/>
      <use xlink:href="#DejaVuSans-6e" x="532.974609"/>
      <use xlink:href="#DejaVuSans-69" x="596.353516"/>
      <use xlink:href="#DejaVuSans-63" x="624.136719"/>
      <use xlink:href="#DejaVuSans-68" x="679.117188"/>
      <use xlink:href="#DejaVuSans-74" x="742.496094"/>
      <use xlink:href="#DejaVuSans-75" x="781.705078"/>
      <use xlink:href="#DejaVuSans-6e" x="845.083984"/>
      <use xlink:href="#DejaVuSans-67" x="908.462891"/>
      <use xlink:href="#DejaVuSans-20" x="971.939453"/>
      <use xlink:href="#DejaVuSans-69" x="1003.726562"/>
      <use xlink:href="#DejaVuSans-6e" x="1031.509766"/>
      <use xlink:href="#DejaVuSans-20" x="1094.888672"/>
      <use xlink:href="#DejaVuSans-4d" x="1126.675781"/>
      <use xlink:href="#DejaVuSans-57" x="1212.955078"/>
     </g>
    </g>
   </g>
   <g id="patch_203">
    <path d="M 172.8 650.412 
L 172.8 87.696 
" style="fill: none; stroke: #000000; stroke-width: 0.8; stroke-linejoin: miter; stroke-linecap: square"/>
   </g>
   <g id="patch_204">
    <path d="M 1244.16 650.412 
L 1244.16 87.696 
" style="fill: none; stroke: #000000; stroke-width: 0.8; stroke-linejoin: miter; stroke-linecap: square"/>
   </g>
   <g id="patch_205">
    <path d="M 172.8 650.412 
L 1244.16 650.412 
" style="fill: none; stroke: #000000; stroke-width: 0.8; stroke-linejoin: miter; stroke-linecap: square"/>
   </g>
   <g id="patch_206">
    <path d="M 172.8 87.696 
L 1244.16 87.696 
" style="fill: none; stroke: #000000; stroke-width: 0.8; stroke-linejoin: miter; stroke-linecap: square"/>
   </g>
   <g id="legend_1">
    <g id="patch_207">
     <path d="M 955.088437 437.805563 
L 1231.56 437.805563 
Q 1235.16 437.805563 1235.16 434.205563 
L 1235.16 303.902438 
Q 1235.16 300.302438 1231.56 300.302438 
L 955.088437 300.302438 
Q 951.488437 300.302438 951.488437 303.902438 
L 951.488437 434.205563 
Q 951.488437 437.805563 955.088437 437.805563 
z
" style="fill: #ffffff; opacity: 0.8; stroke: #cccccc; stroke-linejoin: miter"/>
    </g>
    <g id="patch_208">
     <path d="M 958.688437 321.179625 
L 994.688437 321.179625 
L 994.688437 308.579625 
L 958.688437 308.579625 
z
" style="fill: #1f77b4"/>
    </g>
    <g id="text_16">
     <!-- Gas cooler -->
     <g transform="translate(1009.088437 321.179625) scale(0.18 -0.18)">
      <defs>
       <path id="DejaVuSans-47" d="M 3809 666 
L 3809 1919 
L 2778 1919 
L 2778 2438 
L 4434 2438 
L 4434 434 
Q 4069 175 3628 42 
Q 3188 -91 2688 -91 
Q 1594 -91 976 548 
Q 359 1188 359 2328 
Q 359 3472 976 4111 
Q 1594 4750 2688 4750 
Q 3144 4750 3555 4637 
Q 3966 4525 4313 4306 
L 4313 3634 
Q 3963 3931 3569 4081 
Q 3175 4231 2741 4231 
Q 1884 4231 1454 3753 
Q 1025 3275 1025 2328 
Q 1025 1384 1454 906 
Q 1884 428 2741 428 
Q 3075 428 3337 486 
Q 3600 544 3809 666 
z
" transform="scale(0.015625)"/>
       <path id="DejaVuSans-6c" d="M 603 4863 
L 1178 4863 
L 1178 0 
L 603 0 
L 603 4863 
z
" transform="scale(0.015625)"/>
      </defs>
      <use xlink:href="#DejaVuSans-47"/>
      <use xlink:href="#DejaVuSans-61" x="77.490234"/>
      <use xlink:href="#DejaVuSans-73" x="138.769531"/>
      <use xlink:href="#DejaVuSans-20" x="190.869141"/>
      <use xlink:href="#DejaVuSans-63" x="222.65625"/>
      <use xlink:href="#DejaVuSans-6f" x="277.636719"/>
      <use xlink:href="#DejaVuSans-6f" x="338.818359"/>
      <use xlink:href="#DejaVuSans-6c" x="400"/>
      <use xlink:href="#DejaVuSans-65" x="427.783203"/>
      <use xlink:href="#DejaVuSans-72" x="489.306641"/>
     </g>
    </g>
    <g id="patch_209">
     <path d="M 958.688437 347.60025 
L 994.688437 347.60025 
L 994.688437 335.00025 
L 958.688437 335.00025 
z
" style="fill: #ff7f0e"/>
    </g>
    <g id="text_17">
     <!-- Evaporator -->
     <g transform="translate(1009.088437 347.60025) scale(0.18 -0.18)">
      <defs>
       <path id="DejaVuSans-70" d="M 1159 525 
L 1159 -1331 
L 581 -1331 
L 581 3500 
L 1159 3500 
L 1159 2969 
Q 1341 3281 1617 3432 
Q 1894 3584 2278 3584 
Q 2916 3584 3314 3078 
Q 3713 2572 3713 1747 
Q 3713 922 3314 415 
Q 2916 -91 2278 -91 
Q 1894 -91 1617 61 
Q 1341 213 1159 525 
z
M 3116 1747 
Q 3116 2381 2855 2742 
Q 2594 3103 2138 3103 
Q 1681 3103 1420 2742 
Q 1159 2381 1159 1747 
Q 1159 1113 1420 752 
Q 1681 391 2138 391 
Q 2594 391 2855 752 
Q 3116 1113 3116 1747 
z
" transform="scale(0.015625)"/>
      </defs>
      <use xlink:href="#DejaVuSans-45"/>
      <use xlink:href="#DejaVuSans-76" x="63.183594"/>
      <use xlink:href="#DejaVuSans-61" x="122.363281"/>
      <use xlink:href="#DejaVuSans-70" x="183.642578"/>
      <use xlink:href="#DejaVuSans-6f" x="247.119141"/>
      <use xlink:href="#DejaVuSans-72" x="308.300781"/>
      <use xlink:href="#DejaVuSans-61" x="349.414062"/>
      <use xlink:href="#DejaVuSans-74" x="410.693359"/>
      <use xlink:href="#DejaVuSans-6f" x="449.902344"/>
      <use xlink:href="#DejaVuSans-72" x="511.083984"/>
     </g>
    </g>
    <g id="patch_210">
     <path d="M 958.688437 374.020875 
L 994.688437 374.020875 
L 994.688437 361.420875 
L 958.688437 361.420875 
z
" style="fill: #2ca02c"/>
    </g>
    <g id="text_18">
     <!-- Valve -->
     <g transform="translate(1009.088437 374.020875) scale(0.18 -0.18)">
      <defs>
       <path id="DejaVuSans-56" d="M 1831 0 
L 50 4666 
L 709 4666 
L 2188 738 
L 3669 4666 
L 4325 4666 
L 2547 0 
L 1831 0 
z
" transform="scale(0.015625)"/>
      </defs>
      <use xlink:href="#DejaVuSans-56"/>
      <use xlink:href="#DejaVuSans-61" x="60.658203"/>
      <use xlink:href="#DejaVuSans-6c" x="121.9375"/>
      <use xlink:href="#DejaVuSans-76" x="149.720703"/>
      <use xlink:href="#DejaVuSans-65" x="208.900391"/>
     </g>
    </g>
    <g id="patch_211">
     <path d="M 958.688437 400.4415 
L 994.688437 400.4415 
L 994.688437 387.8415 
L 958.688437 387.8415 
z
" style="fill: #d62728"/>
    </g>
    <g id="text_19">
     <!-- Compressor -->
     <g transform="translate(1009.088437 400.4415) scale(0.18 -0.18)">
      <defs>
       <path id="DejaVuSans-43" d="M 4122 4306 
L 4122 3641 
Q 3803 3938 3442 4084 
Q 3081 4231 2675 4231 
Q 1875 4231 1450 3742 
Q 1025 3253 1025 2328 
Q 1025 1406 1450 917 
Q 1875 428 2675 428 
Q 3081 428 3442 575 
Q 3803 722 4122 1019 
L 4122 359 
Q 3791 134 3420 21 
Q 3050 -91 2638 -91 
Q 1578 -91 968 557 
Q 359 1206 359 2328 
Q 359 3453 968 4101 
Q 1578 4750 2638 4750 
Q 3056 4750 3426 4639 
Q 3797 4528 4122 4306 
z
" transform="scale(0.015625)"/>
       <path id="DejaVuSans-6d" d="M 3328 2828 
Q 3544 3216 3844 3400 
Q 4144 3584 4550 3584 
Q 5097 3584 5394 3201 
Q 5691 2819 5691 2113 
L 5691 0 
L 5113 0 
L 5113 2094 
Q 5113 2597 4934 2840 
Q 4756 3084 4391 3084 
Q 3944 3084 3684 2787 
Q 3425 2491 3425 1978 
L 3425 0 
L 2847 0 
L 2847 2094 
Q 2847 2600 2669 2842 
Q 2491 3084 2119 3084 
Q 1678 3084 1418 2786 
Q 1159 2488 1159 1978 
L 1159 0 
L 581 0 
L 581 3500 
L 1159 3500 
L 1159 2956 
Q 1356 3278 1631 3431 
Q 1906 3584 2284 3584 
Q 2666 3584 2933 3390 
Q 3200 3197 3328 2828 
z
" transform="scale(0.015625)"/>
      </defs>
      <use xlink:href="#DejaVuSans-43"/>
      <use xlink:href="#DejaVuSans-6f" x="69.824219"/>
      <use xlink:href="#DejaVuSans-6d" x="131.005859"/>
      <use xlink:href="#DejaVuSans-70" x="228.417969"/>
      <use xlink:href="#DejaVuSans-72" x="291.894531"/>
      <use xlink:href="#DejaVuSans-65" x="330.757812"/>
      <use xlink:href="#DejaVuSans-73" x="392.28125"/>
      <use xlink:href="#DejaVuSans-73" x="444.380859"/>
      <use xlink:href="#DejaVuSans-6f" x="496.480469"/>
      <use xlink:href="#DejaVuSans-72" x="557.662109"/>
     </g>
    </g>
    <g id="patch_212">
     <path d="M 958.688437 426.862125 
L 994.688437 426.862125 
L 994.688437 414.262125 
L 958.688437 414.262125 
z
" style="fill: #9467bd"/>
    </g>
    <g id="text_20">
     <!-- Internal Heat Exchanger -->
     <g transform="translate(1009.088437 426.862125) scale(0.18 -0.18)">
      <defs>
       <path id="DejaVuSans-49" d="M 628 4666 
L 1259 4666 
L 1259 0 
L 628 0 
L 628 4666 
z
" transform="scale(0.015625)"/>
       <path id="DejaVuSans-48" d="M 628 4666 
L 1259 4666 
L 1259 2753 
L 3553 2753 
L 3553 4666 
L 4184 4666 
L 4184 0 
L 3553 0 
L 3553 2222 
L 1259 2222 
L 1259 0 
L 628 0 
L 628 4666 
z
" transform="scale(0.015625)"/>
      </defs>
      <use xlink:href="#DejaVuSans-49"/>
      <use xlink:href="#DejaVuSans-6e" x="29.492188"/>
      <use xlink:href="#DejaVuSans-74" x="92.871094"/>
      <use xlink:href="#DejaVuSans-65" x="132.080078"/>
      <use xlink:href="#DejaVuSans-72" x="193.603516"/>
      <use xlink:href="#DejaVuSans-6e" x="232.966797"/>
      <use xlink:href="#DejaVuSans-61" x="296.345703"/>
      <use xlink:href="#DejaVuSans-6c" x="357.625"/>
      <use xlink:href="#DejaVuSans-20" x="385.408203"/>
      <use xlink:href="#DejaVuSans-48" x="417.195312"/>
      <use xlink:href="#DejaVuSans-65" x="492.390625"/>
      <use xlink:href="#DejaVuSans-61" x="553.914062"/>
      <use xlink:href="#DejaVuSans-74" x="615.193359"/>
      <use xlink:href="#DejaVuSans-20" x="654.402344"/>
      <use xlink:href="#DejaVuSans-45" x="686.189453"/>
      <use xlink:href="#DejaVuSans-78" x="749.373047"/>
      <use xlink:href="#DejaVuSans-63" x="806.802734"/>
      <use xlink:href="#DejaVuSans-68" x="861.783203"/>
      <use xlink:href="#DejaVuSans-61" x="925.162109"/>
      <use xlink:href="#DejaVuSans-6e" x="986.441406"/>
      <use xlink:href="#DejaVuSans-67" x="1049.820312"/>
      <use xlink:href="#DejaVuSans-65" x="1113.296875"/>
      <use xlink:href="#DejaVuSans-72" x="1174.820312"/>
     </g>
    </g>
   </g>
  </g>
 </g>
 <defs>
  <clipPath id="pd3c335b967">
   <rect x="172.8" y="87.696" width="1071.36" height="562.716"/>
  </clipPath>
 </defs>
</svg>
