<?xml version="1.0" encoding="utf-8" standalone="no"?>
<!DOCTYPE svg PUBLIC "-//W3C//DTD SVG 1.1//EN"
  "http://www.w3.org/Graphics/SVG/1.1/DTD/svg11.dtd">
<svg xmlns:xlink="http://www.w3.org/1999/xlink" width="460.8pt" height="345.6pt" viewBox="0 0 460.8 345.6" xmlns="http://www.w3.org/2000/svg" version="1.1">
 <metadata>
  <rdf:RDF xmlns:dc="http://purl.org/dc/elements/1.1/" xmlns:cc="http://creativecommons.org/ns#" xmlns:rdf="http://www.w3.org/1999/02/22-rdf-syntax-ns#">
   <cc:Work>
    <dc:type rdf:resource="http://purl.org/dc/dcmitype/StillImage"/>
    <dc:date>2023-02-23T15:10:01.213089</dc:date>
    <dc:format>image/svg+xml</dc:format>
    <dc:creator>
     <cc:Agent>
      <dc:title>Matplotlib v3.6.1, https://matplotlib.org/</dc:title>
     </cc:Agent>
    </dc:creator>
   </cc:Work>
  </rdf:RDF>
 </metadata>
 <defs>
  <style type="text/css">*{stroke-linejoin: round; stroke-linecap: butt}</style>
 </defs>
 <g id="figure_1">
  <g id="patch_1">
   <path d="M 0 345.6 
L 460.8 345.6 
L 460.8 0 
L 0 0 
z
" style="fill: #ffffff"/>
  </g>
  <g id="axes_1">
   <g id="patch_2">
    <path d="M 57.6 307.584 
L 414.72 307.584 
L 414.72 41.472 
L 57.6 41.472 
z
" style="fill: #ffffff"/>
   </g>
   <g id="patch_3">
    <path d="M 73.832727 307.584 
L 74.757669 307.584 
L 74.757669 277.934387 
L 73.832727 277.934387 
z
" clip-path="url(#p38827fbc69)" style="fill: #1f77b4"/>
   </g>
   <g id="patch_4">
    <path d="M 82.133486 307.584 
L 83.058428 307.584 
L 83.058428 277.267247 
L 82.133486 277.267247 
z
" clip-path="url(#p38827fbc69)" style="fill: #1f77b4"/>
   </g>
   <g id="patch_5">
    <path d="M 90.434245 307.584 
L 91.359187 307.584 
L 91.359187 276.439843 
L 90.434245 276.439843 
z
" clip-path="url(#p38827fbc69)" style="fill: #1f77b4"/>
   </g>
   <g id="patch_6">
    <path d="M 98.735004 307.584 
L 99.659946 307.584 
L 99.659946 275.591219 
L 98.735004 275.591219 
z
" clip-path="url(#p38827fbc69)" style="fill: #1f77b4"/>
   </g>
   <g id="patch_7">
    <path d="M 107.035764 307.584 
L 107.960705 307.584 
L 107.960705 274.779431 
L 107.035764 274.779431 
z
" clip-path="url(#p38827fbc69)" style="fill: #1f77b4"/>
   </g>
   <g id="patch_8">
    <path d="M 115.336523 307.584 
L 116.261464 307.584 
L 116.261464 274.028564 
L 115.336523 274.028564 
z
" clip-path="url(#p38827fbc69)" style="fill: #1f77b4"/>
   </g>
   <g id="patch_9">
    <path d="M 123.637282 307.584 
L 124.562223 307.584 
L 124.562223 273.34727 
L 123.637282 273.34727 
z
" clip-path="url(#p38827fbc69)" style="fill: #1f77b4"/>
   </g>
   <g id="patch_10">
    <path d="M 131.938041 307.584 
L 132.862982 307.584 
L 132.862982 272.736786 
L 131.938041 272.736786 
z
" clip-path="url(#p38827fbc69)" style="fill: #1f77b4"/>
   </g>
   <g id="patch_11">
    <path d="M 140.2388 307.584 
L 141.163742 307.584 
L 141.163742 272.194694 
L 140.2388 272.194694 
z
" clip-path="url(#p38827fbc69)" style="fill: #1f77b4"/>
   </g>
   <g id="patch_12">
    <path d="M 148.539559 307.584 
L 149.464501 307.584 
L 149.464501 271.716812 
L 148.539559 271.716812 
z
" clip-path="url(#p38827fbc69)" style="fill: #1f77b4"/>
   </g>
   <g id="patch_13">
    <path d="M 156.840318 307.584 
L 157.76526 307.584 
L 157.76526 271.298186 
L 156.840318 271.298186 
z
" clip-path="url(#p38827fbc69)" style="fill: #1f77b4"/>
   </g>
   <g id="patch_14">
    <path d="M 165.141077 307.584 
L 166.066019 307.584 
L 166.066019 270.933634 
L 165.141077 270.933634 
z
" clip-path="url(#p38827fbc69)" style="fill: #1f77b4"/>
   </g>
   <g id="patch_15">
    <path d="M 173.441836 307.584 
L 174.366778 307.584 
L 174.366778 270.618037 
L 173.441836 270.618037 
z
" clip-path="url(#p38827fbc69)" style="fill: #1f77b4"/>
   </g>
   <g id="patch_16">
    <path d="M 181.742595 307.584 
L 182.667537 307.584 
L 182.667537 270.346505 
L 181.742595 270.346505 
z
" clip-path="url(#p38827fbc69)" style="fill: #1f77b4"/>
   </g>
   <g id="patch_17">
    <path d="M 190.043354 307.584 
L 190.968296 307.584 
L 190.968296 270.11446 
L 190.043354 270.11446 
z
" clip-path="url(#p38827fbc69)" style="fill: #1f77b4"/>
   </g>
   <g id="patch_18">
    <path d="M 198.344113 307.584 
L 199.269055 307.584 
L 199.269055 269.917671 
L 198.344113 269.917671 
z
" clip-path="url(#p38827fbc69)" style="fill: #1f77b4"/>
   </g>
   <g id="patch_19">
    <path d="M 206.644872 307.584 
L 207.569814 307.584 
L 207.569814 269.752268 
L 206.644872 269.752268 
z
" clip-path="url(#p38827fbc69)" style="fill: #1f77b4"/>
   </g>
   <g id="patch_20">
    <path d="M 214.945631 307.584 
L 215.870573 307.584 
L 215.870573 269.61474 
L 214.945631 269.61474 
z
" clip-path="url(#p38827fbc69)" style="fill: #1f77b4"/>
   </g>
   <g id="patch_21">
    <path d="M 223.246391 307.584 
L 224.171332 307.584 
L 224.171332 269.501912 
L 223.246391 269.501912 
z
" clip-path="url(#p38827fbc69)" style="fill: #1f77b4"/>
   </g>
   <g id="patch_22">
    <path d="M 231.54715 307.584 
L 232.472091 307.584 
L 232.472091 269.410933 
L 231.54715 269.410933 
z
" clip-path="url(#p38827fbc69)" style="fill: #1f77b4"/>
   </g>
   <g id="patch_23">
    <path d="M 239.847909 307.584 
L 240.77285 307.584 
L 240.77285 269.339246 
L 239.847909 269.339246 
z
" clip-path="url(#p38827fbc69)" style="fill: #1f77b4"/>
   </g>
   <g id="patch_24">
    <path d="M 248.148668 307.584 
L 249.073609 307.584 
L 249.073609 269.28457 
L 248.148668 269.28457 
z
" clip-path="url(#p38827fbc69)" style="fill: #1f77b4"/>
   </g>
   <g id="patch_25">
    <path d="M 256.449427 307.584 
L 257.374369 307.584 
L 257.374369 269.244872 
L 256.449427 269.244872 
z
" clip-path="url(#p38827fbc69)" style="fill: #1f77b4"/>
   </g>
   <g id="patch_26">
    <path d="M 264.750186 307.584 
L 265.675128 307.584 
L 265.675128 269.218345 
L 264.750186 269.218345 
z
" clip-path="url(#p38827fbc69)" style="fill: #1f77b4"/>
   </g>
   <g id="patch_27">
    <path d="M 273.050945 307.584 
L 273.975887 307.584 
L 273.975887 269.203384 
L 273.050945 269.203384 
z
" clip-path="url(#p38827fbc69)" style="fill: #1f77b4"/>
   </g>
   <g id="patch_28">
    <path d="M 281.351704 307.584 
L 282.276646 307.584 
L 282.276646 269.198567 
L 281.351704 269.198567 
z
" clip-path="url(#p38827fbc69)" style="fill: #1f77b4"/>
   </g>
   <g id="patch_29">
    <path d="M 289.652463 307.584 
L 290.577405 307.584 
L 290.577405 269.202636 
L 289.652463 269.202636 
z
" clip-path="url(#p38827fbc69)" style="fill: #1f77b4"/>
   </g>
   <g id="patch_30">
    <path d="M 297.953222 307.584 
L 298.878164 307.584 
L 298.878164 269.214477 
L 297.953222 269.214477 
z
" clip-path="url(#p38827fbc69)" style="fill: #1f77b4"/>
   </g>
   <g id="patch_31">
    <path d="M 306.253981 307.584 
L 307.178923 307.584 
L 307.178923 269.233105 
L 306.253981 269.233105 
z
" clip-path="url(#p38827fbc69)" style="fill: #1f77b4"/>
   </g>
   <g id="patch_32">
    <path d="M 314.55474 307.584 
L 315.479682 307.584 
L 315.479682 269.257652 
L 314.55474 269.257652 
z
" clip-path="url(#p38827fbc69)" style="fill: #1f77b4"/>
   </g>
   <g id="patch_33">
    <path d="M 322.855499 307.584 
L 323.780441 307.584 
L 323.780441 269.287348 
L 322.855499 269.287348 
z
" clip-path="url(#p38827fbc69)" style="fill: #1f77b4"/>
   </g>
   <g id="patch_34">
    <path d="M 331.156258 307.584 
L 332.0812 307.584 
L 332.0812 269.321515 
L 331.156258 269.321515 
z
" clip-path="url(#p38827fbc69)" style="fill: #1f77b4"/>
   </g>
   <g id="patch_35">
    <path d="M 339.457018 307.584 
L 340.381959 307.584 
L 340.381959 269.359553 
L 339.457018 269.359553 
z
" clip-path="url(#p38827fbc69)" style="fill: #1f77b4"/>
   </g>
   <g id="patch_36">
    <path d="M 347.757777 307.584 
L 348.682718 307.584 
L 348.682718 269.400933 
L 347.757777 269.400933 
z
" clip-path="url(#p38827fbc69)" style="fill: #1f77b4"/>
   </g>
   <g id="patch_37">
    <path d="M 356.058536 307.584 
L 356.983477 307.584 
L 356.983477 269.445187 
L 356.058536 269.445187 
z
" clip-path="url(#p38827fbc69)" style="fill: #1f77b4"/>
   </g>
   <g id="patch_38">
    <path d="M 364.359295 307.584 
L 365.284236 307.584 
L 365.284236 269.491903 
L 364.359295 269.491903 
z
" clip-path="url(#p38827fbc69)" style="fill: #1f77b4"/>
   </g>
   <g id="patch_39">
    <path d="M 372.660054 307.584 
L 373.584996 307.584 
L 373.584996 269.540716 
L 372.660054 269.540716 
z
" clip-path="url(#p38827fbc69)" style="fill: #1f77b4"/>
   </g>
   <g id="patch_40">
    <path d="M 380.960813 307.584 
L 381.885755 307.584 
L 381.885755 269.591303 
L 380.960813 269.591303 
z
" clip-path="url(#p38827fbc69)" style="fill: #1f77b4"/>
   </g>
   <g id="patch_41">
    <path d="M 389.261572 307.584 
L 390.186514 307.584 
L 390.186514 269.643381 
L 389.261572 269.643381 
z
" clip-path="url(#p38827fbc69)" style="fill: #1f77b4"/>
   </g>
   <g id="patch_42">
    <path d="M 397.562331 307.584 
L 398.487273 307.584 
L 398.487273 269.696697 
L 397.562331 269.696697 
z
" clip-path="url(#p38827fbc69)" style="fill: #1f77b4"/>
   </g>
   <g id="patch_43">
    <path d="M 73.832727 277.934387 
L 74.757669 277.934387 
L 74.757669 267.116304 
L 73.832727 267.116304 
z
" clip-path="url(#p38827fbc69)" style="fill: #ff7f0e"/>
   </g>
   <g id="patch_44">
    <path d="M 82.133486 277.267247 
L 83.058428 277.267247 
L 83.058428 266.374284 
L 82.133486 266.374284 
z
" clip-path="url(#p38827fbc69)" style="fill: #ff7f0e"/>
   </g>
   <g id="patch_45">
    <path d="M 90.434245 276.439843 
L 91.359187 276.439843 
L 91.359187 265.516391 
L 90.434245 265.516391 
z
" clip-path="url(#p38827fbc69)" style="fill: #ff7f0e"/>
   </g>
   <g id="patch_46">
    <path d="M 98.735004 275.591219 
L 99.659946 275.591219 
L 99.659946 264.660496 
L 98.735004 264.660496 
z
" clip-path="url(#p38827fbc69)" style="fill: #ff7f0e"/>
   </g>
   <g id="patch_47">
    <path d="M 107.035764 274.779431 
L 107.960705 274.779431 
L 107.960705 263.854658 
L 107.035764 263.854658 
z
" clip-path="url(#p38827fbc69)" style="fill: #ff7f0e"/>
   </g>
   <g id="patch_48">
    <path d="M 115.336523 274.028564 
L 116.261464 274.028564 
L 116.261464 263.117718 
L 115.336523 263.117718 
z
" clip-path="url(#p38827fbc69)" style="fill: #ff7f0e"/>
   </g>
   <g id="patch_49">
    <path d="M 123.637282 273.34727 
L 124.562223 273.34727 
L 124.562223 262.455349 
L 123.637282 262.455349 
z
" clip-path="url(#p38827fbc69)" style="fill: #ff7f0e"/>
   </g>
   <g id="patch_50">
    <path d="M 131.938041 272.736786 
L 132.862982 272.736786 
L 132.862982 261.866984 
L 131.938041 261.866984 
z
" clip-path="url(#p38827fbc69)" style="fill: #ff7f0e"/>
   </g>
   <g id="patch_51">
    <path d="M 140.2388 272.194694 
L 141.163742 272.194694 
L 141.163742 261.349063 
L 140.2388 261.349063 
z
" clip-path="url(#p38827fbc69)" style="fill: #ff7f0e"/>
   </g>
   <g id="patch_52">
    <path d="M 148.539559 271.716812 
L 149.464501 271.716812 
L 149.464501 260.896655 
L 148.539559 260.896655 
z
" clip-path="url(#p38827fbc69)" style="fill: #ff7f0e"/>
   </g>
   <g id="patch_53">
    <path d="M 156.840318 271.298186 
L 157.76526 271.298186 
L 157.76526 260.504303 
L 156.840318 260.504303 
z
" clip-path="url(#p38827fbc69)" style="fill: #ff7f0e"/>
   </g>
   <g id="patch_54">
    <path d="M 165.141077 270.933634 
L 166.066019 270.933634 
L 166.066019 260.166479 
L 165.141077 260.166479 
z
" clip-path="url(#p38827fbc69)" style="fill: #ff7f0e"/>
   </g>
   <g id="patch_55">
    <path d="M 173.441836 270.618037 
L 174.366778 270.618037 
L 174.366778 259.877825 
L 173.441836 259.877825 
z
" clip-path="url(#p38827fbc69)" style="fill: #ff7f0e"/>
   </g>
   <g id="patch_56">
    <path d="M 181.742595 270.346505 
L 182.667537 270.346505 
L 182.667537 259.633282 
L 181.742595 259.633282 
z
" clip-path="url(#p38827fbc69)" style="fill: #ff7f0e"/>
   </g>
   <g id="patch_57">
    <path d="M 190.043354 270.11446 
L 190.968296 270.11446 
L 190.968296 259.428155 
L 190.043354 259.428155 
z
" clip-path="url(#p38827fbc69)" style="fill: #ff7f0e"/>
   </g>
   <g id="patch_58">
    <path d="M 198.344113 269.917671 
L 199.269055 269.917671 
L 199.269055 259.25813 
L 198.344113 259.25813 
z
" clip-path="url(#p38827fbc69)" style="fill: #ff7f0e"/>
   </g>
   <g id="patch_59">
    <path d="M 206.644872 269.752268 
L 207.569814 269.752268 
L 207.569814 259.119283 
L 206.644872 259.119283 
z
" clip-path="url(#p38827fbc69)" style="fill: #ff7f0e"/>
   </g>
   <g id="patch_60">
    <path d="M 214.945631 269.61474 
L 215.870573 269.61474 
L 215.870573 259.008061 
L 214.945631 259.008061 
z
" clip-path="url(#p38827fbc69)" style="fill: #ff7f0e"/>
   </g>
   <g id="patch_61">
    <path d="M 223.246391 269.501912 
L 224.171332 269.501912 
L 224.171332 258.921266 
L 223.246391 258.921266 
z
" clip-path="url(#p38827fbc69)" style="fill: #ff7f0e"/>
   </g>
   <g id="patch_62">
    <path d="M 231.54715 269.410933 
L 232.472091 269.410933 
L 232.472091 258.85603 
L 231.54715 258.85603 
z
" clip-path="url(#p38827fbc69)" style="fill: #ff7f0e"/>
   </g>
   <g id="patch_63">
    <path d="M 239.847909 269.339246 
L 240.77285 269.339246 
L 240.77285 258.809788 
L 239.847909 258.809788 
z
" clip-path="url(#p38827fbc69)" style="fill: #ff7f0e"/>
   </g>
   <g id="patch_64">
    <path d="M 248.148668 269.28457 
L 249.073609 269.28457 
L 249.073609 258.780255 
L 248.148668 258.780255 
z
" clip-path="url(#p38827fbc69)" style="fill: #ff7f0e"/>
   </g>
   <g id="patch_65">
    <path d="M 256.449427 269.244872 
L 257.374369 269.244872 
L 257.374369 258.765399 
L 256.449427 258.765399 
z
" clip-path="url(#p38827fbc69)" style="fill: #ff7f0e"/>
   </g>
   <g id="patch_66">
    <path d="M 264.750186 269.218345 
L 265.675128 269.218345 
L 265.675128 258.763416 
L 264.750186 258.763416 
z
" clip-path="url(#p38827fbc69)" style="fill: #ff7f0e"/>
   </g>
   <g id="patch_67">
    <path d="M 273.050945 269.203384 
L 273.975887 269.203384 
L 273.975887 258.772706 
L 273.050945 258.772706 
z
" clip-path="url(#p38827fbc69)" style="fill: #ff7f0e"/>
   </g>
   <g id="patch_68">
    <path d="M 281.351704 269.198567 
L 282.276646 269.198567 
L 282.276646 258.791854 
L 281.351704 258.791854 
z
" clip-path="url(#p38827fbc69)" style="fill: #ff7f0e"/>
   </g>
   <g id="patch_69">
    <path d="M 289.652463 269.202636 
L 290.577405 269.202636 
L 290.577405 258.819609 
L 289.652463 258.819609 
z
" clip-path="url(#p38827fbc69)" style="fill: #ff7f0e"/>
   </g>
   <g id="patch_70">
    <path d="M 297.953222 269.214477 
L 298.878164 269.214477 
L 298.878164 258.854864 
L 297.953222 258.854864 
z
" clip-path="url(#p38827fbc69)" style="fill: #ff7f0e"/>
   </g>
   <g id="patch_71">
    <path d="M 306.253981 269.233105 
L 307.178923 269.233105 
L 307.178923 258.896643 
L 306.253981 258.896643 
z
" clip-path="url(#p38827fbc69)" style="fill: #ff7f0e"/>
   </g>
   <g id="patch_72">
    <path d="M 314.55474 269.257652 
L 315.479682 269.257652 
L 315.479682 258.944086 
L 314.55474 258.944086 
z
" clip-path="url(#p38827fbc69)" style="fill: #ff7f0e"/>
   </g>
   <g id="patch_73">
    <path d="M 322.855499 269.287348 
L 323.780441 269.287348 
L 323.780441 258.996431 
L 322.855499 258.996431 
z
" clip-path="url(#p38827fbc69)" style="fill: #ff7f0e"/>
   </g>
   <g id="patch_74">
    <path d="M 331.156258 269.321515 
L 332.0812 269.321515 
L 332.0812 259.053008 
L 331.156258 259.053008 
z
" clip-path="url(#p38827fbc69)" style="fill: #ff7f0e"/>
   </g>
   <g id="patch_75">
    <path d="M 339.457018 269.359553 
L 340.381959 269.359553 
L 340.381959 259.113226 
L 339.457018 259.113226 
z
" clip-path="url(#p38827fbc69)" style="fill: #ff7f0e"/>
   </g>
   <g id="patch_76">
    <path d="M 347.757777 269.400933 
L 348.682718 269.400933 
L 348.682718 259.176564 
L 347.757777 259.176564 
z
" clip-path="url(#p38827fbc69)" style="fill: #ff7f0e"/>
   </g>
   <g id="patch_77">
    <path d="M 356.058536 269.445187 
L 356.983477 269.445187 
L 356.983477 259.242561 
L 356.058536 259.242561 
z
" clip-path="url(#p38827fbc69)" style="fill: #ff7f0e"/>
   </g>
   <g id="patch_78">
    <path d="M 364.359295 269.491903 
L 365.284236 269.491903 
L 365.284236 259.310812 
L 364.359295 259.310812 
z
" clip-path="url(#p38827fbc69)" style="fill: #ff7f0e"/>
   </g>
   <g id="patch_79">
    <path d="M 372.660054 269.540716 
L 373.584996 269.540716 
L 373.584996 259.38096 
L 372.660054 259.38096 
z
" clip-path="url(#p38827fbc69)" style="fill: #ff7f0e"/>
   </g>
   <g id="patch_80">
    <path d="M 380.960813 269.591303 
L 381.885755 269.591303 
L 381.885755 259.452688 
L 380.960813 259.452688 
z
" clip-path="url(#p38827fbc69)" style="fill: #ff7f0e"/>
   </g>
   <g id="patch_81">
    <path d="M 389.261572 269.643381 
L 390.186514 269.643381 
L 390.186514 259.525719 
L 389.261572 259.525719 
z
" clip-path="url(#p38827fbc69)" style="fill: #ff7f0e"/>
   </g>
   <g id="patch_82">
    <path d="M 397.562331 269.696697 
L 398.487273 269.696697 
L 398.487273 259.599807 
L 397.562331 259.599807 
z
" clip-path="url(#p38827fbc69)" style="fill: #ff7f0e"/>
   </g>
   <g id="patch_83">
    <path d="M 73.832727 267.116304 
L 74.757669 267.116304 
L 74.757669 195.411519 
L 73.832727 195.411519 
z
" clip-path="url(#p38827fbc69)" style="fill: #2ca02c"/>
   </g>
   <g id="patch_84">
    <path d="M 82.133486 266.374284 
L 83.058428 266.374284 
L 83.058428 198.530467 
L 82.133486 198.530467 
z
" clip-path="url(#p38827fbc69)" style="fill: #2ca02c"/>
   </g>
   <g id="patch_85">
    <path d="M 90.434245 265.516391 
L 91.359187 265.516391 
L 91.359187 199.798021 
L 90.434245 199.798021 
z
" clip-path="url(#p38827fbc69)" style="fill: #2ca02c"/>
   </g>
   <g id="patch_86">
    <path d="M 98.735004 264.660496 
L 99.659946 264.660496 
L 99.659946 200.128155 
L 98.735004 200.128155 
z
" clip-path="url(#p38827fbc69)" style="fill: #2ca02c"/>
   </g>
   <g id="patch_87">
    <path d="M 107.035764 263.854658 
L 107.960705 263.854658 
L 107.960705 199.941115 
L 107.035764 199.941115 
z
" clip-path="url(#p38827fbc69)" style="fill: #2ca02c"/>
   </g>
   <g id="patch_88">
    <path d="M 115.336523 263.117718 
L 116.261464 263.117718 
L 116.261464 199.451839 
L 115.336523 199.451839 
z
" clip-path="url(#p38827fbc69)" style="fill: #2ca02c"/>
   </g>
   <g id="patch_89">
    <path d="M 123.637282 262.455349 
L 124.562223 262.455349 
L 124.562223 198.779498 
L 123.637282 198.779498 
z
" clip-path="url(#p38827fbc69)" style="fill: #2ca02c"/>
   </g>
   <g id="patch_90">
    <path d="M 131.938041 261.866984 
L 132.862982 261.866984 
L 132.862982 197.994155 
L 131.938041 197.994155 
z
" clip-path="url(#p38827fbc69)" style="fill: #2ca02c"/>
   </g>
   <g id="patch_91">
    <path d="M 140.2388 261.349063 
L 141.163742 261.349063 
L 141.163742 197.138762 
L 140.2388 197.138762 
z
" clip-path="url(#p38827fbc69)" style="fill: #2ca02c"/>
   </g>
   <g id="patch_92">
    <path d="M 148.539559 260.896655 
L 149.464501 260.896655 
L 149.464501 196.240428 
L 148.539559 196.240428 
z
" clip-path="url(#p38827fbc69)" style="fill: #2ca02c"/>
   </g>
   <g id="patch_93">
    <path d="M 156.840318 260.504303 
L 157.76526 260.504303 
L 157.76526 195.316586 
L 156.840318 195.316586 
z
" clip-path="url(#p38827fbc69)" style="fill: #2ca02c"/>
   </g>
   <g id="patch_94">
    <path d="M 165.141077 260.166479 
L 166.066019 260.166479 
L 166.066019 194.378559 
L 165.141077 194.378559 
z
" clip-path="url(#p38827fbc69)" style="fill: #2ca02c"/>
   </g>
   <g id="patch_95">
    <path d="M 173.441836 259.877825 
L 174.366778 259.877825 
L 174.366778 193.433715 
L 173.441836 193.433715 
z
" clip-path="url(#p38827fbc69)" style="fill: #2ca02c"/>
   </g>
   <g id="patch_96">
    <path d="M 181.742595 259.633282 
L 182.667537 259.633282 
L 182.667537 192.486808 
L 181.742595 192.486808 
z
" clip-path="url(#p38827fbc69)" style="fill: #2ca02c"/>
   </g>
   <g id="patch_97">
    <path d="M 190.043354 259.428155 
L 190.968296 259.428155 
L 190.968296 191.540846 
L 190.043354 191.540846 
z
" clip-path="url(#p38827fbc69)" style="fill: #2ca02c"/>
   </g>
   <g id="patch_98">
    <path d="M 198.344113 259.25813 
L 199.269055 259.25813 
L 199.269055 190.597668 
L 198.344113 190.597668 
z
" clip-path="url(#p38827fbc69)" style="fill: #2ca02c"/>
   </g>
   <g id="patch_99">
    <path d="M 206.644872 259.119283 
L 207.569814 259.119283 
L 207.569814 189.65832 
L 206.644872 189.65832 
z
" clip-path="url(#p38827fbc69)" style="fill: #2ca02c"/>
   </g>
   <g id="patch_100">
    <path d="M 214.945631 259.008061 
L 215.870573 259.008061 
L 215.870573 188.723322 
L 214.945631 188.723322 
z
" clip-path="url(#p38827fbc69)" style="fill: #2ca02c"/>
   </g>
   <g id="patch_101">
    <path d="M 223.246391 258.921266 
L 224.171332 258.921266 
L 224.171332 187.792845 
L 223.246391 187.792845 
z
" clip-path="url(#p38827fbc69)" style="fill: #2ca02c"/>
   </g>
   <g id="patch_102">
    <path d="M 231.54715 258.85603 
L 232.472091 258.85603 
L 232.472091 186.866835 
L 231.54715 186.866835 
z
" clip-path="url(#p38827fbc69)" style="fill: #2ca02c"/>
   </g>
   <g id="patch_103">
    <path d="M 239.847909 258.809788 
L 240.77285 258.809788 
L 240.77285 185.945098 
L 239.847909 185.945098 
z
" clip-path="url(#p38827fbc69)" style="fill: #2ca02c"/>
   </g>
   <g id="patch_104">
    <path d="M 248.148668 258.780255 
L 249.073609 258.780255 
L 249.073609 185.02736 
L 248.148668 185.02736 
z
" clip-path="url(#p38827fbc69)" style="fill: #2ca02c"/>
   </g>
   <g id="patch_105">
    <path d="M 256.449427 258.765399 
L 257.374369 258.765399 
L 257.374369 184.113309 
L 256.449427 184.113309 
z
" clip-path="url(#p38827fbc69)" style="fill: #2ca02c"/>
   </g>
   <g id="patch_106">
    <path d="M 264.750186 258.763416 
L 265.675128 258.763416 
L 265.675128 183.202617 
L 264.750186 183.202617 
z
" clip-path="url(#p38827fbc69)" style="fill: #2ca02c"/>
   </g>
   <g id="patch_107">
    <path d="M 273.050945 258.772706 
L 273.975887 258.772706 
L 273.975887 182.294965 
L 273.050945 182.294965 
z
" clip-path="url(#p38827fbc69)" style="fill: #2ca02c"/>
   </g>
   <g id="patch_108">
    <path d="M 281.351704 258.791854 
L 282.276646 258.791854 
L 282.276646 181.390046 
L 281.351704 181.390046 
z
" clip-path="url(#p38827fbc69)" style="fill: #2ca02c"/>
   </g>
   <g id="patch_109">
    <path d="M 289.652463 258.819609 
L 290.577405 258.819609 
L 290.577405 180.487579 
L 289.652463 180.487579 
z
" clip-path="url(#p38827fbc69)" style="fill: #2ca02c"/>
   </g>
   <g id="patch_110">
    <path d="M 297.953222 258.854864 
L 298.878164 258.854864 
L 298.878164 179.587308 
L 297.953222 179.587308 
z
" clip-path="url(#p38827fbc69)" style="fill: #2ca02c"/>
   </g>
   <g id="patch_111">
    <path d="M 306.253981 258.896643 
L 307.178923 258.896643 
L 307.178923 178.689004 
L 306.253981 178.689004 
z
" clip-path="url(#p38827fbc69)" style="fill: #2ca02c"/>
   </g>
   <g id="patch_112">
    <path d="M 314.55474 258.944086 
L 315.479682 258.944086 
L 315.479682 177.792467 
L 314.55474 177.792467 
z
" clip-path="url(#p38827fbc69)" style="fill: #2ca02c"/>
   </g>
   <g id="patch_113">
    <path d="M 322.855499 258.996431 
L 323.780441 258.996431 
L 323.780441 176.89752 
L 322.855499 176.89752 
z
" clip-path="url(#p38827fbc69)" style="fill: #2ca02c"/>
   </g>
   <g id="patch_114">
    <path d="M 331.156258 259.053008 
L 332.0812 259.053008 
L 332.0812 176.004014 
L 331.156258 176.004014 
z
" clip-path="url(#p38827fbc69)" style="fill: #2ca02c"/>
   </g>
   <g id="patch_115">
    <path d="M 339.457018 259.113226 
L 340.381959 259.113226 
L 340.381959 175.11182 
L 339.457018 175.11182 
z
" clip-path="url(#p38827fbc69)" style="fill: #2ca02c"/>
   </g>
   <g id="patch_116">
    <path d="M 347.757777 259.176564 
L 348.682718 259.176564 
L 348.682718 174.220832 
L 347.757777 174.220832 
z
" clip-path="url(#p38827fbc69)" style="fill: #2ca02c"/>
   </g>
   <g id="patch_117">
    <path d="M 356.058536 259.242561 
L 356.983477 259.242561 
L 356.983477 173.330959 
L 356.058536 173.330959 
z
" clip-path="url(#p38827fbc69)" style="fill: #2ca02c"/>
   </g>
   <g id="patch_118">
    <path d="M 364.359295 259.310812 
L 365.284236 259.310812 
L 365.284236 172.442128 
L 364.359295 172.442128 
z
" clip-path="url(#p38827fbc69)" style="fill: #2ca02c"/>
   </g>
   <g id="patch_119">
    <path d="M 372.660054 259.38096 
L 373.584996 259.38096 
L 373.584996 171.55428 
L 372.660054 171.55428 
z
" clip-path="url(#p38827fbc69)" style="fill: #2ca02c"/>
   </g>
   <g id="patch_120">
    <path d="M 380.960813 259.452688 
L 381.885755 259.452688 
L 381.885755 170.66737 
L 380.960813 170.66737 
z
" clip-path="url(#p38827fbc69)" style="fill: #2ca02c"/>
   </g>
   <g id="patch_121">
    <path d="M 389.261572 259.525719 
L 390.186514 259.525719 
L 390.186514 169.781361 
L 389.261572 169.781361 
z
" clip-path="url(#p38827fbc69)" style="fill: #2ca02c"/>
   </g>
   <g id="patch_122">
    <path d="M 397.562331 259.599807 
L 398.487273 259.599807 
L 398.487273 168.896228 
L 397.562331 168.896228 
z
" clip-path="url(#p38827fbc69)" style="fill: #2ca02c"/>
   </g>
   <g id="patch_123">
    <path d="M 73.832727 195.411519 
L 74.757669 195.411519 
L 74.757669 106.300029 
L 73.832727 106.300029 
z
" clip-path="url(#p38827fbc69)" style="fill: #d62728"/>
   </g>
   <g id="patch_124">
    <path d="M 82.133486 198.530467 
L 83.058428 198.530467 
L 83.058428 110.84358 
L 82.133486 110.84358 
z
" clip-path="url(#p38827fbc69)" style="fill: #d62728"/>
   </g>
   <g id="patch_125">
    <path d="M 90.434245 199.798021 
L 91.359187 199.798021 
L 91.359187 112.876334 
L 90.434245 112.876334 
z
" clip-path="url(#p38827fbc69)" style="fill: #d62728"/>
   </g>
   <g id="patch_126">
    <path d="M 98.735004 200.128155 
L 99.659946 200.128155 
L 99.659946 113.623922 
L 98.735004 113.623922 
z
" clip-path="url(#p38827fbc69)" style="fill: #d62728"/>
   </g>
   <g id="patch_127">
    <path d="M 107.035764 199.941115 
L 107.960705 199.941115 
L 107.960705 113.653675 
L 107.035764 113.653675 
z
" clip-path="url(#p38827fbc69)" style="fill: #d62728"/>
   </g>
   <g id="patch_128">
    <path d="M 115.336523 199.451839 
L 116.261464 199.451839 
L 116.261464 113.257597 
L 115.336523 113.257597 
z
" clip-path="url(#p38827fbc69)" style="fill: #d62728"/>
   </g>
   <g id="patch_129">
    <path d="M 123.637282 198.779498 
L 124.562223 198.779498 
L 124.562223 112.59868 
L 123.637282 112.59868 
z
" clip-path="url(#p38827fbc69)" style="fill: #d62728"/>
   </g>
   <g id="patch_130">
    <path d="M 131.938041 197.994155 
L 132.862982 197.994155 
L 132.862982 111.77349 
L 131.938041 111.77349 
z
" clip-path="url(#p38827fbc69)" style="fill: #d62728"/>
   </g>
   <g id="patch_131">
    <path d="M 140.2388 197.138762 
L 141.163742 197.138762 
L 141.163742 110.841774 
L 140.2388 110.841774 
z
" clip-path="url(#p38827fbc69)" style="fill: #d62728"/>
   </g>
   <g id="patch_132">
    <path d="M 148.539559 196.240428 
L 149.464501 196.240428 
L 149.464501 109.841666 
L 148.539559 109.841666 
z
" clip-path="url(#p38827fbc69)" style="fill: #d62728"/>
   </g>
   <g id="patch_133">
    <path d="M 156.840318 195.316586 
L 157.76526 195.316586 
L 157.76526 108.798044 
L 156.840318 108.798044 
z
" clip-path="url(#p38827fbc69)" style="fill: #d62728"/>
   </g>
   <g id="patch_134">
    <path d="M 165.141077 194.378559 
L 166.066019 194.378559 
L 166.066019 107.727361 
L 165.141077 107.727361 
z
" clip-path="url(#p38827fbc69)" style="fill: #d62728"/>
   </g>
   <g id="patch_135">
    <path d="M 173.441836 193.433715 
L 174.366778 193.433715 
L 174.366778 106.640579 
L 173.441836 106.640579 
z
" clip-path="url(#p38827fbc69)" style="fill: #d62728"/>
   </g>
   <g id="patch_136">
    <path d="M 181.742595 192.486808 
L 182.667537 192.486808 
L 182.667537 105.545007 
L 181.742595 105.545007 
z
" clip-path="url(#p38827fbc69)" style="fill: #d62728"/>
   </g>
   <g id="patch_137">
    <path d="M 190.043354 191.540846 
L 190.968296 191.540846 
L 190.968296 104.445486 
L 190.043354 104.445486 
z
" clip-path="url(#p38827fbc69)" style="fill: #d62728"/>
   </g>
   <g id="patch_138">
    <path d="M 198.344113 190.597668 
L 199.269055 190.597668 
L 199.269055 103.34518 
L 198.344113 103.34518 
z
" clip-path="url(#p38827fbc69)" style="fill: #d62728"/>
   </g>
   <g id="patch_139">
    <path d="M 206.644872 189.65832 
L 207.569814 189.65832 
L 207.569814 102.246099 
L 206.644872 102.246099 
z
" clip-path="url(#p38827fbc69)" style="fill: #d62728"/>
   </g>
   <g id="patch_140">
    <path d="M 214.945631 188.723322 
L 215.870573 188.723322 
L 215.870573 101.149471 
L 214.945631 101.149471 
z
" clip-path="url(#p38827fbc69)" style="fill: #d62728"/>
   </g>
   <g id="patch_141">
    <path d="M 223.246391 187.792845 
L 224.171332 187.792845 
L 224.171332 100.055985 
L 223.246391 100.055985 
z
" clip-path="url(#p38827fbc69)" style="fill: #d62728"/>
   </g>
   <g id="patch_142">
    <path d="M 231.54715 186.866835 
L 232.472091 186.866835 
L 232.472091 98.965972 
L 231.54715 98.965972 
z
" clip-path="url(#p38827fbc69)" style="fill: #d62728"/>
   </g>
   <g id="patch_143">
    <path d="M 239.847909 185.945098 
L 240.77285 185.945098 
L 240.77285 97.879521 
L 239.847909 97.879521 
z
" clip-path="url(#p38827fbc69)" style="fill: #d62728"/>
   </g>
   <g id="patch_144">
    <path d="M 248.148668 185.02736 
L 249.073609 185.02736 
L 249.073609 96.79657 
L 248.148668 96.79657 
z
" clip-path="url(#p38827fbc69)" style="fill: #d62728"/>
   </g>
   <g id="patch_145">
    <path d="M 256.449427 184.113309 
L 257.374369 184.113309 
L 257.374369 95.716966 
L 256.449427 95.716966 
z
" clip-path="url(#p38827fbc69)" style="fill: #d62728"/>
   </g>
   <g id="patch_146">
    <path d="M 264.750186 183.202617 
L 265.675128 183.202617 
L 265.675128 94.640498 
L 264.750186 94.640498 
z
" clip-path="url(#p38827fbc69)" style="fill: #d62728"/>
   </g>
   <g id="patch_147">
    <path d="M 273.050945 182.294965 
L 273.975887 182.294965 
L 273.975887 93.566938 
L 273.050945 93.566938 
z
" clip-path="url(#p38827fbc69)" style="fill: #d62728"/>
   </g>
   <g id="patch_148">
    <path d="M 281.351704 181.390046 
L 282.276646 181.390046 
L 282.276646 92.496047 
L 281.351704 92.496047 
z
" clip-path="url(#p38827fbc69)" style="fill: #d62728"/>
   </g>
   <g id="patch_149">
    <path d="M 289.652463 180.487579 
L 290.577405 180.487579 
L 290.577405 91.427596 
L 289.652463 91.427596 
z
" clip-path="url(#p38827fbc69)" style="fill: #d62728"/>
   </g>
   <g id="patch_150">
    <path d="M 297.953222 179.587308 
L 298.878164 179.587308 
L 298.878164 90.36137 
L 297.953222 90.36137 
z
" clip-path="url(#p38827fbc69)" style="fill: #d62728"/>
   </g>
   <g id="patch_151">
    <path d="M 306.253981 178.689004 
L 307.178923 178.689004 
L 307.178923 89.297174 
L 306.253981 89.297174 
z
" clip-path="url(#p38827fbc69)" style="fill: #d62728"/>
   </g>
   <g id="patch_152">
    <path d="M 314.55474 177.792467 
L 315.479682 177.792467 
L 315.479682 88.23483 
L 314.55474 88.23483 
z
" clip-path="url(#p38827fbc69)" style="fill: #d62728"/>
   </g>
   <g id="patch_153">
    <path d="M 322.855499 176.89752 
L 323.780441 176.89752 
L 323.780441 87.174187 
L 322.855499 87.174187 
z
" clip-path="url(#p38827fbc69)" style="fill: #d62728"/>
   </g>
   <g id="patch_154">
    <path d="M 331.156258 176.004014 
L 332.0812 176.004014 
L 332.0812 86.11511 
L 331.156258 86.11511 
z
" clip-path="url(#p38827fbc69)" style="fill: #d62728"/>
   </g>
   <g id="patch_155">
    <path d="M 339.457018 175.11182 
L 340.381959 175.11182 
L 340.381959 85.057486 
L 339.457018 85.057486 
z
" clip-path="url(#p38827fbc69)" style="fill: #d62728"/>
   </g>
   <g id="patch_156">
    <path d="M 347.757777 174.220832 
L 348.682718 174.220832 
L 348.682718 84.001221 
L 347.757777 84.001221 
z
" clip-path="url(#p38827fbc69)" style="fill: #d62728"/>
   </g>
   <g id="patch_157">
    <path d="M 356.058536 173.330959 
L 356.983477 173.330959 
L 356.983477 82.946237 
L 356.058536 82.946237 
z
" clip-path="url(#p38827fbc69)" style="fill: #d62728"/>
   </g>
   <g id="patch_158">
    <path d="M 364.359295 172.442128 
L 365.284236 172.442128 
L 365.284236 81.892471 
L 364.359295 81.892471 
z
" clip-path="url(#p38827fbc69)" style="fill: #d62728"/>
   </g>
   <g id="patch_159">
    <path d="M 372.660054 171.55428 
L 373.584996 171.55428 
L 373.584996 80.839873 
L 372.660054 80.839873 
z
" clip-path="url(#p38827fbc69)" style="fill: #d62728"/>
   </g>
   <g id="patch_160">
    <path d="M 380.960813 170.66737 
L 381.885755 170.66737 
L 381.885755 79.788406 
L 380.960813 79.788406 
z
" clip-path="url(#p38827fbc69)" style="fill: #d62728"/>
   </g>
   <g id="patch_161">
    <path d="M 389.261572 169.781361 
L 390.186514 169.781361 
L 390.186514 78.738043 
L 389.261572 78.738043 
z
" clip-path="url(#p38827fbc69)" style="fill: #d62728"/>
   </g>
   <g id="patch_162">
    <path d="M 397.562331 168.896228 
L 398.487273 168.896228 
L 398.487273 77.688764 
L 397.562331 77.688764 
z
" clip-path="url(#p38827fbc69)" style="fill: #d62728"/>
   </g>
   <g id="patch_163">
    <path d="M 73.832727 106.300029 
L 74.757669 106.300029 
L 74.757669 57.978626 
L 73.832727 57.978626 
z
" clip-path="url(#p38827fbc69)" style="fill: #9467bd"/>
   </g>
   <g id="patch_164">
    <path d="M 82.133486 110.84358 
L 83.058428 110.84358 
L 83.058428 66.380554 
L 82.133486 66.380554 
z
" clip-path="url(#p38827fbc69)" style="fill: #9467bd"/>
   </g>
   <g id="patch_165">
    <path d="M 90.434245 112.876334 
L 91.359187 112.876334 
L 91.359187 71.129439 
L 90.434245 71.129439 
z
" clip-path="url(#p38827fbc69)" style="fill: #9467bd"/>
   </g>
   <g id="patch_166">
    <path d="M 98.735004 113.623922 
L 99.659946 113.623922 
L 99.659946 73.933495 
L 98.735004 73.933495 
z
" clip-path="url(#p38827fbc69)" style="fill: #9467bd"/>
   </g>
   <g id="patch_167">
    <path d="M 107.035764 113.653675 
L 107.960705 113.653675 
L 107.960705 75.600963 
L 107.035764 75.600963 
z
" clip-path="url(#p38827fbc69)" style="fill: #9467bd"/>
   </g>
   <g id="patch_168">
    <path d="M 115.336523 113.257597 
L 116.261464 113.257597 
L 116.261464 76.556763 
L 115.336523 76.556763 
z
" clip-path="url(#p38827fbc69)" style="fill: #9467bd"/>
   </g>
   <g id="patch_169">
    <path d="M 123.637282 112.59868 
L 124.562223 112.59868 
L 124.562223 77.043614 
L 123.637282 77.043614 
z
" clip-path="url(#p38827fbc69)" style="fill: #9467bd"/>
   </g>
   <g id="patch_170">
    <path d="M 131.938041 111.77349 
L 132.862982 111.77349 
L 132.862982 77.209188 
L 131.938041 77.209188 
z
" clip-path="url(#p38827fbc69)" style="fill: #9467bd"/>
   </g>
   <g id="patch_171">
    <path d="M 140.2388 110.841774 
L 141.163742 110.841774 
L 141.163742 77.147762 
L 140.2388 77.147762 
z
" clip-path="url(#p38827fbc69)" style="fill: #9467bd"/>
   </g>
   <g id="patch_172">
    <path d="M 148.539559 109.841666 
L 149.464501 109.841666 
L 149.464501 76.921818 
L 148.539559 76.921818 
z
" clip-path="url(#p38827fbc69)" style="fill: #9467bd"/>
   </g>
   <g id="patch_173">
    <path d="M 156.840318 108.798044 
L 157.76526 108.798044 
L 157.76526 76.573995 
L 156.840318 76.573995 
z
" clip-path="url(#p38827fbc69)" style="fill: #9467bd"/>
   </g>
   <g id="patch_174">
    <path d="M 165.141077 107.727361 
L 166.066019 107.727361 
L 166.066019 76.134089 
L 165.141077 76.134089 
z
" clip-path="url(#p38827fbc69)" style="fill: #9467bd"/>
   </g>
   <g id="patch_175">
    <path d="M 173.441836 106.640579 
L 174.366778 106.640579 
L 174.366778 75.623322 
L 173.441836 75.623322 
z
" clip-path="url(#p38827fbc69)" style="fill: #9467bd"/>
   </g>
   <g id="patch_176">
    <path d="M 181.742595 105.545007 
L 182.667537 105.545007 
L 182.667537 75.057058 
L 181.742595 75.057058 
z
" clip-path="url(#p38827fbc69)" style="fill: #9467bd"/>
   </g>
   <g id="patch_177">
    <path d="M 190.043354 104.445486 
L 190.968296 104.445486 
L 190.968296 74.446575 
L 190.043354 74.446575 
z
" clip-path="url(#p38827fbc69)" style="fill: #9467bd"/>
   </g>
   <g id="patch_178">
    <path d="M 198.344113 103.34518 
L 199.269055 103.34518 
L 199.269055 73.800256 
L 198.344113 73.800256 
z
" clip-path="url(#p38827fbc69)" style="fill: #9467bd"/>
   </g>
   <g id="patch_179">
    <path d="M 206.644872 102.246099 
L 207.569814 102.246099 
L 207.569814 73.124402 
L 206.644872 73.124402 
z
" clip-path="url(#p38827fbc69)" style="fill: #9467bd"/>
   </g>
   <g id="patch_180">
    <path d="M 214.945631 101.149471 
L 215.870573 101.149471 
L 215.870573 72.423806 
L 214.945631 72.423806 
z
" clip-path="url(#p38827fbc69)" style="fill: #9467bd"/>
   </g>
   <g id="patch_181">
    <path d="M 223.246391 100.055985 
L 224.171332 100.055985 
L 224.171332 71.702157 
L 223.246391 71.702157 
z
" clip-path="url(#p38827fbc69)" style="fill: #9467bd"/>
   </g>
   <g id="patch_182">
    <path d="M 231.54715 98.965972 
L 232.472091 98.965972 
L 232.472091 70.962323 
L 231.54715 70.962323 
z
" clip-path="url(#p38827fbc69)" style="fill: #9467bd"/>
   </g>
   <g id="patch_183">
    <path d="M 239.847909 97.879521 
L 240.77285 97.879521 
L 240.77285 70.206567 
L 239.847909 70.206567 
z
" clip-path="url(#p38827fbc69)" style="fill: #9467bd"/>
   </g>
   <g id="patch_184">
    <path d="M 248.148668 96.79657 
L 249.073609 96.79657 
L 249.073609 69.436698 
L 248.148668 69.436698 
z
" clip-path="url(#p38827fbc69)" style="fill: #9467bd"/>
   </g>
   <g id="patch_185">
    <path d="M 256.449427 95.716966 
L 257.374369 95.716966 
L 257.374369 68.654181 
L 256.449427 68.654181 
z
" clip-path="url(#p38827fbc69)" style="fill: #9467bd"/>
   </g>
   <g id="patch_186">
    <path d="M 264.750186 94.640498 
L 265.675128 94.640498 
L 265.675128 67.860225 
L 264.750186 67.860225 
z
" clip-path="url(#p38827fbc69)" style="fill: #9467bd"/>
   </g>
   <g id="patch_187">
    <path d="M 273.050945 93.566938 
L 273.975887 93.566938 
L 273.975887 67.055838 
L 273.050945 67.055838 
z
" clip-path="url(#p38827fbc69)" style="fill: #9467bd"/>
   </g>
   <g id="patch_188">
    <path d="M 281.351704 92.496047 
L 282.276646 92.496047 
L 282.276646 66.241878 
L 281.351704 66.241878 
z
" clip-path="url(#p38827fbc69)" style="fill: #9467bd"/>
   </g>
   <g id="patch_189">
    <path d="M 289.652463 91.427596 
L 290.577405 91.427596 
L 290.577405 65.419085 
L 289.652463 65.419085 
z
" clip-path="url(#p38827fbc69)" style="fill: #9467bd"/>
   </g>
   <g id="patch_190">
    <path d="M 297.953222 90.36137 
L 298.878164 90.36137 
L 298.878164 64.588105 
L 297.953222 64.588105 
z
" clip-path="url(#p38827fbc69)" style="fill: #9467bd"/>
   </g>
   <g id="patch_191">
    <path d="M 306.253981 89.297174 
L 307.178923 89.297174 
L 307.178923 63.749514 
L 306.253981 63.749514 
z
" clip-path="url(#p38827fbc69)" style="fill: #9467bd"/>
   </g>
   <g id="patch_192">
    <path d="M 314.55474 88.23483 
L 315.479682 88.23483 
L 315.479682 62.903827 
L 314.55474 62.903827 
z
" clip-path="url(#p38827fbc69)" style="fill: #9467bd"/>
   </g>
   <g id="patch_193">
    <path d="M 322.855499 87.174187 
L 323.780441 87.174187 
L 323.780441 62.051512 
L 322.855499 62.051512 
z
" clip-path="url(#p38827fbc69)" style="fill: #9467bd"/>
   </g>
   <g id="patch_194">
    <path d="M 331.156258 86.11511 
L 332.0812 86.11511 
L 332.0812 61.192997 
L 331.156258 61.192997 
z
" clip-path="url(#p38827fbc69)" style="fill: #9467bd"/>
   </g>
   <g id="patch_195">
    <path d="M 339.457018 85.057486 
L 340.381959 85.057486 
L 340.381959 60.328677 
L 339.457018 60.328677 
z
" clip-path="url(#p38827fbc69)" style="fill: #9467bd"/>
   </g>
   <g id="patch_196">
    <path d="M 347.757777 84.001221 
L 348.682718 84.001221 
L 348.682718 59.45892 
L 347.757777 59.45892 
z
" clip-path="url(#p38827fbc69)" style="fill: #9467bd"/>
   </g>
   <g id="patch_197">
    <path d="M 356.058536 82.946237 
L 356.983477 82.946237 
L 356.983477 58.584068 
L 356.058536 58.584068 
z
" clip-path="url(#p38827fbc69)" style="fill: #9467bd"/>
   </g>
   <g id="patch_198">
    <path d="M 364.359295 81.892471 
L 365.284236 81.892471 
L 365.284236 57.704443 
L 364.359295 57.704443 
z
" clip-path="url(#p38827fbc69)" style="fill: #9467bd"/>
   </g>
   <g id="patch_199">
    <path d="M 372.660054 80.839873 
L 373.584996 80.839873 
L 373.584996 56.820346 
L 372.660054 56.820346 
z
" clip-path="url(#p38827fbc69)" style="fill: #9467bd"/>
   </g>
   <g id="patch_200">
    <path d="M 380.960813 79.788406 
L 381.885755 79.788406 
L 381.885755 55.932063 
L 380.960813 55.932063 
z
" clip-path="url(#p38827fbc69)" style="fill: #9467bd"/>
   </g>
   <g id="patch_201">
    <path d="M 389.261572 78.738043 
L 390.186514 78.738043 
L 390.186514 55.039862 
L 389.261572 55.039862 
z
" clip-path="url(#p38827fbc69)" style="fill: #9467bd"/>
   </g>
   <g id="patch_202">
    <path d="M 397.562331 77.688764 
L 398.487273 77.688764 
L 398.487273 54.144 
L 397.562331 54.144 
z
" clip-path="url(#p38827fbc69)" style="fill: #9467bd"/>
   </g>
   <g id="matplotlib.axis_1">
    <g id="xtick_1">
     <g id="line2d_1">
      <defs>
       <path id="m5956073818" d="M 0 0 
L 0 3.5 
" style="stroke: #000000; stroke-width: 0.8"/>
      </defs>
      <g>
       <use xlink:href="#m5956073818" x="120.542284" y="307.584" style="stroke: #000000; stroke-width: 0.8"/>
      </g>
     </g>
     <g id="text_1">
      <!-- 60 -->
      <g transform="translate(109.089784 328.261187) scale(0.18 -0.18)">
       <defs>
        <path id="DejaVuSans-36" d="M 2113 2584 
Q 1688 2584 1439 2293 
Q 1191 2003 1191 1497 
Q 1191 994 1439 701 
Q 1688 409 2113 409 
Q 2538 409 2786 701 
Q 3034 994 3034 1497 
Q 3034 2003 2786 2293 
Q 2538 2584 2113 2584 
z
M 3366 4563 
L 3366 3988 
Q 3128 4100 2886 4159 
Q 2644 4219 2406 4219 
Q 1781 4219 1451 3797 
Q 1122 3375 1075 2522 
Q 1259 2794 1537 2939 
Q 1816 3084 2150 3084 
Q 2853 3084 3261 2657 
Q 3669 2231 3669 1497 
Q 3669 778 3244 343 
Q 2819 -91 2113 -91 
Q 1303 -91 875 529 
Q 447 1150 447 2328 
Q 447 3434 972 4092 
Q 1497 4750 2381 4750 
Q 2619 4750 2861 4703 
Q 3103 4656 3366 4563 
z
" transform="scale(0.015625)"/>
        <path id="DejaVuSans-30" d="M 2034 4250 
Q 1547 4250 1301 3770 
Q 1056 3291 1056 2328 
Q 1056 1369 1301 889 
Q 1547 409 2034 409 
Q 2525 409 2770 889 
Q 3016 1369 3016 2328 
Q 3016 3291 2770 3770 
Q 2525 4250 2034 4250 
z
M 2034 4750 
Q 2819 4750 3233 4129 
Q 3647 3509 3647 2328 
Q 3647 1150 3233 529 
Q 2819 -91 2034 -91 
Q 1250 -91 836 529 
Q 422 1150 422 2328 
Q 422 3509 836 4129 
Q 1250 4750 2034 4750 
z
" transform="scale(0.015625)"/>
       </defs>
       <use xlink:href="#DejaVuSans-36"/>
       <use xlink:href="#DejaVuSans-30" x="63.623047"/>
      </g>
     </g>
    </g>
    <g id="xtick_2">
     <g id="line2d_2">
      <g>
       <use xlink:href="#m5956073818" x="213.036457" y="307.584" style="stroke: #000000; stroke-width: 0.8"/>
      </g>
     </g>
     <g id="text_2">
      <!-- 80 -->
      <g transform="translate(201.583957 328.261187) scale(0.18 -0.18)">
       <defs>
        <path id="DejaVuSans-38" d="M 2034 2216 
Q 1584 2216 1326 1975 
Q 1069 1734 1069 1313 
Q 1069 891 1326 650 
Q 1584 409 2034 409 
Q 2484 409 2743 651 
Q 3003 894 3003 1313 
Q 3003 1734 2745 1975 
Q 2488 2216 2034 2216 
z
M 1403 2484 
Q 997 2584 770 2862 
Q 544 3141 544 3541 
Q 544 4100 942 4425 
Q 1341 4750 2034 4750 
Q 2731 4750 3128 4425 
Q 3525 4100 3525 3541 
Q 3525 3141 3298 2862 
Q 3072 2584 2669 2484 
Q 3125 2378 3379 2068 
Q 3634 1759 3634 1313 
Q 3634 634 3220 271 
Q 2806 -91 2034 -91 
Q 1263 -91 848 271 
Q 434 634 434 1313 
Q 434 1759 690 2068 
Q 947 2378 1403 2484 
z
M 1172 3481 
Q 1172 3119 1398 2916 
Q 1625 2713 2034 2713 
Q 2441 2713 2670 2916 
Q 2900 3119 2900 3481 
Q 2900 3844 2670 4047 
Q 2441 4250 2034 4250 
Q 1625 4250 1398 4047 
Q 1172 3844 1172 3481 
z
" transform="scale(0.015625)"/>
       </defs>
       <use xlink:href="#DejaVuSans-38"/>
       <use xlink:href="#DejaVuSans-30" x="63.623047"/>
      </g>
     </g>
    </g>
    <g id="xtick_3">
     <g id="line2d_3">
      <g>
       <use xlink:href="#m5956073818" x="305.530629" y="307.584" style="stroke: #000000; stroke-width: 0.8"/>
      </g>
     </g>
     <g id="text_3">
      <!-- 100 -->
      <g transform="translate(288.351879 328.261187) scale(0.18 -0.18)">
       <defs>
        <path id="DejaVuSans-31" d="M 794 531 
L 1825 531 
L 1825 4091 
L 703 3866 
L 703 4441 
L 1819 4666 
L 2450 4666 
L 2450 531 
L 3481 531 
L 3481 0 
L 794 0 
L 794 531 
z
" transform="scale(0.015625)"/>
       </defs>
       <use xlink:href="#DejaVuSans-31"/>
       <use xlink:href="#DejaVuSans-30" x="63.623047"/>
       <use xlink:href="#DejaVuSans-30" x="127.246094"/>
      </g>
     </g>
    </g>
    <g id="xtick_4">
     <g id="line2d_4">
      <g>
       <use xlink:href="#m5956073818" x="398.024802" y="307.584" style="stroke: #000000; stroke-width: 0.8"/>
      </g>
     </g>
     <g id="text_4">
      <!-- 120 -->
      <g transform="translate(380.846052 328.261187) scale(0.18 -0.18)">
       <defs>
        <path id="DejaVuSans-32" d="M 1228 531 
L 3431 531 
L 3431 0 
L 469 0 
L 469 531 
Q 828 903 1448 1529 
Q 2069 2156 2228 2338 
Q 2531 2678 2651 2914 
Q 2772 3150 2772 3378 
Q 2772 3750 2511 3984 
Q 2250 4219 1831 4219 
Q 1534 4219 1204 4116 
Q 875 4013 500 3803 
L 500 4441 
Q 881 4594 1212 4672 
Q 1544 4750 1819 4750 
Q 2544 4750 2975 4387 
Q 3406 4025 3406 3419 
Q 3406 3131 3298 2873 
Q 3191 2616 2906 2266 
Q 2828 2175 2409 1742 
Q 1991 1309 1228 531 
z
" transform="scale(0.015625)"/>
       </defs>
       <use xlink:href="#DejaVuSans-31"/>
       <use xlink:href="#DejaVuSans-32" x="63.623047"/>
       <use xlink:href="#DejaVuSans-30" x="127.246094"/>
      </g>
     </g>
    </g>
    <g id="text_5">
     <!-- Kondensatordruck in bar -->
     <g transform="translate(125.630156 349.681812) scale(0.18 -0.18)">
      <defs>
       <path id="DejaVuSans-4b" d="M 628 4666 
L 1259 4666 
L 1259 2694 
L 3353 4666 
L 4166 4666 
L 1850 2491 
L 4331 0 
L 3500 0 
L 1259 2247 
L 1259 0 
L 628 0 
L 628 4666 
z
" transform="scale(0.015625)"/>
       <path id="DejaVuSans-6f" d="M 1959 3097 
Q 1497 3097 1228 2736 
Q 959 2375 959 1747 
Q 959 1119 1226 758 
Q 1494 397 1959 397 
Q 2419 397 2687 759 
Q 2956 1122 2956 1747 
Q 2956 2369 2687 2733 
Q 2419 3097 1959 3097 
z
M 1959 3584 
Q 2709 3584 3137 3096 
Q 3566 2609 3566 1747 
Q 3566 888 3137 398 
Q 2709 -91 1959 -91 
Q 1206 -91 779 398 
Q 353 888 353 1747 
Q 353 2609 779 3096 
Q 1206 3584 1959 3584 
z
" transform="scale(0.015625)"/>
       <path id="DejaVuSans-6e" d="M 3513 2113 
L 3513 0 
L 2938 0 
L 2938 2094 
Q 2938 2591 2744 2837 
Q 2550 3084 2163 3084 
Q 1697 3084 1428 2787 
Q 1159 2491 1159 1978 
L 1159 0 
L 581 0 
L 581 3500 
L 1159 3500 
L 1159 2956 
Q 1366 3272 1645 3428 
Q 1925 3584 2291 3584 
Q 2894 3584 3203 3211 
Q 3513 2838 3513 2113 
z
" transform="scale(0.015625)"/>
       <path id="DejaVuSans-64" d="M 2906 2969 
L 2906 4863 
L 3481 4863 
L 3481 0 
L 2906 0 
L 2906 525 
Q 2725 213 2448 61 
Q 2172 -91 1784 -91 
Q 1150 -91 751 415 
Q 353 922 353 1747 
Q 353 2572 751 3078 
Q 1150 3584 1784 3584 
Q 2172 3584 2448 3432 
Q 2725 3281 2906 2969 
z
M 947 1747 
Q 947 1113 1208 752 
Q 1469 391 1925 391 
Q 2381 391 2643 752 
Q 2906 1113 2906 1747 
Q 2906 2381 2643 2742 
Q 2381 3103 1925 3103 
Q 1469 3103 1208 2742 
Q 947 2381 947 1747 
z
" transform="scale(0.015625)"/>
       <path id="DejaVuSans-65" d="M 3597 1894 
L 3597 1613 
L 953 1613 
Q 991 1019 1311 708 
Q 1631 397 2203 397 
Q 2534 397 2845 478 
Q 3156 559 3463 722 
L 3463 178 
Q 3153 47 2828 -22 
Q 2503 -91 2169 -91 
Q 1331 -91 842 396 
Q 353 884 353 1716 
Q 353 2575 817 3079 
Q 1281 3584 2069 3584 
Q 2775 3584 3186 3129 
Q 3597 2675 3597 1894 
z
M 3022 2063 
Q 3016 2534 2758 2815 
Q 2500 3097 2075 3097 
Q 1594 3097 1305 2825 
Q 1016 2553 972 2059 
L 3022 2063 
z
" transform="scale(0.015625)"/>
       <path id="DejaVuSans-73" d="M 2834 3397 
L 2834 2853 
Q 2591 2978 2328 3040 
Q 2066 3103 1784 3103 
Q 1356 3103 1142 2972 
Q 928 2841 928 2578 
Q 928 2378 1081 2264 
Q 1234 2150 1697 2047 
L 1894 2003 
Q 2506 1872 2764 1633 
Q 3022 1394 3022 966 
Q 3022 478 2636 193 
Q 2250 -91 1575 -91 
Q 1294 -91 989 -36 
Q 684 19 347 128 
L 347 722 
Q 666 556 975 473 
Q 1284 391 1588 391 
Q 1994 391 2212 530 
Q 2431 669 2431 922 
Q 2431 1156 2273 1281 
Q 2116 1406 1581 1522 
L 1381 1569 
Q 847 1681 609 1914 
Q 372 2147 372 2553 
Q 372 3047 722 3315 
Q 1072 3584 1716 3584 
Q 2034 3584 2315 3537 
Q 2597 3491 2834 3397 
z
" transform="scale(0.015625)"/>
       <path id="DejaVuSans-61" d="M 2194 1759 
Q 1497 1759 1228 1600 
Q 959 1441 959 1056 
Q 959 750 1161 570 
Q 1363 391 1709 391 
Q 2188 391 2477 730 
Q 2766 1069 2766 1631 
L 2766 1759 
L 2194 1759 
z
M 3341 1997 
L 3341 0 
L 2766 0 
L 2766 531 
Q 2569 213 2275 61 
Q 1981 -91 1556 -91 
Q 1019 -91 701 211 
Q 384 513 384 1019 
Q 384 1609 779 1909 
Q 1175 2209 1959 2209 
L 2766 2209 
L 2766 2266 
Q 2766 2663 2505 2880 
Q 2244 3097 1772 3097 
Q 1472 3097 1187 3025 
Q 903 2953 641 2809 
L 641 3341 
Q 956 3463 1253 3523 
Q 1550 3584 1831 3584 
Q 2591 3584 2966 3190 
Q 3341 2797 3341 1997 
z
" transform="scale(0.015625)"/>
       <path id="DejaVuSans-74" d="M 1172 4494 
L 1172 3500 
L 2356 3500 
L 2356 3053 
L 1172 3053 
L 1172 1153 
Q 1172 725 1289 603 
Q 1406 481 1766 481 
L 2356 481 
L 2356 0 
L 1766 0 
Q 1100 0 847 248 
Q 594 497 594 1153 
L 594 3053 
L 172 3053 
L 172 3500 
L 594 3500 
L 594 4494 
L 1172 4494 
z
" transform="scale(0.015625)"/>
       <path id="DejaVuSans-72" d="M 2631 2963 
Q 2534 3019 2420 3045 
Q 2306 3072 2169 3072 
Q 1681 3072 1420 2755 
Q 1159 2438 1159 1844 
L 1159 0 
L 581 0 
L 581 3500 
L 1159 3500 
L 1159 2956 
Q 1341 3275 1631 3429 
Q 1922 3584 2338 3584 
Q 2397 3584 2469 3576 
Q 2541 3569 2628 3553 
L 2631 2963 
z
" transform="scale(0.015625)"/>
       <path id="DejaVuSans-75" d="M 544 1381 
L 544 3500 
L 1119 3500 
L 1119 1403 
Q 1119 906 1312 657 
Q 1506 409 1894 409 
Q 2359 409 2629 706 
Q 2900 1003 2900 1516 
L 2900 3500 
L 3475 3500 
L 3475 0 
L 2900 0 
L 2900 538 
Q 2691 219 2414 64 
Q 2138 -91 1772 -91 
Q 1169 -91 856 284 
Q 544 659 544 1381 
z
M 1991 3584 
L 1991 3584 
z
" transform="scale(0.015625)"/>
       <path id="DejaVuSans-63" d="M 3122 3366 
L 3122 2828 
Q 2878 2963 2633 3030 
Q 2388 3097 2138 3097 
Q 1578 3097 1268 2742 
Q 959 2388 959 1747 
Q 959 1106 1268 751 
Q 1578 397 2138 397 
Q 2388 397 2633 464 
Q 2878 531 3122 666 
L 3122 134 
Q 2881 22 2623 -34 
Q 2366 -91 2075 -91 
Q 1284 -91 818 406 
Q 353 903 353 1747 
Q 353 2603 823 3093 
Q 1294 3584 2113 3584 
Q 2378 3584 2631 3529 
Q 2884 3475 3122 3366 
z
" transform="scale(0.015625)"/>
       <path id="DejaVuSans-6b" d="M 581 4863 
L 1159 4863 
L 1159 1991 
L 2875 3500 
L 3609 3500 
L 1753 1863 
L 3688 0 
L 2938 0 
L 1159 1709 
L 1159 0 
L 581 0 
L 581 4863 
z
" transform="scale(0.015625)"/>
       <path id="DejaVuSans-20" transform="scale(0.015625)"/>
       <path id="DejaVuSans-69" d="M 603 3500 
L 1178 3500 
L 1178 0 
L 603 0 
L 603 3500 
z
M 603 4863 
L 1178 4863 
L 1178 4134 
L 603 4134 
L 603 4863 
z
" transform="scale(0.015625)"/>
       <path id="DejaVuSans-62" d="M 3116 1747 
Q 3116 2381 2855 2742 
Q 2594 3103 2138 3103 
Q 1681 3103 1420 2742 
Q 1159 2381 1159 1747 
Q 1159 1113 1420 752 
Q 1681 391 2138 391 
Q 2594 391 2855 752 
Q 3116 1113 3116 1747 
z
M 1159 2969 
Q 1341 3281 1617 3432 
Q 1894 3584 2278 3584 
Q 2916 3584 3314 3078 
Q 3713 2572 3713 1747 
Q 3713 922 3314 415 
Q 2916 -91 2278 -91 
Q 1894 -91 1617 61 
Q 1341 213 1159 525 
L 1159 0 
L 581 0 
L 581 4863 
L 1159 4863 
L 1159 2969 
z
" transform="scale(0.015625)"/>
      </defs>
      <use xlink:href="#DejaVuSans-4b"/>
      <use xlink:href="#DejaVuSans-6f" x="60.576172"/>
      <use xlink:href="#DejaVuSans-6e" x="121.757812"/>
      <use xlink:href="#DejaVuSans-64" x="185.136719"/>
      <use xlink:href="#DejaVuSans-65" x="248.613281"/>
      <use xlink:href="#DejaVuSans-6e" x="310.136719"/>
      <use xlink:href="#DejaVuSans-73" x="373.515625"/>
      <use xlink:href="#DejaVuSans-61" x="425.615234"/>
      <use xlink:href="#DejaVuSans-74" x="486.894531"/>
      <use xlink:href="#DejaVuSans-6f" x="526.103516"/>
      <use xlink:href="#DejaVuSans-72" x="587.285156"/>
      <use xlink:href="#DejaVuSans-64" x="626.648438"/>
      <use xlink:href="#DejaVuSans-72" x="690.125"/>
      <use xlink:href="#DejaVuSans-75" x="731.238281"/>
      <use xlink:href="#DejaVuSans-63" x="794.617188"/>
      <use xlink:href="#DejaVuSans-6b" x="849.597656"/>
      <use xlink:href="#DejaVuSans-20" x="907.507812"/>
      <use xlink:href="#DejaVuSans-69" x="939.294922"/>
      <use xlink:href="#DejaVuSans-6e" x="967.078125"/>
      <use xlink:href="#DejaVuSans-20" x="1030.457031"/>
      <use xlink:href="#DejaVuSans-62" x="1062.244141"/>
      <use xlink:href="#DejaVuSans-61" x="1125.720703"/>
      <use xlink:href="#DejaVuSans-72" x="1187"/>
     </g>
    </g>
   </g>
   <g id="matplotlib.axis_2">
    <g id="ytick_1">
     <g id="line2d_5">
      <defs>
       <path id="mdd125c5040" d="M 0 0 
L -3.5 0 
" style="stroke: #000000; stroke-width: 0.8"/>
      </defs>
      <g>
       <use xlink:href="#mdd125c5040" x="57.6" y="307.584" style="stroke: #000000; stroke-width: 0.8"/>
      </g>
     </g>
     <g id="text_6">
      <!-- 0.000 -->
      <g transform="translate(-0.930625 314.422594) scale(0.18 -0.18)">
       <defs>
        <path id="DejaVuSans-2e" d="M 684 794 
L 1344 794 
L 1344 0 
L 684 0 
L 684 794 
z
" transform="scale(0.015625)"/>
       </defs>
       <use xlink:href="#DejaVuSans-30"/>
       <use xlink:href="#DejaVuSans-2e" x="63.623047"/>
       <use xlink:href="#DejaVuSans-30" x="95.410156"/>
       <use xlink:href="#DejaVuSans-30" x="159.033203"/>
       <use xlink:href="#DejaVuSans-30" x="222.65625"/>
      </g>
     </g>
    </g>
    <g id="ytick_2">
     <g id="line2d_6">
      <g>
       <use xlink:href="#mdd125c5040" x="57.6" y="265.490021" style="stroke: #000000; stroke-width: 0.8"/>
      </g>
     </g>
     <g id="text_7">
      <!-- 0.025 -->
      <g transform="translate(-0.930625 272.328615) scale(0.18 -0.18)">
       <defs>
        <path id="DejaVuSans-35" d="M 691 4666 
L 3169 4666 
L 3169 4134 
L 1269 4134 
L 1269 2991 
Q 1406 3038 1543 3061 
Q 1681 3084 1819 3084 
Q 2600 3084 3056 2656 
Q 3513 2228 3513 1497 
Q 3513 744 3044 326 
Q 2575 -91 1722 -91 
Q 1428 -91 1123 -41 
Q 819 9 494 109 
L 494 744 
Q 775 591 1075 516 
Q 1375 441 1709 441 
Q 2250 441 2565 725 
Q 2881 1009 2881 1497 
Q 2881 1984 2565 2268 
Q 2250 2553 1709 2553 
Q 1456 2553 1204 2497 
Q 953 2441 691 2322 
L 691 4666 
z
" transform="scale(0.015625)"/>
       </defs>
       <use xlink:href="#DejaVuSans-30"/>
       <use xlink:href="#DejaVuSans-2e" x="63.623047"/>
       <use xlink:href="#DejaVuSans-30" x="95.410156"/>
       <use xlink:href="#DejaVuSans-32" x="159.033203"/>
       <use xlink:href="#DejaVuSans-35" x="222.65625"/>
      </g>
     </g>
    </g>
    <g id="ytick_3">
     <g id="line2d_7">
      <g>
       <use xlink:href="#mdd125c5040" x="57.6" y="223.396042" style="stroke: #000000; stroke-width: 0.8"/>
      </g>
     </g>
     <g id="text_8">
      <!-- 0.050 -->
      <g transform="translate(-0.930625 230.234636) scale(0.18 -0.18)">
       <use xlink:href="#DejaVuSans-30"/>
       <use xlink:href="#DejaVuSans-2e" x="63.623047"/>
       <use xlink:href="#DejaVuSans-30" x="95.410156"/>
       <use xlink:href="#DejaVuSans-35" x="159.033203"/>
       <use xlink:href="#DejaVuSans-30" x="222.65625"/>
      </g>
     </g>
    </g>
    <g id="ytick_4">
     <g id="line2d_8">
      <g>
       <use xlink:href="#mdd125c5040" x="57.6" y="181.302064" style="stroke: #000000; stroke-width: 0.8"/>
      </g>
     </g>
     <g id="text_9">
      <!-- 0.075 -->
      <g transform="translate(-0.930625 188.140657) scale(0.18 -0.18)">
       <defs>
        <path id="DejaVuSans-37" d="M 525 4666 
L 3525 4666 
L 3525 4397 
L 1831 0 
L 1172 0 
L 2766 4134 
L 525 4134 
L 525 4666 
z
" transform="scale(0.015625)"/>
       </defs>
       <use xlink:href="#DejaVuSans-30"/>
       <use xlink:href="#DejaVuSans-2e" x="63.623047"/>
       <use xlink:href="#DejaVuSans-30" x="95.410156"/>
       <use xlink:href="#DejaVuSans-37" x="159.033203"/>
       <use xlink:href="#DejaVuSans-35" x="222.65625"/>
      </g>
     </g>
    </g>
    <g id="ytick_5">
     <g id="line2d_9">
      <g>
       <use xlink:href="#mdd125c5040" x="57.6" y="139.208085" style="stroke: #000000; stroke-width: 0.8"/>
      </g>
     </g>
     <g id="text_10">
      <!-- 0.100 -->
      <g transform="translate(-0.930625 146.046679) scale(0.18 -0.18)">
       <use xlink:href="#DejaVuSans-30"/>
       <use xlink:href="#DejaVuSans-2e" x="63.623047"/>
       <use xlink:href="#DejaVuSans-31" x="95.410156"/>
       <use xlink:href="#DejaVuSans-30" x="159.033203"/>
       <use xlink:href="#DejaVuSans-30" x="222.65625"/>
      </g>
     </g>
    </g>
    <g id="ytick_6">
     <g id="line2d_10">
      <g>
       <use xlink:href="#mdd125c5040" x="57.6" y="97.114106" style="stroke: #000000; stroke-width: 0.8"/>
      </g>
     </g>
     <g id="text_11">
      <!-- 0.125 -->
      <g transform="translate(-0.930625 103.9527) scale(0.18 -0.18)">
       <use xlink:href="#DejaVuSans-30"/>
       <use xlink:href="#DejaVuSans-2e" x="63.623047"/>
       <use xlink:href="#DejaVuSans-31" x="95.410156"/>
       <use xlink:href="#DejaVuSans-32" x="159.033203"/>
       <use xlink:href="#DejaVuSans-35" x="222.65625"/>
      </g>
     </g>
    </g>
    <g id="ytick_7">
     <g id="line2d_11">
      <g>
       <use xlink:href="#mdd125c5040" x="57.6" y="55.020127" style="stroke: #000000; stroke-width: 0.8"/>
      </g>
     </g>
     <g id="text_12">
      <!-- 0.150 -->
      <g transform="translate(-0.930625 61.858721) scale(0.18 -0.18)">
       <use xlink:href="#DejaVuSans-30"/>
       <use xlink:href="#DejaVuSans-2e" x="63.623047"/>
       <use xlink:href="#DejaVuSans-31" x="95.410156"/>
       <use xlink:href="#DejaVuSans-35" x="159.033203"/>
       <use xlink:href="#DejaVuSans-30" x="222.65625"/>
      </g>
     </g>
    </g>
    <g id="text_13">
     <!-- Exergievernichtung in MW -->
     <g transform="translate(-8.674063 292.593937) rotate(-90) scale(0.18 -0.18)">
      <defs>
       <path id="DejaVuSans-45" d="M 628 4666 
L 3578 4666 
L 3578 4134 
L 1259 4134 
L 1259 2753 
L 3481 2753 
L 3481 2222 
L 1259 2222 
L 1259 531 
L 3634 531 
L 3634 0 
L 628 0 
L 628 4666 
z
" transform="scale(0.015625)"/>
       <path id="DejaVuSans-78" d="M 3513 3500 
L 2247 1797 
L 3578 0 
L 2900 0 
L 1881 1375 
L 863 0 
L 184 0 
L 1544 1831 
L 300 3500 
L 978 3500 
L 1906 2253 
L 2834 3500 
L 3513 3500 
z
" transform="scale(0.015625)"/>
       <path id="DejaVuSans-67" d="M 2906 1791 
Q 2906 2416 2648 2759 
Q 2391 3103 1925 3103 
Q 1463 3103 1205 2759 
Q 947 2416 947 1791 
Q 947 1169 1205 825 
Q 1463 481 1925 481 
Q 2391 481 2648 825 
Q 2906 1169 2906 1791 
z
M 3481 434 
Q 3481 -459 3084 -895 
Q 2688 -1331 1869 -1331 
Q 1566 -1331 1297 -1286 
Q 1028 -1241 775 -1147 
L 775 -588 
Q 1028 -725 1275 -790 
Q 1522 -856 1778 -856 
Q 2344 -856 2625 -561 
Q 2906 -266 2906 331 
L 2906 616 
Q 2728 306 2450 153 
Q 2172 0 1784 0 
Q 1141 0 747 490 
Q 353 981 353 1791 
Q 353 2603 747 3093 
Q 1141 3584 1784 3584 
Q 2172 3584 2450 3431 
Q 2728 3278 2906 2969 
L 2906 3500 
L 3481 3500 
L 3481 434 
z
" transform="scale(0.015625)"/>
       <path id="DejaVuSans-76" d="M 191 3500 
L 800 3500 
L 1894 563 
L 2988 3500 
L 3597 3500 
L 2284 0 
L 1503 0 
L 191 3500 
z
" transform="scale(0.015625)"/>
       <path id="DejaVuSans-68" d="M 3513 2113 
L 3513 0 
L 2938 0 
L 2938 2094 
Q 2938 2591 2744 2837 
Q 2550 3084 2163 3084 
Q 1697 3084 1428 2787 
Q 1159 2491 1159 1978 
L 1159 0 
L 581 0 
L 581 4863 
L 1159 4863 
L 1159 2956 
Q 1366 3272 1645 3428 
Q 1925 3584 2291 3584 
Q 2894 3584 3203 3211 
Q 3513 2838 3513 2113 
z
" transform="scale(0.015625)"/>
       <path id="DejaVuSans-4d" d="M 628 4666 
L 1569 4666 
L 2759 1491 
L 3956 4666 
L 4897 4666 
L 4897 0 
L 4281 0 
L 4281 4097 
L 3078 897 
L 2444 897 
L 1241 4097 
L 1241 0 
L 628 0 
L 628 4666 
z
" transform="scale(0.015625)"/>
       <path id="DejaVuSans-57" d="M 213 4666 
L 850 4666 
L 1831 722 
L 2809 4666 
L 3519 4666 
L 4500 722 
L 5478 4666 
L 6119 4666 
L 4947 0 
L 4153 0 
L 3169 4050 
L 2175 0 
L 1381 0 
L 213 4666 
z
" transform="scale(0.015625)"/>
      </defs>
      <use xlink:href="#DejaVuSans-45"/>
      <use xlink:href="#DejaVuSans-78" x="63.183594"/>
      <use xlink:href="#DejaVuSans-65" x="119.238281"/>
      <use xlink:href="#DejaVuSans-72" x="180.761719"/>
      <use xlink:href="#DejaVuSans-67" x="220.125"/>
      <use xlink:href="#DejaVuSans-69" x="283.601562"/>
      <use xlink:href="#DejaVuSans-65" x="311.384766"/>
      <use xlink:href="#DejaVuSans-76" x="372.908203"/>
      <use xlink:href="#DejaVuSans-65" x="432.087891"/>
      <use xlink:href="#DejaVuSans-72" x="493.611328"/>
      <use xlink:href="#DejaVuSans-6e" x="532.974609"/>
      <use xlink:href="#DejaVuSans-69" x="596.353516"/>
      <use xlink:href="#DejaVuSans-63" x="624.136719"/>
      <use xlink:href="#DejaVuSans-68" x="679.117188"/>
      <use xlink:href="#DejaVuSans-74" x="742.496094"/>
      <use xlink:href="#DejaVuSans-75" x="781.705078"/>
      <use xlink:href="#DejaVuSans-6e" x="845.083984"/>
      <use xlink:href="#DejaVuSans-67" x="908.462891"/>
      <use xlink:href="#DejaVuSans-20" x="971.939453"/>
      <use xlink:href="#DejaVuSans-69" x="1003.726562"/>
      <use xlink:href="#DejaVuSans-6e" x="1031.509766"/>
      <use xlink:href="#DejaVuSans-20" x="1094.888672"/>
      <use xlink:href="#DejaVuSans-4d" x="1126.675781"/>
      <use xlink:href="#DejaVuSans-57" x="1212.955078"/>
     </g>
    </g>
   </g>
   <g id="patch_203">
    <path d="M 57.6 307.584 
L 57.6 41.472 
" style="fill: none; stroke: #000000; stroke-width: 0.8; stroke-linejoin: miter; stroke-linecap: square"/>
   </g>
   <g id="patch_204">
    <path d="M 414.72 307.584 
L 414.72 41.472 
" style="fill: none; stroke: #000000; stroke-width: 0.8; stroke-linejoin: miter; stroke-linecap: square"/>
   </g>
   <g id="patch_205">
    <path d="M 57.6 307.584 
L 414.72 307.584 
" style="fill: none; stroke: #000000; stroke-width: 0.8; stroke-linejoin: miter; stroke-linecap: square"/>
   </g>
   <g id="patch_206">
    <path d="M 57.6 41.472 
L 414.72 41.472 
" style="fill: none; stroke: #000000; stroke-width: 0.8; stroke-linejoin: miter; stroke-linecap: square"/>
   </g>
   <g id="legend_1">
    <g id="patch_207">
     <path d="M 125.648437 243.279562 
L 402.12 243.279562 
Q 405.72 243.279562 405.72 239.679562 
L 405.72 109.376437 
Q 405.72 105.776437 402.12 105.776437 
L 125.648437 105.776437 
Q 122.048437 105.776437 122.048437 109.376437 
L 122.048437 239.679562 
Q 122.048437 243.279562 125.648437 243.279562 
z
" style="fill: #ffffff; opacity: 0.8; stroke: #cccccc; stroke-linejoin: miter"/>
    </g>
    <g id="patch_208">
     <path d="M 129.248437 126.653625 
L 165.248437 126.653625 
L 165.248437 114.053625 
L 129.248437 114.053625 
z
" style="fill: #1f77b4"/>
    </g>
    <g id="text_14">
     <!-- Gas cooler -->
     <g transform="translate(179.648438 126.653625) scale(0.18 -0.18)">
      <defs>
       <path id="DejaVuSans-47" d="M 3809 666 
L 3809 1919 
L 2778 1919 
L 2778 2438 
L 4434 2438 
L 4434 434 
Q 4069 175 3628 42 
Q 3188 -91 2688 -91 
Q 1594 -91 976 548 
Q 359 1188 359 2328 
Q 359 3472 976 4111 
Q 1594 4750 2688 4750 
Q 3144 4750 3555 4637 
Q 3966 4525 4313 4306 
L 4313 3634 
Q 3963 3931 3569 4081 
Q 3175 4231 2741 4231 
Q 1884 4231 1454 3753 
Q 1025 3275 1025 2328 
Q 1025 1384 1454 906 
Q 1884 428 2741 428 
Q 3075 428 3337 486 
Q 3600 544 3809 666 
z
" transform="scale(0.015625)"/>
       <path id="DejaVuSans-6c" d="M 603 4863 
L 1178 4863 
L 1178 0 
L 603 0 
L 603 4863 
z
" transform="scale(0.015625)"/>
      </defs>
      <use xlink:href="#DejaVuSans-47"/>
      <use xlink:href="#DejaVuSans-61" x="77.490234"/>
      <use xlink:href="#DejaVuSans-73" x="138.769531"/>
      <use xlink:href="#DejaVuSans-20" x="190.869141"/>
      <use xlink:href="#DejaVuSans-63" x="222.65625"/>
      <use xlink:href="#DejaVuSans-6f" x="277.636719"/>
      <use xlink:href="#DejaVuSans-6f" x="338.818359"/>
      <use xlink:href="#DejaVuSans-6c" x="400"/>
      <use xlink:href="#DejaVuSans-65" x="427.783203"/>
      <use xlink:href="#DejaVuSans-72" x="489.306641"/>
     </g>
    </g>
    <g id="patch_209">
     <path d="M 129.248437 153.07425 
L 165.248437 153.07425 
L 165.248437 140.47425 
L 129.248437 140.47425 
z
" style="fill: #ff7f0e"/>
    </g>
    <g id="text_15">
     <!-- Evaporator -->
     <g transform="translate(179.648438 153.07425) scale(0.18 -0.18)">
      <defs>
       <path id="DejaVuSans-70" d="M 1159 525 
L 1159 -1331 
L 581 -1331 
L 581 3500 
L 1159 3500 
L 1159 2969 
Q 1341 3281 1617 3432 
Q 1894 3584 2278 3584 
Q 2916 3584 3314 3078 
Q 3713 2572 3713 1747 
Q 3713 922 3314 415 
Q 2916 -91 2278 -91 
Q 1894 -91 1617 61 
Q 1341 213 1159 525 
z
M 3116 1747 
Q 3116 2381 2855 2742 
Q 2594 3103 2138 3103 
Q 1681 3103 1420 2742 
Q 1159 2381 1159 1747 
Q 1159 1113 1420 752 
Q 1681 391 2138 391 
Q 2594 391 2855 752 
Q 3116 1113 3116 1747 
z
" transform="scale(0.015625)"/>
      </defs>
      <use xlink:href="#DejaVuSans-45"/>
      <use xlink:href="#DejaVuSans-76" x="63.183594"/>
      <use xlink:href="#DejaVuSans-61" x="122.363281"/>
      <use xlink:href="#DejaVuSans-70" x="183.642578"/>
      <use xlink:href="#DejaVuSans-6f" x="247.119141"/>
      <use xlink:href="#DejaVuSans-72" x="308.300781"/>
      <use xlink:href="#DejaVuSans-61" x="349.414062"/>
      <use xlink:href="#DejaVuSans-74" x="410.693359"/>
      <use xlink:href="#DejaVuSans-6f" x="449.902344"/>
      <use xlink:href="#DejaVuSans-72" x="511.083984"/>
     </g>
    </g>
    <g id="patch_210">
     <path d="M 129.248437 179.494875 
L 165.248437 179.494875 
L 165.248437 166.894875 
L 129.248437 166.894875 
z
" style="fill: #2ca02c"/>
    </g>
    <g id="text_16">
     <!-- Valve -->
     <g transform="translate(179.648438 179.494875) scale(0.18 -0.18)">
      <defs>
       <path id="DejaVuSans-56" d="M 1831 0 
L 50 4666 
L 709 4666 
L 2188 738 
L 3669 4666 
L 4325 4666 
L 2547 0 
L 1831 0 
z
" transform="scale(0.015625)"/>
      </defs>
      <use xlink:href="#DejaVuSans-56"/>
      <use xlink:href="#DejaVuSans-61" x="60.658203"/>
      <use xlink:href="#DejaVuSans-6c" x="121.9375"/>
      <use xlink:href="#DejaVuSans-76" x="149.720703"/>
      <use xlink:href="#DejaVuSans-65" x="208.900391"/>
     </g>
    </g>
    <g id="patch_211">
     <path d="M 129.248437 205.9155 
L 165.248437 205.9155 
L 165.248437 193.3155 
L 129.248437 193.3155 
z
" style="fill: #d62728"/>
    </g>
    <g id="text_17">
     <!-- Compressor -->
     <g transform="translate(179.648438 205.9155) scale(0.18 -0.18)">
      <defs>
       <path id="DejaVuSans-43" d="M 4122 4306 
L 4122 3641 
Q 3803 3938 3442 4084 
Q 3081 4231 2675 4231 
Q 1875 4231 1450 3742 
Q 1025 3253 1025 2328 
Q 1025 1406 1450 917 
Q 1875 428 2675 428 
Q 3081 428 3442 575 
Q 3803 722 4122 1019 
L 4122 359 
Q 3791 134 3420 21 
Q 3050 -91 2638 -91 
Q 1578 -91 968 557 
Q 359 1206 359 2328 
Q 359 3453 968 4101 
Q 1578 4750 2638 4750 
Q 3056 4750 3426 4639 
Q 3797 4528 4122 4306 
z
" transform="scale(0.015625)"/>
       <path id="DejaVuSans-6d" d="M 3328 2828 
Q 3544 3216 3844 3400 
Q 4144 3584 4550 3584 
Q 5097 3584 5394 3201 
Q 5691 2819 5691 2113 
L 5691 0 
L 5113 0 
L 5113 2094 
Q 5113 2597 4934 2840 
Q 4756 3084 4391 3084 
Q 3944 3084 3684 2787 
Q 3425 2491 3425 1978 
L 3425 0 
L 2847 0 
L 2847 2094 
Q 2847 2600 2669 2842 
Q 2491 3084 2119 3084 
Q 1678 3084 1418 2786 
Q 1159 2488 1159 1978 
L 1159 0 
L 581 0 
L 581 3500 
L 1159 3500 
L 1159 2956 
Q 1356 3278 1631 3431 
Q 1906 3584 2284 3584 
Q 2666 3584 2933 3390 
Q 3200 3197 3328 2828 
z
" transform="scale(0.015625)"/>
      </defs>
      <use xlink:href="#DejaVuSans-43"/>
      <use xlink:href="#DejaVuSans-6f" x="69.824219"/>
      <use xlink:href="#DejaVuSans-6d" x="131.005859"/>
      <use xlink:href="#DejaVuSans-70" x="228.417969"/>
      <use xlink:href="#DejaVuSans-72" x="291.894531"/>
      <use xlink:href="#DejaVuSans-65" x="330.757812"/>
      <use xlink:href="#DejaVuSans-73" x="392.28125"/>
      <use xlink:href="#DejaVuSans-73" x="444.380859"/>
      <use xlink:href="#DejaVuSans-6f" x="496.480469"/>
      <use xlink:href="#DejaVuSans-72" x="557.662109"/>
     </g>
    </g>
    <g id="patch_212">
     <path d="M 129.248437 232.336125 
L 165.248437 232.336125 
L 165.248437 219.736125 
L 129.248437 219.736125 
z
" style="fill: #9467bd"/>
    </g>
    <g id="text_18">
     <!-- Internal Heat Exchanger -->
     <g transform="translate(179.648438 232.336125) scale(0.18 -0.18)">
      <defs>
       <path id="DejaVuSans-49" d="M 628 4666 
L 1259 4666 
L 1259 0 
L 628 0 
L 628 4666 
z
" transform="scale(0.015625)"/>
       <path id="DejaVuSans-48" d="M 628 4666 
L 1259 4666 
L 1259 2753 
L 3553 2753 
L 3553 4666 
L 4184 4666 
L 4184 0 
L 3553 0 
L 3553 2222 
L 1259 2222 
L 1259 0 
L 628 0 
L 628 4666 
z
" transform="scale(0.015625)"/>
      </defs>
      <use xlink:href="#DejaVuSans-49"/>
      <use xlink:href="#DejaVuSans-6e" x="29.492188"/>
      <use xlink:href="#DejaVuSans-74" x="92.871094"/>
      <use xlink:href="#DejaVuSans-65" x="132.080078"/>
      <use xlink:href="#DejaVuSans-72" x="193.603516"/>
      <use xlink:href="#DejaVuSans-6e" x="232.966797"/>
      <use xlink:href="#DejaVuSans-61" x="296.345703"/>
      <use xlink:href="#DejaVuSans-6c" x="357.625"/>
      <use xlink:href="#DejaVuSans-20" x="385.408203"/>
      <use xlink:href="#DejaVuSans-48" x="417.195312"/>
      <use xlink:href="#DejaVuSans-65" x="492.390625"/>
      <use xlink:href="#DejaVuSans-61" x="553.914062"/>
      <use xlink:href="#DejaVuSans-74" x="615.193359"/>
      <use xlink:href="#DejaVuSans-20" x="654.402344"/>
      <use xlink:href="#DejaVuSans-45" x="686.189453"/>
      <use xlink:href="#DejaVuSans-78" x="749.373047"/>
      <use xlink:href="#DejaVuSans-63" x="806.802734"/>
      <use xlink:href="#DejaVuSans-68" x="861.783203"/>
      <use xlink:href="#DejaVuSans-61" x="925.162109"/>
      <use xlink:href="#DejaVuSans-6e" x="986.441406"/>
      <use xlink:href="#DejaVuSans-67" x="1049.820312"/>
      <use xlink:href="#DejaVuSans-65" x="1113.296875"/>
      <use xlink:href="#DejaVuSans-72" x="1174.820312"/>
     </g>
    </g>
   </g>
  </g>
 </g>
 <defs>
  <clipPath id="p38827fbc69">
   <rect x="57.6" y="41.472" width="357.12" height="266.112"/>
  </clipPath>
 </defs>
</svg>
