<?xml version="1.0" encoding="utf-8" standalone="no"?>
<!DOCTYPE svg PUBLIC "-//W3C//DTD SVG 1.1//EN"
  "http://www.w3.org/Graphics/SVG/1.1/DTD/svg11.dtd">
<svg xmlns:xlink="http://www.w3.org/1999/xlink" width="460.8pt" height="345.6pt" viewBox="0 0 460.8 345.6" xmlns="http://www.w3.org/2000/svg" version="1.1">
 <metadata>
  <rdf:RDF xmlns:dc="http://purl.org/dc/elements/1.1/" xmlns:cc="http://creativecommons.org/ns#" xmlns:rdf="http://www.w3.org/1999/02/22-rdf-syntax-ns#">
   <cc:Work>
    <dc:type rdf:resource="http://purl.org/dc/dcmitype/StillImage"/>
    <dc:date>2023-02-23T10:44:09.748762</dc:date>
    <dc:format>image/svg+xml</dc:format>
    <dc:creator>
     <cc:Agent>
      <dc:title>Matplotlib v3.6.1, https://matplotlib.org/</dc:title>
     </cc:Agent>
    </dc:creator>
   </cc:Work>
  </rdf:RDF>
 </metadata>
 <defs>
  <style type="text/css">*{stroke-linejoin: round; stroke-linecap: butt}</style>
 </defs>
 <g id="figure_1">
  <g id="patch_1">
   <path d="M 0 345.6 
L 460.8 345.6 
L 460.8 0 
L 0 0 
z
" style="fill: #ffffff"/>
  </g>
  <g id="axes_1">
   <g id="patch_2">
    <path d="M 57.6 307.584 
L 414.72 307.584 
L 414.72 41.472 
L 57.6 41.472 
z
" style="fill: #ffffff"/>
   </g>
   <g id="patch_3">
    <path d="M 73.832727 307.584 
L 76.135242 307.584 
L 76.135242 304.093999 
L 73.832727 304.093999 
z
" clip-path="url(#p85bba38a50)" style="fill: #1f77b4"/>
   </g>
   <g id="patch_4">
    <path d="M 82.098164 307.584 
L 84.400678 307.584 
L 84.400678 303.615334 
L 82.098164 303.615334 
z
" clip-path="url(#p85bba38a50)" style="fill: #1f77b4"/>
   </g>
   <g id="patch_5">
    <path d="M 90.363601 307.584 
L 92.666115 307.584 
L 92.666115 303.051476 
L 90.363601 303.051476 
z
" clip-path="url(#p85bba38a50)" style="fill: #1f77b4"/>
   </g>
   <g id="patch_6">
    <path d="M 98.629037 307.584 
L 100.931552 307.584 
L 100.931552 302.446441 
L 98.629037 302.446441 
z
" clip-path="url(#p85bba38a50)" style="fill: #1f77b4"/>
   </g>
   <g id="patch_7">
    <path d="M 106.894474 307.584 
L 109.196989 307.584 
L 109.196989 301.821359 
L 106.894474 301.821359 
z
" clip-path="url(#p85bba38a50)" style="fill: #1f77b4"/>
   </g>
   <g id="patch_8">
    <path d="M 115.159911 307.584 
L 117.462425 307.584 
L 117.462425 301.18789 
L 115.159911 301.18789 
z
" clip-path="url(#p85bba38a50)" style="fill: #1f77b4"/>
   </g>
   <g id="patch_9">
    <path d="M 123.425347 307.584 
L 125.727862 307.584 
L 125.727862 300.553047 
L 123.425347 300.553047 
z
" clip-path="url(#p85bba38a50)" style="fill: #1f77b4"/>
   </g>
   <g id="patch_10">
    <path d="M 131.690784 307.584 
L 133.993299 307.584 
L 133.993299 299.921292 
L 131.690784 299.921292 
z
" clip-path="url(#p85bba38a50)" style="fill: #1f77b4"/>
   </g>
   <g id="patch_11">
    <path d="M 139.956221 307.584 
L 142.258735 307.584 
L 142.258735 299.295569 
L 139.956221 299.295569 
z
" clip-path="url(#p85bba38a50)" style="fill: #1f77b4"/>
   </g>
   <g id="patch_12">
    <path d="M 148.221657 307.584 
L 150.524172 307.584 
L 150.524172 298.677869 
L 148.221657 298.677869 
z
" clip-path="url(#p85bba38a50)" style="fill: #1f77b4"/>
   </g>
   <g id="patch_13">
    <path d="M 156.487094 307.584 
L 158.789609 307.584 
L 158.789609 298.069553 
L 156.487094 298.069553 
z
" clip-path="url(#p85bba38a50)" style="fill: #1f77b4"/>
   </g>
   <g id="patch_14">
    <path d="M 164.752531 307.584 
L 167.055045 307.584 
L 167.055045 297.471559 
L 164.752531 297.471559 
z
" clip-path="url(#p85bba38a50)" style="fill: #1f77b4"/>
   </g>
   <g id="patch_15">
    <path d="M 173.017968 307.584 
L 175.320482 307.584 
L 175.320482 296.884519 
L 173.017968 296.884519 
z
" clip-path="url(#p85bba38a50)" style="fill: #1f77b4"/>
   </g>
   <g id="patch_16">
    <path d="M 181.283404 307.584 
L 183.585919 307.584 
L 183.585919 296.308852 
L 181.283404 296.308852 
z
" clip-path="url(#p85bba38a50)" style="fill: #1f77b4"/>
   </g>
   <g id="patch_17">
    <path d="M 189.548841 307.584 
L 191.851355 307.584 
L 191.851355 295.744819 
L 189.548841 295.744819 
z
" clip-path="url(#p85bba38a50)" style="fill: #1f77b4"/>
   </g>
   <g id="patch_18">
    <path d="M 197.814278 307.584 
L 200.116792 307.584 
L 200.116792 295.192565 
L 197.814278 295.192565 
z
" clip-path="url(#p85bba38a50)" style="fill: #1f77b4"/>
   </g>
   <g id="patch_19">
    <path d="M 206.079714 307.584 
L 208.382229 307.584 
L 208.382229 294.652147 
L 206.079714 294.652147 
z
" clip-path="url(#p85bba38a50)" style="fill: #1f77b4"/>
   </g>
   <g id="patch_20">
    <path d="M 214.345151 307.584 
L 216.647666 307.584 
L 216.647666 294.123557 
L 214.345151 294.123557 
z
" clip-path="url(#p85bba38a50)" style="fill: #1f77b4"/>
   </g>
   <g id="patch_21">
    <path d="M 222.610588 307.584 
L 224.913102 307.584 
L 224.913102 293.606737 
L 222.610588 293.606737 
z
" clip-path="url(#p85bba38a50)" style="fill: #1f77b4"/>
   </g>
   <g id="patch_22">
    <path d="M 230.876024 307.584 
L 233.178539 307.584 
L 233.178539 293.101589 
L 230.876024 293.101589 
z
" clip-path="url(#p85bba38a50)" style="fill: #1f77b4"/>
   </g>
   <g id="patch_23">
    <path d="M 239.141461 307.584 
L 241.443976 307.584 
L 241.443976 292.607987 
L 239.141461 292.607987 
z
" clip-path="url(#p85bba38a50)" style="fill: #1f77b4"/>
   </g>
   <g id="patch_24">
    <path d="M 247.406898 307.584 
L 249.709412 307.584 
L 249.709412 292.125784 
L 247.406898 292.125784 
z
" clip-path="url(#p85bba38a50)" style="fill: #1f77b4"/>
   </g>
   <g id="patch_25">
    <path d="M 255.672334 307.584 
L 257.974849 307.584 
L 257.974849 291.654814 
L 255.672334 291.654814 
z
" clip-path="url(#p85bba38a50)" style="fill: #1f77b4"/>
   </g>
   <g id="patch_26">
    <path d="M 263.937771 307.584 
L 266.240286 307.584 
L 266.240286 291.1949 
L 263.937771 291.1949 
z
" clip-path="url(#p85bba38a50)" style="fill: #1f77b4"/>
   </g>
   <g id="patch_27">
    <path d="M 272.203208 307.584 
L 274.505722 307.584 
L 274.505722 290.745854 
L 272.203208 290.745854 
z
" clip-path="url(#p85bba38a50)" style="fill: #1f77b4"/>
   </g>
   <g id="patch_28">
    <path d="M 280.468645 307.584 
L 282.771159 307.584 
L 282.771159 290.307485 
L 280.468645 290.307485 
z
" clip-path="url(#p85bba38a50)" style="fill: #1f77b4"/>
   </g>
   <g id="patch_29">
    <path d="M 288.734081 307.584 
L 291.036596 307.584 
L 291.036596 289.879593 
L 288.734081 289.879593 
z
" clip-path="url(#p85bba38a50)" style="fill: #1f77b4"/>
   </g>
   <g id="patch_30">
    <path d="M 296.999518 307.584 
L 299.302032 307.584 
L 299.302032 289.461979 
L 296.999518 289.461979 
z
" clip-path="url(#p85bba38a50)" style="fill: #1f77b4"/>
   </g>
   <g id="patch_31">
    <path d="M 305.264955 307.584 
L 307.567469 307.584 
L 307.567469 289.05444 
L 305.264955 289.05444 
z
" clip-path="url(#p85bba38a50)" style="fill: #1f77b4"/>
   </g>
   <g id="patch_32">
    <path d="M 313.530391 307.584 
L 315.832906 307.584 
L 315.832906 288.656775 
L 313.530391 288.656775 
z
" clip-path="url(#p85bba38a50)" style="fill: #1f77b4"/>
   </g>
   <g id="patch_33">
    <path d="M 321.795828 307.584 
L 324.098343 307.584 
L 324.098343 288.268781 
L 321.795828 288.268781 
z
" clip-path="url(#p85bba38a50)" style="fill: #1f77b4"/>
   </g>
   <g id="patch_34">
    <path d="M 330.061265 307.584 
L 332.363779 307.584 
L 332.363779 287.89026 
L 330.061265 287.89026 
z
" clip-path="url(#p85bba38a50)" style="fill: #1f77b4"/>
   </g>
   <g id="patch_35">
    <path d="M 338.326701 307.584 
L 340.629216 307.584 
L 340.629216 287.521011 
L 338.326701 287.521011 
z
" clip-path="url(#p85bba38a50)" style="fill: #1f77b4"/>
   </g>
   <g id="patch_36">
    <path d="M 346.592138 307.584 
L 348.894653 307.584 
L 348.894653 287.160838 
L 346.592138 287.160838 
z
" clip-path="url(#p85bba38a50)" style="fill: #1f77b4"/>
   </g>
   <g id="patch_37">
    <path d="M 354.857575 307.584 
L 357.160089 307.584 
L 357.160089 286.809549 
L 354.857575 286.809549 
z
" clip-path="url(#p85bba38a50)" style="fill: #1f77b4"/>
   </g>
   <g id="patch_38">
    <path d="M 363.123011 307.584 
L 365.425526 307.584 
L 365.425526 286.466951 
L 363.123011 286.466951 
z
" clip-path="url(#p85bba38a50)" style="fill: #1f77b4"/>
   </g>
   <g id="patch_39">
    <path d="M 371.388448 307.584 
L 373.690963 307.584 
L 373.690963 286.132857 
L 371.388448 286.132857 
z
" clip-path="url(#p85bba38a50)" style="fill: #1f77b4"/>
   </g>
   <g id="patch_40">
    <path d="M 379.653885 307.584 
L 381.956399 307.584 
L 381.956399 285.807083 
L 379.653885 285.807083 
z
" clip-path="url(#p85bba38a50)" style="fill: #1f77b4"/>
   </g>
   <g id="patch_41">
    <path d="M 387.919322 307.584 
L 390.221836 307.584 
L 390.221836 285.489447 
L 387.919322 285.489447 
z
" clip-path="url(#p85bba38a50)" style="fill: #1f77b4"/>
   </g>
   <g id="patch_42">
    <path d="M 396.184758 307.584 
L 398.487273 307.584 
L 398.487273 285.179772 
L 396.184758 285.179772 
z
" clip-path="url(#p85bba38a50)" style="fill: #1f77b4"/>
   </g>
   <g id="patch_43">
    <path d="M 73.832727 304.093999 
L 76.135242 304.093999 
L 76.135242 289.375366 
L 73.832727 289.375366 
z
" clip-path="url(#p85bba38a50)" style="fill: #ff7f0e"/>
   </g>
   <g id="patch_44">
    <path d="M 82.098164 303.615334 
L 84.400678 303.615334 
L 84.400678 288.857187 
L 82.098164 288.857187 
z
" clip-path="url(#p85bba38a50)" style="fill: #ff7f0e"/>
   </g>
   <g id="patch_45">
    <path d="M 90.363601 303.051476 
L 92.666115 303.051476 
L 92.666115 288.269472 
L 90.363601 288.269472 
z
" clip-path="url(#p85bba38a50)" style="fill: #ff7f0e"/>
   </g>
   <g id="patch_46">
    <path d="M 98.629037 302.446441 
L 100.931552 302.446441 
L 100.931552 287.649835 
L 98.629037 287.649835 
z
" clip-path="url(#p85bba38a50)" style="fill: #ff7f0e"/>
   </g>
   <g id="patch_47">
    <path d="M 106.894474 301.821359 
L 109.196989 301.821359 
L 109.196989 287.01625 
L 106.894474 287.01625 
z
" clip-path="url(#p85bba38a50)" style="fill: #ff7f0e"/>
   </g>
   <g id="patch_48">
    <path d="M 115.159911 301.18789 
L 117.462425 301.18789 
L 117.462425 286.378578 
L 115.159911 286.378578 
z
" clip-path="url(#p85bba38a50)" style="fill: #ff7f0e"/>
   </g>
   <g id="patch_49">
    <path d="M 123.425347 300.553047 
L 125.727862 300.553047 
L 125.727862 285.742706 
L 123.425347 285.742706 
z
" clip-path="url(#p85bba38a50)" style="fill: #ff7f0e"/>
   </g>
   <g id="patch_50">
    <path d="M 131.690784 299.921292 
L 133.993299 299.921292 
L 133.993299 285.11234 
L 131.690784 285.11234 
z
" clip-path="url(#p85bba38a50)" style="fill: #ff7f0e"/>
   </g>
   <g id="patch_51">
    <path d="M 139.956221 299.295569 
L 142.258735 299.295569 
L 142.258735 284.489896 
L 139.956221 284.489896 
z
" clip-path="url(#p85bba38a50)" style="fill: #ff7f0e"/>
   </g>
   <g id="patch_52">
    <path d="M 148.221657 298.677869 
L 150.524172 298.677869 
L 150.524172 283.876979 
L 148.221657 283.876979 
z
" clip-path="url(#p85bba38a50)" style="fill: #ff7f0e"/>
   </g>
   <g id="patch_53">
    <path d="M 156.487094 298.069553 
L 158.789609 298.069553 
L 158.789609 283.274659 
L 156.487094 283.274659 
z
" clip-path="url(#p85bba38a50)" style="fill: #ff7f0e"/>
   </g>
   <g id="patch_54">
    <path d="M 164.752531 297.471559 
L 167.055045 297.471559 
L 167.055045 282.683653 
L 164.752531 282.683653 
z
" clip-path="url(#p85bba38a50)" style="fill: #ff7f0e"/>
   </g>
   <g id="patch_55">
    <path d="M 173.017968 296.884519 
L 175.320482 296.884519 
L 175.320482 282.104418 
L 173.017968 282.104418 
z
" clip-path="url(#p85bba38a50)" style="fill: #ff7f0e"/>
   </g>
   <g id="patch_56">
    <path d="M 181.283404 296.308852 
L 183.585919 296.308852 
L 183.585919 281.537233 
L 181.283404 281.537233 
z
" clip-path="url(#p85bba38a50)" style="fill: #ff7f0e"/>
   </g>
   <g id="patch_57">
    <path d="M 189.548841 295.744819 
L 191.851355 295.744819 
L 191.851355 280.982246 
L 189.548841 280.982246 
z
" clip-path="url(#p85bba38a50)" style="fill: #ff7f0e"/>
   </g>
   <g id="patch_58">
    <path d="M 197.814278 295.192565 
L 200.116792 295.192565 
L 200.116792 280.439511 
L 197.814278 280.439511 
z
" clip-path="url(#p85bba38a50)" style="fill: #ff7f0e"/>
   </g>
   <g id="patch_59">
    <path d="M 206.079714 294.652147 
L 208.382229 294.652147 
L 208.382229 279.909008 
L 206.079714 279.909008 
z
" clip-path="url(#p85bba38a50)" style="fill: #ff7f0e"/>
   </g>
   <g id="patch_60">
    <path d="M 214.345151 294.123557 
L 216.647666 294.123557 
L 216.647666 279.390664 
L 214.345151 279.390664 
z
" clip-path="url(#p85bba38a50)" style="fill: #ff7f0e"/>
   </g>
   <g id="patch_61">
    <path d="M 222.610588 293.606737 
L 224.913102 293.606737 
L 224.913102 278.884369 
L 222.610588 278.884369 
z
" clip-path="url(#p85bba38a50)" style="fill: #ff7f0e"/>
   </g>
   <g id="patch_62">
    <path d="M 230.876024 293.101589 
L 233.178539 293.101589 
L 233.178539 278.389979 
L 230.876024 278.389979 
z
" clip-path="url(#p85bba38a50)" style="fill: #ff7f0e"/>
   </g>
   <g id="patch_63">
    <path d="M 239.141461 292.607987 
L 241.443976 292.607987 
L 241.443976 277.90733 
L 239.141461 277.90733 
z
" clip-path="url(#p85bba38a50)" style="fill: #ff7f0e"/>
   </g>
   <g id="patch_64">
    <path d="M 247.406898 292.125784 
L 249.709412 292.125784 
L 249.709412 277.436241 
L 247.406898 277.436241 
z
" clip-path="url(#p85bba38a50)" style="fill: #ff7f0e"/>
   </g>
   <g id="patch_65">
    <path d="M 255.672334 291.654814 
L 257.974849 291.654814 
L 257.974849 276.976517 
L 255.672334 276.976517 
z
" clip-path="url(#p85bba38a50)" style="fill: #ff7f0e"/>
   </g>
   <g id="patch_66">
    <path d="M 263.937771 291.1949 
L 266.240286 291.1949 
L 266.240286 276.527957 
L 263.937771 276.527957 
z
" clip-path="url(#p85bba38a50)" style="fill: #ff7f0e"/>
   </g>
   <g id="patch_67">
    <path d="M 272.203208 290.745854 
L 274.505722 290.745854 
L 274.505722 276.090352 
L 272.203208 276.090352 
z
" clip-path="url(#p85bba38a50)" style="fill: #ff7f0e"/>
   </g>
   <g id="patch_68">
    <path d="M 280.468645 290.307485 
L 282.771159 290.307485 
L 282.771159 275.66349 
L 280.468645 275.66349 
z
" clip-path="url(#p85bba38a50)" style="fill: #ff7f0e"/>
   </g>
   <g id="patch_69">
    <path d="M 288.734081 289.879593 
L 291.036596 289.879593 
L 291.036596 275.247158 
L 288.734081 275.247158 
z
" clip-path="url(#p85bba38a50)" style="fill: #ff7f0e"/>
   </g>
   <g id="patch_70">
    <path d="M 296.999518 289.461979 
L 299.302032 289.461979 
L 299.302032 274.84114 
L 296.999518 274.84114 
z
" clip-path="url(#p85bba38a50)" style="fill: #ff7f0e"/>
   </g>
   <g id="patch_71">
    <path d="M 305.264955 289.05444 
L 307.567469 289.05444 
L 307.567469 274.445223 
L 305.264955 274.445223 
z
" clip-path="url(#p85bba38a50)" style="fill: #ff7f0e"/>
   </g>
   <g id="patch_72">
    <path d="M 313.530391 288.656775 
L 315.832906 288.656775 
L 315.832906 274.059192 
L 313.530391 274.059192 
z
" clip-path="url(#p85bba38a50)" style="fill: #ff7f0e"/>
   </g>
   <g id="patch_73">
    <path d="M 321.795828 288.268781 
L 324.098343 288.268781 
L 324.098343 273.682837 
L 321.795828 273.682837 
z
" clip-path="url(#p85bba38a50)" style="fill: #ff7f0e"/>
   </g>
   <g id="patch_74">
    <path d="M 330.061265 287.89026 
L 332.363779 287.89026 
L 332.363779 273.315949 
L 330.061265 273.315949 
z
" clip-path="url(#p85bba38a50)" style="fill: #ff7f0e"/>
   </g>
   <g id="patch_75">
    <path d="M 338.326701 287.521011 
L 340.629216 287.521011 
L 340.629216 272.958321 
L 338.326701 272.958321 
z
" clip-path="url(#p85bba38a50)" style="fill: #ff7f0e"/>
   </g>
   <g id="patch_76">
    <path d="M 346.592138 287.160838 
L 348.894653 287.160838 
L 348.894653 272.60975 
L 346.592138 272.60975 
z
" clip-path="url(#p85bba38a50)" style="fill: #ff7f0e"/>
   </g>
   <g id="patch_77">
    <path d="M 354.857575 286.809549 
L 357.160089 286.809549 
L 357.160089 272.270038 
L 354.857575 272.270038 
z
" clip-path="url(#p85bba38a50)" style="fill: #ff7f0e"/>
   </g>
   <g id="patch_78">
    <path d="M 363.123011 286.466951 
L 365.425526 286.466951 
L 365.425526 271.938987 
L 363.123011 271.938987 
z
" clip-path="url(#p85bba38a50)" style="fill: #ff7f0e"/>
   </g>
   <g id="patch_79">
    <path d="M 371.388448 286.132857 
L 373.690963 286.132857 
L 373.690963 271.616405 
L 371.388448 271.616405 
z
" clip-path="url(#p85bba38a50)" style="fill: #ff7f0e"/>
   </g>
   <g id="patch_80">
    <path d="M 379.653885 285.807083 
L 381.956399 285.807083 
L 381.956399 271.302104 
L 379.653885 271.302104 
z
" clip-path="url(#p85bba38a50)" style="fill: #ff7f0e"/>
   </g>
   <g id="patch_81">
    <path d="M 387.919322 285.489447 
L 390.221836 285.489447 
L 390.221836 270.995898 
L 387.919322 270.995898 
z
" clip-path="url(#p85bba38a50)" style="fill: #ff7f0e"/>
   </g>
   <g id="patch_82">
    <path d="M 396.184758 285.179772 
L 398.487273 285.179772 
L 398.487273 270.697608 
L 396.184758 270.697608 
z
" clip-path="url(#p85bba38a50)" style="fill: #ff7f0e"/>
   </g>
   <g id="patch_83">
    <path d="M 73.832727 289.375366 
L 76.135242 289.375366 
L 76.135242 214.807424 
L 73.832727 214.807424 
z
" clip-path="url(#p85bba38a50)" style="fill: #2ca02c"/>
   </g>
   <g id="patch_84">
    <path d="M 82.098164 288.857187 
L 84.400678 288.857187 
L 84.400678 216.459044 
L 82.098164 216.459044 
z
" clip-path="url(#p85bba38a50)" style="fill: #2ca02c"/>
   </g>
   <g id="patch_85">
    <path d="M 90.363601 288.269472 
L 92.666115 288.269472 
L 92.666115 217.445328 
L 90.363601 217.445328 
z
" clip-path="url(#p85bba38a50)" style="fill: #2ca02c"/>
   </g>
   <g id="patch_86">
    <path d="M 98.629037 287.649835 
L 100.931552 287.649835 
L 100.931552 218.042684 
L 98.629037 218.042684 
z
" clip-path="url(#p85bba38a50)" style="fill: #2ca02c"/>
   </g>
   <g id="patch_87">
    <path d="M 106.894474 287.01625 
L 109.196989 287.01625 
L 109.196989 218.386504 
L 106.894474 218.386504 
z
" clip-path="url(#p85bba38a50)" style="fill: #2ca02c"/>
   </g>
   <g id="patch_88">
    <path d="M 115.159911 286.378578 
L 117.462425 286.378578 
L 117.462425 218.553606 
L 115.159911 218.553606 
z
" clip-path="url(#p85bba38a50)" style="fill: #2ca02c"/>
   </g>
   <g id="patch_89">
    <path d="M 123.425347 285.742706 
L 125.727862 285.742706 
L 125.727862 218.591868 
L 123.425347 218.591868 
z
" clip-path="url(#p85bba38a50)" style="fill: #2ca02c"/>
   </g>
   <g id="patch_90">
    <path d="M 131.690784 285.11234 
L 133.993299 285.11234 
L 133.993299 218.533153 
L 131.690784 218.533153 
z
" clip-path="url(#p85bba38a50)" style="fill: #2ca02c"/>
   </g>
   <g id="patch_91">
    <path d="M 139.956221 284.489896 
L 142.258735 284.489896 
L 142.258735 218.399719 
L 139.956221 218.399719 
z
" clip-path="url(#p85bba38a50)" style="fill: #2ca02c"/>
   </g>
   <g id="patch_92">
    <path d="M 148.221657 283.876979 
L 150.524172 283.876979 
L 150.524172 218.207704 
L 148.221657 218.207704 
z
" clip-path="url(#p85bba38a50)" style="fill: #2ca02c"/>
   </g>
   <g id="patch_93">
    <path d="M 156.487094 283.274659 
L 158.789609 283.274659 
L 158.789609 217.969153 
L 156.487094 217.969153 
z
" clip-path="url(#p85bba38a50)" style="fill: #2ca02c"/>
   </g>
   <g id="patch_94">
    <path d="M 164.752531 282.683653 
L 167.055045 282.683653 
L 167.055045 217.693284 
L 164.752531 217.693284 
z
" clip-path="url(#p85bba38a50)" style="fill: #2ca02c"/>
   </g>
   <g id="patch_95">
    <path d="M 173.017968 282.104418 
L 175.320482 282.104418 
L 175.320482 217.387277 
L 173.017968 217.387277 
z
" clip-path="url(#p85bba38a50)" style="fill: #2ca02c"/>
   </g>
   <g id="patch_96">
    <path d="M 181.283404 281.537233 
L 183.585919 281.537233 
L 183.585919 217.056823 
L 181.283404 217.056823 
z
" clip-path="url(#p85bba38a50)" style="fill: #2ca02c"/>
   </g>
   <g id="patch_97">
    <path d="M 189.548841 280.982246 
L 191.851355 280.982246 
L 191.851355 216.706496 
L 189.548841 216.706496 
z
" clip-path="url(#p85bba38a50)" style="fill: #2ca02c"/>
   </g>
   <g id="patch_98">
    <path d="M 197.814278 280.439511 
L 200.116792 280.439511 
L 200.116792 216.340013 
L 197.814278 216.340013 
z
" clip-path="url(#p85bba38a50)" style="fill: #2ca02c"/>
   </g>
   <g id="patch_99">
    <path d="M 206.079714 279.909008 
L 208.382229 279.909008 
L 208.382229 215.960425 
L 206.079714 215.960425 
z
" clip-path="url(#p85bba38a50)" style="fill: #2ca02c"/>
   </g>
   <g id="patch_100">
    <path d="M 214.345151 279.390664 
L 216.647666 279.390664 
L 216.647666 215.570258 
L 214.345151 215.570258 
z
" clip-path="url(#p85bba38a50)" style="fill: #2ca02c"/>
   </g>
   <g id="patch_101">
    <path d="M 222.610588 278.884369 
L 224.913102 278.884369 
L 224.913102 215.171622 
L 222.610588 215.171622 
z
" clip-path="url(#p85bba38a50)" style="fill: #2ca02c"/>
   </g>
   <g id="patch_102">
    <path d="M 230.876024 278.389979 
L 233.178539 278.389979 
L 233.178539 214.766286 
L 230.876024 214.766286 
z
" clip-path="url(#p85bba38a50)" style="fill: #2ca02c"/>
   </g>
   <g id="patch_103">
    <path d="M 239.141461 277.90733 
L 241.443976 277.90733 
L 241.443976 214.355742 
L 239.141461 214.355742 
z
" clip-path="url(#p85bba38a50)" style="fill: #2ca02c"/>
   </g>
   <g id="patch_104">
    <path d="M 247.406898 277.436241 
L 249.709412 277.436241 
L 249.709412 213.941259 
L 247.406898 213.941259 
z
" clip-path="url(#p85bba38a50)" style="fill: #2ca02c"/>
   </g>
   <g id="patch_105">
    <path d="M 255.672334 276.976517 
L 257.974849 276.976517 
L 257.974849 213.523915 
L 255.672334 213.523915 
z
" clip-path="url(#p85bba38a50)" style="fill: #2ca02c"/>
   </g>
   <g id="patch_106">
    <path d="M 263.937771 276.527957 
L 266.240286 276.527957 
L 266.240286 213.104631 
L 263.937771 213.104631 
z
" clip-path="url(#p85bba38a50)" style="fill: #2ca02c"/>
   </g>
   <g id="patch_107">
    <path d="M 272.203208 276.090352 
L 274.505722 276.090352 
L 274.505722 212.684198 
L 272.203208 212.684198 
z
" clip-path="url(#p85bba38a50)" style="fill: #2ca02c"/>
   </g>
   <g id="patch_108">
    <path d="M 280.468645 275.66349 
L 282.771159 275.66349 
L 282.771159 212.263293 
L 280.468645 212.263293 
z
" clip-path="url(#p85bba38a50)" style="fill: #2ca02c"/>
   </g>
   <g id="patch_109">
    <path d="M 288.734081 275.247158 
L 291.036596 275.247158 
L 291.036596 211.8425 
L 288.734081 211.8425 
z
" clip-path="url(#p85bba38a50)" style="fill: #2ca02c"/>
   </g>
   <g id="patch_110">
    <path d="M 296.999518 274.84114 
L 299.302032 274.84114 
L 299.302032 211.422321 
L 296.999518 211.422321 
z
" clip-path="url(#p85bba38a50)" style="fill: #2ca02c"/>
   </g>
   <g id="patch_111">
    <path d="M 305.264955 274.445223 
L 307.567469 274.445223 
L 307.567469 211.003189 
L 305.264955 211.003189 
z
" clip-path="url(#p85bba38a50)" style="fill: #2ca02c"/>
   </g>
   <g id="patch_112">
    <path d="M 313.530391 274.059192 
L 315.832906 274.059192 
L 315.832906 210.585478 
L 313.530391 210.585478 
z
" clip-path="url(#p85bba38a50)" style="fill: #2ca02c"/>
   </g>
   <g id="patch_113">
    <path d="M 321.795828 273.682837 
L 324.098343 273.682837 
L 324.098343 210.169508 
L 321.795828 210.169508 
z
" clip-path="url(#p85bba38a50)" style="fill: #2ca02c"/>
   </g>
   <g id="patch_114">
    <path d="M 330.061265 273.315949 
L 332.363779 273.315949 
L 332.363779 209.755557 
L 330.061265 209.755557 
z
" clip-path="url(#p85bba38a50)" style="fill: #2ca02c"/>
   </g>
   <g id="patch_115">
    <path d="M 338.326701 272.958321 
L 340.629216 272.958321 
L 340.629216 209.343862 
L 338.326701 209.343862 
z
" clip-path="url(#p85bba38a50)" style="fill: #2ca02c"/>
   </g>
   <g id="patch_116">
    <path d="M 346.592138 272.60975 
L 348.894653 272.60975 
L 348.894653 208.934626 
L 346.592138 208.934626 
z
" clip-path="url(#p85bba38a50)" style="fill: #2ca02c"/>
   </g>
   <g id="patch_117">
    <path d="M 354.857575 272.270038 
L 357.160089 272.270038 
L 357.160089 208.528024 
L 354.857575 208.528024 
z
" clip-path="url(#p85bba38a50)" style="fill: #2ca02c"/>
   </g>
   <g id="patch_118">
    <path d="M 363.123011 271.938987 
L 365.425526 271.938987 
L 365.425526 208.124204 
L 363.123011 208.124204 
z
" clip-path="url(#p85bba38a50)" style="fill: #2ca02c"/>
   </g>
   <g id="patch_119">
    <path d="M 371.388448 271.616405 
L 373.690963 271.616405 
L 373.690963 207.72329 
L 371.388448 207.72329 
z
" clip-path="url(#p85bba38a50)" style="fill: #2ca02c"/>
   </g>
   <g id="patch_120">
    <path d="M 379.653885 271.302104 
L 381.956399 271.302104 
L 381.956399 207.325388 
L 379.653885 207.325388 
z
" clip-path="url(#p85bba38a50)" style="fill: #2ca02c"/>
   </g>
   <g id="patch_121">
    <path d="M 387.919322 270.995898 
L 390.221836 270.995898 
L 390.221836 206.930585 
L 387.919322 206.930585 
z
" clip-path="url(#p85bba38a50)" style="fill: #2ca02c"/>
   </g>
   <g id="patch_122">
    <path d="M 396.184758 270.697608 
L 398.487273 270.697608 
L 398.487273 206.538952 
L 396.184758 206.538952 
z
" clip-path="url(#p85bba38a50)" style="fill: #2ca02c"/>
   </g>
   <g id="patch_123">
    <path d="M 73.832727 214.807424 
L 76.135242 214.807424 
L 76.135242 108.570385 
L 73.832727 108.570385 
z
" clip-path="url(#p85bba38a50)" style="fill: #d62728"/>
   </g>
   <g id="patch_124">
    <path d="M 82.098164 216.459044 
L 84.400678 216.459044 
L 84.400678 110.902303 
L 82.098164 110.902303 
z
" clip-path="url(#p85bba38a50)" style="fill: #d62728"/>
   </g>
   <g id="patch_125">
    <path d="M 90.363601 217.445328 
L 92.666115 217.445328 
L 92.666115 112.341652 
L 90.363601 112.341652 
z
" clip-path="url(#p85bba38a50)" style="fill: #d62728"/>
   </g>
   <g id="patch_126">
    <path d="M 98.629037 218.042684 
L 100.931552 218.042684 
L 100.931552 113.257486 
L 98.629037 113.257486 
z
" clip-path="url(#p85bba38a50)" style="fill: #d62728"/>
   </g>
   <g id="patch_127">
    <path d="M 106.894474 218.386504 
L 109.196989 218.386504 
L 109.196989 113.830879 
L 106.894474 113.830879 
z
" clip-path="url(#p85bba38a50)" style="fill: #d62728"/>
   </g>
   <g id="patch_128">
    <path d="M 115.159911 218.553606 
L 117.462425 218.553606 
L 117.462425 114.16472 
L 115.159911 114.16472 
z
" clip-path="url(#p85bba38a50)" style="fill: #d62728"/>
   </g>
   <g id="patch_129">
    <path d="M 123.425347 218.591868 
L 125.727862 218.591868 
L 125.727862 114.32323 
L 123.425347 114.32323 
z
" clip-path="url(#p85bba38a50)" style="fill: #d62728"/>
   </g>
   <g id="patch_130">
    <path d="M 131.690784 218.533153 
L 133.993299 218.533153 
L 133.993299 114.349207 
L 131.690784 114.349207 
z
" clip-path="url(#p85bba38a50)" style="fill: #d62728"/>
   </g>
   <g id="patch_131">
    <path d="M 139.956221 218.399719 
L 142.258735 218.399719 
L 142.258735 114.272591 
L 139.956221 114.272591 
z
" clip-path="url(#p85bba38a50)" style="fill: #d62728"/>
   </g>
   <g id="patch_132">
    <path d="M 148.221657 218.207704 
L 150.524172 218.207704 
L 150.524172 114.115121 
L 148.221657 114.115121 
z
" clip-path="url(#p85bba38a50)" style="fill: #d62728"/>
   </g>
   <g id="patch_133">
    <path d="M 156.487094 217.969153 
L 158.789609 217.969153 
L 158.789609 113.893052 
L 156.487094 113.893052 
z
" clip-path="url(#p85bba38a50)" style="fill: #d62728"/>
   </g>
   <g id="patch_134">
    <path d="M 164.752531 217.693284 
L 167.055045 217.693284 
L 167.055045 113.61883 
L 164.752531 113.61883 
z
" clip-path="url(#p85bba38a50)" style="fill: #d62728"/>
   </g>
   <g id="patch_135">
    <path d="M 173.017968 217.387277 
L 175.320482 217.387277 
L 175.320482 113.302177 
L 173.017968 113.302177 
z
" clip-path="url(#p85bba38a50)" style="fill: #d62728"/>
   </g>
   <g id="patch_136">
    <path d="M 181.283404 217.056823 
L 183.585919 217.056823 
L 183.585919 112.950811 
L 181.283404 112.950811 
z
" clip-path="url(#p85bba38a50)" style="fill: #d62728"/>
   </g>
   <g id="patch_137">
    <path d="M 189.548841 216.706496 
L 191.851355 216.706496 
L 191.851355 112.570942 
L 189.548841 112.570942 
z
" clip-path="url(#p85bba38a50)" style="fill: #d62728"/>
   </g>
   <g id="patch_138">
    <path d="M 197.814278 216.340013 
L 200.116792 216.340013 
L 200.116792 112.167629 
L 197.814278 112.167629 
z
" clip-path="url(#p85bba38a50)" style="fill: #d62728"/>
   </g>
   <g id="patch_139">
    <path d="M 206.079714 215.960425 
L 208.382229 215.960425 
L 208.382229 111.745033 
L 206.079714 111.745033 
z
" clip-path="url(#p85bba38a50)" style="fill: #d62728"/>
   </g>
   <g id="patch_140">
    <path d="M 214.345151 215.570258 
L 216.647666 215.570258 
L 216.647666 111.306608 
L 214.345151 111.306608 
z
" clip-path="url(#p85bba38a50)" style="fill: #d62728"/>
   </g>
   <g id="patch_141">
    <path d="M 222.610588 215.171622 
L 224.913102 215.171622 
L 224.913102 110.855242 
L 222.610588 110.855242 
z
" clip-path="url(#p85bba38a50)" style="fill: #d62728"/>
   </g>
   <g id="patch_142">
    <path d="M 230.876024 214.766286 
L 233.178539 214.766286 
L 233.178539 110.393366 
L 230.876024 110.393366 
z
" clip-path="url(#p85bba38a50)" style="fill: #d62728"/>
   </g>
   <g id="patch_143">
    <path d="M 239.141461 214.355742 
L 241.443976 214.355742 
L 241.443976 109.923037 
L 239.141461 109.923037 
z
" clip-path="url(#p85bba38a50)" style="fill: #d62728"/>
   </g>
   <g id="patch_144">
    <path d="M 247.406898 213.941259 
L 249.709412 213.941259 
L 249.709412 109.446004 
L 247.406898 109.446004 
z
" clip-path="url(#p85bba38a50)" style="fill: #d62728"/>
   </g>
   <g id="patch_145">
    <path d="M 255.672334 213.523915 
L 257.974849 213.523915 
L 257.974849 108.963764 
L 255.672334 108.963764 
z
" clip-path="url(#p85bba38a50)" style="fill: #d62728"/>
   </g>
   <g id="patch_146">
    <path d="M 263.937771 213.104631 
L 266.240286 213.104631 
L 266.240286 108.477596 
L 263.937771 108.477596 
z
" clip-path="url(#p85bba38a50)" style="fill: #d62728"/>
   </g>
   <g id="patch_147">
    <path d="M 272.203208 212.684198 
L 274.505722 212.684198 
L 274.505722 107.988606 
L 272.203208 107.988606 
z
" clip-path="url(#p85bba38a50)" style="fill: #d62728"/>
   </g>
   <g id="patch_148">
    <path d="M 280.468645 212.263293 
L 282.771159 212.263293 
L 282.771159 107.497741 
L 280.468645 107.497741 
z
" clip-path="url(#p85bba38a50)" style="fill: #d62728"/>
   </g>
   <g id="patch_149">
    <path d="M 288.734081 211.8425 
L 291.036596 211.8425 
L 291.036596 107.005825 
L 288.734081 107.005825 
z
" clip-path="url(#p85bba38a50)" style="fill: #d62728"/>
   </g>
   <g id="patch_150">
    <path d="M 296.999518 211.422321 
L 299.302032 211.422321 
L 299.302032 106.513569 
L 296.999518 106.513569 
z
" clip-path="url(#p85bba38a50)" style="fill: #d62728"/>
   </g>
   <g id="patch_151">
    <path d="M 305.264955 211.003189 
L 307.567469 211.003189 
L 307.567469 106.021587 
L 305.264955 106.021587 
z
" clip-path="url(#p85bba38a50)" style="fill: #d62728"/>
   </g>
   <g id="patch_152">
    <path d="M 313.530391 210.585478 
L 315.832906 210.585478 
L 315.832906 105.530416 
L 313.530391 105.530416 
z
" clip-path="url(#p85bba38a50)" style="fill: #d62728"/>
   </g>
   <g id="patch_153">
    <path d="M 321.795828 210.169508 
L 324.098343 210.169508 
L 324.098343 105.040518 
L 321.795828 105.040518 
z
" clip-path="url(#p85bba38a50)" style="fill: #d62728"/>
   </g>
   <g id="patch_154">
    <path d="M 330.061265 209.755557 
L 332.363779 209.755557 
L 332.363779 104.552295 
L 330.061265 104.552295 
z
" clip-path="url(#p85bba38a50)" style="fill: #d62728"/>
   </g>
   <g id="patch_155">
    <path d="M 338.326701 209.343862 
L 340.629216 209.343862 
L 340.629216 104.066097 
L 338.326701 104.066097 
z
" clip-path="url(#p85bba38a50)" style="fill: #d62728"/>
   </g>
   <g id="patch_156">
    <path d="M 346.592138 208.934626 
L 348.894653 208.934626 
L 348.894653 103.582224 
L 346.592138 103.582224 
z
" clip-path="url(#p85bba38a50)" style="fill: #d62728"/>
   </g>
   <g id="patch_157">
    <path d="M 354.857575 208.528024 
L 357.160089 208.528024 
L 357.160089 103.100937 
L 354.857575 103.100937 
z
" clip-path="url(#p85bba38a50)" style="fill: #d62728"/>
   </g>
   <g id="patch_158">
    <path d="M 363.123011 208.124204 
L 365.425526 208.124204 
L 365.425526 102.622461 
L 363.123011 102.622461 
z
" clip-path="url(#p85bba38a50)" style="fill: #d62728"/>
   </g>
   <g id="patch_159">
    <path d="M 371.388448 207.72329 
L 373.690963 207.72329 
L 373.690963 102.14699 
L 371.388448 102.14699 
z
" clip-path="url(#p85bba38a50)" style="fill: #d62728"/>
   </g>
   <g id="patch_160">
    <path d="M 379.653885 207.325388 
L 381.956399 207.325388 
L 381.956399 101.674687 
L 379.653885 101.674687 
z
" clip-path="url(#p85bba38a50)" style="fill: #d62728"/>
   </g>
   <g id="patch_161">
    <path d="M 387.919322 206.930585 
L 390.221836 206.930585 
L 390.221836 101.205694 
L 387.919322 101.205694 
z
" clip-path="url(#p85bba38a50)" style="fill: #d62728"/>
   </g>
   <g id="patch_162">
    <path d="M 396.184758 206.538952 
L 398.487273 206.538952 
L 398.487273 100.74013 
L 396.184758 100.74013 
z
" clip-path="url(#p85bba38a50)" style="fill: #d62728"/>
   </g>
   <g id="patch_163">
    <path d="M 73.832727 108.570385 
L 76.135242 108.570385 
L 76.135242 54.144 
L 73.832727 54.144 
z
" clip-path="url(#p85bba38a50)" style="fill: #9467bd"/>
   </g>
   <g id="patch_164">
    <path d="M 82.098164 110.902303 
L 84.400678 110.902303 
L 84.400678 58.146171 
L 82.098164 58.146171 
z
" clip-path="url(#p85bba38a50)" style="fill: #9467bd"/>
   </g>
   <g id="patch_165">
    <path d="M 90.363601 112.341652 
L 92.666115 112.341652 
L 92.666115 60.884139 
L 90.363601 60.884139 
z
" clip-path="url(#p85bba38a50)" style="fill: #9467bd"/>
   </g>
   <g id="patch_166">
    <path d="M 98.629037 113.257486 
L 100.931552 113.257486 
L 100.931552 62.87202 
L 98.629037 62.87202 
z
" clip-path="url(#p85bba38a50)" style="fill: #9467bd"/>
   </g>
   <g id="patch_167">
    <path d="M 106.894474 113.830879 
L 109.196989 113.830879 
L 109.196989 64.363182 
L 106.894474 64.363182 
z
" clip-path="url(#p85bba38a50)" style="fill: #9467bd"/>
   </g>
   <g id="patch_168">
    <path d="M 115.159911 114.16472 
L 117.462425 114.16472 
L 117.462425 65.502192 
L 115.159911 65.502192 
z
" clip-path="url(#p85bba38a50)" style="fill: #9467bd"/>
   </g>
   <g id="patch_169">
    <path d="M 123.425347 114.32323 
L 125.727862 114.32323 
L 125.727862 66.379658 
L 123.425347 66.379658 
z
" clip-path="url(#p85bba38a50)" style="fill: #9467bd"/>
   </g>
   <g id="patch_170">
    <path d="M 131.690784 114.349207 
L 133.993299 114.349207 
L 133.993299 67.056226 
L 131.690784 67.056226 
z
" clip-path="url(#p85bba38a50)" style="fill: #9467bd"/>
   </g>
   <g id="patch_171">
    <path d="M 139.956221 114.272591 
L 142.258735 114.272591 
L 142.258735 67.574505 
L 139.956221 67.574505 
z
" clip-path="url(#p85bba38a50)" style="fill: #9467bd"/>
   </g>
   <g id="patch_172">
    <path d="M 148.221657 114.115121 
L 150.524172 114.115121 
L 150.524172 67.965581 
L 148.221657 67.965581 
z
" clip-path="url(#p85bba38a50)" style="fill: #9467bd"/>
   </g>
   <g id="patch_173">
    <path d="M 156.487094 113.893052 
L 158.789609 113.893052 
L 158.789609 68.252814 
L 156.487094 68.252814 
z
" clip-path="url(#p85bba38a50)" style="fill: #9467bd"/>
   </g>
   <g id="patch_174">
    <path d="M 164.752531 113.61883 
L 167.055045 113.61883 
L 167.055045 68.454188 
L 164.752531 68.454188 
z
" clip-path="url(#p85bba38a50)" style="fill: #9467bd"/>
   </g>
   <g id="patch_175">
    <path d="M 173.017968 113.302177 
L 175.320482 113.302177 
L 175.320482 68.583832 
L 173.017968 68.583832 
z
" clip-path="url(#p85bba38a50)" style="fill: #9467bd"/>
   </g>
   <g id="patch_176">
    <path d="M 181.283404 112.950811 
L 183.585919 112.950811 
L 183.585919 68.653027 
L 181.283404 68.653027 
z
" clip-path="url(#p85bba38a50)" style="fill: #9467bd"/>
   </g>
   <g id="patch_177">
    <path d="M 189.548841 112.570942 
L 191.851355 112.570942 
L 191.851355 68.670918 
L 189.548841 68.670918 
z
" clip-path="url(#p85bba38a50)" style="fill: #9467bd"/>
   </g>
   <g id="patch_178">
    <path d="M 197.814278 112.167629 
L 200.116792 112.167629 
L 200.116792 68.645002 
L 197.814278 68.645002 
z
" clip-path="url(#p85bba38a50)" style="fill: #9467bd"/>
   </g>
   <g id="patch_179">
    <path d="M 206.079714 111.745033 
L 208.382229 111.745033 
L 208.382229 68.581497 
L 206.079714 68.581497 
z
" clip-path="url(#p85bba38a50)" style="fill: #9467bd"/>
   </g>
   <g id="patch_180">
    <path d="M 214.345151 111.306608 
L 216.647666 111.306608 
L 216.647666 68.485604 
L 214.345151 68.485604 
z
" clip-path="url(#p85bba38a50)" style="fill: #9467bd"/>
   </g>
   <g id="patch_181">
    <path d="M 222.610588 110.855242 
L 224.913102 110.855242 
L 224.913102 68.361714 
L 222.610588 68.361714 
z
" clip-path="url(#p85bba38a50)" style="fill: #9467bd"/>
   </g>
   <g id="patch_182">
    <path d="M 230.876024 110.393366 
L 233.178539 110.393366 
L 233.178539 68.213553 
L 230.876024 68.213553 
z
" clip-path="url(#p85bba38a50)" style="fill: #9467bd"/>
   </g>
   <g id="patch_183">
    <path d="M 239.141461 109.923037 
L 241.443976 109.923037 
L 241.443976 68.044312 
L 239.141461 68.044312 
z
" clip-path="url(#p85bba38a50)" style="fill: #9467bd"/>
   </g>
   <g id="patch_184">
    <path d="M 247.406898 109.446004 
L 249.709412 109.446004 
L 249.709412 67.856734 
L 247.406898 67.856734 
z
" clip-path="url(#p85bba38a50)" style="fill: #9467bd"/>
   </g>
   <g id="patch_185">
    <path d="M 255.672334 108.963764 
L 257.974849 108.963764 
L 257.974849 67.653189 
L 255.672334 67.653189 
z
" clip-path="url(#p85bba38a50)" style="fill: #9467bd"/>
   </g>
   <g id="patch_186">
    <path d="M 263.937771 108.477596 
L 266.240286 108.477596 
L 266.240286 67.435736 
L 263.937771 67.435736 
z
" clip-path="url(#p85bba38a50)" style="fill: #9467bd"/>
   </g>
   <g id="patch_187">
    <path d="M 272.203208 107.988606 
L 274.505722 107.988606 
L 274.505722 67.206173 
L 272.203208 67.206173 
z
" clip-path="url(#p85bba38a50)" style="fill: #9467bd"/>
   </g>
   <g id="patch_188">
    <path d="M 280.468645 107.497741 
L 282.771159 107.497741 
L 282.771159 66.96607 
L 280.468645 66.96607 
z
" clip-path="url(#p85bba38a50)" style="fill: #9467bd"/>
   </g>
   <g id="patch_189">
    <path d="M 288.734081 107.005825 
L 291.036596 107.005825 
L 291.036596 66.716807 
L 288.734081 66.716807 
z
" clip-path="url(#p85bba38a50)" style="fill: #9467bd"/>
   </g>
   <g id="patch_190">
    <path d="M 296.999518 106.513569 
L 299.302032 106.513569 
L 299.302032 66.4596 
L 296.999518 66.4596 
z
" clip-path="url(#p85bba38a50)" style="fill: #9467bd"/>
   </g>
   <g id="patch_191">
    <path d="M 305.264955 106.021587 
L 307.567469 106.021587 
L 307.567469 66.195524 
L 305.264955 66.195524 
z
" clip-path="url(#p85bba38a50)" style="fill: #9467bd"/>
   </g>
   <g id="patch_192">
    <path d="M 313.530391 105.530416 
L 315.832906 105.530416 
L 315.832906 65.925528 
L 313.530391 65.925528 
z
" clip-path="url(#p85bba38a50)" style="fill: #9467bd"/>
   </g>
   <g id="patch_193">
    <path d="M 321.795828 105.040518 
L 324.098343 105.040518 
L 324.098343 65.650457 
L 321.795828 65.650457 
z
" clip-path="url(#p85bba38a50)" style="fill: #9467bd"/>
   </g>
   <g id="patch_194">
    <path d="M 330.061265 104.552295 
L 332.363779 104.552295 
L 332.363779 65.371058 
L 330.061265 65.371058 
z
" clip-path="url(#p85bba38a50)" style="fill: #9467bd"/>
   </g>
   <g id="patch_195">
    <path d="M 338.326701 104.066097 
L 340.629216 104.066097 
L 340.629216 65.088001 
L 338.326701 65.088001 
z
" clip-path="url(#p85bba38a50)" style="fill: #9467bd"/>
   </g>
   <g id="patch_196">
    <path d="M 346.592138 103.582224 
L 348.894653 103.582224 
L 348.894653 64.80188 
L 346.592138 64.80188 
z
" clip-path="url(#p85bba38a50)" style="fill: #9467bd"/>
   </g>
   <g id="patch_197">
    <path d="M 354.857575 103.100937 
L 357.160089 103.100937 
L 357.160089 64.513227 
L 354.857575 64.513227 
z
" clip-path="url(#p85bba38a50)" style="fill: #9467bd"/>
   </g>
   <g id="patch_198">
    <path d="M 363.123011 102.622461 
L 365.425526 102.622461 
L 365.425526 64.222517 
L 363.123011 64.222517 
z
" clip-path="url(#p85bba38a50)" style="fill: #9467bd"/>
   </g>
   <g id="patch_199">
    <path d="M 371.388448 102.14699 
L 373.690963 102.14699 
L 373.690963 63.930174 
L 371.388448 63.930174 
z
" clip-path="url(#p85bba38a50)" style="fill: #9467bd"/>
   </g>
   <g id="patch_200">
    <path d="M 379.653885 101.674687 
L 381.956399 101.674687 
L 381.956399 63.636579 
L 379.653885 63.636579 
z
" clip-path="url(#p85bba38a50)" style="fill: #9467bd"/>
   </g>
   <g id="patch_201">
    <path d="M 387.919322 101.205694 
L 390.221836 101.205694 
L 390.221836 63.342073 
L 387.919322 63.342073 
z
" clip-path="url(#p85bba38a50)" style="fill: #9467bd"/>
   </g>
   <g id="patch_202">
    <path d="M 396.184758 100.74013 
L 398.487273 100.74013 
L 398.487273 63.046961 
L 396.184758 63.046961 
z
" clip-path="url(#p85bba38a50)" style="fill: #9467bd"/>
   </g>
   <g id="matplotlib.axis_1">
    <g id="xtick_1">
     <g id="line2d_1">
      <defs>
       <path id="m9844cddf26" d="M 0 0 
L 0 3.5 
" style="stroke: #000000; stroke-width: 0.8"/>
      </defs>
      <g>
       <use xlink:href="#m9844cddf26" x="167.084565" y="307.584" style="stroke: #000000; stroke-width: 0.8"/>
      </g>
     </g>
     <g id="text_1">
      <!-- 40 -->
      <g transform="translate(155.632065 328.261187) scale(0.18 -0.18)">
       <defs>
        <path id="DejaVuSans-34" d="M 2419 4116 
L 825 1625 
L 2419 1625 
L 2419 4116 
z
M 2253 4666 
L 3047 4666 
L 3047 1625 
L 3713 1625 
L 3713 1100 
L 3047 1100 
L 3047 0 
L 2419 0 
L 2419 1100 
L 313 1100 
L 313 1709 
L 2253 4666 
z
" transform="scale(0.015625)"/>
        <path id="DejaVuSans-30" d="M 2034 4250 
Q 1547 4250 1301 3770 
Q 1056 3291 1056 2328 
Q 1056 1369 1301 889 
Q 1547 409 2034 409 
Q 2525 409 2770 889 
Q 3016 1369 3016 2328 
Q 3016 3291 2770 3770 
Q 2525 4250 2034 4250 
z
M 2034 4750 
Q 2819 4750 3233 4129 
Q 3647 3509 3647 2328 
Q 3647 1150 3233 529 
Q 2819 -91 2034 -91 
Q 1250 -91 836 529 
Q 422 1150 422 2328 
Q 422 3509 836 4129 
Q 1250 4750 2034 4750 
z
" transform="scale(0.015625)"/>
       </defs>
       <use xlink:href="#DejaVuSans-34"/>
       <use xlink:href="#DejaVuSans-30" x="63.623047"/>
      </g>
     </g>
    </g>
    <g id="xtick_2">
     <g id="line2d_2">
      <g>
       <use xlink:href="#m9844cddf26" x="282.21029" y="307.584" style="stroke: #000000; stroke-width: 0.8"/>
      </g>
     </g>
     <g id="text_2">
      <!-- 45 -->
      <g transform="translate(270.75779 328.261187) scale(0.18 -0.18)">
       <defs>
        <path id="DejaVuSans-35" d="M 691 4666 
L 3169 4666 
L 3169 4134 
L 1269 4134 
L 1269 2991 
Q 1406 3038 1543 3061 
Q 1681 3084 1819 3084 
Q 2600 3084 3056 2656 
Q 3513 2228 3513 1497 
Q 3513 744 3044 326 
Q 2575 -91 1722 -91 
Q 1428 -91 1123 -41 
Q 819 9 494 109 
L 494 744 
Q 775 591 1075 516 
Q 1375 441 1709 441 
Q 2250 441 2565 725 
Q 2881 1009 2881 1497 
Q 2881 1984 2565 2268 
Q 2250 2553 1709 2553 
Q 1456 2553 1204 2497 
Q 953 2441 691 2322 
L 691 4666 
z
" transform="scale(0.015625)"/>
       </defs>
       <use xlink:href="#DejaVuSans-34"/>
       <use xlink:href="#DejaVuSans-35" x="63.623047"/>
      </g>
     </g>
    </g>
    <g id="xtick_3">
     <g id="line2d_3">
      <g>
       <use xlink:href="#m9844cddf26" x="397.336015" y="307.584" style="stroke: #000000; stroke-width: 0.8"/>
      </g>
     </g>
     <g id="text_3">
      <!-- 50 -->
      <g transform="translate(385.883515 328.261187) scale(0.18 -0.18)">
       <use xlink:href="#DejaVuSans-35"/>
       <use xlink:href="#DejaVuSans-30" x="63.623047"/>
      </g>
     </g>
    </g>
    <g id="text_4">
     <!-- Kondensatordruck in bar -->
     <g transform="translate(125.630156 349.681812) scale(0.18 -0.18)">
      <defs>
       <path id="DejaVuSans-4b" d="M 628 4666 
L 1259 4666 
L 1259 2694 
L 3353 4666 
L 4166 4666 
L 1850 2491 
L 4331 0 
L 3500 0 
L 1259 2247 
L 1259 0 
L 628 0 
L 628 4666 
z
" transform="scale(0.015625)"/>
       <path id="DejaVuSans-6f" d="M 1959 3097 
Q 1497 3097 1228 2736 
Q 959 2375 959 1747 
Q 959 1119 1226 758 
Q 1494 397 1959 397 
Q 2419 397 2687 759 
Q 2956 1122 2956 1747 
Q 2956 2369 2687 2733 
Q 2419 3097 1959 3097 
z
M 1959 3584 
Q 2709 3584 3137 3096 
Q 3566 2609 3566 1747 
Q 3566 888 3137 398 
Q 2709 -91 1959 -91 
Q 1206 -91 779 398 
Q 353 888 353 1747 
Q 353 2609 779 3096 
Q 1206 3584 1959 3584 
z
" transform="scale(0.015625)"/>
       <path id="DejaVuSans-6e" d="M 3513 2113 
L 3513 0 
L 2938 0 
L 2938 2094 
Q 2938 2591 2744 2837 
Q 2550 3084 2163 3084 
Q 1697 3084 1428 2787 
Q 1159 2491 1159 1978 
L 1159 0 
L 581 0 
L 581 3500 
L 1159 3500 
L 1159 2956 
Q 1366 3272 1645 3428 
Q 1925 3584 2291 3584 
Q 2894 3584 3203 3211 
Q 3513 2838 3513 2113 
z
" transform="scale(0.015625)"/>
       <path id="DejaVuSans-64" d="M 2906 2969 
L 2906 4863 
L 3481 4863 
L 3481 0 
L 2906 0 
L 2906 525 
Q 2725 213 2448 61 
Q 2172 -91 1784 -91 
Q 1150 -91 751 415 
Q 353 922 353 1747 
Q 353 2572 751 3078 
Q 1150 3584 1784 3584 
Q 2172 3584 2448 3432 
Q 2725 3281 2906 2969 
z
M 947 1747 
Q 947 1113 1208 752 
Q 1469 391 1925 391 
Q 2381 391 2643 752 
Q 2906 1113 2906 1747 
Q 2906 2381 2643 2742 
Q 2381 3103 1925 3103 
Q 1469 3103 1208 2742 
Q 947 2381 947 1747 
z
" transform="scale(0.015625)"/>
       <path id="DejaVuSans-65" d="M 3597 1894 
L 3597 1613 
L 953 1613 
Q 991 1019 1311 708 
Q 1631 397 2203 397 
Q 2534 397 2845 478 
Q 3156 559 3463 722 
L 3463 178 
Q 3153 47 2828 -22 
Q 2503 -91 2169 -91 
Q 1331 -91 842 396 
Q 353 884 353 1716 
Q 353 2575 817 3079 
Q 1281 3584 2069 3584 
Q 2775 3584 3186 3129 
Q 3597 2675 3597 1894 
z
M 3022 2063 
Q 3016 2534 2758 2815 
Q 2500 3097 2075 3097 
Q 1594 3097 1305 2825 
Q 1016 2553 972 2059 
L 3022 2063 
z
" transform="scale(0.015625)"/>
       <path id="DejaVuSans-73" d="M 2834 3397 
L 2834 2853 
Q 2591 2978 2328 3040 
Q 2066 3103 1784 3103 
Q 1356 3103 1142 2972 
Q 928 2841 928 2578 
Q 928 2378 1081 2264 
Q 1234 2150 1697 2047 
L 1894 2003 
Q 2506 1872 2764 1633 
Q 3022 1394 3022 966 
Q 3022 478 2636 193 
Q 2250 -91 1575 -91 
Q 1294 -91 989 -36 
Q 684 19 347 128 
L 347 722 
Q 666 556 975 473 
Q 1284 391 1588 391 
Q 1994 391 2212 530 
Q 2431 669 2431 922 
Q 2431 1156 2273 1281 
Q 2116 1406 1581 1522 
L 1381 1569 
Q 847 1681 609 1914 
Q 372 2147 372 2553 
Q 372 3047 722 3315 
Q 1072 3584 1716 3584 
Q 2034 3584 2315 3537 
Q 2597 3491 2834 3397 
z
" transform="scale(0.015625)"/>
       <path id="DejaVuSans-61" d="M 2194 1759 
Q 1497 1759 1228 1600 
Q 959 1441 959 1056 
Q 959 750 1161 570 
Q 1363 391 1709 391 
Q 2188 391 2477 730 
Q 2766 1069 2766 1631 
L 2766 1759 
L 2194 1759 
z
M 3341 1997 
L 3341 0 
L 2766 0 
L 2766 531 
Q 2569 213 2275 61 
Q 1981 -91 1556 -91 
Q 1019 -91 701 211 
Q 384 513 384 1019 
Q 384 1609 779 1909 
Q 1175 2209 1959 2209 
L 2766 2209 
L 2766 2266 
Q 2766 2663 2505 2880 
Q 2244 3097 1772 3097 
Q 1472 3097 1187 3025 
Q 903 2953 641 2809 
L 641 3341 
Q 956 3463 1253 3523 
Q 1550 3584 1831 3584 
Q 2591 3584 2966 3190 
Q 3341 2797 3341 1997 
z
" transform="scale(0.015625)"/>
       <path id="DejaVuSans-74" d="M 1172 4494 
L 1172 3500 
L 2356 3500 
L 2356 3053 
L 1172 3053 
L 1172 1153 
Q 1172 725 1289 603 
Q 1406 481 1766 481 
L 2356 481 
L 2356 0 
L 1766 0 
Q 1100 0 847 248 
Q 594 497 594 1153 
L 594 3053 
L 172 3053 
L 172 3500 
L 594 3500 
L 594 4494 
L 1172 4494 
z
" transform="scale(0.015625)"/>
       <path id="DejaVuSans-72" d="M 2631 2963 
Q 2534 3019 2420 3045 
Q 2306 3072 2169 3072 
Q 1681 3072 1420 2755 
Q 1159 2438 1159 1844 
L 1159 0 
L 581 0 
L 581 3500 
L 1159 3500 
L 1159 2956 
Q 1341 3275 1631 3429 
Q 1922 3584 2338 3584 
Q 2397 3584 2469 3576 
Q 2541 3569 2628 3553 
L 2631 2963 
z
" transform="scale(0.015625)"/>
       <path id="DejaVuSans-75" d="M 544 1381 
L 544 3500 
L 1119 3500 
L 1119 1403 
Q 1119 906 1312 657 
Q 1506 409 1894 409 
Q 2359 409 2629 706 
Q 2900 1003 2900 1516 
L 2900 3500 
L 3475 3500 
L 3475 0 
L 2900 0 
L 2900 538 
Q 2691 219 2414 64 
Q 2138 -91 1772 -91 
Q 1169 -91 856 284 
Q 544 659 544 1381 
z
M 1991 3584 
L 1991 3584 
z
" transform="scale(0.015625)"/>
       <path id="DejaVuSans-63" d="M 3122 3366 
L 3122 2828 
Q 2878 2963 2633 3030 
Q 2388 3097 2138 3097 
Q 1578 3097 1268 2742 
Q 959 2388 959 1747 
Q 959 1106 1268 751 
Q 1578 397 2138 397 
Q 2388 397 2633 464 
Q 2878 531 3122 666 
L 3122 134 
Q 2881 22 2623 -34 
Q 2366 -91 2075 -91 
Q 1284 -91 818 406 
Q 353 903 353 1747 
Q 353 2603 823 3093 
Q 1294 3584 2113 3584 
Q 2378 3584 2631 3529 
Q 2884 3475 3122 3366 
z
" transform="scale(0.015625)"/>
       <path id="DejaVuSans-6b" d="M 581 4863 
L 1159 4863 
L 1159 1991 
L 2875 3500 
L 3609 3500 
L 1753 1863 
L 3688 0 
L 2938 0 
L 1159 1709 
L 1159 0 
L 581 0 
L 581 4863 
z
" transform="scale(0.015625)"/>
       <path id="DejaVuSans-20" transform="scale(0.015625)"/>
       <path id="DejaVuSans-69" d="M 603 3500 
L 1178 3500 
L 1178 0 
L 603 0 
L 603 3500 
z
M 603 4863 
L 1178 4863 
L 1178 4134 
L 603 4134 
L 603 4863 
z
" transform="scale(0.015625)"/>
       <path id="DejaVuSans-62" d="M 3116 1747 
Q 3116 2381 2855 2742 
Q 2594 3103 2138 3103 
Q 1681 3103 1420 2742 
Q 1159 2381 1159 1747 
Q 1159 1113 1420 752 
Q 1681 391 2138 391 
Q 2594 391 2855 752 
Q 3116 1113 3116 1747 
z
M 1159 2969 
Q 1341 3281 1617 3432 
Q 1894 3584 2278 3584 
Q 2916 3584 3314 3078 
Q 3713 2572 3713 1747 
Q 3713 922 3314 415 
Q 2916 -91 2278 -91 
Q 1894 -91 1617 61 
Q 1341 213 1159 525 
L 1159 0 
L 581 0 
L 581 4863 
L 1159 4863 
L 1159 2969 
z
" transform="scale(0.015625)"/>
      </defs>
      <use xlink:href="#DejaVuSans-4b"/>
      <use xlink:href="#DejaVuSans-6f" x="60.576172"/>
      <use xlink:href="#DejaVuSans-6e" x="121.757812"/>
      <use xlink:href="#DejaVuSans-64" x="185.136719"/>
      <use xlink:href="#DejaVuSans-65" x="248.613281"/>
      <use xlink:href="#DejaVuSans-6e" x="310.136719"/>
      <use xlink:href="#DejaVuSans-73" x="373.515625"/>
      <use xlink:href="#DejaVuSans-61" x="425.615234"/>
      <use xlink:href="#DejaVuSans-74" x="486.894531"/>
      <use xlink:href="#DejaVuSans-6f" x="526.103516"/>
      <use xlink:href="#DejaVuSans-72" x="587.285156"/>
      <use xlink:href="#DejaVuSans-64" x="626.648438"/>
      <use xlink:href="#DejaVuSans-72" x="690.125"/>
      <use xlink:href="#DejaVuSans-75" x="731.238281"/>
      <use xlink:href="#DejaVuSans-63" x="794.617188"/>
      <use xlink:href="#DejaVuSans-6b" x="849.597656"/>
      <use xlink:href="#DejaVuSans-20" x="907.507812"/>
      <use xlink:href="#DejaVuSans-69" x="939.294922"/>
      <use xlink:href="#DejaVuSans-6e" x="967.078125"/>
      <use xlink:href="#DejaVuSans-20" x="1030.457031"/>
      <use xlink:href="#DejaVuSans-62" x="1062.244141"/>
      <use xlink:href="#DejaVuSans-61" x="1125.720703"/>
      <use xlink:href="#DejaVuSans-72" x="1187"/>
     </g>
    </g>
   </g>
   <g id="matplotlib.axis_2">
    <g id="ytick_1">
     <g id="line2d_4">
      <defs>
       <path id="m353724dbfa" d="M 0 0 
L -3.5 0 
" style="stroke: #000000; stroke-width: 0.8"/>
      </defs>
      <g>
       <use xlink:href="#m353724dbfa" x="57.6" y="307.584" style="stroke: #000000; stroke-width: 0.8"/>
      </g>
     </g>
     <g id="text_5">
      <!-- 0.00 -->
      <g transform="translate(10.521875 314.422594) scale(0.18 -0.18)">
       <defs>
        <path id="DejaVuSans-2e" d="M 684 794 
L 1344 794 
L 1344 0 
L 684 0 
L 684 794 
z
" transform="scale(0.015625)"/>
       </defs>
       <use xlink:href="#DejaVuSans-30"/>
       <use xlink:href="#DejaVuSans-2e" x="63.623047"/>
       <use xlink:href="#DejaVuSans-30" x="95.410156"/>
       <use xlink:href="#DejaVuSans-30" x="159.033203"/>
      </g>
     </g>
    </g>
    <g id="ytick_2">
     <g id="line2d_5">
      <g>
       <use xlink:href="#m353724dbfa" x="57.6" y="263.839653" style="stroke: #000000; stroke-width: 0.8"/>
      </g>
     </g>
     <g id="text_6">
      <!-- 0.02 -->
      <g transform="translate(10.521875 270.678247) scale(0.18 -0.18)">
       <defs>
        <path id="DejaVuSans-32" d="M 1228 531 
L 3431 531 
L 3431 0 
L 469 0 
L 469 531 
Q 828 903 1448 1529 
Q 2069 2156 2228 2338 
Q 2531 2678 2651 2914 
Q 2772 3150 2772 3378 
Q 2772 3750 2511 3984 
Q 2250 4219 1831 4219 
Q 1534 4219 1204 4116 
Q 875 4013 500 3803 
L 500 4441 
Q 881 4594 1212 4672 
Q 1544 4750 1819 4750 
Q 2544 4750 2975 4387 
Q 3406 4025 3406 3419 
Q 3406 3131 3298 2873 
Q 3191 2616 2906 2266 
Q 2828 2175 2409 1742 
Q 1991 1309 1228 531 
z
" transform="scale(0.015625)"/>
       </defs>
       <use xlink:href="#DejaVuSans-30"/>
       <use xlink:href="#DejaVuSans-2e" x="63.623047"/>
       <use xlink:href="#DejaVuSans-30" x="95.410156"/>
       <use xlink:href="#DejaVuSans-32" x="159.033203"/>
      </g>
     </g>
    </g>
    <g id="ytick_3">
     <g id="line2d_6">
      <g>
       <use xlink:href="#m353724dbfa" x="57.6" y="220.095307" style="stroke: #000000; stroke-width: 0.8"/>
      </g>
     </g>
     <g id="text_7">
      <!-- 0.04 -->
      <g transform="translate(10.521875 226.933901) scale(0.18 -0.18)">
       <use xlink:href="#DejaVuSans-30"/>
       <use xlink:href="#DejaVuSans-2e" x="63.623047"/>
       <use xlink:href="#DejaVuSans-30" x="95.410156"/>
       <use xlink:href="#DejaVuSans-34" x="159.033203"/>
      </g>
     </g>
    </g>
    <g id="ytick_4">
     <g id="line2d_7">
      <g>
       <use xlink:href="#m353724dbfa" x="57.6" y="176.35096" style="stroke: #000000; stroke-width: 0.8"/>
      </g>
     </g>
     <g id="text_8">
      <!-- 0.06 -->
      <g transform="translate(10.521875 183.189554) scale(0.18 -0.18)">
       <defs>
        <path id="DejaVuSans-36" d="M 2113 2584 
Q 1688 2584 1439 2293 
Q 1191 2003 1191 1497 
Q 1191 994 1439 701 
Q 1688 409 2113 409 
Q 2538 409 2786 701 
Q 3034 994 3034 1497 
Q 3034 2003 2786 2293 
Q 2538 2584 2113 2584 
z
M 3366 4563 
L 3366 3988 
Q 3128 4100 2886 4159 
Q 2644 4219 2406 4219 
Q 1781 4219 1451 3797 
Q 1122 3375 1075 2522 
Q 1259 2794 1537 2939 
Q 1816 3084 2150 3084 
Q 2853 3084 3261 2657 
Q 3669 2231 3669 1497 
Q 3669 778 3244 343 
Q 2819 -91 2113 -91 
Q 1303 -91 875 529 
Q 447 1150 447 2328 
Q 447 3434 972 4092 
Q 1497 4750 2381 4750 
Q 2619 4750 2861 4703 
Q 3103 4656 3366 4563 
z
" transform="scale(0.015625)"/>
       </defs>
       <use xlink:href="#DejaVuSans-30"/>
       <use xlink:href="#DejaVuSans-2e" x="63.623047"/>
       <use xlink:href="#DejaVuSans-30" x="95.410156"/>
       <use xlink:href="#DejaVuSans-36" x="159.033203"/>
      </g>
     </g>
    </g>
    <g id="ytick_5">
     <g id="line2d_8">
      <g>
       <use xlink:href="#m353724dbfa" x="57.6" y="132.606614" style="stroke: #000000; stroke-width: 0.8"/>
      </g>
     </g>
     <g id="text_9">
      <!-- 0.08 -->
      <g transform="translate(10.521875 139.445208) scale(0.18 -0.18)">
       <defs>
        <path id="DejaVuSans-38" d="M 2034 2216 
Q 1584 2216 1326 1975 
Q 1069 1734 1069 1313 
Q 1069 891 1326 650 
Q 1584 409 2034 409 
Q 2484 409 2743 651 
Q 3003 894 3003 1313 
Q 3003 1734 2745 1975 
Q 2488 2216 2034 2216 
z
M 1403 2484 
Q 997 2584 770 2862 
Q 544 3141 544 3541 
Q 544 4100 942 4425 
Q 1341 4750 2034 4750 
Q 2731 4750 3128 4425 
Q 3525 4100 3525 3541 
Q 3525 3141 3298 2862 
Q 3072 2584 2669 2484 
Q 3125 2378 3379 2068 
Q 3634 1759 3634 1313 
Q 3634 634 3220 271 
Q 2806 -91 2034 -91 
Q 1263 -91 848 271 
Q 434 634 434 1313 
Q 434 1759 690 2068 
Q 947 2378 1403 2484 
z
M 1172 3481 
Q 1172 3119 1398 2916 
Q 1625 2713 2034 2713 
Q 2441 2713 2670 2916 
Q 2900 3119 2900 3481 
Q 2900 3844 2670 4047 
Q 2441 4250 2034 4250 
Q 1625 4250 1398 4047 
Q 1172 3844 1172 3481 
z
" transform="scale(0.015625)"/>
       </defs>
       <use xlink:href="#DejaVuSans-30"/>
       <use xlink:href="#DejaVuSans-2e" x="63.623047"/>
       <use xlink:href="#DejaVuSans-30" x="95.410156"/>
       <use xlink:href="#DejaVuSans-38" x="159.033203"/>
      </g>
     </g>
    </g>
    <g id="ytick_6">
     <g id="line2d_9">
      <g>
       <use xlink:href="#m353724dbfa" x="57.6" y="88.862267" style="stroke: #000000; stroke-width: 0.8"/>
      </g>
     </g>
     <g id="text_10">
      <!-- 0.10 -->
      <g transform="translate(10.521875 95.700861) scale(0.18 -0.18)">
       <defs>
        <path id="DejaVuSans-31" d="M 794 531 
L 1825 531 
L 1825 4091 
L 703 3866 
L 703 4441 
L 1819 4666 
L 2450 4666 
L 2450 531 
L 3481 531 
L 3481 0 
L 794 0 
L 794 531 
z
" transform="scale(0.015625)"/>
       </defs>
       <use xlink:href="#DejaVuSans-30"/>
       <use xlink:href="#DejaVuSans-2e" x="63.623047"/>
       <use xlink:href="#DejaVuSans-31" x="95.410156"/>
       <use xlink:href="#DejaVuSans-30" x="159.033203"/>
      </g>
     </g>
    </g>
    <g id="ytick_7">
     <g id="line2d_10">
      <g>
       <use xlink:href="#m353724dbfa" x="57.6" y="45.117921" style="stroke: #000000; stroke-width: 0.8"/>
      </g>
     </g>
     <g id="text_11">
      <!-- 0.12 -->
      <g transform="translate(10.521875 51.956515) scale(0.18 -0.18)">
       <use xlink:href="#DejaVuSans-30"/>
       <use xlink:href="#DejaVuSans-2e" x="63.623047"/>
       <use xlink:href="#DejaVuSans-31" x="95.410156"/>
       <use xlink:href="#DejaVuSans-32" x="159.033203"/>
      </g>
     </g>
    </g>
    <g id="text_12">
     <!-- Exergievernichtung in MW -->
     <g transform="translate(2.778437 292.593937) rotate(-90) scale(0.18 -0.18)">
      <defs>
       <path id="DejaVuSans-45" d="M 628 4666 
L 3578 4666 
L 3578 4134 
L 1259 4134 
L 1259 2753 
L 3481 2753 
L 3481 2222 
L 1259 2222 
L 1259 531 
L 3634 531 
L 3634 0 
L 628 0 
L 628 4666 
z
" transform="scale(0.015625)"/>
       <path id="DejaVuSans-78" d="M 3513 3500 
L 2247 1797 
L 3578 0 
L 2900 0 
L 1881 1375 
L 863 0 
L 184 0 
L 1544 1831 
L 300 3500 
L 978 3500 
L 1906 2253 
L 2834 3500 
L 3513 3500 
z
" transform="scale(0.015625)"/>
       <path id="DejaVuSans-67" d="M 2906 1791 
Q 2906 2416 2648 2759 
Q 2391 3103 1925 3103 
Q 1463 3103 1205 2759 
Q 947 2416 947 1791 
Q 947 1169 1205 825 
Q 1463 481 1925 481 
Q 2391 481 2648 825 
Q 2906 1169 2906 1791 
z
M 3481 434 
Q 3481 -459 3084 -895 
Q 2688 -1331 1869 -1331 
Q 1566 -1331 1297 -1286 
Q 1028 -1241 775 -1147 
L 775 -588 
Q 1028 -725 1275 -790 
Q 1522 -856 1778 -856 
Q 2344 -856 2625 -561 
Q 2906 -266 2906 331 
L 2906 616 
Q 2728 306 2450 153 
Q 2172 0 1784 0 
Q 1141 0 747 490 
Q 353 981 353 1791 
Q 353 2603 747 3093 
Q 1141 3584 1784 3584 
Q 2172 3584 2450 3431 
Q 2728 3278 2906 2969 
L 2906 3500 
L 3481 3500 
L 3481 434 
z
" transform="scale(0.015625)"/>
       <path id="DejaVuSans-76" d="M 191 3500 
L 800 3500 
L 1894 563 
L 2988 3500 
L 3597 3500 
L 2284 0 
L 1503 0 
L 191 3500 
z
" transform="scale(0.015625)"/>
       <path id="DejaVuSans-68" d="M 3513 2113 
L 3513 0 
L 2938 0 
L 2938 2094 
Q 2938 2591 2744 2837 
Q 2550 3084 2163 3084 
Q 1697 3084 1428 2787 
Q 1159 2491 1159 1978 
L 1159 0 
L 581 0 
L 581 4863 
L 1159 4863 
L 1159 2956 
Q 1366 3272 1645 3428 
Q 1925 3584 2291 3584 
Q 2894 3584 3203 3211 
Q 3513 2838 3513 2113 
z
" transform="scale(0.015625)"/>
       <path id="DejaVuSans-4d" d="M 628 4666 
L 1569 4666 
L 2759 1491 
L 3956 4666 
L 4897 4666 
L 4897 0 
L 4281 0 
L 4281 4097 
L 3078 897 
L 2444 897 
L 1241 4097 
L 1241 0 
L 628 0 
L 628 4666 
z
" transform="scale(0.015625)"/>
       <path id="DejaVuSans-57" d="M 213 4666 
L 850 4666 
L 1831 722 
L 2809 4666 
L 3519 4666 
L 4500 722 
L 5478 4666 
L 6119 4666 
L 4947 0 
L 4153 0 
L 3169 4050 
L 2175 0 
L 1381 0 
L 213 4666 
z
" transform="scale(0.015625)"/>
      </defs>
      <use xlink:href="#DejaVuSans-45"/>
      <use xlink:href="#DejaVuSans-78" x="63.183594"/>
      <use xlink:href="#DejaVuSans-65" x="119.238281"/>
      <use xlink:href="#DejaVuSans-72" x="180.761719"/>
      <use xlink:href="#DejaVuSans-67" x="220.125"/>
      <use xlink:href="#DejaVuSans-69" x="283.601562"/>
      <use xlink:href="#DejaVuSans-65" x="311.384766"/>
      <use xlink:href="#DejaVuSans-76" x="372.908203"/>
      <use xlink:href="#DejaVuSans-65" x="432.087891"/>
      <use xlink:href="#DejaVuSans-72" x="493.611328"/>
      <use xlink:href="#DejaVuSans-6e" x="532.974609"/>
      <use xlink:href="#DejaVuSans-69" x="596.353516"/>
      <use xlink:href="#DejaVuSans-63" x="624.136719"/>
      <use xlink:href="#DejaVuSans-68" x="679.117188"/>
      <use xlink:href="#DejaVuSans-74" x="742.496094"/>
      <use xlink:href="#DejaVuSans-75" x="781.705078"/>
      <use xlink:href="#DejaVuSans-6e" x="845.083984"/>
      <use xlink:href="#DejaVuSans-67" x="908.462891"/>
      <use xlink:href="#DejaVuSans-20" x="971.939453"/>
      <use xlink:href="#DejaVuSans-69" x="1003.726562"/>
      <use xlink:href="#DejaVuSans-6e" x="1031.509766"/>
      <use xlink:href="#DejaVuSans-20" x="1094.888672"/>
      <use xlink:href="#DejaVuSans-4d" x="1126.675781"/>
      <use xlink:href="#DejaVuSans-57" x="1212.955078"/>
     </g>
    </g>
   </g>
   <g id="patch_203">
    <path d="M 57.6 307.584 
L 57.6 41.472 
" style="fill: none; stroke: #000000; stroke-width: 0.8; stroke-linejoin: miter; stroke-linecap: square"/>
   </g>
   <g id="patch_204">
    <path d="M 414.72 307.584 
L 414.72 41.472 
" style="fill: none; stroke: #000000; stroke-width: 0.8; stroke-linejoin: miter; stroke-linecap: square"/>
   </g>
   <g id="patch_205">
    <path d="M 57.6 307.584 
L 414.72 307.584 
" style="fill: none; stroke: #000000; stroke-width: 0.8; stroke-linejoin: miter; stroke-linecap: square"/>
   </g>
   <g id="patch_206">
    <path d="M 57.6 41.472 
L 414.72 41.472 
" style="fill: none; stroke: #000000; stroke-width: 0.8; stroke-linejoin: miter; stroke-linecap: square"/>
   </g>
   <g id="legend_1">
    <g id="patch_207">
     <path d="M 125.648437 187.975125 
L 402.12 187.975125 
Q 405.72 187.975125 405.72 184.375125 
L 405.72 54.072 
Q 405.72 50.472 402.12 50.472 
L 125.648437 50.472 
Q 122.048437 50.472 122.048437 54.072 
L 122.048437 184.375125 
Q 122.048437 187.975125 125.648437 187.975125 
z
" style="fill: #ffffff; opacity: 0.8; stroke: #cccccc; stroke-linejoin: miter"/>
    </g>
    <g id="patch_208">
     <path d="M 129.248437 71.349187 
L 165.248437 71.349187 
L 165.248437 58.749187 
L 129.248437 58.749187 
z
" style="fill: #1f77b4"/>
    </g>
    <g id="text_13">
     <!-- Gas cooler -->
     <g transform="translate(179.648438 71.349187) scale(0.18 -0.18)">
      <defs>
       <path id="DejaVuSans-47" d="M 3809 666 
L 3809 1919 
L 2778 1919 
L 2778 2438 
L 4434 2438 
L 4434 434 
Q 4069 175 3628 42 
Q 3188 -91 2688 -91 
Q 1594 -91 976 548 
Q 359 1188 359 2328 
Q 359 3472 976 4111 
Q 1594 4750 2688 4750 
Q 3144 4750 3555 4637 
Q 3966 4525 4313 4306 
L 4313 3634 
Q 3963 3931 3569 4081 
Q 3175 4231 2741 4231 
Q 1884 4231 1454 3753 
Q 1025 3275 1025 2328 
Q 1025 1384 1454 906 
Q 1884 428 2741 428 
Q 3075 428 3337 486 
Q 3600 544 3809 666 
z
" transform="scale(0.015625)"/>
       <path id="DejaVuSans-6c" d="M 603 4863 
L 1178 4863 
L 1178 0 
L 603 0 
L 603 4863 
z
" transform="scale(0.015625)"/>
      </defs>
      <use xlink:href="#DejaVuSans-47"/>
      <use xlink:href="#DejaVuSans-61" x="77.490234"/>
      <use xlink:href="#DejaVuSans-73" x="138.769531"/>
      <use xlink:href="#DejaVuSans-20" x="190.869141"/>
      <use xlink:href="#DejaVuSans-63" x="222.65625"/>
      <use xlink:href="#DejaVuSans-6f" x="277.636719"/>
      <use xlink:href="#DejaVuSans-6f" x="338.818359"/>
      <use xlink:href="#DejaVuSans-6c" x="400"/>
      <use xlink:href="#DejaVuSans-65" x="427.783203"/>
      <use xlink:href="#DejaVuSans-72" x="489.306641"/>
     </g>
    </g>
    <g id="patch_209">
     <path d="M 129.248437 97.769812 
L 165.248437 97.769812 
L 165.248437 85.169812 
L 129.248437 85.169812 
z
" style="fill: #ff7f0e"/>
    </g>
    <g id="text_14">
     <!-- Evaporator -->
     <g transform="translate(179.648438 97.769812) scale(0.18 -0.18)">
      <defs>
       <path id="DejaVuSans-70" d="M 1159 525 
L 1159 -1331 
L 581 -1331 
L 581 3500 
L 1159 3500 
L 1159 2969 
Q 1341 3281 1617 3432 
Q 1894 3584 2278 3584 
Q 2916 3584 3314 3078 
Q 3713 2572 3713 1747 
Q 3713 922 3314 415 
Q 2916 -91 2278 -91 
Q 1894 -91 1617 61 
Q 1341 213 1159 525 
z
M 3116 1747 
Q 3116 2381 2855 2742 
Q 2594 3103 2138 3103 
Q 1681 3103 1420 2742 
Q 1159 2381 1159 1747 
Q 1159 1113 1420 752 
Q 1681 391 2138 391 
Q 2594 391 2855 752 
Q 3116 1113 3116 1747 
z
" transform="scale(0.015625)"/>
      </defs>
      <use xlink:href="#DejaVuSans-45"/>
      <use xlink:href="#DejaVuSans-76" x="63.183594"/>
      <use xlink:href="#DejaVuSans-61" x="122.363281"/>
      <use xlink:href="#DejaVuSans-70" x="183.642578"/>
      <use xlink:href="#DejaVuSans-6f" x="247.119141"/>
      <use xlink:href="#DejaVuSans-72" x="308.300781"/>
      <use xlink:href="#DejaVuSans-61" x="349.414062"/>
      <use xlink:href="#DejaVuSans-74" x="410.693359"/>
      <use xlink:href="#DejaVuSans-6f" x="449.902344"/>
      <use xlink:href="#DejaVuSans-72" x="511.083984"/>
     </g>
    </g>
    <g id="patch_210">
     <path d="M 129.248437 124.190437 
L 165.248437 124.190437 
L 165.248437 111.590437 
L 129.248437 111.590437 
z
" style="fill: #2ca02c"/>
    </g>
    <g id="text_15">
     <!-- Valve -->
     <g transform="translate(179.648438 124.190437) scale(0.18 -0.18)">
      <defs>
       <path id="DejaVuSans-56" d="M 1831 0 
L 50 4666 
L 709 4666 
L 2188 738 
L 3669 4666 
L 4325 4666 
L 2547 0 
L 1831 0 
z
" transform="scale(0.015625)"/>
      </defs>
      <use xlink:href="#DejaVuSans-56"/>
      <use xlink:href="#DejaVuSans-61" x="60.658203"/>
      <use xlink:href="#DejaVuSans-6c" x="121.9375"/>
      <use xlink:href="#DejaVuSans-76" x="149.720703"/>
      <use xlink:href="#DejaVuSans-65" x="208.900391"/>
     </g>
    </g>
    <g id="patch_211">
     <path d="M 129.248437 150.611062 
L 165.248437 150.611062 
L 165.248437 138.011062 
L 129.248437 138.011062 
z
" style="fill: #d62728"/>
    </g>
    <g id="text_16">
     <!-- Compressor -->
     <g transform="translate(179.648438 150.611062) scale(0.18 -0.18)">
      <defs>
       <path id="DejaVuSans-43" d="M 4122 4306 
L 4122 3641 
Q 3803 3938 3442 4084 
Q 3081 4231 2675 4231 
Q 1875 4231 1450 3742 
Q 1025 3253 1025 2328 
Q 1025 1406 1450 917 
Q 1875 428 2675 428 
Q 3081 428 3442 575 
Q 3803 722 4122 1019 
L 4122 359 
Q 3791 134 3420 21 
Q 3050 -91 2638 -91 
Q 1578 -91 968 557 
Q 359 1206 359 2328 
Q 359 3453 968 4101 
Q 1578 4750 2638 4750 
Q 3056 4750 3426 4639 
Q 3797 4528 4122 4306 
z
" transform="scale(0.015625)"/>
       <path id="DejaVuSans-6d" d="M 3328 2828 
Q 3544 3216 3844 3400 
Q 4144 3584 4550 3584 
Q 5097 3584 5394 3201 
Q 5691 2819 5691 2113 
L 5691 0 
L 5113 0 
L 5113 2094 
Q 5113 2597 4934 2840 
Q 4756 3084 4391 3084 
Q 3944 3084 3684 2787 
Q 3425 2491 3425 1978 
L 3425 0 
L 2847 0 
L 2847 2094 
Q 2847 2600 2669 2842 
Q 2491 3084 2119 3084 
Q 1678 3084 1418 2786 
Q 1159 2488 1159 1978 
L 1159 0 
L 581 0 
L 581 3500 
L 1159 3500 
L 1159 2956 
Q 1356 3278 1631 3431 
Q 1906 3584 2284 3584 
Q 2666 3584 2933 3390 
Q 3200 3197 3328 2828 
z
" transform="scale(0.015625)"/>
      </defs>
      <use xlink:href="#DejaVuSans-43"/>
      <use xlink:href="#DejaVuSans-6f" x="69.824219"/>
      <use xlink:href="#DejaVuSans-6d" x="131.005859"/>
      <use xlink:href="#DejaVuSans-70" x="228.417969"/>
      <use xlink:href="#DejaVuSans-72" x="291.894531"/>
      <use xlink:href="#DejaVuSans-65" x="330.757812"/>
      <use xlink:href="#DejaVuSans-73" x="392.28125"/>
      <use xlink:href="#DejaVuSans-73" x="444.380859"/>
      <use xlink:href="#DejaVuSans-6f" x="496.480469"/>
      <use xlink:href="#DejaVuSans-72" x="557.662109"/>
     </g>
    </g>
    <g id="patch_212">
     <path d="M 129.248437 177.031687 
L 165.248437 177.031687 
L 165.248437 164.431687 
L 129.248437 164.431687 
z
" style="fill: #9467bd"/>
    </g>
    <g id="text_17">
     <!-- Internal Heat Exchanger -->
     <g transform="translate(179.648438 177.031687) scale(0.18 -0.18)">
      <defs>
       <path id="DejaVuSans-49" d="M 628 4666 
L 1259 4666 
L 1259 0 
L 628 0 
L 628 4666 
z
" transform="scale(0.015625)"/>
       <path id="DejaVuSans-48" d="M 628 4666 
L 1259 4666 
L 1259 2753 
L 3553 2753 
L 3553 4666 
L 4184 4666 
L 4184 0 
L 3553 0 
L 3553 2222 
L 1259 2222 
L 1259 0 
L 628 0 
L 628 4666 
z
" transform="scale(0.015625)"/>
      </defs>
      <use xlink:href="#DejaVuSans-49"/>
      <use xlink:href="#DejaVuSans-6e" x="29.492188"/>
      <use xlink:href="#DejaVuSans-74" x="92.871094"/>
      <use xlink:href="#DejaVuSans-65" x="132.080078"/>
      <use xlink:href="#DejaVuSans-72" x="193.603516"/>
      <use xlink:href="#DejaVuSans-6e" x="232.966797"/>
      <use xlink:href="#DejaVuSans-61" x="296.345703"/>
      <use xlink:href="#DejaVuSans-6c" x="357.625"/>
      <use xlink:href="#DejaVuSans-20" x="385.408203"/>
      <use xlink:href="#DejaVuSans-48" x="417.195312"/>
      <use xlink:href="#DejaVuSans-65" x="492.390625"/>
      <use xlink:href="#DejaVuSans-61" x="553.914062"/>
      <use xlink:href="#DejaVuSans-74" x="615.193359"/>
      <use xlink:href="#DejaVuSans-20" x="654.402344"/>
      <use xlink:href="#DejaVuSans-45" x="686.189453"/>
      <use xlink:href="#DejaVuSans-78" x="749.373047"/>
      <use xlink:href="#DejaVuSans-63" x="806.802734"/>
      <use xlink:href="#DejaVuSans-68" x="861.783203"/>
      <use xlink:href="#DejaVuSans-61" x="925.162109"/>
      <use xlink:href="#DejaVuSans-6e" x="986.441406"/>
      <use xlink:href="#DejaVuSans-67" x="1049.820312"/>
      <use xlink:href="#DejaVuSans-65" x="1113.296875"/>
      <use xlink:href="#DejaVuSans-72" x="1174.820312"/>
     </g>
    </g>
   </g>
  </g>
 </g>
 <defs>
  <clipPath id="p85bba38a50">
   <rect x="57.6" y="41.472" width="357.12" height="266.112"/>
  </clipPath>
 </defs>
</svg>
