<?xml version="1.0" encoding="utf-8" standalone="no"?>
<!DOCTYPE svg PUBLIC "-//W3C//DTD SVG 1.1//EN"
  "http://www.w3.org/Graphics/SVG/1.1/DTD/svg11.dtd">
<svg xmlns:xlink="http://www.w3.org/1999/xlink" width="460.8pt" height="345.6pt" viewBox="0 0 460.8 345.6" xmlns="http://www.w3.org/2000/svg" version="1.1">
 <metadata>
  <rdf:RDF xmlns:dc="http://purl.org/dc/elements/1.1/" xmlns:cc="http://creativecommons.org/ns#" xmlns:rdf="http://www.w3.org/1999/02/22-rdf-syntax-ns#">
   <cc:Work>
    <dc:type rdf:resource="http://purl.org/dc/dcmitype/StillImage"/>
    <dc:date>2023-02-21T21:31:49.550490</dc:date>
    <dc:format>image/svg+xml</dc:format>
    <dc:creator>
     <cc:Agent>
      <dc:title>Matplotlib v3.6.1, https://matplotlib.org/</dc:title>
     </cc:Agent>
    </dc:creator>
   </cc:Work>
  </rdf:RDF>
 </metadata>
 <defs>
  <style type="text/css">*{stroke-linejoin: round; stroke-linecap: butt}</style>
 </defs>
 <g id="figure_1">
  <g id="patch_1">
   <path d="M 0 345.6 
L 460.8 345.6 
L 460.8 0 
L 0 0 
z
" style="fill: #ffffff"/>
  </g>
  <g id="axes_1">
   <g id="patch_2">
    <path d="M 57.6 307.584 
L 414.72 307.584 
L 414.72 41.472 
L 57.6 41.472 
z
" style="fill: #ffffff"/>
   </g>
   <g id="patch_3">
    <path d="M 73.832727 307.584 
L 77.40036 307.584 
L 77.40036 296.273378 
L 73.832727 296.273378 
z
" clip-path="url(#p6911a85851)" style="fill: #1f77b4"/>
   </g>
   <g id="patch_4">
    <path d="M 82.065725 307.584 
L 85.633357 307.584 
L 85.633357 295.569797 
L 82.065725 295.569797 
z
" clip-path="url(#p6911a85851)" style="fill: #1f77b4"/>
   </g>
   <g id="patch_5">
    <path d="M 90.298723 307.584 
L 93.866355 307.584 
L 93.866355 294.826307 
L 90.298723 294.826307 
z
" clip-path="url(#p6911a85851)" style="fill: #1f77b4"/>
   </g>
   <g id="patch_6">
    <path d="M 98.531721 307.584 
L 102.099353 307.584 
L 102.099353 294.059044 
L 98.531721 294.059044 
z
" clip-path="url(#p6911a85851)" style="fill: #1f77b4"/>
   </g>
   <g id="patch_7">
    <path d="M 106.764718 307.584 
L 110.332351 307.584 
L 110.332351 293.277323 
L 106.764718 293.277323 
z
" clip-path="url(#p6911a85851)" style="fill: #1f77b4"/>
   </g>
   <g id="patch_8">
    <path d="M 114.997716 307.584 
L 118.565348 307.584 
L 118.565348 292.487022 
L 114.997716 292.487022 
z
" clip-path="url(#p6911a85851)" style="fill: #1f77b4"/>
   </g>
   <g id="patch_9">
    <path d="M 123.230714 307.584 
L 126.798346 307.584 
L 126.798346 291.69207 
L 123.230714 291.69207 
z
" clip-path="url(#p6911a85851)" style="fill: #1f77b4"/>
   </g>
   <g id="patch_10">
    <path d="M 131.463712 307.584 
L 135.031344 307.584 
L 135.031344 290.895203 
L 131.463712 290.895203 
z
" clip-path="url(#p6911a85851)" style="fill: #1f77b4"/>
   </g>
   <g id="patch_11">
    <path d="M 139.696709 307.584 
L 143.264342 307.584 
L 143.264342 290.098394 
L 139.696709 290.098394 
z
" clip-path="url(#p6911a85851)" style="fill: #1f77b4"/>
   </g>
   <g id="patch_12">
    <path d="M 147.929707 307.584 
L 151.49734 307.584 
L 151.49734 289.303097 
L 147.929707 289.303097 
z
" clip-path="url(#p6911a85851)" style="fill: #1f77b4"/>
   </g>
   <g id="patch_13">
    <path d="M 156.162705 307.584 
L 159.730337 307.584 
L 159.730337 288.510405 
L 156.162705 288.510405 
z
" clip-path="url(#p6911a85851)" style="fill: #1f77b4"/>
   </g>
   <g id="patch_14">
    <path d="M 164.395703 307.584 
L 167.963335 307.584 
L 167.963335 287.721152 
L 164.395703 287.721152 
z
" clip-path="url(#p6911a85851)" style="fill: #1f77b4"/>
   </g>
   <g id="patch_15">
    <path d="M 172.628701 307.584 
L 176.196333 307.584 
L 176.196333 286.935981 
L 172.628701 286.935981 
z
" clip-path="url(#p6911a85851)" style="fill: #1f77b4"/>
   </g>
   <g id="patch_16">
    <path d="M 180.861698 307.584 
L 184.429331 307.584 
L 184.429331 286.15539 
L 180.861698 286.15539 
z
" clip-path="url(#p6911a85851)" style="fill: #1f77b4"/>
   </g>
   <g id="patch_17">
    <path d="M 189.094696 307.584 
L 192.662328 307.584 
L 192.662328 285.379769 
L 189.094696 285.379769 
z
" clip-path="url(#p6911a85851)" style="fill: #1f77b4"/>
   </g>
   <g id="patch_18">
    <path d="M 197.327694 307.584 
L 200.895326 307.584 
L 200.895326 284.609421 
L 197.327694 284.609421 
z
" clip-path="url(#p6911a85851)" style="fill: #1f77b4"/>
   </g>
   <g id="patch_19">
    <path d="M 205.560692 307.584 
L 209.128324 307.584 
L 209.128324 283.844585 
L 205.560692 283.844585 
z
" clip-path="url(#p6911a85851)" style="fill: #1f77b4"/>
   </g>
   <g id="patch_20">
    <path d="M 213.793689 307.584 
L 217.361322 307.584 
L 217.361322 283.085442 
L 213.793689 283.085442 
z
" clip-path="url(#p6911a85851)" style="fill: #1f77b4"/>
   </g>
   <g id="patch_21">
    <path d="M 222.026687 307.584 
L 225.59432 307.584 
L 225.59432 282.332133 
L 222.026687 282.332133 
z
" clip-path="url(#p6911a85851)" style="fill: #1f77b4"/>
   </g>
   <g id="patch_22">
    <path d="M 230.259685 307.584 
L 233.827317 307.584 
L 233.827317 281.584765 
L 230.259685 281.584765 
z
" clip-path="url(#p6911a85851)" style="fill: #1f77b4"/>
   </g>
   <g id="patch_23">
    <path d="M 238.492683 307.584 
L 242.060315 307.584 
L 242.060315 280.843415 
L 238.492683 280.843415 
z
" clip-path="url(#p6911a85851)" style="fill: #1f77b4"/>
   </g>
   <g id="patch_24">
    <path d="M 246.72568 307.584 
L 250.293313 307.584 
L 250.293313 280.108137 
L 246.72568 280.108137 
z
" clip-path="url(#p6911a85851)" style="fill: #1f77b4"/>
   </g>
   <g id="patch_25">
    <path d="M 254.958678 307.584 
L 258.526311 307.584 
L 258.526311 279.378966 
L 254.958678 279.378966 
z
" clip-path="url(#p6911a85851)" style="fill: #1f77b4"/>
   </g>
   <g id="patch_26">
    <path d="M 263.191676 307.584 
L 266.759308 307.584 
L 266.759308 278.655922 
L 263.191676 278.655922 
z
" clip-path="url(#p6911a85851)" style="fill: #1f77b4"/>
   </g>
   <g id="patch_27">
    <path d="M 271.424674 307.584 
L 274.992306 307.584 
L 274.992306 277.93901 
L 271.424674 277.93901 
z
" clip-path="url(#p6911a85851)" style="fill: #1f77b4"/>
   </g>
   <g id="patch_28">
    <path d="M 279.657672 307.584 
L 283.225304 307.584 
L 283.225304 277.228224 
L 279.657672 277.228224 
z
" clip-path="url(#p6911a85851)" style="fill: #1f77b4"/>
   </g>
   <g id="patch_29">
    <path d="M 287.890669 307.584 
L 291.458302 307.584 
L 291.458302 276.523552 
L 287.890669 276.523552 
z
" clip-path="url(#p6911a85851)" style="fill: #1f77b4"/>
   </g>
   <g id="patch_30">
    <path d="M 296.123667 307.584 
L 299.691299 307.584 
L 299.691299 275.824971 
L 296.123667 275.824971 
z
" clip-path="url(#p6911a85851)" style="fill: #1f77b4"/>
   </g>
   <g id="patch_31">
    <path d="M 304.356665 307.584 
L 307.924297 307.584 
L 307.924297 275.132453 
L 304.356665 275.132453 
z
" clip-path="url(#p6911a85851)" style="fill: #1f77b4"/>
   </g>
   <g id="patch_32">
    <path d="M 312.589663 307.584 
L 316.157295 307.584 
L 316.157295 274.445962 
L 312.589663 274.445962 
z
" clip-path="url(#p6911a85851)" style="fill: #1f77b4"/>
   </g>
   <g id="patch_33">
    <path d="M 320.82266 307.584 
L 324.390293 307.584 
L 324.390293 273.765461 
L 320.82266 273.765461 
z
" clip-path="url(#p6911a85851)" style="fill: #1f77b4"/>
   </g>
   <g id="patch_34">
    <path d="M 329.055658 307.584 
L 332.623291 307.584 
L 332.623291 273.090906 
L 329.055658 273.090906 
z
" clip-path="url(#p6911a85851)" style="fill: #1f77b4"/>
   </g>
   <g id="patch_35">
    <path d="M 337.288656 307.584 
L 340.856288 307.584 
L 340.856288 272.422251 
L 337.288656 272.422251 
z
" clip-path="url(#p6911a85851)" style="fill: #1f77b4"/>
   </g>
   <g id="patch_36">
    <path d="M 345.521654 307.584 
L 349.089286 307.584 
L 349.089286 271.759448 
L 345.521654 271.759448 
z
" clip-path="url(#p6911a85851)" style="fill: #1f77b4"/>
   </g>
   <g id="patch_37">
    <path d="M 353.754652 307.584 
L 357.322284 307.584 
L 357.322284 271.102447 
L 353.754652 271.102447 
z
" clip-path="url(#p6911a85851)" style="fill: #1f77b4"/>
   </g>
   <g id="patch_38">
    <path d="M 361.987649 307.584 
L 365.555282 307.584 
L 365.555282 270.451194 
L 361.987649 270.451194 
z
" clip-path="url(#p6911a85851)" style="fill: #1f77b4"/>
   </g>
   <g id="patch_39">
    <path d="M 370.220647 307.584 
L 373.788279 307.584 
L 373.788279 269.805636 
L 370.220647 269.805636 
z
" clip-path="url(#p6911a85851)" style="fill: #1f77b4"/>
   </g>
   <g id="patch_40">
    <path d="M 378.453645 307.584 
L 382.021277 307.584 
L 382.021277 269.165717 
L 378.453645 269.165717 
z
" clip-path="url(#p6911a85851)" style="fill: #1f77b4"/>
   </g>
   <g id="patch_41">
    <path d="M 386.686643 307.584 
L 390.254275 307.584 
L 390.254275 268.531382 
L 386.686643 268.531382 
z
" clip-path="url(#p6911a85851)" style="fill: #1f77b4"/>
   </g>
   <g id="patch_42">
    <path d="M 394.91964 307.584 
L 398.487273 307.584 
L 398.487273 267.902572 
L 394.91964 267.902572 
z
" clip-path="url(#p6911a85851)" style="fill: #1f77b4"/>
   </g>
   <g id="patch_43">
    <path d="M 73.832727 296.273378 
L 77.40036 296.273378 
L 77.40036 275.041029 
L 73.832727 275.041029 
z
" clip-path="url(#p6911a85851)" style="fill: #ff7f0e"/>
   </g>
   <g id="patch_44">
    <path d="M 82.065725 295.569797 
L 85.633357 295.569797 
L 85.633357 274.293953 
L 82.065725 274.293953 
z
" clip-path="url(#p6911a85851)" style="fill: #ff7f0e"/>
   </g>
   <g id="patch_45">
    <path d="M 90.298723 294.826307 
L 93.866355 294.826307 
L 93.866355 273.518843 
L 90.298723 273.518843 
z
" clip-path="url(#p6911a85851)" style="fill: #ff7f0e"/>
   </g>
   <g id="patch_46">
    <path d="M 98.531721 294.059044 
L 102.099353 294.059044 
L 102.099353 272.728063 
L 98.531721 272.728063 
z
" clip-path="url(#p6911a85851)" style="fill: #ff7f0e"/>
   </g>
   <g id="patch_47">
    <path d="M 106.764718 293.277323 
L 110.332351 293.277323 
L 110.332351 271.928711 
L 106.764718 271.928711 
z
" clip-path="url(#p6911a85851)" style="fill: #ff7f0e"/>
   </g>
   <g id="patch_48">
    <path d="M 114.997716 292.487022 
L 118.565348 292.487022 
L 118.565348 271.125246 
L 114.997716 271.125246 
z
" clip-path="url(#p6911a85851)" style="fill: #ff7f0e"/>
   </g>
   <g id="patch_49">
    <path d="M 123.230714 291.69207 
L 126.798346 291.69207 
L 126.798346 270.320627 
L 123.230714 270.320627 
z
" clip-path="url(#p6911a85851)" style="fill: #ff7f0e"/>
   </g>
   <g id="patch_50">
    <path d="M 131.463712 290.895203 
L 135.031344 290.895203 
L 135.031344 269.516904 
L 131.463712 269.516904 
z
" clip-path="url(#p6911a85851)" style="fill: #ff7f0e"/>
   </g>
   <g id="patch_51">
    <path d="M 139.696709 290.098394 
L 143.264342 290.098394 
L 143.264342 268.715536 
L 139.696709 268.715536 
z
" clip-path="url(#p6911a85851)" style="fill: #ff7f0e"/>
   </g>
   <g id="patch_52">
    <path d="M 147.929707 289.303097 
L 151.49734 289.303097 
L 151.49734 267.91759 
L 147.929707 267.91759 
z
" clip-path="url(#p6911a85851)" style="fill: #ff7f0e"/>
   </g>
   <g id="patch_53">
    <path d="M 156.162705 288.510405 
L 159.730337 288.510405 
L 159.730337 267.123858 
L 156.162705 267.123858 
z
" clip-path="url(#p6911a85851)" style="fill: #ff7f0e"/>
   </g>
   <g id="patch_54">
    <path d="M 164.395703 287.721152 
L 167.963335 287.721152 
L 167.963335 266.334932 
L 164.395703 266.334932 
z
" clip-path="url(#p6911a85851)" style="fill: #ff7f0e"/>
   </g>
   <g id="patch_55">
    <path d="M 172.628701 286.935981 
L 176.196333 286.935981 
L 176.196333 265.551263 
L 172.628701 265.551263 
z
" clip-path="url(#p6911a85851)" style="fill: #ff7f0e"/>
   </g>
   <g id="patch_56">
    <path d="M 180.861698 286.15539 
L 184.429331 286.15539 
L 184.429331 264.77319 
L 180.861698 264.77319 
z
" clip-path="url(#p6911a85851)" style="fill: #ff7f0e"/>
   </g>
   <g id="patch_57">
    <path d="M 189.094696 285.379769 
L 192.662328 285.379769 
L 192.662328 264.000971 
L 189.094696 264.000971 
z
" clip-path="url(#p6911a85851)" style="fill: #ff7f0e"/>
   </g>
   <g id="patch_58">
    <path d="M 197.327694 284.609421 
L 200.895326 284.609421 
L 200.895326 263.2348 
L 197.327694 263.2348 
z
" clip-path="url(#p6911a85851)" style="fill: #ff7f0e"/>
   </g>
   <g id="patch_59">
    <path d="M 205.560692 283.844585 
L 209.128324 283.844585 
L 209.128324 262.474821 
L 205.560692 262.474821 
z
" clip-path="url(#p6911a85851)" style="fill: #ff7f0e"/>
   </g>
   <g id="patch_60">
    <path d="M 213.793689 283.085442 
L 217.361322 283.085442 
L 217.361322 261.721136 
L 213.793689 261.721136 
z
" clip-path="url(#p6911a85851)" style="fill: #ff7f0e"/>
   </g>
   <g id="patch_61">
    <path d="M 222.026687 282.332133 
L 225.59432 282.332133 
L 225.59432 260.973819 
L 222.026687 260.973819 
z
" clip-path="url(#p6911a85851)" style="fill: #ff7f0e"/>
   </g>
   <g id="patch_62">
    <path d="M 230.259685 281.584765 
L 233.827317 281.584765 
L 233.827317 260.232916 
L 230.259685 260.232916 
z
" clip-path="url(#p6911a85851)" style="fill: #ff7f0e"/>
   </g>
   <g id="patch_63">
    <path d="M 238.492683 280.843415 
L 242.060315 280.843415 
L 242.060315 259.498453 
L 238.492683 259.498453 
z
" clip-path="url(#p6911a85851)" style="fill: #ff7f0e"/>
   </g>
   <g id="patch_64">
    <path d="M 246.72568 280.108137 
L 250.293313 280.108137 
L 250.293313 258.77044 
L 246.72568 258.77044 
z
" clip-path="url(#p6911a85851)" style="fill: #ff7f0e"/>
   </g>
   <g id="patch_65">
    <path d="M 254.958678 279.378966 
L 258.526311 279.378966 
L 258.526311 258.048872 
L 254.958678 258.048872 
z
" clip-path="url(#p6911a85851)" style="fill: #ff7f0e"/>
   </g>
   <g id="patch_66">
    <path d="M 263.191676 278.655922 
L 266.759308 278.655922 
L 266.759308 257.333733 
L 263.191676 257.333733 
z
" clip-path="url(#p6911a85851)" style="fill: #ff7f0e"/>
   </g>
   <g id="patch_67">
    <path d="M 271.424674 277.93901 
L 274.992306 277.93901 
L 274.992306 256.624998 
L 271.424674 256.624998 
z
" clip-path="url(#p6911a85851)" style="fill: #ff7f0e"/>
   </g>
   <g id="patch_68">
    <path d="M 279.657672 277.228224 
L 283.225304 277.228224 
L 283.225304 255.922633 
L 279.657672 255.922633 
z
" clip-path="url(#p6911a85851)" style="fill: #ff7f0e"/>
   </g>
   <g id="patch_69">
    <path d="M 287.890669 276.523552 
L 291.458302 276.523552 
L 291.458302 255.226601 
L 287.890669 255.226601 
z
" clip-path="url(#p6911a85851)" style="fill: #ff7f0e"/>
   </g>
   <g id="patch_70">
    <path d="M 296.123667 275.824971 
L 299.691299 275.824971 
L 299.691299 254.536858 
L 296.123667 254.536858 
z
" clip-path="url(#p6911a85851)" style="fill: #ff7f0e"/>
   </g>
   <g id="patch_71">
    <path d="M 304.356665 275.132453 
L 307.924297 275.132453 
L 307.924297 253.853354 
L 304.356665 253.853354 
z
" clip-path="url(#p6911a85851)" style="fill: #ff7f0e"/>
   </g>
   <g id="patch_72">
    <path d="M 312.589663 274.445962 
L 316.157295 274.445962 
L 316.157295 253.176038 
L 312.589663 253.176038 
z
" clip-path="url(#p6911a85851)" style="fill: #ff7f0e"/>
   </g>
   <g id="patch_73">
    <path d="M 320.82266 273.765461 
L 324.390293 273.765461 
L 324.390293 252.504853 
L 320.82266 252.504853 
z
" clip-path="url(#p6911a85851)" style="fill: #ff7f0e"/>
   </g>
   <g id="patch_74">
    <path d="M 329.055658 273.090906 
L 332.623291 273.090906 
L 332.623291 251.839744 
L 329.055658 251.839744 
z
" clip-path="url(#p6911a85851)" style="fill: #ff7f0e"/>
   </g>
   <g id="patch_75">
    <path d="M 337.288656 272.422251 
L 340.856288 272.422251 
L 340.856288 251.18065 
L 337.288656 251.18065 
z
" clip-path="url(#p6911a85851)" style="fill: #ff7f0e"/>
   </g>
   <g id="patch_76">
    <path d="M 345.521654 271.759448 
L 349.089286 271.759448 
L 349.089286 250.527511 
L 345.521654 250.527511 
z
" clip-path="url(#p6911a85851)" style="fill: #ff7f0e"/>
   </g>
   <g id="patch_77">
    <path d="M 353.754652 271.102447 
L 357.322284 271.102447 
L 357.322284 249.880266 
L 353.754652 249.880266 
z
" clip-path="url(#p6911a85851)" style="fill: #ff7f0e"/>
   </g>
   <g id="patch_78">
    <path d="M 361.987649 270.451194 
L 365.555282 270.451194 
L 365.555282 249.23885 
L 361.987649 249.23885 
z
" clip-path="url(#p6911a85851)" style="fill: #ff7f0e"/>
   </g>
   <g id="patch_79">
    <path d="M 370.220647 269.805636 
L 373.788279 269.805636 
L 373.788279 248.603202 
L 370.220647 248.603202 
z
" clip-path="url(#p6911a85851)" style="fill: #ff7f0e"/>
   </g>
   <g id="patch_80">
    <path d="M 378.453645 269.165717 
L 382.021277 269.165717 
L 382.021277 247.973258 
L 378.453645 247.973258 
z
" clip-path="url(#p6911a85851)" style="fill: #ff7f0e"/>
   </g>
   <g id="patch_81">
    <path d="M 386.686643 268.531382 
L 390.254275 268.531382 
L 390.254275 247.348953 
L 386.686643 247.348953 
z
" clip-path="url(#p6911a85851)" style="fill: #ff7f0e"/>
   </g>
   <g id="patch_82">
    <path d="M 394.91964 267.902572 
L 398.487273 267.902572 
L 398.487273 246.730223 
L 394.91964 246.730223 
z
" clip-path="url(#p6911a85851)" style="fill: #ff7f0e"/>
   </g>
   <g id="patch_83">
    <path d="M 73.832727 275.041029 
L 77.40036 275.041029 
L 77.40036 206.597314 
L 73.832727 206.597314 
z
" clip-path="url(#p6911a85851)" style="fill: #2ca02c"/>
   </g>
   <g id="patch_84">
    <path d="M 82.065725 274.293953 
L 85.633357 274.293953 
L 85.633357 207.206703 
L 82.065725 207.206703 
z
" clip-path="url(#p6911a85851)" style="fill: #2ca02c"/>
   </g>
   <g id="patch_85">
    <path d="M 90.298723 273.518843 
L 93.866355 273.518843 
L 93.866355 207.518854 
L 90.298723 207.518854 
z
" clip-path="url(#p6911a85851)" style="fill: #2ca02c"/>
   </g>
   <g id="patch_86">
    <path d="M 98.531721 272.728063 
L 102.099353 272.728063 
L 102.099353 207.630391 
L 98.531721 207.630391 
z
" clip-path="url(#p6911a85851)" style="fill: #2ca02c"/>
   </g>
   <g id="patch_87">
    <path d="M 106.764718 271.928711 
L 110.332351 271.928711 
L 110.332351 207.597876 
L 106.764718 207.597876 
z
" clip-path="url(#p6911a85851)" style="fill: #2ca02c"/>
   </g>
   <g id="patch_88">
    <path d="M 114.997716 271.125246 
L 118.565348 271.125246 
L 118.565348 207.457411 
L 114.997716 207.457411 
z
" clip-path="url(#p6911a85851)" style="fill: #2ca02c"/>
   </g>
   <g id="patch_89">
    <path d="M 123.230714 270.320627 
L 126.798346 270.320627 
L 126.798346 207.233499 
L 123.230714 207.233499 
z
" clip-path="url(#p6911a85851)" style="fill: #2ca02c"/>
   </g>
   <g id="patch_90">
    <path d="M 131.463712 269.516904 
L 135.031344 269.516904 
L 135.031344 206.943552 
L 131.463712 206.943552 
z
" clip-path="url(#p6911a85851)" style="fill: #2ca02c"/>
   </g>
   <g id="patch_91">
    <path d="M 139.696709 268.715536 
L 143.264342 268.715536 
L 143.264342 206.600395 
L 139.696709 206.600395 
z
" clip-path="url(#p6911a85851)" style="fill: #2ca02c"/>
   </g>
   <g id="patch_92">
    <path d="M 147.929707 267.91759 
L 151.49734 267.91759 
L 151.49734 206.213748 
L 147.929707 206.213748 
z
" clip-path="url(#p6911a85851)" style="fill: #2ca02c"/>
   </g>
   <g id="patch_93">
    <path d="M 156.162705 267.123858 
L 159.730337 267.123858 
L 159.730337 205.791152 
L 156.162705 205.791152 
z
" clip-path="url(#p6911a85851)" style="fill: #2ca02c"/>
   </g>
   <g id="patch_94">
    <path d="M 164.395703 266.334932 
L 167.963335 266.334932 
L 167.963335 205.338569 
L 164.395703 205.338569 
z
" clip-path="url(#p6911a85851)" style="fill: #2ca02c"/>
   </g>
   <g id="patch_95">
    <path d="M 172.628701 265.551263 
L 176.196333 265.551263 
L 176.196333 204.860794 
L 172.628701 204.860794 
z
" clip-path="url(#p6911a85851)" style="fill: #2ca02c"/>
   </g>
   <g id="patch_96">
    <path d="M 180.861698 264.77319 
L 184.429331 264.77319 
L 184.429331 204.361738 
L 180.861698 204.361738 
z
" clip-path="url(#p6911a85851)" style="fill: #2ca02c"/>
   </g>
   <g id="patch_97">
    <path d="M 189.094696 264.000971 
L 192.662328 264.000971 
L 192.662328 203.844627 
L 189.094696 203.844627 
z
" clip-path="url(#p6911a85851)" style="fill: #2ca02c"/>
   </g>
   <g id="patch_98">
    <path d="M 197.327694 263.2348 
L 200.895326 263.2348 
L 200.895326 203.312152 
L 197.327694 203.312152 
z
" clip-path="url(#p6911a85851)" style="fill: #2ca02c"/>
   </g>
   <g id="patch_99">
    <path d="M 205.560692 262.474821 
L 209.128324 262.474821 
L 209.128324 202.766577 
L 205.560692 202.766577 
z
" clip-path="url(#p6911a85851)" style="fill: #2ca02c"/>
   </g>
   <g id="patch_100">
    <path d="M 213.793689 261.721136 
L 217.361322 261.721136 
L 217.361322 202.209825 
L 213.793689 202.209825 
z
" clip-path="url(#p6911a85851)" style="fill: #2ca02c"/>
   </g>
   <g id="patch_101">
    <path d="M 222.026687 260.973819 
L 225.59432 260.973819 
L 225.59432 201.643536 
L 222.026687 201.643536 
z
" clip-path="url(#p6911a85851)" style="fill: #2ca02c"/>
   </g>
   <g id="patch_102">
    <path d="M 230.259685 260.232916 
L 233.827317 260.232916 
L 233.827317 201.069125 
L 230.259685 201.069125 
z
" clip-path="url(#p6911a85851)" style="fill: #2ca02c"/>
   </g>
   <g id="patch_103">
    <path d="M 238.492683 259.498453 
L 242.060315 259.498453 
L 242.060315 200.487812 
L 238.492683 200.487812 
z
" clip-path="url(#p6911a85851)" style="fill: #2ca02c"/>
   </g>
   <g id="patch_104">
    <path d="M 246.72568 258.77044 
L 250.293313 258.77044 
L 250.293313 199.900662 
L 246.72568 199.900662 
z
" clip-path="url(#p6911a85851)" style="fill: #2ca02c"/>
   </g>
   <g id="patch_105">
    <path d="M 254.958678 258.048872 
L 258.526311 258.048872 
L 258.526311 199.3086 
L 254.958678 199.3086 
z
" clip-path="url(#p6911a85851)" style="fill: #2ca02c"/>
   </g>
   <g id="patch_106">
    <path d="M 263.191676 257.333733 
L 266.759308 257.333733 
L 266.759308 198.712442 
L 263.191676 198.712442 
z
" clip-path="url(#p6911a85851)" style="fill: #2ca02c"/>
   </g>
   <g id="patch_107">
    <path d="M 271.424674 256.624998 
L 274.992306 256.624998 
L 274.992306 198.112904 
L 271.424674 198.112904 
z
" clip-path="url(#p6911a85851)" style="fill: #2ca02c"/>
   </g>
   <g id="patch_108">
    <path d="M 279.657672 255.922633 
L 283.225304 255.922633 
L 283.225304 197.510617 
L 279.657672 197.510617 
z
" clip-path="url(#p6911a85851)" style="fill: #2ca02c"/>
   </g>
   <g id="patch_109">
    <path d="M 287.890669 255.226601 
L 291.458302 255.226601 
L 291.458302 196.906146 
L 287.890669 196.906146 
z
" clip-path="url(#p6911a85851)" style="fill: #2ca02c"/>
   </g>
   <g id="patch_110">
    <path d="M 296.123667 254.536858 
L 299.691299 254.536858 
L 299.691299 196.299988 
L 296.123667 196.299988 
z
" clip-path="url(#p6911a85851)" style="fill: #2ca02c"/>
   </g>
   <g id="patch_111">
    <path d="M 304.356665 253.853354 
L 307.924297 253.853354 
L 307.924297 195.692587 
L 304.356665 195.692587 
z
" clip-path="url(#p6911a85851)" style="fill: #2ca02c"/>
   </g>
   <g id="patch_112">
    <path d="M 312.589663 253.176038 
L 316.157295 253.176038 
L 316.157295 195.084338 
L 312.589663 195.084338 
z
" clip-path="url(#p6911a85851)" style="fill: #2ca02c"/>
   </g>
   <g id="patch_113">
    <path d="M 320.82266 252.504853 
L 324.390293 252.504853 
L 324.390293 194.475596 
L 320.82266 194.475596 
z
" clip-path="url(#p6911a85851)" style="fill: #2ca02c"/>
   </g>
   <g id="patch_114">
    <path d="M 329.055658 251.839744 
L 332.623291 251.839744 
L 332.623291 193.866679 
L 329.055658 193.866679 
z
" clip-path="url(#p6911a85851)" style="fill: #2ca02c"/>
   </g>
   <g id="patch_115">
    <path d="M 337.288656 251.18065 
L 340.856288 251.18065 
L 340.856288 193.25787 
L 337.288656 193.25787 
z
" clip-path="url(#p6911a85851)" style="fill: #2ca02c"/>
   </g>
   <g id="patch_116">
    <path d="M 345.521654 250.527511 
L 349.089286 250.527511 
L 349.089286 192.649427 
L 345.521654 192.649427 
z
" clip-path="url(#p6911a85851)" style="fill: #2ca02c"/>
   </g>
   <g id="patch_117">
    <path d="M 353.754652 249.880266 
L 357.322284 249.880266 
L 357.322284 192.041579 
L 353.754652 192.041579 
z
" clip-path="url(#p6911a85851)" style="fill: #2ca02c"/>
   </g>
   <g id="patch_118">
    <path d="M 361.987649 249.23885 
L 365.555282 249.23885 
L 365.555282 191.434534 
L 361.987649 191.434534 
z
" clip-path="url(#p6911a85851)" style="fill: #2ca02c"/>
   </g>
   <g id="patch_119">
    <path d="M 370.220647 248.603202 
L 373.788279 248.603202 
L 373.788279 190.828478 
L 370.220647 190.828478 
z
" clip-path="url(#p6911a85851)" style="fill: #2ca02c"/>
   </g>
   <g id="patch_120">
    <path d="M 378.453645 247.973258 
L 382.021277 247.973258 
L 382.021277 190.22358 
L 378.453645 190.22358 
z
" clip-path="url(#p6911a85851)" style="fill: #2ca02c"/>
   </g>
   <g id="patch_121">
    <path d="M 386.686643 247.348953 
L 390.254275 247.348953 
L 390.254275 189.619991 
L 386.686643 189.619991 
z
" clip-path="url(#p6911a85851)" style="fill: #2ca02c"/>
   </g>
   <g id="patch_122">
    <path d="M 394.91964 246.730223 
L 398.487273 246.730223 
L 398.487273 189.017849 
L 394.91964 189.017849 
z
" clip-path="url(#p6911a85851)" style="fill: #2ca02c"/>
   </g>
   <g id="patch_123">
    <path d="M 73.832727 206.597314 
L 77.40036 206.597314 
L 77.40036 108.629365 
L 73.832727 108.629365 
z
" clip-path="url(#p6911a85851)" style="fill: #d62728"/>
   </g>
   <g id="patch_124">
    <path d="M 82.065725 207.206703 
L 85.633357 207.206703 
L 85.633357 109.672572 
L 82.065725 109.672572 
z
" clip-path="url(#p6911a85851)" style="fill: #d62728"/>
   </g>
   <g id="patch_125">
    <path d="M 90.298723 207.518854 
L 93.866355 207.518854 
L 93.866355 110.317077 
L 90.298723 110.317077 
z
" clip-path="url(#p6911a85851)" style="fill: #d62728"/>
   </g>
   <g id="patch_126">
    <path d="M 98.531721 207.630391 
L 102.099353 207.630391 
L 102.099353 110.69165 
L 98.531721 110.69165 
z
" clip-path="url(#p6911a85851)" style="fill: #d62728"/>
   </g>
   <g id="patch_127">
    <path d="M 106.764718 207.597876 
L 110.332351 207.597876 
L 110.332351 110.871737 
L 106.764718 110.871737 
z
" clip-path="url(#p6911a85851)" style="fill: #d62728"/>
   </g>
   <g id="patch_128">
    <path d="M 114.997716 207.457411 
L 118.565348 207.457411 
L 118.565348 110.90555 
L 114.997716 110.90555 
z
" clip-path="url(#p6911a85851)" style="fill: #d62728"/>
   </g>
   <g id="patch_129">
    <path d="M 123.230714 207.233499 
L 126.798346 207.233499 
L 126.798346 110.825846 
L 123.230714 110.825846 
z
" clip-path="url(#p6911a85851)" style="fill: #d62728"/>
   </g>
   <g id="patch_130">
    <path d="M 131.463712 206.943552 
L 135.031344 206.943552 
L 135.031344 110.655926 
L 131.463712 110.655926 
z
" clip-path="url(#p6911a85851)" style="fill: #d62728"/>
   </g>
   <g id="patch_131">
    <path d="M 139.696709 206.600395 
L 143.264342 206.600395 
L 143.264342 110.412971 
L 139.696709 110.412971 
z
" clip-path="url(#p6911a85851)" style="fill: #d62728"/>
   </g>
   <g id="patch_132">
    <path d="M 147.929707 206.213748 
L 151.49734 206.213748 
L 151.49734 110.110013 
L 147.929707 110.110013 
z
" clip-path="url(#p6911a85851)" style="fill: #d62728"/>
   </g>
   <g id="patch_133">
    <path d="M 156.162705 205.791152 
L 159.730337 205.791152 
L 159.730337 109.757174 
L 156.162705 109.757174 
z
" clip-path="url(#p6911a85851)" style="fill: #d62728"/>
   </g>
   <g id="patch_134">
    <path d="M 164.395703 205.338569 
L 167.963335 205.338569 
L 167.963335 109.362468 
L 164.395703 109.362468 
z
" clip-path="url(#p6911a85851)" style="fill: #d62728"/>
   </g>
   <g id="patch_135">
    <path d="M 172.628701 204.860794 
L 176.196333 204.860794 
L 176.196333 108.932347 
L 172.628701 108.932347 
z
" clip-path="url(#p6911a85851)" style="fill: #d62728"/>
   </g>
   <g id="patch_136">
    <path d="M 180.861698 204.361738 
L 184.429331 204.361738 
L 184.429331 108.472077 
L 180.861698 108.472077 
z
" clip-path="url(#p6911a85851)" style="fill: #d62728"/>
   </g>
   <g id="patch_137">
    <path d="M 189.094696 203.844627 
L 192.662328 203.844627 
L 192.662328 107.98601 
L 189.094696 107.98601 
z
" clip-path="url(#p6911a85851)" style="fill: #d62728"/>
   </g>
   <g id="patch_138">
    <path d="M 197.327694 203.312152 
L 200.895326 203.312152 
L 200.895326 107.477779 
L 197.327694 107.477779 
z
" clip-path="url(#p6911a85851)" style="fill: #d62728"/>
   </g>
   <g id="patch_139">
    <path d="M 205.560692 202.766577 
L 209.128324 202.766577 
L 209.128324 106.950447 
L 205.560692 106.950447 
z
" clip-path="url(#p6911a85851)" style="fill: #d62728"/>
   </g>
   <g id="patch_140">
    <path d="M 213.793689 202.209825 
L 217.361322 202.209825 
L 217.361322 106.406616 
L 213.793689 106.406616 
z
" clip-path="url(#p6911a85851)" style="fill: #d62728"/>
   </g>
   <g id="patch_141">
    <path d="M 222.026687 201.643536 
L 225.59432 201.643536 
L 225.59432 105.848514 
L 222.026687 105.848514 
z
" clip-path="url(#p6911a85851)" style="fill: #d62728"/>
   </g>
   <g id="patch_142">
    <path d="M 230.259685 201.069125 
L 233.827317 201.069125 
L 233.827317 105.278059 
L 230.259685 105.278059 
z
" clip-path="url(#p6911a85851)" style="fill: #d62728"/>
   </g>
   <g id="patch_143">
    <path d="M 238.492683 200.487812 
L 242.060315 200.487812 
L 242.060315 104.696915 
L 238.492683 104.696915 
z
" clip-path="url(#p6911a85851)" style="fill: #d62728"/>
   </g>
   <g id="patch_144">
    <path d="M 246.72568 199.900662 
L 250.293313 199.900662 
L 250.293313 104.10653 
L 246.72568 104.10653 
z
" clip-path="url(#p6911a85851)" style="fill: #d62728"/>
   </g>
   <g id="patch_145">
    <path d="M 254.958678 199.3086 
L 258.526311 199.3086 
L 258.526311 103.508172 
L 254.958678 103.508172 
z
" clip-path="url(#p6911a85851)" style="fill: #d62728"/>
   </g>
   <g id="patch_146">
    <path d="M 263.191676 198.712442 
L 266.759308 198.712442 
L 266.759308 102.902953 
L 263.191676 102.902953 
z
" clip-path="url(#p6911a85851)" style="fill: #d62728"/>
   </g>
   <g id="patch_147">
    <path d="M 271.424674 198.112904 
L 274.992306 198.112904 
L 274.992306 102.291858 
L 271.424674 102.291858 
z
" clip-path="url(#p6911a85851)" style="fill: #d62728"/>
   </g>
   <g id="patch_148">
    <path d="M 279.657672 197.510617 
L 283.225304 197.510617 
L 283.225304 101.675756 
L 279.657672 101.675756 
z
" clip-path="url(#p6911a85851)" style="fill: #d62728"/>
   </g>
   <g id="patch_149">
    <path d="M 287.890669 196.906146 
L 291.458302 196.906146 
L 291.458302 101.05542 
L 287.890669 101.05542 
z
" clip-path="url(#p6911a85851)" style="fill: #d62728"/>
   </g>
   <g id="patch_150">
    <path d="M 296.123667 196.299988 
L 299.691299 196.299988 
L 299.691299 100.431539 
L 296.123667 100.431539 
z
" clip-path="url(#p6911a85851)" style="fill: #d62728"/>
   </g>
   <g id="patch_151">
    <path d="M 304.356665 195.692587 
L 307.924297 195.692587 
L 307.924297 99.804727 
L 304.356665 99.804727 
z
" clip-path="url(#p6911a85851)" style="fill: #d62728"/>
   </g>
   <g id="patch_152">
    <path d="M 312.589663 195.084338 
L 316.157295 195.084338 
L 316.157295 99.175535 
L 312.589663 99.175535 
z
" clip-path="url(#p6911a85851)" style="fill: #d62728"/>
   </g>
   <g id="patch_153">
    <path d="M 320.82266 194.475596 
L 324.390293 194.475596 
L 324.390293 98.544456 
L 320.82266 98.544456 
z
" clip-path="url(#p6911a85851)" style="fill: #d62728"/>
   </g>
   <g id="patch_154">
    <path d="M 329.055658 193.866679 
L 332.623291 193.866679 
L 332.623291 97.911934 
L 329.055658 97.911934 
z
" clip-path="url(#p6911a85851)" style="fill: #d62728"/>
   </g>
   <g id="patch_155">
    <path d="M 337.288656 193.25787 
L 340.856288 193.25787 
L 340.856288 97.278368 
L 337.288656 97.278368 
z
" clip-path="url(#p6911a85851)" style="fill: #d62728"/>
   </g>
   <g id="patch_156">
    <path d="M 345.521654 192.649427 
L 349.089286 192.649427 
L 349.089286 96.644119 
L 345.521654 96.644119 
z
" clip-path="url(#p6911a85851)" style="fill: #d62728"/>
   </g>
   <g id="patch_157">
    <path d="M 353.754652 192.041579 
L 357.322284 192.041579 
L 357.322284 96.009511 
L 353.754652 96.009511 
z
" clip-path="url(#p6911a85851)" style="fill: #d62728"/>
   </g>
   <g id="patch_158">
    <path d="M 361.987649 191.434534 
L 365.555282 191.434534 
L 365.555282 95.37484 
L 361.987649 95.37484 
z
" clip-path="url(#p6911a85851)" style="fill: #d62728"/>
   </g>
   <g id="patch_159">
    <path d="M 370.220647 190.828478 
L 373.788279 190.828478 
L 373.788279 94.74037 
L 370.220647 94.74037 
z
" clip-path="url(#p6911a85851)" style="fill: #d62728"/>
   </g>
   <g id="patch_160">
    <path d="M 378.453645 190.22358 
L 382.021277 190.22358 
L 382.021277 94.106344 
L 378.453645 94.106344 
z
" clip-path="url(#p6911a85851)" style="fill: #d62728"/>
   </g>
   <g id="patch_161">
    <path d="M 386.686643 189.619991 
L 390.254275 189.619991 
L 390.254275 93.47298 
L 386.686643 93.47298 
z
" clip-path="url(#p6911a85851)" style="fill: #d62728"/>
   </g>
   <g id="patch_162">
    <path d="M 394.91964 189.017849 
L 398.487273 189.017849 
L 398.487273 92.840475 
L 394.91964 92.840475 
z
" clip-path="url(#p6911a85851)" style="fill: #d62728"/>
   </g>
   <g id="patch_163">
    <path d="M 73.832727 108.629365 
L 77.40036 108.629365 
L 77.40036 57.019704 
L 73.832727 57.019704 
z
" clip-path="url(#p6911a85851)" style="fill: #9467bd"/>
   </g>
   <g id="patch_164">
    <path d="M 82.065725 109.672572 
L 85.633357 109.672572 
L 85.633357 59.10372 
L 82.065725 59.10372 
z
" clip-path="url(#p6911a85851)" style="fill: #9467bd"/>
   </g>
   <g id="patch_165">
    <path d="M 90.298723 110.317077 
L 93.866355 110.317077 
L 93.866355 60.61872 
L 90.298723 60.61872 
z
" clip-path="url(#p6911a85851)" style="fill: #9467bd"/>
   </g>
   <g id="patch_166">
    <path d="M 98.531721 110.69165 
L 102.099353 110.69165 
L 102.099353 61.745492 
L 98.531721 61.745492 
z
" clip-path="url(#p6911a85851)" style="fill: #9467bd"/>
   </g>
   <g id="patch_167">
    <path d="M 106.764718 110.871737 
L 110.332351 110.871737 
L 110.332351 62.590224 
L 106.764718 62.590224 
z
" clip-path="url(#p6911a85851)" style="fill: #9467bd"/>
   </g>
   <g id="patch_168">
    <path d="M 114.997716 110.90555 
L 118.565348 110.90555 
L 118.565348 63.220967 
L 114.997716 63.220967 
z
" clip-path="url(#p6911a85851)" style="fill: #9467bd"/>
   </g>
   <g id="patch_169">
    <path d="M 123.230714 110.825846 
L 126.798346 110.825846 
L 126.798346 63.684078 
L 123.230714 63.684078 
z
" clip-path="url(#p6911a85851)" style="fill: #9467bd"/>
   </g>
   <g id="patch_170">
    <path d="M 131.463712 110.655926 
L 135.031344 110.655926 
L 135.031344 64.01262 
L 131.463712 64.01262 
z
" clip-path="url(#p6911a85851)" style="fill: #9467bd"/>
   </g>
   <g id="patch_171">
    <path d="M 139.696709 110.412971 
L 143.264342 110.412971 
L 143.264342 64.231036 
L 139.696709 64.231036 
z
" clip-path="url(#p6911a85851)" style="fill: #9467bd"/>
   </g>
   <g id="patch_172">
    <path d="M 147.929707 110.110013 
L 151.49734 110.110013 
L 151.49734 64.357917 
L 147.929707 64.357917 
z
" clip-path="url(#p6911a85851)" style="fill: #9467bd"/>
   </g>
   <g id="patch_173">
    <path d="M 156.162705 109.757174 
L 159.730337 109.757174 
L 159.730337 64.407743 
L 156.162705 64.407743 
z
" clip-path="url(#p6911a85851)" style="fill: #9467bd"/>
   </g>
   <g id="patch_174">
    <path d="M 164.395703 109.362468 
L 167.963335 109.362468 
L 167.963335 64.392013 
L 164.395703 64.392013 
z
" clip-path="url(#p6911a85851)" style="fill: #9467bd"/>
   </g>
   <g id="patch_175">
    <path d="M 172.628701 108.932347 
L 176.196333 108.932347 
L 176.196333 64.32001 
L 172.628701 64.32001 
z
" clip-path="url(#p6911a85851)" style="fill: #9467bd"/>
   </g>
   <g id="patch_176">
    <path d="M 180.861698 108.472077 
L 184.429331 108.472077 
L 184.429331 64.199336 
L 180.861698 64.199336 
z
" clip-path="url(#p6911a85851)" style="fill: #9467bd"/>
   </g>
   <g id="patch_177">
    <path d="M 189.094696 107.98601 
L 192.662328 107.98601 
L 192.662328 64.036295 
L 189.094696 64.036295 
z
" clip-path="url(#p6911a85851)" style="fill: #9467bd"/>
   </g>
   <g id="patch_178">
    <path d="M 197.327694 107.477779 
L 200.895326 107.477779 
L 200.895326 63.836166 
L 197.327694 63.836166 
z
" clip-path="url(#p6911a85851)" style="fill: #9467bd"/>
   </g>
   <g id="patch_179">
    <path d="M 205.560692 106.950447 
L 209.128324 106.950447 
L 209.128324 63.603417 
L 205.560692 63.603417 
z
" clip-path="url(#p6911a85851)" style="fill: #9467bd"/>
   </g>
   <g id="patch_180">
    <path d="M 213.793689 106.406616 
L 217.361322 106.406616 
L 217.361322 63.341859 
L 213.793689 63.341859 
z
" clip-path="url(#p6911a85851)" style="fill: #9467bd"/>
   </g>
   <g id="patch_181">
    <path d="M 222.026687 105.848514 
L 225.59432 105.848514 
L 225.59432 63.054766 
L 222.026687 63.054766 
z
" clip-path="url(#p6911a85851)" style="fill: #9467bd"/>
   </g>
   <g id="patch_182">
    <path d="M 230.259685 105.278059 
L 233.827317 105.278059 
L 233.827317 62.744971 
L 230.259685 62.744971 
z
" clip-path="url(#p6911a85851)" style="fill: #9467bd"/>
   </g>
   <g id="patch_183">
    <path d="M 238.492683 104.696915 
L 242.060315 104.696915 
L 242.060315 62.414941 
L 238.492683 62.414941 
z
" clip-path="url(#p6911a85851)" style="fill: #9467bd"/>
   </g>
   <g id="patch_184">
    <path d="M 246.72568 104.10653 
L 250.293313 104.10653 
L 250.293313 62.066832 
L 246.72568 62.066832 
z
" clip-path="url(#p6911a85851)" style="fill: #9467bd"/>
   </g>
   <g id="patch_185">
    <path d="M 254.958678 103.508172 
L 258.526311 103.508172 
L 258.526311 61.702543 
L 254.958678 61.702543 
z
" clip-path="url(#p6911a85851)" style="fill: #9467bd"/>
   </g>
   <g id="patch_186">
    <path d="M 263.191676 102.902953 
L 266.759308 102.902953 
L 266.759308 61.323751 
L 263.191676 61.323751 
z
" clip-path="url(#p6911a85851)" style="fill: #9467bd"/>
   </g>
   <g id="patch_187">
    <path d="M 271.424674 102.291858 
L 274.992306 102.291858 
L 274.992306 60.931942 
L 271.424674 60.931942 
z
" clip-path="url(#p6911a85851)" style="fill: #9467bd"/>
   </g>
   <g id="patch_188">
    <path d="M 279.657672 101.675756 
L 283.225304 101.675756 
L 283.225304 60.52844 
L 279.657672 60.52844 
z
" clip-path="url(#p6911a85851)" style="fill: #9467bd"/>
   </g>
   <g id="patch_189">
    <path d="M 287.890669 101.05542 
L 291.458302 101.05542 
L 291.458302 60.11443 
L 287.890669 60.11443 
z
" clip-path="url(#p6911a85851)" style="fill: #9467bd"/>
   </g>
   <g id="patch_190">
    <path d="M 296.123667 100.431539 
L 299.691299 100.431539 
L 299.691299 59.690972 
L 296.123667 59.690972 
z
" clip-path="url(#p6911a85851)" style="fill: #9467bd"/>
   </g>
   <g id="patch_191">
    <path d="M 304.356665 99.804727 
L 307.924297 99.804727 
L 307.924297 59.259019 
L 304.356665 59.259019 
z
" clip-path="url(#p6911a85851)" style="fill: #9467bd"/>
   </g>
   <g id="patch_192">
    <path d="M 312.589663 99.175535 
L 316.157295 99.175535 
L 316.157295 58.819432 
L 312.589663 58.819432 
z
" clip-path="url(#p6911a85851)" style="fill: #9467bd"/>
   </g>
   <g id="patch_193">
    <path d="M 320.82266 98.544456 
L 324.390293 98.544456 
L 324.390293 58.372987 
L 320.82266 58.372987 
z
" clip-path="url(#p6911a85851)" style="fill: #9467bd"/>
   </g>
   <g id="patch_194">
    <path d="M 329.055658 97.911934 
L 332.623291 97.911934 
L 332.623291 57.920388 
L 329.055658 57.920388 
z
" clip-path="url(#p6911a85851)" style="fill: #9467bd"/>
   </g>
   <g id="patch_195">
    <path d="M 337.288656 97.278368 
L 340.856288 97.278368 
L 340.856288 57.462274 
L 337.288656 57.462274 
z
" clip-path="url(#p6911a85851)" style="fill: #9467bd"/>
   </g>
   <g id="patch_196">
    <path d="M 345.521654 96.644119 
L 349.089286 96.644119 
L 349.089286 56.999225 
L 345.521654 56.999225 
z
" clip-path="url(#p6911a85851)" style="fill: #9467bd"/>
   </g>
   <g id="patch_197">
    <path d="M 353.754652 96.009511 
L 357.322284 96.009511 
L 357.322284 56.531773 
L 353.754652 56.531773 
z
" clip-path="url(#p6911a85851)" style="fill: #9467bd"/>
   </g>
   <g id="patch_198">
    <path d="M 361.987649 95.37484 
L 365.555282 95.37484 
L 365.555282 56.060399 
L 361.987649 56.060399 
z
" clip-path="url(#p6911a85851)" style="fill: #9467bd"/>
   </g>
   <g id="patch_199">
    <path d="M 370.220647 94.74037 
L 373.788279 94.74037 
L 373.788279 55.585547 
L 370.220647 55.585547 
z
" clip-path="url(#p6911a85851)" style="fill: #9467bd"/>
   </g>
   <g id="patch_200">
    <path d="M 378.453645 94.106344 
L 382.021277 94.106344 
L 382.021277 55.10762 
L 378.453645 55.10762 
z
" clip-path="url(#p6911a85851)" style="fill: #9467bd"/>
   </g>
   <g id="patch_201">
    <path d="M 386.686643 93.47298 
L 390.254275 93.47298 
L 390.254275 54.626991 
L 386.686643 54.626991 
z
" clip-path="url(#p6911a85851)" style="fill: #9467bd"/>
   </g>
   <g id="patch_202">
    <path d="M 394.91964 92.840475 
L 398.487273 92.840475 
L 398.487273 54.144 
L 394.91964 54.144 
z
" clip-path="url(#p6911a85851)" style="fill: #9467bd"/>
   </g>
   <g id="matplotlib.axis_1">
    <g id="xtick_1">
     <g id="line2d_1">
      <defs>
       <path id="mf22e80eac1" d="M 0 0 
L 0 3.5 
" style="stroke: #000000; stroke-width: 0.8"/>
      </defs>
      <g>
       <use xlink:href="#mf22e80eac1" x="75.616543" y="307.584" style="stroke: #000000; stroke-width: 0.8"/>
      </g>
     </g>
     <g id="text_1">
      <!-- 36 -->
      <g transform="translate(64.164043 328.261187) scale(0.18 -0.18)">
       <defs>
        <path id="DejaVuSans-33" d="M 2597 2516 
Q 3050 2419 3304 2112 
Q 3559 1806 3559 1356 
Q 3559 666 3084 287 
Q 2609 -91 1734 -91 
Q 1441 -91 1130 -33 
Q 819 25 488 141 
L 488 750 
Q 750 597 1062 519 
Q 1375 441 1716 441 
Q 2309 441 2620 675 
Q 2931 909 2931 1356 
Q 2931 1769 2642 2001 
Q 2353 2234 1838 2234 
L 1294 2234 
L 1294 2753 
L 1863 2753 
Q 2328 2753 2575 2939 
Q 2822 3125 2822 3475 
Q 2822 3834 2567 4026 
Q 2313 4219 1838 4219 
Q 1578 4219 1281 4162 
Q 984 4106 628 3988 
L 628 4550 
Q 988 4650 1302 4700 
Q 1616 4750 1894 4750 
Q 2613 4750 3031 4423 
Q 3450 4097 3450 3541 
Q 3450 3153 3228 2886 
Q 3006 2619 2597 2516 
z
" transform="scale(0.015625)"/>
        <path id="DejaVuSans-36" d="M 2113 2584 
Q 1688 2584 1439 2293 
Q 1191 2003 1191 1497 
Q 1191 994 1439 701 
Q 1688 409 2113 409 
Q 2538 409 2786 701 
Q 3034 994 3034 1497 
Q 3034 2003 2786 2293 
Q 2538 2584 2113 2584 
z
M 3366 4563 
L 3366 3988 
Q 3128 4100 2886 4159 
Q 2644 4219 2406 4219 
Q 1781 4219 1451 3797 
Q 1122 3375 1075 2522 
Q 1259 2794 1537 2939 
Q 1816 3084 2150 3084 
Q 2853 3084 3261 2657 
Q 3669 2231 3669 1497 
Q 3669 778 3244 343 
Q 2819 -91 2113 -91 
Q 1303 -91 875 529 
Q 447 1150 447 2328 
Q 447 3434 972 4092 
Q 1497 4750 2381 4750 
Q 2619 4750 2861 4703 
Q 3103 4656 3366 4563 
z
" transform="scale(0.015625)"/>
       </defs>
       <use xlink:href="#DejaVuSans-33"/>
       <use xlink:href="#DejaVuSans-36" x="63.623047"/>
      </g>
     </g>
    </g>
    <g id="xtick_2">
     <g id="line2d_2">
      <g>
       <use xlink:href="#mf22e80eac1" x="146.969191" y="307.584" style="stroke: #000000; stroke-width: 0.8"/>
      </g>
     </g>
     <g id="text_2">
      <!-- 38 -->
      <g transform="translate(135.516691 328.261187) scale(0.18 -0.18)">
       <defs>
        <path id="DejaVuSans-38" d="M 2034 2216 
Q 1584 2216 1326 1975 
Q 1069 1734 1069 1313 
Q 1069 891 1326 650 
Q 1584 409 2034 409 
Q 2484 409 2743 651 
Q 3003 894 3003 1313 
Q 3003 1734 2745 1975 
Q 2488 2216 2034 2216 
z
M 1403 2484 
Q 997 2584 770 2862 
Q 544 3141 544 3541 
Q 544 4100 942 4425 
Q 1341 4750 2034 4750 
Q 2731 4750 3128 4425 
Q 3525 4100 3525 3541 
Q 3525 3141 3298 2862 
Q 3072 2584 2669 2484 
Q 3125 2378 3379 2068 
Q 3634 1759 3634 1313 
Q 3634 634 3220 271 
Q 2806 -91 2034 -91 
Q 1263 -91 848 271 
Q 434 634 434 1313 
Q 434 1759 690 2068 
Q 947 2378 1403 2484 
z
M 1172 3481 
Q 1172 3119 1398 2916 
Q 1625 2713 2034 2713 
Q 2441 2713 2670 2916 
Q 2900 3119 2900 3481 
Q 2900 3844 2670 4047 
Q 2441 4250 2034 4250 
Q 1625 4250 1398 4047 
Q 1172 3844 1172 3481 
z
" transform="scale(0.015625)"/>
       </defs>
       <use xlink:href="#DejaVuSans-33"/>
       <use xlink:href="#DejaVuSans-38" x="63.623047"/>
      </g>
     </g>
    </g>
    <g id="xtick_3">
     <g id="line2d_3">
      <g>
       <use xlink:href="#mf22e80eac1" x="218.321838" y="307.584" style="stroke: #000000; stroke-width: 0.8"/>
      </g>
     </g>
     <g id="text_3">
      <!-- 40 -->
      <g transform="translate(206.869338 328.261187) scale(0.18 -0.18)">
       <defs>
        <path id="DejaVuSans-34" d="M 2419 4116 
L 825 1625 
L 2419 1625 
L 2419 4116 
z
M 2253 4666 
L 3047 4666 
L 3047 1625 
L 3713 1625 
L 3713 1100 
L 3047 1100 
L 3047 0 
L 2419 0 
L 2419 1100 
L 313 1100 
L 313 1709 
L 2253 4666 
z
" transform="scale(0.015625)"/>
        <path id="DejaVuSans-30" d="M 2034 4250 
Q 1547 4250 1301 3770 
Q 1056 3291 1056 2328 
Q 1056 1369 1301 889 
Q 1547 409 2034 409 
Q 2525 409 2770 889 
Q 3016 1369 3016 2328 
Q 3016 3291 2770 3770 
Q 2525 4250 2034 4250 
z
M 2034 4750 
Q 2819 4750 3233 4129 
Q 3647 3509 3647 2328 
Q 3647 1150 3233 529 
Q 2819 -91 2034 -91 
Q 1250 -91 836 529 
Q 422 1150 422 2328 
Q 422 3509 836 4129 
Q 1250 4750 2034 4750 
z
" transform="scale(0.015625)"/>
       </defs>
       <use xlink:href="#DejaVuSans-34"/>
       <use xlink:href="#DejaVuSans-30" x="63.623047"/>
      </g>
     </g>
    </g>
    <g id="xtick_4">
     <g id="line2d_4">
      <g>
       <use xlink:href="#mf22e80eac1" x="289.674486" y="307.584" style="stroke: #000000; stroke-width: 0.8"/>
      </g>
     </g>
     <g id="text_4">
      <!-- 42 -->
      <g transform="translate(278.221986 328.261187) scale(0.18 -0.18)">
       <defs>
        <path id="DejaVuSans-32" d="M 1228 531 
L 3431 531 
L 3431 0 
L 469 0 
L 469 531 
Q 828 903 1448 1529 
Q 2069 2156 2228 2338 
Q 2531 2678 2651 2914 
Q 2772 3150 2772 3378 
Q 2772 3750 2511 3984 
Q 2250 4219 1831 4219 
Q 1534 4219 1204 4116 
Q 875 4013 500 3803 
L 500 4441 
Q 881 4594 1212 4672 
Q 1544 4750 1819 4750 
Q 2544 4750 2975 4387 
Q 3406 4025 3406 3419 
Q 3406 3131 3298 2873 
Q 3191 2616 2906 2266 
Q 2828 2175 2409 1742 
Q 1991 1309 1228 531 
z
" transform="scale(0.015625)"/>
       </defs>
       <use xlink:href="#DejaVuSans-34"/>
       <use xlink:href="#DejaVuSans-32" x="63.623047"/>
      </g>
     </g>
    </g>
    <g id="xtick_5">
     <g id="line2d_5">
      <g>
       <use xlink:href="#mf22e80eac1" x="361.027133" y="307.584" style="stroke: #000000; stroke-width: 0.8"/>
      </g>
     </g>
     <g id="text_5">
      <!-- 44 -->
      <g transform="translate(349.574633 328.261187) scale(0.18 -0.18)">
       <use xlink:href="#DejaVuSans-34"/>
       <use xlink:href="#DejaVuSans-34" x="63.623047"/>
      </g>
     </g>
    </g>
    <g id="text_6">
     <!-- Kondensatordruck in bar -->
     <g transform="translate(125.630156 349.681812) scale(0.18 -0.18)">
      <defs>
       <path id="DejaVuSans-4b" d="M 628 4666 
L 1259 4666 
L 1259 2694 
L 3353 4666 
L 4166 4666 
L 1850 2491 
L 4331 0 
L 3500 0 
L 1259 2247 
L 1259 0 
L 628 0 
L 628 4666 
z
" transform="scale(0.015625)"/>
       <path id="DejaVuSans-6f" d="M 1959 3097 
Q 1497 3097 1228 2736 
Q 959 2375 959 1747 
Q 959 1119 1226 758 
Q 1494 397 1959 397 
Q 2419 397 2687 759 
Q 2956 1122 2956 1747 
Q 2956 2369 2687 2733 
Q 2419 3097 1959 3097 
z
M 1959 3584 
Q 2709 3584 3137 3096 
Q 3566 2609 3566 1747 
Q 3566 888 3137 398 
Q 2709 -91 1959 -91 
Q 1206 -91 779 398 
Q 353 888 353 1747 
Q 353 2609 779 3096 
Q 1206 3584 1959 3584 
z
" transform="scale(0.015625)"/>
       <path id="DejaVuSans-6e" d="M 3513 2113 
L 3513 0 
L 2938 0 
L 2938 2094 
Q 2938 2591 2744 2837 
Q 2550 3084 2163 3084 
Q 1697 3084 1428 2787 
Q 1159 2491 1159 1978 
L 1159 0 
L 581 0 
L 581 3500 
L 1159 3500 
L 1159 2956 
Q 1366 3272 1645 3428 
Q 1925 3584 2291 3584 
Q 2894 3584 3203 3211 
Q 3513 2838 3513 2113 
z
" transform="scale(0.015625)"/>
       <path id="DejaVuSans-64" d="M 2906 2969 
L 2906 4863 
L 3481 4863 
L 3481 0 
L 2906 0 
L 2906 525 
Q 2725 213 2448 61 
Q 2172 -91 1784 -91 
Q 1150 -91 751 415 
Q 353 922 353 1747 
Q 353 2572 751 3078 
Q 1150 3584 1784 3584 
Q 2172 3584 2448 3432 
Q 2725 3281 2906 2969 
z
M 947 1747 
Q 947 1113 1208 752 
Q 1469 391 1925 391 
Q 2381 391 2643 752 
Q 2906 1113 2906 1747 
Q 2906 2381 2643 2742 
Q 2381 3103 1925 3103 
Q 1469 3103 1208 2742 
Q 947 2381 947 1747 
z
" transform="scale(0.015625)"/>
       <path id="DejaVuSans-65" d="M 3597 1894 
L 3597 1613 
L 953 1613 
Q 991 1019 1311 708 
Q 1631 397 2203 397 
Q 2534 397 2845 478 
Q 3156 559 3463 722 
L 3463 178 
Q 3153 47 2828 -22 
Q 2503 -91 2169 -91 
Q 1331 -91 842 396 
Q 353 884 353 1716 
Q 353 2575 817 3079 
Q 1281 3584 2069 3584 
Q 2775 3584 3186 3129 
Q 3597 2675 3597 1894 
z
M 3022 2063 
Q 3016 2534 2758 2815 
Q 2500 3097 2075 3097 
Q 1594 3097 1305 2825 
Q 1016 2553 972 2059 
L 3022 2063 
z
" transform="scale(0.015625)"/>
       <path id="DejaVuSans-73" d="M 2834 3397 
L 2834 2853 
Q 2591 2978 2328 3040 
Q 2066 3103 1784 3103 
Q 1356 3103 1142 2972 
Q 928 2841 928 2578 
Q 928 2378 1081 2264 
Q 1234 2150 1697 2047 
L 1894 2003 
Q 2506 1872 2764 1633 
Q 3022 1394 3022 966 
Q 3022 478 2636 193 
Q 2250 -91 1575 -91 
Q 1294 -91 989 -36 
Q 684 19 347 128 
L 347 722 
Q 666 556 975 473 
Q 1284 391 1588 391 
Q 1994 391 2212 530 
Q 2431 669 2431 922 
Q 2431 1156 2273 1281 
Q 2116 1406 1581 1522 
L 1381 1569 
Q 847 1681 609 1914 
Q 372 2147 372 2553 
Q 372 3047 722 3315 
Q 1072 3584 1716 3584 
Q 2034 3584 2315 3537 
Q 2597 3491 2834 3397 
z
" transform="scale(0.015625)"/>
       <path id="DejaVuSans-61" d="M 2194 1759 
Q 1497 1759 1228 1600 
Q 959 1441 959 1056 
Q 959 750 1161 570 
Q 1363 391 1709 391 
Q 2188 391 2477 730 
Q 2766 1069 2766 1631 
L 2766 1759 
L 2194 1759 
z
M 3341 1997 
L 3341 0 
L 2766 0 
L 2766 531 
Q 2569 213 2275 61 
Q 1981 -91 1556 -91 
Q 1019 -91 701 211 
Q 384 513 384 1019 
Q 384 1609 779 1909 
Q 1175 2209 1959 2209 
L 2766 2209 
L 2766 2266 
Q 2766 2663 2505 2880 
Q 2244 3097 1772 3097 
Q 1472 3097 1187 3025 
Q 903 2953 641 2809 
L 641 3341 
Q 956 3463 1253 3523 
Q 1550 3584 1831 3584 
Q 2591 3584 2966 3190 
Q 3341 2797 3341 1997 
z
" transform="scale(0.015625)"/>
       <path id="DejaVuSans-74" d="M 1172 4494 
L 1172 3500 
L 2356 3500 
L 2356 3053 
L 1172 3053 
L 1172 1153 
Q 1172 725 1289 603 
Q 1406 481 1766 481 
L 2356 481 
L 2356 0 
L 1766 0 
Q 1100 0 847 248 
Q 594 497 594 1153 
L 594 3053 
L 172 3053 
L 172 3500 
L 594 3500 
L 594 4494 
L 1172 4494 
z
" transform="scale(0.015625)"/>
       <path id="DejaVuSans-72" d="M 2631 2963 
Q 2534 3019 2420 3045 
Q 2306 3072 2169 3072 
Q 1681 3072 1420 2755 
Q 1159 2438 1159 1844 
L 1159 0 
L 581 0 
L 581 3500 
L 1159 3500 
L 1159 2956 
Q 1341 3275 1631 3429 
Q 1922 3584 2338 3584 
Q 2397 3584 2469 3576 
Q 2541 3569 2628 3553 
L 2631 2963 
z
" transform="scale(0.015625)"/>
       <path id="DejaVuSans-75" d="M 544 1381 
L 544 3500 
L 1119 3500 
L 1119 1403 
Q 1119 906 1312 657 
Q 1506 409 1894 409 
Q 2359 409 2629 706 
Q 2900 1003 2900 1516 
L 2900 3500 
L 3475 3500 
L 3475 0 
L 2900 0 
L 2900 538 
Q 2691 219 2414 64 
Q 2138 -91 1772 -91 
Q 1169 -91 856 284 
Q 544 659 544 1381 
z
M 1991 3584 
L 1991 3584 
z
" transform="scale(0.015625)"/>
       <path id="DejaVuSans-63" d="M 3122 3366 
L 3122 2828 
Q 2878 2963 2633 3030 
Q 2388 3097 2138 3097 
Q 1578 3097 1268 2742 
Q 959 2388 959 1747 
Q 959 1106 1268 751 
Q 1578 397 2138 397 
Q 2388 397 2633 464 
Q 2878 531 3122 666 
L 3122 134 
Q 2881 22 2623 -34 
Q 2366 -91 2075 -91 
Q 1284 -91 818 406 
Q 353 903 353 1747 
Q 353 2603 823 3093 
Q 1294 3584 2113 3584 
Q 2378 3584 2631 3529 
Q 2884 3475 3122 3366 
z
" transform="scale(0.015625)"/>
       <path id="DejaVuSans-6b" d="M 581 4863 
L 1159 4863 
L 1159 1991 
L 2875 3500 
L 3609 3500 
L 1753 1863 
L 3688 0 
L 2938 0 
L 1159 1709 
L 1159 0 
L 581 0 
L 581 4863 
z
" transform="scale(0.015625)"/>
       <path id="DejaVuSans-20" transform="scale(0.015625)"/>
       <path id="DejaVuSans-69" d="M 603 3500 
L 1178 3500 
L 1178 0 
L 603 0 
L 603 3500 
z
M 603 4863 
L 1178 4863 
L 1178 4134 
L 603 4134 
L 603 4863 
z
" transform="scale(0.015625)"/>
       <path id="DejaVuSans-62" d="M 3116 1747 
Q 3116 2381 2855 2742 
Q 2594 3103 2138 3103 
Q 1681 3103 1420 2742 
Q 1159 2381 1159 1747 
Q 1159 1113 1420 752 
Q 1681 391 2138 391 
Q 2594 391 2855 752 
Q 3116 1113 3116 1747 
z
M 1159 2969 
Q 1341 3281 1617 3432 
Q 1894 3584 2278 3584 
Q 2916 3584 3314 3078 
Q 3713 2572 3713 1747 
Q 3713 922 3314 415 
Q 2916 -91 2278 -91 
Q 1894 -91 1617 61 
Q 1341 213 1159 525 
L 1159 0 
L 581 0 
L 581 4863 
L 1159 4863 
L 1159 2969 
z
" transform="scale(0.015625)"/>
      </defs>
      <use xlink:href="#DejaVuSans-4b"/>
      <use xlink:href="#DejaVuSans-6f" x="60.576172"/>
      <use xlink:href="#DejaVuSans-6e" x="121.757812"/>
      <use xlink:href="#DejaVuSans-64" x="185.136719"/>
      <use xlink:href="#DejaVuSans-65" x="248.613281"/>
      <use xlink:href="#DejaVuSans-6e" x="310.136719"/>
      <use xlink:href="#DejaVuSans-73" x="373.515625"/>
      <use xlink:href="#DejaVuSans-61" x="425.615234"/>
      <use xlink:href="#DejaVuSans-74" x="486.894531"/>
      <use xlink:href="#DejaVuSans-6f" x="526.103516"/>
      <use xlink:href="#DejaVuSans-72" x="587.285156"/>
      <use xlink:href="#DejaVuSans-64" x="626.648438"/>
      <use xlink:href="#DejaVuSans-72" x="690.125"/>
      <use xlink:href="#DejaVuSans-75" x="731.238281"/>
      <use xlink:href="#DejaVuSans-63" x="794.617188"/>
      <use xlink:href="#DejaVuSans-6b" x="849.597656"/>
      <use xlink:href="#DejaVuSans-20" x="907.507812"/>
      <use xlink:href="#DejaVuSans-69" x="939.294922"/>
      <use xlink:href="#DejaVuSans-6e" x="967.078125"/>
      <use xlink:href="#DejaVuSans-20" x="1030.457031"/>
      <use xlink:href="#DejaVuSans-62" x="1062.244141"/>
      <use xlink:href="#DejaVuSans-61" x="1125.720703"/>
      <use xlink:href="#DejaVuSans-72" x="1187"/>
     </g>
    </g>
   </g>
   <g id="matplotlib.axis_2">
    <g id="ytick_1">
     <g id="line2d_6">
      <defs>
       <path id="m505af7c5a6" d="M 0 0 
L -3.5 0 
" style="stroke: #000000; stroke-width: 0.8"/>
      </defs>
      <g>
       <use xlink:href="#m505af7c5a6" x="57.6" y="307.584" style="stroke: #000000; stroke-width: 0.8"/>
      </g>
     </g>
     <g id="text_7">
      <!-- 0.00 -->
      <g transform="translate(10.521875 314.422594) scale(0.18 -0.18)">
       <defs>
        <path id="DejaVuSans-2e" d="M 684 794 
L 1344 794 
L 1344 0 
L 684 0 
L 684 794 
z
" transform="scale(0.015625)"/>
       </defs>
       <use xlink:href="#DejaVuSans-30"/>
       <use xlink:href="#DejaVuSans-2e" x="63.623047"/>
       <use xlink:href="#DejaVuSans-30" x="95.410156"/>
       <use xlink:href="#DejaVuSans-30" x="159.033203"/>
      </g>
     </g>
    </g>
    <g id="ytick_2">
     <g id="line2d_7">
      <g>
       <use xlink:href="#m505af7c5a6" x="57.6" y="269.057412" style="stroke: #000000; stroke-width: 0.8"/>
      </g>
     </g>
     <g id="text_8">
      <!-- 0.02 -->
      <g transform="translate(10.521875 275.896006) scale(0.18 -0.18)">
       <use xlink:href="#DejaVuSans-30"/>
       <use xlink:href="#DejaVuSans-2e" x="63.623047"/>
       <use xlink:href="#DejaVuSans-30" x="95.410156"/>
       <use xlink:href="#DejaVuSans-32" x="159.033203"/>
      </g>
     </g>
    </g>
    <g id="ytick_3">
     <g id="line2d_8">
      <g>
       <use xlink:href="#m505af7c5a6" x="57.6" y="230.530824" style="stroke: #000000; stroke-width: 0.8"/>
      </g>
     </g>
     <g id="text_9">
      <!-- 0.04 -->
      <g transform="translate(10.521875 237.369418) scale(0.18 -0.18)">
       <use xlink:href="#DejaVuSans-30"/>
       <use xlink:href="#DejaVuSans-2e" x="63.623047"/>
       <use xlink:href="#DejaVuSans-30" x="95.410156"/>
       <use xlink:href="#DejaVuSans-34" x="159.033203"/>
      </g>
     </g>
    </g>
    <g id="ytick_4">
     <g id="line2d_9">
      <g>
       <use xlink:href="#m505af7c5a6" x="57.6" y="192.004236" style="stroke: #000000; stroke-width: 0.8"/>
      </g>
     </g>
     <g id="text_10">
      <!-- 0.06 -->
      <g transform="translate(10.521875 198.842829) scale(0.18 -0.18)">
       <use xlink:href="#DejaVuSans-30"/>
       <use xlink:href="#DejaVuSans-2e" x="63.623047"/>
       <use xlink:href="#DejaVuSans-30" x="95.410156"/>
       <use xlink:href="#DejaVuSans-36" x="159.033203"/>
      </g>
     </g>
    </g>
    <g id="ytick_5">
     <g id="line2d_10">
      <g>
       <use xlink:href="#m505af7c5a6" x="57.6" y="153.477648" style="stroke: #000000; stroke-width: 0.8"/>
      </g>
     </g>
     <g id="text_11">
      <!-- 0.08 -->
      <g transform="translate(10.521875 160.316241) scale(0.18 -0.18)">
       <use xlink:href="#DejaVuSans-30"/>
       <use xlink:href="#DejaVuSans-2e" x="63.623047"/>
       <use xlink:href="#DejaVuSans-30" x="95.410156"/>
       <use xlink:href="#DejaVuSans-38" x="159.033203"/>
      </g>
     </g>
    </g>
    <g id="ytick_6">
     <g id="line2d_11">
      <g>
       <use xlink:href="#m505af7c5a6" x="57.6" y="114.951059" style="stroke: #000000; stroke-width: 0.8"/>
      </g>
     </g>
     <g id="text_12">
      <!-- 0.10 -->
      <g transform="translate(10.521875 121.789653) scale(0.18 -0.18)">
       <defs>
        <path id="DejaVuSans-31" d="M 794 531 
L 1825 531 
L 1825 4091 
L 703 3866 
L 703 4441 
L 1819 4666 
L 2450 4666 
L 2450 531 
L 3481 531 
L 3481 0 
L 794 0 
L 794 531 
z
" transform="scale(0.015625)"/>
       </defs>
       <use xlink:href="#DejaVuSans-30"/>
       <use xlink:href="#DejaVuSans-2e" x="63.623047"/>
       <use xlink:href="#DejaVuSans-31" x="95.410156"/>
       <use xlink:href="#DejaVuSans-30" x="159.033203"/>
      </g>
     </g>
    </g>
    <g id="ytick_7">
     <g id="line2d_12">
      <g>
       <use xlink:href="#m505af7c5a6" x="57.6" y="76.424471" style="stroke: #000000; stroke-width: 0.8"/>
      </g>
     </g>
     <g id="text_13">
      <!-- 0.12 -->
      <g transform="translate(10.521875 83.263065) scale(0.18 -0.18)">
       <use xlink:href="#DejaVuSans-30"/>
       <use xlink:href="#DejaVuSans-2e" x="63.623047"/>
       <use xlink:href="#DejaVuSans-31" x="95.410156"/>
       <use xlink:href="#DejaVuSans-32" x="159.033203"/>
      </g>
     </g>
    </g>
    <g id="text_14">
     <!-- Exergievernichtung in MW -->
     <g transform="translate(2.778437 292.593937) rotate(-90) scale(0.18 -0.18)">
      <defs>
       <path id="DejaVuSans-45" d="M 628 4666 
L 3578 4666 
L 3578 4134 
L 1259 4134 
L 1259 2753 
L 3481 2753 
L 3481 2222 
L 1259 2222 
L 1259 531 
L 3634 531 
L 3634 0 
L 628 0 
L 628 4666 
z
" transform="scale(0.015625)"/>
       <path id="DejaVuSans-78" d="M 3513 3500 
L 2247 1797 
L 3578 0 
L 2900 0 
L 1881 1375 
L 863 0 
L 184 0 
L 1544 1831 
L 300 3500 
L 978 3500 
L 1906 2253 
L 2834 3500 
L 3513 3500 
z
" transform="scale(0.015625)"/>
       <path id="DejaVuSans-67" d="M 2906 1791 
Q 2906 2416 2648 2759 
Q 2391 3103 1925 3103 
Q 1463 3103 1205 2759 
Q 947 2416 947 1791 
Q 947 1169 1205 825 
Q 1463 481 1925 481 
Q 2391 481 2648 825 
Q 2906 1169 2906 1791 
z
M 3481 434 
Q 3481 -459 3084 -895 
Q 2688 -1331 1869 -1331 
Q 1566 -1331 1297 -1286 
Q 1028 -1241 775 -1147 
L 775 -588 
Q 1028 -725 1275 -790 
Q 1522 -856 1778 -856 
Q 2344 -856 2625 -561 
Q 2906 -266 2906 331 
L 2906 616 
Q 2728 306 2450 153 
Q 2172 0 1784 0 
Q 1141 0 747 490 
Q 353 981 353 1791 
Q 353 2603 747 3093 
Q 1141 3584 1784 3584 
Q 2172 3584 2450 3431 
Q 2728 3278 2906 2969 
L 2906 3500 
L 3481 3500 
L 3481 434 
z
" transform="scale(0.015625)"/>
       <path id="DejaVuSans-76" d="M 191 3500 
L 800 3500 
L 1894 563 
L 2988 3500 
L 3597 3500 
L 2284 0 
L 1503 0 
L 191 3500 
z
" transform="scale(0.015625)"/>
       <path id="DejaVuSans-68" d="M 3513 2113 
L 3513 0 
L 2938 0 
L 2938 2094 
Q 2938 2591 2744 2837 
Q 2550 3084 2163 3084 
Q 1697 3084 1428 2787 
Q 1159 2491 1159 1978 
L 1159 0 
L 581 0 
L 581 4863 
L 1159 4863 
L 1159 2956 
Q 1366 3272 1645 3428 
Q 1925 3584 2291 3584 
Q 2894 3584 3203 3211 
Q 3513 2838 3513 2113 
z
" transform="scale(0.015625)"/>
       <path id="DejaVuSans-4d" d="M 628 4666 
L 1569 4666 
L 2759 1491 
L 3956 4666 
L 4897 4666 
L 4897 0 
L 4281 0 
L 4281 4097 
L 3078 897 
L 2444 897 
L 1241 4097 
L 1241 0 
L 628 0 
L 628 4666 
z
" transform="scale(0.015625)"/>
       <path id="DejaVuSans-57" d="M 213 4666 
L 850 4666 
L 1831 722 
L 2809 4666 
L 3519 4666 
L 4500 722 
L 5478 4666 
L 6119 4666 
L 4947 0 
L 4153 0 
L 3169 4050 
L 2175 0 
L 1381 0 
L 213 4666 
z
" transform="scale(0.015625)"/>
      </defs>
      <use xlink:href="#DejaVuSans-45"/>
      <use xlink:href="#DejaVuSans-78" x="63.183594"/>
      <use xlink:href="#DejaVuSans-65" x="119.238281"/>
      <use xlink:href="#DejaVuSans-72" x="180.761719"/>
      <use xlink:href="#DejaVuSans-67" x="220.125"/>
      <use xlink:href="#DejaVuSans-69" x="283.601562"/>
      <use xlink:href="#DejaVuSans-65" x="311.384766"/>
      <use xlink:href="#DejaVuSans-76" x="372.908203"/>
      <use xlink:href="#DejaVuSans-65" x="432.087891"/>
      <use xlink:href="#DejaVuSans-72" x="493.611328"/>
      <use xlink:href="#DejaVuSans-6e" x="532.974609"/>
      <use xlink:href="#DejaVuSans-69" x="596.353516"/>
      <use xlink:href="#DejaVuSans-63" x="624.136719"/>
      <use xlink:href="#DejaVuSans-68" x="679.117188"/>
      <use xlink:href="#DejaVuSans-74" x="742.496094"/>
      <use xlink:href="#DejaVuSans-75" x="781.705078"/>
      <use xlink:href="#DejaVuSans-6e" x="845.083984"/>
      <use xlink:href="#DejaVuSans-67" x="908.462891"/>
      <use xlink:href="#DejaVuSans-20" x="971.939453"/>
      <use xlink:href="#DejaVuSans-69" x="1003.726562"/>
      <use xlink:href="#DejaVuSans-6e" x="1031.509766"/>
      <use xlink:href="#DejaVuSans-20" x="1094.888672"/>
      <use xlink:href="#DejaVuSans-4d" x="1126.675781"/>
      <use xlink:href="#DejaVuSans-57" x="1212.955078"/>
     </g>
    </g>
   </g>
   <g id="patch_203">
    <path d="M 57.6 307.584 
L 57.6 41.472 
" style="fill: none; stroke: #000000; stroke-width: 0.8; stroke-linejoin: miter; stroke-linecap: square"/>
   </g>
   <g id="patch_204">
    <path d="M 414.72 307.584 
L 414.72 41.472 
" style="fill: none; stroke: #000000; stroke-width: 0.8; stroke-linejoin: miter; stroke-linecap: square"/>
   </g>
   <g id="patch_205">
    <path d="M 57.6 307.584 
L 414.72 307.584 
" style="fill: none; stroke: #000000; stroke-width: 0.8; stroke-linejoin: miter; stroke-linecap: square"/>
   </g>
   <g id="patch_206">
    <path d="M 57.6 41.472 
L 414.72 41.472 
" style="fill: none; stroke: #000000; stroke-width: 0.8; stroke-linejoin: miter; stroke-linecap: square"/>
   </g>
   <g id="legend_1">
    <g id="patch_207">
     <path d="M 125.648437 187.975125 
L 402.12 187.975125 
Q 405.72 187.975125 405.72 184.375125 
L 405.72 54.072 
Q 405.72 50.472 402.12 50.472 
L 125.648437 50.472 
Q 122.048437 50.472 122.048437 54.072 
L 122.048437 184.375125 
Q 122.048437 187.975125 125.648437 187.975125 
z
" style="fill: #ffffff; opacity: 0.8; stroke: #cccccc; stroke-linejoin: miter"/>
    </g>
    <g id="patch_208">
     <path d="M 129.248437 71.349187 
L 165.248437 71.349187 
L 165.248437 58.749187 
L 129.248437 58.749187 
z
" style="fill: #1f77b4"/>
    </g>
    <g id="text_15">
     <!-- Gas cooler -->
     <g transform="translate(179.648438 71.349187) scale(0.18 -0.18)">
      <defs>
       <path id="DejaVuSans-47" d="M 3809 666 
L 3809 1919 
L 2778 1919 
L 2778 2438 
L 4434 2438 
L 4434 434 
Q 4069 175 3628 42 
Q 3188 -91 2688 -91 
Q 1594 -91 976 548 
Q 359 1188 359 2328 
Q 359 3472 976 4111 
Q 1594 4750 2688 4750 
Q 3144 4750 3555 4637 
Q 3966 4525 4313 4306 
L 4313 3634 
Q 3963 3931 3569 4081 
Q 3175 4231 2741 4231 
Q 1884 4231 1454 3753 
Q 1025 3275 1025 2328 
Q 1025 1384 1454 906 
Q 1884 428 2741 428 
Q 3075 428 3337 486 
Q 3600 544 3809 666 
z
" transform="scale(0.015625)"/>
       <path id="DejaVuSans-6c" d="M 603 4863 
L 1178 4863 
L 1178 0 
L 603 0 
L 603 4863 
z
" transform="scale(0.015625)"/>
      </defs>
      <use xlink:href="#DejaVuSans-47"/>
      <use xlink:href="#DejaVuSans-61" x="77.490234"/>
      <use xlink:href="#DejaVuSans-73" x="138.769531"/>
      <use xlink:href="#DejaVuSans-20" x="190.869141"/>
      <use xlink:href="#DejaVuSans-63" x="222.65625"/>
      <use xlink:href="#DejaVuSans-6f" x="277.636719"/>
      <use xlink:href="#DejaVuSans-6f" x="338.818359"/>
      <use xlink:href="#DejaVuSans-6c" x="400"/>
      <use xlink:href="#DejaVuSans-65" x="427.783203"/>
      <use xlink:href="#DejaVuSans-72" x="489.306641"/>
     </g>
    </g>
    <g id="patch_209">
     <path d="M 129.248437 97.769812 
L 165.248437 97.769812 
L 165.248437 85.169812 
L 129.248437 85.169812 
z
" style="fill: #ff7f0e"/>
    </g>
    <g id="text_16">
     <!-- Evaporator -->
     <g transform="translate(179.648438 97.769812) scale(0.18 -0.18)">
      <defs>
       <path id="DejaVuSans-70" d="M 1159 525 
L 1159 -1331 
L 581 -1331 
L 581 3500 
L 1159 3500 
L 1159 2969 
Q 1341 3281 1617 3432 
Q 1894 3584 2278 3584 
Q 2916 3584 3314 3078 
Q 3713 2572 3713 1747 
Q 3713 922 3314 415 
Q 2916 -91 2278 -91 
Q 1894 -91 1617 61 
Q 1341 213 1159 525 
z
M 3116 1747 
Q 3116 2381 2855 2742 
Q 2594 3103 2138 3103 
Q 1681 3103 1420 2742 
Q 1159 2381 1159 1747 
Q 1159 1113 1420 752 
Q 1681 391 2138 391 
Q 2594 391 2855 752 
Q 3116 1113 3116 1747 
z
" transform="scale(0.015625)"/>
      </defs>
      <use xlink:href="#DejaVuSans-45"/>
      <use xlink:href="#DejaVuSans-76" x="63.183594"/>
      <use xlink:href="#DejaVuSans-61" x="122.363281"/>
      <use xlink:href="#DejaVuSans-70" x="183.642578"/>
      <use xlink:href="#DejaVuSans-6f" x="247.119141"/>
      <use xlink:href="#DejaVuSans-72" x="308.300781"/>
      <use xlink:href="#DejaVuSans-61" x="349.414062"/>
      <use xlink:href="#DejaVuSans-74" x="410.693359"/>
      <use xlink:href="#DejaVuSans-6f" x="449.902344"/>
      <use xlink:href="#DejaVuSans-72" x="511.083984"/>
     </g>
    </g>
    <g id="patch_210">
     <path d="M 129.248437 124.190437 
L 165.248437 124.190437 
L 165.248437 111.590437 
L 129.248437 111.590437 
z
" style="fill: #2ca02c"/>
    </g>
    <g id="text_17">
     <!-- Valve -->
     <g transform="translate(179.648438 124.190437) scale(0.18 -0.18)">
      <defs>
       <path id="DejaVuSans-56" d="M 1831 0 
L 50 4666 
L 709 4666 
L 2188 738 
L 3669 4666 
L 4325 4666 
L 2547 0 
L 1831 0 
z
" transform="scale(0.015625)"/>
      </defs>
      <use xlink:href="#DejaVuSans-56"/>
      <use xlink:href="#DejaVuSans-61" x="60.658203"/>
      <use xlink:href="#DejaVuSans-6c" x="121.9375"/>
      <use xlink:href="#DejaVuSans-76" x="149.720703"/>
      <use xlink:href="#DejaVuSans-65" x="208.900391"/>
     </g>
    </g>
    <g id="patch_211">
     <path d="M 129.248437 150.611062 
L 165.248437 150.611062 
L 165.248437 138.011062 
L 129.248437 138.011062 
z
" style="fill: #d62728"/>
    </g>
    <g id="text_18">
     <!-- Compressor -->
     <g transform="translate(179.648438 150.611062) scale(0.18 -0.18)">
      <defs>
       <path id="DejaVuSans-43" d="M 4122 4306 
L 4122 3641 
Q 3803 3938 3442 4084 
Q 3081 4231 2675 4231 
Q 1875 4231 1450 3742 
Q 1025 3253 1025 2328 
Q 1025 1406 1450 917 
Q 1875 428 2675 428 
Q 3081 428 3442 575 
Q 3803 722 4122 1019 
L 4122 359 
Q 3791 134 3420 21 
Q 3050 -91 2638 -91 
Q 1578 -91 968 557 
Q 359 1206 359 2328 
Q 359 3453 968 4101 
Q 1578 4750 2638 4750 
Q 3056 4750 3426 4639 
Q 3797 4528 4122 4306 
z
" transform="scale(0.015625)"/>
       <path id="DejaVuSans-6d" d="M 3328 2828 
Q 3544 3216 3844 3400 
Q 4144 3584 4550 3584 
Q 5097 3584 5394 3201 
Q 5691 2819 5691 2113 
L 5691 0 
L 5113 0 
L 5113 2094 
Q 5113 2597 4934 2840 
Q 4756 3084 4391 3084 
Q 3944 3084 3684 2787 
Q 3425 2491 3425 1978 
L 3425 0 
L 2847 0 
L 2847 2094 
Q 2847 2600 2669 2842 
Q 2491 3084 2119 3084 
Q 1678 3084 1418 2786 
Q 1159 2488 1159 1978 
L 1159 0 
L 581 0 
L 581 3500 
L 1159 3500 
L 1159 2956 
Q 1356 3278 1631 3431 
Q 1906 3584 2284 3584 
Q 2666 3584 2933 3390 
Q 3200 3197 3328 2828 
z
" transform="scale(0.015625)"/>
      </defs>
      <use xlink:href="#DejaVuSans-43"/>
      <use xlink:href="#DejaVuSans-6f" x="69.824219"/>
      <use xlink:href="#DejaVuSans-6d" x="131.005859"/>
      <use xlink:href="#DejaVuSans-70" x="228.417969"/>
      <use xlink:href="#DejaVuSans-72" x="291.894531"/>
      <use xlink:href="#DejaVuSans-65" x="330.757812"/>
      <use xlink:href="#DejaVuSans-73" x="392.28125"/>
      <use xlink:href="#DejaVuSans-73" x="444.380859"/>
      <use xlink:href="#DejaVuSans-6f" x="496.480469"/>
      <use xlink:href="#DejaVuSans-72" x="557.662109"/>
     </g>
    </g>
    <g id="patch_212">
     <path d="M 129.248437 177.031687 
L 165.248437 177.031687 
L 165.248437 164.431687 
L 129.248437 164.431687 
z
" style="fill: #9467bd"/>
    </g>
    <g id="text_19">
     <!-- Internal Heat Exchanger -->
     <g transform="translate(179.648438 177.031687) scale(0.18 -0.18)">
      <defs>
       <path id="DejaVuSans-49" d="M 628 4666 
L 1259 4666 
L 1259 0 
L 628 0 
L 628 4666 
z
" transform="scale(0.015625)"/>
       <path id="DejaVuSans-48" d="M 628 4666 
L 1259 4666 
L 1259 2753 
L 3553 2753 
L 3553 4666 
L 4184 4666 
L 4184 0 
L 3553 0 
L 3553 2222 
L 1259 2222 
L 1259 0 
L 628 0 
L 628 4666 
z
" transform="scale(0.015625)"/>
      </defs>
      <use xlink:href="#DejaVuSans-49"/>
      <use xlink:href="#DejaVuSans-6e" x="29.492188"/>
      <use xlink:href="#DejaVuSans-74" x="92.871094"/>
      <use xlink:href="#DejaVuSans-65" x="132.080078"/>
      <use xlink:href="#DejaVuSans-72" x="193.603516"/>
      <use xlink:href="#DejaVuSans-6e" x="232.966797"/>
      <use xlink:href="#DejaVuSans-61" x="296.345703"/>
      <use xlink:href="#DejaVuSans-6c" x="357.625"/>
      <use xlink:href="#DejaVuSans-20" x="385.408203"/>
      <use xlink:href="#DejaVuSans-48" x="417.195312"/>
      <use xlink:href="#DejaVuSans-65" x="492.390625"/>
      <use xlink:href="#DejaVuSans-61" x="553.914062"/>
      <use xlink:href="#DejaVuSans-74" x="615.193359"/>
      <use xlink:href="#DejaVuSans-20" x="654.402344"/>
      <use xlink:href="#DejaVuSans-45" x="686.189453"/>
      <use xlink:href="#DejaVuSans-78" x="749.373047"/>
      <use xlink:href="#DejaVuSans-63" x="806.802734"/>
      <use xlink:href="#DejaVuSans-68" x="861.783203"/>
      <use xlink:href="#DejaVuSans-61" x="925.162109"/>
      <use xlink:href="#DejaVuSans-6e" x="986.441406"/>
      <use xlink:href="#DejaVuSans-67" x="1049.820312"/>
      <use xlink:href="#DejaVuSans-65" x="1113.296875"/>
      <use xlink:href="#DejaVuSans-72" x="1174.820312"/>
     </g>
    </g>
   </g>
  </g>
 </g>
 <defs>
  <clipPath id="p6911a85851">
   <rect x="57.6" y="41.472" width="357.12" height="266.112"/>
  </clipPath>
 </defs>
</svg>
