<?xml version="1.0" encoding="utf-8" standalone="no"?>
<!DOCTYPE svg PUBLIC "-//W3C//DTD SVG 1.1//EN"
  "http://www.w3.org/Graphics/SVG/1.1/DTD/svg11.dtd">
<svg xmlns:xlink="http://www.w3.org/1999/xlink" width="460.8pt" height="345.6pt" viewBox="0 0 460.8 345.6" xmlns="http://www.w3.org/2000/svg" version="1.1">
 <metadata>
  <rdf:RDF xmlns:dc="http://purl.org/dc/elements/1.1/" xmlns:cc="http://creativecommons.org/ns#" xmlns:rdf="http://www.w3.org/1999/02/22-rdf-syntax-ns#">
   <cc:Work>
    <dc:type rdf:resource="http://purl.org/dc/dcmitype/StillImage"/>
    <dc:date>2023-04-04T10:50:38.239774</dc:date>
    <dc:format>image/svg+xml</dc:format>
    <dc:creator>
     <cc:Agent>
      <dc:title>Matplotlib v3.6.1, https://matplotlib.org/</dc:title>
     </cc:Agent>
    </dc:creator>
   </cc:Work>
  </rdf:RDF>
 </metadata>
 <defs>
  <style type="text/css">*{stroke-linejoin: round; stroke-linecap: butt}</style>
 </defs>
 <g id="figure_1">
  <g id="patch_1">
   <path d="M 0 345.6 
L 460.8 345.6 
L 460.8 0 
L 0 0 
z
" style="fill: #ffffff"/>
  </g>
  <g id="axes_1">
   <g id="patch_2">
    <path d="M 57.6 307.584 
L 414.72 307.584 
L 414.72 41.472 
L 57.6 41.472 
z
" style="fill: #ffffff"/>
   </g>
   <g id="patch_3">
    <path d="M 73.832727 307.584 
L 80.890435 307.584 
L 80.890435 279.128877 
L 73.832727 279.128877 
z
" clip-path="url(#p9e3f0f19cf)" style="fill: #1f77b4"/>
   </g>
   <g id="patch_4">
    <path d="M 81.976236 307.584 
L 89.033943 307.584 
L 89.033943 278.384382 
L 81.976236 278.384382 
z
" clip-path="url(#p9e3f0f19cf)" style="fill: #1f77b4"/>
   </g>
   <g id="patch_5">
    <path d="M 90.119745 307.584 
L 97.177452 307.584 
L 97.177452 277.646352 
L 90.119745 277.646352 
z
" clip-path="url(#p9e3f0f19cf)" style="fill: #1f77b4"/>
   </g>
   <g id="patch_6">
    <path d="M 98.263253 307.584 
L 105.320961 307.584 
L 105.320961 276.915413 
L 98.263253 276.915413 
z
" clip-path="url(#p9e3f0f19cf)" style="fill: #1f77b4"/>
   </g>
   <g id="patch_7">
    <path d="M 106.406762 307.584 
L 113.464469 307.584 
L 113.464469 276.191981 
L 106.406762 276.191981 
z
" clip-path="url(#p9e3f0f19cf)" style="fill: #1f77b4"/>
   </g>
   <g id="patch_8">
    <path d="M 114.550271 307.584 
L 121.607978 307.584 
L 121.607978 275.476326 
L 114.550271 275.476326 
z
" clip-path="url(#p9e3f0f19cf)" style="fill: #1f77b4"/>
   </g>
   <g id="patch_9">
    <path d="M 122.693779 307.584 
L 129.751487 307.584 
L 129.751487 274.76862 
L 122.693779 274.76862 
z
" clip-path="url(#p9e3f0f19cf)" style="fill: #1f77b4"/>
   </g>
   <g id="patch_10">
    <path d="M 130.837288 307.584 
L 137.894995 307.584 
L 137.894995 274.068964 
L 130.837288 274.068964 
z
" clip-path="url(#p9e3f0f19cf)" style="fill: #1f77b4"/>
   </g>
   <g id="patch_11">
    <path d="M 138.980797 307.584 
L 146.038504 307.584 
L 146.038504 273.377406 
L 138.980797 273.377406 
z
" clip-path="url(#p9e3f0f19cf)" style="fill: #1f77b4"/>
   </g>
   <g id="patch_12">
    <path d="M 147.124305 307.584 
L 154.182013 307.584 
L 154.182013 272.693953 
L 147.124305 272.693953 
z
" clip-path="url(#p9e3f0f19cf)" style="fill: #1f77b4"/>
   </g>
   <g id="patch_13">
    <path d="M 155.267814 307.584 
L 162.325521 307.584 
L 162.325521 272.018596 
L 155.267814 272.018596 
z
" clip-path="url(#p9e3f0f19cf)" style="fill: #1f77b4"/>
   </g>
   <g id="patch_14">
    <path d="M 163.411323 307.584 
L 170.46903 307.584 
L 170.46903 271.351286 
L 163.411323 271.351286 
z
" clip-path="url(#p9e3f0f19cf)" style="fill: #1f77b4"/>
   </g>
   <g id="patch_15">
    <path d="M 171.554831 307.584 
L 178.612539 307.584 
L 178.612539 270.691971 
L 171.554831 270.691971 
z
" clip-path="url(#p9e3f0f19cf)" style="fill: #1f77b4"/>
   </g>
   <g id="patch_16">
    <path d="M 179.69834 307.584 
L 186.756047 307.584 
L 186.756047 270.040579 
L 179.69834 270.040579 
z
" clip-path="url(#p9e3f0f19cf)" style="fill: #1f77b4"/>
   </g>
   <g id="patch_17">
    <path d="M 187.841849 307.584 
L 194.899556 307.584 
L 194.899556 269.397035 
L 187.841849 269.397035 
z
" clip-path="url(#p9e3f0f19cf)" style="fill: #1f77b4"/>
   </g>
   <g id="patch_18">
    <path d="M 195.985357 307.584 
L 203.043065 307.584 
L 203.043065 268.761252 
L 195.985357 268.761252 
z
" clip-path="url(#p9e3f0f19cf)" style="fill: #1f77b4"/>
   </g>
   <g id="patch_19">
    <path d="M 204.128866 307.584 
L 211.186573 307.584 
L 211.186573 268.13314 
L 204.128866 268.13314 
z
" clip-path="url(#p9e3f0f19cf)" style="fill: #1f77b4"/>
   </g>
   <g id="patch_20">
    <path d="M 212.272375 307.584 
L 219.330082 307.584 
L 219.330082 267.512604 
L 212.272375 267.512604 
z
" clip-path="url(#p9e3f0f19cf)" style="fill: #1f77b4"/>
   </g>
   <g id="patch_21">
    <path d="M 220.415883 307.584 
L 227.473591 307.584 
L 227.473591 266.899546 
L 220.415883 266.899546 
z
" clip-path="url(#p9e3f0f19cf)" style="fill: #1f77b4"/>
   </g>
   <g id="patch_22">
    <path d="M 228.559392 307.584 
L 235.617099 307.584 
L 235.617099 266.293867 
L 228.559392 266.293867 
z
" clip-path="url(#p9e3f0f19cf)" style="fill: #1f77b4"/>
   </g>
   <g id="patch_23">
    <path d="M 236.702901 307.584 
L 243.760608 307.584 
L 243.760608 265.695465 
L 236.702901 265.695465 
z
" clip-path="url(#p9e3f0f19cf)" style="fill: #1f77b4"/>
   </g>
   <g id="patch_24">
    <path d="M 244.846409 307.584 
L 251.904117 307.584 
L 251.904117 265.104241 
L 244.846409 265.104241 
z
" clip-path="url(#p9e3f0f19cf)" style="fill: #1f77b4"/>
   </g>
   <g id="patch_25">
    <path d="M 252.989918 307.584 
L 260.047625 307.584 
L 260.047625 264.52009 
L 252.989918 264.52009 
z
" clip-path="url(#p9e3f0f19cf)" style="fill: #1f77b4"/>
   </g>
   <g id="patch_26">
    <path d="M 261.133427 307.584 
L 268.191134 307.584 
L 268.191134 263.942913 
L 261.133427 263.942913 
z
" clip-path="url(#p9e3f0f19cf)" style="fill: #1f77b4"/>
   </g>
   <g id="patch_27">
    <path d="M 269.276935 307.584 
L 276.334643 307.584 
L 276.334643 263.372607 
L 269.276935 263.372607 
z
" clip-path="url(#p9e3f0f19cf)" style="fill: #1f77b4"/>
   </g>
   <g id="patch_28">
    <path d="M 277.420444 307.584 
L 284.478151 307.584 
L 284.478151 262.809071 
L 277.420444 262.809071 
z
" clip-path="url(#p9e3f0f19cf)" style="fill: #1f77b4"/>
   </g>
   <g id="patch_29">
    <path d="M 285.563953 307.584 
L 292.62166 307.584 
L 292.62166 262.252207 
L 285.563953 262.252207 
z
" clip-path="url(#p9e3f0f19cf)" style="fill: #1f77b4"/>
   </g>
   <g id="patch_30">
    <path d="M 293.707461 307.584 
L 300.765169 307.584 
L 300.765169 261.701914 
L 293.707461 261.701914 
z
" clip-path="url(#p9e3f0f19cf)" style="fill: #1f77b4"/>
   </g>
   <g id="patch_31">
    <path d="M 301.85097 307.584 
L 308.908677 307.584 
L 308.908677 261.158095 
L 301.85097 261.158095 
z
" clip-path="url(#p9e3f0f19cf)" style="fill: #1f77b4"/>
   </g>
   <g id="patch_32">
    <path d="M 309.994479 307.584 
L 317.052186 307.584 
L 317.052186 260.620654 
L 309.994479 260.620654 
z
" clip-path="url(#p9e3f0f19cf)" style="fill: #1f77b4"/>
   </g>
   <g id="patch_33">
    <path d="M 318.137987 307.584 
L 325.195695 307.584 
L 325.195695 260.089494 
L 318.137987 260.089494 
z
" clip-path="url(#p9e3f0f19cf)" style="fill: #1f77b4"/>
   </g>
   <g id="patch_34">
    <path d="M 326.281496 307.584 
L 333.339203 307.584 
L 333.339203 259.564523 
L 326.281496 259.564523 
z
" clip-path="url(#p9e3f0f19cf)" style="fill: #1f77b4"/>
   </g>
   <g id="patch_35">
    <path d="M 334.425005 307.584 
L 341.482712 307.584 
L 341.482712 259.045647 
L 334.425005 259.045647 
z
" clip-path="url(#p9e3f0f19cf)" style="fill: #1f77b4"/>
   </g>
   <g id="patch_36">
    <path d="M 342.568513 307.584 
L 349.626221 307.584 
L 349.626221 258.532775 
L 342.568513 258.532775 
z
" clip-path="url(#p9e3f0f19cf)" style="fill: #1f77b4"/>
   </g>
   <g id="patch_37">
    <path d="M 350.712022 307.584 
L 357.769729 307.584 
L 357.769729 258.025816 
L 350.712022 258.025816 
z
" clip-path="url(#p9e3f0f19cf)" style="fill: #1f77b4"/>
   </g>
   <g id="patch_38">
    <path d="M 358.855531 307.584 
L 365.913238 307.584 
L 365.913238 257.524684 
L 358.855531 257.524684 
z
" clip-path="url(#p9e3f0f19cf)" style="fill: #1f77b4"/>
   </g>
   <g id="patch_39">
    <path d="M 366.999039 307.584 
L 374.056747 307.584 
L 374.056747 257.02929 
L 366.999039 257.02929 
z
" clip-path="url(#p9e3f0f19cf)" style="fill: #1f77b4"/>
   </g>
   <g id="patch_40">
    <path d="M 375.142548 307.584 
L 382.200255 307.584 
L 382.200255 256.53955 
L 375.142548 256.53955 
z
" clip-path="url(#p9e3f0f19cf)" style="fill: #1f77b4"/>
   </g>
   <g id="patch_41">
    <path d="M 383.286057 307.584 
L 390.343764 307.584 
L 390.343764 256.055378 
L 383.286057 256.055378 
z
" clip-path="url(#p9e3f0f19cf)" style="fill: #1f77b4"/>
   </g>
   <g id="patch_42">
    <path d="M 391.429565 307.584 
L 398.487273 307.584 
L 398.487273 255.576693 
L 391.429565 255.576693 
z
" clip-path="url(#p9e3f0f19cf)" style="fill: #1f77b4"/>
   </g>
   <g id="patch_43">
    <path d="M 73.832727 279.128877 
L 80.890435 279.128877 
L 80.890435 263.81117 
L 73.832727 263.81117 
z
" clip-path="url(#p9e3f0f19cf)" style="fill: #ff7f0e"/>
   </g>
   <g id="patch_44">
    <path d="M 81.976236 278.384382 
L 89.033943 278.384382 
L 89.033943 263.06056 
L 81.976236 263.06056 
z
" clip-path="url(#p9e3f0f19cf)" style="fill: #ff7f0e"/>
   </g>
   <g id="patch_45">
    <path d="M 90.119745 277.646352 
L 97.177452 277.646352 
L 97.177452 262.318407 
L 90.119745 262.318407 
z
" clip-path="url(#p9e3f0f19cf)" style="fill: #ff7f0e"/>
   </g>
   <g id="patch_46">
    <path d="M 98.263253 276.915413 
L 105.320961 276.915413 
L 105.320961 261.584958 
L 98.263253 261.584958 
z
" clip-path="url(#p9e3f0f19cf)" style="fill: #ff7f0e"/>
   </g>
   <g id="patch_47">
    <path d="M 106.406762 276.191981 
L 113.464469 276.191981 
L 113.464469 260.860346 
L 106.406762 260.860346 
z
" clip-path="url(#p9e3f0f19cf)" style="fill: #ff7f0e"/>
   </g>
   <g id="patch_48">
    <path d="M 114.550271 275.476326 
L 121.607978 275.476326 
L 121.607978 260.144623 
L 114.550271 260.144623 
z
" clip-path="url(#p9e3f0f19cf)" style="fill: #ff7f0e"/>
   </g>
   <g id="patch_49">
    <path d="M 122.693779 274.76862 
L 129.751487 274.76862 
L 129.751487 259.437789 
L 122.693779 259.437789 
z
" clip-path="url(#p9e3f0f19cf)" style="fill: #ff7f0e"/>
   </g>
   <g id="patch_50">
    <path d="M 130.837288 274.068964 
L 137.894995 274.068964 
L 137.894995 258.739803 
L 130.837288 258.739803 
z
" clip-path="url(#p9e3f0f19cf)" style="fill: #ff7f0e"/>
   </g>
   <g id="patch_51">
    <path d="M 138.980797 273.377406 
L 146.038504 273.377406 
L 146.038504 258.050601 
L 138.980797 258.050601 
z
" clip-path="url(#p9e3f0f19cf)" style="fill: #ff7f0e"/>
   </g>
   <g id="patch_52">
    <path d="M 147.124305 272.693953 
L 154.182013 272.693953 
L 154.182013 257.3701 
L 147.124305 257.3701 
z
" clip-path="url(#p9e3f0f19cf)" style="fill: #ff7f0e"/>
   </g>
   <g id="patch_53">
    <path d="M 155.267814 272.018596 
L 162.325521 272.018596 
L 162.325521 256.698208 
L 155.267814 256.698208 
z
" clip-path="url(#p9e3f0f19cf)" style="fill: #ff7f0e"/>
   </g>
   <g id="patch_54">
    <path d="M 163.411323 271.351286 
L 170.46903 271.351286 
L 170.46903 256.034814 
L 163.411323 256.034814 
z
" clip-path="url(#p9e3f0f19cf)" style="fill: #ff7f0e"/>
   </g>
   <g id="patch_55">
    <path d="M 171.554831 270.691971 
L 178.612539 270.691971 
L 178.612539 255.379809 
L 171.554831 255.379809 
z
" clip-path="url(#p9e3f0f19cf)" style="fill: #ff7f0e"/>
   </g>
   <g id="patch_56">
    <path d="M 179.69834 270.040579 
L 186.756047 270.040579 
L 186.756047 254.733074 
L 179.69834 254.733074 
z
" clip-path="url(#p9e3f0f19cf)" style="fill: #ff7f0e"/>
   </g>
   <g id="patch_57">
    <path d="M 187.841849 269.397035 
L 194.899556 269.397035 
L 194.899556 254.094491 
L 187.841849 254.094491 
z
" clip-path="url(#p9e3f0f19cf)" style="fill: #ff7f0e"/>
   </g>
   <g id="patch_58">
    <path d="M 195.985357 268.761252 
L 203.043065 268.761252 
L 203.043065 253.463938 
L 195.985357 253.463938 
z
" clip-path="url(#p9e3f0f19cf)" style="fill: #ff7f0e"/>
   </g>
   <g id="patch_59">
    <path d="M 204.128866 268.13314 
L 211.186573 268.13314 
L 211.186573 252.841294 
L 204.128866 252.841294 
z
" clip-path="url(#p9e3f0f19cf)" style="fill: #ff7f0e"/>
   </g>
   <g id="patch_60">
    <path d="M 212.272375 267.512604 
L 219.330082 267.512604 
L 219.330082 252.226435 
L 212.272375 252.226435 
z
" clip-path="url(#p9e3f0f19cf)" style="fill: #ff7f0e"/>
   </g>
   <g id="patch_61">
    <path d="M 220.415883 266.899546 
L 227.473591 266.899546 
L 227.473591 251.619241 
L 220.415883 251.619241 
z
" clip-path="url(#p9e3f0f19cf)" style="fill: #ff7f0e"/>
   </g>
   <g id="patch_62">
    <path d="M 228.559392 266.293867 
L 235.617099 266.293867 
L 235.617099 251.01959 
L 228.559392 251.01959 
z
" clip-path="url(#p9e3f0f19cf)" style="fill: #ff7f0e"/>
   </g>
   <g id="patch_63">
    <path d="M 236.702901 265.695465 
L 243.760608 265.695465 
L 243.760608 250.427363 
L 236.702901 250.427363 
z
" clip-path="url(#p9e3f0f19cf)" style="fill: #ff7f0e"/>
   </g>
   <g id="patch_64">
    <path d="M 244.846409 265.104241 
L 251.904117 265.104241 
L 251.904117 249.84244 
L 244.846409 249.84244 
z
" clip-path="url(#p9e3f0f19cf)" style="fill: #ff7f0e"/>
   </g>
   <g id="patch_65">
    <path d="M 252.989918 264.52009 
L 260.047625 264.52009 
L 260.047625 249.264706 
L 252.989918 249.264706 
z
" clip-path="url(#p9e3f0f19cf)" style="fill: #ff7f0e"/>
   </g>
   <g id="patch_66">
    <path d="M 261.133427 263.942913 
L 268.191134 263.942913 
L 268.191134 248.694044 
L 261.133427 248.694044 
z
" clip-path="url(#p9e3f0f19cf)" style="fill: #ff7f0e"/>
   </g>
   <g id="patch_67">
    <path d="M 269.276935 263.372607 
L 276.334643 263.372607 
L 276.334643 248.130341 
L 269.276935 248.130341 
z
" clip-path="url(#p9e3f0f19cf)" style="fill: #ff7f0e"/>
   </g>
   <g id="patch_68">
    <path d="M 277.420444 262.809071 
L 284.478151 262.809071 
L 284.478151 247.573486 
L 277.420444 247.573486 
z
" clip-path="url(#p9e3f0f19cf)" style="fill: #ff7f0e"/>
   </g>
   <g id="patch_69">
    <path d="M 285.563953 262.252207 
L 292.62166 262.252207 
L 292.62166 247.023368 
L 285.563953 247.023368 
z
" clip-path="url(#p9e3f0f19cf)" style="fill: #ff7f0e"/>
   </g>
   <g id="patch_70">
    <path d="M 293.707461 261.701914 
L 300.765169 261.701914 
L 300.765169 246.47988 
L 293.707461 246.47988 
z
" clip-path="url(#p9e3f0f19cf)" style="fill: #ff7f0e"/>
   </g>
   <g id="patch_71">
    <path d="M 301.85097 261.158095 
L 308.908677 261.158095 
L 308.908677 245.942916 
L 301.85097 245.942916 
z
" clip-path="url(#p9e3f0f19cf)" style="fill: #ff7f0e"/>
   </g>
   <g id="patch_72">
    <path d="M 309.994479 260.620654 
L 317.052186 260.620654 
L 317.052186 245.412371 
L 309.994479 245.412371 
z
" clip-path="url(#p9e3f0f19cf)" style="fill: #ff7f0e"/>
   </g>
   <g id="patch_73">
    <path d="M 318.137987 260.089494 
L 325.195695 260.089494 
L 325.195695 244.888145 
L 318.137987 244.888145 
z
" clip-path="url(#p9e3f0f19cf)" style="fill: #ff7f0e"/>
   </g>
   <g id="patch_74">
    <path d="M 326.281496 259.564523 
L 333.339203 259.564523 
L 333.339203 244.370136 
L 326.281496 244.370136 
z
" clip-path="url(#p9e3f0f19cf)" style="fill: #ff7f0e"/>
   </g>
   <g id="patch_75">
    <path d="M 334.425005 259.045647 
L 341.482712 259.045647 
L 341.482712 243.858246 
L 334.425005 243.858246 
z
" clip-path="url(#p9e3f0f19cf)" style="fill: #ff7f0e"/>
   </g>
   <g id="patch_76">
    <path d="M 342.568513 258.532775 
L 349.626221 258.532775 
L 349.626221 243.352379 
L 342.568513 243.352379 
z
" clip-path="url(#p9e3f0f19cf)" style="fill: #ff7f0e"/>
   </g>
   <g id="patch_77">
    <path d="M 350.712022 258.025816 
L 357.769729 258.025816 
L 357.769729 242.85244 
L 350.712022 242.85244 
z
" clip-path="url(#p9e3f0f19cf)" style="fill: #ff7f0e"/>
   </g>
   <g id="patch_78">
    <path d="M 358.855531 257.524684 
L 365.913238 257.524684 
L 365.913238 242.358338 
L 358.855531 242.358338 
z
" clip-path="url(#p9e3f0f19cf)" style="fill: #ff7f0e"/>
   </g>
   <g id="patch_79">
    <path d="M 366.999039 257.02929 
L 374.056747 257.02929 
L 374.056747 241.86998 
L 366.999039 241.86998 
z
" clip-path="url(#p9e3f0f19cf)" style="fill: #ff7f0e"/>
   </g>
   <g id="patch_80">
    <path d="M 375.142548 256.53955 
L 382.200255 256.53955 
L 382.200255 241.387279 
L 375.142548 241.387279 
z
" clip-path="url(#p9e3f0f19cf)" style="fill: #ff7f0e"/>
   </g>
   <g id="patch_81">
    <path d="M 383.286057 256.055378 
L 390.343764 256.055378 
L 390.343764 240.910146 
L 383.286057 240.910146 
z
" clip-path="url(#p9e3f0f19cf)" style="fill: #ff7f0e"/>
   </g>
   <g id="patch_82">
    <path d="M 391.429565 255.576693 
L 398.487273 255.576693 
L 398.487273 240.438496 
L 391.429565 240.438496 
z
" clip-path="url(#p9e3f0f19cf)" style="fill: #ff7f0e"/>
   </g>
   <g id="patch_83">
    <path d="M 73.832727 263.81117 
L 80.890435 263.81117 
L 80.890435 208.115515 
L 73.832727 208.115515 
z
" clip-path="url(#p9e3f0f19cf)" style="fill: #2ca02c"/>
   </g>
   <g id="patch_84">
    <path d="M 81.976236 263.06056 
L 89.033943 263.06056 
L 89.033943 207.784882 
L 81.976236 207.784882 
z
" clip-path="url(#p9e3f0f19cf)" style="fill: #2ca02c"/>
   </g>
   <g id="patch_85">
    <path d="M 90.119745 262.318407 
L 97.177452 262.318407 
L 97.177452 207.416286 
L 90.119745 207.416286 
z
" clip-path="url(#p9e3f0f19cf)" style="fill: #2ca02c"/>
   </g>
   <g id="patch_86">
    <path d="M 98.263253 261.584958 
L 105.320961 261.584958 
L 105.320961 207.017894 
L 98.263253 207.017894 
z
" clip-path="url(#p9e3f0f19cf)" style="fill: #2ca02c"/>
   </g>
   <g id="patch_87">
    <path d="M 106.406762 260.860346 
L 113.464469 260.860346 
L 113.464469 206.595818 
L 106.406762 206.595818 
z
" clip-path="url(#p9e3f0f19cf)" style="fill: #2ca02c"/>
   </g>
   <g id="patch_88">
    <path d="M 114.550271 260.144623 
L 121.607978 260.144623 
L 121.607978 206.154741 
L 114.550271 206.154741 
z
" clip-path="url(#p9e3f0f19cf)" style="fill: #2ca02c"/>
   </g>
   <g id="patch_89">
    <path d="M 122.693779 259.437789 
L 129.751487 259.437789 
L 129.751487 205.698334 
L 122.693779 205.698334 
z
" clip-path="url(#p9e3f0f19cf)" style="fill: #2ca02c"/>
   </g>
   <g id="patch_90">
    <path d="M 130.837288 258.739803 
L 137.894995 258.739803 
L 137.894995 205.229522 
L 130.837288 205.229522 
z
" clip-path="url(#p9e3f0f19cf)" style="fill: #2ca02c"/>
   </g>
   <g id="patch_91">
    <path d="M 138.980797 258.050601 
L 146.038504 258.050601 
L 146.038504 204.750669 
L 138.980797 204.750669 
z
" clip-path="url(#p9e3f0f19cf)" style="fill: #2ca02c"/>
   </g>
   <g id="patch_92">
    <path d="M 147.124305 257.3701 
L 154.182013 257.3701 
L 154.182013 204.263716 
L 147.124305 204.263716 
z
" clip-path="url(#p9e3f0f19cf)" style="fill: #2ca02c"/>
   </g>
   <g id="patch_93">
    <path d="M 155.267814 256.698208 
L 162.325521 256.698208 
L 162.325521 203.770274 
L 155.267814 203.770274 
z
" clip-path="url(#p9e3f0f19cf)" style="fill: #2ca02c"/>
   </g>
   <g id="patch_94">
    <path d="M 163.411323 256.034814 
L 170.46903 256.034814 
L 170.46903 203.271649 
L 163.411323 203.271649 
z
" clip-path="url(#p9e3f0f19cf)" style="fill: #2ca02c"/>
   </g>
   <g id="patch_95">
    <path d="M 171.554831 255.379809 
L 178.612539 255.379809 
L 178.612539 202.769008 
L 171.554831 202.769008 
z
" clip-path="url(#p9e3f0f19cf)" style="fill: #2ca02c"/>
   </g>
   <g id="patch_96">
    <path d="M 179.69834 254.733074 
L 186.756047 254.733074 
L 186.756047 202.263283 
L 179.69834 202.263283 
z
" clip-path="url(#p9e3f0f19cf)" style="fill: #2ca02c"/>
   </g>
   <g id="patch_97">
    <path d="M 187.841849 254.094491 
L 194.899556 254.094491 
L 194.899556 201.755293 
L 187.841849 201.755293 
z
" clip-path="url(#p9e3f0f19cf)" style="fill: #2ca02c"/>
   </g>
   <g id="patch_98">
    <path d="M 195.985357 253.463938 
L 203.043065 253.463938 
L 203.043065 201.245736 
L 195.985357 201.245736 
z
" clip-path="url(#p9e3f0f19cf)" style="fill: #2ca02c"/>
   </g>
   <g id="patch_99">
    <path d="M 204.128866 252.841294 
L 211.186573 252.841294 
L 211.186573 200.735213 
L 204.128866 200.735213 
z
" clip-path="url(#p9e3f0f19cf)" style="fill: #2ca02c"/>
   </g>
   <g id="patch_100">
    <path d="M 212.272375 252.226435 
L 219.330082 252.226435 
L 219.330082 200.224241 
L 212.272375 200.224241 
z
" clip-path="url(#p9e3f0f19cf)" style="fill: #2ca02c"/>
   </g>
   <g id="patch_101">
    <path d="M 220.415883 251.619241 
L 227.473591 251.619241 
L 227.473591 199.713273 
L 220.415883 199.713273 
z
" clip-path="url(#p9e3f0f19cf)" style="fill: #2ca02c"/>
   </g>
   <g id="patch_102">
    <path d="M 228.559392 251.01959 
L 235.617099 251.01959 
L 235.617099 199.202697 
L 228.559392 199.202697 
z
" clip-path="url(#p9e3f0f19cf)" style="fill: #2ca02c"/>
   </g>
   <g id="patch_103">
    <path d="M 236.702901 250.427363 
L 243.760608 250.427363 
L 243.760608 198.692857 
L 236.702901 198.692857 
z
" clip-path="url(#p9e3f0f19cf)" style="fill: #2ca02c"/>
   </g>
   <g id="patch_104">
    <path d="M 244.846409 249.84244 
L 251.904117 249.84244 
L 251.904117 198.184049 
L 244.846409 198.184049 
z
" clip-path="url(#p9e3f0f19cf)" style="fill: #2ca02c"/>
   </g>
   <g id="patch_105">
    <path d="M 252.989918 249.264706 
L 260.047625 249.264706 
L 260.047625 197.676534 
L 252.989918 197.676534 
z
" clip-path="url(#p9e3f0f19cf)" style="fill: #2ca02c"/>
   </g>
   <g id="patch_106">
    <path d="M 261.133427 248.694044 
L 268.191134 248.694044 
L 268.191134 197.170541 
L 261.133427 197.170541 
z
" clip-path="url(#p9e3f0f19cf)" style="fill: #2ca02c"/>
   </g>
   <g id="patch_107">
    <path d="M 269.276935 248.130341 
L 276.334643 248.130341 
L 276.334643 196.666269 
L 269.276935 196.666269 
z
" clip-path="url(#p9e3f0f19cf)" style="fill: #2ca02c"/>
   </g>
   <g id="patch_108">
    <path d="M 277.420444 247.573486 
L 284.478151 247.573486 
L 284.478151 196.163893 
L 277.420444 196.163893 
z
" clip-path="url(#p9e3f0f19cf)" style="fill: #2ca02c"/>
   </g>
   <g id="patch_109">
    <path d="M 285.563953 247.023368 
L 292.62166 247.023368 
L 292.62166 195.663567 
L 285.563953 195.663567 
z
" clip-path="url(#p9e3f0f19cf)" style="fill: #2ca02c"/>
   </g>
   <g id="patch_110">
    <path d="M 293.707461 246.47988 
L 300.765169 246.47988 
L 300.765169 195.165426 
L 293.707461 195.165426 
z
" clip-path="url(#p9e3f0f19cf)" style="fill: #2ca02c"/>
   </g>
   <g id="patch_111">
    <path d="M 301.85097 245.942916 
L 308.908677 245.942916 
L 308.908677 194.669587 
L 301.85097 194.669587 
z
" clip-path="url(#p9e3f0f19cf)" style="fill: #2ca02c"/>
   </g>
   <g id="patch_112">
    <path d="M 309.994479 245.412371 
L 317.052186 245.412371 
L 317.052186 194.176152 
L 309.994479 194.176152 
z
" clip-path="url(#p9e3f0f19cf)" style="fill: #2ca02c"/>
   </g>
   <g id="patch_113">
    <path d="M 318.137987 244.888145 
L 325.195695 244.888145 
L 325.195695 193.685212 
L 318.137987 193.685212 
z
" clip-path="url(#p9e3f0f19cf)" style="fill: #2ca02c"/>
   </g>
   <g id="patch_114">
    <path d="M 326.281496 244.370136 
L 333.339203 244.370136 
L 333.339203 193.196845 
L 326.281496 193.196845 
z
" clip-path="url(#p9e3f0f19cf)" style="fill: #2ca02c"/>
   </g>
   <g id="patch_115">
    <path d="M 334.425005 243.858246 
L 341.482712 243.858246 
L 341.482712 192.711116 
L 334.425005 192.711116 
z
" clip-path="url(#p9e3f0f19cf)" style="fill: #2ca02c"/>
   </g>
   <g id="patch_116">
    <path d="M 342.568513 243.352379 
L 349.626221 243.352379 
L 349.626221 192.228086 
L 342.568513 192.228086 
z
" clip-path="url(#p9e3f0f19cf)" style="fill: #2ca02c"/>
   </g>
   <g id="patch_117">
    <path d="M 350.712022 242.85244 
L 357.769729 242.85244 
L 357.769729 191.747802 
L 350.712022 191.747802 
z
" clip-path="url(#p9e3f0f19cf)" style="fill: #2ca02c"/>
   </g>
   <g id="patch_118">
    <path d="M 358.855531 242.358338 
L 365.913238 242.358338 
L 365.913238 191.270308 
L 358.855531 191.270308 
z
" clip-path="url(#p9e3f0f19cf)" style="fill: #2ca02c"/>
   </g>
   <g id="patch_119">
    <path d="M 366.999039 241.86998 
L 374.056747 241.86998 
L 374.056747 190.795639 
L 366.999039 190.795639 
z
" clip-path="url(#p9e3f0f19cf)" style="fill: #2ca02c"/>
   </g>
   <g id="patch_120">
    <path d="M 375.142548 241.387279 
L 382.200255 241.387279 
L 382.200255 190.323823 
L 375.142548 190.323823 
z
" clip-path="url(#p9e3f0f19cf)" style="fill: #2ca02c"/>
   </g>
   <g id="patch_121">
    <path d="M 383.286057 240.910146 
L 390.343764 240.910146 
L 390.343764 189.854886 
L 383.286057 189.854886 
z
" clip-path="url(#p9e3f0f19cf)" style="fill: #2ca02c"/>
   </g>
   <g id="patch_122">
    <path d="M 391.429565 240.438496 
L 398.487273 240.438496 
L 398.487273 189.388847 
L 391.429565 189.388847 
z
" clip-path="url(#p9e3f0f19cf)" style="fill: #2ca02c"/>
   </g>
   <g id="patch_123">
    <path d="M 73.832727 208.115515 
L 80.890435 208.115515 
L 80.890435 120.724596 
L 73.832727 120.724596 
z
" clip-path="url(#p9e3f0f19cf)" style="fill: #d62728"/>
   </g>
   <g id="patch_124">
    <path d="M 81.976236 207.784882 
L 89.033943 207.784882 
L 89.033943 120.497681 
L 81.976236 120.497681 
z
" clip-path="url(#p9e3f0f19cf)" style="fill: #d62728"/>
   </g>
   <g id="patch_125">
    <path d="M 90.119745 207.416286 
L 97.177452 207.416286 
L 97.177452 120.216213 
L 90.119745 120.216213 
z
" clip-path="url(#p9e3f0f19cf)" style="fill: #d62728"/>
   </g>
   <g id="patch_126">
    <path d="M 98.263253 207.017894 
L 105.320961 207.017894 
L 105.320961 119.891469 
L 98.263253 119.891469 
z
" clip-path="url(#p9e3f0f19cf)" style="fill: #d62728"/>
   </g>
   <g id="patch_127">
    <path d="M 106.406762 206.595818 
L 113.464469 206.595818 
L 113.464469 119.531901 
L 106.406762 119.531901 
z
" clip-path="url(#p9e3f0f19cf)" style="fill: #d62728"/>
   </g>
   <g id="patch_128">
    <path d="M 114.550271 206.154741 
L 121.607978 206.154741 
L 121.607978 119.143996 
L 114.550271 119.143996 
z
" clip-path="url(#p9e3f0f19cf)" style="fill: #d62728"/>
   </g>
   <g id="patch_129">
    <path d="M 122.693779 205.698334 
L 129.751487 205.698334 
L 129.751487 118.732848 
L 122.693779 118.732848 
z
" clip-path="url(#p9e3f0f19cf)" style="fill: #d62728"/>
   </g>
   <g id="patch_130">
    <path d="M 130.837288 205.229522 
L 137.894995 205.229522 
L 137.894995 118.302528 
L 130.837288 118.302528 
z
" clip-path="url(#p9e3f0f19cf)" style="fill: #d62728"/>
   </g>
   <g id="patch_131">
    <path d="M 138.980797 204.750669 
L 146.038504 204.750669 
L 146.038504 117.856333 
L 138.980797 117.856333 
z
" clip-path="url(#p9e3f0f19cf)" style="fill: #d62728"/>
   </g>
   <g id="patch_132">
    <path d="M 147.124305 204.263716 
L 154.182013 204.263716 
L 154.182013 117.396978 
L 147.124305 117.396978 
z
" clip-path="url(#p9e3f0f19cf)" style="fill: #d62728"/>
   </g>
   <g id="patch_133">
    <path d="M 155.267814 203.770274 
L 162.325521 203.770274 
L 162.325521 116.926719 
L 155.267814 116.926719 
z
" clip-path="url(#p9e3f0f19cf)" style="fill: #d62728"/>
   </g>
   <g id="patch_134">
    <path d="M 163.411323 203.271649 
L 170.46903 203.271649 
L 170.46903 116.447413 
L 163.411323 116.447413 
z
" clip-path="url(#p9e3f0f19cf)" style="fill: #d62728"/>
   </g>
   <g id="patch_135">
    <path d="M 171.554831 202.769008 
L 178.612539 202.769008 
L 178.612539 115.960645 
L 171.554831 115.960645 
z
" clip-path="url(#p9e3f0f19cf)" style="fill: #d62728"/>
   </g>
   <g id="patch_136">
    <path d="M 179.69834 202.263283 
L 186.756047 202.263283 
L 186.756047 115.467784 
L 179.69834 115.467784 
z
" clip-path="url(#p9e3f0f19cf)" style="fill: #d62728"/>
   </g>
   <g id="patch_137">
    <path d="M 187.841849 201.755293 
L 194.899556 201.755293 
L 194.899556 114.969981 
L 187.841849 114.969981 
z
" clip-path="url(#p9e3f0f19cf)" style="fill: #d62728"/>
   </g>
   <g id="patch_138">
    <path d="M 195.985357 201.245736 
L 203.043065 201.245736 
L 203.043065 114.46823 
L 195.985357 114.46823 
z
" clip-path="url(#p9e3f0f19cf)" style="fill: #d62728"/>
   </g>
   <g id="patch_139">
    <path d="M 204.128866 200.735213 
L 211.186573 200.735213 
L 211.186573 113.963392 
L 204.128866 113.963392 
z
" clip-path="url(#p9e3f0f19cf)" style="fill: #d62728"/>
   </g>
   <g id="patch_140">
    <path d="M 212.272375 200.224241 
L 219.330082 200.224241 
L 219.330082 113.456211 
L 212.272375 113.456211 
z
" clip-path="url(#p9e3f0f19cf)" style="fill: #d62728"/>
   </g>
   <g id="patch_141">
    <path d="M 220.415883 199.713273 
L 227.473591 199.713273 
L 227.473591 112.947341 
L 220.415883 112.947341 
z
" clip-path="url(#p9e3f0f19cf)" style="fill: #d62728"/>
   </g>
   <g id="patch_142">
    <path d="M 228.559392 199.202697 
L 235.617099 199.202697 
L 235.617099 112.437348 
L 228.559392 112.437348 
z
" clip-path="url(#p9e3f0f19cf)" style="fill: #d62728"/>
   </g>
   <g id="patch_143">
    <path d="M 236.702901 198.692857 
L 243.760608 198.692857 
L 243.760608 111.926732 
L 236.702901 111.926732 
z
" clip-path="url(#p9e3f0f19cf)" style="fill: #d62728"/>
   </g>
   <g id="patch_144">
    <path d="M 244.846409 198.184049 
L 251.904117 198.184049 
L 251.904117 111.415931 
L 244.846409 111.415931 
z
" clip-path="url(#p9e3f0f19cf)" style="fill: #d62728"/>
   </g>
   <g id="patch_145">
    <path d="M 252.989918 197.676534 
L 260.047625 197.676534 
L 260.047625 110.905331 
L 252.989918 110.905331 
z
" clip-path="url(#p9e3f0f19cf)" style="fill: #d62728"/>
   </g>
   <g id="patch_146">
    <path d="M 261.133427 197.170541 
L 268.191134 197.170541 
L 268.191134 110.395274 
L 261.133427 110.395274 
z
" clip-path="url(#p9e3f0f19cf)" style="fill: #d62728"/>
   </g>
   <g id="patch_147">
    <path d="M 269.276935 196.666269 
L 276.334643 196.666269 
L 276.334643 109.88606 
L 269.276935 109.88606 
z
" clip-path="url(#p9e3f0f19cf)" style="fill: #d62728"/>
   </g>
   <g id="patch_148">
    <path d="M 277.420444 196.163893 
L 284.478151 196.163893 
L 284.478151 109.377956 
L 277.420444 109.377956 
z
" clip-path="url(#p9e3f0f19cf)" style="fill: #d62728"/>
   </g>
   <g id="patch_149">
    <path d="M 285.563953 195.663567 
L 292.62166 195.663567 
L 292.62166 108.871197 
L 285.563953 108.871197 
z
" clip-path="url(#p9e3f0f19cf)" style="fill: #d62728"/>
   </g>
   <g id="patch_150">
    <path d="M 293.707461 195.165426 
L 300.765169 195.165426 
L 300.765169 108.365992 
L 293.707461 108.365992 
z
" clip-path="url(#p9e3f0f19cf)" style="fill: #d62728"/>
   </g>
   <g id="patch_151">
    <path d="M 301.85097 194.669587 
L 308.908677 194.669587 
L 308.908677 107.862528 
L 301.85097 107.862528 
z
" clip-path="url(#p9e3f0f19cf)" style="fill: #d62728"/>
   </g>
   <g id="patch_152">
    <path d="M 309.994479 194.176152 
L 317.052186 194.176152 
L 317.052186 107.360966 
L 309.994479 107.360966 
z
" clip-path="url(#p9e3f0f19cf)" style="fill: #d62728"/>
   </g>
   <g id="patch_153">
    <path d="M 318.137987 193.685212 
L 325.195695 193.685212 
L 325.195695 106.861454 
L 318.137987 106.861454 
z
" clip-path="url(#p9e3f0f19cf)" style="fill: #d62728"/>
   </g>
   <g id="patch_154">
    <path d="M 326.281496 193.196845 
L 333.339203 193.196845 
L 333.339203 106.364118 
L 326.281496 106.364118 
z
" clip-path="url(#p9e3f0f19cf)" style="fill: #d62728"/>
   </g>
   <g id="patch_155">
    <path d="M 334.425005 192.711116 
L 341.482712 192.711116 
L 341.482712 105.869073 
L 334.425005 105.869073 
z
" clip-path="url(#p9e3f0f19cf)" style="fill: #d62728"/>
   </g>
   <g id="patch_156">
    <path d="M 342.568513 192.228086 
L 349.626221 192.228086 
L 349.626221 105.376419 
L 342.568513 105.376419 
z
" clip-path="url(#p9e3f0f19cf)" style="fill: #d62728"/>
   </g>
   <g id="patch_157">
    <path d="M 350.712022 191.747802 
L 357.769729 191.747802 
L 357.769729 104.886243 
L 350.712022 104.886243 
z
" clip-path="url(#p9e3f0f19cf)" style="fill: #d62728"/>
   </g>
   <g id="patch_158">
    <path d="M 358.855531 191.270308 
L 365.913238 191.270308 
L 365.913238 104.398623 
L 358.855531 104.398623 
z
" clip-path="url(#p9e3f0f19cf)" style="fill: #d62728"/>
   </g>
   <g id="patch_159">
    <path d="M 366.999039 190.795639 
L 374.056747 190.795639 
L 374.056747 103.913627 
L 366.999039 103.913627 
z
" clip-path="url(#p9e3f0f19cf)" style="fill: #d62728"/>
   </g>
   <g id="patch_160">
    <path d="M 375.142548 190.323823 
L 382.200255 190.323823 
L 382.200255 103.431313 
L 375.142548 103.431313 
z
" clip-path="url(#p9e3f0f19cf)" style="fill: #d62728"/>
   </g>
   <g id="patch_161">
    <path d="M 383.286057 189.854886 
L 390.343764 189.854886 
L 390.343764 102.951731 
L 383.286057 102.951731 
z
" clip-path="url(#p9e3f0f19cf)" style="fill: #d62728"/>
   </g>
   <g id="patch_162">
    <path d="M 391.429565 189.388847 
L 398.487273 189.388847 
L 398.487273 102.474927 
L 391.429565 102.474927 
z
" clip-path="url(#p9e3f0f19cf)" style="fill: #d62728"/>
   </g>
   <g id="patch_163">
    <path d="M 73.832727 120.724596 
L 80.890435 120.724596 
L 80.890435 62.722648 
L 73.832727 62.722648 
z
" clip-path="url(#p9e3f0f19cf)" style="fill: #9467bd"/>
   </g>
   <g id="patch_164">
    <path d="M 81.976236 120.497681 
L 89.033943 120.497681 
L 89.033943 63.014847 
L 81.976236 63.014847 
z
" clip-path="url(#p9e3f0f19cf)" style="fill: #9467bd"/>
   </g>
   <g id="patch_165">
    <path d="M 90.119745 120.216213 
L 97.177452 120.216213 
L 97.177452 63.211872 
L 90.119745 63.211872 
z
" clip-path="url(#p9e3f0f19cf)" style="fill: #9467bd"/>
   </g>
   <g id="patch_166">
    <path d="M 98.263253 119.891469 
L 105.320961 119.891469 
L 105.320961 63.331766 
L 98.263253 63.331766 
z
" clip-path="url(#p9e3f0f19cf)" style="fill: #9467bd"/>
   </g>
   <g id="patch_167">
    <path d="M 106.406762 119.531901 
L 113.464469 119.531901 
L 113.464469 63.388097 
L 106.406762 63.388097 
z
" clip-path="url(#p9e3f0f19cf)" style="fill: #9467bd"/>
   </g>
   <g id="patch_168">
    <path d="M 114.550271 119.143996 
L 121.607978 119.143996 
L 121.607978 63.391327 
L 114.550271 63.391327 
z
" clip-path="url(#p9e3f0f19cf)" style="fill: #9467bd"/>
   </g>
   <g id="patch_169">
    <path d="M 122.693779 118.732848 
L 129.751487 118.732848 
L 129.751487 63.349712 
L 122.693779 63.349712 
z
" clip-path="url(#p9e3f0f19cf)" style="fill: #9467bd"/>
   </g>
   <g id="patch_170">
    <path d="M 130.837288 118.302528 
L 137.894995 118.302528 
L 137.894995 63.269877 
L 130.837288 63.269877 
z
" clip-path="url(#p9e3f0f19cf)" style="fill: #9467bd"/>
   </g>
   <g id="patch_171">
    <path d="M 138.980797 117.856333 
L 146.038504 117.856333 
L 146.038504 63.157222 
L 138.980797 63.157222 
z
" clip-path="url(#p9e3f0f19cf)" style="fill: #9467bd"/>
   </g>
   <g id="patch_172">
    <path d="M 147.124305 117.396978 
L 154.182013 117.396978 
L 154.182013 63.016207 
L 147.124305 63.016207 
z
" clip-path="url(#p9e3f0f19cf)" style="fill: #9467bd"/>
   </g>
   <g id="patch_173">
    <path d="M 155.267814 116.926719 
L 162.325521 116.926719 
L 162.325521 62.850561 
L 155.267814 62.850561 
z
" clip-path="url(#p9e3f0f19cf)" style="fill: #9467bd"/>
   </g>
   <g id="patch_174">
    <path d="M 163.411323 116.447413 
L 170.46903 116.447413 
L 170.46903 62.663426 
L 163.411323 62.663426 
z
" clip-path="url(#p9e3f0f19cf)" style="fill: #9467bd"/>
   </g>
   <g id="patch_175">
    <path d="M 171.554831 115.960645 
L 178.612539 115.960645 
L 178.612539 62.457437 
L 171.554831 62.457437 
z
" clip-path="url(#p9e3f0f19cf)" style="fill: #9467bd"/>
   </g>
   <g id="patch_176">
    <path d="M 179.69834 115.467784 
L 186.756047 115.467784 
L 186.756047 62.234916 
L 179.69834 62.234916 
z
" clip-path="url(#p9e3f0f19cf)" style="fill: #9467bd"/>
   </g>
   <g id="patch_177">
    <path d="M 187.841849 114.969981 
L 194.899556 114.969981 
L 194.899556 61.997829 
L 187.841849 61.997829 
z
" clip-path="url(#p9e3f0f19cf)" style="fill: #9467bd"/>
   </g>
   <g id="patch_178">
    <path d="M 195.985357 114.46823 
L 203.043065 114.46823 
L 203.043065 61.747891 
L 195.985357 61.747891 
z
" clip-path="url(#p9e3f0f19cf)" style="fill: #9467bd"/>
   </g>
   <g id="patch_179">
    <path d="M 204.128866 113.963392 
L 211.186573 113.963392 
L 211.186573 61.486597 
L 204.128866 61.486597 
z
" clip-path="url(#p9e3f0f19cf)" style="fill: #9467bd"/>
   </g>
   <g id="patch_180">
    <path d="M 212.272375 113.456211 
L 219.330082 113.456211 
L 219.330082 61.215262 
L 212.272375 61.215262 
z
" clip-path="url(#p9e3f0f19cf)" style="fill: #9467bd"/>
   </g>
   <g id="patch_181">
    <path d="M 220.415883 112.947341 
L 227.473591 112.947341 
L 227.473591 60.935041 
L 220.415883 60.935041 
z
" clip-path="url(#p9e3f0f19cf)" style="fill: #9467bd"/>
   </g>
   <g id="patch_182">
    <path d="M 228.559392 112.437348 
L 235.617099 112.437348 
L 235.617099 60.646958 
L 228.559392 60.646958 
z
" clip-path="url(#p9e3f0f19cf)" style="fill: #9467bd"/>
   </g>
   <g id="patch_183">
    <path d="M 236.702901 111.926732 
L 243.760608 111.926732 
L 243.760608 60.351921 
L 236.702901 60.351921 
z
" clip-path="url(#p9e3f0f19cf)" style="fill: #9467bd"/>
   </g>
   <g id="patch_184">
    <path d="M 244.846409 111.415931 
L 251.904117 111.415931 
L 251.904117 60.05074 
L 244.846409 60.05074 
z
" clip-path="url(#p9e3f0f19cf)" style="fill: #9467bd"/>
   </g>
   <g id="patch_185">
    <path d="M 252.989918 110.905331 
L 260.047625 110.905331 
L 260.047625 59.744139 
L 252.989918 59.744139 
z
" clip-path="url(#p9e3f0f19cf)" style="fill: #9467bd"/>
   </g>
   <g id="patch_186">
    <path d="M 261.133427 110.395274 
L 268.191134 110.395274 
L 268.191134 59.432765 
L 261.133427 59.432765 
z
" clip-path="url(#p9e3f0f19cf)" style="fill: #9467bd"/>
   </g>
   <g id="patch_187">
    <path d="M 269.276935 109.88606 
L 276.334643 109.88606 
L 276.334643 59.117201 
L 269.276935 59.117201 
z
" clip-path="url(#p9e3f0f19cf)" style="fill: #9467bd"/>
   </g>
   <g id="patch_188">
    <path d="M 277.420444 109.377956 
L 284.478151 109.377956 
L 284.478151 58.797972 
L 277.420444 58.797972 
z
" clip-path="url(#p9e3f0f19cf)" style="fill: #9467bd"/>
   </g>
   <g id="patch_189">
    <path d="M 285.563953 108.871197 
L 292.62166 108.871197 
L 292.62166 58.47555 
L 285.563953 58.47555 
z
" clip-path="url(#p9e3f0f19cf)" style="fill: #9467bd"/>
   </g>
   <g id="patch_190">
    <path d="M 293.707461 108.365992 
L 300.765169 108.365992 
L 300.765169 58.150364 
L 293.707461 58.150364 
z
" clip-path="url(#p9e3f0f19cf)" style="fill: #9467bd"/>
   </g>
   <g id="patch_191">
    <path d="M 301.85097 107.862528 
L 308.908677 107.862528 
L 308.908677 57.822801 
L 301.85097 57.822801 
z
" clip-path="url(#p9e3f0f19cf)" style="fill: #9467bd"/>
   </g>
   <g id="patch_192">
    <path d="M 309.994479 107.360966 
L 317.052186 107.360966 
L 317.052186 57.493213 
L 309.994479 57.493213 
z
" clip-path="url(#p9e3f0f19cf)" style="fill: #9467bd"/>
   </g>
   <g id="patch_193">
    <path d="M 318.137987 106.861454 
L 325.195695 106.861454 
L 325.195695 57.16192 
L 318.137987 57.16192 
z
" clip-path="url(#p9e3f0f19cf)" style="fill: #9467bd"/>
   </g>
   <g id="patch_194">
    <path d="M 326.281496 106.364118 
L 333.339203 106.364118 
L 333.339203 56.829211 
L 326.281496 56.829211 
z
" clip-path="url(#p9e3f0f19cf)" style="fill: #9467bd"/>
   </g>
   <g id="patch_195">
    <path d="M 334.425005 105.869073 
L 341.482712 105.869073 
L 341.482712 56.495353 
L 334.425005 56.495353 
z
" clip-path="url(#p9e3f0f19cf)" style="fill: #9467bd"/>
   </g>
   <g id="patch_196">
    <path d="M 342.568513 105.376419 
L 349.626221 105.376419 
L 349.626221 56.160585 
L 342.568513 56.160585 
z
" clip-path="url(#p9e3f0f19cf)" style="fill: #9467bd"/>
   </g>
   <g id="patch_197">
    <path d="M 350.712022 104.886243 
L 357.769729 104.886243 
L 357.769729 55.82513 
L 350.712022 55.82513 
z
" clip-path="url(#p9e3f0f19cf)" style="fill: #9467bd"/>
   </g>
   <g id="patch_198">
    <path d="M 358.855531 104.398623 
L 365.913238 104.398623 
L 365.913238 55.489187 
L 358.855531 55.489187 
z
" clip-path="url(#p9e3f0f19cf)" style="fill: #9467bd"/>
   </g>
   <g id="patch_199">
    <path d="M 366.999039 103.913627 
L 374.056747 103.913627 
L 374.056747 55.152941 
L 366.999039 55.152941 
z
" clip-path="url(#p9e3f0f19cf)" style="fill: #9467bd"/>
   </g>
   <g id="patch_200">
    <path d="M 375.142548 103.431313 
L 382.200255 103.431313 
L 382.200255 54.816561 
L 375.142548 54.816561 
z
" clip-path="url(#p9e3f0f19cf)" style="fill: #9467bd"/>
   </g>
   <g id="patch_201">
    <path d="M 383.286057 102.951731 
L 390.343764 102.951731 
L 390.343764 54.4802 
L 383.286057 54.4802 
z
" clip-path="url(#p9e3f0f19cf)" style="fill: #9467bd"/>
   </g>
   <g id="patch_202">
    <path d="M 391.429565 102.474927 
L 398.487273 102.474927 
L 398.487273 54.144 
L 391.429565 54.144 
z
" clip-path="url(#p9e3f0f19cf)" style="fill: #9467bd"/>
   </g>
   <g id="matplotlib.axis_1">
    <g id="xtick_1">
     <g id="line2d_1">
      <defs>
       <path id="mc2ce7cdf21" d="M 0 0 
L 0 3.5 
" style="stroke: #000000; stroke-width: 0.8"/>
      </defs>
      <g>
       <use xlink:href="#mc2ce7cdf21" x="112.650119" y="307.584" style="stroke: #000000; stroke-width: 0.8"/>
      </g>
     </g>
     <g id="text_1">
      <!-- 32 -->
      <g transform="translate(101.197619 328.261187) scale(0.18 -0.18)">
       <defs>
        <path id="DejaVuSans-33" d="M 2597 2516 
Q 3050 2419 3304 2112 
Q 3559 1806 3559 1356 
Q 3559 666 3084 287 
Q 2609 -91 1734 -91 
Q 1441 -91 1130 -33 
Q 819 25 488 141 
L 488 750 
Q 750 597 1062 519 
Q 1375 441 1716 441 
Q 2309 441 2620 675 
Q 2931 909 2931 1356 
Q 2931 1769 2642 2001 
Q 2353 2234 1838 2234 
L 1294 2234 
L 1294 2753 
L 1863 2753 
Q 2328 2753 2575 2939 
Q 2822 3125 2822 3475 
Q 2822 3834 2567 4026 
Q 2313 4219 1838 4219 
Q 1578 4219 1281 4162 
Q 984 4106 628 3988 
L 628 4550 
Q 988 4650 1302 4700 
Q 1616 4750 1894 4750 
Q 2613 4750 3031 4423 
Q 3450 4097 3450 3541 
Q 3450 3153 3228 2886 
Q 3006 2619 2597 2516 
z
" transform="scale(0.015625)"/>
        <path id="DejaVuSans-32" d="M 1228 531 
L 3431 531 
L 3431 0 
L 469 0 
L 469 531 
Q 828 903 1448 1529 
Q 2069 2156 2228 2338 
Q 2531 2678 2651 2914 
Q 2772 3150 2772 3378 
Q 2772 3750 2511 3984 
Q 2250 4219 1831 4219 
Q 1534 4219 1204 4116 
Q 875 4013 500 3803 
L 500 4441 
Q 881 4594 1212 4672 
Q 1544 4750 1819 4750 
Q 2544 4750 2975 4387 
Q 3406 4025 3406 3419 
Q 3406 3131 3298 2873 
Q 3191 2616 2906 2266 
Q 2828 2175 2409 1742 
Q 1991 1309 1228 531 
z
" transform="scale(0.015625)"/>
       </defs>
       <use xlink:href="#DejaVuSans-33"/>
       <use xlink:href="#DejaVuSans-32" x="63.623047"/>
      </g>
     </g>
    </g>
    <g id="xtick_2">
     <g id="line2d_2">
      <g>
       <use xlink:href="#mc2ce7cdf21" x="183.227194" y="307.584" style="stroke: #000000; stroke-width: 0.8"/>
      </g>
     </g>
     <g id="text_2">
      <!-- 34 -->
      <g transform="translate(171.774694 328.261187) scale(0.18 -0.18)">
       <defs>
        <path id="DejaVuSans-34" d="M 2419 4116 
L 825 1625 
L 2419 1625 
L 2419 4116 
z
M 2253 4666 
L 3047 4666 
L 3047 1625 
L 3713 1625 
L 3713 1100 
L 3047 1100 
L 3047 0 
L 2419 0 
L 2419 1100 
L 313 1100 
L 313 1709 
L 2253 4666 
z
" transform="scale(0.015625)"/>
       </defs>
       <use xlink:href="#DejaVuSans-33"/>
       <use xlink:href="#DejaVuSans-34" x="63.623047"/>
      </g>
     </g>
    </g>
    <g id="xtick_3">
     <g id="line2d_3">
      <g>
       <use xlink:href="#mc2ce7cdf21" x="253.804269" y="307.584" style="stroke: #000000; stroke-width: 0.8"/>
      </g>
     </g>
     <g id="text_3">
      <!-- 36 -->
      <g transform="translate(242.351769 328.261187) scale(0.18 -0.18)">
       <defs>
        <path id="DejaVuSans-36" d="M 2113 2584 
Q 1688 2584 1439 2293 
Q 1191 2003 1191 1497 
Q 1191 994 1439 701 
Q 1688 409 2113 409 
Q 2538 409 2786 701 
Q 3034 994 3034 1497 
Q 3034 2003 2786 2293 
Q 2538 2584 2113 2584 
z
M 3366 4563 
L 3366 3988 
Q 3128 4100 2886 4159 
Q 2644 4219 2406 4219 
Q 1781 4219 1451 3797 
Q 1122 3375 1075 2522 
Q 1259 2794 1537 2939 
Q 1816 3084 2150 3084 
Q 2853 3084 3261 2657 
Q 3669 2231 3669 1497 
Q 3669 778 3244 343 
Q 2819 -91 2113 -91 
Q 1303 -91 875 529 
Q 447 1150 447 2328 
Q 447 3434 972 4092 
Q 1497 4750 2381 4750 
Q 2619 4750 2861 4703 
Q 3103 4656 3366 4563 
z
" transform="scale(0.015625)"/>
       </defs>
       <use xlink:href="#DejaVuSans-33"/>
       <use xlink:href="#DejaVuSans-36" x="63.623047"/>
      </g>
     </g>
    </g>
    <g id="xtick_4">
     <g id="line2d_4">
      <g>
       <use xlink:href="#mc2ce7cdf21" x="324.381344" y="307.584" style="stroke: #000000; stroke-width: 0.8"/>
      </g>
     </g>
     <g id="text_4">
      <!-- 38 -->
      <g transform="translate(312.928844 328.261187) scale(0.18 -0.18)">
       <defs>
        <path id="DejaVuSans-38" d="M 2034 2216 
Q 1584 2216 1326 1975 
Q 1069 1734 1069 1313 
Q 1069 891 1326 650 
Q 1584 409 2034 409 
Q 2484 409 2743 651 
Q 3003 894 3003 1313 
Q 3003 1734 2745 1975 
Q 2488 2216 2034 2216 
z
M 1403 2484 
Q 997 2584 770 2862 
Q 544 3141 544 3541 
Q 544 4100 942 4425 
Q 1341 4750 2034 4750 
Q 2731 4750 3128 4425 
Q 3525 4100 3525 3541 
Q 3525 3141 3298 2862 
Q 3072 2584 2669 2484 
Q 3125 2378 3379 2068 
Q 3634 1759 3634 1313 
Q 3634 634 3220 271 
Q 2806 -91 2034 -91 
Q 1263 -91 848 271 
Q 434 634 434 1313 
Q 434 1759 690 2068 
Q 947 2378 1403 2484 
z
M 1172 3481 
Q 1172 3119 1398 2916 
Q 1625 2713 2034 2713 
Q 2441 2713 2670 2916 
Q 2900 3119 2900 3481 
Q 2900 3844 2670 4047 
Q 2441 4250 2034 4250 
Q 1625 4250 1398 4047 
Q 1172 3844 1172 3481 
z
" transform="scale(0.015625)"/>
       </defs>
       <use xlink:href="#DejaVuSans-33"/>
       <use xlink:href="#DejaVuSans-38" x="63.623047"/>
      </g>
     </g>
    </g>
    <g id="xtick_5">
     <g id="line2d_5">
      <g>
       <use xlink:href="#mc2ce7cdf21" x="394.958419" y="307.584" style="stroke: #000000; stroke-width: 0.8"/>
      </g>
     </g>
     <g id="text_5">
      <!-- 40 -->
      <g transform="translate(383.505919 328.261187) scale(0.18 -0.18)">
       <defs>
        <path id="DejaVuSans-30" d="M 2034 4250 
Q 1547 4250 1301 3770 
Q 1056 3291 1056 2328 
Q 1056 1369 1301 889 
Q 1547 409 2034 409 
Q 2525 409 2770 889 
Q 3016 1369 3016 2328 
Q 3016 3291 2770 3770 
Q 2525 4250 2034 4250 
z
M 2034 4750 
Q 2819 4750 3233 4129 
Q 3647 3509 3647 2328 
Q 3647 1150 3233 529 
Q 2819 -91 2034 -91 
Q 1250 -91 836 529 
Q 422 1150 422 2328 
Q 422 3509 836 4129 
Q 1250 4750 2034 4750 
z
" transform="scale(0.015625)"/>
       </defs>
       <use xlink:href="#DejaVuSans-34"/>
       <use xlink:href="#DejaVuSans-30" x="63.623047"/>
      </g>
     </g>
    </g>
    <g id="text_6">
     <!-- Kondensatordruck in bar -->
     <g transform="translate(125.630156 349.681812) scale(0.18 -0.18)">
      <defs>
       <path id="DejaVuSans-4b" d="M 628 4666 
L 1259 4666 
L 1259 2694 
L 3353 4666 
L 4166 4666 
L 1850 2491 
L 4331 0 
L 3500 0 
L 1259 2247 
L 1259 0 
L 628 0 
L 628 4666 
z
" transform="scale(0.015625)"/>
       <path id="DejaVuSans-6f" d="M 1959 3097 
Q 1497 3097 1228 2736 
Q 959 2375 959 1747 
Q 959 1119 1226 758 
Q 1494 397 1959 397 
Q 2419 397 2687 759 
Q 2956 1122 2956 1747 
Q 2956 2369 2687 2733 
Q 2419 3097 1959 3097 
z
M 1959 3584 
Q 2709 3584 3137 3096 
Q 3566 2609 3566 1747 
Q 3566 888 3137 398 
Q 2709 -91 1959 -91 
Q 1206 -91 779 398 
Q 353 888 353 1747 
Q 353 2609 779 3096 
Q 1206 3584 1959 3584 
z
" transform="scale(0.015625)"/>
       <path id="DejaVuSans-6e" d="M 3513 2113 
L 3513 0 
L 2938 0 
L 2938 2094 
Q 2938 2591 2744 2837 
Q 2550 3084 2163 3084 
Q 1697 3084 1428 2787 
Q 1159 2491 1159 1978 
L 1159 0 
L 581 0 
L 581 3500 
L 1159 3500 
L 1159 2956 
Q 1366 3272 1645 3428 
Q 1925 3584 2291 3584 
Q 2894 3584 3203 3211 
Q 3513 2838 3513 2113 
z
" transform="scale(0.015625)"/>
       <path id="DejaVuSans-64" d="M 2906 2969 
L 2906 4863 
L 3481 4863 
L 3481 0 
L 2906 0 
L 2906 525 
Q 2725 213 2448 61 
Q 2172 -91 1784 -91 
Q 1150 -91 751 415 
Q 353 922 353 1747 
Q 353 2572 751 3078 
Q 1150 3584 1784 3584 
Q 2172 3584 2448 3432 
Q 2725 3281 2906 2969 
z
M 947 1747 
Q 947 1113 1208 752 
Q 1469 391 1925 391 
Q 2381 391 2643 752 
Q 2906 1113 2906 1747 
Q 2906 2381 2643 2742 
Q 2381 3103 1925 3103 
Q 1469 3103 1208 2742 
Q 947 2381 947 1747 
z
" transform="scale(0.015625)"/>
       <path id="DejaVuSans-65" d="M 3597 1894 
L 3597 1613 
L 953 1613 
Q 991 1019 1311 708 
Q 1631 397 2203 397 
Q 2534 397 2845 478 
Q 3156 559 3463 722 
L 3463 178 
Q 3153 47 2828 -22 
Q 2503 -91 2169 -91 
Q 1331 -91 842 396 
Q 353 884 353 1716 
Q 353 2575 817 3079 
Q 1281 3584 2069 3584 
Q 2775 3584 3186 3129 
Q 3597 2675 3597 1894 
z
M 3022 2063 
Q 3016 2534 2758 2815 
Q 2500 3097 2075 3097 
Q 1594 3097 1305 2825 
Q 1016 2553 972 2059 
L 3022 2063 
z
" transform="scale(0.015625)"/>
       <path id="DejaVuSans-73" d="M 2834 3397 
L 2834 2853 
Q 2591 2978 2328 3040 
Q 2066 3103 1784 3103 
Q 1356 3103 1142 2972 
Q 928 2841 928 2578 
Q 928 2378 1081 2264 
Q 1234 2150 1697 2047 
L 1894 2003 
Q 2506 1872 2764 1633 
Q 3022 1394 3022 966 
Q 3022 478 2636 193 
Q 2250 -91 1575 -91 
Q 1294 -91 989 -36 
Q 684 19 347 128 
L 347 722 
Q 666 556 975 473 
Q 1284 391 1588 391 
Q 1994 391 2212 530 
Q 2431 669 2431 922 
Q 2431 1156 2273 1281 
Q 2116 1406 1581 1522 
L 1381 1569 
Q 847 1681 609 1914 
Q 372 2147 372 2553 
Q 372 3047 722 3315 
Q 1072 3584 1716 3584 
Q 2034 3584 2315 3537 
Q 2597 3491 2834 3397 
z
" transform="scale(0.015625)"/>
       <path id="DejaVuSans-61" d="M 2194 1759 
Q 1497 1759 1228 1600 
Q 959 1441 959 1056 
Q 959 750 1161 570 
Q 1363 391 1709 391 
Q 2188 391 2477 730 
Q 2766 1069 2766 1631 
L 2766 1759 
L 2194 1759 
z
M 3341 1997 
L 3341 0 
L 2766 0 
L 2766 531 
Q 2569 213 2275 61 
Q 1981 -91 1556 -91 
Q 1019 -91 701 211 
Q 384 513 384 1019 
Q 384 1609 779 1909 
Q 1175 2209 1959 2209 
L 2766 2209 
L 2766 2266 
Q 2766 2663 2505 2880 
Q 2244 3097 1772 3097 
Q 1472 3097 1187 3025 
Q 903 2953 641 2809 
L 641 3341 
Q 956 3463 1253 3523 
Q 1550 3584 1831 3584 
Q 2591 3584 2966 3190 
Q 3341 2797 3341 1997 
z
" transform="scale(0.015625)"/>
       <path id="DejaVuSans-74" d="M 1172 4494 
L 1172 3500 
L 2356 3500 
L 2356 3053 
L 1172 3053 
L 1172 1153 
Q 1172 725 1289 603 
Q 1406 481 1766 481 
L 2356 481 
L 2356 0 
L 1766 0 
Q 1100 0 847 248 
Q 594 497 594 1153 
L 594 3053 
L 172 3053 
L 172 3500 
L 594 3500 
L 594 4494 
L 1172 4494 
z
" transform="scale(0.015625)"/>
       <path id="DejaVuSans-72" d="M 2631 2963 
Q 2534 3019 2420 3045 
Q 2306 3072 2169 3072 
Q 1681 3072 1420 2755 
Q 1159 2438 1159 1844 
L 1159 0 
L 581 0 
L 581 3500 
L 1159 3500 
L 1159 2956 
Q 1341 3275 1631 3429 
Q 1922 3584 2338 3584 
Q 2397 3584 2469 3576 
Q 2541 3569 2628 3553 
L 2631 2963 
z
" transform="scale(0.015625)"/>
       <path id="DejaVuSans-75" d="M 544 1381 
L 544 3500 
L 1119 3500 
L 1119 1403 
Q 1119 906 1312 657 
Q 1506 409 1894 409 
Q 2359 409 2629 706 
Q 2900 1003 2900 1516 
L 2900 3500 
L 3475 3500 
L 3475 0 
L 2900 0 
L 2900 538 
Q 2691 219 2414 64 
Q 2138 -91 1772 -91 
Q 1169 -91 856 284 
Q 544 659 544 1381 
z
M 1991 3584 
L 1991 3584 
z
" transform="scale(0.015625)"/>
       <path id="DejaVuSans-63" d="M 3122 3366 
L 3122 2828 
Q 2878 2963 2633 3030 
Q 2388 3097 2138 3097 
Q 1578 3097 1268 2742 
Q 959 2388 959 1747 
Q 959 1106 1268 751 
Q 1578 397 2138 397 
Q 2388 397 2633 464 
Q 2878 531 3122 666 
L 3122 134 
Q 2881 22 2623 -34 
Q 2366 -91 2075 -91 
Q 1284 -91 818 406 
Q 353 903 353 1747 
Q 353 2603 823 3093 
Q 1294 3584 2113 3584 
Q 2378 3584 2631 3529 
Q 2884 3475 3122 3366 
z
" transform="scale(0.015625)"/>
       <path id="DejaVuSans-6b" d="M 581 4863 
L 1159 4863 
L 1159 1991 
L 2875 3500 
L 3609 3500 
L 1753 1863 
L 3688 0 
L 2938 0 
L 1159 1709 
L 1159 0 
L 581 0 
L 581 4863 
z
" transform="scale(0.015625)"/>
       <path id="DejaVuSans-20" transform="scale(0.015625)"/>
       <path id="DejaVuSans-69" d="M 603 3500 
L 1178 3500 
L 1178 0 
L 603 0 
L 603 3500 
z
M 603 4863 
L 1178 4863 
L 1178 4134 
L 603 4134 
L 603 4863 
z
" transform="scale(0.015625)"/>
       <path id="DejaVuSans-62" d="M 3116 1747 
Q 3116 2381 2855 2742 
Q 2594 3103 2138 3103 
Q 1681 3103 1420 2742 
Q 1159 2381 1159 1747 
Q 1159 1113 1420 752 
Q 1681 391 2138 391 
Q 2594 391 2855 752 
Q 3116 1113 3116 1747 
z
M 1159 2969 
Q 1341 3281 1617 3432 
Q 1894 3584 2278 3584 
Q 2916 3584 3314 3078 
Q 3713 2572 3713 1747 
Q 3713 922 3314 415 
Q 2916 -91 2278 -91 
Q 1894 -91 1617 61 
Q 1341 213 1159 525 
L 1159 0 
L 581 0 
L 581 4863 
L 1159 4863 
L 1159 2969 
z
" transform="scale(0.015625)"/>
      </defs>
      <use xlink:href="#DejaVuSans-4b"/>
      <use xlink:href="#DejaVuSans-6f" x="60.576172"/>
      <use xlink:href="#DejaVuSans-6e" x="121.757812"/>
      <use xlink:href="#DejaVuSans-64" x="185.136719"/>
      <use xlink:href="#DejaVuSans-65" x="248.613281"/>
      <use xlink:href="#DejaVuSans-6e" x="310.136719"/>
      <use xlink:href="#DejaVuSans-73" x="373.515625"/>
      <use xlink:href="#DejaVuSans-61" x="425.615234"/>
      <use xlink:href="#DejaVuSans-74" x="486.894531"/>
      <use xlink:href="#DejaVuSans-6f" x="526.103516"/>
      <use xlink:href="#DejaVuSans-72" x="587.285156"/>
      <use xlink:href="#DejaVuSans-64" x="626.648438"/>
      <use xlink:href="#DejaVuSans-72" x="690.125"/>
      <use xlink:href="#DejaVuSans-75" x="731.238281"/>
      <use xlink:href="#DejaVuSans-63" x="794.617188"/>
      <use xlink:href="#DejaVuSans-6b" x="849.597656"/>
      <use xlink:href="#DejaVuSans-20" x="907.507812"/>
      <use xlink:href="#DejaVuSans-69" x="939.294922"/>
      <use xlink:href="#DejaVuSans-6e" x="967.078125"/>
      <use xlink:href="#DejaVuSans-20" x="1030.457031"/>
      <use xlink:href="#DejaVuSans-62" x="1062.244141"/>
      <use xlink:href="#DejaVuSans-61" x="1125.720703"/>
      <use xlink:href="#DejaVuSans-72" x="1187"/>
     </g>
    </g>
   </g>
   <g id="matplotlib.axis_2">
    <g id="ytick_1">
     <g id="line2d_6">
      <defs>
       <path id="mde7b66e440" d="M 0 0 
L -3.5 0 
" style="stroke: #000000; stroke-width: 0.8"/>
      </defs>
      <g>
       <use xlink:href="#mde7b66e440" x="57.6" y="307.584" style="stroke: #000000; stroke-width: 0.8"/>
      </g>
     </g>
     <g id="text_7">
      <!-- 0.00 -->
      <g transform="translate(10.521875 314.422594) scale(0.18 -0.18)">
       <defs>
        <path id="DejaVuSans-2e" d="M 684 794 
L 1344 794 
L 1344 0 
L 684 0 
L 684 794 
z
" transform="scale(0.015625)"/>
       </defs>
       <use xlink:href="#DejaVuSans-30"/>
       <use xlink:href="#DejaVuSans-2e" x="63.623047"/>
       <use xlink:href="#DejaVuSans-30" x="95.410156"/>
       <use xlink:href="#DejaVuSans-30" x="159.033203"/>
      </g>
     </g>
    </g>
    <g id="ytick_2">
     <g id="line2d_7">
      <g>
       <use xlink:href="#mde7b66e440" x="57.6" y="269.452064" style="stroke: #000000; stroke-width: 0.8"/>
      </g>
     </g>
     <g id="text_8">
      <!-- 0.25 -->
      <g transform="translate(10.521875 276.290658) scale(0.18 -0.18)">
       <defs>
        <path id="DejaVuSans-35" d="M 691 4666 
L 3169 4666 
L 3169 4134 
L 1269 4134 
L 1269 2991 
Q 1406 3038 1543 3061 
Q 1681 3084 1819 3084 
Q 2600 3084 3056 2656 
Q 3513 2228 3513 1497 
Q 3513 744 3044 326 
Q 2575 -91 1722 -91 
Q 1428 -91 1123 -41 
Q 819 9 494 109 
L 494 744 
Q 775 591 1075 516 
Q 1375 441 1709 441 
Q 2250 441 2565 725 
Q 2881 1009 2881 1497 
Q 2881 1984 2565 2268 
Q 2250 2553 1709 2553 
Q 1456 2553 1204 2497 
Q 953 2441 691 2322 
L 691 4666 
z
" transform="scale(0.015625)"/>
       </defs>
       <use xlink:href="#DejaVuSans-30"/>
       <use xlink:href="#DejaVuSans-2e" x="63.623047"/>
       <use xlink:href="#DejaVuSans-32" x="95.410156"/>
       <use xlink:href="#DejaVuSans-35" x="159.033203"/>
      </g>
     </g>
    </g>
    <g id="ytick_3">
     <g id="line2d_8">
      <g>
       <use xlink:href="#mde7b66e440" x="57.6" y="231.320129" style="stroke: #000000; stroke-width: 0.8"/>
      </g>
     </g>
     <g id="text_9">
      <!-- 0.50 -->
      <g transform="translate(10.521875 238.158722) scale(0.18 -0.18)">
       <use xlink:href="#DejaVuSans-30"/>
       <use xlink:href="#DejaVuSans-2e" x="63.623047"/>
       <use xlink:href="#DejaVuSans-35" x="95.410156"/>
       <use xlink:href="#DejaVuSans-30" x="159.033203"/>
      </g>
     </g>
    </g>
    <g id="ytick_4">
     <g id="line2d_9">
      <g>
       <use xlink:href="#mde7b66e440" x="57.6" y="193.188193" style="stroke: #000000; stroke-width: 0.8"/>
      </g>
     </g>
     <g id="text_10">
      <!-- 0.75 -->
      <g transform="translate(10.521875 200.026787) scale(0.18 -0.18)">
       <defs>
        <path id="DejaVuSans-37" d="M 525 4666 
L 3525 4666 
L 3525 4397 
L 1831 0 
L 1172 0 
L 2766 4134 
L 525 4134 
L 525 4666 
z
" transform="scale(0.015625)"/>
       </defs>
       <use xlink:href="#DejaVuSans-30"/>
       <use xlink:href="#DejaVuSans-2e" x="63.623047"/>
       <use xlink:href="#DejaVuSans-37" x="95.410156"/>
       <use xlink:href="#DejaVuSans-35" x="159.033203"/>
      </g>
     </g>
    </g>
    <g id="ytick_5">
     <g id="line2d_10">
      <g>
       <use xlink:href="#mde7b66e440" x="57.6" y="155.056257" style="stroke: #000000; stroke-width: 0.8"/>
      </g>
     </g>
     <g id="text_11">
      <!-- 1.00 -->
      <g transform="translate(10.521875 161.894851) scale(0.18 -0.18)">
       <defs>
        <path id="DejaVuSans-31" d="M 794 531 
L 1825 531 
L 1825 4091 
L 703 3866 
L 703 4441 
L 1819 4666 
L 2450 4666 
L 2450 531 
L 3481 531 
L 3481 0 
L 794 0 
L 794 531 
z
" transform="scale(0.015625)"/>
       </defs>
       <use xlink:href="#DejaVuSans-31"/>
       <use xlink:href="#DejaVuSans-2e" x="63.623047"/>
       <use xlink:href="#DejaVuSans-30" x="95.410156"/>
       <use xlink:href="#DejaVuSans-30" x="159.033203"/>
      </g>
     </g>
    </g>
    <g id="ytick_6">
     <g id="line2d_11">
      <g>
       <use xlink:href="#mde7b66e440" x="57.6" y="116.924321" style="stroke: #000000; stroke-width: 0.8"/>
      </g>
     </g>
     <g id="text_12">
      <!-- 1.25 -->
      <g transform="translate(10.521875 123.762915) scale(0.18 -0.18)">
       <use xlink:href="#DejaVuSans-31"/>
       <use xlink:href="#DejaVuSans-2e" x="63.623047"/>
       <use xlink:href="#DejaVuSans-32" x="95.410156"/>
       <use xlink:href="#DejaVuSans-35" x="159.033203"/>
      </g>
     </g>
    </g>
    <g id="ytick_7">
     <g id="line2d_12">
      <g>
       <use xlink:href="#mde7b66e440" x="57.6" y="78.792386" style="stroke: #000000; stroke-width: 0.8"/>
      </g>
     </g>
     <g id="text_13">
      <!-- 1.50 -->
      <g transform="translate(10.521875 85.630979) scale(0.18 -0.18)">
       <use xlink:href="#DejaVuSans-31"/>
       <use xlink:href="#DejaVuSans-2e" x="63.623047"/>
       <use xlink:href="#DejaVuSans-35" x="95.410156"/>
       <use xlink:href="#DejaVuSans-30" x="159.033203"/>
      </g>
     </g>
    </g>
    <g id="text_14">
     <!-- Exergievernichtung in MW -->
     <g transform="translate(2.778437 292.593937) rotate(-90) scale(0.18 -0.18)">
      <defs>
       <path id="DejaVuSans-45" d="M 628 4666 
L 3578 4666 
L 3578 4134 
L 1259 4134 
L 1259 2753 
L 3481 2753 
L 3481 2222 
L 1259 2222 
L 1259 531 
L 3634 531 
L 3634 0 
L 628 0 
L 628 4666 
z
" transform="scale(0.015625)"/>
       <path id="DejaVuSans-78" d="M 3513 3500 
L 2247 1797 
L 3578 0 
L 2900 0 
L 1881 1375 
L 863 0 
L 184 0 
L 1544 1831 
L 300 3500 
L 978 3500 
L 1906 2253 
L 2834 3500 
L 3513 3500 
z
" transform="scale(0.015625)"/>
       <path id="DejaVuSans-67" d="M 2906 1791 
Q 2906 2416 2648 2759 
Q 2391 3103 1925 3103 
Q 1463 3103 1205 2759 
Q 947 2416 947 1791 
Q 947 1169 1205 825 
Q 1463 481 1925 481 
Q 2391 481 2648 825 
Q 2906 1169 2906 1791 
z
M 3481 434 
Q 3481 -459 3084 -895 
Q 2688 -1331 1869 -1331 
Q 1566 -1331 1297 -1286 
Q 1028 -1241 775 -1147 
L 775 -588 
Q 1028 -725 1275 -790 
Q 1522 -856 1778 -856 
Q 2344 -856 2625 -561 
Q 2906 -266 2906 331 
L 2906 616 
Q 2728 306 2450 153 
Q 2172 0 1784 0 
Q 1141 0 747 490 
Q 353 981 353 1791 
Q 353 2603 747 3093 
Q 1141 3584 1784 3584 
Q 2172 3584 2450 3431 
Q 2728 3278 2906 2969 
L 2906 3500 
L 3481 3500 
L 3481 434 
z
" transform="scale(0.015625)"/>
       <path id="DejaVuSans-76" d="M 191 3500 
L 800 3500 
L 1894 563 
L 2988 3500 
L 3597 3500 
L 2284 0 
L 1503 0 
L 191 3500 
z
" transform="scale(0.015625)"/>
       <path id="DejaVuSans-68" d="M 3513 2113 
L 3513 0 
L 2938 0 
L 2938 2094 
Q 2938 2591 2744 2837 
Q 2550 3084 2163 3084 
Q 1697 3084 1428 2787 
Q 1159 2491 1159 1978 
L 1159 0 
L 581 0 
L 581 4863 
L 1159 4863 
L 1159 2956 
Q 1366 3272 1645 3428 
Q 1925 3584 2291 3584 
Q 2894 3584 3203 3211 
Q 3513 2838 3513 2113 
z
" transform="scale(0.015625)"/>
       <path id="DejaVuSans-4d" d="M 628 4666 
L 1569 4666 
L 2759 1491 
L 3956 4666 
L 4897 4666 
L 4897 0 
L 4281 0 
L 4281 4097 
L 3078 897 
L 2444 897 
L 1241 4097 
L 1241 0 
L 628 0 
L 628 4666 
z
" transform="scale(0.015625)"/>
       <path id="DejaVuSans-57" d="M 213 4666 
L 850 4666 
L 1831 722 
L 2809 4666 
L 3519 4666 
L 4500 722 
L 5478 4666 
L 6119 4666 
L 4947 0 
L 4153 0 
L 3169 4050 
L 2175 0 
L 1381 0 
L 213 4666 
z
" transform="scale(0.015625)"/>
      </defs>
      <use xlink:href="#DejaVuSans-45"/>
      <use xlink:href="#DejaVuSans-78" x="63.183594"/>
      <use xlink:href="#DejaVuSans-65" x="119.238281"/>
      <use xlink:href="#DejaVuSans-72" x="180.761719"/>
      <use xlink:href="#DejaVuSans-67" x="220.125"/>
      <use xlink:href="#DejaVuSans-69" x="283.601562"/>
      <use xlink:href="#DejaVuSans-65" x="311.384766"/>
      <use xlink:href="#DejaVuSans-76" x="372.908203"/>
      <use xlink:href="#DejaVuSans-65" x="432.087891"/>
      <use xlink:href="#DejaVuSans-72" x="493.611328"/>
      <use xlink:href="#DejaVuSans-6e" x="532.974609"/>
      <use xlink:href="#DejaVuSans-69" x="596.353516"/>
      <use xlink:href="#DejaVuSans-63" x="624.136719"/>
      <use xlink:href="#DejaVuSans-68" x="679.117188"/>
      <use xlink:href="#DejaVuSans-74" x="742.496094"/>
      <use xlink:href="#DejaVuSans-75" x="781.705078"/>
      <use xlink:href="#DejaVuSans-6e" x="845.083984"/>
      <use xlink:href="#DejaVuSans-67" x="908.462891"/>
      <use xlink:href="#DejaVuSans-20" x="971.939453"/>
      <use xlink:href="#DejaVuSans-69" x="1003.726562"/>
      <use xlink:href="#DejaVuSans-6e" x="1031.509766"/>
      <use xlink:href="#DejaVuSans-20" x="1094.888672"/>
      <use xlink:href="#DejaVuSans-4d" x="1126.675781"/>
      <use xlink:href="#DejaVuSans-57" x="1212.955078"/>
     </g>
    </g>
   </g>
   <g id="patch_203">
    <path d="M 57.6 307.584 
L 57.6 41.472 
" style="fill: none; stroke: #000000; stroke-width: 0.8; stroke-linejoin: miter; stroke-linecap: square"/>
   </g>
   <g id="patch_204">
    <path d="M 414.72 307.584 
L 414.72 41.472 
" style="fill: none; stroke: #000000; stroke-width: 0.8; stroke-linejoin: miter; stroke-linecap: square"/>
   </g>
   <g id="patch_205">
    <path d="M 57.6 307.584 
L 414.72 307.584 
" style="fill: none; stroke: #000000; stroke-width: 0.8; stroke-linejoin: miter; stroke-linecap: square"/>
   </g>
   <g id="patch_206">
    <path d="M 57.6 41.472 
L 414.72 41.472 
" style="fill: none; stroke: #000000; stroke-width: 0.8; stroke-linejoin: miter; stroke-linecap: square"/>
   </g>
   <g id="legend_1">
    <g id="patch_207">
     <path d="M 125.648437 298.584 
L 402.12 298.584 
Q 405.72 298.584 405.72 294.984 
L 405.72 164.680875 
Q 405.72 161.080875 402.12 161.080875 
L 125.648437 161.080875 
Q 122.048437 161.080875 122.048437 164.680875 
L 122.048437 294.984 
Q 122.048437 298.584 125.648437 298.584 
z
" style="fill: #ffffff; opacity: 0.8; stroke: #cccccc; stroke-linejoin: miter"/>
    </g>
    <g id="patch_208">
     <path d="M 129.248437 181.958062 
L 165.248437 181.958062 
L 165.248437 169.358062 
L 129.248437 169.358062 
z
" style="fill: #1f77b4"/>
    </g>
    <g id="text_15">
     <!-- Gas cooler -->
     <g transform="translate(179.648438 181.958062) scale(0.18 -0.18)">
      <defs>
       <path id="DejaVuSans-47" d="M 3809 666 
L 3809 1919 
L 2778 1919 
L 2778 2438 
L 4434 2438 
L 4434 434 
Q 4069 175 3628 42 
Q 3188 -91 2688 -91 
Q 1594 -91 976 548 
Q 359 1188 359 2328 
Q 359 3472 976 4111 
Q 1594 4750 2688 4750 
Q 3144 4750 3555 4637 
Q 3966 4525 4313 4306 
L 4313 3634 
Q 3963 3931 3569 4081 
Q 3175 4231 2741 4231 
Q 1884 4231 1454 3753 
Q 1025 3275 1025 2328 
Q 1025 1384 1454 906 
Q 1884 428 2741 428 
Q 3075 428 3337 486 
Q 3600 544 3809 666 
z
" transform="scale(0.015625)"/>
       <path id="DejaVuSans-6c" d="M 603 4863 
L 1178 4863 
L 1178 0 
L 603 0 
L 603 4863 
z
" transform="scale(0.015625)"/>
      </defs>
      <use xlink:href="#DejaVuSans-47"/>
      <use xlink:href="#DejaVuSans-61" x="77.490234"/>
      <use xlink:href="#DejaVuSans-73" x="138.769531"/>
      <use xlink:href="#DejaVuSans-20" x="190.869141"/>
      <use xlink:href="#DejaVuSans-63" x="222.65625"/>
      <use xlink:href="#DejaVuSans-6f" x="277.636719"/>
      <use xlink:href="#DejaVuSans-6f" x="338.818359"/>
      <use xlink:href="#DejaVuSans-6c" x="400"/>
      <use xlink:href="#DejaVuSans-65" x="427.783203"/>
      <use xlink:href="#DejaVuSans-72" x="489.306641"/>
     </g>
    </g>
    <g id="patch_209">
     <path d="M 129.248437 208.378687 
L 165.248437 208.378687 
L 165.248437 195.778687 
L 129.248437 195.778687 
z
" style="fill: #ff7f0e"/>
    </g>
    <g id="text_16">
     <!-- Evaporator -->
     <g transform="translate(179.648438 208.378687) scale(0.18 -0.18)">
      <defs>
       <path id="DejaVuSans-70" d="M 1159 525 
L 1159 -1331 
L 581 -1331 
L 581 3500 
L 1159 3500 
L 1159 2969 
Q 1341 3281 1617 3432 
Q 1894 3584 2278 3584 
Q 2916 3584 3314 3078 
Q 3713 2572 3713 1747 
Q 3713 922 3314 415 
Q 2916 -91 2278 -91 
Q 1894 -91 1617 61 
Q 1341 213 1159 525 
z
M 3116 1747 
Q 3116 2381 2855 2742 
Q 2594 3103 2138 3103 
Q 1681 3103 1420 2742 
Q 1159 2381 1159 1747 
Q 1159 1113 1420 752 
Q 1681 391 2138 391 
Q 2594 391 2855 752 
Q 3116 1113 3116 1747 
z
" transform="scale(0.015625)"/>
      </defs>
      <use xlink:href="#DejaVuSans-45"/>
      <use xlink:href="#DejaVuSans-76" x="63.183594"/>
      <use xlink:href="#DejaVuSans-61" x="122.363281"/>
      <use xlink:href="#DejaVuSans-70" x="183.642578"/>
      <use xlink:href="#DejaVuSans-6f" x="247.119141"/>
      <use xlink:href="#DejaVuSans-72" x="308.300781"/>
      <use xlink:href="#DejaVuSans-61" x="349.414062"/>
      <use xlink:href="#DejaVuSans-74" x="410.693359"/>
      <use xlink:href="#DejaVuSans-6f" x="449.902344"/>
      <use xlink:href="#DejaVuSans-72" x="511.083984"/>
     </g>
    </g>
    <g id="patch_210">
     <path d="M 129.248437 234.799312 
L 165.248437 234.799312 
L 165.248437 222.199312 
L 129.248437 222.199312 
z
" style="fill: #2ca02c"/>
    </g>
    <g id="text_17">
     <!-- Valve -->
     <g transform="translate(179.648438 234.799312) scale(0.18 -0.18)">
      <defs>
       <path id="DejaVuSans-56" d="M 1831 0 
L 50 4666 
L 709 4666 
L 2188 738 
L 3669 4666 
L 4325 4666 
L 2547 0 
L 1831 0 
z
" transform="scale(0.015625)"/>
      </defs>
      <use xlink:href="#DejaVuSans-56"/>
      <use xlink:href="#DejaVuSans-61" x="60.658203"/>
      <use xlink:href="#DejaVuSans-6c" x="121.9375"/>
      <use xlink:href="#DejaVuSans-76" x="149.720703"/>
      <use xlink:href="#DejaVuSans-65" x="208.900391"/>
     </g>
    </g>
    <g id="patch_211">
     <path d="M 129.248437 261.219937 
L 165.248437 261.219937 
L 165.248437 248.619937 
L 129.248437 248.619937 
z
" style="fill: #d62728"/>
    </g>
    <g id="text_18">
     <!-- Compressor -->
     <g transform="translate(179.648438 261.219937) scale(0.18 -0.18)">
      <defs>
       <path id="DejaVuSans-43" d="M 4122 4306 
L 4122 3641 
Q 3803 3938 3442 4084 
Q 3081 4231 2675 4231 
Q 1875 4231 1450 3742 
Q 1025 3253 1025 2328 
Q 1025 1406 1450 917 
Q 1875 428 2675 428 
Q 3081 428 3442 575 
Q 3803 722 4122 1019 
L 4122 359 
Q 3791 134 3420 21 
Q 3050 -91 2638 -91 
Q 1578 -91 968 557 
Q 359 1206 359 2328 
Q 359 3453 968 4101 
Q 1578 4750 2638 4750 
Q 3056 4750 3426 4639 
Q 3797 4528 4122 4306 
z
" transform="scale(0.015625)"/>
       <path id="DejaVuSans-6d" d="M 3328 2828 
Q 3544 3216 3844 3400 
Q 4144 3584 4550 3584 
Q 5097 3584 5394 3201 
Q 5691 2819 5691 2113 
L 5691 0 
L 5113 0 
L 5113 2094 
Q 5113 2597 4934 2840 
Q 4756 3084 4391 3084 
Q 3944 3084 3684 2787 
Q 3425 2491 3425 1978 
L 3425 0 
L 2847 0 
L 2847 2094 
Q 2847 2600 2669 2842 
Q 2491 3084 2119 3084 
Q 1678 3084 1418 2786 
Q 1159 2488 1159 1978 
L 1159 0 
L 581 0 
L 581 3500 
L 1159 3500 
L 1159 2956 
Q 1356 3278 1631 3431 
Q 1906 3584 2284 3584 
Q 2666 3584 2933 3390 
Q 3200 3197 3328 2828 
z
" transform="scale(0.015625)"/>
      </defs>
      <use xlink:href="#DejaVuSans-43"/>
      <use xlink:href="#DejaVuSans-6f" x="69.824219"/>
      <use xlink:href="#DejaVuSans-6d" x="131.005859"/>
      <use xlink:href="#DejaVuSans-70" x="228.417969"/>
      <use xlink:href="#DejaVuSans-72" x="291.894531"/>
      <use xlink:href="#DejaVuSans-65" x="330.757812"/>
      <use xlink:href="#DejaVuSans-73" x="392.28125"/>
      <use xlink:href="#DejaVuSans-73" x="444.380859"/>
      <use xlink:href="#DejaVuSans-6f" x="496.480469"/>
      <use xlink:href="#DejaVuSans-72" x="557.662109"/>
     </g>
    </g>
    <g id="patch_212">
     <path d="M 129.248437 287.640562 
L 165.248437 287.640562 
L 165.248437 275.040562 
L 129.248437 275.040562 
z
" style="fill: #9467bd"/>
    </g>
    <g id="text_19">
     <!-- Internal Heat Exchanger -->
     <g transform="translate(179.648438 287.640562) scale(0.18 -0.18)">
      <defs>
       <path id="DejaVuSans-49" d="M 628 4666 
L 1259 4666 
L 1259 0 
L 628 0 
L 628 4666 
z
" transform="scale(0.015625)"/>
       <path id="DejaVuSans-48" d="M 628 4666 
L 1259 4666 
L 1259 2753 
L 3553 2753 
L 3553 4666 
L 4184 4666 
L 4184 0 
L 3553 0 
L 3553 2222 
L 1259 2222 
L 1259 0 
L 628 0 
L 628 4666 
z
" transform="scale(0.015625)"/>
      </defs>
      <use xlink:href="#DejaVuSans-49"/>
      <use xlink:href="#DejaVuSans-6e" x="29.492188"/>
      <use xlink:href="#DejaVuSans-74" x="92.871094"/>
      <use xlink:href="#DejaVuSans-65" x="132.080078"/>
      <use xlink:href="#DejaVuSans-72" x="193.603516"/>
      <use xlink:href="#DejaVuSans-6e" x="232.966797"/>
      <use xlink:href="#DejaVuSans-61" x="296.345703"/>
      <use xlink:href="#DejaVuSans-6c" x="357.625"/>
      <use xlink:href="#DejaVuSans-20" x="385.408203"/>
      <use xlink:href="#DejaVuSans-48" x="417.195312"/>
      <use xlink:href="#DejaVuSans-65" x="492.390625"/>
      <use xlink:href="#DejaVuSans-61" x="553.914062"/>
      <use xlink:href="#DejaVuSans-74" x="615.193359"/>
      <use xlink:href="#DejaVuSans-20" x="654.402344"/>
      <use xlink:href="#DejaVuSans-45" x="686.189453"/>
      <use xlink:href="#DejaVuSans-78" x="749.373047"/>
      <use xlink:href="#DejaVuSans-63" x="806.802734"/>
      <use xlink:href="#DejaVuSans-68" x="861.783203"/>
      <use xlink:href="#DejaVuSans-61" x="925.162109"/>
      <use xlink:href="#DejaVuSans-6e" x="986.441406"/>
      <use xlink:href="#DejaVuSans-67" x="1049.820312"/>
      <use xlink:href="#DejaVuSans-65" x="1113.296875"/>
      <use xlink:href="#DejaVuSans-72" x="1174.820312"/>
     </g>
    </g>
   </g>
  </g>
 </g>
 <defs>
  <clipPath id="p9e3f0f19cf">
   <rect x="57.6" y="41.472" width="357.12" height="266.112"/>
  </clipPath>
 </defs>
</svg>
