<?xml version="1.0" encoding="utf-8" standalone="no"?>
<!DOCTYPE svg PUBLIC "-//W3C//DTD SVG 1.1//EN"
  "http://www.w3.org/Graphics/SVG/1.1/DTD/svg11.dtd">
<svg xmlns:xlink="http://www.w3.org/1999/xlink" width="1382.4pt" height="730.8pt" viewBox="0 0 1382.4 730.8" xmlns="http://www.w3.org/2000/svg" version="1.1">
 <metadata>
  <rdf:RDF xmlns:dc="http://purl.org/dc/elements/1.1/" xmlns:cc="http://creativecommons.org/ns#" xmlns:rdf="http://www.w3.org/1999/02/22-rdf-syntax-ns#">
   <cc:Work>
    <dc:type rdf:resource="http://purl.org/dc/dcmitype/StillImage"/>
    <dc:date>2023-02-21T17:30:30.161494</dc:date>
    <dc:format>image/svg+xml</dc:format>
    <dc:creator>
     <cc:Agent>
      <dc:title>Matplotlib v3.6.1, https://matplotlib.org/</dc:title>
     </cc:Agent>
    </dc:creator>
   </cc:Work>
  </rdf:RDF>
 </metadata>
 <defs>
  <style type="text/css">*{stroke-linejoin: round; stroke-linecap: butt}</style>
 </defs>
 <g id="figure_1">
  <g id="patch_1">
   <path d="M 0 730.8 
L 1382.4 730.8 
L 1382.4 0 
L 0 0 
z
" style="fill: #ffffff"/>
  </g>
  <g id="axes_1">
   <g id="patch_2">
    <path d="M 172.8 650.412 
L 1244.16 650.412 
L 1244.16 87.696 
L 172.8 87.696 
z
" style="fill: #ffffff"/>
   </g>
   <g id="patch_3">
    <path d="M 221.498182 649.155058 
L 229.547468 649.155058 
L 229.547468 650.412 
L 221.498182 650.412 
z
" clip-path="url(#p4a395d50ef)" style="fill: #1f77b4"/>
   </g>
   <g id="patch_4">
    <path d="M 246.265216 649.155058 
L 254.314503 649.155058 
L 254.314503 649.667841 
L 246.265216 649.667841 
z
" clip-path="url(#p4a395d50ef)" style="fill: #1f77b4"/>
   </g>
   <g id="patch_5">
    <path d="M 271.032251 649.155058 
L 279.081537 649.155058 
L 279.081537 648.754713 
L 271.032251 648.754713 
z
" clip-path="url(#p4a395d50ef)" style="fill: #1f77b4"/>
   </g>
   <g id="patch_6">
    <path d="M 295.799286 649.155058 
L 303.848572 649.155058 
L 303.848572 647.748354 
L 295.799286 647.748354 
z
" clip-path="url(#p4a395d50ef)" style="fill: #1f77b4"/>
   </g>
   <g id="patch_7">
    <path d="M 320.56632 649.155058 
L 328.615607 649.155058 
L 328.615607 646.687952 
L 320.56632 646.687952 
z
" clip-path="url(#p4a395d50ef)" style="fill: #1f77b4"/>
   </g>
   <g id="patch_8">
    <path d="M 345.333355 649.155058 
L 353.382641 649.155058 
L 353.382641 645.596351 
L 345.333355 645.596351 
z
" clip-path="url(#p4a395d50ef)" style="fill: #1f77b4"/>
   </g>
   <g id="patch_9">
    <path d="M 370.10039 649.155058 
L 378.149676 649.155058 
L 378.149676 644.48794 
L 370.10039 644.48794 
z
" clip-path="url(#p4a395d50ef)" style="fill: #1f77b4"/>
   </g>
   <g id="patch_10">
    <path d="M 394.867424 649.155058 
L 402.91671 649.155058 
L 402.91671 643.372284 
L 394.867424 643.372284 
z
" clip-path="url(#p4a395d50ef)" style="fill: #1f77b4"/>
   </g>
   <g id="patch_11">
    <path d="M 419.634459 649.155058 
L 427.683745 649.155058 
L 427.683745 642.255987 
L 419.634459 642.255987 
z
" clip-path="url(#p4a395d50ef)" style="fill: #1f77b4"/>
   </g>
   <g id="patch_12">
    <path d="M 444.401493 649.155058 
L 452.45078 649.155058 
L 452.45078 641.143744 
L 444.401493 641.143744 
z
" clip-path="url(#p4a395d50ef)" style="fill: #1f77b4"/>
   </g>
   <g id="patch_13">
    <path d="M 469.168528 649.155058 
L 477.217814 649.155058 
L 477.217814 640.038958 
L 469.168528 640.038958 
z
" clip-path="url(#p4a395d50ef)" style="fill: #1f77b4"/>
   </g>
   <g id="patch_14">
    <path d="M 493.935563 649.155058 
L 501.984849 649.155058 
L 501.984849 638.944134 
L 493.935563 638.944134 
z
" clip-path="url(#p4a395d50ef)" style="fill: #1f77b4"/>
   </g>
   <g id="patch_15">
    <path d="M 518.702597 649.155058 
L 526.751883 649.155058 
L 526.751883 637.861132 
L 518.702597 637.861132 
z
" clip-path="url(#p4a395d50ef)" style="fill: #1f77b4"/>
   </g>
   <g id="patch_16">
    <path d="M 543.469632 649.155058 
L 551.518918 649.155058 
L 551.518918 636.791337 
L 543.469632 636.791337 
z
" clip-path="url(#p4a395d50ef)" style="fill: #1f77b4"/>
   </g>
   <g id="patch_17">
    <path d="M 568.236666 649.155058 
L 576.285953 649.155058 
L 576.285953 635.735782 
L 568.236666 635.735782 
z
" clip-path="url(#p4a395d50ef)" style="fill: #1f77b4"/>
   </g>
   <g id="patch_18">
    <path d="M 593.003701 649.155058 
L 601.052987 649.155058 
L 601.052987 634.695232 
L 593.003701 634.695232 
z
" clip-path="url(#p4a395d50ef)" style="fill: #1f77b4"/>
   </g>
   <g id="patch_19">
    <path d="M 617.770736 649.155058 
L 625.820022 649.155058 
L 625.820022 633.670242 
L 617.770736 633.670242 
z
" clip-path="url(#p4a395d50ef)" style="fill: #1f77b4"/>
   </g>
   <g id="patch_20">
    <path d="M 642.53777 649.155058 
L 650.587057 649.155058 
L 650.587057 632.661208 
L 642.53777 632.661208 
z
" clip-path="url(#p4a395d50ef)" style="fill: #1f77b4"/>
   </g>
   <g id="patch_21">
    <path d="M 667.304805 649.155058 
L 675.354091 649.155058 
L 675.354091 631.668399 
L 667.304805 631.668399 
z
" clip-path="url(#p4a395d50ef)" style="fill: #1f77b4"/>
   </g>
   <g id="patch_22">
    <path d="M 692.07184 649.155058 
L 700.121126 649.155058 
L 700.121126 630.691982 
L 692.07184 630.691982 
z
" clip-path="url(#p4a395d50ef)" style="fill: #1f77b4"/>
   </g>
   <g id="patch_23">
    <path d="M 716.838874 649.155058 
L 724.88816 649.155058 
L 724.88816 629.732044 
L 716.838874 629.732044 
z
" clip-path="url(#p4a395d50ef)" style="fill: #1f77b4"/>
   </g>
   <g id="patch_24">
    <path d="M 741.605909 649.155058 
L 749.655195 649.155058 
L 749.655195 628.788611 
L 741.605909 628.788611 
z
" clip-path="url(#p4a395d50ef)" style="fill: #1f77b4"/>
   </g>
   <g id="patch_25">
    <path d="M 766.372943 649.155058 
L 774.42223 649.155058 
L 774.42223 627.861653 
L 766.372943 627.861653 
z
" clip-path="url(#p4a395d50ef)" style="fill: #1f77b4"/>
   </g>
   <g id="patch_26">
    <path d="M 791.139978 649.155058 
L 799.189264 649.155058 
L 799.189264 626.9511 
L 791.139978 626.9511 
z
" clip-path="url(#p4a395d50ef)" style="fill: #1f77b4"/>
   </g>
   <g id="patch_27">
    <path d="M 815.907013 649.155058 
L 823.956299 649.155058 
L 823.956299 626.056848 
L 815.907013 626.056848 
z
" clip-path="url(#p4a395d50ef)" style="fill: #1f77b4"/>
   </g>
   <g id="patch_28">
    <path d="M 840.674047 649.155058 
L 848.723334 649.155058 
L 848.723334 625.178766 
L 840.674047 625.178766 
z
" clip-path="url(#p4a395d50ef)" style="fill: #1f77b4"/>
   </g>
   <g id="patch_29">
    <path d="M 865.441082 649.155058 
L 873.490368 649.155058 
L 873.490368 624.316696 
L 865.441082 624.316696 
z
" clip-path="url(#p4a395d50ef)" style="fill: #1f77b4"/>
   </g>
   <g id="patch_30">
    <path d="M 890.208117 649.155058 
L 898.257403 649.155058 
L 898.257403 623.470475 
L 890.208117 623.470475 
z
" clip-path="url(#p4a395d50ef)" style="fill: #1f77b4"/>
   </g>
   <g id="patch_31">
    <path d="M 914.975151 649.155058 
L 923.024437 649.155058 
L 923.024437 622.639915 
L 914.975151 622.639915 
z
" clip-path="url(#p4a395d50ef)" style="fill: #1f77b4"/>
   </g>
   <g id="patch_32">
    <path d="M 939.742186 649.155058 
L 947.791472 649.155058 
L 947.791472 621.824818 
L 939.742186 621.824818 
z
" clip-path="url(#p4a395d50ef)" style="fill: #1f77b4"/>
   </g>
   <g id="patch_33">
    <path d="M 964.50922 649.155058 
L 972.558507 649.155058 
L 972.558507 621.024979 
L 964.50922 621.024979 
z
" clip-path="url(#p4a395d50ef)" style="fill: #1f77b4"/>
   </g>
   <g id="patch_34">
    <path d="M 989.276255 649.155058 
L 997.325541 649.155058 
L 997.325541 620.240186 
L 989.276255 620.240186 
z
" clip-path="url(#p4a395d50ef)" style="fill: #1f77b4"/>
   </g>
   <g id="patch_35">
    <path d="M 1014.04329 649.155058 
L 1022.092576 649.155058 
L 1022.092576 619.470221 
L 1014.04329 619.470221 
z
" clip-path="url(#p4a395d50ef)" style="fill: #1f77b4"/>
   </g>
   <g id="patch_36">
    <path d="M 1038.810324 649.155058 
L 1046.85961 649.155058 
L 1046.85961 618.714865 
L 1038.810324 618.714865 
z
" clip-path="url(#p4a395d50ef)" style="fill: #1f77b4"/>
   </g>
   <g id="patch_37">
    <path d="M 1063.577359 649.155058 
L 1071.626645 649.155058 
L 1071.626645 617.973892 
L 1063.577359 617.973892 
z
" clip-path="url(#p4a395d50ef)" style="fill: #1f77b4"/>
   </g>
   <g id="patch_38">
    <path d="M 1088.344393 649.155058 
L 1096.39368 649.155058 
L 1096.39368 617.247079 
L 1088.344393 617.247079 
z
" clip-path="url(#p4a395d50ef)" style="fill: #1f77b4"/>
   </g>
   <g id="patch_39">
    <path d="M 1113.111428 649.155058 
L 1121.160714 649.155058 
L 1121.160714 616.534198 
L 1113.111428 616.534198 
z
" clip-path="url(#p4a395d50ef)" style="fill: #1f77b4"/>
   </g>
   <g id="patch_40">
    <path d="M 1137.878463 649.155058 
L 1145.927749 649.155058 
L 1145.927749 615.835026 
L 1137.878463 615.835026 
z
" clip-path="url(#p4a395d50ef)" style="fill: #1f77b4"/>
   </g>
   <g id="patch_41">
    <path d="M 1162.645497 649.155058 
L 1170.694784 649.155058 
L 1170.694784 615.149335 
L 1162.645497 615.149335 
z
" clip-path="url(#p4a395d50ef)" style="fill: #1f77b4"/>
   </g>
   <g id="patch_42">
    <path d="M 1187.412532 649.155058 
L 1195.461818 649.155058 
L 1195.461818 614.476904 
L 1187.412532 614.476904 
z
" clip-path="url(#p4a395d50ef)" style="fill: #1f77b4"/>
   </g>
   <g id="patch_43">
    <path d="M 221.498182 650.412 
L 229.547468 650.412 
L 229.547468 598.614256 
L 221.498182 598.614256 
z
" clip-path="url(#p4a395d50ef)" style="fill: #ff7f0e"/>
   </g>
   <g id="patch_44">
    <path d="M 246.265216 649.667841 
L 254.314503 649.667841 
L 254.314503 597.750638 
L 246.265216 597.750638 
z
" clip-path="url(#p4a395d50ef)" style="fill: #ff7f0e"/>
   </g>
   <g id="patch_45">
    <path d="M 271.032251 648.754713 
L 279.081537 648.754713 
L 279.081537 596.76019 
L 271.032251 596.76019 
z
" clip-path="url(#p4a395d50ef)" style="fill: #ff7f0e"/>
   </g>
   <g id="patch_46">
    <path d="M 295.799286 647.748354 
L 303.848572 647.748354 
L 303.848572 595.702817 
L 295.799286 595.702817 
z
" clip-path="url(#p4a395d50ef)" style="fill: #ff7f0e"/>
   </g>
   <g id="patch_47">
    <path d="M 320.56632 646.687952 
L 328.615607 646.687952 
L 328.615607 594.609379 
L 320.56632 594.609379 
z
" clip-path="url(#p4a395d50ef)" style="fill: #ff7f0e"/>
   </g>
   <g id="patch_48">
    <path d="M 345.333355 645.596351 
L 353.382641 645.596351 
L 353.382641 593.497766 
L 345.333355 593.497766 
z
" clip-path="url(#p4a395d50ef)" style="fill: #ff7f0e"/>
   </g>
   <g id="patch_49">
    <path d="M 370.10039 644.48794 
L 378.149676 644.48794 
L 378.149676 592.379172 
L 370.10039 592.379172 
z
" clip-path="url(#p4a395d50ef)" style="fill: #ff7f0e"/>
   </g>
   <g id="patch_50">
    <path d="M 394.867424 643.372284 
L 402.91671 643.372284 
L 402.91671 591.260972 
L 394.867424 591.260972 
z
" clip-path="url(#p4a395d50ef)" style="fill: #ff7f0e"/>
   </g>
   <g id="patch_51">
    <path d="M 419.634459 642.255987 
L 427.683745 642.255987 
L 427.683745 590.148207 
L 419.634459 590.148207 
z
" clip-path="url(#p4a395d50ef)" style="fill: #ff7f0e"/>
   </g>
   <g id="patch_52">
    <path d="M 444.401493 641.143744 
L 452.45078 641.143744 
L 452.45078 589.044416 
L 444.401493 589.044416 
z
" clip-path="url(#p4a395d50ef)" style="fill: #ff7f0e"/>
   </g>
   <g id="patch_53">
    <path d="M 469.168528 640.038958 
L 477.217814 640.038958 
L 477.217814 587.95212 
L 469.168528 587.95212 
z
" clip-path="url(#p4a395d50ef)" style="fill: #ff7f0e"/>
   </g>
   <g id="patch_54">
    <path d="M 493.935563 638.944134 
L 501.984849 638.944134 
L 501.984849 586.873141 
L 493.935563 586.873141 
z
" clip-path="url(#p4a395d50ef)" style="fill: #ff7f0e"/>
   </g>
   <g id="patch_55">
    <path d="M 518.702597 637.861132 
L 526.751883 637.861132 
L 526.751883 585.808794 
L 518.702597 585.808794 
z
" clip-path="url(#p4a395d50ef)" style="fill: #ff7f0e"/>
   </g>
   <g id="patch_56">
    <path d="M 543.469632 636.791337 
L 551.518918 636.791337 
L 551.518918 584.760029 
L 543.469632 584.760029 
z
" clip-path="url(#p4a395d50ef)" style="fill: #ff7f0e"/>
   </g>
   <g id="patch_57">
    <path d="M 568.236666 635.735782 
L 576.285953 635.735782 
L 576.285953 583.72752 
L 568.236666 583.72752 
z
" clip-path="url(#p4a395d50ef)" style="fill: #ff7f0e"/>
   </g>
   <g id="patch_58">
    <path d="M 593.003701 634.695232 
L 601.052987 634.695232 
L 601.052987 582.711738 
L 593.003701 582.711738 
z
" clip-path="url(#p4a395d50ef)" style="fill: #ff7f0e"/>
   </g>
   <g id="patch_59">
    <path d="M 617.770736 633.670242 
L 625.820022 633.670242 
L 625.820022 581.712991 
L 617.770736 581.712991 
z
" clip-path="url(#p4a395d50ef)" style="fill: #ff7f0e"/>
   </g>
   <g id="patch_60">
    <path d="M 642.53777 632.661208 
L 650.587057 632.661208 
L 650.587057 580.731468 
L 642.53777 580.731468 
z
" clip-path="url(#p4a395d50ef)" style="fill: #ff7f0e"/>
   </g>
   <g id="patch_61">
    <path d="M 667.304805 631.668399 
L 675.354091 631.668399 
L 675.354091 579.767262 
L 667.304805 579.767262 
z
" clip-path="url(#p4a395d50ef)" style="fill: #ff7f0e"/>
   </g>
   <g id="patch_62">
    <path d="M 692.07184 630.691982 
L 700.121126 630.691982 
L 700.121126 578.82039 
L 692.07184 578.82039 
z
" clip-path="url(#p4a395d50ef)" style="fill: #ff7f0e"/>
   </g>
   <g id="patch_63">
    <path d="M 716.838874 629.732044 
L 724.88816 629.732044 
L 724.88816 577.89081 
L 716.838874 577.89081 
z
" clip-path="url(#p4a395d50ef)" style="fill: #ff7f0e"/>
   </g>
   <g id="patch_64">
    <path d="M 741.605909 628.788611 
L 749.655195 628.788611 
L 749.655195 576.978435 
L 741.605909 576.978435 
z
" clip-path="url(#p4a395d50ef)" style="fill: #ff7f0e"/>
   </g>
   <g id="patch_65">
    <path d="M 766.372943 627.861653 
L 774.42223 627.861653 
L 774.42223 576.083138 
L 766.372943 576.083138 
z
" clip-path="url(#p4a395d50ef)" style="fill: #ff7f0e"/>
   </g>
   <g id="patch_66">
    <path d="M 791.139978 626.9511 
L 799.189264 626.9511 
L 799.189264 575.204765 
L 791.139978 575.204765 
z
" clip-path="url(#p4a395d50ef)" style="fill: #ff7f0e"/>
   </g>
   <g id="patch_67">
    <path d="M 815.907013 626.056848 
L 823.956299 626.056848 
L 823.956299 574.343137 
L 815.907013 574.343137 
z
" clip-path="url(#p4a395d50ef)" style="fill: #ff7f0e"/>
   </g>
   <g id="patch_68">
    <path d="M 840.674047 625.178766 
L 848.723334 625.178766 
L 848.723334 573.498057 
L 840.674047 573.498057 
z
" clip-path="url(#p4a395d50ef)" style="fill: #ff7f0e"/>
   </g>
   <g id="patch_69">
    <path d="M 865.441082 624.316696 
L 873.490368 624.316696 
L 873.490368 572.66931 
L 865.441082 572.66931 
z
" clip-path="url(#p4a395d50ef)" style="fill: #ff7f0e"/>
   </g>
   <g id="patch_70">
    <path d="M 890.208117 623.470475 
L 898.257403 623.470475 
L 898.257403 571.856682 
L 890.208117 571.856682 
z
" clip-path="url(#p4a395d50ef)" style="fill: #ff7f0e"/>
   </g>
   <g id="patch_71">
    <path d="M 914.975151 622.639915 
L 923.024437 622.639915 
L 923.024437 571.059939 
L 914.975151 571.059939 
z
" clip-path="url(#p4a395d50ef)" style="fill: #ff7f0e"/>
   </g>
   <g id="patch_72">
    <path d="M 939.742186 621.824818 
L 947.791472 621.824818 
L 947.791472 570.278842 
L 939.742186 570.278842 
z
" clip-path="url(#p4a395d50ef)" style="fill: #ff7f0e"/>
   </g>
   <g id="patch_73">
    <path d="M 964.50922 621.024979 
L 972.558507 621.024979 
L 972.558507 569.513152 
L 964.50922 569.513152 
z
" clip-path="url(#p4a395d50ef)" style="fill: #ff7f0e"/>
   </g>
   <g id="patch_74">
    <path d="M 989.276255 620.240186 
L 997.325541 620.240186 
L 997.325541 568.762623 
L 989.276255 568.762623 
z
" clip-path="url(#p4a395d50ef)" style="fill: #ff7f0e"/>
   </g>
   <g id="patch_75">
    <path d="M 1014.04329 619.470221 
L 1022.092576 619.470221 
L 1022.092576 568.02701 
L 1014.04329 568.02701 
z
" clip-path="url(#p4a395d50ef)" style="fill: #ff7f0e"/>
   </g>
   <g id="patch_76">
    <path d="M 1038.810324 618.714865 
L 1046.85961 618.714865 
L 1046.85961 567.306064 
L 1038.810324 567.306064 
z
" clip-path="url(#p4a395d50ef)" style="fill: #ff7f0e"/>
   </g>
   <g id="patch_77">
    <path d="M 1063.577359 617.973892 
L 1071.626645 617.973892 
L 1071.626645 566.599541 
L 1063.577359 566.599541 
z
" clip-path="url(#p4a395d50ef)" style="fill: #ff7f0e"/>
   </g>
   <g id="patch_78">
    <path d="M 1088.344393 617.247079 
L 1096.39368 617.247079 
L 1096.39368 565.907194 
L 1088.344393 565.907194 
z
" clip-path="url(#p4a395d50ef)" style="fill: #ff7f0e"/>
   </g>
   <g id="patch_79">
    <path d="M 1113.111428 616.534198 
L 1121.160714 616.534198 
L 1121.160714 565.228779 
L 1113.111428 565.228779 
z
" clip-path="url(#p4a395d50ef)" style="fill: #ff7f0e"/>
   </g>
   <g id="patch_80">
    <path d="M 1137.878463 615.835026 
L 1145.927749 615.835026 
L 1145.927749 564.564052 
L 1137.878463 564.564052 
z
" clip-path="url(#p4a395d50ef)" style="fill: #ff7f0e"/>
   </g>
   <g id="patch_81">
    <path d="M 1162.645497 615.149335 
L 1170.694784 615.149335 
L 1170.694784 563.912774 
L 1162.645497 563.912774 
z
" clip-path="url(#p4a395d50ef)" style="fill: #ff7f0e"/>
   </g>
   <g id="patch_82">
    <path d="M 1187.412532 614.476904 
L 1195.461818 614.476904 
L 1195.461818 563.274707 
L 1187.412532 563.274707 
z
" clip-path="url(#p4a395d50ef)" style="fill: #ff7f0e"/>
   </g>
   <g id="patch_83">
    <path d="M 221.498182 598.614256 
L 229.547468 598.614256 
L 229.547468 454.263668 
L 221.498182 454.263668 
z
" clip-path="url(#p4a395d50ef)" style="fill: #2ca02c"/>
   </g>
   <g id="patch_84">
    <path d="M 246.265216 597.750638 
L 254.314503 597.750638 
L 254.314503 457.023621 
L 246.265216 457.023621 
z
" clip-path="url(#p4a395d50ef)" style="fill: #2ca02c"/>
   </g>
   <g id="patch_85">
    <path d="M 271.032251 596.76019 
L 279.081537 596.76019 
L 279.081537 458.756776 
L 271.032251 458.756776 
z
" clip-path="url(#p4a395d50ef)" style="fill: #2ca02c"/>
   </g>
   <g id="patch_86">
    <path d="M 295.799286 595.702817 
L 303.848572 595.702817 
L 303.848572 459.855669 
L 295.799286 459.855669 
z
" clip-path="url(#p4a395d50ef)" style="fill: #2ca02c"/>
   </g>
   <g id="patch_87">
    <path d="M 320.56632 594.609379 
L 328.615607 594.609379 
L 328.615607 460.525674 
L 320.56632 460.525674 
z
" clip-path="url(#p4a395d50ef)" style="fill: #2ca02c"/>
   </g>
   <g id="patch_88">
    <path d="M 345.333355 593.497766 
L 353.382641 593.497766 
L 353.382641 460.888332 
L 345.333355 460.888332 
z
" clip-path="url(#p4a395d50ef)" style="fill: #2ca02c"/>
   </g>
   <g id="patch_89">
    <path d="M 370.10039 592.379172 
L 378.149676 592.379172 
L 378.149676 461.021702 
L 370.10039 461.021702 
z
" clip-path="url(#p4a395d50ef)" style="fill: #2ca02c"/>
   </g>
   <g id="patch_90">
    <path d="M 394.867424 591.260972 
L 402.91671 591.260972 
L 402.91671 460.978944 
L 394.867424 460.978944 
z
" clip-path="url(#p4a395d50ef)" style="fill: #2ca02c"/>
   </g>
   <g id="patch_91">
    <path d="M 419.634459 590.148207 
L 427.683745 590.148207 
L 427.683745 460.797892 
L 419.634459 460.797892 
z
" clip-path="url(#p4a395d50ef)" style="fill: #2ca02c"/>
   </g>
   <g id="patch_92">
    <path d="M 444.401493 589.044416 
L 452.45078 589.044416 
L 452.45078 460.506406 
L 444.401493 460.506406 
z
" clip-path="url(#p4a395d50ef)" style="fill: #2ca02c"/>
   </g>
   <g id="patch_93">
    <path d="M 469.168528 587.95212 
L 477.217814 587.95212 
L 477.217814 460.125581 
L 469.168528 460.125581 
z
" clip-path="url(#p4a395d50ef)" style="fill: #2ca02c"/>
   </g>
   <g id="patch_94">
    <path d="M 493.935563 586.873141 
L 501.984849 586.873141 
L 501.984849 459.671743 
L 493.935563 459.671743 
z
" clip-path="url(#p4a395d50ef)" style="fill: #2ca02c"/>
   </g>
   <g id="patch_95">
    <path d="M 518.702597 585.808794 
L 526.751883 585.808794 
L 526.751883 459.157769 
L 518.702597 459.157769 
z
" clip-path="url(#p4a395d50ef)" style="fill: #2ca02c"/>
   </g>
   <g id="patch_96">
    <path d="M 543.469632 584.760029 
L 551.518918 584.760029 
L 551.518918 458.593976 
L 543.469632 458.593976 
z
" clip-path="url(#p4a395d50ef)" style="fill: #2ca02c"/>
   </g>
   <g id="patch_97">
    <path d="M 568.236666 583.72752 
L 576.285953 583.72752 
L 576.285953 457.988739 
L 568.236666 457.988739 
z
" clip-path="url(#p4a395d50ef)" style="fill: #2ca02c"/>
   </g>
   <g id="patch_98">
    <path d="M 593.003701 582.711738 
L 601.052987 582.711738 
L 601.052987 457.348936 
L 593.003701 457.348936 
z
" clip-path="url(#p4a395d50ef)" style="fill: #2ca02c"/>
   </g>
   <g id="patch_99">
    <path d="M 617.770736 581.712991 
L 625.820022 581.712991 
L 625.820022 456.680272 
L 617.770736 456.680272 
z
" clip-path="url(#p4a395d50ef)" style="fill: #2ca02c"/>
   </g>
   <g id="patch_100">
    <path d="M 642.53777 580.731468 
L 650.587057 580.731468 
L 650.587057 455.987517 
L 642.53777 455.987517 
z
" clip-path="url(#p4a395d50ef)" style="fill: #2ca02c"/>
   </g>
   <g id="patch_101">
    <path d="M 667.304805 579.767262 
L 675.354091 579.767262 
L 675.354091 455.274693 
L 667.304805 455.274693 
z
" clip-path="url(#p4a395d50ef)" style="fill: #2ca02c"/>
   </g>
   <g id="patch_102">
    <path d="M 692.07184 578.82039 
L 700.121126 578.82039 
L 700.121126 454.545214 
L 692.07184 454.545214 
z
" clip-path="url(#p4a395d50ef)" style="fill: #2ca02c"/>
   </g>
   <g id="patch_103">
    <path d="M 716.838874 577.89081 
L 724.88816 577.89081 
L 724.88816 453.801991 
L 716.838874 453.801991 
z
" clip-path="url(#p4a395d50ef)" style="fill: #2ca02c"/>
   </g>
   <g id="patch_104">
    <path d="M 741.605909 576.978435 
L 749.655195 576.978435 
L 749.655195 453.047521 
L 741.605909 453.047521 
z
" clip-path="url(#p4a395d50ef)" style="fill: #2ca02c"/>
   </g>
   <g id="patch_105">
    <path d="M 766.372943 576.083138 
L 774.42223 576.083138 
L 774.42223 452.283958 
L 766.372943 452.283958 
z
" clip-path="url(#p4a395d50ef)" style="fill: #2ca02c"/>
   </g>
   <g id="patch_106">
    <path d="M 791.139978 575.204765 
L 799.189264 575.204765 
L 799.189264 451.513163 
L 791.139978 451.513163 
z
" clip-path="url(#p4a395d50ef)" style="fill: #2ca02c"/>
   </g>
   <g id="patch_107">
    <path d="M 815.907013 574.343137 
L 823.956299 574.343137 
L 823.956299 450.73675 
L 815.907013 450.73675 
z
" clip-path="url(#p4a395d50ef)" style="fill: #2ca02c"/>
   </g>
   <g id="patch_108">
    <path d="M 840.674047 573.498057 
L 848.723334 573.498057 
L 848.723334 449.956129 
L 840.674047 449.956129 
z
" clip-path="url(#p4a395d50ef)" style="fill: #2ca02c"/>
   </g>
   <g id="patch_109">
    <path d="M 865.441082 572.66931 
L 873.490368 572.66931 
L 873.490368 449.172523 
L 865.441082 449.172523 
z
" clip-path="url(#p4a395d50ef)" style="fill: #2ca02c"/>
   </g>
   <g id="patch_110">
    <path d="M 890.208117 571.856682 
L 898.257403 571.856682 
L 898.257403 448.387014 
L 890.208117 448.387014 
z
" clip-path="url(#p4a395d50ef)" style="fill: #2ca02c"/>
   </g>
   <g id="patch_111">
    <path d="M 914.975151 571.059939 
L 923.024437 571.059939 
L 923.024437 447.600541 
L 914.975151 447.600541 
z
" clip-path="url(#p4a395d50ef)" style="fill: #2ca02c"/>
   </g>
   <g id="patch_112">
    <path d="M 939.742186 570.278842 
L 947.791472 570.278842 
L 947.791472 446.813931 
L 939.742186 446.813931 
z
" clip-path="url(#p4a395d50ef)" style="fill: #2ca02c"/>
   </g>
   <g id="patch_113">
    <path d="M 964.50922 569.513152 
L 972.558507 569.513152 
L 972.558507 446.02791 
L 964.50922 446.02791 
z
" clip-path="url(#p4a395d50ef)" style="fill: #2ca02c"/>
   </g>
   <g id="patch_114">
    <path d="M 989.276255 568.762623 
L 997.325541 568.762623 
L 997.325541 445.243117 
L 989.276255 445.243117 
z
" clip-path="url(#p4a395d50ef)" style="fill: #2ca02c"/>
   </g>
   <g id="patch_115">
    <path d="M 1014.04329 568.02701 
L 1022.092576 568.02701 
L 1022.092576 444.460116 
L 1014.04329 444.460116 
z
" clip-path="url(#p4a395d50ef)" style="fill: #2ca02c"/>
   </g>
   <g id="patch_116">
    <path d="M 1038.810324 567.306064 
L 1046.85961 567.306064 
L 1046.85961 443.679402 
L 1038.810324 443.679402 
z
" clip-path="url(#p4a395d50ef)" style="fill: #2ca02c"/>
   </g>
   <g id="patch_117">
    <path d="M 1063.577359 566.599541 
L 1071.626645 566.599541 
L 1071.626645 442.901411 
L 1063.577359 442.901411 
z
" clip-path="url(#p4a395d50ef)" style="fill: #2ca02c"/>
   </g>
   <g id="patch_118">
    <path d="M 1088.344393 565.907194 
L 1096.39368 565.907194 
L 1096.39368 442.126526 
L 1088.344393 442.126526 
z
" clip-path="url(#p4a395d50ef)" style="fill: #2ca02c"/>
   </g>
   <g id="patch_119">
    <path d="M 1113.111428 565.228779 
L 1121.160714 565.228779 
L 1121.160714 441.355085 
L 1113.111428 441.355085 
z
" clip-path="url(#p4a395d50ef)" style="fill: #2ca02c"/>
   </g>
   <g id="patch_120">
    <path d="M 1137.878463 564.564052 
L 1145.927749 564.564052 
L 1145.927749 440.587383 
L 1137.878463 440.587383 
z
" clip-path="url(#p4a395d50ef)" style="fill: #2ca02c"/>
   </g>
   <g id="patch_121">
    <path d="M 1162.645497 563.912774 
L 1170.694784 563.912774 
L 1170.694784 439.82368 
L 1162.645497 439.82368 
z
" clip-path="url(#p4a395d50ef)" style="fill: #2ca02c"/>
   </g>
   <g id="patch_122">
    <path d="M 1187.412532 563.274707 
L 1195.461818 563.274707 
L 1195.461818 439.064202 
L 1187.412532 439.064202 
z
" clip-path="url(#p4a395d50ef)" style="fill: #2ca02c"/>
   </g>
   <g id="patch_123">
    <path d="M 221.498182 454.263668 
L 229.547468 454.263668 
L 229.547468 225.503865 
L 221.498182 225.503865 
z
" clip-path="url(#p4a395d50ef)" style="fill: #d62728"/>
   </g>
   <g id="patch_124">
    <path d="M 246.265216 457.023621 
L 254.314503 457.023621 
L 254.314503 229.465202 
L 246.265216 229.465202 
z
" clip-path="url(#p4a395d50ef)" style="fill: #d62728"/>
   </g>
   <g id="patch_125">
    <path d="M 271.032251 458.756776 
L 279.081537 458.756776 
L 279.081537 232.043035 
L 271.032251 232.043035 
z
" clip-path="url(#p4a395d50ef)" style="fill: #d62728"/>
   </g>
   <g id="patch_126">
    <path d="M 295.799286 459.855669 
L 303.848572 459.855669 
L 303.848572 233.763474 
L 295.799286 233.763474 
z
" clip-path="url(#p4a395d50ef)" style="fill: #d62728"/>
   </g>
   <g id="patch_127">
    <path d="M 320.56632 460.525674 
L 328.615607 460.525674 
L 328.615607 234.902237 
L 320.56632 234.902237 
z
" clip-path="url(#p4a395d50ef)" style="fill: #d62728"/>
   </g>
   <g id="patch_128">
    <path d="M 345.333355 460.888332 
L 353.382641 460.888332 
L 353.382641 235.622723 
L 345.333355 235.622723 
z
" clip-path="url(#p4a395d50ef)" style="fill: #d62728"/>
   </g>
   <g id="patch_129">
    <path d="M 370.10039 461.021702 
L 378.149676 461.021702 
L 378.149676 236.03002 
L 370.10039 236.03002 
z
" clip-path="url(#p4a395d50ef)" style="fill: #d62728"/>
   </g>
   <g id="patch_130">
    <path d="M 394.867424 460.978944 
L 402.91671 460.978944 
L 402.91671 236.195786 
L 394.867424 236.195786 
z
" clip-path="url(#p4a395d50ef)" style="fill: #d62728"/>
   </g>
   <g id="patch_131">
    <path d="M 419.634459 460.797892 
L 427.683745 460.797892 
L 427.683745 236.171087 
L 419.634459 236.171087 
z
" clip-path="url(#p4a395d50ef)" style="fill: #d62728"/>
   </g>
   <g id="patch_132">
    <path d="M 444.401493 460.506406 
L 452.45078 460.506406 
L 452.45078 235.99358 
L 444.401493 235.99358 
z
" clip-path="url(#p4a395d50ef)" style="fill: #d62728"/>
   </g>
   <g id="patch_133">
    <path d="M 469.168528 460.125581 
L 477.217814 460.125581 
L 477.217814 235.691813 
L 469.168528 235.691813 
z
" clip-path="url(#p4a395d50ef)" style="fill: #d62728"/>
   </g>
   <g id="patch_134">
    <path d="M 493.935563 459.671743 
L 501.984849 459.671743 
L 501.984849 235.287915 
L 493.935563 235.287915 
z
" clip-path="url(#p4a395d50ef)" style="fill: #d62728"/>
   </g>
   <g id="patch_135">
    <path d="M 518.702597 459.157769 
L 526.751883 459.157769 
L 526.751883 234.799365 
L 518.702597 234.799365 
z
" clip-path="url(#p4a395d50ef)" style="fill: #d62728"/>
   </g>
   <g id="patch_136">
    <path d="M 543.469632 458.593976 
L 551.518918 458.593976 
L 551.518918 234.240185 
L 543.469632 234.240185 
z
" clip-path="url(#p4a395d50ef)" style="fill: #d62728"/>
   </g>
   <g id="patch_137">
    <path d="M 568.236666 457.988739 
L 576.285953 457.988739 
L 576.285953 233.62178 
L 568.236666 233.62178 
z
" clip-path="url(#p4a395d50ef)" style="fill: #d62728"/>
   </g>
   <g id="patch_138">
    <path d="M 593.003701 457.348936 
L 601.052987 457.348936 
L 601.052987 232.953531 
L 593.003701 232.953531 
z
" clip-path="url(#p4a395d50ef)" style="fill: #d62728"/>
   </g>
   <g id="patch_139">
    <path d="M 617.770736 456.680272 
L 625.820022 456.680272 
L 625.820022 232.24323 
L 617.770736 232.24323 
z
" clip-path="url(#p4a395d50ef)" style="fill: #d62728"/>
   </g>
   <g id="patch_140">
    <path d="M 642.53777 455.987517 
L 650.587057 455.987517 
L 650.587057 231.497408 
L 642.53777 231.497408 
z
" clip-path="url(#p4a395d50ef)" style="fill: #d62728"/>
   </g>
   <g id="patch_141">
    <path d="M 667.304805 455.274693 
L 675.354091 455.274693 
L 675.354091 230.721582 
L 667.304805 230.721582 
z
" clip-path="url(#p4a395d50ef)" style="fill: #d62728"/>
   </g>
   <g id="patch_142">
    <path d="M 692.07184 454.545214 
L 700.121126 454.545214 
L 700.121126 229.920442 
L 692.07184 229.920442 
z
" clip-path="url(#p4a395d50ef)" style="fill: #d62728"/>
   </g>
   <g id="patch_143">
    <path d="M 716.838874 453.801991 
L 724.88816 453.801991 
L 724.88816 229.097997 
L 716.838874 229.097997 
z
" clip-path="url(#p4a395d50ef)" style="fill: #d62728"/>
   </g>
   <g id="patch_144">
    <path d="M 741.605909 453.047521 
L 749.655195 453.047521 
L 749.655195 228.257698 
L 741.605909 228.257698 
z
" clip-path="url(#p4a395d50ef)" style="fill: #d62728"/>
   </g>
   <g id="patch_145">
    <path d="M 766.372943 452.283958 
L 774.42223 452.283958 
L 774.42223 227.402523 
L 766.372943 227.402523 
z
" clip-path="url(#p4a395d50ef)" style="fill: #d62728"/>
   </g>
   <g id="patch_146">
    <path d="M 791.139978 451.513163 
L 799.189264 451.513163 
L 799.189264 226.535055 
L 791.139978 226.535055 
z
" clip-path="url(#p4a395d50ef)" style="fill: #d62728"/>
   </g>
   <g id="patch_147">
    <path d="M 815.907013 450.73675 
L 823.956299 450.73675 
L 823.956299 225.657544 
L 815.907013 225.657544 
z
" clip-path="url(#p4a395d50ef)" style="fill: #d62728"/>
   </g>
   <g id="patch_148">
    <path d="M 840.674047 449.956129 
L 848.723334 449.956129 
L 848.723334 224.771954 
L 840.674047 224.771954 
z
" clip-path="url(#p4a395d50ef)" style="fill: #d62728"/>
   </g>
   <g id="patch_149">
    <path d="M 865.441082 449.172523 
L 873.490368 449.172523 
L 873.490368 223.880007 
L 865.441082 223.880007 
z
" clip-path="url(#p4a395d50ef)" style="fill: #d62728"/>
   </g>
   <g id="patch_150">
    <path d="M 890.208117 448.387014 
L 898.257403 448.387014 
L 898.257403 222.983211 
L 890.208117 222.983211 
z
" clip-path="url(#p4a395d50ef)" style="fill: #d62728"/>
   </g>
   <g id="patch_151">
    <path d="M 914.975151 447.600541 
L 923.024437 447.600541 
L 923.024437 222.082897 
L 914.975151 222.082897 
z
" clip-path="url(#p4a395d50ef)" style="fill: #d62728"/>
   </g>
   <g id="patch_152">
    <path d="M 939.742186 446.813931 
L 947.791472 446.813931 
L 947.791472 221.180236 
L 939.742186 221.180236 
z
" clip-path="url(#p4a395d50ef)" style="fill: #d62728"/>
   </g>
   <g id="patch_153">
    <path d="M 964.50922 446.02791 
L 972.558507 446.02791 
L 972.558507 220.276262 
L 964.50922 220.276262 
z
" clip-path="url(#p4a395d50ef)" style="fill: #d62728"/>
   </g>
   <g id="patch_154">
    <path d="M 989.276255 445.243117 
L 997.325541 445.243117 
L 997.325541 219.371891 
L 989.276255 219.371891 
z
" clip-path="url(#p4a395d50ef)" style="fill: #d62728"/>
   </g>
   <g id="patch_155">
    <path d="M 1014.04329 444.460116 
L 1022.092576 444.460116 
L 1022.092576 218.467932 
L 1014.04329 218.467932 
z
" clip-path="url(#p4a395d50ef)" style="fill: #d62728"/>
   </g>
   <g id="patch_156">
    <path d="M 1038.810324 443.679402 
L 1046.85961 443.679402 
L 1046.85961 217.565101 
L 1038.810324 217.565101 
z
" clip-path="url(#p4a395d50ef)" style="fill: #d62728"/>
   </g>
   <g id="patch_157">
    <path d="M 1063.577359 442.901411 
L 1071.626645 442.901411 
L 1071.626645 216.664033 
L 1063.577359 216.664033 
z
" clip-path="url(#p4a395d50ef)" style="fill: #d62728"/>
   </g>
   <g id="patch_158">
    <path d="M 1088.344393 442.126526 
L 1096.39368 442.126526 
L 1096.39368 215.76529 
L 1088.344393 215.76529 
z
" clip-path="url(#p4a395d50ef)" style="fill: #d62728"/>
   </g>
   <g id="patch_159">
    <path d="M 1113.111428 441.355085 
L 1121.160714 441.355085 
L 1121.160714 214.86937 
L 1113.111428 214.86937 
z
" clip-path="url(#p4a395d50ef)" style="fill: #d62728"/>
   </g>
   <g id="patch_160">
    <path d="M 1137.878463 440.587383 
L 1145.927749 440.587383 
L 1145.927749 213.976714 
L 1137.878463 213.976714 
z
" clip-path="url(#p4a395d50ef)" style="fill: #d62728"/>
   </g>
   <g id="patch_161">
    <path d="M 1162.645497 439.82368 
L 1170.694784 439.82368 
L 1170.694784 213.087713 
L 1162.645497 213.087713 
z
" clip-path="url(#p4a395d50ef)" style="fill: #d62728"/>
   </g>
   <g id="patch_162">
    <path d="M 1187.412532 439.064202 
L 1195.461818 439.064202 
L 1195.461818 212.202711 
L 1187.412532 212.202711 
z
" clip-path="url(#p4a395d50ef)" style="fill: #d62728"/>
   </g>
   <g id="patch_163">
    <path d="M 221.498182 225.503865 
L 229.547468 225.503865 
L 229.547468 114.492 
L 221.498182 114.492 
z
" clip-path="url(#p4a395d50ef)" style="fill: #9467bd"/>
   </g>
   <g id="patch_164">
    <path d="M 246.265216 229.465202 
L 254.314503 229.465202 
L 254.314503 121.670492 
L 246.265216 121.670492 
z
" clip-path="url(#p4a395d50ef)" style="fill: #9467bd"/>
   </g>
   <g id="patch_165">
    <path d="M 271.032251 232.043035 
L 279.081537 232.043035 
L 279.081537 126.818916 
L 271.032251 126.818916 
z
" clip-path="url(#p4a395d50ef)" style="fill: #9467bd"/>
   </g>
   <g id="patch_166">
    <path d="M 295.799286 233.763474 
L 303.848572 233.763474 
L 303.848572 130.696032 
L 295.799286 130.696032 
z
" clip-path="url(#p4a395d50ef)" style="fill: #9467bd"/>
   </g>
   <g id="patch_167">
    <path d="M 320.56632 234.902237 
L 328.615607 234.902237 
L 328.615607 133.701085 
L 320.56632 133.701085 
z
" clip-path="url(#p4a395d50ef)" style="fill: #9467bd"/>
   </g>
   <g id="patch_168">
    <path d="M 345.333355 235.622723 
L 353.382641 235.622723 
L 353.382641 136.071589 
L 345.333355 136.071589 
z
" clip-path="url(#p4a395d50ef)" style="fill: #9467bd"/>
   </g>
   <g id="patch_169">
    <path d="M 370.10039 236.03002 
L 378.149676 236.03002 
L 378.149676 137.960867 
L 370.10039 137.960867 
z
" clip-path="url(#p4a395d50ef)" style="fill: #9467bd"/>
   </g>
   <g id="patch_170">
    <path d="M 394.867424 236.195786 
L 402.91671 236.195786 
L 402.91671 139.473873 
L 394.867424 139.473873 
z
" clip-path="url(#p4a395d50ef)" style="fill: #9467bd"/>
   </g>
   <g id="patch_171">
    <path d="M 419.634459 236.171087 
L 427.683745 236.171087 
L 427.683745 140.685686 
L 419.634459 140.685686 
z
" clip-path="url(#p4a395d50ef)" style="fill: #9467bd"/>
   </g>
   <g id="patch_172">
    <path d="M 444.401493 235.99358 
L 452.45078 235.99358 
L 452.45078 141.6519 
L 444.401493 141.6519 
z
" clip-path="url(#p4a395d50ef)" style="fill: #9467bd"/>
   </g>
   <g id="patch_173">
    <path d="M 469.168528 235.691813 
L 477.217814 235.691813 
L 477.217814 142.414837 
L 469.168528 142.414837 
z
" clip-path="url(#p4a395d50ef)" style="fill: #9467bd"/>
   </g>
   <g id="patch_174">
    <path d="M 493.935563 235.287915 
L 501.984849 235.287915 
L 501.984849 143.007451 
L 493.935563 143.007451 
z
" clip-path="url(#p4a395d50ef)" style="fill: #9467bd"/>
   </g>
   <g id="patch_175">
    <path d="M 518.702597 234.799365 
L 526.751883 234.799365 
L 526.751883 143.455895 
L 518.702597 143.455895 
z
" clip-path="url(#p4a395d50ef)" style="fill: #9467bd"/>
   </g>
   <g id="patch_176">
    <path d="M 543.469632 234.240185 
L 551.518918 234.240185 
L 551.518918 143.781257 
L 543.469632 143.781257 
z
" clip-path="url(#p4a395d50ef)" style="fill: #9467bd"/>
   </g>
   <g id="patch_177">
    <path d="M 568.236666 233.62178 
L 576.285953 233.62178 
L 576.285953 144.000777 
L 568.236666 144.000777 
z
" clip-path="url(#p4a395d50ef)" style="fill: #9467bd"/>
   </g>
   <g id="patch_178">
    <path d="M 593.003701 232.953531 
L 601.052987 232.953531 
L 601.052987 144.128718 
L 593.003701 144.128718 
z
" clip-path="url(#p4a395d50ef)" style="fill: #9467bd"/>
   </g>
   <g id="patch_179">
    <path d="M 617.770736 232.24323 
L 625.820022 232.24323 
L 625.820022 144.176999 
L 617.770736 144.176999 
z
" clip-path="url(#p4a395d50ef)" style="fill: #9467bd"/>
   </g>
   <g id="patch_180">
    <path d="M 642.53777 231.497408 
L 650.587057 231.497408 
L 650.587057 144.155677 
L 642.53777 144.155677 
z
" clip-path="url(#p4a395d50ef)" style="fill: #9467bd"/>
   </g>
   <g id="patch_181">
    <path d="M 667.304805 230.721582 
L 675.354091 230.721582 
L 675.354091 144.073299 
L 667.304805 144.073299 
z
" clip-path="url(#p4a395d50ef)" style="fill: #9467bd"/>
   </g>
   <g id="patch_182">
    <path d="M 692.07184 229.920442 
L 700.121126 229.920442 
L 700.121126 143.937189 
L 692.07184 143.937189 
z
" clip-path="url(#p4a395d50ef)" style="fill: #9467bd"/>
   </g>
   <g id="patch_183">
    <path d="M 716.838874 229.097997 
L 724.88816 229.097997 
L 724.88816 143.753656 
L 716.838874 143.753656 
z
" clip-path="url(#p4a395d50ef)" style="fill: #9467bd"/>
   </g>
   <g id="patch_184">
    <path d="M 741.605909 228.257698 
L 749.655195 228.257698 
L 749.655195 143.528171 
L 741.605909 143.528171 
z
" clip-path="url(#p4a395d50ef)" style="fill: #9467bd"/>
   </g>
   <g id="patch_185">
    <path d="M 766.372943 227.402523 
L 774.42223 227.402523 
L 774.42223 143.265502 
L 766.372943 143.265502 
z
" clip-path="url(#p4a395d50ef)" style="fill: #9467bd"/>
   </g>
   <g id="patch_186">
    <path d="M 791.139978 226.535055 
L 799.189264 226.535055 
L 799.189264 142.969822 
L 791.139978 142.969822 
z
" clip-path="url(#p4a395d50ef)" style="fill: #9467bd"/>
   </g>
   <g id="patch_187">
    <path d="M 815.907013 225.657544 
L 823.956299 225.657544 
L 823.956299 142.644797 
L 815.907013 142.644797 
z
" clip-path="url(#p4a395d50ef)" style="fill: #9467bd"/>
   </g>
   <g id="patch_188">
    <path d="M 840.674047 224.771954 
L 848.723334 224.771954 
L 848.723334 142.293668 
L 840.674047 142.293668 
z
" clip-path="url(#p4a395d50ef)" style="fill: #9467bd"/>
   </g>
   <g id="patch_189">
    <path d="M 865.441082 223.880007 
L 873.490368 223.880007 
L 873.490368 141.919303 
L 865.441082 141.919303 
z
" clip-path="url(#p4a395d50ef)" style="fill: #9467bd"/>
   </g>
   <g id="patch_190">
    <path d="M 890.208117 222.983211 
L 898.257403 222.983211 
L 898.257403 141.524249 
L 890.208117 141.524249 
z
" clip-path="url(#p4a395d50ef)" style="fill: #9467bd"/>
   </g>
   <g id="patch_191">
    <path d="M 914.975151 222.082897 
L 923.024437 222.082897 
L 923.024437 141.110776 
L 914.975151 141.110776 
z
" clip-path="url(#p4a395d50ef)" style="fill: #9467bd"/>
   </g>
   <g id="patch_192">
    <path d="M 939.742186 221.180236 
L 947.791472 221.180236 
L 947.791472 140.680915 
L 939.742186 140.680915 
z
" clip-path="url(#p4a395d50ef)" style="fill: #9467bd"/>
   </g>
   <g id="patch_193">
    <path d="M 964.50922 220.276262 
L 972.558507 220.276262 
L 972.558507 140.236484 
L 964.50922 140.236484 
z
" clip-path="url(#p4a395d50ef)" style="fill: #9467bd"/>
   </g>
   <g id="patch_194">
    <path d="M 989.276255 219.371891 
L 997.325541 219.371891 
L 997.325541 139.779114 
L 989.276255 139.779114 
z
" clip-path="url(#p4a395d50ef)" style="fill: #9467bd"/>
   </g>
   <g id="patch_195">
    <path d="M 1014.04329 218.467932 
L 1022.092576 218.467932 
L 1022.092576 139.310273 
L 1014.04329 139.310273 
z
" clip-path="url(#p4a395d50ef)" style="fill: #9467bd"/>
   </g>
   <g id="patch_196">
    <path d="M 1038.810324 217.565101 
L 1046.85961 217.565101 
L 1046.85961 138.831286 
L 1038.810324 138.831286 
z
" clip-path="url(#p4a395d50ef)" style="fill: #9467bd"/>
   </g>
   <g id="patch_197">
    <path d="M 1063.577359 216.664033 
L 1071.626645 216.664033 
L 1071.626645 138.343347 
L 1063.577359 138.343347 
z
" clip-path="url(#p4a395d50ef)" style="fill: #9467bd"/>
   </g>
   <g id="patch_198">
    <path d="M 1088.344393 215.76529 
L 1096.39368 215.76529 
L 1096.39368 137.847536 
L 1088.344393 137.847536 
z
" clip-path="url(#p4a395d50ef)" style="fill: #9467bd"/>
   </g>
   <g id="patch_199">
    <path d="M 1113.111428 214.86937 
L 1121.160714 214.86937 
L 1121.160714 137.344832 
L 1113.111428 137.344832 
z
" clip-path="url(#p4a395d50ef)" style="fill: #9467bd"/>
   </g>
   <g id="patch_200">
    <path d="M 1137.878463 213.976714 
L 1145.927749 213.976714 
L 1145.927749 136.836123 
L 1137.878463 136.836123 
z
" clip-path="url(#p4a395d50ef)" style="fill: #9467bd"/>
   </g>
   <g id="patch_201">
    <path d="M 1162.645497 213.087713 
L 1170.694784 213.087713 
L 1170.694784 136.322214 
L 1162.645497 136.322214 
z
" clip-path="url(#p4a395d50ef)" style="fill: #9467bd"/>
   </g>
   <g id="patch_202">
    <path d="M 1187.412532 212.202711 
L 1195.461818 212.202711 
L 1195.461818 135.803837 
L 1187.412532 135.803837 
z
" clip-path="url(#p4a395d50ef)" style="fill: #9467bd"/>
   </g>
   <g id="matplotlib.axis_1">
    <g id="xtick_1">
     <g id="line2d_1">
      <defs>
       <path id="m1a5ca3c822" d="M 0 0 
L 0 3.5 
" style="stroke: #000000; stroke-width: 0.8"/>
      </defs>
      <g>
       <use xlink:href="#m1a5ca3c822" x="225.522825" y="650.412" style="stroke: #000000; stroke-width: 0.8"/>
      </g>
     </g>
     <g id="text_1">
      <!-- 36 -->
      <g transform="translate(214.070325 671.089188) scale(0.18 -0.18)">
       <defs>
        <path id="DejaVuSans-33" d="M 2597 2516 
Q 3050 2419 3304 2112 
Q 3559 1806 3559 1356 
Q 3559 666 3084 287 
Q 2609 -91 1734 -91 
Q 1441 -91 1130 -33 
Q 819 25 488 141 
L 488 750 
Q 750 597 1062 519 
Q 1375 441 1716 441 
Q 2309 441 2620 675 
Q 2931 909 2931 1356 
Q 2931 1769 2642 2001 
Q 2353 2234 1838 2234 
L 1294 2234 
L 1294 2753 
L 1863 2753 
Q 2328 2753 2575 2939 
Q 2822 3125 2822 3475 
Q 2822 3834 2567 4026 
Q 2313 4219 1838 4219 
Q 1578 4219 1281 4162 
Q 984 4106 628 3988 
L 628 4550 
Q 988 4650 1302 4700 
Q 1616 4750 1894 4750 
Q 2613 4750 3031 4423 
Q 3450 4097 3450 3541 
Q 3450 3153 3228 2886 
Q 3006 2619 2597 2516 
z
" transform="scale(0.015625)"/>
        <path id="DejaVuSans-36" d="M 2113 2584 
Q 1688 2584 1439 2293 
Q 1191 2003 1191 1497 
Q 1191 994 1439 701 
Q 1688 409 2113 409 
Q 2538 409 2786 701 
Q 3034 994 3034 1497 
Q 3034 2003 2786 2293 
Q 2538 2584 2113 2584 
z
M 3366 4563 
L 3366 3988 
Q 3128 4100 2886 4159 
Q 2644 4219 2406 4219 
Q 1781 4219 1451 3797 
Q 1122 3375 1075 2522 
Q 1259 2794 1537 2939 
Q 1816 3084 2150 3084 
Q 2853 3084 3261 2657 
Q 3669 2231 3669 1497 
Q 3669 778 3244 343 
Q 2819 -91 2113 -91 
Q 1303 -91 875 529 
Q 447 1150 447 2328 
Q 447 3434 972 4092 
Q 1497 4750 2381 4750 
Q 2619 4750 2861 4703 
Q 3103 4656 3366 4563 
z
" transform="scale(0.015625)"/>
       </defs>
       <use xlink:href="#DejaVuSans-33"/>
       <use xlink:href="#DejaVuSans-36" x="63.623047"/>
      </g>
     </g>
    </g>
    <g id="xtick_2">
     <g id="line2d_2">
      <g>
       <use xlink:href="#m1a5ca3c822" x="386.50855" y="650.412" style="stroke: #000000; stroke-width: 0.8"/>
      </g>
     </g>
     <g id="text_2">
      <!-- 38 -->
      <g transform="translate(375.05605 671.089188) scale(0.18 -0.18)">
       <defs>
        <path id="DejaVuSans-38" d="M 2034 2216 
Q 1584 2216 1326 1975 
Q 1069 1734 1069 1313 
Q 1069 891 1326 650 
Q 1584 409 2034 409 
Q 2484 409 2743 651 
Q 3003 894 3003 1313 
Q 3003 1734 2745 1975 
Q 2488 2216 2034 2216 
z
M 1403 2484 
Q 997 2584 770 2862 
Q 544 3141 544 3541 
Q 544 4100 942 4425 
Q 1341 4750 2034 4750 
Q 2731 4750 3128 4425 
Q 3525 4100 3525 3541 
Q 3525 3141 3298 2862 
Q 3072 2584 2669 2484 
Q 3125 2378 3379 2068 
Q 3634 1759 3634 1313 
Q 3634 634 3220 271 
Q 2806 -91 2034 -91 
Q 1263 -91 848 271 
Q 434 634 434 1313 
Q 434 1759 690 2068 
Q 947 2378 1403 2484 
z
M 1172 3481 
Q 1172 3119 1398 2916 
Q 1625 2713 2034 2713 
Q 2441 2713 2670 2916 
Q 2900 3119 2900 3481 
Q 2900 3844 2670 4047 
Q 2441 4250 2034 4250 
Q 1625 4250 1398 4047 
Q 1172 3844 1172 3481 
z
" transform="scale(0.015625)"/>
       </defs>
       <use xlink:href="#DejaVuSans-33"/>
       <use xlink:href="#DejaVuSans-38" x="63.623047"/>
      </g>
     </g>
    </g>
    <g id="xtick_3">
     <g id="line2d_3">
      <g>
       <use xlink:href="#m1a5ca3c822" x="547.494275" y="650.412" style="stroke: #000000; stroke-width: 0.8"/>
      </g>
     </g>
     <g id="text_3">
      <!-- 40 -->
      <g transform="translate(536.041775 671.089188) scale(0.18 -0.18)">
       <defs>
        <path id="DejaVuSans-34" d="M 2419 4116 
L 825 1625 
L 2419 1625 
L 2419 4116 
z
M 2253 4666 
L 3047 4666 
L 3047 1625 
L 3713 1625 
L 3713 1100 
L 3047 1100 
L 3047 0 
L 2419 0 
L 2419 1100 
L 313 1100 
L 313 1709 
L 2253 4666 
z
" transform="scale(0.015625)"/>
        <path id="DejaVuSans-30" d="M 2034 4250 
Q 1547 4250 1301 3770 
Q 1056 3291 1056 2328 
Q 1056 1369 1301 889 
Q 1547 409 2034 409 
Q 2525 409 2770 889 
Q 3016 1369 3016 2328 
Q 3016 3291 2770 3770 
Q 2525 4250 2034 4250 
z
M 2034 4750 
Q 2819 4750 3233 4129 
Q 3647 3509 3647 2328 
Q 3647 1150 3233 529 
Q 2819 -91 2034 -91 
Q 1250 -91 836 529 
Q 422 1150 422 2328 
Q 422 3509 836 4129 
Q 1250 4750 2034 4750 
z
" transform="scale(0.015625)"/>
       </defs>
       <use xlink:href="#DejaVuSans-34"/>
       <use xlink:href="#DejaVuSans-30" x="63.623047"/>
      </g>
     </g>
    </g>
    <g id="xtick_4">
     <g id="line2d_4">
      <g>
       <use xlink:href="#m1a5ca3c822" x="708.48" y="650.412" style="stroke: #000000; stroke-width: 0.8"/>
      </g>
     </g>
     <g id="text_4">
      <!-- 42 -->
      <g transform="translate(697.0275 671.089188) scale(0.18 -0.18)">
       <defs>
        <path id="DejaVuSans-32" d="M 1228 531 
L 3431 531 
L 3431 0 
L 469 0 
L 469 531 
Q 828 903 1448 1529 
Q 2069 2156 2228 2338 
Q 2531 2678 2651 2914 
Q 2772 3150 2772 3378 
Q 2772 3750 2511 3984 
Q 2250 4219 1831 4219 
Q 1534 4219 1204 4116 
Q 875 4013 500 3803 
L 500 4441 
Q 881 4594 1212 4672 
Q 1544 4750 1819 4750 
Q 2544 4750 2975 4387 
Q 3406 4025 3406 3419 
Q 3406 3131 3298 2873 
Q 3191 2616 2906 2266 
Q 2828 2175 2409 1742 
Q 1991 1309 1228 531 
z
" transform="scale(0.015625)"/>
       </defs>
       <use xlink:href="#DejaVuSans-34"/>
       <use xlink:href="#DejaVuSans-32" x="63.623047"/>
      </g>
     </g>
    </g>
    <g id="xtick_5">
     <g id="line2d_5">
      <g>
       <use xlink:href="#m1a5ca3c822" x="869.465725" y="650.412" style="stroke: #000000; stroke-width: 0.8"/>
      </g>
     </g>
     <g id="text_5">
      <!-- 44 -->
      <g transform="translate(858.013225 671.089188) scale(0.18 -0.18)">
       <use xlink:href="#DejaVuSans-34"/>
       <use xlink:href="#DejaVuSans-34" x="63.623047"/>
      </g>
     </g>
    </g>
    <g id="xtick_6">
     <g id="line2d_6">
      <g>
       <use xlink:href="#m1a5ca3c822" x="1030.45145" y="650.412" style="stroke: #000000; stroke-width: 0.8"/>
      </g>
     </g>
     <g id="text_6">
      <!-- 46 -->
      <g transform="translate(1018.99895 671.089188) scale(0.18 -0.18)">
       <use xlink:href="#DejaVuSans-34"/>
       <use xlink:href="#DejaVuSans-36" x="63.623047"/>
      </g>
     </g>
    </g>
    <g id="xtick_7">
     <g id="line2d_7">
      <g>
       <use xlink:href="#m1a5ca3c822" x="1191.437175" y="650.412" style="stroke: #000000; stroke-width: 0.8"/>
      </g>
     </g>
     <g id="text_7">
      <!-- 48 -->
      <g transform="translate(1179.984675 671.089188) scale(0.18 -0.18)">
       <use xlink:href="#DejaVuSans-34"/>
       <use xlink:href="#DejaVuSans-38" x="63.623047"/>
      </g>
     </g>
    </g>
    <g id="text_8">
     <!-- Kondensatordruck in bar -->
     <g transform="translate(597.950156 692.509813) scale(0.18 -0.18)">
      <defs>
       <path id="DejaVuSans-4b" d="M 628 4666 
L 1259 4666 
L 1259 2694 
L 3353 4666 
L 4166 4666 
L 1850 2491 
L 4331 0 
L 3500 0 
L 1259 2247 
L 1259 0 
L 628 0 
L 628 4666 
z
" transform="scale(0.015625)"/>
       <path id="DejaVuSans-6f" d="M 1959 3097 
Q 1497 3097 1228 2736 
Q 959 2375 959 1747 
Q 959 1119 1226 758 
Q 1494 397 1959 397 
Q 2419 397 2687 759 
Q 2956 1122 2956 1747 
Q 2956 2369 2687 2733 
Q 2419 3097 1959 3097 
z
M 1959 3584 
Q 2709 3584 3137 3096 
Q 3566 2609 3566 1747 
Q 3566 888 3137 398 
Q 2709 -91 1959 -91 
Q 1206 -91 779 398 
Q 353 888 353 1747 
Q 353 2609 779 3096 
Q 1206 3584 1959 3584 
z
" transform="scale(0.015625)"/>
       <path id="DejaVuSans-6e" d="M 3513 2113 
L 3513 0 
L 2938 0 
L 2938 2094 
Q 2938 2591 2744 2837 
Q 2550 3084 2163 3084 
Q 1697 3084 1428 2787 
Q 1159 2491 1159 1978 
L 1159 0 
L 581 0 
L 581 3500 
L 1159 3500 
L 1159 2956 
Q 1366 3272 1645 3428 
Q 1925 3584 2291 3584 
Q 2894 3584 3203 3211 
Q 3513 2838 3513 2113 
z
" transform="scale(0.015625)"/>
       <path id="DejaVuSans-64" d="M 2906 2969 
L 2906 4863 
L 3481 4863 
L 3481 0 
L 2906 0 
L 2906 525 
Q 2725 213 2448 61 
Q 2172 -91 1784 -91 
Q 1150 -91 751 415 
Q 353 922 353 1747 
Q 353 2572 751 3078 
Q 1150 3584 1784 3584 
Q 2172 3584 2448 3432 
Q 2725 3281 2906 2969 
z
M 947 1747 
Q 947 1113 1208 752 
Q 1469 391 1925 391 
Q 2381 391 2643 752 
Q 2906 1113 2906 1747 
Q 2906 2381 2643 2742 
Q 2381 3103 1925 3103 
Q 1469 3103 1208 2742 
Q 947 2381 947 1747 
z
" transform="scale(0.015625)"/>
       <path id="DejaVuSans-65" d="M 3597 1894 
L 3597 1613 
L 953 1613 
Q 991 1019 1311 708 
Q 1631 397 2203 397 
Q 2534 397 2845 478 
Q 3156 559 3463 722 
L 3463 178 
Q 3153 47 2828 -22 
Q 2503 -91 2169 -91 
Q 1331 -91 842 396 
Q 353 884 353 1716 
Q 353 2575 817 3079 
Q 1281 3584 2069 3584 
Q 2775 3584 3186 3129 
Q 3597 2675 3597 1894 
z
M 3022 2063 
Q 3016 2534 2758 2815 
Q 2500 3097 2075 3097 
Q 1594 3097 1305 2825 
Q 1016 2553 972 2059 
L 3022 2063 
z
" transform="scale(0.015625)"/>
       <path id="DejaVuSans-73" d="M 2834 3397 
L 2834 2853 
Q 2591 2978 2328 3040 
Q 2066 3103 1784 3103 
Q 1356 3103 1142 2972 
Q 928 2841 928 2578 
Q 928 2378 1081 2264 
Q 1234 2150 1697 2047 
L 1894 2003 
Q 2506 1872 2764 1633 
Q 3022 1394 3022 966 
Q 3022 478 2636 193 
Q 2250 -91 1575 -91 
Q 1294 -91 989 -36 
Q 684 19 347 128 
L 347 722 
Q 666 556 975 473 
Q 1284 391 1588 391 
Q 1994 391 2212 530 
Q 2431 669 2431 922 
Q 2431 1156 2273 1281 
Q 2116 1406 1581 1522 
L 1381 1569 
Q 847 1681 609 1914 
Q 372 2147 372 2553 
Q 372 3047 722 3315 
Q 1072 3584 1716 3584 
Q 2034 3584 2315 3537 
Q 2597 3491 2834 3397 
z
" transform="scale(0.015625)"/>
       <path id="DejaVuSans-61" d="M 2194 1759 
Q 1497 1759 1228 1600 
Q 959 1441 959 1056 
Q 959 750 1161 570 
Q 1363 391 1709 391 
Q 2188 391 2477 730 
Q 2766 1069 2766 1631 
L 2766 1759 
L 2194 1759 
z
M 3341 1997 
L 3341 0 
L 2766 0 
L 2766 531 
Q 2569 213 2275 61 
Q 1981 -91 1556 -91 
Q 1019 -91 701 211 
Q 384 513 384 1019 
Q 384 1609 779 1909 
Q 1175 2209 1959 2209 
L 2766 2209 
L 2766 2266 
Q 2766 2663 2505 2880 
Q 2244 3097 1772 3097 
Q 1472 3097 1187 3025 
Q 903 2953 641 2809 
L 641 3341 
Q 956 3463 1253 3523 
Q 1550 3584 1831 3584 
Q 2591 3584 2966 3190 
Q 3341 2797 3341 1997 
z
" transform="scale(0.015625)"/>
       <path id="DejaVuSans-74" d="M 1172 4494 
L 1172 3500 
L 2356 3500 
L 2356 3053 
L 1172 3053 
L 1172 1153 
Q 1172 725 1289 603 
Q 1406 481 1766 481 
L 2356 481 
L 2356 0 
L 1766 0 
Q 1100 0 847 248 
Q 594 497 594 1153 
L 594 3053 
L 172 3053 
L 172 3500 
L 594 3500 
L 594 4494 
L 1172 4494 
z
" transform="scale(0.015625)"/>
       <path id="DejaVuSans-72" d="M 2631 2963 
Q 2534 3019 2420 3045 
Q 2306 3072 2169 3072 
Q 1681 3072 1420 2755 
Q 1159 2438 1159 1844 
L 1159 0 
L 581 0 
L 581 3500 
L 1159 3500 
L 1159 2956 
Q 1341 3275 1631 3429 
Q 1922 3584 2338 3584 
Q 2397 3584 2469 3576 
Q 2541 3569 2628 3553 
L 2631 2963 
z
" transform="scale(0.015625)"/>
       <path id="DejaVuSans-75" d="M 544 1381 
L 544 3500 
L 1119 3500 
L 1119 1403 
Q 1119 906 1312 657 
Q 1506 409 1894 409 
Q 2359 409 2629 706 
Q 2900 1003 2900 1516 
L 2900 3500 
L 3475 3500 
L 3475 0 
L 2900 0 
L 2900 538 
Q 2691 219 2414 64 
Q 2138 -91 1772 -91 
Q 1169 -91 856 284 
Q 544 659 544 1381 
z
M 1991 3584 
L 1991 3584 
z
" transform="scale(0.015625)"/>
       <path id="DejaVuSans-63" d="M 3122 3366 
L 3122 2828 
Q 2878 2963 2633 3030 
Q 2388 3097 2138 3097 
Q 1578 3097 1268 2742 
Q 959 2388 959 1747 
Q 959 1106 1268 751 
Q 1578 397 2138 397 
Q 2388 397 2633 464 
Q 2878 531 3122 666 
L 3122 134 
Q 2881 22 2623 -34 
Q 2366 -91 2075 -91 
Q 1284 -91 818 406 
Q 353 903 353 1747 
Q 353 2603 823 3093 
Q 1294 3584 2113 3584 
Q 2378 3584 2631 3529 
Q 2884 3475 3122 3366 
z
" transform="scale(0.015625)"/>
       <path id="DejaVuSans-6b" d="M 581 4863 
L 1159 4863 
L 1159 1991 
L 2875 3500 
L 3609 3500 
L 1753 1863 
L 3688 0 
L 2938 0 
L 1159 1709 
L 1159 0 
L 581 0 
L 581 4863 
z
" transform="scale(0.015625)"/>
       <path id="DejaVuSans-20" transform="scale(0.015625)"/>
       <path id="DejaVuSans-69" d="M 603 3500 
L 1178 3500 
L 1178 0 
L 603 0 
L 603 3500 
z
M 603 4863 
L 1178 4863 
L 1178 4134 
L 603 4134 
L 603 4863 
z
" transform="scale(0.015625)"/>
       <path id="DejaVuSans-62" d="M 3116 1747 
Q 3116 2381 2855 2742 
Q 2594 3103 2138 3103 
Q 1681 3103 1420 2742 
Q 1159 2381 1159 1747 
Q 1159 1113 1420 752 
Q 1681 391 2138 391 
Q 2594 391 2855 752 
Q 3116 1113 3116 1747 
z
M 1159 2969 
Q 1341 3281 1617 3432 
Q 1894 3584 2278 3584 
Q 2916 3584 3314 3078 
Q 3713 2572 3713 1747 
Q 3713 922 3314 415 
Q 2916 -91 2278 -91 
Q 1894 -91 1617 61 
Q 1341 213 1159 525 
L 1159 0 
L 581 0 
L 581 4863 
L 1159 4863 
L 1159 2969 
z
" transform="scale(0.015625)"/>
      </defs>
      <use xlink:href="#DejaVuSans-4b"/>
      <use xlink:href="#DejaVuSans-6f" x="60.576172"/>
      <use xlink:href="#DejaVuSans-6e" x="121.757812"/>
      <use xlink:href="#DejaVuSans-64" x="185.136719"/>
      <use xlink:href="#DejaVuSans-65" x="248.613281"/>
      <use xlink:href="#DejaVuSans-6e" x="310.136719"/>
      <use xlink:href="#DejaVuSans-73" x="373.515625"/>
      <use xlink:href="#DejaVuSans-61" x="425.615234"/>
      <use xlink:href="#DejaVuSans-74" x="486.894531"/>
      <use xlink:href="#DejaVuSans-6f" x="526.103516"/>
      <use xlink:href="#DejaVuSans-72" x="587.285156"/>
      <use xlink:href="#DejaVuSans-64" x="626.648438"/>
      <use xlink:href="#DejaVuSans-72" x="690.125"/>
      <use xlink:href="#DejaVuSans-75" x="731.238281"/>
      <use xlink:href="#DejaVuSans-63" x="794.617188"/>
      <use xlink:href="#DejaVuSans-6b" x="849.597656"/>
      <use xlink:href="#DejaVuSans-20" x="907.507812"/>
      <use xlink:href="#DejaVuSans-69" x="939.294922"/>
      <use xlink:href="#DejaVuSans-6e" x="967.078125"/>
      <use xlink:href="#DejaVuSans-20" x="1030.457031"/>
      <use xlink:href="#DejaVuSans-62" x="1062.244141"/>
      <use xlink:href="#DejaVuSans-61" x="1125.720703"/>
      <use xlink:href="#DejaVuSans-72" x="1187"/>
     </g>
    </g>
   </g>
   <g id="matplotlib.axis_2">
    <g id="ytick_1">
     <g id="line2d_8">
      <defs>
       <path id="m21071eecd2" d="M 0 0 
L -3.5 0 
" style="stroke: #000000; stroke-width: 0.8"/>
      </defs>
      <g>
       <use xlink:href="#m21071eecd2" x="172.8" y="649.155058" style="stroke: #000000; stroke-width: 0.8"/>
      </g>
     </g>
     <g id="text_9">
      <!-- 0.0 -->
      <g transform="translate(137.174375 655.993652) scale(0.18 -0.18)">
       <defs>
        <path id="DejaVuSans-2e" d="M 684 794 
L 1344 794 
L 1344 0 
L 684 0 
L 684 794 
z
" transform="scale(0.015625)"/>
       </defs>
       <use xlink:href="#DejaVuSans-30"/>
       <use xlink:href="#DejaVuSans-2e" x="63.623047"/>
       <use xlink:href="#DejaVuSans-30" x="95.410156"/>
      </g>
     </g>
    </g>
    <g id="ytick_2">
     <g id="line2d_9">
      <g>
       <use xlink:href="#m21071eecd2" x="172.8" y="556.286431" style="stroke: #000000; stroke-width: 0.8"/>
      </g>
     </g>
     <g id="text_10">
      <!-- 0.2 -->
      <g transform="translate(137.174375 563.125025) scale(0.18 -0.18)">
       <use xlink:href="#DejaVuSans-30"/>
       <use xlink:href="#DejaVuSans-2e" x="63.623047"/>
       <use xlink:href="#DejaVuSans-32" x="95.410156"/>
      </g>
     </g>
    </g>
    <g id="ytick_3">
     <g id="line2d_10">
      <g>
       <use xlink:href="#m21071eecd2" x="172.8" y="463.417804" style="stroke: #000000; stroke-width: 0.8"/>
      </g>
     </g>
     <g id="text_11">
      <!-- 0.4 -->
      <g transform="translate(137.174375 470.256398) scale(0.18 -0.18)">
       <use xlink:href="#DejaVuSans-30"/>
       <use xlink:href="#DejaVuSans-2e" x="63.623047"/>
       <use xlink:href="#DejaVuSans-34" x="95.410156"/>
      </g>
     </g>
    </g>
    <g id="ytick_4">
     <g id="line2d_11">
      <g>
       <use xlink:href="#m21071eecd2" x="172.8" y="370.549177" style="stroke: #000000; stroke-width: 0.8"/>
      </g>
     </g>
     <g id="text_12">
      <!-- 0.6 -->
      <g transform="translate(137.174375 377.387771) scale(0.18 -0.18)">
       <use xlink:href="#DejaVuSans-30"/>
       <use xlink:href="#DejaVuSans-2e" x="63.623047"/>
       <use xlink:href="#DejaVuSans-36" x="95.410156"/>
      </g>
     </g>
    </g>
    <g id="ytick_5">
     <g id="line2d_12">
      <g>
       <use xlink:href="#m21071eecd2" x="172.8" y="277.68055" style="stroke: #000000; stroke-width: 0.8"/>
      </g>
     </g>
     <g id="text_13">
      <!-- 0.8 -->
      <g transform="translate(137.174375 284.519144) scale(0.18 -0.18)">
       <use xlink:href="#DejaVuSans-30"/>
       <use xlink:href="#DejaVuSans-2e" x="63.623047"/>
       <use xlink:href="#DejaVuSans-38" x="95.410156"/>
      </g>
     </g>
    </g>
    <g id="ytick_6">
     <g id="line2d_13">
      <g>
       <use xlink:href="#m21071eecd2" x="172.8" y="184.811923" style="stroke: #000000; stroke-width: 0.8"/>
      </g>
     </g>
     <g id="text_14">
      <!-- 1.0 -->
      <g transform="translate(137.174375 191.650517) scale(0.18 -0.18)">
       <defs>
        <path id="DejaVuSans-31" d="M 794 531 
L 1825 531 
L 1825 4091 
L 703 3866 
L 703 4441 
L 1819 4666 
L 2450 4666 
L 2450 531 
L 3481 531 
L 3481 0 
L 794 0 
L 794 531 
z
" transform="scale(0.015625)"/>
       </defs>
       <use xlink:href="#DejaVuSans-31"/>
       <use xlink:href="#DejaVuSans-2e" x="63.623047"/>
       <use xlink:href="#DejaVuSans-30" x="95.410156"/>
      </g>
     </g>
    </g>
    <g id="ytick_7">
     <g id="line2d_14">
      <g>
       <use xlink:href="#m21071eecd2" x="172.8" y="91.943296" style="stroke: #000000; stroke-width: 0.8"/>
      </g>
     </g>
     <g id="text_15">
      <!-- 1.2 -->
      <g transform="translate(137.174375 98.78189) scale(0.18 -0.18)">
       <use xlink:href="#DejaVuSans-31"/>
       <use xlink:href="#DejaVuSans-2e" x="63.623047"/>
       <use xlink:href="#DejaVuSans-32" x="95.410156"/>
      </g>
     </g>
    </g>
    <g id="text_16">
     <!-- Exergievernichtung in MW -->
     <g transform="translate(129.430937 487.119938) rotate(-90) scale(0.18 -0.18)">
      <defs>
       <path id="DejaVuSans-45" d="M 628 4666 
L 3578 4666 
L 3578 4134 
L 1259 4134 
L 1259 2753 
L 3481 2753 
L 3481 2222 
L 1259 2222 
L 1259 531 
L 3634 531 
L 3634 0 
L 628 0 
L 628 4666 
z
" transform="scale(0.015625)"/>
       <path id="DejaVuSans-78" d="M 3513 3500 
L 2247 1797 
L 3578 0 
L 2900 0 
L 1881 1375 
L 863 0 
L 184 0 
L 1544 1831 
L 300 3500 
L 978 3500 
L 1906 2253 
L 2834 3500 
L 3513 3500 
z
" transform="scale(0.015625)"/>
       <path id="DejaVuSans-67" d="M 2906 1791 
Q 2906 2416 2648 2759 
Q 2391 3103 1925 3103 
Q 1463 3103 1205 2759 
Q 947 2416 947 1791 
Q 947 1169 1205 825 
Q 1463 481 1925 481 
Q 2391 481 2648 825 
Q 2906 1169 2906 1791 
z
M 3481 434 
Q 3481 -459 3084 -895 
Q 2688 -1331 1869 -1331 
Q 1566 -1331 1297 -1286 
Q 1028 -1241 775 -1147 
L 775 -588 
Q 1028 -725 1275 -790 
Q 1522 -856 1778 -856 
Q 2344 -856 2625 -561 
Q 2906 -266 2906 331 
L 2906 616 
Q 2728 306 2450 153 
Q 2172 0 1784 0 
Q 1141 0 747 490 
Q 353 981 353 1791 
Q 353 2603 747 3093 
Q 1141 3584 1784 3584 
Q 2172 3584 2450 3431 
Q 2728 3278 2906 2969 
L 2906 3500 
L 3481 3500 
L 3481 434 
z
" transform="scale(0.015625)"/>
       <path id="DejaVuSans-76" d="M 191 3500 
L 800 3500 
L 1894 563 
L 2988 3500 
L 3597 3500 
L 2284 0 
L 1503 0 
L 191 3500 
z
" transform="scale(0.015625)"/>
       <path id="DejaVuSans-68" d="M 3513 2113 
L 3513 0 
L 2938 0 
L 2938 2094 
Q 2938 2591 2744 2837 
Q 2550 3084 2163 3084 
Q 1697 3084 1428 2787 
Q 1159 2491 1159 1978 
L 1159 0 
L 581 0 
L 581 4863 
L 1159 4863 
L 1159 2956 
Q 1366 3272 1645 3428 
Q 1925 3584 2291 3584 
Q 2894 3584 3203 3211 
Q 3513 2838 3513 2113 
z
" transform="scale(0.015625)"/>
       <path id="DejaVuSans-4d" d="M 628 4666 
L 1569 4666 
L 2759 1491 
L 3956 4666 
L 4897 4666 
L 4897 0 
L 4281 0 
L 4281 4097 
L 3078 897 
L 2444 897 
L 1241 4097 
L 1241 0 
L 628 0 
L 628 4666 
z
" transform="scale(0.015625)"/>
       <path id="DejaVuSans-57" d="M 213 4666 
L 850 4666 
L 1831 722 
L 2809 4666 
L 3519 4666 
L 4500 722 
L 5478 4666 
L 6119 4666 
L 4947 0 
L 4153 0 
L 3169 4050 
L 2175 0 
L 1381 0 
L 213 4666 
z
" transform="scale(0.015625)"/>
      </defs>
      <use xlink:href="#DejaVuSans-45"/>
      <use xlink:href="#DejaVuSans-78" x="63.183594"/>
      <use xlink:href="#DejaVuSans-65" x="119.238281"/>
      <use xlink:href="#DejaVuSans-72" x="180.761719"/>
      <use xlink:href="#DejaVuSans-67" x="220.125"/>
      <use xlink:href="#DejaVuSans-69" x="283.601562"/>
      <use xlink:href="#DejaVuSans-65" x="311.384766"/>
      <use xlink:href="#DejaVuSans-76" x="372.908203"/>
      <use xlink:href="#DejaVuSans-65" x="432.087891"/>
      <use xlink:href="#DejaVuSans-72" x="493.611328"/>
      <use xlink:href="#DejaVuSans-6e" x="532.974609"/>
      <use xlink:href="#DejaVuSans-69" x="596.353516"/>
      <use xlink:href="#DejaVuSans-63" x="624.136719"/>
      <use xlink:href="#DejaVuSans-68" x="679.117188"/>
      <use xlink:href="#DejaVuSans-74" x="742.496094"/>
      <use xlink:href="#DejaVuSans-75" x="781.705078"/>
      <use xlink:href="#DejaVuSans-6e" x="845.083984"/>
      <use xlink:href="#DejaVuSans-67" x="908.462891"/>
      <use xlink:href="#DejaVuSans-20" x="971.939453"/>
      <use xlink:href="#DejaVuSans-69" x="1003.726562"/>
      <use xlink:href="#DejaVuSans-6e" x="1031.509766"/>
      <use xlink:href="#DejaVuSans-20" x="1094.888672"/>
      <use xlink:href="#DejaVuSans-4d" x="1126.675781"/>
      <use xlink:href="#DejaVuSans-57" x="1212.955078"/>
     </g>
    </g>
   </g>
   <g id="patch_203">
    <path d="M 172.8 650.412 
L 172.8 87.696 
" style="fill: none; stroke: #000000; stroke-width: 0.8; stroke-linejoin: miter; stroke-linecap: square"/>
   </g>
   <g id="patch_204">
    <path d="M 1244.16 650.412 
L 1244.16 87.696 
" style="fill: none; stroke: #000000; stroke-width: 0.8; stroke-linejoin: miter; stroke-linecap: square"/>
   </g>
   <g id="patch_205">
    <path d="M 172.8 650.412 
L 1244.16 650.412 
" style="fill: none; stroke: #000000; stroke-width: 0.8; stroke-linejoin: miter; stroke-linecap: square"/>
   </g>
   <g id="patch_206">
    <path d="M 172.8 87.696 
L 1244.16 87.696 
" style="fill: none; stroke: #000000; stroke-width: 0.8; stroke-linejoin: miter; stroke-linecap: square"/>
   </g>
   <g id="legend_1">
    <g id="patch_207">
     <path d="M 955.088437 437.805563 
L 1231.56 437.805563 
Q 1235.16 437.805563 1235.16 434.205563 
L 1235.16 303.902438 
Q 1235.16 300.302438 1231.56 300.302438 
L 955.088437 300.302438 
Q 951.488437 300.302438 951.488437 303.902438 
L 951.488437 434.205563 
Q 951.488437 437.805563 955.088437 437.805563 
z
" style="fill: #ffffff; opacity: 0.8; stroke: #cccccc; stroke-linejoin: miter"/>
    </g>
    <g id="patch_208">
     <path d="M 958.688437 321.179625 
L 994.688437 321.179625 
L 994.688437 308.579625 
L 958.688437 308.579625 
z
" style="fill: #1f77b4"/>
    </g>
    <g id="text_17">
     <!-- Gas cooler -->
     <g transform="translate(1009.088437 321.179625) scale(0.18 -0.18)">
      <defs>
       <path id="DejaVuSans-47" d="M 3809 666 
L 3809 1919 
L 2778 1919 
L 2778 2438 
L 4434 2438 
L 4434 434 
Q 4069 175 3628 42 
Q 3188 -91 2688 -91 
Q 1594 -91 976 548 
Q 359 1188 359 2328 
Q 359 3472 976 4111 
Q 1594 4750 2688 4750 
Q 3144 4750 3555 4637 
Q 3966 4525 4313 4306 
L 4313 3634 
Q 3963 3931 3569 4081 
Q 3175 4231 2741 4231 
Q 1884 4231 1454 3753 
Q 1025 3275 1025 2328 
Q 1025 1384 1454 906 
Q 1884 428 2741 428 
Q 3075 428 3337 486 
Q 3600 544 3809 666 
z
" transform="scale(0.015625)"/>
       <path id="DejaVuSans-6c" d="M 603 4863 
L 1178 4863 
L 1178 0 
L 603 0 
L 603 4863 
z
" transform="scale(0.015625)"/>
      </defs>
      <use xlink:href="#DejaVuSans-47"/>
      <use xlink:href="#DejaVuSans-61" x="77.490234"/>
      <use xlink:href="#DejaVuSans-73" x="138.769531"/>
      <use xlink:href="#DejaVuSans-20" x="190.869141"/>
      <use xlink:href="#DejaVuSans-63" x="222.65625"/>
      <use xlink:href="#DejaVuSans-6f" x="277.636719"/>
      <use xlink:href="#DejaVuSans-6f" x="338.818359"/>
      <use xlink:href="#DejaVuSans-6c" x="400"/>
      <use xlink:href="#DejaVuSans-65" x="427.783203"/>
      <use xlink:href="#DejaVuSans-72" x="489.306641"/>
     </g>
    </g>
    <g id="patch_209">
     <path d="M 958.688437 347.60025 
L 994.688437 347.60025 
L 994.688437 335.00025 
L 958.688437 335.00025 
z
" style="fill: #ff7f0e"/>
    </g>
    <g id="text_18">
     <!-- Evaporator -->
     <g transform="translate(1009.088437 347.60025) scale(0.18 -0.18)">
      <defs>
       <path id="DejaVuSans-70" d="M 1159 525 
L 1159 -1331 
L 581 -1331 
L 581 3500 
L 1159 3500 
L 1159 2969 
Q 1341 3281 1617 3432 
Q 1894 3584 2278 3584 
Q 2916 3584 3314 3078 
Q 3713 2572 3713 1747 
Q 3713 922 3314 415 
Q 2916 -91 2278 -91 
Q 1894 -91 1617 61 
Q 1341 213 1159 525 
z
M 3116 1747 
Q 3116 2381 2855 2742 
Q 2594 3103 2138 3103 
Q 1681 3103 1420 2742 
Q 1159 2381 1159 1747 
Q 1159 1113 1420 752 
Q 1681 391 2138 391 
Q 2594 391 2855 752 
Q 3116 1113 3116 1747 
z
" transform="scale(0.015625)"/>
      </defs>
      <use xlink:href="#DejaVuSans-45"/>
      <use xlink:href="#DejaVuSans-76" x="63.183594"/>
      <use xlink:href="#DejaVuSans-61" x="122.363281"/>
      <use xlink:href="#DejaVuSans-70" x="183.642578"/>
      <use xlink:href="#DejaVuSans-6f" x="247.119141"/>
      <use xlink:href="#DejaVuSans-72" x="308.300781"/>
      <use xlink:href="#DejaVuSans-61" x="349.414062"/>
      <use xlink:href="#DejaVuSans-74" x="410.693359"/>
      <use xlink:href="#DejaVuSans-6f" x="449.902344"/>
      <use xlink:href="#DejaVuSans-72" x="511.083984"/>
     </g>
    </g>
    <g id="patch_210">
     <path d="M 958.688437 374.020875 
L 994.688437 374.020875 
L 994.688437 361.420875 
L 958.688437 361.420875 
z
" style="fill: #2ca02c"/>
    </g>
    <g id="text_19">
     <!-- Valve -->
     <g transform="translate(1009.088437 374.020875) scale(0.18 -0.18)">
      <defs>
       <path id="DejaVuSans-56" d="M 1831 0 
L 50 4666 
L 709 4666 
L 2188 738 
L 3669 4666 
L 4325 4666 
L 2547 0 
L 1831 0 
z
" transform="scale(0.015625)"/>
      </defs>
      <use xlink:href="#DejaVuSans-56"/>
      <use xlink:href="#DejaVuSans-61" x="60.658203"/>
      <use xlink:href="#DejaVuSans-6c" x="121.9375"/>
      <use xlink:href="#DejaVuSans-76" x="149.720703"/>
      <use xlink:href="#DejaVuSans-65" x="208.900391"/>
     </g>
    </g>
    <g id="patch_211">
     <path d="M 958.688437 400.4415 
L 994.688437 400.4415 
L 994.688437 387.8415 
L 958.688437 387.8415 
z
" style="fill: #d62728"/>
    </g>
    <g id="text_20">
     <!-- Compressor -->
     <g transform="translate(1009.088437 400.4415) scale(0.18 -0.18)">
      <defs>
       <path id="DejaVuSans-43" d="M 4122 4306 
L 4122 3641 
Q 3803 3938 3442 4084 
Q 3081 4231 2675 4231 
Q 1875 4231 1450 3742 
Q 1025 3253 1025 2328 
Q 1025 1406 1450 917 
Q 1875 428 2675 428 
Q 3081 428 3442 575 
Q 3803 722 4122 1019 
L 4122 359 
Q 3791 134 3420 21 
Q 3050 -91 2638 -91 
Q 1578 -91 968 557 
Q 359 1206 359 2328 
Q 359 3453 968 4101 
Q 1578 4750 2638 4750 
Q 3056 4750 3426 4639 
Q 3797 4528 4122 4306 
z
" transform="scale(0.015625)"/>
       <path id="DejaVuSans-6d" d="M 3328 2828 
Q 3544 3216 3844 3400 
Q 4144 3584 4550 3584 
Q 5097 3584 5394 3201 
Q 5691 2819 5691 2113 
L 5691 0 
L 5113 0 
L 5113 2094 
Q 5113 2597 4934 2840 
Q 4756 3084 4391 3084 
Q 3944 3084 3684 2787 
Q 3425 2491 3425 1978 
L 3425 0 
L 2847 0 
L 2847 2094 
Q 2847 2600 2669 2842 
Q 2491 3084 2119 3084 
Q 1678 3084 1418 2786 
Q 1159 2488 1159 1978 
L 1159 0 
L 581 0 
L 581 3500 
L 1159 3500 
L 1159 2956 
Q 1356 3278 1631 3431 
Q 1906 3584 2284 3584 
Q 2666 3584 2933 3390 
Q 3200 3197 3328 2828 
z
" transform="scale(0.015625)"/>
      </defs>
      <use xlink:href="#DejaVuSans-43"/>
      <use xlink:href="#DejaVuSans-6f" x="69.824219"/>
      <use xlink:href="#DejaVuSans-6d" x="131.005859"/>
      <use xlink:href="#DejaVuSans-70" x="228.417969"/>
      <use xlink:href="#DejaVuSans-72" x="291.894531"/>
      <use xlink:href="#DejaVuSans-65" x="330.757812"/>
      <use xlink:href="#DejaVuSans-73" x="392.28125"/>
      <use xlink:href="#DejaVuSans-73" x="444.380859"/>
      <use xlink:href="#DejaVuSans-6f" x="496.480469"/>
      <use xlink:href="#DejaVuSans-72" x="557.662109"/>
     </g>
    </g>
    <g id="patch_212">
     <path d="M 958.688437 426.862125 
L 994.688437 426.862125 
L 994.688437 414.262125 
L 958.688437 414.262125 
z
" style="fill: #9467bd"/>
    </g>
    <g id="text_21">
     <!-- Internal Heat Exchanger -->
     <g transform="translate(1009.088437 426.862125) scale(0.18 -0.18)">
      <defs>
       <path id="DejaVuSans-49" d="M 628 4666 
L 1259 4666 
L 1259 0 
L 628 0 
L 628 4666 
z
" transform="scale(0.015625)"/>
       <path id="DejaVuSans-48" d="M 628 4666 
L 1259 4666 
L 1259 2753 
L 3553 2753 
L 3553 4666 
L 4184 4666 
L 4184 0 
L 3553 0 
L 3553 2222 
L 1259 2222 
L 1259 0 
L 628 0 
L 628 4666 
z
" transform="scale(0.015625)"/>
      </defs>
      <use xlink:href="#DejaVuSans-49"/>
      <use xlink:href="#DejaVuSans-6e" x="29.492188"/>
      <use xlink:href="#DejaVuSans-74" x="92.871094"/>
      <use xlink:href="#DejaVuSans-65" x="132.080078"/>
      <use xlink:href="#DejaVuSans-72" x="193.603516"/>
      <use xlink:href="#DejaVuSans-6e" x="232.966797"/>
      <use xlink:href="#DejaVuSans-61" x="296.345703"/>
      <use xlink:href="#DejaVuSans-6c" x="357.625"/>
      <use xlink:href="#DejaVuSans-20" x="385.408203"/>
      <use xlink:href="#DejaVuSans-48" x="417.195312"/>
      <use xlink:href="#DejaVuSans-65" x="492.390625"/>
      <use xlink:href="#DejaVuSans-61" x="553.914062"/>
      <use xlink:href="#DejaVuSans-74" x="615.193359"/>
      <use xlink:href="#DejaVuSans-20" x="654.402344"/>
      <use xlink:href="#DejaVuSans-45" x="686.189453"/>
      <use xlink:href="#DejaVuSans-78" x="749.373047"/>
      <use xlink:href="#DejaVuSans-63" x="806.802734"/>
      <use xlink:href="#DejaVuSans-68" x="861.783203"/>
      <use xlink:href="#DejaVuSans-61" x="925.162109"/>
      <use xlink:href="#DejaVuSans-6e" x="986.441406"/>
      <use xlink:href="#DejaVuSans-67" x="1049.820312"/>
      <use xlink:href="#DejaVuSans-65" x="1113.296875"/>
      <use xlink:href="#DejaVuSans-72" x="1174.820312"/>
     </g>
    </g>
   </g>
  </g>
 </g>
 <defs>
  <clipPath id="p4a395d50ef">
   <rect x="172.8" y="87.696" width="1071.36" height="562.716"/>
  </clipPath>
 </defs>
</svg>
