<?xml version="1.0" encoding="utf-8" standalone="no"?>
<!DOCTYPE svg PUBLIC "-//W3C//DTD SVG 1.1//EN"
  "http://www.w3.org/Graphics/SVG/1.1/DTD/svg11.dtd">
<svg xmlns:xlink="http://www.w3.org/1999/xlink" width="460.8pt" height="345.6pt" viewBox="0 0 460.8 345.6" xmlns="http://www.w3.org/2000/svg" version="1.1">
 <metadata>
  <rdf:RDF xmlns:dc="http://purl.org/dc/elements/1.1/" xmlns:cc="http://creativecommons.org/ns#" xmlns:rdf="http://www.w3.org/1999/02/22-rdf-syntax-ns#">
   <cc:Work>
    <dc:type rdf:resource="http://purl.org/dc/dcmitype/StillImage"/>
    <dc:date>2023-04-17T12:14:14.116335</dc:date>
    <dc:format>image/svg+xml</dc:format>
    <dc:creator>
     <cc:Agent>
      <dc:title>Matplotlib v3.6.1, https://matplotlib.org/</dc:title>
     </cc:Agent>
    </dc:creator>
   </cc:Work>
  </rdf:RDF>
 </metadata>
 <defs>
  <style type="text/css">*{stroke-linejoin: round; stroke-linecap: butt}</style>
 </defs>
 <g id="figure_1">
  <g id="patch_1">
   <path d="M 0 345.6 
L 460.8 345.6 
L 460.8 0 
L 0 0 
z
" style="fill: #ffffff"/>
  </g>
  <g id="axes_1">
   <g id="patch_2">
    <path d="M 57.6 307.584 
L 414.72 307.584 
L 414.72 41.472 
L 57.6 41.472 
z
" style="fill: #ffffff"/>
   </g>
   <g id="patch_3">
    <path d="M 73.832727 307.584 
L 76.135242 307.584 
L 76.135242 271.694356 
L 73.832727 271.694356 
z
" clip-path="url(#p7c10953ba6)" style="fill: #1f77b4"/>
   </g>
   <g id="patch_4">
    <path d="M 90.798624 307.584 
L 93.101138 307.584 
L 93.101138 270.021449 
L 90.798624 270.021449 
z
" clip-path="url(#p7c10953ba6)" style="fill: #1f77b4"/>
   </g>
   <g id="patch_5">
    <path d="M 107.76452 307.584 
L 110.067035 307.584 
L 110.067035 268.305721 
L 107.76452 268.305721 
z
" clip-path="url(#p7c10953ba6)" style="fill: #1f77b4"/>
   </g>
   <g id="patch_6">
    <path d="M 124.730416 307.584 
L 127.032931 307.584 
L 127.032931 266.596857 
L 124.730416 266.596857 
z
" clip-path="url(#p7c10953ba6)" style="fill: #1f77b4"/>
   </g>
   <g id="patch_7">
    <path d="M 141.696313 307.584 
L 143.998827 307.584 
L 143.998827 264.915663 
L 141.696313 264.915663 
z
" clip-path="url(#p7c10953ba6)" style="fill: #1f77b4"/>
   </g>
   <g id="patch_8">
    <path d="M 158.662209 307.584 
L 160.964724 307.584 
L 160.964724 263.271829 
L 158.662209 263.271829 
z
" clip-path="url(#p7c10953ba6)" style="fill: #1f77b4"/>
   </g>
   <g id="patch_9">
    <path d="M 175.628105 307.584 
L 177.93062 307.584 
L 177.93062 261.669951 
L 175.628105 261.669951 
z
" clip-path="url(#p7c10953ba6)" style="fill: #1f77b4"/>
   </g>
   <g id="patch_10">
    <path d="M 192.594002 307.584 
L 194.896516 307.584 
L 194.896516 260.112013 
L 192.594002 260.112013 
z
" clip-path="url(#p7c10953ba6)" style="fill: #1f77b4"/>
   </g>
   <g id="patch_11">
    <path d="M 209.559898 307.584 
L 211.862413 307.584 
L 211.862413 258.598564 
L 209.559898 258.598564 
z
" clip-path="url(#p7c10953ba6)" style="fill: #1f77b4"/>
   </g>
   <g id="patch_12">
    <path d="M 226.525795 307.584 
L 228.828309 307.584 
L 228.828309 257.129323 
L 226.525795 257.129323 
z
" clip-path="url(#p7c10953ba6)" style="fill: #1f77b4"/>
   </g>
   <g id="patch_13">
    <path d="M 243.491691 307.584 
L 245.794205 307.584 
L 245.794205 255.703524 
L 243.491691 255.703524 
z
" clip-path="url(#p7c10953ba6)" style="fill: #1f77b4"/>
   </g>
   <g id="patch_14">
    <path d="M 260.457587 307.584 
L 262.760102 307.584 
L 262.760102 254.320111 
L 260.457587 254.320111 
z
" clip-path="url(#p7c10953ba6)" style="fill: #1f77b4"/>
   </g>
   <g id="patch_15">
    <path d="M 277.423484 307.584 
L 279.725998 307.584 
L 279.725998 252.977864 
L 277.423484 252.977864 
z
" clip-path="url(#p7c10953ba6)" style="fill: #1f77b4"/>
   </g>
   <g id="patch_16">
    <path d="M 294.38938 307.584 
L 296.691895 307.584 
L 296.691895 251.675473 
L 294.38938 251.675473 
z
" clip-path="url(#p7c10953ba6)" style="fill: #1f77b4"/>
   </g>
   <g id="patch_17">
    <path d="M 311.355276 307.584 
L 313.657791 307.584 
L 313.657791 250.41159 
L 311.355276 250.41159 
z
" clip-path="url(#p7c10953ba6)" style="fill: #1f77b4"/>
   </g>
   <g id="patch_18">
    <path d="M 328.321173 307.584 
L 330.623687 307.584 
L 330.623687 249.184857 
L 328.321173 249.184857 
z
" clip-path="url(#p7c10953ba6)" style="fill: #1f77b4"/>
   </g>
   <g id="patch_19">
    <path d="M 345.287069 307.584 
L 347.589584 307.584 
L 347.589584 247.993929 
L 345.287069 247.993929 
z
" clip-path="url(#p7c10953ba6)" style="fill: #1f77b4"/>
   </g>
   <g id="patch_20">
    <path d="M 362.252965 307.584 
L 364.55548 307.584 
L 364.55548 246.837492 
L 362.252965 246.837492 
z
" clip-path="url(#p7c10953ba6)" style="fill: #1f77b4"/>
   </g>
   <g id="patch_21">
    <path d="M 379.218862 307.584 
L 381.521376 307.584 
L 381.521376 245.714262 
L 379.218862 245.714262 
z
" clip-path="url(#p7c10953ba6)" style="fill: #1f77b4"/>
   </g>
   <g id="patch_22">
    <path d="M 396.184758 307.584 
L 398.487273 307.584 
L 398.487273 244.623 
L 396.184758 244.623 
z
" clip-path="url(#p7c10953ba6)" style="fill: #1f77b4"/>
   </g>
   <g id="patch_23">
    <path d="M 73.832727 271.694356 
L 76.135242 271.694356 
L 76.135242 255.950155 
L 73.832727 255.950155 
z
" clip-path="url(#p7c10953ba6)" style="fill: #ff7f0e"/>
   </g>
   <g id="patch_24">
    <path d="M 90.798624 270.021449 
L 93.101138 270.021449 
L 93.101138 254.059465 
L 90.798624 254.059465 
z
" clip-path="url(#p7c10953ba6)" style="fill: #ff7f0e"/>
   </g>
   <g id="patch_25">
    <path d="M 107.76452 268.305721 
L 110.067035 268.305721 
L 110.067035 252.220509 
L 107.76452 252.220509 
z
" clip-path="url(#p7c10953ba6)" style="fill: #ff7f0e"/>
   </g>
   <g id="patch_26">
    <path d="M 124.730416 266.596857 
L 127.032931 266.596857 
L 127.032931 250.439353 
L 124.730416 250.439353 
z
" clip-path="url(#p7c10953ba6)" style="fill: #ff7f0e"/>
   </g>
   <g id="patch_27">
    <path d="M 141.696313 264.915663 
L 143.998827 264.915663 
L 143.998827 248.717078 
L 141.696313 248.717078 
z
" clip-path="url(#p7c10953ba6)" style="fill: #ff7f0e"/>
   </g>
   <g id="patch_28">
    <path d="M 158.662209 263.271829 
L 160.964724 263.271829 
L 160.964724 247.052853 
L 158.662209 247.052853 
z
" clip-path="url(#p7c10953ba6)" style="fill: #ff7f0e"/>
   </g>
   <g id="patch_29">
    <path d="M 175.628105 261.669951 
L 177.93062 261.669951 
L 177.93062 245.44503 
L 175.628105 245.44503 
z
" clip-path="url(#p7c10953ba6)" style="fill: #ff7f0e"/>
   </g>
   <g id="patch_30">
    <path d="M 192.594002 260.112013 
L 194.896516 260.112013 
L 194.896516 243.891605 
L 192.594002 243.891605 
z
" clip-path="url(#p7c10953ba6)" style="fill: #ff7f0e"/>
   </g>
   <g id="patch_31">
    <path d="M 209.559898 258.598564 
L 211.862413 258.598564 
L 211.862413 242.390436 
L 209.559898 242.390436 
z
" clip-path="url(#p7c10953ba6)" style="fill: #ff7f0e"/>
   </g>
   <g id="patch_32">
    <path d="M 226.525795 257.129323 
L 228.828309 257.129323 
L 228.828309 240.939352 
L 226.525795 240.939352 
z
" clip-path="url(#p7c10953ba6)" style="fill: #ff7f0e"/>
   </g>
   <g id="patch_33">
    <path d="M 243.491691 255.703524 
L 245.794205 255.703524 
L 245.794205 239.536215 
L 243.491691 239.536215 
z
" clip-path="url(#p7c10953ba6)" style="fill: #ff7f0e"/>
   </g>
   <g id="patch_34">
    <path d="M 260.457587 254.320111 
L 262.760102 254.320111 
L 262.760102 238.178952 
L 260.457587 238.178952 
z
" clip-path="url(#p7c10953ba6)" style="fill: #ff7f0e"/>
   </g>
   <g id="patch_35">
    <path d="M 277.423484 252.977864 
L 279.725998 252.977864 
L 279.725998 236.865567 
L 277.423484 236.865567 
z
" clip-path="url(#p7c10953ba6)" style="fill: #ff7f0e"/>
   </g>
   <g id="patch_36">
    <path d="M 294.38938 251.675473 
L 296.691895 251.675473 
L 296.691895 235.594152 
L 294.38938 235.594152 
z
" clip-path="url(#p7c10953ba6)" style="fill: #ff7f0e"/>
   </g>
   <g id="patch_37">
    <path d="M 311.355276 250.41159 
L 313.657791 250.41159 
L 313.657791 234.362889 
L 311.355276 234.362889 
z
" clip-path="url(#p7c10953ba6)" style="fill: #ff7f0e"/>
   </g>
   <g id="patch_38">
    <path d="M 328.321173 249.184857 
L 330.623687 249.184857 
L 330.623687 233.170049 
L 328.321173 233.170049 
z
" clip-path="url(#p7c10953ba6)" style="fill: #ff7f0e"/>
   </g>
   <g id="patch_39">
    <path d="M 345.287069 247.993929 
L 347.589584 247.993929 
L 347.589584 232.013991 
L 345.287069 232.013991 
z
" clip-path="url(#p7c10953ba6)" style="fill: #ff7f0e"/>
   </g>
   <g id="patch_40">
    <path d="M 362.252965 246.837492 
L 364.55548 246.837492 
L 364.55548 230.893159 
L 362.252965 230.893159 
z
" clip-path="url(#p7c10953ba6)" style="fill: #ff7f0e"/>
   </g>
   <g id="patch_41">
    <path d="M 379.218862 245.714262 
L 381.521376 245.714262 
L 381.521376 229.806076 
L 379.218862 229.806076 
z
" clip-path="url(#p7c10953ba6)" style="fill: #ff7f0e"/>
   </g>
   <g id="patch_42">
    <path d="M 396.184758 244.623 
L 398.487273 244.623 
L 398.487273 228.751342 
L 396.184758 228.751342 
z
" clip-path="url(#p7c10953ba6)" style="fill: #ff7f0e"/>
   </g>
   <g id="patch_43">
    <path d="M 73.832727 255.950155 
L 76.135242 255.950155 
L 76.135242 187.385485 
L 73.832727 187.385485 
z
" clip-path="url(#p7c10953ba6)" style="fill: #2ca02c"/>
   </g>
   <g id="patch_44">
    <path d="M 90.798624 254.059465 
L 93.101138 254.059465 
L 93.101138 188.400112 
L 90.798624 188.400112 
z
" clip-path="url(#p7c10953ba6)" style="fill: #2ca02c"/>
   </g>
   <g id="patch_45">
    <path d="M 107.76452 252.220509 
L 110.067035 252.220509 
L 110.067035 188.534622 
L 107.76452 188.534622 
z
" clip-path="url(#p7c10953ba6)" style="fill: #2ca02c"/>
   </g>
   <g id="patch_46">
    <path d="M 124.730416 250.439353 
L 127.032931 250.439353 
L 127.032931 188.213798 
L 124.730416 188.213798 
z
" clip-path="url(#p7c10953ba6)" style="fill: #2ca02c"/>
   </g>
   <g id="patch_47">
    <path d="M 141.696313 248.717078 
L 143.998827 248.717078 
L 143.998827 187.626794 
L 141.696313 187.626794 
z
" clip-path="url(#p7c10953ba6)" style="fill: #2ca02c"/>
   </g>
   <g id="patch_48">
    <path d="M 158.662209 247.052853 
L 160.964724 247.052853 
L 160.964724 186.873073 
L 158.662209 186.873073 
z
" clip-path="url(#p7c10953ba6)" style="fill: #2ca02c"/>
   </g>
   <g id="patch_49">
    <path d="M 175.628105 245.44503 
L 177.93062 245.44503 
L 177.93062 186.010778 
L 175.628105 186.010778 
z
" clip-path="url(#p7c10953ba6)" style="fill: #2ca02c"/>
   </g>
   <g id="patch_50">
    <path d="M 192.594002 243.891605 
L 194.896516 243.891605 
L 194.896516 185.07645 
L 192.594002 185.07645 
z
" clip-path="url(#p7c10953ba6)" style="fill: #2ca02c"/>
   </g>
   <g id="patch_51">
    <path d="M 209.559898 242.390436 
L 211.862413 242.390436 
L 211.862413 184.094282 
L 209.559898 184.094282 
z
" clip-path="url(#p7c10953ba6)" style="fill: #2ca02c"/>
   </g>
   <g id="patch_52">
    <path d="M 226.525795 240.939352 
L 228.828309 240.939352 
L 228.828309 183.080916 
L 226.525795 183.080916 
z
" clip-path="url(#p7c10953ba6)" style="fill: #2ca02c"/>
   </g>
   <g id="patch_53">
    <path d="M 243.491691 239.536215 
L 245.794205 239.536215 
L 245.794205 182.048136 
L 243.491691 182.048136 
z
" clip-path="url(#p7c10953ba6)" style="fill: #2ca02c"/>
   </g>
   <g id="patch_54">
    <path d="M 260.457587 238.178952 
L 262.760102 238.178952 
L 262.760102 181.004473 
L 260.457587 181.004473 
z
" clip-path="url(#p7c10953ba6)" style="fill: #2ca02c"/>
   </g>
   <g id="patch_55">
    <path d="M 277.423484 236.865567 
L 279.725998 236.865567 
L 279.725998 179.956207 
L 277.423484 179.956207 
z
" clip-path="url(#p7c10953ba6)" style="fill: #2ca02c"/>
   </g>
   <g id="patch_56">
    <path d="M 294.38938 235.594152 
L 296.691895 235.594152 
L 296.691895 178.908013 
L 294.38938 178.908013 
z
" clip-path="url(#p7c10953ba6)" style="fill: #2ca02c"/>
   </g>
   <g id="patch_57">
    <path d="M 311.355276 234.362889 
L 313.657791 234.362889 
L 313.657791 177.863405 
L 311.355276 177.863405 
z
" clip-path="url(#p7c10953ba6)" style="fill: #2ca02c"/>
   </g>
   <g id="patch_58">
    <path d="M 328.321173 233.170049 
L 330.623687 233.170049 
L 330.623687 176.825034 
L 328.321173 176.825034 
z
" clip-path="url(#p7c10953ba6)" style="fill: #2ca02c"/>
   </g>
   <g id="patch_59">
    <path d="M 345.287069 232.013991 
L 347.589584 232.013991 
L 347.589584 175.794903 
L 345.287069 175.794903 
z
" clip-path="url(#p7c10953ba6)" style="fill: #2ca02c"/>
   </g>
   <g id="patch_60">
    <path d="M 362.252965 230.893159 
L 364.55548 230.893159 
L 364.55548 174.774522 
L 362.252965 174.774522 
z
" clip-path="url(#p7c10953ba6)" style="fill: #2ca02c"/>
   </g>
   <g id="patch_61">
    <path d="M 379.218862 229.806076 
L 381.521376 229.806076 
L 381.521376 173.765022 
L 379.218862 173.765022 
z
" clip-path="url(#p7c10953ba6)" style="fill: #2ca02c"/>
   </g>
   <g id="patch_62">
    <path d="M 396.184758 228.751342 
L 398.487273 228.751342 
L 398.487273 172.767237 
L 396.184758 172.767237 
z
" clip-path="url(#p7c10953ba6)" style="fill: #2ca02c"/>
   </g>
   <g id="patch_63">
    <path d="M 73.832727 187.385485 
L 76.135242 187.385485 
L 76.135242 103.328777 
L 73.832727 103.328777 
z
" clip-path="url(#p7c10953ba6)" style="fill: #d62728"/>
   </g>
   <g id="patch_64">
    <path d="M 90.798624 188.400112 
L 93.101138 188.400112 
L 93.101138 104.841528 
L 90.798624 104.841528 
z
" clip-path="url(#p7c10953ba6)" style="fill: #d62728"/>
   </g>
   <g id="patch_65">
    <path d="M 107.76452 188.534622 
L 110.067035 188.534622 
L 110.067035 105.324626 
L 107.76452 105.324626 
z
" clip-path="url(#p7c10953ba6)" style="fill: #d62728"/>
   </g>
   <g id="patch_66">
    <path d="M 124.730416 188.213798 
L 127.032931 188.213798 
L 127.032931 105.270772 
L 124.730416 105.270772 
z
" clip-path="url(#p7c10953ba6)" style="fill: #d62728"/>
   </g>
   <g id="patch_67">
    <path d="M 141.696313 187.626794 
L 143.998827 187.626794 
L 143.998827 104.899878 
L 141.696313 104.899878 
z
" clip-path="url(#p7c10953ba6)" style="fill: #d62728"/>
   </g>
   <g id="patch_68">
    <path d="M 158.662209 186.873073 
L 160.964724 186.873073 
L 160.964724 104.327852 
L 158.662209 104.327852 
z
" clip-path="url(#p7c10953ba6)" style="fill: #d62728"/>
   </g>
   <g id="patch_69">
    <path d="M 175.628105 186.010778 
L 177.93062 186.010778 
L 177.93062 103.622621 
L 175.628105 103.622621 
z
" clip-path="url(#p7c10953ba6)" style="fill: #d62728"/>
   </g>
   <g id="patch_70">
    <path d="M 192.594002 185.07645 
L 194.896516 185.07645 
L 194.896516 102.826994 
L 192.594002 102.826994 
z
" clip-path="url(#p7c10953ba6)" style="fill: #d62728"/>
   </g>
   <g id="patch_71">
    <path d="M 209.559898 184.094282 
L 211.862413 184.094282 
L 211.862413 101.969407 
L 209.559898 101.969407 
z
" clip-path="url(#p7c10953ba6)" style="fill: #d62728"/>
   </g>
   <g id="patch_72">
    <path d="M 226.525795 183.080916 
L 228.828309 183.080916 
L 228.828309 101.069494 
L 226.525795 101.069494 
z
" clip-path="url(#p7c10953ba6)" style="fill: #d62728"/>
   </g>
   <g id="patch_73">
    <path d="M 243.491691 182.048136 
L 245.794205 182.048136 
L 245.794205 100.141221 
L 243.491691 100.141221 
z
" clip-path="url(#p7c10953ba6)" style="fill: #d62728"/>
   </g>
   <g id="patch_74">
    <path d="M 260.457587 181.004473 
L 262.760102 181.004473 
L 262.760102 99.194753 
L 260.457587 99.194753 
z
" clip-path="url(#p7c10953ba6)" style="fill: #d62728"/>
   </g>
   <g id="patch_75">
    <path d="M 277.423484 179.956207 
L 279.725998 179.956207 
L 279.725998 98.237615 
L 277.423484 98.237615 
z
" clip-path="url(#p7c10953ba6)" style="fill: #d62728"/>
   </g>
   <g id="patch_76">
    <path d="M 294.38938 178.908013 
L 296.691895 178.908013 
L 296.691895 97.275457 
L 294.38938 97.275457 
z
" clip-path="url(#p7c10953ba6)" style="fill: #d62728"/>
   </g>
   <g id="patch_77">
    <path d="M 311.355276 177.863405 
L 313.657791 177.863405 
L 313.657791 96.312559 
L 311.355276 96.312559 
z
" clip-path="url(#p7c10953ba6)" style="fill: #d62728"/>
   </g>
   <g id="patch_78">
    <path d="M 328.321173 176.825034 
L 330.623687 176.825034 
L 330.623687 95.352187 
L 328.321173 95.352187 
z
" clip-path="url(#p7c10953ba6)" style="fill: #d62728"/>
   </g>
   <g id="patch_79">
    <path d="M 345.287069 175.794903 
L 347.589584 175.794903 
L 347.589584 94.396841 
L 345.287069 94.396841 
z
" clip-path="url(#p7c10953ba6)" style="fill: #d62728"/>
   </g>
   <g id="patch_80">
    <path d="M 362.252965 174.774522 
L 364.55548 174.774522 
L 364.55548 93.448439 
L 362.252965 93.448439 
z
" clip-path="url(#p7c10953ba6)" style="fill: #d62728"/>
   </g>
   <g id="patch_81">
    <path d="M 379.218862 173.765022 
L 381.521376 173.765022 
L 381.521376 92.508447 
L 379.218862 92.508447 
z
" clip-path="url(#p7c10953ba6)" style="fill: #d62728"/>
   </g>
   <g id="patch_82">
    <path d="M 396.184758 172.767237 
L 398.487273 172.767237 
L 398.487273 91.577978 
L 396.184758 91.577978 
z
" clip-path="url(#p7c10953ba6)" style="fill: #d62728"/>
   </g>
   <g id="patch_83">
    <path d="M 73.832727 103.328777 
L 76.135242 103.328777 
L 76.135242 54.144 
L 73.832727 54.144 
z
" clip-path="url(#p7c10953ba6)" style="fill: #9467bd"/>
   </g>
   <g id="patch_84">
    <path d="M 90.798624 104.841528 
L 93.101138 104.841528 
L 93.101138 57.62574 
L 90.798624 57.62574 
z
" clip-path="url(#p7c10953ba6)" style="fill: #9467bd"/>
   </g>
   <g id="patch_85">
    <path d="M 107.76452 105.324626 
L 110.067035 105.324626 
L 110.067035 59.595795 
L 107.76452 59.595795 
z
" clip-path="url(#p7c10953ba6)" style="fill: #9467bd"/>
   </g>
   <g id="patch_86">
    <path d="M 124.730416 105.270772 
L 127.032931 105.270772 
L 127.032931 60.751524 
L 124.730416 60.751524 
z
" clip-path="url(#p7c10953ba6)" style="fill: #9467bd"/>
   </g>
   <g id="patch_87">
    <path d="M 141.696313 104.899878 
L 143.998827 104.899878 
L 143.998827 61.408266 
L 141.696313 61.408266 
z
" clip-path="url(#p7c10953ba6)" style="fill: #9467bd"/>
   </g>
   <g id="patch_88">
    <path d="M 158.662209 104.327852 
L 160.964724 104.327852 
L 160.964724 61.734239 
L 158.662209 61.734239 
z
" clip-path="url(#p7c10953ba6)" style="fill: #9467bd"/>
   </g>
   <g id="patch_89">
    <path d="M 175.628105 103.622621 
L 177.93062 103.622621 
L 177.93062 61.829261 
L 175.628105 61.829261 
z
" clip-path="url(#p7c10953ba6)" style="fill: #9467bd"/>
   </g>
   <g id="patch_90">
    <path d="M 192.594002 102.826994 
L 194.896516 102.826994 
L 194.896516 61.757104 
L 192.594002 61.757104 
z
" clip-path="url(#p7c10953ba6)" style="fill: #9467bd"/>
   </g>
   <g id="patch_91">
    <path d="M 209.559898 101.969407 
L 211.862413 101.969407 
L 211.862413 61.560774 
L 209.559898 61.560774 
z
" clip-path="url(#p7c10953ba6)" style="fill: #9467bd"/>
   </g>
   <g id="patch_92">
    <path d="M 226.525795 101.069494 
L 228.828309 101.069494 
L 228.828309 61.270483 
L 226.525795 61.270483 
z
" clip-path="url(#p7c10953ba6)" style="fill: #9467bd"/>
   </g>
   <g id="patch_93">
    <path d="M 243.491691 100.141221 
L 245.794205 100.141221 
L 245.794205 60.908147 
L 243.491691 60.908147 
z
" clip-path="url(#p7c10953ba6)" style="fill: #9467bd"/>
   </g>
   <g id="patch_94">
    <path d="M 260.457587 99.194753 
L 262.760102 99.194753 
L 262.760102 60.490069 
L 260.457587 60.490069 
z
" clip-path="url(#p7c10953ba6)" style="fill: #9467bd"/>
   </g>
   <g id="patch_95">
    <path d="M 277.423484 98.237615 
L 279.725998 98.237615 
L 279.725998 60.028635 
L 277.423484 60.028635 
z
" clip-path="url(#p7c10953ba6)" style="fill: #9467bd"/>
   </g>
   <g id="patch_96">
    <path d="M 294.38938 97.275457 
L 296.691895 97.275457 
L 296.691895 59.533411 
L 294.38938 59.533411 
z
" clip-path="url(#p7c10953ba6)" style="fill: #9467bd"/>
   </g>
   <g id="patch_97">
    <path d="M 311.355276 96.312559 
L 313.657791 96.312559 
L 313.657791 59.011892 
L 311.355276 59.011892 
z
" clip-path="url(#p7c10953ba6)" style="fill: #9467bd"/>
   </g>
   <g id="patch_98">
    <path d="M 328.321173 95.352187 
L 330.623687 95.352187 
L 330.623687 58.470016 
L 328.321173 58.470016 
z
" clip-path="url(#p7c10953ba6)" style="fill: #9467bd"/>
   </g>
   <g id="patch_99">
    <path d="M 345.287069 94.396841 
L 347.589584 94.396841 
L 347.589584 57.912537 
L 345.287069 57.912537 
z
" clip-path="url(#p7c10953ba6)" style="fill: #9467bd"/>
   </g>
   <g id="patch_100">
    <path d="M 362.252965 93.448439 
L 364.55548 93.448439 
L 364.55548 57.343292 
L 362.252965 57.343292 
z
" clip-path="url(#p7c10953ba6)" style="fill: #9467bd"/>
   </g>
   <g id="patch_101">
    <path d="M 379.218862 92.508447 
L 381.521376 92.508447 
L 381.521376 56.765395 
L 379.218862 56.765395 
z
" clip-path="url(#p7c10953ba6)" style="fill: #9467bd"/>
   </g>
   <g id="patch_102">
    <path d="M 396.184758 91.577978 
L 398.487273 91.577978 
L 398.487273 56.181391 
L 396.184758 56.181391 
z
" clip-path="url(#p7c10953ba6)" style="fill: #9467bd"/>
   </g>
   <g id="matplotlib.axis_1">
    <g id="xtick_1">
     <g id="line2d_1">
      <defs>
       <path id="m31ac93a59b" d="M 0 0 
L 0 3.5 
" style="stroke: #000000; stroke-width: 0.8"/>
      </defs>
      <g>
       <use xlink:href="#m31ac93a59b" x="74.983985" y="307.584" style="stroke: #000000; stroke-width: 0.8"/>
      </g>
     </g>
     <g id="text_1">
      <!-- 40 -->
      <g transform="translate(63.531485 328.261187) scale(0.18 -0.18)">
       <defs>
        <path id="DejaVuSans-34" d="M 2419 4116 
L 825 1625 
L 2419 1625 
L 2419 4116 
z
M 2253 4666 
L 3047 4666 
L 3047 1625 
L 3713 1625 
L 3713 1100 
L 3047 1100 
L 3047 0 
L 2419 0 
L 2419 1100 
L 313 1100 
L 313 1709 
L 2253 4666 
z
" transform="scale(0.015625)"/>
        <path id="DejaVuSans-30" d="M 2034 4250 
Q 1547 4250 1301 3770 
Q 1056 3291 1056 2328 
Q 1056 1369 1301 889 
Q 1547 409 2034 409 
Q 2525 409 2770 889 
Q 3016 1369 3016 2328 
Q 3016 3291 2770 3770 
Q 2525 4250 2034 4250 
z
M 2034 4750 
Q 2819 4750 3233 4129 
Q 3647 3509 3647 2328 
Q 3647 1150 3233 529 
Q 2819 -91 2034 -91 
Q 1250 -91 836 529 
Q 422 1150 422 2328 
Q 422 3509 836 4129 
Q 1250 4750 2034 4750 
z
" transform="scale(0.015625)"/>
       </defs>
       <use xlink:href="#DejaVuSans-34"/>
       <use xlink:href="#DejaVuSans-30" x="63.623047"/>
      </g>
     </g>
    </g>
    <g id="xtick_2">
     <g id="line2d_2">
      <g>
       <use xlink:href="#m31ac93a59b" x="190.10971" y="307.584" style="stroke: #000000; stroke-width: 0.8"/>
      </g>
     </g>
     <g id="text_2">
      <!-- 45 -->
      <g transform="translate(178.65721 328.261187) scale(0.18 -0.18)">
       <defs>
        <path id="DejaVuSans-35" d="M 691 4666 
L 3169 4666 
L 3169 4134 
L 1269 4134 
L 1269 2991 
Q 1406 3038 1543 3061 
Q 1681 3084 1819 3084 
Q 2600 3084 3056 2656 
Q 3513 2228 3513 1497 
Q 3513 744 3044 326 
Q 2575 -91 1722 -91 
Q 1428 -91 1123 -41 
Q 819 9 494 109 
L 494 744 
Q 775 591 1075 516 
Q 1375 441 1709 441 
Q 2250 441 2565 725 
Q 2881 1009 2881 1497 
Q 2881 1984 2565 2268 
Q 2250 2553 1709 2553 
Q 1456 2553 1204 2497 
Q 953 2441 691 2322 
L 691 4666 
z
" transform="scale(0.015625)"/>
       </defs>
       <use xlink:href="#DejaVuSans-34"/>
       <use xlink:href="#DejaVuSans-35" x="63.623047"/>
      </g>
     </g>
    </g>
    <g id="xtick_3">
     <g id="line2d_3">
      <g>
       <use xlink:href="#m31ac93a59b" x="305.235435" y="307.584" style="stroke: #000000; stroke-width: 0.8"/>
      </g>
     </g>
     <g id="text_3">
      <!-- 50 -->
      <g transform="translate(293.782935 328.261187) scale(0.18 -0.18)">
       <use xlink:href="#DejaVuSans-35"/>
       <use xlink:href="#DejaVuSans-30" x="63.623047"/>
      </g>
     </g>
    </g>
    <g id="text_4">
     <!-- Kondensatordruck in bar -->
     <g transform="translate(125.630156 349.681812) scale(0.18 -0.18)">
      <defs>
       <path id="DejaVuSans-4b" d="M 628 4666 
L 1259 4666 
L 1259 2694 
L 3353 4666 
L 4166 4666 
L 1850 2491 
L 4331 0 
L 3500 0 
L 1259 2247 
L 1259 0 
L 628 0 
L 628 4666 
z
" transform="scale(0.015625)"/>
       <path id="DejaVuSans-6f" d="M 1959 3097 
Q 1497 3097 1228 2736 
Q 959 2375 959 1747 
Q 959 1119 1226 758 
Q 1494 397 1959 397 
Q 2419 397 2687 759 
Q 2956 1122 2956 1747 
Q 2956 2369 2687 2733 
Q 2419 3097 1959 3097 
z
M 1959 3584 
Q 2709 3584 3137 3096 
Q 3566 2609 3566 1747 
Q 3566 888 3137 398 
Q 2709 -91 1959 -91 
Q 1206 -91 779 398 
Q 353 888 353 1747 
Q 353 2609 779 3096 
Q 1206 3584 1959 3584 
z
" transform="scale(0.015625)"/>
       <path id="DejaVuSans-6e" d="M 3513 2113 
L 3513 0 
L 2938 0 
L 2938 2094 
Q 2938 2591 2744 2837 
Q 2550 3084 2163 3084 
Q 1697 3084 1428 2787 
Q 1159 2491 1159 1978 
L 1159 0 
L 581 0 
L 581 3500 
L 1159 3500 
L 1159 2956 
Q 1366 3272 1645 3428 
Q 1925 3584 2291 3584 
Q 2894 3584 3203 3211 
Q 3513 2838 3513 2113 
z
" transform="scale(0.015625)"/>
       <path id="DejaVuSans-64" d="M 2906 2969 
L 2906 4863 
L 3481 4863 
L 3481 0 
L 2906 0 
L 2906 525 
Q 2725 213 2448 61 
Q 2172 -91 1784 -91 
Q 1150 -91 751 415 
Q 353 922 353 1747 
Q 353 2572 751 3078 
Q 1150 3584 1784 3584 
Q 2172 3584 2448 3432 
Q 2725 3281 2906 2969 
z
M 947 1747 
Q 947 1113 1208 752 
Q 1469 391 1925 391 
Q 2381 391 2643 752 
Q 2906 1113 2906 1747 
Q 2906 2381 2643 2742 
Q 2381 3103 1925 3103 
Q 1469 3103 1208 2742 
Q 947 2381 947 1747 
z
" transform="scale(0.015625)"/>
       <path id="DejaVuSans-65" d="M 3597 1894 
L 3597 1613 
L 953 1613 
Q 991 1019 1311 708 
Q 1631 397 2203 397 
Q 2534 397 2845 478 
Q 3156 559 3463 722 
L 3463 178 
Q 3153 47 2828 -22 
Q 2503 -91 2169 -91 
Q 1331 -91 842 396 
Q 353 884 353 1716 
Q 353 2575 817 3079 
Q 1281 3584 2069 3584 
Q 2775 3584 3186 3129 
Q 3597 2675 3597 1894 
z
M 3022 2063 
Q 3016 2534 2758 2815 
Q 2500 3097 2075 3097 
Q 1594 3097 1305 2825 
Q 1016 2553 972 2059 
L 3022 2063 
z
" transform="scale(0.015625)"/>
       <path id="DejaVuSans-73" d="M 2834 3397 
L 2834 2853 
Q 2591 2978 2328 3040 
Q 2066 3103 1784 3103 
Q 1356 3103 1142 2972 
Q 928 2841 928 2578 
Q 928 2378 1081 2264 
Q 1234 2150 1697 2047 
L 1894 2003 
Q 2506 1872 2764 1633 
Q 3022 1394 3022 966 
Q 3022 478 2636 193 
Q 2250 -91 1575 -91 
Q 1294 -91 989 -36 
Q 684 19 347 128 
L 347 722 
Q 666 556 975 473 
Q 1284 391 1588 391 
Q 1994 391 2212 530 
Q 2431 669 2431 922 
Q 2431 1156 2273 1281 
Q 2116 1406 1581 1522 
L 1381 1569 
Q 847 1681 609 1914 
Q 372 2147 372 2553 
Q 372 3047 722 3315 
Q 1072 3584 1716 3584 
Q 2034 3584 2315 3537 
Q 2597 3491 2834 3397 
z
" transform="scale(0.015625)"/>
       <path id="DejaVuSans-61" d="M 2194 1759 
Q 1497 1759 1228 1600 
Q 959 1441 959 1056 
Q 959 750 1161 570 
Q 1363 391 1709 391 
Q 2188 391 2477 730 
Q 2766 1069 2766 1631 
L 2766 1759 
L 2194 1759 
z
M 3341 1997 
L 3341 0 
L 2766 0 
L 2766 531 
Q 2569 213 2275 61 
Q 1981 -91 1556 -91 
Q 1019 -91 701 211 
Q 384 513 384 1019 
Q 384 1609 779 1909 
Q 1175 2209 1959 2209 
L 2766 2209 
L 2766 2266 
Q 2766 2663 2505 2880 
Q 2244 3097 1772 3097 
Q 1472 3097 1187 3025 
Q 903 2953 641 2809 
L 641 3341 
Q 956 3463 1253 3523 
Q 1550 3584 1831 3584 
Q 2591 3584 2966 3190 
Q 3341 2797 3341 1997 
z
" transform="scale(0.015625)"/>
       <path id="DejaVuSans-74" d="M 1172 4494 
L 1172 3500 
L 2356 3500 
L 2356 3053 
L 1172 3053 
L 1172 1153 
Q 1172 725 1289 603 
Q 1406 481 1766 481 
L 2356 481 
L 2356 0 
L 1766 0 
Q 1100 0 847 248 
Q 594 497 594 1153 
L 594 3053 
L 172 3053 
L 172 3500 
L 594 3500 
L 594 4494 
L 1172 4494 
z
" transform="scale(0.015625)"/>
       <path id="DejaVuSans-72" d="M 2631 2963 
Q 2534 3019 2420 3045 
Q 2306 3072 2169 3072 
Q 1681 3072 1420 2755 
Q 1159 2438 1159 1844 
L 1159 0 
L 581 0 
L 581 3500 
L 1159 3500 
L 1159 2956 
Q 1341 3275 1631 3429 
Q 1922 3584 2338 3584 
Q 2397 3584 2469 3576 
Q 2541 3569 2628 3553 
L 2631 2963 
z
" transform="scale(0.015625)"/>
       <path id="DejaVuSans-75" d="M 544 1381 
L 544 3500 
L 1119 3500 
L 1119 1403 
Q 1119 906 1312 657 
Q 1506 409 1894 409 
Q 2359 409 2629 706 
Q 2900 1003 2900 1516 
L 2900 3500 
L 3475 3500 
L 3475 0 
L 2900 0 
L 2900 538 
Q 2691 219 2414 64 
Q 2138 -91 1772 -91 
Q 1169 -91 856 284 
Q 544 659 544 1381 
z
M 1991 3584 
L 1991 3584 
z
" transform="scale(0.015625)"/>
       <path id="DejaVuSans-63" d="M 3122 3366 
L 3122 2828 
Q 2878 2963 2633 3030 
Q 2388 3097 2138 3097 
Q 1578 3097 1268 2742 
Q 959 2388 959 1747 
Q 959 1106 1268 751 
Q 1578 397 2138 397 
Q 2388 397 2633 464 
Q 2878 531 3122 666 
L 3122 134 
Q 2881 22 2623 -34 
Q 2366 -91 2075 -91 
Q 1284 -91 818 406 
Q 353 903 353 1747 
Q 353 2603 823 3093 
Q 1294 3584 2113 3584 
Q 2378 3584 2631 3529 
Q 2884 3475 3122 3366 
z
" transform="scale(0.015625)"/>
       <path id="DejaVuSans-6b" d="M 581 4863 
L 1159 4863 
L 1159 1991 
L 2875 3500 
L 3609 3500 
L 1753 1863 
L 3688 0 
L 2938 0 
L 1159 1709 
L 1159 0 
L 581 0 
L 581 4863 
z
" transform="scale(0.015625)"/>
       <path id="DejaVuSans-20" transform="scale(0.015625)"/>
       <path id="DejaVuSans-69" d="M 603 3500 
L 1178 3500 
L 1178 0 
L 603 0 
L 603 3500 
z
M 603 4863 
L 1178 4863 
L 1178 4134 
L 603 4134 
L 603 4863 
z
" transform="scale(0.015625)"/>
       <path id="DejaVuSans-62" d="M 3116 1747 
Q 3116 2381 2855 2742 
Q 2594 3103 2138 3103 
Q 1681 3103 1420 2742 
Q 1159 2381 1159 1747 
Q 1159 1113 1420 752 
Q 1681 391 2138 391 
Q 2594 391 2855 752 
Q 3116 1113 3116 1747 
z
M 1159 2969 
Q 1341 3281 1617 3432 
Q 1894 3584 2278 3584 
Q 2916 3584 3314 3078 
Q 3713 2572 3713 1747 
Q 3713 922 3314 415 
Q 2916 -91 2278 -91 
Q 1894 -91 1617 61 
Q 1341 213 1159 525 
L 1159 0 
L 581 0 
L 581 4863 
L 1159 4863 
L 1159 2969 
z
" transform="scale(0.015625)"/>
      </defs>
      <use xlink:href="#DejaVuSans-4b"/>
      <use xlink:href="#DejaVuSans-6f" x="60.576172"/>
      <use xlink:href="#DejaVuSans-6e" x="121.757812"/>
      <use xlink:href="#DejaVuSans-64" x="185.136719"/>
      <use xlink:href="#DejaVuSans-65" x="248.613281"/>
      <use xlink:href="#DejaVuSans-6e" x="310.136719"/>
      <use xlink:href="#DejaVuSans-73" x="373.515625"/>
      <use xlink:href="#DejaVuSans-61" x="425.615234"/>
      <use xlink:href="#DejaVuSans-74" x="486.894531"/>
      <use xlink:href="#DejaVuSans-6f" x="526.103516"/>
      <use xlink:href="#DejaVuSans-72" x="587.285156"/>
      <use xlink:href="#DejaVuSans-64" x="626.648438"/>
      <use xlink:href="#DejaVuSans-72" x="690.125"/>
      <use xlink:href="#DejaVuSans-75" x="731.238281"/>
      <use xlink:href="#DejaVuSans-63" x="794.617188"/>
      <use xlink:href="#DejaVuSans-6b" x="849.597656"/>
      <use xlink:href="#DejaVuSans-20" x="907.507812"/>
      <use xlink:href="#DejaVuSans-69" x="939.294922"/>
      <use xlink:href="#DejaVuSans-6e" x="967.078125"/>
      <use xlink:href="#DejaVuSans-20" x="1030.457031"/>
      <use xlink:href="#DejaVuSans-62" x="1062.244141"/>
      <use xlink:href="#DejaVuSans-61" x="1125.720703"/>
      <use xlink:href="#DejaVuSans-72" x="1187"/>
     </g>
    </g>
   </g>
   <g id="matplotlib.axis_2">
    <g id="ytick_1">
     <g id="line2d_4">
      <defs>
       <path id="mc6ce5aa134" d="M 0 0 
L -3.5 0 
" style="stroke: #000000; stroke-width: 0.8"/>
      </defs>
      <g>
       <use xlink:href="#mc6ce5aa134" x="57.6" y="307.584" style="stroke: #000000; stroke-width: 0.8"/>
      </g>
     </g>
     <g id="text_5">
      <!-- 0.0 -->
      <g transform="translate(21.974375 314.422594) scale(0.18 -0.18)">
       <defs>
        <path id="DejaVuSans-2e" d="M 684 794 
L 1344 794 
L 1344 0 
L 684 0 
L 684 794 
z
" transform="scale(0.015625)"/>
       </defs>
       <use xlink:href="#DejaVuSans-30"/>
       <use xlink:href="#DejaVuSans-2e" x="63.623047"/>
       <use xlink:href="#DejaVuSans-30" x="95.410156"/>
      </g>
     </g>
    </g>
    <g id="ytick_2">
     <g id="line2d_5">
      <g>
       <use xlink:href="#mc6ce5aa134" x="57.6" y="231.672396" style="stroke: #000000; stroke-width: 0.8"/>
      </g>
     </g>
     <g id="text_6">
      <!-- 0.1 -->
      <g transform="translate(21.974375 238.51099) scale(0.18 -0.18)">
       <defs>
        <path id="DejaVuSans-31" d="M 794 531 
L 1825 531 
L 1825 4091 
L 703 3866 
L 703 4441 
L 1819 4666 
L 2450 4666 
L 2450 531 
L 3481 531 
L 3481 0 
L 794 0 
L 794 531 
z
" transform="scale(0.015625)"/>
       </defs>
       <use xlink:href="#DejaVuSans-30"/>
       <use xlink:href="#DejaVuSans-2e" x="63.623047"/>
       <use xlink:href="#DejaVuSans-31" x="95.410156"/>
      </g>
     </g>
    </g>
    <g id="ytick_3">
     <g id="line2d_6">
      <g>
       <use xlink:href="#mc6ce5aa134" x="57.6" y="155.760792" style="stroke: #000000; stroke-width: 0.8"/>
      </g>
     </g>
     <g id="text_7">
      <!-- 0.2 -->
      <g transform="translate(21.974375 162.599386) scale(0.18 -0.18)">
       <defs>
        <path id="DejaVuSans-32" d="M 1228 531 
L 3431 531 
L 3431 0 
L 469 0 
L 469 531 
Q 828 903 1448 1529 
Q 2069 2156 2228 2338 
Q 2531 2678 2651 2914 
Q 2772 3150 2772 3378 
Q 2772 3750 2511 3984 
Q 2250 4219 1831 4219 
Q 1534 4219 1204 4116 
Q 875 4013 500 3803 
L 500 4441 
Q 881 4594 1212 4672 
Q 1544 4750 1819 4750 
Q 2544 4750 2975 4387 
Q 3406 4025 3406 3419 
Q 3406 3131 3298 2873 
Q 3191 2616 2906 2266 
Q 2828 2175 2409 1742 
Q 1991 1309 1228 531 
z
" transform="scale(0.015625)"/>
       </defs>
       <use xlink:href="#DejaVuSans-30"/>
       <use xlink:href="#DejaVuSans-2e" x="63.623047"/>
       <use xlink:href="#DejaVuSans-32" x="95.410156"/>
      </g>
     </g>
    </g>
    <g id="ytick_4">
     <g id="line2d_7">
      <g>
       <use xlink:href="#mc6ce5aa134" x="57.6" y="79.849188" style="stroke: #000000; stroke-width: 0.8"/>
      </g>
     </g>
     <g id="text_8">
      <!-- 0.3 -->
      <g transform="translate(21.974375 86.687781) scale(0.18 -0.18)">
       <defs>
        <path id="DejaVuSans-33" d="M 2597 2516 
Q 3050 2419 3304 2112 
Q 3559 1806 3559 1356 
Q 3559 666 3084 287 
Q 2609 -91 1734 -91 
Q 1441 -91 1130 -33 
Q 819 25 488 141 
L 488 750 
Q 750 597 1062 519 
Q 1375 441 1716 441 
Q 2309 441 2620 675 
Q 2931 909 2931 1356 
Q 2931 1769 2642 2001 
Q 2353 2234 1838 2234 
L 1294 2234 
L 1294 2753 
L 1863 2753 
Q 2328 2753 2575 2939 
Q 2822 3125 2822 3475 
Q 2822 3834 2567 4026 
Q 2313 4219 1838 4219 
Q 1578 4219 1281 4162 
Q 984 4106 628 3988 
L 628 4550 
Q 988 4650 1302 4700 
Q 1616 4750 1894 4750 
Q 2613 4750 3031 4423 
Q 3450 4097 3450 3541 
Q 3450 3153 3228 2886 
Q 3006 2619 2597 2516 
z
" transform="scale(0.015625)"/>
       </defs>
       <use xlink:href="#DejaVuSans-30"/>
       <use xlink:href="#DejaVuSans-2e" x="63.623047"/>
       <use xlink:href="#DejaVuSans-33" x="95.410156"/>
      </g>
     </g>
    </g>
    <g id="text_9">
     <!-- Exergievernichtungsgrad -->
     <g transform="translate(14.230937 287.335969) rotate(-90) scale(0.18 -0.18)">
      <defs>
       <path id="DejaVuSans-45" d="M 628 4666 
L 3578 4666 
L 3578 4134 
L 1259 4134 
L 1259 2753 
L 3481 2753 
L 3481 2222 
L 1259 2222 
L 1259 531 
L 3634 531 
L 3634 0 
L 628 0 
L 628 4666 
z
" transform="scale(0.015625)"/>
       <path id="DejaVuSans-78" d="M 3513 3500 
L 2247 1797 
L 3578 0 
L 2900 0 
L 1881 1375 
L 863 0 
L 184 0 
L 1544 1831 
L 300 3500 
L 978 3500 
L 1906 2253 
L 2834 3500 
L 3513 3500 
z
" transform="scale(0.015625)"/>
       <path id="DejaVuSans-67" d="M 2906 1791 
Q 2906 2416 2648 2759 
Q 2391 3103 1925 3103 
Q 1463 3103 1205 2759 
Q 947 2416 947 1791 
Q 947 1169 1205 825 
Q 1463 481 1925 481 
Q 2391 481 2648 825 
Q 2906 1169 2906 1791 
z
M 3481 434 
Q 3481 -459 3084 -895 
Q 2688 -1331 1869 -1331 
Q 1566 -1331 1297 -1286 
Q 1028 -1241 775 -1147 
L 775 -588 
Q 1028 -725 1275 -790 
Q 1522 -856 1778 -856 
Q 2344 -856 2625 -561 
Q 2906 -266 2906 331 
L 2906 616 
Q 2728 306 2450 153 
Q 2172 0 1784 0 
Q 1141 0 747 490 
Q 353 981 353 1791 
Q 353 2603 747 3093 
Q 1141 3584 1784 3584 
Q 2172 3584 2450 3431 
Q 2728 3278 2906 2969 
L 2906 3500 
L 3481 3500 
L 3481 434 
z
" transform="scale(0.015625)"/>
       <path id="DejaVuSans-76" d="M 191 3500 
L 800 3500 
L 1894 563 
L 2988 3500 
L 3597 3500 
L 2284 0 
L 1503 0 
L 191 3500 
z
" transform="scale(0.015625)"/>
       <path id="DejaVuSans-68" d="M 3513 2113 
L 3513 0 
L 2938 0 
L 2938 2094 
Q 2938 2591 2744 2837 
Q 2550 3084 2163 3084 
Q 1697 3084 1428 2787 
Q 1159 2491 1159 1978 
L 1159 0 
L 581 0 
L 581 4863 
L 1159 4863 
L 1159 2956 
Q 1366 3272 1645 3428 
Q 1925 3584 2291 3584 
Q 2894 3584 3203 3211 
Q 3513 2838 3513 2113 
z
" transform="scale(0.015625)"/>
      </defs>
      <use xlink:href="#DejaVuSans-45"/>
      <use xlink:href="#DejaVuSans-78" x="63.183594"/>
      <use xlink:href="#DejaVuSans-65" x="119.238281"/>
      <use xlink:href="#DejaVuSans-72" x="180.761719"/>
      <use xlink:href="#DejaVuSans-67" x="220.125"/>
      <use xlink:href="#DejaVuSans-69" x="283.601562"/>
      <use xlink:href="#DejaVuSans-65" x="311.384766"/>
      <use xlink:href="#DejaVuSans-76" x="372.908203"/>
      <use xlink:href="#DejaVuSans-65" x="432.087891"/>
      <use xlink:href="#DejaVuSans-72" x="493.611328"/>
      <use xlink:href="#DejaVuSans-6e" x="532.974609"/>
      <use xlink:href="#DejaVuSans-69" x="596.353516"/>
      <use xlink:href="#DejaVuSans-63" x="624.136719"/>
      <use xlink:href="#DejaVuSans-68" x="679.117188"/>
      <use xlink:href="#DejaVuSans-74" x="742.496094"/>
      <use xlink:href="#DejaVuSans-75" x="781.705078"/>
      <use xlink:href="#DejaVuSans-6e" x="845.083984"/>
      <use xlink:href="#DejaVuSans-67" x="908.462891"/>
      <use xlink:href="#DejaVuSans-73" x="971.939453"/>
      <use xlink:href="#DejaVuSans-67" x="1024.039062"/>
      <use xlink:href="#DejaVuSans-72" x="1087.515625"/>
      <use xlink:href="#DejaVuSans-61" x="1128.628906"/>
      <use xlink:href="#DejaVuSans-64" x="1189.908203"/>
     </g>
    </g>
   </g>
   <g id="patch_103">
    <path d="M 57.6 307.584 
L 57.6 41.472 
" style="fill: none; stroke: #000000; stroke-width: 0.8; stroke-linejoin: miter; stroke-linecap: square"/>
   </g>
   <g id="patch_104">
    <path d="M 414.72 307.584 
L 414.72 41.472 
" style="fill: none; stroke: #000000; stroke-width: 0.8; stroke-linejoin: miter; stroke-linecap: square"/>
   </g>
   <g id="patch_105">
    <path d="M 57.6 307.584 
L 414.72 307.584 
" style="fill: none; stroke: #000000; stroke-width: 0.8; stroke-linejoin: miter; stroke-linecap: square"/>
   </g>
   <g id="patch_106">
    <path d="M 57.6 41.472 
L 414.72 41.472 
" style="fill: none; stroke: #000000; stroke-width: 0.8; stroke-linejoin: miter; stroke-linecap: square"/>
   </g>
   <g id="legend_1">
    <g id="patch_107">
     <path d="M 125.648437 298.584 
L 402.12 298.584 
Q 405.72 298.584 405.72 294.984 
L 405.72 164.680875 
Q 405.72 161.080875 402.12 161.080875 
L 125.648437 161.080875 
Q 122.048437 161.080875 122.048437 164.680875 
L 122.048437 294.984 
Q 122.048437 298.584 125.648437 298.584 
z
" style="fill: #ffffff; opacity: 0.8; stroke: #cccccc; stroke-linejoin: miter"/>
    </g>
    <g id="patch_108">
     <path d="M 129.248437 181.958062 
L 165.248437 181.958062 
L 165.248437 169.358062 
L 129.248437 169.358062 
z
" style="fill: #1f77b4"/>
    </g>
    <g id="text_10">
     <!-- Gas cooler -->
     <g transform="translate(179.648438 181.958062) scale(0.18 -0.18)">
      <defs>
       <path id="DejaVuSans-47" d="M 3809 666 
L 3809 1919 
L 2778 1919 
L 2778 2438 
L 4434 2438 
L 4434 434 
Q 4069 175 3628 42 
Q 3188 -91 2688 -91 
Q 1594 -91 976 548 
Q 359 1188 359 2328 
Q 359 3472 976 4111 
Q 1594 4750 2688 4750 
Q 3144 4750 3555 4637 
Q 3966 4525 4313 4306 
L 4313 3634 
Q 3963 3931 3569 4081 
Q 3175 4231 2741 4231 
Q 1884 4231 1454 3753 
Q 1025 3275 1025 2328 
Q 1025 1384 1454 906 
Q 1884 428 2741 428 
Q 3075 428 3337 486 
Q 3600 544 3809 666 
z
" transform="scale(0.015625)"/>
       <path id="DejaVuSans-6c" d="M 603 4863 
L 1178 4863 
L 1178 0 
L 603 0 
L 603 4863 
z
" transform="scale(0.015625)"/>
      </defs>
      <use xlink:href="#DejaVuSans-47"/>
      <use xlink:href="#DejaVuSans-61" x="77.490234"/>
      <use xlink:href="#DejaVuSans-73" x="138.769531"/>
      <use xlink:href="#DejaVuSans-20" x="190.869141"/>
      <use xlink:href="#DejaVuSans-63" x="222.65625"/>
      <use xlink:href="#DejaVuSans-6f" x="277.636719"/>
      <use xlink:href="#DejaVuSans-6f" x="338.818359"/>
      <use xlink:href="#DejaVuSans-6c" x="400"/>
      <use xlink:href="#DejaVuSans-65" x="427.783203"/>
      <use xlink:href="#DejaVuSans-72" x="489.306641"/>
     </g>
    </g>
    <g id="patch_109">
     <path d="M 129.248437 208.378687 
L 165.248437 208.378687 
L 165.248437 195.778687 
L 129.248437 195.778687 
z
" style="fill: #ff7f0e"/>
    </g>
    <g id="text_11">
     <!-- Evaporator -->
     <g transform="translate(179.648438 208.378687) scale(0.18 -0.18)">
      <defs>
       <path id="DejaVuSans-70" d="M 1159 525 
L 1159 -1331 
L 581 -1331 
L 581 3500 
L 1159 3500 
L 1159 2969 
Q 1341 3281 1617 3432 
Q 1894 3584 2278 3584 
Q 2916 3584 3314 3078 
Q 3713 2572 3713 1747 
Q 3713 922 3314 415 
Q 2916 -91 2278 -91 
Q 1894 -91 1617 61 
Q 1341 213 1159 525 
z
M 3116 1747 
Q 3116 2381 2855 2742 
Q 2594 3103 2138 3103 
Q 1681 3103 1420 2742 
Q 1159 2381 1159 1747 
Q 1159 1113 1420 752 
Q 1681 391 2138 391 
Q 2594 391 2855 752 
Q 3116 1113 3116 1747 
z
" transform="scale(0.015625)"/>
      </defs>
      <use xlink:href="#DejaVuSans-45"/>
      <use xlink:href="#DejaVuSans-76" x="63.183594"/>
      <use xlink:href="#DejaVuSans-61" x="122.363281"/>
      <use xlink:href="#DejaVuSans-70" x="183.642578"/>
      <use xlink:href="#DejaVuSans-6f" x="247.119141"/>
      <use xlink:href="#DejaVuSans-72" x="308.300781"/>
      <use xlink:href="#DejaVuSans-61" x="349.414062"/>
      <use xlink:href="#DejaVuSans-74" x="410.693359"/>
      <use xlink:href="#DejaVuSans-6f" x="449.902344"/>
      <use xlink:href="#DejaVuSans-72" x="511.083984"/>
     </g>
    </g>
    <g id="patch_110">
     <path d="M 129.248437 234.799312 
L 165.248437 234.799312 
L 165.248437 222.199312 
L 129.248437 222.199312 
z
" style="fill: #2ca02c"/>
    </g>
    <g id="text_12">
     <!-- Valve -->
     <g transform="translate(179.648438 234.799312) scale(0.18 -0.18)">
      <defs>
       <path id="DejaVuSans-56" d="M 1831 0 
L 50 4666 
L 709 4666 
L 2188 738 
L 3669 4666 
L 4325 4666 
L 2547 0 
L 1831 0 
z
" transform="scale(0.015625)"/>
      </defs>
      <use xlink:href="#DejaVuSans-56"/>
      <use xlink:href="#DejaVuSans-61" x="60.658203"/>
      <use xlink:href="#DejaVuSans-6c" x="121.9375"/>
      <use xlink:href="#DejaVuSans-76" x="149.720703"/>
      <use xlink:href="#DejaVuSans-65" x="208.900391"/>
     </g>
    </g>
    <g id="patch_111">
     <path d="M 129.248437 261.219937 
L 165.248437 261.219937 
L 165.248437 248.619937 
L 129.248437 248.619937 
z
" style="fill: #d62728"/>
    </g>
    <g id="text_13">
     <!-- Compressor -->
     <g transform="translate(179.648438 261.219937) scale(0.18 -0.18)">
      <defs>
       <path id="DejaVuSans-43" d="M 4122 4306 
L 4122 3641 
Q 3803 3938 3442 4084 
Q 3081 4231 2675 4231 
Q 1875 4231 1450 3742 
Q 1025 3253 1025 2328 
Q 1025 1406 1450 917 
Q 1875 428 2675 428 
Q 3081 428 3442 575 
Q 3803 722 4122 1019 
L 4122 359 
Q 3791 134 3420 21 
Q 3050 -91 2638 -91 
Q 1578 -91 968 557 
Q 359 1206 359 2328 
Q 359 3453 968 4101 
Q 1578 4750 2638 4750 
Q 3056 4750 3426 4639 
Q 3797 4528 4122 4306 
z
" transform="scale(0.015625)"/>
       <path id="DejaVuSans-6d" d="M 3328 2828 
Q 3544 3216 3844 3400 
Q 4144 3584 4550 3584 
Q 5097 3584 5394 3201 
Q 5691 2819 5691 2113 
L 5691 0 
L 5113 0 
L 5113 2094 
Q 5113 2597 4934 2840 
Q 4756 3084 4391 3084 
Q 3944 3084 3684 2787 
Q 3425 2491 3425 1978 
L 3425 0 
L 2847 0 
L 2847 2094 
Q 2847 2600 2669 2842 
Q 2491 3084 2119 3084 
Q 1678 3084 1418 2786 
Q 1159 2488 1159 1978 
L 1159 0 
L 581 0 
L 581 3500 
L 1159 3500 
L 1159 2956 
Q 1356 3278 1631 3431 
Q 1906 3584 2284 3584 
Q 2666 3584 2933 3390 
Q 3200 3197 3328 2828 
z
" transform="scale(0.015625)"/>
      </defs>
      <use xlink:href="#DejaVuSans-43"/>
      <use xlink:href="#DejaVuSans-6f" x="69.824219"/>
      <use xlink:href="#DejaVuSans-6d" x="131.005859"/>
      <use xlink:href="#DejaVuSans-70" x="228.417969"/>
      <use xlink:href="#DejaVuSans-72" x="291.894531"/>
      <use xlink:href="#DejaVuSans-65" x="330.757812"/>
      <use xlink:href="#DejaVuSans-73" x="392.28125"/>
      <use xlink:href="#DejaVuSans-73" x="444.380859"/>
      <use xlink:href="#DejaVuSans-6f" x="496.480469"/>
      <use xlink:href="#DejaVuSans-72" x="557.662109"/>
     </g>
    </g>
    <g id="patch_112">
     <path d="M 129.248437 287.640562 
L 165.248437 287.640562 
L 165.248437 275.040562 
L 129.248437 275.040562 
z
" style="fill: #9467bd"/>
    </g>
    <g id="text_14">
     <!-- Internal Heat Exchanger -->
     <g transform="translate(179.648438 287.640562) scale(0.18 -0.18)">
      <defs>
       <path id="DejaVuSans-49" d="M 628 4666 
L 1259 4666 
L 1259 0 
L 628 0 
L 628 4666 
z
" transform="scale(0.015625)"/>
       <path id="DejaVuSans-48" d="M 628 4666 
L 1259 4666 
L 1259 2753 
L 3553 2753 
L 3553 4666 
L 4184 4666 
L 4184 0 
L 3553 0 
L 3553 2222 
L 1259 2222 
L 1259 0 
L 628 0 
L 628 4666 
z
" transform="scale(0.015625)"/>
      </defs>
      <use xlink:href="#DejaVuSans-49"/>
      <use xlink:href="#DejaVuSans-6e" x="29.492188"/>
      <use xlink:href="#DejaVuSans-74" x="92.871094"/>
      <use xlink:href="#DejaVuSans-65" x="132.080078"/>
      <use xlink:href="#DejaVuSans-72" x="193.603516"/>
      <use xlink:href="#DejaVuSans-6e" x="232.966797"/>
      <use xlink:href="#DejaVuSans-61" x="296.345703"/>
      <use xlink:href="#DejaVuSans-6c" x="357.625"/>
      <use xlink:href="#DejaVuSans-20" x="385.408203"/>
      <use xlink:href="#DejaVuSans-48" x="417.195312"/>
      <use xlink:href="#DejaVuSans-65" x="492.390625"/>
      <use xlink:href="#DejaVuSans-61" x="553.914062"/>
      <use xlink:href="#DejaVuSans-74" x="615.193359"/>
      <use xlink:href="#DejaVuSans-20" x="654.402344"/>
      <use xlink:href="#DejaVuSans-45" x="686.189453"/>
      <use xlink:href="#DejaVuSans-78" x="749.373047"/>
      <use xlink:href="#DejaVuSans-63" x="806.802734"/>
      <use xlink:href="#DejaVuSans-68" x="861.783203"/>
      <use xlink:href="#DejaVuSans-61" x="925.162109"/>
      <use xlink:href="#DejaVuSans-6e" x="986.441406"/>
      <use xlink:href="#DejaVuSans-67" x="1049.820312"/>
      <use xlink:href="#DejaVuSans-65" x="1113.296875"/>
      <use xlink:href="#DejaVuSans-72" x="1174.820312"/>
     </g>
    </g>
   </g>
  </g>
 </g>
 <defs>
  <clipPath id="p7c10953ba6">
   <rect x="57.6" y="41.472" width="357.12" height="266.112"/>
  </clipPath>
 </defs>
</svg>
