<?xml version="1.0" encoding="utf-8" standalone="no"?>
<!DOCTYPE svg PUBLIC "-//W3C//DTD SVG 1.1//EN"
  "http://www.w3.org/Graphics/SVG/1.1/DTD/svg11.dtd">
<svg xmlns:xlink="http://www.w3.org/1999/xlink" width="1105.92pt" height="577.728pt" viewBox="0 0 1105.92 577.728" xmlns="http://www.w3.org/2000/svg" version="1.1">
 <metadata>
  <rdf:RDF xmlns:dc="http://purl.org/dc/elements/1.1/" xmlns:cc="http://creativecommons.org/ns#" xmlns:rdf="http://www.w3.org/1999/02/22-rdf-syntax-ns#">
   <cc:Work>
    <dc:type rdf:resource="http://purl.org/dc/dcmitype/StillImage"/>
    <dc:date>2023-02-27T13:31:03.080192</dc:date>
    <dc:format>image/svg+xml</dc:format>
    <dc:creator>
     <cc:Agent>
      <dc:title>Matplotlib v3.6.1, https://matplotlib.org/</dc:title>
     </cc:Agent>
    </dc:creator>
   </cc:Work>
  </rdf:RDF>
 </metadata>
 <defs>
  <style type="text/css">*{stroke-linejoin: round; stroke-linecap: butt}</style>
 </defs>
 <g id="figure_1">
  <g id="patch_1">
   <path d="M 0 577.728 
L 1105.92 577.728 
L 1105.92 0 
L 0 0 
z
" style="fill: #ffffff"/>
  </g>
  <g id="axes_1">
   <g id="patch_2">
    <path d="M 138.24 514.17792 
L 995.328 514.17792 
L 995.328 69.32736 
L 138.24 69.32736 
z
" style="fill: #ffffff"/>
   </g>
   <g id="patch_3">
    <path d="M 177.198545 514.17792 
L 181.277974 514.17792 
L 181.277974 485.996458 
L 177.198545 485.996458 
z
" clip-path="url(#p4124f80f94)" style="fill: #1f77b4"/>
   </g>
   <g id="patch_4">
    <path d="M 197.072686 514.17792 
L 201.152115 514.17792 
L 201.152115 481.909301 
L 197.072686 481.909301 
z
" clip-path="url(#p4124f80f94)" style="fill: #1f77b4"/>
   </g>
   <g id="patch_5">
    <path d="M 216.946826 514.17792 
L 221.026255 514.17792 
L 221.026255 478.031204 
L 216.946826 478.031204 
z
" clip-path="url(#p4124f80f94)" style="fill: #1f77b4"/>
   </g>
   <g id="patch_6">
    <path d="M 236.820967 514.17792 
L 240.900396 514.17792 
L 240.900396 474.350455 
L 236.820967 474.350455 
z
" clip-path="url(#p4124f80f94)" style="fill: #1f77b4"/>
   </g>
   <g id="patch_7">
    <path d="M 256.695108 514.17792 
L 260.774536 514.17792 
L 260.774536 470.856237 
L 256.695108 470.856237 
z
" clip-path="url(#p4124f80f94)" style="fill: #1f77b4"/>
   </g>
   <g id="patch_8">
    <path d="M 276.569248 514.17792 
L 280.648677 514.17792 
L 280.648677 467.538538 
L 276.569248 467.538538 
z
" clip-path="url(#p4124f80f94)" style="fill: #1f77b4"/>
   </g>
   <g id="patch_9">
    <path d="M 296.443389 514.17792 
L 300.522817 514.17792 
L 300.522817 464.388078 
L 296.443389 464.388078 
z
" clip-path="url(#p4124f80f94)" style="fill: #1f77b4"/>
   </g>
   <g id="patch_10">
    <path d="M 316.317529 514.17792 
L 320.396958 514.17792 
L 320.396958 461.396238 
L 316.317529 461.396238 
z
" clip-path="url(#p4124f80f94)" style="fill: #1f77b4"/>
   </g>
   <g id="patch_11">
    <path d="M 336.19167 514.17792 
L 340.271098 514.17792 
L 340.271098 458.554999 
L 336.19167 458.554999 
z
" clip-path="url(#p4124f80f94)" style="fill: #1f77b4"/>
   </g>
   <g id="patch_12">
    <path d="M 356.06581 514.17792 
L 360.145239 514.17792 
L 360.145239 455.856886 
L 356.06581 455.856886 
z
" clip-path="url(#p4124f80f94)" style="fill: #1f77b4"/>
   </g>
   <g id="patch_13">
    <path d="M 375.939951 514.17792 
L 380.019379 514.17792 
L 380.019379 453.29493 
L 375.939951 453.29493 
z
" clip-path="url(#p4124f80f94)" style="fill: #1f77b4"/>
   </g>
   <g id="patch_14">
    <path d="M 395.814091 514.17792 
L 399.89352 514.17792 
L 399.89352 450.862591 
L 395.814091 450.862591 
z
" clip-path="url(#p4124f80f94)" style="fill: #1f77b4"/>
   </g>
   <g id="patch_15">
    <path d="M 415.688232 514.17792 
L 419.767661 514.17792 
L 419.767661 448.553765 
L 415.688232 448.553765 
z
" clip-path="url(#p4124f80f94)" style="fill: #1f77b4"/>
   </g>
   <g id="patch_16">
    <path d="M 435.562372 514.17792 
L 439.641801 514.17792 
L 439.641801 446.362724 
L 435.562372 446.362724 
z
" clip-path="url(#p4124f80f94)" style="fill: #1f77b4"/>
   </g>
   <g id="patch_17">
    <path d="M 455.436513 514.17792 
L 459.515942 514.17792 
L 459.515942 444.284084 
L 455.436513 444.284084 
z
" clip-path="url(#p4124f80f94)" style="fill: #1f77b4"/>
   </g>
   <g id="patch_18">
    <path d="M 475.310653 514.17792 
L 479.390082 514.17792 
L 479.390082 442.312779 
L 475.310653 442.312779 
z
" clip-path="url(#p4124f80f94)" style="fill: #1f77b4"/>
   </g>
   <g id="patch_19">
    <path d="M 495.184794 514.17792 
L 499.264223 514.17792 
L 499.264223 440.444038 
L 495.184794 440.444038 
z
" clip-path="url(#p4124f80f94)" style="fill: #1f77b4"/>
   </g>
   <g id="patch_20">
    <path d="M 515.058934 514.17792 
L 519.138363 514.17792 
L 519.138363 438.67336 
L 515.058934 438.67336 
z
" clip-path="url(#p4124f80f94)" style="fill: #1f77b4"/>
   </g>
   <g id="patch_21">
    <path d="M 534.933075 514.17792 
L 539.012504 514.17792 
L 539.012504 436.99649 
L 534.933075 436.99649 
z
" clip-path="url(#p4124f80f94)" style="fill: #1f77b4"/>
   </g>
   <g id="patch_22">
    <path d="M 554.807215 514.17792 
L 558.886644 514.17792 
L 558.886644 435.409405 
L 554.807215 435.409405 
z
" clip-path="url(#p4124f80f94)" style="fill: #1f77b4"/>
   </g>
   <g id="patch_23">
    <path d="M 574.681356 514.17792 
L 578.760785 514.17792 
L 578.760785 433.908298 
L 574.681356 433.908298 
z
" clip-path="url(#p4124f80f94)" style="fill: #1f77b4"/>
   </g>
   <g id="patch_24">
    <path d="M 594.555496 514.17792 
L 598.634925 514.17792 
L 598.634925 432.489545 
L 594.555496 432.489545 
z
" clip-path="url(#p4124f80f94)" style="fill: #1f77b4"/>
   </g>
   <g id="patch_25">
    <path d="M 614.429637 514.17792 
L 618.509066 514.17792 
L 618.509066 431.149715 
L 614.429637 431.149715 
z
" clip-path="url(#p4124f80f94)" style="fill: #1f77b4"/>
   </g>
   <g id="patch_26">
    <path d="M 634.303777 514.17792 
L 638.383206 514.17792 
L 638.383206 429.885538 
L 634.303777 429.885538 
z
" clip-path="url(#p4124f80f94)" style="fill: #1f77b4"/>
   </g>
   <g id="patch_27">
    <path d="M 654.177918 514.17792 
L 658.257347 514.17792 
L 658.257347 428.693911 
L 654.177918 428.693911 
z
" clip-path="url(#p4124f80f94)" style="fill: #1f77b4"/>
   </g>
   <g id="patch_28">
    <path d="M 674.052058 514.17792 
L 678.131487 514.17792 
L 678.131487 427.571843 
L 674.052058 427.571843 
z
" clip-path="url(#p4124f80f94)" style="fill: #1f77b4"/>
   </g>
   <g id="patch_29">
    <path d="M 693.926199 514.17792 
L 698.005628 514.17792 
L 698.005628 426.516523 
L 693.926199 426.516523 
z
" clip-path="url(#p4124f80f94)" style="fill: #1f77b4"/>
   </g>
   <g id="patch_30">
    <path d="M 713.800339 514.17792 
L 717.879768 514.17792 
L 717.879768 425.525224 
L 713.800339 425.525224 
z
" clip-path="url(#p4124f80f94)" style="fill: #1f77b4"/>
   </g>
   <g id="patch_31">
    <path d="M 733.67448 514.17792 
L 737.753909 514.17792 
L 737.753909 424.595366 
L 733.67448 424.595366 
z
" clip-path="url(#p4124f80f94)" style="fill: #1f77b4"/>
   </g>
   <g id="patch_32">
    <path d="M 753.548621 514.17792 
L 757.628049 514.17792 
L 757.628049 423.72446 
L 753.548621 423.72446 
z
" clip-path="url(#p4124f80f94)" style="fill: #1f77b4"/>
   </g>
   <g id="patch_33">
    <path d="M 773.422761 514.17792 
L 777.50219 514.17792 
L 777.50219 422.910121 
L 773.422761 422.910121 
z
" clip-path="url(#p4124f80f94)" style="fill: #1f77b4"/>
   </g>
   <g id="patch_34">
    <path d="M 793.296902 514.17792 
L 797.37633 514.17792 
L 797.37633 422.150059 
L 793.296902 422.150059 
z
" clip-path="url(#p4124f80f94)" style="fill: #1f77b4"/>
   </g>
   <g id="patch_35">
    <path d="M 813.171042 514.17792 
L 817.250471 514.17792 
L 817.250471 421.442074 
L 813.171042 421.442074 
z
" clip-path="url(#p4124f80f94)" style="fill: #1f77b4"/>
   </g>
   <g id="patch_36">
    <path d="M 833.045183 514.17792 
L 837.124611 514.17792 
L 837.124611 420.784045 
L 833.045183 420.784045 
z
" clip-path="url(#p4124f80f94)" style="fill: #1f77b4"/>
   </g>
   <g id="patch_37">
    <path d="M 852.919323 514.17792 
L 856.998752 514.17792 
L 856.998752 420.173932 
L 852.919323 420.173932 
z
" clip-path="url(#p4124f80f94)" style="fill: #1f77b4"/>
   </g>
   <g id="patch_38">
    <path d="M 872.793464 514.17792 
L 876.872892 514.17792 
L 876.872892 419.609766 
L 872.793464 419.609766 
z
" clip-path="url(#p4124f80f94)" style="fill: #1f77b4"/>
   </g>
   <g id="patch_39">
    <path d="M 892.667604 514.17792 
L 896.747033 514.17792 
L 896.747033 419.089646 
L 892.667604 419.089646 
z
" clip-path="url(#p4124f80f94)" style="fill: #1f77b4"/>
   </g>
   <g id="patch_40">
    <path d="M 912.541745 514.17792 
L 916.621174 514.17792 
L 916.621174 418.611737 
L 912.541745 418.611737 
z
" clip-path="url(#p4124f80f94)" style="fill: #1f77b4"/>
   </g>
   <g id="patch_41">
    <path d="M 932.415885 514.17792 
L 936.495314 514.17792 
L 936.495314 418.174265 
L 932.415885 418.174265 
z
" clip-path="url(#p4124f80f94)" style="fill: #1f77b4"/>
   </g>
   <g id="patch_42">
    <path d="M 952.290026 514.17792 
L 956.369455 514.17792 
L 956.369455 417.775513 
L 952.290026 417.775513 
z
" clip-path="url(#p4124f80f94)" style="fill: #1f77b4"/>
   </g>
   <g id="patch_43">
    <path d="M 177.198545 485.996458 
L 181.277974 485.996458 
L 181.277974 459.250176 
L 177.198545 459.250176 
z
" clip-path="url(#p4124f80f94)" style="fill: #ff7f0e"/>
   </g>
   <g id="patch_44">
    <path d="M 197.072686 481.909301 
L 201.152115 481.909301 
L 201.152115 455.259827 
L 197.072686 455.259827 
z
" clip-path="url(#p4124f80f94)" style="fill: #ff7f0e"/>
   </g>
   <g id="patch_45">
    <path d="M 216.946826 478.031204 
L 221.026255 478.031204 
L 221.026255 451.475032 
L 216.946826 451.475032 
z
" clip-path="url(#p4124f80f94)" style="fill: #ff7f0e"/>
   </g>
   <g id="patch_46">
    <path d="M 236.820967 474.350455 
L 240.900396 474.350455 
L 240.900396 447.884268 
L 236.820967 447.884268 
z
" clip-path="url(#p4124f80f94)" style="fill: #ff7f0e"/>
   </g>
   <g id="patch_47">
    <path d="M 256.695108 470.856237 
L 260.774536 470.856237 
L 260.774536 444.476897 
L 256.695108 444.476897 
z
" clip-path="url(#p4124f80f94)" style="fill: #ff7f0e"/>
   </g>
   <g id="patch_48">
    <path d="M 276.569248 467.538538 
L 280.648677 467.538538 
L 280.648677 441.243072 
L 276.569248 441.243072 
z
" clip-path="url(#p4124f80f94)" style="fill: #ff7f0e"/>
   </g>
   <g id="patch_49">
    <path d="M 296.443389 464.388078 
L 300.522817 464.388078 
L 300.522817 438.173665 
L 296.443389 438.173665 
z
" clip-path="url(#p4124f80f94)" style="fill: #ff7f0e"/>
   </g>
   <g id="patch_50">
    <path d="M 316.317529 461.396238 
L 320.396958 461.396238 
L 320.396958 435.2602 
L 316.317529 435.2602 
z
" clip-path="url(#p4124f80f94)" style="fill: #ff7f0e"/>
   </g>
   <g id="patch_51">
    <path d="M 336.19167 458.554999 
L 340.271098 458.554999 
L 340.271098 432.494788 
L 336.19167 432.494788 
z
" clip-path="url(#p4124f80f94)" style="fill: #ff7f0e"/>
   </g>
   <g id="patch_52">
    <path d="M 356.06581 455.856886 
L 360.145239 455.856886 
L 360.145239 429.87008 
L 356.06581 429.87008 
z
" clip-path="url(#p4124f80f94)" style="fill: #ff7f0e"/>
   </g>
   <g id="patch_53">
    <path d="M 375.939951 453.29493 
L 380.019379 453.29493 
L 380.019379 427.379219 
L 375.939951 427.379219 
z
" clip-path="url(#p4124f80f94)" style="fill: #ff7f0e"/>
   </g>
   <g id="patch_54">
    <path d="M 395.814091 450.862591 
L 399.89352 450.862591 
L 399.89352 425.015775 
L 395.814091 425.015775 
z
" clip-path="url(#p4124f80f94)" style="fill: #ff7f0e"/>
   </g>
   <g id="patch_55">
    <path d="M 415.688232 448.553765 
L 419.767661 448.553765 
L 419.767661 422.773744 
L 415.688232 422.773744 
z
" clip-path="url(#p4124f80f94)" style="fill: #ff7f0e"/>
   </g>
   <g id="patch_56">
    <path d="M 435.562372 446.362724 
L 439.641801 446.362724 
L 439.641801 420.647494 
L 435.562372 420.647494 
z
" clip-path="url(#p4124f80f94)" style="fill: #ff7f0e"/>
   </g>
   <g id="patch_57">
    <path d="M 455.436513 444.284084 
L 459.515942 444.284084 
L 459.515942 418.631727 
L 455.436513 418.631727 
z
" clip-path="url(#p4124f80f94)" style="fill: #ff7f0e"/>
   </g>
   <g id="patch_58">
    <path d="M 475.310653 442.312779 
L 479.390082 442.312779 
L 479.390082 416.721462 
L 475.310653 416.721462 
z
" clip-path="url(#p4124f80f94)" style="fill: #ff7f0e"/>
   </g>
   <g id="patch_59">
    <path d="M 495.184794 440.444038 
L 499.264223 440.444038 
L 499.264223 414.912006 
L 495.184794 414.912006 
z
" clip-path="url(#p4124f80f94)" style="fill: #ff7f0e"/>
   </g>
   <g id="patch_60">
    <path d="M 515.058934 438.67336 
L 519.138363 438.67336 
L 519.138363 413.198934 
L 515.058934 413.198934 
z
" clip-path="url(#p4124f80f94)" style="fill: #ff7f0e"/>
   </g>
   <g id="patch_61">
    <path d="M 534.933075 436.99649 
L 539.012504 436.99649 
L 539.012504 411.578058 
L 534.933075 411.578058 
z
" clip-path="url(#p4124f80f94)" style="fill: #ff7f0e"/>
   </g>
   <g id="patch_62">
    <path d="M 554.807215 435.409405 
L 558.886644 435.409405 
L 558.886644 410.045423 
L 554.807215 410.045423 
z
" clip-path="url(#p4124f80f94)" style="fill: #ff7f0e"/>
   </g>
   <g id="patch_63">
    <path d="M 574.681356 433.908298 
L 578.760785 433.908298 
L 578.760785 408.597285 
L 574.681356 408.597285 
z
" clip-path="url(#p4124f80f94)" style="fill: #ff7f0e"/>
   </g>
   <g id="patch_64">
    <path d="M 594.555496 432.489545 
L 598.634925 432.489545 
L 598.634925 407.230077 
L 594.555496 407.230077 
z
" clip-path="url(#p4124f80f94)" style="fill: #ff7f0e"/>
   </g>
   <g id="patch_65">
    <path d="M 614.429637 431.149715 
L 618.509066 431.149715 
L 618.509066 405.940426 
L 614.429637 405.940426 
z
" clip-path="url(#p4124f80f94)" style="fill: #ff7f0e"/>
   </g>
   <g id="patch_66">
    <path d="M 634.303777 429.885538 
L 638.383206 429.885538 
L 638.383206 404.725112 
L 634.303777 404.725112 
z
" clip-path="url(#p4124f80f94)" style="fill: #ff7f0e"/>
   </g>
   <g id="patch_67">
    <path d="M 654.177918 428.693911 
L 658.257347 428.693911 
L 658.257347 403.581087 
L 654.177918 403.581087 
z
" clip-path="url(#p4124f80f94)" style="fill: #ff7f0e"/>
   </g>
   <g id="patch_68">
    <path d="M 674.052058 427.571843 
L 678.131487 427.571843 
L 678.131487 402.505405 
L 674.052058 402.505405 
z
" clip-path="url(#p4124f80f94)" style="fill: #ff7f0e"/>
   </g>
   <g id="patch_69">
    <path d="M 693.926199 426.516523 
L 698.005628 426.516523 
L 698.005628 401.4953 
L 693.926199 401.4953 
z
" clip-path="url(#p4124f80f94)" style="fill: #ff7f0e"/>
   </g>
   <g id="patch_70">
    <path d="M 713.800339 425.525224 
L 717.879768 425.525224 
L 717.879768 400.548092 
L 713.800339 400.548092 
z
" clip-path="url(#p4124f80f94)" style="fill: #ff7f0e"/>
   </g>
   <g id="patch_71">
    <path d="M 733.67448 424.595366 
L 737.753909 424.595366 
L 737.753909 399.661239 
L 733.67448 399.661239 
z
" clip-path="url(#p4124f80f94)" style="fill: #ff7f0e"/>
   </g>
   <g id="patch_72">
    <path d="M 753.548621 423.72446 
L 757.628049 423.72446 
L 757.628049 398.832292 
L 753.548621 398.832292 
z
" clip-path="url(#p4124f80f94)" style="fill: #ff7f0e"/>
   </g>
   <g id="patch_73">
    <path d="M 773.422761 422.910121 
L 777.50219 422.910121 
L 777.50219 398.058906 
L 773.422761 398.058906 
z
" clip-path="url(#p4124f80f94)" style="fill: #ff7f0e"/>
   </g>
   <g id="patch_74">
    <path d="M 793.296902 422.150059 
L 797.37633 422.150059 
L 797.37633 397.338825 
L 793.296902 397.338825 
z
" clip-path="url(#p4124f80f94)" style="fill: #ff7f0e"/>
   </g>
   <g id="patch_75">
    <path d="M 813.171042 421.442074 
L 817.250471 421.442074 
L 817.250471 396.669883 
L 813.171042 396.669883 
z
" clip-path="url(#p4124f80f94)" style="fill: #ff7f0e"/>
   </g>
   <g id="patch_76">
    <path d="M 833.045183 420.784045 
L 837.124611 420.784045 
L 837.124611 396.049995 
L 833.045183 396.049995 
z
" clip-path="url(#p4124f80f94)" style="fill: #ff7f0e"/>
   </g>
   <g id="patch_77">
    <path d="M 852.919323 420.173932 
L 856.998752 420.173932 
L 856.998752 395.47715 
L 852.919323 395.47715 
z
" clip-path="url(#p4124f80f94)" style="fill: #ff7f0e"/>
   </g>
   <g id="patch_78">
    <path d="M 872.793464 419.609766 
L 876.872892 419.609766 
L 876.872892 394.94941 
L 872.793464 394.94941 
z
" clip-path="url(#p4124f80f94)" style="fill: #ff7f0e"/>
   </g>
   <g id="patch_79">
    <path d="M 892.667604 419.089646 
L 896.747033 419.089646 
L 896.747033 394.464903 
L 892.667604 394.464903 
z
" clip-path="url(#p4124f80f94)" style="fill: #ff7f0e"/>
   </g>
   <g id="patch_80">
    <path d="M 912.541745 418.611737 
L 916.621174 418.611737 
L 916.621174 394.021823 
L 912.541745 394.021823 
z
" clip-path="url(#p4124f80f94)" style="fill: #ff7f0e"/>
   </g>
   <g id="patch_81">
    <path d="M 932.415885 418.174265 
L 936.495314 418.174265 
L 936.495314 393.618422 
L 932.415885 393.618422 
z
" clip-path="url(#p4124f80f94)" style="fill: #ff7f0e"/>
   </g>
   <g id="patch_82">
    <path d="M 952.290026 417.775513 
L 956.369455 417.775513 
L 956.369455 393.253008 
L 952.290026 393.253008 
z
" clip-path="url(#p4124f80f94)" style="fill: #ff7f0e"/>
   </g>
   <g id="patch_83">
    <path d="M 177.198545 459.250176 
L 181.277974 459.250176 
L 181.277974 401.352282 
L 177.198545 401.352282 
z
" clip-path="url(#p4124f80f94)" style="fill: #2ca02c"/>
   </g>
   <g id="patch_84">
    <path d="M 197.072686 455.259827 
L 201.152115 455.259827 
L 201.152115 396.951689 
L 197.072686 396.951689 
z
" clip-path="url(#p4124f80f94)" style="fill: #2ca02c"/>
   </g>
   <g id="patch_85">
    <path d="M 216.946826 451.475032 
L 221.026255 451.475032 
L 221.026255 392.749143 
L 216.946826 392.749143 
z
" clip-path="url(#p4124f80f94)" style="fill: #2ca02c"/>
   </g>
   <g id="patch_86">
    <path d="M 236.820967 447.884268 
L 240.900396 447.884268 
L 240.900396 388.733595 
L 236.820967 388.733595 
z
" clip-path="url(#p4124f80f94)" style="fill: #2ca02c"/>
   </g>
   <g id="patch_87">
    <path d="M 256.695108 444.476897 
L 260.774536 444.476897 
L 260.774536 384.894838 
L 256.695108 384.894838 
z
" clip-path="url(#p4124f80f94)" style="fill: #2ca02c"/>
   </g>
   <g id="patch_88">
    <path d="M 276.569248 441.243072 
L 280.648677 441.243072 
L 280.648677 381.223423 
L 276.569248 381.223423 
z
" clip-path="url(#p4124f80f94)" style="fill: #2ca02c"/>
   </g>
   <g id="patch_89">
    <path d="M 296.443389 438.173665 
L 300.522817 438.173665 
L 300.522817 377.710584 
L 296.443389 377.710584 
z
" clip-path="url(#p4124f80f94)" style="fill: #2ca02c"/>
   </g>
   <g id="patch_90">
    <path d="M 316.317529 435.2602 
L 320.396958 435.2602 
L 320.396958 374.348179 
L 316.317529 374.348179 
z
" clip-path="url(#p4124f80f94)" style="fill: #2ca02c"/>
   </g>
   <g id="patch_91">
    <path d="M 336.19167 432.494788 
L 340.271098 432.494788 
L 340.271098 371.128628 
L 336.19167 371.128628 
z
" clip-path="url(#p4124f80f94)" style="fill: #2ca02c"/>
   </g>
   <g id="patch_92">
    <path d="M 356.06581 429.87008 
L 360.145239 429.87008 
L 360.145239 368.044864 
L 356.06581 368.044864 
z
" clip-path="url(#p4124f80f94)" style="fill: #2ca02c"/>
   </g>
   <g id="patch_93">
    <path d="M 375.939951 427.379219 
L 380.019379 427.379219 
L 380.019379 365.090294 
L 375.939951 365.090294 
z
" clip-path="url(#p4124f80f94)" style="fill: #2ca02c"/>
   </g>
   <g id="patch_94">
    <path d="M 395.814091 425.015775 
L 399.89352 425.015775 
L 399.89352 362.258731 
L 395.814091 362.258731 
z
" clip-path="url(#p4124f80f94)" style="fill: #2ca02c"/>
   </g>
   <g id="patch_95">
    <path d="M 415.688232 422.773744 
L 419.767661 422.773744 
L 419.767661 359.544399 
L 415.688232 359.544399 
z
" clip-path="url(#p4124f80f94)" style="fill: #2ca02c"/>
   </g>
   <g id="patch_96">
    <path d="M 435.562372 420.647494 
L 439.641801 420.647494 
L 439.641801 356.941869 
L 435.562372 356.941869 
z
" clip-path="url(#p4124f80f94)" style="fill: #2ca02c"/>
   </g>
   <g id="patch_97">
    <path d="M 455.436513 418.631727 
L 459.515942 418.631727 
L 459.515942 354.446043 
L 455.436513 354.446043 
z
" clip-path="url(#p4124f80f94)" style="fill: #2ca02c"/>
   </g>
   <g id="patch_98">
    <path d="M 475.310653 416.721462 
L 479.390082 416.721462 
L 479.390082 352.05212 
L 475.310653 352.05212 
z
" clip-path="url(#p4124f80f94)" style="fill: #2ca02c"/>
   </g>
   <g id="patch_99">
    <path d="M 495.184794 414.912006 
L 499.264223 414.912006 
L 499.264223 349.755577 
L 495.184794 349.755577 
z
" clip-path="url(#p4124f80f94)" style="fill: #2ca02c"/>
   </g>
   <g id="patch_100">
    <path d="M 515.058934 413.198934 
L 519.138363 413.198934 
L 519.138363 347.552148 
L 515.058934 347.552148 
z
" clip-path="url(#p4124f80f94)" style="fill: #2ca02c"/>
   </g>
   <g id="patch_101">
    <path d="M 534.933075 411.578058 
L 539.012504 411.578058 
L 539.012504 345.437796 
L 534.933075 345.437796 
z
" clip-path="url(#p4124f80f94)" style="fill: #2ca02c"/>
   </g>
   <g id="patch_102">
    <path d="M 554.807215 410.045423 
L 558.886644 410.045423 
L 558.886644 343.408706 
L 554.807215 343.408706 
z
" clip-path="url(#p4124f80f94)" style="fill: #2ca02c"/>
   </g>
   <g id="patch_103">
    <path d="M 574.681356 408.597285 
L 578.760785 408.597285 
L 578.760785 341.461262 
L 574.681356 341.461262 
z
" clip-path="url(#p4124f80f94)" style="fill: #2ca02c"/>
   </g>
   <g id="patch_104">
    <path d="M 594.555496 407.230077 
L 598.634925 407.230077 
L 598.634925 339.59202 
L 594.555496 339.59202 
z
" clip-path="url(#p4124f80f94)" style="fill: #2ca02c"/>
   </g>
   <g id="patch_105">
    <path d="M 614.429637 405.940426 
L 618.509066 405.940426 
L 618.509066 337.79772 
L 614.429637 337.79772 
z
" clip-path="url(#p4124f80f94)" style="fill: #2ca02c"/>
   </g>
   <g id="patch_106">
    <path d="M 634.303777 404.725112 
L 638.383206 404.725112 
L 638.383206 336.075251 
L 634.303777 336.075251 
z
" clip-path="url(#p4124f80f94)" style="fill: #2ca02c"/>
   </g>
   <g id="patch_107">
    <path d="M 654.177918 403.581087 
L 658.257347 403.581087 
L 658.257347 334.421666 
L 654.177918 334.421666 
z
" clip-path="url(#p4124f80f94)" style="fill: #2ca02c"/>
   </g>
   <g id="patch_108">
    <path d="M 674.052058 402.505405 
L 678.131487 402.505405 
L 678.131487 332.834148 
L 674.052058 332.834148 
z
" clip-path="url(#p4124f80f94)" style="fill: #2ca02c"/>
   </g>
   <g id="patch_109">
    <path d="M 693.926199 401.4953 
L 698.005628 401.4953 
L 698.005628 331.309992 
L 693.926199 331.309992 
z
" clip-path="url(#p4124f80f94)" style="fill: #2ca02c"/>
   </g>
   <g id="patch_110">
    <path d="M 713.800339 400.548092 
L 717.879768 400.548092 
L 717.879768 329.846589 
L 713.800339 329.846589 
z
" clip-path="url(#p4124f80f94)" style="fill: #2ca02c"/>
   </g>
   <g id="patch_111">
    <path d="M 733.67448 399.661239 
L 737.753909 399.661239 
L 737.753909 328.441518 
L 733.67448 328.441518 
z
" clip-path="url(#p4124f80f94)" style="fill: #2ca02c"/>
   </g>
   <g id="patch_112">
    <path d="M 753.548621 398.832292 
L 757.628049 398.832292 
L 757.628049 327.092394 
L 753.548621 327.092394 
z
" clip-path="url(#p4124f80f94)" style="fill: #2ca02c"/>
   </g>
   <g id="patch_113">
    <path d="M 773.422761 398.058906 
L 777.50219 398.058906 
L 777.50219 325.796946 
L 773.422761 325.796946 
z
" clip-path="url(#p4124f80f94)" style="fill: #2ca02c"/>
   </g>
   <g id="patch_114">
    <path d="M 793.296902 397.338825 
L 797.37633 397.338825 
L 797.37633 324.552992 
L 793.296902 324.552992 
z
" clip-path="url(#p4124f80f94)" style="fill: #2ca02c"/>
   </g>
   <g id="patch_115">
    <path d="M 813.171042 396.669883 
L 817.250471 396.669883 
L 817.250471 323.358434 
L 813.171042 323.358434 
z
" clip-path="url(#p4124f80f94)" style="fill: #2ca02c"/>
   </g>
   <g id="patch_116">
    <path d="M 833.045183 396.049995 
L 837.124611 396.049995 
L 837.124611 322.211251 
L 833.045183 322.211251 
z
" clip-path="url(#p4124f80f94)" style="fill: #2ca02c"/>
   </g>
   <g id="patch_117">
    <path d="M 852.919323 395.47715 
L 856.998752 395.47715 
L 856.998752 321.109496 
L 852.919323 321.109496 
z
" clip-path="url(#p4124f80f94)" style="fill: #2ca02c"/>
   </g>
   <g id="patch_118">
    <path d="M 872.793464 394.94941 
L 876.872892 394.94941 
L 876.872892 320.05129 
L 872.793464 320.05129 
z
" clip-path="url(#p4124f80f94)" style="fill: #2ca02c"/>
   </g>
   <g id="patch_119">
    <path d="M 892.667604 394.464903 
L 896.747033 394.464903 
L 896.747033 319.034821 
L 892.667604 319.034821 
z
" clip-path="url(#p4124f80f94)" style="fill: #2ca02c"/>
   </g>
   <g id="patch_120">
    <path d="M 912.541745 394.021823 
L 916.621174 394.021823 
L 916.621174 318.058335 
L 912.541745 318.058335 
z
" clip-path="url(#p4124f80f94)" style="fill: #2ca02c"/>
   </g>
   <g id="patch_121">
    <path d="M 932.415885 393.618422 
L 936.495314 393.618422 
L 936.495314 317.120139 
L 932.415885 317.120139 
z
" clip-path="url(#p4124f80f94)" style="fill: #2ca02c"/>
   </g>
   <g id="patch_122">
    <path d="M 952.290026 393.253008 
L 956.369455 393.253008 
L 956.369455 316.218592 
L 952.290026 316.218592 
z
" clip-path="url(#p4124f80f94)" style="fill: #2ca02c"/>
   </g>
   <g id="patch_123">
    <path d="M 177.198545 401.352282 
L 181.277974 401.352282 
L 181.277974 249.200875 
L 177.198545 249.200875 
z
" clip-path="url(#p4124f80f94)" style="fill: #d62728"/>
   </g>
   <g id="patch_124">
    <path d="M 197.072686 396.951689 
L 201.152115 396.951689 
L 201.152115 243.664485 
L 197.072686 243.664485 
z
" clip-path="url(#p4124f80f94)" style="fill: #d62728"/>
   </g>
   <g id="patch_125">
    <path d="M 216.946826 392.749143 
L 221.026255 392.749143 
L 221.026255 238.378278 
L 216.946826 238.378278 
z
" clip-path="url(#p4124f80f94)" style="fill: #d62728"/>
   </g>
   <g id="patch_126">
    <path d="M 236.820967 388.733595 
L 240.900396 388.733595 
L 240.900396 233.328198 
L 236.820967 233.328198 
z
" clip-path="url(#p4124f80f94)" style="fill: #d62728"/>
   </g>
   <g id="patch_127">
    <path d="M 256.695108 384.894838 
L 260.774536 384.894838 
L 260.774536 228.501267 
L 256.695108 228.501267 
z
" clip-path="url(#p4124f80f94)" style="fill: #d62728"/>
   </g>
   <g id="patch_128">
    <path d="M 276.569248 381.223423 
L 280.648677 381.223423 
L 280.648677 223.885472 
L 276.569248 223.885472 
z
" clip-path="url(#p4124f80f94)" style="fill: #d62728"/>
   </g>
   <g id="patch_129">
    <path d="M 296.443389 377.710584 
L 300.522817 377.710584 
L 300.522817 219.469675 
L 296.443389 219.469675 
z
" clip-path="url(#p4124f80f94)" style="fill: #d62728"/>
   </g>
   <g id="patch_130">
    <path d="M 316.317529 374.348179 
L 320.396958 374.348179 
L 320.396958 215.243542 
L 316.317529 215.243542 
z
" clip-path="url(#p4124f80f94)" style="fill: #d62728"/>
   </g>
   <g id="patch_131">
    <path d="M 336.19167 371.128628 
L 340.271098 371.128628 
L 340.271098 211.197432 
L 336.19167 211.197432 
z
" clip-path="url(#p4124f80f94)" style="fill: #d62728"/>
   </g>
   <g id="patch_132">
    <path d="M 356.06581 368.044864 
L 360.145239 368.044864 
L 360.145239 207.322381 
L 356.06581 207.322381 
z
" clip-path="url(#p4124f80f94)" style="fill: #d62728"/>
   </g>
   <g id="patch_133">
    <path d="M 375.939951 365.090294 
L 380.019379 365.090294 
L 380.019379 203.610019 
L 375.939951 203.610019 
z
" clip-path="url(#p4124f80f94)" style="fill: #d62728"/>
   </g>
   <g id="patch_134">
    <path d="M 395.814091 362.258731 
L 399.89352 362.258731 
L 399.89352 200.05251 
L 395.814091 200.05251 
z
" clip-path="url(#p4124f80f94)" style="fill: #d62728"/>
   </g>
   <g id="patch_135">
    <path d="M 415.688232 359.544399 
L 419.767661 359.544399 
L 419.767661 196.64252 
L 415.688232 196.64252 
z
" clip-path="url(#p4124f80f94)" style="fill: #d62728"/>
   </g>
   <g id="patch_136">
    <path d="M 435.562372 356.941869 
L 439.641801 356.941869 
L 439.641801 193.373172 
L 435.562372 193.373172 
z
" clip-path="url(#p4124f80f94)" style="fill: #d62728"/>
   </g>
   <g id="patch_137">
    <path d="M 455.436513 354.446043 
L 459.515942 354.446043 
L 459.515942 190.237997 
L 455.436513 190.237997 
z
" clip-path="url(#p4124f80f94)" style="fill: #d62728"/>
   </g>
   <g id="patch_138">
    <path d="M 475.310653 352.05212 
L 479.390082 352.05212 
L 479.390082 187.230931 
L 475.310653 187.230931 
z
" clip-path="url(#p4124f80f94)" style="fill: #d62728"/>
   </g>
   <g id="patch_139">
    <path d="M 495.184794 349.755577 
L 499.264223 349.755577 
L 499.264223 184.346233 
L 495.184794 184.346233 
z
" clip-path="url(#p4124f80f94)" style="fill: #d62728"/>
   </g>
   <g id="patch_140">
    <path d="M 515.058934 347.552148 
L 519.138363 347.552148 
L 519.138363 181.578505 
L 515.058934 181.578505 
z
" clip-path="url(#p4124f80f94)" style="fill: #d62728"/>
   </g>
   <g id="patch_141">
    <path d="M 534.933075 345.437796 
L 539.012504 345.437796 
L 539.012504 178.922638 
L 534.933075 178.922638 
z
" clip-path="url(#p4124f80f94)" style="fill: #d62728"/>
   </g>
   <g id="patch_142">
    <path d="M 554.807215 343.408706 
L 558.886644 343.408706 
L 558.886644 176.37381 
L 554.807215 176.37381 
z
" clip-path="url(#p4124f80f94)" style="fill: #d62728"/>
   </g>
   <g id="patch_143">
    <path d="M 574.681356 341.461262 
L 578.760785 341.461262 
L 578.760785 173.927439 
L 574.681356 173.927439 
z
" clip-path="url(#p4124f80f94)" style="fill: #d62728"/>
   </g>
   <g id="patch_144">
    <path d="M 594.555496 339.59202 
L 598.634925 339.59202 
L 598.634925 171.579177 
L 594.555496 171.579177 
z
" clip-path="url(#p4124f80f94)" style="fill: #d62728"/>
   </g>
   <g id="patch_145">
    <path d="M 614.429637 337.79772 
L 618.509066 337.79772 
L 618.509066 169.324915 
L 614.429637 169.324915 
z
" clip-path="url(#p4124f80f94)" style="fill: #d62728"/>
   </g>
   <g id="patch_146">
    <path d="M 634.303777 336.075251 
L 638.383206 336.075251 
L 638.383206 167.160713 
L 634.303777 167.160713 
z
" clip-path="url(#p4124f80f94)" style="fill: #d62728"/>
   </g>
   <g id="patch_147">
    <path d="M 654.177918 334.421666 
L 658.257347 334.421666 
L 658.257347 165.082838 
L 654.177918 165.082838 
z
" clip-path="url(#p4124f80f94)" style="fill: #d62728"/>
   </g>
   <g id="patch_148">
    <path d="M 674.052058 332.834148 
L 678.131487 332.834148 
L 678.131487 163.087742 
L 674.052058 163.087742 
z
" clip-path="url(#p4124f80f94)" style="fill: #d62728"/>
   </g>
   <g id="patch_149">
    <path d="M 693.926199 331.309992 
L 698.005628 331.309992 
L 698.005628 161.172025 
L 693.926199 161.172025 
z
" clip-path="url(#p4124f80f94)" style="fill: #d62728"/>
   </g>
   <g id="patch_150">
    <path d="M 713.800339 329.846589 
L 717.879768 329.846589 
L 717.879768 159.332391 
L 713.800339 159.332391 
z
" clip-path="url(#p4124f80f94)" style="fill: #d62728"/>
   </g>
   <g id="patch_151">
    <path d="M 733.67448 328.441518 
L 737.753909 328.441518 
L 737.753909 157.565778 
L 733.67448 157.565778 
z
" clip-path="url(#p4124f80f94)" style="fill: #d62728"/>
   </g>
   <g id="patch_152">
    <path d="M 753.548621 327.092394 
L 757.628049 327.092394 
L 757.628049 155.869184 
L 753.548621 155.869184 
z
" clip-path="url(#p4124f80f94)" style="fill: #d62728"/>
   </g>
   <g id="patch_153">
    <path d="M 773.422761 325.796946 
L 777.50219 325.796946 
L 777.50219 154.239749 
L 773.422761 154.239749 
z
" clip-path="url(#p4124f80f94)" style="fill: #d62728"/>
   </g>
   <g id="patch_154">
    <path d="M 793.296902 324.552992 
L 797.37633 324.552992 
L 797.37633 152.674723 
L 793.296902 152.674723 
z
" clip-path="url(#p4124f80f94)" style="fill: #d62728"/>
   </g>
   <g id="patch_155">
    <path d="M 813.171042 323.358434 
L 817.250471 323.358434 
L 817.250471 151.171465 
L 813.171042 151.171465 
z
" clip-path="url(#p4124f80f94)" style="fill: #d62728"/>
   </g>
   <g id="patch_156">
    <path d="M 833.045183 322.211251 
L 837.124611 322.211251 
L 837.124611 149.727432 
L 833.045183 149.727432 
z
" clip-path="url(#p4124f80f94)" style="fill: #d62728"/>
   </g>
   <g id="patch_157">
    <path d="M 852.919323 321.109496 
L 856.998752 321.109496 
L 856.998752 148.340174 
L 852.919323 148.340174 
z
" clip-path="url(#p4124f80f94)" style="fill: #d62728"/>
   </g>
   <g id="patch_158">
    <path d="M 872.793464 320.05129 
L 876.872892 320.05129 
L 876.872892 147.00733 
L 872.793464 147.00733 
z
" clip-path="url(#p4124f80f94)" style="fill: #d62728"/>
   </g>
   <g id="patch_159">
    <path d="M 892.667604 319.034821 
L 896.747033 319.034821 
L 896.747033 145.726619 
L 892.667604 145.726619 
z
" clip-path="url(#p4124f80f94)" style="fill: #d62728"/>
   </g>
   <g id="patch_160">
    <path d="M 912.541745 318.058335 
L 916.621174 318.058335 
L 916.621174 144.495841 
L 912.541745 144.495841 
z
" clip-path="url(#p4124f80f94)" style="fill: #d62728"/>
   </g>
   <g id="patch_161">
    <path d="M 932.415885 317.120139 
L 936.495314 317.120139 
L 936.495314 143.312867 
L 932.415885 143.312867 
z
" clip-path="url(#p4124f80f94)" style="fill: #d62728"/>
   </g>
   <g id="patch_162">
    <path d="M 952.290026 316.218592 
L 956.369455 316.218592 
L 956.369455 142.175641 
L 952.290026 142.175641 
z
" clip-path="url(#p4124f80f94)" style="fill: #d62728"/>
   </g>
   <g id="patch_163">
    <path d="M 177.198545 249.200875 
L 181.277974 249.200875 
L 181.277974 187.807042 
L 177.198545 187.807042 
z
" clip-path="url(#p4124f80f94)" style="fill: #9467bd"/>
   </g>
   <g id="patch_164">
    <path d="M 197.072686 243.664485 
L 201.152115 243.664485 
L 201.152115 182.686064 
L 197.072686 182.686064 
z
" clip-path="url(#p4124f80f94)" style="fill: #9467bd"/>
   </g>
   <g id="patch_165">
    <path d="M 216.946826 238.378278 
L 221.026255 238.378278 
L 221.026255 177.800405 
L 216.946826 177.800405 
z
" clip-path="url(#p4124f80f94)" style="fill: #9467bd"/>
   </g>
   <g id="patch_166">
    <path d="M 236.820967 233.328198 
L 240.900396 233.328198 
L 240.900396 173.136862 
L 236.820967 173.136862 
z
" clip-path="url(#p4124f80f94)" style="fill: #9467bd"/>
   </g>
   <g id="patch_167">
    <path d="M 256.695108 228.501267 
L 260.774536 228.501267 
L 260.774536 168.683242 
L 256.695108 168.683242 
z
" clip-path="url(#p4124f80f94)" style="fill: #9467bd"/>
   </g>
   <g id="patch_168">
    <path d="M 276.569248 223.885472 
L 280.648677 223.885472 
L 280.648677 164.428258 
L 276.569248 164.428258 
z
" clip-path="url(#p4124f80f94)" style="fill: #9467bd"/>
   </g>
   <g id="patch_169">
    <path d="M 296.443389 219.469675 
L 300.522817 219.469675 
L 300.522817 160.361441 
L 296.443389 160.361441 
z
" clip-path="url(#p4124f80f94)" style="fill: #9467bd"/>
   </g>
   <g id="patch_170">
    <path d="M 316.317529 215.243542 
L 320.396958 215.243542 
L 320.396958 156.473075 
L 316.317529 156.473075 
z
" clip-path="url(#p4124f80f94)" style="fill: #9467bd"/>
   </g>
   <g id="patch_171">
    <path d="M 336.19167 211.197432 
L 340.271098 211.197432 
L 340.271098 152.754094 
L 336.19167 152.754094 
z
" clip-path="url(#p4124f80f94)" style="fill: #9467bd"/>
   </g>
   <g id="patch_172">
    <path d="M 356.06581 207.322381 
L 360.145239 207.322381 
L 360.145239 149.196068 
L 356.06581 149.196068 
z
" clip-path="url(#p4124f80f94)" style="fill: #9467bd"/>
   </g>
   <g id="patch_173">
    <path d="M 375.939951 203.610019 
L 380.019379 203.610019 
L 380.019379 145.791123 
L 375.939951 145.791123 
z
" clip-path="url(#p4124f80f94)" style="fill: #9467bd"/>
   </g>
   <g id="patch_174">
    <path d="M 395.814091 200.05251 
L 399.89352 200.05251 
L 399.89352 142.531886 
L 395.814091 142.531886 
z
" clip-path="url(#p4124f80f94)" style="fill: #9467bd"/>
   </g>
   <g id="patch_175">
    <path d="M 415.688232 196.64252 
L 419.767661 196.64252 
L 419.767661 139.411453 
L 415.688232 139.411453 
z
" clip-path="url(#p4124f80f94)" style="fill: #9467bd"/>
   </g>
   <g id="patch_176">
    <path d="M 435.562372 193.373172 
L 439.641801 193.373172 
L 439.641801 136.423354 
L 435.562372 136.423354 
z
" clip-path="url(#p4124f80f94)" style="fill: #9467bd"/>
   </g>
   <g id="patch_177">
    <path d="M 455.436513 190.237997 
L 459.515942 190.237997 
L 459.515942 133.561496 
L 455.436513 133.561496 
z
" clip-path="url(#p4124f80f94)" style="fill: #9467bd"/>
   </g>
   <g id="patch_178">
    <path d="M 475.310653 187.230931 
L 479.390082 187.230931 
L 479.390082 130.820168 
L 475.310653 130.820168 
z
" clip-path="url(#p4124f80f94)" style="fill: #9467bd"/>
   </g>
   <g id="patch_179">
    <path d="M 495.184794 184.346233 
L 499.264223 184.346233 
L 499.264223 128.193964 
L 495.184794 128.193964 
z
" clip-path="url(#p4124f80f94)" style="fill: #9467bd"/>
   </g>
   <g id="patch_180">
    <path d="M 515.058934 181.578505 
L 519.138363 181.578505 
L 519.138363 125.677794 
L 515.058934 125.677794 
z
" clip-path="url(#p4124f80f94)" style="fill: #9467bd"/>
   </g>
   <g id="patch_181">
    <path d="M 534.933075 178.922638 
L 539.012504 178.922638 
L 539.012504 123.266849 
L 534.933075 123.266849 
z
" clip-path="url(#p4124f80f94)" style="fill: #9467bd"/>
   </g>
   <g id="patch_182">
    <path d="M 554.807215 176.37381 
L 558.886644 176.37381 
L 558.886644 120.956573 
L 554.807215 120.956573 
z
" clip-path="url(#p4124f80f94)" style="fill: #9467bd"/>
   </g>
   <g id="patch_183">
    <path d="M 574.681356 173.927439 
L 578.760785 173.927439 
L 578.760785 118.742653 
L 574.681356 118.742653 
z
" clip-path="url(#p4124f80f94)" style="fill: #9467bd"/>
   </g>
   <g id="patch_184">
    <path d="M 594.555496 171.579177 
L 598.634925 171.579177 
L 598.634925 116.62099 
L 594.555496 116.62099 
z
" clip-path="url(#p4124f80f94)" style="fill: #9467bd"/>
   </g>
   <g id="patch_185">
    <path d="M 614.429637 169.324915 
L 618.509066 169.324915 
L 618.509066 114.587703 
L 614.429637 114.587703 
z
" clip-path="url(#p4124f80f94)" style="fill: #9467bd"/>
   </g>
   <g id="patch_186">
    <path d="M 634.303777 167.160713 
L 638.383206 167.160713 
L 638.383206 112.63908 
L 634.303777 112.63908 
z
" clip-path="url(#p4124f80f94)" style="fill: #9467bd"/>
   </g>
   <g id="patch_187">
    <path d="M 654.177918 165.082838 
L 658.257347 165.082838 
L 658.257347 110.771589 
L 654.177918 110.771589 
z
" clip-path="url(#p4124f80f94)" style="fill: #9467bd"/>
   </g>
   <g id="patch_188">
    <path d="M 674.052058 163.087742 
L 678.131487 163.087742 
L 678.131487 108.981866 
L 674.052058 108.981866 
z
" clip-path="url(#p4124f80f94)" style="fill: #9467bd"/>
   </g>
   <g id="patch_189">
    <path d="M 693.926199 161.172025 
L 698.005628 161.172025 
L 698.005628 107.266705 
L 693.926199 107.266705 
z
" clip-path="url(#p4124f80f94)" style="fill: #9467bd"/>
   </g>
   <g id="patch_190">
    <path d="M 713.800339 159.332391 
L 717.879768 159.332391 
L 717.879768 105.623036 
L 713.800339 105.623036 
z
" clip-path="url(#p4124f80f94)" style="fill: #9467bd"/>
   </g>
   <g id="patch_191">
    <path d="M 733.67448 157.565778 
L 737.753909 157.565778 
L 737.753909 104.047903 
L 733.67448 104.047903 
z
" clip-path="url(#p4124f80f94)" style="fill: #9467bd"/>
   </g>
   <g id="patch_192">
    <path d="M 753.548621 155.869184 
L 757.628049 155.869184 
L 757.628049 102.53849 
L 753.548621 102.53849 
z
" clip-path="url(#p4124f80f94)" style="fill: #9467bd"/>
   </g>
   <g id="patch_193">
    <path d="M 773.422761 154.239749 
L 777.50219 154.239749 
L 777.50219 101.092088 
L 773.422761 101.092088 
z
" clip-path="url(#p4124f80f94)" style="fill: #9467bd"/>
   </g>
   <g id="patch_194">
    <path d="M 793.296902 152.674723 
L 797.37633 152.674723 
L 797.37633 99.706094 
L 793.296902 99.706094 
z
" clip-path="url(#p4124f80f94)" style="fill: #9467bd"/>
   </g>
   <g id="patch_195">
    <path d="M 813.171042 151.171465 
L 817.250471 151.171465 
L 817.250471 98.378007 
L 813.171042 98.378007 
z
" clip-path="url(#p4124f80f94)" style="fill: #9467bd"/>
   </g>
   <g id="patch_196">
    <path d="M 833.045183 149.727432 
L 837.124611 149.727432 
L 837.124611 97.105416 
L 833.045183 97.105416 
z
" clip-path="url(#p4124f80f94)" style="fill: #9467bd"/>
   </g>
   <g id="patch_197">
    <path d="M 852.919323 148.340174 
L 856.998752 148.340174 
L 856.998752 95.885999 
L 852.919323 95.885999 
z
" clip-path="url(#p4124f80f94)" style="fill: #9467bd"/>
   </g>
   <g id="patch_198">
    <path d="M 872.793464 147.00733 
L 876.872892 147.00733 
L 876.872892 94.717515 
L 872.793464 94.717515 
z
" clip-path="url(#p4124f80f94)" style="fill: #9467bd"/>
   </g>
   <g id="patch_199">
    <path d="M 892.667604 145.726619 
L 896.747033 145.726619 
L 896.747033 93.597801 
L 892.667604 93.597801 
z
" clip-path="url(#p4124f80f94)" style="fill: #9467bd"/>
   </g>
   <g id="patch_200">
    <path d="M 912.541745 144.495841 
L 916.621174 144.495841 
L 916.621174 92.524768 
L 912.541745 92.524768 
z
" clip-path="url(#p4124f80f94)" style="fill: #9467bd"/>
   </g>
   <g id="patch_201">
    <path d="M 932.415885 143.312867 
L 936.495314 143.312867 
L 936.495314 91.496392 
L 932.415885 91.496392 
z
" clip-path="url(#p4124f80f94)" style="fill: #9467bd"/>
   </g>
   <g id="patch_202">
    <path d="M 952.290026 142.175641 
L 956.369455 142.175641 
L 956.369455 90.51072 
L 952.290026 90.51072 
z
" clip-path="url(#p4124f80f94)" style="fill: #9467bd"/>
   </g>
   <g id="matplotlib.axis_1">
    <g id="xtick_1">
     <g id="line2d_1">
      <defs>
       <path id="mb280611850" d="M 0 0 
L 0 3.5 
" style="stroke: #000000; stroke-width: 0.8"/>
      </defs>
      <g>
       <use xlink:href="#mb280611850" x="138.443971" y="514.17792" style="stroke: #000000; stroke-width: 0.8"/>
      </g>
     </g>
     <g id="text_1">
      <!-- 20.0 -->
      <g transform="translate(118.404909 534.855107) scale(0.18 -0.18)">
       <defs>
        <path id="DejaVuSans-32" d="M 1228 531 
L 3431 531 
L 3431 0 
L 469 0 
L 469 531 
Q 828 903 1448 1529 
Q 2069 2156 2228 2338 
Q 2531 2678 2651 2914 
Q 2772 3150 2772 3378 
Q 2772 3750 2511 3984 
Q 2250 4219 1831 4219 
Q 1534 4219 1204 4116 
Q 875 4013 500 3803 
L 500 4441 
Q 881 4594 1212 4672 
Q 1544 4750 1819 4750 
Q 2544 4750 2975 4387 
Q 3406 4025 3406 3419 
Q 3406 3131 3298 2873 
Q 3191 2616 2906 2266 
Q 2828 2175 2409 1742 
Q 1991 1309 1228 531 
z
" transform="scale(0.015625)"/>
        <path id="DejaVuSans-30" d="M 2034 4250 
Q 1547 4250 1301 3770 
Q 1056 3291 1056 2328 
Q 1056 1369 1301 889 
Q 1547 409 2034 409 
Q 2525 409 2770 889 
Q 3016 1369 3016 2328 
Q 3016 3291 2770 3770 
Q 2525 4250 2034 4250 
z
M 2034 4750 
Q 2819 4750 3233 4129 
Q 3647 3509 3647 2328 
Q 3647 1150 3233 529 
Q 2819 -91 2034 -91 
Q 1250 -91 836 529 
Q 422 1150 422 2328 
Q 422 3509 836 4129 
Q 1250 4750 2034 4750 
z
" transform="scale(0.015625)"/>
        <path id="DejaVuSans-2e" d="M 684 794 
L 1344 794 
L 1344 0 
L 684 0 
L 684 794 
z
" transform="scale(0.015625)"/>
       </defs>
       <use xlink:href="#DejaVuSans-32"/>
       <use xlink:href="#DejaVuSans-30" x="63.623047"/>
       <use xlink:href="#DejaVuSans-2e" x="127.246094"/>
       <use xlink:href="#DejaVuSans-30" x="159.033203"/>
      </g>
     </g>
    </g>
    <g id="xtick_2">
     <g id="line2d_2">
      <g>
       <use xlink:href="#mb280611850" x="240.429693" y="514.17792" style="stroke: #000000; stroke-width: 0.8"/>
      </g>
     </g>
     <g id="text_2">
      <!-- 22.5 -->
      <g transform="translate(220.39063 534.855107) scale(0.18 -0.18)">
       <defs>
        <path id="DejaVuSans-35" d="M 691 4666 
L 3169 4666 
L 3169 4134 
L 1269 4134 
L 1269 2991 
Q 1406 3038 1543 3061 
Q 1681 3084 1819 3084 
Q 2600 3084 3056 2656 
Q 3513 2228 3513 1497 
Q 3513 744 3044 326 
Q 2575 -91 1722 -91 
Q 1428 -91 1123 -41 
Q 819 9 494 109 
L 494 744 
Q 775 591 1075 516 
Q 1375 441 1709 441 
Q 2250 441 2565 725 
Q 2881 1009 2881 1497 
Q 2881 1984 2565 2268 
Q 2250 2553 1709 2553 
Q 1456 2553 1204 2497 
Q 953 2441 691 2322 
L 691 4666 
z
" transform="scale(0.015625)"/>
       </defs>
       <use xlink:href="#DejaVuSans-32"/>
       <use xlink:href="#DejaVuSans-32" x="63.623047"/>
       <use xlink:href="#DejaVuSans-2e" x="127.246094"/>
       <use xlink:href="#DejaVuSans-35" x="159.033203"/>
      </g>
     </g>
    </g>
    <g id="xtick_3">
     <g id="line2d_3">
      <g>
       <use xlink:href="#mb280611850" x="342.415414" y="514.17792" style="stroke: #000000; stroke-width: 0.8"/>
      </g>
     </g>
     <g id="text_3">
      <!-- 25.0 -->
      <g transform="translate(322.376351 534.855107) scale(0.18 -0.18)">
       <use xlink:href="#DejaVuSans-32"/>
       <use xlink:href="#DejaVuSans-35" x="63.623047"/>
       <use xlink:href="#DejaVuSans-2e" x="127.246094"/>
       <use xlink:href="#DejaVuSans-30" x="159.033203"/>
      </g>
     </g>
    </g>
    <g id="xtick_4">
     <g id="line2d_4">
      <g>
       <use xlink:href="#mb280611850" x="444.401135" y="514.17792" style="stroke: #000000; stroke-width: 0.8"/>
      </g>
     </g>
     <g id="text_4">
      <!-- 27.5 -->
      <g transform="translate(424.362072 534.855107) scale(0.18 -0.18)">
       <defs>
        <path id="DejaVuSans-37" d="M 525 4666 
L 3525 4666 
L 3525 4397 
L 1831 0 
L 1172 0 
L 2766 4134 
L 525 4134 
L 525 4666 
z
" transform="scale(0.015625)"/>
       </defs>
       <use xlink:href="#DejaVuSans-32"/>
       <use xlink:href="#DejaVuSans-37" x="63.623047"/>
       <use xlink:href="#DejaVuSans-2e" x="127.246094"/>
       <use xlink:href="#DejaVuSans-35" x="159.033203"/>
      </g>
     </g>
    </g>
    <g id="xtick_5">
     <g id="line2d_5">
      <g>
       <use xlink:href="#mb280611850" x="546.386856" y="514.17792" style="stroke: #000000; stroke-width: 0.8"/>
      </g>
     </g>
     <g id="text_5">
      <!-- 30.0 -->
      <g transform="translate(526.347793 534.855107) scale(0.18 -0.18)">
       <defs>
        <path id="DejaVuSans-33" d="M 2597 2516 
Q 3050 2419 3304 2112 
Q 3559 1806 3559 1356 
Q 3559 666 3084 287 
Q 2609 -91 1734 -91 
Q 1441 -91 1130 -33 
Q 819 25 488 141 
L 488 750 
Q 750 597 1062 519 
Q 1375 441 1716 441 
Q 2309 441 2620 675 
Q 2931 909 2931 1356 
Q 2931 1769 2642 2001 
Q 2353 2234 1838 2234 
L 1294 2234 
L 1294 2753 
L 1863 2753 
Q 2328 2753 2575 2939 
Q 2822 3125 2822 3475 
Q 2822 3834 2567 4026 
Q 2313 4219 1838 4219 
Q 1578 4219 1281 4162 
Q 984 4106 628 3988 
L 628 4550 
Q 988 4650 1302 4700 
Q 1616 4750 1894 4750 
Q 2613 4750 3031 4423 
Q 3450 4097 3450 3541 
Q 3450 3153 3228 2886 
Q 3006 2619 2597 2516 
z
" transform="scale(0.015625)"/>
       </defs>
       <use xlink:href="#DejaVuSans-33"/>
       <use xlink:href="#DejaVuSans-30" x="63.623047"/>
       <use xlink:href="#DejaVuSans-2e" x="127.246094"/>
       <use xlink:href="#DejaVuSans-30" x="159.033203"/>
      </g>
     </g>
    </g>
    <g id="xtick_6">
     <g id="line2d_6">
      <g>
       <use xlink:href="#mb280611850" x="648.372577" y="514.17792" style="stroke: #000000; stroke-width: 0.8"/>
      </g>
     </g>
     <g id="text_6">
      <!-- 32.5 -->
      <g transform="translate(628.333514 534.855107) scale(0.18 -0.18)">
       <use xlink:href="#DejaVuSans-33"/>
       <use xlink:href="#DejaVuSans-32" x="63.623047"/>
       <use xlink:href="#DejaVuSans-2e" x="127.246094"/>
       <use xlink:href="#DejaVuSans-35" x="159.033203"/>
      </g>
     </g>
    </g>
    <g id="xtick_7">
     <g id="line2d_7">
      <g>
       <use xlink:href="#mb280611850" x="750.358298" y="514.17792" style="stroke: #000000; stroke-width: 0.8"/>
      </g>
     </g>
     <g id="text_7">
      <!-- 35.0 -->
      <g transform="translate(730.319235 534.855107) scale(0.18 -0.18)">
       <use xlink:href="#DejaVuSans-33"/>
       <use xlink:href="#DejaVuSans-35" x="63.623047"/>
       <use xlink:href="#DejaVuSans-2e" x="127.246094"/>
       <use xlink:href="#DejaVuSans-30" x="159.033203"/>
      </g>
     </g>
    </g>
    <g id="xtick_8">
     <g id="line2d_8">
      <g>
       <use xlink:href="#mb280611850" x="852.344019" y="514.17792" style="stroke: #000000; stroke-width: 0.8"/>
      </g>
     </g>
     <g id="text_8">
      <!-- 37.5 -->
      <g transform="translate(832.304957 534.855107) scale(0.18 -0.18)">
       <use xlink:href="#DejaVuSans-33"/>
       <use xlink:href="#DejaVuSans-37" x="63.623047"/>
       <use xlink:href="#DejaVuSans-2e" x="127.246094"/>
       <use xlink:href="#DejaVuSans-35" x="159.033203"/>
      </g>
     </g>
    </g>
    <g id="xtick_9">
     <g id="line2d_9">
      <g>
       <use xlink:href="#mb280611850" x="954.32974" y="514.17792" style="stroke: #000000; stroke-width: 0.8"/>
      </g>
     </g>
     <g id="text_9">
      <!-- 40.0 -->
      <g transform="translate(934.290678 534.855107) scale(0.18 -0.18)">
       <defs>
        <path id="DejaVuSans-34" d="M 2419 4116 
L 825 1625 
L 2419 1625 
L 2419 4116 
z
M 2253 4666 
L 3047 4666 
L 3047 1625 
L 3713 1625 
L 3713 1100 
L 3047 1100 
L 3047 0 
L 2419 0 
L 2419 1100 
L 313 1100 
L 313 1709 
L 2253 4666 
z
" transform="scale(0.015625)"/>
       </defs>
       <use xlink:href="#DejaVuSans-34"/>
       <use xlink:href="#DejaVuSans-30" x="63.623047"/>
       <use xlink:href="#DejaVuSans-2e" x="127.246094"/>
       <use xlink:href="#DejaVuSans-30" x="159.033203"/>
      </g>
     </g>
    </g>
    <g id="text_10">
     <!-- Kondensatordruck in bar -->
     <g transform="translate(456.254156 556.275733) scale(0.18 -0.18)">
      <defs>
       <path id="DejaVuSans-4b" d="M 628 4666 
L 1259 4666 
L 1259 2694 
L 3353 4666 
L 4166 4666 
L 1850 2491 
L 4331 0 
L 3500 0 
L 1259 2247 
L 1259 0 
L 628 0 
L 628 4666 
z
" transform="scale(0.015625)"/>
       <path id="DejaVuSans-6f" d="M 1959 3097 
Q 1497 3097 1228 2736 
Q 959 2375 959 1747 
Q 959 1119 1226 758 
Q 1494 397 1959 397 
Q 2419 397 2687 759 
Q 2956 1122 2956 1747 
Q 2956 2369 2687 2733 
Q 2419 3097 1959 3097 
z
M 1959 3584 
Q 2709 3584 3137 3096 
Q 3566 2609 3566 1747 
Q 3566 888 3137 398 
Q 2709 -91 1959 -91 
Q 1206 -91 779 398 
Q 353 888 353 1747 
Q 353 2609 779 3096 
Q 1206 3584 1959 3584 
z
" transform="scale(0.015625)"/>
       <path id="DejaVuSans-6e" d="M 3513 2113 
L 3513 0 
L 2938 0 
L 2938 2094 
Q 2938 2591 2744 2837 
Q 2550 3084 2163 3084 
Q 1697 3084 1428 2787 
Q 1159 2491 1159 1978 
L 1159 0 
L 581 0 
L 581 3500 
L 1159 3500 
L 1159 2956 
Q 1366 3272 1645 3428 
Q 1925 3584 2291 3584 
Q 2894 3584 3203 3211 
Q 3513 2838 3513 2113 
z
" transform="scale(0.015625)"/>
       <path id="DejaVuSans-64" d="M 2906 2969 
L 2906 4863 
L 3481 4863 
L 3481 0 
L 2906 0 
L 2906 525 
Q 2725 213 2448 61 
Q 2172 -91 1784 -91 
Q 1150 -91 751 415 
Q 353 922 353 1747 
Q 353 2572 751 3078 
Q 1150 3584 1784 3584 
Q 2172 3584 2448 3432 
Q 2725 3281 2906 2969 
z
M 947 1747 
Q 947 1113 1208 752 
Q 1469 391 1925 391 
Q 2381 391 2643 752 
Q 2906 1113 2906 1747 
Q 2906 2381 2643 2742 
Q 2381 3103 1925 3103 
Q 1469 3103 1208 2742 
Q 947 2381 947 1747 
z
" transform="scale(0.015625)"/>
       <path id="DejaVuSans-65" d="M 3597 1894 
L 3597 1613 
L 953 1613 
Q 991 1019 1311 708 
Q 1631 397 2203 397 
Q 2534 397 2845 478 
Q 3156 559 3463 722 
L 3463 178 
Q 3153 47 2828 -22 
Q 2503 -91 2169 -91 
Q 1331 -91 842 396 
Q 353 884 353 1716 
Q 353 2575 817 3079 
Q 1281 3584 2069 3584 
Q 2775 3584 3186 3129 
Q 3597 2675 3597 1894 
z
M 3022 2063 
Q 3016 2534 2758 2815 
Q 2500 3097 2075 3097 
Q 1594 3097 1305 2825 
Q 1016 2553 972 2059 
L 3022 2063 
z
" transform="scale(0.015625)"/>
       <path id="DejaVuSans-73" d="M 2834 3397 
L 2834 2853 
Q 2591 2978 2328 3040 
Q 2066 3103 1784 3103 
Q 1356 3103 1142 2972 
Q 928 2841 928 2578 
Q 928 2378 1081 2264 
Q 1234 2150 1697 2047 
L 1894 2003 
Q 2506 1872 2764 1633 
Q 3022 1394 3022 966 
Q 3022 478 2636 193 
Q 2250 -91 1575 -91 
Q 1294 -91 989 -36 
Q 684 19 347 128 
L 347 722 
Q 666 556 975 473 
Q 1284 391 1588 391 
Q 1994 391 2212 530 
Q 2431 669 2431 922 
Q 2431 1156 2273 1281 
Q 2116 1406 1581 1522 
L 1381 1569 
Q 847 1681 609 1914 
Q 372 2147 372 2553 
Q 372 3047 722 3315 
Q 1072 3584 1716 3584 
Q 2034 3584 2315 3537 
Q 2597 3491 2834 3397 
z
" transform="scale(0.015625)"/>
       <path id="DejaVuSans-61" d="M 2194 1759 
Q 1497 1759 1228 1600 
Q 959 1441 959 1056 
Q 959 750 1161 570 
Q 1363 391 1709 391 
Q 2188 391 2477 730 
Q 2766 1069 2766 1631 
L 2766 1759 
L 2194 1759 
z
M 3341 1997 
L 3341 0 
L 2766 0 
L 2766 531 
Q 2569 213 2275 61 
Q 1981 -91 1556 -91 
Q 1019 -91 701 211 
Q 384 513 384 1019 
Q 384 1609 779 1909 
Q 1175 2209 1959 2209 
L 2766 2209 
L 2766 2266 
Q 2766 2663 2505 2880 
Q 2244 3097 1772 3097 
Q 1472 3097 1187 3025 
Q 903 2953 641 2809 
L 641 3341 
Q 956 3463 1253 3523 
Q 1550 3584 1831 3584 
Q 2591 3584 2966 3190 
Q 3341 2797 3341 1997 
z
" transform="scale(0.015625)"/>
       <path id="DejaVuSans-74" d="M 1172 4494 
L 1172 3500 
L 2356 3500 
L 2356 3053 
L 1172 3053 
L 1172 1153 
Q 1172 725 1289 603 
Q 1406 481 1766 481 
L 2356 481 
L 2356 0 
L 1766 0 
Q 1100 0 847 248 
Q 594 497 594 1153 
L 594 3053 
L 172 3053 
L 172 3500 
L 594 3500 
L 594 4494 
L 1172 4494 
z
" transform="scale(0.015625)"/>
       <path id="DejaVuSans-72" d="M 2631 2963 
Q 2534 3019 2420 3045 
Q 2306 3072 2169 3072 
Q 1681 3072 1420 2755 
Q 1159 2438 1159 1844 
L 1159 0 
L 581 0 
L 581 3500 
L 1159 3500 
L 1159 2956 
Q 1341 3275 1631 3429 
Q 1922 3584 2338 3584 
Q 2397 3584 2469 3576 
Q 2541 3569 2628 3553 
L 2631 2963 
z
" transform="scale(0.015625)"/>
       <path id="DejaVuSans-75" d="M 544 1381 
L 544 3500 
L 1119 3500 
L 1119 1403 
Q 1119 906 1312 657 
Q 1506 409 1894 409 
Q 2359 409 2629 706 
Q 2900 1003 2900 1516 
L 2900 3500 
L 3475 3500 
L 3475 0 
L 2900 0 
L 2900 538 
Q 2691 219 2414 64 
Q 2138 -91 1772 -91 
Q 1169 -91 856 284 
Q 544 659 544 1381 
z
M 1991 3584 
L 1991 3584 
z
" transform="scale(0.015625)"/>
       <path id="DejaVuSans-63" d="M 3122 3366 
L 3122 2828 
Q 2878 2963 2633 3030 
Q 2388 3097 2138 3097 
Q 1578 3097 1268 2742 
Q 959 2388 959 1747 
Q 959 1106 1268 751 
Q 1578 397 2138 397 
Q 2388 397 2633 464 
Q 2878 531 3122 666 
L 3122 134 
Q 2881 22 2623 -34 
Q 2366 -91 2075 -91 
Q 1284 -91 818 406 
Q 353 903 353 1747 
Q 353 2603 823 3093 
Q 1294 3584 2113 3584 
Q 2378 3584 2631 3529 
Q 2884 3475 3122 3366 
z
" transform="scale(0.015625)"/>
       <path id="DejaVuSans-6b" d="M 581 4863 
L 1159 4863 
L 1159 1991 
L 2875 3500 
L 3609 3500 
L 1753 1863 
L 3688 0 
L 2938 0 
L 1159 1709 
L 1159 0 
L 581 0 
L 581 4863 
z
" transform="scale(0.015625)"/>
       <path id="DejaVuSans-20" transform="scale(0.015625)"/>
       <path id="DejaVuSans-69" d="M 603 3500 
L 1178 3500 
L 1178 0 
L 603 0 
L 603 3500 
z
M 603 4863 
L 1178 4863 
L 1178 4134 
L 603 4134 
L 603 4863 
z
" transform="scale(0.015625)"/>
       <path id="DejaVuSans-62" d="M 3116 1747 
Q 3116 2381 2855 2742 
Q 2594 3103 2138 3103 
Q 1681 3103 1420 2742 
Q 1159 2381 1159 1747 
Q 1159 1113 1420 752 
Q 1681 391 2138 391 
Q 2594 391 2855 752 
Q 3116 1113 3116 1747 
z
M 1159 2969 
Q 1341 3281 1617 3432 
Q 1894 3584 2278 3584 
Q 2916 3584 3314 3078 
Q 3713 2572 3713 1747 
Q 3713 922 3314 415 
Q 2916 -91 2278 -91 
Q 1894 -91 1617 61 
Q 1341 213 1159 525 
L 1159 0 
L 581 0 
L 581 4863 
L 1159 4863 
L 1159 2969 
z
" transform="scale(0.015625)"/>
      </defs>
      <use xlink:href="#DejaVuSans-4b"/>
      <use xlink:href="#DejaVuSans-6f" x="60.576172"/>
      <use xlink:href="#DejaVuSans-6e" x="121.757812"/>
      <use xlink:href="#DejaVuSans-64" x="185.136719"/>
      <use xlink:href="#DejaVuSans-65" x="248.613281"/>
      <use xlink:href="#DejaVuSans-6e" x="310.136719"/>
      <use xlink:href="#DejaVuSans-73" x="373.515625"/>
      <use xlink:href="#DejaVuSans-61" x="425.615234"/>
      <use xlink:href="#DejaVuSans-74" x="486.894531"/>
      <use xlink:href="#DejaVuSans-6f" x="526.103516"/>
      <use xlink:href="#DejaVuSans-72" x="587.285156"/>
      <use xlink:href="#DejaVuSans-64" x="626.648438"/>
      <use xlink:href="#DejaVuSans-72" x="690.125"/>
      <use xlink:href="#DejaVuSans-75" x="731.238281"/>
      <use xlink:href="#DejaVuSans-63" x="794.617188"/>
      <use xlink:href="#DejaVuSans-6b" x="849.597656"/>
      <use xlink:href="#DejaVuSans-20" x="907.507812"/>
      <use xlink:href="#DejaVuSans-69" x="939.294922"/>
      <use xlink:href="#DejaVuSans-6e" x="967.078125"/>
      <use xlink:href="#DejaVuSans-20" x="1030.457031"/>
      <use xlink:href="#DejaVuSans-62" x="1062.244141"/>
      <use xlink:href="#DejaVuSans-61" x="1125.720703"/>
      <use xlink:href="#DejaVuSans-72" x="1187"/>
     </g>
    </g>
   </g>
   <g id="matplotlib.axis_2">
    <g id="ytick_1">
     <g id="line2d_10">
      <defs>
       <path id="mad1d631a18" d="M 0 0 
L -3.5 0 
" style="stroke: #000000; stroke-width: 0.8"/>
      </defs>
      <g>
       <use xlink:href="#mad1d631a18" x="138.24" y="514.17792" style="stroke: #000000; stroke-width: 0.8"/>
      </g>
     </g>
     <g id="text_11">
      <!-- 0.00 -->
      <g transform="translate(91.161875 521.016514) scale(0.18 -0.18)">
       <use xlink:href="#DejaVuSans-30"/>
       <use xlink:href="#DejaVuSans-2e" x="63.623047"/>
       <use xlink:href="#DejaVuSans-30" x="95.410156"/>
       <use xlink:href="#DejaVuSans-30" x="159.033203"/>
      </g>
     </g>
    </g>
    <g id="ytick_2">
     <g id="line2d_11">
      <g>
       <use xlink:href="#mad1d631a18" x="138.24" y="441.307909" style="stroke: #000000; stroke-width: 0.8"/>
      </g>
     </g>
     <g id="text_12">
      <!-- 0.02 -->
      <g transform="translate(91.161875 448.146503) scale(0.18 -0.18)">
       <use xlink:href="#DejaVuSans-30"/>
       <use xlink:href="#DejaVuSans-2e" x="63.623047"/>
       <use xlink:href="#DejaVuSans-30" x="95.410156"/>
       <use xlink:href="#DejaVuSans-32" x="159.033203"/>
      </g>
     </g>
    </g>
    <g id="ytick_3">
     <g id="line2d_12">
      <g>
       <use xlink:href="#mad1d631a18" x="138.24" y="368.437898" style="stroke: #000000; stroke-width: 0.8"/>
      </g>
     </g>
     <g id="text_13">
      <!-- 0.04 -->
      <g transform="translate(91.161875 375.276492) scale(0.18 -0.18)">
       <use xlink:href="#DejaVuSans-30"/>
       <use xlink:href="#DejaVuSans-2e" x="63.623047"/>
       <use xlink:href="#DejaVuSans-30" x="95.410156"/>
       <use xlink:href="#DejaVuSans-34" x="159.033203"/>
      </g>
     </g>
    </g>
    <g id="ytick_4">
     <g id="line2d_13">
      <g>
       <use xlink:href="#mad1d631a18" x="138.24" y="295.567887" style="stroke: #000000; stroke-width: 0.8"/>
      </g>
     </g>
     <g id="text_14">
      <!-- 0.06 -->
      <g transform="translate(91.161875 302.406481) scale(0.18 -0.18)">
       <defs>
        <path id="DejaVuSans-36" d="M 2113 2584 
Q 1688 2584 1439 2293 
Q 1191 2003 1191 1497 
Q 1191 994 1439 701 
Q 1688 409 2113 409 
Q 2538 409 2786 701 
Q 3034 994 3034 1497 
Q 3034 2003 2786 2293 
Q 2538 2584 2113 2584 
z
M 3366 4563 
L 3366 3988 
Q 3128 4100 2886 4159 
Q 2644 4219 2406 4219 
Q 1781 4219 1451 3797 
Q 1122 3375 1075 2522 
Q 1259 2794 1537 2939 
Q 1816 3084 2150 3084 
Q 2853 3084 3261 2657 
Q 3669 2231 3669 1497 
Q 3669 778 3244 343 
Q 2819 -91 2113 -91 
Q 1303 -91 875 529 
Q 447 1150 447 2328 
Q 447 3434 972 4092 
Q 1497 4750 2381 4750 
Q 2619 4750 2861 4703 
Q 3103 4656 3366 4563 
z
" transform="scale(0.015625)"/>
       </defs>
       <use xlink:href="#DejaVuSans-30"/>
       <use xlink:href="#DejaVuSans-2e" x="63.623047"/>
       <use xlink:href="#DejaVuSans-30" x="95.410156"/>
       <use xlink:href="#DejaVuSans-36" x="159.033203"/>
      </g>
     </g>
    </g>
    <g id="ytick_5">
     <g id="line2d_14">
      <g>
       <use xlink:href="#mad1d631a18" x="138.24" y="222.697876" style="stroke: #000000; stroke-width: 0.8"/>
      </g>
     </g>
     <g id="text_15">
      <!-- 0.08 -->
      <g transform="translate(91.161875 229.53647) scale(0.18 -0.18)">
       <defs>
        <path id="DejaVuSans-38" d="M 2034 2216 
Q 1584 2216 1326 1975 
Q 1069 1734 1069 1313 
Q 1069 891 1326 650 
Q 1584 409 2034 409 
Q 2484 409 2743 651 
Q 3003 894 3003 1313 
Q 3003 1734 2745 1975 
Q 2488 2216 2034 2216 
z
M 1403 2484 
Q 997 2584 770 2862 
Q 544 3141 544 3541 
Q 544 4100 942 4425 
Q 1341 4750 2034 4750 
Q 2731 4750 3128 4425 
Q 3525 4100 3525 3541 
Q 3525 3141 3298 2862 
Q 3072 2584 2669 2484 
Q 3125 2378 3379 2068 
Q 3634 1759 3634 1313 
Q 3634 634 3220 271 
Q 2806 -91 2034 -91 
Q 1263 -91 848 271 
Q 434 634 434 1313 
Q 434 1759 690 2068 
Q 947 2378 1403 2484 
z
M 1172 3481 
Q 1172 3119 1398 2916 
Q 1625 2713 2034 2713 
Q 2441 2713 2670 2916 
Q 2900 3119 2900 3481 
Q 2900 3844 2670 4047 
Q 2441 4250 2034 4250 
Q 1625 4250 1398 4047 
Q 1172 3844 1172 3481 
z
" transform="scale(0.015625)"/>
       </defs>
       <use xlink:href="#DejaVuSans-30"/>
       <use xlink:href="#DejaVuSans-2e" x="63.623047"/>
       <use xlink:href="#DejaVuSans-30" x="95.410156"/>
       <use xlink:href="#DejaVuSans-38" x="159.033203"/>
      </g>
     </g>
    </g>
    <g id="ytick_6">
     <g id="line2d_15">
      <g>
       <use xlink:href="#mad1d631a18" x="138.24" y="149.827865" style="stroke: #000000; stroke-width: 0.8"/>
      </g>
     </g>
     <g id="text_16">
      <!-- 0.10 -->
      <g transform="translate(91.161875 156.666459) scale(0.18 -0.18)">
       <defs>
        <path id="DejaVuSans-31" d="M 794 531 
L 1825 531 
L 1825 4091 
L 703 3866 
L 703 4441 
L 1819 4666 
L 2450 4666 
L 2450 531 
L 3481 531 
L 3481 0 
L 794 0 
L 794 531 
z
" transform="scale(0.015625)"/>
       </defs>
       <use xlink:href="#DejaVuSans-30"/>
       <use xlink:href="#DejaVuSans-2e" x="63.623047"/>
       <use xlink:href="#DejaVuSans-31" x="95.410156"/>
       <use xlink:href="#DejaVuSans-30" x="159.033203"/>
      </g>
     </g>
    </g>
    <g id="ytick_7">
     <g id="line2d_16">
      <g>
       <use xlink:href="#mad1d631a18" x="138.24" y="76.957854" style="stroke: #000000; stroke-width: 0.8"/>
      </g>
     </g>
     <g id="text_17">
      <!-- 0.12 -->
      <g transform="translate(91.161875 83.796448) scale(0.18 -0.18)">
       <use xlink:href="#DejaVuSans-30"/>
       <use xlink:href="#DejaVuSans-2e" x="63.623047"/>
       <use xlink:href="#DejaVuSans-31" x="95.410156"/>
       <use xlink:href="#DejaVuSans-32" x="159.033203"/>
      </g>
     </g>
    </g>
    <g id="text_18">
     <!-- Exergievernichtung in MW -->
     <g transform="translate(83.418438 409.818577) rotate(-90) scale(0.18 -0.18)">
      <defs>
       <path id="DejaVuSans-45" d="M 628 4666 
L 3578 4666 
L 3578 4134 
L 1259 4134 
L 1259 2753 
L 3481 2753 
L 3481 2222 
L 1259 2222 
L 1259 531 
L 3634 531 
L 3634 0 
L 628 0 
L 628 4666 
z
" transform="scale(0.015625)"/>
       <path id="DejaVuSans-78" d="M 3513 3500 
L 2247 1797 
L 3578 0 
L 2900 0 
L 1881 1375 
L 863 0 
L 184 0 
L 1544 1831 
L 300 3500 
L 978 3500 
L 1906 2253 
L 2834 3500 
L 3513 3500 
z
" transform="scale(0.015625)"/>
       <path id="DejaVuSans-67" d="M 2906 1791 
Q 2906 2416 2648 2759 
Q 2391 3103 1925 3103 
Q 1463 3103 1205 2759 
Q 947 2416 947 1791 
Q 947 1169 1205 825 
Q 1463 481 1925 481 
Q 2391 481 2648 825 
Q 2906 1169 2906 1791 
z
M 3481 434 
Q 3481 -459 3084 -895 
Q 2688 -1331 1869 -1331 
Q 1566 -1331 1297 -1286 
Q 1028 -1241 775 -1147 
L 775 -588 
Q 1028 -725 1275 -790 
Q 1522 -856 1778 -856 
Q 2344 -856 2625 -561 
Q 2906 -266 2906 331 
L 2906 616 
Q 2728 306 2450 153 
Q 2172 0 1784 0 
Q 1141 0 747 490 
Q 353 981 353 1791 
Q 353 2603 747 3093 
Q 1141 3584 1784 3584 
Q 2172 3584 2450 3431 
Q 2728 3278 2906 2969 
L 2906 3500 
L 3481 3500 
L 3481 434 
z
" transform="scale(0.015625)"/>
       <path id="DejaVuSans-76" d="M 191 3500 
L 800 3500 
L 1894 563 
L 2988 3500 
L 3597 3500 
L 2284 0 
L 1503 0 
L 191 3500 
z
" transform="scale(0.015625)"/>
       <path id="DejaVuSans-68" d="M 3513 2113 
L 3513 0 
L 2938 0 
L 2938 2094 
Q 2938 2591 2744 2837 
Q 2550 3084 2163 3084 
Q 1697 3084 1428 2787 
Q 1159 2491 1159 1978 
L 1159 0 
L 581 0 
L 581 4863 
L 1159 4863 
L 1159 2956 
Q 1366 3272 1645 3428 
Q 1925 3584 2291 3584 
Q 2894 3584 3203 3211 
Q 3513 2838 3513 2113 
z
" transform="scale(0.015625)"/>
       <path id="DejaVuSans-4d" d="M 628 4666 
L 1569 4666 
L 2759 1491 
L 3956 4666 
L 4897 4666 
L 4897 0 
L 4281 0 
L 4281 4097 
L 3078 897 
L 2444 897 
L 1241 4097 
L 1241 0 
L 628 0 
L 628 4666 
z
" transform="scale(0.015625)"/>
       <path id="DejaVuSans-57" d="M 213 4666 
L 850 4666 
L 1831 722 
L 2809 4666 
L 3519 4666 
L 4500 722 
L 5478 4666 
L 6119 4666 
L 4947 0 
L 4153 0 
L 3169 4050 
L 2175 0 
L 1381 0 
L 213 4666 
z
" transform="scale(0.015625)"/>
      </defs>
      <use xlink:href="#DejaVuSans-45"/>
      <use xlink:href="#DejaVuSans-78" x="63.183594"/>
      <use xlink:href="#DejaVuSans-65" x="119.238281"/>
      <use xlink:href="#DejaVuSans-72" x="180.761719"/>
      <use xlink:href="#DejaVuSans-67" x="220.125"/>
      <use xlink:href="#DejaVuSans-69" x="283.601562"/>
      <use xlink:href="#DejaVuSans-65" x="311.384766"/>
      <use xlink:href="#DejaVuSans-76" x="372.908203"/>
      <use xlink:href="#DejaVuSans-65" x="432.087891"/>
      <use xlink:href="#DejaVuSans-72" x="493.611328"/>
      <use xlink:href="#DejaVuSans-6e" x="532.974609"/>
      <use xlink:href="#DejaVuSans-69" x="596.353516"/>
      <use xlink:href="#DejaVuSans-63" x="624.136719"/>
      <use xlink:href="#DejaVuSans-68" x="679.117188"/>
      <use xlink:href="#DejaVuSans-74" x="742.496094"/>
      <use xlink:href="#DejaVuSans-75" x="781.705078"/>
      <use xlink:href="#DejaVuSans-6e" x="845.083984"/>
      <use xlink:href="#DejaVuSans-67" x="908.462891"/>
      <use xlink:href="#DejaVuSans-20" x="971.939453"/>
      <use xlink:href="#DejaVuSans-69" x="1003.726562"/>
      <use xlink:href="#DejaVuSans-6e" x="1031.509766"/>
      <use xlink:href="#DejaVuSans-20" x="1094.888672"/>
      <use xlink:href="#DejaVuSans-4d" x="1126.675781"/>
      <use xlink:href="#DejaVuSans-57" x="1212.955078"/>
     </g>
    </g>
   </g>
   <g id="patch_203">
    <path d="M 138.24 514.17792 
L 138.24 69.32736 
" style="fill: none; stroke: #000000; stroke-width: 0.8; stroke-linejoin: miter; stroke-linecap: square"/>
   </g>
   <g id="patch_204">
    <path d="M 995.328 514.17792 
L 995.328 69.32736 
" style="fill: none; stroke: #000000; stroke-width: 0.8; stroke-linejoin: miter; stroke-linecap: square"/>
   </g>
   <g id="patch_205">
    <path d="M 138.24 514.17792 
L 995.328 514.17792 
" style="fill: none; stroke: #000000; stroke-width: 0.8; stroke-linejoin: miter; stroke-linecap: square"/>
   </g>
   <g id="patch_206">
    <path d="M 138.24 69.32736 
L 995.328 69.32736 
" style="fill: none; stroke: #000000; stroke-width: 0.8; stroke-linejoin: miter; stroke-linecap: square"/>
   </g>
   <g id="legend_1">
    <g id="patch_207">
     <path d="M 150.84 215.830485 
L 427.311562 215.830485 
Q 430.911563 215.830485 430.911563 212.230485 
L 430.911563 81.92736 
Q 430.911563 78.32736 427.311562 78.32736 
L 150.84 78.32736 
Q 147.24 78.32736 147.24 81.92736 
L 147.24 212.230485 
Q 147.24 215.830485 150.84 215.830485 
z
" style="fill: #ffffff; opacity: 0.8; stroke: #cccccc; stroke-linejoin: miter"/>
    </g>
    <g id="patch_208">
     <path d="M 154.44 99.204547 
L 190.44 99.204547 
L 190.44 86.604547 
L 154.44 86.604547 
z
" style="fill: #1f77b4"/>
    </g>
    <g id="text_19">
     <!-- Gas cooler -->
     <g transform="translate(204.84 99.204547) scale(0.18 -0.18)">
      <defs>
       <path id="DejaVuSans-47" d="M 3809 666 
L 3809 1919 
L 2778 1919 
L 2778 2438 
L 4434 2438 
L 4434 434 
Q 4069 175 3628 42 
Q 3188 -91 2688 -91 
Q 1594 -91 976 548 
Q 359 1188 359 2328 
Q 359 3472 976 4111 
Q 1594 4750 2688 4750 
Q 3144 4750 3555 4637 
Q 3966 4525 4313 4306 
L 4313 3634 
Q 3963 3931 3569 4081 
Q 3175 4231 2741 4231 
Q 1884 4231 1454 3753 
Q 1025 3275 1025 2328 
Q 1025 1384 1454 906 
Q 1884 428 2741 428 
Q 3075 428 3337 486 
Q 3600 544 3809 666 
z
" transform="scale(0.015625)"/>
       <path id="DejaVuSans-6c" d="M 603 4863 
L 1178 4863 
L 1178 0 
L 603 0 
L 603 4863 
z
" transform="scale(0.015625)"/>
      </defs>
      <use xlink:href="#DejaVuSans-47"/>
      <use xlink:href="#DejaVuSans-61" x="77.490234"/>
      <use xlink:href="#DejaVuSans-73" x="138.769531"/>
      <use xlink:href="#DejaVuSans-20" x="190.869141"/>
      <use xlink:href="#DejaVuSans-63" x="222.65625"/>
      <use xlink:href="#DejaVuSans-6f" x="277.636719"/>
      <use xlink:href="#DejaVuSans-6f" x="338.818359"/>
      <use xlink:href="#DejaVuSans-6c" x="400"/>
      <use xlink:href="#DejaVuSans-65" x="427.783203"/>
      <use xlink:href="#DejaVuSans-72" x="489.306641"/>
     </g>
    </g>
    <g id="patch_209">
     <path d="M 154.44 125.625172 
L 190.44 125.625172 
L 190.44 113.025172 
L 154.44 113.025172 
z
" style="fill: #ff7f0e"/>
    </g>
    <g id="text_20">
     <!-- Evaporator -->
     <g transform="translate(204.84 125.625172) scale(0.18 -0.18)">
      <defs>
       <path id="DejaVuSans-70" d="M 1159 525 
L 1159 -1331 
L 581 -1331 
L 581 3500 
L 1159 3500 
L 1159 2969 
Q 1341 3281 1617 3432 
Q 1894 3584 2278 3584 
Q 2916 3584 3314 3078 
Q 3713 2572 3713 1747 
Q 3713 922 3314 415 
Q 2916 -91 2278 -91 
Q 1894 -91 1617 61 
Q 1341 213 1159 525 
z
M 3116 1747 
Q 3116 2381 2855 2742 
Q 2594 3103 2138 3103 
Q 1681 3103 1420 2742 
Q 1159 2381 1159 1747 
Q 1159 1113 1420 752 
Q 1681 391 2138 391 
Q 2594 391 2855 752 
Q 3116 1113 3116 1747 
z
" transform="scale(0.015625)"/>
      </defs>
      <use xlink:href="#DejaVuSans-45"/>
      <use xlink:href="#DejaVuSans-76" x="63.183594"/>
      <use xlink:href="#DejaVuSans-61" x="122.363281"/>
      <use xlink:href="#DejaVuSans-70" x="183.642578"/>
      <use xlink:href="#DejaVuSans-6f" x="247.119141"/>
      <use xlink:href="#DejaVuSans-72" x="308.300781"/>
      <use xlink:href="#DejaVuSans-61" x="349.414062"/>
      <use xlink:href="#DejaVuSans-74" x="410.693359"/>
      <use xlink:href="#DejaVuSans-6f" x="449.902344"/>
      <use xlink:href="#DejaVuSans-72" x="511.083984"/>
     </g>
    </g>
    <g id="patch_210">
     <path d="M 154.44 152.045797 
L 190.44 152.045797 
L 190.44 139.445797 
L 154.44 139.445797 
z
" style="fill: #2ca02c"/>
    </g>
    <g id="text_21">
     <!-- Valve -->
     <g transform="translate(204.84 152.045797) scale(0.18 -0.18)">
      <defs>
       <path id="DejaVuSans-56" d="M 1831 0 
L 50 4666 
L 709 4666 
L 2188 738 
L 3669 4666 
L 4325 4666 
L 2547 0 
L 1831 0 
z
" transform="scale(0.015625)"/>
      </defs>
      <use xlink:href="#DejaVuSans-56"/>
      <use xlink:href="#DejaVuSans-61" x="60.658203"/>
      <use xlink:href="#DejaVuSans-6c" x="121.9375"/>
      <use xlink:href="#DejaVuSans-76" x="149.720703"/>
      <use xlink:href="#DejaVuSans-65" x="208.900391"/>
     </g>
    </g>
    <g id="patch_211">
     <path d="M 154.44 178.466422 
L 190.44 178.466422 
L 190.44 165.866422 
L 154.44 165.866422 
z
" style="fill: #d62728"/>
    </g>
    <g id="text_22">
     <!-- Compressor -->
     <g transform="translate(204.84 178.466422) scale(0.18 -0.18)">
      <defs>
       <path id="DejaVuSans-43" d="M 4122 4306 
L 4122 3641 
Q 3803 3938 3442 4084 
Q 3081 4231 2675 4231 
Q 1875 4231 1450 3742 
Q 1025 3253 1025 2328 
Q 1025 1406 1450 917 
Q 1875 428 2675 428 
Q 3081 428 3442 575 
Q 3803 722 4122 1019 
L 4122 359 
Q 3791 134 3420 21 
Q 3050 -91 2638 -91 
Q 1578 -91 968 557 
Q 359 1206 359 2328 
Q 359 3453 968 4101 
Q 1578 4750 2638 4750 
Q 3056 4750 3426 4639 
Q 3797 4528 4122 4306 
z
" transform="scale(0.015625)"/>
       <path id="DejaVuSans-6d" d="M 3328 2828 
Q 3544 3216 3844 3400 
Q 4144 3584 4550 3584 
Q 5097 3584 5394 3201 
Q 5691 2819 5691 2113 
L 5691 0 
L 5113 0 
L 5113 2094 
Q 5113 2597 4934 2840 
Q 4756 3084 4391 3084 
Q 3944 3084 3684 2787 
Q 3425 2491 3425 1978 
L 3425 0 
L 2847 0 
L 2847 2094 
Q 2847 2600 2669 2842 
Q 2491 3084 2119 3084 
Q 1678 3084 1418 2786 
Q 1159 2488 1159 1978 
L 1159 0 
L 581 0 
L 581 3500 
L 1159 3500 
L 1159 2956 
Q 1356 3278 1631 3431 
Q 1906 3584 2284 3584 
Q 2666 3584 2933 3390 
Q 3200 3197 3328 2828 
z
" transform="scale(0.015625)"/>
      </defs>
      <use xlink:href="#DejaVuSans-43"/>
      <use xlink:href="#DejaVuSans-6f" x="69.824219"/>
      <use xlink:href="#DejaVuSans-6d" x="131.005859"/>
      <use xlink:href="#DejaVuSans-70" x="228.417969"/>
      <use xlink:href="#DejaVuSans-72" x="291.894531"/>
      <use xlink:href="#DejaVuSans-65" x="330.757812"/>
      <use xlink:href="#DejaVuSans-73" x="392.28125"/>
      <use xlink:href="#DejaVuSans-73" x="444.380859"/>
      <use xlink:href="#DejaVuSans-6f" x="496.480469"/>
      <use xlink:href="#DejaVuSans-72" x="557.662109"/>
     </g>
    </g>
    <g id="patch_212">
     <path d="M 154.44 204.887047 
L 190.44 204.887047 
L 190.44 192.287047 
L 154.44 192.287047 
z
" style="fill: #9467bd"/>
    </g>
    <g id="text_23">
     <!-- Internal Heat Exchanger -->
     <g transform="translate(204.84 204.887047) scale(0.18 -0.18)">
      <defs>
       <path id="DejaVuSans-49" d="M 628 4666 
L 1259 4666 
L 1259 0 
L 628 0 
L 628 4666 
z
" transform="scale(0.015625)"/>
       <path id="DejaVuSans-48" d="M 628 4666 
L 1259 4666 
L 1259 2753 
L 3553 2753 
L 3553 4666 
L 4184 4666 
L 4184 0 
L 3553 0 
L 3553 2222 
L 1259 2222 
L 1259 0 
L 628 0 
L 628 4666 
z
" transform="scale(0.015625)"/>
      </defs>
      <use xlink:href="#DejaVuSans-49"/>
      <use xlink:href="#DejaVuSans-6e" x="29.492188"/>
      <use xlink:href="#DejaVuSans-74" x="92.871094"/>
      <use xlink:href="#DejaVuSans-65" x="132.080078"/>
      <use xlink:href="#DejaVuSans-72" x="193.603516"/>
      <use xlink:href="#DejaVuSans-6e" x="232.966797"/>
      <use xlink:href="#DejaVuSans-61" x="296.345703"/>
      <use xlink:href="#DejaVuSans-6c" x="357.625"/>
      <use xlink:href="#DejaVuSans-20" x="385.408203"/>
      <use xlink:href="#DejaVuSans-48" x="417.195312"/>
      <use xlink:href="#DejaVuSans-65" x="492.390625"/>
      <use xlink:href="#DejaVuSans-61" x="553.914062"/>
      <use xlink:href="#DejaVuSans-74" x="615.193359"/>
      <use xlink:href="#DejaVuSans-20" x="654.402344"/>
      <use xlink:href="#DejaVuSans-45" x="686.189453"/>
      <use xlink:href="#DejaVuSans-78" x="749.373047"/>
      <use xlink:href="#DejaVuSans-63" x="806.802734"/>
      <use xlink:href="#DejaVuSans-68" x="861.783203"/>
      <use xlink:href="#DejaVuSans-61" x="925.162109"/>
      <use xlink:href="#DejaVuSans-6e" x="986.441406"/>
      <use xlink:href="#DejaVuSans-67" x="1049.820312"/>
      <use xlink:href="#DejaVuSans-65" x="1113.296875"/>
      <use xlink:href="#DejaVuSans-72" x="1174.820312"/>
     </g>
    </g>
   </g>
  </g>
 </g>
 <defs>
  <clipPath id="p4124f80f94">
   <rect x="138.24" y="69.32736" width="857.088" height="444.85056"/>
  </clipPath>
 </defs>
</svg>
