<?xml version="1.0" encoding="utf-8" standalone="no"?>
<!DOCTYPE svg PUBLIC "-//W3C//DTD SVG 1.1//EN"
  "http://www.w3.org/Graphics/SVG/1.1/DTD/svg11.dtd">
<svg xmlns:xlink="http://www.w3.org/1999/xlink" width="460.8pt" height="345.6pt" viewBox="0 0 460.8 345.6" xmlns="http://www.w3.org/2000/svg" version="1.1">
 <metadata>
  <rdf:RDF xmlns:dc="http://purl.org/dc/elements/1.1/" xmlns:cc="http://creativecommons.org/ns#" xmlns:rdf="http://www.w3.org/1999/02/22-rdf-syntax-ns#">
   <cc:Work>
    <dc:type rdf:resource="http://purl.org/dc/dcmitype/StillImage"/>
    <dc:date>2023-04-17T12:24:30.457046</dc:date>
    <dc:format>image/svg+xml</dc:format>
    <dc:creator>
     <cc:Agent>
      <dc:title>Matplotlib v3.6.1, https://matplotlib.org/</dc:title>
     </cc:Agent>
    </dc:creator>
   </cc:Work>
  </rdf:RDF>
 </metadata>
 <defs>
  <style type="text/css">*{stroke-linejoin: round; stroke-linecap: butt}</style>
 </defs>
 <g id="figure_1">
  <g id="patch_1">
   <path d="M 0 345.6 
L 460.8 345.6 
L 460.8 0 
L 0 0 
z
" style="fill: #ffffff"/>
  </g>
  <g id="axes_1">
   <g id="patch_2">
    <path d="M 57.6 307.584 
L 414.72 307.584 
L 414.72 41.472 
L 57.6 41.472 
z
" style="fill: #ffffff"/>
   </g>
   <g id="patch_3">
    <path d="M 73.832727 307.584 
L 81.155762 307.584 
L 81.155762 285.824036 
L 73.832727 285.824036 
z
" clip-path="url(#pe46f2077c0)" style="fill: #1f77b4"/>
   </g>
   <g id="patch_4">
    <path d="M 90.534386 307.584 
L 97.857421 307.584 
L 97.857421 282.196634 
L 90.534386 282.196634 
z
" clip-path="url(#pe46f2077c0)" style="fill: #1f77b4"/>
   </g>
   <g id="patch_5">
    <path d="M 107.236044 307.584 
L 114.559079 307.584 
L 114.559079 279.060387 
L 107.236044 279.060387 
z
" clip-path="url(#pe46f2077c0)" style="fill: #1f77b4"/>
   </g>
   <g id="patch_6">
    <path d="M 123.937703 307.584 
L 131.260737 307.584 
L 131.260737 276.234878 
L 123.937703 276.234878 
z
" clip-path="url(#pe46f2077c0)" style="fill: #1f77b4"/>
   </g>
   <g id="patch_7">
    <path d="M 140.639361 307.584 
L 147.962396 307.584 
L 147.962396 273.631464 
L 140.639361 273.631464 
z
" clip-path="url(#pe46f2077c0)" style="fill: #1f77b4"/>
   </g>
   <g id="patch_8">
    <path d="M 157.34102 307.584 
L 164.664054 307.584 
L 164.664054 271.199379 
L 157.34102 271.199379 
z
" clip-path="url(#pe46f2077c0)" style="fill: #1f77b4"/>
   </g>
   <g id="patch_9">
    <path d="M 174.042678 307.584 
L 181.365713 307.584 
L 181.365713 268.906382 
L 174.042678 268.906382 
z
" clip-path="url(#pe46f2077c0)" style="fill: #1f77b4"/>
   </g>
   <g id="patch_10">
    <path d="M 190.744336 307.584 
L 198.067371 307.584 
L 198.067371 266.730419 
L 190.744336 266.730419 
z
" clip-path="url(#pe46f2077c0)" style="fill: #1f77b4"/>
   </g>
   <g id="patch_11">
    <path d="M 207.445995 307.584 
L 214.76903 307.584 
L 214.76903 264.655531 
L 207.445995 264.655531 
z
" clip-path="url(#pe46f2077c0)" style="fill: #1f77b4"/>
   </g>
   <g id="patch_12">
    <path d="M 224.147653 307.584 
L 231.470688 307.584 
L 231.470688 262.669658 
L 224.147653 262.669658 
z
" clip-path="url(#pe46f2077c0)" style="fill: #1f77b4"/>
   </g>
   <g id="patch_13">
    <path d="M 240.849312 307.584 
L 248.172347 307.584 
L 248.172347 260.763365 
L 240.849312 260.763365 
z
" clip-path="url(#pe46f2077c0)" style="fill: #1f77b4"/>
   </g>
   <g id="patch_14">
    <path d="M 257.55097 307.584 
L 264.874005 307.584 
L 264.874005 258.929057 
L 257.55097 258.929057 
z
" clip-path="url(#pe46f2077c0)" style="fill: #1f77b4"/>
   </g>
   <g id="patch_15">
    <path d="M 274.252629 307.584 
L 281.575664 307.584 
L 281.575664 257.160484 
L 274.252629 257.160484 
z
" clip-path="url(#pe46f2077c0)" style="fill: #1f77b4"/>
   </g>
   <g id="patch_16">
    <path d="M 290.954287 307.584 
L 298.277322 307.584 
L 298.277322 255.452398 
L 290.954287 255.452398 
z
" clip-path="url(#pe46f2077c0)" style="fill: #1f77b4"/>
   </g>
   <g id="patch_17">
    <path d="M 307.655946 307.584 
L 314.97898 307.584 
L 314.97898 253.800321 
L 307.655946 253.800321 
z
" clip-path="url(#pe46f2077c0)" style="fill: #1f77b4"/>
   </g>
   <g id="patch_18">
    <path d="M 324.357604 307.584 
L 331.680639 307.584 
L 331.680639 252.200386 
L 324.357604 252.200386 
z
" clip-path="url(#pe46f2077c0)" style="fill: #1f77b4"/>
   </g>
   <g id="patch_19">
    <path d="M 341.059263 307.584 
L 348.382297 307.584 
L 348.382297 250.649204 
L 341.059263 250.649204 
z
" clip-path="url(#pe46f2077c0)" style="fill: #1f77b4"/>
   </g>
   <g id="patch_20">
    <path d="M 357.760921 307.584 
L 365.083956 307.584 
L 365.083956 249.143786 
L 357.760921 249.143786 
z
" clip-path="url(#pe46f2077c0)" style="fill: #1f77b4"/>
   </g>
   <g id="patch_21">
    <path d="M 374.462579 307.584 
L 381.785614 307.584 
L 381.785614 247.681466 
L 374.462579 247.681466 
z
" clip-path="url(#pe46f2077c0)" style="fill: #1f77b4"/>
   </g>
   <g id="patch_22">
    <path d="M 391.164238 307.584 
L 398.487273 307.584 
L 398.487273 246.25985 
L 391.164238 246.25985 
z
" clip-path="url(#pe46f2077c0)" style="fill: #1f77b4"/>
   </g>
   <g id="patch_23">
    <path d="M 73.832727 285.824036 
L 81.155762 285.824036 
L 81.155762 270.044107 
L 73.832727 270.044107 
z
" clip-path="url(#pe46f2077c0)" style="fill: #ff7f0e"/>
   </g>
   <g id="patch_24">
    <path d="M 90.534386 282.196634 
L 97.857421 282.196634 
L 97.857421 266.318322 
L 90.534386 266.318322 
z
" clip-path="url(#pe46f2077c0)" style="fill: #ff7f0e"/>
   </g>
   <g id="patch_25">
    <path d="M 107.236044 279.060387 
L 114.559079 279.060387 
L 114.559079 263.132062 
L 107.236044 263.132062 
z
" clip-path="url(#pe46f2077c0)" style="fill: #ff7f0e"/>
   </g>
   <g id="patch_26">
    <path d="M 123.937703 276.234878 
L 131.260737 276.234878 
L 131.260737 260.281328 
L 123.937703 260.281328 
z
" clip-path="url(#pe46f2077c0)" style="fill: #ff7f0e"/>
   </g>
   <g id="patch_27">
    <path d="M 140.639361 273.631464 
L 147.962396 273.631464 
L 147.962396 257.66727 
L 140.639361 257.66727 
z
" clip-path="url(#pe46f2077c0)" style="fill: #ff7f0e"/>
   </g>
   <g id="patch_28">
    <path d="M 157.34102 271.199379 
L 164.664054 271.199379 
L 164.664054 255.233874 
L 157.34102 255.233874 
z
" clip-path="url(#pe46f2077c0)" style="fill: #ff7f0e"/>
   </g>
   <g id="patch_29">
    <path d="M 174.042678 268.906382 
L 181.365713 268.906382 
L 181.365713 252.945888 
L 174.042678 252.945888 
z
" clip-path="url(#pe46f2077c0)" style="fill: #ff7f0e"/>
   </g>
   <g id="patch_30">
    <path d="M 190.744336 266.730419 
L 198.067371 266.730419 
L 198.067371 250.779386 
L 190.744336 250.779386 
z
" clip-path="url(#pe46f2077c0)" style="fill: #ff7f0e"/>
   </g>
   <g id="patch_31">
    <path d="M 207.445995 264.655531 
L 214.76903 264.655531 
L 214.76903 248.717177 
L 207.445995 248.717177 
z
" clip-path="url(#pe46f2077c0)" style="fill: #ff7f0e"/>
   </g>
   <g id="patch_32">
    <path d="M 224.147653 262.669658 
L 231.470688 262.669658 
L 231.470688 246.746357 
L 224.147653 246.746357 
z
" clip-path="url(#pe46f2077c0)" style="fill: #ff7f0e"/>
   </g>
   <g id="patch_33">
    <path d="M 240.849312 260.763365 
L 248.172347 260.763365 
L 248.172347 244.856888 
L 240.849312 244.856888 
z
" clip-path="url(#pe46f2077c0)" style="fill: #ff7f0e"/>
   </g>
   <g id="patch_34">
    <path d="M 257.55097 258.929057 
L 264.874005 258.929057 
L 264.874005 243.040739 
L 257.55097 243.040739 
z
" clip-path="url(#pe46f2077c0)" style="fill: #ff7f0e"/>
   </g>
   <g id="patch_35">
    <path d="M 274.252629 257.160484 
L 281.575664 257.160484 
L 281.575664 241.291331 
L 274.252629 241.291331 
z
" clip-path="url(#pe46f2077c0)" style="fill: #ff7f0e"/>
   </g>
   <g id="patch_36">
    <path d="M 290.954287 255.452398 
L 298.277322 255.452398 
L 298.277322 239.603166 
L 290.954287 239.603166 
z
" clip-path="url(#pe46f2077c0)" style="fill: #ff7f0e"/>
   </g>
   <g id="patch_37">
    <path d="M 307.655946 253.800321 
L 314.97898 253.800321 
L 314.97898 237.971576 
L 307.655946 237.971576 
z
" clip-path="url(#pe46f2077c0)" style="fill: #ff7f0e"/>
   </g>
   <g id="patch_38">
    <path d="M 324.357604 252.200386 
L 331.680639 252.200386 
L 331.680639 236.39254 
L 324.357604 236.39254 
z
" clip-path="url(#pe46f2077c0)" style="fill: #ff7f0e"/>
   </g>
   <g id="patch_39">
    <path d="M 341.059263 250.649204 
L 348.382297 250.649204 
L 348.382297 234.862555 
L 341.059263 234.862555 
z
" clip-path="url(#pe46f2077c0)" style="fill: #ff7f0e"/>
   </g>
   <g id="patch_40">
    <path d="M 357.760921 249.143786 
L 365.083956 249.143786 
L 365.083956 233.378532 
L 357.760921 233.378532 
z
" clip-path="url(#pe46f2077c0)" style="fill: #ff7f0e"/>
   </g>
   <g id="patch_41">
    <path d="M 374.462579 247.681466 
L 381.785614 247.681466 
L 381.785614 231.937733 
L 374.462579 231.937733 
z
" clip-path="url(#pe46f2077c0)" style="fill: #ff7f0e"/>
   </g>
   <g id="patch_42">
    <path d="M 391.164238 246.25985 
L 398.487273 246.25985 
L 398.487273 230.5377 
L 391.164238 230.5377 
z
" clip-path="url(#pe46f2077c0)" style="fill: #ff7f0e"/>
   </g>
   <g id="patch_43">
    <path d="M 73.832727 270.044107 
L 81.155762 270.044107 
L 81.155762 234.778061 
L 73.832727 234.778061 
z
" clip-path="url(#pe46f2077c0)" style="fill: #2ca02c"/>
   </g>
   <g id="patch_44">
    <path d="M 90.534386 266.318322 
L 97.857421 266.318322 
L 97.857421 235.178441 
L 90.534386 235.178441 
z
" clip-path="url(#pe46f2077c0)" style="fill: #2ca02c"/>
   </g>
   <g id="patch_45">
    <path d="M 107.236044 263.132062 
L 114.559079 263.132062 
L 114.559079 234.371715 
L 107.236044 234.371715 
z
" clip-path="url(#pe46f2077c0)" style="fill: #2ca02c"/>
   </g>
   <g id="patch_46">
    <path d="M 123.937703 260.281328 
L 131.260737 260.281328 
L 131.260737 233.02902 
L 123.937703 233.02902 
z
" clip-path="url(#pe46f2077c0)" style="fill: #2ca02c"/>
   </g>
   <g id="patch_47">
    <path d="M 140.639361 257.66727 
L 147.962396 257.66727 
L 147.962396 231.416864 
L 140.639361 231.416864 
z
" clip-path="url(#pe46f2077c0)" style="fill: #2ca02c"/>
   </g>
   <g id="patch_48">
    <path d="M 157.34102 255.233874 
L 164.664054 255.233874 
L 164.664054 229.661939 
L 157.34102 229.661939 
z
" clip-path="url(#pe46f2077c0)" style="fill: #2ca02c"/>
   </g>
   <g id="patch_49">
    <path d="M 174.042678 252.945888 
L 181.365713 252.945888 
L 181.365713 227.831745 
L 174.042678 227.831745 
z
" clip-path="url(#pe46f2077c0)" style="fill: #2ca02c"/>
   </g>
   <g id="patch_50">
    <path d="M 190.744336 250.779386 
L 198.067371 250.779386 
L 198.067371 225.965117 
L 190.744336 225.965117 
z
" clip-path="url(#pe46f2077c0)" style="fill: #2ca02c"/>
   </g>
   <g id="patch_51">
    <path d="M 207.445995 248.717177 
L 214.76903 248.717177 
L 214.76903 224.085632 
L 207.445995 224.085632 
z
" clip-path="url(#pe46f2077c0)" style="fill: #2ca02c"/>
   </g>
   <g id="patch_52">
    <path d="M 224.147653 246.746357 
L 231.470688 246.746357 
L 231.470688 222.208144 
L 224.147653 222.208144 
z
" clip-path="url(#pe46f2077c0)" style="fill: #2ca02c"/>
   </g>
   <g id="patch_53">
    <path d="M 240.849312 244.856888 
L 248.172347 244.856888 
L 248.172347 220.342239 
L 240.849312 220.342239 
z
" clip-path="url(#pe46f2077c0)" style="fill: #2ca02c"/>
   </g>
   <g id="patch_54">
    <path d="M 257.55097 243.040739 
L 264.874005 243.040739 
L 264.874005 218.494193 
L 257.55097 218.494193 
z
" clip-path="url(#pe46f2077c0)" style="fill: #2ca02c"/>
   </g>
   <g id="patch_55">
    <path d="M 274.252629 241.291331 
L 281.575664 241.291331 
L 281.575664 216.668123 
L 274.252629 216.668123 
z
" clip-path="url(#pe46f2077c0)" style="fill: #2ca02c"/>
   </g>
   <g id="patch_56">
    <path d="M 290.954287 239.603166 
L 298.277322 239.603166 
L 298.277322 214.8667 
L 290.954287 214.8667 
z
" clip-path="url(#pe46f2077c0)" style="fill: #2ca02c"/>
   </g>
   <g id="patch_57">
    <path d="M 307.655946 237.971576 
L 314.97898 237.971576 
L 314.97898 213.09161 
L 307.655946 213.09161 
z
" clip-path="url(#pe46f2077c0)" style="fill: #2ca02c"/>
   </g>
   <g id="patch_58">
    <path d="M 324.357604 236.39254 
L 331.680639 236.39254 
L 331.680639 211.343851 
L 324.357604 211.343851 
z
" clip-path="url(#pe46f2077c0)" style="fill: #2ca02c"/>
   </g>
   <g id="patch_59">
    <path d="M 341.059263 234.862555 
L 348.382297 234.862555 
L 348.382297 209.62394 
L 341.059263 209.62394 
z
" clip-path="url(#pe46f2077c0)" style="fill: #2ca02c"/>
   </g>
   <g id="patch_60">
    <path d="M 357.760921 233.378532 
L 365.083956 233.378532 
L 365.083956 207.932048 
L 357.760921 207.932048 
z
" clip-path="url(#pe46f2077c0)" style="fill: #2ca02c"/>
   </g>
   <g id="patch_61">
    <path d="M 374.462579 231.937733 
L 381.785614 231.937733 
L 381.785614 206.268103 
L 374.462579 206.268103 
z
" clip-path="url(#pe46f2077c0)" style="fill: #2ca02c"/>
   </g>
   <g id="patch_62">
    <path d="M 391.164238 230.5377 
L 398.487273 230.5377 
L 398.487273 204.631857 
L 391.164238 204.631857 
z
" clip-path="url(#pe46f2077c0)" style="fill: #2ca02c"/>
   </g>
   <g id="patch_63">
    <path d="M 73.832727 234.778061 
L 81.155762 234.778061 
L 81.155762 205.398329 
L 73.832727 205.398329 
z
" clip-path="url(#pe46f2077c0)" style="fill: #d62728"/>
   </g>
   <g id="patch_64">
    <path d="M 90.534386 235.178441 
L 97.857421 235.178441 
L 97.857421 205.615537 
L 90.534386 205.615537 
z
" clip-path="url(#pe46f2077c0)" style="fill: #d62728"/>
   </g>
   <g id="patch_65">
    <path d="M 107.236044 234.371715 
L 114.559079 234.371715 
L 114.559079 204.715695 
L 107.236044 204.715695 
z
" clip-path="url(#pe46f2077c0)" style="fill: #d62728"/>
   </g>
   <g id="patch_66">
    <path d="M 123.937703 233.02902 
L 131.260737 233.02902 
L 131.260737 203.326034 
L 123.937703 203.326034 
z
" clip-path="url(#pe46f2077c0)" style="fill: #d62728"/>
   </g>
   <g id="patch_67">
    <path d="M 140.639361 231.416864 
L 147.962396 231.416864 
L 147.962396 201.69406 
L 140.639361 201.69406 
z
" clip-path="url(#pe46f2077c0)" style="fill: #d62728"/>
   </g>
   <g id="patch_68">
    <path d="M 157.34102 229.661939 
L 164.664054 229.661939 
L 164.664054 199.936696 
L 157.34102 199.936696 
z
" clip-path="url(#pe46f2077c0)" style="fill: #d62728"/>
   </g>
   <g id="patch_69">
    <path d="M 174.042678 227.831745 
L 181.365713 227.831745 
L 181.365713 198.115831 
L 174.042678 198.115831 
z
" clip-path="url(#pe46f2077c0)" style="fill: #d62728"/>
   </g>
   <g id="patch_70">
    <path d="M 190.744336 225.965117 
L 198.067371 225.965117 
L 198.067371 196.266817 
L 190.744336 196.266817 
z
" clip-path="url(#pe46f2077c0)" style="fill: #d62728"/>
   </g>
   <g id="patch_71">
    <path d="M 207.445995 224.085632 
L 214.76903 224.085632 
L 214.76903 194.410939 
L 207.445995 194.410939 
z
" clip-path="url(#pe46f2077c0)" style="fill: #d62728"/>
   </g>
   <g id="patch_72">
    <path d="M 224.147653 222.208144 
L 231.470688 222.208144 
L 231.470688 192.561476 
L 224.147653 192.561476 
z
" clip-path="url(#pe46f2077c0)" style="fill: #d62728"/>
   </g>
   <g id="patch_73">
    <path d="M 240.849312 220.342239 
L 248.172347 220.342239 
L 248.172347 190.726897 
L 240.849312 190.726897 
z
" clip-path="url(#pe46f2077c0)" style="fill: #d62728"/>
   </g>
   <g id="patch_74">
    <path d="M 257.55097 218.494193 
L 264.874005 218.494193 
L 264.874005 188.91266 
L 257.55097 188.91266 
z
" clip-path="url(#pe46f2077c0)" style="fill: #d62728"/>
   </g>
   <g id="patch_75">
    <path d="M 274.252629 216.668123 
L 281.575664 216.668123 
L 281.575664 187.122271 
L 274.252629 187.122271 
z
" clip-path="url(#pe46f2077c0)" style="fill: #d62728"/>
   </g>
   <g id="patch_76">
    <path d="M 290.954287 214.8667 
L 298.277322 214.8667 
L 298.277322 185.357939 
L 290.954287 185.357939 
z
" clip-path="url(#pe46f2077c0)" style="fill: #d62728"/>
   </g>
   <g id="patch_77">
    <path d="M 307.655946 213.09161 
L 314.97898 213.09161 
L 314.97898 183.620991 
L 307.655946 183.620991 
z
" clip-path="url(#pe46f2077c0)" style="fill: #d62728"/>
   </g>
   <g id="patch_78">
    <path d="M 324.357604 211.343851 
L 331.680639 211.343851 
L 331.680639 181.912145 
L 324.357604 181.912145 
z
" clip-path="url(#pe46f2077c0)" style="fill: #d62728"/>
   </g>
   <g id="patch_79">
    <path d="M 341.059263 209.62394 
L 348.382297 209.62394 
L 348.382297 180.231696 
L 341.059263 180.231696 
z
" clip-path="url(#pe46f2077c0)" style="fill: #d62728"/>
   </g>
   <g id="patch_80">
    <path d="M 357.760921 207.932048 
L 365.083956 207.932048 
L 365.083956 178.57964 
L 357.760921 178.57964 
z
" clip-path="url(#pe46f2077c0)" style="fill: #d62728"/>
   </g>
   <g id="patch_81">
    <path d="M 374.462579 206.268103 
L 381.785614 206.268103 
L 381.785614 176.955762 
L 374.462579 176.955762 
z
" clip-path="url(#pe46f2077c0)" style="fill: #d62728"/>
   </g>
   <g id="patch_82">
    <path d="M 391.164238 204.631857 
L 398.487273 204.631857 
L 398.487273 175.359702 
L 391.164238 175.359702 
z
" clip-path="url(#pe46f2077c0)" style="fill: #d62728"/>
   </g>
   <g id="patch_83">
    <path d="M 73.832727 205.398329 
L 81.155762 205.398329 
L 81.155762 165.889021 
L 73.832727 165.889021 
z
" clip-path="url(#pe46f2077c0)" style="fill: #9467bd"/>
   </g>
   <g id="patch_84">
    <path d="M 90.534386 205.615537 
L 97.857421 205.615537 
L 97.857421 165.8599 
L 90.534386 165.8599 
z
" clip-path="url(#pe46f2077c0)" style="fill: #9467bd"/>
   </g>
   <g id="patch_85">
    <path d="M 107.236044 204.715695 
L 114.559079 204.715695 
L 114.559079 164.834838 
L 107.236044 164.834838 
z
" clip-path="url(#pe46f2077c0)" style="fill: #9467bd"/>
   </g>
   <g id="patch_86">
    <path d="M 123.937703 203.326034 
L 131.260737 203.326034 
L 131.260737 163.382019 
L 123.937703 163.382019 
z
" clip-path="url(#pe46f2077c0)" style="fill: #9467bd"/>
   </g>
   <g id="patch_87">
    <path d="M 140.639361 201.69406 
L 147.962396 201.69406 
L 147.962396 161.723394 
L 140.639361 161.723394 
z
" clip-path="url(#pe46f2077c0)" style="fill: #9467bd"/>
   </g>
   <g id="patch_88">
    <path d="M 157.34102 199.936696 
L 164.664054 199.936696 
L 164.664054 159.962751 
L 157.34102 159.962751 
z
" clip-path="url(#pe46f2077c0)" style="fill: #9467bd"/>
   </g>
   <g id="patch_89">
    <path d="M 174.042678 198.115831 
L 181.365713 198.115831 
L 181.365713 158.154432 
L 174.042678 158.154432 
z
" clip-path="url(#pe46f2077c0)" style="fill: #9467bd"/>
   </g>
   <g id="patch_90">
    <path d="M 190.744336 196.266817 
L 198.067371 196.266817 
L 198.067371 156.329105 
L 190.744336 156.329105 
z
" clip-path="url(#pe46f2077c0)" style="fill: #9467bd"/>
   </g>
   <g id="patch_91">
    <path d="M 207.445995 194.410939 
L 214.76903 194.410939 
L 214.76903 154.504973 
L 207.445995 154.504973 
z
" clip-path="url(#pe46f2077c0)" style="fill: #9467bd"/>
   </g>
   <g id="patch_92">
    <path d="M 224.147653 192.561476 
L 231.470688 192.561476 
L 231.470688 152.693197 
L 224.147653 152.693197 
z
" clip-path="url(#pe46f2077c0)" style="fill: #9467bd"/>
   </g>
   <g id="patch_93">
    <path d="M 240.849312 190.726897 
L 248.172347 190.726897 
L 248.172347 150.900744 
L 240.849312 150.900744 
z
" clip-path="url(#pe46f2077c0)" style="fill: #9467bd"/>
   </g>
   <g id="patch_94">
    <path d="M 257.55097 188.91266 
L 264.874005 188.91266 
L 264.874005 149.131972 
L 257.55097 149.131972 
z
" clip-path="url(#pe46f2077c0)" style="fill: #9467bd"/>
   </g>
   <g id="patch_95">
    <path d="M 274.252629 187.122271 
L 281.575664 187.122271 
L 281.575664 147.389568 
L 274.252629 147.389568 
z
" clip-path="url(#pe46f2077c0)" style="fill: #9467bd"/>
   </g>
   <g id="patch_96">
    <path d="M 290.954287 185.357939 
L 298.277322 185.357939 
L 298.277322 145.675115 
L 290.954287 145.675115 
z
" clip-path="url(#pe46f2077c0)" style="fill: #9467bd"/>
   </g>
   <g id="patch_97">
    <path d="M 307.655946 183.620991 
L 314.97898 183.620991 
L 314.97898 143.989459 
L 307.655946 143.989459 
z
" clip-path="url(#pe46f2077c0)" style="fill: #9467bd"/>
   </g>
   <g id="patch_98">
    <path d="M 324.357604 181.912145 
L 331.680639 181.912145 
L 331.680639 142.332943 
L 324.357604 142.332943 
z
" clip-path="url(#pe46f2077c0)" style="fill: #9467bd"/>
   </g>
   <g id="patch_99">
    <path d="M 341.059263 180.231696 
L 348.382297 180.231696 
L 348.382297 140.705562 
L 341.059263 140.705562 
z
" clip-path="url(#pe46f2077c0)" style="fill: #9467bd"/>
   </g>
   <g id="patch_100">
    <path d="M 357.760921 178.57964 
L 365.083956 178.57964 
L 365.083956 139.107076 
L 357.760921 139.107076 
z
" clip-path="url(#pe46f2077c0)" style="fill: #9467bd"/>
   </g>
   <g id="patch_101">
    <path d="M 374.462579 176.955762 
L 381.785614 176.955762 
L 381.785614 137.537081 
L 374.462579 137.537081 
z
" clip-path="url(#pe46f2077c0)" style="fill: #9467bd"/>
   </g>
   <g id="patch_102">
    <path d="M 391.164238 175.359702 
L 398.487273 175.359702 
L 398.487273 135.995062 
L 391.164238 135.995062 
z
" clip-path="url(#pe46f2077c0)" style="fill: #9467bd"/>
   </g>
   <g id="patch_103">
    <path d="M 73.832727 165.889021 
L 81.155762 165.889021 
L 81.155762 117.10093 
L 73.832727 117.10093 
z
" clip-path="url(#pe46f2077c0)" style="fill: #8c564b"/>
   </g>
   <g id="patch_104">
    <path d="M 90.534386 165.8599 
L 97.857421 165.8599 
L 97.857421 118.526366 
L 90.534386 118.526366 
z
" clip-path="url(#pe46f2077c0)" style="fill: #8c564b"/>
   </g>
   <g id="patch_105">
    <path d="M 107.236044 164.834838 
L 114.559079 164.834838 
L 114.559079 118.33789 
L 107.236044 118.33789 
z
" clip-path="url(#pe46f2077c0)" style="fill: #8c564b"/>
   </g>
   <g id="patch_106">
    <path d="M 123.937703 163.382019 
L 131.260737 163.382019 
L 131.260737 117.402587 
L 123.937703 117.402587 
z
" clip-path="url(#pe46f2077c0)" style="fill: #8c564b"/>
   </g>
   <g id="patch_107">
    <path d="M 140.639361 161.723394 
L 147.962396 161.723394 
L 147.962396 116.072249 
L 140.639361 116.072249 
z
" clip-path="url(#pe46f2077c0)" style="fill: #8c564b"/>
   </g>
   <g id="patch_108">
    <path d="M 157.34102 159.962751 
L 164.664054 159.962751 
L 164.664054 114.517604 
L 157.34102 114.517604 
z
" clip-path="url(#pe46f2077c0)" style="fill: #8c564b"/>
   </g>
   <g id="patch_109">
    <path d="M 174.042678 158.154432 
L 181.365713 158.154432 
L 181.365713 112.831553 
L 174.042678 112.831553 
z
" clip-path="url(#pe46f2077c0)" style="fill: #8c564b"/>
   </g>
   <g id="patch_110">
    <path d="M 190.744336 156.329105 
L 198.067371 156.329105 
L 198.067371 111.068778 
L 190.744336 111.068778 
z
" clip-path="url(#pe46f2077c0)" style="fill: #8c564b"/>
   </g>
   <g id="patch_111">
    <path d="M 207.445995 154.504973 
L 214.76903 154.504973 
L 214.76903 109.263315 
L 207.445995 109.263315 
z
" clip-path="url(#pe46f2077c0)" style="fill: #8c564b"/>
   </g>
   <g id="patch_112">
    <path d="M 224.147653 152.693197 
L 231.470688 152.693197 
L 231.470688 107.437235 
L 224.147653 107.437235 
z
" clip-path="url(#pe46f2077c0)" style="fill: #8c564b"/>
   </g>
   <g id="patch_113">
    <path d="M 240.849312 150.900744 
L 248.172347 150.900744 
L 248.172347 105.605279 
L 240.849312 105.605279 
z
" clip-path="url(#pe46f2077c0)" style="fill: #8c564b"/>
   </g>
   <g id="patch_114">
    <path d="M 257.55097 149.131972 
L 264.874005 149.131972 
L 264.874005 103.777507 
L 257.55097 103.777507 
z
" clip-path="url(#pe46f2077c0)" style="fill: #8c564b"/>
   </g>
   <g id="patch_115">
    <path d="M 274.252629 147.389568 
L 281.575664 147.389568 
L 281.575664 101.960878 
L 274.252629 101.960878 
z
" clip-path="url(#pe46f2077c0)" style="fill: #8c564b"/>
   </g>
   <g id="patch_116">
    <path d="M 290.954287 145.675115 
L 298.277322 145.675115 
L 298.277322 100.160241 
L 290.954287 100.160241 
z
" clip-path="url(#pe46f2077c0)" style="fill: #8c564b"/>
   </g>
   <g id="patch_117">
    <path d="M 307.655946 143.989459 
L 314.97898 143.989459 
L 314.97898 98.378973 
L 307.655946 98.378973 
z
" clip-path="url(#pe46f2077c0)" style="fill: #8c564b"/>
   </g>
   <g id="patch_118">
    <path d="M 324.357604 142.332943 
L 331.680639 142.332943 
L 331.680639 96.619408 
L 324.357604 96.619408 
z
" clip-path="url(#pe46f2077c0)" style="fill: #8c564b"/>
   </g>
   <g id="patch_119">
    <path d="M 341.059263 140.705562 
L 348.382297 140.705562 
L 348.382297 94.883124 
L 341.059263 94.883124 
z
" clip-path="url(#pe46f2077c0)" style="fill: #8c564b"/>
   </g>
   <g id="patch_120">
    <path d="M 357.760921 139.107076 
L 365.083956 139.107076 
L 365.083956 93.171151 
L 357.760921 93.171151 
z
" clip-path="url(#pe46f2077c0)" style="fill: #8c564b"/>
   </g>
   <g id="patch_121">
    <path d="M 374.462579 137.537081 
L 381.785614 137.537081 
L 381.785614 91.484111 
L 374.462579 91.484111 
z
" clip-path="url(#pe46f2077c0)" style="fill: #8c564b"/>
   </g>
   <g id="patch_122">
    <path d="M 391.164238 135.995062 
L 398.487273 135.995062 
L 398.487273 89.822326 
L 391.164238 89.822326 
z
" clip-path="url(#pe46f2077c0)" style="fill: #8c564b"/>
   </g>
   <g id="patch_123">
    <path d="M 73.832727 117.10093 
L 81.155762 117.10093 
L 81.155762 68.734935 
L 73.832727 68.734935 
z
" clip-path="url(#pe46f2077c0)" style="fill: #e377c2"/>
   </g>
   <g id="patch_124">
    <path d="M 90.534386 118.526366 
L 97.857421 118.526366 
L 97.857421 71.647132 
L 90.534386 71.647132 
z
" clip-path="url(#pe46f2077c0)" style="fill: #e377c2"/>
   </g>
   <g id="patch_125">
    <path d="M 107.236044 118.33789 
L 114.559079 118.33789 
L 114.559079 72.69715 
L 107.236044 72.69715 
z
" clip-path="url(#pe46f2077c0)" style="fill: #e377c2"/>
   </g>
   <g id="patch_126">
    <path d="M 123.937703 117.402587 
L 131.260737 117.402587 
L 131.260737 72.828155 
L 123.937703 72.828155 
z
" clip-path="url(#pe46f2077c0)" style="fill: #e377c2"/>
   </g>
   <g id="patch_127">
    <path d="M 140.639361 116.072249 
L 147.962396 116.072249 
L 147.962396 72.43828 
L 140.639361 72.43828 
z
" clip-path="url(#pe46f2077c0)" style="fill: #e377c2"/>
   </g>
   <g id="patch_128">
    <path d="M 157.34102 114.517604 
L 164.664054 114.517604 
L 164.664054 71.727823 
L 157.34102 71.727823 
z
" clip-path="url(#pe46f2077c0)" style="fill: #e377c2"/>
   </g>
   <g id="patch_129">
    <path d="M 174.042678 112.831553 
L 181.365713 112.831553 
L 181.365713 70.809624 
L 174.042678 70.809624 
z
" clip-path="url(#pe46f2077c0)" style="fill: #e377c2"/>
   </g>
   <g id="patch_130">
    <path d="M 190.744336 111.068778 
L 198.067371 111.068778 
L 198.067371 69.752449 
L 190.744336 69.752449 
z
" clip-path="url(#pe46f2077c0)" style="fill: #e377c2"/>
   </g>
   <g id="patch_131">
    <path d="M 207.445995 109.263315 
L 214.76903 109.263315 
L 214.76903 68.600673 
L 207.445995 68.600673 
z
" clip-path="url(#pe46f2077c0)" style="fill: #e377c2"/>
   </g>
   <g id="patch_132">
    <path d="M 224.147653 107.437235 
L 231.470688 107.437235 
L 231.470688 67.384198 
L 224.147653 67.384198 
z
" clip-path="url(#pe46f2077c0)" style="fill: #e377c2"/>
   </g>
   <g id="patch_133">
    <path d="M 240.849312 105.605279 
L 248.172347 105.605279 
L 248.172347 66.123855 
L 240.849312 66.123855 
z
" clip-path="url(#pe46f2077c0)" style="fill: #e377c2"/>
   </g>
   <g id="patch_134">
    <path d="M 257.55097 103.777507 
L 264.874005 103.777507 
L 264.874005 64.834541 
L 257.55097 64.834541 
z
" clip-path="url(#pe46f2077c0)" style="fill: #e377c2"/>
   </g>
   <g id="patch_135">
    <path d="M 274.252629 101.960878 
L 281.575664 101.960878 
L 281.575664 63.527131 
L 274.252629 63.527131 
z
" clip-path="url(#pe46f2077c0)" style="fill: #e377c2"/>
   </g>
   <g id="patch_136">
    <path d="M 290.954287 100.160241 
L 298.277322 100.160241 
L 298.277322 62.209692 
L 290.954287 62.209692 
z
" clip-path="url(#pe46f2077c0)" style="fill: #e377c2"/>
   </g>
   <g id="patch_137">
    <path d="M 307.655946 98.378973 
L 314.97898 98.378973 
L 314.97898 60.888285 
L 307.655946 60.888285 
z
" clip-path="url(#pe46f2077c0)" style="fill: #e377c2"/>
   </g>
   <g id="patch_138">
    <path d="M 324.357604 96.619408 
L 331.680639 96.619408 
L 331.680639 59.567506 
L 324.357604 59.567506 
z
" clip-path="url(#pe46f2077c0)" style="fill: #e377c2"/>
   </g>
   <g id="patch_139">
    <path d="M 341.059263 94.883124 
L 348.382297 94.883124 
L 348.382297 58.250866 
L 341.059263 58.250866 
z
" clip-path="url(#pe46f2077c0)" style="fill: #e377c2"/>
   </g>
   <g id="patch_140">
    <path d="M 357.760921 93.171151 
L 365.083956 93.171151 
L 365.083956 56.941052 
L 357.760921 56.941052 
z
" clip-path="url(#pe46f2077c0)" style="fill: #e377c2"/>
   </g>
   <g id="patch_141">
    <path d="M 374.462579 91.484111 
L 381.785614 91.484111 
L 381.785614 55.640129 
L 374.462579 55.640129 
z
" clip-path="url(#pe46f2077c0)" style="fill: #e377c2"/>
   </g>
   <g id="patch_142">
    <path d="M 391.164238 89.822326 
L 398.487273 89.822326 
L 398.487273 54.349676 
L 391.164238 54.349676 
z
" clip-path="url(#pe46f2077c0)" style="fill: #e377c2"/>
   </g>
   <g id="patch_143">
    <path d="M 73.832727 68.734935 
L 81.155762 68.734935 
L 81.155762 56.905127 
L 73.832727 56.905127 
z
" clip-path="url(#pe46f2077c0)" style="fill: #7f7f7f"/>
   </g>
   <g id="patch_144">
    <path d="M 90.534386 71.647132 
L 97.857421 71.647132 
L 97.857421 61.606532 
L 90.534386 61.606532 
z
" clip-path="url(#pe46f2077c0)" style="fill: #7f7f7f"/>
   </g>
   <g id="patch_145">
    <path d="M 107.236044 72.69715 
L 114.559079 72.69715 
L 114.559079 63.996484 
L 107.236044 63.996484 
z
" clip-path="url(#pe46f2077c0)" style="fill: #7f7f7f"/>
   </g>
   <g id="patch_146">
    <path d="M 123.937703 72.828155 
L 131.260737 72.828155 
L 131.260737 65.201916 
L 123.937703 65.201916 
z
" clip-path="url(#pe46f2077c0)" style="fill: #7f7f7f"/>
   </g>
   <g id="patch_147">
    <path d="M 140.639361 72.43828 
L 147.962396 72.43828 
L 147.962396 65.710585 
L 140.639361 65.710585 
z
" clip-path="url(#pe46f2077c0)" style="fill: #7f7f7f"/>
   </g>
   <g id="patch_148">
    <path d="M 157.34102 71.727823 
L 164.664054 71.727823 
L 164.664054 65.773176 
L 157.34102 65.773176 
z
" clip-path="url(#pe46f2077c0)" style="fill: #7f7f7f"/>
   </g>
   <g id="patch_149">
    <path d="M 174.042678 70.809624 
L 181.365713 70.809624 
L 181.365713 65.533712 
L 174.042678 65.533712 
z
" clip-path="url(#pe46f2077c0)" style="fill: #7f7f7f"/>
   </g>
   <g id="patch_150">
    <path d="M 190.744336 69.752449 
L 198.067371 69.752449 
L 198.067371 65.081629 
L 190.744336 65.081629 
z
" clip-path="url(#pe46f2077c0)" style="fill: #7f7f7f"/>
   </g>
   <g id="patch_151">
    <path d="M 207.445995 68.600673 
L 214.76903 68.600673 
L 214.76903 64.475736 
L 207.445995 64.475736 
z
" clip-path="url(#pe46f2077c0)" style="fill: #7f7f7f"/>
   </g>
   <g id="patch_152">
    <path d="M 224.147653 67.384198 
L 231.470688 67.384198 
L 231.470688 63.756428 
L 224.147653 63.756428 
z
" clip-path="url(#pe46f2077c0)" style="fill: #7f7f7f"/>
   </g>
   <g id="patch_153">
    <path d="M 240.849312 66.123855 
L 248.172347 66.123855 
L 248.172347 62.952415 
L 240.849312 62.952415 
z
" clip-path="url(#pe46f2077c0)" style="fill: #7f7f7f"/>
   </g>
   <g id="patch_154">
    <path d="M 257.55097 64.834541 
L 264.874005 64.834541 
L 264.874005 62.084665 
L 257.55097 62.084665 
z
" clip-path="url(#pe46f2077c0)" style="fill: #7f7f7f"/>
   </g>
   <g id="patch_155">
    <path d="M 274.252629 63.527131 
L 281.575664 63.527131 
L 281.575664 61.168838 
L 274.252629 61.168838 
z
" clip-path="url(#pe46f2077c0)" style="fill: #7f7f7f"/>
   </g>
   <g id="patch_156">
    <path d="M 290.954287 62.209692 
L 298.277322 62.209692 
L 298.277322 60.216844 
L 290.954287 60.216844 
z
" clip-path="url(#pe46f2077c0)" style="fill: #7f7f7f"/>
   </g>
   <g id="patch_157">
    <path d="M 307.655946 60.888285 
L 314.97898 60.888285 
L 314.97898 59.237878 
L 307.655946 59.237878 
z
" clip-path="url(#pe46f2077c0)" style="fill: #7f7f7f"/>
   </g>
   <g id="patch_158">
    <path d="M 324.357604 59.567506 
L 331.680639 59.567506 
L 331.680639 58.239126 
L 324.357604 58.239126 
z
" clip-path="url(#pe46f2077c0)" style="fill: #7f7f7f"/>
   </g>
   <g id="patch_159">
    <path d="M 341.059263 58.250866 
L 348.382297 58.250866 
L 348.382297 57.226266 
L 341.059263 57.226266 
z
" clip-path="url(#pe46f2077c0)" style="fill: #7f7f7f"/>
   </g>
   <g id="patch_160">
    <path d="M 357.760921 56.941052 
L 365.083956 56.941052 
L 365.083956 56.203822 
L 357.760921 56.203822 
z
" clip-path="url(#pe46f2077c0)" style="fill: #7f7f7f"/>
   </g>
   <g id="patch_161">
    <path d="M 374.462579 55.640129 
L 381.785614 55.640129 
L 381.785614 55.175424 
L 374.462579 55.175424 
z
" clip-path="url(#pe46f2077c0)" style="fill: #7f7f7f"/>
   </g>
   <g id="patch_162">
    <path d="M 391.164238 54.349676 
L 398.487273 54.349676 
L 398.487273 54.144 
L 391.164238 54.144 
z
" clip-path="url(#pe46f2077c0)" style="fill: #7f7f7f"/>
   </g>
   <g id="matplotlib.axis_1">
    <g id="xtick_1">
     <g id="line2d_1">
      <defs>
       <path id="m30db1e2c0f" d="M 0 0 
L 0 3.5 
" style="stroke: #000000; stroke-width: 0.8"/>
      </defs>
      <g>
       <use xlink:href="#m30db1e2c0f" x="77.494245" y="307.584" style="stroke: #000000; stroke-width: 0.8"/>
      </g>
     </g>
     <g id="text_1">
      <!-- 40.0 -->
      <g transform="translate(57.455182 328.261187) scale(0.18 -0.18)">
       <defs>
        <path id="DejaVuSans-34" d="M 2419 4116 
L 825 1625 
L 2419 1625 
L 2419 4116 
z
M 2253 4666 
L 3047 4666 
L 3047 1625 
L 3713 1625 
L 3713 1100 
L 3047 1100 
L 3047 0 
L 2419 0 
L 2419 1100 
L 313 1100 
L 313 1709 
L 2253 4666 
z
" transform="scale(0.015625)"/>
        <path id="DejaVuSans-30" d="M 2034 4250 
Q 1547 4250 1301 3770 
Q 1056 3291 1056 2328 
Q 1056 1369 1301 889 
Q 1547 409 2034 409 
Q 2525 409 2770 889 
Q 3016 1369 3016 2328 
Q 3016 3291 2770 3770 
Q 2525 4250 2034 4250 
z
M 2034 4750 
Q 2819 4750 3233 4129 
Q 3647 3509 3647 2328 
Q 3647 1150 3233 529 
Q 2819 -91 2034 -91 
Q 1250 -91 836 529 
Q 422 1150 422 2328 
Q 422 3509 836 4129 
Q 1250 4750 2034 4750 
z
" transform="scale(0.015625)"/>
        <path id="DejaVuSans-2e" d="M 684 794 
L 1344 794 
L 1344 0 
L 684 0 
L 684 794 
z
" transform="scale(0.015625)"/>
       </defs>
       <use xlink:href="#DejaVuSans-34"/>
       <use xlink:href="#DejaVuSans-30" x="63.623047"/>
       <use xlink:href="#DejaVuSans-2e" x="127.246094"/>
       <use xlink:href="#DejaVuSans-30" x="159.033203"/>
      </g>
     </g>
    </g>
    <g id="xtick_2">
     <g id="line2d_2">
      <g>
       <use xlink:href="#m30db1e2c0f" x="138.519535" y="307.584" style="stroke: #000000; stroke-width: 0.8"/>
      </g>
     </g>
     <g id="text_2">
      <!-- 42.5 -->
      <g transform="translate(118.480473 328.261187) scale(0.18 -0.18)">
       <defs>
        <path id="DejaVuSans-32" d="M 1228 531 
L 3431 531 
L 3431 0 
L 469 0 
L 469 531 
Q 828 903 1448 1529 
Q 2069 2156 2228 2338 
Q 2531 2678 2651 2914 
Q 2772 3150 2772 3378 
Q 2772 3750 2511 3984 
Q 2250 4219 1831 4219 
Q 1534 4219 1204 4116 
Q 875 4013 500 3803 
L 500 4441 
Q 881 4594 1212 4672 
Q 1544 4750 1819 4750 
Q 2544 4750 2975 4387 
Q 3406 4025 3406 3419 
Q 3406 3131 3298 2873 
Q 3191 2616 2906 2266 
Q 2828 2175 2409 1742 
Q 1991 1309 1228 531 
z
" transform="scale(0.015625)"/>
        <path id="DejaVuSans-35" d="M 691 4666 
L 3169 4666 
L 3169 4134 
L 1269 4134 
L 1269 2991 
Q 1406 3038 1543 3061 
Q 1681 3084 1819 3084 
Q 2600 3084 3056 2656 
Q 3513 2228 3513 1497 
Q 3513 744 3044 326 
Q 2575 -91 1722 -91 
Q 1428 -91 1123 -41 
Q 819 9 494 109 
L 494 744 
Q 775 591 1075 516 
Q 1375 441 1709 441 
Q 2250 441 2565 725 
Q 2881 1009 2881 1497 
Q 2881 1984 2565 2268 
Q 2250 2553 1709 2553 
Q 1456 2553 1204 2497 
Q 953 2441 691 2322 
L 691 4666 
z
" transform="scale(0.015625)"/>
       </defs>
       <use xlink:href="#DejaVuSans-34"/>
       <use xlink:href="#DejaVuSans-32" x="63.623047"/>
       <use xlink:href="#DejaVuSans-2e" x="127.246094"/>
       <use xlink:href="#DejaVuSans-35" x="159.033203"/>
      </g>
     </g>
    </g>
    <g id="xtick_3">
     <g id="line2d_3">
      <g>
       <use xlink:href="#m30db1e2c0f" x="199.544826" y="307.584" style="stroke: #000000; stroke-width: 0.8"/>
      </g>
     </g>
     <g id="text_3">
      <!-- 45.0 -->
      <g transform="translate(179.505763 328.261187) scale(0.18 -0.18)">
       <use xlink:href="#DejaVuSans-34"/>
       <use xlink:href="#DejaVuSans-35" x="63.623047"/>
       <use xlink:href="#DejaVuSans-2e" x="127.246094"/>
       <use xlink:href="#DejaVuSans-30" x="159.033203"/>
      </g>
     </g>
    </g>
    <g id="xtick_4">
     <g id="line2d_4">
      <g>
       <use xlink:href="#m30db1e2c0f" x="260.570116" y="307.584" style="stroke: #000000; stroke-width: 0.8"/>
      </g>
     </g>
     <g id="text_4">
      <!-- 47.5 -->
      <g transform="translate(240.531054 328.261187) scale(0.18 -0.18)">
       <defs>
        <path id="DejaVuSans-37" d="M 525 4666 
L 3525 4666 
L 3525 4397 
L 1831 0 
L 1172 0 
L 2766 4134 
L 525 4134 
L 525 4666 
z
" transform="scale(0.015625)"/>
       </defs>
       <use xlink:href="#DejaVuSans-34"/>
       <use xlink:href="#DejaVuSans-37" x="63.623047"/>
       <use xlink:href="#DejaVuSans-2e" x="127.246094"/>
       <use xlink:href="#DejaVuSans-35" x="159.033203"/>
      </g>
     </g>
    </g>
    <g id="xtick_5">
     <g id="line2d_5">
      <g>
       <use xlink:href="#m30db1e2c0f" x="321.595407" y="307.584" style="stroke: #000000; stroke-width: 0.8"/>
      </g>
     </g>
     <g id="text_5">
      <!-- 50.0 -->
      <g transform="translate(301.556344 328.261187) scale(0.18 -0.18)">
       <use xlink:href="#DejaVuSans-35"/>
       <use xlink:href="#DejaVuSans-30" x="63.623047"/>
       <use xlink:href="#DejaVuSans-2e" x="127.246094"/>
       <use xlink:href="#DejaVuSans-30" x="159.033203"/>
      </g>
     </g>
    </g>
    <g id="xtick_6">
     <g id="line2d_6">
      <g>
       <use xlink:href="#m30db1e2c0f" x="382.620697" y="307.584" style="stroke: #000000; stroke-width: 0.8"/>
      </g>
     </g>
     <g id="text_6">
      <!-- 52.5 -->
      <g transform="translate(362.581635 328.261187) scale(0.18 -0.18)">
       <use xlink:href="#DejaVuSans-35"/>
       <use xlink:href="#DejaVuSans-32" x="63.623047"/>
       <use xlink:href="#DejaVuSans-2e" x="127.246094"/>
       <use xlink:href="#DejaVuSans-35" x="159.033203"/>
      </g>
     </g>
    </g>
    <g id="text_7">
     <!-- Kondensatordruck in bar -->
     <g transform="translate(125.630156 349.681812) scale(0.18 -0.18)">
      <defs>
       <path id="DejaVuSans-4b" d="M 628 4666 
L 1259 4666 
L 1259 2694 
L 3353 4666 
L 4166 4666 
L 1850 2491 
L 4331 0 
L 3500 0 
L 1259 2247 
L 1259 0 
L 628 0 
L 628 4666 
z
" transform="scale(0.015625)"/>
       <path id="DejaVuSans-6f" d="M 1959 3097 
Q 1497 3097 1228 2736 
Q 959 2375 959 1747 
Q 959 1119 1226 758 
Q 1494 397 1959 397 
Q 2419 397 2687 759 
Q 2956 1122 2956 1747 
Q 2956 2369 2687 2733 
Q 2419 3097 1959 3097 
z
M 1959 3584 
Q 2709 3584 3137 3096 
Q 3566 2609 3566 1747 
Q 3566 888 3137 398 
Q 2709 -91 1959 -91 
Q 1206 -91 779 398 
Q 353 888 353 1747 
Q 353 2609 779 3096 
Q 1206 3584 1959 3584 
z
" transform="scale(0.015625)"/>
       <path id="DejaVuSans-6e" d="M 3513 2113 
L 3513 0 
L 2938 0 
L 2938 2094 
Q 2938 2591 2744 2837 
Q 2550 3084 2163 3084 
Q 1697 3084 1428 2787 
Q 1159 2491 1159 1978 
L 1159 0 
L 581 0 
L 581 3500 
L 1159 3500 
L 1159 2956 
Q 1366 3272 1645 3428 
Q 1925 3584 2291 3584 
Q 2894 3584 3203 3211 
Q 3513 2838 3513 2113 
z
" transform="scale(0.015625)"/>
       <path id="DejaVuSans-64" d="M 2906 2969 
L 2906 4863 
L 3481 4863 
L 3481 0 
L 2906 0 
L 2906 525 
Q 2725 213 2448 61 
Q 2172 -91 1784 -91 
Q 1150 -91 751 415 
Q 353 922 353 1747 
Q 353 2572 751 3078 
Q 1150 3584 1784 3584 
Q 2172 3584 2448 3432 
Q 2725 3281 2906 2969 
z
M 947 1747 
Q 947 1113 1208 752 
Q 1469 391 1925 391 
Q 2381 391 2643 752 
Q 2906 1113 2906 1747 
Q 2906 2381 2643 2742 
Q 2381 3103 1925 3103 
Q 1469 3103 1208 2742 
Q 947 2381 947 1747 
z
" transform="scale(0.015625)"/>
       <path id="DejaVuSans-65" d="M 3597 1894 
L 3597 1613 
L 953 1613 
Q 991 1019 1311 708 
Q 1631 397 2203 397 
Q 2534 397 2845 478 
Q 3156 559 3463 722 
L 3463 178 
Q 3153 47 2828 -22 
Q 2503 -91 2169 -91 
Q 1331 -91 842 396 
Q 353 884 353 1716 
Q 353 2575 817 3079 
Q 1281 3584 2069 3584 
Q 2775 3584 3186 3129 
Q 3597 2675 3597 1894 
z
M 3022 2063 
Q 3016 2534 2758 2815 
Q 2500 3097 2075 3097 
Q 1594 3097 1305 2825 
Q 1016 2553 972 2059 
L 3022 2063 
z
" transform="scale(0.015625)"/>
       <path id="DejaVuSans-73" d="M 2834 3397 
L 2834 2853 
Q 2591 2978 2328 3040 
Q 2066 3103 1784 3103 
Q 1356 3103 1142 2972 
Q 928 2841 928 2578 
Q 928 2378 1081 2264 
Q 1234 2150 1697 2047 
L 1894 2003 
Q 2506 1872 2764 1633 
Q 3022 1394 3022 966 
Q 3022 478 2636 193 
Q 2250 -91 1575 -91 
Q 1294 -91 989 -36 
Q 684 19 347 128 
L 347 722 
Q 666 556 975 473 
Q 1284 391 1588 391 
Q 1994 391 2212 530 
Q 2431 669 2431 922 
Q 2431 1156 2273 1281 
Q 2116 1406 1581 1522 
L 1381 1569 
Q 847 1681 609 1914 
Q 372 2147 372 2553 
Q 372 3047 722 3315 
Q 1072 3584 1716 3584 
Q 2034 3584 2315 3537 
Q 2597 3491 2834 3397 
z
" transform="scale(0.015625)"/>
       <path id="DejaVuSans-61" d="M 2194 1759 
Q 1497 1759 1228 1600 
Q 959 1441 959 1056 
Q 959 750 1161 570 
Q 1363 391 1709 391 
Q 2188 391 2477 730 
Q 2766 1069 2766 1631 
L 2766 1759 
L 2194 1759 
z
M 3341 1997 
L 3341 0 
L 2766 0 
L 2766 531 
Q 2569 213 2275 61 
Q 1981 -91 1556 -91 
Q 1019 -91 701 211 
Q 384 513 384 1019 
Q 384 1609 779 1909 
Q 1175 2209 1959 2209 
L 2766 2209 
L 2766 2266 
Q 2766 2663 2505 2880 
Q 2244 3097 1772 3097 
Q 1472 3097 1187 3025 
Q 903 2953 641 2809 
L 641 3341 
Q 956 3463 1253 3523 
Q 1550 3584 1831 3584 
Q 2591 3584 2966 3190 
Q 3341 2797 3341 1997 
z
" transform="scale(0.015625)"/>
       <path id="DejaVuSans-74" d="M 1172 4494 
L 1172 3500 
L 2356 3500 
L 2356 3053 
L 1172 3053 
L 1172 1153 
Q 1172 725 1289 603 
Q 1406 481 1766 481 
L 2356 481 
L 2356 0 
L 1766 0 
Q 1100 0 847 248 
Q 594 497 594 1153 
L 594 3053 
L 172 3053 
L 172 3500 
L 594 3500 
L 594 4494 
L 1172 4494 
z
" transform="scale(0.015625)"/>
       <path id="DejaVuSans-72" d="M 2631 2963 
Q 2534 3019 2420 3045 
Q 2306 3072 2169 3072 
Q 1681 3072 1420 2755 
Q 1159 2438 1159 1844 
L 1159 0 
L 581 0 
L 581 3500 
L 1159 3500 
L 1159 2956 
Q 1341 3275 1631 3429 
Q 1922 3584 2338 3584 
Q 2397 3584 2469 3576 
Q 2541 3569 2628 3553 
L 2631 2963 
z
" transform="scale(0.015625)"/>
       <path id="DejaVuSans-75" d="M 544 1381 
L 544 3500 
L 1119 3500 
L 1119 1403 
Q 1119 906 1312 657 
Q 1506 409 1894 409 
Q 2359 409 2629 706 
Q 2900 1003 2900 1516 
L 2900 3500 
L 3475 3500 
L 3475 0 
L 2900 0 
L 2900 538 
Q 2691 219 2414 64 
Q 2138 -91 1772 -91 
Q 1169 -91 856 284 
Q 544 659 544 1381 
z
M 1991 3584 
L 1991 3584 
z
" transform="scale(0.015625)"/>
       <path id="DejaVuSans-63" d="M 3122 3366 
L 3122 2828 
Q 2878 2963 2633 3030 
Q 2388 3097 2138 3097 
Q 1578 3097 1268 2742 
Q 959 2388 959 1747 
Q 959 1106 1268 751 
Q 1578 397 2138 397 
Q 2388 397 2633 464 
Q 2878 531 3122 666 
L 3122 134 
Q 2881 22 2623 -34 
Q 2366 -91 2075 -91 
Q 1284 -91 818 406 
Q 353 903 353 1747 
Q 353 2603 823 3093 
Q 1294 3584 2113 3584 
Q 2378 3584 2631 3529 
Q 2884 3475 3122 3366 
z
" transform="scale(0.015625)"/>
       <path id="DejaVuSans-6b" d="M 581 4863 
L 1159 4863 
L 1159 1991 
L 2875 3500 
L 3609 3500 
L 1753 1863 
L 3688 0 
L 2938 0 
L 1159 1709 
L 1159 0 
L 581 0 
L 581 4863 
z
" transform="scale(0.015625)"/>
       <path id="DejaVuSans-20" transform="scale(0.015625)"/>
       <path id="DejaVuSans-69" d="M 603 3500 
L 1178 3500 
L 1178 0 
L 603 0 
L 603 3500 
z
M 603 4863 
L 1178 4863 
L 1178 4134 
L 603 4134 
L 603 4863 
z
" transform="scale(0.015625)"/>
       <path id="DejaVuSans-62" d="M 3116 1747 
Q 3116 2381 2855 2742 
Q 2594 3103 2138 3103 
Q 1681 3103 1420 2742 
Q 1159 2381 1159 1747 
Q 1159 1113 1420 752 
Q 1681 391 2138 391 
Q 2594 391 2855 752 
Q 3116 1113 3116 1747 
z
M 1159 2969 
Q 1341 3281 1617 3432 
Q 1894 3584 2278 3584 
Q 2916 3584 3314 3078 
Q 3713 2572 3713 1747 
Q 3713 922 3314 415 
Q 2916 -91 2278 -91 
Q 1894 -91 1617 61 
Q 1341 213 1159 525 
L 1159 0 
L 581 0 
L 581 4863 
L 1159 4863 
L 1159 2969 
z
" transform="scale(0.015625)"/>
      </defs>
      <use xlink:href="#DejaVuSans-4b"/>
      <use xlink:href="#DejaVuSans-6f" x="60.576172"/>
      <use xlink:href="#DejaVuSans-6e" x="121.757812"/>
      <use xlink:href="#DejaVuSans-64" x="185.136719"/>
      <use xlink:href="#DejaVuSans-65" x="248.613281"/>
      <use xlink:href="#DejaVuSans-6e" x="310.136719"/>
      <use xlink:href="#DejaVuSans-73" x="373.515625"/>
      <use xlink:href="#DejaVuSans-61" x="425.615234"/>
      <use xlink:href="#DejaVuSans-74" x="486.894531"/>
      <use xlink:href="#DejaVuSans-6f" x="526.103516"/>
      <use xlink:href="#DejaVuSans-72" x="587.285156"/>
      <use xlink:href="#DejaVuSans-64" x="626.648438"/>
      <use xlink:href="#DejaVuSans-72" x="690.125"/>
      <use xlink:href="#DejaVuSans-75" x="731.238281"/>
      <use xlink:href="#DejaVuSans-63" x="794.617188"/>
      <use xlink:href="#DejaVuSans-6b" x="849.597656"/>
      <use xlink:href="#DejaVuSans-20" x="907.507812"/>
      <use xlink:href="#DejaVuSans-69" x="939.294922"/>
      <use xlink:href="#DejaVuSans-6e" x="967.078125"/>
      <use xlink:href="#DejaVuSans-20" x="1030.457031"/>
      <use xlink:href="#DejaVuSans-62" x="1062.244141"/>
      <use xlink:href="#DejaVuSans-61" x="1125.720703"/>
      <use xlink:href="#DejaVuSans-72" x="1187"/>
     </g>
    </g>
   </g>
   <g id="matplotlib.axis_2">
    <g id="ytick_1">
     <g id="line2d_7">
      <defs>
       <path id="mfe10287353" d="M 0 0 
L -3.5 0 
" style="stroke: #000000; stroke-width: 0.8"/>
      </defs>
      <g>
       <use xlink:href="#mfe10287353" x="57.6" y="307.584" style="stroke: #000000; stroke-width: 0.8"/>
      </g>
     </g>
     <g id="text_8">
      <!-- 0.0 -->
      <g transform="translate(21.974375 314.422594) scale(0.18 -0.18)">
       <use xlink:href="#DejaVuSans-30"/>
       <use xlink:href="#DejaVuSans-2e" x="63.623047"/>
       <use xlink:href="#DejaVuSans-30" x="95.410156"/>
      </g>
     </g>
    </g>
    <g id="ytick_2">
     <g id="line2d_8">
      <g>
       <use xlink:href="#mfe10287353" x="57.6" y="232.089113" style="stroke: #000000; stroke-width: 0.8"/>
      </g>
     </g>
     <g id="text_9">
      <!-- 0.5 -->
      <g transform="translate(21.974375 238.927707) scale(0.18 -0.18)">
       <use xlink:href="#DejaVuSans-30"/>
       <use xlink:href="#DejaVuSans-2e" x="63.623047"/>
       <use xlink:href="#DejaVuSans-35" x="95.410156"/>
      </g>
     </g>
    </g>
    <g id="ytick_3">
     <g id="line2d_9">
      <g>
       <use xlink:href="#mfe10287353" x="57.6" y="156.594226" style="stroke: #000000; stroke-width: 0.8"/>
      </g>
     </g>
     <g id="text_10">
      <!-- 1.0 -->
      <g transform="translate(21.974375 163.43282) scale(0.18 -0.18)">
       <defs>
        <path id="DejaVuSans-31" d="M 794 531 
L 1825 531 
L 1825 4091 
L 703 3866 
L 703 4441 
L 1819 4666 
L 2450 4666 
L 2450 531 
L 3481 531 
L 3481 0 
L 794 0 
L 794 531 
z
" transform="scale(0.015625)"/>
       </defs>
       <use xlink:href="#DejaVuSans-31"/>
       <use xlink:href="#DejaVuSans-2e" x="63.623047"/>
       <use xlink:href="#DejaVuSans-30" x="95.410156"/>
      </g>
     </g>
    </g>
    <g id="ytick_4">
     <g id="line2d_10">
      <g>
       <use xlink:href="#mfe10287353" x="57.6" y="81.099339" style="stroke: #000000; stroke-width: 0.8"/>
      </g>
     </g>
     <g id="text_11">
      <!-- 1.5 -->
      <g transform="translate(21.974375 87.937933) scale(0.18 -0.18)">
       <use xlink:href="#DejaVuSans-31"/>
       <use xlink:href="#DejaVuSans-2e" x="63.623047"/>
       <use xlink:href="#DejaVuSans-35" x="95.410156"/>
      </g>
     </g>
    </g>
    <g id="text_12">
     <!-- Exergievernichtung in MW -->
     <g transform="translate(14.230937 292.593937) rotate(-90) scale(0.18 -0.18)">
      <defs>
       <path id="DejaVuSans-45" d="M 628 4666 
L 3578 4666 
L 3578 4134 
L 1259 4134 
L 1259 2753 
L 3481 2753 
L 3481 2222 
L 1259 2222 
L 1259 531 
L 3634 531 
L 3634 0 
L 628 0 
L 628 4666 
z
" transform="scale(0.015625)"/>
       <path id="DejaVuSans-78" d="M 3513 3500 
L 2247 1797 
L 3578 0 
L 2900 0 
L 1881 1375 
L 863 0 
L 184 0 
L 1544 1831 
L 300 3500 
L 978 3500 
L 1906 2253 
L 2834 3500 
L 3513 3500 
z
" transform="scale(0.015625)"/>
       <path id="DejaVuSans-67" d="M 2906 1791 
Q 2906 2416 2648 2759 
Q 2391 3103 1925 3103 
Q 1463 3103 1205 2759 
Q 947 2416 947 1791 
Q 947 1169 1205 825 
Q 1463 481 1925 481 
Q 2391 481 2648 825 
Q 2906 1169 2906 1791 
z
M 3481 434 
Q 3481 -459 3084 -895 
Q 2688 -1331 1869 -1331 
Q 1566 -1331 1297 -1286 
Q 1028 -1241 775 -1147 
L 775 -588 
Q 1028 -725 1275 -790 
Q 1522 -856 1778 -856 
Q 2344 -856 2625 -561 
Q 2906 -266 2906 331 
L 2906 616 
Q 2728 306 2450 153 
Q 2172 0 1784 0 
Q 1141 0 747 490 
Q 353 981 353 1791 
Q 353 2603 747 3093 
Q 1141 3584 1784 3584 
Q 2172 3584 2450 3431 
Q 2728 3278 2906 2969 
L 2906 3500 
L 3481 3500 
L 3481 434 
z
" transform="scale(0.015625)"/>
       <path id="DejaVuSans-76" d="M 191 3500 
L 800 3500 
L 1894 563 
L 2988 3500 
L 3597 3500 
L 2284 0 
L 1503 0 
L 191 3500 
z
" transform="scale(0.015625)"/>
       <path id="DejaVuSans-68" d="M 3513 2113 
L 3513 0 
L 2938 0 
L 2938 2094 
Q 2938 2591 2744 2837 
Q 2550 3084 2163 3084 
Q 1697 3084 1428 2787 
Q 1159 2491 1159 1978 
L 1159 0 
L 581 0 
L 581 4863 
L 1159 4863 
L 1159 2956 
Q 1366 3272 1645 3428 
Q 1925 3584 2291 3584 
Q 2894 3584 3203 3211 
Q 3513 2838 3513 2113 
z
" transform="scale(0.015625)"/>
       <path id="DejaVuSans-4d" d="M 628 4666 
L 1569 4666 
L 2759 1491 
L 3956 4666 
L 4897 4666 
L 4897 0 
L 4281 0 
L 4281 4097 
L 3078 897 
L 2444 897 
L 1241 4097 
L 1241 0 
L 628 0 
L 628 4666 
z
" transform="scale(0.015625)"/>
       <path id="DejaVuSans-57" d="M 213 4666 
L 850 4666 
L 1831 722 
L 2809 4666 
L 3519 4666 
L 4500 722 
L 5478 4666 
L 6119 4666 
L 4947 0 
L 4153 0 
L 3169 4050 
L 2175 0 
L 1381 0 
L 213 4666 
z
" transform="scale(0.015625)"/>
      </defs>
      <use xlink:href="#DejaVuSans-45"/>
      <use xlink:href="#DejaVuSans-78" x="63.183594"/>
      <use xlink:href="#DejaVuSans-65" x="119.238281"/>
      <use xlink:href="#DejaVuSans-72" x="180.761719"/>
      <use xlink:href="#DejaVuSans-67" x="220.125"/>
      <use xlink:href="#DejaVuSans-69" x="283.601562"/>
      <use xlink:href="#DejaVuSans-65" x="311.384766"/>
      <use xlink:href="#DejaVuSans-76" x="372.908203"/>
      <use xlink:href="#DejaVuSans-65" x="432.087891"/>
      <use xlink:href="#DejaVuSans-72" x="493.611328"/>
      <use xlink:href="#DejaVuSans-6e" x="532.974609"/>
      <use xlink:href="#DejaVuSans-69" x="596.353516"/>
      <use xlink:href="#DejaVuSans-63" x="624.136719"/>
      <use xlink:href="#DejaVuSans-68" x="679.117188"/>
      <use xlink:href="#DejaVuSans-74" x="742.496094"/>
      <use xlink:href="#DejaVuSans-75" x="781.705078"/>
      <use xlink:href="#DejaVuSans-6e" x="845.083984"/>
      <use xlink:href="#DejaVuSans-67" x="908.462891"/>
      <use xlink:href="#DejaVuSans-20" x="971.939453"/>
      <use xlink:href="#DejaVuSans-69" x="1003.726562"/>
      <use xlink:href="#DejaVuSans-6e" x="1031.509766"/>
      <use xlink:href="#DejaVuSans-20" x="1094.888672"/>
      <use xlink:href="#DejaVuSans-4d" x="1126.675781"/>
      <use xlink:href="#DejaVuSans-57" x="1212.955078"/>
     </g>
    </g>
   </g>
   <g id="patch_163">
    <path d="M 57.6 307.584 
L 57.6 41.472 
" style="fill: none; stroke: #000000; stroke-width: 0.8; stroke-linejoin: miter; stroke-linecap: square"/>
   </g>
   <g id="patch_164">
    <path d="M 414.72 307.584 
L 414.72 41.472 
" style="fill: none; stroke: #000000; stroke-width: 0.8; stroke-linejoin: miter; stroke-linecap: square"/>
   </g>
   <g id="patch_165">
    <path d="M 57.6 307.584 
L 414.72 307.584 
" style="fill: none; stroke: #000000; stroke-width: 0.8; stroke-linejoin: miter; stroke-linecap: square"/>
   </g>
   <g id="patch_166">
    <path d="M 57.6 41.472 
L 414.72 41.472 
" style="fill: none; stroke: #000000; stroke-width: 0.8; stroke-linejoin: miter; stroke-linecap: square"/>
   </g>
   <g id="legend_1">
    <g id="patch_167">
     <path d="M 125.648437 298.584 
L 402.12 298.584 
Q 405.72 298.584 405.72 294.984 
L 405.72 85.419 
Q 405.72 81.819 402.12 81.819 
L 125.648437 81.819 
Q 122.048437 81.819 122.048437 85.419 
L 122.048437 294.984 
Q 122.048437 298.584 125.648437 298.584 
z
" style="fill: #ffffff; opacity: 0.8; stroke: #cccccc; stroke-linejoin: miter"/>
    </g>
    <g id="patch_168">
     <path d="M 129.248437 102.696188 
L 165.248437 102.696188 
L 165.248437 90.096188 
L 129.248437 90.096188 
z
" style="fill: #1f77b4"/>
    </g>
    <g id="text_13">
     <!-- Gas cooler -->
     <g transform="translate(179.648438 102.696188) scale(0.18 -0.18)">
      <defs>
       <path id="DejaVuSans-47" d="M 3809 666 
L 3809 1919 
L 2778 1919 
L 2778 2438 
L 4434 2438 
L 4434 434 
Q 4069 175 3628 42 
Q 3188 -91 2688 -91 
Q 1594 -91 976 548 
Q 359 1188 359 2328 
Q 359 3472 976 4111 
Q 1594 4750 2688 4750 
Q 3144 4750 3555 4637 
Q 3966 4525 4313 4306 
L 4313 3634 
Q 3963 3931 3569 4081 
Q 3175 4231 2741 4231 
Q 1884 4231 1454 3753 
Q 1025 3275 1025 2328 
Q 1025 1384 1454 906 
Q 1884 428 2741 428 
Q 3075 428 3337 486 
Q 3600 544 3809 666 
z
" transform="scale(0.015625)"/>
       <path id="DejaVuSans-6c" d="M 603 4863 
L 1178 4863 
L 1178 0 
L 603 0 
L 603 4863 
z
" transform="scale(0.015625)"/>
      </defs>
      <use xlink:href="#DejaVuSans-47"/>
      <use xlink:href="#DejaVuSans-61" x="77.490234"/>
      <use xlink:href="#DejaVuSans-73" x="138.769531"/>
      <use xlink:href="#DejaVuSans-20" x="190.869141"/>
      <use xlink:href="#DejaVuSans-63" x="222.65625"/>
      <use xlink:href="#DejaVuSans-6f" x="277.636719"/>
      <use xlink:href="#DejaVuSans-6f" x="338.818359"/>
      <use xlink:href="#DejaVuSans-6c" x="400"/>
      <use xlink:href="#DejaVuSans-65" x="427.783203"/>
      <use xlink:href="#DejaVuSans-72" x="489.306641"/>
     </g>
    </g>
    <g id="patch_169">
     <path d="M 129.248437 129.116813 
L 165.248437 129.116813 
L 165.248437 116.516813 
L 129.248437 116.516813 
z
" style="fill: #ff7f0e"/>
    </g>
    <g id="text_14">
     <!-- Evaporator -->
     <g transform="translate(179.648438 129.116813) scale(0.18 -0.18)">
      <defs>
       <path id="DejaVuSans-70" d="M 1159 525 
L 1159 -1331 
L 581 -1331 
L 581 3500 
L 1159 3500 
L 1159 2969 
Q 1341 3281 1617 3432 
Q 1894 3584 2278 3584 
Q 2916 3584 3314 3078 
Q 3713 2572 3713 1747 
Q 3713 922 3314 415 
Q 2916 -91 2278 -91 
Q 1894 -91 1617 61 
Q 1341 213 1159 525 
z
M 3116 1747 
Q 3116 2381 2855 2742 
Q 2594 3103 2138 3103 
Q 1681 3103 1420 2742 
Q 1159 2381 1159 1747 
Q 1159 1113 1420 752 
Q 1681 391 2138 391 
Q 2594 391 2855 752 
Q 3116 1113 3116 1747 
z
" transform="scale(0.015625)"/>
      </defs>
      <use xlink:href="#DejaVuSans-45"/>
      <use xlink:href="#DejaVuSans-76" x="63.183594"/>
      <use xlink:href="#DejaVuSans-61" x="122.363281"/>
      <use xlink:href="#DejaVuSans-70" x="183.642578"/>
      <use xlink:href="#DejaVuSans-6f" x="247.119141"/>
      <use xlink:href="#DejaVuSans-72" x="308.300781"/>
      <use xlink:href="#DejaVuSans-61" x="349.414062"/>
      <use xlink:href="#DejaVuSans-74" x="410.693359"/>
      <use xlink:href="#DejaVuSans-6f" x="449.902344"/>
      <use xlink:href="#DejaVuSans-72" x="511.083984"/>
     </g>
    </g>
    <g id="patch_170">
     <path d="M 129.248437 155.537437 
L 165.248437 155.537437 
L 165.248437 142.937437 
L 129.248437 142.937437 
z
" style="fill: #2ca02c"/>
    </g>
    <g id="text_15">
     <!-- Valve 1 -->
     <g transform="translate(179.648438 155.537437) scale(0.18 -0.18)">
      <defs>
       <path id="DejaVuSans-56" d="M 1831 0 
L 50 4666 
L 709 4666 
L 2188 738 
L 3669 4666 
L 4325 4666 
L 2547 0 
L 1831 0 
z
" transform="scale(0.015625)"/>
      </defs>
      <use xlink:href="#DejaVuSans-56"/>
      <use xlink:href="#DejaVuSans-61" x="60.658203"/>
      <use xlink:href="#DejaVuSans-6c" x="121.9375"/>
      <use xlink:href="#DejaVuSans-76" x="149.720703"/>
      <use xlink:href="#DejaVuSans-65" x="208.900391"/>
      <use xlink:href="#DejaVuSans-20" x="270.423828"/>
      <use xlink:href="#DejaVuSans-31" x="302.210938"/>
     </g>
    </g>
    <g id="patch_171">
     <path d="M 129.248437 181.958062 
L 165.248437 181.958062 
L 165.248437 169.358062 
L 129.248437 169.358062 
z
" style="fill: #d62728"/>
    </g>
    <g id="text_16">
     <!-- Valve 2 -->
     <g transform="translate(179.648438 181.958062) scale(0.18 -0.18)">
      <use xlink:href="#DejaVuSans-56"/>
      <use xlink:href="#DejaVuSans-61" x="60.658203"/>
      <use xlink:href="#DejaVuSans-6c" x="121.9375"/>
      <use xlink:href="#DejaVuSans-76" x="149.720703"/>
      <use xlink:href="#DejaVuSans-65" x="208.900391"/>
      <use xlink:href="#DejaVuSans-20" x="270.423828"/>
      <use xlink:href="#DejaVuSans-32" x="302.210938"/>
     </g>
    </g>
    <g id="patch_172">
     <path d="M 129.248437 208.378688 
L 165.248437 208.378688 
L 165.248437 195.778688 
L 129.248437 195.778688 
z
" style="fill: #9467bd"/>
    </g>
    <g id="text_17">
     <!-- Compressor 1 -->
     <g transform="translate(179.648438 208.378688) scale(0.18 -0.18)">
      <defs>
       <path id="DejaVuSans-43" d="M 4122 4306 
L 4122 3641 
Q 3803 3938 3442 4084 
Q 3081 4231 2675 4231 
Q 1875 4231 1450 3742 
Q 1025 3253 1025 2328 
Q 1025 1406 1450 917 
Q 1875 428 2675 428 
Q 3081 428 3442 575 
Q 3803 722 4122 1019 
L 4122 359 
Q 3791 134 3420 21 
Q 3050 -91 2638 -91 
Q 1578 -91 968 557 
Q 359 1206 359 2328 
Q 359 3453 968 4101 
Q 1578 4750 2638 4750 
Q 3056 4750 3426 4639 
Q 3797 4528 4122 4306 
z
" transform="scale(0.015625)"/>
       <path id="DejaVuSans-6d" d="M 3328 2828 
Q 3544 3216 3844 3400 
Q 4144 3584 4550 3584 
Q 5097 3584 5394 3201 
Q 5691 2819 5691 2113 
L 5691 0 
L 5113 0 
L 5113 2094 
Q 5113 2597 4934 2840 
Q 4756 3084 4391 3084 
Q 3944 3084 3684 2787 
Q 3425 2491 3425 1978 
L 3425 0 
L 2847 0 
L 2847 2094 
Q 2847 2600 2669 2842 
Q 2491 3084 2119 3084 
Q 1678 3084 1418 2786 
Q 1159 2488 1159 1978 
L 1159 0 
L 581 0 
L 581 3500 
L 1159 3500 
L 1159 2956 
Q 1356 3278 1631 3431 
Q 1906 3584 2284 3584 
Q 2666 3584 2933 3390 
Q 3200 3197 3328 2828 
z
" transform="scale(0.015625)"/>
      </defs>
      <use xlink:href="#DejaVuSans-43"/>
      <use xlink:href="#DejaVuSans-6f" x="69.824219"/>
      <use xlink:href="#DejaVuSans-6d" x="131.005859"/>
      <use xlink:href="#DejaVuSans-70" x="228.417969"/>
      <use xlink:href="#DejaVuSans-72" x="291.894531"/>
      <use xlink:href="#DejaVuSans-65" x="330.757812"/>
      <use xlink:href="#DejaVuSans-73" x="392.28125"/>
      <use xlink:href="#DejaVuSans-73" x="444.380859"/>
      <use xlink:href="#DejaVuSans-6f" x="496.480469"/>
      <use xlink:href="#DejaVuSans-72" x="557.662109"/>
      <use xlink:href="#DejaVuSans-20" x="598.775391"/>
      <use xlink:href="#DejaVuSans-31" x="630.5625"/>
     </g>
    </g>
    <g id="patch_173">
     <path d="M 129.248437 234.799312 
L 165.248437 234.799312 
L 165.248437 222.199312 
L 129.248437 222.199312 
z
" style="fill: #8c564b"/>
    </g>
    <g id="text_18">
     <!-- Compressor 2 -->
     <g transform="translate(179.648438 234.799312) scale(0.18 -0.18)">
      <use xlink:href="#DejaVuSans-43"/>
      <use xlink:href="#DejaVuSans-6f" x="69.824219"/>
      <use xlink:href="#DejaVuSans-6d" x="131.005859"/>
      <use xlink:href="#DejaVuSans-70" x="228.417969"/>
      <use xlink:href="#DejaVuSans-72" x="291.894531"/>
      <use xlink:href="#DejaVuSans-65" x="330.757812"/>
      <use xlink:href="#DejaVuSans-73" x="392.28125"/>
      <use xlink:href="#DejaVuSans-73" x="444.380859"/>
      <use xlink:href="#DejaVuSans-6f" x="496.480469"/>
      <use xlink:href="#DejaVuSans-72" x="557.662109"/>
      <use xlink:href="#DejaVuSans-20" x="598.775391"/>
      <use xlink:href="#DejaVuSans-32" x="630.5625"/>
     </g>
    </g>
    <g id="patch_174">
     <path d="M 129.248437 261.219938 
L 165.248437 261.219938 
L 165.248437 248.619938 
L 129.248437 248.619938 
z
" style="fill: #e377c2"/>
    </g>
    <g id="text_19">
     <!-- Internal Heat Exchanger -->
     <g transform="translate(179.648438 261.219938) scale(0.18 -0.18)">
      <defs>
       <path id="DejaVuSans-49" d="M 628 4666 
L 1259 4666 
L 1259 0 
L 628 0 
L 628 4666 
z
" transform="scale(0.015625)"/>
       <path id="DejaVuSans-48" d="M 628 4666 
L 1259 4666 
L 1259 2753 
L 3553 2753 
L 3553 4666 
L 4184 4666 
L 4184 0 
L 3553 0 
L 3553 2222 
L 1259 2222 
L 1259 0 
L 628 0 
L 628 4666 
z
" transform="scale(0.015625)"/>
      </defs>
      <use xlink:href="#DejaVuSans-49"/>
      <use xlink:href="#DejaVuSans-6e" x="29.492188"/>
      <use xlink:href="#DejaVuSans-74" x="92.871094"/>
      <use xlink:href="#DejaVuSans-65" x="132.080078"/>
      <use xlink:href="#DejaVuSans-72" x="193.603516"/>
      <use xlink:href="#DejaVuSans-6e" x="232.966797"/>
      <use xlink:href="#DejaVuSans-61" x="296.345703"/>
      <use xlink:href="#DejaVuSans-6c" x="357.625"/>
      <use xlink:href="#DejaVuSans-20" x="385.408203"/>
      <use xlink:href="#DejaVuSans-48" x="417.195312"/>
      <use xlink:href="#DejaVuSans-65" x="492.390625"/>
      <use xlink:href="#DejaVuSans-61" x="553.914062"/>
      <use xlink:href="#DejaVuSans-74" x="615.193359"/>
      <use xlink:href="#DejaVuSans-20" x="654.402344"/>
      <use xlink:href="#DejaVuSans-45" x="686.189453"/>
      <use xlink:href="#DejaVuSans-78" x="749.373047"/>
      <use xlink:href="#DejaVuSans-63" x="806.802734"/>
      <use xlink:href="#DejaVuSans-68" x="861.783203"/>
      <use xlink:href="#DejaVuSans-61" x="925.162109"/>
      <use xlink:href="#DejaVuSans-6e" x="986.441406"/>
      <use xlink:href="#DejaVuSans-67" x="1049.820312"/>
      <use xlink:href="#DejaVuSans-65" x="1113.296875"/>
      <use xlink:href="#DejaVuSans-72" x="1174.820312"/>
     </g>
    </g>
    <g id="patch_175">
     <path d="M 129.248437 287.640562 
L 165.248437 287.640562 
L 165.248437 275.040562 
L 129.248437 275.040562 
z
" style="fill: #7f7f7f"/>
    </g>
    <g id="text_20">
     <!-- Merge -->
     <g transform="translate(179.648438 287.640562) scale(0.18 -0.18)">
      <use xlink:href="#DejaVuSans-4d"/>
      <use xlink:href="#DejaVuSans-65" x="86.279297"/>
      <use xlink:href="#DejaVuSans-72" x="147.802734"/>
      <use xlink:href="#DejaVuSans-67" x="187.166016"/>
      <use xlink:href="#DejaVuSans-65" x="250.642578"/>
     </g>
    </g>
   </g>
  </g>
 </g>
 <defs>
  <clipPath id="pe46f2077c0">
   <rect x="57.6" y="41.472" width="357.12" height="266.112"/>
  </clipPath>
 </defs>
</svg>
