<?xml version="1.0" encoding="utf-8" standalone="no"?>
<!DOCTYPE svg PUBLIC "-//W3C//DTD SVG 1.1//EN"
  "http://www.w3.org/Graphics/SVG/1.1/DTD/svg11.dtd">
<svg xmlns:xlink="http://www.w3.org/1999/xlink" width="460.8pt" height="345.6pt" viewBox="0 0 460.8 345.6" xmlns="http://www.w3.org/2000/svg" version="1.1">
 <metadata>
  <rdf:RDF xmlns:dc="http://purl.org/dc/elements/1.1/" xmlns:cc="http://creativecommons.org/ns#" xmlns:rdf="http://www.w3.org/1999/02/22-rdf-syntax-ns#">
   <cc:Work>
    <dc:type rdf:resource="http://purl.org/dc/dcmitype/StillImage"/>
    <dc:date>2023-03-22T12:21:41.482261</dc:date>
    <dc:format>image/svg+xml</dc:format>
    <dc:creator>
     <cc:Agent>
      <dc:title>Matplotlib v3.6.1, https://matplotlib.org/</dc:title>
     </cc:Agent>
    </dc:creator>
   </cc:Work>
  </rdf:RDF>
 </metadata>
 <defs>
  <style type="text/css">*{stroke-linejoin: round; stroke-linecap: butt}</style>
 </defs>
 <g id="figure_1">
  <g id="patch_1">
   <path d="M 0 345.6 
L 460.8 345.6 
L 460.8 0 
L 0 0 
z
" style="fill: #ffffff"/>
  </g>
  <g id="axes_1">
   <g id="patch_2">
    <path d="M 57.6 307.584 
L 414.72 307.584 
L 414.72 41.472 
L 57.6 41.472 
z
" style="fill: #ffffff"/>
   </g>
   <g id="patch_3">
    <path d="M 73.832727 307.584 
L 77.840808 307.584 
L 77.840808 298.368254 
L 73.832727 298.368254 
z
" clip-path="url(#pb24488697d)" style="fill: #1f77b4"/>
   </g>
   <g id="patch_4">
    <path d="M 90.708857 307.584 
L 94.716938 307.584 
L 94.716938 293.908082 
L 90.708857 293.908082 
z
" clip-path="url(#pb24488697d)" style="fill: #1f77b4"/>
   </g>
   <g id="patch_5">
    <path d="M 107.584987 307.584 
L 111.593068 307.584 
L 111.593068 289.698117 
L 107.584987 289.698117 
z
" clip-path="url(#pb24488697d)" style="fill: #1f77b4"/>
   </g>
   <g id="patch_6">
    <path d="M 124.461116 307.584 
L 128.469197 307.584 
L 128.469197 285.718675 
L 124.461116 285.718675 
z
" clip-path="url(#pb24488697d)" style="fill: #1f77b4"/>
   </g>
   <g id="patch_7">
    <path d="M 141.337246 307.584 
L 145.345327 307.584 
L 145.345327 281.952162 
L 141.337246 281.952162 
z
" clip-path="url(#pb24488697d)" style="fill: #1f77b4"/>
   </g>
   <g id="patch_8">
    <path d="M 158.213376 307.584 
L 162.221457 307.584 
L 162.221457 278.382799 
L 158.213376 278.382799 
z
" clip-path="url(#pb24488697d)" style="fill: #1f77b4"/>
   </g>
   <g id="patch_9">
    <path d="M 175.089506 307.584 
L 179.097586 307.584 
L 179.097586 274.996377 
L 175.089506 274.996377 
z
" clip-path="url(#pb24488697d)" style="fill: #1f77b4"/>
   </g>
   <g id="patch_10">
    <path d="M 191.965635 307.584 
L 195.973716 307.584 
L 195.973716 271.780066 
L 191.965635 271.780066 
z
" clip-path="url(#pb24488697d)" style="fill: #1f77b4"/>
   </g>
   <g id="patch_11">
    <path d="M 208.841765 307.584 
L 212.849846 307.584 
L 212.849846 268.722241 
L 208.841765 268.722241 
z
" clip-path="url(#pb24488697d)" style="fill: #1f77b4"/>
   </g>
   <g id="patch_12">
    <path d="M 225.717895 307.584 
L 229.725976 307.584 
L 229.725976 265.812334 
L 225.717895 265.812334 
z
" clip-path="url(#pb24488697d)" style="fill: #1f77b4"/>
   </g>
   <g id="patch_13">
    <path d="M 242.594024 307.584 
L 246.602105 307.584 
L 246.602105 263.040712 
L 242.594024 263.040712 
z
" clip-path="url(#pb24488697d)" style="fill: #1f77b4"/>
   </g>
   <g id="patch_14">
    <path d="M 259.470154 307.584 
L 263.478235 307.584 
L 263.478235 260.398574 
L 259.470154 260.398574 
z
" clip-path="url(#pb24488697d)" style="fill: #1f77b4"/>
   </g>
   <g id="patch_15">
    <path d="M 276.346284 307.584 
L 280.354365 307.584 
L 280.354365 257.877861 
L 276.346284 257.877861 
z
" clip-path="url(#pb24488697d)" style="fill: #1f77b4"/>
   </g>
   <g id="patch_16">
    <path d="M 293.222414 307.584 
L 297.230494 307.584 
L 297.230494 255.471164 
L 293.222414 255.471164 
z
" clip-path="url(#pb24488697d)" style="fill: #1f77b4"/>
   </g>
   <g id="patch_17">
    <path d="M 310.098543 307.584 
L 314.106624 307.584 
L 314.106624 253.171665 
L 310.098543 253.171665 
z
" clip-path="url(#pb24488697d)" style="fill: #1f77b4"/>
   </g>
   <g id="patch_18">
    <path d="M 326.974673 307.584 
L 330.982754 307.584 
L 330.982754 250.973071 
L 326.974673 250.973071 
z
" clip-path="url(#pb24488697d)" style="fill: #1f77b4"/>
   </g>
   <g id="patch_19">
    <path d="M 343.850803 307.584 
L 347.858884 307.584 
L 347.858884 248.869566 
L 343.850803 248.869566 
z
" clip-path="url(#pb24488697d)" style="fill: #1f77b4"/>
   </g>
   <g id="patch_20">
    <path d="M 360.726932 307.584 
L 364.735013 307.584 
L 364.735013 246.855757 
L 360.726932 246.855757 
z
" clip-path="url(#pb24488697d)" style="fill: #1f77b4"/>
   </g>
   <g id="patch_21">
    <path d="M 377.603062 307.584 
L 381.611143 307.584 
L 381.611143 244.926639 
L 377.603062 244.926639 
z
" clip-path="url(#pb24488697d)" style="fill: #1f77b4"/>
   </g>
   <g id="patch_22">
    <path d="M 394.479192 307.584 
L 398.487273 307.584 
L 398.487273 243.077555 
L 394.479192 243.077555 
z
" clip-path="url(#pb24488697d)" style="fill: #1f77b4"/>
   </g>
   <g id="patch_23">
    <path d="M 73.832727 298.368254 
L 77.840808 298.368254 
L 77.840808 276.3623 
L 73.832727 276.3623 
z
" clip-path="url(#pb24488697d)" style="fill: #ff7f0e"/>
   </g>
   <g id="patch_24">
    <path d="M 90.708857 293.908082 
L 94.716938 293.908082 
L 94.716938 272.009122 
L 90.708857 272.009122 
z
" clip-path="url(#pb24488697d)" style="fill: #ff7f0e"/>
   </g>
   <g id="patch_25">
    <path d="M 107.584987 289.698117 
L 111.593068 289.698117 
L 111.593068 267.900505 
L 107.584987 267.900505 
z
" clip-path="url(#pb24488697d)" style="fill: #ff7f0e"/>
   </g>
   <g id="patch_26">
    <path d="M 124.461116 285.718675 
L 128.469197 285.718675 
L 128.469197 264.017217 
L 124.461116 264.017217 
z
" clip-path="url(#pb24488697d)" style="fill: #ff7f0e"/>
   </g>
   <g id="patch_27">
    <path d="M 141.337246 281.952162 
L 145.345327 281.952162 
L 145.345327 260.342064 
L 141.337246 260.342064 
z
" clip-path="url(#pb24488697d)" style="fill: #ff7f0e"/>
   </g>
   <g id="patch_28">
    <path d="M 158.213376 278.382799 
L 162.221457 278.382799 
L 162.221457 256.859624 
L 158.213376 256.859624 
z
" clip-path="url(#pb24488697d)" style="fill: #ff7f0e"/>
   </g>
   <g id="patch_29">
    <path d="M 175.089506 274.996377 
L 179.097586 274.996377 
L 179.097586 253.556015 
L 175.089506 253.556015 
z
" clip-path="url(#pb24488697d)" style="fill: #ff7f0e"/>
   </g>
   <g id="patch_30">
    <path d="M 191.965635 271.780066 
L 195.973716 271.780066 
L 195.973716 250.418696 
L 191.965635 250.418696 
z
" clip-path="url(#pb24488697d)" style="fill: #ff7f0e"/>
   </g>
   <g id="patch_31">
    <path d="M 208.841765 268.722241 
L 212.849846 268.722241 
L 212.849846 247.436308 
L 208.841765 247.436308 
z
" clip-path="url(#pb24488697d)" style="fill: #ff7f0e"/>
   </g>
   <g id="patch_32">
    <path d="M 225.717895 265.812334 
L 229.725976 265.812334 
L 229.725976 244.598525 
L 225.717895 244.598525 
z
" clip-path="url(#pb24488697d)" style="fill: #ff7f0e"/>
   </g>
   <g id="patch_33">
    <path d="M 242.594024 263.040712 
L 246.602105 263.040712 
L 246.602105 241.895933 
L 242.594024 241.895933 
z
" clip-path="url(#pb24488697d)" style="fill: #ff7f0e"/>
   </g>
   <g id="patch_34">
    <path d="M 259.470154 260.398574 
L 263.478235 260.398574 
L 263.478235 239.319931 
L 259.470154 239.319931 
z
" clip-path="url(#pb24488697d)" style="fill: #ff7f0e"/>
   </g>
   <g id="patch_35">
    <path d="M 276.346284 257.877861 
L 280.354365 257.877861 
L 280.354365 236.862644 
L 276.346284 236.862644 
z
" clip-path="url(#pb24488697d)" style="fill: #ff7f0e"/>
   </g>
   <g id="patch_36">
    <path d="M 293.222414 255.471164 
L 297.230494 255.471164 
L 297.230494 234.516833 
L 293.222414 234.516833 
z
" clip-path="url(#pb24488697d)" style="fill: #ff7f0e"/>
   </g>
   <g id="patch_37">
    <path d="M 310.098543 253.171665 
L 314.106624 253.171665 
L 314.106624 232.275834 
L 310.098543 232.275834 
z
" clip-path="url(#pb24488697d)" style="fill: #ff7f0e"/>
   </g>
   <g id="patch_38">
    <path d="M 326.974673 250.973071 
L 330.982754 250.973071 
L 330.982754 230.1335 
L 326.974673 230.1335 
z
" clip-path="url(#pb24488697d)" style="fill: #ff7f0e"/>
   </g>
   <g id="patch_39">
    <path d="M 343.850803 248.869566 
L 347.858884 248.869566 
L 347.858884 228.084146 
L 343.850803 228.084146 
z
" clip-path="url(#pb24488697d)" style="fill: #ff7f0e"/>
   </g>
   <g id="patch_40">
    <path d="M 360.726932 246.855757 
L 364.735013 246.855757 
L 364.735013 226.122503 
L 360.726932 226.122503 
z
" clip-path="url(#pb24488697d)" style="fill: #ff7f0e"/>
   </g>
   <g id="patch_41">
    <path d="M 377.603062 244.926639 
L 381.611143 244.926639 
L 381.611143 224.243681 
L 377.603062 224.243681 
z
" clip-path="url(#pb24488697d)" style="fill: #ff7f0e"/>
   </g>
   <g id="patch_42">
    <path d="M 394.479192 243.077555 
L 398.487273 243.077555 
L 398.487273 222.443131 
L 394.479192 222.443131 
z
" clip-path="url(#pb24488697d)" style="fill: #ff7f0e"/>
   </g>
   <g id="patch_43">
    <path d="M 73.832727 276.3623 
L 77.840808 276.3623 
L 77.840808 261.854287 
L 73.832727 261.854287 
z
" clip-path="url(#pb24488697d)" style="fill: #2ca02c"/>
   </g>
   <g id="patch_44">
    <path d="M 90.708857 272.009122 
L 94.716938 272.009122 
L 94.716938 256.932776 
L 90.708857 256.932776 
z
" clip-path="url(#pb24488697d)" style="fill: #2ca02c"/>
   </g>
   <g id="patch_45">
    <path d="M 107.584987 267.900505 
L 111.593068 267.900505 
L 111.593068 252.257589 
L 107.584987 252.257589 
z
" clip-path="url(#pb24488697d)" style="fill: #2ca02c"/>
   </g>
   <g id="patch_46">
    <path d="M 124.461116 264.017217 
L 128.469197 264.017217 
L 128.469197 247.809478 
L 124.461116 247.809478 
z
" clip-path="url(#pb24488697d)" style="fill: #2ca02c"/>
   </g>
   <g id="patch_47">
    <path d="M 141.337246 260.342064 
L 145.345327 260.342064 
L 145.345327 243.571231 
L 141.337246 243.571231 
z
" clip-path="url(#pb24488697d)" style="fill: #2ca02c"/>
   </g>
   <g id="patch_48">
    <path d="M 158.213376 256.859624 
L 162.221457 256.859624 
L 162.221457 239.527401 
L 158.213376 239.527401 
z
" clip-path="url(#pb24488697d)" style="fill: #2ca02c"/>
   </g>
   <g id="patch_49">
    <path d="M 175.089506 253.556015 
L 179.097586 253.556015 
L 179.097586 235.664078 
L 175.089506 235.664078 
z
" clip-path="url(#pb24488697d)" style="fill: #2ca02c"/>
   </g>
   <g id="patch_50">
    <path d="M 191.965635 250.418696 
L 195.973716 250.418696 
L 195.973716 231.968687 
L 191.965635 231.968687 
z
" clip-path="url(#pb24488697d)" style="fill: #2ca02c"/>
   </g>
   <g id="patch_51">
    <path d="M 208.841765 247.436308 
L 212.849846 247.436308 
L 212.849846 228.429829 
L 208.841765 228.429829 
z
" clip-path="url(#pb24488697d)" style="fill: #2ca02c"/>
   </g>
   <g id="patch_52">
    <path d="M 225.717895 244.598525 
L 229.725976 244.598525 
L 229.725976 225.037136 
L 225.717895 225.037136 
z
" clip-path="url(#pb24488697d)" style="fill: #2ca02c"/>
   </g>
   <g id="patch_53">
    <path d="M 242.594024 241.895933 
L 246.602105 241.895933 
L 246.602105 221.781178 
L 242.594024 221.781178 
z
" clip-path="url(#pb24488697d)" style="fill: #2ca02c"/>
   </g>
   <g id="patch_54">
    <path d="M 259.470154 239.319931 
L 263.478235 239.319931 
L 263.478235 218.653296 
L 259.470154 218.653296 
z
" clip-path="url(#pb24488697d)" style="fill: #2ca02c"/>
   </g>
   <g id="patch_55">
    <path d="M 276.346284 236.862644 
L 280.354365 236.862644 
L 280.354365 215.645588 
L 276.346284 215.645588 
z
" clip-path="url(#pb24488697d)" style="fill: #2ca02c"/>
   </g>
   <g id="patch_56">
    <path d="M 293.222414 234.516833 
L 297.230494 234.516833 
L 297.230494 212.750777 
L 293.222414 212.750777 
z
" clip-path="url(#pb24488697d)" style="fill: #2ca02c"/>
   </g>
   <g id="patch_57">
    <path d="M 310.098543 232.275834 
L 314.106624 232.275834 
L 314.106624 209.962163 
L 310.098543 209.962163 
z
" clip-path="url(#pb24488697d)" style="fill: #2ca02c"/>
   </g>
   <g id="patch_58">
    <path d="M 326.974673 230.1335 
L 330.982754 230.1335 
L 330.982754 207.273565 
L 326.974673 207.273565 
z
" clip-path="url(#pb24488697d)" style="fill: #2ca02c"/>
   </g>
   <g id="patch_59">
    <path d="M 343.850803 228.084146 
L 347.858884 228.084146 
L 347.858884 204.679266 
L 343.850803 204.679266 
z
" clip-path="url(#pb24488697d)" style="fill: #2ca02c"/>
   </g>
   <g id="patch_60">
    <path d="M 360.726932 226.122503 
L 364.735013 226.122503 
L 364.735013 202.173965 
L 360.726932 202.173965 
z
" clip-path="url(#pb24488697d)" style="fill: #2ca02c"/>
   </g>
   <g id="patch_61">
    <path d="M 377.603062 224.243681 
L 381.611143 224.243681 
L 381.611143 199.752743 
L 377.603062 199.752743 
z
" clip-path="url(#pb24488697d)" style="fill: #2ca02c"/>
   </g>
   <g id="patch_62">
    <path d="M 394.479192 222.443131 
L 398.487273 222.443131 
L 398.487273 197.411022 
L 394.479192 197.411022 
z
" clip-path="url(#pb24488697d)" style="fill: #2ca02c"/>
   </g>
   <g id="patch_63">
    <path d="M 73.832727 261.854287 
L 77.840808 261.854287 
L 77.840808 244.714331 
L 73.832727 244.714331 
z
" clip-path="url(#pb24488697d)" style="fill: #d62728"/>
   </g>
   <g id="patch_64">
    <path d="M 90.708857 256.932776 
L 94.716938 256.932776 
L 94.716938 239.876154 
L 90.708857 239.876154 
z
" clip-path="url(#pb24488697d)" style="fill: #d62728"/>
   </g>
   <g id="patch_65">
    <path d="M 107.584987 252.257589 
L 111.593068 252.257589 
L 111.593068 235.279905 
L 107.584987 235.279905 
z
" clip-path="url(#pb24488697d)" style="fill: #d62728"/>
   </g>
   <g id="patch_66">
    <path d="M 124.461116 247.809478 
L 128.469197 247.809478 
L 128.469197 230.906686 
L 124.461116 230.906686 
z
" clip-path="url(#pb24488697d)" style="fill: #d62728"/>
   </g>
   <g id="patch_67">
    <path d="M 141.337246 243.571231 
L 145.345327 243.571231 
L 145.345327 226.739597 
L 141.337246 226.739597 
z
" clip-path="url(#pb24488697d)" style="fill: #d62728"/>
   </g>
   <g id="patch_68">
    <path d="M 158.213376 239.527401 
L 162.221457 239.527401 
L 162.221457 222.76347 
L 158.213376 222.76347 
z
" clip-path="url(#pb24488697d)" style="fill: #d62728"/>
   </g>
   <g id="patch_69">
    <path d="M 175.089506 235.664078 
L 179.097586 235.664078 
L 179.097586 218.964647 
L 175.089506 218.964647 
z
" clip-path="url(#pb24488697d)" style="fill: #d62728"/>
   </g>
   <g id="patch_70">
    <path d="M 191.965635 231.968687 
L 195.973716 231.968687 
L 195.973716 215.330782 
L 191.965635 215.330782 
z
" clip-path="url(#pb24488697d)" style="fill: #d62728"/>
   </g>
   <g id="patch_71">
    <path d="M 208.841765 228.429829 
L 212.849846 228.429829 
L 212.849846 211.85068 
L 208.841765 211.85068 
z
" clip-path="url(#pb24488697d)" style="fill: #d62728"/>
   </g>
   <g id="patch_72">
    <path d="M 225.717895 225.037136 
L 229.725976 225.037136 
L 229.725976 208.514164 
L 225.717895 208.514164 
z
" clip-path="url(#pb24488697d)" style="fill: #d62728"/>
   </g>
   <g id="patch_73">
    <path d="M 242.594024 221.781178 
L 246.602105 221.781178 
L 246.602105 205.311971 
L 242.594024 205.311971 
z
" clip-path="url(#pb24488697d)" style="fill: #d62728"/>
   </g>
   <g id="patch_74">
    <path d="M 259.470154 218.653296 
L 263.478235 218.653296 
L 263.478235 202.235601 
L 259.470154 202.235601 
z
" clip-path="url(#pb24488697d)" style="fill: #d62728"/>
   </g>
   <g id="patch_75">
    <path d="M 276.346284 215.645588 
L 280.354365 215.645588 
L 280.354365 199.277295 
L 276.346284 199.277295 
z
" clip-path="url(#pb24488697d)" style="fill: #d62728"/>
   </g>
   <g id="patch_76">
    <path d="M 293.222414 212.750777 
L 297.230494 212.750777 
L 297.230494 196.429905 
L 293.222414 196.429905 
z
" clip-path="url(#pb24488697d)" style="fill: #d62728"/>
   </g>
   <g id="patch_77">
    <path d="M 310.098543 209.962163 
L 314.106624 209.962163 
L 314.106624 193.686857 
L 310.098543 193.686857 
z
" clip-path="url(#pb24488697d)" style="fill: #d62728"/>
   </g>
   <g id="patch_78">
    <path d="M 326.974673 207.273565 
L 330.982754 207.273565 
L 330.982754 191.042078 
L 326.974673 191.042078 
z
" clip-path="url(#pb24488697d)" style="fill: #d62728"/>
   </g>
   <g id="patch_79">
    <path d="M 343.850803 204.679266 
L 347.858884 204.679266 
L 347.858884 188.489956 
L 343.850803 188.489956 
z
" clip-path="url(#pb24488697d)" style="fill: #d62728"/>
   </g>
   <g id="patch_80">
    <path d="M 360.726932 202.173965 
L 364.735013 202.173965 
L 364.735013 186.025287 
L 360.726932 186.025287 
z
" clip-path="url(#pb24488697d)" style="fill: #d62728"/>
   </g>
   <g id="patch_81">
    <path d="M 377.603062 199.752743 
L 381.611143 199.752743 
L 381.611143 183.643239 
L 377.603062 183.643239 
z
" clip-path="url(#pb24488697d)" style="fill: #d62728"/>
   </g>
   <g id="patch_82">
    <path d="M 394.479192 197.411022 
L 398.487273 197.411022 
L 398.487273 181.339319 
L 394.479192 181.339319 
z
" clip-path="url(#pb24488697d)" style="fill: #d62728"/>
   </g>
   <g id="patch_83">
    <path d="M 73.832727 244.714331 
L 77.840808 244.714331 
L 77.840808 209.81583 
L 73.832727 209.81583 
z
" clip-path="url(#pb24488697d)" style="fill: #9467bd"/>
   </g>
   <g id="patch_84">
    <path d="M 90.708857 239.876154 
L 94.716938 239.876154 
L 94.716938 205.147329 
L 90.708857 205.147329 
z
" clip-path="url(#pb24488697d)" style="fill: #9467bd"/>
   </g>
   <g id="patch_85">
    <path d="M 107.584987 235.279905 
L 111.593068 235.279905 
L 111.593068 200.711807 
L 107.584987 200.711807 
z
" clip-path="url(#pb24488697d)" style="fill: #9467bd"/>
   </g>
   <g id="patch_86">
    <path d="M 124.461116 230.906686 
L 128.469197 230.906686 
L 128.469197 196.491075 
L 124.461116 196.491075 
z
" clip-path="url(#pb24488697d)" style="fill: #9467bd"/>
   </g>
   <g id="patch_87">
    <path d="M 141.337246 226.739597 
L 145.345327 226.739597 
L 145.345327 192.468869 
L 141.337246 192.468869 
z
" clip-path="url(#pb24488697d)" style="fill: #9467bd"/>
   </g>
   <g id="patch_88">
    <path d="M 158.213376 222.76347 
L 162.221457 222.76347 
L 162.221457 188.630592 
L 158.213376 188.630592 
z
" clip-path="url(#pb24488697d)" style="fill: #9467bd"/>
   </g>
   <g id="patch_89">
    <path d="M 175.089506 218.964647 
L 179.097586 218.964647 
L 179.097586 184.963097 
L 175.089506 184.963097 
z
" clip-path="url(#pb24488697d)" style="fill: #9467bd"/>
   </g>
   <g id="patch_90">
    <path d="M 191.965635 215.330782 
L 195.973716 215.330782 
L 195.973716 181.454503 
L 191.965635 181.454503 
z
" clip-path="url(#pb24488697d)" style="fill: #9467bd"/>
   </g>
   <g id="patch_91">
    <path d="M 208.841765 211.85068 
L 212.849846 211.85068 
L 212.849846 178.094036 
L 208.841765 178.094036 
z
" clip-path="url(#pb24488697d)" style="fill: #9467bd"/>
   </g>
   <g id="patch_92">
    <path d="M 225.717895 208.514164 
L 229.725976 208.514164 
L 229.725976 174.871899 
L 225.717895 174.871899 
z
" clip-path="url(#pb24488697d)" style="fill: #9467bd"/>
   </g>
   <g id="patch_93">
    <path d="M 242.594024 205.311971 
L 246.602105 205.311971 
L 246.602105 171.779178 
L 242.594024 171.779178 
z
" clip-path="url(#pb24488697d)" style="fill: #9467bd"/>
   </g>
   <g id="patch_94">
    <path d="M 259.470154 202.235601 
L 263.478235 202.235601 
L 263.478235 168.807691 
L 259.470154 168.807691 
z
" clip-path="url(#pb24488697d)" style="fill: #9467bd"/>
   </g>
   <g id="patch_95">
    <path d="M 276.346284 199.277295 
L 280.354365 199.277295 
L 280.354365 165.94997 
L 276.346284 165.94997 
z
" clip-path="url(#pb24488697d)" style="fill: #9467bd"/>
   </g>
   <g id="patch_96">
    <path d="M 293.222414 196.429905 
L 297.230494 196.429905 
L 297.230494 163.199137 
L 293.222414 163.199137 
z
" clip-path="url(#pb24488697d)" style="fill: #9467bd"/>
   </g>
   <g id="patch_97">
    <path d="M 310.098543 193.686857 
L 314.106624 193.686857 
L 314.106624 160.548862 
L 310.098543 160.548862 
z
" clip-path="url(#pb24488697d)" style="fill: #9467bd"/>
   </g>
   <g id="patch_98">
    <path d="M 326.974673 191.042078 
L 330.982754 191.042078 
L 330.982754 157.993304 
L 326.974673 157.993304 
z
" clip-path="url(#pb24488697d)" style="fill: #9467bd"/>
   </g>
   <g id="patch_99">
    <path d="M 343.850803 188.489956 
L 347.858884 188.489956 
L 347.858884 155.527058 
L 343.850803 155.527058 
z
" clip-path="url(#pb24488697d)" style="fill: #9467bd"/>
   </g>
   <g id="patch_100">
    <path d="M 360.726932 186.025287 
L 364.735013 186.025287 
L 364.735013 153.145118 
L 360.726932 153.145118 
z
" clip-path="url(#pb24488697d)" style="fill: #9467bd"/>
   </g>
   <g id="patch_101">
    <path d="M 377.603062 183.643239 
L 381.611143 183.643239 
L 381.611143 150.842833 
L 377.603062 150.842833 
z
" clip-path="url(#pb24488697d)" style="fill: #9467bd"/>
   </g>
   <g id="patch_102">
    <path d="M 394.479192 181.339319 
L 398.487273 181.339319 
L 398.487273 148.615879 
L 394.479192 148.615879 
z
" clip-path="url(#pb24488697d)" style="fill: #9467bd"/>
   </g>
   <g id="patch_103">
    <path d="M 73.832727 209.81583 
L 77.840808 209.81583 
L 77.840808 154.631904 
L 73.832727 154.631904 
z
" clip-path="url(#pb24488697d)" style="fill: #8c564b"/>
   </g>
   <g id="patch_104">
    <path d="M 90.708857 205.147329 
L 94.716938 205.147329 
L 94.716938 149.063479 
L 90.708857 149.063479 
z
" clip-path="url(#pb24488697d)" style="fill: #8c564b"/>
   </g>
   <g id="patch_105">
    <path d="M 107.584987 200.711807 
L 111.593068 200.711807 
L 111.593068 143.78661 
L 107.584987 143.78661 
z
" clip-path="url(#pb24488697d)" style="fill: #8c564b"/>
   </g>
   <g id="patch_106">
    <path d="M 124.461116 196.491075 
L 128.469197 196.491075 
L 128.469197 138.778165 
L 124.461116 138.778165 
z
" clip-path="url(#pb24488697d)" style="fill: #8c564b"/>
   </g>
   <g id="patch_107">
    <path d="M 141.337246 192.468869 
L 145.345327 192.468869 
L 145.345327 134.017473 
L 141.337246 134.017473 
z
" clip-path="url(#pb24488697d)" style="fill: #8c564b"/>
   </g>
   <g id="patch_108">
    <path d="M 158.213376 188.630592 
L 162.221457 188.630592 
L 162.221457 129.485997 
L 158.213376 129.485997 
z
" clip-path="url(#pb24488697d)" style="fill: #8c564b"/>
   </g>
   <g id="patch_109">
    <path d="M 175.089506 184.963097 
L 179.097586 184.963097 
L 179.097586 125.167053 
L 175.089506 125.167053 
z
" clip-path="url(#pb24488697d)" style="fill: #8c564b"/>
   </g>
   <g id="patch_110">
    <path d="M 191.965635 181.454503 
L 195.973716 181.454503 
L 195.973716 121.045573 
L 191.965635 121.045573 
z
" clip-path="url(#pb24488697d)" style="fill: #8c564b"/>
   </g>
   <g id="patch_111">
    <path d="M 208.841765 178.094036 
L 212.849846 178.094036 
L 212.849846 117.107898 
L 208.841765 117.107898 
z
" clip-path="url(#pb24488697d)" style="fill: #8c564b"/>
   </g>
   <g id="patch_112">
    <path d="M 225.717895 174.871899 
L 229.725976 174.871899 
L 229.725976 113.341607 
L 225.717895 113.341607 
z
" clip-path="url(#pb24488697d)" style="fill: #8c564b"/>
   </g>
   <g id="patch_113">
    <path d="M 242.594024 171.779178 
L 246.602105 171.779178 
L 246.602105 109.735399 
L 242.594024 109.735399 
z
" clip-path="url(#pb24488697d)" style="fill: #8c564b"/>
   </g>
   <g id="patch_114">
    <path d="M 259.470154 168.807691 
L 263.478235 168.807691 
L 263.478235 106.278956 
L 259.470154 106.278956 
z
" clip-path="url(#pb24488697d)" style="fill: #8c564b"/>
   </g>
   <g id="patch_115">
    <path d="M 276.346284 165.94997 
L 280.354365 165.94997 
L 280.354365 102.962772 
L 276.346284 102.962772 
z
" clip-path="url(#pb24488697d)" style="fill: #8c564b"/>
   </g>
   <g id="patch_116">
    <path d="M 293.222414 163.199137 
L 297.230494 163.199137 
L 297.230494 99.778152 
L 293.222414 99.778152 
z
" clip-path="url(#pb24488697d)" style="fill: #8c564b"/>
   </g>
   <g id="patch_117">
    <path d="M 310.098543 160.548862 
L 314.106624 160.548862 
L 314.106624 96.717076 
L 310.098543 96.717076 
z
" clip-path="url(#pb24488697d)" style="fill: #8c564b"/>
   </g>
   <g id="patch_118">
    <path d="M 326.974673 157.993304 
L 330.982754 157.993304 
L 330.982754 93.772144 
L 326.974673 93.772144 
z
" clip-path="url(#pb24488697d)" style="fill: #8c564b"/>
   </g>
   <g id="patch_119">
    <path d="M 343.850803 155.527058 
L 347.858884 155.527058 
L 347.858884 90.936507 
L 343.850803 90.936507 
z
" clip-path="url(#pb24488697d)" style="fill: #8c564b"/>
   </g>
   <g id="patch_120">
    <path d="M 360.726932 153.145118 
L 364.735013 153.145118 
L 364.735013 88.203817 
L 360.726932 88.203817 
z
" clip-path="url(#pb24488697d)" style="fill: #8c564b"/>
   </g>
   <g id="patch_121">
    <path d="M 377.603062 150.842833 
L 381.611143 150.842833 
L 381.611143 85.568177 
L 377.603062 85.568177 
z
" clip-path="url(#pb24488697d)" style="fill: #8c564b"/>
   </g>
   <g id="patch_122">
    <path d="M 394.479192 148.615879 
L 398.487273 148.615879 
L 398.487273 83.0241 
L 394.479192 83.0241 
z
" clip-path="url(#pb24488697d)" style="fill: #8c564b"/>
   </g>
   <g id="patch_123">
    <path d="M 73.832727 154.631904 
L 77.840808 154.631904 
L 77.840808 121.089962 
L 73.832727 121.089962 
z
" clip-path="url(#pb24488697d)" style="fill: #e377c2"/>
   </g>
   <g id="patch_124">
    <path d="M 90.708857 149.063479 
L 94.716938 149.063479 
L 94.716938 115.873711 
L 90.708857 115.873711 
z
" clip-path="url(#pb24488697d)" style="fill: #e377c2"/>
   </g>
   <g id="patch_125">
    <path d="M 107.584987 143.78661 
L 111.593068 143.78661 
L 111.593068 110.932055 
L 107.584987 110.932055 
z
" clip-path="url(#pb24488697d)" style="fill: #e377c2"/>
   </g>
   <g id="patch_126">
    <path d="M 124.461116 138.778165 
L 128.469197 138.778165 
L 128.469197 106.243194 
L 124.461116 106.243194 
z
" clip-path="url(#pb24488697d)" style="fill: #e377c2"/>
   </g>
   <g id="patch_127">
    <path d="M 141.337246 134.017473 
L 145.345327 134.017473 
L 145.345327 101.787647 
L 141.337246 101.787647 
z
" clip-path="url(#pb24488697d)" style="fill: #e377c2"/>
   </g>
   <g id="patch_128">
    <path d="M 158.213376 129.485997 
L 162.221457 129.485997 
L 162.221457 97.547938 
L 158.213376 97.547938 
z
" clip-path="url(#pb24488697d)" style="fill: #e377c2"/>
   </g>
   <g id="patch_129">
    <path d="M 175.089506 125.167053 
L 179.097586 125.167053 
L 179.097586 93.508335 
L 175.089506 93.508335 
z
" clip-path="url(#pb24488697d)" style="fill: #e377c2"/>
   </g>
   <g id="patch_130">
    <path d="M 191.965635 121.045573 
L 195.973716 121.045573 
L 195.973716 89.654631 
L 191.965635 89.654631 
z
" clip-path="url(#pb24488697d)" style="fill: #e377c2"/>
   </g>
   <g id="patch_131">
    <path d="M 208.841765 117.107898 
L 212.849846 117.107898 
L 212.849846 85.973946 
L 208.841765 85.973946 
z
" clip-path="url(#pb24488697d)" style="fill: #e377c2"/>
   </g>
   <g id="patch_132">
    <path d="M 225.717895 113.341607 
L 229.725976 113.341607 
L 229.725976 82.45457 
L 225.717895 82.45457 
z
" clip-path="url(#pb24488697d)" style="fill: #e377c2"/>
   </g>
   <g id="patch_133">
    <path d="M 242.594024 109.735399 
L 246.602105 109.735399 
L 246.602105 79.085826 
L 242.594024 79.085826 
z
" clip-path="url(#pb24488697d)" style="fill: #e377c2"/>
   </g>
   <g id="patch_134">
    <path d="M 259.470154 106.278956 
L 263.478235 106.278956 
L 263.478235 75.858 
L 259.470154 75.858 
z
" clip-path="url(#pb24488697d)" style="fill: #e377c2"/>
   </g>
   <g id="patch_135">
    <path d="M 276.346284 102.962772 
L 280.354365 102.962772 
L 280.354365 72.762111 
L 276.346284 72.762111 
z
" clip-path="url(#pb24488697d)" style="fill: #e377c2"/>
   </g>
   <g id="patch_136">
    <path d="M 293.222414 99.778152 
L 297.230494 99.778152 
L 297.230494 69.789956 
L 293.222414 69.789956 
z
" clip-path="url(#pb24488697d)" style="fill: #e377c2"/>
   </g>
   <g id="patch_137">
    <path d="M 310.098543 96.717076 
L 314.106624 96.717076 
L 314.106624 66.93397 
L 310.098543 66.93397 
z
" clip-path="url(#pb24488697d)" style="fill: #e377c2"/>
   </g>
   <g id="patch_138">
    <path d="M 326.974673 93.772144 
L 330.982754 93.772144 
L 330.982754 64.187166 
L 326.974673 64.187166 
z
" clip-path="url(#pb24488697d)" style="fill: #e377c2"/>
   </g>
   <g id="patch_139">
    <path d="M 343.850803 90.936507 
L 347.858884 90.936507 
L 347.858884 61.543081 
L 343.850803 61.543081 
z
" clip-path="url(#pb24488697d)" style="fill: #e377c2"/>
   </g>
   <g id="patch_140">
    <path d="M 360.726932 88.203817 
L 364.735013 88.203817 
L 364.735013 58.99572 
L 360.726932 58.99572 
z
" clip-path="url(#pb24488697d)" style="fill: #e377c2"/>
   </g>
   <g id="patch_141">
    <path d="M 377.603062 85.568177 
L 381.611143 85.568177 
L 381.611143 56.539518 
L 377.603062 56.539518 
z
" clip-path="url(#pb24488697d)" style="fill: #e377c2"/>
   </g>
   <g id="patch_142">
    <path d="M 394.479192 83.0241 
L 398.487273 83.0241 
L 398.487273 54.169291 
L 394.479192 54.169291 
z
" clip-path="url(#pb24488697d)" style="fill: #e377c2"/>
   </g>
   <g id="patch_143">
    <path d="M 73.832727 121.089962 
L 77.840808 121.089962 
L 77.840808 119.684956 
L 73.832727 119.684956 
z
" clip-path="url(#pb24488697d)" style="fill: #7f7f7f"/>
   </g>
   <g id="patch_144">
    <path d="M 90.708857 115.873711 
L 94.716938 115.873711 
L 94.716938 114.572113 
L 90.708857 114.572113 
z
" clip-path="url(#pb24488697d)" style="fill: #7f7f7f"/>
   </g>
   <g id="patch_145">
    <path d="M 107.584987 110.932055 
L 111.593068 110.932055 
L 111.593068 109.728959 
L 107.584987 109.728959 
z
" clip-path="url(#pb24488697d)" style="fill: #7f7f7f"/>
   </g>
   <g id="patch_146">
    <path d="M 124.461116 106.243194 
L 128.469197 106.243194 
L 128.469197 105.134076 
L 124.461116 105.134076 
z
" clip-path="url(#pb24488697d)" style="fill: #7f7f7f"/>
   </g>
   <g id="patch_147">
    <path d="M 141.337246 101.787647 
L 145.345327 101.787647 
L 145.345327 100.768317 
L 141.337246 100.768317 
z
" clip-path="url(#pb24488697d)" style="fill: #7f7f7f"/>
   </g>
   <g id="patch_148">
    <path d="M 158.213376 97.547938 
L 162.221457 97.547938 
L 162.221457 96.614509 
L 158.213376 96.614509 
z
" clip-path="url(#pb24488697d)" style="fill: #7f7f7f"/>
   </g>
   <g id="patch_149">
    <path d="M 175.089506 93.508335 
L 179.097586 93.508335 
L 179.097586 92.657191 
L 175.089506 92.657191 
z
" clip-path="url(#pb24488697d)" style="fill: #7f7f7f"/>
   </g>
   <g id="patch_150">
    <path d="M 191.965635 89.654631 
L 195.973716 89.654631 
L 195.973716 88.882397 
L 191.965635 88.882397 
z
" clip-path="url(#pb24488697d)" style="fill: #7f7f7f"/>
   </g>
   <g id="patch_151">
    <path d="M 208.841765 85.973946 
L 212.849846 85.973946 
L 212.849846 85.277468 
L 208.841765 85.277468 
z
" clip-path="url(#pb24488697d)" style="fill: #7f7f7f"/>
   </g>
   <g id="patch_152">
    <path d="M 225.717895 82.45457 
L 229.725976 82.45457 
L 229.725976 81.830891 
L 225.717895 81.830891 
z
" clip-path="url(#pb24488697d)" style="fill: #7f7f7f"/>
   </g>
   <g id="patch_153">
    <path d="M 242.594024 79.085826 
L 246.602105 79.085826 
L 246.602105 78.53217 
L 242.594024 78.53217 
z
" clip-path="url(#pb24488697d)" style="fill: #7f7f7f"/>
   </g>
   <g id="patch_154">
    <path d="M 259.470154 75.858 
L 263.478235 75.858 
L 263.478235 75.371756 
L 259.470154 75.371756 
z
" clip-path="url(#pb24488697d)" style="fill: #7f7f7f"/>
   </g>
   <g id="patch_155">
    <path d="M 276.346284 72.762111 
L 280.354365 72.762111 
L 280.354365 72.340817 
L 276.346284 72.340817 
z
" clip-path="url(#pb24488697d)" style="fill: #7f7f7f"/>
   </g>
   <g id="patch_156">
    <path d="M 293.222414 69.789956 
L 297.230494 69.789956 
L 297.230494 69.43129 
L 293.222414 69.43129 
z
" clip-path="url(#pb24488697d)" style="fill: #7f7f7f"/>
   </g>
   <g id="patch_157">
    <path d="M 310.098543 66.93397 
L 314.106624 66.93397 
L 314.106624 66.635733 
L 310.098543 66.635733 
z
" clip-path="url(#pb24488697d)" style="fill: #7f7f7f"/>
   </g>
   <g id="patch_158">
    <path d="M 326.974673 64.187166 
L 330.982754 64.187166 
L 330.982754 63.947277 
L 326.974673 63.947277 
z
" clip-path="url(#pb24488697d)" style="fill: #7f7f7f"/>
   </g>
   <g id="patch_159">
    <path d="M 343.850803 61.543081 
L 347.858884 61.543081 
L 347.858884 61.359564 
L 343.850803 61.359564 
z
" clip-path="url(#pb24488697d)" style="fill: #7f7f7f"/>
   </g>
   <g id="patch_160">
    <path d="M 360.726932 58.99572 
L 364.735013 58.99572 
L 364.735013 58.866701 
L 360.726932 58.866701 
z
" clip-path="url(#pb24488697d)" style="fill: #7f7f7f"/>
   </g>
   <g id="patch_161">
    <path d="M 377.603062 56.539518 
L 381.611143 56.539518 
L 381.611143 56.463212 
L 377.603062 56.463212 
z
" clip-path="url(#pb24488697d)" style="fill: #7f7f7f"/>
   </g>
   <g id="patch_162">
    <path d="M 394.479192 54.169291 
L 398.487273 54.169291 
L 398.487273 54.144 
L 394.479192 54.144 
z
" clip-path="url(#pb24488697d)" style="fill: #7f7f7f"/>
   </g>
   <g id="matplotlib.axis_1">
    <g id="xtick_1">
     <g id="line2d_1">
      <defs>
       <path id="mc001fab8c7" d="M 0 0 
L 0 3.5 
" style="stroke: #000000; stroke-width: 0.8"/>
      </defs>
      <g>
       <use xlink:href="#mc001fab8c7" x="75.836768" y="307.584" style="stroke: #000000; stroke-width: 0.8"/>
      </g>
     </g>
     <g id="text_1">
      <!-- 25 -->
      <g transform="translate(64.384268 328.261187) scale(0.18 -0.18)">
       <defs>
        <path id="DejaVuSans-32" d="M 1228 531 
L 3431 531 
L 3431 0 
L 469 0 
L 469 531 
Q 828 903 1448 1529 
Q 2069 2156 2228 2338 
Q 2531 2678 2651 2914 
Q 2772 3150 2772 3378 
Q 2772 3750 2511 3984 
Q 2250 4219 1831 4219 
Q 1534 4219 1204 4116 
Q 875 4013 500 3803 
L 500 4441 
Q 881 4594 1212 4672 
Q 1544 4750 1819 4750 
Q 2544 4750 2975 4387 
Q 3406 4025 3406 3419 
Q 3406 3131 3298 2873 
Q 3191 2616 2906 2266 
Q 2828 2175 2409 1742 
Q 1991 1309 1228 531 
z
" transform="scale(0.015625)"/>
        <path id="DejaVuSans-35" d="M 691 4666 
L 3169 4666 
L 3169 4134 
L 1269 4134 
L 1269 2991 
Q 1406 3038 1543 3061 
Q 1681 3084 1819 3084 
Q 2600 3084 3056 2656 
Q 3513 2228 3513 1497 
Q 3513 744 3044 326 
Q 2575 -91 1722 -91 
Q 1428 -91 1123 -41 
Q 819 9 494 109 
L 494 744 
Q 775 591 1075 516 
Q 1375 441 1709 441 
Q 2250 441 2565 725 
Q 2881 1009 2881 1497 
Q 2881 1984 2565 2268 
Q 2250 2553 1709 2553 
Q 1456 2553 1204 2497 
Q 953 2441 691 2322 
L 691 4666 
z
" transform="scale(0.015625)"/>
       </defs>
       <use xlink:href="#DejaVuSans-32"/>
       <use xlink:href="#DejaVuSans-35" x="63.623047"/>
      </g>
     </g>
    </g>
    <g id="xtick_2">
     <g id="line2d_2">
      <g>
       <use xlink:href="#mc001fab8c7" x="176.038788" y="307.584" style="stroke: #000000; stroke-width: 0.8"/>
      </g>
     </g>
     <g id="text_2">
      <!-- 30 -->
      <g transform="translate(164.586288 328.261187) scale(0.18 -0.18)">
       <defs>
        <path id="DejaVuSans-33" d="M 2597 2516 
Q 3050 2419 3304 2112 
Q 3559 1806 3559 1356 
Q 3559 666 3084 287 
Q 2609 -91 1734 -91 
Q 1441 -91 1130 -33 
Q 819 25 488 141 
L 488 750 
Q 750 597 1062 519 
Q 1375 441 1716 441 
Q 2309 441 2620 675 
Q 2931 909 2931 1356 
Q 2931 1769 2642 2001 
Q 2353 2234 1838 2234 
L 1294 2234 
L 1294 2753 
L 1863 2753 
Q 2328 2753 2575 2939 
Q 2822 3125 2822 3475 
Q 2822 3834 2567 4026 
Q 2313 4219 1838 4219 
Q 1578 4219 1281 4162 
Q 984 4106 628 3988 
L 628 4550 
Q 988 4650 1302 4700 
Q 1616 4750 1894 4750 
Q 2613 4750 3031 4423 
Q 3450 4097 3450 3541 
Q 3450 3153 3228 2886 
Q 3006 2619 2597 2516 
z
" transform="scale(0.015625)"/>
        <path id="DejaVuSans-30" d="M 2034 4250 
Q 1547 4250 1301 3770 
Q 1056 3291 1056 2328 
Q 1056 1369 1301 889 
Q 1547 409 2034 409 
Q 2525 409 2770 889 
Q 3016 1369 3016 2328 
Q 3016 3291 2770 3770 
Q 2525 4250 2034 4250 
z
M 2034 4750 
Q 2819 4750 3233 4129 
Q 3647 3509 3647 2328 
Q 3647 1150 3233 529 
Q 2819 -91 2034 -91 
Q 1250 -91 836 529 
Q 422 1150 422 2328 
Q 422 3509 836 4129 
Q 1250 4750 2034 4750 
z
" transform="scale(0.015625)"/>
       </defs>
       <use xlink:href="#DejaVuSans-33"/>
       <use xlink:href="#DejaVuSans-30" x="63.623047"/>
      </g>
     </g>
    </g>
    <g id="xtick_3">
     <g id="line2d_3">
      <g>
       <use xlink:href="#mc001fab8c7" x="276.240808" y="307.584" style="stroke: #000000; stroke-width: 0.8"/>
      </g>
     </g>
     <g id="text_3">
      <!-- 35 -->
      <g transform="translate(264.788308 328.261187) scale(0.18 -0.18)">
       <use xlink:href="#DejaVuSans-33"/>
       <use xlink:href="#DejaVuSans-35" x="63.623047"/>
      </g>
     </g>
    </g>
    <g id="xtick_4">
     <g id="line2d_4">
      <g>
       <use xlink:href="#mc001fab8c7" x="376.442828" y="307.584" style="stroke: #000000; stroke-width: 0.8"/>
      </g>
     </g>
     <g id="text_4">
      <!-- 40 -->
      <g transform="translate(364.990328 328.261187) scale(0.18 -0.18)">
       <defs>
        <path id="DejaVuSans-34" d="M 2419 4116 
L 825 1625 
L 2419 1625 
L 2419 4116 
z
M 2253 4666 
L 3047 4666 
L 3047 1625 
L 3713 1625 
L 3713 1100 
L 3047 1100 
L 3047 0 
L 2419 0 
L 2419 1100 
L 313 1100 
L 313 1709 
L 2253 4666 
z
" transform="scale(0.015625)"/>
       </defs>
       <use xlink:href="#DejaVuSans-34"/>
       <use xlink:href="#DejaVuSans-30" x="63.623047"/>
      </g>
     </g>
    </g>
    <g id="text_5">
     <!-- Kondensatordruck in bar -->
     <g transform="translate(125.630156 349.681812) scale(0.18 -0.18)">
      <defs>
       <path id="DejaVuSans-4b" d="M 628 4666 
L 1259 4666 
L 1259 2694 
L 3353 4666 
L 4166 4666 
L 1850 2491 
L 4331 0 
L 3500 0 
L 1259 2247 
L 1259 0 
L 628 0 
L 628 4666 
z
" transform="scale(0.015625)"/>
       <path id="DejaVuSans-6f" d="M 1959 3097 
Q 1497 3097 1228 2736 
Q 959 2375 959 1747 
Q 959 1119 1226 758 
Q 1494 397 1959 397 
Q 2419 397 2687 759 
Q 2956 1122 2956 1747 
Q 2956 2369 2687 2733 
Q 2419 3097 1959 3097 
z
M 1959 3584 
Q 2709 3584 3137 3096 
Q 3566 2609 3566 1747 
Q 3566 888 3137 398 
Q 2709 -91 1959 -91 
Q 1206 -91 779 398 
Q 353 888 353 1747 
Q 353 2609 779 3096 
Q 1206 3584 1959 3584 
z
" transform="scale(0.015625)"/>
       <path id="DejaVuSans-6e" d="M 3513 2113 
L 3513 0 
L 2938 0 
L 2938 2094 
Q 2938 2591 2744 2837 
Q 2550 3084 2163 3084 
Q 1697 3084 1428 2787 
Q 1159 2491 1159 1978 
L 1159 0 
L 581 0 
L 581 3500 
L 1159 3500 
L 1159 2956 
Q 1366 3272 1645 3428 
Q 1925 3584 2291 3584 
Q 2894 3584 3203 3211 
Q 3513 2838 3513 2113 
z
" transform="scale(0.015625)"/>
       <path id="DejaVuSans-64" d="M 2906 2969 
L 2906 4863 
L 3481 4863 
L 3481 0 
L 2906 0 
L 2906 525 
Q 2725 213 2448 61 
Q 2172 -91 1784 -91 
Q 1150 -91 751 415 
Q 353 922 353 1747 
Q 353 2572 751 3078 
Q 1150 3584 1784 3584 
Q 2172 3584 2448 3432 
Q 2725 3281 2906 2969 
z
M 947 1747 
Q 947 1113 1208 752 
Q 1469 391 1925 391 
Q 2381 391 2643 752 
Q 2906 1113 2906 1747 
Q 2906 2381 2643 2742 
Q 2381 3103 1925 3103 
Q 1469 3103 1208 2742 
Q 947 2381 947 1747 
z
" transform="scale(0.015625)"/>
       <path id="DejaVuSans-65" d="M 3597 1894 
L 3597 1613 
L 953 1613 
Q 991 1019 1311 708 
Q 1631 397 2203 397 
Q 2534 397 2845 478 
Q 3156 559 3463 722 
L 3463 178 
Q 3153 47 2828 -22 
Q 2503 -91 2169 -91 
Q 1331 -91 842 396 
Q 353 884 353 1716 
Q 353 2575 817 3079 
Q 1281 3584 2069 3584 
Q 2775 3584 3186 3129 
Q 3597 2675 3597 1894 
z
M 3022 2063 
Q 3016 2534 2758 2815 
Q 2500 3097 2075 3097 
Q 1594 3097 1305 2825 
Q 1016 2553 972 2059 
L 3022 2063 
z
" transform="scale(0.015625)"/>
       <path id="DejaVuSans-73" d="M 2834 3397 
L 2834 2853 
Q 2591 2978 2328 3040 
Q 2066 3103 1784 3103 
Q 1356 3103 1142 2972 
Q 928 2841 928 2578 
Q 928 2378 1081 2264 
Q 1234 2150 1697 2047 
L 1894 2003 
Q 2506 1872 2764 1633 
Q 3022 1394 3022 966 
Q 3022 478 2636 193 
Q 2250 -91 1575 -91 
Q 1294 -91 989 -36 
Q 684 19 347 128 
L 347 722 
Q 666 556 975 473 
Q 1284 391 1588 391 
Q 1994 391 2212 530 
Q 2431 669 2431 922 
Q 2431 1156 2273 1281 
Q 2116 1406 1581 1522 
L 1381 1569 
Q 847 1681 609 1914 
Q 372 2147 372 2553 
Q 372 3047 722 3315 
Q 1072 3584 1716 3584 
Q 2034 3584 2315 3537 
Q 2597 3491 2834 3397 
z
" transform="scale(0.015625)"/>
       <path id="DejaVuSans-61" d="M 2194 1759 
Q 1497 1759 1228 1600 
Q 959 1441 959 1056 
Q 959 750 1161 570 
Q 1363 391 1709 391 
Q 2188 391 2477 730 
Q 2766 1069 2766 1631 
L 2766 1759 
L 2194 1759 
z
M 3341 1997 
L 3341 0 
L 2766 0 
L 2766 531 
Q 2569 213 2275 61 
Q 1981 -91 1556 -91 
Q 1019 -91 701 211 
Q 384 513 384 1019 
Q 384 1609 779 1909 
Q 1175 2209 1959 2209 
L 2766 2209 
L 2766 2266 
Q 2766 2663 2505 2880 
Q 2244 3097 1772 3097 
Q 1472 3097 1187 3025 
Q 903 2953 641 2809 
L 641 3341 
Q 956 3463 1253 3523 
Q 1550 3584 1831 3584 
Q 2591 3584 2966 3190 
Q 3341 2797 3341 1997 
z
" transform="scale(0.015625)"/>
       <path id="DejaVuSans-74" d="M 1172 4494 
L 1172 3500 
L 2356 3500 
L 2356 3053 
L 1172 3053 
L 1172 1153 
Q 1172 725 1289 603 
Q 1406 481 1766 481 
L 2356 481 
L 2356 0 
L 1766 0 
Q 1100 0 847 248 
Q 594 497 594 1153 
L 594 3053 
L 172 3053 
L 172 3500 
L 594 3500 
L 594 4494 
L 1172 4494 
z
" transform="scale(0.015625)"/>
       <path id="DejaVuSans-72" d="M 2631 2963 
Q 2534 3019 2420 3045 
Q 2306 3072 2169 3072 
Q 1681 3072 1420 2755 
Q 1159 2438 1159 1844 
L 1159 0 
L 581 0 
L 581 3500 
L 1159 3500 
L 1159 2956 
Q 1341 3275 1631 3429 
Q 1922 3584 2338 3584 
Q 2397 3584 2469 3576 
Q 2541 3569 2628 3553 
L 2631 2963 
z
" transform="scale(0.015625)"/>
       <path id="DejaVuSans-75" d="M 544 1381 
L 544 3500 
L 1119 3500 
L 1119 1403 
Q 1119 906 1312 657 
Q 1506 409 1894 409 
Q 2359 409 2629 706 
Q 2900 1003 2900 1516 
L 2900 3500 
L 3475 3500 
L 3475 0 
L 2900 0 
L 2900 538 
Q 2691 219 2414 64 
Q 2138 -91 1772 -91 
Q 1169 -91 856 284 
Q 544 659 544 1381 
z
M 1991 3584 
L 1991 3584 
z
" transform="scale(0.015625)"/>
       <path id="DejaVuSans-63" d="M 3122 3366 
L 3122 2828 
Q 2878 2963 2633 3030 
Q 2388 3097 2138 3097 
Q 1578 3097 1268 2742 
Q 959 2388 959 1747 
Q 959 1106 1268 751 
Q 1578 397 2138 397 
Q 2388 397 2633 464 
Q 2878 531 3122 666 
L 3122 134 
Q 2881 22 2623 -34 
Q 2366 -91 2075 -91 
Q 1284 -91 818 406 
Q 353 903 353 1747 
Q 353 2603 823 3093 
Q 1294 3584 2113 3584 
Q 2378 3584 2631 3529 
Q 2884 3475 3122 3366 
z
" transform="scale(0.015625)"/>
       <path id="DejaVuSans-6b" d="M 581 4863 
L 1159 4863 
L 1159 1991 
L 2875 3500 
L 3609 3500 
L 1753 1863 
L 3688 0 
L 2938 0 
L 1159 1709 
L 1159 0 
L 581 0 
L 581 4863 
z
" transform="scale(0.015625)"/>
       <path id="DejaVuSans-20" transform="scale(0.015625)"/>
       <path id="DejaVuSans-69" d="M 603 3500 
L 1178 3500 
L 1178 0 
L 603 0 
L 603 3500 
z
M 603 4863 
L 1178 4863 
L 1178 4134 
L 603 4134 
L 603 4863 
z
" transform="scale(0.015625)"/>
       <path id="DejaVuSans-62" d="M 3116 1747 
Q 3116 2381 2855 2742 
Q 2594 3103 2138 3103 
Q 1681 3103 1420 2742 
Q 1159 2381 1159 1747 
Q 1159 1113 1420 752 
Q 1681 391 2138 391 
Q 2594 391 2855 752 
Q 3116 1113 3116 1747 
z
M 1159 2969 
Q 1341 3281 1617 3432 
Q 1894 3584 2278 3584 
Q 2916 3584 3314 3078 
Q 3713 2572 3713 1747 
Q 3713 922 3314 415 
Q 2916 -91 2278 -91 
Q 1894 -91 1617 61 
Q 1341 213 1159 525 
L 1159 0 
L 581 0 
L 581 4863 
L 1159 4863 
L 1159 2969 
z
" transform="scale(0.015625)"/>
      </defs>
      <use xlink:href="#DejaVuSans-4b"/>
      <use xlink:href="#DejaVuSans-6f" x="60.576172"/>
      <use xlink:href="#DejaVuSans-6e" x="121.757812"/>
      <use xlink:href="#DejaVuSans-64" x="185.136719"/>
      <use xlink:href="#DejaVuSans-65" x="248.613281"/>
      <use xlink:href="#DejaVuSans-6e" x="310.136719"/>
      <use xlink:href="#DejaVuSans-73" x="373.515625"/>
      <use xlink:href="#DejaVuSans-61" x="425.615234"/>
      <use xlink:href="#DejaVuSans-74" x="486.894531"/>
      <use xlink:href="#DejaVuSans-6f" x="526.103516"/>
      <use xlink:href="#DejaVuSans-72" x="587.285156"/>
      <use xlink:href="#DejaVuSans-64" x="626.648438"/>
      <use xlink:href="#DejaVuSans-72" x="690.125"/>
      <use xlink:href="#DejaVuSans-75" x="731.238281"/>
      <use xlink:href="#DejaVuSans-63" x="794.617188"/>
      <use xlink:href="#DejaVuSans-6b" x="849.597656"/>
      <use xlink:href="#DejaVuSans-20" x="907.507812"/>
      <use xlink:href="#DejaVuSans-69" x="939.294922"/>
      <use xlink:href="#DejaVuSans-6e" x="967.078125"/>
      <use xlink:href="#DejaVuSans-20" x="1030.457031"/>
      <use xlink:href="#DejaVuSans-62" x="1062.244141"/>
      <use xlink:href="#DejaVuSans-61" x="1125.720703"/>
      <use xlink:href="#DejaVuSans-72" x="1187"/>
     </g>
    </g>
   </g>
   <g id="matplotlib.axis_2">
    <g id="ytick_1">
     <g id="line2d_5">
      <defs>
       <path id="mb31e5ec692" d="M 0 0 
L -3.5 0 
" style="stroke: #000000; stroke-width: 0.8"/>
      </defs>
      <g>
       <use xlink:href="#mb31e5ec692" x="57.6" y="307.584" style="stroke: #000000; stroke-width: 0.8"/>
      </g>
     </g>
     <g id="text_6">
      <!-- 0.00 -->
      <g transform="translate(10.521875 314.422594) scale(0.18 -0.18)">
       <defs>
        <path id="DejaVuSans-2e" d="M 684 794 
L 1344 794 
L 1344 0 
L 684 0 
L 684 794 
z
" transform="scale(0.015625)"/>
       </defs>
       <use xlink:href="#DejaVuSans-30"/>
       <use xlink:href="#DejaVuSans-2e" x="63.623047"/>
       <use xlink:href="#DejaVuSans-30" x="95.410156"/>
       <use xlink:href="#DejaVuSans-30" x="159.033203"/>
      </g>
     </g>
    </g>
    <g id="ytick_2">
     <g id="line2d_6">
      <g>
       <use xlink:href="#mb31e5ec692" x="57.6" y="260.505329" style="stroke: #000000; stroke-width: 0.8"/>
      </g>
     </g>
     <g id="text_7">
      <!-- 0.25 -->
      <g transform="translate(10.521875 267.343923) scale(0.18 -0.18)">
       <use xlink:href="#DejaVuSans-30"/>
       <use xlink:href="#DejaVuSans-2e" x="63.623047"/>
       <use xlink:href="#DejaVuSans-32" x="95.410156"/>
       <use xlink:href="#DejaVuSans-35" x="159.033203"/>
      </g>
     </g>
    </g>
    <g id="ytick_3">
     <g id="line2d_7">
      <g>
       <use xlink:href="#mb31e5ec692" x="57.6" y="213.426658" style="stroke: #000000; stroke-width: 0.8"/>
      </g>
     </g>
     <g id="text_8">
      <!-- 0.50 -->
      <g transform="translate(10.521875 220.265252) scale(0.18 -0.18)">
       <use xlink:href="#DejaVuSans-30"/>
       <use xlink:href="#DejaVuSans-2e" x="63.623047"/>
       <use xlink:href="#DejaVuSans-35" x="95.410156"/>
       <use xlink:href="#DejaVuSans-30" x="159.033203"/>
      </g>
     </g>
    </g>
    <g id="ytick_4">
     <g id="line2d_8">
      <g>
       <use xlink:href="#mb31e5ec692" x="57.6" y="166.347987" style="stroke: #000000; stroke-width: 0.8"/>
      </g>
     </g>
     <g id="text_9">
      <!-- 0.75 -->
      <g transform="translate(10.521875 173.18658) scale(0.18 -0.18)">
       <defs>
        <path id="DejaVuSans-37" d="M 525 4666 
L 3525 4666 
L 3525 4397 
L 1831 0 
L 1172 0 
L 2766 4134 
L 525 4134 
L 525 4666 
z
" transform="scale(0.015625)"/>
       </defs>
       <use xlink:href="#DejaVuSans-30"/>
       <use xlink:href="#DejaVuSans-2e" x="63.623047"/>
       <use xlink:href="#DejaVuSans-37" x="95.410156"/>
       <use xlink:href="#DejaVuSans-35" x="159.033203"/>
      </g>
     </g>
    </g>
    <g id="ytick_5">
     <g id="line2d_9">
      <g>
       <use xlink:href="#mb31e5ec692" x="57.6" y="119.269316" style="stroke: #000000; stroke-width: 0.8"/>
      </g>
     </g>
     <g id="text_10">
      <!-- 1.00 -->
      <g transform="translate(10.521875 126.107909) scale(0.18 -0.18)">
       <defs>
        <path id="DejaVuSans-31" d="M 794 531 
L 1825 531 
L 1825 4091 
L 703 3866 
L 703 4441 
L 1819 4666 
L 2450 4666 
L 2450 531 
L 3481 531 
L 3481 0 
L 794 0 
L 794 531 
z
" transform="scale(0.015625)"/>
       </defs>
       <use xlink:href="#DejaVuSans-31"/>
       <use xlink:href="#DejaVuSans-2e" x="63.623047"/>
       <use xlink:href="#DejaVuSans-30" x="95.410156"/>
       <use xlink:href="#DejaVuSans-30" x="159.033203"/>
      </g>
     </g>
    </g>
    <g id="ytick_6">
     <g id="line2d_10">
      <g>
       <use xlink:href="#mb31e5ec692" x="57.6" y="72.190644" style="stroke: #000000; stroke-width: 0.8"/>
      </g>
     </g>
     <g id="text_11">
      <!-- 1.25 -->
      <g transform="translate(10.521875 79.029238) scale(0.18 -0.18)">
       <use xlink:href="#DejaVuSans-31"/>
       <use xlink:href="#DejaVuSans-2e" x="63.623047"/>
       <use xlink:href="#DejaVuSans-32" x="95.410156"/>
       <use xlink:href="#DejaVuSans-35" x="159.033203"/>
      </g>
     </g>
    </g>
    <g id="text_12">
     <!-- Exergievernichtung in MW -->
     <g transform="translate(2.778437 292.593937) rotate(-90) scale(0.18 -0.18)">
      <defs>
       <path id="DejaVuSans-45" d="M 628 4666 
L 3578 4666 
L 3578 4134 
L 1259 4134 
L 1259 2753 
L 3481 2753 
L 3481 2222 
L 1259 2222 
L 1259 531 
L 3634 531 
L 3634 0 
L 628 0 
L 628 4666 
z
" transform="scale(0.015625)"/>
       <path id="DejaVuSans-78" d="M 3513 3500 
L 2247 1797 
L 3578 0 
L 2900 0 
L 1881 1375 
L 863 0 
L 184 0 
L 1544 1831 
L 300 3500 
L 978 3500 
L 1906 2253 
L 2834 3500 
L 3513 3500 
z
" transform="scale(0.015625)"/>
       <path id="DejaVuSans-67" d="M 2906 1791 
Q 2906 2416 2648 2759 
Q 2391 3103 1925 3103 
Q 1463 3103 1205 2759 
Q 947 2416 947 1791 
Q 947 1169 1205 825 
Q 1463 481 1925 481 
Q 2391 481 2648 825 
Q 2906 1169 2906 1791 
z
M 3481 434 
Q 3481 -459 3084 -895 
Q 2688 -1331 1869 -1331 
Q 1566 -1331 1297 -1286 
Q 1028 -1241 775 -1147 
L 775 -588 
Q 1028 -725 1275 -790 
Q 1522 -856 1778 -856 
Q 2344 -856 2625 -561 
Q 2906 -266 2906 331 
L 2906 616 
Q 2728 306 2450 153 
Q 2172 0 1784 0 
Q 1141 0 747 490 
Q 353 981 353 1791 
Q 353 2603 747 3093 
Q 1141 3584 1784 3584 
Q 2172 3584 2450 3431 
Q 2728 3278 2906 2969 
L 2906 3500 
L 3481 3500 
L 3481 434 
z
" transform="scale(0.015625)"/>
       <path id="DejaVuSans-76" d="M 191 3500 
L 800 3500 
L 1894 563 
L 2988 3500 
L 3597 3500 
L 2284 0 
L 1503 0 
L 191 3500 
z
" transform="scale(0.015625)"/>
       <path id="DejaVuSans-68" d="M 3513 2113 
L 3513 0 
L 2938 0 
L 2938 2094 
Q 2938 2591 2744 2837 
Q 2550 3084 2163 3084 
Q 1697 3084 1428 2787 
Q 1159 2491 1159 1978 
L 1159 0 
L 581 0 
L 581 4863 
L 1159 4863 
L 1159 2956 
Q 1366 3272 1645 3428 
Q 1925 3584 2291 3584 
Q 2894 3584 3203 3211 
Q 3513 2838 3513 2113 
z
" transform="scale(0.015625)"/>
       <path id="DejaVuSans-4d" d="M 628 4666 
L 1569 4666 
L 2759 1491 
L 3956 4666 
L 4897 4666 
L 4897 0 
L 4281 0 
L 4281 4097 
L 3078 897 
L 2444 897 
L 1241 4097 
L 1241 0 
L 628 0 
L 628 4666 
z
" transform="scale(0.015625)"/>
       <path id="DejaVuSans-57" d="M 213 4666 
L 850 4666 
L 1831 722 
L 2809 4666 
L 3519 4666 
L 4500 722 
L 5478 4666 
L 6119 4666 
L 4947 0 
L 4153 0 
L 3169 4050 
L 2175 0 
L 1381 0 
L 213 4666 
z
" transform="scale(0.015625)"/>
      </defs>
      <use xlink:href="#DejaVuSans-45"/>
      <use xlink:href="#DejaVuSans-78" x="63.183594"/>
      <use xlink:href="#DejaVuSans-65" x="119.238281"/>
      <use xlink:href="#DejaVuSans-72" x="180.761719"/>
      <use xlink:href="#DejaVuSans-67" x="220.125"/>
      <use xlink:href="#DejaVuSans-69" x="283.601562"/>
      <use xlink:href="#DejaVuSans-65" x="311.384766"/>
      <use xlink:href="#DejaVuSans-76" x="372.908203"/>
      <use xlink:href="#DejaVuSans-65" x="432.087891"/>
      <use xlink:href="#DejaVuSans-72" x="493.611328"/>
      <use xlink:href="#DejaVuSans-6e" x="532.974609"/>
      <use xlink:href="#DejaVuSans-69" x="596.353516"/>
      <use xlink:href="#DejaVuSans-63" x="624.136719"/>
      <use xlink:href="#DejaVuSans-68" x="679.117188"/>
      <use xlink:href="#DejaVuSans-74" x="742.496094"/>
      <use xlink:href="#DejaVuSans-75" x="781.705078"/>
      <use xlink:href="#DejaVuSans-6e" x="845.083984"/>
      <use xlink:href="#DejaVuSans-67" x="908.462891"/>
      <use xlink:href="#DejaVuSans-20" x="971.939453"/>
      <use xlink:href="#DejaVuSans-69" x="1003.726562"/>
      <use xlink:href="#DejaVuSans-6e" x="1031.509766"/>
      <use xlink:href="#DejaVuSans-20" x="1094.888672"/>
      <use xlink:href="#DejaVuSans-4d" x="1126.675781"/>
      <use xlink:href="#DejaVuSans-57" x="1212.955078"/>
     </g>
    </g>
   </g>
   <g id="patch_163">
    <path d="M 57.6 307.584 
L 57.6 41.472 
" style="fill: none; stroke: #000000; stroke-width: 0.8; stroke-linejoin: miter; stroke-linecap: square"/>
   </g>
   <g id="patch_164">
    <path d="M 414.72 307.584 
L 414.72 41.472 
" style="fill: none; stroke: #000000; stroke-width: 0.8; stroke-linejoin: miter; stroke-linecap: square"/>
   </g>
   <g id="patch_165">
    <path d="M 57.6 307.584 
L 414.72 307.584 
" style="fill: none; stroke: #000000; stroke-width: 0.8; stroke-linejoin: miter; stroke-linecap: square"/>
   </g>
   <g id="patch_166">
    <path d="M 57.6 41.472 
L 414.72 41.472 
" style="fill: none; stroke: #000000; stroke-width: 0.8; stroke-linejoin: miter; stroke-linecap: square"/>
   </g>
   <g id="legend_1">
    <g id="patch_167">
     <path d="M 125.648437 298.584 
L 402.12 298.584 
Q 405.72 298.584 405.72 294.984 
L 405.72 85.419 
Q 405.72 81.819 402.12 81.819 
L 125.648437 81.819 
Q 122.048437 81.819 122.048437 85.419 
L 122.048437 294.984 
Q 122.048437 298.584 125.648437 298.584 
z
" style="fill: #ffffff; opacity: 0.8; stroke: #cccccc; stroke-linejoin: miter"/>
    </g>
    <g id="patch_168">
     <path d="M 129.248437 102.696188 
L 165.248437 102.696188 
L 165.248437 90.096188 
L 129.248437 90.096188 
z
" style="fill: #1f77b4"/>
    </g>
    <g id="text_13">
     <!-- Gas cooler -->
     <g transform="translate(179.648438 102.696188) scale(0.18 -0.18)">
      <defs>
       <path id="DejaVuSans-47" d="M 3809 666 
L 3809 1919 
L 2778 1919 
L 2778 2438 
L 4434 2438 
L 4434 434 
Q 4069 175 3628 42 
Q 3188 -91 2688 -91 
Q 1594 -91 976 548 
Q 359 1188 359 2328 
Q 359 3472 976 4111 
Q 1594 4750 2688 4750 
Q 3144 4750 3555 4637 
Q 3966 4525 4313 4306 
L 4313 3634 
Q 3963 3931 3569 4081 
Q 3175 4231 2741 4231 
Q 1884 4231 1454 3753 
Q 1025 3275 1025 2328 
Q 1025 1384 1454 906 
Q 1884 428 2741 428 
Q 3075 428 3337 486 
Q 3600 544 3809 666 
z
" transform="scale(0.015625)"/>
       <path id="DejaVuSans-6c" d="M 603 4863 
L 1178 4863 
L 1178 0 
L 603 0 
L 603 4863 
z
" transform="scale(0.015625)"/>
      </defs>
      <use xlink:href="#DejaVuSans-47"/>
      <use xlink:href="#DejaVuSans-61" x="77.490234"/>
      <use xlink:href="#DejaVuSans-73" x="138.769531"/>
      <use xlink:href="#DejaVuSans-20" x="190.869141"/>
      <use xlink:href="#DejaVuSans-63" x="222.65625"/>
      <use xlink:href="#DejaVuSans-6f" x="277.636719"/>
      <use xlink:href="#DejaVuSans-6f" x="338.818359"/>
      <use xlink:href="#DejaVuSans-6c" x="400"/>
      <use xlink:href="#DejaVuSans-65" x="427.783203"/>
      <use xlink:href="#DejaVuSans-72" x="489.306641"/>
     </g>
    </g>
    <g id="patch_169">
     <path d="M 129.248437 129.116813 
L 165.248437 129.116813 
L 165.248437 116.516813 
L 129.248437 116.516813 
z
" style="fill: #ff7f0e"/>
    </g>
    <g id="text_14">
     <!-- Evaporator -->
     <g transform="translate(179.648438 129.116813) scale(0.18 -0.18)">
      <defs>
       <path id="DejaVuSans-70" d="M 1159 525 
L 1159 -1331 
L 581 -1331 
L 581 3500 
L 1159 3500 
L 1159 2969 
Q 1341 3281 1617 3432 
Q 1894 3584 2278 3584 
Q 2916 3584 3314 3078 
Q 3713 2572 3713 1747 
Q 3713 922 3314 415 
Q 2916 -91 2278 -91 
Q 1894 -91 1617 61 
Q 1341 213 1159 525 
z
M 3116 1747 
Q 3116 2381 2855 2742 
Q 2594 3103 2138 3103 
Q 1681 3103 1420 2742 
Q 1159 2381 1159 1747 
Q 1159 1113 1420 752 
Q 1681 391 2138 391 
Q 2594 391 2855 752 
Q 3116 1113 3116 1747 
z
" transform="scale(0.015625)"/>
      </defs>
      <use xlink:href="#DejaVuSans-45"/>
      <use xlink:href="#DejaVuSans-76" x="63.183594"/>
      <use xlink:href="#DejaVuSans-61" x="122.363281"/>
      <use xlink:href="#DejaVuSans-70" x="183.642578"/>
      <use xlink:href="#DejaVuSans-6f" x="247.119141"/>
      <use xlink:href="#DejaVuSans-72" x="308.300781"/>
      <use xlink:href="#DejaVuSans-61" x="349.414062"/>
      <use xlink:href="#DejaVuSans-74" x="410.693359"/>
      <use xlink:href="#DejaVuSans-6f" x="449.902344"/>
      <use xlink:href="#DejaVuSans-72" x="511.083984"/>
     </g>
    </g>
    <g id="patch_170">
     <path d="M 129.248437 155.537437 
L 165.248437 155.537437 
L 165.248437 142.937437 
L 129.248437 142.937437 
z
" style="fill: #2ca02c"/>
    </g>
    <g id="text_15">
     <!-- Valve 1 -->
     <g transform="translate(179.648438 155.537437) scale(0.18 -0.18)">
      <defs>
       <path id="DejaVuSans-56" d="M 1831 0 
L 50 4666 
L 709 4666 
L 2188 738 
L 3669 4666 
L 4325 4666 
L 2547 0 
L 1831 0 
z
" transform="scale(0.015625)"/>
      </defs>
      <use xlink:href="#DejaVuSans-56"/>
      <use xlink:href="#DejaVuSans-61" x="60.658203"/>
      <use xlink:href="#DejaVuSans-6c" x="121.9375"/>
      <use xlink:href="#DejaVuSans-76" x="149.720703"/>
      <use xlink:href="#DejaVuSans-65" x="208.900391"/>
      <use xlink:href="#DejaVuSans-20" x="270.423828"/>
      <use xlink:href="#DejaVuSans-31" x="302.210938"/>
     </g>
    </g>
    <g id="patch_171">
     <path d="M 129.248437 181.958062 
L 165.248437 181.958062 
L 165.248437 169.358062 
L 129.248437 169.358062 
z
" style="fill: #d62728"/>
    </g>
    <g id="text_16">
     <!-- Valve 2 -->
     <g transform="translate(179.648438 181.958062) scale(0.18 -0.18)">
      <use xlink:href="#DejaVuSans-56"/>
      <use xlink:href="#DejaVuSans-61" x="60.658203"/>
      <use xlink:href="#DejaVuSans-6c" x="121.9375"/>
      <use xlink:href="#DejaVuSans-76" x="149.720703"/>
      <use xlink:href="#DejaVuSans-65" x="208.900391"/>
      <use xlink:href="#DejaVuSans-20" x="270.423828"/>
      <use xlink:href="#DejaVuSans-32" x="302.210938"/>
     </g>
    </g>
    <g id="patch_172">
     <path d="M 129.248437 208.378688 
L 165.248437 208.378688 
L 165.248437 195.778688 
L 129.248437 195.778688 
z
" style="fill: #9467bd"/>
    </g>
    <g id="text_17">
     <!-- Compressor 1 -->
     <g transform="translate(179.648438 208.378688) scale(0.18 -0.18)">
      <defs>
       <path id="DejaVuSans-43" d="M 4122 4306 
L 4122 3641 
Q 3803 3938 3442 4084 
Q 3081 4231 2675 4231 
Q 1875 4231 1450 3742 
Q 1025 3253 1025 2328 
Q 1025 1406 1450 917 
Q 1875 428 2675 428 
Q 3081 428 3442 575 
Q 3803 722 4122 1019 
L 4122 359 
Q 3791 134 3420 21 
Q 3050 -91 2638 -91 
Q 1578 -91 968 557 
Q 359 1206 359 2328 
Q 359 3453 968 4101 
Q 1578 4750 2638 4750 
Q 3056 4750 3426 4639 
Q 3797 4528 4122 4306 
z
" transform="scale(0.015625)"/>
       <path id="DejaVuSans-6d" d="M 3328 2828 
Q 3544 3216 3844 3400 
Q 4144 3584 4550 3584 
Q 5097 3584 5394 3201 
Q 5691 2819 5691 2113 
L 5691 0 
L 5113 0 
L 5113 2094 
Q 5113 2597 4934 2840 
Q 4756 3084 4391 3084 
Q 3944 3084 3684 2787 
Q 3425 2491 3425 1978 
L 3425 0 
L 2847 0 
L 2847 2094 
Q 2847 2600 2669 2842 
Q 2491 3084 2119 3084 
Q 1678 3084 1418 2786 
Q 1159 2488 1159 1978 
L 1159 0 
L 581 0 
L 581 3500 
L 1159 3500 
L 1159 2956 
Q 1356 3278 1631 3431 
Q 1906 3584 2284 3584 
Q 2666 3584 2933 3390 
Q 3200 3197 3328 2828 
z
" transform="scale(0.015625)"/>
      </defs>
      <use xlink:href="#DejaVuSans-43"/>
      <use xlink:href="#DejaVuSans-6f" x="69.824219"/>
      <use xlink:href="#DejaVuSans-6d" x="131.005859"/>
      <use xlink:href="#DejaVuSans-70" x="228.417969"/>
      <use xlink:href="#DejaVuSans-72" x="291.894531"/>
      <use xlink:href="#DejaVuSans-65" x="330.757812"/>
      <use xlink:href="#DejaVuSans-73" x="392.28125"/>
      <use xlink:href="#DejaVuSans-73" x="444.380859"/>
      <use xlink:href="#DejaVuSans-6f" x="496.480469"/>
      <use xlink:href="#DejaVuSans-72" x="557.662109"/>
      <use xlink:href="#DejaVuSans-20" x="598.775391"/>
      <use xlink:href="#DejaVuSans-31" x="630.5625"/>
     </g>
    </g>
    <g id="patch_173">
     <path d="M 129.248437 234.799312 
L 165.248437 234.799312 
L 165.248437 222.199312 
L 129.248437 222.199312 
z
" style="fill: #8c564b"/>
    </g>
    <g id="text_18">
     <!-- Compressor 2 -->
     <g transform="translate(179.648438 234.799312) scale(0.18 -0.18)">
      <use xlink:href="#DejaVuSans-43"/>
      <use xlink:href="#DejaVuSans-6f" x="69.824219"/>
      <use xlink:href="#DejaVuSans-6d" x="131.005859"/>
      <use xlink:href="#DejaVuSans-70" x="228.417969"/>
      <use xlink:href="#DejaVuSans-72" x="291.894531"/>
      <use xlink:href="#DejaVuSans-65" x="330.757812"/>
      <use xlink:href="#DejaVuSans-73" x="392.28125"/>
      <use xlink:href="#DejaVuSans-73" x="444.380859"/>
      <use xlink:href="#DejaVuSans-6f" x="496.480469"/>
      <use xlink:href="#DejaVuSans-72" x="557.662109"/>
      <use xlink:href="#DejaVuSans-20" x="598.775391"/>
      <use xlink:href="#DejaVuSans-32" x="630.5625"/>
     </g>
    </g>
    <g id="patch_174">
     <path d="M 129.248437 261.219938 
L 165.248437 261.219938 
L 165.248437 248.619938 
L 129.248437 248.619938 
z
" style="fill: #e377c2"/>
    </g>
    <g id="text_19">
     <!-- Internal Heat Exchanger -->
     <g transform="translate(179.648438 261.219938) scale(0.18 -0.18)">
      <defs>
       <path id="DejaVuSans-49" d="M 628 4666 
L 1259 4666 
L 1259 0 
L 628 0 
L 628 4666 
z
" transform="scale(0.015625)"/>
       <path id="DejaVuSans-48" d="M 628 4666 
L 1259 4666 
L 1259 2753 
L 3553 2753 
L 3553 4666 
L 4184 4666 
L 4184 0 
L 3553 0 
L 3553 2222 
L 1259 2222 
L 1259 0 
L 628 0 
L 628 4666 
z
" transform="scale(0.015625)"/>
      </defs>
      <use xlink:href="#DejaVuSans-49"/>
      <use xlink:href="#DejaVuSans-6e" x="29.492188"/>
      <use xlink:href="#DejaVuSans-74" x="92.871094"/>
      <use xlink:href="#DejaVuSans-65" x="132.080078"/>
      <use xlink:href="#DejaVuSans-72" x="193.603516"/>
      <use xlink:href="#DejaVuSans-6e" x="232.966797"/>
      <use xlink:href="#DejaVuSans-61" x="296.345703"/>
      <use xlink:href="#DejaVuSans-6c" x="357.625"/>
      <use xlink:href="#DejaVuSans-20" x="385.408203"/>
      <use xlink:href="#DejaVuSans-48" x="417.195312"/>
      <use xlink:href="#DejaVuSans-65" x="492.390625"/>
      <use xlink:href="#DejaVuSans-61" x="553.914062"/>
      <use xlink:href="#DejaVuSans-74" x="615.193359"/>
      <use xlink:href="#DejaVuSans-20" x="654.402344"/>
      <use xlink:href="#DejaVuSans-45" x="686.189453"/>
      <use xlink:href="#DejaVuSans-78" x="749.373047"/>
      <use xlink:href="#DejaVuSans-63" x="806.802734"/>
      <use xlink:href="#DejaVuSans-68" x="861.783203"/>
      <use xlink:href="#DejaVuSans-61" x="925.162109"/>
      <use xlink:href="#DejaVuSans-6e" x="986.441406"/>
      <use xlink:href="#DejaVuSans-67" x="1049.820312"/>
      <use xlink:href="#DejaVuSans-65" x="1113.296875"/>
      <use xlink:href="#DejaVuSans-72" x="1174.820312"/>
     </g>
    </g>
    <g id="patch_175">
     <path d="M 129.248437 287.640562 
L 165.248437 287.640562 
L 165.248437 275.040562 
L 129.248437 275.040562 
z
" style="fill: #7f7f7f"/>
    </g>
    <g id="text_20">
     <!-- Merge -->
     <g transform="translate(179.648438 287.640562) scale(0.18 -0.18)">
      <use xlink:href="#DejaVuSans-4d"/>
      <use xlink:href="#DejaVuSans-65" x="86.279297"/>
      <use xlink:href="#DejaVuSans-72" x="147.802734"/>
      <use xlink:href="#DejaVuSans-67" x="187.166016"/>
      <use xlink:href="#DejaVuSans-65" x="250.642578"/>
     </g>
    </g>
   </g>
  </g>
 </g>
 <defs>
  <clipPath id="pb24488697d">
   <rect x="57.6" y="41.472" width="357.12" height="266.112"/>
  </clipPath>
 </defs>
</svg>
