<?xml version="1.0" encoding="utf-8" standalone="no"?>
<!DOCTYPE svg PUBLIC "-//W3C//DTD SVG 1.1//EN"
  "http://www.w3.org/Graphics/SVG/1.1/DTD/svg11.dtd">
<svg xmlns:xlink="http://www.w3.org/1999/xlink" width="1105.92pt" height="577.728pt" viewBox="0 0 1105.92 577.728" xmlns="http://www.w3.org/2000/svg" version="1.1">
 <metadata>
  <rdf:RDF xmlns:dc="http://purl.org/dc/elements/1.1/" xmlns:cc="http://creativecommons.org/ns#" xmlns:rdf="http://www.w3.org/1999/02/22-rdf-syntax-ns#">
   <cc:Work>
    <dc:type rdf:resource="http://purl.org/dc/dcmitype/StillImage"/>
    <dc:date>2023-03-01T11:49:03.873396</dc:date>
    <dc:format>image/svg+xml</dc:format>
    <dc:creator>
     <cc:Agent>
      <dc:title>Matplotlib v3.6.1, https://matplotlib.org/</dc:title>
     </cc:Agent>
    </dc:creator>
   </cc:Work>
  </rdf:RDF>
 </metadata>
 <defs>
  <style type="text/css">*{stroke-linejoin: round; stroke-linecap: butt}</style>
 </defs>
 <g id="figure_1">
  <g id="patch_1">
   <path d="M 0 577.728 
L 1105.92 577.728 
L 1105.92 0 
L 0 0 
z
" style="fill: #ffffff"/>
  </g>
  <g id="axes_1">
   <g id="patch_2">
    <path d="M 138.24 514.17792 
L 995.328 514.17792 
L 995.328 69.32736 
L 138.24 69.32736 
z
" style="fill: #ffffff"/>
   </g>
   <g id="patch_3">
    <path d="M 177.198545 514.17792 
L 192.476406 514.17792 
L 192.476406 468.217504 
L 177.198545 468.217504 
z
" clip-path="url(#pdcfdb819c9)" style="fill: #1f77b4"/>
   </g>
   <g id="patch_4">
    <path d="M 209.027422 514.17792 
L 224.305283 514.17792 
L 224.305283 466.432914 
L 209.027422 466.432914 
z
" clip-path="url(#pdcfdb819c9)" style="fill: #1f77b4"/>
   </g>
   <g id="patch_5">
    <path d="M 240.856299 514.17792 
L 256.13416 514.17792 
L 256.13416 464.589977 
L 240.856299 464.589977 
z
" clip-path="url(#pdcfdb819c9)" style="fill: #1f77b4"/>
   </g>
   <g id="patch_6">
    <path d="M 272.685176 514.17792 
L 287.963037 514.17792 
L 287.963037 462.779394 
L 272.685176 462.779394 
z
" clip-path="url(#pdcfdb819c9)" style="fill: #1f77b4"/>
   </g>
   <g id="patch_7">
    <path d="M 304.514053 514.17792 
L 319.791914 514.17792 
L 319.791914 461.037591 
L 304.514053 461.037591 
z
" clip-path="url(#pdcfdb819c9)" style="fill: #1f77b4"/>
   </g>
   <g id="patch_8">
    <path d="M 336.34293 514.17792 
L 351.620791 514.17792 
L 351.620791 459.380162 
L 336.34293 459.380162 
z
" clip-path="url(#pdcfdb819c9)" style="fill: #1f77b4"/>
   </g>
   <g id="patch_9">
    <path d="M 368.171807 514.17792 
L 383.449668 514.17792 
L 383.449668 457.813169 
L 368.171807 457.813169 
z
" clip-path="url(#pdcfdb819c9)" style="fill: #1f77b4"/>
   </g>
   <g id="patch_10">
    <path d="M 400.000684 514.17792 
L 415.278545 514.17792 
L 415.278545 456.33788 
L 400.000684 456.33788 
z
" clip-path="url(#pdcfdb819c9)" style="fill: #1f77b4"/>
   </g>
   <g id="patch_11">
    <path d="M 431.829561 514.17792 
L 447.107422 514.17792 
L 447.107422 454.953015 
L 431.829561 454.953015 
z
" clip-path="url(#pdcfdb819c9)" style="fill: #1f77b4"/>
   </g>
   <g id="patch_12">
    <path d="M 463.658439 514.17792 
L 478.936299 514.17792 
L 478.936299 453.655914 
L 463.658439 453.655914 
z
" clip-path="url(#pdcfdb819c9)" style="fill: #1f77b4"/>
   </g>
   <g id="patch_13">
    <path d="M 495.487316 514.17792 
L 510.765176 514.17792 
L 510.765176 452.443177 
L 495.487316 452.443177 
z
" clip-path="url(#pdcfdb819c9)" style="fill: #1f77b4"/>
   </g>
   <g id="patch_14">
    <path d="M 527.316193 514.17792 
L 542.594053 514.17792 
L 542.594053 451.311037 
L 527.316193 451.311037 
z
" clip-path="url(#pdcfdb819c9)" style="fill: #1f77b4"/>
   </g>
   <g id="patch_15">
    <path d="M 559.14507 514.17792 
L 574.42293 514.17792 
L 574.42293 450.255574 
L 559.14507 450.255574 
z
" clip-path="url(#pdcfdb819c9)" style="fill: #1f77b4"/>
   </g>
   <g id="patch_16">
    <path d="M 590.973947 514.17792 
L 606.251807 514.17792 
L 606.251807 449.272851 
L 590.973947 449.272851 
z
" clip-path="url(#pdcfdb819c9)" style="fill: #1f77b4"/>
   </g>
   <g id="patch_17">
    <path d="M 622.802824 514.17792 
L 638.080684 514.17792 
L 638.080684 448.358996 
L 622.802824 448.358996 
z
" clip-path="url(#pdcfdb819c9)" style="fill: #1f77b4"/>
   </g>
   <g id="patch_18">
    <path d="M 654.631701 514.17792 
L 669.909561 514.17792 
L 669.909561 447.510242 
L 654.631701 447.510242 
z
" clip-path="url(#pdcfdb819c9)" style="fill: #1f77b4"/>
   </g>
   <g id="patch_19">
    <path d="M 686.460578 514.17792 
L 701.738439 514.17792 
L 701.738439 446.722966 
L 686.460578 446.722966 
z
" clip-path="url(#pdcfdb819c9)" style="fill: #1f77b4"/>
   </g>
   <g id="patch_20">
    <path d="M 718.289455 514.17792 
L 733.567316 514.17792 
L 733.567316 445.993691 
L 718.289455 445.993691 
z
" clip-path="url(#pdcfdb819c9)" style="fill: #1f77b4"/>
   </g>
   <g id="patch_21">
    <path d="M 750.118332 514.17792 
L 765.396193 514.17792 
L 765.396193 445.319103 
L 750.118332 445.319103 
z
" clip-path="url(#pdcfdb819c9)" style="fill: #1f77b4"/>
   </g>
   <g id="patch_22">
    <path d="M 781.947209 514.17792 
L 797.22507 514.17792 
L 797.22507 444.696051 
L 781.947209 444.696051 
z
" clip-path="url(#pdcfdb819c9)" style="fill: #1f77b4"/>
   </g>
   <g id="patch_23">
    <path d="M 813.776086 514.17792 
L 829.053947 514.17792 
L 829.053947 444.121539 
L 813.776086 444.121539 
z
" clip-path="url(#pdcfdb819c9)" style="fill: #1f77b4"/>
   </g>
   <g id="patch_24">
    <path d="M 845.604963 514.17792 
L 860.882824 514.17792 
L 860.882824 443.592728 
L 845.604963 443.592728 
z
" clip-path="url(#pdcfdb819c9)" style="fill: #1f77b4"/>
   </g>
   <g id="patch_25">
    <path d="M 877.43384 514.17792 
L 892.711701 514.17792 
L 892.711701 443.10693 
L 877.43384 443.10693 
z
" clip-path="url(#pdcfdb819c9)" style="fill: #1f77b4"/>
   </g>
   <g id="patch_26">
    <path d="M 909.262717 514.17792 
L 924.540578 514.17792 
L 924.540578 442.661598 
L 909.262717 442.661598 
z
" clip-path="url(#pdcfdb819c9)" style="fill: #1f77b4"/>
   </g>
   <g id="patch_27">
    <path d="M 941.091594 514.17792 
L 956.369455 514.17792 
L 956.369455 442.254325 
L 941.091594 442.254325 
z
" clip-path="url(#pdcfdb819c9)" style="fill: #1f77b4"/>
   </g>
   <g id="patch_28">
    <path d="M 177.198545 468.217504 
L 192.476406 468.217504 
L 192.476406 445.324674 
L 177.198545 445.324674 
z
" clip-path="url(#pdcfdb819c9)" style="fill: #ff7f0e"/>
   </g>
   <g id="patch_29">
    <path d="M 209.027422 466.432914 
L 224.305283 466.432914 
L 224.305283 443.528108 
L 209.027422 443.528108 
z
" clip-path="url(#pdcfdb819c9)" style="fill: #ff7f0e"/>
   </g>
   <g id="patch_30">
    <path d="M 240.856299 464.589977 
L 256.13416 464.589977 
L 256.13416 441.696515 
L 240.856299 441.696515 
z
" clip-path="url(#pdcfdb819c9)" style="fill: #ff7f0e"/>
   </g>
   <g id="patch_31">
    <path d="M 272.685176 462.779394 
L 287.963037 462.779394 
L 287.963037 439.909533 
L 272.685176 439.909533 
z
" clip-path="url(#pdcfdb819c9)" style="fill: #ff7f0e"/>
   </g>
   <g id="patch_32">
    <path d="M 304.514053 461.037591 
L 319.791914 461.037591 
L 319.791914 438.198445 
L 304.514053 438.198445 
z
" clip-path="url(#pdcfdb819c9)" style="fill: #ff7f0e"/>
   </g>
   <g id="patch_33">
    <path d="M 336.34293 459.380162 
L 351.620791 459.380162 
L 351.620791 436.57605 
L 336.34293 436.57605 
z
" clip-path="url(#pdcfdb819c9)" style="fill: #ff7f0e"/>
   </g>
   <g id="patch_34">
    <path d="M 368.171807 457.813169 
L 383.449668 457.813169 
L 383.449668 435.046751 
L 368.171807 435.046751 
z
" clip-path="url(#pdcfdb819c9)" style="fill: #ff7f0e"/>
   </g>
   <g id="patch_35">
    <path d="M 400.000684 456.33788 
L 415.278545 456.33788 
L 415.278545 433.610757 
L 400.000684 433.610757 
z
" clip-path="url(#pdcfdb819c9)" style="fill: #ff7f0e"/>
   </g>
   <g id="patch_36">
    <path d="M 431.829561 454.953015 
L 447.107422 454.953015 
L 447.107422 432.266091 
L 431.829561 432.266091 
z
" clip-path="url(#pdcfdb819c9)" style="fill: #ff7f0e"/>
   </g>
   <g id="patch_37">
    <path d="M 463.658439 453.655914 
L 478.936299 453.655914 
L 478.936299 431.009617 
L 463.658439 431.009617 
z
" clip-path="url(#pdcfdb819c9)" style="fill: #ff7f0e"/>
   </g>
   <g id="patch_38">
    <path d="M 495.487316 452.443177 
L 510.765176 452.443177 
L 510.765176 429.837603 
L 495.487316 429.837603 
z
" clip-path="url(#pdcfdb819c9)" style="fill: #ff7f0e"/>
   </g>
   <g id="patch_39">
    <path d="M 527.316193 451.311037 
L 542.594053 451.311037 
L 542.594053 428.746047 
L 527.316193 428.746047 
z
" clip-path="url(#pdcfdb819c9)" style="fill: #ff7f0e"/>
   </g>
   <g id="patch_40">
    <path d="M 559.14507 450.255574 
L 574.42293 450.255574 
L 574.42293 427.730864 
L 559.14507 427.730864 
z
" clip-path="url(#pdcfdb819c9)" style="fill: #ff7f0e"/>
   </g>
   <g id="patch_41">
    <path d="M 590.973947 449.272851 
L 606.251807 449.272851 
L 606.251807 426.787998 
L 590.973947 426.787998 
z
" clip-path="url(#pdcfdb819c9)" style="fill: #ff7f0e"/>
   </g>
   <g id="patch_42">
    <path d="M 622.802824 448.358996 
L 638.080684 448.358996 
L 638.080684 425.913492 
L 622.802824 425.913492 
z
" clip-path="url(#pdcfdb819c9)" style="fill: #ff7f0e"/>
   </g>
   <g id="patch_43">
    <path d="M 654.631701 447.510242 
L 669.909561 447.510242 
L 669.909561 425.103521 
L 654.631701 425.103521 
z
" clip-path="url(#pdcfdb819c9)" style="fill: #ff7f0e"/>
   </g>
   <g id="patch_44">
    <path d="M 686.460578 446.722966 
L 701.738439 446.722966 
L 701.738439 424.354423 
L 686.460578 424.354423 
z
" clip-path="url(#pdcfdb819c9)" style="fill: #ff7f0e"/>
   </g>
   <g id="patch_45">
    <path d="M 718.289455 445.993691 
L 733.567316 445.993691 
L 733.567316 423.662694 
L 718.289455 423.662694 
z
" clip-path="url(#pdcfdb819c9)" style="fill: #ff7f0e"/>
   </g>
   <g id="patch_46">
    <path d="M 750.118332 445.319103 
L 765.396193 445.319103 
L 765.396193 423.025007 
L 750.118332 423.025007 
z
" clip-path="url(#pdcfdb819c9)" style="fill: #ff7f0e"/>
   </g>
   <g id="patch_47">
    <path d="M 781.947209 444.696051 
L 797.22507 444.696051 
L 797.22507 422.438203 
L 781.947209 422.438203 
z
" clip-path="url(#pdcfdb819c9)" style="fill: #ff7f0e"/>
   </g>
   <g id="patch_48">
    <path d="M 813.776086 444.121539 
L 829.053947 444.121539 
L 829.053947 421.899285 
L 813.776086 421.899285 
z
" clip-path="url(#pdcfdb819c9)" style="fill: #ff7f0e"/>
   </g>
   <g id="patch_49">
    <path d="M 845.604963 443.592728 
L 860.882824 443.592728 
L 860.882824 421.40542 
L 845.604963 421.40542 
z
" clip-path="url(#pdcfdb819c9)" style="fill: #ff7f0e"/>
   </g>
   <g id="patch_50">
    <path d="M 877.43384 443.10693 
L 892.711701 443.10693 
L 892.711701 420.953924 
L 877.43384 420.953924 
z
" clip-path="url(#pdcfdb819c9)" style="fill: #ff7f0e"/>
   </g>
   <g id="patch_51">
    <path d="M 909.262717 442.661598 
L 924.540578 442.661598 
L 924.540578 420.542264 
L 909.262717 420.542264 
z
" clip-path="url(#pdcfdb819c9)" style="fill: #ff7f0e"/>
   </g>
   <g id="patch_52">
    <path d="M 941.091594 442.254325 
L 956.369455 442.254325 
L 956.369455 420.168042 
L 941.091594 420.168042 
z
" clip-path="url(#pdcfdb819c9)" style="fill: #ff7f0e"/>
   </g>
   <g id="patch_53">
    <path d="M 177.198545 445.324674 
L 192.476406 445.324674 
L 192.476406 386.693291 
L 177.198545 386.693291 
z
" clip-path="url(#pdcfdb819c9)" style="fill: #2ca02c"/>
   </g>
   <g id="patch_54">
    <path d="M 209.027422 443.528108 
L 224.305283 443.528108 
L 224.305283 388.670479 
L 209.027422 388.670479 
z
" clip-path="url(#pdcfdb819c9)" style="fill: #2ca02c"/>
   </g>
   <g id="patch_55">
    <path d="M 240.856299 441.696515 
L 256.13416 441.696515 
L 256.13416 389.255328 
L 240.856299 389.255328 
z
" clip-path="url(#pdcfdb819c9)" style="fill: #2ca02c"/>
   </g>
   <g id="patch_56">
    <path d="M 272.685176 439.909533 
L 287.963037 439.909533 
L 287.963037 389.110221 
L 272.685176 389.110221 
z
" clip-path="url(#pdcfdb819c9)" style="fill: #2ca02c"/>
   </g>
   <g id="patch_57">
    <path d="M 304.514053 438.198445 
L 319.791914 438.198445 
L 319.791914 388.540561 
L 304.514053 388.540561 
z
" clip-path="url(#pdcfdb819c9)" style="fill: #2ca02c"/>
   </g>
   <g id="patch_58">
    <path d="M 336.34293 436.57605 
L 351.620791 436.57605 
L 351.620791 387.710925 
L 336.34293 387.710925 
z
" clip-path="url(#pdcfdb819c9)" style="fill: #2ca02c"/>
   </g>
   <g id="patch_59">
    <path d="M 368.171807 435.046751 
L 383.449668 435.046751 
L 383.449668 386.718753 
L 368.171807 386.718753 
z
" clip-path="url(#pdcfdb819c9)" style="fill: #2ca02c"/>
   </g>
   <g id="patch_60">
    <path d="M 400.000684 433.610757 
L 415.278545 433.610757 
L 415.278545 385.625377 
L 400.000684 385.625377 
z
" clip-path="url(#pdcfdb819c9)" style="fill: #2ca02c"/>
   </g>
   <g id="patch_61">
    <path d="M 431.829561 432.266091 
L 447.107422 432.266091 
L 447.107422 384.471104 
L 431.829561 384.471104 
z
" clip-path="url(#pdcfdb819c9)" style="fill: #2ca02c"/>
   </g>
   <g id="patch_62">
    <path d="M 463.658439 431.009617 
L 478.936299 431.009617 
L 478.936299 383.283222 
L 463.658439 383.283222 
z
" clip-path="url(#pdcfdb819c9)" style="fill: #2ca02c"/>
   </g>
   <g id="patch_63">
    <path d="M 495.487316 429.837603 
L 510.765176 429.837603 
L 510.765176 382.080589 
L 495.487316 382.080589 
z
" clip-path="url(#pdcfdb819c9)" style="fill: #2ca02c"/>
   </g>
   <g id="patch_64">
    <path d="M 527.316193 428.746047 
L 542.594053 428.746047 
L 542.594053 380.876401 
L 527.316193 380.876401 
z
" clip-path="url(#pdcfdb819c9)" style="fill: #2ca02c"/>
   </g>
   <g id="patch_65">
    <path d="M 559.14507 427.730864 
L 574.42293 427.730864 
L 574.42293 379.679949 
L 559.14507 379.679949 
z
" clip-path="url(#pdcfdb819c9)" style="fill: #2ca02c"/>
   </g>
   <g id="patch_66">
    <path d="M 590.973947 426.787998 
L 606.251807 426.787998 
L 606.251807 378.497769 
L 590.973947 378.497769 
z
" clip-path="url(#pdcfdb819c9)" style="fill: #2ca02c"/>
   </g>
   <g id="patch_67">
    <path d="M 622.802824 425.913492 
L 638.080684 425.913492 
L 638.080684 377.334417 
L 622.802824 377.334417 
z
" clip-path="url(#pdcfdb819c9)" style="fill: #2ca02c"/>
   </g>
   <g id="patch_68">
    <path d="M 654.631701 425.103521 
L 669.909561 425.103521 
L 669.909561 376.193004 
L 654.631701 376.193004 
z
" clip-path="url(#pdcfdb819c9)" style="fill: #2ca02c"/>
   </g>
   <g id="patch_69">
    <path d="M 686.460578 424.354423 
L 701.738439 424.354423 
L 701.738439 375.07558 
L 686.460578 375.07558 
z
" clip-path="url(#pdcfdb819c9)" style="fill: #2ca02c"/>
   </g>
   <g id="patch_70">
    <path d="M 718.289455 423.662694 
L 733.567316 423.662694 
L 733.567316 373.983399 
L 718.289455 373.983399 
z
" clip-path="url(#pdcfdb819c9)" style="fill: #2ca02c"/>
   </g>
   <g id="patch_71">
    <path d="M 750.118332 423.025007 
L 765.396193 423.025007 
L 765.396193 372.917129 
L 750.118332 372.917129 
z
" clip-path="url(#pdcfdb819c9)" style="fill: #2ca02c"/>
   </g>
   <g id="patch_72">
    <path d="M 781.947209 422.438203 
L 797.22507 422.438203 
L 797.22507 371.876992 
L 781.947209 371.876992 
z
" clip-path="url(#pdcfdb819c9)" style="fill: #2ca02c"/>
   </g>
   <g id="patch_73">
    <path d="M 813.776086 421.899285 
L 829.053947 421.899285 
L 829.053947 370.862881 
L 813.776086 370.862881 
z
" clip-path="url(#pdcfdb819c9)" style="fill: #2ca02c"/>
   </g>
   <g id="patch_74">
    <path d="M 845.604963 421.40542 
L 860.882824 421.40542 
L 860.882824 369.874436 
L 845.604963 369.874436 
z
" clip-path="url(#pdcfdb819c9)" style="fill: #2ca02c"/>
   </g>
   <g id="patch_75">
    <path d="M 877.43384 420.953924 
L 892.711701 420.953924 
L 892.711701 368.911116 
L 877.43384 368.911116 
z
" clip-path="url(#pdcfdb819c9)" style="fill: #2ca02c"/>
   </g>
   <g id="patch_76">
    <path d="M 909.262717 420.542264 
L 924.540578 420.542264 
L 924.540578 367.972244 
L 909.262717 367.972244 
z
" clip-path="url(#pdcfdb819c9)" style="fill: #2ca02c"/>
   </g>
   <g id="patch_77">
    <path d="M 941.091594 420.168042 
L 956.369455 420.168042 
L 956.369455 367.057046 
L 941.091594 367.057046 
z
" clip-path="url(#pdcfdb819c9)" style="fill: #2ca02c"/>
   </g>
   <g id="patch_78">
    <path d="M 177.198545 386.693291 
L 192.476406 386.693291 
L 192.476406 356.978754 
L 177.198545 356.978754 
z
" clip-path="url(#pdcfdb819c9)" style="fill: #d62728"/>
   </g>
   <g id="patch_79">
    <path d="M 209.027422 388.670479 
L 224.305283 388.670479 
L 224.305283 358.940397 
L 209.027422 358.940397 
z
" clip-path="url(#pdcfdb819c9)" style="fill: #d62728"/>
   </g>
   <g id="patch_80">
    <path d="M 240.856299 389.255328 
L 256.13416 389.255328 
L 256.13416 359.539971 
L 240.856299 359.539971 
z
" clip-path="url(#pdcfdb819c9)" style="fill: #d62728"/>
   </g>
   <g id="patch_81">
    <path d="M 272.685176 389.110221 
L 287.963037 389.110221 
L 287.963037 359.425497 
L 272.685176 359.425497 
z
" clip-path="url(#pdcfdb819c9)" style="fill: #d62728"/>
   </g>
   <g id="patch_82">
    <path d="M 304.514053 388.540561 
L 319.791914 388.540561 
L 319.791914 358.895703 
L 304.514053 358.895703 
z
" clip-path="url(#pdcfdb819c9)" style="fill: #d62728"/>
   </g>
   <g id="patch_83">
    <path d="M 336.34293 387.710925 
L 351.620791 387.710925 
L 351.620791 358.111543 
L 336.34293 358.111543 
z
" clip-path="url(#pdcfdb819c9)" style="fill: #d62728"/>
   </g>
   <g id="patch_84">
    <path d="M 368.171807 386.718753 
L 383.449668 386.718753 
L 383.449668 357.168296 
L 368.171807 357.168296 
z
" clip-path="url(#pdcfdb819c9)" style="fill: #d62728"/>
   </g>
   <g id="patch_85">
    <path d="M 400.000684 385.625377 
L 415.278545 385.625377 
L 415.278545 356.125924 
L 400.000684 356.125924 
z
" clip-path="url(#pdcfdb819c9)" style="fill: #d62728"/>
   </g>
   <g id="patch_86">
    <path d="M 431.829561 384.471104 
L 447.107422 384.471104 
L 447.107422 355.023829 
L 431.829561 355.023829 
z
" clip-path="url(#pdcfdb819c9)" style="fill: #d62728"/>
   </g>
   <g id="patch_87">
    <path d="M 463.658439 383.283222 
L 478.936299 383.283222 
L 478.936299 353.888681 
L 463.658439 353.888681 
z
" clip-path="url(#pdcfdb819c9)" style="fill: #d62728"/>
   </g>
   <g id="patch_88">
    <path d="M 495.487316 382.080589 
L 510.765176 382.080589 
L 510.765176 352.738905 
L 495.487316 352.738905 
z
" clip-path="url(#pdcfdb819c9)" style="fill: #d62728"/>
   </g>
   <g id="patch_89">
    <path d="M 527.316193 380.876401 
L 542.594053 380.876401 
L 542.594053 351.587395 
L 527.316193 351.587395 
z
" clip-path="url(#pdcfdb819c9)" style="fill: #d62728"/>
   </g>
   <g id="patch_90">
    <path d="M 559.14507 379.679949 
L 574.42293 379.679949 
L 574.42293 350.443226 
L 559.14507 350.443226 
z
" clip-path="url(#pdcfdb819c9)" style="fill: #d62728"/>
   </g>
   <g id="patch_91">
    <path d="M 590.973947 378.497769 
L 606.251807 378.497769 
L 606.251807 349.312779 
L 590.973947 349.312779 
z
" clip-path="url(#pdcfdb819c9)" style="fill: #d62728"/>
   </g>
   <g id="patch_92">
    <path d="M 622.802824 377.334417 
L 638.080684 377.334417 
L 638.080684 348.200501 
L 622.802824 348.200501 
z
" clip-path="url(#pdcfdb819c9)" style="fill: #d62728"/>
   </g>
   <g id="patch_93">
    <path d="M 654.631701 376.193004 
L 669.909561 376.193004 
L 669.909561 347.109429 
L 654.631701 347.109429 
z
" clip-path="url(#pdcfdb819c9)" style="fill: #d62728"/>
   </g>
   <g id="patch_94">
    <path d="M 686.460578 375.07558 
L 701.738439 375.07558 
L 701.738439 346.041558 
L 686.460578 346.041558 
z
" clip-path="url(#pdcfdb819c9)" style="fill: #d62728"/>
   </g>
   <g id="patch_95">
    <path d="M 718.289455 373.983399 
L 733.567316 373.983399 
L 733.567316 344.998112 
L 718.289455 344.998112 
z
" clip-path="url(#pdcfdb819c9)" style="fill: #d62728"/>
   </g>
   <g id="patch_96">
    <path d="M 750.118332 372.917129 
L 765.396193 372.917129 
L 765.396193 343.979739 
L 750.118332 343.979739 
z
" clip-path="url(#pdcfdb819c9)" style="fill: #d62728"/>
   </g>
   <g id="patch_97">
    <path d="M 781.947209 371.876992 
L 797.22507 371.876992 
L 797.22507 342.986651 
L 781.947209 342.986651 
z
" clip-path="url(#pdcfdb819c9)" style="fill: #d62728"/>
   </g>
   <g id="patch_98">
    <path d="M 813.776086 370.862881 
L 829.053947 370.862881 
L 829.053947 342.018741 
L 813.776086 342.018741 
z
" clip-path="url(#pdcfdb819c9)" style="fill: #d62728"/>
   </g>
   <g id="patch_99">
    <path d="M 845.604963 369.874436 
L 860.882824 369.874436 
L 860.882824 341.075654 
L 845.604963 341.075654 
z
" clip-path="url(#pdcfdb819c9)" style="fill: #d62728"/>
   </g>
   <g id="patch_100">
    <path d="M 877.43384 368.911116 
L 892.711701 368.911116 
L 892.711701 340.156859 
L 877.43384 340.156859 
z
" clip-path="url(#pdcfdb819c9)" style="fill: #d62728"/>
   </g>
   <g id="patch_101">
    <path d="M 909.262717 367.972244 
L 924.540578 367.972244 
L 924.540578 339.261693 
L 909.262717 339.261693 
z
" clip-path="url(#pdcfdb819c9)" style="fill: #d62728"/>
   </g>
   <g id="patch_102">
    <path d="M 941.091594 367.057046 
L 956.369455 367.057046 
L 956.369455 338.389395 
L 941.091594 338.389395 
z
" clip-path="url(#pdcfdb819c9)" style="fill: #d62728"/>
   </g>
   <g id="patch_103">
    <path d="M 177.198545 356.978754 
L 192.476406 356.978754 
L 192.476406 302.013031 
L 177.198545 302.013031 
z
" clip-path="url(#pdcfdb819c9)" style="fill: #9467bd"/>
   </g>
   <g id="patch_104">
    <path d="M 209.027422 358.940397 
L 224.305283 358.940397 
L 224.305283 303.945918 
L 209.027422 303.945918 
z
" clip-path="url(#pdcfdb819c9)" style="fill: #9467bd"/>
   </g>
   <g id="patch_105">
    <path d="M 240.856299 359.539971 
L 256.13416 359.539971 
L 256.13416 304.57273 
L 240.856299 304.57273 
z
" clip-path="url(#pdcfdb819c9)" style="fill: #9467bd"/>
   </g>
   <g id="patch_106">
    <path d="M 272.685176 359.425497 
L 287.963037 359.425497 
L 287.963037 304.514921 
L 272.685176 304.514921 
z
" clip-path="url(#pdcfdb819c9)" style="fill: #9467bd"/>
   </g>
   <g id="patch_107">
    <path d="M 304.514053 358.895703 
L 319.791914 358.895703 
L 319.791914 304.058872 
L 304.514053 304.058872 
z
" clip-path="url(#pdcfdb819c9)" style="fill: #9467bd"/>
   </g>
   <g id="patch_108">
    <path d="M 336.34293 358.111543 
L 351.620791 358.111543 
L 351.620791 303.358832 
L 336.34293 303.358832 
z
" clip-path="url(#pdcfdb819c9)" style="fill: #9467bd"/>
   </g>
   <g id="patch_109">
    <path d="M 368.171807 357.168296 
L 383.449668 357.168296 
L 383.449668 302.506085 
L 368.171807 302.506085 
z
" clip-path="url(#pdcfdb819c9)" style="fill: #9467bd"/>
   </g>
   <g id="patch_110">
    <path d="M 400.000684 356.125924 
L 415.278545 356.125924 
L 415.278545 301.558061 
L 400.000684 301.558061 
z
" clip-path="url(#pdcfdb819c9)" style="fill: #9467bd"/>
   </g>
   <g id="patch_111">
    <path d="M 431.829561 355.023829 
L 447.107422 355.023829 
L 447.107422 300.552485 
L 431.829561 300.552485 
z
" clip-path="url(#pdcfdb819c9)" style="fill: #9467bd"/>
   </g>
   <g id="patch_112">
    <path d="M 463.658439 353.888681 
L 478.936299 353.888681 
L 478.936299 299.514882 
L 463.658439 299.514882 
z
" clip-path="url(#pdcfdb819c9)" style="fill: #9467bd"/>
   </g>
   <g id="patch_113">
    <path d="M 495.487316 352.738905 
L 510.765176 352.738905 
L 510.765176 298.462882 
L 495.487316 298.462882 
z
" clip-path="url(#pdcfdb819c9)" style="fill: #9467bd"/>
   </g>
   <g id="patch_114">
    <path d="M 527.316193 351.587395 
L 542.594053 351.587395 
L 542.594053 297.408816 
L 527.316193 297.408816 
z
" clip-path="url(#pdcfdb819c9)" style="fill: #9467bd"/>
   </g>
   <g id="patch_115">
    <path d="M 559.14507 350.443226 
L 574.42293 350.443226 
L 574.42293 296.361359 
L 559.14507 296.361359 
z
" clip-path="url(#pdcfdb819c9)" style="fill: #9467bd"/>
   </g>
   <g id="patch_116">
    <path d="M 590.973947 349.312779 
L 606.251807 349.312779 
L 606.251807 295.326608 
L 590.973947 295.326608 
z
" clip-path="url(#pdcfdb819c9)" style="fill: #9467bd"/>
   </g>
   <g id="patch_117">
    <path d="M 622.802824 348.200501 
L 638.080684 348.200501 
L 638.080684 294.308807 
L 622.802824 294.308807 
z
" clip-path="url(#pdcfdb819c9)" style="fill: #9467bd"/>
   </g>
   <g id="patch_118">
    <path d="M 654.631701 347.109429 
L 669.909561 347.109429 
L 669.909561 293.310853 
L 654.631701 293.310853 
z
" clip-path="url(#pdcfdb819c9)" style="fill: #9467bd"/>
   </g>
   <g id="patch_119">
    <path d="M 686.460578 346.041558 
L 701.738439 346.041558 
L 701.738439 292.334647 
L 686.460578 292.334647 
z
" clip-path="url(#pdcfdb819c9)" style="fill: #9467bd"/>
   </g>
   <g id="patch_120">
    <path d="M 718.289455 344.998112 
L 733.567316 344.998112 
L 733.567316 291.38135 
L 718.289455 291.38135 
z
" clip-path="url(#pdcfdb819c9)" style="fill: #9467bd"/>
   </g>
   <g id="patch_121">
    <path d="M 750.118332 343.979739 
L 765.396193 343.979739 
L 765.396193 290.451575 
L 750.118332 290.451575 
z
" clip-path="url(#pdcfdb819c9)" style="fill: #9467bd"/>
   </g>
   <g id="patch_122">
    <path d="M 781.947209 342.986651 
L 797.22507 342.986651 
L 797.22507 289.545519 
L 781.947209 289.545519 
z
" clip-path="url(#pdcfdb819c9)" style="fill: #9467bd"/>
   </g>
   <g id="patch_123">
    <path d="M 813.776086 342.018741 
L 829.053947 342.018741 
L 829.053947 288.663071 
L 813.776086 288.663071 
z
" clip-path="url(#pdcfdb819c9)" style="fill: #9467bd"/>
   </g>
   <g id="patch_124">
    <path d="M 845.604963 341.075654 
L 860.882824 341.075654 
L 860.882824 287.803888 
L 845.604963 287.803888 
z
" clip-path="url(#pdcfdb819c9)" style="fill: #9467bd"/>
   </g>
   <g id="patch_125">
    <path d="M 877.43384 340.156859 
L 892.711701 340.156859 
L 892.711701 286.967455 
L 877.43384 286.967455 
z
" clip-path="url(#pdcfdb819c9)" style="fill: #9467bd"/>
   </g>
   <g id="patch_126">
    <path d="M 909.262717 339.261693 
L 924.540578 339.261693 
L 924.540578 286.153133 
L 909.262717 286.153133 
z
" clip-path="url(#pdcfdb819c9)" style="fill: #9467bd"/>
   </g>
   <g id="patch_127">
    <path d="M 941.091594 338.389395 
L 956.369455 338.389395 
L 956.369455 285.360192 
L 941.091594 285.360192 
z
" clip-path="url(#pdcfdb819c9)" style="fill: #9467bd"/>
   </g>
   <g id="patch_128">
    <path d="M 177.198545 302.013031 
L 192.476406 302.013031 
L 192.476406 198.313665 
L 177.198545 198.313665 
z
" clip-path="url(#pdcfdb819c9)" style="fill: #8c564b"/>
   </g>
   <g id="patch_129">
    <path d="M 209.027422 303.945918 
L 224.305283 303.945918 
L 224.305283 200.953419 
L 209.027422 200.953419 
z
" clip-path="url(#pdcfdb819c9)" style="fill: #8c564b"/>
   </g>
   <g id="patch_130">
    <path d="M 240.856299 304.57273 
L 256.13416 304.57273 
L 256.13416 201.830722 
L 240.856299 201.830722 
z
" clip-path="url(#pdcfdb819c9)" style="fill: #8c564b"/>
   </g>
   <g id="patch_131">
    <path d="M 272.685176 304.514921 
L 287.963037 304.514921 
L 287.963037 201.779204 
L 272.685176 201.779204 
z
" clip-path="url(#pdcfdb819c9)" style="fill: #8c564b"/>
   </g>
   <g id="patch_132">
    <path d="M 304.514053 304.058872 
L 319.791914 304.058872 
L 319.791914 201.184169 
L 304.514053 201.184169 
z
" clip-path="url(#pdcfdb819c9)" style="fill: #8c564b"/>
   </g>
   <g id="patch_133">
    <path d="M 336.34293 303.358832 
L 351.620791 303.358832 
L 351.620791 200.253808 
L 336.34293 200.253808 
z
" clip-path="url(#pdcfdb819c9)" style="fill: #8c564b"/>
   </g>
   <g id="patch_134">
    <path d="M 368.171807 302.506085 
L 383.449668 302.506085 
L 383.449668 199.111594 
L 368.171807 199.111594 
z
" clip-path="url(#pdcfdb819c9)" style="fill: #8c564b"/>
   </g>
   <g id="patch_135">
    <path d="M 400.000684 301.558061 
L 415.278545 301.558061 
L 415.278545 197.835527 
L 400.000684 197.835527 
z
" clip-path="url(#pdcfdb819c9)" style="fill: #8c564b"/>
   </g>
   <g id="patch_136">
    <path d="M 431.829561 300.552485 
L 447.107422 300.552485 
L 447.107422 196.477013 
L 431.829561 196.477013 
z
" clip-path="url(#pdcfdb819c9)" style="fill: #8c564b"/>
   </g>
   <g id="patch_137">
    <path d="M 463.658439 299.514882 
L 478.936299 299.514882 
L 478.936299 195.070977 
L 463.658439 195.070977 
z
" clip-path="url(#pdcfdb819c9)" style="fill: #8c564b"/>
   </g>
   <g id="patch_138">
    <path d="M 495.487316 298.462882 
L 510.765176 298.462882 
L 510.765176 193.641655 
L 495.487316 193.641655 
z
" clip-path="url(#pdcfdb819c9)" style="fill: #8c564b"/>
   </g>
   <g id="patch_139">
    <path d="M 527.316193 297.408816 
L 542.594053 297.408816 
L 542.594053 192.206094 
L 527.316193 192.206094 
z
" clip-path="url(#pdcfdb819c9)" style="fill: #8c564b"/>
   </g>
   <g id="patch_140">
    <path d="M 559.14507 296.361359 
L 574.42293 296.361359 
L 574.42293 190.776377 
L 559.14507 190.776377 
z
" clip-path="url(#pdcfdb819c9)" style="fill: #8c564b"/>
   </g>
   <g id="patch_141">
    <path d="M 590.973947 295.326608 
L 606.251807 295.326608 
L 606.251807 189.36107 
L 590.973947 189.36107 
z
" clip-path="url(#pdcfdb819c9)" style="fill: #8c564b"/>
   </g>
   <g id="patch_142">
    <path d="M 622.802824 294.308807 
L 638.080684 294.308807 
L 638.080684 187.966212 
L 622.802824 187.966212 
z
" clip-path="url(#pdcfdb819c9)" style="fill: #8c564b"/>
   </g>
   <g id="patch_143">
    <path d="M 654.631701 293.310853 
L 669.909561 293.310853 
L 669.909561 186.595995 
L 654.631701 186.595995 
z
" clip-path="url(#pdcfdb819c9)" style="fill: #8c564b"/>
   </g>
   <g id="patch_144">
    <path d="M 686.460578 292.334647 
L 701.738439 292.334647 
L 701.738439 185.253243 
L 686.460578 185.253243 
z
" clip-path="url(#pdcfdb819c9)" style="fill: #8c564b"/>
   </g>
   <g id="patch_145">
    <path d="M 718.289455 291.38135 
L 733.567316 291.38135 
L 733.567316 183.939764 
L 718.289455 183.939764 
z
" clip-path="url(#pdcfdb819c9)" style="fill: #8c564b"/>
   </g>
   <g id="patch_146">
    <path d="M 750.118332 290.451575 
L 765.396193 290.451575 
L 765.396193 182.656602 
L 750.118332 182.656602 
z
" clip-path="url(#pdcfdb819c9)" style="fill: #8c564b"/>
   </g>
   <g id="patch_147">
    <path d="M 781.947209 289.545519 
L 797.22507 289.545519 
L 797.22507 181.404225 
L 781.947209 181.404225 
z
" clip-path="url(#pdcfdb819c9)" style="fill: #8c564b"/>
   </g>
   <g id="patch_148">
    <path d="M 813.776086 288.663071 
L 829.053947 288.663071 
L 829.053947 180.182668 
L 813.776086 180.182668 
z
" clip-path="url(#pdcfdb819c9)" style="fill: #8c564b"/>
   </g>
   <g id="patch_149">
    <path d="M 845.604963 287.803888 
L 860.882824 287.803888 
L 860.882824 178.99164 
L 845.604963 178.99164 
z
" clip-path="url(#pdcfdb819c9)" style="fill: #8c564b"/>
   </g>
   <g id="patch_150">
    <path d="M 877.43384 286.967455 
L 892.711701 286.967455 
L 892.711701 177.830608 
L 877.43384 177.830608 
z
" clip-path="url(#pdcfdb819c9)" style="fill: #8c564b"/>
   </g>
   <g id="patch_151">
    <path d="M 909.262717 286.153133 
L 924.540578 286.153133 
L 924.540578 176.698854 
L 909.262717 176.698854 
z
" clip-path="url(#pdcfdb819c9)" style="fill: #8c564b"/>
   </g>
   <g id="patch_152">
    <path d="M 941.091594 285.360192 
L 956.369455 285.360192 
L 956.369455 175.595531 
L 941.091594 175.595531 
z
" clip-path="url(#pdcfdb819c9)" style="fill: #8c564b"/>
   </g>
   <g id="patch_153">
    <path d="M 177.198545 198.313665 
L 192.476406 198.313665 
L 192.476406 112.1356 
L 177.198545 112.1356 
z
" clip-path="url(#pdcfdb819c9)" style="fill: #e377c2"/>
   </g>
   <g id="patch_154">
    <path d="M 209.027422 200.953419 
L 224.305283 200.953419 
L 224.305283 117.118066 
L 209.027422 117.118066 
z
" clip-path="url(#pdcfdb819c9)" style="fill: #e377c2"/>
   </g>
   <g id="patch_155">
    <path d="M 240.856299 201.830722 
L 256.13416 201.830722 
L 256.13416 119.931839 
L 240.856299 119.931839 
z
" clip-path="url(#pdcfdb819c9)" style="fill: #e377c2"/>
   </g>
   <g id="patch_156">
    <path d="M 272.685176 201.779204 
L 287.963037 201.779204 
L 287.963037 121.555728 
L 272.685176 121.555728 
z
" clip-path="url(#pdcfdb819c9)" style="fill: #e377c2"/>
   </g>
   <g id="patch_157">
    <path d="M 304.514053 201.184169 
L 319.791914 201.184169 
L 319.791914 122.449122 
L 304.514053 122.449122 
z
" clip-path="url(#pdcfdb819c9)" style="fill: #e377c2"/>
   </g>
   <g id="patch_158">
    <path d="M 336.34293 200.253808 
L 351.620791 200.253808 
L 351.620791 122.864314 
L 336.34293 122.864314 
z
" clip-path="url(#pdcfdb819c9)" style="fill: #e377c2"/>
   </g>
   <g id="patch_159">
    <path d="M 368.171807 199.111594 
L 383.449668 199.111594 
L 383.449668 122.953689 
L 368.171807 122.953689 
z
" clip-path="url(#pdcfdb819c9)" style="fill: #e377c2"/>
   </g>
   <g id="patch_160">
    <path d="M 400.000684 197.835527 
L 415.278545 197.835527 
L 415.278545 122.815443 
L 400.000684 122.815443 
z
" clip-path="url(#pdcfdb819c9)" style="fill: #e377c2"/>
   </g>
   <g id="patch_161">
    <path d="M 431.829561 196.477013 
L 447.107422 196.477013 
L 447.107422 122.515792 
L 431.829561 122.515792 
z
" clip-path="url(#pdcfdb819c9)" style="fill: #e377c2"/>
   </g>
   <g id="patch_162">
    <path d="M 463.658439 195.070977 
L 478.936299 195.070977 
L 478.936299 122.100926 
L 463.658439 122.100926 
z
" clip-path="url(#pdcfdb819c9)" style="fill: #e377c2"/>
   </g>
   <g id="patch_163">
    <path d="M 495.487316 193.641655 
L 510.765176 193.641655 
L 510.765176 121.603891 
L 495.487316 121.603891 
z
" clip-path="url(#pdcfdb819c9)" style="fill: #e377c2"/>
   </g>
   <g id="patch_164">
    <path d="M 527.316193 192.206094 
L 542.594053 192.206094 
L 542.594053 121.048794 
L 527.316193 121.048794 
z
" clip-path="url(#pdcfdb819c9)" style="fill: #e377c2"/>
   </g>
   <g id="patch_165">
    <path d="M 559.14507 190.776377 
L 574.42293 190.776377 
L 574.42293 120.453477 
L 559.14507 120.453477 
z
" clip-path="url(#pdcfdb819c9)" style="fill: #e377c2"/>
   </g>
   <g id="patch_166">
    <path d="M 590.973947 189.36107 
L 606.251807 189.36107 
L 606.251807 119.831285 
L 590.973947 119.831285 
z
" clip-path="url(#pdcfdb819c9)" style="fill: #e377c2"/>
   </g>
   <g id="patch_167">
    <path d="M 622.802824 187.966212 
L 638.080684 187.966212 
L 638.080684 119.192278 
L 622.802824 119.192278 
z
" clip-path="url(#pdcfdb819c9)" style="fill: #e377c2"/>
   </g>
   <g id="patch_168">
    <path d="M 654.631701 186.595995 
L 669.909561 186.595995 
L 669.909561 118.544065 
L 654.631701 118.544065 
z
" clip-path="url(#pdcfdb819c9)" style="fill: #e377c2"/>
   </g>
   <g id="patch_169">
    <path d="M 686.460578 185.253243 
L 701.738439 185.253243 
L 701.738439 117.892411 
L 686.460578 117.892411 
z
" clip-path="url(#pdcfdb819c9)" style="fill: #e377c2"/>
   </g>
   <g id="patch_170">
    <path d="M 718.289455 183.939764 
L 733.567316 183.939764 
L 733.567316 117.241673 
L 718.289455 117.241673 
z
" clip-path="url(#pdcfdb819c9)" style="fill: #e377c2"/>
   </g>
   <g id="patch_171">
    <path d="M 750.118332 182.656602 
L 765.396193 182.656602 
L 765.396193 116.595124 
L 750.118332 116.595124 
z
" clip-path="url(#pdcfdb819c9)" style="fill: #e377c2"/>
   </g>
   <g id="patch_172">
    <path d="M 781.947209 181.404225 
L 797.22507 181.404225 
L 797.22507 115.955194 
L 781.947209 115.955194 
z
" clip-path="url(#pdcfdb819c9)" style="fill: #e377c2"/>
   </g>
   <g id="patch_173">
    <path d="M 813.776086 180.182668 
L 829.053947 180.182668 
L 829.053947 115.323657 
L 813.776086 115.323657 
z
" clip-path="url(#pdcfdb819c9)" style="fill: #e377c2"/>
   </g>
   <g id="patch_174">
    <path d="M 845.604963 178.99164 
L 860.882824 178.99164 
L 860.882824 114.701772 
L 845.604963 114.701772 
z
" clip-path="url(#pdcfdb819c9)" style="fill: #e377c2"/>
   </g>
   <g id="patch_175">
    <path d="M 877.43384 177.830608 
L 892.711701 177.830608 
L 892.711701 114.09039 
L 877.43384 114.09039 
z
" clip-path="url(#pdcfdb819c9)" style="fill: #e377c2"/>
   </g>
   <g id="patch_176">
    <path d="M 909.262717 176.698854 
L 924.540578 176.698854 
L 924.540578 113.490045 
L 909.262717 113.490045 
z
" clip-path="url(#pdcfdb819c9)" style="fill: #e377c2"/>
   </g>
   <g id="patch_177">
    <path d="M 941.091594 175.595531 
L 956.369455 175.595531 
L 956.369455 112.901016 
L 941.091594 112.901016 
z
" clip-path="url(#pdcfdb819c9)" style="fill: #e377c2"/>
   </g>
   <g id="patch_178">
    <path d="M 177.198545 112.1356 
L 192.476406 112.1356 
L 192.476406 90.51072 
L 177.198545 90.51072 
z
" clip-path="url(#pdcfdb819c9)" style="fill: #7f7f7f"/>
   </g>
   <g id="patch_179">
    <path d="M 209.027422 117.118066 
L 224.305283 117.118066 
L 224.305283 97.246217 
L 209.027422 97.246217 
z
" clip-path="url(#pdcfdb819c9)" style="fill: #7f7f7f"/>
   </g>
   <g id="patch_180">
    <path d="M 240.856299 119.931839 
L 256.13416 119.931839 
L 256.13416 101.454477 
L 240.856299 101.454477 
z
" clip-path="url(#pdcfdb819c9)" style="fill: #7f7f7f"/>
   </g>
   <g id="patch_181">
    <path d="M 272.685176 121.555728 
L 287.963037 121.555728 
L 287.963037 104.249824 
L 272.685176 104.249824 
z
" clip-path="url(#pdcfdb819c9)" style="fill: #7f7f7f"/>
   </g>
   <g id="patch_182">
    <path d="M 304.514053 122.449122 
L 319.791914 122.449122 
L 319.791914 106.159273 
L 304.514053 106.159273 
z
" clip-path="url(#pdcfdb819c9)" style="fill: #7f7f7f"/>
   </g>
   <g id="patch_183">
    <path d="M 336.34293 122.864314 
L 351.620791 122.864314 
L 351.620791 107.474595 
L 336.34293 107.474595 
z
" clip-path="url(#pdcfdb819c9)" style="fill: #7f7f7f"/>
   </g>
   <g id="patch_184">
    <path d="M 368.171807 122.953689 
L 383.449668 122.953689 
L 383.449668 108.373574 
L 368.171807 108.373574 
z
" clip-path="url(#pdcfdb819c9)" style="fill: #7f7f7f"/>
   </g>
   <g id="patch_185">
    <path d="M 400.000684 122.815443 
L 415.278545 122.815443 
L 415.278545 108.971868 
L 400.000684 108.971868 
z
" clip-path="url(#pdcfdb819c9)" style="fill: #7f7f7f"/>
   </g>
   <g id="patch_186">
    <path d="M 431.829561 122.515792 
L 447.107422 122.515792 
L 447.107422 109.3483 
L 431.829561 109.3483 
z
" clip-path="url(#pdcfdb819c9)" style="fill: #7f7f7f"/>
   </g>
   <g id="patch_187">
    <path d="M 463.658439 122.100926 
L 478.936299 122.100926 
L 478.936299 109.558501 
L 463.658439 109.558501 
z
" clip-path="url(#pdcfdb819c9)" style="fill: #7f7f7f"/>
   </g>
   <g id="patch_188">
    <path d="M 495.487316 121.603891 
L 510.765176 121.603891 
L 510.765176 109.642807 
L 495.487316 109.642807 
z
" clip-path="url(#pdcfdb819c9)" style="fill: #7f7f7f"/>
   </g>
   <g id="patch_189">
    <path d="M 527.316193 121.048794 
L 542.594053 121.048794 
L 542.594053 109.631082 
L 527.316193 109.631082 
z
" clip-path="url(#pdcfdb819c9)" style="fill: #7f7f7f"/>
   </g>
   <g id="patch_190">
    <path d="M 559.14507 120.453477 
L 574.42293 120.453477 
L 574.42293 109.54581 
L 559.14507 109.54581 
z
" clip-path="url(#pdcfdb819c9)" style="fill: #7f7f7f"/>
   </g>
   <g id="patch_191">
    <path d="M 590.973947 119.831285 
L 606.251807 119.831285 
L 606.251807 109.404141 
L 590.973947 109.404141 
z
" clip-path="url(#pdcfdb819c9)" style="fill: #7f7f7f"/>
   </g>
   <g id="patch_192">
    <path d="M 622.802824 119.192278 
L 638.080684 119.192278 
L 638.080684 109.219295 
L 622.802824 109.219295 
z
" clip-path="url(#pdcfdb819c9)" style="fill: #7f7f7f"/>
   </g>
   <g id="patch_193">
    <path d="M 654.631701 118.544065 
L 669.909561 118.544065 
L 669.909561 109.001542 
L 654.631701 109.001542 
z
" clip-path="url(#pdcfdb819c9)" style="fill: #7f7f7f"/>
   </g>
   <g id="patch_194">
    <path d="M 686.460578 117.892411 
L 701.738439 117.892411 
L 701.738439 108.758909 
L 686.460578 108.758909 
z
" clip-path="url(#pdcfdb819c9)" style="fill: #7f7f7f"/>
   </g>
   <g id="patch_195">
    <path d="M 718.289455 117.241673 
L 733.567316 117.241673 
L 733.567316 108.497697 
L 718.289455 108.497697 
z
" clip-path="url(#pdcfdb819c9)" style="fill: #7f7f7f"/>
   </g>
   <g id="patch_196">
    <path d="M 750.118332 116.595124 
L 765.396193 116.595124 
L 765.396193 108.222858 
L 750.118332 108.222858 
z
" clip-path="url(#pdcfdb819c9)" style="fill: #7f7f7f"/>
   </g>
   <g id="patch_197">
    <path d="M 781.947209 115.955194 
L 797.22507 115.955194 
L 797.22507 107.938288 
L 781.947209 107.938288 
z
" clip-path="url(#pdcfdb819c9)" style="fill: #7f7f7f"/>
   </g>
   <g id="patch_198">
    <path d="M 813.776086 115.323657 
L 829.053947 115.323657 
L 829.053947 107.64705 
L 813.776086 107.64705 
z
" clip-path="url(#pdcfdb819c9)" style="fill: #7f7f7f"/>
   </g>
   <g id="patch_199">
    <path d="M 845.604963 114.701772 
L 860.882824 114.701772 
L 860.882824 107.351537 
L 845.604963 107.351537 
z
" clip-path="url(#pdcfdb819c9)" style="fill: #7f7f7f"/>
   </g>
   <g id="patch_200">
    <path d="M 877.43384 114.09039 
L 892.711701 114.09039 
L 892.711701 107.053611 
L 877.43384 107.053611 
z
" clip-path="url(#pdcfdb819c9)" style="fill: #7f7f7f"/>
   </g>
   <g id="patch_201">
    <path d="M 909.262717 113.490045 
L 924.540578 113.490045 
L 924.540578 106.754705 
L 909.262717 106.754705 
z
" clip-path="url(#pdcfdb819c9)" style="fill: #7f7f7f"/>
   </g>
   <g id="patch_202">
    <path d="M 941.091594 112.901016 
L 956.369455 112.901016 
L 956.369455 106.455906 
L 941.091594 106.455906 
z
" clip-path="url(#pdcfdb819c9)" style="fill: #7f7f7f"/>
   </g>
   <g id="matplotlib.axis_1">
    <g id="xtick_1">
     <g id="line2d_1">
      <defs>
       <path id="m9da5d382b4" d="M 0 0 
L 0 3.5 
" style="stroke: #000000; stroke-width: 0.8"/>
      </defs>
      <g>
       <use xlink:href="#m9da5d382b4" x="184.837476" y="514.17792" style="stroke: #000000; stroke-width: 0.8"/>
      </g>
     </g>
     <g id="text_1">
      <!-- 26 -->
      <g transform="translate(173.384976 534.855107) scale(0.18 -0.18)">
       <defs>
        <path id="DejaVuSans-32" d="M 1228 531 
L 3431 531 
L 3431 0 
L 469 0 
L 469 531 
Q 828 903 1448 1529 
Q 2069 2156 2228 2338 
Q 2531 2678 2651 2914 
Q 2772 3150 2772 3378 
Q 2772 3750 2511 3984 
Q 2250 4219 1831 4219 
Q 1534 4219 1204 4116 
Q 875 4013 500 3803 
L 500 4441 
Q 881 4594 1212 4672 
Q 1544 4750 1819 4750 
Q 2544 4750 2975 4387 
Q 3406 4025 3406 3419 
Q 3406 3131 3298 2873 
Q 3191 2616 2906 2266 
Q 2828 2175 2409 1742 
Q 1991 1309 1228 531 
z
" transform="scale(0.015625)"/>
        <path id="DejaVuSans-36" d="M 2113 2584 
Q 1688 2584 1439 2293 
Q 1191 2003 1191 1497 
Q 1191 994 1439 701 
Q 1688 409 2113 409 
Q 2538 409 2786 701 
Q 3034 994 3034 1497 
Q 3034 2003 2786 2293 
Q 2538 2584 2113 2584 
z
M 3366 4563 
L 3366 3988 
Q 3128 4100 2886 4159 
Q 2644 4219 2406 4219 
Q 1781 4219 1451 3797 
Q 1122 3375 1075 2522 
Q 1259 2794 1537 2939 
Q 1816 3084 2150 3084 
Q 2853 3084 3261 2657 
Q 3669 2231 3669 1497 
Q 3669 778 3244 343 
Q 2819 -91 2113 -91 
Q 1303 -91 875 529 
Q 447 1150 447 2328 
Q 447 3434 972 4092 
Q 1497 4750 2381 4750 
Q 2619 4750 2861 4703 
Q 3103 4656 3366 4563 
z
" transform="scale(0.015625)"/>
       </defs>
       <use xlink:href="#DejaVuSans-32"/>
       <use xlink:href="#DejaVuSans-36" x="63.623047"/>
      </g>
     </g>
    </g>
    <g id="xtick_2">
     <g id="line2d_2">
      <g>
       <use xlink:href="#m9da5d382b4" x="286.689882" y="514.17792" style="stroke: #000000; stroke-width: 0.8"/>
      </g>
     </g>
     <g id="text_2">
      <!-- 28 -->
      <g transform="translate(275.237382 534.855107) scale(0.18 -0.18)">
       <defs>
        <path id="DejaVuSans-38" d="M 2034 2216 
Q 1584 2216 1326 1975 
Q 1069 1734 1069 1313 
Q 1069 891 1326 650 
Q 1584 409 2034 409 
Q 2484 409 2743 651 
Q 3003 894 3003 1313 
Q 3003 1734 2745 1975 
Q 2488 2216 2034 2216 
z
M 1403 2484 
Q 997 2584 770 2862 
Q 544 3141 544 3541 
Q 544 4100 942 4425 
Q 1341 4750 2034 4750 
Q 2731 4750 3128 4425 
Q 3525 4100 3525 3541 
Q 3525 3141 3298 2862 
Q 3072 2584 2669 2484 
Q 3125 2378 3379 2068 
Q 3634 1759 3634 1313 
Q 3634 634 3220 271 
Q 2806 -91 2034 -91 
Q 1263 -91 848 271 
Q 434 634 434 1313 
Q 434 1759 690 2068 
Q 947 2378 1403 2484 
z
M 1172 3481 
Q 1172 3119 1398 2916 
Q 1625 2713 2034 2713 
Q 2441 2713 2670 2916 
Q 2900 3119 2900 3481 
Q 2900 3844 2670 4047 
Q 2441 4250 2034 4250 
Q 1625 4250 1398 4047 
Q 1172 3844 1172 3481 
z
" transform="scale(0.015625)"/>
       </defs>
       <use xlink:href="#DejaVuSans-32"/>
       <use xlink:href="#DejaVuSans-38" x="63.623047"/>
      </g>
     </g>
    </g>
    <g id="xtick_3">
     <g id="line2d_3">
      <g>
       <use xlink:href="#m9da5d382b4" x="388.542289" y="514.17792" style="stroke: #000000; stroke-width: 0.8"/>
      </g>
     </g>
     <g id="text_3">
      <!-- 30 -->
      <g transform="translate(377.089789 534.855107) scale(0.18 -0.18)">
       <defs>
        <path id="DejaVuSans-33" d="M 2597 2516 
Q 3050 2419 3304 2112 
Q 3559 1806 3559 1356 
Q 3559 666 3084 287 
Q 2609 -91 1734 -91 
Q 1441 -91 1130 -33 
Q 819 25 488 141 
L 488 750 
Q 750 597 1062 519 
Q 1375 441 1716 441 
Q 2309 441 2620 675 
Q 2931 909 2931 1356 
Q 2931 1769 2642 2001 
Q 2353 2234 1838 2234 
L 1294 2234 
L 1294 2753 
L 1863 2753 
Q 2328 2753 2575 2939 
Q 2822 3125 2822 3475 
Q 2822 3834 2567 4026 
Q 2313 4219 1838 4219 
Q 1578 4219 1281 4162 
Q 984 4106 628 3988 
L 628 4550 
Q 988 4650 1302 4700 
Q 1616 4750 1894 4750 
Q 2613 4750 3031 4423 
Q 3450 4097 3450 3541 
Q 3450 3153 3228 2886 
Q 3006 2619 2597 2516 
z
" transform="scale(0.015625)"/>
        <path id="DejaVuSans-30" d="M 2034 4250 
Q 1547 4250 1301 3770 
Q 1056 3291 1056 2328 
Q 1056 1369 1301 889 
Q 1547 409 2034 409 
Q 2525 409 2770 889 
Q 3016 1369 3016 2328 
Q 3016 3291 2770 3770 
Q 2525 4250 2034 4250 
z
M 2034 4750 
Q 2819 4750 3233 4129 
Q 3647 3509 3647 2328 
Q 3647 1150 3233 529 
Q 2819 -91 2034 -91 
Q 1250 -91 836 529 
Q 422 1150 422 2328 
Q 422 3509 836 4129 
Q 1250 4750 2034 4750 
z
" transform="scale(0.015625)"/>
       </defs>
       <use xlink:href="#DejaVuSans-33"/>
       <use xlink:href="#DejaVuSans-30" x="63.623047"/>
      </g>
     </g>
    </g>
    <g id="xtick_4">
     <g id="line2d_4">
      <g>
       <use xlink:href="#m9da5d382b4" x="490.394695" y="514.17792" style="stroke: #000000; stroke-width: 0.8"/>
      </g>
     </g>
     <g id="text_4">
      <!-- 32 -->
      <g transform="translate(478.942195 534.855107) scale(0.18 -0.18)">
       <use xlink:href="#DejaVuSans-33"/>
       <use xlink:href="#DejaVuSans-32" x="63.623047"/>
      </g>
     </g>
    </g>
    <g id="xtick_5">
     <g id="line2d_5">
      <g>
       <use xlink:href="#m9da5d382b4" x="592.247102" y="514.17792" style="stroke: #000000; stroke-width: 0.8"/>
      </g>
     </g>
     <g id="text_5">
      <!-- 34 -->
      <g transform="translate(580.794602 534.855107) scale(0.18 -0.18)">
       <defs>
        <path id="DejaVuSans-34" d="M 2419 4116 
L 825 1625 
L 2419 1625 
L 2419 4116 
z
M 2253 4666 
L 3047 4666 
L 3047 1625 
L 3713 1625 
L 3713 1100 
L 3047 1100 
L 3047 0 
L 2419 0 
L 2419 1100 
L 313 1100 
L 313 1709 
L 2253 4666 
z
" transform="scale(0.015625)"/>
       </defs>
       <use xlink:href="#DejaVuSans-33"/>
       <use xlink:href="#DejaVuSans-34" x="63.623047"/>
      </g>
     </g>
    </g>
    <g id="xtick_6">
     <g id="line2d_6">
      <g>
       <use xlink:href="#m9da5d382b4" x="694.099508" y="514.17792" style="stroke: #000000; stroke-width: 0.8"/>
      </g>
     </g>
     <g id="text_6">
      <!-- 36 -->
      <g transform="translate(682.647008 534.855107) scale(0.18 -0.18)">
       <use xlink:href="#DejaVuSans-33"/>
       <use xlink:href="#DejaVuSans-36" x="63.623047"/>
      </g>
     </g>
    </g>
    <g id="xtick_7">
     <g id="line2d_7">
      <g>
       <use xlink:href="#m9da5d382b4" x="795.951914" y="514.17792" style="stroke: #000000; stroke-width: 0.8"/>
      </g>
     </g>
     <g id="text_7">
      <!-- 38 -->
      <g transform="translate(784.499414 534.855107) scale(0.18 -0.18)">
       <use xlink:href="#DejaVuSans-33"/>
       <use xlink:href="#DejaVuSans-38" x="63.623047"/>
      </g>
     </g>
    </g>
    <g id="xtick_8">
     <g id="line2d_8">
      <g>
       <use xlink:href="#m9da5d382b4" x="897.804321" y="514.17792" style="stroke: #000000; stroke-width: 0.8"/>
      </g>
     </g>
     <g id="text_8">
      <!-- 40 -->
      <g transform="translate(886.351821 534.855107) scale(0.18 -0.18)">
       <use xlink:href="#DejaVuSans-34"/>
       <use xlink:href="#DejaVuSans-30" x="63.623047"/>
      </g>
     </g>
    </g>
    <g id="text_9">
     <!-- Kondensatordruck in bar -->
     <g transform="translate(456.254156 556.275733) scale(0.18 -0.18)">
      <defs>
       <path id="DejaVuSans-4b" d="M 628 4666 
L 1259 4666 
L 1259 2694 
L 3353 4666 
L 4166 4666 
L 1850 2491 
L 4331 0 
L 3500 0 
L 1259 2247 
L 1259 0 
L 628 0 
L 628 4666 
z
" transform="scale(0.015625)"/>
       <path id="DejaVuSans-6f" d="M 1959 3097 
Q 1497 3097 1228 2736 
Q 959 2375 959 1747 
Q 959 1119 1226 758 
Q 1494 397 1959 397 
Q 2419 397 2687 759 
Q 2956 1122 2956 1747 
Q 2956 2369 2687 2733 
Q 2419 3097 1959 3097 
z
M 1959 3584 
Q 2709 3584 3137 3096 
Q 3566 2609 3566 1747 
Q 3566 888 3137 398 
Q 2709 -91 1959 -91 
Q 1206 -91 779 398 
Q 353 888 353 1747 
Q 353 2609 779 3096 
Q 1206 3584 1959 3584 
z
" transform="scale(0.015625)"/>
       <path id="DejaVuSans-6e" d="M 3513 2113 
L 3513 0 
L 2938 0 
L 2938 2094 
Q 2938 2591 2744 2837 
Q 2550 3084 2163 3084 
Q 1697 3084 1428 2787 
Q 1159 2491 1159 1978 
L 1159 0 
L 581 0 
L 581 3500 
L 1159 3500 
L 1159 2956 
Q 1366 3272 1645 3428 
Q 1925 3584 2291 3584 
Q 2894 3584 3203 3211 
Q 3513 2838 3513 2113 
z
" transform="scale(0.015625)"/>
       <path id="DejaVuSans-64" d="M 2906 2969 
L 2906 4863 
L 3481 4863 
L 3481 0 
L 2906 0 
L 2906 525 
Q 2725 213 2448 61 
Q 2172 -91 1784 -91 
Q 1150 -91 751 415 
Q 353 922 353 1747 
Q 353 2572 751 3078 
Q 1150 3584 1784 3584 
Q 2172 3584 2448 3432 
Q 2725 3281 2906 2969 
z
M 947 1747 
Q 947 1113 1208 752 
Q 1469 391 1925 391 
Q 2381 391 2643 752 
Q 2906 1113 2906 1747 
Q 2906 2381 2643 2742 
Q 2381 3103 1925 3103 
Q 1469 3103 1208 2742 
Q 947 2381 947 1747 
z
" transform="scale(0.015625)"/>
       <path id="DejaVuSans-65" d="M 3597 1894 
L 3597 1613 
L 953 1613 
Q 991 1019 1311 708 
Q 1631 397 2203 397 
Q 2534 397 2845 478 
Q 3156 559 3463 722 
L 3463 178 
Q 3153 47 2828 -22 
Q 2503 -91 2169 -91 
Q 1331 -91 842 396 
Q 353 884 353 1716 
Q 353 2575 817 3079 
Q 1281 3584 2069 3584 
Q 2775 3584 3186 3129 
Q 3597 2675 3597 1894 
z
M 3022 2063 
Q 3016 2534 2758 2815 
Q 2500 3097 2075 3097 
Q 1594 3097 1305 2825 
Q 1016 2553 972 2059 
L 3022 2063 
z
" transform="scale(0.015625)"/>
       <path id="DejaVuSans-73" d="M 2834 3397 
L 2834 2853 
Q 2591 2978 2328 3040 
Q 2066 3103 1784 3103 
Q 1356 3103 1142 2972 
Q 928 2841 928 2578 
Q 928 2378 1081 2264 
Q 1234 2150 1697 2047 
L 1894 2003 
Q 2506 1872 2764 1633 
Q 3022 1394 3022 966 
Q 3022 478 2636 193 
Q 2250 -91 1575 -91 
Q 1294 -91 989 -36 
Q 684 19 347 128 
L 347 722 
Q 666 556 975 473 
Q 1284 391 1588 391 
Q 1994 391 2212 530 
Q 2431 669 2431 922 
Q 2431 1156 2273 1281 
Q 2116 1406 1581 1522 
L 1381 1569 
Q 847 1681 609 1914 
Q 372 2147 372 2553 
Q 372 3047 722 3315 
Q 1072 3584 1716 3584 
Q 2034 3584 2315 3537 
Q 2597 3491 2834 3397 
z
" transform="scale(0.015625)"/>
       <path id="DejaVuSans-61" d="M 2194 1759 
Q 1497 1759 1228 1600 
Q 959 1441 959 1056 
Q 959 750 1161 570 
Q 1363 391 1709 391 
Q 2188 391 2477 730 
Q 2766 1069 2766 1631 
L 2766 1759 
L 2194 1759 
z
M 3341 1997 
L 3341 0 
L 2766 0 
L 2766 531 
Q 2569 213 2275 61 
Q 1981 -91 1556 -91 
Q 1019 -91 701 211 
Q 384 513 384 1019 
Q 384 1609 779 1909 
Q 1175 2209 1959 2209 
L 2766 2209 
L 2766 2266 
Q 2766 2663 2505 2880 
Q 2244 3097 1772 3097 
Q 1472 3097 1187 3025 
Q 903 2953 641 2809 
L 641 3341 
Q 956 3463 1253 3523 
Q 1550 3584 1831 3584 
Q 2591 3584 2966 3190 
Q 3341 2797 3341 1997 
z
" transform="scale(0.015625)"/>
       <path id="DejaVuSans-74" d="M 1172 4494 
L 1172 3500 
L 2356 3500 
L 2356 3053 
L 1172 3053 
L 1172 1153 
Q 1172 725 1289 603 
Q 1406 481 1766 481 
L 2356 481 
L 2356 0 
L 1766 0 
Q 1100 0 847 248 
Q 594 497 594 1153 
L 594 3053 
L 172 3053 
L 172 3500 
L 594 3500 
L 594 4494 
L 1172 4494 
z
" transform="scale(0.015625)"/>
       <path id="DejaVuSans-72" d="M 2631 2963 
Q 2534 3019 2420 3045 
Q 2306 3072 2169 3072 
Q 1681 3072 1420 2755 
Q 1159 2438 1159 1844 
L 1159 0 
L 581 0 
L 581 3500 
L 1159 3500 
L 1159 2956 
Q 1341 3275 1631 3429 
Q 1922 3584 2338 3584 
Q 2397 3584 2469 3576 
Q 2541 3569 2628 3553 
L 2631 2963 
z
" transform="scale(0.015625)"/>
       <path id="DejaVuSans-75" d="M 544 1381 
L 544 3500 
L 1119 3500 
L 1119 1403 
Q 1119 906 1312 657 
Q 1506 409 1894 409 
Q 2359 409 2629 706 
Q 2900 1003 2900 1516 
L 2900 3500 
L 3475 3500 
L 3475 0 
L 2900 0 
L 2900 538 
Q 2691 219 2414 64 
Q 2138 -91 1772 -91 
Q 1169 -91 856 284 
Q 544 659 544 1381 
z
M 1991 3584 
L 1991 3584 
z
" transform="scale(0.015625)"/>
       <path id="DejaVuSans-63" d="M 3122 3366 
L 3122 2828 
Q 2878 2963 2633 3030 
Q 2388 3097 2138 3097 
Q 1578 3097 1268 2742 
Q 959 2388 959 1747 
Q 959 1106 1268 751 
Q 1578 397 2138 397 
Q 2388 397 2633 464 
Q 2878 531 3122 666 
L 3122 134 
Q 2881 22 2623 -34 
Q 2366 -91 2075 -91 
Q 1284 -91 818 406 
Q 353 903 353 1747 
Q 353 2603 823 3093 
Q 1294 3584 2113 3584 
Q 2378 3584 2631 3529 
Q 2884 3475 3122 3366 
z
" transform="scale(0.015625)"/>
       <path id="DejaVuSans-6b" d="M 581 4863 
L 1159 4863 
L 1159 1991 
L 2875 3500 
L 3609 3500 
L 1753 1863 
L 3688 0 
L 2938 0 
L 1159 1709 
L 1159 0 
L 581 0 
L 581 4863 
z
" transform="scale(0.015625)"/>
       <path id="DejaVuSans-20" transform="scale(0.015625)"/>
       <path id="DejaVuSans-69" d="M 603 3500 
L 1178 3500 
L 1178 0 
L 603 0 
L 603 3500 
z
M 603 4863 
L 1178 4863 
L 1178 4134 
L 603 4134 
L 603 4863 
z
" transform="scale(0.015625)"/>
       <path id="DejaVuSans-62" d="M 3116 1747 
Q 3116 2381 2855 2742 
Q 2594 3103 2138 3103 
Q 1681 3103 1420 2742 
Q 1159 2381 1159 1747 
Q 1159 1113 1420 752 
Q 1681 391 2138 391 
Q 2594 391 2855 752 
Q 3116 1113 3116 1747 
z
M 1159 2969 
Q 1341 3281 1617 3432 
Q 1894 3584 2278 3584 
Q 2916 3584 3314 3078 
Q 3713 2572 3713 1747 
Q 3713 922 3314 415 
Q 2916 -91 2278 -91 
Q 1894 -91 1617 61 
Q 1341 213 1159 525 
L 1159 0 
L 581 0 
L 581 4863 
L 1159 4863 
L 1159 2969 
z
" transform="scale(0.015625)"/>
      </defs>
      <use xlink:href="#DejaVuSans-4b"/>
      <use xlink:href="#DejaVuSans-6f" x="60.576172"/>
      <use xlink:href="#DejaVuSans-6e" x="121.757812"/>
      <use xlink:href="#DejaVuSans-64" x="185.136719"/>
      <use xlink:href="#DejaVuSans-65" x="248.613281"/>
      <use xlink:href="#DejaVuSans-6e" x="310.136719"/>
      <use xlink:href="#DejaVuSans-73" x="373.515625"/>
      <use xlink:href="#DejaVuSans-61" x="425.615234"/>
      <use xlink:href="#DejaVuSans-74" x="486.894531"/>
      <use xlink:href="#DejaVuSans-6f" x="526.103516"/>
      <use xlink:href="#DejaVuSans-72" x="587.285156"/>
      <use xlink:href="#DejaVuSans-64" x="626.648438"/>
      <use xlink:href="#DejaVuSans-72" x="690.125"/>
      <use xlink:href="#DejaVuSans-75" x="731.238281"/>
      <use xlink:href="#DejaVuSans-63" x="794.617188"/>
      <use xlink:href="#DejaVuSans-6b" x="849.597656"/>
      <use xlink:href="#DejaVuSans-20" x="907.507812"/>
      <use xlink:href="#DejaVuSans-69" x="939.294922"/>
      <use xlink:href="#DejaVuSans-6e" x="967.078125"/>
      <use xlink:href="#DejaVuSans-20" x="1030.457031"/>
      <use xlink:href="#DejaVuSans-62" x="1062.244141"/>
      <use xlink:href="#DejaVuSans-61" x="1125.720703"/>
      <use xlink:href="#DejaVuSans-72" x="1187"/>
     </g>
    </g>
   </g>
   <g id="matplotlib.axis_2">
    <g id="ytick_1">
     <g id="line2d_9">
      <defs>
       <path id="m48216c00af" d="M 0 0 
L -3.5 0 
" style="stroke: #000000; stroke-width: 0.8"/>
      </defs>
      <g>
       <use xlink:href="#m48216c00af" x="138.24" y="514.17792" style="stroke: #000000; stroke-width: 0.8"/>
      </g>
     </g>
     <g id="text_10">
      <!-- 0.0 -->
      <g transform="translate(102.614375 521.016514) scale(0.18 -0.18)">
       <defs>
        <path id="DejaVuSans-2e" d="M 684 794 
L 1344 794 
L 1344 0 
L 684 0 
L 684 794 
z
" transform="scale(0.015625)"/>
       </defs>
       <use xlink:href="#DejaVuSans-30"/>
       <use xlink:href="#DejaVuSans-2e" x="63.623047"/>
       <use xlink:href="#DejaVuSans-30" x="95.410156"/>
      </g>
     </g>
    </g>
    <g id="ytick_2">
     <g id="line2d_10">
      <g>
       <use xlink:href="#m48216c00af" x="138.24" y="450.524338" style="stroke: #000000; stroke-width: 0.8"/>
      </g>
     </g>
     <g id="text_11">
      <!-- 0.2 -->
      <g transform="translate(102.614375 457.362932) scale(0.18 -0.18)">
       <use xlink:href="#DejaVuSans-30"/>
       <use xlink:href="#DejaVuSans-2e" x="63.623047"/>
       <use xlink:href="#DejaVuSans-32" x="95.410156"/>
      </g>
     </g>
    </g>
    <g id="ytick_3">
     <g id="line2d_11">
      <g>
       <use xlink:href="#m48216c00af" x="138.24" y="386.870756" style="stroke: #000000; stroke-width: 0.8"/>
      </g>
     </g>
     <g id="text_12">
      <!-- 0.4 -->
      <g transform="translate(102.614375 393.70935) scale(0.18 -0.18)">
       <use xlink:href="#DejaVuSans-30"/>
       <use xlink:href="#DejaVuSans-2e" x="63.623047"/>
       <use xlink:href="#DejaVuSans-34" x="95.410156"/>
      </g>
     </g>
    </g>
    <g id="ytick_4">
     <g id="line2d_12">
      <g>
       <use xlink:href="#m48216c00af" x="138.24" y="323.217175" style="stroke: #000000; stroke-width: 0.8"/>
      </g>
     </g>
     <g id="text_13">
      <!-- 0.6 -->
      <g transform="translate(102.614375 330.055768) scale(0.18 -0.18)">
       <use xlink:href="#DejaVuSans-30"/>
       <use xlink:href="#DejaVuSans-2e" x="63.623047"/>
       <use xlink:href="#DejaVuSans-36" x="95.410156"/>
      </g>
     </g>
    </g>
    <g id="ytick_5">
     <g id="line2d_13">
      <g>
       <use xlink:href="#m48216c00af" x="138.24" y="259.563593" style="stroke: #000000; stroke-width: 0.8"/>
      </g>
     </g>
     <g id="text_14">
      <!-- 0.8 -->
      <g transform="translate(102.614375 266.402187) scale(0.18 -0.18)">
       <use xlink:href="#DejaVuSans-30"/>
       <use xlink:href="#DejaVuSans-2e" x="63.623047"/>
       <use xlink:href="#DejaVuSans-38" x="95.410156"/>
      </g>
     </g>
    </g>
    <g id="ytick_6">
     <g id="line2d_14">
      <g>
       <use xlink:href="#m48216c00af" x="138.24" y="195.910011" style="stroke: #000000; stroke-width: 0.8"/>
      </g>
     </g>
     <g id="text_15">
      <!-- 1.0 -->
      <g transform="translate(102.614375 202.748605) scale(0.18 -0.18)">
       <defs>
        <path id="DejaVuSans-31" d="M 794 531 
L 1825 531 
L 1825 4091 
L 703 3866 
L 703 4441 
L 1819 4666 
L 2450 4666 
L 2450 531 
L 3481 531 
L 3481 0 
L 794 0 
L 794 531 
z
" transform="scale(0.015625)"/>
       </defs>
       <use xlink:href="#DejaVuSans-31"/>
       <use xlink:href="#DejaVuSans-2e" x="63.623047"/>
       <use xlink:href="#DejaVuSans-30" x="95.410156"/>
      </g>
     </g>
    </g>
    <g id="ytick_7">
     <g id="line2d_15">
      <g>
       <use xlink:href="#m48216c00af" x="138.24" y="132.256429" style="stroke: #000000; stroke-width: 0.8"/>
      </g>
     </g>
     <g id="text_16">
      <!-- 1.2 -->
      <g transform="translate(102.614375 139.095023) scale(0.18 -0.18)">
       <use xlink:href="#DejaVuSans-31"/>
       <use xlink:href="#DejaVuSans-2e" x="63.623047"/>
       <use xlink:href="#DejaVuSans-32" x="95.410156"/>
      </g>
     </g>
    </g>
    <g id="text_17">
     <!-- Exergievernichtung in MW -->
     <g transform="translate(94.870937 409.818577) rotate(-90) scale(0.18 -0.18)">
      <defs>
       <path id="DejaVuSans-45" d="M 628 4666 
L 3578 4666 
L 3578 4134 
L 1259 4134 
L 1259 2753 
L 3481 2753 
L 3481 2222 
L 1259 2222 
L 1259 531 
L 3634 531 
L 3634 0 
L 628 0 
L 628 4666 
z
" transform="scale(0.015625)"/>
       <path id="DejaVuSans-78" d="M 3513 3500 
L 2247 1797 
L 3578 0 
L 2900 0 
L 1881 1375 
L 863 0 
L 184 0 
L 1544 1831 
L 300 3500 
L 978 3500 
L 1906 2253 
L 2834 3500 
L 3513 3500 
z
" transform="scale(0.015625)"/>
       <path id="DejaVuSans-67" d="M 2906 1791 
Q 2906 2416 2648 2759 
Q 2391 3103 1925 3103 
Q 1463 3103 1205 2759 
Q 947 2416 947 1791 
Q 947 1169 1205 825 
Q 1463 481 1925 481 
Q 2391 481 2648 825 
Q 2906 1169 2906 1791 
z
M 3481 434 
Q 3481 -459 3084 -895 
Q 2688 -1331 1869 -1331 
Q 1566 -1331 1297 -1286 
Q 1028 -1241 775 -1147 
L 775 -588 
Q 1028 -725 1275 -790 
Q 1522 -856 1778 -856 
Q 2344 -856 2625 -561 
Q 2906 -266 2906 331 
L 2906 616 
Q 2728 306 2450 153 
Q 2172 0 1784 0 
Q 1141 0 747 490 
Q 353 981 353 1791 
Q 353 2603 747 3093 
Q 1141 3584 1784 3584 
Q 2172 3584 2450 3431 
Q 2728 3278 2906 2969 
L 2906 3500 
L 3481 3500 
L 3481 434 
z
" transform="scale(0.015625)"/>
       <path id="DejaVuSans-76" d="M 191 3500 
L 800 3500 
L 1894 563 
L 2988 3500 
L 3597 3500 
L 2284 0 
L 1503 0 
L 191 3500 
z
" transform="scale(0.015625)"/>
       <path id="DejaVuSans-68" d="M 3513 2113 
L 3513 0 
L 2938 0 
L 2938 2094 
Q 2938 2591 2744 2837 
Q 2550 3084 2163 3084 
Q 1697 3084 1428 2787 
Q 1159 2491 1159 1978 
L 1159 0 
L 581 0 
L 581 4863 
L 1159 4863 
L 1159 2956 
Q 1366 3272 1645 3428 
Q 1925 3584 2291 3584 
Q 2894 3584 3203 3211 
Q 3513 2838 3513 2113 
z
" transform="scale(0.015625)"/>
       <path id="DejaVuSans-4d" d="M 628 4666 
L 1569 4666 
L 2759 1491 
L 3956 4666 
L 4897 4666 
L 4897 0 
L 4281 0 
L 4281 4097 
L 3078 897 
L 2444 897 
L 1241 4097 
L 1241 0 
L 628 0 
L 628 4666 
z
" transform="scale(0.015625)"/>
       <path id="DejaVuSans-57" d="M 213 4666 
L 850 4666 
L 1831 722 
L 2809 4666 
L 3519 4666 
L 4500 722 
L 5478 4666 
L 6119 4666 
L 4947 0 
L 4153 0 
L 3169 4050 
L 2175 0 
L 1381 0 
L 213 4666 
z
" transform="scale(0.015625)"/>
      </defs>
      <use xlink:href="#DejaVuSans-45"/>
      <use xlink:href="#DejaVuSans-78" x="63.183594"/>
      <use xlink:href="#DejaVuSans-65" x="119.238281"/>
      <use xlink:href="#DejaVuSans-72" x="180.761719"/>
      <use xlink:href="#DejaVuSans-67" x="220.125"/>
      <use xlink:href="#DejaVuSans-69" x="283.601562"/>
      <use xlink:href="#DejaVuSans-65" x="311.384766"/>
      <use xlink:href="#DejaVuSans-76" x="372.908203"/>
      <use xlink:href="#DejaVuSans-65" x="432.087891"/>
      <use xlink:href="#DejaVuSans-72" x="493.611328"/>
      <use xlink:href="#DejaVuSans-6e" x="532.974609"/>
      <use xlink:href="#DejaVuSans-69" x="596.353516"/>
      <use xlink:href="#DejaVuSans-63" x="624.136719"/>
      <use xlink:href="#DejaVuSans-68" x="679.117188"/>
      <use xlink:href="#DejaVuSans-74" x="742.496094"/>
      <use xlink:href="#DejaVuSans-75" x="781.705078"/>
      <use xlink:href="#DejaVuSans-6e" x="845.083984"/>
      <use xlink:href="#DejaVuSans-67" x="908.462891"/>
      <use xlink:href="#DejaVuSans-20" x="971.939453"/>
      <use xlink:href="#DejaVuSans-69" x="1003.726562"/>
      <use xlink:href="#DejaVuSans-6e" x="1031.509766"/>
      <use xlink:href="#DejaVuSans-20" x="1094.888672"/>
      <use xlink:href="#DejaVuSans-4d" x="1126.675781"/>
      <use xlink:href="#DejaVuSans-57" x="1212.955078"/>
     </g>
    </g>
   </g>
   <g id="patch_203">
    <path d="M 138.24 514.17792 
L 138.24 69.32736 
" style="fill: none; stroke: #000000; stroke-width: 0.8; stroke-linejoin: miter; stroke-linecap: square"/>
   </g>
   <g id="patch_204">
    <path d="M 995.328 514.17792 
L 995.328 69.32736 
" style="fill: none; stroke: #000000; stroke-width: 0.8; stroke-linejoin: miter; stroke-linecap: square"/>
   </g>
   <g id="patch_205">
    <path d="M 138.24 514.17792 
L 995.328 514.17792 
" style="fill: none; stroke: #000000; stroke-width: 0.8; stroke-linejoin: miter; stroke-linecap: square"/>
   </g>
   <g id="patch_206">
    <path d="M 138.24 69.32736 
L 995.328 69.32736 
" style="fill: none; stroke: #000000; stroke-width: 0.8; stroke-linejoin: miter; stroke-linecap: square"/>
   </g>
   <g id="legend_1">
    <g id="patch_207">
     <path d="M 150.84 295.09236 
L 427.311562 295.09236 
Q 430.911563 295.09236 430.911563 291.49236 
L 430.911563 81.92736 
Q 430.911563 78.32736 427.311562 78.32736 
L 150.84 78.32736 
Q 147.24 78.32736 147.24 81.92736 
L 147.24 291.49236 
Q 147.24 295.09236 150.84 295.09236 
z
" style="fill: #ffffff; opacity: 0.8; stroke: #cccccc; stroke-linejoin: miter"/>
    </g>
    <g id="patch_208">
     <path d="M 154.44 99.204547 
L 190.44 99.204547 
L 190.44 86.604547 
L 154.44 86.604547 
z
" style="fill: #1f77b4"/>
    </g>
    <g id="text_18">
     <!-- Gas cooler -->
     <g transform="translate(204.84 99.204547) scale(0.18 -0.18)">
      <defs>
       <path id="DejaVuSans-47" d="M 3809 666 
L 3809 1919 
L 2778 1919 
L 2778 2438 
L 4434 2438 
L 4434 434 
Q 4069 175 3628 42 
Q 3188 -91 2688 -91 
Q 1594 -91 976 548 
Q 359 1188 359 2328 
Q 359 3472 976 4111 
Q 1594 4750 2688 4750 
Q 3144 4750 3555 4637 
Q 3966 4525 4313 4306 
L 4313 3634 
Q 3963 3931 3569 4081 
Q 3175 4231 2741 4231 
Q 1884 4231 1454 3753 
Q 1025 3275 1025 2328 
Q 1025 1384 1454 906 
Q 1884 428 2741 428 
Q 3075 428 3337 486 
Q 3600 544 3809 666 
z
" transform="scale(0.015625)"/>
       <path id="DejaVuSans-6c" d="M 603 4863 
L 1178 4863 
L 1178 0 
L 603 0 
L 603 4863 
z
" transform="scale(0.015625)"/>
      </defs>
      <use xlink:href="#DejaVuSans-47"/>
      <use xlink:href="#DejaVuSans-61" x="77.490234"/>
      <use xlink:href="#DejaVuSans-73" x="138.769531"/>
      <use xlink:href="#DejaVuSans-20" x="190.869141"/>
      <use xlink:href="#DejaVuSans-63" x="222.65625"/>
      <use xlink:href="#DejaVuSans-6f" x="277.636719"/>
      <use xlink:href="#DejaVuSans-6f" x="338.818359"/>
      <use xlink:href="#DejaVuSans-6c" x="400"/>
      <use xlink:href="#DejaVuSans-65" x="427.783203"/>
      <use xlink:href="#DejaVuSans-72" x="489.306641"/>
     </g>
    </g>
    <g id="patch_209">
     <path d="M 154.44 125.625172 
L 190.44 125.625172 
L 190.44 113.025172 
L 154.44 113.025172 
z
" style="fill: #ff7f0e"/>
    </g>
    <g id="text_19">
     <!-- Evaporator -->
     <g transform="translate(204.84 125.625172) scale(0.18 -0.18)">
      <defs>
       <path id="DejaVuSans-70" d="M 1159 525 
L 1159 -1331 
L 581 -1331 
L 581 3500 
L 1159 3500 
L 1159 2969 
Q 1341 3281 1617 3432 
Q 1894 3584 2278 3584 
Q 2916 3584 3314 3078 
Q 3713 2572 3713 1747 
Q 3713 922 3314 415 
Q 2916 -91 2278 -91 
Q 1894 -91 1617 61 
Q 1341 213 1159 525 
z
M 3116 1747 
Q 3116 2381 2855 2742 
Q 2594 3103 2138 3103 
Q 1681 3103 1420 2742 
Q 1159 2381 1159 1747 
Q 1159 1113 1420 752 
Q 1681 391 2138 391 
Q 2594 391 2855 752 
Q 3116 1113 3116 1747 
z
" transform="scale(0.015625)"/>
      </defs>
      <use xlink:href="#DejaVuSans-45"/>
      <use xlink:href="#DejaVuSans-76" x="63.183594"/>
      <use xlink:href="#DejaVuSans-61" x="122.363281"/>
      <use xlink:href="#DejaVuSans-70" x="183.642578"/>
      <use xlink:href="#DejaVuSans-6f" x="247.119141"/>
      <use xlink:href="#DejaVuSans-72" x="308.300781"/>
      <use xlink:href="#DejaVuSans-61" x="349.414062"/>
      <use xlink:href="#DejaVuSans-74" x="410.693359"/>
      <use xlink:href="#DejaVuSans-6f" x="449.902344"/>
      <use xlink:href="#DejaVuSans-72" x="511.083984"/>
     </g>
    </g>
    <g id="patch_210">
     <path d="M 154.44 152.045797 
L 190.44 152.045797 
L 190.44 139.445797 
L 154.44 139.445797 
z
" style="fill: #2ca02c"/>
    </g>
    <g id="text_20">
     <!-- Valve 1 -->
     <g transform="translate(204.84 152.045797) scale(0.18 -0.18)">
      <defs>
       <path id="DejaVuSans-56" d="M 1831 0 
L 50 4666 
L 709 4666 
L 2188 738 
L 3669 4666 
L 4325 4666 
L 2547 0 
L 1831 0 
z
" transform="scale(0.015625)"/>
      </defs>
      <use xlink:href="#DejaVuSans-56"/>
      <use xlink:href="#DejaVuSans-61" x="60.658203"/>
      <use xlink:href="#DejaVuSans-6c" x="121.9375"/>
      <use xlink:href="#DejaVuSans-76" x="149.720703"/>
      <use xlink:href="#DejaVuSans-65" x="208.900391"/>
      <use xlink:href="#DejaVuSans-20" x="270.423828"/>
      <use xlink:href="#DejaVuSans-31" x="302.210938"/>
     </g>
    </g>
    <g id="patch_211">
     <path d="M 154.44 178.466422 
L 190.44 178.466422 
L 190.44 165.866422 
L 154.44 165.866422 
z
" style="fill: #d62728"/>
    </g>
    <g id="text_21">
     <!-- Valve 2 -->
     <g transform="translate(204.84 178.466422) scale(0.18 -0.18)">
      <use xlink:href="#DejaVuSans-56"/>
      <use xlink:href="#DejaVuSans-61" x="60.658203"/>
      <use xlink:href="#DejaVuSans-6c" x="121.9375"/>
      <use xlink:href="#DejaVuSans-76" x="149.720703"/>
      <use xlink:href="#DejaVuSans-65" x="208.900391"/>
      <use xlink:href="#DejaVuSans-20" x="270.423828"/>
      <use xlink:href="#DejaVuSans-32" x="302.210938"/>
     </g>
    </g>
    <g id="patch_212">
     <path d="M 154.44 204.887047 
L 190.44 204.887047 
L 190.44 192.287047 
L 154.44 192.287047 
z
" style="fill: #9467bd"/>
    </g>
    <g id="text_22">
     <!-- Compressor 1 -->
     <g transform="translate(204.84 204.887047) scale(0.18 -0.18)">
      <defs>
       <path id="DejaVuSans-43" d="M 4122 4306 
L 4122 3641 
Q 3803 3938 3442 4084 
Q 3081 4231 2675 4231 
Q 1875 4231 1450 3742 
Q 1025 3253 1025 2328 
Q 1025 1406 1450 917 
Q 1875 428 2675 428 
Q 3081 428 3442 575 
Q 3803 722 4122 1019 
L 4122 359 
Q 3791 134 3420 21 
Q 3050 -91 2638 -91 
Q 1578 -91 968 557 
Q 359 1206 359 2328 
Q 359 3453 968 4101 
Q 1578 4750 2638 4750 
Q 3056 4750 3426 4639 
Q 3797 4528 4122 4306 
z
" transform="scale(0.015625)"/>
       <path id="DejaVuSans-6d" d="M 3328 2828 
Q 3544 3216 3844 3400 
Q 4144 3584 4550 3584 
Q 5097 3584 5394 3201 
Q 5691 2819 5691 2113 
L 5691 0 
L 5113 0 
L 5113 2094 
Q 5113 2597 4934 2840 
Q 4756 3084 4391 3084 
Q 3944 3084 3684 2787 
Q 3425 2491 3425 1978 
L 3425 0 
L 2847 0 
L 2847 2094 
Q 2847 2600 2669 2842 
Q 2491 3084 2119 3084 
Q 1678 3084 1418 2786 
Q 1159 2488 1159 1978 
L 1159 0 
L 581 0 
L 581 3500 
L 1159 3500 
L 1159 2956 
Q 1356 3278 1631 3431 
Q 1906 3584 2284 3584 
Q 2666 3584 2933 3390 
Q 3200 3197 3328 2828 
z
" transform="scale(0.015625)"/>
      </defs>
      <use xlink:href="#DejaVuSans-43"/>
      <use xlink:href="#DejaVuSans-6f" x="69.824219"/>
      <use xlink:href="#DejaVuSans-6d" x="131.005859"/>
      <use xlink:href="#DejaVuSans-70" x="228.417969"/>
      <use xlink:href="#DejaVuSans-72" x="291.894531"/>
      <use xlink:href="#DejaVuSans-65" x="330.757812"/>
      <use xlink:href="#DejaVuSans-73" x="392.28125"/>
      <use xlink:href="#DejaVuSans-73" x="444.380859"/>
      <use xlink:href="#DejaVuSans-6f" x="496.480469"/>
      <use xlink:href="#DejaVuSans-72" x="557.662109"/>
      <use xlink:href="#DejaVuSans-20" x="598.775391"/>
      <use xlink:href="#DejaVuSans-31" x="630.5625"/>
     </g>
    </g>
    <g id="patch_213">
     <path d="M 154.44 231.307672 
L 190.44 231.307672 
L 190.44 218.707672 
L 154.44 218.707672 
z
" style="fill: #8c564b"/>
    </g>
    <g id="text_23">
     <!-- Compressor 2 -->
     <g transform="translate(204.84 231.307672) scale(0.18 -0.18)">
      <use xlink:href="#DejaVuSans-43"/>
      <use xlink:href="#DejaVuSans-6f" x="69.824219"/>
      <use xlink:href="#DejaVuSans-6d" x="131.005859"/>
      <use xlink:href="#DejaVuSans-70" x="228.417969"/>
      <use xlink:href="#DejaVuSans-72" x="291.894531"/>
      <use xlink:href="#DejaVuSans-65" x="330.757812"/>
      <use xlink:href="#DejaVuSans-73" x="392.28125"/>
      <use xlink:href="#DejaVuSans-73" x="444.380859"/>
      <use xlink:href="#DejaVuSans-6f" x="496.480469"/>
      <use xlink:href="#DejaVuSans-72" x="557.662109"/>
      <use xlink:href="#DejaVuSans-20" x="598.775391"/>
      <use xlink:href="#DejaVuSans-32" x="630.5625"/>
     </g>
    </g>
    <g id="patch_214">
     <path d="M 154.44 257.728297 
L 190.44 257.728297 
L 190.44 245.128297 
L 154.44 245.128297 
z
" style="fill: #e377c2"/>
    </g>
    <g id="text_24">
     <!-- Internal Heat Exchanger -->
     <g transform="translate(204.84 257.728297) scale(0.18 -0.18)">
      <defs>
       <path id="DejaVuSans-49" d="M 628 4666 
L 1259 4666 
L 1259 0 
L 628 0 
L 628 4666 
z
" transform="scale(0.015625)"/>
       <path id="DejaVuSans-48" d="M 628 4666 
L 1259 4666 
L 1259 2753 
L 3553 2753 
L 3553 4666 
L 4184 4666 
L 4184 0 
L 3553 0 
L 3553 2222 
L 1259 2222 
L 1259 0 
L 628 0 
L 628 4666 
z
" transform="scale(0.015625)"/>
      </defs>
      <use xlink:href="#DejaVuSans-49"/>
      <use xlink:href="#DejaVuSans-6e" x="29.492188"/>
      <use xlink:href="#DejaVuSans-74" x="92.871094"/>
      <use xlink:href="#DejaVuSans-65" x="132.080078"/>
      <use xlink:href="#DejaVuSans-72" x="193.603516"/>
      <use xlink:href="#DejaVuSans-6e" x="232.966797"/>
      <use xlink:href="#DejaVuSans-61" x="296.345703"/>
      <use xlink:href="#DejaVuSans-6c" x="357.625"/>
      <use xlink:href="#DejaVuSans-20" x="385.408203"/>
      <use xlink:href="#DejaVuSans-48" x="417.195312"/>
      <use xlink:href="#DejaVuSans-65" x="492.390625"/>
      <use xlink:href="#DejaVuSans-61" x="553.914062"/>
      <use xlink:href="#DejaVuSans-74" x="615.193359"/>
      <use xlink:href="#DejaVuSans-20" x="654.402344"/>
      <use xlink:href="#DejaVuSans-45" x="686.189453"/>
      <use xlink:href="#DejaVuSans-78" x="749.373047"/>
      <use xlink:href="#DejaVuSans-63" x="806.802734"/>
      <use xlink:href="#DejaVuSans-68" x="861.783203"/>
      <use xlink:href="#DejaVuSans-61" x="925.162109"/>
      <use xlink:href="#DejaVuSans-6e" x="986.441406"/>
      <use xlink:href="#DejaVuSans-67" x="1049.820312"/>
      <use xlink:href="#DejaVuSans-65" x="1113.296875"/>
      <use xlink:href="#DejaVuSans-72" x="1174.820312"/>
     </g>
    </g>
    <g id="patch_215">
     <path d="M 154.44 284.148922 
L 190.44 284.148922 
L 190.44 271.548922 
L 154.44 271.548922 
z
" style="fill: #7f7f7f"/>
    </g>
    <g id="text_25">
     <!-- Merge -->
     <g transform="translate(204.84 284.148922) scale(0.18 -0.18)">
      <use xlink:href="#DejaVuSans-4d"/>
      <use xlink:href="#DejaVuSans-65" x="86.279297"/>
      <use xlink:href="#DejaVuSans-72" x="147.802734"/>
      <use xlink:href="#DejaVuSans-67" x="187.166016"/>
      <use xlink:href="#DejaVuSans-65" x="250.642578"/>
     </g>
    </g>
   </g>
  </g>
 </g>
 <defs>
  <clipPath id="pdcfdb819c9">
   <rect x="138.24" y="69.32736" width="857.088" height="444.85056"/>
  </clipPath>
 </defs>
</svg>
